<?xml version="1.0" encoding="utf-8" standalone="no"?>
<!DOCTYPE svg PUBLIC "-//W3C//DTD SVG 1.1//EN"
  "http://www.w3.org/Graphics/SVG/1.1/DTD/svg11.dtd">
<!-- Created with matplotlib (https://matplotlib.org/) -->
<svg height="449.28pt" version="1.1" viewBox="0 0 694.291406 449.28" width="694.291406pt" xmlns="http://www.w3.org/2000/svg" xmlns:xlink="http://www.w3.org/1999/xlink">
 <metadata>
  <rdf:RDF xmlns:cc="http://creativecommons.org/ns#" xmlns:dc="http://purl.org/dc/elements/1.1/" xmlns:rdf="http://www.w3.org/1999/02/22-rdf-syntax-ns#">
   <cc:Work>
    <dc:type rdf:resource="http://purl.org/dc/dcmitype/StillImage"/>
    <dc:date>2021-05-12T20:37:49.066494</dc:date>
    <dc:format>image/svg+xml</dc:format>
    <dc:creator>
     <cc:Agent>
      <dc:title>Matplotlib v3.3.4, https://matplotlib.org/</dc:title>
     </cc:Agent>
    </dc:creator>
   </cc:Work>
  </rdf:RDF>
 </metadata>
 <defs>
  <style type="text/css">*{stroke-linecap:butt;stroke-linejoin:round;}</style>
 </defs>
 <g id="figure_1">
  <g id="axes_1">
   <g id="table_1">
    <g id="patch_1">
     <path d="M 62.787877 70.036364 
L 80.512583 70.036364 
L 80.512583 52.036364 
L 62.787877 52.036364 
z
" style="fill:#ffffff;stroke:#000000;stroke-linejoin:miter;"/>
    </g>
    <g id="text_1">
     <!--   -->
     <g transform="translate(74.60855 64.623551)scale(0.13 -0.13)">
      <defs>
       <path id="DejaVuSans-32"/>
      </defs>
      <use xlink:href="#DejaVuSans-32"/>
     </g>
    </g>
    <g id="patch_2">
     <path d="M 80.512583 70.036364 
L 98.237289 70.036364 
L 98.237289 52.036364 
L 80.512583 52.036364 
z
" style="fill:#ffffff;stroke:#000000;stroke-linejoin:miter;"/>
    </g>
    <g id="text_2">
     <!--   -->
     <g transform="translate(92.333256 64.623551)scale(0.13 -0.13)">
      <use xlink:href="#DejaVuSans-32"/>
     </g>
    </g>
    <g id="patch_3">
     <path d="M 98.237289 70.036364 
L 115.961994 70.036364 
L 115.961994 52.036364 
L 98.237289 52.036364 
z
" style="fill:#ffffff;stroke:#000000;stroke-linejoin:miter;"/>
    </g>
    <g id="text_3">
     <!--   -->
     <g transform="translate(110.057961 64.623551)scale(0.13 -0.13)">
      <use xlink:href="#DejaVuSans-32"/>
     </g>
    </g>
    <g id="patch_4">
     <path d="M 115.961994 70.036364 
L 133.6867 70.036364 
L 133.6867 52.036364 
L 115.961994 52.036364 
z
" style="fill:#ffffff;stroke:#000000;stroke-linejoin:miter;"/>
    </g>
    <g id="text_4">
     <!--   -->
     <g transform="translate(127.782667 64.623551)scale(0.13 -0.13)">
      <use xlink:href="#DejaVuSans-32"/>
     </g>
    </g>
    <g id="patch_5">
     <path d="M 133.6867 70.036364 
L 151.411406 70.036364 
L 151.411406 52.036364 
L 133.6867 52.036364 
z
" style="fill:#ffffff;stroke:#000000;stroke-linejoin:miter;"/>
    </g>
    <g id="text_5">
     <!--   -->
     <g transform="translate(145.507373 64.623551)scale(0.13 -0.13)">
      <use xlink:href="#DejaVuSans-32"/>
     </g>
    </g>
    <g id="patch_6">
     <path d="M 151.411406 70.036364 
L 169.136112 70.036364 
L 169.136112 52.036364 
L 151.411406 52.036364 
z
" style="fill:#ffffff;stroke:#000000;stroke-linejoin:miter;"/>
    </g>
    <g id="text_6">
     <!--   -->
     <g transform="translate(163.232079 64.623551)scale(0.13 -0.13)">
      <use xlink:href="#DejaVuSans-32"/>
     </g>
    </g>
    <g id="patch_7">
     <path d="M 62.787877 88.036364 
L 80.512583 88.036364 
L 80.512583 70.036364 
L 62.787877 70.036364 
z
" style="fill:#ffffff;stroke:#000000;stroke-linejoin:miter;"/>
    </g>
    <g id="text_7">
     <!--   -->
     <g transform="translate(74.60855 82.623551)scale(0.13 -0.13)">
      <use xlink:href="#DejaVuSans-32"/>
     </g>
    </g>
    <g id="patch_8">
     <path d="M 80.512583 88.036364 
L 98.237289 88.036364 
L 98.237289 70.036364 
L 80.512583 70.036364 
z
" style="fill:#ffffff;stroke:#000000;stroke-linejoin:miter;"/>
    </g>
    <g id="text_8">
     <!--   -->
     <g transform="translate(92.333256 82.623551)scale(0.13 -0.13)">
      <use xlink:href="#DejaVuSans-32"/>
     </g>
    </g>
    <g id="patch_9">
     <path d="M 98.237289 88.036364 
L 115.961994 88.036364 
L 115.961994 70.036364 
L 98.237289 70.036364 
z
" style="fill:#ffffff;stroke:#000000;stroke-linejoin:miter;"/>
    </g>
    <g id="text_9">
     <!--   -->
     <g transform="translate(110.057961 82.623551)scale(0.13 -0.13)">
      <use xlink:href="#DejaVuSans-32"/>
     </g>
    </g>
    <g id="patch_10">
     <path d="M 115.961994 88.036364 
L 133.6867 88.036364 
L 133.6867 70.036364 
L 115.961994 70.036364 
z
" style="fill:#ffffff;stroke:#000000;stroke-linejoin:miter;"/>
    </g>
    <g id="text_10">
     <!--   -->
     <g transform="translate(127.782667 82.623551)scale(0.13 -0.13)">
      <use xlink:href="#DejaVuSans-32"/>
     </g>
    </g>
    <g id="patch_11">
     <path d="M 133.6867 88.036364 
L 151.411406 88.036364 
L 151.411406 70.036364 
L 133.6867 70.036364 
z
" style="fill:#ffffff;stroke:#000000;stroke-linejoin:miter;"/>
    </g>
    <g id="text_11">
     <!--   -->
     <g transform="translate(145.507373 82.623551)scale(0.13 -0.13)">
      <use xlink:href="#DejaVuSans-32"/>
     </g>
    </g>
    <g id="patch_12">
     <path d="M 151.411406 88.036364 
L 169.136112 88.036364 
L 169.136112 70.036364 
L 151.411406 70.036364 
z
" style="fill:#ffffff;stroke:#000000;stroke-linejoin:miter;"/>
    </g>
    <g id="text_12">
     <!--   -->
     <g transform="translate(163.232079 82.623551)scale(0.13 -0.13)">
      <use xlink:href="#DejaVuSans-32"/>
     </g>
    </g>
    <g id="patch_13">
     <path d="M 62.787877 106.036364 
L 80.512583 106.036364 
L 80.512583 88.036364 
L 62.787877 88.036364 
z
" style="fill:#ffffff;stroke:#000000;stroke-linejoin:miter;"/>
    </g>
    <g id="text_13">
     <!--   -->
     <g transform="translate(74.60855 100.623551)scale(0.13 -0.13)">
      <use xlink:href="#DejaVuSans-32"/>
     </g>
    </g>
    <g id="patch_14">
     <path d="M 80.512583 106.036364 
L 98.237289 106.036364 
L 98.237289 88.036364 
L 80.512583 88.036364 
z
" style="fill:#ffffff;stroke:#000000;stroke-linejoin:miter;"/>
    </g>
    <g id="text_14">
     <!--   -->
     <g transform="translate(92.333256 100.623551)scale(0.13 -0.13)">
      <use xlink:href="#DejaVuSans-32"/>
     </g>
    </g>
    <g id="patch_15">
     <path d="M 98.237289 106.036364 
L 115.961994 106.036364 
L 115.961994 88.036364 
L 98.237289 88.036364 
z
" style="fill:#ffffff;stroke:#000000;stroke-linejoin:miter;"/>
    </g>
    <g id="text_15">
     <!--   -->
     <g transform="translate(110.057961 100.623551)scale(0.13 -0.13)">
      <use xlink:href="#DejaVuSans-32"/>
     </g>
    </g>
    <g id="patch_16">
     <path d="M 115.961994 106.036364 
L 133.6867 106.036364 
L 133.6867 88.036364 
L 115.961994 88.036364 
z
" style="fill:#ffffff;stroke:#000000;stroke-linejoin:miter;"/>
    </g>
    <g id="text_16">
     <!--   -->
     <g transform="translate(127.782667 100.623551)scale(0.13 -0.13)">
      <use xlink:href="#DejaVuSans-32"/>
     </g>
    </g>
    <g id="patch_17">
     <path d="M 133.6867 106.036364 
L 151.411406 106.036364 
L 151.411406 88.036364 
L 133.6867 88.036364 
z
" style="fill:#ffffff;stroke:#000000;stroke-linejoin:miter;"/>
    </g>
    <g id="text_17">
     <!--   -->
     <g transform="translate(145.507373 100.623551)scale(0.13 -0.13)">
      <use xlink:href="#DejaVuSans-32"/>
     </g>
    </g>
    <g id="patch_18">
     <path d="M 151.411406 106.036364 
L 169.136112 106.036364 
L 169.136112 88.036364 
L 151.411406 88.036364 
z
" style="fill:#ffffff;stroke:#000000;stroke-linejoin:miter;"/>
    </g>
    <g id="text_18">
     <!--   -->
     <g transform="translate(163.232079 100.623551)scale(0.13 -0.13)">
      <use xlink:href="#DejaVuSans-32"/>
     </g>
    </g>
    <g id="patch_19">
     <path d="M 62.787877 124.036364 
L 80.512583 124.036364 
L 80.512583 106.036364 
L 62.787877 106.036364 
z
" style="fill:#ffffff;stroke:#000000;stroke-linejoin:miter;"/>
    </g>
    <g id="text_19">
     <!--   -->
     <g transform="translate(74.60855 118.623551)scale(0.13 -0.13)">
      <use xlink:href="#DejaVuSans-32"/>
     </g>
    </g>
    <g id="patch_20">
     <path d="M 80.512583 124.036364 
L 98.237289 124.036364 
L 98.237289 106.036364 
L 80.512583 106.036364 
z
" style="fill:#ffffff;stroke:#000000;stroke-linejoin:miter;"/>
    </g>
    <g id="text_20">
     <!--   -->
     <g transform="translate(92.333256 118.623551)scale(0.13 -0.13)">
      <use xlink:href="#DejaVuSans-32"/>
     </g>
    </g>
    <g id="patch_21">
     <path d="M 98.237289 124.036364 
L 115.961994 124.036364 
L 115.961994 106.036364 
L 98.237289 106.036364 
z
" style="fill:#ffffff;stroke:#000000;stroke-linejoin:miter;"/>
    </g>
    <g id="text_21">
     <!--   -->
     <g transform="translate(110.057961 118.623551)scale(0.13 -0.13)">
      <use xlink:href="#DejaVuSans-32"/>
     </g>
    </g>
    <g id="patch_22">
     <path d="M 115.961994 124.036364 
L 133.6867 124.036364 
L 133.6867 106.036364 
L 115.961994 106.036364 
z
" style="fill:#ffffff;stroke:#000000;stroke-linejoin:miter;"/>
    </g>
    <g id="text_22">
     <!--   -->
     <g transform="translate(127.782667 118.623551)scale(0.13 -0.13)">
      <use xlink:href="#DejaVuSans-32"/>
     </g>
    </g>
    <g id="patch_23">
     <path d="M 133.6867 124.036364 
L 151.411406 124.036364 
L 151.411406 106.036364 
L 133.6867 106.036364 
z
" style="fill:#ffffff;stroke:#000000;stroke-linejoin:miter;"/>
    </g>
    <g id="text_23">
     <!--   -->
     <g transform="translate(145.507373 118.623551)scale(0.13 -0.13)">
      <use xlink:href="#DejaVuSans-32"/>
     </g>
    </g>
    <g id="patch_24">
     <path d="M 151.411406 124.036364 
L 169.136112 124.036364 
L 169.136112 106.036364 
L 151.411406 106.036364 
z
" style="fill:#ffffff;stroke:#000000;stroke-linejoin:miter;"/>
    </g>
    <g id="text_24">
     <!--   -->
     <g transform="translate(163.232079 118.623551)scale(0.13 -0.13)">
      <use xlink:href="#DejaVuSans-32"/>
     </g>
    </g>
    <g id="patch_25">
     <path d="M 62.787877 142.036364 
L 80.512583 142.036364 
L 80.512583 124.036364 
L 62.787877 124.036364 
z
" style="fill:#ffffff;stroke:#000000;stroke-linejoin:miter;"/>
    </g>
    <g id="text_25">
     <!--   -->
     <g transform="translate(74.60855 136.623551)scale(0.13 -0.13)">
      <use xlink:href="#DejaVuSans-32"/>
     </g>
    </g>
    <g id="patch_26">
     <path d="M 80.512583 142.036364 
L 98.237289 142.036364 
L 98.237289 124.036364 
L 80.512583 124.036364 
z
" style="fill:#ffffff;stroke:#000000;stroke-linejoin:miter;"/>
    </g>
    <g id="text_26">
     <!--   -->
     <g transform="translate(92.333256 136.623551)scale(0.13 -0.13)">
      <use xlink:href="#DejaVuSans-32"/>
     </g>
    </g>
    <g id="patch_27">
     <path d="M 98.237289 142.036364 
L 115.961994 142.036364 
L 115.961994 124.036364 
L 98.237289 124.036364 
z
" style="fill:#ffffff;stroke:#000000;stroke-linejoin:miter;"/>
    </g>
    <g id="text_27">
     <!--   -->
     <g transform="translate(110.057961 136.623551)scale(0.13 -0.13)">
      <use xlink:href="#DejaVuSans-32"/>
     </g>
    </g>
    <g id="patch_28">
     <path d="M 115.961994 142.036364 
L 133.6867 142.036364 
L 133.6867 124.036364 
L 115.961994 124.036364 
z
" style="fill:#ffffff;stroke:#000000;stroke-linejoin:miter;"/>
    </g>
    <g id="text_28">
     <!--   -->
     <g transform="translate(127.782667 136.623551)scale(0.13 -0.13)">
      <use xlink:href="#DejaVuSans-32"/>
     </g>
    </g>
    <g id="patch_29">
     <path d="M 133.6867 142.036364 
L 151.411406 142.036364 
L 151.411406 124.036364 
L 133.6867 124.036364 
z
" style="fill:#ffffff;stroke:#000000;stroke-linejoin:miter;"/>
    </g>
    <g id="text_29">
     <!--   -->
     <g transform="translate(145.507373 136.623551)scale(0.13 -0.13)">
      <use xlink:href="#DejaVuSans-32"/>
     </g>
    </g>
    <g id="patch_30">
     <path d="M 151.411406 142.036364 
L 169.136112 142.036364 
L 169.136112 124.036364 
L 151.411406 124.036364 
z
" style="fill:#ffffff;stroke:#000000;stroke-linejoin:miter;"/>
    </g>
    <g id="text_30">
     <!--   -->
     <g transform="translate(163.232079 136.623551)scale(0.13 -0.13)">
      <use xlink:href="#DejaVuSans-32"/>
     </g>
    </g>
    <g id="patch_31">
     <path d="M 62.787877 160.036364 
L 80.512583 160.036364 
L 80.512583 142.036364 
L 62.787877 142.036364 
z
" style="fill:#ffffff;stroke:#000000;stroke-linejoin:miter;"/>
    </g>
    <g id="text_31">
     <!--   -->
     <g transform="translate(74.60855 154.623551)scale(0.13 -0.13)">
      <use xlink:href="#DejaVuSans-32"/>
     </g>
    </g>
    <g id="patch_32">
     <path d="M 80.512583 160.036364 
L 98.237289 160.036364 
L 98.237289 142.036364 
L 80.512583 142.036364 
z
" style="fill:#ffffff;stroke:#000000;stroke-linejoin:miter;"/>
    </g>
    <g id="text_32">
     <!--   -->
     <g transform="translate(92.333256 154.623551)scale(0.13 -0.13)">
      <use xlink:href="#DejaVuSans-32"/>
     </g>
    </g>
    <g id="patch_33">
     <path d="M 98.237289 160.036364 
L 115.961994 160.036364 
L 115.961994 142.036364 
L 98.237289 142.036364 
z
" style="fill:#ffffff;stroke:#000000;stroke-linejoin:miter;"/>
    </g>
    <g id="text_33">
     <!--   -->
     <g transform="translate(110.057961 154.623551)scale(0.13 -0.13)">
      <use xlink:href="#DejaVuSans-32"/>
     </g>
    </g>
    <g id="patch_34">
     <path d="M 115.961994 160.036364 
L 133.6867 160.036364 
L 133.6867 142.036364 
L 115.961994 142.036364 
z
" style="fill:#ffffff;stroke:#000000;stroke-linejoin:miter;"/>
    </g>
    <g id="text_34">
     <!--   -->
     <g transform="translate(127.782667 154.623551)scale(0.13 -0.13)">
      <use xlink:href="#DejaVuSans-32"/>
     </g>
    </g>
    <g id="patch_35">
     <path d="M 133.6867 160.036364 
L 151.411406 160.036364 
L 151.411406 142.036364 
L 133.6867 142.036364 
z
" style="fill:#ffffff;stroke:#000000;stroke-linejoin:miter;"/>
    </g>
    <g id="text_35">
     <!--   -->
     <g transform="translate(145.507373 154.623551)scale(0.13 -0.13)">
      <use xlink:href="#DejaVuSans-32"/>
     </g>
    </g>
    <g id="patch_36">
     <path d="M 151.411406 160.036364 
L 169.136112 160.036364 
L 169.136112 142.036364 
L 151.411406 142.036364 
z
" style="fill:#ffffff;stroke:#000000;stroke-linejoin:miter;"/>
    </g>
    <g id="text_36">
     <!--   -->
     <g transform="translate(163.232079 154.623551)scale(0.13 -0.13)">
      <use xlink:href="#DejaVuSans-32"/>
     </g>
    </g>
   </g>
   <g id="text_37">
    <!-- $6\times 6 $ -->
    <g transform="translate(102.116994 194.983423)scale(0.13 -0.13)">
     <defs>
      <path d="M 25 -2.203125 
Q 18.796875 -2.203125 14.640625 1.09375 
Q 10.5 4.390625 8.21875 9.640625 
Q 5.953125 14.890625 5.078125 20.65625 
Q 4.203125 26.421875 4.203125 32.328125 
Q 4.203125 40.234375 7.28125 48.1875 
Q 10.359375 56.15625 16.328125 61.375 
Q 22.3125 66.609375 30.515625 66.609375 
Q 33.9375 66.609375 36.890625 65.3125 
Q 39.84375 64.015625 41.53125 61.5 
Q 43.21875 58.984375 43.21875 55.421875 
Q 43.21875 53.375 41.828125 51.984375 
Q 40.4375 50.59375 38.375 50.59375 
Q 36.421875 50.59375 35 52 
Q 33.59375 53.421875 33.59375 55.421875 
Q 33.59375 57.375 35 58.78125 
Q 36.421875 60.203125 38.375 60.203125 
L 38.921875 60.203125 
Q 37.640625 62.015625 35.328125 62.859375 
Q 33.015625 63.71875 30.515625 63.71875 
Q 27.484375 63.71875 24.921875 62.390625 
Q 22.359375 61.078125 20.3125 58.828125 
Q 18.265625 56.59375 16.890625 53.875 
Q 15.53125 51.171875 14.765625 47.703125 
Q 14.015625 44.234375 13.8125 41.203125 
Q 13.625 38.1875 13.625 33.59375 
Q 15.375 37.703125 18.59375 40.3125 
Q 21.828125 42.921875 25.875 42.921875 
Q 30.328125 42.921875 33.984375 41.109375 
Q 37.640625 39.3125 40.28125 36.109375 
Q 42.921875 32.90625 44.3125 28.796875 
Q 45.703125 24.703125 45.703125 20.515625 
Q 45.703125 14.65625 43.09375 9.34375 
Q 40.484375 4.046875 35.734375 0.921875 
Q 31 -2.203125 25 -2.203125 
z
M 25 0.984375 
Q 28.859375 0.984375 31.203125 2.734375 
Q 33.546875 4.5 34.640625 7.390625 
Q 35.75 10.296875 36.015625 13.25 
Q 36.28125 16.21875 36.28125 20.515625 
Q 36.28125 26.171875 35.734375 30.171875 
Q 35.203125 34.1875 32.8125 37.234375 
Q 30.421875 40.28125 25.484375 40.28125 
Q 21.4375 40.28125 18.828125 37.546875 
Q 16.21875 34.8125 15.015625 30.640625 
Q 13.8125 26.46875 13.8125 22.609375 
Q 13.8125 21.296875 13.921875 20.609375 
Q 13.921875 20.453125 13.890625 20.359375 
Q 13.875 20.265625 13.8125 20.125 
Q 13.8125 15.828125 14.6875 11.421875 
Q 15.578125 7.03125 18.0625 4 
Q 20.5625 0.984375 25 0.984375 
z
" id="Cmr10-54"/>
      <path d="M 14.703125 2.875 
Q 14.703125 3.65625 15.1875 4.296875 
L 35.984375 25 
L 15.1875 45.796875 
Q 14.703125 46.296875 14.703125 47.125 
Q 14.703125 47.859375 15.28125 48.484375 
Q 15.875 49.125 16.703125 49.125 
Q 17.390625 49.125 18.21875 48.484375 
L 38.921875 27.78125 
L 59.515625 48.484375 
Q 60.359375 49.125 60.984375 49.125 
Q 61.8125 49.125 62.390625 48.53125 
Q 62.984375 47.953125 62.984375 47.125 
Q 62.984375 46.296875 62.5 45.796875 
L 41.703125 25 
L 62.5 4.296875 
Q 62.984375 3.65625 62.984375 2.875 
Q 62.984375 2.046875 62.390625 1.453125 
Q 61.8125 0.875 60.984375 0.875 
Q 60.25 0.875 59.515625 1.609375 
L 38.921875 22.21875 
L 18.21875 1.609375 
Q 17.484375 0.875 16.703125 0.875 
Q 15.875 0.875 15.28125 1.515625 
Q 14.703125 2.15625 14.703125 2.875 
z
" id="Cmsy10-163"/>
     </defs>
     <use transform="translate(0 0.390625)" xlink:href="#Cmr10-54"/>
     <use transform="translate(67.558594 0.390625)" xlink:href="#Cmsy10-163"/>
     <use transform="translate(162.802734 0.390625)" xlink:href="#Cmr10-54"/>
    </g>
    <!-- image -->
    <g transform="translate(95.71551 209.54058)scale(0.13 -0.13)">
     <defs>
      <path d="M 9.421875 54.6875 
L 18.40625 54.6875 
L 18.40625 0 
L 9.421875 0 
z
M 9.421875 75.984375 
L 18.40625 75.984375 
L 18.40625 64.59375 
L 9.421875 64.59375 
z
" id="DejaVuSans-105"/>
      <path d="M 52 44.1875 
Q 55.375 50.25 60.0625 53.125 
Q 64.75 56 71.09375 56 
Q 79.640625 56 84.28125 50.015625 
Q 88.921875 44.046875 88.921875 33.015625 
L 88.921875 0 
L 79.890625 0 
L 79.890625 32.71875 
Q 79.890625 40.578125 77.09375 44.375 
Q 74.3125 48.1875 68.609375 48.1875 
Q 61.625 48.1875 57.5625 43.546875 
Q 53.515625 38.921875 53.515625 30.90625 
L 53.515625 0 
L 44.484375 0 
L 44.484375 32.71875 
Q 44.484375 40.625 41.703125 44.40625 
Q 38.921875 48.1875 33.109375 48.1875 
Q 26.21875 48.1875 22.15625 43.53125 
Q 18.109375 38.875 18.109375 30.90625 
L 18.109375 0 
L 9.078125 0 
L 9.078125 54.6875 
L 18.109375 54.6875 
L 18.109375 46.1875 
Q 21.1875 51.21875 25.484375 53.609375 
Q 29.78125 56 35.6875 56 
Q 41.65625 56 45.828125 52.96875 
Q 50 49.953125 52 44.1875 
z
" id="DejaVuSans-109"/>
      <path d="M 34.28125 27.484375 
Q 23.390625 27.484375 19.1875 25 
Q 14.984375 22.515625 14.984375 16.5 
Q 14.984375 11.71875 18.140625 8.90625 
Q 21.296875 6.109375 26.703125 6.109375 
Q 34.1875 6.109375 38.703125 11.40625 
Q 43.21875 16.703125 43.21875 25.484375 
L 43.21875 27.484375 
z
M 52.203125 31.203125 
L 52.203125 0 
L 43.21875 0 
L 43.21875 8.296875 
Q 40.140625 3.328125 35.546875 0.953125 
Q 30.953125 -1.421875 24.3125 -1.421875 
Q 15.921875 -1.421875 10.953125 3.296875 
Q 6 8.015625 6 15.921875 
Q 6 25.140625 12.171875 29.828125 
Q 18.359375 34.515625 30.609375 34.515625 
L 43.21875 34.515625 
L 43.21875 35.40625 
Q 43.21875 41.609375 39.140625 45 
Q 35.0625 48.390625 27.6875 48.390625 
Q 23 48.390625 18.546875 47.265625 
Q 14.109375 46.140625 10.015625 43.890625 
L 10.015625 52.203125 
Q 14.9375 54.109375 19.578125 55.046875 
Q 24.21875 56 28.609375 56 
Q 40.484375 56 46.34375 49.84375 
Q 52.203125 43.703125 52.203125 31.203125 
z
" id="DejaVuSans-97"/>
      <path d="M 45.40625 27.984375 
Q 45.40625 37.75 41.375 43.109375 
Q 37.359375 48.484375 30.078125 48.484375 
Q 22.859375 48.484375 18.828125 43.109375 
Q 14.796875 37.75 14.796875 27.984375 
Q 14.796875 18.265625 18.828125 12.890625 
Q 22.859375 7.515625 30.078125 7.515625 
Q 37.359375 7.515625 41.375 12.890625 
Q 45.40625 18.265625 45.40625 27.984375 
z
M 54.390625 6.78125 
Q 54.390625 -7.171875 48.1875 -13.984375 
Q 42 -20.796875 29.203125 -20.796875 
Q 24.46875 -20.796875 20.265625 -20.09375 
Q 16.0625 -19.390625 12.109375 -17.921875 
L 12.109375 -9.1875 
Q 16.0625 -11.328125 19.921875 -12.34375 
Q 23.78125 -13.375 27.78125 -13.375 
Q 36.625 -13.375 41.015625 -8.765625 
Q 45.40625 -4.15625 45.40625 5.171875 
L 45.40625 9.625 
Q 42.625 4.78125 38.28125 2.390625 
Q 33.9375 0 27.875 0 
Q 17.828125 0 11.671875 7.65625 
Q 5.515625 15.328125 5.515625 27.984375 
Q 5.515625 40.671875 11.671875 48.328125 
Q 17.828125 56 27.875 56 
Q 33.9375 56 38.28125 53.609375 
Q 42.625 51.21875 45.40625 46.390625 
L 45.40625 54.6875 
L 54.390625 54.6875 
z
" id="DejaVuSans-103"/>
      <path d="M 56.203125 29.59375 
L 56.203125 25.203125 
L 14.890625 25.203125 
Q 15.484375 15.921875 20.484375 11.0625 
Q 25.484375 6.203125 34.421875 6.203125 
Q 39.59375 6.203125 44.453125 7.46875 
Q 49.3125 8.734375 54.109375 11.28125 
L 54.109375 2.78125 
Q 49.265625 0.734375 44.1875 -0.34375 
Q 39.109375 -1.421875 33.890625 -1.421875 
Q 20.796875 -1.421875 13.15625 6.1875 
Q 5.515625 13.8125 5.515625 26.8125 
Q 5.515625 40.234375 12.765625 48.109375 
Q 20.015625 56 32.328125 56 
Q 43.359375 56 49.78125 48.890625 
Q 56.203125 41.796875 56.203125 29.59375 
z
M 47.21875 32.234375 
Q 47.125 39.59375 43.09375 43.984375 
Q 39.0625 48.390625 32.421875 48.390625 
Q 24.90625 48.390625 20.390625 44.140625 
Q 15.875 39.890625 15.1875 32.171875 
z
" id="DejaVuSans-101"/>
     </defs>
     <use xlink:href="#DejaVuSans-105"/>
     <use x="27.783203" xlink:href="#DejaVuSans-109"/>
     <use x="125.195312" xlink:href="#DejaVuSans-97"/>
     <use x="186.474609" xlink:href="#DejaVuSans-103"/>
     <use x="249.951172" xlink:href="#DejaVuSans-101"/>
    </g>
   </g>
  </g>
  <g id="axes_2">
   <g id="table_2">
    <g id="patch_37">
     <path d="M 325.704347 97.036364 
L 343.429053 97.036364 
L 343.429053 79.036364 
L 325.704347 79.036364 
z
" style="fill:#ffffff;stroke:#000000;stroke-linejoin:miter;"/>
    </g>
    <g id="text_38">
     <!--   -->
     <g transform="translate(337.52502 91.623551)scale(0.13 -0.13)">
      <use xlink:href="#DejaVuSans-32"/>
     </g>
    </g>
    <g id="patch_38">
     <path d="M 343.429053 97.036364 
L 361.153759 97.036364 
L 361.153759 79.036364 
L 343.429053 79.036364 
z
" style="fill:#ffffff;stroke:#000000;stroke-linejoin:miter;"/>
    </g>
    <g id="text_39">
     <!--   -->
     <g transform="translate(355.249726 91.623551)scale(0.13 -0.13)">
      <use xlink:href="#DejaVuSans-32"/>
     </g>
    </g>
    <g id="patch_39">
     <path d="M 361.153759 97.036364 
L 378.878465 97.036364 
L 378.878465 79.036364 
L 361.153759 79.036364 
z
" style="fill:#ffffff;stroke:#000000;stroke-linejoin:miter;"/>
    </g>
    <g id="text_40">
     <!--   -->
     <g transform="translate(372.974432 91.623551)scale(0.13 -0.13)">
      <use xlink:href="#DejaVuSans-32"/>
     </g>
    </g>
    <g id="patch_40">
     <path d="M 325.704347 115.036364 
L 343.429053 115.036364 
L 343.429053 97.036364 
L 325.704347 97.036364 
z
" style="fill:#ffffff;stroke:#000000;stroke-linejoin:miter;"/>
    </g>
    <g id="text_41">
     <!--   -->
     <g transform="translate(337.52502 109.623551)scale(0.13 -0.13)">
      <use xlink:href="#DejaVuSans-32"/>
     </g>
    </g>
    <g id="patch_41">
     <path d="M 343.429053 115.036364 
L 361.153759 115.036364 
L 361.153759 97.036364 
L 343.429053 97.036364 
z
" style="fill:#ffffff;stroke:#000000;stroke-linejoin:miter;"/>
    </g>
    <g id="text_42">
     <!--   -->
     <g transform="translate(355.249726 109.623551)scale(0.13 -0.13)">
      <use xlink:href="#DejaVuSans-32"/>
     </g>
    </g>
    <g id="patch_42">
     <path d="M 361.153759 115.036364 
L 378.878465 115.036364 
L 378.878465 97.036364 
L 361.153759 97.036364 
z
" style="fill:#ffffff;stroke:#000000;stroke-linejoin:miter;"/>
    </g>
    <g id="text_43">
     <!--   -->
     <g transform="translate(372.974432 109.623551)scale(0.13 -0.13)">
      <use xlink:href="#DejaVuSans-32"/>
     </g>
    </g>
    <g id="patch_43">
     <path d="M 325.704347 133.036364 
L 343.429053 133.036364 
L 343.429053 115.036364 
L 325.704347 115.036364 
z
" style="fill:#ffffff;stroke:#000000;stroke-linejoin:miter;"/>
    </g>
    <g id="text_44">
     <!--   -->
     <g transform="translate(337.52502 127.623551)scale(0.13 -0.13)">
      <use xlink:href="#DejaVuSans-32"/>
     </g>
    </g>
    <g id="patch_44">
     <path d="M 343.429053 133.036364 
L 361.153759 133.036364 
L 361.153759 115.036364 
L 343.429053 115.036364 
z
" style="fill:#ffffff;stroke:#000000;stroke-linejoin:miter;"/>
    </g>
    <g id="text_45">
     <!--   -->
     <g transform="translate(355.249726 127.623551)scale(0.13 -0.13)">
      <use xlink:href="#DejaVuSans-32"/>
     </g>
    </g>
    <g id="patch_45">
     <path d="M 361.153759 133.036364 
L 378.878465 133.036364 
L 378.878465 115.036364 
L 361.153759 115.036364 
z
" style="fill:#ffffff;stroke:#000000;stroke-linejoin:miter;"/>
    </g>
    <g id="text_46">
     <!--   -->
     <g transform="translate(372.974432 127.623551)scale(0.13 -0.13)">
      <use xlink:href="#DejaVuSans-32"/>
     </g>
    </g>
   </g>
   <g id="text_47">
    <!-- * -->
    <g transform="translate(234.1267 110.175426)scale(0.15 -0.15)">
     <defs>
      <path d="M 47.015625 60.890625 
L 29.5 51.421875 
L 47.015625 41.890625 
L 44.1875 37.109375 
L 27.78125 47.015625 
L 27.78125 28.609375 
L 22.21875 28.609375 
L 22.21875 47.015625 
L 5.8125 37.109375 
L 2.984375 41.890625 
L 20.515625 51.421875 
L 2.984375 60.890625 
L 5.8125 65.71875 
L 22.21875 55.8125 
L 22.21875 74.21875 
L 27.78125 74.21875 
L 27.78125 55.8125 
L 44.1875 65.71875 
z
" id="DejaVuSans-42"/>
     </defs>
     <use xlink:href="#DejaVuSans-42"/>
    </g>
   </g>
   <g id="text_48">
    <!-- $3\times 3$ -->
    <g transform="translate(338.446406 194.983423)scale(0.13 -0.13)">
     <defs>
      <path d="M 9.515625 7.71875 
Q 11.859375 4.296875 15.8125 2.640625 
Q 19.78125 0.984375 24.3125 0.984375 
Q 30.125 0.984375 32.5625 5.9375 
Q 35.015625 10.890625 35.015625 17.1875 
Q 35.015625 20.015625 34.5 22.84375 
Q 33.984375 25.6875 32.765625 28.125 
Q 31.546875 30.5625 29.421875 32.03125 
Q 27.296875 33.5 24.21875 33.5 
L 17.578125 33.5 
Q 16.703125 33.5 16.703125 34.421875 
L 16.703125 35.296875 
Q 16.703125 36.078125 17.578125 36.078125 
L 23.09375 36.53125 
Q 26.609375 36.53125 28.921875 39.15625 
Q 31.25 41.796875 32.328125 45.578125 
Q 33.40625 49.359375 33.40625 52.78125 
Q 33.40625 57.5625 31.15625 60.640625 
Q 28.90625 63.71875 24.3125 63.71875 
Q 20.515625 63.71875 17.046875 62.28125 
Q 13.578125 60.84375 11.53125 57.90625 
Q 11.71875 57.953125 11.859375 57.984375 
Q 12.015625 58.015625 12.203125 58.015625 
Q 14.453125 58.015625 15.96875 56.453125 
Q 17.484375 54.890625 17.484375 52.6875 
Q 17.484375 50.53125 15.96875 48.96875 
Q 14.453125 47.40625 12.203125 47.40625 
Q 10.015625 47.40625 8.453125 48.96875 
Q 6.890625 50.53125 6.890625 52.6875 
Q 6.890625 56.984375 9.46875 60.15625 
Q 12.0625 63.328125 16.140625 64.96875 
Q 20.21875 66.609375 24.3125 66.609375 
Q 27.34375 66.609375 30.703125 65.703125 
Q 34.078125 64.796875 36.8125 63.109375 
Q 39.546875 61.421875 41.28125 58.78125 
Q 43.015625 56.15625 43.015625 52.78125 
Q 43.015625 48.578125 41.140625 45.015625 
Q 39.265625 41.453125 35.984375 38.859375 
Q 32.71875 36.28125 28.8125 35.015625 
Q 33.15625 34.1875 37.0625 31.734375 
Q 40.96875 29.296875 43.328125 25.484375 
Q 45.703125 21.6875 45.703125 17.28125 
Q 45.703125 11.765625 42.671875 7.296875 
Q 39.65625 2.828125 34.71875 0.3125 
Q 29.78125 -2.203125 24.3125 -2.203125 
Q 19.625 -2.203125 14.90625 -0.40625 
Q 10.203125 1.375 7.203125 4.9375 
Q 4.203125 8.5 4.203125 13.484375 
Q 4.203125 15.96875 5.859375 17.625 
Q 7.515625 19.28125 10.015625 19.28125 
Q 11.625 19.28125 12.96875 18.53125 
Q 14.3125 17.78125 15.0625 16.40625 
Q 15.828125 15.046875 15.828125 13.484375 
Q 15.828125 11.03125 14.109375 9.375 
Q 12.40625 7.71875 10.015625 7.71875 
z
" id="Cmr10-51"/>
     </defs>
     <use transform="translate(0 0.390625)" xlink:href="#Cmr10-51"/>
     <use transform="translate(67.558594 0.390625)" xlink:href="#Cmsy10-163"/>
     <use transform="translate(162.802734 0.390625)" xlink:href="#Cmr10-51"/>
    </g>
    <!-- filter -->
    <g transform="translate(337.171797 209.54058)scale(0.13 -0.13)">
     <defs>
      <path d="M 37.109375 75.984375 
L 37.109375 68.5 
L 28.515625 68.5 
Q 23.6875 68.5 21.796875 66.546875 
Q 19.921875 64.59375 19.921875 59.515625 
L 19.921875 54.6875 
L 34.71875 54.6875 
L 34.71875 47.703125 
L 19.921875 47.703125 
L 19.921875 0 
L 10.890625 0 
L 10.890625 47.703125 
L 2.296875 47.703125 
L 2.296875 54.6875 
L 10.890625 54.6875 
L 10.890625 58.5 
Q 10.890625 67.625 15.140625 71.796875 
Q 19.390625 75.984375 28.609375 75.984375 
z
" id="DejaVuSans-102"/>
      <path d="M 9.421875 75.984375 
L 18.40625 75.984375 
L 18.40625 0 
L 9.421875 0 
z
" id="DejaVuSans-108"/>
      <path d="M 18.3125 70.21875 
L 18.3125 54.6875 
L 36.8125 54.6875 
L 36.8125 47.703125 
L 18.3125 47.703125 
L 18.3125 18.015625 
Q 18.3125 11.328125 20.140625 9.421875 
Q 21.96875 7.515625 27.59375 7.515625 
L 36.8125 7.515625 
L 36.8125 0 
L 27.59375 0 
Q 17.1875 0 13.234375 3.875 
Q 9.28125 7.765625 9.28125 18.015625 
L 9.28125 47.703125 
L 2.6875 47.703125 
L 2.6875 54.6875 
L 9.28125 54.6875 
L 9.28125 70.21875 
z
" id="DejaVuSans-116"/>
      <path d="M 41.109375 46.296875 
Q 39.59375 47.171875 37.8125 47.578125 
Q 36.03125 48 33.890625 48 
Q 26.265625 48 22.1875 43.046875 
Q 18.109375 38.09375 18.109375 28.8125 
L 18.109375 0 
L 9.078125 0 
L 9.078125 54.6875 
L 18.109375 54.6875 
L 18.109375 46.1875 
Q 20.953125 51.171875 25.484375 53.578125 
Q 30.03125 56 36.53125 56 
Q 37.453125 56 38.578125 55.875 
Q 39.703125 55.765625 41.0625 55.515625 
z
" id="DejaVuSans-114"/>
     </defs>
     <use xlink:href="#DejaVuSans-102"/>
     <use x="35.205078" xlink:href="#DejaVuSans-105"/>
     <use x="62.988281" xlink:href="#DejaVuSans-108"/>
     <use x="90.771484" xlink:href="#DejaVuSans-116"/>
     <use x="129.980469" xlink:href="#DejaVuSans-101"/>
     <use x="191.503906" xlink:href="#DejaVuSans-114"/>
    </g>
    <!-- (kernel) -->
    <g transform="translate(327.208516 224.097736)scale(0.13 -0.13)">
     <defs>
      <path d="M 31 75.875 
Q 24.46875 64.65625 21.28125 53.65625 
Q 18.109375 42.671875 18.109375 31.390625 
Q 18.109375 20.125 21.3125 9.0625 
Q 24.515625 -2 31 -13.1875 
L 23.1875 -13.1875 
Q 15.875 -1.703125 12.234375 9.375 
Q 8.59375 20.453125 8.59375 31.390625 
Q 8.59375 42.28125 12.203125 53.3125 
Q 15.828125 64.359375 23.1875 75.875 
z
" id="DejaVuSans-40"/>
      <path d="M 9.078125 75.984375 
L 18.109375 75.984375 
L 18.109375 31.109375 
L 44.921875 54.6875 
L 56.390625 54.6875 
L 27.390625 29.109375 
L 57.625 0 
L 45.90625 0 
L 18.109375 26.703125 
L 18.109375 0 
L 9.078125 0 
z
" id="DejaVuSans-107"/>
      <path d="M 54.890625 33.015625 
L 54.890625 0 
L 45.90625 0 
L 45.90625 32.71875 
Q 45.90625 40.484375 42.875 44.328125 
Q 39.84375 48.1875 33.796875 48.1875 
Q 26.515625 48.1875 22.3125 43.546875 
Q 18.109375 38.921875 18.109375 30.90625 
L 18.109375 0 
L 9.078125 0 
L 9.078125 54.6875 
L 18.109375 54.6875 
L 18.109375 46.1875 
Q 21.34375 51.125 25.703125 53.5625 
Q 30.078125 56 35.796875 56 
Q 45.21875 56 50.046875 50.171875 
Q 54.890625 44.34375 54.890625 33.015625 
z
" id="DejaVuSans-110"/>
      <path d="M 8.015625 75.875 
L 15.828125 75.875 
Q 23.140625 64.359375 26.78125 53.3125 
Q 30.421875 42.28125 30.421875 31.390625 
Q 30.421875 20.453125 26.78125 9.375 
Q 23.140625 -1.703125 15.828125 -13.1875 
L 8.015625 -13.1875 
Q 14.5 -2 17.703125 9.0625 
Q 20.90625 20.125 20.90625 31.390625 
Q 20.90625 42.671875 17.703125 53.65625 
Q 14.5 64.65625 8.015625 75.875 
z
" id="DejaVuSans-41"/>
     </defs>
     <use xlink:href="#DejaVuSans-40"/>
     <use x="39.013672" xlink:href="#DejaVuSans-107"/>
     <use x="93.298828" xlink:href="#DejaVuSans-101"/>
     <use x="154.822266" xlink:href="#DejaVuSans-114"/>
     <use x="194.185547" xlink:href="#DejaVuSans-110"/>
     <use x="257.564453" xlink:href="#DejaVuSans-101"/>
     <use x="319.087891" xlink:href="#DejaVuSans-108"/>
     <use x="346.871094" xlink:href="#DejaVuSans-41"/>
    </g>
   </g>
  </g>
  <g id="axes_3">
   <g id="text_49">
    <!-- = -->
    <g transform="translate(450.761994 110.175426)scale(0.15 -0.15)">
     <defs>
      <path d="M 10.59375 45.40625 
L 73.1875 45.40625 
L 73.1875 37.203125 
L 10.59375 37.203125 
z
M 10.59375 25.484375 
L 73.1875 25.484375 
L 73.1875 17.1875 
L 10.59375 17.1875 
z
" id="DejaVuSans-61"/>
     </defs>
     <use xlink:href="#DejaVuSans-61"/>
    </g>
   </g>
   <g id="text_50">
    <!-- $4\times 4 $ -->
    <g transform="translate(574.775818 95.066395)scale(0.13 -0.13)">
     <defs>
      <path d="M 2.78125 16.5 
L 2.78125 20.015625 
L 33.6875 66.109375 
Q 34.03125 66.609375 34.71875 66.609375 
L 36.1875 66.609375 
Q 37.3125 66.609375 37.3125 65.484375 
L 37.3125 20.015625 
L 47.125 20.015625 
L 47.125 16.5 
L 37.3125 16.5 
L 37.3125 6.6875 
Q 37.3125 4.640625 40.234375 4.078125 
Q 43.171875 3.515625 47.015625 3.515625 
L 47.015625 0 
L 19.484375 0 
L 19.484375 3.515625 
Q 23.34375 3.515625 26.265625 4.078125 
Q 29.203125 4.640625 29.203125 6.6875 
L 29.203125 16.5 
z
M 6.109375 20.015625 
L 29.78125 20.015625 
L 29.78125 55.421875 
z
" id="Cmr10-52"/>
     </defs>
     <use transform="translate(0 0.390625)" xlink:href="#Cmr10-52"/>
     <use transform="translate(67.558594 0.390625)" xlink:href="#Cmsy10-163"/>
     <use transform="translate(162.802734 0.390625)" xlink:href="#Cmr10-52"/>
    </g>
    <!-- convolved -->
    <g transform="translate(555.346912 109.623551)scale(0.13 -0.13)">
     <defs>
      <path d="M 48.78125 52.59375 
L 48.78125 44.1875 
Q 44.96875 46.296875 41.140625 47.34375 
Q 37.3125 48.390625 33.40625 48.390625 
Q 24.65625 48.390625 19.8125 42.84375 
Q 14.984375 37.3125 14.984375 27.296875 
Q 14.984375 17.28125 19.8125 11.734375 
Q 24.65625 6.203125 33.40625 6.203125 
Q 37.3125 6.203125 41.140625 7.25 
Q 44.96875 8.296875 48.78125 10.40625 
L 48.78125 2.09375 
Q 45.015625 0.34375 40.984375 -0.53125 
Q 36.96875 -1.421875 32.421875 -1.421875 
Q 20.0625 -1.421875 12.78125 6.34375 
Q 5.515625 14.109375 5.515625 27.296875 
Q 5.515625 40.671875 12.859375 48.328125 
Q 20.21875 56 33.015625 56 
Q 37.15625 56 41.109375 55.140625 
Q 45.0625 54.296875 48.78125 52.59375 
z
" id="DejaVuSans-99"/>
      <path d="M 30.609375 48.390625 
Q 23.390625 48.390625 19.1875 42.75 
Q 14.984375 37.109375 14.984375 27.296875 
Q 14.984375 17.484375 19.15625 11.84375 
Q 23.34375 6.203125 30.609375 6.203125 
Q 37.796875 6.203125 41.984375 11.859375 
Q 46.1875 17.53125 46.1875 27.296875 
Q 46.1875 37.015625 41.984375 42.703125 
Q 37.796875 48.390625 30.609375 48.390625 
z
M 30.609375 56 
Q 42.328125 56 49.015625 48.375 
Q 55.71875 40.765625 55.71875 27.296875 
Q 55.71875 13.875 49.015625 6.21875 
Q 42.328125 -1.421875 30.609375 -1.421875 
Q 18.84375 -1.421875 12.171875 6.21875 
Q 5.515625 13.875 5.515625 27.296875 
Q 5.515625 40.765625 12.171875 48.375 
Q 18.84375 56 30.609375 56 
z
" id="DejaVuSans-111"/>
      <path d="M 2.984375 54.6875 
L 12.5 54.6875 
L 29.59375 8.796875 
L 46.6875 54.6875 
L 56.203125 54.6875 
L 35.6875 0 
L 23.484375 0 
z
" id="DejaVuSans-118"/>
      <path d="M 45.40625 46.390625 
L 45.40625 75.984375 
L 54.390625 75.984375 
L 54.390625 0 
L 45.40625 0 
L 45.40625 8.203125 
Q 42.578125 3.328125 38.25 0.953125 
Q 33.9375 -1.421875 27.875 -1.421875 
Q 17.96875 -1.421875 11.734375 6.484375 
Q 5.515625 14.40625 5.515625 27.296875 
Q 5.515625 40.1875 11.734375 48.09375 
Q 17.96875 56 27.875 56 
Q 33.9375 56 38.25 53.625 
Q 42.578125 51.265625 45.40625 46.390625 
z
M 14.796875 27.296875 
Q 14.796875 17.390625 18.875 11.75 
Q 22.953125 6.109375 30.078125 6.109375 
Q 37.203125 6.109375 41.296875 11.75 
Q 45.40625 17.390625 45.40625 27.296875 
Q 45.40625 37.203125 41.296875 42.84375 
Q 37.203125 48.484375 30.078125 48.484375 
Q 22.953125 48.484375 18.875 42.84375 
Q 14.796875 37.203125 14.796875 27.296875 
z
" id="DejaVuSans-100"/>
     </defs>
     <use xlink:href="#DejaVuSans-99"/>
     <use x="54.980469" xlink:href="#DejaVuSans-111"/>
     <use x="116.162109" xlink:href="#DejaVuSans-110"/>
     <use x="179.541016" xlink:href="#DejaVuSans-118"/>
     <use x="238.720703" xlink:href="#DejaVuSans-111"/>
     <use x="299.902344" xlink:href="#DejaVuSans-108"/>
     <use x="327.685547" xlink:href="#DejaVuSans-118"/>
     <use x="386.865234" xlink:href="#DejaVuSans-101"/>
     <use x="448.388672" xlink:href="#DejaVuSans-100"/>
    </g>
    <!-- feature -->
    <g transform="translate(565.156834 124.180707)scale(0.13 -0.13)">
     <defs>
      <path d="M 8.5 21.578125 
L 8.5 54.6875 
L 17.484375 54.6875 
L 17.484375 21.921875 
Q 17.484375 14.15625 20.5 10.265625 
Q 23.53125 6.390625 29.59375 6.390625 
Q 36.859375 6.390625 41.078125 11.03125 
Q 45.3125 15.671875 45.3125 23.6875 
L 45.3125 54.6875 
L 54.296875 54.6875 
L 54.296875 0 
L 45.3125 0 
L 45.3125 8.40625 
Q 42.046875 3.421875 37.71875 1 
Q 33.40625 -1.421875 27.6875 -1.421875 
Q 18.265625 -1.421875 13.375 4.4375 
Q 8.5 10.296875 8.5 21.578125 
z
M 31.109375 56 
z
" id="DejaVuSans-117"/>
     </defs>
     <use xlink:href="#DejaVuSans-102"/>
     <use x="35.205078" xlink:href="#DejaVuSans-101"/>
     <use x="96.728516" xlink:href="#DejaVuSans-97"/>
     <use x="158.007812" xlink:href="#DejaVuSans-116"/>
     <use x="197.216797" xlink:href="#DejaVuSans-117"/>
     <use x="260.595703" xlink:href="#DejaVuSans-114"/>
     <use x="299.458984" xlink:href="#DejaVuSans-101"/>
    </g>
   </g>
  </g>
  <g id="axes_4">
   <g id="table_3">
    <g id="patch_46">
     <path d="M 17.491406 416.611823 
L 42.109053 416.611823 
L 42.109053 437.574163 
L 17.491406 437.574163 
z
" style="fill:#ffffff;stroke:#000000;stroke-linejoin:miter;"/>
    </g>
    <g id="text_51">
     <!-- 1 -->
     <g transform="translate(26.61898 429.852368)scale(0.1 -0.1)">
      <defs>
       <path d="M 12.40625 8.296875 
L 28.515625 8.296875 
L 28.515625 63.921875 
L 10.984375 60.40625 
L 10.984375 69.390625 
L 28.421875 72.90625 
L 38.28125 72.90625 
L 38.28125 8.296875 
L 54.390625 8.296875 
L 54.390625 0 
L 12.40625 0 
z
" id="DejaVuSans-49"/>
      </defs>
      <use xlink:href="#DejaVuSans-49"/>
     </g>
    </g>
    <g id="patch_47">
     <path d="M 42.109053 416.611823 
L 66.7267 416.611823 
L 66.7267 437.574163 
L 42.109053 437.574163 
z
" style="fill:#ffffff;stroke:#000000;stroke-linejoin:miter;"/>
    </g>
    <g id="text_52">
     <!-- 20 -->
     <g transform="translate(48.055377 429.852368)scale(0.1 -0.1)">
      <defs>
       <path d="M 19.1875 8.296875 
L 53.609375 8.296875 
L 53.609375 0 
L 7.328125 0 
L 7.328125 8.296875 
Q 12.9375 14.109375 22.625 23.890625 
Q 32.328125 33.6875 34.8125 36.53125 
Q 39.546875 41.84375 41.421875 45.53125 
Q 43.3125 49.21875 43.3125 52.78125 
Q 43.3125 58.59375 39.234375 62.25 
Q 35.15625 65.921875 28.609375 65.921875 
Q 23.96875 65.921875 18.8125 64.3125 
Q 13.671875 62.703125 7.8125 59.421875 
L 7.8125 69.390625 
Q 13.765625 71.78125 18.9375 73 
Q 24.125 74.21875 28.421875 74.21875 
Q 39.75 74.21875 46.484375 68.546875 
Q 53.21875 62.890625 53.21875 53.421875 
Q 53.21875 48.921875 51.53125 44.890625 
Q 49.859375 40.875 45.40625 35.40625 
Q 44.1875 33.984375 37.640625 27.21875 
Q 31.109375 20.453125 19.1875 8.296875 
z
" id="DejaVuSans-50"/>
       <path d="M 31.78125 66.40625 
Q 24.171875 66.40625 20.328125 58.90625 
Q 16.5 51.421875 16.5 36.375 
Q 16.5 21.390625 20.328125 13.890625 
Q 24.171875 6.390625 31.78125 6.390625 
Q 39.453125 6.390625 43.28125 13.890625 
Q 47.125 21.390625 47.125 36.375 
Q 47.125 51.421875 43.28125 58.90625 
Q 39.453125 66.40625 31.78125 66.40625 
z
M 31.78125 74.21875 
Q 44.046875 74.21875 50.515625 64.515625 
Q 56.984375 54.828125 56.984375 36.375 
Q 56.984375 17.96875 50.515625 8.265625 
Q 44.046875 -1.421875 31.78125 -1.421875 
Q 19.53125 -1.421875 13.0625 8.265625 
Q 6.59375 17.96875 6.59375 36.375 
Q 6.59375 54.828125 13.0625 64.515625 
Q 19.53125 74.21875 31.78125 74.21875 
z
" id="DejaVuSans-48"/>
      </defs>
      <use xlink:href="#DejaVuSans-50"/>
      <use x="63.623047" xlink:href="#DejaVuSans-48"/>
     </g>
    </g>
    <g id="patch_48">
     <path d="M 66.7267 416.611823 
L 91.344347 416.611823 
L 91.344347 437.574163 
L 66.7267 437.574163 
z
" style="fill:#ffffff;stroke:#000000;stroke-linejoin:miter;"/>
    </g>
    <g id="text_53">
     <!-- 15 -->
     <g transform="translate(72.673024 429.852368)scale(0.1 -0.1)">
      <defs>
       <path d="M 10.796875 72.90625 
L 49.515625 72.90625 
L 49.515625 64.59375 
L 19.828125 64.59375 
L 19.828125 46.734375 
Q 21.96875 47.46875 24.109375 47.828125 
Q 26.265625 48.1875 28.421875 48.1875 
Q 40.625 48.1875 47.75 41.5 
Q 54.890625 34.8125 54.890625 23.390625 
Q 54.890625 11.625 47.5625 5.09375 
Q 40.234375 -1.421875 26.90625 -1.421875 
Q 22.3125 -1.421875 17.546875 -0.640625 
Q 12.796875 0.140625 7.71875 1.703125 
L 7.71875 11.625 
Q 12.109375 9.234375 16.796875 8.0625 
Q 21.484375 6.890625 26.703125 6.890625 
Q 35.15625 6.890625 40.078125 11.328125 
Q 45.015625 15.765625 45.015625 23.390625 
Q 45.015625 31 40.078125 35.4375 
Q 35.15625 39.890625 26.703125 39.890625 
Q 22.75 39.890625 18.8125 39.015625 
Q 14.890625 38.140625 10.796875 36.28125 
z
" id="DejaVuSans-53"/>
      </defs>
      <use xlink:href="#DejaVuSans-49"/>
      <use x="63.623047" xlink:href="#DejaVuSans-53"/>
     </g>
    </g>
    <g id="patch_49">
     <path d="M 91.344347 416.611823 
L 115.961994 416.611823 
L 115.961994 437.574163 
L 91.344347 437.574163 
z
" style="fill:#ffffff;stroke:#000000;stroke-linejoin:miter;"/>
    </g>
    <g id="text_54">
     <!-- 3 -->
     <g transform="translate(100.471921 429.852368)scale(0.1 -0.1)">
      <defs>
       <path d="M 40.578125 39.3125 
Q 47.65625 37.796875 51.625 33 
Q 55.609375 28.21875 55.609375 21.1875 
Q 55.609375 10.40625 48.1875 4.484375 
Q 40.765625 -1.421875 27.09375 -1.421875 
Q 22.515625 -1.421875 17.65625 -0.515625 
Q 12.796875 0.390625 7.625 2.203125 
L 7.625 11.71875 
Q 11.71875 9.328125 16.59375 8.109375 
Q 21.484375 6.890625 26.8125 6.890625 
Q 36.078125 6.890625 40.9375 10.546875 
Q 45.796875 14.203125 45.796875 21.1875 
Q 45.796875 27.640625 41.28125 31.265625 
Q 36.765625 34.90625 28.71875 34.90625 
L 20.21875 34.90625 
L 20.21875 43.015625 
L 29.109375 43.015625 
Q 36.375 43.015625 40.234375 45.921875 
Q 44.09375 48.828125 44.09375 54.296875 
Q 44.09375 59.90625 40.109375 62.90625 
Q 36.140625 65.921875 28.71875 65.921875 
Q 24.65625 65.921875 20.015625 65.03125 
Q 15.375 64.15625 9.8125 62.3125 
L 9.8125 71.09375 
Q 15.4375 72.65625 20.34375 73.4375 
Q 25.25 74.21875 29.59375 74.21875 
Q 40.828125 74.21875 47.359375 69.109375 
Q 53.90625 64.015625 53.90625 55.328125 
Q 53.90625 49.265625 50.4375 45.09375 
Q 46.96875 40.921875 40.578125 39.3125 
z
" id="DejaVuSans-51"/>
      </defs>
      <use xlink:href="#DejaVuSans-51"/>
     </g>
    </g>
    <g id="patch_50">
     <path d="M 115.961994 416.611823 
L 140.579642 416.611823 
L 140.579642 437.574163 
L 115.961994 437.574163 
z
" style="fill:#ffffff;stroke:#000000;stroke-linejoin:miter;"/>
    </g>
    <g id="text_55">
     <!-- 18 -->
     <g transform="translate(121.908318 429.852368)scale(0.1 -0.1)">
      <defs>
       <path d="M 31.78125 34.625 
Q 24.75 34.625 20.71875 30.859375 
Q 16.703125 27.09375 16.703125 20.515625 
Q 16.703125 13.921875 20.71875 10.15625 
Q 24.75 6.390625 31.78125 6.390625 
Q 38.8125 6.390625 42.859375 10.171875 
Q 46.921875 13.96875 46.921875 20.515625 
Q 46.921875 27.09375 42.890625 30.859375 
Q 38.875 34.625 31.78125 34.625 
z
M 21.921875 38.8125 
Q 15.578125 40.375 12.03125 44.71875 
Q 8.5 49.078125 8.5 55.328125 
Q 8.5 64.0625 14.71875 69.140625 
Q 20.953125 74.21875 31.78125 74.21875 
Q 42.671875 74.21875 48.875 69.140625 
Q 55.078125 64.0625 55.078125 55.328125 
Q 55.078125 49.078125 51.53125 44.71875 
Q 48 40.375 41.703125 38.8125 
Q 48.828125 37.15625 52.796875 32.3125 
Q 56.78125 27.484375 56.78125 20.515625 
Q 56.78125 9.90625 50.3125 4.234375 
Q 43.84375 -1.421875 31.78125 -1.421875 
Q 19.734375 -1.421875 13.25 4.234375 
Q 6.78125 9.90625 6.78125 20.515625 
Q 6.78125 27.484375 10.78125 32.3125 
Q 14.796875 37.15625 21.921875 38.8125 
z
M 18.3125 54.390625 
Q 18.3125 48.734375 21.84375 45.5625 
Q 25.390625 42.390625 31.78125 42.390625 
Q 38.140625 42.390625 41.71875 45.5625 
Q 45.3125 48.734375 45.3125 54.390625 
Q 45.3125 60.0625 41.71875 63.234375 
Q 38.140625 66.40625 31.78125 66.40625 
Q 25.390625 66.40625 21.84375 63.234375 
Q 18.3125 60.0625 18.3125 54.390625 
z
" id="DejaVuSans-56"/>
      </defs>
      <use xlink:href="#DejaVuSans-49"/>
      <use x="63.623047" xlink:href="#DejaVuSans-56"/>
     </g>
    </g>
    <g id="patch_51">
     <path d="M 140.579642 416.611823 
L 165.197289 416.611823 
L 165.197289 437.574163 
L 140.579642 437.574163 
z
" style="fill:#ffffff;stroke:#000000;stroke-linejoin:miter;"/>
    </g>
    <g id="text_56">
     <!-- 12 -->
     <g transform="translate(146.525965 429.852368)scale(0.1 -0.1)">
      <use xlink:href="#DejaVuSans-49"/>
      <use x="63.623047" xlink:href="#DejaVuSans-50"/>
     </g>
    </g>
    <g id="patch_52">
     <path d="M 165.197289 416.611823 
L 189.814936 416.611823 
L 189.814936 437.574163 
L 165.197289 437.574163 
z
" style="fill:#ffffff;stroke:#000000;stroke-linejoin:miter;"/>
    </g>
    <g id="text_57">
     <!-- 4 -->
     <g transform="translate(174.324862 429.852368)scale(0.1 -0.1)">
      <defs>
       <path d="M 37.796875 64.3125 
L 12.890625 25.390625 
L 37.796875 25.390625 
z
M 35.203125 72.90625 
L 47.609375 72.90625 
L 47.609375 25.390625 
L 58.015625 25.390625 
L 58.015625 17.1875 
L 47.609375 17.1875 
L 47.609375 0 
L 37.796875 0 
L 37.796875 17.1875 
L 4.890625 17.1875 
L 4.890625 26.703125 
z
" id="DejaVuSans-52"/>
      </defs>
      <use xlink:href="#DejaVuSans-52"/>
     </g>
    </g>
    <g id="patch_53">
     <path d="M 189.814936 416.611823 
L 214.432583 416.611823 
L 214.432583 437.574163 
L 189.814936 437.574163 
z
" style="fill:#ffffff;stroke:#000000;stroke-linejoin:miter;"/>
    </g>
    <g id="text_58">
     <!-- 17 -->
     <g transform="translate(195.761259 429.852368)scale(0.1 -0.1)">
      <defs>
       <path d="M 8.203125 72.90625 
L 55.078125 72.90625 
L 55.078125 68.703125 
L 28.609375 0 
L 18.3125 0 
L 43.21875 64.59375 
L 8.203125 64.59375 
z
" id="DejaVuSans-55"/>
      </defs>
      <use xlink:href="#DejaVuSans-49"/>
      <use x="63.623047" xlink:href="#DejaVuSans-55"/>
     </g>
    </g>
   </g>
   <g id="line2d_1">
    <path clip-path="url(#pfa5440d3bf)" d="M 26.443278 295.601956 
L 26.633845 355.117229 
L 26.824411 390.885316 
L 27.014978 363.838279 
L 27.110261 362.895461 
L 27.396112 356.413598 
L 27.491395 356.354673 
L 28.063095 354.233337 
L 28.539512 347.280067 
L 29.301779 326.24348 
L 29.397062 327.952339 
L 29.587629 337.91083 
L 29.873479 354.822596 
L 30.254612 362.718684 
L 30.445179 363.072239 
L 30.540462 363.013313 
L 30.731029 364.309686 
L 31.016879 363.661498 
L 31.112163 364.722167 
L 31.207446 364.663241 
L 31.302729 364.781093 
L 31.398013 363.779353 
L 31.588579 364.663241 
L 31.874429 363.95613 
L 32.064996 364.840019 
L 32.160279 365.311429 
L 32.255563 365.252503 
L 32.350846 365.370355 
L 32.541413 366.843505 
L 32.636696 366.784579 
L 32.73198 366.372095 
L 32.827263 367.079209 
L 32.922546 366.961357 
L 33.01783 366.961357 
L 33.113113 367.079209 
L 33.30368 367.904172 
L 33.494247 367.550616 
L 33.58953 368.08095 
L 33.684813 367.845247 
L 33.780097 368.139876 
L 33.87538 367.786319 
L 33.970663 367.904172 
L 34.065947 368.905914 
L 34.16123 368.729136 
L 34.256513 369.141618 
L 34.44708 367.727393 
L 34.637647 367.727393 
L 34.73293 365.252503 
L 34.828214 365.782836 
L 34.923497 363.190091 
L 35.209347 366.902431 
L 35.30463 366.431021 
L 35.685764 368.198802 
L 35.781047 369.84873 
L 36.066897 367.432764 
L 36.162181 367.609542 
L 36.352747 366.254243 
L 36.448031 366.489947 
L 36.733881 341.62317 
L 36.924447 297.075107 
L 37.210298 387.939016 
L 37.305581 386.642644 
L 37.496148 365.311429 
L 37.591431 364.073982 
L 37.781998 359.831309 
L 38.067848 357.651045 
L 38.163131 357.827823 
L 38.258415 358.063529 
L 38.544265 355.942191 
L 38.925398 351.169185 
L 39.115965 390.885316 
L 44.261266 390.885316 
L 44.35655 304.269984 
L 44.451833 315.470243 
L 44.737683 390.885316 
L 44.832966 390.138632 
L 45.023533 383.548335 
L 45.118816 383.743123 
L 45.309383 383.515871 
L 45.49995 382.119897 
L 45.881083 380.594064 
L 46.548067 376.341212 
L 46.9292 371.374141 
L 47.5009 359.070088 
L 47.691467 357.674115 
L 47.786751 357.803972 
L 47.977317 361.667249 
L 48.549017 377.055432 
L 48.930151 379.84738 
L 49.120718 380.399277 
L 49.216001 380.107096 
L 49.406568 380.496671 
L 49.882984 379.327948 
L 49.978268 379.392877 
L 50.073551 379.652593 
L 50.264118 379.035767 
L 50.359401 378.905909 
L 50.454685 379.068232 
L 50.645251 378.776052 
L 50.740535 379.263019 
L 50.835818 378.776052 
L 50.931101 378.840981 
L 51.026385 378.613729 
L 51.216951 379.035767 
L 51.312235 378.970838 
L 51.407518 378.289083 
L 51.693368 379.100696 
L 51.788652 378.840981 
L 51.979218 379.392877 
L 52.074502 379.263019 
L 52.169785 379.392877 
L 52.265068 378.840981 
L 52.360352 379.19809 
L 52.455635 379.068232 
L 52.550919 379.295483 
L 53.122619 377.867045 
L 53.217902 377.964438 
L 53.313185 377.867045 
L 53.503752 378.029367 
L 53.694319 377.931974 
L 53.789602 377.47747 
L 53.884886 377.639794 
L 54.266019 377.087896 
L 54.456586 377.152825 
L 54.551869 377.055432 
L 54.647152 376.698322 
L 54.742436 376.763251 
L 54.837719 376.471071 
L 55.028286 376.893109 
L 55.218853 376.665858 
L 55.314136 376.438607 
L 55.409419 375.334812 
L 55.790553 366.69925 
L 55.981119 366.082423 
L 56.076403 365.985031 
L 56.26697 369.945702 
L 56.362253 370.627457 
L 56.648103 378.516334 
L 56.83867 378.938374 
L 56.933953 378.873445 
L 57.029236 378.613729 
L 57.12452 380.139561 
L 57.219803 377.996903 
L 57.315086 369.069161 
L 57.600937 295.601956 
L 57.98207 383.483406 
L 58.172637 374.945238 
L 58.26792 375.042631 
L 58.744337 373.906373 
L 59.69717 368.12769 
L 59.983021 365.140952 
L 60.173587 390.885316 
L 62.174538 390.885316 
L 62.269821 295.601956 
L 62.460388 385.477048 
L 62.555671 384.77044 
L 62.650955 383.139807 
L 63.127371 386.917441 
L 63.317938 385.993415 
L 63.508505 386.509783 
L 63.699072 385.74882 
L 63.889638 386.509783 
L 64.175488 384.824794 
L 64.270772 384.580199 
L 64.842472 373.89955 
L 65.318889 361.751329 
L 65.414172 360.637061 
L 65.509455 361.832861 
L 66.176439 384.254073 
L 66.271722 383.846414 
L 66.367006 385.55858 
L 66.462289 384.77044 
L 66.652856 385.803175 
L 66.748139 385.721643 
L 66.938706 384.797617 
L 67.033989 384.797617 
L 67.129273 384.335605 
L 67.415123 384.661731 
L 67.510406 384.28125 
L 67.605689 384.716086 
L 67.700973 384.634554 
L 67.796256 384.743263 
L 67.891539 385.123744 
L 68.082106 384.553022 
L 68.17739 385.504225 
L 68.272673 385.150921 
L 68.46324 385.939061 
L 68.74909 386.564137 
L 68.844373 385.368339 
L 68.939656 385.911884 
L 69.03494 387.134859 
L 69.130223 386.672846 
L 69.225506 386.890264 
L 69.32079 386.373897 
L 69.416073 386.428251 
L 69.797207 387.352277 
L 69.89249 386.373897 
L 70.083057 387.107682 
L 70.17834 387.02615 
L 70.273623 387.3251 
L 70.368907 387.162036 
L 70.46419 386.672846 
L 70.75004 387.922998 
L 70.845324 387.596872 
L 70.940607 388.058885 
L 71.03589 387.406631 
L 71.131174 387.977353 
L 71.32174 386.890264 
L 71.60759 388.00453 
L 71.702874 387.189213 
L 71.798157 387.433808 
L 71.893441 388.167594 
L 72.084007 387.189213 
L 72.179291 387.841467 
L 72.274574 386.781555 
L 72.369857 387.542517 
L 72.465141 387.433808 
L 72.560424 387.243568 
L 72.750991 384.009478 
L 72.846274 384.091009 
L 73.227408 379.334994 
L 73.322691 378.465323 
L 73.703824 387.596872 
L 73.799108 388.249125 
L 73.894391 387.678403 
L 74.084958 389.091619 
L 74.180241 388.765493 
L 74.275525 388.520897 
L 74.370808 388.656784 
L 74.466091 388.466543 
L 74.561375 390.885316 
L 74.656658 389.879759 
L 74.942508 301.445062 
L 75.037791 317.479625 
L 75.228358 385.06939 
L 75.323642 382.596262 
L 75.514208 390.885316 
L 80.08781 390.885316 
L 80.183093 295.601956 
L 80.278376 308.251933 
L 80.468943 381.418962 
L 80.564226 377.418301 
L 80.850076 381.700699 
L 80.94536 381.982436 
L 81.040643 381.278094 
L 81.135926 382.602257 
L 81.326493 381.757046 
L 81.421777 381.700699 
L 81.51706 382.348694 
L 81.612343 381.841568 
L 81.707627 382.348694 
L 81.993477 381.137226 
L 82.184043 381.672525 
L 82.565177 376.685785 
L 83.422727 356.597958 
L 83.708577 366.740479 
L 84.184994 380.742794 
L 84.280277 381.024531 
L 84.470844 382.940341 
L 84.566127 382.405041 
L 84.756694 383.193904 
L 84.851977 382.686778 
L 85.042544 383.560162 
L 85.328394 381.080878 
L 85.423678 382.489562 
L 85.614244 380.799141 
L 85.709528 381.221747 
L 85.804811 382.489562 
L 85.900094 381.306268 
L 85.995378 381.78522 
L 86.090661 380.911836 
L 86.281228 382.32052 
L 86.471795 381.503483 
L 86.662361 382.771299 
L 86.757645 382.151478 
L 86.852928 383.616509 
L 86.948211 382.968514 
L 87.043495 383.503814 
L 87.138778 382.883993 
L 87.329345 383.813724 
L 87.424628 382.912167 
L 87.615195 383.841898 
L 87.710478 384.23633 
L 87.901045 383.954593 
L 87.996328 384.433545 
L 88.091612 384.208156 
L 88.186895 382.940341 
L 88.282178 384.912498 
L 88.377462 383.982766 
L 88.472745 384.123635 
L 88.568029 383.391119 
L 88.663312 383.70103 
L 88.758595 384.658935 
L 88.853879 383.193904 
L 89.044445 384.715282 
L 89.139729 383.250251 
L 89.330295 384.208156 
L 89.425579 384.630761 
L 89.520862 383.70103 
L 89.711429 384.799803 
L 89.806712 384.208156 
L 89.901996 384.574413 
L 89.997279 384.32085 
L 90.092562 384.489893 
L 90.187846 384.940671 
L 90.283129 384.292677 
L 90.378412 384.658935 
L 90.473696 384.151809 
L 90.568979 384.799803 
L 90.664262 384.518067 
L 90.854829 380.827315 
L 90.950113 382.405041 
L 91.426529 375.699707 
L 91.712379 383.053036 
L 91.998229 386.715613 
L 92.093513 387.504476 
L 92.28408 387.110044 
L 92.379363 387.110044 
L 92.474646 386.659266 
L 92.665213 387.194565 
L 92.760496 390.885316 
L 92.951063 334.650667 
L 93.14163 296.95429 
L 93.332197 384.658935 
L 93.42748 380.855489 
L 93.522763 381.193573 
L 93.618047 382.940341 
L 93.808613 390.885316 
L 98.001081 390.885316 
L 98.096365 300.462998 
L 98.286931 390.487437 
L 98.382215 388.74023 
L 98.668065 380.367472 
L 98.763348 380.280977 
L 98.953915 379.623612 
L 99.049198 380.107987 
L 99.144481 378.274283 
L 99.239765 378.499171 
L 99.430332 377.807207 
L 99.620898 375.835112 
L 99.716182 376.060001 
L 99.906748 373.067259 
L 100.192598 368.033225 
L 100.478449 360.992496 
L 100.669015 357.792168 
L 100.764299 357.134802 
L 100.954865 360.698412 
L 101.335999 376.008103 
L 101.621849 380.713454 
L 101.717132 380.903744 
L 101.812416 382.477961 
L 102.002982 381.249726 
L 102.193549 381.682203 
L 102.288832 381.837895 
L 102.384116 381.682203 
L 102.574682 382.062783 
L 102.765249 381.059436 
L 102.860533 381.007539 
L 103.051099 380.79995 
L 103.241666 381.474614 
L 103.432233 380.938342 
L 103.718083 382.11468 
L 103.813366 381.353521 
L 104.003933 382.253073 
L 104.099216 381.54381 
L 104.1945 381.716801 
L 104.289783 382.547157 
L 104.385066 381.526511 
L 104.575633 382.754747 
L 104.7662 381.993586 
L 104.861483 382.962335 
L 104.956766 382.097381 
L 105.147333 383.031532 
L 105.3379 379.225733 
L 105.433183 379.813902 
L 105.528467 379.502518 
L 105.62375 377.547722 
L 105.719033 381.647605 
L 105.814317 379.398724 
L 105.9096 380.090687 
L 106.100167 382.564456 
L 106.19545 382.945036 
L 106.290733 382.789344 
L 106.386017 383.982981 
L 106.576584 382.650952 
L 106.76715 383.80999 
L 106.862434 382.945036 
L 107.053 389.241903 
L 107.243567 340.371991 
L 107.33885 295.601956 
L 107.434134 302.76378 
L 107.6247 390.885316 
L 107.719984 388.74023 
L 108.005834 379.191135 
L 108.101117 381.232427 
L 108.196401 380.056089 
L 108.291684 380.540463 
L 108.386967 379.589014 
L 108.482251 379.969593 
L 108.672817 378.13589 
L 109.053951 375.350738 
L 109.149234 375.073953 
L 109.435084 370.091817 
L 110.102068 356.685025 
L 110.197351 357.809467 
L 110.387918 390.885316 
L 115.914353 390.885316 
L 116.009636 295.601956 
L 116.295486 390.885316 
L 116.486053 384.689615 
L 116.581336 385.080923 
L 116.67662 386.026582 
L 116.771903 385.79832 
L 116.867186 385.961365 
L 116.96247 385.276576 
L 117.057753 385.537448 
L 117.153036 385.341794 
L 117.24832 384.396135 
L 117.343603 384.624397 
L 117.82002 381.917855 
L 118.487004 368.35253 
L 118.868137 359.417678 
L 118.96342 358.895935 
L 119.058704 360.069855 
L 119.53512 379.472183 
L 119.820971 383.189604 
L 119.916254 383.28743 
L 120.106821 383.711347 
L 120.202104 383.711347 
L 120.297387 383.483084 
L 120.392671 383.711347 
L 120.487954 383.450475 
L 120.583237 383.548302 
L 120.678521 383.809173 
L 121.059654 382.765687 
L 121.250221 383.711347 
L 121.345504 382.537424 
L 121.536071 383.059168 
L 121.726638 383.222212 
L 121.821921 382.928732 
L 121.917204 383.059168 
L 122.012488 383.450475 
L 122.107771 383.385257 
L 122.203055 383.28743 
L 122.298338 383.580911 
L 122.393621 383.417866 
L 122.584188 383.743955 
L 122.679471 383.548302 
L 122.774755 382.99395 
L 122.870038 383.907 
L 123.060605 383.483084 
L 123.155888 383.776565 
L 123.251172 383.548302 
L 123.537022 384.396135 
L 123.632305 383.841783 
L 123.822872 384.461353 
L 124.013438 383.678737 
L 124.108722 384.493961 
L 124.204005 383.809173 
L 124.394572 384.167872 
L 124.489855 383.646129 
L 124.680422 383.874391 
L 124.775705 383.515693 
L 124.870989 383.907 
L 125.061555 383.548302 
L 125.156839 383.156994 
L 125.252122 383.320039 
L 125.347405 383.972218 
L 125.537972 382.798296 
L 125.633256 383.874391 
L 125.823822 382.896123 
L 125.919106 383.385257 
L 126.014389 383.059168 
L 126.109672 383.646129 
L 126.395522 379.24392 
L 126.681372 376.276506 
L 126.776656 376.048243 
L 126.967223 378.689568 
L 127.443639 384.070045 
L 127.538923 384.23309 
L 127.634206 385.243967 
L 127.729489 390.624445 
L 127.824773 387.135287 
L 128.01534 333.460949 
L 128.110623 296.15631 
L 128.491756 388.765734 
L 128.682323 382.34177 
L 128.87289 383.222212 
L 128.968173 383.352648 
L 129.44459 381.885245 
L 130.206857 375.787372 
L 130.397424 372.39604 
L 130.58799 390.885316 
L 133.827624 390.885316 
L 133.922908 295.601956 
L 134.208758 389.999548 
L 134.494608 365.408934 
L 134.685175 366.083804 
L 134.875741 364.017013 
L 134.971025 364.017013 
L 135.066308 362.625091 
L 135.161591 362.709449 
L 135.542725 360.473939 
L 135.638008 360.811374 
L 135.733292 360.136502 
L 136.686125 338.076655 
L 136.876692 334.660117 
L 136.971975 334.449221 
L 137.067259 334.913194 
L 137.257825 340.818318 
L 137.734242 360.684836 
L 138.020092 364.185729 
L 138.305942 365.872907 
L 138.496509 366.041626 
L 138.591792 365.999446 
L 139.068209 366.294703 
L 139.163493 365.746369 
L 139.639909 368.108417 
L 139.925759 368.488032 
L 140.116326 367.85534 
L 140.21161 367.728802 
L 140.402176 367.981879 
L 140.49746 368.277136 
L 140.592743 367.686623 
L 140.688026 367.813161 
L 140.878593 369.795596 
L 141.06916 370.470466 
L 141.164443 369.711236 
L 141.259727 369.795596 
L 141.450293 370.976619 
L 141.64086 370.470466 
L 141.831427 370.89226 
L 141.92671 370.850081 
L 142.117277 369.879953 
L 142.307843 370.217389 
L 142.403127 370.217389 
L 142.688977 371.271875 
L 142.78426 371.229696 
L 142.879544 371.735849 
L 143.07011 371.398413 
L 143.165394 371.356234 
L 143.35596 370.428287 
L 143.451244 370.89226 
L 143.546527 369.289442 
L 143.641811 365.535473 
L 143.927661 370.175211 
L 144.022944 370.470466 
L 144.118227 371.862388 
L 144.213511 371.187517 
L 144.404077 372.748156 
L 144.499361 372.916873 
L 144.594644 372.748156 
L 144.689927 372.326362 
L 144.880494 372.748156 
L 144.975778 372.073285 
L 145.166344 373.338669 
L 145.261628 370.386107 
L 145.452194 335.883326 
L 145.642761 301.675796 
L 145.833328 383.588273 
L 145.928611 390.885316 
L 146.214461 366.758676 
L 146.500311 364.438805 
L 146.595595 364.270089 
L 146.690878 364.776243 
L 146.786161 364.523166 
L 146.881445 365.029319 
L 146.976728 364.902781 
L 147.167295 364.101371 
L 147.262578 363.890474 
L 147.453145 362.161115 
L 147.738995 357.479197 
L 147.929562 390.885316 
L 151.740896 390.885316 
L 151.836179 295.601956 
L 151.931463 318.936657 
L 152.12203 390.885316 
L 152.312596 359.303006 
L 152.40788 366.410703 
L 152.503163 366.276594 
L 152.598446 366.745971 
L 152.69373 364.466143 
L 152.884296 372.110271 
L 152.97958 368.556422 
L 153.074863 372.512593 
L 153.170147 367.349455 
L 153.360713 375.597065 
L 153.455997 367.550616 
L 153.55128 370.299819 
L 153.741847 368.087046 
L 153.932413 370.970357 
L 154.027697 370.031604 
L 154.218263 366.142488 
L 154.40883 363.594445 
L 154.504114 363.795607 
L 154.69468 356.620857 
L 154.885247 351.792989 
L 154.98053 358.230147 
L 155.075814 356.956125 
L 155.171097 365.337843 
L 155.26638 364.868467 
L 155.361664 372.244378 
L 155.456947 370.165712 
L 155.552231 374.390097 
L 155.647514 372.579646 
L 155.742797 376.334655 
L 155.838081 373.384291 
L 155.933364 376.736977 
L 156.123931 372.847861 
L 156.219214 377.876891 
L 156.314497 370.50098 
L 156.409781 376.267602 
L 156.505064 373.652506 
L 156.600347 376.468762 
L 156.695631 374.926527 
L 156.790914 375.194742 
L 156.981481 376.468762 
L 157.076764 371.439732 
L 157.267331 375.462957 
L 157.457898 372.445539 
L 157.648464 376.267602 
L 157.743748 370.232765 
L 157.839031 378.480376 
L 157.934314 369.629282 
L 158.029598 370.232765 
L 158.220165 359.235953 
L 158.315448 361.918102 
L 158.410731 363.058015 
L 158.601298 355.279783 
L 158.791865 372.713754 
L 158.887148 371.506786 
L 158.982431 372.713754 
L 159.172998 381.698955 
L 159.268282 378.480376 
L 159.363565 381.162524 
L 159.458848 378.815644 
L 159.554132 381.96717 
L 159.649415 380.290826 
L 159.744698 383.911728 
L 159.839982 375.999387 
L 159.935265 385.722178 
L 160.125832 310.42083 
L 160.221115 331.676867 
L 160.411682 387.800844 
L 160.602249 367.215348 
L 160.697532 375.194742 
L 160.792815 374.725365 
L 160.888099 377.340462 
L 160.983382 371.909109 
L 161.173949 376.200547 
L 161.269232 376.871085 
L 161.364515 376.200547 
L 161.459799 377.876891 
L 161.555082 371.976163 
L 161.650366 380.424933 
L 161.745649 376.871085 
L 161.936216 390.885316 
L 169.654168 390.885316 
L 169.749451 295.601956 
L 170.130585 389.577622 
L 170.321151 363.661498 
L 170.416435 362.710449 
L 170.702285 356.469182 
L 170.797568 355.637012 
L 170.892851 355.755892 
L 171.083418 354.269875 
L 171.178702 354.388758 
L 171.273985 354.507641 
L 171.750402 347.790847 
L 171.940968 343.332796 
L 172.512669 324.430671 
L 172.607952 323.776821 
L 172.798519 328.234874 
L 173.274935 355.45869 
L 173.465502 359.144011 
L 173.751352 361.164992 
L 173.846636 360.570585 
L 174.037202 361.224432 
L 174.323052 360.451705 
L 174.418336 361.343314 
L 174.513619 361.105552 
L 174.704186 360.273382 
L 174.894753 359.797858 
L 175.180603 360.92723 
L 175.275886 359.916737 
L 175.561736 360.92723 
L 175.657019 360.689467 
L 175.847586 362.769888 
L 176.038153 361.818839 
L 176.22872 362.710449 
L 176.324003 362.651009 
L 176.51457 363.899263 
L 176.609853 362.294364 
L 176.80042 363.185973 
L 176.990986 364.255905 
L 177.08627 363.602058 
L 177.181553 364.137026 
L 177.276837 363.542618 
L 177.37212 364.493668 
L 177.467403 364.255905 
L 177.562687 364.493668 
L 177.65797 363.899263 
L 177.753253 363.958703 
L 177.848537 364.850313 
L 177.94382 364.374788 
L 178.039103 362.710449 
L 178.134387 362.829331 
L 178.324954 360.86779 
L 178.610804 364.67199 
L 178.706087 364.493668 
L 178.896654 365.147515 
L 179.08722 368.773395 
L 179.182504 368.23843 
L 179.563637 366.514649 
L 179.658921 367.40626 
L 179.754204 366.811854 
L 180.040054 341.014613 
L 180.230621 302.556513 
L 180.516471 390.885316 
L 180.611754 388.269928 
L 180.802321 367.049616 
L 180.992888 364.55311 
L 181.088171 361.937722 
L 181.183454 362.591569 
L 181.278738 361.937722 
L 181.374021 362.769888 
L 181.564588 360.451705 
L 181.659871 361.283875 
L 182.231571 354.56708 
L 182.422138 390.885316 
L 187.567439 390.885316 
L 187.662723 298.523285 
L 187.948573 390.885316 
L 188.043856 385.122694 
L 188.234423 367.194536 
L 188.42499 365.553789 
L 188.520273 365.873935 
L 188.615556 365.793899 
L 188.806123 363.913041 
L 189.187257 362.072205 
L 190.044807 348.385975 
L 190.616507 334.099476 
L 190.71179 333.859366 
L 190.807074 334.059454 
L 190.99764 339.8621 
L 191.569341 361.752059 
L 191.950474 364.913498 
L 192.236324 365.113589 
L 192.331607 364.713407 
L 192.426891 365.07357 
L 192.617457 364.273207 
L 192.903308 362.432369 
L 192.998591 362.792532 
L 193.189158 362.072205 
L 193.284441 362.312313 
L 193.475008 361.992169 
L 193.760858 363.272751 
L 193.856141 363.072659 
L 193.951425 363.232734 
L 194.046708 363.032643 
L 194.141991 363.552878 
L 194.332558 362.912587 
L 194.618408 364.313224 
L 194.904258 364.753426 
L 195.190108 363.752969 
L 195.761808 365.433733 
L 195.857092 364.793443 
L 196.047658 365.71386 
L 196.238225 365.353697 
L 196.333509 365.233642 
L 196.524075 365.993988 
L 196.619359 365.473753 
L 196.809925 366.074027 
L 196.905209 366.154063 
L 197.000492 365.633824 
L 197.095775 366.034007 
L 197.191059 365.833916 
L 197.286342 366.43419 
L 197.381625 365.153606 
L 197.572192 361.551967 
L 197.667476 361.95215 
L 197.953326 365.193625 
L 198.048609 365.07357 
L 198.239176 366.554245 
L 198.715593 364.233188 
L 198.810876 364.513315 
L 199.001443 366.114043 
L 199.096726 364.873479 
L 199.287293 333.459183 
L 199.477859 295.601956 
L 199.763709 385.162712 
L 200.04956 361.832095 
L 200.240126 362.472385 
L 200.430693 360.511494 
L 200.525976 360.511494 
L 200.62126 359.190893 
L 200.716543 359.270929 
L 201.097677 357.149963 
L 201.19296 357.47011 
L 201.288243 356.82982 
L 201.47881 352.908034 
L 201.669377 390.885316 
L 205.480711 390.885316 
L 205.480711 390.885316 
" style="fill:none;stroke:#1f77b4;stroke-linecap:square;stroke-width:1.5;"/>
   </g>
  </g>
  <g id="axes_5">
   <g id="table_4">
    <g id="patch_54">
     <path d="M 253.820818 416.025917 
L 293.209053 416.025917 
L 293.209053 436.527968 
L 253.820818 436.527968 
z
" style="fill:#ffffff;stroke:#000000;stroke-linejoin:miter;"/>
    </g>
    <g id="text_59">
     <!-- 1 -->
     <g transform="translate(270.333686 429.036317)scale(0.1 -0.1)">
      <use xlink:href="#DejaVuSans-49"/>
     </g>
    </g>
    <g id="patch_55">
     <path d="M 293.209053 416.025917 
L 332.597289 416.025917 
L 332.597289 436.527968 
L 293.209053 436.527968 
z
" style="fill:#ffffff;stroke:#000000;stroke-linejoin:miter;"/>
    </g>
    <g id="text_60">
     <!-- 3 -->
     <g transform="translate(309.721921 429.036317)scale(0.1 -0.1)">
      <use xlink:href="#DejaVuSans-51"/>
     </g>
    </g>
    <g id="patch_56">
     <path d="M 332.597289 416.025917 
L 371.985524 416.025917 
L 371.985524 436.527968 
L 332.597289 436.527968 
z
" style="fill:#ffffff;stroke:#000000;stroke-linejoin:miter;"/>
    </g>
    <g id="text_61">
     <!-- 10 -->
     <g transform="translate(345.928906 429.036317)scale(0.1 -0.1)">
      <use xlink:href="#DejaVuSans-49"/>
      <use x="63.623047" xlink:href="#DejaVuSans-48"/>
     </g>
    </g>
    <g id="patch_57">
     <path d="M 371.985524 416.025917 
L 411.373759 416.025917 
L 411.373759 436.527968 
L 371.985524 436.527968 
z
" style="fill:#ffffff;stroke:#000000;stroke-linejoin:miter;"/>
    </g>
    <g id="text_62">
     <!-- 3 -->
     <g transform="translate(388.498392 429.036317)scale(0.1 -0.1)">
      <use xlink:href="#DejaVuSans-51"/>
     </g>
    </g>
    <g id="patch_58">
     <path d="M 411.373759 416.025917 
L 450.761994 416.025917 
L 450.761994 436.527968 
L 411.373759 436.527968 
z
" style="fill:#ffffff;stroke:#000000;stroke-linejoin:miter;"/>
    </g>
    <g id="text_63">
     <!-- 1 -->
     <g transform="translate(427.886627 429.036317)scale(0.1 -0.1)">
      <use xlink:href="#DejaVuSans-49"/>
     </g>
    </g>
   </g>
   <g id="line2d_2">
    <path clip-path="url(#p71c179eba6)" d="M 293.209053 389.839206 
L 294.402636 389.632669 
L 295.596219 389.390906 
L 296.789802 389.109072 
L 297.983385 388.781876 
L 299.176968 388.403588 
L 300.370551 387.968048 
L 301.564134 387.468689 
L 302.757716 386.898564 
L 303.951299 386.250399 
L 305.144882 385.516651 
L 306.338465 384.689579 
L 307.532048 383.761342 
L 308.725631 382.724103 
L 309.919214 381.570154 
L 311.112797 380.292054 
L 312.30638 378.882787 
L 313.499962 377.335925 
L 314.693545 375.645813 
L 315.887128 373.807747 
L 317.080711 371.818176 
L 318.274294 369.67489 
L 319.467877 367.377209 
L 320.66146 364.92617 
L 321.855043 362.324695 
L 323.048626 359.577739 
L 324.242208 356.692422 
L 325.435791 353.678127 
L 326.629374 350.546559 
L 327.822957 347.311778 
L 329.01654 343.990178 
L 330.210123 340.600427 
L 331.403706 337.163352 
L 332.597289 333.701784 
L 333.790871 330.240343 
L 334.984454 326.805189 
L 336.178037 323.423713 
L 337.37162 320.124196 
L 338.565203 316.935433 
L 339.758786 313.886325 
L 340.952369 311.005447 
L 342.145952 308.320616 
L 343.339535 305.858437 
L 344.533117 303.643874 
L 345.7267 301.699826 
L 346.920283 300.046736 
L 348.113866 298.70223 
L 349.307449 297.680807 
L 350.501032 296.993578 
L 351.694615 296.648066 
L 352.888198 296.648066 
L 354.081781 296.993578 
L 355.275363 297.680807 
L 356.468946 298.70223 
L 357.662529 300.046736 
L 358.856112 301.699826 
L 360.049695 303.643874 
L 361.243278 305.858437 
L 362.436861 308.320616 
L 363.630444 311.005447 
L 364.824027 313.886325 
L 366.017609 316.935433 
L 367.211192 320.124196 
L 368.404775 323.423713 
L 369.598358 326.805189 
L 370.791941 330.240343 
L 371.985524 333.701784 
L 373.179107 337.163352 
L 374.37269 340.600427 
L 375.566273 343.990178 
L 376.759855 347.311778 
L 377.953438 350.546559 
L 379.147021 353.678127 
L 380.340604 356.692422 
L 381.534187 359.577739 
L 382.72777 362.324695 
L 383.921353 364.92617 
L 385.114936 367.377209 
L 386.308519 369.67489 
L 387.502101 371.818176 
L 388.695684 373.807747 
L 389.889267 375.645813 
L 391.08285 377.335925 
L 392.276433 378.882787 
L 393.470016 380.292054 
L 394.663599 381.570154 
L 395.857182 382.724103 
L 397.050765 383.761342 
L 398.244347 384.689579 
L 399.43793 385.516651 
L 400.631513 386.250399 
L 401.825096 386.898564 
L 403.018679 387.468689 
L 404.212262 387.968048 
L 405.405845 388.403588 
L 406.599428 388.781876 
L 407.793011 389.109072 
L 408.986593 389.390906 
L 410.180176 389.632669 
L 411.373759 389.839206 
" style="fill:none;stroke:#1f77b4;stroke-linecap:square;stroke-width:1.5;"/>
   </g>
   <g id="text_64">
    <!-- * -->
    <g transform="translate(234.1267 347.382699)scale(0.15 -0.15)">
     <use xlink:href="#DejaVuSans-42"/>
    </g>
   </g>
  </g>
  <g id="axes_6">
   <g id="text_65">
    <!-- = -->
    <g transform="translate(450.761994 347.382699)scale(0.15 -0.15)">
     <use xlink:href="#DejaVuSans-61"/>
    </g>
   </g>
   <g id="text_66">
    <!-- $6$-dimensional -->
    <g transform="translate(543.510818 332.273668)scale(0.13 -0.13)">
     <defs>
      <path d="M 4.890625 31.390625 
L 31.203125 31.390625 
L 31.203125 23.390625 
L 4.890625 23.390625 
z
" id="DejaVuSans-45"/>
      <path d="M 44.28125 53.078125 
L 44.28125 44.578125 
Q 40.484375 46.53125 36.375 47.5 
Q 32.28125 48.484375 27.875 48.484375 
Q 21.1875 48.484375 17.84375 46.4375 
Q 14.5 44.390625 14.5 40.28125 
Q 14.5 37.15625 16.890625 35.375 
Q 19.28125 33.59375 26.515625 31.984375 
L 29.59375 31.296875 
Q 39.15625 29.25 43.1875 25.515625 
Q 47.21875 21.78125 47.21875 15.09375 
Q 47.21875 7.46875 41.1875 3.015625 
Q 35.15625 -1.421875 24.609375 -1.421875 
Q 20.21875 -1.421875 15.453125 -0.5625 
Q 10.6875 0.296875 5.421875 2 
L 5.421875 11.28125 
Q 10.40625 8.6875 15.234375 7.390625 
Q 20.0625 6.109375 24.8125 6.109375 
Q 31.15625 6.109375 34.5625 8.28125 
Q 37.984375 10.453125 37.984375 14.40625 
Q 37.984375 18.0625 35.515625 20.015625 
Q 33.0625 21.96875 24.703125 23.78125 
L 21.578125 24.515625 
Q 13.234375 26.265625 9.515625 29.90625 
Q 5.8125 33.546875 5.8125 39.890625 
Q 5.8125 47.609375 11.28125 51.796875 
Q 16.75 56 26.8125 56 
Q 31.78125 56 36.171875 55.265625 
Q 40.578125 54.546875 44.28125 53.078125 
z
" id="DejaVuSans-115"/>
     </defs>
     <use transform="translate(0 0.015625)" xlink:href="#Cmr10-54"/>
     <use transform="translate(50 0.015625)" xlink:href="#DejaVuSans-45"/>
     <use transform="translate(86.083984 0.015625)" xlink:href="#DejaVuSans-100"/>
     <use transform="translate(149.560547 0.015625)" xlink:href="#DejaVuSans-105"/>
     <use transform="translate(177.34375 0.015625)" xlink:href="#DejaVuSans-109"/>
     <use transform="translate(274.755859 0.015625)" xlink:href="#DejaVuSans-101"/>
     <use transform="translate(336.279297 0.015625)" xlink:href="#DejaVuSans-110"/>
     <use transform="translate(399.658203 0.015625)" xlink:href="#DejaVuSans-115"/>
     <use transform="translate(451.757812 0.015625)" xlink:href="#DejaVuSans-105"/>
     <use transform="translate(479.541016 0.015625)" xlink:href="#DejaVuSans-111"/>
     <use transform="translate(540.722656 0.015625)" xlink:href="#DejaVuSans-110"/>
     <use transform="translate(604.101562 0.015625)" xlink:href="#DejaVuSans-97"/>
     <use transform="translate(665.380859 0.015625)" xlink:href="#DejaVuSans-108"/>
    </g>
    <!-- convolved -->
    <g transform="translate(555.346912 346.830824)scale(0.13 -0.13)">
     <use xlink:href="#DejaVuSans-99"/>
     <use x="54.980469" xlink:href="#DejaVuSans-111"/>
     <use x="116.162109" xlink:href="#DejaVuSans-110"/>
     <use x="179.541016" xlink:href="#DejaVuSans-118"/>
     <use x="238.720703" xlink:href="#DejaVuSans-111"/>
     <use x="299.902344" xlink:href="#DejaVuSans-108"/>
     <use x="327.685547" xlink:href="#DejaVuSans-118"/>
     <use x="386.865234" xlink:href="#DejaVuSans-101"/>
     <use x="448.388672" xlink:href="#DejaVuSans-100"/>
    </g>
    <!-- feature -->
    <g transform="translate(565.156834 361.38798)scale(0.13 -0.13)">
     <use xlink:href="#DejaVuSans-102"/>
     <use x="35.205078" xlink:href="#DejaVuSans-101"/>
     <use x="96.728516" xlink:href="#DejaVuSans-97"/>
     <use x="158.007812" xlink:href="#DejaVuSans-116"/>
     <use x="197.216797" xlink:href="#DejaVuSans-117"/>
     <use x="260.595703" xlink:href="#DejaVuSans-114"/>
     <use x="299.458984" xlink:href="#DejaVuSans-101"/>
    </g>
   </g>
   <g id="text_67">
    <!-- A -->
    <g transform="translate(7.230469 18.597656)scale(0.15 -0.15)">
     <defs>
      <path d="M 34.1875 63.1875 
L 20.796875 26.90625 
L 47.609375 26.90625 
z
M 28.609375 72.90625 
L 39.796875 72.90625 
L 67.578125 0 
L 57.328125 0 
L 50.6875 18.703125 
L 17.828125 18.703125 
L 11.1875 0 
L 0.78125 0 
z
" id="DejaVuSans-65"/>
     </defs>
     <use xlink:href="#DejaVuSans-65"/>
    </g>
   </g>
   <g id="text_68">
    <!-- B -->
    <g transform="translate(7.2 287.718257)scale(0.15 -0.15)">
     <defs>
      <path d="M 19.671875 34.8125 
L 19.671875 8.109375 
L 35.5 8.109375 
Q 43.453125 8.109375 47.28125 11.40625 
Q 51.125 14.703125 51.125 21.484375 
Q 51.125 28.328125 47.28125 31.5625 
Q 43.453125 34.8125 35.5 34.8125 
z
M 19.671875 64.796875 
L 19.671875 42.828125 
L 34.28125 42.828125 
Q 41.5 42.828125 45.03125 45.53125 
Q 48.578125 48.25 48.578125 53.8125 
Q 48.578125 59.328125 45.03125 62.0625 
Q 41.5 64.796875 34.28125 64.796875 
z
M 9.8125 72.90625 
L 35.015625 72.90625 
Q 46.296875 72.90625 52.390625 68.21875 
Q 58.5 63.53125 58.5 54.890625 
Q 58.5 48.1875 55.375 44.234375 
Q 52.25 40.28125 46.1875 39.3125 
Q 53.46875 37.75 57.5 32.78125 
Q 61.53125 27.828125 61.53125 20.40625 
Q 61.53125 10.640625 54.890625 5.3125 
Q 48.25 0 35.984375 0 
L 9.8125 0 
z
" id="DejaVuSans-66"/>
     </defs>
     <use xlink:href="#DejaVuSans-66"/>
    </g>
   </g>
  </g>
 </g>
 <defs>
  <clipPath id="pfa5440d3bf">
   <rect height="104.811696" width="196.941176" x="17.491406" y="290.837788"/>
  </clipPath>
  <clipPath id="p71c179eba6">
   <rect height="102.510254" width="196.941176" x="253.820818" y="291.988509"/>
  </clipPath>
 </defs>
</svg>
