<?xml version="1.0" encoding="utf-8" standalone="no"?>
<!DOCTYPE svg PUBLIC "-//W3C//DTD SVG 1.1//EN"
  "http://www.w3.org/Graphics/SVG/1.1/DTD/svg11.dtd">
<!-- Created with matplotlib (https://matplotlib.org/) -->
<svg height="231.84pt" version="1.1" viewBox="0 0 684 231.84" width="684pt" xmlns="http://www.w3.org/2000/svg" xmlns:xlink="http://www.w3.org/1999/xlink">
 <metadata>
  <rdf:RDF xmlns:cc="http://creativecommons.org/ns#" xmlns:dc="http://purl.org/dc/elements/1.1/" xmlns:rdf="http://www.w3.org/1999/02/22-rdf-syntax-ns#">
   <cc:Work>
    <dc:type rdf:resource="http://purl.org/dc/dcmitype/StillImage"/>
    <dc:date>2021-04-21T07:52:02.947989</dc:date>
    <dc:format>image/svg+xml</dc:format>
    <dc:creator>
     <cc:Agent>
      <dc:title>Matplotlib v3.3.4, https://matplotlib.org/</dc:title>
     </cc:Agent>
    </dc:creator>
   </cc:Work>
  </rdf:RDF>
 </metadata>
 <defs>
  <style type="text/css">*{stroke-linecap:butt;stroke-linejoin:round;}</style>
 </defs>
 <g id="figure_1">
  <g id="patch_1">
   <path d="M 0 231.84 
L 684 231.84 
L 684 0 
L 0 0 
z
" style="fill:none;"/>
  </g>
  <g id="patch_2">
   <path d="M 7.2 214.390588 
L 204.141176 214.390588 
L 204.141176 17.449412 
L 7.2 17.449412 
z
" style="fill:#ffffff;"/>
  </g>
  <g id="axes_1">
   <g id="Poly3DCollection_1">
    <path clip-path="url(#p7e7942964f)" d="M 59.109797 129.613459 
L 58.663483 75.019082 
L 106.184052 72.666842 
L 106.203052 126.430456 
z
" style="fill:#0d324b;fill-opacity:0.3;"/>
    <path clip-path="url(#p7e7942964f)" d="M 163.935035 156.067212 
L 106.203052 126.430456 
L 106.184052 72.666842 
L 164.505235 94.594188 
z
" style="fill:#0d324b;fill-opacity:0.3;"/>
    <path clip-path="url(#p7e7942964f)" d="M 59.109797 129.613459 
L 106.203052 126.430456 
L 163.935035 156.067212 
L 110.819471 160.268525 
z
" style="fill:#113f60;fill-opacity:0.3;"/>
    <path clip-path="url(#p7e7942964f)" d="M 110.84545 97.707294 
L 164.505235 94.594188 
L 106.184052 72.666842 
L 58.663483 75.019082 
z
" style="fill:#185b8a;fill-opacity:0.3;"/>
    <path clip-path="url(#p7e7942964f)" d="M 110.84545 97.707294 
L 58.663483 75.019082 
L 59.109797 129.613459 
L 110.819471 160.268525 
z
" style="fill:#1b699f;fill-opacity:0.3;"/>
    <path clip-path="url(#p7e7942964f)" d="M 163.935035 156.067212 
L 164.505235 94.594188 
L 110.84545 97.707294 
L 110.819471 160.268525 
z
" style="fill:#1b699f;fill-opacity:0.3;"/>
   </g>
   <g id="text_1">
    <!-- $ 28 \times 28 \times 192$ -->
    <g transform="translate(62.470588 214.390588)scale(0.15 -0.15)">
     <defs>
      <path d="M 4.984375 0 
L 4.984375 2.6875 
Q 4.984375 2.9375 5.171875 3.21875 
L 20.703125 20.40625 
Q 24.21875 24.21875 26.40625 26.796875 
Q 28.609375 29.390625 30.75 32.765625 
Q 32.90625 36.140625 34.15625 39.625 
Q 35.40625 43.109375 35.40625 47.015625 
Q 35.40625 51.125 33.890625 54.859375 
Q 32.375 58.59375 29.375 60.84375 
Q 26.375 63.09375 22.125 63.09375 
Q 17.78125 63.09375 14.3125 60.46875 
Q 10.84375 57.859375 9.421875 53.71875 
Q 9.8125 53.8125 10.5 53.8125 
Q 12.75 53.8125 14.328125 52.296875 
Q 15.921875 50.78125 15.921875 48.390625 
Q 15.921875 46.09375 14.328125 44.5 
Q 12.75 42.921875 10.5 42.921875 
Q 8.15625 42.921875 6.5625 44.546875 
Q 4.984375 46.1875 4.984375 48.390625 
Q 4.984375 52.15625 6.390625 55.4375 
Q 7.8125 58.734375 10.46875 61.296875 
Q 13.140625 63.875 16.484375 65.234375 
Q 19.828125 66.609375 23.578125 66.609375 
Q 29.296875 66.609375 34.21875 64.1875 
Q 39.15625 61.765625 42.03125 57.34375 
Q 44.921875 52.9375 44.921875 47.015625 
Q 44.921875 42.671875 43.015625 38.765625 
Q 41.109375 34.859375 38.125 31.65625 
Q 35.15625 28.46875 30.515625 24.40625 
Q 25.875 20.359375 24.421875 19 
L 13.09375 8.109375 
L 22.703125 8.109375 
Q 29.78125 8.109375 34.546875 8.21875 
Q 39.3125 8.34375 39.59375 8.59375 
Q 40.765625 9.859375 42 17.828125 
L 44.921875 17.828125 
L 42.09375 0 
z
" id="Cmr10-50"/>
      <path d="M 4.203125 15.1875 
Q 4.203125 21.1875 8.15625 25.796875 
Q 12.109375 30.421875 18.3125 33.5 
L 14.59375 35.890625 
Q 11.1875 38.140625 9.03125 41.875 
Q 6.890625 45.609375 6.890625 49.703125 
Q 6.890625 54.5 9.40625 58.34375 
Q 11.921875 62.203125 16.09375 64.40625 
Q 20.265625 66.609375 25 66.609375 
Q 29.4375 66.609375 33.5625 64.796875 
Q 37.703125 62.984375 40.359375 59.609375 
Q 43.015625 56.25 43.015625 51.609375 
Q 43.015625 48.25 41.421875 45.359375 
Q 39.84375 42.484375 37.078125 40.1875 
Q 34.328125 37.890625 31.203125 36.28125 
L 36.921875 32.625 
Q 40.875 30.03125 43.28125 25.828125 
Q 45.703125 21.625 45.703125 17 
Q 45.703125 11.578125 42.796875 7.125 
Q 39.890625 2.6875 35.109375 0.234375 
Q 30.328125 -2.203125 25 -2.203125 
Q 19.828125 -2.203125 15.015625 -0.09375 
Q 10.203125 2 7.203125 5.984375 
Q 4.203125 9.96875 4.203125 15.1875 
z
M 9.625 15.1875 
Q 9.625 11.234375 11.796875 7.953125 
Q 13.96875 4.6875 17.53125 2.828125 
Q 21.09375 0.984375 25 0.984375 
Q 30.8125 0.984375 35.546875 4.375 
Q 40.28125 7.765625 40.28125 13.375 
Q 40.28125 15.28125 39.515625 17.15625 
Q 38.765625 19.046875 37.421875 20.578125 
Q 36.078125 22.125 34.421875 23.09375 
L 21 31.78125 
Q 17.875 30.125 15.25 27.578125 
Q 12.640625 25.046875 11.125 21.875 
Q 9.625 18.703125 9.625 15.1875 
z
M 16.5 45.703125 
L 28.609375 37.890625 
Q 32.8125 40.328125 35.5 43.796875 
Q 38.1875 47.265625 38.1875 51.609375 
Q 38.1875 54.984375 36.296875 57.78125 
Q 34.421875 60.59375 31.390625 62.15625 
Q 28.375 63.71875 24.90625 63.71875 
Q 21.875 63.71875 18.796875 62.546875 
Q 15.71875 61.375 13.71875 59.046875 
Q 11.71875 56.734375 11.71875 53.609375 
Q 11.71875 48.921875 16.5 45.703125 
z
" id="Cmr10-56"/>
      <path d="M 14.703125 2.875 
Q 14.703125 3.65625 15.1875 4.296875 
L 35.984375 25 
L 15.1875 45.796875 
Q 14.703125 46.296875 14.703125 47.125 
Q 14.703125 47.859375 15.28125 48.484375 
Q 15.875 49.125 16.703125 49.125 
Q 17.390625 49.125 18.21875 48.484375 
L 38.921875 27.78125 
L 59.515625 48.484375 
Q 60.359375 49.125 60.984375 49.125 
Q 61.8125 49.125 62.390625 48.53125 
Q 62.984375 47.953125 62.984375 47.125 
Q 62.984375 46.296875 62.5 45.796875 
L 41.703125 25 
L 62.5 4.296875 
Q 62.984375 3.65625 62.984375 2.875 
Q 62.984375 2.046875 62.390625 1.453125 
Q 61.8125 0.875 60.984375 0.875 
Q 60.25 0.875 59.515625 1.609375 
L 38.921875 22.21875 
L 18.21875 1.609375 
Q 17.484375 0.875 16.703125 0.875 
Q 15.875 0.875 15.28125 1.515625 
Q 14.703125 2.15625 14.703125 2.875 
z
" id="Cmsy10-163"/>
      <path d="M 9.28125 0 
L 9.28125 3.515625 
Q 21.78125 3.515625 21.78125 6.6875 
L 21.78125 59.1875 
Q 16.609375 56.6875 8.6875 56.6875 
L 8.6875 60.203125 
Q 20.953125 60.203125 27.203125 66.609375 
L 28.609375 66.609375 
Q 28.953125 66.609375 29.265625 66.328125 
Q 29.59375 66.0625 29.59375 65.71875 
L 29.59375 6.6875 
Q 29.59375 3.515625 42.09375 3.515625 
L 42.09375 0 
z
" id="Cmr10-49"/>
      <path d="M 11.28125 4.203125 
Q 14.015625 0.984375 20.796875 0.984375 
Q 24.609375 0.984375 27.90625 3.5625 
Q 31.203125 6.15625 33.015625 9.90625 
Q 35.109375 14.15625 35.6875 18.96875 
Q 36.28125 23.78125 36.28125 30.90625 
Q 34.578125 26.859375 31.375 24.265625 
Q 28.171875 21.6875 24.03125 21.6875 
Q 18.21875 21.6875 13.640625 24.828125 
Q 9.078125 27.984375 6.640625 33.125 
Q 4.203125 38.28125 4.203125 44.09375 
Q 4.203125 50.09375 6.9375 55.296875 
Q 9.671875 60.5 14.5 63.546875 
Q 19.34375 66.609375 25.484375 66.609375 
Q 31.546875 66.609375 35.625 63.3125 
Q 39.703125 60.015625 41.84375 54.8125 
Q 44 49.609375 44.84375 43.796875 
Q 45.703125 37.984375 45.703125 32.328125 
Q 45.703125 24.609375 42.875 16.578125 
Q 40.046875 8.546875 34.40625 3.171875 
Q 28.765625 -2.203125 20.796875 -2.203125 
Q 14.890625 -2.203125 10.78125 0.578125 
Q 6.6875 3.375 6.6875 8.984375 
Q 6.6875 11.03125 8.078125 12.421875 
Q 9.46875 13.8125 11.53125 13.8125 
Q 13.53125 13.8125 14.921875 12.421875 
Q 16.3125 11.03125 16.3125 8.984375 
Q 16.3125 7.03125 14.890625 5.609375 
Q 13.484375 4.203125 11.53125 4.203125 
z
M 24.421875 24.3125 
Q 28.515625 24.3125 31.125 27.0625 
Q 33.734375 29.828125 34.90625 33.921875 
Q 36.078125 38.03125 36.078125 42.09375 
L 36.078125 44 
L 36.078125 44.390625 
Q 36.078125 51.90625 33.875 57.8125 
Q 31.6875 63.71875 25.484375 63.71875 
Q 21.53125 63.71875 19.0625 61.984375 
Q 16.609375 60.25 15.4375 57.375 
Q 14.265625 54.5 13.9375 51.21875 
Q 13.625 47.953125 13.625 44.09375 
Q 13.625 38.421875 14.15625 34.421875 
Q 14.703125 30.421875 17.09375 27.359375 
Q 19.484375 24.3125 24.421875 24.3125 
z
" id="Cmr10-57"/>
     </defs>
     <use transform="translate(0 0.390625)" xlink:href="#Cmr10-50"/>
     <use transform="translate(50 0.390625)" xlink:href="#Cmr10-56"/>
     <use transform="translate(117.558594 0.390625)" xlink:href="#Cmsy10-163"/>
     <use transform="translate(212.802734 0.390625)" xlink:href="#Cmr10-50"/>
     <use transform="translate(262.802734 0.390625)" xlink:href="#Cmr10-56"/>
     <use transform="translate(330.361328 0.390625)" xlink:href="#Cmsy10-163"/>
     <use transform="translate(425.605469 0.390625)" xlink:href="#Cmr10-49"/>
     <use transform="translate(475.605469 0.390625)" xlink:href="#Cmr10-57"/>
     <use transform="translate(525.605469 0.390625)" xlink:href="#Cmr10-50"/>
    </g>
   </g>
   <g id="patch_3">
    <path d="M 186.450233 115.92 
L 199.447059 115.92 
Q 224.447059 115.92 238.86064 95.493334 
L 263.734419 60.242666 
Q 278.148 39.816 303.148 39.816 
L 305.032896 39.816 
" style="fill:none;stroke:#000000;stroke-linecap:round;"/>
    <path d="M 301.032896 37.816 
L 305.032896 39.816 
L 301.032896 41.816 
" style="fill:none;stroke:#000000;stroke-linecap:round;"/>
   </g>
   <g id="patch_4">
    <path d="M 186.450233 115.92 
L 199.447059 115.92 
Q 224.447059 115.92 246.86647 104.857902 
L 254.909589 100.889298 
Q 277.329 89.8272 302.329 89.8272 
L 304.213896 89.8272 
" style="fill:none;stroke:#000000;stroke-linecap:round;"/>
    <path d="M 300.213896 87.8272 
L 304.213896 89.8272 
L 300.213896 91.8272 
" style="fill:none;stroke:#000000;stroke-linecap:round;"/>
   </g>
   <g id="patch_5">
    <path d="M 186.450233 115.92 
L 199.447059 115.92 
Q 224.447059 115.92 246.86647 126.982098 
L 254.909589 130.950702 
Q 277.329 142.0128 302.329 142.0128 
L 304.213896 142.0128 
" style="fill:none;stroke:#000000;stroke-linecap:round;"/>
    <path d="M 300.213896 140.0128 
L 304.213896 142.0128 
L 300.213896 144.0128 
" style="fill:none;stroke:#000000;stroke-linecap:round;"/>
   </g>
   <g id="patch_6">
    <path d="M 186.450233 115.92 
L 199.447059 115.92 
Q 224.447059 115.92 238.712767 136.450211 
L 263.063292 171.493789 
Q 277.329 192.024 302.329 192.024 
L 304.213896 192.024 
" style="fill:none;stroke:#000000;stroke-linecap:round;"/>
    <path d="M 300.213896 190.024 
L 304.213896 192.024 
L 300.213896 194.024 
" style="fill:none;stroke:#000000;stroke-linecap:round;"/>
   </g>
  </g>
  <g id="axes_2">
   <g id="text_2">
    <!--   $1 \times 1$    -->
    <g transform="translate(317.82 43.403188)scale(0.13 -0.13)">
     <defs>
      <path id="DejaVuSans-32"/>
     </defs>
     <use transform="translate(0 0.390625)" xlink:href="#DejaVuSans-32"/>
     <use transform="translate(31.787109 0.390625)" xlink:href="#DejaVuSans-32"/>
     <use transform="translate(63.574219 0.390625)" xlink:href="#Cmr10-49"/>
     <use transform="translate(131.132812 0.390625)" xlink:href="#Cmsy10-163"/>
     <use transform="translate(226.376953 0.390625)" xlink:href="#Cmr10-49"/>
     <use transform="translate(276.376953 0.390625)" xlink:href="#DejaVuSans-32"/>
     <use transform="translate(308.164062 0.390625)" xlink:href="#DejaVuSans-32"/>
     <use transform="translate(339.951172 0.390625)" xlink:href="#DejaVuSans-32"/>
    </g>
   </g>
   <g id="text_3">
    <!-- $3 \times 3$ -->
    <g transform="translate(328.155 86.135809)scale(0.13 -0.13)">
     <defs>
      <path d="M 9.515625 7.71875 
Q 11.859375 4.296875 15.8125 2.640625 
Q 19.78125 0.984375 24.3125 0.984375 
Q 30.125 0.984375 32.5625 5.9375 
Q 35.015625 10.890625 35.015625 17.1875 
Q 35.015625 20.015625 34.5 22.84375 
Q 33.984375 25.6875 32.765625 28.125 
Q 31.546875 30.5625 29.421875 32.03125 
Q 27.296875 33.5 24.21875 33.5 
L 17.578125 33.5 
Q 16.703125 33.5 16.703125 34.421875 
L 16.703125 35.296875 
Q 16.703125 36.078125 17.578125 36.078125 
L 23.09375 36.53125 
Q 26.609375 36.53125 28.921875 39.15625 
Q 31.25 41.796875 32.328125 45.578125 
Q 33.40625 49.359375 33.40625 52.78125 
Q 33.40625 57.5625 31.15625 60.640625 
Q 28.90625 63.71875 24.3125 63.71875 
Q 20.515625 63.71875 17.046875 62.28125 
Q 13.578125 60.84375 11.53125 57.90625 
Q 11.71875 57.953125 11.859375 57.984375 
Q 12.015625 58.015625 12.203125 58.015625 
Q 14.453125 58.015625 15.96875 56.453125 
Q 17.484375 54.890625 17.484375 52.6875 
Q 17.484375 50.53125 15.96875 48.96875 
Q 14.453125 47.40625 12.203125 47.40625 
Q 10.015625 47.40625 8.453125 48.96875 
Q 6.890625 50.53125 6.890625 52.6875 
Q 6.890625 56.984375 9.46875 60.15625 
Q 12.0625 63.328125 16.140625 64.96875 
Q 20.21875 66.609375 24.3125 66.609375 
Q 27.34375 66.609375 30.703125 65.703125 
Q 34.078125 64.796875 36.8125 63.109375 
Q 39.546875 61.421875 41.28125 58.78125 
Q 43.015625 56.15625 43.015625 52.78125 
Q 43.015625 48.578125 41.140625 45.015625 
Q 39.265625 41.453125 35.984375 38.859375 
Q 32.71875 36.28125 28.8125 35.015625 
Q 33.15625 34.1875 37.0625 31.734375 
Q 40.96875 29.296875 43.328125 25.484375 
Q 45.703125 21.6875 45.703125 17.28125 
Q 45.703125 11.765625 42.671875 7.296875 
Q 39.65625 2.828125 34.71875 0.3125 
Q 29.78125 -2.203125 24.3125 -2.203125 
Q 19.625 -2.203125 14.90625 -0.40625 
Q 10.203125 1.375 7.203125 4.9375 
Q 4.203125 8.5 4.203125 13.484375 
Q 4.203125 15.96875 5.859375 17.625 
Q 7.515625 19.28125 10.015625 19.28125 
Q 11.625 19.28125 12.96875 18.53125 
Q 14.3125 17.78125 15.0625 16.40625 
Q 15.828125 15.046875 15.828125 13.484375 
Q 15.828125 11.03125 14.109375 9.375 
Q 12.40625 7.71875 10.015625 7.71875 
z
" id="Cmr10-51"/>
     </defs>
     <use transform="translate(0 0.390625)" xlink:href="#Cmr10-51"/>
     <use transform="translate(67.558594 0.390625)" xlink:href="#Cmsy10-163"/>
     <use transform="translate(162.802734 0.390625)" xlink:href="#Cmr10-51"/>
    </g>
    <!-- $p=\mathrm{same}$ -->
    <g transform="translate(317.235 100.692966)scale(0.13 -0.13)">
     <defs>
      <path d="M -2.484375 -19.390625 
Q -3.421875 -19.390625 -3.421875 -18.109375 
Q -3.078125 -15.921875 -2.09375 -15.921875 
Q 1.03125 -15.921875 2.265625 -15.359375 
Q 3.515625 -14.796875 4.203125 -12.5 
L 15.484375 32.515625 
Q 16.21875 34.375 16.21875 37.3125 
Q 16.21875 41.609375 13.28125 41.609375 
Q 10.15625 41.609375 8.640625 37.859375 
Q 7.125 34.125 5.71875 28.421875 
Q 5.71875 27.78125 4.890625 27.78125 
L 3.71875 27.78125 
Q 3.46875 27.78125 3.171875 28.140625 
Q 2.875 28.515625 2.875 28.8125 
Q 3.953125 33.15625 4.953125 36.171875 
Q 5.953125 39.203125 8.078125 41.6875 
Q 10.203125 44.1875 13.375 44.1875 
Q 16.796875 44.1875 19.375 42.25 
Q 21.96875 40.328125 22.703125 37.015625 
Q 25.4375 40.1875 28.75 42.1875 
Q 32.078125 44.1875 35.59375 44.1875 
Q 39.796875 44.1875 42.890625 41.9375 
Q 46 39.703125 47.5625 36.0625 
Q 49.125 32.421875 49.125 28.21875 
Q 49.125 21.78125 45.828125 14.890625 
Q 42.53125 8.015625 36.890625 3.4375 
Q 31.25 -1.125 24.8125 -1.125 
Q 21.875 -1.125 19.5 0.53125 
Q 17.140625 2.203125 15.828125 4.890625 
L 11.28125 -12.890625 
Q 11.03125 -14.359375 10.984375 -14.59375 
Q 10.984375 -15.921875 17.578125 -15.921875 
Q 18.609375 -15.921875 18.609375 -17.1875 
Q 18.265625 -18.5 18.046875 -18.9375 
Q 17.828125 -19.390625 16.890625 -19.390625 
z
M 24.90625 1.515625 
Q 28.375 1.515625 31.34375 4.375 
Q 34.328125 7.234375 36.1875 10.796875 
Q 37.546875 13.484375 38.734375 17.359375 
Q 39.9375 21.234375 40.8125 25.625 
Q 41.703125 30.03125 41.703125 32.625 
Q 41.703125 34.90625 41.09375 36.90625 
Q 40.484375 38.921875 39.09375 40.265625 
Q 37.703125 41.609375 35.40625 41.609375 
Q 31.734375 41.609375 28.484375 38.984375 
Q 25.25 36.375 22.609375 32.515625 
L 22.609375 32.171875 
L 17.09375 10.109375 
Q 17.78125 6.546875 19.734375 4.03125 
Q 21.6875 1.515625 24.90625 1.515625 
z
" id="Cmmi10-112"/>
      <path d="M 7.515625 13.28125 
Q 6.6875 13.28125 6.140625 13.90625 
Q 5.609375 14.546875 5.609375 15.28125 
Q 5.609375 16.109375 6.140625 16.6875 
Q 6.6875 17.28125 7.515625 17.28125 
L 70.3125 17.28125 
Q 71.046875 17.28125 71.578125 16.6875 
Q 72.125 16.109375 72.125 15.28125 
Q 72.125 14.546875 71.578125 13.90625 
Q 71.046875 13.28125 70.3125 13.28125 
z
M 7.515625 32.71875 
Q 6.6875 32.71875 6.140625 33.296875 
Q 5.609375 33.890625 5.609375 34.71875 
Q 5.609375 35.453125 6.140625 36.078125 
Q 6.6875 36.71875 7.515625 36.71875 
L 70.3125 36.71875 
Q 71.046875 36.71875 71.578125 36.078125 
Q 72.125 35.453125 72.125 34.71875 
Q 72.125 33.890625 71.578125 33.296875 
Q 71.046875 32.71875 70.3125 32.71875 
z
" id="Cmr10-61"/>
      <path d="M 3.328125 -0.296875 
L 3.328125 16.015625 
Q 3.328125 16.796875 4.203125 16.796875 
L 5.421875 16.796875 
Q 6 16.796875 6.203125 16.015625 
Q 8.984375 1.515625 19.671875 1.515625 
Q 24.421875 1.515625 27.609375 3.65625 
Q 30.8125 5.8125 30.8125 10.296875 
Q 30.8125 13.53125 28.3125 15.796875 
Q 25.828125 18.0625 22.40625 18.890625 
L 15.71875 20.21875 
Q 12.359375 20.953125 9.59375 22.453125 
Q 6.84375 23.96875 5.078125 26.484375 
Q 3.328125 29 3.328125 32.328125 
Q 3.328125 36.71875 5.640625 39.515625 
Q 7.953125 42.328125 11.65625 43.578125 
Q 15.375 44.828125 19.671875 44.828125 
Q 24.8125 44.828125 28.609375 42.09375 
L 31.5 44.578125 
Q 31.5 44.828125 31.984375 44.828125 
L 32.71875 44.828125 
Q 33.015625 44.828125 33.25 44.546875 
Q 33.5 44.28125 33.5 44 
L 33.5 30.90625 
Q 33.5 29.984375 32.71875 29.984375 
L 31.5 29.984375 
Q 30.609375 29.984375 30.609375 30.90625 
Q 30.609375 36.140625 27.703125 39.3125 
Q 24.8125 42.484375 19.578125 42.484375 
Q 15.09375 42.484375 11.796875 40.8125 
Q 8.5 39.15625 8.5 35.109375 
Q 8.5 32.328125 10.859375 30.546875 
Q 13.234375 28.765625 16.40625 27.984375 
L 23.1875 26.703125 
Q 26.609375 25.921875 29.5625 24.0625 
Q 32.515625 22.21875 34.25 19.375 
Q 35.984375 16.546875 35.984375 12.984375 
Q 35.984375 9.375 34.734375 6.703125 
Q 33.5 4.046875 31.265625 2.28125 
Q 29.046875 0.53125 26.015625 -0.296875 
Q 23 -1.125 19.671875 -1.125 
Q 13.421875 -1.125 8.984375 3.078125 
L 5.328125 -0.875 
Q 5.328125 -1.125 4.78125 -1.125 
L 4.203125 -1.125 
Q 3.328125 -1.125 3.328125 -0.296875 
z
" id="Cmr10-115"/>
      <path d="M 4 9.8125 
Q 4 15.765625 8.6875 19.5 
Q 13.375 23.25 19.9375 24.78125 
Q 26.515625 26.3125 32.421875 26.3125 
L 32.421875 30.421875 
Q 32.421875 33.296875 31.15625 36 
Q 29.890625 38.71875 27.484375 40.453125 
Q 25.09375 42.1875 22.21875 42.1875 
Q 15.578125 42.1875 12.109375 39.203125 
Q 14.015625 39.203125 15.25 37.765625 
Q 16.5 36.328125 16.5 34.421875 
Q 16.5 32.421875 15.078125 31 
Q 13.671875 29.59375 11.71875 29.59375 
Q 9.71875 29.59375 8.296875 31 
Q 6.890625 32.421875 6.890625 34.421875 
Q 6.890625 39.703125 11.671875 42.265625 
Q 16.453125 44.828125 22.21875 44.828125 
Q 26.265625 44.828125 30.359375 43.09375 
Q 34.46875 41.359375 37.078125 38.125 
Q 39.703125 34.90625 39.703125 30.609375 
L 39.703125 8.109375 
Q 39.703125 6.15625 40.53125 4.515625 
Q 41.359375 2.875 43.109375 2.875 
Q 44.78125 2.875 45.578125 4.53125 
Q 46.390625 6.203125 46.390625 8.109375 
L 46.390625 14.5 
L 49.3125 14.5 
L 49.3125 8.109375 
Q 49.3125 5.859375 48.140625 3.828125 
Q 46.96875 1.8125 44.984375 0.609375 
Q 43.015625 -0.59375 40.71875 -0.59375 
Q 37.796875 -0.59375 35.671875 1.671875 
Q 33.546875 3.953125 33.296875 7.078125 
Q 31.453125 3.328125 27.828125 1.09375 
Q 24.21875 -1.125 20.125 -1.125 
Q 16.3125 -1.125 12.625 0 
Q 8.9375 1.125 6.46875 3.53125 
Q 4 5.953125 4 9.8125 
z
M 12.109375 9.8125 
Q 12.109375 6.296875 14.6875 3.90625 
Q 17.28125 1.515625 20.796875 1.515625 
Q 24.03125 1.515625 26.65625 3.125 
Q 29.296875 4.734375 30.859375 7.515625 
Q 32.421875 10.296875 32.421875 13.375 
L 32.421875 23.78125 
Q 27.875 23.78125 23.109375 22.28125 
Q 18.359375 20.796875 15.234375 17.625 
Q 12.109375 14.453125 12.109375 9.8125 
z
" id="Cmr10-97"/>
      <path d="M 2.984375 0 
L 2.984375 3.515625 
Q 6.390625 3.515625 8.59375 4.046875 
Q 10.796875 4.59375 10.796875 6.6875 
L 10.796875 33.984375 
Q 10.796875 36.671875 9.984375 37.859375 
Q 9.1875 39.0625 7.671875 39.328125 
Q 6.15625 39.59375 2.984375 39.59375 
L 2.984375 43.109375 
L 17.484375 44.1875 
L 17.484375 34.421875 
Q 19.484375 38.71875 23.40625 41.453125 
Q 27.34375 44.1875 31.984375 44.1875 
Q 43.5 44.1875 45.515625 34.8125 
Q 47.515625 39.015625 51.359375 41.59375 
Q 55.21875 44.1875 59.8125 44.1875 
Q 64.359375 44.1875 67.453125 42.71875 
Q 70.5625 41.265625 72.125 38.25 
Q 73.6875 35.25 73.6875 30.71875 
L 73.6875 6.6875 
Q 73.6875 4.59375 75.90625 4.046875 
Q 78.125 3.515625 81.5 3.515625 
L 81.5 0 
L 58.59375 0 
L 58.59375 3.515625 
Q 62.015625 3.515625 64.203125 4.046875 
Q 66.40625 4.59375 66.40625 6.6875 
L 66.40625 30.421875 
Q 66.40625 35.453125 64.984375 38.53125 
Q 63.578125 41.609375 59.1875 41.609375 
Q 53.421875 41.609375 49.65625 36.96875 
Q 45.90625 32.328125 45.90625 26.421875 
L 45.90625 6.6875 
Q 45.90625 4.59375 48.09375 4.046875 
Q 50.296875 3.515625 53.71875 3.515625 
L 53.71875 0 
L 30.8125 0 
L 30.8125 3.515625 
Q 34.234375 3.515625 36.421875 4.046875 
Q 38.625 4.59375 38.625 6.6875 
L 38.625 30.421875 
Q 38.625 35.296875 37.203125 38.453125 
Q 35.796875 41.609375 31.390625 41.609375 
Q 25.59375 41.609375 21.84375 36.96875 
Q 18.109375 32.328125 18.109375 26.421875 
L 18.109375 6.6875 
Q 18.109375 4.59375 20.3125 4.046875 
Q 22.515625 3.515625 25.875 3.515625 
L 25.875 0 
z
" id="Cmr10-109"/>
      <path d="M 24.90625 -1.125 
Q 18.796875 -1.125 13.6875 2.078125 
Q 8.59375 5.28125 5.6875 10.625 
Q 2.78125 15.96875 2.78125 21.921875 
Q 2.78125 27.78125 5.4375 33.046875 
Q 8.109375 38.328125 12.859375 41.578125 
Q 17.625 44.828125 23.484375 44.828125 
Q 28.078125 44.828125 31.46875 43.28125 
Q 34.859375 41.75 37.0625 39.015625 
Q 39.265625 36.28125 40.375 32.5625 
Q 41.5 28.859375 41.5 24.421875 
Q 41.5 23.09375 40.484375 23.09375 
L 11.53125 23.09375 
L 11.53125 22.015625 
Q 11.53125 13.71875 14.875 7.765625 
Q 18.21875 1.8125 25.78125 1.8125 
Q 28.859375 1.8125 31.46875 3.171875 
Q 34.078125 4.546875 36 6.984375 
Q 37.9375 9.421875 38.625 12.203125 
Q 38.71875 12.546875 38.984375 12.8125 
Q 39.265625 13.09375 39.59375 13.09375 
L 40.484375 13.09375 
Q 41.5 13.09375 41.5 11.8125 
Q 40.09375 6.15625 35.40625 2.515625 
Q 30.71875 -1.125 24.90625 -1.125 
z
M 11.625 25.59375 
L 34.421875 25.59375 
Q 34.421875 29.34375 33.375 33.203125 
Q 32.328125 37.0625 29.875 39.625 
Q 27.4375 42.1875 23.484375 42.1875 
Q 17.828125 42.1875 14.71875 36.890625 
Q 11.625 31.59375 11.625 25.59375 
z
" id="Cmr10-101"/>
     </defs>
     <use transform="translate(0 0.171875)" xlink:href="#Cmmi10-112"/>
     <use transform="translate(67.851562 0.171875)" xlink:href="#Cmr10-61"/>
     <use transform="translate(163.095703 0.171875)" xlink:href="#Cmr10-115"/>
     <use transform="translate(202.5 0.171875)" xlink:href="#Cmr10-97"/>
     <use transform="translate(252.5 0.171875)" xlink:href="#Cmr10-109"/>
     <use transform="translate(335.800781 0.171875)" xlink:href="#Cmr10-101"/>
    </g>
   </g>
   <g id="text_4">
    <!-- $5 \times 5$ -->
    <g transform="translate(328.155 138.321409)scale(0.13 -0.13)">
     <defs>
      <path d="M 8.6875 11.375 
Q 9.71875 8.453125 11.84375 6.046875 
Q 13.96875 3.65625 16.875 2.3125 
Q 19.78125 0.984375 22.90625 0.984375 
Q 30.125 0.984375 32.859375 6.59375 
Q 35.59375 12.203125 35.59375 20.21875 
Q 35.59375 23.6875 35.46875 26.046875 
Q 35.359375 28.421875 34.8125 30.609375 
Q 33.890625 34.125 31.5625 36.765625 
Q 29.25 39.40625 25.875 39.40625 
Q 22.515625 39.40625 20.09375 38.375 
Q 17.671875 37.359375 16.15625 35.984375 
Q 14.65625 34.625 13.484375 33.109375 
Q 12.3125 31.59375 12.015625 31.5 
L 10.890625 31.5 
Q 10.640625 31.5 10.265625 31.8125 
Q 9.90625 32.125 9.90625 32.421875 
L 9.90625 65.828125 
Q 9.90625 66.0625 10.21875 66.328125 
Q 10.546875 66.609375 10.890625 66.609375 
L 11.1875 66.609375 
Q 17.921875 63.375 25.484375 63.375 
Q 32.90625 63.375 39.796875 66.609375 
L 40.09375 66.609375 
Q 40.4375 66.609375 40.71875 66.359375 
Q 41.015625 66.109375 41.015625 65.828125 
L 41.015625 64.890625 
Q 41.015625 64.40625 40.828125 64.40625 
Q 37.40625 59.859375 32.25 57.3125 
Q 27.09375 54.78125 21.578125 54.78125 
Q 17.578125 54.78125 13.375 55.90625 
L 13.375 37.015625 
Q 16.703125 39.703125 19.3125 40.84375 
Q 21.921875 42 25.984375 42 
Q 31.5 42 35.859375 38.8125 
Q 40.234375 35.640625 42.578125 30.53125 
Q 44.921875 25.4375 44.921875 20.125 
Q 44.921875 14.109375 41.96875 8.984375 
Q 39.015625 3.859375 33.9375 0.828125 
Q 28.859375 -2.203125 22.90625 -2.203125 
Q 17.96875 -2.203125 13.84375 0.328125 
Q 9.71875 2.875 7.34375 7.171875 
Q 4.984375 11.46875 4.984375 16.3125 
Q 4.984375 18.5625 6.4375 19.96875 
Q 7.90625 21.390625 10.109375 21.390625 
Q 12.3125 21.390625 13.796875 19.9375 
Q 15.28125 18.5 15.28125 16.3125 
Q 15.28125 14.15625 13.796875 12.671875 
Q 12.3125 11.1875 10.109375 11.1875 
Q 9.765625 11.1875 9.328125 11.25 
Q 8.890625 11.328125 8.6875 11.375 
z
" id="Cmr10-53"/>
     </defs>
     <use transform="translate(0 0.390625)" xlink:href="#Cmr10-53"/>
     <use transform="translate(67.558594 0.390625)" xlink:href="#Cmsy10-163"/>
     <use transform="translate(162.802734 0.390625)" xlink:href="#Cmr10-53"/>
    </g>
    <!-- $p=\mathrm{same}$ -->
    <g transform="translate(317.235 152.878566)scale(0.13 -0.13)">
     <use transform="translate(0 0.171875)" xlink:href="#Cmmi10-112"/>
     <use transform="translate(67.851562 0.171875)" xlink:href="#Cmr10-61"/>
     <use transform="translate(163.095703 0.171875)" xlink:href="#Cmr10-115"/>
     <use transform="translate(202.5 0.171875)" xlink:href="#Cmr10-97"/>
     <use transform="translate(252.5 0.171875)" xlink:href="#Cmr10-109"/>
     <use transform="translate(335.800781 0.171875)" xlink:href="#Cmr10-101"/>
    </g>
   </g>
   <g id="text_5">
    <!-- $\mathrm{maxpool}$ -->
    <g transform="translate(317.95 181.054031)scale(0.13 -0.13)">
     <defs>
      <path d="M 1.21875 0 
L 1.21875 3.515625 
Q 5.03125 3.515625 8.390625 5 
Q 11.765625 6.5 14.109375 9.421875 
L 23.1875 21 
L 11.375 36.375 
Q 9.625 38.578125 7.546875 39.078125 
Q 5.46875 39.59375 1.703125 39.59375 
L 1.703125 43.109375 
L 22.515625 43.109375 
L 22.515625 39.59375 
Q 21.1875 39.59375 20.03125 39 
Q 18.890625 38.421875 18.890625 37.3125 
Q 18.890625 36.921875 19.1875 36.375 
L 27.203125 25.984375 
L 33.203125 33.6875 
Q 34.421875 35.15625 34.421875 36.625 
Q 34.421875 37.84375 33.609375 38.71875 
Q 32.8125 39.59375 31.5 39.59375 
L 31.5 43.109375 
L 49.90625 43.109375 
L 49.90625 39.59375 
Q 46.046875 39.59375 42.65625 38.109375 
Q 39.265625 36.625 36.921875 33.6875 
L 29 23.578125 
L 41.796875 6.6875 
Q 43.703125 4.5 45.75 4 
Q 47.796875 3.515625 51.609375 3.515625 
L 51.609375 0 
L 30.8125 0 
L 30.8125 3.515625 
Q 32.03125 3.515625 33.15625 4.09375 
Q 34.28125 4.6875 34.28125 5.8125 
Q 34.28125 6.25 33.984375 6.6875 
L 25 18.609375 
L 17.828125 9.421875 
Q 16.703125 8.15625 16.703125 6.5 
Q 16.703125 5.28125 17.53125 4.390625 
Q 18.359375 3.515625 19.484375 3.515625 
L 19.484375 0 
z
" id="Cmr10-120"/>
      <path d="M 2.59375 -19.390625 
L 2.59375 -15.921875 
Q 6 -15.921875 8.203125 -15.328125 
Q 10.40625 -14.75 10.40625 -12.703125 
L 10.40625 35.5 
Q 10.40625 38.234375 8.453125 38.90625 
Q 6.5 39.59375 2.59375 39.59375 
L 2.59375 43.109375 
L 17.390625 44.1875 
L 17.390625 37.984375 
Q 20.125 41.015625 23.75 42.59375 
Q 27.390625 44.1875 31.5 44.1875 
Q 37.40625 44.1875 42.140625 40.984375 
Q 46.875 37.796875 49.53125 32.59375 
Q 52.203125 27.390625 52.203125 21.578125 
Q 52.203125 15.53125 49.25 10.296875 
Q 46.296875 5.078125 41.1875 1.96875 
Q 36.078125 -1.125 29.984375 -1.125 
Q 22.703125 -1.125 17.671875 4.78125 
L 17.671875 -12.703125 
Q 17.671875 -14.75 19.890625 -15.328125 
Q 22.125 -15.921875 25.484375 -15.921875 
L 25.484375 -19.390625 
z
M 17.671875 9.71875 
Q 19.4375 6.15625 22.5625 3.828125 
Q 25.6875 1.515625 29.390625 1.515625 
Q 32.859375 1.515625 35.515625 3.359375 
Q 38.1875 5.21875 39.984375 8.34375 
Q 41.796875 11.46875 42.640625 14.90625 
Q 43.5 18.359375 43.5 21.578125 
Q 43.5 25.59375 42.0625 30.25 
Q 40.625 34.90625 37.671875 38.109375 
Q 34.71875 41.3125 30.515625 41.3125 
Q 26.46875 41.3125 23.0625 39.234375 
Q 19.671875 37.15625 17.671875 33.59375 
z
" id="Cmr10-112"/>
      <path d="M 25 -1.125 
Q 19 -1.125 13.859375 1.921875 
Q 8.734375 4.984375 5.75 10.109375 
Q 2.78125 15.234375 2.78125 21.296875 
Q 2.78125 25.875 4.421875 30.125 
Q 6.0625 34.375 9.109375 37.71875 
Q 12.15625 41.0625 16.203125 42.9375 
Q 20.265625 44.828125 25 44.828125 
Q 31.15625 44.828125 36.203125 41.578125 
Q 41.265625 38.328125 44.1875 32.875 
Q 47.125 27.4375 47.125 21.296875 
Q 47.125 15.28125 44.140625 10.125 
Q 41.15625 4.984375 36.046875 1.921875 
Q 30.953125 -1.125 25 -1.125 
z
M 25 1.8125 
Q 33.015625 1.8125 35.6875 7.609375 
Q 38.375 13.421875 38.375 22.40625 
Q 38.375 27.4375 37.84375 30.734375 
Q 37.3125 34.03125 35.5 36.71875 
Q 34.375 38.375 32.640625 39.625 
Q 30.90625 40.875 28.96875 41.53125 
Q 27.046875 42.1875 25 42.1875 
Q 21.875 42.1875 19.0625 40.765625 
Q 16.265625 39.359375 14.40625 36.71875 
Q 12.546875 33.890625 12.03125 30.484375 
Q 11.53125 27.09375 11.53125 22.40625 
Q 11.53125 16.796875 12.5 12.328125 
Q 13.484375 7.859375 16.4375 4.828125 
Q 19.390625 1.8125 25 1.8125 
z
" id="Cmr10-111"/>
      <path d="M 3.078125 0 
L 3.078125 3.515625 
Q 6.5 3.515625 8.6875 4.046875 
Q 10.890625 4.59375 10.890625 6.6875 
L 10.890625 59.1875 
Q 10.890625 61.859375 10.078125 63.0625 
Q 9.28125 64.265625 7.765625 64.53125 
Q 6.25 64.796875 3.078125 64.796875 
L 3.078125 68.3125 
L 17.921875 69.390625 
L 17.921875 6.6875 
Q 17.921875 4.59375 20.109375 4.046875 
Q 22.3125 3.515625 25.6875 3.515625 
L 25.6875 0 
z
" id="Cmr10-108"/>
     </defs>
     <use transform="translate(0 0.609375)" xlink:href="#Cmr10-109"/>
     <use transform="translate(83.300781 0.609375)" xlink:href="#Cmr10-97"/>
     <use transform="translate(133.300781 0.609375)" xlink:href="#Cmr10-120"/>
     <use transform="translate(185.986328 0.609375)" xlink:href="#Cmr10-112"/>
     <use transform="translate(241.503906 0.609375)" xlink:href="#Cmr10-111"/>
     <use transform="translate(291.503906 0.609375)" xlink:href="#Cmr10-111"/>
     <use transform="translate(341.503906 0.609375)" xlink:href="#Cmr10-108"/>
    </g>
    <!-- $p=\mathrm{same}$ -->
    <g transform="translate(317.235 195.611187)scale(0.13 -0.13)">
     <use transform="translate(0 0.171875)" xlink:href="#Cmmi10-112"/>
     <use transform="translate(67.851562 0.171875)" xlink:href="#Cmr10-61"/>
     <use transform="translate(163.095703 0.171875)" xlink:href="#Cmr10-115"/>
     <use transform="translate(202.5 0.171875)" xlink:href="#Cmr10-97"/>
     <use transform="translate(252.5 0.171875)" xlink:href="#Cmr10-109"/>
     <use transform="translate(335.800781 0.171875)" xlink:href="#Cmr10-101"/>
    </g>
    <!-- $s=1$ -->
    <g transform="translate(328.35 210.168344)scale(0.13 -0.13)">
     <defs>
      <path d="M 8.6875 6.109375 
Q 11.375 1.515625 19.484375 1.515625 
Q 23 1.515625 26.171875 2.703125 
Q 29.34375 3.90625 31.421875 6.296875 
Q 33.5 8.6875 33.5 12.109375 
Q 33.5 14.703125 31.640625 16.359375 
Q 29.78125 18.015625 27.09375 18.609375 
L 21.6875 19.671875 
Q 17.96875 20.609375 15.578125 23.140625 
Q 13.1875 25.6875 13.1875 29.296875 
Q 13.1875 33.734375 15.59375 37.15625 
Q 18.015625 40.578125 21.96875 42.375 
Q 25.921875 44.1875 30.171875 44.1875 
Q 34.71875 44.1875 38.296875 42.015625 
Q 41.890625 39.84375 41.890625 35.59375 
Q 41.890625 33.296875 40.59375 31.53125 
Q 39.3125 29.78125 37.015625 29.78125 
Q 35.6875 29.78125 34.734375 30.640625 
Q 33.796875 31.5 33.796875 32.8125 
Q 33.796875 33.984375 34.453125 35.078125 
Q 35.109375 36.1875 36.203125 36.84375 
Q 37.3125 37.5 38.484375 37.5 
Q 37.59375 39.65625 35.171875 40.625 
Q 32.765625 41.609375 29.984375 41.609375 
Q 27.4375 41.609375 24.890625 40.578125 
Q 22.359375 39.546875 20.8125 37.5625 
Q 19.28125 35.59375 19.28125 32.90625 
Q 19.28125 31.109375 20.546875 29.734375 
Q 21.828125 28.375 23.6875 27.78125 
L 29.5 26.609375 
Q 32.28125 26.03125 34.59375 24.53125 
Q 36.921875 23.046875 38.25 20.765625 
Q 39.59375 18.5 39.59375 15.578125 
Q 39.59375 11.859375 37.515625 8.25 
Q 35.453125 4.640625 32.421875 2.484375 
Q 27.09375 -1.125 19.390625 -1.125 
Q 14.0625 -1.125 9.609375 1.3125 
Q 5.171875 3.765625 5.171875 8.59375 
Q 5.171875 11.328125 6.75 13.34375 
Q 8.34375 15.375 11.078125 15.375 
Q 12.703125 15.375 13.796875 14.390625 
Q 14.890625 13.421875 14.890625 11.8125 
Q 14.890625 9.515625 13.171875 7.8125 
Q 11.46875 6.109375 9.1875 6.109375 
z
" id="Cmmi10-115"/>
     </defs>
     <use transform="translate(0 0.390625)" xlink:href="#Cmmi10-115"/>
     <use transform="translate(64.335938 0.390625)" xlink:href="#Cmr10-61"/>
     <use transform="translate(159.580078 0.390625)" xlink:href="#Cmr10-49"/>
    </g>
   </g>
  </g>
  <g id="patch_7">
   <path d="M 479.858824 214.390588 
L 676.8 214.390588 
L 676.8 17.449412 
L 479.858824 17.449412 
z
" style="fill:#ffffff;"/>
  </g>
  <g id="axes_3">
   <g id="Poly3DCollection_2">
    <path clip-path="url(#p1c952a6c7c)" d="M 536.908928 121.38332 
L 536.617112 81.470678 
L 571.397748 79.671591 
L 571.460112 119.138391 
z
" style="fill:#2ca02c;fill-opacity:0.7;"/>
    <path clip-path="url(#p1c952a6c7c)" d="M 578.048872 122.460799 
L 571.460112 119.138391 
L 571.397748 79.671591 
L 578.02929 82.334267 
z
" style="fill:#2ca02c;fill-opacity:0.7;"/>
    <path clip-path="url(#p1c952a6c7c)" d="M 536.908928 121.38332 
L 571.460112 119.138391 
L 578.048872 122.460799 
L 542.975449 124.783908 
z
" style="fill:#2ca02c;fill-opacity:0.7;"/>
    <path clip-path="url(#p1c952a6c7c)" d="M 542.719393 84.19643 
L 578.02929 82.334267 
L 571.397748 79.671591 
L 536.617112 81.470678 
z
" style="fill:#2ca02c;fill-opacity:0.7;"/>
    <path clip-path="url(#p1c952a6c7c)" d="M 542.719393 84.19643 
L 536.617112 81.470678 
L 536.908928 121.38332 
L 542.975449 124.783908 
z
" style="fill:#2ca02c;fill-opacity:0.7;"/>
   </g>
   <g id="text_6">
    <!-- $ 28 \times 28 \times 256$ -->
    <g transform="translate(535.129412 214.390588)scale(0.15 -0.15)">
     <defs>
      <path d="M 25 -2.203125 
Q 18.796875 -2.203125 14.640625 1.09375 
Q 10.5 4.390625 8.21875 9.640625 
Q 5.953125 14.890625 5.078125 20.65625 
Q 4.203125 26.421875 4.203125 32.328125 
Q 4.203125 40.234375 7.28125 48.1875 
Q 10.359375 56.15625 16.328125 61.375 
Q 22.3125 66.609375 30.515625 66.609375 
Q 33.9375 66.609375 36.890625 65.3125 
Q 39.84375 64.015625 41.53125 61.5 
Q 43.21875 58.984375 43.21875 55.421875 
Q 43.21875 53.375 41.828125 51.984375 
Q 40.4375 50.59375 38.375 50.59375 
Q 36.421875 50.59375 35 52 
Q 33.59375 53.421875 33.59375 55.421875 
Q 33.59375 57.375 35 58.78125 
Q 36.421875 60.203125 38.375 60.203125 
L 38.921875 60.203125 
Q 37.640625 62.015625 35.328125 62.859375 
Q 33.015625 63.71875 30.515625 63.71875 
Q 27.484375 63.71875 24.921875 62.390625 
Q 22.359375 61.078125 20.3125 58.828125 
Q 18.265625 56.59375 16.890625 53.875 
Q 15.53125 51.171875 14.765625 47.703125 
Q 14.015625 44.234375 13.8125 41.203125 
Q 13.625 38.1875 13.625 33.59375 
Q 15.375 37.703125 18.59375 40.3125 
Q 21.828125 42.921875 25.875 42.921875 
Q 30.328125 42.921875 33.984375 41.109375 
Q 37.640625 39.3125 40.28125 36.109375 
Q 42.921875 32.90625 44.3125 28.796875 
Q 45.703125 24.703125 45.703125 20.515625 
Q 45.703125 14.65625 43.09375 9.34375 
Q 40.484375 4.046875 35.734375 0.921875 
Q 31 -2.203125 25 -2.203125 
z
M 25 0.984375 
Q 28.859375 0.984375 31.203125 2.734375 
Q 33.546875 4.5 34.640625 7.390625 
Q 35.75 10.296875 36.015625 13.25 
Q 36.28125 16.21875 36.28125 20.515625 
Q 36.28125 26.171875 35.734375 30.171875 
Q 35.203125 34.1875 32.8125 37.234375 
Q 30.421875 40.28125 25.484375 40.28125 
Q 21.4375 40.28125 18.828125 37.546875 
Q 16.21875 34.8125 15.015625 30.640625 
Q 13.8125 26.46875 13.8125 22.609375 
Q 13.8125 21.296875 13.921875 20.609375 
Q 13.921875 20.453125 13.890625 20.359375 
Q 13.875 20.265625 13.8125 20.125 
Q 13.8125 15.828125 14.6875 11.421875 
Q 15.578125 7.03125 18.0625 4 
Q 20.5625 0.984375 25 0.984375 
z
" id="Cmr10-54"/>
     </defs>
     <use transform="translate(0 0.390625)" xlink:href="#Cmr10-50"/>
     <use transform="translate(50 0.390625)" xlink:href="#Cmr10-56"/>
     <use transform="translate(117.558594 0.390625)" xlink:href="#Cmsy10-163"/>
     <use transform="translate(212.802734 0.390625)" xlink:href="#Cmr10-50"/>
     <use transform="translate(262.802734 0.390625)" xlink:href="#Cmr10-56"/>
     <use transform="translate(330.361328 0.390625)" xlink:href="#Cmsy10-163"/>
     <use transform="translate(425.605469 0.390625)" xlink:href="#Cmr10-50"/>
     <use transform="translate(475.605469 0.390625)" xlink:href="#Cmr10-53"/>
     <use transform="translate(525.605469 0.390625)" xlink:href="#Cmr10-54"/>
    </g>
   </g>
   <g id="Poly3DCollection_3">
    <path clip-path="url(#p1c952a6c7c)" d="M 584.867738 125.899239 
L 578.048872 122.460799 
L 578.02929 82.334267 
L 584.893999 85.090564 
z
" style="fill:#2ca02c;fill-opacity:0.7;"/>
    <path clip-path="url(#p1c952a6c7c)" d="M 542.975449 124.783908 
L 578.048872 122.460799 
L 584.867738 125.899239 
L 549.256381 128.304684 
z
" style="fill:#2ca02c;fill-opacity:0.7;"/>
    <path clip-path="url(#p1c952a6c7c)" d="M 549.038827 87.01918 
L 584.893999 85.090564 
L 578.02929 82.334267 
L 542.719393 84.19643 
z
" style="fill:#2ca02c;fill-opacity:0.7;"/>
    <path clip-path="url(#p1c952a6c7c)" d="M 549.038827 87.01918 
L 542.719393 84.19643 
L 542.975449 124.783908 
L 549.256381 128.304684 
z
" style="fill:#2ca02c;fill-opacity:0.7;"/>
   </g>
   <g id="Poly3DCollection_4">
    <path clip-path="url(#p1c952a6c7c)" d="M 591.928977 129.459896 
L 584.867738 125.899239 
L 584.893999 85.090564 
L 592.004393 87.945507 
z
" style="fill:#1f77b4;fill-opacity:0.7;"/>
    <path clip-path="url(#p1c952a6c7c)" d="M 549.256381 128.304684 
L 584.867738 125.899239 
L 591.928977 129.459896 
L 555.763294 131.952133 
z
" style="fill:#1f77b4;fill-opacity:0.7;"/>
    <path clip-path="url(#p1c952a6c7c)" d="M 555.587215 89.944198 
L 592.004393 87.945507 
L 584.893999 85.090564 
L 549.038827 87.01918 
z
" style="fill:#1f77b4;fill-opacity:0.7;"/>
    <path clip-path="url(#p1c952a6c7c)" d="M 555.587215 89.944198 
L 549.038827 87.01918 
L 549.256381 128.304684 
L 555.763294 131.952133 
z
" style="fill:#1f77b4;fill-opacity:0.7;"/>
   </g>
   <g id="Poly3DCollection_5">
    <path clip-path="url(#p1c952a6c7c)" d="M 599.245746 133.149406 
L 591.928977 129.459896 
L 592.004393 87.945507 
L 599.373903 90.90449 
z
" style="fill:#1f77b4;fill-opacity:0.7;"/>
    <path clip-path="url(#p1c952a6c7c)" d="M 555.763294 131.952133 
L 591.928977 129.459896 
L 599.245746 133.149406 
L 562.508608 135.733218 
z
" style="fill:#1f77b4;fill-opacity:0.7;"/>
    <path clip-path="url(#p1c952a6c7c)" d="M 562.377229 92.977145 
L 599.373903 90.90449 
L 592.004393 87.945507 
L 555.587215 89.944198 
z
" style="fill:#1f77b4;fill-opacity:0.7;"/>
    <path clip-path="url(#p1c952a6c7c)" d="M 562.377229 92.977145 
L 555.587215 89.944198 
L 555.763294 131.952133 
L 562.508608 135.733218 
z
" style="fill:#1f77b4;fill-opacity:0.7;"/>
   </g>
   <g id="Poly3DCollection_6">
    <path clip-path="url(#p1c952a6c7c)" d="M 606.832171 136.97489 
L 599.245746 133.149406 
L 599.373903 90.90449 
L 607.016955 93.973305 
z
" style="fill:#1f77b4;fill-opacity:0.7;"/>
    <path clip-path="url(#p1c952a6c7c)" d="M 562.508608 135.733218 
L 599.245746 133.149406 
L 606.832171 136.97489 
L 569.505669 139.65542 
z
" style="fill:#1f77b4;fill-opacity:0.7;"/>
    <path clip-path="url(#p1c952a6c7c)" d="M 569.422494 96.124107 
L 607.016955 93.973305 
L 599.373903 90.90449 
L 562.377229 92.977145 
z
" style="fill:#1f77b4;fill-opacity:0.7;"/>
    <path clip-path="url(#p1c952a6c7c)" d="M 569.422494 96.124107 
L 562.377229 92.977145 
L 562.508608 135.733218 
L 569.505669 139.65542 
z
" style="fill:#1f77b4;fill-opacity:0.7;"/>
   </g>
   <g id="Poly3DCollection_7">
    <path clip-path="url(#p1c952a6c7c)" d="M 614.70344 140.944008 
L 606.832171 136.97489 
L 607.016955 93.973305 
L 614.949067 97.158182 
z
" style="fill:#1f77b4;fill-opacity:0.7;"/>
    <path clip-path="url(#p1c952a6c7c)" d="M 569.505669 139.65542 
L 606.832171 136.97489 
L 614.70344 140.944008 
L 576.768839 143.726789 
z
" style="fill:#1f77b4;fill-opacity:0.7;"/>
    <path clip-path="url(#p1c952a6c7c)" d="M 576.737678 99.391635 
L 614.949067 97.158182 
L 607.016955 93.973305 
L 569.422494 96.124107 
z
" style="fill:#1f77b4;fill-opacity:0.7;"/>
    <path clip-path="url(#p1c952a6c7c)" d="M 576.737678 99.391635 
L 569.422494 96.124107 
L 569.505669 139.65542 
L 576.768839 143.726789 
z
" style="fill:#1f77b4;fill-opacity:0.7;"/>
   </g>
   <g id="Poly3DCollection_8">
    <path clip-path="url(#p1c952a6c7c)" d="M 622.8759 145.065003 
L 614.70344 140.944008 
L 614.949067 97.158182 
L 623.186953 100.465832 
z
" style="fill:#9467bd;fill-opacity:0.7;"/>
    <path clip-path="url(#p1c952a6c7c)" d="M 576.768839 143.726789 
L 614.70344 140.944008 
L 622.8759 145.065003 
L 584.313592 147.956 
z
" style="fill:#9467bd;fill-opacity:0.7;"/>
    <path clip-path="url(#p1c952a6c7c)" d="M 584.338596 102.786795 
L 623.186953 100.465832 
L 614.949067 97.158182 
L 576.737678 99.391635 
z
" style="fill:#9467bd;fill-opacity:0.7;"/>
    <path clip-path="url(#p1c952a6c7c)" d="M 584.338596 102.786795 
L 576.737678 99.391635 
L 576.768839 143.726789 
L 584.313592 147.956 
z
" style="fill:#9467bd;fill-opacity:0.7;"/>
   </g>
   <g id="Poly3DCollection_9">
    <path clip-path="url(#p1c952a6c7c)" d="M 631.367178 149.346763 
L 622.8759 145.065003 
L 623.186953 100.465832 
L 631.748642 103.903495 
z
" style="fill:#ffff00;fill-opacity:0.7;"/>
    <path clip-path="url(#p1c952a6c7c)" d="M 584.313592 147.956 
L 622.8759 145.065003 
L 631.367178 149.346763 
L 592.156628 152.352413 
z
" style="fill:#ffff00;fill-opacity:0.7;"/>
    <path clip-path="url(#p1c952a6c7c)" d="M 592.242323 106.317213 
L 631.748642 103.903495 
L 623.186953 100.465832 
L 584.338596 102.786795 
z
" style="fill:#ffff00;fill-opacity:0.7;"/>
    <path clip-path="url(#p1c952a6c7c)" d="M 592.242323 106.317213 
L 584.338596 102.786795 
L 584.313592 147.956 
L 592.156628 152.352413 
z
" style="fill:#ffff00;fill-opacity:0.7;"/>
    <path clip-path="url(#p1c952a6c7c)" d="M 631.367178 149.346763 
L 631.748642 103.903495 
L 592.242323 106.317213 
L 592.156628 152.352413 
z
" style="fill:#ffff00;fill-opacity:0.7;"/>
   </g>
   <g id="text_7">
    <!-- $32$ -->
    <g transform="translate(626.902851 93.131339)scale(0.1 -0.1)">
     <use transform="translate(0 0.390625)" xlink:href="#Cmr10-51"/>
     <use transform="translate(50 0.390625)" xlink:href="#Cmr10-50"/>
    </g>
   </g>
   <g id="text_8">
    <!-- $32$ -->
    <g transform="translate(610.048323 87.063115)scale(0.1 -0.1)">
     <use transform="translate(0 0.390625)" xlink:href="#Cmr10-51"/>
     <use transform="translate(50 0.390625)" xlink:href="#Cmr10-50"/>
    </g>
   </g>
   <g id="text_9">
    <!-- $128$ -->
    <g transform="translate(588.196806 80.095888)scale(0.1 -0.1)">
     <use transform="translate(0 0.390625)" xlink:href="#Cmr10-49"/>
     <use transform="translate(50 0.390625)" xlink:href="#Cmr10-50"/>
     <use transform="translate(100 0.390625)" xlink:href="#Cmr10-56"/>
    </g>
   </g>
   <g id="text_10">
    <!-- $64$ -->
    <g transform="translate(566.372574 71.338309)scale(0.1 -0.1)">
     <defs>
      <path d="M 2.78125 16.5 
L 2.78125 20.015625 
L 33.6875 66.109375 
Q 34.03125 66.609375 34.71875 66.609375 
L 36.1875 66.609375 
Q 37.3125 66.609375 37.3125 65.484375 
L 37.3125 20.015625 
L 47.125 20.015625 
L 47.125 16.5 
L 37.3125 16.5 
L 37.3125 6.6875 
Q 37.3125 4.640625 40.234375 4.078125 
Q 43.171875 3.515625 47.015625 3.515625 
L 47.015625 0 
L 19.484375 0 
L 19.484375 3.515625 
Q 23.34375 3.515625 26.265625 4.078125 
Q 29.203125 4.640625 29.203125 6.6875 
L 29.203125 16.5 
z
M 6.109375 20.015625 
L 29.78125 20.015625 
L 29.78125 55.421875 
z
" id="Cmr10-52"/>
     </defs>
     <use transform="translate(0 0.390625)" xlink:href="#Cmr10-54"/>
     <use transform="translate(50 0.390625)" xlink:href="#Cmr10-52"/>
    </g>
   </g>
   <g id="patch_8">
    <path d="M 373.019174 39.816 
L 386.016 39.816 
Q 411.016 39.816 432.26959 52.979773 
L 489.012721 88.124597 
Q 510.266311 101.28837 535.266311 101.28837 
L 537.151207 101.28837 
" style="fill:none;stroke:#000000;stroke-linecap:round;"/>
    <path d="M 533.151207 99.28837 
L 537.151207 101.28837 
L 533.151207 103.28837 
" style="fill:none;stroke:#000000;stroke-linecap:round;"/>
   </g>
   <g id="patch_9">
    <path d="M 373.721174 89.8272 
L 386.718 89.8272 
Q 411.718 89.8272 436.406808 93.759471 
L 498.071149 103.580961 
Q 522.759957 107.513232 547.759957 107.513232 
L 549.644853 107.513232 
" style="fill:none;stroke:#000000;stroke-linecap:round;"/>
    <path d="M 545.644853 105.513232 
L 549.644853 107.513232 
L 545.644853 109.513232 
" style="fill:none;stroke:#000000;stroke-linecap:round;"/>
   </g>
   <g id="patch_10">
    <path d="M 373.721174 142.0128 
L 386.718 142.0128 
Q 411.718 142.0128 436.44679 138.340341 
L 525.876149 125.059236 
Q 550.604939 121.386776 575.604939 121.386776 
L 577.489835 121.386776 
" style="fill:none;stroke:#000000;stroke-linecap:round;"/>
    <path d="M 573.489835 119.386776 
L 577.489835 121.386776 
L 573.489835 123.386776 
" style="fill:none;stroke:#000000;stroke-linecap:round;"/>
   </g>
   <g id="patch_11">
    <path d="M 373.721174 192.024 
L 386.718 192.024 
Q 411.718 192.024 434.873158 182.598575 
L 543.027632 138.573745 
Q 566.18279 129.148319 591.18279 129.148319 
L 593.067686 129.148319 
" style="fill:none;stroke:#000000;stroke-linecap:round;"/>
    <path d="M 589.067686 127.148319 
L 593.067686 129.148319 
L 589.067686 131.148319 
" style="fill:none;stroke:#000000;stroke-linecap:round;"/>
   </g>
  </g>
 </g>
 <defs>
  <clipPath id="p7e7942964f">
   <rect height="196.941176" width="196.941176" x="7.2" y="17.449412"/>
  </clipPath>
  <clipPath id="p1c952a6c7c">
   <rect height="196.941176" width="196.941176" x="479.858824" y="17.449412"/>
  </clipPath>
 </defs>
</svg>
