<?xml version="1.0" encoding="utf-8" standalone="no"?>
<!DOCTYPE svg PUBLIC "-//W3C//DTD SVG 1.1//EN"
  "http://www.w3.org/Graphics/SVG/1.1/DTD/svg11.dtd">
<!-- Created with matplotlib (https://matplotlib.org/) -->
<svg height="223.922739pt" version="1.1" viewBox="0 0 684 223.922739" width="684pt" xmlns="http://www.w3.org/2000/svg" xmlns:xlink="http://www.w3.org/1999/xlink">
 <metadata>
  <rdf:RDF xmlns:cc="http://creativecommons.org/ns#" xmlns:dc="http://purl.org/dc/elements/1.1/" xmlns:rdf="http://www.w3.org/1999/02/22-rdf-syntax-ns#">
   <cc:Work>
    <dc:type rdf:resource="http://purl.org/dc/dcmitype/StillImage"/>
    <dc:date>2021-05-12T18:34:43.954324</dc:date>
    <dc:format>image/svg+xml</dc:format>
    <dc:creator>
     <cc:Agent>
      <dc:title>Matplotlib v3.3.4, https://matplotlib.org/</dc:title>
     </cc:Agent>
    </dc:creator>
   </cc:Work>
  </rdf:RDF>
 </metadata>
 <defs>
  <style type="text/css">*{stroke-linecap:butt;stroke-linejoin:round;}</style>
 </defs>
 <g id="figure_1">
  <g id="patch_1">
   <path d="M 0 223.922739 
L 684 223.922739 
L 684 0 
L 0 0 
z
" style="fill:none;"/>
  </g>
  <g id="patch_2">
   <path d="M 7.2 204.141176 
L 204.141176 204.141176 
L 204.141176 7.2 
L 7.2 7.2 
z
" style="fill:#ffffff;"/>
  </g>
  <g id="axes_1">
   <g id="Poly3DCollection_1">
    <path clip-path="url(#p6672587142)" d="M 131.523604 109.402073 
L 131.675763 69.833348 
L 164.288562 72.491945 
L 163.917594 112.719277 
z
" style="fill:#0d324b;fill-opacity:0.3;"/>
    <path clip-path="url(#p6672587142)" d="M 45.423779 92.020017 
L 131.675763 69.833348 
L 131.523604 109.402073 
L 45.892259 137.062205 
z
" style="fill:#1b699f;fill-opacity:0.3;"/>
    <path clip-path="url(#p6672587142)" d="M 131.523604 109.402073 
L 163.917594 112.719277 
L 81.316792 141.402771 
L 45.892259 137.062205 
z
" style="fill:#113f60;fill-opacity:0.3;"/>
    <path clip-path="url(#p6672587142)" d="M 45.423779 92.020017 
L 81.110101 95.50543 
L 164.288562 72.491945 
L 131.675763 69.833348 
z
" style="fill:#185b8a;fill-opacity:0.3;"/>
    <path clip-path="url(#p6672587142)" d="M 81.316792 141.402771 
L 163.917594 112.719277 
L 164.288562 72.491945 
L 81.110101 95.50543 
z
" style="fill:#0d324b;fill-opacity:0.3;"/>
    <path clip-path="url(#p6672587142)" d="M 81.316792 141.402771 
L 81.110101 95.50543 
L 45.423779 92.020017 
L 45.892259 137.062205 
z
" style="fill:#1b699f;fill-opacity:0.3;"/>
   </g>
   <g id="text_1">
    <!-- $ 28 \times 28 \times 192$ -->
    <g transform="translate(68.230588 214.019145)scale(0.13 -0.13)">
     <defs>
      <path d="M 4.984375 0 
L 4.984375 2.6875 
Q 4.984375 2.9375 5.171875 3.21875 
L 20.703125 20.40625 
Q 24.21875 24.21875 26.40625 26.796875 
Q 28.609375 29.390625 30.75 32.765625 
Q 32.90625 36.140625 34.15625 39.625 
Q 35.40625 43.109375 35.40625 47.015625 
Q 35.40625 51.125 33.890625 54.859375 
Q 32.375 58.59375 29.375 60.84375 
Q 26.375 63.09375 22.125 63.09375 
Q 17.78125 63.09375 14.3125 60.46875 
Q 10.84375 57.859375 9.421875 53.71875 
Q 9.8125 53.8125 10.5 53.8125 
Q 12.75 53.8125 14.328125 52.296875 
Q 15.921875 50.78125 15.921875 48.390625 
Q 15.921875 46.09375 14.328125 44.5 
Q 12.75 42.921875 10.5 42.921875 
Q 8.15625 42.921875 6.5625 44.546875 
Q 4.984375 46.1875 4.984375 48.390625 
Q 4.984375 52.15625 6.390625 55.4375 
Q 7.8125 58.734375 10.46875 61.296875 
Q 13.140625 63.875 16.484375 65.234375 
Q 19.828125 66.609375 23.578125 66.609375 
Q 29.296875 66.609375 34.21875 64.1875 
Q 39.15625 61.765625 42.03125 57.34375 
Q 44.921875 52.9375 44.921875 47.015625 
Q 44.921875 42.671875 43.015625 38.765625 
Q 41.109375 34.859375 38.125 31.65625 
Q 35.15625 28.46875 30.515625 24.40625 
Q 25.875 20.359375 24.421875 19 
L 13.09375 8.109375 
L 22.703125 8.109375 
Q 29.78125 8.109375 34.546875 8.21875 
Q 39.3125 8.34375 39.59375 8.59375 
Q 40.765625 9.859375 42 17.828125 
L 44.921875 17.828125 
L 42.09375 0 
z
" id="Cmr10-50"/>
      <path d="M 4.203125 15.1875 
Q 4.203125 21.1875 8.15625 25.796875 
Q 12.109375 30.421875 18.3125 33.5 
L 14.59375 35.890625 
Q 11.1875 38.140625 9.03125 41.875 
Q 6.890625 45.609375 6.890625 49.703125 
Q 6.890625 54.5 9.40625 58.34375 
Q 11.921875 62.203125 16.09375 64.40625 
Q 20.265625 66.609375 25 66.609375 
Q 29.4375 66.609375 33.5625 64.796875 
Q 37.703125 62.984375 40.359375 59.609375 
Q 43.015625 56.25 43.015625 51.609375 
Q 43.015625 48.25 41.421875 45.359375 
Q 39.84375 42.484375 37.078125 40.1875 
Q 34.328125 37.890625 31.203125 36.28125 
L 36.921875 32.625 
Q 40.875 30.03125 43.28125 25.828125 
Q 45.703125 21.625 45.703125 17 
Q 45.703125 11.578125 42.796875 7.125 
Q 39.890625 2.6875 35.109375 0.234375 
Q 30.328125 -2.203125 25 -2.203125 
Q 19.828125 -2.203125 15.015625 -0.09375 
Q 10.203125 2 7.203125 5.984375 
Q 4.203125 9.96875 4.203125 15.1875 
z
M 9.625 15.1875 
Q 9.625 11.234375 11.796875 7.953125 
Q 13.96875 4.6875 17.53125 2.828125 
Q 21.09375 0.984375 25 0.984375 
Q 30.8125 0.984375 35.546875 4.375 
Q 40.28125 7.765625 40.28125 13.375 
Q 40.28125 15.28125 39.515625 17.15625 
Q 38.765625 19.046875 37.421875 20.578125 
Q 36.078125 22.125 34.421875 23.09375 
L 21 31.78125 
Q 17.875 30.125 15.25 27.578125 
Q 12.640625 25.046875 11.125 21.875 
Q 9.625 18.703125 9.625 15.1875 
z
M 16.5 45.703125 
L 28.609375 37.890625 
Q 32.8125 40.328125 35.5 43.796875 
Q 38.1875 47.265625 38.1875 51.609375 
Q 38.1875 54.984375 36.296875 57.78125 
Q 34.421875 60.59375 31.390625 62.15625 
Q 28.375 63.71875 24.90625 63.71875 
Q 21.875 63.71875 18.796875 62.546875 
Q 15.71875 61.375 13.71875 59.046875 
Q 11.71875 56.734375 11.71875 53.609375 
Q 11.71875 48.921875 16.5 45.703125 
z
" id="Cmr10-56"/>
      <path d="M 14.703125 2.875 
Q 14.703125 3.65625 15.1875 4.296875 
L 35.984375 25 
L 15.1875 45.796875 
Q 14.703125 46.296875 14.703125 47.125 
Q 14.703125 47.859375 15.28125 48.484375 
Q 15.875 49.125 16.703125 49.125 
Q 17.390625 49.125 18.21875 48.484375 
L 38.921875 27.78125 
L 59.515625 48.484375 
Q 60.359375 49.125 60.984375 49.125 
Q 61.8125 49.125 62.390625 48.53125 
Q 62.984375 47.953125 62.984375 47.125 
Q 62.984375 46.296875 62.5 45.796875 
L 41.703125 25 
L 62.5 4.296875 
Q 62.984375 3.65625 62.984375 2.875 
Q 62.984375 2.046875 62.390625 1.453125 
Q 61.8125 0.875 60.984375 0.875 
Q 60.25 0.875 59.515625 1.609375 
L 38.921875 22.21875 
L 18.21875 1.609375 
Q 17.484375 0.875 16.703125 0.875 
Q 15.875 0.875 15.28125 1.515625 
Q 14.703125 2.15625 14.703125 2.875 
z
" id="Cmsy10-163"/>
      <path d="M 9.28125 0 
L 9.28125 3.515625 
Q 21.78125 3.515625 21.78125 6.6875 
L 21.78125 59.1875 
Q 16.609375 56.6875 8.6875 56.6875 
L 8.6875 60.203125 
Q 20.953125 60.203125 27.203125 66.609375 
L 28.609375 66.609375 
Q 28.953125 66.609375 29.265625 66.328125 
Q 29.59375 66.0625 29.59375 65.71875 
L 29.59375 6.6875 
Q 29.59375 3.515625 42.09375 3.515625 
L 42.09375 0 
z
" id="Cmr10-49"/>
      <path d="M 11.28125 4.203125 
Q 14.015625 0.984375 20.796875 0.984375 
Q 24.609375 0.984375 27.90625 3.5625 
Q 31.203125 6.15625 33.015625 9.90625 
Q 35.109375 14.15625 35.6875 18.96875 
Q 36.28125 23.78125 36.28125 30.90625 
Q 34.578125 26.859375 31.375 24.265625 
Q 28.171875 21.6875 24.03125 21.6875 
Q 18.21875 21.6875 13.640625 24.828125 
Q 9.078125 27.984375 6.640625 33.125 
Q 4.203125 38.28125 4.203125 44.09375 
Q 4.203125 50.09375 6.9375 55.296875 
Q 9.671875 60.5 14.5 63.546875 
Q 19.34375 66.609375 25.484375 66.609375 
Q 31.546875 66.609375 35.625 63.3125 
Q 39.703125 60.015625 41.84375 54.8125 
Q 44 49.609375 44.84375 43.796875 
Q 45.703125 37.984375 45.703125 32.328125 
Q 45.703125 24.609375 42.875 16.578125 
Q 40.046875 8.546875 34.40625 3.171875 
Q 28.765625 -2.203125 20.796875 -2.203125 
Q 14.890625 -2.203125 10.78125 0.578125 
Q 6.6875 3.375 6.6875 8.984375 
Q 6.6875 11.03125 8.078125 12.421875 
Q 9.46875 13.8125 11.53125 13.8125 
Q 13.53125 13.8125 14.921875 12.421875 
Q 16.3125 11.03125 16.3125 8.984375 
Q 16.3125 7.03125 14.890625 5.609375 
Q 13.484375 4.203125 11.53125 4.203125 
z
M 24.421875 24.3125 
Q 28.515625 24.3125 31.125 27.0625 
Q 33.734375 29.828125 34.90625 33.921875 
Q 36.078125 38.03125 36.078125 42.09375 
L 36.078125 44 
L 36.078125 44.390625 
Q 36.078125 51.90625 33.875 57.8125 
Q 31.6875 63.71875 25.484375 63.71875 
Q 21.53125 63.71875 19.0625 61.984375 
Q 16.609375 60.25 15.4375 57.375 
Q 14.265625 54.5 13.9375 51.21875 
Q 13.625 47.953125 13.625 44.09375 
Q 13.625 38.421875 14.15625 34.421875 
Q 14.703125 30.421875 17.09375 27.359375 
Q 19.484375 24.3125 24.421875 24.3125 
z
" id="Cmr10-57"/>
     </defs>
     <use transform="translate(0 0.390625)" xlink:href="#Cmr10-50"/>
     <use transform="translate(50 0.390625)" xlink:href="#Cmr10-56"/>
     <use transform="translate(117.558594 0.390625)" xlink:href="#Cmsy10-163"/>
     <use transform="translate(212.802734 0.390625)" xlink:href="#Cmr10-50"/>
     <use transform="translate(262.802734 0.390625)" xlink:href="#Cmr10-56"/>
     <use transform="translate(330.361328 0.390625)" xlink:href="#Cmsy10-163"/>
     <use transform="translate(425.605469 0.390625)" xlink:href="#Cmr10-49"/>
     <use transform="translate(475.605469 0.390625)" xlink:href="#Cmr10-57"/>
     <use transform="translate(525.605469 0.390625)" xlink:href="#Cmr10-50"/>
    </g>
   </g>
  </g>
  <g id="patch_3">
   <path d="M 243.529412 204.141176 
L 440.470588 204.141176 
L 440.470588 7.2 
L 243.529412 7.2 
z
" style="fill:#ffffff;"/>
  </g>
  <g id="axes_2">
   <g id="Poly3DCollection_2">
    <path clip-path="url(#p5098664729)" d="M 342.884967 116.58976 
L 342.873028 76.103229 
L 379.215103 79.22746 
L 378.979962 120.473991 
z
" style="fill:#6a6a6a;fill-opacity:0.3;"/>
    <path clip-path="url(#p5098664729)" d="M 308.927864 84.824402 
L 342.873028 76.103229 
L 342.884967 116.58976 
L 309.179278 127.429925 
z
" style="fill:#e1e1e1;fill-opacity:0.3;"/>
    <path clip-path="url(#p5098664729)" d="M 342.884967 116.58976 
L 378.979962 120.473991 
L 346.571543 131.74827 
L 309.179278 127.429925 
z
" style="fill:#888888;fill-opacity:0.3;"/>
    <path clip-path="url(#p5098664729)" d="M 308.927864 84.824402 
L 346.585356 88.300373 
L 379.215103 79.22746 
L 342.873028 76.103229 
z
" style="fill:#c3c3c3;fill-opacity:0.3;"/>
    <path clip-path="url(#p5098664729)" d="M 346.571543 131.74827 
L 378.979962 120.473991 
L 379.215103 79.22746 
L 346.585356 88.300373 
z
" style="fill:#6a6a6a;fill-opacity:0.3;"/>
    <path clip-path="url(#p5098664729)" d="M 346.571543 131.74827 
L 346.585356 88.300373 
L 308.927864 84.824402 
L 309.179278 127.429925 
z
" style="fill:#e1e1e1;fill-opacity:0.3;"/>
   </g>
   <g id="text_2">
    <!-- $ 28 \times 28 \times 16$ -->
    <g transform="translate(307.81 214.019145)scale(0.13 -0.13)">
     <defs>
      <path d="M 25 -2.203125 
Q 18.796875 -2.203125 14.640625 1.09375 
Q 10.5 4.390625 8.21875 9.640625 
Q 5.953125 14.890625 5.078125 20.65625 
Q 4.203125 26.421875 4.203125 32.328125 
Q 4.203125 40.234375 7.28125 48.1875 
Q 10.359375 56.15625 16.328125 61.375 
Q 22.3125 66.609375 30.515625 66.609375 
Q 33.9375 66.609375 36.890625 65.3125 
Q 39.84375 64.015625 41.53125 61.5 
Q 43.21875 58.984375 43.21875 55.421875 
Q 43.21875 53.375 41.828125 51.984375 
Q 40.4375 50.59375 38.375 50.59375 
Q 36.421875 50.59375 35 52 
Q 33.59375 53.421875 33.59375 55.421875 
Q 33.59375 57.375 35 58.78125 
Q 36.421875 60.203125 38.375 60.203125 
L 38.921875 60.203125 
Q 37.640625 62.015625 35.328125 62.859375 
Q 33.015625 63.71875 30.515625 63.71875 
Q 27.484375 63.71875 24.921875 62.390625 
Q 22.359375 61.078125 20.3125 58.828125 
Q 18.265625 56.59375 16.890625 53.875 
Q 15.53125 51.171875 14.765625 47.703125 
Q 14.015625 44.234375 13.8125 41.203125 
Q 13.625 38.1875 13.625 33.59375 
Q 15.375 37.703125 18.59375 40.3125 
Q 21.828125 42.921875 25.875 42.921875 
Q 30.328125 42.921875 33.984375 41.109375 
Q 37.640625 39.3125 40.28125 36.109375 
Q 42.921875 32.90625 44.3125 28.796875 
Q 45.703125 24.703125 45.703125 20.515625 
Q 45.703125 14.65625 43.09375 9.34375 
Q 40.484375 4.046875 35.734375 0.921875 
Q 31 -2.203125 25 -2.203125 
z
M 25 0.984375 
Q 28.859375 0.984375 31.203125 2.734375 
Q 33.546875 4.5 34.640625 7.390625 
Q 35.75 10.296875 36.015625 13.25 
Q 36.28125 16.21875 36.28125 20.515625 
Q 36.28125 26.171875 35.734375 30.171875 
Q 35.203125 34.1875 32.8125 37.234375 
Q 30.421875 40.28125 25.484375 40.28125 
Q 21.4375 40.28125 18.828125 37.546875 
Q 16.21875 34.8125 15.015625 30.640625 
Q 13.8125 26.46875 13.8125 22.609375 
Q 13.8125 21.296875 13.921875 20.609375 
Q 13.921875 20.453125 13.890625 20.359375 
Q 13.875 20.265625 13.8125 20.125 
Q 13.8125 15.828125 14.6875 11.421875 
Q 15.578125 7.03125 18.0625 4 
Q 20.5625 0.984375 25 0.984375 
z
" id="Cmr10-54"/>
     </defs>
     <use transform="translate(0 0.390625)" xlink:href="#Cmr10-50"/>
     <use transform="translate(50 0.390625)" xlink:href="#Cmr10-56"/>
     <use transform="translate(117.558594 0.390625)" xlink:href="#Cmsy10-163"/>
     <use transform="translate(212.802734 0.390625)" xlink:href="#Cmr10-50"/>
     <use transform="translate(262.802734 0.390625)" xlink:href="#Cmr10-56"/>
     <use transform="translate(330.361328 0.390625)" xlink:href="#Cmsy10-163"/>
     <use transform="translate(425.605469 0.390625)" xlink:href="#Cmr10-49"/>
     <use transform="translate(475.605469 0.390625)" xlink:href="#Cmr10-54"/>
    </g>
   </g>
  </g>
  <g id="patch_4">
   <path d="M 479.858824 204.141176 
L 676.8 204.141176 
L 676.8 7.2 
L 479.858824 7.2 
z
" style="fill:#ffffff;"/>
  </g>
  <g id="axes_3">
   <g id="Poly3DCollection_3">
    <path clip-path="url(#pef093f07aa)" d="M 590.430621 112.587914 
L 590.490992 74.038272 
L 625.247439 76.970127 
L 624.96104 116.208195 
z
" style="fill:#3e2b4f;fill-opacity:0.4;"/>
    <path clip-path="url(#pef093f07aa)" d="M 533.507812 88.755805 
L 590.490992 74.038272 
L 590.430621 112.587914 
L 533.837334 130.752683 
z
" style="fill:#835ba7;fill-opacity:0.4;"/>
    <path clip-path="url(#pef093f07aa)" d="M 590.430621 112.587914 
L 624.96104 116.208195 
L 570.474843 135.077621 
L 533.837334 130.752683 
z
" style="fill:#4f3765;fill-opacity:0.4;"/>
    <path clip-path="url(#pef093f07aa)" d="M 533.507812 88.755805 
L 570.399869 92.262529 
L 625.247439 76.970127 
L 590.490992 74.038272 
z
" style="fill:#714f91;fill-opacity:0.4;"/>
    <path clip-path="url(#pef093f07aa)" d="M 570.474843 135.077621 
L 624.96104 116.208195 
L 625.247439 76.970127 
L 570.399869 92.262529 
z
" style="fill:#3e2b4f;fill-opacity:0.4;"/>
    <path clip-path="url(#pef093f07aa)" d="M 570.474843 135.077621 
L 570.399869 92.262529 
L 533.507812 88.755805 
L 533.837334 130.752683 
z
" style="fill:#835ba7;fill-opacity:0.4;"/>
   </g>
   <g id="text_3">
    <!-- $ 28 \times 28 \times 32$ -->
    <g transform="translate(544.139412 214.019145)scale(0.13 -0.13)">
     <defs>
      <path d="M 9.515625 7.71875 
Q 11.859375 4.296875 15.8125 2.640625 
Q 19.78125 0.984375 24.3125 0.984375 
Q 30.125 0.984375 32.5625 5.9375 
Q 35.015625 10.890625 35.015625 17.1875 
Q 35.015625 20.015625 34.5 22.84375 
Q 33.984375 25.6875 32.765625 28.125 
Q 31.546875 30.5625 29.421875 32.03125 
Q 27.296875 33.5 24.21875 33.5 
L 17.578125 33.5 
Q 16.703125 33.5 16.703125 34.421875 
L 16.703125 35.296875 
Q 16.703125 36.078125 17.578125 36.078125 
L 23.09375 36.53125 
Q 26.609375 36.53125 28.921875 39.15625 
Q 31.25 41.796875 32.328125 45.578125 
Q 33.40625 49.359375 33.40625 52.78125 
Q 33.40625 57.5625 31.15625 60.640625 
Q 28.90625 63.71875 24.3125 63.71875 
Q 20.515625 63.71875 17.046875 62.28125 
Q 13.578125 60.84375 11.53125 57.90625 
Q 11.71875 57.953125 11.859375 57.984375 
Q 12.015625 58.015625 12.203125 58.015625 
Q 14.453125 58.015625 15.96875 56.453125 
Q 17.484375 54.890625 17.484375 52.6875 
Q 17.484375 50.53125 15.96875 48.96875 
Q 14.453125 47.40625 12.203125 47.40625 
Q 10.015625 47.40625 8.453125 48.96875 
Q 6.890625 50.53125 6.890625 52.6875 
Q 6.890625 56.984375 9.46875 60.15625 
Q 12.0625 63.328125 16.140625 64.96875 
Q 20.21875 66.609375 24.3125 66.609375 
Q 27.34375 66.609375 30.703125 65.703125 
Q 34.078125 64.796875 36.8125 63.109375 
Q 39.546875 61.421875 41.28125 58.78125 
Q 43.015625 56.15625 43.015625 52.78125 
Q 43.015625 48.578125 41.140625 45.015625 
Q 39.265625 41.453125 35.984375 38.859375 
Q 32.71875 36.28125 28.8125 35.015625 
Q 33.15625 34.1875 37.0625 31.734375 
Q 40.96875 29.296875 43.328125 25.484375 
Q 45.703125 21.6875 45.703125 17.28125 
Q 45.703125 11.765625 42.671875 7.296875 
Q 39.65625 2.828125 34.71875 0.3125 
Q 29.78125 -2.203125 24.3125 -2.203125 
Q 19.625 -2.203125 14.90625 -0.40625 
Q 10.203125 1.375 7.203125 4.9375 
Q 4.203125 8.5 4.203125 13.484375 
Q 4.203125 15.96875 5.859375 17.625 
Q 7.515625 19.28125 10.015625 19.28125 
Q 11.625 19.28125 12.96875 18.53125 
Q 14.3125 17.78125 15.0625 16.40625 
Q 15.828125 15.046875 15.828125 13.484375 
Q 15.828125 11.03125 14.109375 9.375 
Q 12.40625 7.71875 10.015625 7.71875 
z
" id="Cmr10-51"/>
     </defs>
     <use transform="translate(0 0.390625)" xlink:href="#Cmr10-50"/>
     <use transform="translate(50 0.390625)" xlink:href="#Cmr10-56"/>
     <use transform="translate(117.558594 0.390625)" xlink:href="#Cmsy10-163"/>
     <use transform="translate(212.802734 0.390625)" xlink:href="#Cmr10-50"/>
     <use transform="translate(262.802734 0.390625)" xlink:href="#Cmr10-56"/>
     <use transform="translate(330.361328 0.390625)" xlink:href="#Cmsy10-163"/>
     <use transform="translate(425.605469 0.390625)" xlink:href="#Cmr10-51"/>
     <use transform="translate(475.605469 0.390625)" xlink:href="#Cmr10-50"/>
    </g>
   </g>
   <g id="patch_5">
    <path d="M 260.11012 105.670588 
Q 223.838141 105.670588 186.448129 105.670588 
" style="fill:none;stroke:#000000;stroke-linecap:round;"/>
    <path d="M 256.11012 103.670588 
L 260.11012 105.670588 
L 256.11012 107.670588 
" style="fill:none;stroke:#000000;stroke-linecap:round;"/>
   </g>
   <g id="text_4">
    <!-- $\mathrm{CONV}$ -->
    <g transform="translate(203.779124 121.548557)scale(0.13 -0.13)">
     <defs>
      <path d="M 22.796875 10.6875 
Q 26.21875 6.34375 31.34375 3.828125 
Q 36.46875 1.3125 42 1.3125 
Q 46.625 1.3125 50.578125 3.140625 
Q 54.546875 4.984375 57.5 8.25 
Q 60.453125 11.53125 62.03125 15.671875 
Q 63.625 19.828125 63.625 24.421875 
Q 63.625 25.203125 64.5 25.203125 
L 65.71875 25.203125 
Q 66.5 25.203125 66.5 24.21875 
Q 66.5 19 64.5 14.140625 
Q 62.5 9.28125 58.828125 5.59375 
Q 55.171875 1.90625 50.40625 -0.140625 
Q 45.65625 -2.203125 40.484375 -2.203125 
Q 33.296875 -2.203125 26.875 0.703125 
Q 20.453125 3.609375 15.6875 8.65625 
Q 10.9375 13.71875 8.265625 20.359375 
Q 5.609375 27 5.609375 34.1875 
Q 5.609375 41.359375 8.265625 48 
Q 10.9375 54.640625 15.6875 59.71875 
Q 20.453125 64.796875 26.875 67.65625 
Q 33.296875 70.515625 40.484375 70.515625 
Q 45.609375 70.515625 50.296875 68.28125 
Q 54.984375 66.0625 58.5 62.015625 
L 64.3125 70.21875 
Q 64.890625 70.515625 64.984375 70.515625 
L 65.71875 70.515625 
Q 66.015625 70.515625 66.25 70.265625 
Q 66.5 70.015625 66.5 69.671875 
L 66.5 42.671875 
Q 66.5 41.796875 65.71875 41.796875 
L 63.921875 41.796875 
Q 62.984375 41.796875 62.984375 42.671875 
Q 62.984375 45.5625 61.828125 49.125 
Q 60.6875 52.6875 58.90625 55.875 
Q 57.125 59.078125 54.78125 61.53125 
Q 49.171875 67 41.890625 67 
Q 36.375 67 31.3125 64.5 
Q 26.265625 62.015625 22.796875 57.625 
Q 19.140625 52.9375 17.71875 46.953125 
Q 16.3125 40.96875 16.3125 34.1875 
Q 16.3125 27.390625 17.71875 21.375 
Q 19.140625 15.375 22.796875 10.6875 
z
" id="Cmr10-67"/>
      <path d="M 38.921875 -2.203125 
Q 29.390625 -2.203125 21.796875 2.84375 
Q 14.203125 7.90625 9.90625 16.28125 
Q 5.609375 24.65625 5.609375 33.890625 
Q 5.609375 40.71875 8.078125 47.40625 
Q 10.546875 54.109375 14.96875 59.28125 
Q 19.390625 64.453125 25.578125 67.484375 
Q 31.78125 70.515625 38.921875 70.515625 
Q 46 70.515625 52.21875 67.453125 
Q 58.453125 64.40625 62.890625 59.171875 
Q 67.328125 53.953125 69.71875 47.453125 
Q 72.125 40.96875 72.125 33.890625 
Q 72.125 24.65625 67.828125 16.28125 
Q 63.53125 7.90625 55.90625 2.84375 
Q 48.296875 -2.203125 38.921875 -2.203125 
z
M 22.3125 10.796875 
Q 25.25 6.203125 29.546875 3.484375 
Q 33.84375 0.78125 38.921875 0.78125 
Q 42.1875 0.78125 45.328125 2.09375 
Q 48.484375 3.421875 51.046875 5.71875 
Q 53.609375 8.015625 55.421875 10.796875 
Q 61.375 19.78125 61.375 35.5 
Q 61.375 49.90625 55.421875 58.296875 
Q 52.484375 62.5 48.109375 65.03125 
Q 43.75 67.578125 38.921875 67.578125 
Q 34.03125 67.578125 29.640625 65.03125 
Q 25.25 62.5 22.3125 58.296875 
Q 19.96875 55.03125 18.671875 51.34375 
Q 17.390625 47.65625 16.84375 43.703125 
Q 16.3125 39.75 16.3125 35.5 
Q 16.3125 30.953125 16.8125 26.625 
Q 17.328125 22.3125 18.71875 18.15625 
Q 20.125 14.015625 22.3125 10.796875 
z
" id="Cmr10-79"/>
      <path d="M 3.078125 0 
L 3.078125 3.515625 
Q 13.375 3.515625 13.375 9.421875 
L 13.375 64.203125 
Q 10.109375 64.796875 3.078125 64.796875 
L 3.078125 68.3125 
L 22.21875 68.3125 
Q 22.703125 68.3125 22.90625 67.921875 
L 58.296875 15.828125 
L 58.296875 58.890625 
Q 58.296875 64.796875 48 64.796875 
L 48 68.3125 
L 71.78125 68.3125 
L 71.78125 64.796875 
Q 61.53125 64.796875 61.53125 58.890625 
L 61.53125 0.875 
Q 61.53125 0.59375 61.140625 0.296875 
Q 60.75 0 60.5 0 
L 59.28125 0 
Q 58.796875 0 58.59375 0.390625 
L 16.609375 62.203125 
L 16.609375 9.421875 
Q 16.609375 3.515625 26.90625 3.515625 
L 26.90625 0 
z
" id="Cmr10-78"/>
      <path d="M 35.203125 -1.125 
L 11.625 61.625 
Q 10.75 63.71875 8.25 64.25 
Q 5.765625 64.796875 1.90625 64.796875 
L 1.90625 68.3125 
L 29.390625 68.3125 
L 29.390625 64.796875 
Q 21.09375 64.796875 21.09375 62.203125 
Q 21.140625 62.0625 21.15625 61.9375 
Q 21.1875 61.8125 21.1875 61.625 
L 40.375 10.59375 
L 58.5 58.890625 
Q 58.6875 59.28125 58.6875 60.109375 
Q 58.6875 62.546875 56.4375 63.671875 
Q 54.203125 64.796875 51.421875 64.796875 
L 51.421875 68.3125 
L 73 68.3125 
L 73 64.796875 
Q 69.234375 64.796875 66.375 63.40625 
Q 63.53125 62.015625 62.3125 58.890625 
L 39.703125 -1.125 
Q 39.40625 -2.203125 38.09375 -2.203125 
L 36.8125 -2.203125 
Q 35.5 -2.203125 35.203125 -1.125 
z
" id="Cmr10-86"/>
     </defs>
     <use transform="translate(0 0.484375)" xlink:href="#Cmr10-67"/>
     <use transform="translate(72.216797 0.484375)" xlink:href="#Cmr10-79"/>
     <use transform="translate(149.902344 0.484375)" xlink:href="#Cmr10-78"/>
     <use transform="translate(224.902344 0.484375)" xlink:href="#Cmr10-86"/>
    </g>
    <!-- $f=1$ -->
    <g transform="translate(209.499124 136.105713)scale(0.13 -0.13)">
     <defs>
      <path d="M 9.71875 -16.5 
Q 11.578125 -17.921875 14.203125 -17.921875 
Q 17.78125 -17.921875 20.015625 -10.015625 
Q 20.953125 -6.203125 25.09375 15.09375 
L 29.6875 39.59375 
L 21.09375 39.59375 
Q 20.125 39.59375 20.125 40.921875 
Q 20.515625 43.109375 21.390625 43.109375 
L 30.328125 43.109375 
L 31.5 49.609375 
Q 32.078125 52.640625 32.5625 54.8125 
Q 33.0625 56.984375 33.625 58.828125 
Q 34.1875 60.6875 35.296875 62.984375 
Q 37.015625 66.265625 39.921875 68.390625 
Q 42.828125 70.515625 46.1875 70.515625 
Q 48.390625 70.515625 50.46875 69.703125 
Q 52.546875 68.890625 53.859375 67.28125 
Q 55.171875 65.671875 55.171875 63.484375 
Q 55.171875 60.9375 53.484375 59.046875 
Q 51.8125 57.171875 49.421875 57.171875 
Q 47.796875 57.171875 46.65625 58.171875 
Q 45.515625 59.1875 45.515625 60.796875 
Q 45.515625 62.984375 47 64.625 
Q 48.484375 66.265625 50.6875 66.5 
Q 48.828125 67.921875 46.09375 67.921875 
Q 44.578125 67.921875 43.234375 66.5 
Q 41.890625 65.09375 41.5 63.484375 
Q 40.875 60.9375 38.71875 49.703125 
L 37.5 43.109375 
L 47.796875 43.109375 
Q 48.78125 43.109375 48.78125 41.796875 
Q 48.734375 41.546875 48.578125 40.9375 
Q 48.4375 40.328125 48.171875 39.953125 
Q 47.90625 39.59375 47.515625 39.59375 
L 36.8125 39.59375 
L 32.171875 15.1875 
Q 31.296875 9.859375 30.140625 4.359375 
Q 29 -1.125 26.921875 -6.90625 
Q 24.859375 -12.703125 21.625 -16.609375 
Q 18.40625 -20.515625 14.015625 -20.515625 
Q 10.640625 -20.515625 7.984375 -18.578125 
Q 5.328125 -16.65625 5.328125 -13.484375 
Q 5.328125 -10.9375 6.953125 -9.046875 
Q 8.59375 -7.171875 11.078125 -7.171875 
Q 12.75 -7.171875 13.859375 -8.171875 
Q 14.984375 -9.1875 14.984375 -10.796875 
Q 14.984375 -12.9375 13.390625 -14.71875 
Q 11.8125 -16.5 9.71875 -16.5 
z
" id="Cmmi10-102"/>
      <path d="M 7.515625 13.28125 
Q 6.6875 13.28125 6.140625 13.90625 
Q 5.609375 14.546875 5.609375 15.28125 
Q 5.609375 16.109375 6.140625 16.6875 
Q 6.6875 17.28125 7.515625 17.28125 
L 70.3125 17.28125 
Q 71.046875 17.28125 71.578125 16.6875 
Q 72.125 16.109375 72.125 15.28125 
Q 72.125 14.546875 71.578125 13.90625 
Q 71.046875 13.28125 70.3125 13.28125 
z
M 7.515625 32.71875 
Q 6.6875 32.71875 6.140625 33.296875 
Q 5.609375 33.890625 5.609375 34.71875 
Q 5.609375 35.453125 6.140625 36.078125 
Q 6.6875 36.71875 7.515625 36.71875 
L 70.3125 36.71875 
Q 71.046875 36.71875 71.578125 36.078125 
Q 72.125 35.453125 72.125 34.71875 
Q 72.125 33.890625 71.578125 33.296875 
Q 71.046875 32.71875 70.3125 32.71875 
z
" id="Cmr10-61"/>
     </defs>
     <use transform="translate(0 0.484375)" xlink:href="#Cmmi10-102"/>
     <use transform="translate(66.435547 0.484375)" xlink:href="#Cmr10-61"/>
     <use transform="translate(161.679688 0.484375)" xlink:href="#Cmr10-49"/>
    </g>
    <!-- $16\times$ -->
    <g transform="translate(209.434124 150.689276)scale(0.13 -0.13)">
     <use transform="translate(0 0.390625)" xlink:href="#Cmr10-49"/>
     <use transform="translate(50 0.390625)" xlink:href="#Cmr10-54"/>
     <use transform="translate(117.558594 0.390625)" xlink:href="#Cmsy10-163"/>
    </g>
   </g>
   <g id="patch_6">
    <path d="M 496.439531 105.670588 
Q 460.167553 105.670588 422.77754 105.670588 
" style="fill:none;stroke:#000000;stroke-linecap:round;"/>
    <path d="M 492.439531 103.670588 
L 496.439531 105.670588 
L 492.439531 107.670588 
" style="fill:none;stroke:#000000;stroke-linecap:round;"/>
   </g>
   <g id="text_5">
    <!-- $\mathrm{CONV}$ -->
    <g transform="translate(440.108536 121.548557)scale(0.13 -0.13)">
     <use transform="translate(0 0.484375)" xlink:href="#Cmr10-67"/>
     <use transform="translate(72.216797 0.484375)" xlink:href="#Cmr10-79"/>
     <use transform="translate(149.902344 0.484375)" xlink:href="#Cmr10-78"/>
     <use transform="translate(224.902344 0.484375)" xlink:href="#Cmr10-86"/>
    </g>
    <!-- $f=5$ -->
    <g transform="translate(445.828536 136.105713)scale(0.13 -0.13)">
     <defs>
      <path d="M 8.6875 11.375 
Q 9.71875 8.453125 11.84375 6.046875 
Q 13.96875 3.65625 16.875 2.3125 
Q 19.78125 0.984375 22.90625 0.984375 
Q 30.125 0.984375 32.859375 6.59375 
Q 35.59375 12.203125 35.59375 20.21875 
Q 35.59375 23.6875 35.46875 26.046875 
Q 35.359375 28.421875 34.8125 30.609375 
Q 33.890625 34.125 31.5625 36.765625 
Q 29.25 39.40625 25.875 39.40625 
Q 22.515625 39.40625 20.09375 38.375 
Q 17.671875 37.359375 16.15625 35.984375 
Q 14.65625 34.625 13.484375 33.109375 
Q 12.3125 31.59375 12.015625 31.5 
L 10.890625 31.5 
Q 10.640625 31.5 10.265625 31.8125 
Q 9.90625 32.125 9.90625 32.421875 
L 9.90625 65.828125 
Q 9.90625 66.0625 10.21875 66.328125 
Q 10.546875 66.609375 10.890625 66.609375 
L 11.1875 66.609375 
Q 17.921875 63.375 25.484375 63.375 
Q 32.90625 63.375 39.796875 66.609375 
L 40.09375 66.609375 
Q 40.4375 66.609375 40.71875 66.359375 
Q 41.015625 66.109375 41.015625 65.828125 
L 41.015625 64.890625 
Q 41.015625 64.40625 40.828125 64.40625 
Q 37.40625 59.859375 32.25 57.3125 
Q 27.09375 54.78125 21.578125 54.78125 
Q 17.578125 54.78125 13.375 55.90625 
L 13.375 37.015625 
Q 16.703125 39.703125 19.3125 40.84375 
Q 21.921875 42 25.984375 42 
Q 31.5 42 35.859375 38.8125 
Q 40.234375 35.640625 42.578125 30.53125 
Q 44.921875 25.4375 44.921875 20.125 
Q 44.921875 14.109375 41.96875 8.984375 
Q 39.015625 3.859375 33.9375 0.828125 
Q 28.859375 -2.203125 22.90625 -2.203125 
Q 17.96875 -2.203125 13.84375 0.328125 
Q 9.71875 2.875 7.34375 7.171875 
Q 4.984375 11.46875 4.984375 16.3125 
Q 4.984375 18.5625 6.4375 19.96875 
Q 7.90625 21.390625 10.109375 21.390625 
Q 12.3125 21.390625 13.796875 19.9375 
Q 15.28125 18.5 15.28125 16.3125 
Q 15.28125 14.15625 13.796875 12.671875 
Q 12.3125 11.1875 10.109375 11.1875 
Q 9.765625 11.1875 9.328125 11.25 
Q 8.890625 11.328125 8.6875 11.375 
z
" id="Cmr10-53"/>
     </defs>
     <use transform="translate(0 0.484375)" xlink:href="#Cmmi10-102"/>
     <use transform="translate(66.435547 0.484375)" xlink:href="#Cmr10-61"/>
     <use transform="translate(161.679688 0.484375)" xlink:href="#Cmr10-53"/>
    </g>
    <!-- $32 \times$ -->
    <g transform="translate(445.763536 150.689276)scale(0.13 -0.13)">
     <use transform="translate(0 0.390625)" xlink:href="#Cmr10-51"/>
     <use transform="translate(50 0.390625)" xlink:href="#Cmr10-50"/>
     <use transform="translate(117.558594 0.390625)" xlink:href="#Cmsy10-163"/>
    </g>
   </g>
  </g>
 </g>
 <defs>
  <clipPath id="p6672587142">
   <rect height="196.941176" width="196.941176" x="7.2" y="7.2"/>
  </clipPath>
  <clipPath id="p5098664729">
   <rect height="196.941176" width="196.941176" x="243.529412" y="7.2"/>
  </clipPath>
  <clipPath id="pef093f07aa">
   <rect height="196.941176" width="196.941176" x="479.858824" y="7.2"/>
  </clipPath>
 </defs>
</svg>
