<?xml version="1.0" encoding="utf-8" standalone="no"?>
<!DOCTYPE svg PUBLIC "-//W3C//DTD SVG 1.1//EN"
  "http://www.w3.org/Graphics/SVG/1.1/DTD/svg11.dtd">
<!-- Created with matplotlib (https://matplotlib.org/) -->
<svg height="357.957656pt" version="1.1" viewBox="0 0 929.652558 357.957656" width="929.652558pt" xmlns="http://www.w3.org/2000/svg" xmlns:xlink="http://www.w3.org/1999/xlink">
 <metadata>
  <rdf:RDF xmlns:cc="http://creativecommons.org/ns#" xmlns:dc="http://purl.org/dc/elements/1.1/" xmlns:rdf="http://www.w3.org/1999/02/22-rdf-syntax-ns#">
   <cc:Work>
    <dc:type rdf:resource="http://purl.org/dc/dcmitype/StillImage"/>
    <dc:date>2021-09-27T19:38:41.505233</dc:date>
    <dc:format>image/svg+xml</dc:format>
    <dc:creator>
     <cc:Agent>
      <dc:title>Matplotlib v3.3.4, https://matplotlib.org/</dc:title>
     </cc:Agent>
    </dc:creator>
   </cc:Work>
  </rdf:RDF>
 </metadata>
 <defs>
  <style type="text/css">*{stroke-linecap:butt;stroke-linejoin:round;}</style>
 </defs>
 <g id="figure_1">
  <g id="patch_1">
   <path d="M 0 357.957656 
L 929.652558 357.957656 
L 929.652558 0 
L 0 0 
z
" style="fill:none;"/>
  </g>
  <g id="patch_2">
   <path d="M 58.65337 120.527068 
L 154.582781 120.527068 
L 154.582781 24.597656 
L 58.65337 24.597656 
z
" style="fill:#ffffff;"/>
  </g>
  <g id="axes_1">
   <g id="Poly3DCollection_1">
    <path clip-path="url(#p81ab508503)" d="M 82.740863 36.228263 
L 84.079184 35.998978 
L 84.588941 99.646625 
L 83.281393 100.125239 
z
" style="fill:#1b699f;"/>
    <path clip-path="url(#p81ab508503)" d="M 84.588941 99.646625 
L 136.441248 106.637541 
L 135.276355 107.173763 
L 83.281393 100.125239 
z
" style="fill:#113f60;"/>
    <path clip-path="url(#p81ab508503)" d="M 84.588941 99.646625 
L 84.079184 35.998978 
L 137.101895 39.352032 
L 136.441248 106.637541 
z
" style="fill:#0d324b;"/>
    <path clip-path="url(#p81ab508503)" d="M 82.740863 36.228263 
L 135.912766 39.609574 
L 137.101895 39.352032 
L 84.079184 35.998978 
z
" style="fill:#185b8a;"/>
    <path clip-path="url(#p81ab508503)" d="M 135.276355 107.173763 
L 136.441248 106.637541 
L 137.101895 39.352032 
L 135.912766 39.609574 
z
" style="fill:#0d324b;"/>
   </g>
   <g id="text_1">
    <!-- $ 224 \times 224 \times 3$ -->
    <g transform="translate(69.178075 124.114256)scale(0.13 -0.13)">
     <defs>
      <path d="M 4.984375 0 
L 4.984375 2.6875 
Q 4.984375 2.9375 5.171875 3.21875 
L 20.703125 20.40625 
Q 24.21875 24.21875 26.40625 26.796875 
Q 28.609375 29.390625 30.75 32.765625 
Q 32.90625 36.140625 34.15625 39.625 
Q 35.40625 43.109375 35.40625 47.015625 
Q 35.40625 51.125 33.890625 54.859375 
Q 32.375 58.59375 29.375 60.84375 
Q 26.375 63.09375 22.125 63.09375 
Q 17.78125 63.09375 14.3125 60.46875 
Q 10.84375 57.859375 9.421875 53.71875 
Q 9.8125 53.8125 10.5 53.8125 
Q 12.75 53.8125 14.328125 52.296875 
Q 15.921875 50.78125 15.921875 48.390625 
Q 15.921875 46.09375 14.328125 44.5 
Q 12.75 42.921875 10.5 42.921875 
Q 8.15625 42.921875 6.5625 44.546875 
Q 4.984375 46.1875 4.984375 48.390625 
Q 4.984375 52.15625 6.390625 55.4375 
Q 7.8125 58.734375 10.46875 61.296875 
Q 13.140625 63.875 16.484375 65.234375 
Q 19.828125 66.609375 23.578125 66.609375 
Q 29.296875 66.609375 34.21875 64.1875 
Q 39.15625 61.765625 42.03125 57.34375 
Q 44.921875 52.9375 44.921875 47.015625 
Q 44.921875 42.671875 43.015625 38.765625 
Q 41.109375 34.859375 38.125 31.65625 
Q 35.15625 28.46875 30.515625 24.40625 
Q 25.875 20.359375 24.421875 19 
L 13.09375 8.109375 
L 22.703125 8.109375 
Q 29.78125 8.109375 34.546875 8.21875 
Q 39.3125 8.34375 39.59375 8.59375 
Q 40.765625 9.859375 42 17.828125 
L 44.921875 17.828125 
L 42.09375 0 
z
" id="Cmr10-50"/>
      <path d="M 2.78125 16.5 
L 2.78125 20.015625 
L 33.6875 66.109375 
Q 34.03125 66.609375 34.71875 66.609375 
L 36.1875 66.609375 
Q 37.3125 66.609375 37.3125 65.484375 
L 37.3125 20.015625 
L 47.125 20.015625 
L 47.125 16.5 
L 37.3125 16.5 
L 37.3125 6.6875 
Q 37.3125 4.640625 40.234375 4.078125 
Q 43.171875 3.515625 47.015625 3.515625 
L 47.015625 0 
L 19.484375 0 
L 19.484375 3.515625 
Q 23.34375 3.515625 26.265625 4.078125 
Q 29.203125 4.640625 29.203125 6.6875 
L 29.203125 16.5 
z
M 6.109375 20.015625 
L 29.78125 20.015625 
L 29.78125 55.421875 
z
" id="Cmr10-52"/>
      <path d="M 14.703125 2.875 
Q 14.703125 3.65625 15.1875 4.296875 
L 35.984375 25 
L 15.1875 45.796875 
Q 14.703125 46.296875 14.703125 47.125 
Q 14.703125 47.859375 15.28125 48.484375 
Q 15.875 49.125 16.703125 49.125 
Q 17.390625 49.125 18.21875 48.484375 
L 38.921875 27.78125 
L 59.515625 48.484375 
Q 60.359375 49.125 60.984375 49.125 
Q 61.8125 49.125 62.390625 48.53125 
Q 62.984375 47.953125 62.984375 47.125 
Q 62.984375 46.296875 62.5 45.796875 
L 41.703125 25 
L 62.5 4.296875 
Q 62.984375 3.65625 62.984375 2.875 
Q 62.984375 2.046875 62.390625 1.453125 
Q 61.8125 0.875 60.984375 0.875 
Q 60.25 0.875 59.515625 1.609375 
L 38.921875 22.21875 
L 18.21875 1.609375 
Q 17.484375 0.875 16.703125 0.875 
Q 15.875 0.875 15.28125 1.515625 
Q 14.703125 2.15625 14.703125 2.875 
z
" id="Cmsy10-163"/>
      <path d="M 9.515625 7.71875 
Q 11.859375 4.296875 15.8125 2.640625 
Q 19.78125 0.984375 24.3125 0.984375 
Q 30.125 0.984375 32.5625 5.9375 
Q 35.015625 10.890625 35.015625 17.1875 
Q 35.015625 20.015625 34.5 22.84375 
Q 33.984375 25.6875 32.765625 28.125 
Q 31.546875 30.5625 29.421875 32.03125 
Q 27.296875 33.5 24.21875 33.5 
L 17.578125 33.5 
Q 16.703125 33.5 16.703125 34.421875 
L 16.703125 35.296875 
Q 16.703125 36.078125 17.578125 36.078125 
L 23.09375 36.53125 
Q 26.609375 36.53125 28.921875 39.15625 
Q 31.25 41.796875 32.328125 45.578125 
Q 33.40625 49.359375 33.40625 52.78125 
Q 33.40625 57.5625 31.15625 60.640625 
Q 28.90625 63.71875 24.3125 63.71875 
Q 20.515625 63.71875 17.046875 62.28125 
Q 13.578125 60.84375 11.53125 57.90625 
Q 11.71875 57.953125 11.859375 57.984375 
Q 12.015625 58.015625 12.203125 58.015625 
Q 14.453125 58.015625 15.96875 56.453125 
Q 17.484375 54.890625 17.484375 52.6875 
Q 17.484375 50.53125 15.96875 48.96875 
Q 14.453125 47.40625 12.203125 47.40625 
Q 10.015625 47.40625 8.453125 48.96875 
Q 6.890625 50.53125 6.890625 52.6875 
Q 6.890625 56.984375 9.46875 60.15625 
Q 12.0625 63.328125 16.140625 64.96875 
Q 20.21875 66.609375 24.3125 66.609375 
Q 27.34375 66.609375 30.703125 65.703125 
Q 34.078125 64.796875 36.8125 63.109375 
Q 39.546875 61.421875 41.28125 58.78125 
Q 43.015625 56.15625 43.015625 52.78125 
Q 43.015625 48.578125 41.140625 45.015625 
Q 39.265625 41.453125 35.984375 38.859375 
Q 32.71875 36.28125 28.8125 35.015625 
Q 33.15625 34.1875 37.0625 31.734375 
Q 40.96875 29.296875 43.328125 25.484375 
Q 45.703125 21.6875 45.703125 17.28125 
Q 45.703125 11.765625 42.671875 7.296875 
Q 39.65625 2.828125 34.71875 0.3125 
Q 29.78125 -2.203125 24.3125 -2.203125 
Q 19.625 -2.203125 14.90625 -0.40625 
Q 10.203125 1.375 7.203125 4.9375 
Q 4.203125 8.5 4.203125 13.484375 
Q 4.203125 15.96875 5.859375 17.625 
Q 7.515625 19.28125 10.015625 19.28125 
Q 11.625 19.28125 12.96875 18.53125 
Q 14.3125 17.78125 15.0625 16.40625 
Q 15.828125 15.046875 15.828125 13.484375 
Q 15.828125 11.03125 14.109375 9.375 
Q 12.40625 7.71875 10.015625 7.71875 
z
" id="Cmr10-51"/>
     </defs>
     <use transform="translate(0 0.390625)" xlink:href="#Cmr10-50"/>
     <use transform="translate(50 0.390625)" xlink:href="#Cmr10-50"/>
     <use transform="translate(100 0.390625)" xlink:href="#Cmr10-52"/>
     <use transform="translate(167.558594 0.390625)" xlink:href="#Cmsy10-163"/>
     <use transform="translate(262.802734 0.390625)" xlink:href="#Cmr10-50"/>
     <use transform="translate(312.802734 0.390625)" xlink:href="#Cmr10-50"/>
     <use transform="translate(362.802734 0.390625)" xlink:href="#Cmr10-52"/>
     <use transform="translate(430.361328 0.390625)" xlink:href="#Cmsy10-163"/>
     <use transform="translate(525.605469 0.390625)" xlink:href="#Cmr10-51"/>
    </g>
   </g>
   <g id="text_2">
    <!-- $x$ -->
    <g transform="translate(102.268075 18.597656)scale(0.15 -0.15)">
     <defs>
      <path d="M 7.8125 2.875 
Q 9.578125 1.515625 12.796875 1.515625 
Q 15.921875 1.515625 18.3125 4.515625 
Q 20.703125 7.515625 21.578125 11.078125 
L 26.125 28.8125 
Q 27.203125 33.640625 27.203125 35.40625 
Q 27.203125 37.890625 25.8125 39.75 
Q 24.421875 41.609375 21.921875 41.609375 
Q 18.75 41.609375 15.96875 39.625 
Q 13.1875 37.640625 11.28125 34.59375 
Q 9.375 31.546875 8.59375 28.421875 
Q 8.40625 27.78125 7.8125 27.78125 
L 6.59375 27.78125 
Q 5.8125 27.78125 5.8125 28.71875 
L 5.8125 29 
Q 6.78125 32.71875 9.125 36.25 
Q 11.46875 39.796875 14.859375 41.984375 
Q 18.265625 44.1875 22.125 44.1875 
Q 25.78125 44.1875 28.734375 42.234375 
Q 31.6875 40.28125 32.90625 36.921875 
Q 34.625 39.984375 37.28125 42.078125 
Q 39.9375 44.1875 43.109375 44.1875 
Q 45.265625 44.1875 47.5 43.421875 
Q 49.75 42.671875 51.171875 41.109375 
Q 52.59375 39.546875 52.59375 37.203125 
Q 52.59375 34.671875 50.953125 32.828125 
Q 49.3125 31 46.78125 31 
Q 45.171875 31 44.09375 32.03125 
Q 43.015625 33.0625 43.015625 34.625 
Q 43.015625 36.71875 44.453125 38.296875 
Q 45.90625 39.890625 47.90625 40.1875 
Q 46.09375 41.609375 42.921875 41.609375 
Q 39.703125 41.609375 37.328125 38.625 
Q 34.96875 35.640625 33.984375 31.984375 
L 29.59375 14.3125 
Q 28.515625 10.296875 28.515625 7.71875 
Q 28.515625 5.171875 29.953125 3.34375 
Q 31.390625 1.515625 33.796875 1.515625 
Q 38.484375 1.515625 42.15625 5.640625 
Q 45.84375 9.765625 47.015625 14.703125 
Q 47.21875 15.28125 47.796875 15.28125 
L 49.03125 15.28125 
Q 49.421875 15.28125 49.65625 15.015625 
Q 49.90625 14.75 49.90625 14.40625 
Q 49.90625 14.3125 49.8125 14.109375 
Q 48.390625 8.15625 43.84375 3.515625 
Q 39.3125 -1.125 33.59375 -1.125 
Q 29.9375 -1.125 26.984375 0.84375 
Q 24.03125 2.828125 22.796875 6.203125 
Q 21.234375 3.265625 18.46875 1.0625 
Q 15.71875 -1.125 12.59375 -1.125 
Q 10.453125 -1.125 8.171875 -0.359375 
Q 5.90625 0.390625 4.484375 1.953125 
Q 3.078125 3.515625 3.078125 5.90625 
Q 3.078125 8.25 4.703125 10.171875 
Q 6.34375 12.109375 8.796875 12.109375 
Q 10.453125 12.109375 11.578125 11.109375 
Q 12.703125 10.109375 12.703125 8.5 
Q 12.703125 6.390625 11.296875 4.828125 
Q 9.90625 3.265625 7.8125 2.875 
z
" id="Cmmi10-120"/>
     </defs>
     <use transform="translate(0 0.8125)" xlink:href="#Cmmi10-120"/>
    </g>
   </g>
   <g id="Poly3DCollection_2">
    <path clip-path="url(#p81ab508503)" d="M 81.39157 36.459429 
L 82.740863 36.228263 
L 83.281393 100.125239 
L 81.963356 100.607693 
z
" style="fill:#278d27;"/>
    <path clip-path="url(#p81ab508503)" d="M 83.281393 100.125239 
L 135.276355 107.173763 
L 134.101567 107.71454 
L 81.963356 100.607693 
z
" style="fill:#175517;"/>
    <path clip-path="url(#p81ab508503)" d="M 81.39157 36.459429 
L 134.713301 39.869355 
L 135.912766 39.609574 
L 82.740863 36.228263 
z
" style="fill:#227b22;"/>
    <path clip-path="url(#p81ab508503)" d="M 134.101567 107.71454 
L 135.276355 107.173763 
L 135.912766 39.609574 
L 134.713301 39.869355 
z
" style="fill:#124312;"/>
   </g>
   <g id="Poly3DCollection_3">
    <path clip-path="url(#p81ab508503)" d="M 80.031169 36.692497 
L 81.39157 36.459429 
L 81.963356 100.607693 
L 80.634704 101.094033 
z
" style="fill:#bd2223;"/>
    <path clip-path="url(#p81ab508503)" d="M 81.963356 100.607693 
L 134.101567 107.71454 
L 132.916759 108.259929 
L 80.634704 101.094033 
z
" style="fill:#721515;"/>
    <path clip-path="url(#p81ab508503)" d="M 132.916759 108.259929 
L 133.503365 40.131403 
L 80.031169 36.692497 
L 80.634704 101.094033 
z
" style="fill:#bd2223;"/>
    <path clip-path="url(#p81ab508503)" d="M 80.031169 36.692497 
L 133.503365 40.131403 
L 134.713301 39.869355 
L 81.39157 36.459429 
z
" style="fill:#a41e1f;"/>
    <path clip-path="url(#p81ab508503)" d="M 132.916759 108.259929 
L 134.101567 107.71454 
L 134.713301 39.869355 
L 133.503365 40.131403 
z
" style="fill:#591011;"/>
   </g>
  </g>
  <g id="axes_2">
   <g id="text_3">
    <!-- $ 224 \times 224 \times 64$ -->
    <g transform="translate(250.645317 76.14955)scale(0.13 -0.13)">
     <defs>
      <path d="M 25 -2.203125 
Q 18.796875 -2.203125 14.640625 1.09375 
Q 10.5 4.390625 8.21875 9.640625 
Q 5.953125 14.890625 5.078125 20.65625 
Q 4.203125 26.421875 4.203125 32.328125 
Q 4.203125 40.234375 7.28125 48.1875 
Q 10.359375 56.15625 16.328125 61.375 
Q 22.3125 66.609375 30.515625 66.609375 
Q 33.9375 66.609375 36.890625 65.3125 
Q 39.84375 64.015625 41.53125 61.5 
Q 43.21875 58.984375 43.21875 55.421875 
Q 43.21875 53.375 41.828125 51.984375 
Q 40.4375 50.59375 38.375 50.59375 
Q 36.421875 50.59375 35 52 
Q 33.59375 53.421875 33.59375 55.421875 
Q 33.59375 57.375 35 58.78125 
Q 36.421875 60.203125 38.375 60.203125 
L 38.921875 60.203125 
Q 37.640625 62.015625 35.328125 62.859375 
Q 33.015625 63.71875 30.515625 63.71875 
Q 27.484375 63.71875 24.921875 62.390625 
Q 22.359375 61.078125 20.3125 58.828125 
Q 18.265625 56.59375 16.890625 53.875 
Q 15.53125 51.171875 14.765625 47.703125 
Q 14.015625 44.234375 13.8125 41.203125 
Q 13.625 38.1875 13.625 33.59375 
Q 15.375 37.703125 18.59375 40.3125 
Q 21.828125 42.921875 25.875 42.921875 
Q 30.328125 42.921875 33.984375 41.109375 
Q 37.640625 39.3125 40.28125 36.109375 
Q 42.921875 32.90625 44.3125 28.796875 
Q 45.703125 24.703125 45.703125 20.515625 
Q 45.703125 14.65625 43.09375 9.34375 
Q 40.484375 4.046875 35.734375 0.921875 
Q 31 -2.203125 25 -2.203125 
z
M 25 0.984375 
Q 28.859375 0.984375 31.203125 2.734375 
Q 33.546875 4.5 34.640625 7.390625 
Q 35.75 10.296875 36.015625 13.25 
Q 36.28125 16.21875 36.28125 20.515625 
Q 36.28125 26.171875 35.734375 30.171875 
Q 35.203125 34.1875 32.8125 37.234375 
Q 30.421875 40.28125 25.484375 40.28125 
Q 21.4375 40.28125 18.828125 37.546875 
Q 16.21875 34.8125 15.015625 30.640625 
Q 13.8125 26.46875 13.8125 22.609375 
Q 13.8125 21.296875 13.921875 20.609375 
Q 13.921875 20.453125 13.890625 20.359375 
Q 13.875 20.265625 13.8125 20.125 
Q 13.8125 15.828125 14.6875 11.421875 
Q 15.578125 7.03125 18.0625 4 
Q 20.5625 0.984375 25 0.984375 
z
" id="Cmr10-54"/>
     </defs>
     <use transform="translate(0 0.390625)" xlink:href="#Cmr10-50"/>
     <use transform="translate(50 0.390625)" xlink:href="#Cmr10-50"/>
     <use transform="translate(100 0.390625)" xlink:href="#Cmr10-52"/>
     <use transform="translate(167.558594 0.390625)" xlink:href="#Cmsy10-163"/>
     <use transform="translate(262.802734 0.390625)" xlink:href="#Cmr10-50"/>
     <use transform="translate(312.802734 0.390625)" xlink:href="#Cmr10-50"/>
     <use transform="translate(362.802734 0.390625)" xlink:href="#Cmr10-52"/>
     <use transform="translate(430.361328 0.390625)" xlink:href="#Cmsy10-163"/>
     <use transform="translate(525.605469 0.390625)" xlink:href="#Cmr10-54"/>
     <use transform="translate(575.605469 0.390625)" xlink:href="#Cmr10-52"/>
    </g>
   </g>
  </g>
  <g id="axes_3">
   <g id="text_4">
    <!-- $ 112 \times 112 \times 64$ -->
    <g transform="translate(435.362558 76.14955)scale(0.13 -0.13)">
     <defs>
      <path d="M 9.28125 0 
L 9.28125 3.515625 
Q 21.78125 3.515625 21.78125 6.6875 
L 21.78125 59.1875 
Q 16.609375 56.6875 8.6875 56.6875 
L 8.6875 60.203125 
Q 20.953125 60.203125 27.203125 66.609375 
L 28.609375 66.609375 
Q 28.953125 66.609375 29.265625 66.328125 
Q 29.59375 66.0625 29.59375 65.71875 
L 29.59375 6.6875 
Q 29.59375 3.515625 42.09375 3.515625 
L 42.09375 0 
z
" id="Cmr10-49"/>
     </defs>
     <use transform="translate(0 0.390625)" xlink:href="#Cmr10-49"/>
     <use transform="translate(50 0.390625)" xlink:href="#Cmr10-49"/>
     <use transform="translate(100 0.390625)" xlink:href="#Cmr10-50"/>
     <use transform="translate(167.558594 0.390625)" xlink:href="#Cmsy10-163"/>
     <use transform="translate(262.802734 0.390625)" xlink:href="#Cmr10-49"/>
     <use transform="translate(312.802734 0.390625)" xlink:href="#Cmr10-49"/>
     <use transform="translate(362.802734 0.390625)" xlink:href="#Cmr10-50"/>
     <use transform="translate(430.361328 0.390625)" xlink:href="#Cmsy10-163"/>
     <use transform="translate(525.605469 0.390625)" xlink:href="#Cmr10-54"/>
     <use transform="translate(575.605469 0.390625)" xlink:href="#Cmr10-52"/>
    </g>
   </g>
  </g>
  <g id="axes_4">
   <g id="text_5">
    <!-- $ 112 \times 112 \times 128$ -->
    <g transform="translate(616.8298 76.14955)scale(0.13 -0.13)">
     <defs>
      <path d="M 4.203125 15.1875 
Q 4.203125 21.1875 8.15625 25.796875 
Q 12.109375 30.421875 18.3125 33.5 
L 14.59375 35.890625 
Q 11.1875 38.140625 9.03125 41.875 
Q 6.890625 45.609375 6.890625 49.703125 
Q 6.890625 54.5 9.40625 58.34375 
Q 11.921875 62.203125 16.09375 64.40625 
Q 20.265625 66.609375 25 66.609375 
Q 29.4375 66.609375 33.5625 64.796875 
Q 37.703125 62.984375 40.359375 59.609375 
Q 43.015625 56.25 43.015625 51.609375 
Q 43.015625 48.25 41.421875 45.359375 
Q 39.84375 42.484375 37.078125 40.1875 
Q 34.328125 37.890625 31.203125 36.28125 
L 36.921875 32.625 
Q 40.875 30.03125 43.28125 25.828125 
Q 45.703125 21.625 45.703125 17 
Q 45.703125 11.578125 42.796875 7.125 
Q 39.890625 2.6875 35.109375 0.234375 
Q 30.328125 -2.203125 25 -2.203125 
Q 19.828125 -2.203125 15.015625 -0.09375 
Q 10.203125 2 7.203125 5.984375 
Q 4.203125 9.96875 4.203125 15.1875 
z
M 9.625 15.1875 
Q 9.625 11.234375 11.796875 7.953125 
Q 13.96875 4.6875 17.53125 2.828125 
Q 21.09375 0.984375 25 0.984375 
Q 30.8125 0.984375 35.546875 4.375 
Q 40.28125 7.765625 40.28125 13.375 
Q 40.28125 15.28125 39.515625 17.15625 
Q 38.765625 19.046875 37.421875 20.578125 
Q 36.078125 22.125 34.421875 23.09375 
L 21 31.78125 
Q 17.875 30.125 15.25 27.578125 
Q 12.640625 25.046875 11.125 21.875 
Q 9.625 18.703125 9.625 15.1875 
z
M 16.5 45.703125 
L 28.609375 37.890625 
Q 32.8125 40.328125 35.5 43.796875 
Q 38.1875 47.265625 38.1875 51.609375 
Q 38.1875 54.984375 36.296875 57.78125 
Q 34.421875 60.59375 31.390625 62.15625 
Q 28.375 63.71875 24.90625 63.71875 
Q 21.875 63.71875 18.796875 62.546875 
Q 15.71875 61.375 13.71875 59.046875 
Q 11.71875 56.734375 11.71875 53.609375 
Q 11.71875 48.921875 16.5 45.703125 
z
" id="Cmr10-56"/>
     </defs>
     <use transform="translate(0 0.390625)" xlink:href="#Cmr10-49"/>
     <use transform="translate(50 0.390625)" xlink:href="#Cmr10-49"/>
     <use transform="translate(100 0.390625)" xlink:href="#Cmr10-50"/>
     <use transform="translate(167.558594 0.390625)" xlink:href="#Cmsy10-163"/>
     <use transform="translate(262.802734 0.390625)" xlink:href="#Cmr10-49"/>
     <use transform="translate(312.802734 0.390625)" xlink:href="#Cmr10-49"/>
     <use transform="translate(362.802734 0.390625)" xlink:href="#Cmr10-50"/>
     <use transform="translate(430.361328 0.390625)" xlink:href="#Cmsy10-163"/>
     <use transform="translate(525.605469 0.390625)" xlink:href="#Cmr10-49"/>
     <use transform="translate(575.605469 0.390625)" xlink:href="#Cmr10-50"/>
     <use transform="translate(625.605469 0.390625)" xlink:href="#Cmr10-56"/>
    </g>
   </g>
  </g>
  <g id="axes_5">
   <g id="text_6">
    <!-- $ 56 \times 56 \times 128$ -->
    <g transform="translate(808.047041 76.14955)scale(0.13 -0.13)">
     <defs>
      <path d="M 8.6875 11.375 
Q 9.71875 8.453125 11.84375 6.046875 
Q 13.96875 3.65625 16.875 2.3125 
Q 19.78125 0.984375 22.90625 0.984375 
Q 30.125 0.984375 32.859375 6.59375 
Q 35.59375 12.203125 35.59375 20.21875 
Q 35.59375 23.6875 35.46875 26.046875 
Q 35.359375 28.421875 34.8125 30.609375 
Q 33.890625 34.125 31.5625 36.765625 
Q 29.25 39.40625 25.875 39.40625 
Q 22.515625 39.40625 20.09375 38.375 
Q 17.671875 37.359375 16.15625 35.984375 
Q 14.65625 34.625 13.484375 33.109375 
Q 12.3125 31.59375 12.015625 31.5 
L 10.890625 31.5 
Q 10.640625 31.5 10.265625 31.8125 
Q 9.90625 32.125 9.90625 32.421875 
L 9.90625 65.828125 
Q 9.90625 66.0625 10.21875 66.328125 
Q 10.546875 66.609375 10.890625 66.609375 
L 11.1875 66.609375 
Q 17.921875 63.375 25.484375 63.375 
Q 32.90625 63.375 39.796875 66.609375 
L 40.09375 66.609375 
Q 40.4375 66.609375 40.71875 66.359375 
Q 41.015625 66.109375 41.015625 65.828125 
L 41.015625 64.890625 
Q 41.015625 64.40625 40.828125 64.40625 
Q 37.40625 59.859375 32.25 57.3125 
Q 27.09375 54.78125 21.578125 54.78125 
Q 17.578125 54.78125 13.375 55.90625 
L 13.375 37.015625 
Q 16.703125 39.703125 19.3125 40.84375 
Q 21.921875 42 25.984375 42 
Q 31.5 42 35.859375 38.8125 
Q 40.234375 35.640625 42.578125 30.53125 
Q 44.921875 25.4375 44.921875 20.125 
Q 44.921875 14.109375 41.96875 8.984375 
Q 39.015625 3.859375 33.9375 0.828125 
Q 28.859375 -2.203125 22.90625 -2.203125 
Q 17.96875 -2.203125 13.84375 0.328125 
Q 9.71875 2.875 7.34375 7.171875 
Q 4.984375 11.46875 4.984375 16.3125 
Q 4.984375 18.5625 6.4375 19.96875 
Q 7.90625 21.390625 10.109375 21.390625 
Q 12.3125 21.390625 13.796875 19.9375 
Q 15.28125 18.5 15.28125 16.3125 
Q 15.28125 14.15625 13.796875 12.671875 
Q 12.3125 11.1875 10.109375 11.1875 
Q 9.765625 11.1875 9.328125 11.25 
Q 8.890625 11.328125 8.6875 11.375 
z
" id="Cmr10-53"/>
     </defs>
     <use transform="translate(0 0.390625)" xlink:href="#Cmr10-53"/>
     <use transform="translate(50 0.390625)" xlink:href="#Cmr10-54"/>
     <use transform="translate(117.558594 0.390625)" xlink:href="#Cmsy10-163"/>
     <use transform="translate(212.802734 0.390625)" xlink:href="#Cmr10-53"/>
     <use transform="translate(262.802734 0.390625)" xlink:href="#Cmr10-54"/>
     <use transform="translate(330.361328 0.390625)" xlink:href="#Cmsy10-163"/>
     <use transform="translate(425.605469 0.390625)" xlink:href="#Cmr10-49"/>
     <use transform="translate(475.605469 0.390625)" xlink:href="#Cmr10-50"/>
     <use transform="translate(525.605469 0.390625)" xlink:href="#Cmr10-56"/>
    </g>
   </g>
  </g>
  <g id="axes_6">
   <g id="text_7">
    <!-- $56 \times 56 \times 256$ -->
    <g transform="translate(69.178075 191.264844)scale(0.13 -0.13)">
     <use transform="translate(0 0.390625)" xlink:href="#Cmr10-53"/>
     <use transform="translate(50 0.390625)" xlink:href="#Cmr10-54"/>
     <use transform="translate(117.558594 0.390625)" xlink:href="#Cmsy10-163"/>
     <use transform="translate(212.802734 0.390625)" xlink:href="#Cmr10-53"/>
     <use transform="translate(262.802734 0.390625)" xlink:href="#Cmr10-54"/>
     <use transform="translate(330.361328 0.390625)" xlink:href="#Cmsy10-163"/>
     <use transform="translate(425.605469 0.390625)" xlink:href="#Cmr10-50"/>
     <use transform="translate(475.605469 0.390625)" xlink:href="#Cmr10-53"/>
     <use transform="translate(525.605469 0.390625)" xlink:href="#Cmr10-54"/>
    </g>
   </g>
  </g>
  <g id="axes_7">
   <g id="text_8">
    <!-- $28 \times 28 \times 256$ -->
    <g transform="translate(253.895317 191.264844)scale(0.13 -0.13)">
     <use transform="translate(0 0.390625)" xlink:href="#Cmr10-50"/>
     <use transform="translate(50 0.390625)" xlink:href="#Cmr10-56"/>
     <use transform="translate(117.558594 0.390625)" xlink:href="#Cmsy10-163"/>
     <use transform="translate(212.802734 0.390625)" xlink:href="#Cmr10-50"/>
     <use transform="translate(262.802734 0.390625)" xlink:href="#Cmr10-56"/>
     <use transform="translate(330.361328 0.390625)" xlink:href="#Cmsy10-163"/>
     <use transform="translate(425.605469 0.390625)" xlink:href="#Cmr10-50"/>
     <use transform="translate(475.605469 0.390625)" xlink:href="#Cmr10-53"/>
     <use transform="translate(525.605469 0.390625)" xlink:href="#Cmr10-54"/>
    </g>
   </g>
  </g>
  <g id="axes_8">
   <g id="text_9">
    <!-- $28 \times 28 \times 512$ -->
    <g transform="translate(438.612558 191.264844)scale(0.13 -0.13)">
     <use transform="translate(0 0.390625)" xlink:href="#Cmr10-50"/>
     <use transform="translate(50 0.390625)" xlink:href="#Cmr10-56"/>
     <use transform="translate(117.558594 0.390625)" xlink:href="#Cmsy10-163"/>
     <use transform="translate(212.802734 0.390625)" xlink:href="#Cmr10-50"/>
     <use transform="translate(262.802734 0.390625)" xlink:href="#Cmr10-56"/>
     <use transform="translate(330.361328 0.390625)" xlink:href="#Cmsy10-163"/>
     <use transform="translate(425.605469 0.390625)" xlink:href="#Cmr10-53"/>
     <use transform="translate(475.605469 0.390625)" xlink:href="#Cmr10-49"/>
     <use transform="translate(525.605469 0.390625)" xlink:href="#Cmr10-50"/>
    </g>
   </g>
  </g>
  <g id="axes_9">
   <g id="text_10">
    <!-- $14 \times 14 \times 512$ -->
    <g transform="translate(623.3298 191.264844)scale(0.13 -0.13)">
     <use transform="translate(0 0.390625)" xlink:href="#Cmr10-49"/>
     <use transform="translate(50 0.390625)" xlink:href="#Cmr10-52"/>
     <use transform="translate(117.558594 0.390625)" xlink:href="#Cmsy10-163"/>
     <use transform="translate(212.802734 0.390625)" xlink:href="#Cmr10-49"/>
     <use transform="translate(262.802734 0.390625)" xlink:href="#Cmr10-52"/>
     <use transform="translate(330.361328 0.390625)" xlink:href="#Cmsy10-163"/>
     <use transform="translate(425.605469 0.390625)" xlink:href="#Cmr10-53"/>
     <use transform="translate(475.605469 0.390625)" xlink:href="#Cmr10-49"/>
     <use transform="translate(525.605469 0.390625)" xlink:href="#Cmr10-50"/>
    </g>
   </g>
  </g>
  <g id="axes_10">
   <g id="text_11">
    <!-- $14 \times 14 \times 512$ -->
    <g transform="translate(808.047041 191.264844)scale(0.13 -0.13)">
     <use transform="translate(0 0.390625)" xlink:href="#Cmr10-49"/>
     <use transform="translate(50 0.390625)" xlink:href="#Cmr10-52"/>
     <use transform="translate(117.558594 0.390625)" xlink:href="#Cmsy10-163"/>
     <use transform="translate(212.802734 0.390625)" xlink:href="#Cmr10-49"/>
     <use transform="translate(262.802734 0.390625)" xlink:href="#Cmr10-52"/>
     <use transform="translate(330.361328 0.390625)" xlink:href="#Cmsy10-163"/>
     <use transform="translate(425.605469 0.390625)" xlink:href="#Cmr10-53"/>
     <use transform="translate(475.605469 0.390625)" xlink:href="#Cmr10-49"/>
     <use transform="translate(525.605469 0.390625)" xlink:href="#Cmr10-50"/>
    </g>
   </g>
  </g>
  <g id="axes_11">
   <g id="text_12">
    <!-- $7 \times 7 \times 512$ -->
    <g transform="translate(75.678075 306.380138)scale(0.13 -0.13)">
     <defs>
      <path d="M 17.390625 2.59375 
Q 17.390625 8.15625 18.359375 13.46875 
Q 19.34375 18.796875 21.21875 24 
Q 23.09375 29.203125 25.75 34.203125 
Q 28.421875 39.203125 31.59375 43.609375 
L 40.71875 56.296875 
L 29.296875 56.296875 
Q 11.53125 56.296875 10.984375 55.8125 
Q 9.671875 54.203125 8.5 46.578125 
L 5.609375 46.578125 
L 8.890625 67.578125 
L 11.8125 67.578125 
L 11.8125 67.28125 
Q 11.8125 65.484375 17.921875 64.9375 
Q 24.03125 64.40625 29.890625 64.40625 
L 48.484375 64.40625 
L 48.484375 61.8125 
Q 48.484375 61.71875 48.453125 61.671875 
Q 48.4375 61.625 48.390625 61.53125 
L 34.625 42.1875 
Q 29.546875 34.671875 28.265625 25.484375 
Q 27 16.3125 27 2.59375 
Q 27 0.640625 25.578125 -0.78125 
Q 24.171875 -2.203125 22.21875 -2.203125 
Q 20.21875 -2.203125 18.796875 -0.78125 
Q 17.390625 0.640625 17.390625 2.59375 
z
" id="Cmr10-55"/>
     </defs>
     <use transform="translate(0 0.421875)" xlink:href="#Cmr10-55"/>
     <use transform="translate(67.558594 0.421875)" xlink:href="#Cmsy10-163"/>
     <use transform="translate(162.802734 0.421875)" xlink:href="#Cmr10-55"/>
     <use transform="translate(230.361328 0.421875)" xlink:href="#Cmsy10-163"/>
     <use transform="translate(325.605469 0.421875)" xlink:href="#Cmr10-53"/>
     <use transform="translate(375.605469 0.421875)" xlink:href="#Cmr10-49"/>
     <use transform="translate(425.605469 0.421875)" xlink:href="#Cmr10-50"/>
    </g>
   </g>
  </g>
  <g id="axes_12">
   <g id="text_13">
    <!-- $\mathrm{FC}$ -->
    <g transform="translate(282.365317 299.10156)scale(0.13 -0.13)">
     <defs>
      <path d="M 3.078125 0 
L 3.078125 3.515625 
Q 13.375 3.515625 13.375 6.6875 
L 13.375 61.625 
Q 13.375 64.796875 3.078125 64.796875 
L 3.078125 68.3125 
L 58.203125 68.3125 
L 60.984375 45.40625 
L 58.109375 45.40625 
Q 57.421875 51.703125 56.265625 55.34375 
Q 55.125 58.984375 52.921875 61.0625 
Q 50.734375 63.140625 47.046875 63.96875 
Q 43.359375 64.796875 36.921875 64.796875 
L 27.78125 64.796875 
Q 25.984375 64.796875 24.96875 64.640625 
Q 23.96875 64.5 23.328125 63.796875 
Q 22.703125 63.09375 22.703125 61.625 
L 22.703125 35.890625 
L 29.78125 35.890625 
Q 34.90625 35.890625 37.296875 36.796875 
Q 39.703125 37.703125 40.59375 40.09375 
Q 41.5 42.484375 41.5 47.609375 
L 44.390625 47.609375 
L 44.390625 20.703125 
L 41.5 20.703125 
Q 41.5 25.828125 40.59375 28.21875 
Q 39.703125 30.609375 37.296875 31.515625 
Q 34.90625 32.421875 29.78125 32.421875 
L 22.703125 32.421875 
L 22.703125 6.6875 
Q 22.703125 3.515625 35.5 3.515625 
L 35.5 0 
z
" id="Cmr10-70"/>
      <path d="M 22.796875 10.6875 
Q 26.21875 6.34375 31.34375 3.828125 
Q 36.46875 1.3125 42 1.3125 
Q 46.625 1.3125 50.578125 3.140625 
Q 54.546875 4.984375 57.5 8.25 
Q 60.453125 11.53125 62.03125 15.671875 
Q 63.625 19.828125 63.625 24.421875 
Q 63.625 25.203125 64.5 25.203125 
L 65.71875 25.203125 
Q 66.5 25.203125 66.5 24.21875 
Q 66.5 19 64.5 14.140625 
Q 62.5 9.28125 58.828125 5.59375 
Q 55.171875 1.90625 50.40625 -0.140625 
Q 45.65625 -2.203125 40.484375 -2.203125 
Q 33.296875 -2.203125 26.875 0.703125 
Q 20.453125 3.609375 15.6875 8.65625 
Q 10.9375 13.71875 8.265625 20.359375 
Q 5.609375 27 5.609375 34.1875 
Q 5.609375 41.359375 8.265625 48 
Q 10.9375 54.640625 15.6875 59.71875 
Q 20.453125 64.796875 26.875 67.65625 
Q 33.296875 70.515625 40.484375 70.515625 
Q 45.609375 70.515625 50.296875 68.28125 
Q 54.984375 66.0625 58.5 62.015625 
L 64.3125 70.21875 
Q 64.890625 70.515625 64.984375 70.515625 
L 65.71875 70.515625 
Q 66.015625 70.515625 66.25 70.265625 
Q 66.5 70.015625 66.5 69.671875 
L 66.5 42.671875 
Q 66.5 41.796875 65.71875 41.796875 
L 63.921875 41.796875 
Q 62.984375 41.796875 62.984375 42.671875 
Q 62.984375 45.5625 61.828125 49.125 
Q 60.6875 52.6875 58.90625 55.875 
Q 57.125 59.078125 54.78125 61.53125 
Q 49.171875 67 41.890625 67 
Q 36.375 67 31.3125 64.5 
Q 26.265625 62.015625 22.796875 57.625 
Q 19.140625 52.9375 17.71875 46.953125 
Q 16.3125 40.96875 16.3125 34.1875 
Q 16.3125 27.390625 17.71875 21.375 
Q 19.140625 15.375 22.796875 10.6875 
z
" id="Cmr10-67"/>
     </defs>
     <use transform="translate(0 0.484375)" xlink:href="#Cmr10-70"/>
     <use transform="translate(65.185547 0.484375)" xlink:href="#Cmr10-67"/>
    </g>
    <!-- $4096$ -->
    <g transform="translate(278.335317 313.658716)scale(0.13 -0.13)">
     <defs>
      <path d="M 25 -2.203125 
Q 12.75 -2.203125 8.328125 7.875 
Q 3.90625 17.96875 3.90625 31.890625 
Q 3.90625 40.578125 5.484375 48.234375 
Q 7.078125 55.90625 11.78125 61.25 
Q 16.5 66.609375 25 66.609375 
Q 31.59375 66.609375 35.78125 63.375 
Q 39.984375 60.15625 42.1875 55.046875 
Q 44.390625 49.953125 45.1875 44.109375 
Q 46 38.28125 46 31.890625 
Q 46 23.296875 44.40625 15.796875 
Q 42.828125 8.296875 38.1875 3.046875 
Q 33.546875 -2.203125 25 -2.203125 
z
M 25 0.390625 
Q 30.5625 0.390625 33.296875 6.09375 
Q 36.03125 11.8125 36.671875 18.75 
Q 37.3125 25.6875 37.3125 33.5 
Q 37.3125 41.015625 36.671875 47.359375 
Q 36.03125 53.71875 33.3125 58.859375 
Q 30.609375 64.015625 25 64.015625 
Q 19.34375 64.015625 16.609375 58.828125 
Q 13.875 53.65625 13.234375 47.328125 
Q 12.59375 41.015625 12.59375 33.5 
Q 12.59375 27.9375 12.859375 23 
Q 13.140625 18.0625 14.3125 12.8125 
Q 15.484375 7.5625 18.09375 3.96875 
Q 20.703125 0.390625 25 0.390625 
z
" id="Cmr10-48"/>
      <path d="M 11.28125 4.203125 
Q 14.015625 0.984375 20.796875 0.984375 
Q 24.609375 0.984375 27.90625 3.5625 
Q 31.203125 6.15625 33.015625 9.90625 
Q 35.109375 14.15625 35.6875 18.96875 
Q 36.28125 23.78125 36.28125 30.90625 
Q 34.578125 26.859375 31.375 24.265625 
Q 28.171875 21.6875 24.03125 21.6875 
Q 18.21875 21.6875 13.640625 24.828125 
Q 9.078125 27.984375 6.640625 33.125 
Q 4.203125 38.28125 4.203125 44.09375 
Q 4.203125 50.09375 6.9375 55.296875 
Q 9.671875 60.5 14.5 63.546875 
Q 19.34375 66.609375 25.484375 66.609375 
Q 31.546875 66.609375 35.625 63.3125 
Q 39.703125 60.015625 41.84375 54.8125 
Q 44 49.609375 44.84375 43.796875 
Q 45.703125 37.984375 45.703125 32.328125 
Q 45.703125 24.609375 42.875 16.578125 
Q 40.046875 8.546875 34.40625 3.171875 
Q 28.765625 -2.203125 20.796875 -2.203125 
Q 14.890625 -2.203125 10.78125 0.578125 
Q 6.6875 3.375 6.6875 8.984375 
Q 6.6875 11.03125 8.078125 12.421875 
Q 9.46875 13.8125 11.53125 13.8125 
Q 13.53125 13.8125 14.921875 12.421875 
Q 16.3125 11.03125 16.3125 8.984375 
Q 16.3125 7.03125 14.890625 5.609375 
Q 13.484375 4.203125 11.53125 4.203125 
z
M 24.421875 24.3125 
Q 28.515625 24.3125 31.125 27.0625 
Q 33.734375 29.828125 34.90625 33.921875 
Q 36.078125 38.03125 36.078125 42.09375 
L 36.078125 44 
L 36.078125 44.390625 
Q 36.078125 51.90625 33.875 57.8125 
Q 31.6875 63.71875 25.484375 63.71875 
Q 21.53125 63.71875 19.0625 61.984375 
Q 16.609375 60.25 15.4375 57.375 
Q 14.265625 54.5 13.9375 51.21875 
Q 13.625 47.953125 13.625 44.09375 
Q 13.625 38.421875 14.15625 34.421875 
Q 14.703125 30.421875 17.09375 27.359375 
Q 19.484375 24.3125 24.421875 24.3125 
z
" id="Cmr10-57"/>
     </defs>
     <use transform="translate(0 0.390625)" xlink:href="#Cmr10-52"/>
     <use transform="translate(50 0.390625)" xlink:href="#Cmr10-48"/>
     <use transform="translate(100 0.390625)" xlink:href="#Cmr10-57"/>
     <use transform="translate(150 0.390625)" xlink:href="#Cmr10-54"/>
    </g>
   </g>
  </g>
  <g id="axes_13">
   <g id="text_14">
    <!-- $\mathrm{FC}$ -->
    <g transform="translate(467.082558 299.10156)scale(0.13 -0.13)">
     <use transform="translate(0 0.484375)" xlink:href="#Cmr10-70"/>
     <use transform="translate(65.185547 0.484375)" xlink:href="#Cmr10-67"/>
    </g>
    <!-- $4096$ -->
    <g transform="translate(463.052558 313.658716)scale(0.13 -0.13)">
     <use transform="translate(0 0.390625)" xlink:href="#Cmr10-52"/>
     <use transform="translate(50 0.390625)" xlink:href="#Cmr10-48"/>
     <use transform="translate(100 0.390625)" xlink:href="#Cmr10-57"/>
     <use transform="translate(150 0.390625)" xlink:href="#Cmr10-54"/>
    </g>
   </g>
  </g>
  <g id="axes_14">
   <g id="text_15">
    <!-- $\mathrm{Softmax}$ -->
    <g transform="translate(637.3048 299.10156)scale(0.13 -0.13)">
     <defs>
      <path d="M 5.609375 -1.421875 
L 5.609375 21.921875 
Q 5.609375 22.703125 6.5 22.703125 
L 7.71875 22.703125 
Q 8.015625 22.703125 8.25 22.453125 
Q 8.5 22.21875 8.5 21.921875 
Q 8.5 12.109375 14.578125 6.703125 
Q 20.65625 1.3125 30.515625 1.3125 
Q 33.984375 1.3125 36.90625 3.3125 
Q 39.84375 5.328125 41.46875 8.5625 
Q 43.109375 11.8125 43.109375 15.28125 
Q 43.109375 18.3125 41.890625 21.171875 
Q 40.671875 24.03125 38.375 26.125 
Q 36.078125 28.21875 33.203125 28.90625 
L 20.21875 32.078125 
Q 13.765625 33.796875 9.6875 39.09375 
Q 5.609375 44.390625 5.609375 50.984375 
Q 5.609375 56.15625 8.25 60.6875 
Q 10.890625 65.234375 15.359375 67.875 
Q 19.828125 70.515625 25 70.515625 
Q 35.015625 70.515625 40.921875 63.71875 
L 45.015625 70.21875 
Q 45.3125 70.515625 45.703125 70.515625 
L 46.390625 70.515625 
Q 46.6875 70.515625 46.953125 70.28125 
Q 47.21875 70.0625 47.21875 69.671875 
L 47.21875 46.484375 
Q 47.21875 45.609375 46.390625 45.609375 
L 45.21875 45.609375 
Q 44.28125 45.609375 44.28125 46.484375 
Q 44.28125 49.03125 43.421875 52.046875 
Q 42.578125 55.078125 41.0625 57.859375 
Q 39.546875 60.640625 37.796875 62.40625 
Q 32.953125 67.28125 25 67.28125 
Q 21.578125 67.28125 18.703125 65.546875 
Q 15.828125 63.8125 14.109375 60.828125 
Q 12.40625 57.859375 12.40625 54.59375 
Q 12.40625 50.296875 15.0625 46.796875 
Q 17.71875 43.3125 22.015625 42.1875 
L 35.015625 39.015625 
Q 38.234375 38.234375 41.09375 36.203125 
Q 43.953125 34.1875 45.84375 31.5 
Q 47.75 28.8125 48.828125 25.515625 
Q 49.90625 22.21875 49.90625 18.703125 
Q 49.90625 13.28125 47.40625 8.46875 
Q 44.921875 3.65625 40.40625 0.71875 
Q 35.890625 -2.203125 30.515625 -2.203125 
Q 27.203125 -2.203125 23.734375 -1.46875 
Q 20.265625 -0.734375 17.328125 0.78125 
Q 14.40625 2.296875 12.015625 4.6875 
L 7.8125 -1.90625 
Q 7.515625 -2.203125 7.078125 -2.203125 
L 6.5 -2.203125 
Q 5.609375 -2.203125 5.609375 -1.421875 
z
" id="Cmr10-83"/>
      <path d="M 25 -1.125 
Q 19 -1.125 13.859375 1.921875 
Q 8.734375 4.984375 5.75 10.109375 
Q 2.78125 15.234375 2.78125 21.296875 
Q 2.78125 25.875 4.421875 30.125 
Q 6.0625 34.375 9.109375 37.71875 
Q 12.15625 41.0625 16.203125 42.9375 
Q 20.265625 44.828125 25 44.828125 
Q 31.15625 44.828125 36.203125 41.578125 
Q 41.265625 38.328125 44.1875 32.875 
Q 47.125 27.4375 47.125 21.296875 
Q 47.125 15.28125 44.140625 10.125 
Q 41.15625 4.984375 36.046875 1.921875 
Q 30.953125 -1.125 25 -1.125 
z
M 25 1.8125 
Q 33.015625 1.8125 35.6875 7.609375 
Q 38.375 13.421875 38.375 22.40625 
Q 38.375 27.4375 37.84375 30.734375 
Q 37.3125 34.03125 35.5 36.71875 
Q 34.375 38.375 32.640625 39.625 
Q 30.90625 40.875 28.96875 41.53125 
Q 27.046875 42.1875 25 42.1875 
Q 21.875 42.1875 19.0625 40.765625 
Q 16.265625 39.359375 14.40625 36.71875 
Q 12.546875 33.890625 12.03125 30.484375 
Q 11.53125 27.09375 11.53125 22.40625 
Q 11.53125 16.796875 12.5 12.328125 
Q 13.484375 7.859375 16.4375 4.828125 
Q 19.390625 1.8125 25 1.8125 
z
" id="Cmr10-111"/>
      <path d="M 3.21875 0 
L 3.21875 3.515625 
Q 6.59375 3.515625 8.78125 4.046875 
Q 10.984375 4.59375 10.984375 6.6875 
L 10.984375 39.59375 
L 3.328125 39.59375 
L 3.328125 43.109375 
L 10.984375 43.109375 
L 10.984375 55.078125 
Q 10.984375 58.296875 12.328125 61.109375 
Q 13.671875 63.921875 15.9375 66.015625 
Q 18.21875 68.109375 21.171875 69.3125 
Q 24.125 70.515625 27.296875 70.515625 
Q 30.671875 70.515625 33.375 68.5 
Q 36.078125 66.5 36.078125 63.1875 
Q 36.078125 61.28125 34.78125 59.984375 
Q 33.5 58.6875 31.59375 58.6875 
Q 29.6875 58.6875 28.34375 59.984375 
Q 27 61.28125 27 63.1875 
Q 27 66.3125 29.6875 67.390625 
Q 28.078125 67.921875 26.8125 67.921875 
Q 23.875 67.921875 21.796875 65.84375 
Q 19.734375 63.765625 18.703125 60.78125 
Q 17.671875 57.8125 17.671875 54.890625 
L 17.671875 43.109375 
L 29.203125 43.109375 
L 29.203125 39.59375 
L 18.015625 39.59375 
L 18.015625 6.6875 
Q 18.015625 4.640625 20.9375 4.078125 
Q 23.875 3.515625 27.6875 3.515625 
L 27.6875 0 
z
" id="Cmr10-102"/>
      <path d="M 10.203125 12.015625 
L 10.203125 39.59375 
L 1.90625 39.59375 
L 1.90625 42.1875 
Q 8.453125 42.1875 11.515625 48.28125 
Q 14.59375 54.390625 14.59375 61.53125 
L 17.484375 61.53125 
L 17.484375 43.109375 
L 31.59375 43.109375 
L 31.59375 39.59375 
L 17.484375 39.59375 
L 17.484375 12.203125 
Q 17.484375 8.0625 18.875 4.9375 
Q 20.265625 1.8125 23.875 1.8125 
Q 27.296875 1.8125 28.8125 5.109375 
Q 30.328125 8.40625 30.328125 12.203125 
L 30.328125 18.109375 
L 33.203125 18.109375 
L 33.203125 12.015625 
Q 33.203125 8.890625 32.046875 5.828125 
Q 30.90625 2.78125 28.65625 0.828125 
Q 26.421875 -1.125 23.1875 -1.125 
Q 17.1875 -1.125 13.6875 2.46875 
Q 10.203125 6.0625 10.203125 12.015625 
z
" id="Cmr10-116"/>
      <path d="M 2.984375 0 
L 2.984375 3.515625 
Q 6.390625 3.515625 8.59375 4.046875 
Q 10.796875 4.59375 10.796875 6.6875 
L 10.796875 33.984375 
Q 10.796875 36.671875 9.984375 37.859375 
Q 9.1875 39.0625 7.671875 39.328125 
Q 6.15625 39.59375 2.984375 39.59375 
L 2.984375 43.109375 
L 17.484375 44.1875 
L 17.484375 34.421875 
Q 19.484375 38.71875 23.40625 41.453125 
Q 27.34375 44.1875 31.984375 44.1875 
Q 43.5 44.1875 45.515625 34.8125 
Q 47.515625 39.015625 51.359375 41.59375 
Q 55.21875 44.1875 59.8125 44.1875 
Q 64.359375 44.1875 67.453125 42.71875 
Q 70.5625 41.265625 72.125 38.25 
Q 73.6875 35.25 73.6875 30.71875 
L 73.6875 6.6875 
Q 73.6875 4.59375 75.90625 4.046875 
Q 78.125 3.515625 81.5 3.515625 
L 81.5 0 
L 58.59375 0 
L 58.59375 3.515625 
Q 62.015625 3.515625 64.203125 4.046875 
Q 66.40625 4.59375 66.40625 6.6875 
L 66.40625 30.421875 
Q 66.40625 35.453125 64.984375 38.53125 
Q 63.578125 41.609375 59.1875 41.609375 
Q 53.421875 41.609375 49.65625 36.96875 
Q 45.90625 32.328125 45.90625 26.421875 
L 45.90625 6.6875 
Q 45.90625 4.59375 48.09375 4.046875 
Q 50.296875 3.515625 53.71875 3.515625 
L 53.71875 0 
L 30.8125 0 
L 30.8125 3.515625 
Q 34.234375 3.515625 36.421875 4.046875 
Q 38.625 4.59375 38.625 6.6875 
L 38.625 30.421875 
Q 38.625 35.296875 37.203125 38.453125 
Q 35.796875 41.609375 31.390625 41.609375 
Q 25.59375 41.609375 21.84375 36.96875 
Q 18.109375 32.328125 18.109375 26.421875 
L 18.109375 6.6875 
Q 18.109375 4.59375 20.3125 4.046875 
Q 22.515625 3.515625 25.875 3.515625 
L 25.875 0 
z
" id="Cmr10-109"/>
      <path d="M 4 9.8125 
Q 4 15.765625 8.6875 19.5 
Q 13.375 23.25 19.9375 24.78125 
Q 26.515625 26.3125 32.421875 26.3125 
L 32.421875 30.421875 
Q 32.421875 33.296875 31.15625 36 
Q 29.890625 38.71875 27.484375 40.453125 
Q 25.09375 42.1875 22.21875 42.1875 
Q 15.578125 42.1875 12.109375 39.203125 
Q 14.015625 39.203125 15.25 37.765625 
Q 16.5 36.328125 16.5 34.421875 
Q 16.5 32.421875 15.078125 31 
Q 13.671875 29.59375 11.71875 29.59375 
Q 9.71875 29.59375 8.296875 31 
Q 6.890625 32.421875 6.890625 34.421875 
Q 6.890625 39.703125 11.671875 42.265625 
Q 16.453125 44.828125 22.21875 44.828125 
Q 26.265625 44.828125 30.359375 43.09375 
Q 34.46875 41.359375 37.078125 38.125 
Q 39.703125 34.90625 39.703125 30.609375 
L 39.703125 8.109375 
Q 39.703125 6.15625 40.53125 4.515625 
Q 41.359375 2.875 43.109375 2.875 
Q 44.78125 2.875 45.578125 4.53125 
Q 46.390625 6.203125 46.390625 8.109375 
L 46.390625 14.5 
L 49.3125 14.5 
L 49.3125 8.109375 
Q 49.3125 5.859375 48.140625 3.828125 
Q 46.96875 1.8125 44.984375 0.609375 
Q 43.015625 -0.59375 40.71875 -0.59375 
Q 37.796875 -0.59375 35.671875 1.671875 
Q 33.546875 3.953125 33.296875 7.078125 
Q 31.453125 3.328125 27.828125 1.09375 
Q 24.21875 -1.125 20.125 -1.125 
Q 16.3125 -1.125 12.625 0 
Q 8.9375 1.125 6.46875 3.53125 
Q 4 5.953125 4 9.8125 
z
M 12.109375 9.8125 
Q 12.109375 6.296875 14.6875 3.90625 
Q 17.28125 1.515625 20.796875 1.515625 
Q 24.03125 1.515625 26.65625 3.125 
Q 29.296875 4.734375 30.859375 7.515625 
Q 32.421875 10.296875 32.421875 13.375 
L 32.421875 23.78125 
Q 27.875 23.78125 23.109375 22.28125 
Q 18.359375 20.796875 15.234375 17.625 
Q 12.109375 14.453125 12.109375 9.8125 
z
" id="Cmr10-97"/>
      <path d="M 1.21875 0 
L 1.21875 3.515625 
Q 5.03125 3.515625 8.390625 5 
Q 11.765625 6.5 14.109375 9.421875 
L 23.1875 21 
L 11.375 36.375 
Q 9.625 38.578125 7.546875 39.078125 
Q 5.46875 39.59375 1.703125 39.59375 
L 1.703125 43.109375 
L 22.515625 43.109375 
L 22.515625 39.59375 
Q 21.1875 39.59375 20.03125 39 
Q 18.890625 38.421875 18.890625 37.3125 
Q 18.890625 36.921875 19.1875 36.375 
L 27.203125 25.984375 
L 33.203125 33.6875 
Q 34.421875 35.15625 34.421875 36.625 
Q 34.421875 37.84375 33.609375 38.71875 
Q 32.8125 39.59375 31.5 39.59375 
L 31.5 43.109375 
L 49.90625 43.109375 
L 49.90625 39.59375 
Q 46.046875 39.59375 42.65625 38.109375 
Q 39.265625 36.625 36.921875 33.6875 
L 29 23.578125 
L 41.796875 6.6875 
Q 43.703125 4.5 45.75 4 
Q 47.796875 3.515625 51.609375 3.515625 
L 51.609375 0 
L 30.8125 0 
L 30.8125 3.515625 
Q 32.03125 3.515625 33.15625 4.09375 
Q 34.28125 4.6875 34.28125 5.8125 
Q 34.28125 6.25 33.984375 6.6875 
L 25 18.609375 
L 17.828125 9.421875 
Q 16.703125 8.15625 16.703125 6.5 
Q 16.703125 5.28125 17.53125 4.390625 
Q 18.359375 3.515625 19.484375 3.515625 
L 19.484375 0 
z
" id="Cmr10-120"/>
     </defs>
     <use transform="translate(0 0.484375)" xlink:href="#Cmr10-83"/>
     <use transform="translate(55.517578 0.484375)" xlink:href="#Cmr10-111"/>
     <use transform="translate(105.517578 0.484375)" xlink:href="#Cmr10-102"/>
     <use transform="translate(136.035156 0.484375)" xlink:href="#Cmr10-116"/>
     <use transform="translate(174.853516 0.484375)" xlink:href="#Cmr10-109"/>
     <use transform="translate(258.154297 0.484375)" xlink:href="#Cmr10-97"/>
     <use transform="translate(308.154297 0.484375)" xlink:href="#Cmr10-120"/>
    </g>
    <!-- $1000$ -->
    <g transform="translate(647.7698 313.658716)scale(0.13 -0.13)">
     <use transform="translate(0 0.390625)" xlink:href="#Cmr10-49"/>
     <use transform="translate(50 0.390625)" xlink:href="#Cmr10-48"/>
     <use transform="translate(100 0.390625)" xlink:href="#Cmr10-48"/>
     <use transform="translate(150 0.390625)" xlink:href="#Cmr10-48"/>
    </g>
   </g>
  </g>
  <g id="axes_15">
   <g id="patch_3">
    <path d="M 226.645065 72.562362 
Q 187.375518 72.562362 146.987937 72.562362 
" style="fill:none;stroke:#000000;stroke-linecap:round;"/>
    <path d="M 222.645065 70.562362 
L 226.645065 72.562362 
L 222.645065 74.562362 
" style="fill:none;stroke:#000000;stroke-linecap:round;"/>
   </g>
   <g id="text_16">
    <!-- $[\mathrm{CONV}$ $64]$ -->
    <g transform="translate(159.976501 86.812362)scale(0.11 -0.11)">
     <defs>
      <path d="M 11.8125 -25 
L 11.8125 75 
L 25.484375 75 
L 25.484375 71 
L 15.828125 71 
L 15.828125 -21 
L 25.484375 -21 
L 25.484375 -25 
z
" id="Cmr10-91"/>
      <path d="M 38.921875 -2.203125 
Q 29.390625 -2.203125 21.796875 2.84375 
Q 14.203125 7.90625 9.90625 16.28125 
Q 5.609375 24.65625 5.609375 33.890625 
Q 5.609375 40.71875 8.078125 47.40625 
Q 10.546875 54.109375 14.96875 59.28125 
Q 19.390625 64.453125 25.578125 67.484375 
Q 31.78125 70.515625 38.921875 70.515625 
Q 46 70.515625 52.21875 67.453125 
Q 58.453125 64.40625 62.890625 59.171875 
Q 67.328125 53.953125 69.71875 47.453125 
Q 72.125 40.96875 72.125 33.890625 
Q 72.125 24.65625 67.828125 16.28125 
Q 63.53125 7.90625 55.90625 2.84375 
Q 48.296875 -2.203125 38.921875 -2.203125 
z
M 22.3125 10.796875 
Q 25.25 6.203125 29.546875 3.484375 
Q 33.84375 0.78125 38.921875 0.78125 
Q 42.1875 0.78125 45.328125 2.09375 
Q 48.484375 3.421875 51.046875 5.71875 
Q 53.609375 8.015625 55.421875 10.796875 
Q 61.375 19.78125 61.375 35.5 
Q 61.375 49.90625 55.421875 58.296875 
Q 52.484375 62.5 48.109375 65.03125 
Q 43.75 67.578125 38.921875 67.578125 
Q 34.03125 67.578125 29.640625 65.03125 
Q 25.25 62.5 22.3125 58.296875 
Q 19.96875 55.03125 18.671875 51.34375 
Q 17.390625 47.65625 16.84375 43.703125 
Q 16.3125 39.75 16.3125 35.5 
Q 16.3125 30.953125 16.8125 26.625 
Q 17.328125 22.3125 18.71875 18.15625 
Q 20.125 14.015625 22.3125 10.796875 
z
" id="Cmr10-79"/>
      <path d="M 3.078125 0 
L 3.078125 3.515625 
Q 13.375 3.515625 13.375 9.421875 
L 13.375 64.203125 
Q 10.109375 64.796875 3.078125 64.796875 
L 3.078125 68.3125 
L 22.21875 68.3125 
Q 22.703125 68.3125 22.90625 67.921875 
L 58.296875 15.828125 
L 58.296875 58.890625 
Q 58.296875 64.796875 48 64.796875 
L 48 68.3125 
L 71.78125 68.3125 
L 71.78125 64.796875 
Q 61.53125 64.796875 61.53125 58.890625 
L 61.53125 0.875 
Q 61.53125 0.59375 61.140625 0.296875 
Q 60.75 0 60.5 0 
L 59.28125 0 
Q 58.796875 0 58.59375 0.390625 
L 16.609375 62.203125 
L 16.609375 9.421875 
Q 16.609375 3.515625 26.90625 3.515625 
L 26.90625 0 
z
" id="Cmr10-78"/>
      <path d="M 35.203125 -1.125 
L 11.625 61.625 
Q 10.75 63.71875 8.25 64.25 
Q 5.765625 64.796875 1.90625 64.796875 
L 1.90625 68.3125 
L 29.390625 68.3125 
L 29.390625 64.796875 
Q 21.09375 64.796875 21.09375 62.203125 
Q 21.140625 62.0625 21.15625 61.9375 
Q 21.1875 61.8125 21.1875 61.625 
L 40.375 10.59375 
L 58.5 58.890625 
Q 58.6875 59.28125 58.6875 60.109375 
Q 58.6875 62.546875 56.4375 63.671875 
Q 54.203125 64.796875 51.421875 64.796875 
L 51.421875 68.3125 
L 73 68.3125 
L 73 64.796875 
Q 69.234375 64.796875 66.375 63.40625 
Q 63.53125 62.015625 62.3125 58.890625 
L 39.703125 -1.125 
Q 39.40625 -2.203125 38.09375 -2.203125 
L 36.8125 -2.203125 
Q 35.5 -2.203125 35.203125 -1.125 
z
" id="Cmr10-86"/>
      <path id="DejaVuSans-32"/>
      <path d="M 2.203125 -25 
L 2.203125 -21 
L 11.921875 -21 
L 11.921875 71 
L 2.203125 71 
L 2.203125 75 
L 15.921875 75 
L 15.921875 -25 
z
" id="Cmr10-93"/>
     </defs>
     <use xlink:href="#Cmr10-91"/>
     <use transform="translate(27.685547 0)" xlink:href="#Cmr10-67"/>
     <use transform="translate(99.902344 0)" xlink:href="#Cmr10-79"/>
     <use transform="translate(177.587891 0)" xlink:href="#Cmr10-78"/>
     <use transform="translate(252.587891 0)" xlink:href="#Cmr10-86"/>
     <use transform="translate(327.587891 0)" xlink:href="#DejaVuSans-32"/>
     <use transform="translate(359.375 0)" xlink:href="#Cmr10-54"/>
     <use transform="translate(409.375 0)" xlink:href="#Cmr10-52"/>
     <use transform="translate(459.375 0)" xlink:href="#Cmr10-93"/>
    </g>
    <!-- $\times 2$ -->
    <g transform="translate(179.776501 99.5923)scale(0.11 -0.11)">
     <use transform="translate(0 0.390625)" xlink:href="#Cmsy10-163"/>
     <use transform="translate(77.685547 0.390625)" xlink:href="#Cmr10-50"/>
    </g>
   </g>
   <g id="patch_4">
    <path d="M 411.359053 72.562362 
Q 383.694079 72.562362 354.91107 72.562362 
" style="fill:none;stroke:#000000;stroke-linecap:round;"/>
    <path d="M 407.359053 70.562362 
L 411.359053 72.562362 
L 407.359053 74.562362 
" style="fill:none;stroke:#000000;stroke-linecap:round;"/>
   </g>
   <g id="text_17">
    <!-- $\mathrm{POOL}$ -->
    <g transform="translate(367.405062 86.920643)scale(0.11 -0.11)">
     <defs>
      <path d="M 3.328125 0 
L 3.328125 3.515625 
Q 13.625 3.515625 13.625 6.6875 
L 13.625 61.625 
Q 13.625 64.796875 3.328125 64.796875 
L 3.328125 68.3125 
L 38.921875 68.3125 
Q 44.390625 68.3125 49.859375 66.0625 
Q 55.328125 63.8125 58.859375 59.515625 
Q 62.40625 55.21875 62.40625 49.515625 
Q 62.40625 43.953125 58.84375 39.75 
Q 55.28125 35.546875 49.859375 33.375 
Q 44.4375 31.203125 38.921875 31.203125 
L 22.90625 31.203125 
L 22.90625 6.6875 
Q 22.90625 3.515625 33.203125 3.515625 
L 33.203125 0 
z
M 22.609375 34.1875 
L 36.1875 34.1875 
Q 41.703125 34.1875 45.109375 35.765625 
Q 48.53125 37.359375 50.109375 40.703125 
Q 51.703125 44.046875 51.703125 49.515625 
Q 51.703125 57.671875 48.109375 61.234375 
Q 44.53125 64.796875 36.1875 64.796875 
L 27.6875 64.796875 
Q 25.875 64.796875 24.875 64.640625 
Q 23.875 64.5 23.234375 63.796875 
Q 22.609375 63.09375 22.609375 61.625 
z
" id="Cmr10-80"/>
      <path d="M 3.078125 0 
L 3.078125 3.515625 
Q 13.375 3.515625 13.375 6.6875 
L 13.375 61.625 
Q 13.375 64.796875 3.078125 64.796875 
L 3.078125 68.3125 
L 35.5 68.3125 
L 35.5 64.796875 
Q 22.703125 64.796875 22.703125 61.625 
L 22.703125 6.6875 
Q 22.703125 4.546875 23.921875 4.03125 
Q 25.140625 3.515625 27.78125 3.515625 
L 35.5 3.515625 
Q 42.96875 3.515625 47.015625 6.25 
Q 51.078125 8.984375 52.75 13.6875 
Q 54.4375 18.40625 55.328125 26.21875 
L 58.203125 26.21875 
L 55.421875 0 
z
" id="Cmr10-76"/>
     </defs>
     <use transform="translate(0 0.484375)" xlink:href="#Cmr10-80"/>
     <use transform="translate(68.017578 0.484375)" xlink:href="#Cmr10-79"/>
     <use transform="translate(145.703125 0.484375)" xlink:href="#Cmr10-79"/>
     <use transform="translate(223.388672 0.484375)" xlink:href="#Cmr10-76"/>
    </g>
   </g>
   <g id="patch_5">
    <path d="M 596.076294 72.562362 
Q 568.41132 72.562362 539.628312 72.562362 
" style="fill:none;stroke:#000000;stroke-linecap:round;"/>
    <path d="M 592.076294 70.562362 
L 596.076294 72.562362 
L 592.076294 74.562362 
" style="fill:none;stroke:#000000;stroke-linecap:round;"/>
   </g>
   <g id="text_18">
    <!-- $[\mathrm{CONV}$ $128]$ -->
    <g transform="translate(538.262303 86.812362)scale(0.11 -0.11)">
     <use xlink:href="#Cmr10-91"/>
     <use transform="translate(27.685547 0)" xlink:href="#Cmr10-67"/>
     <use transform="translate(99.902344 0)" xlink:href="#Cmr10-79"/>
     <use transform="translate(177.587891 0)" xlink:href="#Cmr10-78"/>
     <use transform="translate(252.587891 0)" xlink:href="#Cmr10-86"/>
     <use transform="translate(327.587891 0)" xlink:href="#DejaVuSans-32"/>
     <use transform="translate(359.375 0)" xlink:href="#Cmr10-49"/>
     <use transform="translate(409.375 0)" xlink:href="#Cmr10-50"/>
     <use transform="translate(459.375 0)" xlink:href="#Cmr10-56"/>
     <use transform="translate(509.375 0)" xlink:href="#Cmr10-93"/>
    </g>
    <!-- $\times 2$ -->
    <g transform="translate(560.812303 99.5923)scale(0.11 -0.11)">
     <use transform="translate(0 0.390625)" xlink:href="#Cmsy10-163"/>
     <use transform="translate(77.685547 0.390625)" xlink:href="#Cmr10-50"/>
    </g>
   </g>
   <g id="patch_6">
    <path d="M 780.793536 72.562362 
Q 753.128561 72.562362 724.345553 72.562362 
" style="fill:none;stroke:#000000;stroke-linecap:round;"/>
    <path d="M 776.793536 70.562362 
L 780.793536 72.562362 
L 776.793536 74.562362 
" style="fill:none;stroke:#000000;stroke-linecap:round;"/>
   </g>
   <g id="text_19">
    <!-- $\mathrm{POOL}$ -->
    <g transform="translate(736.839544 86.920643)scale(0.11 -0.11)">
     <use transform="translate(0 0.484375)" xlink:href="#Cmr10-80"/>
     <use transform="translate(68.017578 0.484375)" xlink:href="#Cmr10-79"/>
     <use transform="translate(145.703125 0.484375)" xlink:href="#Cmr10-79"/>
     <use transform="translate(223.388672 0.484375)" xlink:href="#Cmr10-76"/>
    </g>
   </g>
   <g id="patch_7">
    <path d="M 57.322371 187.677656 
Q 37.349017 187.677656 16.257629 187.677656 
" style="fill:none;stroke:#000000;stroke-linecap:round;"/>
    <path d="M 53.322371 185.677656 
L 57.322371 187.677656 
L 53.322371 189.677656 
" style="fill:none;stroke:#000000;stroke-linecap:round;"/>
   </g>
   <g id="text_20">
    <!-- $[\mathrm{CONV}$ $256]$ -->
    <g transform="translate(7.2 201.927656)scale(0.11 -0.11)">
     <use xlink:href="#Cmr10-91"/>
     <use transform="translate(27.685547 0)" xlink:href="#Cmr10-67"/>
     <use transform="translate(99.902344 0)" xlink:href="#Cmr10-79"/>
     <use transform="translate(177.587891 0)" xlink:href="#Cmr10-78"/>
     <use transform="translate(252.587891 0)" xlink:href="#Cmr10-86"/>
     <use transform="translate(327.587891 0)" xlink:href="#DejaVuSans-32"/>
     <use transform="translate(359.375 0)" xlink:href="#Cmr10-50"/>
     <use transform="translate(409.375 0)" xlink:href="#Cmr10-53"/>
     <use transform="translate(459.375 0)" xlink:href="#Cmr10-54"/>
     <use transform="translate(509.375 0)" xlink:href="#Cmr10-93"/>
    </g>
    <!-- $\times 3$ -->
    <g transform="translate(29.75 214.707594)scale(0.11 -0.11)">
     <use transform="translate(0 0.390625)" xlink:href="#Cmsy10-163"/>
     <use transform="translate(77.685547 0.390625)" xlink:href="#Cmr10-51"/>
    </g>
   </g>
   <g id="patch_8">
    <path d="M 226.641811 187.677656 
Q 198.976837 187.677656 170.193829 187.677656 
" style="fill:none;stroke:#000000;stroke-linecap:round;"/>
    <path d="M 222.641811 185.677656 
L 226.641811 187.677656 
L 222.641811 189.677656 
" style="fill:none;stroke:#000000;stroke-linecap:round;"/>
   </g>
   <g id="text_21">
    <!-- $\mathrm{POOL}$ -->
    <g transform="translate(182.68782 202.035937)scale(0.11 -0.11)">
     <use transform="translate(0 0.484375)" xlink:href="#Cmr10-80"/>
     <use transform="translate(68.017578 0.484375)" xlink:href="#Cmr10-79"/>
     <use transform="translate(145.703125 0.484375)" xlink:href="#Cmr10-79"/>
     <use transform="translate(223.388672 0.484375)" xlink:href="#Cmr10-76"/>
    </g>
   </g>
   <g id="patch_9">
    <path d="M 411.359053 187.677656 
Q 383.694079 187.677656 354.91107 187.677656 
" style="fill:none;stroke:#000000;stroke-linecap:round;"/>
    <path d="M 407.359053 185.677656 
L 411.359053 187.677656 
L 407.359053 189.677656 
" style="fill:none;stroke:#000000;stroke-linecap:round;"/>
   </g>
   <g id="text_22">
    <!-- $[\mathrm{CONV}$ $512]$ -->
    <g transform="translate(353.545062 201.927656)scale(0.11 -0.11)">
     <use xlink:href="#Cmr10-91"/>
     <use transform="translate(27.685547 0)" xlink:href="#Cmr10-67"/>
     <use transform="translate(99.902344 0)" xlink:href="#Cmr10-79"/>
     <use transform="translate(177.587891 0)" xlink:href="#Cmr10-78"/>
     <use transform="translate(252.587891 0)" xlink:href="#Cmr10-86"/>
     <use transform="translate(327.587891 0)" xlink:href="#DejaVuSans-32"/>
     <use transform="translate(359.375 0)" xlink:href="#Cmr10-53"/>
     <use transform="translate(409.375 0)" xlink:href="#Cmr10-49"/>
     <use transform="translate(459.375 0)" xlink:href="#Cmr10-50"/>
     <use transform="translate(509.375 0)" xlink:href="#Cmr10-93"/>
    </g>
    <!-- $\times 3$ -->
    <g transform="translate(376.095062 214.707594)scale(0.11 -0.11)">
     <use transform="translate(0 0.390625)" xlink:href="#Cmsy10-163"/>
     <use transform="translate(77.685547 0.390625)" xlink:href="#Cmr10-51"/>
    </g>
   </g>
   <g id="patch_10">
    <path d="M 596.076294 187.677656 
Q 568.41132 187.677656 539.628312 187.677656 
" style="fill:none;stroke:#000000;stroke-linecap:round;"/>
    <path d="M 592.076294 185.677656 
L 596.076294 187.677656 
L 592.076294 189.677656 
" style="fill:none;stroke:#000000;stroke-linecap:round;"/>
   </g>
   <g id="text_23">
    <!-- $\mathrm{POOL}$ -->
    <g transform="translate(552.122303 202.035937)scale(0.11 -0.11)">
     <use transform="translate(0 0.484375)" xlink:href="#Cmr10-80"/>
     <use transform="translate(68.017578 0.484375)" xlink:href="#Cmr10-79"/>
     <use transform="translate(145.703125 0.484375)" xlink:href="#Cmr10-79"/>
     <use transform="translate(223.388672 0.484375)" xlink:href="#Cmr10-76"/>
    </g>
   </g>
   <g id="patch_11">
    <path d="M 780.793536 187.677656 
Q 753.128561 187.677656 724.345553 187.677656 
" style="fill:none;stroke:#000000;stroke-linecap:round;"/>
    <path d="M 776.793536 185.677656 
L 780.793536 187.677656 
L 776.793536 189.677656 
" style="fill:none;stroke:#000000;stroke-linecap:round;"/>
   </g>
   <g id="text_24">
    <!-- $[\mathrm{CONV}$ $512]$ -->
    <g transform="translate(722.979544 201.927656)scale(0.11 -0.11)">
     <use xlink:href="#Cmr10-91"/>
     <use transform="translate(27.685547 0)" xlink:href="#Cmr10-67"/>
     <use transform="translate(99.902344 0)" xlink:href="#Cmr10-79"/>
     <use transform="translate(177.587891 0)" xlink:href="#Cmr10-78"/>
     <use transform="translate(252.587891 0)" xlink:href="#Cmr10-86"/>
     <use transform="translate(327.587891 0)" xlink:href="#DejaVuSans-32"/>
     <use transform="translate(359.375 0)" xlink:href="#Cmr10-53"/>
     <use transform="translate(409.375 0)" xlink:href="#Cmr10-49"/>
     <use transform="translate(459.375 0)" xlink:href="#Cmr10-50"/>
     <use transform="translate(509.375 0)" xlink:href="#Cmr10-93"/>
    </g>
    <!-- $\times 3$ -->
    <g transform="translate(745.529544 214.707594)scale(0.11 -0.11)">
     <use transform="translate(0 0.390625)" xlink:href="#Cmsy10-163"/>
     <use transform="translate(77.685547 0.390625)" xlink:href="#Cmr10-51"/>
    </g>
   </g>
   <g id="patch_12">
    <path d="M 57.322371 302.79295 
Q 37.349017 302.79295 16.257629 302.79295 
" style="fill:none;stroke:#000000;stroke-linecap:round;"/>
    <path d="M 53.322371 300.79295 
L 57.322371 302.79295 
L 53.322371 304.79295 
" style="fill:none;stroke:#000000;stroke-linecap:round;"/>
   </g>
   <g id="text_25">
    <!-- $\mathrm{POOL}$ -->
    <g transform="translate(21.06 317.151232)scale(0.11 -0.11)">
     <use transform="translate(0 0.484375)" xlink:href="#Cmr10-80"/>
     <use transform="translate(68.017578 0.484375)" xlink:href="#Cmr10-79"/>
     <use transform="translate(145.703125 0.484375)" xlink:href="#Cmr10-79"/>
     <use transform="translate(223.388672 0.484375)" xlink:href="#Cmr10-76"/>
    </g>
   </g>
   <g id="patch_13">
    <path d="M 242.041492 302.79295 
Q 206.674808 302.79295 170.190091 302.79295 
" style="fill:none;stroke:#000000;stroke-linecap:round;"/>
    <path d="M 238.041492 300.79295 
L 242.041492 302.79295 
L 238.041492 304.79295 
" style="fill:none;stroke:#000000;stroke-linecap:round;"/>
   </g>
   <g id="patch_14">
    <path d="M 426.758733 302.79295 
Q 391.392049 302.79295 354.907332 302.79295 
" style="fill:none;stroke:#000000;stroke-linecap:round;"/>
    <path d="M 422.758733 300.79295 
L 426.758733 302.79295 
L 422.758733 304.79295 
" style="fill:none;stroke:#000000;stroke-linecap:round;"/>
   </g>
   <g id="patch_15">
    <path d="M 611.475974 302.79295 
Q 576.109291 302.79295 539.624573 302.79295 
" style="fill:none;stroke:#000000;stroke-linecap:round;"/>
    <path d="M 607.475974 300.79295 
L 611.475974 302.79295 
L 607.475974 304.79295 
" style="fill:none;stroke:#000000;stroke-linecap:round;"/>
   </g>
  </g>
 </g>
 <defs>
  <clipPath id="p81ab508503">
   <rect height="95.929412" width="95.929412" x="58.65337" y="24.597656"/>
  </clipPath>
 </defs>
</svg>
