<?xml version="1.0" encoding="utf-8" standalone="no"?>
<!DOCTYPE svg PUBLIC "-//W3C//DTD SVG 1.1//EN"
  "http://www.w3.org/Graphics/SVG/1.1/DTD/svg11.dtd">
<!-- Created with matplotlib (https://matplotlib.org/) -->
<svg height="235.086287pt" version="1.1" viewBox="0 0 349.2 235.086287" width="349.2pt" xmlns="http://www.w3.org/2000/svg" xmlns:xlink="http://www.w3.org/1999/xlink">
 <metadata>
  <rdf:RDF xmlns:cc="http://creativecommons.org/ns#" xmlns:dc="http://purl.org/dc/elements/1.1/" xmlns:rdf="http://www.w3.org/1999/02/22-rdf-syntax-ns#">
   <cc:Work>
    <dc:type rdf:resource="http://purl.org/dc/dcmitype/StillImage"/>
    <dc:date>2021-04-21T08:39:52.924220</dc:date>
    <dc:format>image/svg+xml</dc:format>
    <dc:creator>
     <cc:Agent>
      <dc:title>Matplotlib v3.3.4, https://matplotlib.org/</dc:title>
     </cc:Agent>
    </dc:creator>
   </cc:Work>
  </rdf:RDF>
 </metadata>
 <defs>
  <style type="text/css">*{stroke-linecap:butt;stroke-linejoin:round;}</style>
 </defs>
 <g id="figure_1">
  <g id="patch_1">
   <path d="M 0 235.086287 
L 349.2 235.086287 
L 349.2 0 
L 0 0 
z
" style="fill:none;"/>
  </g>
  <g id="axes_1">
   <g id="text_1">
    <g id="patch_2">
     <path d="M 23.84523 129.357969 
L 61.03898 129.357969 
Q 64.03898 129.357969 64.03898 126.357969 
L 64.03898 105.482031 
Q 64.03898 102.482031 61.03898 102.482031 
L 23.84523 102.482031 
Q 20.84523 102.482031 20.84523 105.482031 
L 20.84523 126.357969 
Q 20.84523 129.357969 23.84523 129.357969 
z
" style="fill:#1f77b4;opacity:0.6;stroke:#000000;stroke-linejoin:miter;"/>
    </g>
    <!-- Input -->
    <g transform="translate(29.49523 113.080469)scale(0.1 -0.1)">
     <defs>
      <path d="M 9.8125 72.90625 
L 19.671875 72.90625 
L 19.671875 0 
L 9.8125 0 
z
" id="DejaVuSans-73"/>
      <path d="M 54.890625 33.015625 
L 54.890625 0 
L 45.90625 0 
L 45.90625 32.71875 
Q 45.90625 40.484375 42.875 44.328125 
Q 39.84375 48.1875 33.796875 48.1875 
Q 26.515625 48.1875 22.3125 43.546875 
Q 18.109375 38.921875 18.109375 30.90625 
L 18.109375 0 
L 9.078125 0 
L 9.078125 54.6875 
L 18.109375 54.6875 
L 18.109375 46.1875 
Q 21.34375 51.125 25.703125 53.5625 
Q 30.078125 56 35.796875 56 
Q 45.21875 56 50.046875 50.171875 
Q 54.890625 44.34375 54.890625 33.015625 
z
" id="DejaVuSans-110"/>
      <path d="M 18.109375 8.203125 
L 18.109375 -20.796875 
L 9.078125 -20.796875 
L 9.078125 54.6875 
L 18.109375 54.6875 
L 18.109375 46.390625 
Q 20.953125 51.265625 25.265625 53.625 
Q 29.59375 56 35.59375 56 
Q 45.5625 56 51.78125 48.09375 
Q 58.015625 40.1875 58.015625 27.296875 
Q 58.015625 14.40625 51.78125 6.484375 
Q 45.5625 -1.421875 35.59375 -1.421875 
Q 29.59375 -1.421875 25.265625 0.953125 
Q 20.953125 3.328125 18.109375 8.203125 
z
M 48.6875 27.296875 
Q 48.6875 37.203125 44.609375 42.84375 
Q 40.53125 48.484375 33.40625 48.484375 
Q 26.265625 48.484375 22.1875 42.84375 
Q 18.109375 37.203125 18.109375 27.296875 
Q 18.109375 17.390625 22.1875 11.75 
Q 26.265625 6.109375 33.40625 6.109375 
Q 40.53125 6.109375 44.609375 11.75 
Q 48.6875 17.390625 48.6875 27.296875 
z
" id="DejaVuSans-112"/>
      <path d="M 8.5 21.578125 
L 8.5 54.6875 
L 17.484375 54.6875 
L 17.484375 21.921875 
Q 17.484375 14.15625 20.5 10.265625 
Q 23.53125 6.390625 29.59375 6.390625 
Q 36.859375 6.390625 41.078125 11.03125 
Q 45.3125 15.671875 45.3125 23.6875 
L 45.3125 54.6875 
L 54.296875 54.6875 
L 54.296875 0 
L 45.3125 0 
L 45.3125 8.40625 
Q 42.046875 3.421875 37.71875 1 
Q 33.40625 -1.421875 27.6875 -1.421875 
Q 18.265625 -1.421875 13.375 4.4375 
Q 8.5 10.296875 8.5 21.578125 
z
M 31.109375 56 
z
" id="DejaVuSans-117"/>
      <path d="M 18.3125 70.21875 
L 18.3125 54.6875 
L 36.8125 54.6875 
L 36.8125 47.703125 
L 18.3125 47.703125 
L 18.3125 18.015625 
Q 18.3125 11.328125 20.140625 9.421875 
Q 21.96875 7.515625 27.59375 7.515625 
L 36.8125 7.515625 
L 36.8125 0 
L 27.59375 0 
Q 17.1875 0 13.234375 3.875 
Q 9.28125 7.765625 9.28125 18.015625 
L 9.28125 47.703125 
L 2.6875 47.703125 
L 2.6875 54.6875 
L 9.28125 54.6875 
L 9.28125 70.21875 
z
" id="DejaVuSans-116"/>
     </defs>
     <use xlink:href="#DejaVuSans-73"/>
     <use x="29.492188" xlink:href="#DejaVuSans-110"/>
     <use x="92.871094" xlink:href="#DejaVuSans-112"/>
     <use x="156.347656" xlink:href="#DejaVuSans-117"/>
     <use x="219.726562" xlink:href="#DejaVuSans-116"/>
    </g>
    <!-- Volume -->
    <g transform="translate(23.84523 124.278281)scale(0.1 -0.1)">
     <defs>
      <path d="M 28.609375 0 
L 0.78125 72.90625 
L 11.078125 72.90625 
L 34.1875 11.53125 
L 57.328125 72.90625 
L 67.578125 72.90625 
L 39.796875 0 
z
" id="DejaVuSans-86"/>
      <path d="M 30.609375 48.390625 
Q 23.390625 48.390625 19.1875 42.75 
Q 14.984375 37.109375 14.984375 27.296875 
Q 14.984375 17.484375 19.15625 11.84375 
Q 23.34375 6.203125 30.609375 6.203125 
Q 37.796875 6.203125 41.984375 11.859375 
Q 46.1875 17.53125 46.1875 27.296875 
Q 46.1875 37.015625 41.984375 42.703125 
Q 37.796875 48.390625 30.609375 48.390625 
z
M 30.609375 56 
Q 42.328125 56 49.015625 48.375 
Q 55.71875 40.765625 55.71875 27.296875 
Q 55.71875 13.875 49.015625 6.21875 
Q 42.328125 -1.421875 30.609375 -1.421875 
Q 18.84375 -1.421875 12.171875 6.21875 
Q 5.515625 13.875 5.515625 27.296875 
Q 5.515625 40.765625 12.171875 48.375 
Q 18.84375 56 30.609375 56 
z
" id="DejaVuSans-111"/>
      <path d="M 9.421875 75.984375 
L 18.40625 75.984375 
L 18.40625 0 
L 9.421875 0 
z
" id="DejaVuSans-108"/>
      <path d="M 52 44.1875 
Q 55.375 50.25 60.0625 53.125 
Q 64.75 56 71.09375 56 
Q 79.640625 56 84.28125 50.015625 
Q 88.921875 44.046875 88.921875 33.015625 
L 88.921875 0 
L 79.890625 0 
L 79.890625 32.71875 
Q 79.890625 40.578125 77.09375 44.375 
Q 74.3125 48.1875 68.609375 48.1875 
Q 61.625 48.1875 57.5625 43.546875 
Q 53.515625 38.921875 53.515625 30.90625 
L 53.515625 0 
L 44.484375 0 
L 44.484375 32.71875 
Q 44.484375 40.625 41.703125 44.40625 
Q 38.921875 48.1875 33.109375 48.1875 
Q 26.21875 48.1875 22.15625 43.53125 
Q 18.109375 38.875 18.109375 30.90625 
L 18.109375 0 
L 9.078125 0 
L 9.078125 54.6875 
L 18.109375 54.6875 
L 18.109375 46.1875 
Q 21.1875 51.21875 25.484375 53.609375 
Q 29.78125 56 35.6875 56 
Q 41.65625 56 45.828125 52.96875 
Q 50 49.953125 52 44.1875 
z
" id="DejaVuSans-109"/>
      <path d="M 56.203125 29.59375 
L 56.203125 25.203125 
L 14.890625 25.203125 
Q 15.484375 15.921875 20.484375 11.0625 
Q 25.484375 6.203125 34.421875 6.203125 
Q 39.59375 6.203125 44.453125 7.46875 
Q 49.3125 8.734375 54.109375 11.28125 
L 54.109375 2.78125 
Q 49.265625 0.734375 44.1875 -0.34375 
Q 39.109375 -1.421875 33.890625 -1.421875 
Q 20.796875 -1.421875 13.15625 6.1875 
Q 5.515625 13.8125 5.515625 26.8125 
Q 5.515625 40.234375 12.765625 48.109375 
Q 20.015625 56 32.328125 56 
Q 43.359375 56 49.78125 48.890625 
Q 56.203125 41.796875 56.203125 29.59375 
z
M 47.21875 32.234375 
Q 47.125 39.59375 43.09375 43.984375 
Q 39.0625 48.390625 32.421875 48.390625 
Q 24.90625 48.390625 20.390625 44.140625 
Q 15.875 39.890625 15.1875 32.171875 
z
" id="DejaVuSans-101"/>
     </defs>
     <use xlink:href="#DejaVuSans-86"/>
     <use x="60.658203" xlink:href="#DejaVuSans-111"/>
     <use x="121.839844" xlink:href="#DejaVuSans-108"/>
     <use x="149.623047" xlink:href="#DejaVuSans-117"/>
     <use x="213.001953" xlink:href="#DejaVuSans-109"/>
     <use x="310.414062" xlink:href="#DejaVuSans-101"/>
    </g>
   </g>
   <g id="text_2">
    <g id="patch_3">
     <path d="M 115.959087 97.381498 
L 145.13565 97.381498 
Q 148.13565 97.381498 148.13565 94.381498 
L 148.13565 73.505561 
Q 148.13565 70.505561 145.13565 70.505561 
L 115.959087 70.505561 
Q 112.959087 70.505561 112.959087 73.505561 
L 112.959087 94.381498 
Q 112.959087 97.381498 115.959087 97.381498 
z
" style="fill:#ffffff;stroke:#000000;stroke-linejoin:miter;"/>
    </g>
    <!-- $1 \times 1$ -->
    <g transform="translate(119.897368 81.103998)scale(0.1 -0.1)">
     <defs>
      <path d="M 9.28125 0 
L 9.28125 3.515625 
Q 21.78125 3.515625 21.78125 6.6875 
L 21.78125 59.1875 
Q 16.609375 56.6875 8.6875 56.6875 
L 8.6875 60.203125 
Q 20.953125 60.203125 27.203125 66.609375 
L 28.609375 66.609375 
Q 28.953125 66.609375 29.265625 66.328125 
Q 29.59375 66.0625 29.59375 65.71875 
L 29.59375 6.6875 
Q 29.59375 3.515625 42.09375 3.515625 
L 42.09375 0 
z
" id="Cmr10-49"/>
      <path d="M 14.703125 2.875 
Q 14.703125 3.65625 15.1875 4.296875 
L 35.984375 25 
L 15.1875 45.796875 
Q 14.703125 46.296875 14.703125 47.125 
Q 14.703125 47.859375 15.28125 48.484375 
Q 15.875 49.125 16.703125 49.125 
Q 17.390625 49.125 18.21875 48.484375 
L 38.921875 27.78125 
L 59.515625 48.484375 
Q 60.359375 49.125 60.984375 49.125 
Q 61.8125 49.125 62.390625 48.53125 
Q 62.984375 47.953125 62.984375 47.125 
Q 62.984375 46.296875 62.5 45.796875 
L 41.703125 25 
L 62.5 4.296875 
Q 62.984375 3.65625 62.984375 2.875 
Q 62.984375 2.046875 62.390625 1.453125 
Q 61.8125 0.875 60.984375 0.875 
Q 60.25 0.875 59.515625 1.609375 
L 38.921875 22.21875 
L 18.21875 1.609375 
Q 17.484375 0.875 16.703125 0.875 
Q 15.875 0.875 15.28125 1.515625 
Q 14.703125 2.15625 14.703125 2.875 
z
" id="Cmsy10-163"/>
     </defs>
     <use transform="translate(0 0.390625)" xlink:href="#Cmr10-49"/>
     <use transform="translate(67.558594 0.390625)" xlink:href="#Cmsy10-163"/>
     <use transform="translate(162.802734 0.390625)" xlink:href="#Cmr10-49"/>
    </g>
    <!-- CONV -->
    <g transform="translate(115.959087 92.301811)scale(0.1 -0.1)">
     <defs>
      <path d="M 64.40625 67.28125 
L 64.40625 56.890625 
Q 59.421875 61.53125 53.78125 63.8125 
Q 48.140625 66.109375 41.796875 66.109375 
Q 29.296875 66.109375 22.65625 58.46875 
Q 16.015625 50.828125 16.015625 36.375 
Q 16.015625 21.96875 22.65625 14.328125 
Q 29.296875 6.6875 41.796875 6.6875 
Q 48.140625 6.6875 53.78125 8.984375 
Q 59.421875 11.28125 64.40625 15.921875 
L 64.40625 5.609375 
Q 59.234375 2.09375 53.4375 0.328125 
Q 47.65625 -1.421875 41.21875 -1.421875 
Q 24.65625 -1.421875 15.125 8.703125 
Q 5.609375 18.84375 5.609375 36.375 
Q 5.609375 53.953125 15.125 64.078125 
Q 24.65625 74.21875 41.21875 74.21875 
Q 47.75 74.21875 53.53125 72.484375 
Q 59.328125 70.75 64.40625 67.28125 
z
" id="DejaVuSans-67"/>
      <path d="M 39.40625 66.21875 
Q 28.65625 66.21875 22.328125 58.203125 
Q 16.015625 50.203125 16.015625 36.375 
Q 16.015625 22.609375 22.328125 14.59375 
Q 28.65625 6.59375 39.40625 6.59375 
Q 50.140625 6.59375 56.421875 14.59375 
Q 62.703125 22.609375 62.703125 36.375 
Q 62.703125 50.203125 56.421875 58.203125 
Q 50.140625 66.21875 39.40625 66.21875 
z
M 39.40625 74.21875 
Q 54.734375 74.21875 63.90625 63.9375 
Q 73.09375 53.65625 73.09375 36.375 
Q 73.09375 19.140625 63.90625 8.859375 
Q 54.734375 -1.421875 39.40625 -1.421875 
Q 24.03125 -1.421875 14.8125 8.828125 
Q 5.609375 19.09375 5.609375 36.375 
Q 5.609375 53.65625 14.8125 63.9375 
Q 24.03125 74.21875 39.40625 74.21875 
z
" id="DejaVuSans-79"/>
      <path d="M 9.8125 72.90625 
L 23.09375 72.90625 
L 55.421875 11.921875 
L 55.421875 72.90625 
L 64.984375 72.90625 
L 64.984375 0 
L 51.703125 0 
L 19.390625 60.984375 
L 19.390625 0 
L 9.8125 0 
z
" id="DejaVuSans-78"/>
     </defs>
     <use xlink:href="#DejaVuSans-67"/>
     <use x="69.824219" xlink:href="#DejaVuSans-79"/>
     <use x="148.535156" xlink:href="#DejaVuSans-78"/>
     <use x="223.339844" xlink:href="#DejaVuSans-86"/>
    </g>
   </g>
   <g id="patch_4">
    <path d="M 110.041479 85.049171 
Q 88.49767 93.213297 65.908379 101.773614 
" style="fill:none;stroke:#000000;stroke-linecap:round;"/>
    <path d="M 105.592321 84.596409 
L 110.041479 85.049171 
L 107.009775 88.33684 
" style="fill:none;stroke:#000000;stroke-linecap:round;"/>
   </g>
   <g id="text_3">
    <g id="patch_5">
     <path d="M 115.959087 161.334439 
L 145.13565 161.334439 
Q 148.13565 161.334439 148.13565 158.334439 
L 148.13565 137.458502 
Q 148.13565 134.458502 145.13565 134.458502 
L 115.959087 134.458502 
Q 112.959087 134.458502 112.959087 137.458502 
L 112.959087 158.334439 
Q 112.959087 161.334439 115.959087 161.334439 
z
" style="fill:#ffffff;stroke:#000000;stroke-linejoin:miter;"/>
    </g>
    <!-- $1 \times 1$ -->
    <g transform="translate(119.897368 145.056939)scale(0.1 -0.1)">
     <use transform="translate(0 0.390625)" xlink:href="#Cmr10-49"/>
     <use transform="translate(67.558594 0.390625)" xlink:href="#Cmsy10-163"/>
     <use transform="translate(162.802734 0.390625)" xlink:href="#Cmr10-49"/>
    </g>
    <!-- CONV -->
    <g transform="translate(115.959087 156.254752)scale(0.1 -0.1)">
     <use xlink:href="#DejaVuSans-67"/>
     <use x="69.824219" xlink:href="#DejaVuSans-79"/>
     <use x="148.535156" xlink:href="#DejaVuSans-78"/>
     <use x="223.339844" xlink:href="#DejaVuSans-86"/>
    </g>
   </g>
   <g id="text_4">
    <g id="patch_6">
     <path d="M 105.715337 230.886287 
L 155.3794 230.886287 
Q 158.3794 230.886287 158.3794 227.886287 
L 158.3794 195.812537 
Q 158.3794 192.812537 155.3794 192.812537 
L 105.715337 192.812537 
Q 102.715337 192.812537 102.715337 195.812537 
L 102.715337 227.886287 
Q 102.715337 230.886287 105.715337 230.886287 
z
" style="fill:#ffff00;opacity:0.6;stroke:#000000;stroke-linejoin:miter;"/>
    </g>
    <!-- MAXPOOL -->
    <g transform="translate(105.715337 203.410974)scale(0.1 -0.1)">
     <defs>
      <path d="M 9.8125 72.90625 
L 24.515625 72.90625 
L 43.109375 23.296875 
L 61.8125 72.90625 
L 76.515625 72.90625 
L 76.515625 0 
L 66.890625 0 
L 66.890625 64.015625 
L 48.09375 14.015625 
L 38.1875 14.015625 
L 19.390625 64.015625 
L 19.390625 0 
L 9.8125 0 
z
" id="DejaVuSans-77"/>
      <path d="M 34.1875 63.1875 
L 20.796875 26.90625 
L 47.609375 26.90625 
z
M 28.609375 72.90625 
L 39.796875 72.90625 
L 67.578125 0 
L 57.328125 0 
L 50.6875 18.703125 
L 17.828125 18.703125 
L 11.1875 0 
L 0.78125 0 
z
" id="DejaVuSans-65"/>
      <path d="M 6.296875 72.90625 
L 16.890625 72.90625 
L 35.015625 45.796875 
L 53.21875 72.90625 
L 63.8125 72.90625 
L 40.375 37.890625 
L 65.375 0 
L 54.78125 0 
L 34.28125 31 
L 13.625 0 
L 2.984375 0 
L 29 38.921875 
z
" id="DejaVuSans-88"/>
      <path d="M 19.671875 64.796875 
L 19.671875 37.40625 
L 32.078125 37.40625 
Q 38.96875 37.40625 42.71875 40.96875 
Q 46.484375 44.53125 46.484375 51.125 
Q 46.484375 57.671875 42.71875 61.234375 
Q 38.96875 64.796875 32.078125 64.796875 
z
M 9.8125 72.90625 
L 32.078125 72.90625 
Q 44.34375 72.90625 50.609375 67.359375 
Q 56.890625 61.8125 56.890625 51.125 
Q 56.890625 40.328125 50.609375 34.8125 
Q 44.34375 29.296875 32.078125 29.296875 
L 19.671875 29.296875 
L 19.671875 0 
L 9.8125 0 
z
" id="DejaVuSans-80"/>
      <path d="M 9.8125 72.90625 
L 19.671875 72.90625 
L 19.671875 8.296875 
L 55.171875 8.296875 
L 55.171875 0 
L 9.8125 0 
z
" id="DejaVuSans-76"/>
     </defs>
     <use xlink:href="#DejaVuSans-77"/>
     <use x="86.279297" xlink:href="#DejaVuSans-65"/>
     <use x="154.6875" xlink:href="#DejaVuSans-88"/>
     <use x="223.193359" xlink:href="#DejaVuSans-80"/>
     <use x="283.496094" xlink:href="#DejaVuSans-79"/>
     <use x="362.207031" xlink:href="#DejaVuSans-79"/>
     <use x="440.917969" xlink:href="#DejaVuSans-76"/>
    </g>
    <!-- $3\times3,s=1$ -->
    <g transform="translate(107.147368 214.608787)scale(0.1 -0.1)">
     <defs>
      <path d="M 9.515625 7.71875 
Q 11.859375 4.296875 15.8125 2.640625 
Q 19.78125 0.984375 24.3125 0.984375 
Q 30.125 0.984375 32.5625 5.9375 
Q 35.015625 10.890625 35.015625 17.1875 
Q 35.015625 20.015625 34.5 22.84375 
Q 33.984375 25.6875 32.765625 28.125 
Q 31.546875 30.5625 29.421875 32.03125 
Q 27.296875 33.5 24.21875 33.5 
L 17.578125 33.5 
Q 16.703125 33.5 16.703125 34.421875 
L 16.703125 35.296875 
Q 16.703125 36.078125 17.578125 36.078125 
L 23.09375 36.53125 
Q 26.609375 36.53125 28.921875 39.15625 
Q 31.25 41.796875 32.328125 45.578125 
Q 33.40625 49.359375 33.40625 52.78125 
Q 33.40625 57.5625 31.15625 60.640625 
Q 28.90625 63.71875 24.3125 63.71875 
Q 20.515625 63.71875 17.046875 62.28125 
Q 13.578125 60.84375 11.53125 57.90625 
Q 11.71875 57.953125 11.859375 57.984375 
Q 12.015625 58.015625 12.203125 58.015625 
Q 14.453125 58.015625 15.96875 56.453125 
Q 17.484375 54.890625 17.484375 52.6875 
Q 17.484375 50.53125 15.96875 48.96875 
Q 14.453125 47.40625 12.203125 47.40625 
Q 10.015625 47.40625 8.453125 48.96875 
Q 6.890625 50.53125 6.890625 52.6875 
Q 6.890625 56.984375 9.46875 60.15625 
Q 12.0625 63.328125 16.140625 64.96875 
Q 20.21875 66.609375 24.3125 66.609375 
Q 27.34375 66.609375 30.703125 65.703125 
Q 34.078125 64.796875 36.8125 63.109375 
Q 39.546875 61.421875 41.28125 58.78125 
Q 43.015625 56.15625 43.015625 52.78125 
Q 43.015625 48.578125 41.140625 45.015625 
Q 39.265625 41.453125 35.984375 38.859375 
Q 32.71875 36.28125 28.8125 35.015625 
Q 33.15625 34.1875 37.0625 31.734375 
Q 40.96875 29.296875 43.328125 25.484375 
Q 45.703125 21.6875 45.703125 17.28125 
Q 45.703125 11.765625 42.671875 7.296875 
Q 39.65625 2.828125 34.71875 0.3125 
Q 29.78125 -2.203125 24.3125 -2.203125 
Q 19.625 -2.203125 14.90625 -0.40625 
Q 10.203125 1.375 7.203125 4.9375 
Q 4.203125 8.5 4.203125 13.484375 
Q 4.203125 15.96875 5.859375 17.625 
Q 7.515625 19.28125 10.015625 19.28125 
Q 11.625 19.28125 12.96875 18.53125 
Q 14.3125 17.78125 15.0625 16.40625 
Q 15.828125 15.046875 15.828125 13.484375 
Q 15.828125 11.03125 14.109375 9.375 
Q 12.40625 7.71875 10.015625 7.71875 
z
" id="Cmr10-51"/>
      <path d="M 9.90625 -18.015625 
Q 9.90625 -17.578125 10.296875 -17.1875 
Q 13.921875 -13.71875 15.921875 -9.171875 
Q 17.921875 -4.640625 17.921875 0.390625 
L 17.921875 1.609375 
Q 16.3125 0 13.921875 0 
Q 11.625 0 10.015625 1.609375 
Q 8.40625 3.21875 8.40625 5.515625 
Q 8.40625 7.859375 10.015625 9.421875 
Q 11.625 10.984375 13.921875 10.984375 
Q 17.484375 10.984375 19 7.6875 
Q 20.515625 4.390625 20.515625 0.390625 
Q 20.515625 -5.171875 18.28125 -10.171875 
Q 16.0625 -15.1875 12.015625 -19.1875 
Q 11.625 -19.390625 11.375 -19.390625 
Q 10.890625 -19.390625 10.390625 -18.9375 
Q 9.90625 -18.5 9.90625 -18.015625 
z
" id="Cmmi10-59"/>
      <path d="M 8.6875 6.109375 
Q 11.375 1.515625 19.484375 1.515625 
Q 23 1.515625 26.171875 2.703125 
Q 29.34375 3.90625 31.421875 6.296875 
Q 33.5 8.6875 33.5 12.109375 
Q 33.5 14.703125 31.640625 16.359375 
Q 29.78125 18.015625 27.09375 18.609375 
L 21.6875 19.671875 
Q 17.96875 20.609375 15.578125 23.140625 
Q 13.1875 25.6875 13.1875 29.296875 
Q 13.1875 33.734375 15.59375 37.15625 
Q 18.015625 40.578125 21.96875 42.375 
Q 25.921875 44.1875 30.171875 44.1875 
Q 34.71875 44.1875 38.296875 42.015625 
Q 41.890625 39.84375 41.890625 35.59375 
Q 41.890625 33.296875 40.59375 31.53125 
Q 39.3125 29.78125 37.015625 29.78125 
Q 35.6875 29.78125 34.734375 30.640625 
Q 33.796875 31.5 33.796875 32.8125 
Q 33.796875 33.984375 34.453125 35.078125 
Q 35.109375 36.1875 36.203125 36.84375 
Q 37.3125 37.5 38.484375 37.5 
Q 37.59375 39.65625 35.171875 40.625 
Q 32.765625 41.609375 29.984375 41.609375 
Q 27.4375 41.609375 24.890625 40.578125 
Q 22.359375 39.546875 20.8125 37.5625 
Q 19.28125 35.59375 19.28125 32.90625 
Q 19.28125 31.109375 20.546875 29.734375 
Q 21.828125 28.375 23.6875 27.78125 
L 29.5 26.609375 
Q 32.28125 26.03125 34.59375 24.53125 
Q 36.921875 23.046875 38.25 20.765625 
Q 39.59375 18.5 39.59375 15.578125 
Q 39.59375 11.859375 37.515625 8.25 
Q 35.453125 4.640625 32.421875 2.484375 
Q 27.09375 -1.125 19.390625 -1.125 
Q 14.0625 -1.125 9.609375 1.3125 
Q 5.171875 3.765625 5.171875 8.59375 
Q 5.171875 11.328125 6.75 13.34375 
Q 8.34375 15.375 11.078125 15.375 
Q 12.703125 15.375 13.796875 14.390625 
Q 14.890625 13.421875 14.890625 11.8125 
Q 14.890625 9.515625 13.171875 7.8125 
Q 11.46875 6.109375 9.1875 6.109375 
z
" id="Cmmi10-115"/>
      <path d="M 7.515625 13.28125 
Q 6.6875 13.28125 6.140625 13.90625 
Q 5.609375 14.546875 5.609375 15.28125 
Q 5.609375 16.109375 6.140625 16.6875 
Q 6.6875 17.28125 7.515625 17.28125 
L 70.3125 17.28125 
Q 71.046875 17.28125 71.578125 16.6875 
Q 72.125 16.109375 72.125 15.28125 
Q 72.125 14.546875 71.578125 13.90625 
Q 71.046875 13.28125 70.3125 13.28125 
z
M 7.515625 32.71875 
Q 6.6875 32.71875 6.140625 33.296875 
Q 5.609375 33.890625 5.609375 34.71875 
Q 5.609375 35.453125 6.140625 36.078125 
Q 6.6875 36.71875 7.515625 36.71875 
L 70.3125 36.71875 
Q 71.046875 36.71875 71.578125 36.078125 
Q 72.125 35.453125 72.125 34.71875 
Q 72.125 33.890625 71.578125 33.296875 
Q 71.046875 32.71875 70.3125 32.71875 
z
" id="Cmr10-61"/>
     </defs>
     <use transform="translate(0 0.390625)" xlink:href="#Cmr10-51"/>
     <use transform="translate(67.558594 0.390625)" xlink:href="#Cmsy10-163"/>
     <use transform="translate(162.802734 0.390625)" xlink:href="#Cmr10-51"/>
     <use transform="translate(212.802734 0.390625)" xlink:href="#Cmmi10-59"/>
     <use transform="translate(258.046875 0.390625)" xlink:href="#Cmmi10-115"/>
     <use transform="translate(322.382812 0.390625)" xlink:href="#Cmr10-61"/>
     <use transform="translate(417.626953 0.390625)" xlink:href="#Cmr10-49"/>
    </g>
    <!-- same -->
    <g transform="translate(116.931743 225.806599)scale(0.1 -0.1)">
     <defs>
      <path d="M 44.28125 53.078125 
L 44.28125 44.578125 
Q 40.484375 46.53125 36.375 47.5 
Q 32.28125 48.484375 27.875 48.484375 
Q 21.1875 48.484375 17.84375 46.4375 
Q 14.5 44.390625 14.5 40.28125 
Q 14.5 37.15625 16.890625 35.375 
Q 19.28125 33.59375 26.515625 31.984375 
L 29.59375 31.296875 
Q 39.15625 29.25 43.1875 25.515625 
Q 47.21875 21.78125 47.21875 15.09375 
Q 47.21875 7.46875 41.1875 3.015625 
Q 35.15625 -1.421875 24.609375 -1.421875 
Q 20.21875 -1.421875 15.453125 -0.5625 
Q 10.6875 0.296875 5.421875 2 
L 5.421875 11.28125 
Q 10.40625 8.6875 15.234375 7.390625 
Q 20.0625 6.109375 24.8125 6.109375 
Q 31.15625 6.109375 34.5625 8.28125 
Q 37.984375 10.453125 37.984375 14.40625 
Q 37.984375 18.0625 35.515625 20.015625 
Q 33.0625 21.96875 24.703125 23.78125 
L 21.578125 24.515625 
Q 13.234375 26.265625 9.515625 29.90625 
Q 5.8125 33.546875 5.8125 39.890625 
Q 5.8125 47.609375 11.28125 51.796875 
Q 16.75 56 26.8125 56 
Q 31.78125 56 36.171875 55.265625 
Q 40.578125 54.546875 44.28125 53.078125 
z
" id="DejaVuSans-115"/>
      <path d="M 34.28125 27.484375 
Q 23.390625 27.484375 19.1875 25 
Q 14.984375 22.515625 14.984375 16.5 
Q 14.984375 11.71875 18.140625 8.90625 
Q 21.296875 6.109375 26.703125 6.109375 
Q 34.1875 6.109375 38.703125 11.40625 
Q 43.21875 16.703125 43.21875 25.484375 
L 43.21875 27.484375 
z
M 52.203125 31.203125 
L 52.203125 0 
L 43.21875 0 
L 43.21875 8.296875 
Q 40.140625 3.328125 35.546875 0.953125 
Q 30.953125 -1.421875 24.3125 -1.421875 
Q 15.921875 -1.421875 10.953125 3.296875 
Q 6 8.015625 6 15.921875 
Q 6 25.140625 12.171875 29.828125 
Q 18.359375 34.515625 30.609375 34.515625 
L 43.21875 34.515625 
L 43.21875 35.40625 
Q 43.21875 41.609375 39.140625 45 
Q 35.0625 48.390625 27.6875 48.390625 
Q 23 48.390625 18.546875 47.265625 
Q 14.109375 46.140625 10.015625 43.890625 
L 10.015625 52.203125 
Q 14.9375 54.109375 19.578125 55.046875 
Q 24.21875 56 28.609375 56 
Q 40.484375 56 46.34375 49.84375 
Q 52.203125 43.703125 52.203125 31.203125 
z
" id="DejaVuSans-97"/>
     </defs>
     <use xlink:href="#DejaVuSans-115"/>
     <use x="52.099609" xlink:href="#DejaVuSans-97"/>
     <use x="113.378906" xlink:href="#DejaVuSans-109"/>
     <use x="210.791016" xlink:href="#DejaVuSans-101"/>
    </g>
   </g>
   <g id="text_5">
    <g id="patch_7">
     <path d="M 204.06435 225.287381 
L 233.240913 225.287381 
Q 236.240913 225.287381 236.240913 222.287381 
L 236.240913 201.411443 
Q 236.240913 198.411443 233.240913 198.411443 
L 204.06435 198.411443 
Q 201.06435 198.411443 201.06435 201.411443 
L 201.06435 222.287381 
Q 201.06435 225.287381 204.06435 225.287381 
z
" style="fill:#ffff00;opacity:0.6;stroke:#000000;stroke-linejoin:miter;"/>
    </g>
    <!-- $1 \times 1$ -->
    <g transform="translate(208.002632 209.009881)scale(0.1 -0.1)">
     <use transform="translate(0 0.390625)" xlink:href="#Cmr10-49"/>
     <use transform="translate(67.558594 0.390625)" xlink:href="#Cmsy10-163"/>
     <use transform="translate(162.802734 0.390625)" xlink:href="#Cmr10-49"/>
    </g>
    <!-- CONV -->
    <g transform="translate(204.06435 220.207693)scale(0.1 -0.1)">
     <use xlink:href="#DejaVuSans-67"/>
     <use x="69.824219" xlink:href="#DejaVuSans-79"/>
     <use x="148.535156" xlink:href="#DejaVuSans-78"/>
     <use x="223.339844" xlink:href="#DejaVuSans-86"/>
    </g>
   </g>
   <g id="patch_8">
    <path d="M 197.948065 211.849412 
Q 179.723527 211.849412 160.380955 211.849412 
" style="fill:none;stroke:#000000;stroke-linecap:round;"/>
    <path d="M 193.948065 209.849412 
L 197.948065 211.849412 
L 193.948065 213.849412 
" style="fill:none;stroke:#000000;stroke-linecap:round;"/>
   </g>
   <g id="text_6">
    <g id="patch_9">
     <path d="M 204.06435 161.334439 
L 233.240913 161.334439 
Q 236.240913 161.334439 236.240913 158.334439 
L 236.240913 137.458502 
Q 236.240913 134.458502 233.240913 134.458502 
L 204.06435 134.458502 
Q 201.06435 134.458502 201.06435 137.458502 
L 201.06435 158.334439 
Q 201.06435 161.334439 204.06435 161.334439 
z
" style="fill:#9467bd;opacity:0.6;stroke:#000000;stroke-linejoin:miter;"/>
    </g>
    <!-- $5 \times 5$ -->
    <g transform="translate(208.002632 145.056939)scale(0.1 -0.1)">
     <defs>
      <path d="M 8.6875 11.375 
Q 9.71875 8.453125 11.84375 6.046875 
Q 13.96875 3.65625 16.875 2.3125 
Q 19.78125 0.984375 22.90625 0.984375 
Q 30.125 0.984375 32.859375 6.59375 
Q 35.59375 12.203125 35.59375 20.21875 
Q 35.59375 23.6875 35.46875 26.046875 
Q 35.359375 28.421875 34.8125 30.609375 
Q 33.890625 34.125 31.5625 36.765625 
Q 29.25 39.40625 25.875 39.40625 
Q 22.515625 39.40625 20.09375 38.375 
Q 17.671875 37.359375 16.15625 35.984375 
Q 14.65625 34.625 13.484375 33.109375 
Q 12.3125 31.59375 12.015625 31.5 
L 10.890625 31.5 
Q 10.640625 31.5 10.265625 31.8125 
Q 9.90625 32.125 9.90625 32.421875 
L 9.90625 65.828125 
Q 9.90625 66.0625 10.21875 66.328125 
Q 10.546875 66.609375 10.890625 66.609375 
L 11.1875 66.609375 
Q 17.921875 63.375 25.484375 63.375 
Q 32.90625 63.375 39.796875 66.609375 
L 40.09375 66.609375 
Q 40.4375 66.609375 40.71875 66.359375 
Q 41.015625 66.109375 41.015625 65.828125 
L 41.015625 64.890625 
Q 41.015625 64.40625 40.828125 64.40625 
Q 37.40625 59.859375 32.25 57.3125 
Q 27.09375 54.78125 21.578125 54.78125 
Q 17.578125 54.78125 13.375 55.90625 
L 13.375 37.015625 
Q 16.703125 39.703125 19.3125 40.84375 
Q 21.921875 42 25.984375 42 
Q 31.5 42 35.859375 38.8125 
Q 40.234375 35.640625 42.578125 30.53125 
Q 44.921875 25.4375 44.921875 20.125 
Q 44.921875 14.109375 41.96875 8.984375 
Q 39.015625 3.859375 33.9375 0.828125 
Q 28.859375 -2.203125 22.90625 -2.203125 
Q 17.96875 -2.203125 13.84375 0.328125 
Q 9.71875 2.875 7.34375 7.171875 
Q 4.984375 11.46875 4.984375 16.3125 
Q 4.984375 18.5625 6.4375 19.96875 
Q 7.90625 21.390625 10.109375 21.390625 
Q 12.3125 21.390625 13.796875 19.9375 
Q 15.28125 18.5 15.28125 16.3125 
Q 15.28125 14.15625 13.796875 12.671875 
Q 12.3125 11.1875 10.109375 11.1875 
Q 9.765625 11.1875 9.328125 11.25 
Q 8.890625 11.328125 8.6875 11.375 
z
" id="Cmr10-53"/>
     </defs>
     <use transform="translate(0 0.390625)" xlink:href="#Cmr10-53"/>
     <use transform="translate(67.558594 0.390625)" xlink:href="#Cmsy10-163"/>
     <use transform="translate(162.802734 0.390625)" xlink:href="#Cmr10-53"/>
    </g>
    <!-- CONV -->
    <g transform="translate(204.06435 156.254752)scale(0.1 -0.1)">
     <use xlink:href="#DejaVuSans-67"/>
     <use x="69.824219" xlink:href="#DejaVuSans-79"/>
     <use x="148.535156" xlink:href="#DejaVuSans-78"/>
     <use x="223.339844" xlink:href="#DejaVuSans-86"/>
    </g>
   </g>
   <g id="text_7">
    <g id="patch_10">
     <path d="M 204.06435 97.381498 
L 233.240913 97.381498 
Q 236.240913 97.381498 236.240913 94.381498 
L 236.240913 73.505561 
Q 236.240913 70.505561 233.240913 70.505561 
L 204.06435 70.505561 
Q 201.06435 70.505561 201.06435 73.505561 
L 201.06435 94.381498 
Q 201.06435 97.381498 204.06435 97.381498 
z
" style="fill:#1f77b4;opacity:0.6;stroke:#000000;stroke-linejoin:miter;"/>
    </g>
    <!-- $3 \times 3$ -->
    <g transform="translate(208.002632 81.103998)scale(0.1 -0.1)">
     <use transform="translate(0 0.390625)" xlink:href="#Cmr10-51"/>
     <use transform="translate(67.558594 0.390625)" xlink:href="#Cmsy10-163"/>
     <use transform="translate(162.802734 0.390625)" xlink:href="#Cmr10-51"/>
    </g>
    <!-- CONV -->
    <g transform="translate(204.06435 92.301811)scale(0.1 -0.1)">
     <use xlink:href="#DejaVuSans-67"/>
     <use x="69.824219" xlink:href="#DejaVuSans-79"/>
     <use x="148.535156" xlink:href="#DejaVuSans-78"/>
     <use x="223.339844" xlink:href="#DejaVuSans-86"/>
    </g>
   </g>
   <g id="text_8">
    <g id="patch_11">
     <path d="M 204.06435 33.428557 
L 233.240913 33.428557 
Q 236.240913 33.428557 236.240913 30.428557 
L 236.240913 9.552619 
Q 236.240913 6.552619 233.240913 6.552619 
L 204.06435 6.552619 
Q 201.06435 6.552619 201.06435 9.552619 
L 201.06435 30.428557 
Q 201.06435 33.428557 204.06435 33.428557 
z
" style="fill:#2ca02c;opacity:0.6;stroke:#000000;stroke-linejoin:miter;"/>
    </g>
    <!-- $1 \times 1$ -->
    <g transform="translate(208.002632 17.151057)scale(0.1 -0.1)">
     <use transform="translate(0 0.390625)" xlink:href="#Cmr10-49"/>
     <use transform="translate(67.558594 0.390625)" xlink:href="#Cmsy10-163"/>
     <use transform="translate(162.802734 0.390625)" xlink:href="#Cmr10-49"/>
    </g>
    <!-- CONV -->
    <g transform="translate(204.06435 28.348869)scale(0.1 -0.1)">
     <use xlink:href="#DejaVuSans-67"/>
     <use x="69.824219" xlink:href="#DejaVuSans-79"/>
     <use x="148.535156" xlink:href="#DejaVuSans-78"/>
     <use x="223.339844" xlink:href="#DejaVuSans-86"/>
    </g>
   </g>
   <g id="text_9">
    <g id="patch_12">
     <path d="M 286.230551 129.357969 
L 327.285238 129.357969 
Q 330.285238 129.357969 330.285238 126.357969 
L 330.285238 105.482031 
Q 330.285238 102.482031 327.285238 102.482031 
L 286.230551 102.482031 
Q 283.230551 102.482031 283.230551 105.482031 
L 283.230551 126.357969 
Q 283.230551 129.357969 286.230551 129.357969 
z
" style="fill:#1f77b4;opacity:0.6;stroke:#000000;stroke-linejoin:miter;"/>
    </g>
    <!-- Channel -->
    <g transform="translate(286.230551 113.080469)scale(0.1 -0.1)">
     <defs>
      <path d="M 54.890625 33.015625 
L 54.890625 0 
L 45.90625 0 
L 45.90625 32.71875 
Q 45.90625 40.484375 42.875 44.328125 
Q 39.84375 48.1875 33.796875 48.1875 
Q 26.515625 48.1875 22.3125 43.546875 
Q 18.109375 38.921875 18.109375 30.90625 
L 18.109375 0 
L 9.078125 0 
L 9.078125 75.984375 
L 18.109375 75.984375 
L 18.109375 46.1875 
Q 21.34375 51.125 25.703125 53.5625 
Q 30.078125 56 35.796875 56 
Q 45.21875 56 50.046875 50.171875 
Q 54.890625 44.34375 54.890625 33.015625 
z
" id="DejaVuSans-104"/>
     </defs>
     <use xlink:href="#DejaVuSans-67"/>
     <use x="69.824219" xlink:href="#DejaVuSans-104"/>
     <use x="133.203125" xlink:href="#DejaVuSans-97"/>
     <use x="194.482422" xlink:href="#DejaVuSans-110"/>
     <use x="257.861328" xlink:href="#DejaVuSans-110"/>
     <use x="321.240234" xlink:href="#DejaVuSans-101"/>
     <use x="382.763672" xlink:href="#DejaVuSans-108"/>
    </g>
    <!-- Concat -->
    <g transform="translate(289.264926 124.278281)scale(0.1 -0.1)">
     <defs>
      <path d="M 48.78125 52.59375 
L 48.78125 44.1875 
Q 44.96875 46.296875 41.140625 47.34375 
Q 37.3125 48.390625 33.40625 48.390625 
Q 24.65625 48.390625 19.8125 42.84375 
Q 14.984375 37.3125 14.984375 27.296875 
Q 14.984375 17.28125 19.8125 11.734375 
Q 24.65625 6.203125 33.40625 6.203125 
Q 37.3125 6.203125 41.140625 7.25 
Q 44.96875 8.296875 48.78125 10.40625 
L 48.78125 2.09375 
Q 45.015625 0.34375 40.984375 -0.53125 
Q 36.96875 -1.421875 32.421875 -1.421875 
Q 20.0625 -1.421875 12.78125 6.34375 
Q 5.515625 14.109375 5.515625 27.296875 
Q 5.515625 40.671875 12.859375 48.328125 
Q 20.21875 56 33.015625 56 
Q 37.15625 56 41.109375 55.140625 
Q 45.0625 54.296875 48.78125 52.59375 
z
" id="DejaVuSans-99"/>
     </defs>
     <use xlink:href="#DejaVuSans-67"/>
     <use x="69.824219" xlink:href="#DejaVuSans-111"/>
     <use x="131.005859" xlink:href="#DejaVuSans-110"/>
     <use x="194.384766" xlink:href="#DejaVuSans-99"/>
     <use x="249.365234" xlink:href="#DejaVuSans-97"/>
     <use x="310.644531" xlink:href="#DejaVuSans-116"/>
    </g>
   </g>
   <g id="patch_13">
    <path d="M 110.041479 146.790829 
Q 88.49767 138.626703 65.908379 130.066386 
" style="fill:none;stroke:#000000;stroke-linecap:round;"/>
    <path d="M 107.009775 143.50316 
L 110.041479 146.790829 
L 105.592321 147.243591 
" style="fill:none;stroke:#000000;stroke-linecap:round;"/>
   </g>
   <g id="patch_14">
    <path d="M 101.092418 190.149885 
Q 83.376931 161.084879 65.079557 131.065196 
" style="fill:none;stroke:#000000;stroke-linecap:round;"/>
    <path d="M 100.718371 185.693419 
L 101.092418 190.149885 
L 97.302817 187.775242 
" style="fill:none;stroke:#000000;stroke-linecap:round;"/>
   </g>
   <g id="patch_15">
    <path d="M 197.94663 147.896471 
Q 174.599527 147.896471 150.13439 147.896471 
" style="fill:none;stroke:#000000;stroke-linecap:round;"/>
    <path d="M 193.94663 145.896471 
L 197.94663 147.896471 
L 193.94663 149.896471 
" style="fill:none;stroke:#000000;stroke-linecap:round;"/>
   </g>
   <g id="patch_16">
    <path d="M 197.94663 83.943529 
Q 174.599527 83.943529 150.13439 83.943529 
" style="fill:none;stroke:#000000;stroke-linecap:round;"/>
    <path d="M 193.94663 81.943529 
L 197.94663 83.943529 
L 193.94663 85.943529 
" style="fill:none;stroke:#000000;stroke-linecap:round;"/>
   </g>
   <g id="patch_17">
    <path d="M 197.945631 20.015402 
Q 108.33141 21.003605 64.986759 100.718902 
" style="fill:none;stroke:#000000;stroke-linecap:round;"/>
    <path d="M 193.92382 18.05963 
L 197.945631 20.015402 
L 193.967927 22.059387 
" style="fill:none;stroke:#000000;stroke-linecap:round;"/>
   </g>
   <g id="patch_18">
    <path d="M 281.686267 113.208973 
Q 259.73511 74.673187 237.230571 35.165925 
" style="fill:none;stroke:#000000;stroke-linecap:round;"/>
    <path d="M 281.444255 108.74339 
L 281.686267 113.208973 
L 277.968594 110.723232 
" style="fill:none;stroke:#000000;stroke-linecap:round;"/>
   </g>
   <g id="patch_19">
    <path d="M 280.329185 114.775344 
Q 259.734674 106.650332 238.100141 98.115007 
" style="fill:none;stroke:#000000;stroke-linecap:round;"/>
    <path d="M 277.342282 111.446919 
L 280.329185 114.775344 
L 275.874304 115.167812 
" style="fill:none;stroke:#000000;stroke-linecap:round;"/>
   </g>
   <g id="patch_20">
    <path d="M 280.329185 117.064656 
Q 259.734674 125.189668 238.100141 133.724993 
" style="fill:none;stroke:#000000;stroke-linecap:round;"/>
    <path d="M 275.874304 116.672188 
L 280.329185 117.064656 
L 277.342282 120.393081 
" style="fill:none;stroke:#000000;stroke-linecap:round;"/>
   </g>
   <g id="patch_21">
    <path d="M 281.686267 118.631027 
Q 259.73511 157.166813 237.230571 196.674075 
" style="fill:none;stroke:#000000;stroke-linecap:round;"/>
    <path d="M 277.968594 121.116768 
L 281.686267 118.631027 
L 281.444255 123.09661 
" style="fill:none;stroke:#000000;stroke-linecap:round;"/>
   </g>
  </g>
 </g>
</svg>
