<?xml version="1.0" encoding="utf-8" standalone="no"?>
<!DOCTYPE svg PUBLIC "-//W3C//DTD SVG 1.1//EN"
  "http://www.w3.org/Graphics/SVG/1.1/DTD/svg11.dtd">
<!-- Created with matplotlib (https://matplotlib.org/) -->
<svg height="177.48pt" version="1.1" viewBox="0 0 598.110526 177.48" width="598.110526pt" xmlns="http://www.w3.org/2000/svg" xmlns:xlink="http://www.w3.org/1999/xlink">
 <metadata>
  <rdf:RDF xmlns:cc="http://creativecommons.org/ns#" xmlns:dc="http://purl.org/dc/elements/1.1/" xmlns:rdf="http://www.w3.org/1999/02/22-rdf-syntax-ns#">
   <cc:Work>
    <dc:type rdf:resource="http://purl.org/dc/dcmitype/StillImage"/>
    <dc:date>2021-05-12T18:35:36.032726</dc:date>
    <dc:format>image/svg+xml</dc:format>
    <dc:creator>
     <cc:Agent>
      <dc:title>Matplotlib v3.3.4, https://matplotlib.org/</dc:title>
     </cc:Agent>
    </dc:creator>
   </cc:Work>
  </rdf:RDF>
 </metadata>
 <defs>
  <style type="text/css">*{stroke-linecap:butt;stroke-linejoin:round;}</style>
 </defs>
 <g id="figure_1">
  <g id="patch_1">
   <path d="M 0 177.48 
L 598.110526 177.48 
L 598.110526 0 
L 0 0 
z
" style="fill:none;"/>
  </g>
  <g id="axes_1">
   <g id="text_1">
    <g id="patch_2">
     <path d="M 8.799474 82.622781 
L 25.179474 82.622781 
Q 29.079474 82.622781 29.079474 78.722781 
L 29.079474 66.141219 
Q 29.079474 62.241219 25.179474 62.241219 
L 8.799474 62.241219 
Q 4.899474 62.241219 4.899474 66.141219 
L 4.899474 78.722781 
Q 4.899474 82.622781 8.799474 82.622781 
z
" style="fill:#ffffff;stroke:#ffffff;stroke-linejoin:miter;"/>
    </g>
    <!-- $a^{[l]}$ -->
    <g transform="translate(8.799474 76.019188)scale(0.13 -0.13)">
     <defs>
      <path d="M 17.390625 -1.125 
Q 11.078125 -1.125 7.4375 3.640625 
Q 3.8125 8.40625 3.8125 14.890625 
Q 3.8125 21.296875 7.125 28.171875 
Q 10.453125 35.0625 16.09375 39.625 
Q 21.734375 44.1875 28.21875 44.1875 
Q 31.203125 44.1875 33.546875 42.578125 
Q 35.890625 40.96875 37.203125 38.1875 
Q 38.328125 42.1875 41.609375 42.1875 
Q 42.875 42.1875 43.71875 41.421875 
Q 44.578125 40.671875 44.578125 39.40625 
Q 44.578125 39.109375 44.546875 38.953125 
Q 44.53125 38.8125 44.484375 38.625 
L 37.5 10.6875 
Q 36.8125 7.71875 36.8125 5.8125 
Q 36.8125 1.515625 39.703125 1.515625 
Q 42.828125 1.515625 44.453125 5.484375 
Q 46.09375 9.46875 47.21875 14.703125 
Q 47.40625 15.28125 48 15.28125 
L 49.21875 15.28125 
Q 49.609375 15.28125 49.84375 14.9375 
Q 50.09375 14.59375 50.09375 14.3125 
Q 48.34375 7.328125 46.265625 3.09375 
Q 44.1875 -1.125 39.5 -1.125 
Q 36.140625 -1.125 33.546875 0.84375 
Q 30.953125 2.828125 30.328125 6.109375 
Q 23.875 -1.125 17.390625 -1.125 
z
M 17.484375 1.515625 
Q 21.09375 1.515625 24.484375 4.21875 
Q 27.875 6.9375 30.328125 10.59375 
Q 30.421875 10.6875 30.421875 10.890625 
L 35.796875 32.625 
L 35.890625 32.90625 
Q 35.296875 36.46875 33.3125 39.03125 
Q 31.34375 41.609375 27.984375 41.609375 
Q 24.609375 41.609375 21.703125 38.84375 
Q 18.796875 36.078125 16.796875 32.328125 
Q 14.84375 28.328125 13.0625 21.34375 
Q 11.28125 14.359375 11.28125 10.5 
Q 11.28125 7.03125 12.765625 4.265625 
Q 14.265625 1.515625 17.484375 1.515625 
z
" id="Cmmi10-97"/>
      <path d="M 11.8125 -25 
L 11.8125 75 
L 25.484375 75 
L 25.484375 71 
L 15.828125 71 
L 15.828125 -21 
L 25.484375 -21 
L 25.484375 -25 
z
" id="Cmr10-91"/>
      <path d="M 4.390625 8.109375 
Q 4.390625 8.40625 4.46875 8.984375 
Q 4.546875 9.578125 4.609375 10.125 
Q 4.6875 10.6875 4.6875 10.984375 
L 17.09375 60.5 
Q 17.484375 62.203125 17.578125 63.1875 
Q 17.578125 64.796875 11.078125 64.796875 
Q 10.109375 64.796875 10.109375 66.109375 
Q 10.15625 66.359375 10.328125 66.984375 
Q 10.5 67.625 10.765625 67.96875 
Q 11.03125 68.3125 11.53125 68.3125 
L 25 69.390625 
Q 26.21875 69.390625 26.21875 68.109375 
L 11.8125 10.59375 
Q 11.078125 8.984375 11.078125 5.8125 
Q 11.078125 1.515625 14.015625 1.515625 
Q 17.09375 1.515625 18.625 5.34375 
Q 20.171875 9.1875 21.390625 14.703125 
Q 21.578125 15.28125 22.21875 15.28125 
L 23.390625 15.28125 
Q 23.78125 15.28125 24.046875 14.96875 
Q 24.3125 14.65625 24.3125 14.3125 
Q 23.140625 9.46875 22.1875 6.65625 
Q 21.234375 3.859375 19.140625 1.359375 
Q 17.046875 -1.125 13.8125 -1.125 
Q 9.8125 -1.125 7.09375 1.453125 
Q 4.390625 4.046875 4.390625 8.109375 
z
" id="Cmmi10-108"/>
      <path d="M 2.203125 -25 
L 2.203125 -21 
L 11.921875 -21 
L 11.921875 71 
L 2.203125 71 
L 2.203125 75 
L 15.921875 75 
L 15.921875 -25 
z
" id="Cmr10-93"/>
     </defs>
     <use transform="translate(0 0.235938)" xlink:href="#Cmmi10-97"/>
     <use transform="translate(59.086484 38.5)scale(0.7)" xlink:href="#Cmr10-91"/>
     <use transform="translate(78.466367 38.5)scale(0.7)" xlink:href="#Cmmi10-108"/>
     <use transform="translate(99.315977 38.5)scale(0.7)" xlink:href="#Cmr10-93"/>
    </g>
   </g>
   <g id="text_2">
    <g id="patch_3">
     <path d="M 79.765419 80.271063 
L 110.845107 80.271063 
Q 113.845107 80.271063 113.845107 77.271063 
L 113.845107 67.592938 
Q 113.845107 64.592938 110.845107 64.592938 
L 79.765419 64.592938 
Q 76.765419 64.592938 76.765419 67.592938 
L 76.765419 77.271063 
Q 76.765419 80.271063 79.765419 80.271063 
z
" style="fill:#ffffff;stroke:#ffffff;stroke-linejoin:miter;"/>
    </g>
    <!-- Linear -->
    <g transform="translate(79.765419 75.191375)scale(0.1 -0.1)">
     <defs>
      <path d="M 9.8125 72.90625 
L 19.671875 72.90625 
L 19.671875 8.296875 
L 55.171875 8.296875 
L 55.171875 0 
L 9.8125 0 
z
" id="DejaVuSans-76"/>
      <path d="M 9.421875 54.6875 
L 18.40625 54.6875 
L 18.40625 0 
L 9.421875 0 
z
M 9.421875 75.984375 
L 18.40625 75.984375 
L 18.40625 64.59375 
L 9.421875 64.59375 
z
" id="DejaVuSans-105"/>
      <path d="M 54.890625 33.015625 
L 54.890625 0 
L 45.90625 0 
L 45.90625 32.71875 
Q 45.90625 40.484375 42.875 44.328125 
Q 39.84375 48.1875 33.796875 48.1875 
Q 26.515625 48.1875 22.3125 43.546875 
Q 18.109375 38.921875 18.109375 30.90625 
L 18.109375 0 
L 9.078125 0 
L 9.078125 54.6875 
L 18.109375 54.6875 
L 18.109375 46.1875 
Q 21.34375 51.125 25.703125 53.5625 
Q 30.078125 56 35.796875 56 
Q 45.21875 56 50.046875 50.171875 
Q 54.890625 44.34375 54.890625 33.015625 
z
" id="DejaVuSans-110"/>
      <path d="M 56.203125 29.59375 
L 56.203125 25.203125 
L 14.890625 25.203125 
Q 15.484375 15.921875 20.484375 11.0625 
Q 25.484375 6.203125 34.421875 6.203125 
Q 39.59375 6.203125 44.453125 7.46875 
Q 49.3125 8.734375 54.109375 11.28125 
L 54.109375 2.78125 
Q 49.265625 0.734375 44.1875 -0.34375 
Q 39.109375 -1.421875 33.890625 -1.421875 
Q 20.796875 -1.421875 13.15625 6.1875 
Q 5.515625 13.8125 5.515625 26.8125 
Q 5.515625 40.234375 12.765625 48.109375 
Q 20.015625 56 32.328125 56 
Q 43.359375 56 49.78125 48.890625 
Q 56.203125 41.796875 56.203125 29.59375 
z
M 47.21875 32.234375 
Q 47.125 39.59375 43.09375 43.984375 
Q 39.0625 48.390625 32.421875 48.390625 
Q 24.90625 48.390625 20.390625 44.140625 
Q 15.875 39.890625 15.1875 32.171875 
z
" id="DejaVuSans-101"/>
      <path d="M 34.28125 27.484375 
Q 23.390625 27.484375 19.1875 25 
Q 14.984375 22.515625 14.984375 16.5 
Q 14.984375 11.71875 18.140625 8.90625 
Q 21.296875 6.109375 26.703125 6.109375 
Q 34.1875 6.109375 38.703125 11.40625 
Q 43.21875 16.703125 43.21875 25.484375 
L 43.21875 27.484375 
z
M 52.203125 31.203125 
L 52.203125 0 
L 43.21875 0 
L 43.21875 8.296875 
Q 40.140625 3.328125 35.546875 0.953125 
Q 30.953125 -1.421875 24.3125 -1.421875 
Q 15.921875 -1.421875 10.953125 3.296875 
Q 6 8.015625 6 15.921875 
Q 6 25.140625 12.171875 29.828125 
Q 18.359375 34.515625 30.609375 34.515625 
L 43.21875 34.515625 
L 43.21875 35.40625 
Q 43.21875 41.609375 39.140625 45 
Q 35.0625 48.390625 27.6875 48.390625 
Q 23 48.390625 18.546875 47.265625 
Q 14.109375 46.140625 10.015625 43.890625 
L 10.015625 52.203125 
Q 14.9375 54.109375 19.578125 55.046875 
Q 24.21875 56 28.609375 56 
Q 40.484375 56 46.34375 49.84375 
Q 52.203125 43.703125 52.203125 31.203125 
z
" id="DejaVuSans-97"/>
      <path d="M 41.109375 46.296875 
Q 39.59375 47.171875 37.8125 47.578125 
Q 36.03125 48 33.890625 48 
Q 26.265625 48 22.1875 43.046875 
Q 18.109375 38.09375 18.109375 28.8125 
L 18.109375 0 
L 9.078125 0 
L 9.078125 54.6875 
L 18.109375 54.6875 
L 18.109375 46.1875 
Q 20.953125 51.171875 25.484375 53.578125 
Q 30.03125 56 36.53125 56 
Q 37.453125 56 38.578125 55.875 
Q 39.703125 55.765625 41.0625 55.515625 
z
" id="DejaVuSans-114"/>
     </defs>
     <use xlink:href="#DejaVuSans-76"/>
     <use x="55.712891" xlink:href="#DejaVuSans-105"/>
     <use x="83.496094" xlink:href="#DejaVuSans-110"/>
     <use x="146.875" xlink:href="#DejaVuSans-101"/>
     <use x="208.398438" xlink:href="#DejaVuSans-97"/>
     <use x="269.677734" xlink:href="#DejaVuSans-114"/>
    </g>
   </g>
   <g id="patch_4">
    <path d="M 73.647859 72.432 
Q 52.922352 72.432 31.078812 72.432 
" style="fill:none;stroke:#000000;stroke-linecap:round;"/>
    <path d="M 69.647859 70.432 
L 73.647859 72.432 
L 69.647859 74.432 
" style="fill:none;stroke:#000000;stroke-linecap:round;"/>
   </g>
   <g id="text_3">
    <g id="patch_5">
     <path d="M 161.099959 80.271063 
L 186.142146 80.271063 
Q 189.142146 80.271063 189.142146 77.271063 
L 189.142146 67.592938 
Q 189.142146 64.592938 186.142146 64.592938 
L 161.099959 64.592938 
Q 158.099959 64.592938 158.099959 67.592938 
L 158.099959 77.271063 
Q 158.099959 80.271063 161.099959 80.271063 
z
" style="fill:#ffffff;stroke:#ffffff;stroke-linejoin:miter;"/>
    </g>
    <!-- ReLU -->
    <g transform="translate(161.099959 75.191375)scale(0.1 -0.1)">
     <defs>
      <path d="M 44.390625 34.1875 
Q 47.5625 33.109375 50.5625 29.59375 
Q 53.5625 26.078125 56.59375 19.921875 
L 66.609375 0 
L 56 0 
L 46.6875 18.703125 
Q 43.0625 26.03125 39.671875 28.421875 
Q 36.28125 30.8125 30.421875 30.8125 
L 19.671875 30.8125 
L 19.671875 0 
L 9.8125 0 
L 9.8125 72.90625 
L 32.078125 72.90625 
Q 44.578125 72.90625 50.734375 67.671875 
Q 56.890625 62.453125 56.890625 51.90625 
Q 56.890625 45.015625 53.6875 40.46875 
Q 50.484375 35.9375 44.390625 34.1875 
z
M 19.671875 64.796875 
L 19.671875 38.921875 
L 32.078125 38.921875 
Q 39.203125 38.921875 42.84375 42.21875 
Q 46.484375 45.515625 46.484375 51.90625 
Q 46.484375 58.296875 42.84375 61.546875 
Q 39.203125 64.796875 32.078125 64.796875 
z
" id="DejaVuSans-82"/>
      <path d="M 8.6875 72.90625 
L 18.609375 72.90625 
L 18.609375 28.609375 
Q 18.609375 16.890625 22.84375 11.734375 
Q 27.09375 6.59375 36.625 6.59375 
Q 46.09375 6.59375 50.34375 11.734375 
Q 54.59375 16.890625 54.59375 28.609375 
L 54.59375 72.90625 
L 64.5 72.90625 
L 64.5 27.390625 
Q 64.5 13.140625 57.4375 5.859375 
Q 50.390625 -1.421875 36.625 -1.421875 
Q 22.796875 -1.421875 15.734375 5.859375 
Q 8.6875 13.140625 8.6875 27.390625 
z
" id="DejaVuSans-85"/>
     </defs>
     <use xlink:href="#DejaVuSans-82"/>
     <use x="64.982422" xlink:href="#DejaVuSans-101"/>
     <use x="126.505859" xlink:href="#DejaVuSans-76"/>
     <use x="177.21875" xlink:href="#DejaVuSans-85"/>
    </g>
   </g>
   <g id="patch_6">
    <path d="M 154.980408 72.432 
Q 135.971114 72.432 115.843785 72.432 
" style="fill:none;stroke:#000000;stroke-linecap:round;"/>
    <path d="M 150.980408 70.432 
L 154.980408 72.432 
L 150.980408 74.432 
" style="fill:none;stroke:#000000;stroke-linecap:round;"/>
   </g>
   <g id="text_4">
    <g id="patch_7">
     <path d="M 236.336842 82.622781 
L 267.536842 82.622781 
Q 271.436842 82.622781 271.436842 78.722781 
L 271.436842 66.141219 
Q 271.436842 62.241219 267.536842 62.241219 
L 236.336842 62.241219 
Q 232.436842 62.241219 232.436842 66.141219 
L 232.436842 78.722781 
Q 232.436842 82.622781 236.336842 82.622781 
z
" style="fill:#ffffff;stroke:#ffffff;stroke-linejoin:miter;"/>
    </g>
    <!-- $a^{[l+1]}$ -->
    <g transform="translate(236.336842 76.019188)scale(0.13 -0.13)">
     <defs>
      <path d="M 7.515625 23 
Q 6.6875 23 6.140625 23.625 
Q 5.609375 24.265625 5.609375 25 
Q 5.609375 25.734375 6.140625 26.359375 
Q 6.6875 27 7.515625 27 
L 36.921875 27 
L 36.921875 56.5 
Q 36.921875 57.28125 37.5 57.78125 
Q 38.09375 58.296875 38.921875 58.296875 
Q 39.65625 58.296875 40.28125 57.78125 
Q 40.921875 57.28125 40.921875 56.5 
L 40.921875 27 
L 70.3125 27 
Q 71.046875 27 71.578125 26.359375 
Q 72.125 25.734375 72.125 25 
Q 72.125 24.265625 71.578125 23.625 
Q 71.046875 23 70.3125 23 
L 40.921875 23 
L 40.921875 -6.5 
Q 40.921875 -7.28125 40.28125 -7.78125 
Q 39.65625 -8.296875 38.921875 -8.296875 
Q 38.09375 -8.296875 37.5 -7.78125 
Q 36.921875 -7.28125 36.921875 -6.5 
L 36.921875 23 
z
" id="Cmr10-43"/>
      <path d="M 9.28125 0 
L 9.28125 3.515625 
Q 21.78125 3.515625 21.78125 6.6875 
L 21.78125 59.1875 
Q 16.609375 56.6875 8.6875 56.6875 
L 8.6875 60.203125 
Q 20.953125 60.203125 27.203125 66.609375 
L 28.609375 66.609375 
Q 28.953125 66.609375 29.265625 66.328125 
Q 29.59375 66.0625 29.59375 65.71875 
L 29.59375 6.6875 
Q 29.59375 3.515625 42.09375 3.515625 
L 42.09375 0 
z
" id="Cmr10-49"/>
     </defs>
     <use transform="translate(0 0.235938)" xlink:href="#Cmmi10-97"/>
     <use transform="translate(59.086484 38.5)scale(0.7)" xlink:href="#Cmr10-91"/>
     <use transform="translate(78.466367 38.5)scale(0.7)" xlink:href="#Cmmi10-108"/>
     <use transform="translate(111.606992 38.5)scale(0.7)" xlink:href="#Cmr10-43"/>
     <use transform="translate(178.277891 38.5)scale(0.7)" xlink:href="#Cmr10-49"/>
     <use transform="translate(213.277891 38.5)scale(0.7)" xlink:href="#Cmr10-93"/>
    </g>
   </g>
   <g id="patch_8">
    <path d="M 229.318437 72.432 
Q 210.788649 72.432 191.140828 72.432 
" style="fill:none;stroke:#000000;stroke-linecap:round;"/>
    <path d="M 225.318437 70.432 
L 229.318437 72.432 
L 225.318437 74.432 
" style="fill:none;stroke:#000000;stroke-linecap:round;"/>
   </g>
   <g id="text_5">
    <g id="patch_9">
     <path d="M 383.239104 80.271063 
L 414.318791 80.271063 
Q 417.318791 80.271063 417.318791 77.271063 
L 417.318791 67.592938 
Q 417.318791 64.592938 414.318791 64.592938 
L 383.239104 64.592938 
Q 380.239104 64.592938 380.239104 67.592938 
L 380.239104 77.271063 
Q 380.239104 80.271063 383.239104 80.271063 
z
" style="fill:#ffffff;stroke:#ffffff;stroke-linejoin:miter;"/>
    </g>
    <!-- Linear -->
    <g transform="translate(383.239104 75.191375)scale(0.1 -0.1)">
     <use xlink:href="#DejaVuSans-76"/>
     <use x="55.712891" xlink:href="#DejaVuSans-105"/>
     <use x="83.496094" xlink:href="#DejaVuSans-110"/>
     <use x="146.875" xlink:href="#DejaVuSans-101"/>
     <use x="208.398438" xlink:href="#DejaVuSans-97"/>
     <use x="269.677734" xlink:href="#DejaVuSans-114"/>
    </g>
   </g>
   <g id="patch_10">
    <path d="M 377.11888 72.432 
Q 325.835847 72.432 273.43478 72.432 
" style="fill:none;stroke:#000000;stroke-linecap:round;"/>
    <path d="M 373.11888 70.432 
L 377.11888 72.432 
L 373.11888 74.432 
" style="fill:none;stroke:#000000;stroke-linecap:round;"/>
   </g>
   <g id="text_6">
    <g id="patch_11">
     <path d="M 464.573643 80.271063 
L 489.615831 80.271063 
Q 492.615831 80.271063 492.615831 77.271063 
L 492.615831 67.592938 
Q 492.615831 64.592938 489.615831 64.592938 
L 464.573643 64.592938 
Q 461.573643 64.592938 461.573643 67.592938 
L 461.573643 77.271063 
Q 461.573643 80.271063 464.573643 80.271063 
z
" style="fill:#ffffff;stroke:#ffffff;stroke-linejoin:miter;"/>
    </g>
    <!-- ReLU -->
    <g transform="translate(464.573643 75.191375)scale(0.1 -0.1)">
     <use xlink:href="#DejaVuSans-82"/>
     <use x="64.982422" xlink:href="#DejaVuSans-101"/>
     <use x="126.505859" xlink:href="#DejaVuSans-76"/>
     <use x="177.21875" xlink:href="#DejaVuSans-85"/>
    </g>
   </g>
   <g id="patch_12">
    <path d="M 458.454093 72.432 
Q 439.444798 72.432 419.317469 72.432 
" style="fill:none;stroke:#000000;stroke-linecap:round;"/>
    <path d="M 454.454093 70.432 
L 458.454093 72.432 
L 454.454093 74.432 
" style="fill:none;stroke:#000000;stroke-linecap:round;"/>
   </g>
   <g id="text_7">
    <g id="patch_13">
     <path d="M 539.810526 82.622781 
L 571.010526 82.622781 
Q 574.910526 82.622781 574.910526 78.722781 
L 574.910526 66.141219 
Q 574.910526 62.241219 571.010526 62.241219 
L 539.810526 62.241219 
Q 535.910526 62.241219 535.910526 66.141219 
L 535.910526 78.722781 
Q 535.910526 82.622781 539.810526 82.622781 
z
" style="fill:#ffffff;stroke:#ffffff;stroke-linejoin:miter;"/>
    </g>
    <!-- $a^{[l+2]}$ -->
    <g transform="translate(539.810526 76.019188)scale(0.13 -0.13)">
     <defs>
      <path d="M 4.984375 0 
L 4.984375 2.6875 
Q 4.984375 2.9375 5.171875 3.21875 
L 20.703125 20.40625 
Q 24.21875 24.21875 26.40625 26.796875 
Q 28.609375 29.390625 30.75 32.765625 
Q 32.90625 36.140625 34.15625 39.625 
Q 35.40625 43.109375 35.40625 47.015625 
Q 35.40625 51.125 33.890625 54.859375 
Q 32.375 58.59375 29.375 60.84375 
Q 26.375 63.09375 22.125 63.09375 
Q 17.78125 63.09375 14.3125 60.46875 
Q 10.84375 57.859375 9.421875 53.71875 
Q 9.8125 53.8125 10.5 53.8125 
Q 12.75 53.8125 14.328125 52.296875 
Q 15.921875 50.78125 15.921875 48.390625 
Q 15.921875 46.09375 14.328125 44.5 
Q 12.75 42.921875 10.5 42.921875 
Q 8.15625 42.921875 6.5625 44.546875 
Q 4.984375 46.1875 4.984375 48.390625 
Q 4.984375 52.15625 6.390625 55.4375 
Q 7.8125 58.734375 10.46875 61.296875 
Q 13.140625 63.875 16.484375 65.234375 
Q 19.828125 66.609375 23.578125 66.609375 
Q 29.296875 66.609375 34.21875 64.1875 
Q 39.15625 61.765625 42.03125 57.34375 
Q 44.921875 52.9375 44.921875 47.015625 
Q 44.921875 42.671875 43.015625 38.765625 
Q 41.109375 34.859375 38.125 31.65625 
Q 35.15625 28.46875 30.515625 24.40625 
Q 25.875 20.359375 24.421875 19 
L 13.09375 8.109375 
L 22.703125 8.109375 
Q 29.78125 8.109375 34.546875 8.21875 
Q 39.3125 8.34375 39.59375 8.59375 
Q 40.765625 9.859375 42 17.828125 
L 44.921875 17.828125 
L 42.09375 0 
z
" id="Cmr10-50"/>
     </defs>
     <use transform="translate(0 0.235938)" xlink:href="#Cmmi10-97"/>
     <use transform="translate(59.086484 38.5)scale(0.7)" xlink:href="#Cmr10-91"/>
     <use transform="translate(78.466367 38.5)scale(0.7)" xlink:href="#Cmmi10-108"/>
     <use transform="translate(111.606992 38.5)scale(0.7)" xlink:href="#Cmr10-43"/>
     <use transform="translate(178.277891 38.5)scale(0.7)" xlink:href="#Cmr10-50"/>
     <use transform="translate(213.277891 38.5)scale(0.7)" xlink:href="#Cmr10-93"/>
    </g>
   </g>
   <g id="patch_14">
    <path d="M 532.792121 72.432 
Q 514.262334 72.432 494.614512 72.432 
" style="fill:none;stroke:#000000;stroke-linecap:round;"/>
    <path d="M 528.792121 70.432 
L 532.792121 72.432 
L 528.792121 74.432 
" style="fill:none;stroke:#000000;stroke-linecap:round;"/>
   </g>
   <g id="patch_15">
    <path d="M 461.573643 69.315687 
L 461.573643 29.182583 
L 29.079474 29.182583 
L 29.079474 70.433721 
" style="fill:none;stroke:#000000;stroke-linecap:round;"/>
    <path d="M 463.573643 65.315687 
L 461.573643 69.315687 
L 459.573643 65.315687 
" style="fill:none;stroke:#000000;stroke-linecap:round;"/>
   </g>
   <g id="text_8">
    <!-- short cut / skip connection		$a^{[l+2]}=g(z^{[l+2]}+a^{[l]})$ -->
    <g transform="translate(111.876558 24.232356)scale(0.1 -0.1)">
     <defs>
      <path d="M 44.28125 53.078125 
L 44.28125 44.578125 
Q 40.484375 46.53125 36.375 47.5 
Q 32.28125 48.484375 27.875 48.484375 
Q 21.1875 48.484375 17.84375 46.4375 
Q 14.5 44.390625 14.5 40.28125 
Q 14.5 37.15625 16.890625 35.375 
Q 19.28125 33.59375 26.515625 31.984375 
L 29.59375 31.296875 
Q 39.15625 29.25 43.1875 25.515625 
Q 47.21875 21.78125 47.21875 15.09375 
Q 47.21875 7.46875 41.1875 3.015625 
Q 35.15625 -1.421875 24.609375 -1.421875 
Q 20.21875 -1.421875 15.453125 -0.5625 
Q 10.6875 0.296875 5.421875 2 
L 5.421875 11.28125 
Q 10.40625 8.6875 15.234375 7.390625 
Q 20.0625 6.109375 24.8125 6.109375 
Q 31.15625 6.109375 34.5625 8.28125 
Q 37.984375 10.453125 37.984375 14.40625 
Q 37.984375 18.0625 35.515625 20.015625 
Q 33.0625 21.96875 24.703125 23.78125 
L 21.578125 24.515625 
Q 13.234375 26.265625 9.515625 29.90625 
Q 5.8125 33.546875 5.8125 39.890625 
Q 5.8125 47.609375 11.28125 51.796875 
Q 16.75 56 26.8125 56 
Q 31.78125 56 36.171875 55.265625 
Q 40.578125 54.546875 44.28125 53.078125 
z
" id="DejaVuSans-115"/>
      <path d="M 54.890625 33.015625 
L 54.890625 0 
L 45.90625 0 
L 45.90625 32.71875 
Q 45.90625 40.484375 42.875 44.328125 
Q 39.84375 48.1875 33.796875 48.1875 
Q 26.515625 48.1875 22.3125 43.546875 
Q 18.109375 38.921875 18.109375 30.90625 
L 18.109375 0 
L 9.078125 0 
L 9.078125 75.984375 
L 18.109375 75.984375 
L 18.109375 46.1875 
Q 21.34375 51.125 25.703125 53.5625 
Q 30.078125 56 35.796875 56 
Q 45.21875 56 50.046875 50.171875 
Q 54.890625 44.34375 54.890625 33.015625 
z
" id="DejaVuSans-104"/>
      <path d="M 30.609375 48.390625 
Q 23.390625 48.390625 19.1875 42.75 
Q 14.984375 37.109375 14.984375 27.296875 
Q 14.984375 17.484375 19.15625 11.84375 
Q 23.34375 6.203125 30.609375 6.203125 
Q 37.796875 6.203125 41.984375 11.859375 
Q 46.1875 17.53125 46.1875 27.296875 
Q 46.1875 37.015625 41.984375 42.703125 
Q 37.796875 48.390625 30.609375 48.390625 
z
M 30.609375 56 
Q 42.328125 56 49.015625 48.375 
Q 55.71875 40.765625 55.71875 27.296875 
Q 55.71875 13.875 49.015625 6.21875 
Q 42.328125 -1.421875 30.609375 -1.421875 
Q 18.84375 -1.421875 12.171875 6.21875 
Q 5.515625 13.875 5.515625 27.296875 
Q 5.515625 40.765625 12.171875 48.375 
Q 18.84375 56 30.609375 56 
z
" id="DejaVuSans-111"/>
      <path d="M 18.3125 70.21875 
L 18.3125 54.6875 
L 36.8125 54.6875 
L 36.8125 47.703125 
L 18.3125 47.703125 
L 18.3125 18.015625 
Q 18.3125 11.328125 20.140625 9.421875 
Q 21.96875 7.515625 27.59375 7.515625 
L 36.8125 7.515625 
L 36.8125 0 
L 27.59375 0 
Q 17.1875 0 13.234375 3.875 
Q 9.28125 7.765625 9.28125 18.015625 
L 9.28125 47.703125 
L 2.6875 47.703125 
L 2.6875 54.6875 
L 9.28125 54.6875 
L 9.28125 70.21875 
z
" id="DejaVuSans-116"/>
      <path id="DejaVuSans-32"/>
      <path d="M 48.78125 52.59375 
L 48.78125 44.1875 
Q 44.96875 46.296875 41.140625 47.34375 
Q 37.3125 48.390625 33.40625 48.390625 
Q 24.65625 48.390625 19.8125 42.84375 
Q 14.984375 37.3125 14.984375 27.296875 
Q 14.984375 17.28125 19.8125 11.734375 
Q 24.65625 6.203125 33.40625 6.203125 
Q 37.3125 6.203125 41.140625 7.25 
Q 44.96875 8.296875 48.78125 10.40625 
L 48.78125 2.09375 
Q 45.015625 0.34375 40.984375 -0.53125 
Q 36.96875 -1.421875 32.421875 -1.421875 
Q 20.0625 -1.421875 12.78125 6.34375 
Q 5.515625 14.109375 5.515625 27.296875 
Q 5.515625 40.671875 12.859375 48.328125 
Q 20.21875 56 33.015625 56 
Q 37.15625 56 41.109375 55.140625 
Q 45.0625 54.296875 48.78125 52.59375 
z
" id="DejaVuSans-99"/>
      <path d="M 8.5 21.578125 
L 8.5 54.6875 
L 17.484375 54.6875 
L 17.484375 21.921875 
Q 17.484375 14.15625 20.5 10.265625 
Q 23.53125 6.390625 29.59375 6.390625 
Q 36.859375 6.390625 41.078125 11.03125 
Q 45.3125 15.671875 45.3125 23.6875 
L 45.3125 54.6875 
L 54.296875 54.6875 
L 54.296875 0 
L 45.3125 0 
L 45.3125 8.40625 
Q 42.046875 3.421875 37.71875 1 
Q 33.40625 -1.421875 27.6875 -1.421875 
Q 18.265625 -1.421875 13.375 4.4375 
Q 8.5 10.296875 8.5 21.578125 
z
M 31.109375 56 
z
" id="DejaVuSans-117"/>
      <path d="M 25.390625 72.90625 
L 33.6875 72.90625 
L 8.296875 -9.28125 
L 0 -9.28125 
z
" id="DejaVuSans-47"/>
      <path d="M 9.078125 75.984375 
L 18.109375 75.984375 
L 18.109375 31.109375 
L 44.921875 54.6875 
L 56.390625 54.6875 
L 27.390625 29.109375 
L 57.625 0 
L 45.90625 0 
L 18.109375 26.703125 
L 18.109375 0 
L 9.078125 0 
z
" id="DejaVuSans-107"/>
      <path d="M 18.109375 8.203125 
L 18.109375 -20.796875 
L 9.078125 -20.796875 
L 9.078125 54.6875 
L 18.109375 54.6875 
L 18.109375 46.390625 
Q 20.953125 51.265625 25.265625 53.625 
Q 29.59375 56 35.59375 56 
Q 45.5625 56 51.78125 48.09375 
Q 58.015625 40.1875 58.015625 27.296875 
Q 58.015625 14.40625 51.78125 6.484375 
Q 45.5625 -1.421875 35.59375 -1.421875 
Q 29.59375 -1.421875 25.265625 0.953125 
Q 20.953125 3.328125 18.109375 8.203125 
z
M 48.6875 27.296875 
Q 48.6875 37.203125 44.609375 42.84375 
Q 40.53125 48.484375 33.40625 48.484375 
Q 26.265625 48.484375 22.1875 42.84375 
Q 18.109375 37.203125 18.109375 27.296875 
Q 18.109375 17.390625 22.1875 11.75 
Q 26.265625 6.109375 33.40625 6.109375 
Q 40.53125 6.109375 44.609375 11.75 
Q 48.6875 17.390625 48.6875 27.296875 
z
" id="DejaVuSans-112"/>
      <path d="M 7.515625 13.28125 
Q 6.6875 13.28125 6.140625 13.90625 
Q 5.609375 14.546875 5.609375 15.28125 
Q 5.609375 16.109375 6.140625 16.6875 
Q 6.6875 17.28125 7.515625 17.28125 
L 70.3125 17.28125 
Q 71.046875 17.28125 71.578125 16.6875 
Q 72.125 16.109375 72.125 15.28125 
Q 72.125 14.546875 71.578125 13.90625 
Q 71.046875 13.28125 70.3125 13.28125 
z
M 7.515625 32.71875 
Q 6.6875 32.71875 6.140625 33.296875 
Q 5.609375 33.890625 5.609375 34.71875 
Q 5.609375 35.453125 6.140625 36.078125 
Q 6.6875 36.71875 7.515625 36.71875 
L 70.3125 36.71875 
Q 71.046875 36.71875 71.578125 36.078125 
Q 72.125 35.453125 72.125 34.71875 
Q 72.125 33.890625 71.578125 33.296875 
Q 71.046875 32.71875 70.3125 32.71875 
z
" id="Cmr10-61"/>
      <path d="M 1.421875 -14.3125 
Q 1.421875 -11.859375 3.09375 -10.03125 
Q 4.78125 -8.203125 7.171875 -8.203125 
Q 8.796875 -8.203125 9.890625 -9.203125 
Q 10.984375 -10.203125 10.984375 -11.8125 
Q 10.984375 -13.625 9.953125 -15.0625 
Q 8.9375 -16.5 7.328125 -17.09375 
Q 10.015625 -17.921875 15.71875 -17.921875 
Q 20.3125 -17.921875 24.125 -14.375 
Q 27.9375 -10.84375 29.109375 -6.203125 
L 31.984375 5.515625 
Q 26.5625 0 20.703125 0 
Q 16.40625 0 13.34375 2.1875 
Q 10.296875 4.390625 8.6875 8.046875 
Q 7.078125 11.71875 7.078125 15.828125 
Q 7.078125 20.40625 8.953125 25.4375 
Q 10.84375 30.46875 14.234375 34.765625 
Q 17.625 39.0625 22.015625 41.625 
Q 26.421875 44.1875 31.296875 44.1875 
Q 34.234375 44.1875 36.578125 42.578125 
Q 38.921875 40.96875 40.28125 38.28125 
Q 41.265625 42.1875 44.578125 42.1875 
Q 45.84375 42.1875 46.71875 41.421875 
Q 47.609375 40.671875 47.609375 39.40625 
Q 47.609375 39.109375 47.578125 38.953125 
Q 47.5625 38.8125 47.515625 38.625 
L 36.078125 -6.78125 
Q 35.296875 -9.90625 33.203125 -12.5 
Q 31.109375 -15.09375 28.265625 -16.828125 
Q 25.4375 -18.5625 22.0625 -19.53125 
Q 18.703125 -20.515625 15.578125 -20.515625 
Q 9.859375 -20.515625 5.640625 -19.40625 
Q 1.421875 -18.3125 1.421875 -14.3125 
z
M 20.90625 2.59375 
Q 27.296875 2.59375 33.5 11.375 
L 39.015625 33.203125 
Q 38.328125 36.671875 36.28125 39.140625 
Q 34.234375 41.609375 31.109375 41.609375 
Q 27.78125 41.609375 24.828125 38.890625 
Q 21.875 36.1875 19.921875 32.421875 
Q 18.0625 28.8125 16.328125 22.046875 
Q 14.59375 15.28125 14.59375 11.375 
Q 14.59375 7.953125 16.15625 5.265625 
Q 17.71875 2.59375 20.90625 2.59375 
z
" id="Cmmi10-103"/>
      <path d="M 31 -24.8125 
Q 25.4375 -20.40625 21.40625 -14.71875 
Q 17.390625 -9.03125 14.8125 -2.578125 
Q 12.25 3.859375 10.984375 10.890625 
Q 9.71875 17.921875 9.71875 25 
Q 9.71875 32.171875 10.984375 39.203125 
Q 12.25 46.234375 14.859375 52.734375 
Q 17.484375 59.234375 21.53125 64.890625 
Q 25.59375 70.5625 31 74.8125 
Q 31 75 31.5 75 
L 32.421875 75 
Q 32.71875 75 32.953125 74.734375 
Q 33.203125 74.46875 33.203125 74.125 
Q 33.203125 73.6875 33.015625 73.484375 
Q 28.125 68.703125 24.875 63.234375 
Q 21.625 57.765625 19.640625 51.578125 
Q 17.671875 45.40625 16.796875 38.78125 
Q 15.921875 32.171875 15.921875 25 
Q 15.921875 -6.78125 32.90625 -23.296875 
Q 33.203125 -23.578125 33.203125 -24.125 
Q 33.203125 -24.359375 32.9375 -24.671875 
Q 32.671875 -25 32.421875 -25 
L 31.5 -25 
Q 31 -25 31 -24.8125 
z
" id="Cmr10-40"/>
      <path d="M 4.890625 -1.125 
Q 4.109375 -1.125 4.109375 -0.203125 
Q 4.109375 0.296875 4.296875 0.484375 
Q 6.984375 5.125 10.765625 9.34375 
Q 14.546875 13.578125 19.359375 17.890625 
Q 24.171875 22.21875 29.03125 26.5625 
Q 33.890625 30.90625 36.921875 34.28125 
L 36.53125 34.28125 
Q 34.328125 34.28125 30.078125 35.6875 
Q 25.828125 37.109375 23.390625 37.109375 
Q 20.75 37.109375 18.25 35.953125 
Q 15.765625 34.8125 15.09375 32.421875 
Q 14.9375 31.6875 14.3125 31.6875 
L 13.09375 31.6875 
Q 12.3125 31.6875 12.3125 32.71875 
L 12.3125 33.015625 
Q 13.09375 35.9375 14.875 38.46875 
Q 16.65625 41.015625 19.265625 42.59375 
Q 21.875 44.1875 24.703125 44.1875 
Q 26.703125 44.1875 28.015625 43.28125 
Q 29.34375 42.390625 31.09375 40.484375 
Q 32.859375 38.578125 33.953125 37.75 
Q 35.0625 36.921875 36.71875 36.921875 
Q 38.921875 36.921875 40.65625 38.921875 
Q 42.390625 40.921875 44.09375 43.890625 
Q 44.390625 44.1875 44.828125 44.1875 
L 46 44.1875 
Q 46.34375 44.1875 46.5625 43.9375 
Q 46.78125 43.703125 46.78125 43.3125 
Q 46.78125 42.96875 46.578125 42.671875 
Q 43.890625 38.03125 40.296875 34 
Q 36.71875 29.984375 30.921875 24.78125 
Q 25.140625 19.578125 21.15625 15.984375 
Q 17.1875 12.40625 13.71875 8.59375 
Q 14.5 8.796875 15.828125 8.796875 
Q 18.265625 8.796875 22.484375 7.390625 
Q 26.703125 6 29 6 
Q 31.5 6 34.03125 7.078125 
Q 36.578125 8.15625 38.421875 10.109375 
Q 40.28125 12.0625 40.921875 14.59375 
Q 41.15625 15.28125 41.703125 15.28125 
L 42.921875 15.28125 
Q 43.3125 15.28125 43.546875 14.96875 
Q 43.796875 14.65625 43.796875 14.3125 
Q 43.796875 14.203125 43.703125 14.015625 
Q 42.78125 10.203125 40.484375 6.765625 
Q 38.1875 3.328125 34.84375 1.09375 
Q 31.5 -1.125 27.6875 -1.125 
Q 25.78125 -1.125 24.453125 -0.234375 
Q 23.140625 0.640625 21.359375 2.5625 
Q 19.578125 4.5 18.453125 5.34375 
Q 17.328125 6.203125 15.71875 6.203125 
Q 10.75 6.203125 6.78125 -0.78125 
Q 6.453125 -1.125 6.109375 -1.125 
z
" id="Cmmi10-122"/>
      <path d="M 6.5 -25 
Q 5.609375 -25 5.609375 -24.125 
Q 5.609375 -23.6875 5.8125 -23.484375 
Q 22.90625 -6.78125 22.90625 25 
Q 22.90625 56.78125 6 73.296875 
Q 5.609375 73.53125 5.609375 74.125 
Q 5.609375 74.46875 5.875 74.734375 
Q 6.15625 75 6.5 75 
L 7.421875 75 
Q 7.71875 75 7.90625 74.8125 
Q 15.09375 69.140625 19.875 61.03125 
Q 24.65625 52.9375 26.875 43.75 
Q 29.109375 34.578125 29.109375 25 
Q 29.109375 17.921875 27.90625 11.0625 
Q 26.703125 4.203125 24.09375 -2.453125 
Q 21.484375 -9.125 17.484375 -14.765625 
Q 13.484375 -20.40625 7.90625 -24.8125 
Q 7.71875 -25 7.421875 -25 
z
" id="Cmr10-41"/>
     </defs>
     <use transform="translate(0 0.235938)" xlink:href="#DejaVuSans-115"/>
     <use transform="translate(52.099609 0.235938)" xlink:href="#DejaVuSans-104"/>
     <use transform="translate(115.478516 0.235938)" xlink:href="#DejaVuSans-111"/>
     <use transform="translate(176.660156 0.235938)" xlink:href="#DejaVuSans-114"/>
     <use transform="translate(217.773438 0.235938)" xlink:href="#DejaVuSans-116"/>
     <use transform="translate(256.982422 0.235938)" xlink:href="#DejaVuSans-32"/>
     <use transform="translate(288.769531 0.235938)" xlink:href="#DejaVuSans-99"/>
     <use transform="translate(343.75 0.235938)" xlink:href="#DejaVuSans-117"/>
     <use transform="translate(407.128906 0.235938)" xlink:href="#DejaVuSans-116"/>
     <use transform="translate(446.337891 0.235938)" xlink:href="#DejaVuSans-32"/>
     <use transform="translate(478.125 0.235938)" xlink:href="#DejaVuSans-47"/>
     <use transform="translate(511.816406 0.235938)" xlink:href="#DejaVuSans-32"/>
     <use transform="translate(543.603516 0.235938)" xlink:href="#DejaVuSans-115"/>
     <use transform="translate(595.703125 0.235938)" xlink:href="#DejaVuSans-107"/>
     <use transform="translate(653.613281 0.235938)" xlink:href="#DejaVuSans-105"/>
     <use transform="translate(681.396484 0.235938)" xlink:href="#DejaVuSans-112"/>
     <use transform="translate(744.873047 0.235938)" xlink:href="#DejaVuSans-32"/>
     <use transform="translate(776.660156 0.235938)" xlink:href="#DejaVuSans-99"/>
     <use transform="translate(831.640625 0.235938)" xlink:href="#DejaVuSans-111"/>
     <use transform="translate(892.822266 0.235938)" xlink:href="#DejaVuSans-110"/>
     <use transform="translate(956.201172 0.235938)" xlink:href="#DejaVuSans-110"/>
     <use transform="translate(1019.580078 0.235938)" xlink:href="#DejaVuSans-101"/>
     <use transform="translate(1081.103516 0.235938)" xlink:href="#DejaVuSans-99"/>
     <use transform="translate(1136.083984 0.235938)" xlink:href="#DejaVuSans-116"/>
     <use transform="translate(1175.292969 0.235938)" xlink:href="#DejaVuSans-105"/>
     <use transform="translate(1203.076172 0.235938)" xlink:href="#DejaVuSans-111"/>
     <use transform="translate(1264.257812 0.235938)" xlink:href="#DejaVuSans-110"/>
     <use transform="translate(1327.636719 0.235938)" xlink:href="#DejaVuSans-32"/>
     <use transform="translate(1359.423828 0.235938)" xlink:href="#DejaVuSans-32"/>
     <use transform="translate(1391.210938 0.235938)" xlink:href="#DejaVuSans-32"/>
     <use transform="translate(1422.998047 0.235938)" xlink:href="#DejaVuSans-32"/>
     <use transform="translate(1454.785156 0.235938)" xlink:href="#DejaVuSans-32"/>
     <use transform="translate(1486.572266 0.235938)" xlink:href="#DejaVuSans-32"/>
     <use transform="translate(1518.359375 0.235938)" xlink:href="#DejaVuSans-32"/>
     <use transform="translate(1550.146484 0.235938)" xlink:href="#DejaVuSans-32"/>
     <use transform="translate(1581.933594 0.235938)" xlink:href="#DejaVuSans-32"/>
     <use transform="translate(1613.720703 0.235938)" xlink:href="#DejaVuSans-32"/>
     <use transform="translate(1645.507812 0.235938)" xlink:href="#DejaVuSans-32"/>
     <use transform="translate(1677.294922 0.235938)" xlink:href="#DejaVuSans-32"/>
     <use transform="translate(1709.082031 0.235938)" xlink:href="#DejaVuSans-32"/>
     <use transform="translate(1740.869141 0.235938)" xlink:href="#Cmmi10-97"/>
     <use transform="translate(1799.955625 38.5)scale(0.7)" xlink:href="#Cmr10-91"/>
     <use transform="translate(1819.335508 38.5)scale(0.7)" xlink:href="#Cmmi10-108"/>
     <use transform="translate(1852.476133 38.5)scale(0.7)" xlink:href="#Cmr10-43"/>
     <use transform="translate(1919.147031 38.5)scale(0.7)" xlink:href="#Cmr10-50"/>
     <use transform="translate(1954.147031 38.5)scale(0.7)" xlink:href="#Cmr10-93"/>
     <use transform="translate(1997.462852 0.235938)" xlink:href="#Cmr10-61"/>
     <use transform="translate(2092.706992 0.235938)" xlink:href="#Cmmi10-103"/>
     <use transform="translate(2140.41207 0.235938)" xlink:href="#Cmr10-40"/>
     <use transform="translate(2179.23043 0.235938)" xlink:href="#Cmmi10-122"/>
     <use transform="translate(2232.018086 38.5)scale(0.7)" xlink:href="#Cmr10-91"/>
     <use transform="translate(2251.397969 38.5)scale(0.7)" xlink:href="#Cmmi10-108"/>
     <use transform="translate(2284.538594 38.5)scale(0.7)" xlink:href="#Cmr10-43"/>
     <use transform="translate(2351.209492 38.5)scale(0.7)" xlink:href="#Cmr10-50"/>
     <use transform="translate(2386.209492 38.5)scale(0.7)" xlink:href="#Cmr10-93"/>
     <use transform="translate(2429.525312 0.235938)" xlink:href="#Cmr10-43"/>
     <use transform="translate(2524.769453 0.235938)" xlink:href="#Cmmi10-97"/>
     <use transform="translate(2583.855937 38.5)scale(0.7)" xlink:href="#Cmr10-91"/>
     <use transform="translate(2603.23582 38.5)scale(0.7)" xlink:href="#Cmmi10-108"/>
     <use transform="translate(2624.08543 38.5)scale(0.7)" xlink:href="#Cmr10-93"/>
     <use transform="translate(2649.842656 0.235938)" xlink:href="#Cmr10-41"/>
    </g>
   </g>
   <g id="text_9">
    <g id="patch_16">
     <path d="M 40.105263 113.048 
L 150.505263 113.048 
Q 153.505263 113.048 153.505263 110.048 
L 153.505263 100.048 
Q 153.505263 97.048 150.505263 97.048 
L 40.105263 97.048 
Q 37.105263 97.048 37.105263 100.048 
L 37.105263 110.048 
Q 37.105263 113.048 40.105263 113.048 
z
" style="fill:#ffffff;stroke:#ffffff;stroke-linejoin:miter;"/>
    </g>
    <!-- $z^{[l+1]}=W^{[l+1]}a^{[l]}+b^{[l+1]}$ -->
    <g transform="translate(40.105263 107.968313)scale(0.1 -0.1)">
     <defs>
      <path d="M 17.828125 -1.125 
L 13.1875 62.59375 
Q 12.84375 64.0625 10.984375 64.421875 
Q 9.125 64.796875 6.390625 64.796875 
Q 5.421875 64.796875 5.421875 66.109375 
Q 5.765625 67.390625 5.953125 67.84375 
Q 6.15625 68.3125 7.078125 68.3125 
L 30.90625 68.3125 
Q 31.890625 68.3125 31.890625 67 
Q 31.5 64.796875 30.609375 64.796875 
Q 22.609375 64.796875 22.125 62.015625 
L 25.6875 11.53125 
L 50.6875 55.078125 
L 50.203125 62.59375 
Q 49.859375 64.0625 48 64.421875 
Q 46.140625 64.796875 43.40625 64.796875 
Q 42.390625 64.796875 42.390625 66.109375 
Q 42.71875 67.390625 42.90625 67.84375 
Q 43.109375 68.3125 44.09375 68.3125 
L 67.921875 68.3125 
Q 68.890625 68.3125 68.890625 67 
Q 68.84375 66.75 68.703125 66.15625 
Q 68.5625 65.578125 68.3125 65.1875 
Q 68.0625 64.796875 67.578125 64.796875 
Q 59.515625 64.796875 59.078125 62.015625 
L 59.078125 61.28125 
L 62.703125 11.53125 
L 89.890625 58.984375 
Q 90.484375 60.0625 90.484375 61.078125 
Q 90.484375 63.140625 88.46875 63.96875 
Q 86.46875 64.796875 83.984375 64.796875 
Q 83.015625 64.796875 83.015625 66.109375 
Q 83.203125 66.890625 83.328125 67.328125 
Q 83.453125 67.78125 83.765625 68.046875 
Q 84.078125 68.3125 84.71875 68.3125 
L 103.8125 68.3125 
Q 104.78125 68.3125 104.78125 67 
Q 104.734375 66.75 104.578125 66.140625 
Q 104.4375 65.53125 104.171875 65.15625 
Q 103.90625 64.796875 103.515625 64.796875 
Q 96.390625 64.796875 92.671875 58.296875 
Q 92.390625 58.015625 92.390625 58.015625 
L 58.5 -1.125 
Q 57.953125 -2.203125 56.78125 -2.203125 
L 56 -2.203125 
Q 54.78125 -2.203125 54.78125 -1.125 
L 50.984375 50.390625 
L 21.578125 -1.125 
Q 20.84375 -2.203125 19.828125 -2.203125 
L 19 -2.203125 
Q 17.828125 -2.203125 17.828125 -1.125 
z
" id="Cmmi10-87"/>
      <path d="M 17.28125 -1.125 
Q 11.234375 -1.125 7.859375 3.609375 
Q 4.5 8.34375 4.5 14.703125 
Q 4.5 15.625 4.953125 18.328125 
Q 5.421875 21.046875 5.421875 21.6875 
L 15.09375 60.5 
Q 15.484375 62.203125 15.578125 63.1875 
Q 15.578125 64.796875 9.078125 64.796875 
Q 8.109375 64.796875 8.109375 66.109375 
Q 8.15625 66.359375 8.328125 66.984375 
Q 8.5 67.625 8.765625 67.96875 
Q 9.03125 68.3125 9.515625 68.3125 
L 23 69.390625 
Q 24.21875 69.390625 24.21875 68.109375 
L 16.796875 38.625 
Q 22.46875 44.1875 28.21875 44.1875 
Q 32.46875 44.1875 35.515625 41.9375 
Q 38.578125 39.703125 40.09375 36.03125 
Q 41.609375 32.375 41.609375 28.21875 
Q 41.609375 23.390625 39.71875 18.234375 
Q 37.84375 13.09375 34.515625 8.671875 
Q 31.203125 4.25 26.75 1.5625 
Q 22.3125 -1.125 17.28125 -1.125 
z
M 17.484375 1.515625 
Q 20.90625 1.515625 23.875 4.375 
Q 26.859375 7.234375 28.71875 10.796875 
Q 30.71875 14.796875 32.453125 21.65625 
Q 34.1875 28.515625 34.1875 32.625 
Q 34.1875 36.1875 32.6875 38.890625 
Q 31.203125 41.609375 27.984375 41.609375 
Q 24.359375 41.609375 21.0625 38.9375 
Q 17.78125 36.28125 15.28125 32.625 
L 12.5 21.296875 
Q 10.890625 14.984375 10.796875 11.1875 
Q 10.796875 7.421875 12.421875 4.46875 
Q 14.0625 1.515625 17.484375 1.515625 
z
" id="Cmmi10-98"/>
     </defs>
     <use transform="translate(0 0.235938)" xlink:href="#Cmmi10-122"/>
     <use transform="translate(52.787656 38.5)scale(0.7)" xlink:href="#Cmr10-91"/>
     <use transform="translate(72.167539 38.5)scale(0.7)" xlink:href="#Cmmi10-108"/>
     <use transform="translate(105.308164 38.5)scale(0.7)" xlink:href="#Cmr10-43"/>
     <use transform="translate(171.979062 38.5)scale(0.7)" xlink:href="#Cmr10-49"/>
     <use transform="translate(206.979062 38.5)scale(0.7)" xlink:href="#Cmr10-93"/>
     <use transform="translate(250.294883 0.235938)" xlink:href="#Cmr10-61"/>
     <use transform="translate(345.539023 0.235938)" xlink:href="#Cmmi10-87"/>
     <use transform="translate(451.29332 38.5)scale(0.7)" xlink:href="#Cmr10-91"/>
     <use transform="translate(470.673203 38.5)scale(0.7)" xlink:href="#Cmmi10-108"/>
     <use transform="translate(503.813828 38.5)scale(0.7)" xlink:href="#Cmr10-43"/>
     <use transform="translate(570.484727 38.5)scale(0.7)" xlink:href="#Cmr10-49"/>
     <use transform="translate(605.484727 38.5)scale(0.7)" xlink:href="#Cmr10-93"/>
     <use transform="translate(631.241953 0.235938)" xlink:href="#Cmmi10-97"/>
     <use transform="translate(690.328438 38.5)scale(0.7)" xlink:href="#Cmr10-91"/>
     <use transform="translate(709.70832 38.5)scale(0.7)" xlink:href="#Cmmi10-108"/>
     <use transform="translate(730.55793 38.5)scale(0.7)" xlink:href="#Cmr10-93"/>
     <use transform="translate(773.87375 0.235938)" xlink:href="#Cmr10-43"/>
     <use transform="translate(869.117891 0.235938)" xlink:href="#Cmmi10-98"/>
     <use transform="translate(923.63375 38.5)scale(0.7)" xlink:href="#Cmr10-91"/>
     <use transform="translate(943.013633 38.5)scale(0.7)" xlink:href="#Cmmi10-108"/>
     <use transform="translate(976.154258 38.5)scale(0.7)" xlink:href="#Cmr10-43"/>
     <use transform="translate(1042.825156 38.5)scale(0.7)" xlink:href="#Cmr10-49"/>
     <use transform="translate(1077.825156 38.5)scale(0.7)" xlink:href="#Cmr10-93"/>
    </g>
   </g>
   <g id="text_10">
    <g id="patch_17">
     <path d="M 216.436842 113.848 
L 287.436842 113.848 
Q 290.436842 113.848 290.436842 110.848 
L 290.436842 99.248 
Q 290.436842 96.248 287.436842 96.248 
L 216.436842 96.248 
Q 213.436842 96.248 213.436842 99.248 
L 213.436842 110.848 
Q 213.436842 113.848 216.436842 113.848 
z
" style="fill:#ffffff;stroke:#ffffff;stroke-linejoin:miter;"/>
    </g>
    <!-- $a^{[l+1]}=g(z^{[l+1]})$ -->
    <g transform="translate(216.436842 108.348)scale(0.1 -0.1)">
     <use transform="translate(0 0.235938)" xlink:href="#Cmmi10-97"/>
     <use transform="translate(59.086484 38.5)scale(0.7)" xlink:href="#Cmr10-91"/>
     <use transform="translate(78.466367 38.5)scale(0.7)" xlink:href="#Cmmi10-108"/>
     <use transform="translate(111.606992 38.5)scale(0.7)" xlink:href="#Cmr10-43"/>
     <use transform="translate(178.277891 38.5)scale(0.7)" xlink:href="#Cmr10-49"/>
     <use transform="translate(213.277891 38.5)scale(0.7)" xlink:href="#Cmr10-93"/>
     <use transform="translate(256.593711 0.235938)" xlink:href="#Cmr10-61"/>
     <use transform="translate(351.837852 0.235938)" xlink:href="#Cmmi10-103"/>
     <use transform="translate(399.54293 0.235938)" xlink:href="#Cmr10-40"/>
     <use transform="translate(438.361289 0.235938)" xlink:href="#Cmmi10-122"/>
     <use transform="translate(491.148945 38.5)scale(0.7)" xlink:href="#Cmr10-91"/>
     <use transform="translate(510.528828 38.5)scale(0.7)" xlink:href="#Cmmi10-108"/>
     <use transform="translate(543.669453 38.5)scale(0.7)" xlink:href="#Cmr10-43"/>
     <use transform="translate(610.340352 38.5)scale(0.7)" xlink:href="#Cmr10-49"/>
     <use transform="translate(645.340352 38.5)scale(0.7)" xlink:href="#Cmr10-93"/>
     <use transform="translate(671.097578 0.235938)" xlink:href="#Cmr10-41"/>
    </g>
   </g>
   <g id="text_11">
    <g id="patch_18">
     <path d="M 337.878947 113.048 
L 459.678947 113.048 
Q 462.678947 113.048 462.678947 110.048 
L 462.678947 100.048 
Q 462.678947 97.048 459.678947 97.048 
L 337.878947 97.048 
Q 334.878947 97.048 334.878947 100.048 
L 334.878947 110.048 
Q 334.878947 113.048 337.878947 113.048 
z
" style="fill:#ffffff;stroke:#ffffff;stroke-linejoin:miter;"/>
    </g>
    <!-- $z^{[l+2]}=W^{[l+2]}a^{[l+1]}+b^{[l+2]}$ -->
    <g transform="translate(337.878947 107.968313)scale(0.1 -0.1)">
     <use transform="translate(0 0.235938)" xlink:href="#Cmmi10-122"/>
     <use transform="translate(52.787656 38.5)scale(0.7)" xlink:href="#Cmr10-91"/>
     <use transform="translate(72.167539 38.5)scale(0.7)" xlink:href="#Cmmi10-108"/>
     <use transform="translate(105.308164 38.5)scale(0.7)" xlink:href="#Cmr10-43"/>
     <use transform="translate(171.979062 38.5)scale(0.7)" xlink:href="#Cmr10-50"/>
     <use transform="translate(206.979062 38.5)scale(0.7)" xlink:href="#Cmr10-93"/>
     <use transform="translate(250.294883 0.235938)" xlink:href="#Cmr10-61"/>
     <use transform="translate(345.539023 0.235938)" xlink:href="#Cmmi10-87"/>
     <use transform="translate(451.29332 38.5)scale(0.7)" xlink:href="#Cmr10-91"/>
     <use transform="translate(470.673203 38.5)scale(0.7)" xlink:href="#Cmmi10-108"/>
     <use transform="translate(503.813828 38.5)scale(0.7)" xlink:href="#Cmr10-43"/>
     <use transform="translate(570.484727 38.5)scale(0.7)" xlink:href="#Cmr10-50"/>
     <use transform="translate(605.484727 38.5)scale(0.7)" xlink:href="#Cmr10-93"/>
     <use transform="translate(631.241953 0.235938)" xlink:href="#Cmmi10-97"/>
     <use transform="translate(690.328438 38.5)scale(0.7)" xlink:href="#Cmr10-91"/>
     <use transform="translate(709.70832 38.5)scale(0.7)" xlink:href="#Cmmi10-108"/>
     <use transform="translate(742.848945 38.5)scale(0.7)" xlink:href="#Cmr10-43"/>
     <use transform="translate(809.519844 38.5)scale(0.7)" xlink:href="#Cmr10-49"/>
     <use transform="translate(844.519844 38.5)scale(0.7)" xlink:href="#Cmr10-93"/>
     <use transform="translate(887.835664 0.235938)" xlink:href="#Cmr10-43"/>
     <use transform="translate(983.079805 0.235938)" xlink:href="#Cmmi10-98"/>
     <use transform="translate(1037.595664 38.5)scale(0.7)" xlink:href="#Cmr10-91"/>
     <use transform="translate(1056.975547 38.5)scale(0.7)" xlink:href="#Cmmi10-108"/>
     <use transform="translate(1090.116172 38.5)scale(0.7)" xlink:href="#Cmr10-43"/>
     <use transform="translate(1156.78707 38.5)scale(0.7)" xlink:href="#Cmr10-50"/>
     <use transform="translate(1191.78707 38.5)scale(0.7)" xlink:href="#Cmr10-93"/>
    </g>
   </g>
   <g id="text_12">
    <g id="patch_19">
     <path d="M 519.910526 113.848 
L 590.910526 113.848 
Q 593.910526 113.848 593.910526 110.848 
L 593.910526 99.248 
Q 593.910526 96.248 590.910526 96.248 
L 519.910526 96.248 
Q 516.910526 96.248 516.910526 99.248 
L 516.910526 110.848 
Q 516.910526 113.848 519.910526 113.848 
z
" style="fill:#ffffff;stroke:#ffffff;stroke-linejoin:miter;"/>
    </g>
    <!-- $a^{[l+2]}=g(z^{[l+2]})$ -->
    <g transform="translate(519.910526 108.348)scale(0.1 -0.1)">
     <use transform="translate(0 0.235938)" xlink:href="#Cmmi10-97"/>
     <use transform="translate(59.086484 38.5)scale(0.7)" xlink:href="#Cmr10-91"/>
     <use transform="translate(78.466367 38.5)scale(0.7)" xlink:href="#Cmmi10-108"/>
     <use transform="translate(111.606992 38.5)scale(0.7)" xlink:href="#Cmr10-43"/>
     <use transform="translate(178.277891 38.5)scale(0.7)" xlink:href="#Cmr10-50"/>
     <use transform="translate(213.277891 38.5)scale(0.7)" xlink:href="#Cmr10-93"/>
     <use transform="translate(256.593711 0.235938)" xlink:href="#Cmr10-61"/>
     <use transform="translate(351.837852 0.235938)" xlink:href="#Cmmi10-103"/>
     <use transform="translate(399.54293 0.235938)" xlink:href="#Cmr10-40"/>
     <use transform="translate(438.361289 0.235938)" xlink:href="#Cmmi10-122"/>
     <use transform="translate(491.148945 38.5)scale(0.7)" xlink:href="#Cmr10-91"/>
     <use transform="translate(510.528828 38.5)scale(0.7)" xlink:href="#Cmmi10-108"/>
     <use transform="translate(543.669453 38.5)scale(0.7)" xlink:href="#Cmr10-43"/>
     <use transform="translate(610.340352 38.5)scale(0.7)" xlink:href="#Cmr10-50"/>
     <use transform="translate(645.340352 38.5)scale(0.7)" xlink:href="#Cmr10-93"/>
     <use transform="translate(671.097578 0.235938)" xlink:href="#Cmr10-41"/>
    </g>
   </g>
  </g>
 </g>
</svg>
