<?xml version="1.0" encoding="UTF-8" standalone="no"?>
<!DOCTYPE svg PUBLIC "-//W3C//DTD SVG 1.1//EN"
 "http://www.w3.org/Graphics/SVG/1.1/DTD/svg11.dtd">
<!-- Generated by graphviz version 2.43.0 (0)
 -->
<!-- Title: %3 Pages: 1 -->
<svg width="398pt" height="158pt"
 viewBox="0.00 0.00 398.29 158.00" xmlns="http://www.w3.org/2000/svg" xmlns:xlink="http://www.w3.org/1999/xlink">
<g id="graph0" class="graph" transform="scale(1 1) rotate(0) translate(4 154)">
<title>%3</title>
<polygon fill="white" stroke="transparent" points="-4,4 -4,-154 394.29,-154 394.29,4 -4,4"/>
<!-- 1 -->
<g id="node1" class="node">
<title>1</title>
<text text-anchor="middle" x="40" y="-134.8" font-family="Times,serif" font-size="14.00">prev.</text>
<text text-anchor="middle" x="40" y="-119.8" font-family="Times,serif" font-size="14.00">neuron 1</text>
</g>
<!-- b -->
<g id="node4" class="node">
<title>b</title>
<ellipse fill="none" stroke="black" cx="193.15" cy="-75" rx="33.29" ry="18"/>
<text text-anchor="middle" x="193.15" y="-71.3" font-family="Times,serif" font-size="14.00">body</text>
</g>
<!-- 1&#45;&gt;b -->
<g id="edge1" class="edge">
<title>1&#45;&gt;b</title>
<path fill="none" stroke="black" d="M80.32,-116.43C105.31,-107.17 137.22,-95.35 160.56,-86.7"/>
<polygon fill="black" stroke="black" points="161.32,-88.29 165.4,-84.91 160.11,-85 161.32,-88.29"/>
<text text-anchor="middle" x="120" y="-112" font-family="Times,serif" font-size="10.00">dendrite</text>
</g>
<!-- 2 -->
<g id="node2" class="node">
<title>2</title>
<text text-anchor="middle" x="40" y="-78.8" font-family="Times,serif" font-size="14.00">prev.</text>
<text text-anchor="middle" x="40" y="-63.8" font-family="Times,serif" font-size="14.00">neuron 2</text>
</g>
<!-- 2&#45;&gt;b -->
<g id="edge2" class="edge">
<title>2&#45;&gt;b</title>
<path fill="none" stroke="black" d="M80.32,-75C103.25,-75 132.02,-75 154.63,-75"/>
<polygon fill="black" stroke="black" points="154.65,-76.75 159.65,-75 154.65,-73.25 154.65,-76.75"/>
<text text-anchor="middle" x="120" y="-78" font-family="Times,serif" font-size="10.00">dendrite</text>
</g>
<!-- 3 -->
<g id="node3" class="node">
<title>3</title>
<text text-anchor="middle" x="40" y="-22.8" font-family="Times,serif" font-size="14.00">prev.</text>
<text text-anchor="middle" x="40" y="-7.8" font-family="Times,serif" font-size="14.00">neuron 3</text>
</g>
<!-- 3&#45;&gt;b -->
<g id="edge3" class="edge">
<title>3&#45;&gt;b</title>
<path fill="none" stroke="black" d="M80.32,-33.57C105.31,-42.83 137.22,-54.65 160.56,-63.3"/>
<polygon fill="black" stroke="black" points="160.11,-65 165.4,-65.09 161.32,-61.71 160.11,-65"/>
<text text-anchor="middle" x="120" y="-58" font-family="Times,serif" font-size="10.00">dendrite</text>
</g>
<!-- a -->
<g id="node5" class="node">
<title>a</title>
<text text-anchor="middle" x="338.79" y="-71.3" font-family="Times,serif" font-size="14.00">next neuron</text>
</g>
<!-- b&#45;&gt;a -->
<g id="edge4" class="edge">
<title>b&#45;&gt;a</title>
<path fill="none" stroke="black" d="M226.38,-75C242.72,-75 263.02,-75 281.8,-75"/>
<polygon fill="black" stroke="black" points="282.05,-76.75 287.05,-75 282.05,-73.25 282.05,-76.75"/>
<text text-anchor="middle" x="256.79" y="-78" font-family="Times,serif" font-size="10.00">axon</text>
</g>
</g>
</svg>
