<?xml version="1.0" encoding="utf-8" standalone="no"?>
<!DOCTYPE svg PUBLIC "-//W3C//DTD SVG 1.1//EN"
  "http://www.w3.org/Graphics/SVG/1.1/DTD/svg11.dtd">
<svg height="236.679062pt" version="1.1" viewBox="0 0 275.328 236.679062" width="275.328pt" xmlns="http://www.w3.org/2000/svg" xmlns:xlink="http://www.w3.org/1999/xlink">
 <metadata>
  <rdf:RDF xmlns:cc="http://creativecommons.org/ns#" xmlns:dc="http://purl.org/dc/elements/1.1/" xmlns:rdf="http://www.w3.org/1999/02/22-rdf-syntax-ns#">
   <cc:Work>
    <dc:type rdf:resource="http://purl.org/dc/dcmitype/StillImage"/>
    <dc:date>2021-09-27T21:34:49.012421</dc:date>
    <dc:format>image/svg+xml</dc:format>
    <dc:creator>
     <cc:Agent>
      <dc:title>Matplotlib v3.4.3, https://matplotlib.org/</dc:title>
     </cc:Agent>
    </dc:creator>
   </cc:Work>
  </rdf:RDF>
 </metadata>
 <defs>
  <style type="text/css">*{stroke-linecap:butt;stroke-linejoin:round;}</style>
 </defs>
 <g id="figure_1">
  <g id="patch_1">
   <path d="M 0 236.679062 
L 275.328 236.679062 
L 275.328 0 
L 0 0 
z
" style="fill:none;"/>
  </g>
  <g id="axes_1">
   <g id="line2d_1">
    <path clip-path="url(#pdb1eb116cc)" d="M 36.192 43.44 
L 123.168 43.44 
" style="fill:none;stroke:#000000;stroke-linecap:square;stroke-width:0.25;"/>
   </g>
   <g id="line2d_2">
    <path clip-path="url(#pdb1eb116cc)" d="M 36.192 43.44 
L 123.168 115.92 
" style="fill:none;stroke:#000000;stroke-linecap:square;stroke-width:0.25;"/>
   </g>
   <g id="line2d_3">
    <path clip-path="url(#pdb1eb116cc)" d="M 36.192 43.44 
L 123.168 188.4 
" style="fill:none;stroke:#000000;stroke-linecap:square;stroke-width:0.25;"/>
   </g>
   <g id="line2d_4">
    <path clip-path="url(#pdb1eb116cc)" d="M 36.192 115.92 
L 123.168 43.44 
" style="fill:none;stroke:#000000;stroke-linecap:square;stroke-width:0.25;"/>
   </g>
   <g id="line2d_5">
    <path clip-path="url(#pdb1eb116cc)" d="M 36.192 115.92 
L 123.168 115.92 
" style="fill:none;stroke:#000000;stroke-linecap:square;stroke-width:0.25;"/>
   </g>
   <g id="line2d_6">
    <path clip-path="url(#pdb1eb116cc)" d="M 36.192 115.92 
L 123.168 188.4 
" style="fill:none;stroke:#000000;stroke-linecap:square;stroke-width:0.25;"/>
   </g>
   <g id="line2d_7">
    <path clip-path="url(#pdb1eb116cc)" d="M 36.192 188.4 
L 123.168 43.44 
" style="fill:none;stroke:#000000;stroke-linecap:square;stroke-width:0.25;"/>
   </g>
   <g id="line2d_8">
    <path clip-path="url(#pdb1eb116cc)" d="M 36.192 188.4 
L 123.168 115.92 
" style="fill:none;stroke:#000000;stroke-linecap:square;stroke-width:0.25;"/>
   </g>
   <g id="line2d_9">
    <path clip-path="url(#pdb1eb116cc)" d="M 36.192 188.4 
L 123.168 188.4 
" style="fill:none;stroke:#000000;stroke-linecap:square;stroke-width:0.25;"/>
   </g>
   <g id="line2d_10">
    <path clip-path="url(#pdb1eb116cc)" d="M 123.168 43.44 
L 210.144 115.92 
" style="fill:none;stroke:#000000;stroke-linecap:square;stroke-width:0.25;"/>
   </g>
   <g id="line2d_11">
    <path clip-path="url(#pdb1eb116cc)" d="M 123.168 115.92 
L 210.144 115.92 
" style="fill:none;stroke:#000000;stroke-linecap:square;stroke-width:0.25;"/>
   </g>
   <g id="line2d_12">
    <path clip-path="url(#pdb1eb116cc)" d="M 123.168 188.4 
L 210.144 115.92 
" style="fill:none;stroke:#000000;stroke-linecap:square;stroke-width:0.25;"/>
   </g>
   <g id="patch_2">
    <path clip-path="url(#pdb1eb116cc)" d="M 36.192 59.3856 
C 40.420823 59.3856 44.477013 57.705471 47.467242 54.715242 
C 50.457471 51.725013 52.1376 47.668823 52.1376 43.44 
C 52.1376 39.211177 50.457471 35.154987 47.467242 32.164758 
C 44.477013 29.174529 40.420823 27.4944 36.192 27.4944 
C 31.963177 27.4944 27.906987 29.174529 24.916758 32.164758 
C 21.926529 35.154987 20.2464 39.211177 20.2464 43.44 
C 20.2464 47.668823 21.926529 51.725013 24.916758 54.715242 
C 27.906987 57.705471 31.963177 59.3856 36.192 59.3856 
z
" style="fill:#ffffff;stroke:#1f77b4;stroke-linejoin:miter;"/>
   </g>
   <g id="patch_3">
    <path clip-path="url(#pdb1eb116cc)" d="M 36.192 131.8656 
C 40.420823 131.8656 44.477013 130.185471 47.467242 127.195242 
C 50.457471 124.205013 52.1376 120.148823 52.1376 115.92 
C 52.1376 111.691177 50.457471 107.634987 47.467242 104.644758 
C 44.477013 101.654529 40.420823 99.9744 36.192 99.9744 
C 31.963177 99.9744 27.906987 101.654529 24.916758 104.644758 
C 21.926529 107.634987 20.2464 111.691177 20.2464 115.92 
C 20.2464 120.148823 21.926529 124.205013 24.916758 127.195242 
C 27.906987 130.185471 31.963177 131.8656 36.192 131.8656 
z
" style="fill:#ffffff;stroke:#1f77b4;stroke-linejoin:miter;"/>
   </g>
   <g id="patch_4">
    <path clip-path="url(#pdb1eb116cc)" d="M 36.192 204.3456 
C 40.420823 204.3456 44.477013 202.665471 47.467242 199.675242 
C 50.457471 196.685013 52.1376 192.628823 52.1376 188.4 
C 52.1376 184.171177 50.457471 180.114987 47.467242 177.124758 
C 44.477013 174.134529 40.420823 172.4544 36.192 172.4544 
C 31.963177 172.4544 27.906987 174.134529 24.916758 177.124758 
C 21.926529 180.114987 20.2464 184.171177 20.2464 188.4 
C 20.2464 192.628823 21.926529 196.685013 24.916758 199.675242 
C 27.906987 202.665471 31.963177 204.3456 36.192 204.3456 
z
" style="fill:#ffffff;stroke:#1f77b4;stroke-linejoin:miter;"/>
   </g>
   <g id="patch_5">
    <path clip-path="url(#pdb1eb116cc)" d="M 123.168 59.3856 
C 127.396823 59.3856 131.453013 57.705471 134.443242 54.715242 
C 137.433471 51.725013 139.1136 47.668823 139.1136 43.44 
C 139.1136 39.211177 137.433471 35.154987 134.443242 32.164758 
C 131.453013 29.174529 127.396823 27.4944 123.168 27.4944 
C 118.939177 27.4944 114.882987 29.174529 111.892758 32.164758 
C 108.902529 35.154987 107.2224 39.211177 107.2224 43.44 
C 107.2224 47.668823 108.902529 51.725013 111.892758 54.715242 
C 114.882987 57.705471 118.939177 59.3856 123.168 59.3856 
z
" style="fill:#ffffff;stroke:#ff7f0e;stroke-linejoin:miter;"/>
   </g>
   <g id="patch_6">
    <path clip-path="url(#pdb1eb116cc)" d="M 123.168 131.8656 
C 127.396823 131.8656 131.453013 130.185471 134.443242 127.195242 
C 137.433471 124.205013 139.1136 120.148823 139.1136 115.92 
C 139.1136 111.691177 137.433471 107.634987 134.443242 104.644758 
C 131.453013 101.654529 127.396823 99.9744 123.168 99.9744 
C 118.939177 99.9744 114.882987 101.654529 111.892758 104.644758 
C 108.902529 107.634987 107.2224 111.691177 107.2224 115.92 
C 107.2224 120.148823 108.902529 124.205013 111.892758 127.195242 
C 114.882987 130.185471 118.939177 131.8656 123.168 131.8656 
z
" style="fill:#ffffff;stroke:#ff7f0e;stroke-linejoin:miter;"/>
   </g>
   <g id="patch_7">
    <path clip-path="url(#pdb1eb116cc)" d="M 123.168 204.3456 
C 127.396823 204.3456 131.453013 202.665471 134.443242 199.675242 
C 137.433471 196.685013 139.1136 192.628823 139.1136 188.4 
C 139.1136 184.171177 137.433471 180.114987 134.443242 177.124758 
C 131.453013 174.134529 127.396823 172.4544 123.168 172.4544 
C 118.939177 172.4544 114.882987 174.134529 111.892758 177.124758 
C 108.902529 180.114987 107.2224 184.171177 107.2224 188.4 
C 107.2224 192.628823 108.902529 196.685013 111.892758 199.675242 
C 114.882987 202.665471 118.939177 204.3456 123.168 204.3456 
z
" style="fill:#ffffff;stroke:#ff7f0e;stroke-linejoin:miter;"/>
   </g>
   <g id="patch_8">
    <path clip-path="url(#pdb1eb116cc)" d="M 210.144 131.8656 
C 214.372823 131.8656 218.429013 130.185471 221.419242 127.195242 
C 224.409471 124.205013 226.0896 120.148823 226.0896 115.92 
C 226.0896 111.691177 224.409471 107.634987 221.419242 104.644758 
C 218.429013 101.654529 214.372823 99.9744 210.144 99.9744 
C 205.915177 99.9744 201.858987 101.654529 198.868758 104.644758 
C 195.878529 107.634987 194.1984 111.691177 194.1984 115.92 
C 194.1984 120.148823 195.878529 124.205013 198.868758 127.195242 
C 201.858987 130.185471 205.915177 131.8656 210.144 131.8656 
z
" style="fill:#ffffff;stroke:#ff7f0e;stroke-linejoin:miter;"/>
   </g>
   <g id="text_1">
    <!-- Input Layer -->
    <g transform="translate(7.714656 227.399375)scale(0.1 -0.1)">
     <defs>
      <path d="M 628 4666 
L 1259 4666 
L 1259 0 
L 628 0 
L 628 4666 
z
" id="DejaVuSans-49" transform="scale(0.015625)"/>
      <path d="M 3513 2113 
L 3513 0 
L 2938 0 
L 2938 2094 
Q 2938 2591 2744 2837 
Q 2550 3084 2163 3084 
Q 1697 3084 1428 2787 
Q 1159 2491 1159 1978 
L 1159 0 
L 581 0 
L 581 3500 
L 1159 3500 
L 1159 2956 
Q 1366 3272 1645 3428 
Q 1925 3584 2291 3584 
Q 2894 3584 3203 3211 
Q 3513 2838 3513 2113 
z
" id="DejaVuSans-6e" transform="scale(0.015625)"/>
      <path d="M 1159 525 
L 1159 -1331 
L 581 -1331 
L 581 3500 
L 1159 3500 
L 1159 2969 
Q 1341 3281 1617 3432 
Q 1894 3584 2278 3584 
Q 2916 3584 3314 3078 
Q 3713 2572 3713 1747 
Q 3713 922 3314 415 
Q 2916 -91 2278 -91 
Q 1894 -91 1617 61 
Q 1341 213 1159 525 
z
M 3116 1747 
Q 3116 2381 2855 2742 
Q 2594 3103 2138 3103 
Q 1681 3103 1420 2742 
Q 1159 2381 1159 1747 
Q 1159 1113 1420 752 
Q 1681 391 2138 391 
Q 2594 391 2855 752 
Q 3116 1113 3116 1747 
z
" id="DejaVuSans-70" transform="scale(0.015625)"/>
      <path d="M 544 1381 
L 544 3500 
L 1119 3500 
L 1119 1403 
Q 1119 906 1312 657 
Q 1506 409 1894 409 
Q 2359 409 2629 706 
Q 2900 1003 2900 1516 
L 2900 3500 
L 3475 3500 
L 3475 0 
L 2900 0 
L 2900 538 
Q 2691 219 2414 64 
Q 2138 -91 1772 -91 
Q 1169 -91 856 284 
Q 544 659 544 1381 
z
M 1991 3584 
L 1991 3584 
z
" id="DejaVuSans-75" transform="scale(0.015625)"/>
      <path d="M 1172 4494 
L 1172 3500 
L 2356 3500 
L 2356 3053 
L 1172 3053 
L 1172 1153 
Q 1172 725 1289 603 
Q 1406 481 1766 481 
L 2356 481 
L 2356 0 
L 1766 0 
Q 1100 0 847 248 
Q 594 497 594 1153 
L 594 3053 
L 172 3053 
L 172 3500 
L 594 3500 
L 594 4494 
L 1172 4494 
z
" id="DejaVuSans-74" transform="scale(0.015625)"/>
      <path id="DejaVuSans-20" transform="scale(0.015625)"/>
      <path d="M 628 4666 
L 1259 4666 
L 1259 531 
L 3531 531 
L 3531 0 
L 628 0 
L 628 4666 
z
" id="DejaVuSans-4c" transform="scale(0.015625)"/>
      <path d="M 2194 1759 
Q 1497 1759 1228 1600 
Q 959 1441 959 1056 
Q 959 750 1161 570 
Q 1363 391 1709 391 
Q 2188 391 2477 730 
Q 2766 1069 2766 1631 
L 2766 1759 
L 2194 1759 
z
M 3341 1997 
L 3341 0 
L 2766 0 
L 2766 531 
Q 2569 213 2275 61 
Q 1981 -91 1556 -91 
Q 1019 -91 701 211 
Q 384 513 384 1019 
Q 384 1609 779 1909 
Q 1175 2209 1959 2209 
L 2766 2209 
L 2766 2266 
Q 2766 2663 2505 2880 
Q 2244 3097 1772 3097 
Q 1472 3097 1187 3025 
Q 903 2953 641 2809 
L 641 3341 
Q 956 3463 1253 3523 
Q 1550 3584 1831 3584 
Q 2591 3584 2966 3190 
Q 3341 2797 3341 1997 
z
" id="DejaVuSans-61" transform="scale(0.015625)"/>
      <path d="M 2059 -325 
Q 1816 -950 1584 -1140 
Q 1353 -1331 966 -1331 
L 506 -1331 
L 506 -850 
L 844 -850 
Q 1081 -850 1212 -737 
Q 1344 -625 1503 -206 
L 1606 56 
L 191 3500 
L 800 3500 
L 1894 763 
L 2988 3500 
L 3597 3500 
L 2059 -325 
z
" id="DejaVuSans-79" transform="scale(0.015625)"/>
      <path d="M 3597 1894 
L 3597 1613 
L 953 1613 
Q 991 1019 1311 708 
Q 1631 397 2203 397 
Q 2534 397 2845 478 
Q 3156 559 3463 722 
L 3463 178 
Q 3153 47 2828 -22 
Q 2503 -91 2169 -91 
Q 1331 -91 842 396 
Q 353 884 353 1716 
Q 353 2575 817 3079 
Q 1281 3584 2069 3584 
Q 2775 3584 3186 3129 
Q 3597 2675 3597 1894 
z
M 3022 2063 
Q 3016 2534 2758 2815 
Q 2500 3097 2075 3097 
Q 1594 3097 1305 2825 
Q 1016 2553 972 2059 
L 3022 2063 
z
" id="DejaVuSans-65" transform="scale(0.015625)"/>
      <path d="M 2631 2963 
Q 2534 3019 2420 3045 
Q 2306 3072 2169 3072 
Q 1681 3072 1420 2755 
Q 1159 2438 1159 1844 
L 1159 0 
L 581 0 
L 581 3500 
L 1159 3500 
L 1159 2956 
Q 1341 3275 1631 3429 
Q 1922 3584 2338 3584 
Q 2397 3584 2469 3576 
Q 2541 3569 2628 3553 
L 2631 2963 
z
" id="DejaVuSans-72" transform="scale(0.015625)"/>
     </defs>
     <use xlink:href="#DejaVuSans-49"/>
     <use x="29.492188" xlink:href="#DejaVuSans-6e"/>
     <use x="92.871094" xlink:href="#DejaVuSans-70"/>
     <use x="156.347656" xlink:href="#DejaVuSans-75"/>
     <use x="219.726562" xlink:href="#DejaVuSans-74"/>
     <use x="258.935547" xlink:href="#DejaVuSans-20"/>
     <use x="290.722656" xlink:href="#DejaVuSans-4c"/>
     <use x="346.435547" xlink:href="#DejaVuSans-61"/>
     <use x="407.714844" xlink:href="#DejaVuSans-79"/>
     <use x="466.894531" xlink:href="#DejaVuSans-65"/>
     <use x="528.417969" xlink:href="#DejaVuSans-72"/>
    </g>
   </g>
   <g id="text_2">
    <!-- Hidden Layer -->
    <g transform="translate(89.894563 227.399375)scale(0.1 -0.1)">
     <defs>
      <path d="M 628 4666 
L 1259 4666 
L 1259 2753 
L 3553 2753 
L 3553 4666 
L 4184 4666 
L 4184 0 
L 3553 0 
L 3553 2222 
L 1259 2222 
L 1259 0 
L 628 0 
L 628 4666 
z
" id="DejaVuSans-48" transform="scale(0.015625)"/>
      <path d="M 603 3500 
L 1178 3500 
L 1178 0 
L 603 0 
L 603 3500 
z
M 603 4863 
L 1178 4863 
L 1178 4134 
L 603 4134 
L 603 4863 
z
" id="DejaVuSans-69" transform="scale(0.015625)"/>
      <path d="M 2906 2969 
L 2906 4863 
L 3481 4863 
L 3481 0 
L 2906 0 
L 2906 525 
Q 2725 213 2448 61 
Q 2172 -91 1784 -91 
Q 1150 -91 751 415 
Q 353 922 353 1747 
Q 353 2572 751 3078 
Q 1150 3584 1784 3584 
Q 2172 3584 2448 3432 
Q 2725 3281 2906 2969 
z
M 947 1747 
Q 947 1113 1208 752 
Q 1469 391 1925 391 
Q 2381 391 2643 752 
Q 2906 1113 2906 1747 
Q 2906 2381 2643 2742 
Q 2381 3103 1925 3103 
Q 1469 3103 1208 2742 
Q 947 2381 947 1747 
z
" id="DejaVuSans-64" transform="scale(0.015625)"/>
     </defs>
     <use xlink:href="#DejaVuSans-48"/>
     <use x="75.195312" xlink:href="#DejaVuSans-69"/>
     <use x="102.978516" xlink:href="#DejaVuSans-64"/>
     <use x="166.455078" xlink:href="#DejaVuSans-64"/>
     <use x="229.931641" xlink:href="#DejaVuSans-65"/>
     <use x="291.455078" xlink:href="#DejaVuSans-6e"/>
     <use x="354.833984" xlink:href="#DejaVuSans-20"/>
     <use x="386.621094" xlink:href="#DejaVuSans-4c"/>
     <use x="442.333984" xlink:href="#DejaVuSans-61"/>
     <use x="503.613281" xlink:href="#DejaVuSans-79"/>
     <use x="562.792969" xlink:href="#DejaVuSans-65"/>
     <use x="624.316406" xlink:href="#DejaVuSans-72"/>
    </g>
   </g>
   <g id="text_3">
    <!-- Output Layer -->
    <g transform="translate(177.245563 227.399375)scale(0.1 -0.1)">
     <defs>
      <path d="M 2522 4238 
Q 1834 4238 1429 3725 
Q 1025 3213 1025 2328 
Q 1025 1447 1429 934 
Q 1834 422 2522 422 
Q 3209 422 3611 934 
Q 4013 1447 4013 2328 
Q 4013 3213 3611 3725 
Q 3209 4238 2522 4238 
z
M 2522 4750 
Q 3503 4750 4090 4092 
Q 4678 3434 4678 2328 
Q 4678 1225 4090 567 
Q 3503 -91 2522 -91 
Q 1538 -91 948 565 
Q 359 1222 359 2328 
Q 359 3434 948 4092 
Q 1538 4750 2522 4750 
z
" id="DejaVuSans-4f" transform="scale(0.015625)"/>
     </defs>
     <use xlink:href="#DejaVuSans-4f"/>
     <use x="78.710938" xlink:href="#DejaVuSans-75"/>
     <use x="142.089844" xlink:href="#DejaVuSans-74"/>
     <use x="181.298828" xlink:href="#DejaVuSans-70"/>
     <use x="244.775391" xlink:href="#DejaVuSans-75"/>
     <use x="308.154297" xlink:href="#DejaVuSans-74"/>
     <use x="347.363281" xlink:href="#DejaVuSans-20"/>
     <use x="379.150391" xlink:href="#DejaVuSans-4c"/>
     <use x="434.863281" xlink:href="#DejaVuSans-61"/>
     <use x="496.142578" xlink:href="#DejaVuSans-79"/>
     <use x="555.322266" xlink:href="#DejaVuSans-65"/>
     <use x="616.845703" xlink:href="#DejaVuSans-72"/>
    </g>
   </g>
   <g id="text_4">
    <!-- $x_1$ -->
    <g transform="translate(31.242 46.199375)scale(0.1 -0.1)">
     <defs>
      <path d="M 500 184 
Q 613 97 819 97 
Q 1019 97 1172 289 
Q 1325 481 1381 709 
L 1672 1844 
Q 1741 2153 1741 2266 
Q 1741 2425 1652 2544 
Q 1563 2663 1403 2663 
Q 1200 2663 1022 2536 
Q 844 2409 722 2214 
Q 600 2019 550 1819 
Q 538 1778 500 1778 
L 422 1778 
Q 372 1778 372 1838 
L 372 1856 
Q 434 2094 584 2320 
Q 734 2547 951 2687 
Q 1169 2828 1416 2828 
Q 1650 2828 1839 2703 
Q 2028 2578 2106 2363 
Q 2216 2559 2386 2693 
Q 2556 2828 2759 2828 
Q 2897 2828 3040 2779 
Q 3184 2731 3275 2631 
Q 3366 2531 3366 2381 
Q 3366 2219 3261 2101 
Q 3156 1984 2994 1984 
Q 2891 1984 2822 2050 
Q 2753 2116 2753 2216 
Q 2753 2350 2845 2451 
Q 2938 2553 3066 2572 
Q 2950 2663 2747 2663 
Q 2541 2663 2389 2472 
Q 2238 2281 2175 2047 
L 1894 916 
Q 1825 659 1825 494 
Q 1825 331 1917 214 
Q 2009 97 2163 97 
Q 2463 97 2698 361 
Q 2934 625 3009 941 
Q 3022 978 3059 978 
L 3138 978 
Q 3163 978 3178 961 
Q 3194 944 3194 922 
Q 3194 916 3188 903 
Q 3097 522 2806 225 
Q 2516 -72 2150 -72 
Q 1916 -72 1727 54 
Q 1538 181 1459 397 
Q 1359 209 1182 68 
Q 1006 -72 806 -72 
Q 669 -72 523 -23 
Q 378 25 287 125 
Q 197 225 197 378 
Q 197 528 301 651 
Q 406 775 563 775 
Q 669 775 741 711 
Q 813 647 813 544 
Q 813 409 723 309 
Q 634 209 500 184 
z
" id="Cmmi10-78" transform="scale(0.015625)"/>
      <path d="M 594 0 
L 594 225 
Q 1394 225 1394 428 
L 1394 3788 
Q 1063 3628 556 3628 
L 556 3853 
Q 1341 3853 1741 4263 
L 1831 4263 
Q 1853 4263 1873 4245 
Q 1894 4228 1894 4206 
L 1894 428 
Q 1894 225 2694 225 
L 2694 0 
L 594 0 
z
" id="Cmr10-31" transform="scale(0.015625)"/>
     </defs>
     <use transform="translate(0 0.8125)" xlink:href="#Cmmi10-78"/>
     <use transform="translate(57.080078 -16.19375)scale(0.7)" xlink:href="#Cmr10-31"/>
    </g>
   </g>
   <g id="text_5">
    <!-- $x_2$ -->
    <g transform="translate(31.242 118.679375)scale(0.1 -0.1)">
     <defs>
      <path d="M 319 0 
L 319 172 
Q 319 188 331 206 
L 1325 1306 
Q 1550 1550 1690 1715 
Q 1831 1881 1968 2097 
Q 2106 2313 2186 2536 
Q 2266 2759 2266 3009 
Q 2266 3272 2169 3511 
Q 2072 3750 1880 3894 
Q 1688 4038 1416 4038 
Q 1138 4038 916 3870 
Q 694 3703 603 3438 
Q 628 3444 672 3444 
Q 816 3444 917 3347 
Q 1019 3250 1019 3097 
Q 1019 2950 917 2848 
Q 816 2747 672 2747 
Q 522 2747 420 2851 
Q 319 2956 319 3097 
Q 319 3338 409 3548 
Q 500 3759 670 3923 
Q 841 4088 1055 4175 
Q 1269 4263 1509 4263 
Q 1875 4263 2190 4108 
Q 2506 3953 2690 3670 
Q 2875 3388 2875 3009 
Q 2875 2731 2753 2481 
Q 2631 2231 2440 2026 
Q 2250 1822 1953 1562 
Q 1656 1303 1563 1216 
L 838 519 
L 1453 519 
Q 1906 519 2211 526 
Q 2516 534 2534 550 
Q 2609 631 2688 1141 
L 2875 1141 
L 2694 0 
L 319 0 
z
" id="Cmr10-32" transform="scale(0.015625)"/>
     </defs>
     <use transform="translate(0 0.8125)" xlink:href="#Cmmi10-78"/>
     <use transform="translate(57.080078 -16.19375)scale(0.7)" xlink:href="#Cmr10-32"/>
    </g>
   </g>
   <g id="text_6">
    <!-- $x_3$ -->
    <g transform="translate(31.242 191.159375)scale(0.1 -0.1)">
     <defs>
      <path d="M 609 494 
Q 759 275 1012 169 
Q 1266 63 1556 63 
Q 1928 63 2084 380 
Q 2241 697 2241 1100 
Q 2241 1281 2208 1462 
Q 2175 1644 2097 1800 
Q 2019 1956 1883 2050 
Q 1747 2144 1550 2144 
L 1125 2144 
Q 1069 2144 1069 2203 
L 1069 2259 
Q 1069 2309 1125 2309 
L 1478 2338 
Q 1703 2338 1851 2506 
Q 2000 2675 2069 2917 
Q 2138 3159 2138 3378 
Q 2138 3684 1994 3881 
Q 1850 4078 1556 4078 
Q 1313 4078 1091 3986 
Q 869 3894 738 3706 
Q 750 3709 759 3711 
Q 769 3713 781 3713 
Q 925 3713 1022 3613 
Q 1119 3513 1119 3372 
Q 1119 3234 1022 3134 
Q 925 3034 781 3034 
Q 641 3034 541 3134 
Q 441 3234 441 3372 
Q 441 3647 606 3850 
Q 772 4053 1033 4158 
Q 1294 4263 1556 4263 
Q 1750 4263 1965 4205 
Q 2181 4147 2356 4039 
Q 2531 3931 2642 3762 
Q 2753 3594 2753 3378 
Q 2753 3109 2633 2881 
Q 2513 2653 2303 2487 
Q 2094 2322 1844 2241 
Q 2122 2188 2372 2031 
Q 2622 1875 2773 1631 
Q 2925 1388 2925 1106 
Q 2925 753 2731 467 
Q 2538 181 2222 20 
Q 1906 -141 1556 -141 
Q 1256 -141 954 -26 
Q 653 88 461 316 
Q 269 544 269 863 
Q 269 1022 375 1128 
Q 481 1234 641 1234 
Q 744 1234 830 1186 
Q 916 1138 964 1050 
Q 1013 963 1013 863 
Q 1013 706 903 600 
Q 794 494 641 494 
L 609 494 
z
" id="Cmr10-33" transform="scale(0.015625)"/>
     </defs>
     <use transform="translate(0 0.8125)" xlink:href="#Cmmi10-78"/>
     <use transform="translate(57.080078 -16.19375)scale(0.7)" xlink:href="#Cmr10-33"/>
    </g>
   </g>
   <g id="text_7">
    <!-- $a^{[1]}_1$ -->
    <g transform="translate(116.168 47.34)scale(0.1 -0.1)">
     <defs>
      <path d="M 1113 -72 
Q 709 -72 476 233 
Q 244 538 244 953 
Q 244 1363 456 1803 
Q 669 2244 1030 2536 
Q 1391 2828 1806 2828 
Q 1997 2828 2147 2725 
Q 2297 2622 2381 2444 
Q 2453 2700 2663 2700 
Q 2744 2700 2798 2651 
Q 2853 2603 2853 2522 
Q 2853 2503 2851 2493 
Q 2850 2484 2847 2472 
L 2400 684 
Q 2356 494 2356 372 
Q 2356 97 2541 97 
Q 2741 97 2845 351 
Q 2950 606 3022 941 
Q 3034 978 3072 978 
L 3150 978 
Q 3175 978 3190 956 
Q 3206 934 3206 916 
Q 3094 469 2961 198 
Q 2828 -72 2528 -72 
Q 2313 -72 2147 54 
Q 1981 181 1941 391 
Q 1528 -72 1113 -72 
z
M 1119 97 
Q 1350 97 1567 270 
Q 1784 444 1941 678 
Q 1947 684 1947 697 
L 2291 2088 
L 2297 2106 
Q 2259 2334 2132 2498 
Q 2006 2663 1791 2663 
Q 1575 2663 1389 2486 
Q 1203 2309 1075 2069 
Q 950 1813 836 1366 
Q 722 919 722 672 
Q 722 450 817 273 
Q 913 97 1119 97 
z
" id="Cmmi10-61" transform="scale(0.015625)"/>
      <path d="M 756 -1600 
L 756 4800 
L 1631 4800 
L 1631 4544 
L 1013 4544 
L 1013 -1344 
L 1631 -1344 
L 1631 -1600 
L 756 -1600 
z
" id="Cmr10-5b" transform="scale(0.015625)"/>
      <path d="M 141 -1600 
L 141 -1344 
L 763 -1344 
L 763 4544 
L 141 4544 
L 141 4800 
L 1019 4800 
L 1019 -1600 
L 141 -1600 
z
" id="Cmr10-5d" transform="scale(0.015625)"/>
     </defs>
     <use transform="translate(0 0.382812)" xlink:href="#Cmmi10-61"/>
     <use transform="translate(59.086484 51.5)scale(0.7)" xlink:href="#Cmr10-5b"/>
     <use transform="translate(78.466367 51.5)scale(0.7)" xlink:href="#Cmr10-31"/>
     <use transform="translate(113.466367 51.5)scale(0.7)" xlink:href="#Cmr10-5d"/>
     <use transform="translate(52.783203 -25.126563)scale(0.7)" xlink:href="#Cmr10-31"/>
    </g>
   </g>
   <g id="text_8">
    <!-- $a^{[1]}_2$ -->
    <g transform="translate(116.168 119.82)scale(0.1 -0.1)">
     <use transform="translate(0 0.382812)" xlink:href="#Cmmi10-61"/>
     <use transform="translate(59.086484 51.5)scale(0.7)" xlink:href="#Cmr10-5b"/>
     <use transform="translate(78.466367 51.5)scale(0.7)" xlink:href="#Cmr10-31"/>
     <use transform="translate(113.466367 51.5)scale(0.7)" xlink:href="#Cmr10-5d"/>
     <use transform="translate(52.783203 -25.126563)scale(0.7)" xlink:href="#Cmr10-32"/>
    </g>
   </g>
   <g id="text_9">
    <!-- $a^{[1]}_3$ -->
    <g transform="translate(116.168 192.2)scale(0.1 -0.1)">
     <use transform="translate(0 0.382812)" xlink:href="#Cmmi10-61"/>
     <use transform="translate(59.086484 51.5)scale(0.7)" xlink:href="#Cmr10-5b"/>
     <use transform="translate(78.466367 51.5)scale(0.7)" xlink:href="#Cmr10-31"/>
     <use transform="translate(113.466367 51.5)scale(0.7)" xlink:href="#Cmr10-5d"/>
     <use transform="translate(52.783203 -25.126563)scale(0.7)" xlink:href="#Cmr10-33"/>
    </g>
   </g>
   <g id="text_10">
    <!-- $a^{[2]}_1$ -->
    <g transform="translate(203.144 119.82)scale(0.1 -0.1)">
     <use transform="translate(0 0.382812)" xlink:href="#Cmmi10-61"/>
     <use transform="translate(59.086484 51.5)scale(0.7)" xlink:href="#Cmr10-5b"/>
     <use transform="translate(78.466367 51.5)scale(0.7)" xlink:href="#Cmr10-32"/>
     <use transform="translate(113.466367 51.5)scale(0.7)" xlink:href="#Cmr10-5d"/>
     <use transform="translate(52.783203 -25.126563)scale(0.7)" xlink:href="#Cmr10-31"/>
    </g>
   </g>
  </g>
 </g>
 <defs>
  <clipPath id="pdb1eb116cc">
   <rect height="217.44" width="260.928" x="7.2" y="7.2"/>
  </clipPath>
 </defs>
</svg>
