<?xml version="1.0" encoding="utf-8" standalone="no"?>
<!DOCTYPE svg PUBLIC "-//W3C//DTD SVG 1.1//EN"
  "http://www.w3.org/Graphics/SVG/1.1/DTD/svg11.dtd">
<svg height="203.135294pt" version="1.1" viewBox="0 0 713.955055 203.135294" width="713.955055pt" xmlns="http://www.w3.org/2000/svg" xmlns:xlink="http://www.w3.org/1999/xlink">
 <metadata>
  <rdf:RDF xmlns:cc="http://creativecommons.org/ns#" xmlns:dc="http://purl.org/dc/elements/1.1/" xmlns:rdf="http://www.w3.org/1999/02/22-rdf-syntax-ns#">
   <cc:Work>
    <dc:type rdf:resource="http://purl.org/dc/dcmitype/StillImage"/>
    <dc:date>2021-09-27T21:34:49.269810</dc:date>
    <dc:format>image/svg+xml</dc:format>
    <dc:creator>
     <cc:Agent>
      <dc:title>Matplotlib v3.4.3, https://matplotlib.org/</dc:title>
     </cc:Agent>
    </dc:creator>
   </cc:Work>
  </rdf:RDF>
 </metadata>
 <defs>
  <style type="text/css">*{stroke-linecap:butt;stroke-linejoin:round;}</style>
 </defs>
 <g id="figure_1">
  <g id="patch_1">
   <path d="M 0 203.135294 
L 713.955055 203.135294 
L 713.955055 0 
L 0 0 
z
" style="fill:none;"/>
  </g>
  <g id="axes_1">
   <g id="line2d_1">
    <path clip-path="url(#pb0d45c9644)" d="M 59.037408 59.170588 
L 124.684467 59.170588 
" style="fill:none;stroke:#000000;stroke-linecap:square;stroke-width:0.8;"/>
   </g>
   <g id="line2d_2">
    <path clip-path="url(#pb0d45c9644)" d="M 59.037408 59.170588 
L 124.684467 113.876471 
" style="fill:none;stroke:#d3d3d3;stroke-linecap:square;stroke-width:0.8;"/>
   </g>
   <g id="line2d_3">
    <path clip-path="url(#pb0d45c9644)" d="M 59.037408 59.170588 
L 124.684467 168.582353 
" style="fill:none;stroke:#d3d3d3;stroke-linecap:square;stroke-width:0.8;"/>
   </g>
   <g id="line2d_4">
    <path clip-path="url(#pb0d45c9644)" d="M 59.037408 113.876471 
L 124.684467 59.170588 
" style="fill:none;stroke:#000000;stroke-linecap:square;stroke-width:0.8;"/>
   </g>
   <g id="line2d_5">
    <path clip-path="url(#pb0d45c9644)" d="M 59.037408 113.876471 
L 124.684467 113.876471 
" style="fill:none;stroke:#d3d3d3;stroke-linecap:square;stroke-width:0.8;"/>
   </g>
   <g id="line2d_6">
    <path clip-path="url(#pb0d45c9644)" d="M 59.037408 113.876471 
L 124.684467 168.582353 
" style="fill:none;stroke:#d3d3d3;stroke-linecap:square;stroke-width:0.8;"/>
   </g>
   <g id="line2d_7">
    <path clip-path="url(#pb0d45c9644)" d="M 59.037408 168.582353 
L 124.684467 59.170588 
" style="fill:none;stroke:#000000;stroke-linecap:square;stroke-width:0.8;"/>
   </g>
   <g id="line2d_8">
    <path clip-path="url(#pb0d45c9644)" d="M 59.037408 168.582353 
L 124.684467 113.876471 
" style="fill:none;stroke:#d3d3d3;stroke-linecap:square;stroke-width:0.8;"/>
   </g>
   <g id="line2d_9">
    <path clip-path="url(#pb0d45c9644)" d="M 59.037408 168.582353 
L 124.684467 168.582353 
" style="fill:none;stroke:#d3d3d3;stroke-linecap:square;stroke-width:0.8;"/>
   </g>
   <g id="line2d_10">
    <path clip-path="url(#pb0d45c9644)" d="M 124.684467 59.170588 
L 190.331526 113.876471 
" style="fill:none;stroke:#d3d3d3;stroke-linecap:square;stroke-width:0.8;"/>
   </g>
   <g id="line2d_11">
    <path clip-path="url(#pb0d45c9644)" d="M 124.684467 113.876471 
L 190.331526 113.876471 
" style="fill:none;stroke:#d3d3d3;stroke-linecap:square;stroke-width:0.8;"/>
   </g>
   <g id="line2d_12">
    <path clip-path="url(#pb0d45c9644)" d="M 124.684467 168.582353 
L 190.331526 113.876471 
" style="fill:none;stroke:#d3d3d3;stroke-linecap:square;stroke-width:0.8;"/>
   </g>
   <g id="text_1">
    <!-- $W_{11}$ -->
    <g transform="translate(83.310937 57.090901)scale(0.1 -0.1)">
     <defs>
      <path d="M 1141 -72 
L 844 4006 
Q 822 4100 703 4123 
Q 584 4147 409 4147 
Q 347 4147 347 4231 
Q 369 4313 381 4342 
Q 394 4372 453 4372 
L 1978 4372 
Q 2041 4372 2041 4288 
Q 2016 4147 1959 4147 
Q 1447 4147 1416 3969 
L 1644 738 
L 3244 3525 
L 3213 4006 
Q 3191 4100 3072 4123 
Q 2953 4147 2778 4147 
Q 2713 4147 2713 4231 
Q 2734 4313 2746 4342 
Q 2759 4372 2822 4372 
L 4347 4372 
Q 4409 4372 4409 4288 
Q 4406 4272 4397 4234 
Q 4388 4197 4372 4172 
Q 4356 4147 4325 4147 
Q 3809 4147 3781 3969 
L 3781 3922 
L 4013 738 
L 5753 3775 
Q 5791 3844 5791 3909 
Q 5791 4041 5662 4094 
Q 5534 4147 5375 4147 
Q 5313 4147 5313 4231 
Q 5325 4281 5333 4309 
Q 5341 4338 5361 4355 
Q 5381 4372 5422 4372 
L 6644 4372 
Q 6706 4372 6706 4288 
Q 6703 4272 6693 4233 
Q 6684 4194 6667 4170 
Q 6650 4147 6625 4147 
Q 6169 4147 5931 3731 
Q 5913 3713 5913 3713 
L 3744 -72 
Q 3709 -141 3634 -141 
L 3584 -141 
Q 3506 -141 3506 -72 
L 3263 3225 
L 1381 -72 
Q 1334 -141 1269 -141 
L 1216 -141 
Q 1141 -141 1141 -72 
z
" id="Cmmi10-57" transform="scale(0.015625)"/>
      <path d="M 594 0 
L 594 225 
Q 1394 225 1394 428 
L 1394 3788 
Q 1063 3628 556 3628 
L 556 3853 
Q 1341 3853 1741 4263 
L 1831 4263 
Q 1853 4263 1873 4245 
Q 1894 4228 1894 4206 
L 1894 428 
Q 1894 225 2694 225 
L 2694 0 
L 594 0 
z
" id="Cmr10-31" transform="scale(0.015625)"/>
     </defs>
     <use transform="translate(0 0.6875)" xlink:href="#Cmmi10-57"/>
     <use transform="translate(94.384766 -16.31875)scale(0.7)" xlink:href="#Cmr10-31"/>
     <use transform="translate(129.384766 -16.31875)scale(0.7)" xlink:href="#Cmr10-31"/>
    </g>
   </g>
   <g id="text_2">
    <!-- $W_{12}$ -->
    <g transform="translate(87.059154 84.925869)rotate(-39.805571)scale(0.1 -0.1)">
     <defs>
      <path d="M 319 0 
L 319 172 
Q 319 188 331 206 
L 1325 1306 
Q 1550 1550 1690 1715 
Q 1831 1881 1968 2097 
Q 2106 2313 2186 2536 
Q 2266 2759 2266 3009 
Q 2266 3272 2169 3511 
Q 2072 3750 1880 3894 
Q 1688 4038 1416 4038 
Q 1138 4038 916 3870 
Q 694 3703 603 3438 
Q 628 3444 672 3444 
Q 816 3444 917 3347 
Q 1019 3250 1019 3097 
Q 1019 2950 917 2848 
Q 816 2747 672 2747 
Q 522 2747 420 2851 
Q 319 2956 319 3097 
Q 319 3338 409 3548 
Q 500 3759 670 3923 
Q 841 4088 1055 4175 
Q 1269 4263 1509 4263 
Q 1875 4263 2190 4108 
Q 2506 3953 2690 3670 
Q 2875 3388 2875 3009 
Q 2875 2731 2753 2481 
Q 2631 2231 2440 2026 
Q 2250 1822 1953 1562 
Q 1656 1303 1563 1216 
L 838 519 
L 1453 519 
Q 1906 519 2211 526 
Q 2516 534 2534 550 
Q 2609 631 2688 1141 
L 2875 1141 
L 2694 0 
L 319 0 
z
" id="Cmr10-32" transform="scale(0.015625)"/>
     </defs>
     <use transform="translate(0 0.6875)" xlink:href="#Cmmi10-57"/>
     <use transform="translate(94.384766 -16.31875)scale(0.7)" xlink:href="#Cmr10-31"/>
     <use transform="translate(129.384766 -16.31875)scale(0.7)" xlink:href="#Cmr10-32"/>
    </g>
   </g>
   <g id="text_3">
    <!-- $W_{13}$ -->
    <g transform="translate(89.828143 112.80648)rotate(-59.036243)scale(0.1 -0.1)">
     <defs>
      <path d="M 609 494 
Q 759 275 1012 169 
Q 1266 63 1556 63 
Q 1928 63 2084 380 
Q 2241 697 2241 1100 
Q 2241 1281 2208 1462 
Q 2175 1644 2097 1800 
Q 2019 1956 1883 2050 
Q 1747 2144 1550 2144 
L 1125 2144 
Q 1069 2144 1069 2203 
L 1069 2259 
Q 1069 2309 1125 2309 
L 1478 2338 
Q 1703 2338 1851 2506 
Q 2000 2675 2069 2917 
Q 2138 3159 2138 3378 
Q 2138 3684 1994 3881 
Q 1850 4078 1556 4078 
Q 1313 4078 1091 3986 
Q 869 3894 738 3706 
Q 750 3709 759 3711 
Q 769 3713 781 3713 
Q 925 3713 1022 3613 
Q 1119 3513 1119 3372 
Q 1119 3234 1022 3134 
Q 925 3034 781 3034 
Q 641 3034 541 3134 
Q 441 3234 441 3372 
Q 441 3647 606 3850 
Q 772 4053 1033 4158 
Q 1294 4263 1556 4263 
Q 1750 4263 1965 4205 
Q 2181 4147 2356 4039 
Q 2531 3931 2642 3762 
Q 2753 3594 2753 3378 
Q 2753 3109 2633 2881 
Q 2513 2653 2303 2487 
Q 2094 2322 1844 2241 
Q 2122 2188 2372 2031 
Q 2622 1875 2773 1631 
Q 2925 1388 2925 1106 
Q 2925 753 2731 467 
Q 2538 181 2222 20 
Q 1906 -141 1556 -141 
Q 1256 -141 954 -26 
Q 653 88 461 316 
Q 269 544 269 863 
Q 269 1022 375 1128 
Q 481 1234 641 1234 
Q 744 1234 830 1186 
Q 916 1138 964 1050 
Q 1013 963 1013 863 
Q 1013 706 903 600 
Q 794 494 641 494 
L 609 494 
z
" id="Cmr10-33" transform="scale(0.015625)"/>
     </defs>
     <use transform="translate(0 0.6875)" xlink:href="#Cmmi10-57"/>
     <use transform="translate(94.384766 -16.31875)scale(0.7)" xlink:href="#Cmr10-31"/>
     <use transform="translate(129.384766 -16.31875)scale(0.7)" xlink:href="#Cmr10-33"/>
    </g>
   </g>
   <g id="text_4">
    <!-- A -->
    <g transform="translate(7.2 18.597656)scale(0.15 -0.15)">
     <defs>
      <path d="M 2188 4044 
L 1331 1722 
L 3047 1722 
L 2188 4044 
z
M 1831 4666 
L 2547 4666 
L 4325 0 
L 3669 0 
L 3244 1197 
L 1141 1197 
L 716 0 
L 50 0 
L 1831 4666 
z
" id="DejaVuSans-41" transform="scale(0.015625)"/>
     </defs>
     <use xlink:href="#DejaVuSans-41"/>
    </g>
   </g>
   <g id="patch_2">
    <path clip-path="url(#pb0d45c9644)" d="M 59.037408 71.205882 
C 62.229205 71.205882 65.290705 69.937768 67.547646 67.680826 
C 69.804588 65.423885 71.072702 62.362386 71.072702 59.170588 
C 71.072702 55.978791 69.804588 52.917292 67.547646 50.66035 
C 65.290705 48.403409 62.229205 47.135294 59.037408 47.135294 
C 55.845611 47.135294 52.784112 48.403409 50.52717 50.66035 
C 48.270228 52.917292 47.002114 55.978791 47.002114 59.170588 
C 47.002114 62.362386 48.270228 65.423885 50.52717 67.680826 
C 52.784112 69.937768 55.845611 71.205882 59.037408 71.205882 
z
" style="fill:#ffffff;stroke:#1f77b4;stroke-linejoin:miter;"/>
   </g>
   <g id="patch_3">
    <path clip-path="url(#pb0d45c9644)" d="M 59.037408 125.911765 
C 62.229205 125.911765 65.290705 124.64365 67.547646 122.386709 
C 69.804588 120.129767 71.072702 117.068268 71.072702 113.876471 
C 71.072702 110.684673 69.804588 107.623174 67.547646 105.366233 
C 65.290705 103.109291 62.229205 101.841176 59.037408 101.841176 
C 55.845611 101.841176 52.784112 103.109291 50.52717 105.366233 
C 48.270228 107.623174 47.002114 110.684673 47.002114 113.876471 
C 47.002114 117.068268 48.270228 120.129767 50.52717 122.386709 
C 52.784112 124.64365 55.845611 125.911765 59.037408 125.911765 
z
" style="fill:#ffffff;stroke:#1f77b4;stroke-linejoin:miter;"/>
   </g>
   <g id="patch_4">
    <path clip-path="url(#pb0d45c9644)" d="M 59.037408 180.617647 
C 62.229205 180.617647 65.290705 179.349533 67.547646 177.092591 
C 69.804588 174.83565 71.072702 171.77415 71.072702 168.582353 
C 71.072702 165.390556 69.804588 162.329056 67.547646 160.072115 
C 65.290705 157.815173 62.229205 156.547059 59.037408 156.547059 
C 55.845611 156.547059 52.784112 157.815173 50.52717 160.072115 
C 48.270228 162.329056 47.002114 165.390556 47.002114 168.582353 
C 47.002114 171.77415 48.270228 174.83565 50.52717 177.092591 
C 52.784112 179.349533 55.845611 180.617647 59.037408 180.617647 
z
" style="fill:#ffffff;stroke:#1f77b4;stroke-linejoin:miter;"/>
   </g>
   <g id="patch_5">
    <path clip-path="url(#pb0d45c9644)" d="M 124.684467 71.205882 
C 127.876264 71.205882 130.937763 69.937768 133.194705 67.680826 
C 135.451647 65.423885 136.719761 62.362386 136.719761 59.170588 
C 136.719761 55.978791 135.451647 52.917292 133.194705 50.66035 
C 130.937763 48.403409 127.876264 47.135294 124.684467 47.135294 
C 121.49267 47.135294 118.43117 48.403409 116.174229 50.66035 
C 113.917287 52.917292 112.649173 55.978791 112.649173 59.170588 
C 112.649173 62.362386 113.917287 65.423885 116.174229 67.680826 
C 118.43117 69.937768 121.49267 71.205882 124.684467 71.205882 
z
" style="fill:#ffffff;stroke:#ff7f0e;stroke-linejoin:miter;"/>
   </g>
   <g id="patch_6">
    <path clip-path="url(#pb0d45c9644)" d="M 124.684467 125.911765 
C 127.876264 125.911765 130.937763 124.64365 133.194705 122.386709 
C 135.451647 120.129767 136.719761 117.068268 136.719761 113.876471 
C 136.719761 110.684673 135.451647 107.623174 133.194705 105.366233 
C 130.937763 103.109291 127.876264 101.841176 124.684467 101.841176 
C 121.49267 101.841176 118.43117 103.109291 116.174229 105.366233 
C 113.917287 107.623174 112.649173 110.684673 112.649173 113.876471 
C 112.649173 117.068268 113.917287 120.129767 116.174229 122.386709 
C 118.43117 124.64365 121.49267 125.911765 124.684467 125.911765 
z
" style="fill:#ffffff;stroke:#d3d3d3;stroke-linejoin:miter;"/>
   </g>
   <g id="patch_7">
    <path clip-path="url(#pb0d45c9644)" d="M 124.684467 180.617647 
C 127.876264 180.617647 130.937763 179.349533 133.194705 177.092591 
C 135.451647 174.83565 136.719761 171.77415 136.719761 168.582353 
C 136.719761 165.390556 135.451647 162.329056 133.194705 160.072115 
C 130.937763 157.815173 127.876264 156.547059 124.684467 156.547059 
C 121.49267 156.547059 118.43117 157.815173 116.174229 160.072115 
C 113.917287 162.329056 112.649173 165.390556 112.649173 168.582353 
C 112.649173 171.77415 113.917287 174.83565 116.174229 177.092591 
C 118.43117 179.349533 121.49267 180.617647 124.684467 180.617647 
z
" style="fill:#ffffff;stroke:#d3d3d3;stroke-linejoin:miter;"/>
   </g>
   <g id="patch_8">
    <path clip-path="url(#pb0d45c9644)" d="M 190.331526 125.911765 
C 193.523323 125.911765 196.584822 124.64365 198.841764 122.386709 
C 201.098705 120.129767 202.36682 117.068268 202.36682 113.876471 
C 202.36682 110.684673 201.098705 107.623174 198.841764 105.366233 
C 196.584822 103.109291 193.523323 101.841176 190.331526 101.841176 
C 187.139728 101.841176 184.078229 103.109291 181.821288 105.366233 
C 179.564346 107.623174 178.296232 110.684673 178.296232 113.876471 
C 178.296232 117.068268 179.564346 120.129767 181.821288 122.386709 
C 184.078229 124.64365 187.139728 125.911765 190.331526 125.911765 
z
" style="fill:#ffffff;stroke:#d3d3d3;stroke-linejoin:miter;"/>
   </g>
   <g id="text_5">
    <!-- $x_1$ -->
    <g transform="translate(54.087408 61.929963)scale(0.1 -0.1)">
     <defs>
      <path d="M 500 184 
Q 613 97 819 97 
Q 1019 97 1172 289 
Q 1325 481 1381 709 
L 1672 1844 
Q 1741 2153 1741 2266 
Q 1741 2425 1652 2544 
Q 1563 2663 1403 2663 
Q 1200 2663 1022 2536 
Q 844 2409 722 2214 
Q 600 2019 550 1819 
Q 538 1778 500 1778 
L 422 1778 
Q 372 1778 372 1838 
L 372 1856 
Q 434 2094 584 2320 
Q 734 2547 951 2687 
Q 1169 2828 1416 2828 
Q 1650 2828 1839 2703 
Q 2028 2578 2106 2363 
Q 2216 2559 2386 2693 
Q 2556 2828 2759 2828 
Q 2897 2828 3040 2779 
Q 3184 2731 3275 2631 
Q 3366 2531 3366 2381 
Q 3366 2219 3261 2101 
Q 3156 1984 2994 1984 
Q 2891 1984 2822 2050 
Q 2753 2116 2753 2216 
Q 2753 2350 2845 2451 
Q 2938 2553 3066 2572 
Q 2950 2663 2747 2663 
Q 2541 2663 2389 2472 
Q 2238 2281 2175 2047 
L 1894 916 
Q 1825 659 1825 494 
Q 1825 331 1917 214 
Q 2009 97 2163 97 
Q 2463 97 2698 361 
Q 2934 625 3009 941 
Q 3022 978 3059 978 
L 3138 978 
Q 3163 978 3178 961 
Q 3194 944 3194 922 
Q 3194 916 3188 903 
Q 3097 522 2806 225 
Q 2516 -72 2150 -72 
Q 1916 -72 1727 54 
Q 1538 181 1459 397 
Q 1359 209 1182 68 
Q 1006 -72 806 -72 
Q 669 -72 523 -23 
Q 378 25 287 125 
Q 197 225 197 378 
Q 197 528 301 651 
Q 406 775 563 775 
Q 669 775 741 711 
Q 813 647 813 544 
Q 813 409 723 309 
Q 634 209 500 184 
z
" id="Cmmi10-78" transform="scale(0.015625)"/>
     </defs>
     <use transform="translate(0 0.8125)" xlink:href="#Cmmi10-78"/>
     <use transform="translate(57.080078 -16.19375)scale(0.7)" xlink:href="#Cmr10-31"/>
    </g>
   </g>
   <g id="text_6">
    <!-- $x_2$ -->
    <g transform="translate(54.087408 116.635846)scale(0.1 -0.1)">
     <use transform="translate(0 0.8125)" xlink:href="#Cmmi10-78"/>
     <use transform="translate(57.080078 -16.19375)scale(0.7)" xlink:href="#Cmr10-32"/>
    </g>
   </g>
   <g id="text_7">
    <!-- $x_3$ -->
    <g transform="translate(54.087408 171.341728)scale(0.1 -0.1)">
     <use transform="translate(0 0.8125)" xlink:href="#Cmmi10-78"/>
     <use transform="translate(57.080078 -16.19375)scale(0.7)" xlink:href="#Cmr10-33"/>
    </g>
   </g>
   <g id="text_8">
    <!-- $a^{[1]}_1$ -->
    <g transform="translate(117.684467 63.070588)scale(0.1 -0.1)">
     <defs>
      <path d="M 1113 -72 
Q 709 -72 476 233 
Q 244 538 244 953 
Q 244 1363 456 1803 
Q 669 2244 1030 2536 
Q 1391 2828 1806 2828 
Q 1997 2828 2147 2725 
Q 2297 2622 2381 2444 
Q 2453 2700 2663 2700 
Q 2744 2700 2798 2651 
Q 2853 2603 2853 2522 
Q 2853 2503 2851 2493 
Q 2850 2484 2847 2472 
L 2400 684 
Q 2356 494 2356 372 
Q 2356 97 2541 97 
Q 2741 97 2845 351 
Q 2950 606 3022 941 
Q 3034 978 3072 978 
L 3150 978 
Q 3175 978 3190 956 
Q 3206 934 3206 916 
Q 3094 469 2961 198 
Q 2828 -72 2528 -72 
Q 2313 -72 2147 54 
Q 1981 181 1941 391 
Q 1528 -72 1113 -72 
z
M 1119 97 
Q 1350 97 1567 270 
Q 1784 444 1941 678 
Q 1947 684 1947 697 
L 2291 2088 
L 2297 2106 
Q 2259 2334 2132 2498 
Q 2006 2663 1791 2663 
Q 1575 2663 1389 2486 
Q 1203 2309 1075 2069 
Q 950 1813 836 1366 
Q 722 919 722 672 
Q 722 450 817 273 
Q 913 97 1119 97 
z
" id="Cmmi10-61" transform="scale(0.015625)"/>
      <path d="M 756 -1600 
L 756 4800 
L 1631 4800 
L 1631 4544 
L 1013 4544 
L 1013 -1344 
L 1631 -1344 
L 1631 -1600 
L 756 -1600 
z
" id="Cmr10-5b" transform="scale(0.015625)"/>
      <path d="M 141 -1600 
L 141 -1344 
L 763 -1344 
L 763 4544 
L 141 4544 
L 141 4800 
L 1019 4800 
L 1019 -1600 
L 141 -1600 
z
" id="Cmr10-5d" transform="scale(0.015625)"/>
     </defs>
     <use transform="translate(0 0.382812)" xlink:href="#Cmmi10-61"/>
     <use transform="translate(59.086484 51.5)scale(0.7)" xlink:href="#Cmr10-5b"/>
     <use transform="translate(78.466367 51.5)scale(0.7)" xlink:href="#Cmr10-31"/>
     <use transform="translate(113.466367 51.5)scale(0.7)" xlink:href="#Cmr10-5d"/>
     <use transform="translate(52.783203 -25.126563)scale(0.7)" xlink:href="#Cmr10-31"/>
    </g>
   </g>
  </g>
  <g id="axes_2">
   <g id="line2d_13">
    <path clip-path="url(#pda59e9e65e)" d="M 295.36682 59.170588 
L 361.013879 59.170588 
" style="fill:none;stroke:#d3d3d3;stroke-linecap:square;stroke-width:0.8;"/>
   </g>
   <g id="line2d_14">
    <path clip-path="url(#pda59e9e65e)" d="M 295.36682 59.170588 
L 361.013879 113.876471 
" style="fill:none;stroke:#000000;stroke-linecap:square;stroke-width:0.8;"/>
   </g>
   <g id="line2d_15">
    <path clip-path="url(#pda59e9e65e)" d="M 295.36682 59.170588 
L 361.013879 168.582353 
" style="fill:none;stroke:#d3d3d3;stroke-linecap:square;stroke-width:0.8;"/>
   </g>
   <g id="line2d_16">
    <path clip-path="url(#pda59e9e65e)" d="M 295.36682 113.876471 
L 361.013879 59.170588 
" style="fill:none;stroke:#d3d3d3;stroke-linecap:square;stroke-width:0.8;"/>
   </g>
   <g id="line2d_17">
    <path clip-path="url(#pda59e9e65e)" d="M 295.36682 113.876471 
L 361.013879 113.876471 
" style="fill:none;stroke:#000000;stroke-linecap:square;stroke-width:0.8;"/>
   </g>
   <g id="line2d_18">
    <path clip-path="url(#pda59e9e65e)" d="M 295.36682 113.876471 
L 361.013879 168.582353 
" style="fill:none;stroke:#d3d3d3;stroke-linecap:square;stroke-width:0.8;"/>
   </g>
   <g id="line2d_19">
    <path clip-path="url(#pda59e9e65e)" d="M 295.36682 168.582353 
L 361.013879 59.170588 
" style="fill:none;stroke:#d3d3d3;stroke-linecap:square;stroke-width:0.8;"/>
   </g>
   <g id="line2d_20">
    <path clip-path="url(#pda59e9e65e)" d="M 295.36682 168.582353 
L 361.013879 113.876471 
" style="fill:none;stroke:#000000;stroke-linecap:square;stroke-width:0.8;"/>
   </g>
   <g id="line2d_21">
    <path clip-path="url(#pda59e9e65e)" d="M 295.36682 168.582353 
L 361.013879 168.582353 
" style="fill:none;stroke:#d3d3d3;stroke-linecap:square;stroke-width:0.8;"/>
   </g>
   <g id="line2d_22">
    <path clip-path="url(#pda59e9e65e)" d="M 361.013879 59.170588 
L 426.660937 113.876471 
" style="fill:none;stroke:#d3d3d3;stroke-linecap:square;stroke-width:0.8;"/>
   </g>
   <g id="line2d_23">
    <path clip-path="url(#pda59e9e65e)" d="M 361.013879 113.876471 
L 426.660937 113.876471 
" style="fill:none;stroke:#d3d3d3;stroke-linecap:square;stroke-width:0.8;"/>
   </g>
   <g id="line2d_24">
    <path clip-path="url(#pda59e9e65e)" d="M 361.013879 168.582353 
L 426.660937 113.876471 
" style="fill:none;stroke:#d3d3d3;stroke-linecap:square;stroke-width:0.8;"/>
   </g>
   <g id="text_9">
    <!-- $W_{21}$ -->
    <g transform="translate(319.855548 73.978716)rotate(-320.194429)scale(0.1 -0.1)">
     <use transform="translate(0 0.6875)" xlink:href="#Cmmi10-57"/>
     <use transform="translate(94.384766 -16.31875)scale(0.7)" xlink:href="#Cmr10-32"/>
     <use transform="translate(129.384766 -16.31875)scale(0.7)" xlink:href="#Cmr10-31"/>
    </g>
   </g>
   <g id="text_10">
    <!-- $W_{22}$ -->
    <g transform="translate(319.640349 111.796783)scale(0.1 -0.1)">
     <use transform="translate(0 0.6875)" xlink:href="#Cmmi10-57"/>
     <use transform="translate(94.384766 -16.31875)scale(0.7)" xlink:href="#Cmr10-32"/>
     <use transform="translate(129.384766 -16.31875)scale(0.7)" xlink:href="#Cmr10-32"/>
    </g>
   </g>
   <g id="text_11">
    <!-- $W_{23}$ -->
    <g transform="translate(323.388566 139.631752)rotate(-39.805571)scale(0.1 -0.1)">
     <use transform="translate(0 0.6875)" xlink:href="#Cmmi10-57"/>
     <use transform="translate(94.384766 -16.31875)scale(0.7)" xlink:href="#Cmr10-32"/>
     <use transform="translate(129.384766 -16.31875)scale(0.7)" xlink:href="#Cmr10-33"/>
    </g>
   </g>
   <g id="text_12">
    <!-- B -->
    <g transform="translate(243.498943 18.597656)scale(0.15 -0.15)">
     <defs>
      <path d="M 1259 2228 
L 1259 519 
L 2272 519 
Q 2781 519 3026 730 
Q 3272 941 3272 1375 
Q 3272 1813 3026 2020 
Q 2781 2228 2272 2228 
L 1259 2228 
z
M 1259 4147 
L 1259 2741 
L 2194 2741 
Q 2656 2741 2882 2914 
Q 3109 3088 3109 3444 
Q 3109 3797 2882 3972 
Q 2656 4147 2194 4147 
L 1259 4147 
z
M 628 4666 
L 2241 4666 
Q 2963 4666 3353 4366 
Q 3744 4066 3744 3513 
Q 3744 3084 3544 2831 
Q 3344 2578 2956 2516 
Q 3422 2416 3680 2098 
Q 3938 1781 3938 1306 
Q 3938 681 3513 340 
Q 3088 0 2303 0 
L 628 0 
L 628 4666 
z
" id="DejaVuSans-42" transform="scale(0.015625)"/>
     </defs>
     <use xlink:href="#DejaVuSans-42"/>
    </g>
   </g>
   <g id="patch_9">
    <path clip-path="url(#pda59e9e65e)" d="M 295.36682 71.205882 
C 298.558617 71.205882 301.620116 69.937768 303.877058 67.680826 
C 306.133999 65.423885 307.402114 62.362386 307.402114 59.170588 
C 307.402114 55.978791 306.133999 52.917292 303.877058 50.66035 
C 301.620116 48.403409 298.558617 47.135294 295.36682 47.135294 
C 292.175023 47.135294 289.113523 48.403409 286.856582 50.66035 
C 284.59964 52.917292 283.331526 55.978791 283.331526 59.170588 
C 283.331526 62.362386 284.59964 65.423885 286.856582 67.680826 
C 289.113523 69.937768 292.175023 71.205882 295.36682 71.205882 
z
" style="fill:#ffffff;stroke:#1f77b4;stroke-linejoin:miter;"/>
   </g>
   <g id="patch_10">
    <path clip-path="url(#pda59e9e65e)" d="M 295.36682 125.911765 
C 298.558617 125.911765 301.620116 124.64365 303.877058 122.386709 
C 306.133999 120.129767 307.402114 117.068268 307.402114 113.876471 
C 307.402114 110.684673 306.133999 107.623174 303.877058 105.366233 
C 301.620116 103.109291 298.558617 101.841176 295.36682 101.841176 
C 292.175023 101.841176 289.113523 103.109291 286.856582 105.366233 
C 284.59964 107.623174 283.331526 110.684673 283.331526 113.876471 
C 283.331526 117.068268 284.59964 120.129767 286.856582 122.386709 
C 289.113523 124.64365 292.175023 125.911765 295.36682 125.911765 
z
" style="fill:#ffffff;stroke:#1f77b4;stroke-linejoin:miter;"/>
   </g>
   <g id="patch_11">
    <path clip-path="url(#pda59e9e65e)" d="M 295.36682 180.617647 
C 298.558617 180.617647 301.620116 179.349533 303.877058 177.092591 
C 306.133999 174.83565 307.402114 171.77415 307.402114 168.582353 
C 307.402114 165.390556 306.133999 162.329056 303.877058 160.072115 
C 301.620116 157.815173 298.558617 156.547059 295.36682 156.547059 
C 292.175023 156.547059 289.113523 157.815173 286.856582 160.072115 
C 284.59964 162.329056 283.331526 165.390556 283.331526 168.582353 
C 283.331526 171.77415 284.59964 174.83565 286.856582 177.092591 
C 289.113523 179.349533 292.175023 180.617647 295.36682 180.617647 
z
" style="fill:#ffffff;stroke:#1f77b4;stroke-linejoin:miter;"/>
   </g>
   <g id="patch_12">
    <path clip-path="url(#pda59e9e65e)" d="M 361.013879 71.205882 
C 364.205676 71.205882 367.267175 69.937768 369.524117 67.680826 
C 371.781058 65.423885 373.049173 62.362386 373.049173 59.170588 
C 373.049173 55.978791 371.781058 52.917292 369.524117 50.66035 
C 367.267175 48.403409 364.205676 47.135294 361.013879 47.135294 
C 357.822081 47.135294 354.760582 48.403409 352.503641 50.66035 
C 350.246699 52.917292 348.978585 55.978791 348.978585 59.170588 
C 348.978585 62.362386 350.246699 65.423885 352.503641 67.680826 
C 354.760582 69.937768 357.822081 71.205882 361.013879 71.205882 
z
" style="fill:#ffffff;stroke:#d3d3d3;stroke-linejoin:miter;"/>
   </g>
   <g id="patch_13">
    <path clip-path="url(#pda59e9e65e)" d="M 361.013879 125.911765 
C 364.205676 125.911765 367.267175 124.64365 369.524117 122.386709 
C 371.781058 120.129767 373.049173 117.068268 373.049173 113.876471 
C 373.049173 110.684673 371.781058 107.623174 369.524117 105.366233 
C 367.267175 103.109291 364.205676 101.841176 361.013879 101.841176 
C 357.822081 101.841176 354.760582 103.109291 352.503641 105.366233 
C 350.246699 107.623174 348.978585 110.684673 348.978585 113.876471 
C 348.978585 117.068268 350.246699 120.129767 352.503641 122.386709 
C 354.760582 124.64365 357.822081 125.911765 361.013879 125.911765 
z
" style="fill:#ffffff;stroke:#ff7f0e;stroke-linejoin:miter;"/>
   </g>
   <g id="patch_14">
    <path clip-path="url(#pda59e9e65e)" d="M 361.013879 180.617647 
C 364.205676 180.617647 367.267175 179.349533 369.524117 177.092591 
C 371.781058 174.83565 373.049173 171.77415 373.049173 168.582353 
C 373.049173 165.390556 371.781058 162.329056 369.524117 160.072115 
C 367.267175 157.815173 364.205676 156.547059 361.013879 156.547059 
C 357.822081 156.547059 354.760582 157.815173 352.503641 160.072115 
C 350.246699 162.329056 348.978585 165.390556 348.978585 168.582353 
C 348.978585 171.77415 350.246699 174.83565 352.503641 177.092591 
C 354.760582 179.349533 357.822081 180.617647 361.013879 180.617647 
z
" style="fill:#ffffff;stroke:#d3d3d3;stroke-linejoin:miter;"/>
   </g>
   <g id="patch_15">
    <path clip-path="url(#pda59e9e65e)" d="M 426.660937 125.911765 
C 429.852735 125.911765 432.914234 124.64365 435.171176 122.386709 
C 437.428117 120.129767 438.696232 117.068268 438.696232 113.876471 
C 438.696232 110.684673 437.428117 107.623174 435.171176 105.366233 
C 432.914234 103.109291 429.852735 101.841176 426.660937 101.841176 
C 423.46914 101.841176 420.407641 103.109291 418.150699 105.366233 
C 415.893758 107.623174 414.625643 110.684673 414.625643 113.876471 
C 414.625643 117.068268 415.893758 120.129767 418.150699 122.386709 
C 420.407641 124.64365 423.46914 125.911765 426.660937 125.911765 
z
" style="fill:#ffffff;stroke:#d3d3d3;stroke-linejoin:miter;"/>
   </g>
   <g id="text_13">
    <!-- $x_1$ -->
    <g transform="translate(290.41682 61.929963)scale(0.1 -0.1)">
     <use transform="translate(0 0.8125)" xlink:href="#Cmmi10-78"/>
     <use transform="translate(57.080078 -16.19375)scale(0.7)" xlink:href="#Cmr10-31"/>
    </g>
   </g>
   <g id="text_14">
    <!-- $x_2$ -->
    <g transform="translate(290.41682 116.635846)scale(0.1 -0.1)">
     <use transform="translate(0 0.8125)" xlink:href="#Cmmi10-78"/>
     <use transform="translate(57.080078 -16.19375)scale(0.7)" xlink:href="#Cmr10-32"/>
    </g>
   </g>
   <g id="text_15">
    <!-- $x_3$ -->
    <g transform="translate(290.41682 171.341728)scale(0.1 -0.1)">
     <use transform="translate(0 0.8125)" xlink:href="#Cmmi10-78"/>
     <use transform="translate(57.080078 -16.19375)scale(0.7)" xlink:href="#Cmr10-33"/>
    </g>
   </g>
   <g id="text_16">
    <!-- $a^{[1]}_2$ -->
    <g transform="translate(354.013879 117.776471)scale(0.1 -0.1)">
     <use transform="translate(0 0.382812)" xlink:href="#Cmmi10-61"/>
     <use transform="translate(59.086484 51.5)scale(0.7)" xlink:href="#Cmr10-5b"/>
     <use transform="translate(78.466367 51.5)scale(0.7)" xlink:href="#Cmr10-31"/>
     <use transform="translate(113.466367 51.5)scale(0.7)" xlink:href="#Cmr10-5d"/>
     <use transform="translate(52.783203 -25.126563)scale(0.7)" xlink:href="#Cmr10-32"/>
    </g>
   </g>
  </g>
  <g id="axes_3">
   <g id="line2d_25">
    <path clip-path="url(#pcf14e3ae6a)" d="M 531.696232 59.170588 
L 597.34329 59.170588 
" style="fill:none;stroke:#d3d3d3;stroke-linecap:square;stroke-width:0.8;"/>
   </g>
   <g id="line2d_26">
    <path clip-path="url(#pcf14e3ae6a)" d="M 531.696232 59.170588 
L 597.34329 113.876471 
" style="fill:none;stroke:#d3d3d3;stroke-linecap:square;stroke-width:0.8;"/>
   </g>
   <g id="line2d_27">
    <path clip-path="url(#pcf14e3ae6a)" d="M 531.696232 59.170588 
L 597.34329 168.582353 
" style="fill:none;stroke:#000000;stroke-linecap:square;stroke-width:0.8;"/>
   </g>
   <g id="line2d_28">
    <path clip-path="url(#pcf14e3ae6a)" d="M 531.696232 113.876471 
L 597.34329 59.170588 
" style="fill:none;stroke:#d3d3d3;stroke-linecap:square;stroke-width:0.8;"/>
   </g>
   <g id="line2d_29">
    <path clip-path="url(#pcf14e3ae6a)" d="M 531.696232 113.876471 
L 597.34329 113.876471 
" style="fill:none;stroke:#d3d3d3;stroke-linecap:square;stroke-width:0.8;"/>
   </g>
   <g id="line2d_30">
    <path clip-path="url(#pcf14e3ae6a)" d="M 531.696232 113.876471 
L 597.34329 168.582353 
" style="fill:none;stroke:#000000;stroke-linecap:square;stroke-width:0.8;"/>
   </g>
   <g id="line2d_31">
    <path clip-path="url(#pcf14e3ae6a)" d="M 531.696232 168.582353 
L 597.34329 59.170588 
" style="fill:none;stroke:#d3d3d3;stroke-linecap:square;stroke-width:0.8;"/>
   </g>
   <g id="line2d_32">
    <path clip-path="url(#pcf14e3ae6a)" d="M 531.696232 168.582353 
L 597.34329 113.876471 
" style="fill:none;stroke:#d3d3d3;stroke-linecap:square;stroke-width:0.8;"/>
   </g>
   <g id="line2d_33">
    <path clip-path="url(#pcf14e3ae6a)" d="M 531.696232 168.582353 
L 597.34329 168.582353 
" style="fill:none;stroke:#000000;stroke-linecap:square;stroke-width:0.8;"/>
   </g>
   <g id="line2d_34">
    <path clip-path="url(#pcf14e3ae6a)" d="M 597.34329 59.170588 
L 662.990349 113.876471 
" style="fill:none;stroke:#d3d3d3;stroke-linecap:square;stroke-width:0.8;"/>
   </g>
   <g id="line2d_35">
    <path clip-path="url(#pcf14e3ae6a)" d="M 597.34329 113.876471 
L 662.990349 113.876471 
" style="fill:none;stroke:#d3d3d3;stroke-linecap:square;stroke-width:0.8;"/>
   </g>
   <g id="line2d_36">
    <path clip-path="url(#pcf14e3ae6a)" d="M 597.34329 168.582353 
L 662.990349 113.876471 
" style="fill:none;stroke:#d3d3d3;stroke-linecap:square;stroke-width:0.8;"/>
   </g>
   <g id="text_17">
    <!-- $W_{31}$ -->
    <g transform="translate(557.754678 98.143351)rotate(-300.963757)scale(0.1 -0.1)">
     <use transform="translate(0 0.6875)" xlink:href="#Cmmi10-57"/>
     <use transform="translate(94.384766 -16.31875)scale(0.7)" xlink:href="#Cmr10-33"/>
     <use transform="translate(129.384766 -16.31875)scale(0.7)" xlink:href="#Cmr10-31"/>
    </g>
   </g>
   <g id="text_18">
    <!-- $W_{32}$ -->
    <g transform="translate(556.18496 128.684598)rotate(-320.194429)scale(0.1 -0.1)">
     <use transform="translate(0 0.6875)" xlink:href="#Cmmi10-57"/>
     <use transform="translate(94.384766 -16.31875)scale(0.7)" xlink:href="#Cmr10-33"/>
     <use transform="translate(129.384766 -16.31875)scale(0.7)" xlink:href="#Cmr10-32"/>
    </g>
   </g>
   <g id="text_19">
    <!-- $W_{33}$ -->
    <g transform="translate(555.969761 166.502665)scale(0.1 -0.1)">
     <use transform="translate(0 0.6875)" xlink:href="#Cmmi10-57"/>
     <use transform="translate(94.384766 -16.31875)scale(0.7)" xlink:href="#Cmr10-33"/>
     <use transform="translate(129.384766 -16.31875)scale(0.7)" xlink:href="#Cmr10-33"/>
    </g>
   </g>
   <g id="text_20">
    <!-- C -->
    <g transform="translate(479.645542 18.597656)scale(0.15 -0.15)">
     <defs>
      <path d="M 4122 4306 
L 4122 3641 
Q 3803 3938 3442 4084 
Q 3081 4231 2675 4231 
Q 1875 4231 1450 3742 
Q 1025 3253 1025 2328 
Q 1025 1406 1450 917 
Q 1875 428 2675 428 
Q 3081 428 3442 575 
Q 3803 722 4122 1019 
L 4122 359 
Q 3791 134 3420 21 
Q 3050 -91 2638 -91 
Q 1578 -91 968 557 
Q 359 1206 359 2328 
Q 359 3453 968 4101 
Q 1578 4750 2638 4750 
Q 3056 4750 3426 4639 
Q 3797 4528 4122 4306 
z
" id="DejaVuSans-43" transform="scale(0.015625)"/>
     </defs>
     <use xlink:href="#DejaVuSans-43"/>
    </g>
   </g>
   <g id="patch_16">
    <path clip-path="url(#pcf14e3ae6a)" d="M 531.696232 71.205882 
C 534.888029 71.205882 537.949528 69.937768 540.20647 67.680826 
C 542.463411 65.423885 543.731526 62.362386 543.731526 59.170588 
C 543.731526 55.978791 542.463411 52.917292 540.20647 50.66035 
C 537.949528 48.403409 534.888029 47.135294 531.696232 47.135294 
C 528.504434 47.135294 525.442935 48.403409 523.185994 50.66035 
C 520.929052 52.917292 519.660938 55.978791 519.660938 59.170588 
C 519.660938 62.362386 520.929052 65.423885 523.185994 67.680826 
C 525.442935 69.937768 528.504434 71.205882 531.696232 71.205882 
z
" style="fill:#ffffff;stroke:#1f77b4;stroke-linejoin:miter;"/>
   </g>
   <g id="patch_17">
    <path clip-path="url(#pcf14e3ae6a)" d="M 531.696232 125.911765 
C 534.888029 125.911765 537.949528 124.64365 540.20647 122.386709 
C 542.463411 120.129767 543.731526 117.068268 543.731526 113.876471 
C 543.731526 110.684673 542.463411 107.623174 540.20647 105.366233 
C 537.949528 103.109291 534.888029 101.841176 531.696232 101.841176 
C 528.504434 101.841176 525.442935 103.109291 523.185994 105.366233 
C 520.929052 107.623174 519.660938 110.684673 519.660938 113.876471 
C 519.660938 117.068268 520.929052 120.129767 523.185994 122.386709 
C 525.442935 124.64365 528.504434 125.911765 531.696232 125.911765 
z
" style="fill:#ffffff;stroke:#1f77b4;stroke-linejoin:miter;"/>
   </g>
   <g id="patch_18">
    <path clip-path="url(#pcf14e3ae6a)" d="M 531.696232 180.617647 
C 534.888029 180.617647 537.949528 179.349533 540.20647 177.092591 
C 542.463411 174.83565 543.731526 171.77415 543.731526 168.582353 
C 543.731526 165.390556 542.463411 162.329056 540.20647 160.072115 
C 537.949528 157.815173 534.888029 156.547059 531.696232 156.547059 
C 528.504434 156.547059 525.442935 157.815173 523.185994 160.072115 
C 520.929052 162.329056 519.660938 165.390556 519.660938 168.582353 
C 519.660938 171.77415 520.929052 174.83565 523.185994 177.092591 
C 525.442935 179.349533 528.504434 180.617647 531.696232 180.617647 
z
" style="fill:#ffffff;stroke:#1f77b4;stroke-linejoin:miter;"/>
   </g>
   <g id="patch_19">
    <path clip-path="url(#pcf14e3ae6a)" d="M 597.34329 71.205882 
C 600.535088 71.205882 603.596587 69.937768 605.853529 67.680826 
C 608.11047 65.423885 609.378585 62.362386 609.378585 59.170588 
C 609.378585 55.978791 608.11047 52.917292 605.853529 50.66035 
C 603.596587 48.403409 600.535088 47.135294 597.34329 47.135294 
C 594.151493 47.135294 591.089994 48.403409 588.833052 50.66035 
C 586.576111 52.917292 585.307996 55.978791 585.307996 59.170588 
C 585.307996 62.362386 586.576111 65.423885 588.833052 67.680826 
C 591.089994 69.937768 594.151493 71.205882 597.34329 71.205882 
z
" style="fill:#ffffff;stroke:#d3d3d3;stroke-linejoin:miter;"/>
   </g>
   <g id="patch_20">
    <path clip-path="url(#pcf14e3ae6a)" d="M 597.34329 125.911765 
C 600.535088 125.911765 603.596587 124.64365 605.853529 122.386709 
C 608.11047 120.129767 609.378585 117.068268 609.378585 113.876471 
C 609.378585 110.684673 608.11047 107.623174 605.853529 105.366233 
C 603.596587 103.109291 600.535088 101.841176 597.34329 101.841176 
C 594.151493 101.841176 591.089994 103.109291 588.833052 105.366233 
C 586.576111 107.623174 585.307996 110.684673 585.307996 113.876471 
C 585.307996 117.068268 586.576111 120.129767 588.833052 122.386709 
C 591.089994 124.64365 594.151493 125.911765 597.34329 125.911765 
z
" style="fill:#ffffff;stroke:#d3d3d3;stroke-linejoin:miter;"/>
   </g>
   <g id="patch_21">
    <path clip-path="url(#pcf14e3ae6a)" d="M 597.34329 180.617647 
C 600.535088 180.617647 603.596587 179.349533 605.853529 177.092591 
C 608.11047 174.83565 609.378585 171.77415 609.378585 168.582353 
C 609.378585 165.390556 608.11047 162.329056 605.853529 160.072115 
C 603.596587 157.815173 600.535088 156.547059 597.34329 156.547059 
C 594.151493 156.547059 591.089994 157.815173 588.833052 160.072115 
C 586.576111 162.329056 585.307996 165.390556 585.307996 168.582353 
C 585.307996 171.77415 586.576111 174.83565 588.833052 177.092591 
C 591.089994 179.349533 594.151493 180.617647 597.34329 180.617647 
z
" style="fill:#ffffff;stroke:#ff7f0e;stroke-linejoin:miter;"/>
   </g>
   <g id="patch_22">
    <path clip-path="url(#pcf14e3ae6a)" d="M 662.990349 125.911765 
C 666.182147 125.911765 669.243646 124.64365 671.500587 122.386709 
C 673.757529 120.129767 675.025643 117.068268 675.025643 113.876471 
C 675.025643 110.684673 673.757529 107.623174 671.500587 105.366233 
C 669.243646 103.109291 666.182147 101.841176 662.990349 101.841176 
C 659.798552 101.841176 656.737053 103.109291 654.480111 105.366233 
C 652.22317 107.623174 650.955055 110.684673 650.955055 113.876471 
C 650.955055 117.068268 652.22317 120.129767 654.480111 122.386709 
C 656.737053 124.64365 659.798552 125.911765 662.990349 125.911765 
z
" style="fill:#ffffff;stroke:#d3d3d3;stroke-linejoin:miter;"/>
   </g>
   <g id="text_21">
    <!-- $x_1$ -->
    <g transform="translate(526.746232 61.929963)scale(0.1 -0.1)">
     <use transform="translate(0 0.8125)" xlink:href="#Cmmi10-78"/>
     <use transform="translate(57.080078 -16.19375)scale(0.7)" xlink:href="#Cmr10-31"/>
    </g>
   </g>
   <g id="text_22">
    <!-- $x_2$ -->
    <g transform="translate(526.746232 116.635846)scale(0.1 -0.1)">
     <use transform="translate(0 0.8125)" xlink:href="#Cmmi10-78"/>
     <use transform="translate(57.080078 -16.19375)scale(0.7)" xlink:href="#Cmr10-32"/>
    </g>
   </g>
   <g id="text_23">
    <!-- $x_3$ -->
    <g transform="translate(526.746232 171.341728)scale(0.1 -0.1)">
     <use transform="translate(0 0.8125)" xlink:href="#Cmmi10-78"/>
     <use transform="translate(57.080078 -16.19375)scale(0.7)" xlink:href="#Cmr10-33"/>
    </g>
   </g>
   <g id="text_24">
    <!-- $a^{[1]}_3$ -->
    <g transform="translate(590.34329 172.382353)scale(0.1 -0.1)">
     <use transform="translate(0 0.382812)" xlink:href="#Cmmi10-61"/>
     <use transform="translate(59.086484 51.5)scale(0.7)" xlink:href="#Cmr10-5b"/>
     <use transform="translate(78.466367 51.5)scale(0.7)" xlink:href="#Cmr10-31"/>
     <use transform="translate(113.466367 51.5)scale(0.7)" xlink:href="#Cmr10-5d"/>
     <use transform="translate(52.783203 -25.126563)scale(0.7)" xlink:href="#Cmr10-33"/>
    </g>
   </g>
  </g>
 </g>
 <defs>
  <clipPath id="pb0d45c9644">
   <rect height="164.117647" width="196.941176" x="37.155055" y="31.817647"/>
  </clipPath>
  <clipPath id="pda59e9e65e">
   <rect height="164.117647" width="196.941176" x="273.484467" y="31.817647"/>
  </clipPath>
  <clipPath id="pcf14e3ae6a">
   <rect height="164.117647" width="196.941176" x="509.813879" y="31.817647"/>
  </clipPath>
 </defs>
</svg>
