<?xml version="1.0" encoding="utf-8" standalone="no"?>
<!DOCTYPE svg PUBLIC "-//W3C//DTD SVG 1.1//EN"
  "http://www.w3.org/Graphics/SVG/1.1/DTD/svg11.dtd">
<svg height="215.28pt" version="1.1" viewBox="0 0 349.2 215.28" width="349.2pt" xmlns="http://www.w3.org/2000/svg" xmlns:xlink="http://www.w3.org/1999/xlink">
 <metadata>
  <rdf:RDF xmlns:cc="http://creativecommons.org/ns#" xmlns:dc="http://purl.org/dc/elements/1.1/" xmlns:rdf="http://www.w3.org/1999/02/22-rdf-syntax-ns#">
   <cc:Work>
    <dc:type rdf:resource="http://purl.org/dc/dcmitype/StillImage"/>
    <dc:date>2021-09-27T21:34:48.859498</dc:date>
    <dc:format>image/svg+xml</dc:format>
    <dc:creator>
     <cc:Agent>
      <dc:title>Matplotlib v3.4.3, https://matplotlib.org/</dc:title>
     </cc:Agent>
    </dc:creator>
   </cc:Work>
  </rdf:RDF>
 </metadata>
 <defs>
  <style type="text/css">*{stroke-linecap:butt;stroke-linejoin:round;}</style>
 </defs>
 <g id="figure_1">
  <g id="patch_1">
   <path d="M 0 215.28 
L 349.2 215.28 
L 349.2 0 
L 0 0 
z
" style="fill:none;"/>
  </g>
  <g id="axes_1">
   <g id="line2d_1">
    <path clip-path="url(#pf9c18253a6)" d="M 49.05 40.68 
L 216.45 107.64 
" style="fill:none;stroke:#000000;stroke-linecap:square;stroke-width:0.25;"/>
   </g>
   <g id="line2d_2">
    <path clip-path="url(#pf9c18253a6)" d="M 49.05 107.64 
L 216.45 107.64 
" style="fill:none;stroke:#000000;stroke-linecap:square;stroke-width:0.25;"/>
   </g>
   <g id="line2d_3">
    <path clip-path="url(#pf9c18253a6)" d="M 49.05 174.6 
L 216.45 107.64 
" style="fill:none;stroke:#000000;stroke-linecap:square;stroke-width:0.25;"/>
   </g>
   <g id="text_1">
    <!-- $w_1$ -->
    <g transform="translate(126.479301 68.032344)rotate(-338.198591)scale(0.1 -0.1)">
     <defs>
      <path d="M 691 744 
Q 691 878 727 1053 
Q 763 1228 806 1364 
Q 850 1500 954 1781 
Q 1059 2063 1069 2088 
Q 1153 2322 1153 2472 
Q 1153 2663 1013 2663 
Q 759 2663 595 2402 
Q 431 2141 353 1819 
Q 341 1778 300 1778 
L 225 1778 
Q 172 1778 172 1838 
L 172 1856 
Q 275 2238 487 2533 
Q 700 2828 1025 2828 
Q 1253 2828 1411 2678 
Q 1569 2528 1569 2297 
Q 1569 2178 1516 2047 
Q 1441 1853 1339 1581 
Q 1238 1309 1181 1087 
Q 1125 866 1125 659 
Q 1125 409 1256 253 
Q 1388 97 1638 97 
Q 1978 97 2203 616 
Q 2194 653 2194 722 
Q 2194 894 2247 1113 
L 2606 2553 
Q 2628 2638 2706 2698 
Q 2784 2759 2875 2759 
Q 2950 2759 3008 2709 
Q 3066 2659 3066 2578 
Q 3066 2541 3059 2528 
L 2700 1100 
Q 2638 844 2638 641 
Q 2638 400 2748 248 
Q 2859 97 3097 97 
Q 3509 97 3775 641 
Q 3875 834 3998 1212 
Q 4122 1591 4122 1791 
Q 4122 1975 4062 2083 
Q 4003 2191 3898 2316 
Q 3794 2441 3794 2503 
Q 3794 2625 3898 2729 
Q 4003 2834 4128 2834 
Q 4281 2834 4348 2693 
Q 4416 2553 4416 2375 
Q 4416 2159 4344 1826 
Q 4272 1494 4162 1158 
Q 4053 822 3956 622 
Q 3606 -72 3084 -72 
Q 2816 -72 2594 31 
Q 2372 134 2266 359 
Q 2163 175 1995 51 
Q 1828 -72 1625 -72 
Q 1203 -72 947 129 
Q 691 331 691 744 
z
" id="Cmmi10-77" transform="scale(0.015625)"/>
      <path d="M 594 0 
L 594 225 
Q 1394 225 1394 428 
L 1394 3788 
Q 1063 3628 556 3628 
L 556 3853 
Q 1341 3853 1741 4263 
L 1831 4263 
Q 1853 4263 1873 4245 
Q 1894 4228 1894 4206 
L 1894 428 
Q 1894 225 2694 225 
L 2694 0 
L 594 0 
z
" id="Cmr10-31" transform="scale(0.015625)"/>
     </defs>
     <use transform="translate(0 0.71875)" xlink:href="#Cmmi10-77"/>
     <use transform="translate(71.484375 -16.2875)scale(0.7)" xlink:href="#Cmr10-31"/>
    </g>
   </g>
   <g id="text_2">
    <!-- $w_2$ -->
    <g transform="translate(127.1 105.560313)scale(0.1 -0.1)">
     <defs>
      <path d="M 319 0 
L 319 172 
Q 319 188 331 206 
L 1325 1306 
Q 1550 1550 1690 1715 
Q 1831 1881 1968 2097 
Q 2106 2313 2186 2536 
Q 2266 2759 2266 3009 
Q 2266 3272 2169 3511 
Q 2072 3750 1880 3894 
Q 1688 4038 1416 4038 
Q 1138 4038 916 3870 
Q 694 3703 603 3438 
Q 628 3444 672 3444 
Q 816 3444 917 3347 
Q 1019 3250 1019 3097 
Q 1019 2950 917 2848 
Q 816 2747 672 2747 
Q 522 2747 420 2851 
Q 319 2956 319 3097 
Q 319 3338 409 3548 
Q 500 3759 670 3923 
Q 841 4088 1055 4175 
Q 1269 4263 1509 4263 
Q 1875 4263 2190 4108 
Q 2506 3953 2690 3670 
Q 2875 3388 2875 3009 
Q 2875 2731 2753 2481 
Q 2631 2231 2440 2026 
Q 2250 1822 1953 1562 
Q 1656 1303 1563 1216 
L 838 519 
L 1453 519 
Q 1906 519 2211 526 
Q 2516 534 2534 550 
Q 2609 631 2688 1141 
L 2875 1141 
L 2694 0 
L 319 0 
z
" id="Cmr10-32" transform="scale(0.015625)"/>
     </defs>
     <use transform="translate(0 0.71875)" xlink:href="#Cmmi10-77"/>
     <use transform="translate(71.484375 -16.2875)scale(0.7)" xlink:href="#Cmr10-32"/>
    </g>
   </g>
   <g id="text_3">
    <!-- $w_3$ -->
    <g transform="translate(128.528913 139.189059)rotate(-21.801409)scale(0.1 -0.1)">
     <defs>
      <path d="M 609 494 
Q 759 275 1012 169 
Q 1266 63 1556 63 
Q 1928 63 2084 380 
Q 2241 697 2241 1100 
Q 2241 1281 2208 1462 
Q 2175 1644 2097 1800 
Q 2019 1956 1883 2050 
Q 1747 2144 1550 2144 
L 1125 2144 
Q 1069 2144 1069 2203 
L 1069 2259 
Q 1069 2309 1125 2309 
L 1478 2338 
Q 1703 2338 1851 2506 
Q 2000 2675 2069 2917 
Q 2138 3159 2138 3378 
Q 2138 3684 1994 3881 
Q 1850 4078 1556 4078 
Q 1313 4078 1091 3986 
Q 869 3894 738 3706 
Q 750 3709 759 3711 
Q 769 3713 781 3713 
Q 925 3713 1022 3613 
Q 1119 3513 1119 3372 
Q 1119 3234 1022 3134 
Q 925 3034 781 3034 
Q 641 3034 541 3134 
Q 441 3234 441 3372 
Q 441 3647 606 3850 
Q 772 4053 1033 4158 
Q 1294 4263 1556 4263 
Q 1750 4263 1965 4205 
Q 2181 4147 2356 4039 
Q 2531 3931 2642 3762 
Q 2753 3594 2753 3378 
Q 2753 3109 2633 2881 
Q 2513 2653 2303 2487 
Q 2094 2322 1844 2241 
Q 2122 2188 2372 2031 
Q 2622 1875 2773 1631 
Q 2925 1388 2925 1106 
Q 2925 753 2731 467 
Q 2538 181 2222 20 
Q 1906 -141 1556 -141 
Q 1256 -141 954 -26 
Q 653 88 461 316 
Q 269 544 269 863 
Q 269 1022 375 1128 
Q 481 1234 641 1234 
Q 744 1234 830 1186 
Q 916 1138 964 1050 
Q 1013 963 1013 863 
Q 1013 706 903 600 
Q 794 494 641 494 
L 609 494 
z
" id="Cmr10-33" transform="scale(0.015625)"/>
     </defs>
     <use transform="translate(0 0.71875)" xlink:href="#Cmmi10-77"/>
     <use transform="translate(71.484375 -16.2875)scale(0.7)" xlink:href="#Cmr10-33"/>
    </g>
   </g>
   <g id="patch_2">
    <path clip-path="url(#pf9c18253a6)" d="M 49.05 69.975 
C 56.819125 69.975 64.271092 66.888294 69.764693 61.394693 
C 75.258294 55.901092 78.345 48.449125 78.345 40.68 
C 78.345 32.910875 75.258294 25.458908 69.764693 19.965307 
C 64.271092 14.471706 56.819125 11.385 49.05 11.385 
C 41.280875 11.385 33.828908 14.471706 28.335307 19.965307 
C 22.841706 25.458908 19.755 32.910875 19.755 40.68 
C 19.755 48.449125 22.841706 55.901092 28.335307 61.394693 
C 33.828908 66.888294 41.280875 69.975 49.05 69.975 
z
" style="fill:#ffffff;stroke:#1f77b4;stroke-linejoin:miter;"/>
   </g>
   <g id="patch_3">
    <path clip-path="url(#pf9c18253a6)" d="M 49.05 136.935 
C 56.819125 136.935 64.271092 133.848294 69.764693 128.354693 
C 75.258294 122.861092 78.345 115.409125 78.345 107.64 
C 78.345 99.870875 75.258294 92.418908 69.764693 86.925307 
C 64.271092 81.431706 56.819125 78.345 49.05 78.345 
C 41.280875 78.345 33.828908 81.431706 28.335307 86.925307 
C 22.841706 92.418908 19.755 99.870875 19.755 107.64 
C 19.755 115.409125 22.841706 122.861092 28.335307 128.354693 
C 33.828908 133.848294 41.280875 136.935 49.05 136.935 
z
" style="fill:#ffffff;stroke:#1f77b4;stroke-linejoin:miter;"/>
   </g>
   <g id="patch_4">
    <path clip-path="url(#pf9c18253a6)" d="M 49.05 203.895 
C 56.819125 203.895 64.271092 200.808294 69.764693 195.314693 
C 75.258294 189.821092 78.345 182.369125 78.345 174.6 
C 78.345 166.830875 75.258294 159.378908 69.764693 153.885307 
C 64.271092 148.391706 56.819125 145.305 49.05 145.305 
C 41.280875 145.305 33.828908 148.391706 28.335307 153.885307 
C 22.841706 159.378908 19.755 166.830875 19.755 174.6 
C 19.755 182.369125 22.841706 189.821092 28.335307 195.314693 
C 33.828908 200.808294 41.280875 203.895 49.05 203.895 
z
" style="fill:#ffffff;stroke:#1f77b4;stroke-linejoin:miter;"/>
   </g>
   <g id="patch_5">
    <path clip-path="url(#pf9c18253a6)" d="M 216.45 136.935 
C 224.219125 136.935 231.671092 133.848294 237.164693 128.354693 
C 242.658294 122.861092 245.745 115.409125 245.745 107.64 
C 245.745 99.870875 242.658294 92.418908 237.164693 86.925307 
C 231.671092 81.431706 224.219125 78.345 216.45 78.345 
C 208.680875 78.345 201.228908 81.431706 195.735307 86.925307 
C 190.241706 92.418908 187.155 99.870875 187.155 107.64 
C 187.155 115.409125 190.241706 122.861092 195.735307 128.354693 
C 201.228908 133.848294 208.680875 136.935 216.45 136.935 
z
" style="fill:#ffffff;stroke:#ff7f0e;stroke-linejoin:miter;"/>
   </g>
   <g id="text_4">
    <!-- $x_1$ -->
    <g transform="translate(44.1 43.439375)scale(0.1 -0.1)">
     <defs>
      <path d="M 500 184 
Q 613 97 819 97 
Q 1019 97 1172 289 
Q 1325 481 1381 709 
L 1672 1844 
Q 1741 2153 1741 2266 
Q 1741 2425 1652 2544 
Q 1563 2663 1403 2663 
Q 1200 2663 1022 2536 
Q 844 2409 722 2214 
Q 600 2019 550 1819 
Q 538 1778 500 1778 
L 422 1778 
Q 372 1778 372 1838 
L 372 1856 
Q 434 2094 584 2320 
Q 734 2547 951 2687 
Q 1169 2828 1416 2828 
Q 1650 2828 1839 2703 
Q 2028 2578 2106 2363 
Q 2216 2559 2386 2693 
Q 2556 2828 2759 2828 
Q 2897 2828 3040 2779 
Q 3184 2731 3275 2631 
Q 3366 2531 3366 2381 
Q 3366 2219 3261 2101 
Q 3156 1984 2994 1984 
Q 2891 1984 2822 2050 
Q 2753 2116 2753 2216 
Q 2753 2350 2845 2451 
Q 2938 2553 3066 2572 
Q 2950 2663 2747 2663 
Q 2541 2663 2389 2472 
Q 2238 2281 2175 2047 
L 1894 916 
Q 1825 659 1825 494 
Q 1825 331 1917 214 
Q 2009 97 2163 97 
Q 2463 97 2698 361 
Q 2934 625 3009 941 
Q 3022 978 3059 978 
L 3138 978 
Q 3163 978 3178 961 
Q 3194 944 3194 922 
Q 3194 916 3188 903 
Q 3097 522 2806 225 
Q 2516 -72 2150 -72 
Q 1916 -72 1727 54 
Q 1538 181 1459 397 
Q 1359 209 1182 68 
Q 1006 -72 806 -72 
Q 669 -72 523 -23 
Q 378 25 287 125 
Q 197 225 197 378 
Q 197 528 301 651 
Q 406 775 563 775 
Q 669 775 741 711 
Q 813 647 813 544 
Q 813 409 723 309 
Q 634 209 500 184 
z
" id="Cmmi10-78" transform="scale(0.015625)"/>
     </defs>
     <use transform="translate(0 0.8125)" xlink:href="#Cmmi10-78"/>
     <use transform="translate(57.080078 -16.19375)scale(0.7)" xlink:href="#Cmr10-31"/>
    </g>
   </g>
   <g id="text_5">
    <!-- $x_2$ -->
    <g transform="translate(44.1 110.399375)scale(0.1 -0.1)">
     <use transform="translate(0 0.8125)" xlink:href="#Cmmi10-78"/>
     <use transform="translate(57.080078 -16.19375)scale(0.7)" xlink:href="#Cmr10-32"/>
    </g>
   </g>
   <g id="text_6">
    <!-- $x_3$ -->
    <g transform="translate(44.1 177.359375)scale(0.1 -0.1)">
     <use transform="translate(0 0.8125)" xlink:href="#Cmmi10-78"/>
     <use transform="translate(57.080078 -16.19375)scale(0.7)" xlink:href="#Cmr10-33"/>
    </g>
   </g>
   <g id="text_7">
    <!-- $\sigma\left(W^Tx+b\right)$ -->
    <g transform="translate(191.6 110.399375)scale(0.1 -0.1)">
     <defs>
      <path d="M 1197 -72 
Q 913 -72 692 64 
Q 472 200 351 431 
Q 231 663 231 941 
Q 231 1238 365 1566 
Q 500 1894 733 2166 
Q 966 2438 1259 2598 
Q 1553 2759 1863 2759 
L 3475 2759 
Q 3541 2759 3587 2715 
Q 3634 2672 3634 2597 
Q 3634 2503 3567 2433 
Q 3500 2363 3406 2363 
L 2625 2363 
Q 2809 2088 2809 1697 
Q 2809 1375 2684 1062 
Q 2559 750 2337 492 
Q 2116 234 1820 81 
Q 1525 -72 1197 -72 
z
M 1203 97 
Q 1553 97 1823 370 
Q 2094 644 2237 1039 
Q 2381 1434 2381 1772 
Q 2381 2047 2229 2205 
Q 2078 2363 1806 2363 
Q 1434 2363 1173 2113 
Q 913 1863 783 1484 
Q 653 1106 653 756 
Q 653 481 798 289 
Q 944 97 1203 97 
z
" id="Cmmi10-be" transform="scale(0.015625)"/>
      <path d="M 1984 -1588 
Q 1628 -1306 1370 -942 
Q 1113 -578 948 -165 
Q 784 247 703 697 
Q 622 1147 622 1600 
Q 622 2059 703 2509 
Q 784 2959 951 3375 
Q 1119 3791 1378 4153 
Q 1638 4516 1984 4788 
Q 1984 4800 2016 4800 
L 2075 4800 
Q 2094 4800 2109 4783 
Q 2125 4766 2125 4744 
Q 2125 4716 2113 4703 
Q 1800 4397 1592 4047 
Q 1384 3697 1257 3301 
Q 1131 2906 1075 2482 
Q 1019 2059 1019 1600 
Q 1019 -434 2106 -1491 
Q 2125 -1509 2125 -1544 
Q 2125 -1559 2108 -1579 
Q 2091 -1600 2075 -1600 
L 2016 -1600 
Q 1984 -1600 1984 -1588 
z
" id="Cmr10-28" transform="scale(0.015625)"/>
      <path d="M 1141 -72 
L 844 4006 
Q 822 4100 703 4123 
Q 584 4147 409 4147 
Q 347 4147 347 4231 
Q 369 4313 381 4342 
Q 394 4372 453 4372 
L 1978 4372 
Q 2041 4372 2041 4288 
Q 2016 4147 1959 4147 
Q 1447 4147 1416 3969 
L 1644 738 
L 3244 3525 
L 3213 4006 
Q 3191 4100 3072 4123 
Q 2953 4147 2778 4147 
Q 2713 4147 2713 4231 
Q 2734 4313 2746 4342 
Q 2759 4372 2822 4372 
L 4347 4372 
Q 4409 4372 4409 4288 
Q 4406 4272 4397 4234 
Q 4388 4197 4372 4172 
Q 4356 4147 4325 4147 
Q 3809 4147 3781 3969 
L 3781 3922 
L 4013 738 
L 5753 3775 
Q 5791 3844 5791 3909 
Q 5791 4041 5662 4094 
Q 5534 4147 5375 4147 
Q 5313 4147 5313 4231 
Q 5325 4281 5333 4309 
Q 5341 4338 5361 4355 
Q 5381 4372 5422 4372 
L 6644 4372 
Q 6706 4372 6706 4288 
Q 6703 4272 6693 4233 
Q 6684 4194 6667 4170 
Q 6650 4147 6625 4147 
Q 6169 4147 5931 3731 
Q 5913 3713 5913 3713 
L 3744 -72 
Q 3709 -141 3634 -141 
L 3584 -141 
Q 3506 -141 3506 -72 
L 3263 3225 
L 1381 -72 
Q 1334 -141 1269 -141 
L 1216 -141 
Q 1141 -141 1141 -72 
z
" id="Cmmi10-57" transform="scale(0.015625)"/>
      <path d="M 294 84 
Q 297 100 308 140 
Q 319 181 336 203 
Q 353 225 384 225 
Q 934 225 1113 256 
Q 1284 300 1319 441 
L 2194 3956 
Q 2222 4034 2222 4097 
Q 2222 4147 1997 4147 
L 1625 4147 
Q 1197 4147 964 4015 
Q 731 3884 622 3668 
Q 513 3453 341 2963 
Q 319 2906 275 2906 
L 219 2906 
Q 153 2906 153 2988 
L 609 4313 
Q 622 4372 672 4372 
L 4453 4372 
Q 4519 4372 4519 4288 
L 4306 2963 
Q 4306 2944 4284 2925 
Q 4263 2906 4244 2906 
L 4184 2906 
Q 4122 2906 4122 2988 
Q 4191 3441 4191 3628 
Q 4191 3853 4097 3968 
Q 4003 4084 3853 4115 
Q 3703 4147 3463 4147 
L 3084 4147 
Q 2913 4147 2853 4115 
Q 2794 4084 2753 3928 
L 1875 416 
Q 1872 403 1870 390 
Q 1869 378 1863 359 
Q 1863 278 1959 256 
Q 2125 225 2669 225 
Q 2731 225 2731 141 
Q 2709 50 2696 25 
Q 2684 0 2625 0 
L 359 0 
Q 294 0 294 84 
z
" id="Cmmi10-54" transform="scale(0.015625)"/>
      <path d="M 481 1472 
Q 428 1472 393 1512 
Q 359 1553 359 1600 
Q 359 1647 393 1687 
Q 428 1728 481 1728 
L 2363 1728 
L 2363 3616 
Q 2363 3666 2400 3698 
Q 2438 3731 2491 3731 
Q 2538 3731 2578 3698 
Q 2619 3666 2619 3616 
L 2619 1728 
L 4500 1728 
Q 4547 1728 4581 1687 
Q 4616 1647 4616 1600 
Q 4616 1553 4581 1512 
Q 4547 1472 4500 1472 
L 2619 1472 
L 2619 -416 
Q 2619 -466 2578 -498 
Q 2538 -531 2491 -531 
Q 2438 -531 2400 -498 
Q 2363 -466 2363 -416 
L 2363 1472 
L 481 1472 
z
" id="Cmr10-2b" transform="scale(0.015625)"/>
      <path d="M 1106 -72 
Q 719 -72 503 231 
Q 288 534 288 941 
Q 288 1000 317 1173 
Q 347 1347 347 1388 
L 966 3872 
Q 991 3981 997 4044 
Q 997 4147 581 4147 
Q 519 4147 519 4231 
Q 522 4247 533 4287 
Q 544 4328 561 4350 
Q 578 4372 609 4372 
L 1472 4441 
Q 1550 4441 1550 4359 
L 1075 2472 
Q 1438 2828 1806 2828 
Q 2078 2828 2273 2684 
Q 2469 2541 2566 2306 
Q 2663 2072 2663 1806 
Q 2663 1497 2542 1167 
Q 2422 838 2209 555 
Q 1997 272 1712 100 
Q 1428 -72 1106 -72 
z
M 1119 97 
Q 1338 97 1528 280 
Q 1719 463 1838 691 
Q 1966 947 2077 1386 
Q 2188 1825 2188 2088 
Q 2188 2316 2092 2489 
Q 1997 2663 1791 2663 
Q 1559 2663 1348 2492 
Q 1138 2322 978 2088 
L 800 1363 
Q 697 959 691 716 
Q 691 475 795 286 
Q 900 97 1119 97 
z
" id="Cmmi10-62" transform="scale(0.015625)"/>
      <path d="M 416 -1600 
Q 359 -1600 359 -1544 
Q 359 -1516 372 -1503 
Q 1466 -434 1466 1600 
Q 1466 3634 384 4691 
Q 359 4706 359 4744 
Q 359 4766 376 4783 
Q 394 4800 416 4800 
L 475 4800 
Q 494 4800 506 4788 
Q 966 4425 1272 3906 
Q 1578 3388 1720 2800 
Q 1863 2213 1863 1600 
Q 1863 1147 1786 708 
Q 1709 269 1542 -157 
Q 1375 -584 1119 -945 
Q 863 -1306 506 -1588 
Q 494 -1600 475 -1600 
L 416 -1600 
z
" id="Cmr10-29" transform="scale(0.015625)"/>
     </defs>
     <use transform="translate(0 0.917188)" xlink:href="#Cmmi10-be"/>
     <use transform="translate(57.080078 16.214063)scale(0.943797)" xlink:href="#Cmr10-28"/>
     <use transform="translate(93.714905 0.917188)" xlink:href="#Cmmi10-57"/>
     <use transform="translate(199.469202 39.18125)scale(0.7)" xlink:href="#Cmmi10-54"/>
     <use transform="translate(246.725452 0.917188)" xlink:href="#Cmmi10-78"/>
     <use transform="translate(321.364124 0.917188)" xlink:href="#Cmr10-2b"/>
     <use transform="translate(416.608264 0.917188)" xlink:href="#Cmmi10-62"/>
     <use transform="translate(459.528186 16.214063)scale(0.943797)" xlink:href="#Cmr10-29"/>
    </g>
   </g>
  </g>
 </g>
 <defs>
  <clipPath id="pf9c18253a6">
   <rect height="200.88" width="334.8" x="7.2" y="7.2"/>
  </clipPath>
 </defs>
</svg>
