<?xml version="1.0" encoding="UTF-8" standalone="no"?>
<!DOCTYPE svg PUBLIC "-//W3C//DTD SVG 1.1//EN"
 "http://www.w3.org/Graphics/SVG/1.1/DTD/svg11.dtd">
<!-- Generated by graphviz version 2.40.1 (20161225.0304)
 -->
<!-- Title: %3 Pages: 1 -->
<svg width="458pt" height="54pt"
 viewBox="0.00 0.00 458.00 54.00" xmlns="http://www.w3.org/2000/svg" xmlns:xlink="http://www.w3.org/1999/xlink">
<g id="graph0" class="graph" transform="scale(1 1) rotate(0) translate(4 50)">
<title>%3</title>
<polygon fill="#ffffff" stroke="transparent" points="-4,4 -4,-50 454,-50 454,4 -4,4"/>
<!-- 1 -->
<g id="node1" class="node">
<title>1</title>
<polygon fill="none" stroke="#000000" points="82,-46 28,-46 28,-10 82,-10 82,-46"/>
<text text-anchor="middle" x="55" y="-25.8" font-family="Times,serif" font-size="9.00" fill="#000000">audio</text>
<text text-anchor="middle" x="14" y="-2.8" font-family="Times,serif" font-size="9.00" fill="#000000">Layer 1</text>
</g>
<!-- 2 -->
<g id="node2" class="node">
<title>2</title>
<polygon fill="none" stroke="#000000" points="180,-46 118,-46 118,-10 180,-10 180,-46"/>
<text text-anchor="middle" x="149" y="-25.8" font-family="Times,serif" font-size="9.00" fill="#000000">vocalizations</text>
<text text-anchor="middle" x="104" y="-2.8" font-family="Times,serif" font-size="9.00" fill="#000000">Layer 2</text>
</g>
<!-- 1&#45;&gt;2 -->
<g id="edge1" class="edge">
<title>1&#45;&gt;2</title>
<path fill="none" stroke="#000000" d="M82.1887,-28C90.217,-28 99.1892,-28 107.8881,-28"/>
<polygon fill="#000000" stroke="#000000" points="107.9013,-31.5001 117.9013,-28 107.9012,-24.5001 107.9013,-31.5001"/>
</g>
<!-- 3 -->
<g id="node3" class="node">
<title>3</title>
<polygon fill="none" stroke="#000000" points="270,-46 216,-46 216,-10 270,-10 270,-46"/>
<text text-anchor="middle" x="243" y="-25.8" font-family="Times,serif" font-size="9.00" fill="#000000">phonemes</text>
<text text-anchor="middle" x="202" y="-2.8" font-family="Times,serif" font-size="9.00" fill="#000000">Layer 3</text>
</g>
<!-- 2&#45;&gt;3 -->
<g id="edge2" class="edge">
<title>2&#45;&gt;3</title>
<path fill="none" stroke="#000000" d="M180.0396,-28C188.2517,-28 197.2013,-28 205.7075,-28"/>
<polygon fill="#000000" stroke="#000000" points="205.7837,-31.5001 215.7837,-28 205.7837,-24.5001 205.7837,-31.5001"/>
</g>
<!-- 4 -->
<g id="node4" class="node">
<title>4</title>
<polygon fill="none" stroke="#000000" points="360,-46 306,-46 306,-10 360,-10 360,-46"/>
<text text-anchor="middle" x="333" y="-25.8" font-family="Times,serif" font-size="9.00" fill="#000000">words</text>
<text text-anchor="middle" x="292" y="-2.8" font-family="Times,serif" font-size="9.00" fill="#000000">Layer 4</text>
</g>
<!-- 3&#45;&gt;4 -->
<g id="edge3" class="edge">
<title>3&#45;&gt;4</title>
<path fill="none" stroke="#000000" d="M270.003,-28C278.0277,-28 286.9665,-28 295.5309,-28"/>
<polygon fill="#000000" stroke="#000000" points="295.7051,-31.5001 305.705,-28 295.705,-24.5001 295.7051,-31.5001"/>
</g>
<!-- 5 -->
<g id="node5" class="node">
<title>5</title>
<polygon fill="none" stroke="#000000" points="450,-46 396,-46 396,-10 450,-10 450,-46"/>
<text text-anchor="middle" x="423" y="-25.8" font-family="Times,serif" font-size="9.00" fill="#000000">sentences</text>
<text text-anchor="middle" x="382" y="-2.8" font-family="Times,serif" font-size="9.00" fill="#000000">Layer 5</text>
</g>
<!-- 4&#45;&gt;5 -->
<g id="edge4" class="edge">
<title>4&#45;&gt;5</title>
<path fill="none" stroke="#000000" d="M360.003,-28C368.0277,-28 376.9665,-28 385.5309,-28"/>
<polygon fill="#000000" stroke="#000000" points="385.7051,-31.5001 395.705,-28 385.705,-24.5001 385.7051,-31.5001"/>
</g>
</g>
</svg>
