<?xml version="1.0" encoding="UTF-8" standalone="no"?>
<!DOCTYPE svg PUBLIC "-//W3C//DTD SVG 1.1//EN"
 "http://www.w3.org/Graphics/SVG/1.1/DTD/svg11.dtd">
<!-- Generated by graphviz version 2.43.0 (0)
 -->
<!-- Title: %3 Pages: 1 -->
<svg width="354pt" height="167pt"
 viewBox="0.00 0.00 354.00 167.00" xmlns="http://www.w3.org/2000/svg" xmlns:xlink="http://www.w3.org/1999/xlink">
<g id="graph0" class="graph" transform="scale(1 1) rotate(0) translate(4 163)">
<title>%3</title>
<polygon fill="white" stroke="transparent" points="-4,4 -4,-163 350,-163 350,4 -4,4"/>
<!-- a -->
<g id="node1" class="node">
<title>a</title>
<ellipse fill="none" stroke="black" cx="37" cy="-141" rx="27" ry="18"/>
<text text-anchor="middle" x="37" y="-137.3" font-family="Times,serif" font-size="14.00">a</text>
<text text-anchor="middle" x="5" y="-111.8" font-family="Times,serif" font-size="14.00">5</text>
</g>
<!-- v -->
<g id="node5" class="node">
<title>v</title>
<polygon fill="none" stroke="black" points="256,-132 190,-132 190,-96 256,-96 256,-132"/>
<text text-anchor="middle" x="223" y="-110.3" font-family="Times,serif" font-size="14.00">v=a+u</text>
<text text-anchor="middle" x="180.5" y="-84.8" font-family="Times,serif" font-size="14.00">11</text>
</g>
<!-- a&#45;&gt;v -->
<g id="edge2" class="edge">
<title>a&#45;&gt;v:w</title>
<path fill="none" stroke="black" d="M61.99,-134.05C90.64,-126.34 140.31,-114.89 184.87,-114.05"/>
<polygon fill="black" stroke="black" points="185.02,-115.8 190,-114 184.98,-112.3 185.02,-115.8"/>
</g>
<!-- b -->
<g id="node2" class="node">
<title>b</title>
<ellipse fill="none" stroke="black" cx="37" cy="-87" rx="27" ry="18"/>
<text text-anchor="middle" x="37" y="-83.3" font-family="Times,serif" font-size="14.00">b</text>
<text text-anchor="middle" x="5" y="-57.8" font-family="Times,serif" font-size="14.00">3</text>
</g>
<!-- u -->
<g id="node4" class="node">
<title>u</title>
<polygon fill="none" stroke="black" points="154,-105 100,-105 100,-69 154,-69 154,-105"/>
<text text-anchor="middle" x="127" y="-83.3" font-family="Times,serif" font-size="14.00">u=bc</text>
<text text-anchor="middle" x="95" y="-57.8" font-family="Times,serif" font-size="14.00">6</text>
</g>
<!-- b&#45;&gt;u -->
<g id="edge1" class="edge">
<title>b&#45;&gt;u:w</title>
<path fill="none" stroke="black" d="M64.25,-87C73.73,-87 84.65,-87 94.99,-87"/>
<polygon fill="black" stroke="black" points="95,-88.75 100,-87 95,-85.25 95,-88.75"/>
</g>
<!-- c -->
<g id="node3" class="node">
<title>c</title>
<ellipse fill="none" stroke="black" cx="37" cy="-33" rx="27" ry="18"/>
<text text-anchor="middle" x="37" y="-29.3" font-family="Times,serif" font-size="14.00">c</text>
<text text-anchor="middle" x="5" y="-3.8" font-family="Times,serif" font-size="14.00">2</text>
</g>
<!-- c&#45;&gt;u -->
<g id="edge3" class="edge">
<title>c&#45;&gt;u:w</title>
<path fill="none" stroke="black" d="M52.82,-47.76C66.24,-60.87 85.36,-78.88 95.1,-84.92"/>
<polygon fill="black" stroke="black" points="94.71,-86.66 100,-87 96.08,-83.44 94.71,-86.66"/>
</g>
<!-- u&#45;&gt;v -->
<g id="edge4" class="edge">
<title>u&#45;&gt;v:w</title>
<path fill="none" stroke="black" d="M154.1,-103.95C163.28,-108.61 174.01,-112.68 184.74,-113.74"/>
<polygon fill="black" stroke="black" points="184.92,-115.5 190,-114 185.09,-112 184.92,-115.5"/>
</g>
<!-- j -->
<g id="node6" class="node">
<title>j</title>
<polygon fill="none" stroke="black" points="346,-132 292,-132 292,-96 346,-96 346,-132"/>
<text text-anchor="middle" x="319" y="-110.3" font-family="Times,serif" font-size="14.00">J=3v</text>
<text text-anchor="middle" x="282.5" y="-84.8" font-family="Times,serif" font-size="14.00">33</text>
</g>
<!-- v&#45;&gt;j -->
<g id="edge5" class="edge">
<title>v&#45;&gt;j:w</title>
<path fill="none" stroke="black" d="M256.17,-114C265.81,-114 276.54,-114 286.73,-114"/>
<polygon fill="black" stroke="black" points="287,-115.75 292,-114 287,-112.25 287,-115.75"/>
</g>
<!-- j&#45;&gt;v -->
<g id="edge6" class="edge">
<title>j:s&#45;&gt;v:s</title>
<path fill="none" stroke="red" d="M319,-95C319,-54.17 231.07,-52.41 223.52,-89.74"/>
<polygon fill="red" stroke="red" points="221.75,-89.85 223,-95 225.23,-90.19 221.75,-89.85"/>
</g>
</g>
</svg>
