<?xml version="1.0" encoding="UTF-8" standalone="no"?>
<!DOCTYPE svg PUBLIC "-//W3C//DTD SVG 1.1//EN"
 "http://www.w3.org/Graphics/SVG/1.1/DTD/svg11.dtd">
<!-- Generated by graphviz version 2.40.1 (20161225.0304)
 -->
<!-- Title: %3 Pages: 1 -->
<svg width="339pt" height="167pt"
 viewBox="0.00 0.00 339.00 167.00" xmlns="http://www.w3.org/2000/svg" xmlns:xlink="http://www.w3.org/1999/xlink">
<g id="graph0" class="graph" transform="scale(1 1) rotate(0) translate(4 163)">
<title>%3</title>
<polygon fill="#ffffff" stroke="transparent" points="-4,4 -4,-163 335,-163 335,4 -4,4"/>
<!-- a -->
<g id="node1" class="node">
<title>a</title>
<ellipse fill="none" stroke="#000000" cx="34" cy="-141" rx="27" ry="18"/>
<text text-anchor="middle" x="34" y="-137.3" font-family="Times,serif" font-size="14.00" fill="#000000">a</text>
<text text-anchor="middle" x="3.5" y="-111.8" font-family="Times,serif" font-size="14.00" fill="#000000">5</text>
</g>
<!-- v -->
<g id="node5" class="node">
<title>v</title>
<polygon fill="none" stroke="#000000" points="241,-132 187,-132 187,-96 241,-96 241,-132"/>
<text text-anchor="middle" x="214" y="-110.3" font-family="Times,serif" font-size="14.00" fill="#000000">v=a+u</text>
<text text-anchor="middle" x="180" y="-84.8" font-family="Times,serif" font-size="14.00" fill="#000000">11</text>
</g>
<!-- a&#45;&gt;v -->
<g id="edge2" class="edge">
<title>a&#45;&gt;v:w</title>
<path fill="none" stroke="#000000" d="M58.9402,-133.8354C87.9138,-126.1333 137.4334,-114.8732 181.8847,-114.0481"/>
<polygon fill="#000000" stroke="#000000" points="182.0167,-115.797 187,-114 181.9837,-112.2972 182.0167,-115.797"/>
</g>
<!-- b -->
<g id="node2" class="node">
<title>b</title>
<ellipse fill="none" stroke="#000000" cx="34" cy="-87" rx="27" ry="18"/>
<text text-anchor="middle" x="34" y="-83.3" font-family="Times,serif" font-size="14.00" fill="#000000">b</text>
<text text-anchor="middle" x="3.5" y="-57.8" font-family="Times,serif" font-size="14.00" fill="#000000">3</text>
</g>
<!-- u -->
<g id="node4" class="node">
<title>u</title>
<polygon fill="none" stroke="#000000" points="151,-105 97,-105 97,-69 151,-69 151,-105"/>
<text text-anchor="middle" x="124" y="-83.3" font-family="Times,serif" font-size="14.00" fill="#000000">u=bc</text>
<text text-anchor="middle" x="93.5" y="-57.8" font-family="Times,serif" font-size="14.00" fill="#000000">6</text>
</g>
<!-- b&#45;&gt;u -->
<g id="edge1" class="edge">
<title>b&#45;&gt;u:w</title>
<path fill="none" stroke="#000000" d="M61.2887,-87C70.8124,-87 81.6979,-87 91.9987,-87"/>
<polygon fill="#000000" stroke="#000000" points="92,-88.7501 97,-87 92,-85.2501 92,-88.7501"/>
</g>
<!-- c -->
<g id="node3" class="node">
<title>c</title>
<ellipse fill="none" stroke="#000000" cx="34" cy="-33" rx="27" ry="18"/>
<text text-anchor="middle" x="34" y="-29.3" font-family="Times,serif" font-size="14.00" fill="#000000">c</text>
<text text-anchor="middle" x="3.5" y="-3.8" font-family="Times,serif" font-size="14.00" fill="#000000">2</text>
</g>
<!-- c&#45;&gt;u -->
<g id="edge3" class="edge">
<title>c&#45;&gt;u:w</title>
<path fill="none" stroke="#000000" d="M49.3683,-48.042C63.1484,-61.2739 82.646,-79.3075 92.3569,-85.1157"/>
<polygon fill="#000000" stroke="#000000" points="91.7089,-86.7413 97,-87 93.0251,-83.4982 91.7089,-86.7413"/>
</g>
<!-- u&#45;&gt;v -->
<g id="edge4" class="edge">
<title>u&#45;&gt;v:w</title>
<path fill="none" stroke="#000000" d="M151.1669,-104.2524C160.3962,-108.7998 171.0866,-112.7302 181.7652,-113.7457"/>
<polygon fill="#000000" stroke="#000000" points="181.9209,-115.5052 187,-114 182.0908,-112.0094 181.9209,-115.5052"/>
</g>
<!-- j -->
<g id="node6" class="node">
<title>j</title>
<polygon fill="none" stroke="#000000" points="331,-132 277,-132 277,-96 331,-96 331,-132"/>
<text text-anchor="middle" x="304" y="-110.3" font-family="Times,serif" font-size="14.00" fill="#000000">J=3v</text>
<text text-anchor="middle" x="270" y="-84.8" font-family="Times,serif" font-size="14.00" fill="#000000">33</text>
</g>
<!-- v&#45;&gt;j -->
<g id="edge5" class="edge">
<title>v&#45;&gt;j:w</title>
<path fill="none" stroke="#000000" d="M241.2887,-114C250.8124,-114 261.6979,-114 271.9987,-114"/>
<polygon fill="#000000" stroke="#000000" points="272,-115.7501 277,-114 272,-112.2501 272,-115.7501"/>
</g>
<!-- j&#45;&gt;v -->
<g id="edge6" class="edge">
<title>j:s&#45;&gt;v:s</title>
<path fill="none" stroke="#ff0000" d="M304,-96C304,-57.875 222.2397,-56.0879 214.5747,-90.6387"/>
<polygon fill="#ff0000" stroke="#ff0000" points="212.793,-90.8419 214,-96 216.273,-91.215 212.793,-90.8419"/>
</g>
</g>
</svg>
