<?xml version="1.0" encoding="UTF-8" standalone="no"?>
<!DOCTYPE svg PUBLIC "-//W3C//DTD SVG 1.1//EN"
 "http://www.w3.org/Graphics/SVG/1.1/DTD/svg11.dtd">
<!-- Generated by graphviz version 2.40.1 (20161225.0304)
 -->
<!-- Title: %3 Pages: 1 -->
<svg width="339pt" height="182pt"
 viewBox="0.00 0.00 339.00 182.00" xmlns="http://www.w3.org/2000/svg" xmlns:xlink="http://www.w3.org/1999/xlink">
<g id="graph0" class="graph" transform="scale(1 1) rotate(0) translate(4 178)">
<title>%3</title>
<polygon fill="#ffffff" stroke="transparent" points="-4,4 -4,-178 335,-178 335,4 -4,4"/>
<!-- a -->
<g id="node1" class="node">
<title>a</title>
<ellipse fill="none" stroke="#000000" cx="34" cy="-156" rx="27" ry="18"/>
<text text-anchor="middle" x="34" y="-152.3" font-family="Times,serif" font-size="14.00" fill="#000000">a</text>
<text text-anchor="middle" x="3.5" y="-126.8" font-family="Times,serif" font-size="14.00" fill="#000000">5</text>
</g>
<!-- v -->
<g id="node5" class="node">
<title>v</title>
<polygon fill="none" stroke="#000000" points="241,-161 187,-161 187,-125 241,-125 241,-161"/>
<text text-anchor="middle" x="214" y="-139.3" font-family="Times,serif" font-size="14.00" fill="#000000">v=a+u</text>
<text text-anchor="middle" x="180" y="-113.8" font-family="Times,serif" font-size="14.00" fill="#000000">11</text>
</g>
<!-- a&#45;&gt;v -->
<g id="edge2" class="edge">
<title>a&#45;&gt;v:w</title>
<path fill="none" stroke="#000000" d="M60.4766,-152.3788C89.7459,-148.6824 138.486,-143.4296 181.7524,-143.0249"/>
<polygon fill="#000000" stroke="#000000" points="182.0084,-144.7738 187,-143 181.9917,-141.2738 182.0084,-144.7738"/>
</g>
<!-- b -->
<g id="node2" class="node">
<title>b</title>
<ellipse fill="none" stroke="#000000" cx="34" cy="-33" rx="27" ry="18"/>
<text text-anchor="middle" x="34" y="-29.3" font-family="Times,serif" font-size="14.00" fill="#000000">b</text>
<text text-anchor="middle" x="3.5" y="-3.8" font-family="Times,serif" font-size="14.00" fill="#000000">3</text>
</g>
<!-- u -->
<g id="node4" class="node">
<title>u</title>
<polygon fill="none" stroke="#000000" points="151,-97 97,-97 97,-61 151,-61 151,-97"/>
<text text-anchor="middle" x="124" y="-75.3" font-family="Times,serif" font-size="14.00" fill="#000000">u=bc</text>
<text text-anchor="middle" x="93.5" y="-49.8" font-family="Times,serif" font-size="14.00" fill="#000000">6</text>
</g>
<!-- b&#45;&gt;u -->
<g id="edge1" class="edge">
<title>b&#45;&gt;u:w</title>
<path fill="none" stroke="#000000" d="M49.6431,-47.8079C62.4437,-59.3641 80.2662,-74.0942 91.8588,-78.0086"/>
<polygon fill="#000000" stroke="#000000" points="91.7591,-79.7715 97,-79 92.4218,-76.3348 91.7591,-79.7715"/>
</g>
<!-- c -->
<g id="node3" class="node">
<title>c</title>
<ellipse fill="none" stroke="#000000" cx="34" cy="-87" rx="27" ry="18"/>
<text text-anchor="middle" x="34" y="-83.3" font-family="Times,serif" font-size="14.00" fill="#000000">c</text>
<text text-anchor="middle" x="3.5" y="-57.8" font-family="Times,serif" font-size="14.00" fill="#000000">2</text>
</g>
<!-- c&#45;&gt;u -->
<g id="edge3" class="edge">
<title>c&#45;&gt;u:w</title>
<path fill="none" stroke="#000000" d="M60.2667,-82.1618C69.9503,-80.714 81.162,-79.4195 91.8209,-79.0841"/>
<polygon fill="#000000" stroke="#000000" points="92.0291,-80.831 97,-79 91.9722,-77.3315 92.0291,-80.831"/>
</g>
<!-- u&#45;&gt;v -->
<g id="edge4" class="edge">
<title>u&#45;&gt;v:w</title>
<path fill="none" stroke="#000000" d="M139.4856,-97.1686C153.1292,-112.8378 172.3232,-133.9856 182.1928,-140.7923"/>
<polygon fill="#000000" stroke="#000000" points="181.7259,-142.5036 187,-143 183.1866,-139.323 181.7259,-142.5036"/>
</g>
<!-- v&#45;&gt;a -->
<g id="edge7" class="edge">
<title>v:s&#45;&gt;a:s</title>
<path fill="none" stroke="#ff0000" d="M214,-125C214,-106.4361 59.7272,-116.2003 36.8274,-133.6624"/>
<polygon fill="#ff0000" stroke="#ff0000" points="35.2643,-132.8556 34,-138 38.1964,-134.7669 35.2643,-132.8556"/>
</g>
<!-- j -->
<g id="node6" class="node">
<title>j</title>
<polygon fill="none" stroke="#000000" points="331,-161 277,-161 277,-125 331,-125 331,-161"/>
<text text-anchor="middle" x="304" y="-139.3" font-family="Times,serif" font-size="14.00" fill="#000000">J=3v</text>
<text text-anchor="middle" x="270" y="-113.8" font-family="Times,serif" font-size="14.00" fill="#000000">33</text>
</g>
<!-- v&#45;&gt;j -->
<g id="edge5" class="edge">
<title>v&#45;&gt;j:w</title>
<path fill="none" stroke="#000000" d="M241.2887,-143C250.8124,-143 261.6979,-143 271.9987,-143"/>
<polygon fill="#000000" stroke="#000000" points="272,-144.7501 277,-143 272,-141.2501 272,-144.7501"/>
</g>
<!-- j&#45;&gt;v -->
<g id="edge6" class="edge">
<title>j:s&#45;&gt;v:s</title>
<path fill="none" stroke="#ff0000" d="M304,-125C304,-86.875 222.2397,-85.0879 214.5747,-119.6387"/>
<polygon fill="#ff0000" stroke="#ff0000" points="212.793,-119.8419 214,-125 216.273,-120.215 212.793,-119.8419"/>
</g>
</g>
</svg>
