<?xml version="1.0" encoding="UTF-8" standalone="no"?>
<!DOCTYPE svg PUBLIC "-//W3C//DTD SVG 1.1//EN"
 "http://www.w3.org/Graphics/SVG/1.1/DTD/svg11.dtd">
<!-- Generated by graphviz version 2.43.0 (0)
 -->
<!-- Title: %3 Pages: 1 -->
<svg width="354pt" height="182pt"
 viewBox="0.00 0.00 354.00 182.00" xmlns="http://www.w3.org/2000/svg" xmlns:xlink="http://www.w3.org/1999/xlink">
<g id="graph0" class="graph" transform="scale(1 1) rotate(0) translate(4 178)">
<title>%3</title>
<polygon fill="white" stroke="transparent" points="-4,4 -4,-178 350,-178 350,4 -4,4"/>
<!-- a -->
<g id="node1" class="node">
<title>a</title>
<ellipse fill="none" stroke="black" cx="37" cy="-156" rx="27" ry="18"/>
<text text-anchor="middle" x="37" y="-152.3" font-family="Times,serif" font-size="14.00">a</text>
<text text-anchor="middle" x="5" y="-126.8" font-family="Times,serif" font-size="14.00">5</text>
</g>
<!-- v -->
<g id="node5" class="node">
<title>v</title>
<polygon fill="none" stroke="black" points="256,-161 190,-161 190,-125 256,-125 256,-161"/>
<text text-anchor="middle" x="223" y="-139.3" font-family="Times,serif" font-size="14.00">v=a+u</text>
<text text-anchor="middle" x="180.5" y="-113.8" font-family="Times,serif" font-size="14.00">11</text>
</g>
<!-- a&#45;&gt;v -->
<g id="edge2" class="edge">
<title>a&#45;&gt;v:w</title>
<path fill="none" stroke="black" d="M63.49,-152.48C92.46,-148.78 141.36,-143.44 184.74,-143.03"/>
<polygon fill="black" stroke="black" points="185.01,-144.77 190,-143 184.99,-141.27 185.01,-144.77"/>
</g>
<!-- b -->
<g id="node2" class="node">
<title>b</title>
<ellipse fill="none" stroke="black" cx="37" cy="-33" rx="27" ry="18"/>
<text text-anchor="middle" x="37" y="-29.3" font-family="Times,serif" font-size="14.00">b</text>
<text text-anchor="middle" x="5" y="-3.8" font-family="Times,serif" font-size="14.00">3</text>
</g>
<!-- u -->
<g id="node4" class="node">
<title>u</title>
<polygon fill="none" stroke="black" points="154,-97 100,-97 100,-61 154,-61 154,-97"/>
<text text-anchor="middle" x="127" y="-75.3" font-family="Times,serif" font-size="14.00">u=bc</text>
<text text-anchor="middle" x="95" y="-49.8" font-family="Times,serif" font-size="14.00">6</text>
</g>
<!-- b&#45;&gt;u -->
<g id="edge1" class="edge">
<title>b&#45;&gt;u:w</title>
<path fill="none" stroke="black" d="M53.09,-47.55C65.68,-59.14 83.36,-74.04 94.88,-78"/>
<polygon fill="black" stroke="black" points="94.76,-79.75 100,-79 95.43,-76.32 94.76,-79.75"/>
</g>
<!-- c -->
<g id="node3" class="node">
<title>c</title>
<ellipse fill="none" stroke="black" cx="37" cy="-87" rx="27" ry="18"/>
<text text-anchor="middle" x="37" y="-83.3" font-family="Times,serif" font-size="14.00">c</text>
<text text-anchor="middle" x="5" y="-57.8" font-family="Times,serif" font-size="14.00">2</text>
</g>
<!-- c&#45;&gt;u -->
<g id="edge3" class="edge">
<title>c&#45;&gt;u:w</title>
<path fill="none" stroke="black" d="M63.24,-82.25C72.88,-80.77 84.12,-79.43 94.81,-79.09"/>
<polygon fill="black" stroke="black" points="95.03,-80.83 100,-79 94.97,-77.33 95.03,-80.83"/>
</g>
<!-- u&#45;&gt;v -->
<g id="edge4" class="edge">
<title>u&#45;&gt;v:w</title>
<path fill="none" stroke="black" d="M143.22,-97.17C156.63,-112.84 175.51,-133.99 185.25,-140.79"/>
<polygon fill="black" stroke="black" points="184.73,-142.48 190,-143 186.2,-139.31 184.73,-142.48"/>
</g>
<!-- v&#45;&gt;a -->
<g id="edge7" class="edge">
<title>v:s&#45;&gt;a:s</title>
<path fill="none" stroke="red" d="M223,-124C223,-104.82 63.58,-114.54 39.92,-132.53"/>
<polygon fill="red" stroke="red" points="38.27,-131.86 37,-137 41.2,-133.77 38.27,-131.86"/>
</g>
<!-- j -->
<g id="node6" class="node">
<title>j</title>
<polygon fill="none" stroke="black" points="346,-161 292,-161 292,-125 346,-125 346,-161"/>
<text text-anchor="middle" x="319" y="-139.3" font-family="Times,serif" font-size="14.00">J=3v</text>
<text text-anchor="middle" x="282.5" y="-113.8" font-family="Times,serif" font-size="14.00">33</text>
</g>
<!-- v&#45;&gt;j -->
<g id="edge5" class="edge">
<title>v&#45;&gt;j:w</title>
<path fill="none" stroke="black" d="M256.17,-143C265.81,-143 276.54,-143 286.73,-143"/>
<polygon fill="black" stroke="black" points="287,-144.75 292,-143 287,-141.25 287,-144.75"/>
</g>
<!-- j&#45;&gt;v -->
<g id="edge6" class="edge">
<title>j:s&#45;&gt;v:s</title>
<path fill="none" stroke="red" d="M319,-124C319,-83.17 231.07,-81.41 223.52,-118.74"/>
<polygon fill="red" stroke="red" points="221.75,-118.85 223,-124 225.23,-119.19 221.75,-118.85"/>
</g>
</g>
</svg>
