<?xml version="1.0" encoding="utf-8" standalone="no"?>
<!DOCTYPE svg PUBLIC "-//W3C//DTD SVG 1.1//EN"
  "http://www.w3.org/Graphics/SVG/1.1/DTD/svg11.dtd">
<!-- Created with matplotlib (https://matplotlib.org/) -->
<svg height="123.979412pt" version="1.1" viewBox="0 0 576.391429 123.979412" width="576.391429pt" xmlns="http://www.w3.org/2000/svg" xmlns:xlink="http://www.w3.org/1999/xlink">
 <metadata>
  <rdf:RDF xmlns:cc="http://creativecommons.org/ns#" xmlns:dc="http://purl.org/dc/elements/1.1/" xmlns:rdf="http://www.w3.org/1999/02/22-rdf-syntax-ns#">
   <cc:Work>
    <dc:type rdf:resource="http://purl.org/dc/dcmitype/StillImage"/>
    <dc:date>2021-06-06T23:54:31.481918</dc:date>
    <dc:format>image/svg+xml</dc:format>
    <dc:creator>
     <cc:Agent>
      <dc:title>Matplotlib v3.3.4, https://matplotlib.org/</dc:title>
     </cc:Agent>
    </dc:creator>
   </cc:Work>
  </rdf:RDF>
 </metadata>
 <defs>
  <style type="text/css">*{stroke-linecap:butt;stroke-linejoin:round;}</style>
 </defs>
 <g id="figure_1">
  <g id="patch_1">
   <path d="M 0 123.979412 
L 576.391429 123.979412 
L 576.391429 0 
L 0 0 
z
" style="fill:none;"/>
  </g>
  <g id="axes_1">
   <g id="text_1">
    <g id="patch_2">
     <path d="M 3.3 25.4 
L 35.02 25.4 
L 35.02 3.43 
L 3.3 3.43 
z
" style="fill:#ffffff;"/>
    </g>
    <!-- $a^{ \; \langle 0 \rangle}$ -->
    <g transform="translate(7.2 18.796406)scale(0.13 -0.13)">
     <defs>
      <path d="M 17.390625 -1.125 
Q 11.078125 -1.125 7.4375 3.640625 
Q 3.8125 8.40625 3.8125 14.890625 
Q 3.8125 21.296875 7.125 28.171875 
Q 10.453125 35.0625 16.09375 39.625 
Q 21.734375 44.1875 28.21875 44.1875 
Q 31.203125 44.1875 33.546875 42.578125 
Q 35.890625 40.96875 37.203125 38.1875 
Q 38.328125 42.1875 41.609375 42.1875 
Q 42.875 42.1875 43.71875 41.421875 
Q 44.578125 40.671875 44.578125 39.40625 
Q 44.578125 39.109375 44.546875 38.953125 
Q 44.53125 38.8125 44.484375 38.625 
L 37.5 10.6875 
Q 36.8125 7.71875 36.8125 5.8125 
Q 36.8125 1.515625 39.703125 1.515625 
Q 42.828125 1.515625 44.453125 5.484375 
Q 46.09375 9.46875 47.21875 14.703125 
Q 47.40625 15.28125 48 15.28125 
L 49.21875 15.28125 
Q 49.609375 15.28125 49.84375 14.9375 
Q 50.09375 14.59375 50.09375 14.3125 
Q 48.34375 7.328125 46.265625 3.09375 
Q 44.1875 -1.125 39.5 -1.125 
Q 36.140625 -1.125 33.546875 0.84375 
Q 30.953125 2.828125 30.328125 6.109375 
Q 23.875 -1.125 17.390625 -1.125 
z
M 17.484375 1.515625 
Q 21.09375 1.515625 24.484375 4.21875 
Q 27.875 6.9375 30.328125 10.59375 
Q 30.421875 10.6875 30.421875 10.890625 
L 35.796875 32.625 
L 35.890625 32.90625 
Q 35.296875 36.46875 33.3125 39.03125 
Q 31.34375 41.609375 27.984375 41.609375 
Q 24.609375 41.609375 21.703125 38.84375 
Q 18.796875 36.078125 16.796875 32.328125 
Q 14.84375 28.328125 13.0625 21.34375 
Q 11.28125 14.359375 11.28125 10.5 
Q 11.28125 7.03125 12.765625 4.265625 
Q 14.265625 1.515625 17.484375 1.515625 
z
" id="Cmmi10-97"/>
      <path d="M 35.5 -114.796875 
L 10.015625 -56.78125 
Q 9.8125 -56.5 9.8125 -56 
Q 9.8125 -55.515625 10.015625 -55.328125 
L 35.5 2.78125 
Q 35.984375 4 37.3125 4 
Q 38.03125 4 38.671875 3.359375 
Q 39.3125 2.734375 39.3125 2 
Q 39.3125 1.515625 39.203125 1.3125 
L 14.015625 -56 
L 39.203125 -113.28125 
Q 39.3125 -113.484375 39.3125 -114.015625 
Q 39.3125 -114.75 38.671875 -115.375 
Q 38.03125 -116.015625 37.3125 -116.015625 
Q 36.03125 -116.015625 35.5 -114.796875 
z
" id="Cmex10-173"/>
      <path d="M 25 -2.203125 
Q 12.75 -2.203125 8.328125 7.875 
Q 3.90625 17.96875 3.90625 31.890625 
Q 3.90625 40.578125 5.484375 48.234375 
Q 7.078125 55.90625 11.78125 61.25 
Q 16.5 66.609375 25 66.609375 
Q 31.59375 66.609375 35.78125 63.375 
Q 39.984375 60.15625 42.1875 55.046875 
Q 44.390625 49.953125 45.1875 44.109375 
Q 46 38.28125 46 31.890625 
Q 46 23.296875 44.40625 15.796875 
Q 42.828125 8.296875 38.1875 3.046875 
Q 33.546875 -2.203125 25 -2.203125 
z
M 25 0.390625 
Q 30.5625 0.390625 33.296875 6.09375 
Q 36.03125 11.8125 36.671875 18.75 
Q 37.3125 25.6875 37.3125 33.5 
Q 37.3125 41.015625 36.671875 47.359375 
Q 36.03125 53.71875 33.3125 58.859375 
Q 30.609375 64.015625 25 64.015625 
Q 19.34375 64.015625 16.609375 58.828125 
Q 13.875 53.65625 13.234375 47.328125 
Q 12.59375 41.015625 12.59375 33.5 
Q 12.59375 27.9375 12.859375 23 
Q 13.140625 18.0625 14.3125 12.8125 
Q 15.484375 7.5625 18.09375 3.96875 
Q 20.703125 0.390625 25 0.390625 
z
" id="Cmr10-48"/>
      <path d="M 7.8125 -114.015625 
Q 7.8125 -113.484375 8.015625 -113.28125 
L 33.109375 -56 
L 8.015625 1.3125 
Q 7.8125 1.515625 7.8125 2 
Q 7.8125 2.734375 8.390625 3.359375 
Q 8.984375 4 9.8125 4 
Q 10.984375 4 11.71875 2.78125 
L 37.203125 -55.328125 
Q 37.3125 -55.515625 37.3125 -56 
Q 37.3125 -56.5 37.203125 -56.78125 
L 11.71875 -114.796875 
Q 10.9375 -116.015625 9.8125 -116.015625 
Q 8.984375 -116.015625 8.390625 -115.375 
Q 7.8125 -114.75 7.8125 -114.015625 
z
" id="Cmex10-174"/>
     </defs>
     <use transform="translate(0 0.597135)" xlink:href="#Cmmi10-97"/>
     <use transform="translate(76.157476 104.202344)scale(0.7)" xlink:href="#Cmex10-173"/>
     <use transform="translate(109.209234 38.861198)scale(0.7)" xlink:href="#Cmr10-48"/>
     <use transform="translate(144.209234 104.202344)scale(0.7)" xlink:href="#Cmex10-174"/>
    </g>
   </g>
   <g id="text_2">
    <g id="patch_3">
     <path d="M 53.251429 25.53 
L 84.711429 25.53 
L 84.711429 3.3 
L 53.251429 3.3 
z
" style="fill:#ffffff;stroke:#000000;stroke-linejoin:miter;"/>
    </g>
    <!-- $\overrightarrow{{a}}^{ \; \langle 1 \rangle}$ -->
    <g transform="translate(57.151429 18.926406)scale(0.13 -0.13)">
     <defs>
      <path d="M 7.515625 23 
Q 6.6875 23 6.140625 23.625 
Q 5.609375 24.265625 5.609375 25 
Q 5.609375 25.734375 6.140625 26.359375 
Q 6.6875 27 7.515625 27 
L 83.40625 27 
Q 79.59375 29.734375 76.65625 33.328125 
Q 73.734375 36.921875 71.78125 41.046875 
Q 69.828125 45.171875 69 49.8125 
Q 69 51.125 70.015625 51.125 
L 72.015625 51.125 
Q 72.359375 51.125 72.625 50.828125 
Q 72.90625 50.53125 73 50.203125 
Q 73.828125 45.90625 75.609375 42.21875 
Q 77.390625 38.53125 80.078125 35.34375 
Q 82.765625 32.171875 86.078125 29.875 
Q 89.40625 27.59375 93.609375 26.125 
Q 94.28125 25.6875 94.28125 25 
Q 94.28125 24.21875 93.609375 24.03125 
Q 88.375 22.21875 84.03125 18.625 
Q 79.6875 15.046875 76.859375 10.1875 
Q 74.03125 5.328125 73 -0.203125 
Q 72.90625 -0.53125 72.609375 -0.828125 
Q 72.3125 -1.125 72.015625 -1.125 
L 70.015625 -1.125 
Q 69 -1.125 69 0.203125 
Q 70.265625 7.03125 74.0625 13.0625 
Q 77.875 19.09375 83.40625 23 
z
" id="Cmsy10-33"/>
      <path d="M 9.28125 0 
L 9.28125 3.515625 
Q 21.78125 3.515625 21.78125 6.6875 
L 21.78125 59.1875 
Q 16.609375 56.6875 8.6875 56.6875 
L 8.6875 60.203125 
Q 20.953125 60.203125 27.203125 66.609375 
L 28.609375 66.609375 
Q 28.953125 66.609375 29.265625 66.328125 
Q 29.59375 66.0625 29.59375 65.71875 
L 29.59375 6.6875 
Q 29.59375 3.515625 42.09375 3.515625 
L 42.09375 0 
z
" id="Cmr10-49"/>
     </defs>
     <use transform="translate(-17.413574 57.875)" xlink:href="#Cmsy10-33"/>
     <use transform="translate(0 0.0625)" xlink:href="#Cmmi10-97"/>
     <use transform="translate(74.318335 103.667708)scale(0.7)" xlink:href="#Cmex10-173"/>
     <use transform="translate(107.370093 38.326562)scale(0.7)" xlink:href="#Cmr10-49"/>
     <use transform="translate(142.370093 103.667708)scale(0.7)" xlink:href="#Cmex10-174"/>
    </g>
   </g>
   <g id="patch_4">
    <path d="M 50.134881 14.415 
Q 44.137144 14.415 37.021373 14.415 
" style="fill:none;stroke:#000000;stroke-linecap:round;"/>
    <path d="M 44.934881 11.815 
L 50.134881 14.415 
L 44.934881 17.015 
" style="fill:none;stroke:#000000;stroke-linecap:round;"/>
   </g>
   <g id="text_3">
    <g id="patch_5">
     <path d="M 93.108571 25.53 
L 124.568571 25.53 
L 124.568571 3.3 
L 93.108571 3.3 
z
" style="fill:#ffffff;stroke:#000000;stroke-linejoin:miter;"/>
    </g>
    <!-- $\overleftarrow{{a}}^{ \; \langle 1 \rangle}$ -->
    <g transform="translate(97.008571 18.926406)scale(0.13 -0.13)">
     <defs>
      <path d="M 26.90625 -0.203125 
Q 26.171875 3.90625 24.390625 7.71875 
Q 22.609375 11.53125 19.921875 14.703125 
Q 17.234375 17.875 13.8125 20.265625 
Q 10.40625 22.65625 6.390625 24.03125 
Q 5.609375 24.171875 5.609375 25 
Q 5.609375 25.734375 6.390625 26.125 
Q 10.453125 27.546875 13.84375 29.859375 
Q 17.234375 32.171875 19.921875 35.34375 
Q 22.609375 38.53125 24.390625 42.328125 
Q 26.171875 46.140625 26.90625 50.203125 
Q 27.15625 51.125 27.875 51.125 
L 29.890625 51.125 
Q 30.90625 51.125 30.90625 49.8125 
Q 29.78125 43.171875 26 37.15625 
Q 22.21875 31.15625 16.5 27 
L 92.390625 27 
Q 93.21875 27 93.75 26.359375 
Q 94.28125 25.734375 94.28125 25 
Q 94.28125 24.265625 93.75 23.625 
Q 93.21875 23 92.390625 23 
L 16.5 23 
Q 22.125 19 25.953125 12.921875 
Q 29.78125 6.84375 30.90625 0.203125 
Q 30.90625 -1.125 29.890625 -1.125 
L 27.875 -1.125 
Q 27.15625 -1.125 26.90625 -0.203125 
z
" id="Cmsy10-195"/>
     </defs>
     <use transform="translate(-17.413574 57.875)" xlink:href="#Cmsy10-195"/>
     <use transform="translate(0 0.0625)" xlink:href="#Cmmi10-97"/>
     <use transform="translate(74.318335 103.667708)scale(0.7)" xlink:href="#Cmex10-173"/>
     <use transform="translate(107.370093 38.326562)scale(0.7)" xlink:href="#Cmr10-49"/>
     <use transform="translate(142.370093 103.667708)scale(0.7)" xlink:href="#Cmex10-174"/>
    </g>
   </g>
   <g id="text_4">
    <g id="patch_6">
     <path d="M 72.79 89.352941 
L 105.03 89.352941 
L 105.03 67.382941 
L 72.79 67.382941 
z
" style="fill:#ffffff;"/>
    </g>
    <!-- $x^{ \; \langle 1 \rangle}$ -->
    <g transform="translate(76.69 82.749347)scale(0.13 -0.13)">
     <defs>
      <path d="M 7.8125 2.875 
Q 9.578125 1.515625 12.796875 1.515625 
Q 15.921875 1.515625 18.3125 4.515625 
Q 20.703125 7.515625 21.578125 11.078125 
L 26.125 28.8125 
Q 27.203125 33.640625 27.203125 35.40625 
Q 27.203125 37.890625 25.8125 39.75 
Q 24.421875 41.609375 21.921875 41.609375 
Q 18.75 41.609375 15.96875 39.625 
Q 13.1875 37.640625 11.28125 34.59375 
Q 9.375 31.546875 8.59375 28.421875 
Q 8.40625 27.78125 7.8125 27.78125 
L 6.59375 27.78125 
Q 5.8125 27.78125 5.8125 28.71875 
L 5.8125 29 
Q 6.78125 32.71875 9.125 36.25 
Q 11.46875 39.796875 14.859375 41.984375 
Q 18.265625 44.1875 22.125 44.1875 
Q 25.78125 44.1875 28.734375 42.234375 
Q 31.6875 40.28125 32.90625 36.921875 
Q 34.625 39.984375 37.28125 42.078125 
Q 39.9375 44.1875 43.109375 44.1875 
Q 45.265625 44.1875 47.5 43.421875 
Q 49.75 42.671875 51.171875 41.109375 
Q 52.59375 39.546875 52.59375 37.203125 
Q 52.59375 34.671875 50.953125 32.828125 
Q 49.3125 31 46.78125 31 
Q 45.171875 31 44.09375 32.03125 
Q 43.015625 33.0625 43.015625 34.625 
Q 43.015625 36.71875 44.453125 38.296875 
Q 45.90625 39.890625 47.90625 40.1875 
Q 46.09375 41.609375 42.921875 41.609375 
Q 39.703125 41.609375 37.328125 38.625 
Q 34.96875 35.640625 33.984375 31.984375 
L 29.59375 14.3125 
Q 28.515625 10.296875 28.515625 7.71875 
Q 28.515625 5.171875 29.953125 3.34375 
Q 31.390625 1.515625 33.796875 1.515625 
Q 38.484375 1.515625 42.15625 5.640625 
Q 45.84375 9.765625 47.015625 14.703125 
Q 47.21875 15.28125 47.796875 15.28125 
L 49.03125 15.28125 
Q 49.421875 15.28125 49.65625 15.015625 
Q 49.90625 14.75 49.90625 14.40625 
Q 49.90625 14.3125 49.8125 14.109375 
Q 48.390625 8.15625 43.84375 3.515625 
Q 39.3125 -1.125 33.59375 -1.125 
Q 29.9375 -1.125 26.984375 0.84375 
Q 24.03125 2.828125 22.796875 6.203125 
Q 21.234375 3.265625 18.46875 1.0625 
Q 15.71875 -1.125 12.59375 -1.125 
Q 10.453125 -1.125 8.171875 -0.359375 
Q 5.90625 0.390625 4.484375 1.953125 
Q 3.078125 3.515625 3.078125 5.90625 
Q 3.078125 8.25 4.703125 10.171875 
Q 6.34375 12.109375 8.796875 12.109375 
Q 10.453125 12.109375 11.578125 11.109375 
Q 12.703125 10.109375 12.703125 8.5 
Q 12.703125 6.390625 11.296875 4.828125 
Q 9.90625 3.265625 7.8125 2.875 
z
" id="Cmmi10-120"/>
     </defs>
     <use transform="translate(0 0.597135)" xlink:href="#Cmmi10-120"/>
     <use transform="translate(80.454351 104.202344)scale(0.7)" xlink:href="#Cmex10-173"/>
     <use transform="translate(113.506109 38.861198)scale(0.7)" xlink:href="#Cmr10-49"/>
     <use transform="translate(148.506109 104.202344)scale(0.7)" xlink:href="#Cmex10-174"/>
    </g>
   </g>
   <g id="patch_7">
    <path d="M 88.050045 65.576909 
Q 78.945782 46.456612 70.322171 28.345757 
" style="fill:none;stroke:#000000;stroke-linecap:round;"/>
    <path d="M 70.21023 34.158456 
L 70.322171 28.345757 
L 74.905165 31.922929 
" style="fill:none;stroke:#000000;stroke-linecap:round;"/>
   </g>
   <g id="patch_8">
    <path d="M 107.497964 28.345474 
Q 98.874353 46.456329 89.77009 65.576626 
" style="fill:none;stroke:#000000;stroke-linecap:round;"/>
    <path d="M 102.914969 31.922646 
L 107.497964 28.345474 
L 107.609905 34.158173 
" style="fill:none;stroke:#000000;stroke-linecap:round;"/>
   </g>
   <g id="text_5">
    <g id="patch_9">
     <path d="M 71.88 120.535193 
L 105.94 120.535193 
L 105.94 100.153631 
L 71.88 100.153631 
z
" style="fill:#ffffff;"/>
    </g>
    <!-- $\mathrm{Jane}$ -->
    <g transform="translate(75.78 113.931599)scale(0.13 -0.13)">
     <defs>
      <path d="M 9.078125 5.609375 
Q 10.890625 3.078125 13.765625 1.734375 
Q 16.65625 0.390625 19.921875 0.390625 
Q 23.140625 0.390625 25.359375 2.609375 
Q 27.59375 4.828125 28.6875 8.125 
Q 29.78125 11.421875 29.78125 14.5 
L 29.78125 61.625 
Q 29.78125 64.796875 16.40625 64.796875 
L 16.40625 68.3125 
L 46.484375 68.3125 
L 46.484375 64.796875 
Q 43.109375 64.796875 40.953125 64.25 
Q 38.8125 63.71875 38.8125 61.625 
L 38.8125 14.109375 
Q 38.8125 9.328125 36.046875 5.609375 
Q 33.296875 1.90625 28.921875 -0.140625 
Q 24.5625 -2.203125 19.921875 -2.203125 
Q 15.875 -2.203125 12.15625 -0.5625 
Q 8.453125 1.078125 6.078125 4.171875 
Q 3.71875 7.28125 3.71875 11.375 
Q 3.71875 13.875 5.375 15.53125 
Q 7.03125 17.1875 9.515625 17.1875 
Q 11.140625 17.1875 12.453125 16.421875 
Q 13.765625 15.671875 14.515625 14.296875 
Q 15.28125 12.9375 15.28125 11.375 
Q 15.28125 8.9375 13.625 7.265625 
Q 11.96875 5.609375 9.515625 5.609375 
z
" id="Cmr10-74"/>
      <path d="M 4 9.8125 
Q 4 15.765625 8.6875 19.5 
Q 13.375 23.25 19.9375 24.78125 
Q 26.515625 26.3125 32.421875 26.3125 
L 32.421875 30.421875 
Q 32.421875 33.296875 31.15625 36 
Q 29.890625 38.71875 27.484375 40.453125 
Q 25.09375 42.1875 22.21875 42.1875 
Q 15.578125 42.1875 12.109375 39.203125 
Q 14.015625 39.203125 15.25 37.765625 
Q 16.5 36.328125 16.5 34.421875 
Q 16.5 32.421875 15.078125 31 
Q 13.671875 29.59375 11.71875 29.59375 
Q 9.71875 29.59375 8.296875 31 
Q 6.890625 32.421875 6.890625 34.421875 
Q 6.890625 39.703125 11.671875 42.265625 
Q 16.453125 44.828125 22.21875 44.828125 
Q 26.265625 44.828125 30.359375 43.09375 
Q 34.46875 41.359375 37.078125 38.125 
Q 39.703125 34.90625 39.703125 30.609375 
L 39.703125 8.109375 
Q 39.703125 6.15625 40.53125 4.515625 
Q 41.359375 2.875 43.109375 2.875 
Q 44.78125 2.875 45.578125 4.53125 
Q 46.390625 6.203125 46.390625 8.109375 
L 46.390625 14.5 
L 49.3125 14.5 
L 49.3125 8.109375 
Q 49.3125 5.859375 48.140625 3.828125 
Q 46.96875 1.8125 44.984375 0.609375 
Q 43.015625 -0.59375 40.71875 -0.59375 
Q 37.796875 -0.59375 35.671875 1.671875 
Q 33.546875 3.953125 33.296875 7.078125 
Q 31.453125 3.328125 27.828125 1.09375 
Q 24.21875 -1.125 20.125 -1.125 
Q 16.3125 -1.125 12.625 0 
Q 8.9375 1.125 6.46875 3.53125 
Q 4 5.953125 4 9.8125 
z
M 12.109375 9.8125 
Q 12.109375 6.296875 14.6875 3.90625 
Q 17.28125 1.515625 20.796875 1.515625 
Q 24.03125 1.515625 26.65625 3.125 
Q 29.296875 4.734375 30.859375 7.515625 
Q 32.421875 10.296875 32.421875 13.375 
L 32.421875 23.78125 
Q 27.875 23.78125 23.109375 22.28125 
Q 18.359375 20.796875 15.234375 17.625 
Q 12.109375 14.453125 12.109375 9.8125 
z
" id="Cmr10-97"/>
      <path d="M 2.984375 0 
L 2.984375 3.515625 
Q 6.390625 3.515625 8.59375 4.046875 
Q 10.796875 4.59375 10.796875 6.6875 
L 10.796875 33.984375 
Q 10.796875 36.671875 9.984375 37.859375 
Q 9.1875 39.0625 7.671875 39.328125 
Q 6.15625 39.59375 2.984375 39.59375 
L 2.984375 43.109375 
L 17.484375 44.1875 
L 17.484375 34.421875 
Q 19.484375 38.71875 23.40625 41.453125 
Q 27.34375 44.1875 31.984375 44.1875 
Q 38.921875 44.1875 42.40625 40.859375 
Q 45.90625 37.546875 45.90625 30.71875 
L 45.90625 6.6875 
Q 45.90625 4.59375 48.09375 4.046875 
Q 50.296875 3.515625 53.71875 3.515625 
L 53.71875 0 
L 30.8125 0 
L 30.8125 3.515625 
Q 34.234375 3.515625 36.421875 4.046875 
Q 38.625 4.59375 38.625 6.6875 
L 38.625 30.421875 
Q 38.625 35.296875 37.203125 38.453125 
Q 35.796875 41.609375 31.390625 41.609375 
Q 25.59375 41.609375 21.84375 36.96875 
Q 18.109375 32.328125 18.109375 26.421875 
L 18.109375 6.6875 
Q 18.109375 4.59375 20.3125 4.046875 
Q 22.515625 3.515625 25.875 3.515625 
L 25.875 0 
z
" id="Cmr10-110"/>
      <path d="M 24.90625 -1.125 
Q 18.796875 -1.125 13.6875 2.078125 
Q 8.59375 5.28125 5.6875 10.625 
Q 2.78125 15.96875 2.78125 21.921875 
Q 2.78125 27.78125 5.4375 33.046875 
Q 8.109375 38.328125 12.859375 41.578125 
Q 17.625 44.828125 23.484375 44.828125 
Q 28.078125 44.828125 31.46875 43.28125 
Q 34.859375 41.75 37.0625 39.015625 
Q 39.265625 36.28125 40.375 32.5625 
Q 41.5 28.859375 41.5 24.421875 
Q 41.5 23.09375 40.484375 23.09375 
L 11.53125 23.09375 
L 11.53125 22.015625 
Q 11.53125 13.71875 14.875 7.765625 
Q 18.21875 1.8125 25.78125 1.8125 
Q 28.859375 1.8125 31.46875 3.171875 
Q 34.078125 4.546875 36 6.984375 
Q 37.9375 9.421875 38.625 12.203125 
Q 38.71875 12.546875 38.984375 12.8125 
Q 39.265625 13.09375 39.59375 13.09375 
L 40.484375 13.09375 
Q 41.5 13.09375 41.5 11.8125 
Q 40.09375 6.15625 35.40625 2.515625 
Q 30.71875 -1.125 24.90625 -1.125 
z
M 11.625 25.59375 
L 34.421875 25.59375 
Q 34.421875 29.34375 33.375 33.203125 
Q 32.328125 37.0625 29.875 39.625 
Q 27.4375 42.1875 23.484375 42.1875 
Q 17.828125 42.1875 14.71875 36.890625 
Q 11.625 31.59375 11.625 25.59375 
z
" id="Cmr10-101"/>
     </defs>
     <use transform="translate(0 0.6875)" xlink:href="#Cmr10-74"/>
     <use transform="translate(51.318359 0.6875)" xlink:href="#Cmr10-97"/>
     <use transform="translate(101.318359 0.6875)" xlink:href="#Cmr10-110"/>
     <use transform="translate(156.835938 0.6875)" xlink:href="#Cmr10-101"/>
    </g>
   </g>
   <g id="text_6">
    <g id="patch_10">
     <path d="M 152.894286 25.53 
L 184.354286 25.53 
L 184.354286 3.3 
L 152.894286 3.3 
z
" style="fill:#ffffff;stroke:#000000;stroke-linejoin:miter;"/>
    </g>
    <!-- $\overrightarrow{{a}}^{ \; \langle 2 \rangle}$ -->
    <g transform="translate(156.794286 18.926406)scale(0.13 -0.13)">
     <defs>
      <path d="M 4.984375 0 
L 4.984375 2.6875 
Q 4.984375 2.9375 5.171875 3.21875 
L 20.703125 20.40625 
Q 24.21875 24.21875 26.40625 26.796875 
Q 28.609375 29.390625 30.75 32.765625 
Q 32.90625 36.140625 34.15625 39.625 
Q 35.40625 43.109375 35.40625 47.015625 
Q 35.40625 51.125 33.890625 54.859375 
Q 32.375 58.59375 29.375 60.84375 
Q 26.375 63.09375 22.125 63.09375 
Q 17.78125 63.09375 14.3125 60.46875 
Q 10.84375 57.859375 9.421875 53.71875 
Q 9.8125 53.8125 10.5 53.8125 
Q 12.75 53.8125 14.328125 52.296875 
Q 15.921875 50.78125 15.921875 48.390625 
Q 15.921875 46.09375 14.328125 44.5 
Q 12.75 42.921875 10.5 42.921875 
Q 8.15625 42.921875 6.5625 44.546875 
Q 4.984375 46.1875 4.984375 48.390625 
Q 4.984375 52.15625 6.390625 55.4375 
Q 7.8125 58.734375 10.46875 61.296875 
Q 13.140625 63.875 16.484375 65.234375 
Q 19.828125 66.609375 23.578125 66.609375 
Q 29.296875 66.609375 34.21875 64.1875 
Q 39.15625 61.765625 42.03125 57.34375 
Q 44.921875 52.9375 44.921875 47.015625 
Q 44.921875 42.671875 43.015625 38.765625 
Q 41.109375 34.859375 38.125 31.65625 
Q 35.15625 28.46875 30.515625 24.40625 
Q 25.875 20.359375 24.421875 19 
L 13.09375 8.109375 
L 22.703125 8.109375 
Q 29.78125 8.109375 34.546875 8.21875 
Q 39.3125 8.34375 39.59375 8.59375 
Q 40.765625 9.859375 42 17.828125 
L 44.921875 17.828125 
L 42.09375 0 
z
" id="Cmr10-50"/>
     </defs>
     <use transform="translate(-17.413574 57.875)" xlink:href="#Cmsy10-33"/>
     <use transform="translate(0 0.0625)" xlink:href="#Cmmi10-97"/>
     <use transform="translate(74.318335 103.667708)scale(0.7)" xlink:href="#Cmex10-173"/>
     <use transform="translate(107.370093 38.326562)scale(0.7)" xlink:href="#Cmr10-50"/>
     <use transform="translate(142.370093 103.667708)scale(0.7)" xlink:href="#Cmex10-174"/>
    </g>
   </g>
   <g id="text_7">
    <g id="patch_11">
     <path d="M 192.751429 25.53 
L 224.211429 25.53 
L 224.211429 3.3 
L 192.751429 3.3 
z
" style="fill:#ffffff;stroke:#000000;stroke-linejoin:miter;"/>
    </g>
    <!-- $\overleftarrow{{a}}^{ \; \langle 2 \rangle}$ -->
    <g transform="translate(196.651429 18.926406)scale(0.13 -0.13)">
     <use transform="translate(-17.413574 57.875)" xlink:href="#Cmsy10-195"/>
     <use transform="translate(0 0.0625)" xlink:href="#Cmmi10-97"/>
     <use transform="translate(74.318335 103.667708)scale(0.7)" xlink:href="#Cmex10-173"/>
     <use transform="translate(107.370093 38.326562)scale(0.7)" xlink:href="#Cmr10-50"/>
     <use transform="translate(142.370093 103.667708)scale(0.7)" xlink:href="#Cmex10-174"/>
    </g>
   </g>
   <g id="text_8">
    <g id="patch_12">
     <path d="M 172.432857 89.352941 
L 204.672857 89.352941 
L 204.672857 67.382941 
L 172.432857 67.382941 
z
" style="fill:#ffffff;"/>
    </g>
    <!-- $x^{ \; \langle 2 \rangle}$ -->
    <g transform="translate(176.332857 82.749347)scale(0.13 -0.13)">
     <use transform="translate(0 0.597135)" xlink:href="#Cmmi10-120"/>
     <use transform="translate(80.454351 104.202344)scale(0.7)" xlink:href="#Cmex10-173"/>
     <use transform="translate(113.506109 38.861198)scale(0.7)" xlink:href="#Cmr10-50"/>
     <use transform="translate(148.506109 104.202344)scale(0.7)" xlink:href="#Cmex10-174"/>
    </g>
   </g>
   <g id="patch_13">
    <path d="M 187.692902 65.576909 
Q 178.588639 46.456612 169.965028 28.345757 
" style="fill:none;stroke:#000000;stroke-linecap:round;"/>
    <path d="M 169.853087 34.158456 
L 169.965028 28.345757 
L 174.548023 31.922929 
" style="fill:none;stroke:#000000;stroke-linecap:round;"/>
   </g>
   <g id="patch_14">
    <path d="M 207.140821 28.345474 
Q 198.51721 46.456329 189.412947 65.576626 
" style="fill:none;stroke:#000000;stroke-linecap:round;"/>
    <path d="M 202.557827 31.922646 
L 207.140821 28.345474 
L 207.252762 34.158173 
" style="fill:none;stroke:#000000;stroke-linecap:round;"/>
   </g>
   <g id="text_9">
    <g id="patch_15">
     <path d="M 169.637857 120.535193 
L 207.467857 120.535193 
L 207.467857 100.153631 
L 169.637857 100.153631 
z
" style="fill:#ffffff;"/>
    </g>
    <!-- $\mathrm{visite}$ -->
    <g transform="translate(173.537857 113.931599)scale(0.13 -0.13)">
     <defs>
      <path d="M 24.421875 0 
L 9.8125 36.71875 
Q 8.890625 38.578125 6.953125 39.078125 
Q 5.03125 39.59375 1.90625 39.59375 
L 1.90625 43.109375 
L 22.90625 43.109375 
L 22.90625 39.59375 
Q 17.28125 39.59375 17.28125 37.203125 
Q 17.28125 36.8125 17.390625 36.625 
L 28.609375 8.40625 
L 38.71875 33.890625 
Q 39.015625 34.671875 39.015625 35.5 
Q 39.015625 37.40625 37.578125 38.5 
Q 36.140625 39.59375 34.1875 39.59375 
L 34.1875 43.109375 
L 50.78125 43.109375 
L 50.78125 39.59375 
Q 47.703125 39.59375 45.375 38.171875 
Q 43.0625 36.765625 41.796875 33.984375 
L 28.328125 0 
Q 27.9375 -1.125 26.703125 -1.125 
L 25.984375 -1.125 
Q 24.75 -1.125 24.421875 0 
z
" id="Cmr10-118"/>
      <path d="M 3.078125 0 
L 3.078125 3.515625 
Q 6.5 3.515625 8.6875 4.046875 
Q 10.890625 4.59375 10.890625 6.6875 
L 10.890625 33.984375 
Q 10.890625 37.84375 9.390625 38.71875 
Q 7.90625 39.59375 3.515625 39.59375 
L 3.515625 43.109375 
L 17.921875 44.1875 
L 17.921875 6.6875 
Q 17.921875 4.59375 19.828125 4.046875 
Q 21.734375 3.515625 24.90625 3.515625 
L 24.90625 0 
z
M 7.328125 61.375 
Q 7.328125 63.578125 8.984375 65.234375 
Q 10.640625 66.890625 12.796875 66.890625 
Q 14.203125 66.890625 15.515625 66.15625 
Q 16.84375 65.4375 17.578125 64.109375 
Q 18.3125 62.796875 18.3125 61.375 
Q 18.3125 59.234375 16.640625 57.5625 
Q 14.984375 55.90625 12.796875 55.90625 
Q 10.640625 55.90625 8.984375 57.5625 
Q 7.328125 59.234375 7.328125 61.375 
z
" id="Cmr10-105"/>
      <path d="M 3.328125 -0.296875 
L 3.328125 16.015625 
Q 3.328125 16.796875 4.203125 16.796875 
L 5.421875 16.796875 
Q 6 16.796875 6.203125 16.015625 
Q 8.984375 1.515625 19.671875 1.515625 
Q 24.421875 1.515625 27.609375 3.65625 
Q 30.8125 5.8125 30.8125 10.296875 
Q 30.8125 13.53125 28.3125 15.796875 
Q 25.828125 18.0625 22.40625 18.890625 
L 15.71875 20.21875 
Q 12.359375 20.953125 9.59375 22.453125 
Q 6.84375 23.96875 5.078125 26.484375 
Q 3.328125 29 3.328125 32.328125 
Q 3.328125 36.71875 5.640625 39.515625 
Q 7.953125 42.328125 11.65625 43.578125 
Q 15.375 44.828125 19.671875 44.828125 
Q 24.8125 44.828125 28.609375 42.09375 
L 31.5 44.578125 
Q 31.5 44.828125 31.984375 44.828125 
L 32.71875 44.828125 
Q 33.015625 44.828125 33.25 44.546875 
Q 33.5 44.28125 33.5 44 
L 33.5 30.90625 
Q 33.5 29.984375 32.71875 29.984375 
L 31.5 29.984375 
Q 30.609375 29.984375 30.609375 30.90625 
Q 30.609375 36.140625 27.703125 39.3125 
Q 24.8125 42.484375 19.578125 42.484375 
Q 15.09375 42.484375 11.796875 40.8125 
Q 8.5 39.15625 8.5 35.109375 
Q 8.5 32.328125 10.859375 30.546875 
Q 13.234375 28.765625 16.40625 27.984375 
L 23.1875 26.703125 
Q 26.609375 25.921875 29.5625 24.0625 
Q 32.515625 22.21875 34.25 19.375 
Q 35.984375 16.546875 35.984375 12.984375 
Q 35.984375 9.375 34.734375 6.703125 
Q 33.5 4.046875 31.265625 2.28125 
Q 29.046875 0.53125 26.015625 -0.296875 
Q 23 -1.125 19.671875 -1.125 
Q 13.421875 -1.125 8.984375 3.078125 
L 5.328125 -0.875 
Q 5.328125 -1.125 4.78125 -1.125 
L 4.203125 -1.125 
Q 3.328125 -1.125 3.328125 -0.296875 
z
" id="Cmr10-115"/>
      <path d="M 10.203125 12.015625 
L 10.203125 39.59375 
L 1.90625 39.59375 
L 1.90625 42.1875 
Q 8.453125 42.1875 11.515625 48.28125 
Q 14.59375 54.390625 14.59375 61.53125 
L 17.484375 61.53125 
L 17.484375 43.109375 
L 31.59375 43.109375 
L 31.59375 39.59375 
L 17.484375 39.59375 
L 17.484375 12.203125 
Q 17.484375 8.0625 18.875 4.9375 
Q 20.265625 1.8125 23.875 1.8125 
Q 27.296875 1.8125 28.8125 5.109375 
Q 30.328125 8.40625 30.328125 12.203125 
L 30.328125 18.109375 
L 33.203125 18.109375 
L 33.203125 12.015625 
Q 33.203125 8.890625 32.046875 5.828125 
Q 30.90625 2.78125 28.65625 0.828125 
Q 26.421875 -1.125 23.1875 -1.125 
Q 17.1875 -1.125 13.6875 2.46875 
Q 10.203125 6.0625 10.203125 12.015625 
z
" id="Cmr10-116"/>
     </defs>
     <use transform="translate(0 0.109375)" xlink:href="#Cmr10-118"/>
     <use transform="translate(52.685547 0.109375)" xlink:href="#Cmr10-105"/>
     <use transform="translate(80.371094 0.109375)" xlink:href="#Cmr10-115"/>
     <use transform="translate(119.775391 0.109375)" xlink:href="#Cmr10-105"/>
     <use transform="translate(147.460938 0.109375)" xlink:href="#Cmr10-116"/>
     <use transform="translate(186.279297 0.109375)" xlink:href="#Cmr10-101"/>
    </g>
   </g>
   <g id="patch_16">
    <path d="M 165.932664 27.106984 
Q 118.802881 54.406243 70.705644 26.546628 
" style="fill:none;stroke:#9467bd;stroke-linecap:round;"/>
    <path d="M 160.12983 27.463518 
L 165.932664 27.106984 
L 162.73619 31.963172 
" style="fill:none;stroke:#9467bd;stroke-linecap:round;"/>
   </g>
   <g id="patch_17">
    <path d="M 111.530193 27.106984 
Q 158.659976 54.406243 206.757213 26.546628 
" style="fill:none;stroke:#2ca02c;stroke-linecap:round;"/>
    <path d="M 114.726667 31.963172 
L 111.530193 27.106984 
L 117.333027 27.463518 
" style="fill:none;stroke:#2ca02c;stroke-linecap:round;"/>
   </g>
   <g id="text_10">
    <g id="patch_18">
     <path d="M 252.537143 25.53 
L 283.997143 25.53 
L 283.997143 3.3 
L 252.537143 3.3 
z
" style="fill:#ffffff;stroke:#000000;stroke-linejoin:miter;"/>
    </g>
    <!-- $\overrightarrow{{a}}^{ \; \langle 3 \rangle}$ -->
    <g transform="translate(256.437143 18.926406)scale(0.13 -0.13)">
     <defs>
      <path d="M 9.515625 7.71875 
Q 11.859375 4.296875 15.8125 2.640625 
Q 19.78125 0.984375 24.3125 0.984375 
Q 30.125 0.984375 32.5625 5.9375 
Q 35.015625 10.890625 35.015625 17.1875 
Q 35.015625 20.015625 34.5 22.84375 
Q 33.984375 25.6875 32.765625 28.125 
Q 31.546875 30.5625 29.421875 32.03125 
Q 27.296875 33.5 24.21875 33.5 
L 17.578125 33.5 
Q 16.703125 33.5 16.703125 34.421875 
L 16.703125 35.296875 
Q 16.703125 36.078125 17.578125 36.078125 
L 23.09375 36.53125 
Q 26.609375 36.53125 28.921875 39.15625 
Q 31.25 41.796875 32.328125 45.578125 
Q 33.40625 49.359375 33.40625 52.78125 
Q 33.40625 57.5625 31.15625 60.640625 
Q 28.90625 63.71875 24.3125 63.71875 
Q 20.515625 63.71875 17.046875 62.28125 
Q 13.578125 60.84375 11.53125 57.90625 
Q 11.71875 57.953125 11.859375 57.984375 
Q 12.015625 58.015625 12.203125 58.015625 
Q 14.453125 58.015625 15.96875 56.453125 
Q 17.484375 54.890625 17.484375 52.6875 
Q 17.484375 50.53125 15.96875 48.96875 
Q 14.453125 47.40625 12.203125 47.40625 
Q 10.015625 47.40625 8.453125 48.96875 
Q 6.890625 50.53125 6.890625 52.6875 
Q 6.890625 56.984375 9.46875 60.15625 
Q 12.0625 63.328125 16.140625 64.96875 
Q 20.21875 66.609375 24.3125 66.609375 
Q 27.34375 66.609375 30.703125 65.703125 
Q 34.078125 64.796875 36.8125 63.109375 
Q 39.546875 61.421875 41.28125 58.78125 
Q 43.015625 56.15625 43.015625 52.78125 
Q 43.015625 48.578125 41.140625 45.015625 
Q 39.265625 41.453125 35.984375 38.859375 
Q 32.71875 36.28125 28.8125 35.015625 
Q 33.15625 34.1875 37.0625 31.734375 
Q 40.96875 29.296875 43.328125 25.484375 
Q 45.703125 21.6875 45.703125 17.28125 
Q 45.703125 11.765625 42.671875 7.296875 
Q 39.65625 2.828125 34.71875 0.3125 
Q 29.78125 -2.203125 24.3125 -2.203125 
Q 19.625 -2.203125 14.90625 -0.40625 
Q 10.203125 1.375 7.203125 4.9375 
Q 4.203125 8.5 4.203125 13.484375 
Q 4.203125 15.96875 5.859375 17.625 
Q 7.515625 19.28125 10.015625 19.28125 
Q 11.625 19.28125 12.96875 18.53125 
Q 14.3125 17.78125 15.0625 16.40625 
Q 15.828125 15.046875 15.828125 13.484375 
Q 15.828125 11.03125 14.109375 9.375 
Q 12.40625 7.71875 10.015625 7.71875 
z
" id="Cmr10-51"/>
     </defs>
     <use transform="translate(-17.413574 57.875)" xlink:href="#Cmsy10-33"/>
     <use transform="translate(0 0.0625)" xlink:href="#Cmmi10-97"/>
     <use transform="translate(74.318335 103.667708)scale(0.7)" xlink:href="#Cmex10-173"/>
     <use transform="translate(107.370093 38.326562)scale(0.7)" xlink:href="#Cmr10-51"/>
     <use transform="translate(142.370093 103.667708)scale(0.7)" xlink:href="#Cmex10-174"/>
    </g>
   </g>
   <g id="text_11">
    <g id="patch_19">
     <path d="M 292.394286 25.53 
L 323.854286 25.53 
L 323.854286 3.3 
L 292.394286 3.3 
z
" style="fill:#ffffff;stroke:#000000;stroke-linejoin:miter;"/>
    </g>
    <!-- $\overleftarrow{{a}}^{ \; \langle 3 \rangle}$ -->
    <g transform="translate(296.294286 18.926406)scale(0.13 -0.13)">
     <use transform="translate(-17.413574 57.875)" xlink:href="#Cmsy10-195"/>
     <use transform="translate(0 0.0625)" xlink:href="#Cmmi10-97"/>
     <use transform="translate(74.318335 103.667708)scale(0.7)" xlink:href="#Cmex10-173"/>
     <use transform="translate(107.370093 38.326562)scale(0.7)" xlink:href="#Cmr10-51"/>
     <use transform="translate(142.370093 103.667708)scale(0.7)" xlink:href="#Cmex10-174"/>
    </g>
   </g>
   <g id="text_12">
    <g id="patch_20">
     <path d="M 272.075714 89.352941 
L 304.315714 89.352941 
L 304.315714 67.382941 
L 272.075714 67.382941 
z
" style="fill:#ffffff;"/>
    </g>
    <!-- $x^{ \; \langle 3 \rangle}$ -->
    <g transform="translate(275.975714 82.749347)scale(0.13 -0.13)">
     <use transform="translate(0 0.597135)" xlink:href="#Cmmi10-120"/>
     <use transform="translate(80.454351 104.202344)scale(0.7)" xlink:href="#Cmex10-173"/>
     <use transform="translate(113.506109 38.861198)scale(0.7)" xlink:href="#Cmr10-51"/>
     <use transform="translate(148.506109 104.202344)scale(0.7)" xlink:href="#Cmex10-174"/>
    </g>
   </g>
   <g id="patch_21">
    <path d="M 287.335759 65.576909 
Q 278.231496 46.456612 269.607885 28.345757 
" style="fill:none;stroke:#000000;stroke-linecap:round;"/>
    <path d="M 269.495944 34.158456 
L 269.607885 28.345757 
L 274.19088 31.922929 
" style="fill:none;stroke:#000000;stroke-linecap:round;"/>
   </g>
   <g id="patch_22">
    <path d="M 306.783678 28.345474 
Q 298.160067 46.456329 289.055804 65.576626 
" style="fill:none;stroke:#000000;stroke-linecap:round;"/>
    <path d="M 302.200684 31.922646 
L 306.783678 28.345474 
L 306.895619 34.158173 
" style="fill:none;stroke:#000000;stroke-linecap:round;"/>
   </g>
   <g id="text_13">
    <g id="patch_23">
     <path d="M 259.400714 120.679412 
L 316.990714 120.679412 
L 316.990714 100.009412 
L 259.400714 100.009412 
z
" style="fill:#ffffff;"/>
    </g>
    <!-- $\mathrm{l'Afrique}$ -->
    <g transform="translate(263.300714 114.075818)scale(0.13 -0.13)">
     <defs>
      <path d="M 3.078125 0 
L 3.078125 3.515625 
Q 6.5 3.515625 8.6875 4.046875 
Q 10.890625 4.59375 10.890625 6.6875 
L 10.890625 59.1875 
Q 10.890625 61.859375 10.078125 63.0625 
Q 9.28125 64.265625 7.765625 64.53125 
Q 6.25 64.796875 3.078125 64.796875 
L 3.078125 68.3125 
L 17.921875 69.390625 
L 17.921875 6.6875 
Q 17.921875 4.59375 20.109375 4.046875 
Q 22.3125 3.515625 25.6875 3.515625 
L 25.6875 0 
z
" id="Cmr10-108"/>
      <path d="M 3.515625 5.421875 
Q 2.875 5.609375 2.875 6.390625 
L 15.09375 51.8125 
Q 15.671875 53.65625 17.078125 54.78125 
Q 18.5 55.90625 20.3125 55.90625 
Q 22.65625 55.90625 24.4375 54.359375 
Q 26.21875 52.828125 26.21875 50.484375 
Q 26.21875 49.46875 25.6875 48.1875 
L 7.625 4.984375 
Q 7.28125 4.296875 6.6875 4.296875 
Q 6.15625 4.296875 5 4.78125 
Q 3.859375 5.28125 3.515625 5.421875 
z
" id="Cmsy10-48"/>
      <path d="M 3.21875 0 
L 3.21875 3.515625 
Q 12.15625 3.515625 14.203125 9.421875 
L 35.203125 70.515625 
Q 35.5 71.578125 36.8125 71.578125 
L 38.09375 71.578125 
Q 39.40625 71.578125 39.703125 70.515625 
L 61.625 6.6875 
Q 62.546875 4.59375 65.15625 4.046875 
Q 67.78125 3.515625 71.6875 3.515625 
L 71.6875 0 
L 43.796875 0 
L 43.796875 3.515625 
Q 52.09375 3.515625 52.09375 6.203125 
L 52.09375 6.6875 
L 46.6875 22.3125 
L 22.40625 22.3125 
L 17.921875 9.421875 
Q 17.828125 9.078125 17.828125 8.40625 
Q 17.828125 5.90625 20.1875 4.703125 
Q 22.5625 3.515625 25.296875 3.515625 
L 25.296875 0 
z
M 23.578125 25.78125 
L 45.515625 25.78125 
L 34.515625 57.71875 
z
" id="Cmr10-65"/>
      <path d="M 3.21875 0 
L 3.21875 3.515625 
Q 6.59375 3.515625 8.78125 4.046875 
Q 10.984375 4.59375 10.984375 6.6875 
L 10.984375 39.59375 
L 3.328125 39.59375 
L 3.328125 43.109375 
L 10.984375 43.109375 
L 10.984375 55.078125 
Q 10.984375 58.296875 12.328125 61.109375 
Q 13.671875 63.921875 15.9375 66.015625 
Q 18.21875 68.109375 21.171875 69.3125 
Q 24.125 70.515625 27.296875 70.515625 
Q 30.671875 70.515625 33.375 68.5 
Q 36.078125 66.5 36.078125 63.1875 
Q 36.078125 61.28125 34.78125 59.984375 
Q 33.5 58.6875 31.59375 58.6875 
Q 29.6875 58.6875 28.34375 59.984375 
Q 27 61.28125 27 63.1875 
Q 27 66.3125 29.6875 67.390625 
Q 28.078125 67.921875 26.8125 67.921875 
Q 23.875 67.921875 21.796875 65.84375 
Q 19.734375 63.765625 18.703125 60.78125 
Q 17.671875 57.8125 17.671875 54.890625 
L 17.671875 43.109375 
L 29.203125 43.109375 
L 29.203125 39.59375 
L 18.015625 39.59375 
L 18.015625 6.6875 
Q 18.015625 4.640625 20.9375 4.078125 
Q 23.875 3.515625 27.6875 3.515625 
L 27.6875 0 
z
" id="Cmr10-102"/>
      <path d="M 2.59375 0 
L 2.59375 3.515625 
Q 6 3.515625 8.203125 4.046875 
Q 10.40625 4.59375 10.40625 6.6875 
L 10.40625 33.984375 
Q 10.40625 36.671875 9.59375 37.859375 
Q 8.796875 39.0625 7.28125 39.328125 
Q 5.765625 39.59375 2.59375 39.59375 
L 2.59375 43.109375 
L 16.890625 44.1875 
L 16.890625 34.421875 
Q 18.5 38.765625 21.484375 41.46875 
Q 24.46875 44.1875 28.71875 44.1875 
Q 31.6875 44.1875 34.03125 42.421875 
Q 36.375 40.671875 36.375 37.796875 
Q 36.375 35.984375 35.078125 34.640625 
Q 33.796875 33.296875 31.890625 33.296875 
Q 30.03125 33.296875 28.703125 34.609375 
Q 27.390625 35.9375 27.390625 37.796875 
Q 27.390625 40.484375 29.296875 41.609375 
L 28.71875 41.609375 
Q 24.65625 41.609375 22.09375 38.671875 
Q 19.53125 35.75 18.453125 31.390625 
Q 17.390625 27.046875 17.390625 23.09375 
L 17.390625 6.6875 
Q 17.390625 3.515625 27.09375 3.515625 
L 27.09375 0 
z
" id="Cmr10-114"/>
      <path d="M 29.984375 -19.390625 
L 29.984375 -15.921875 
Q 33.40625 -15.921875 35.59375 -15.328125 
Q 37.796875 -14.75 37.796875 -12.703125 
L 37.796875 5.8125 
Q 35.453125 2.6875 31.890625 0.78125 
Q 28.328125 -1.125 24.421875 -1.125 
Q 19.921875 -1.125 16.0625 0.734375 
Q 12.203125 2.59375 9.34375 5.765625 
Q 6.5 8.9375 4.90625 13.109375 
Q 3.328125 17.28125 3.328125 21.578125 
Q 3.328125 27.546875 6.25 32.78125 
Q 9.1875 38.03125 14.28125 41.109375 
Q 19.390625 44.1875 25.296875 44.1875 
Q 29.546875 44.1875 33.15625 41.796875 
Q 36.765625 39.40625 38.921875 35.40625 
L 42.484375 44.1875 
L 45.125 44.1875 
L 45.125 -12.703125 
Q 45.125 -14.75 47.3125 -15.328125 
Q 49.515625 -15.921875 52.875 -15.921875 
L 52.875 -19.390625 
z
M 25 1.515625 
Q 29.4375 1.515625 32.921875 4.46875 
Q 36.421875 7.421875 38.09375 11.921875 
L 38.09375 29.5 
Q 37.0625 34.28125 33.828125 37.796875 
Q 30.609375 41.3125 26.125 41.3125 
Q 22.703125 41.3125 20.015625 39.5 
Q 17.328125 37.703125 15.546875 34.671875 
Q 13.765625 31.640625 12.890625 28.125 
Q 12.015625 24.609375 12.015625 21.484375 
Q 12.015625 17.484375 13.421875 12.765625 
Q 14.84375 8.0625 17.765625 4.78125 
Q 20.703125 1.515625 25 1.515625 
z
" id="Cmr10-113"/>
      <path d="M 10.796875 11.921875 
L 10.796875 33.984375 
Q 10.796875 36.671875 9.984375 37.859375 
Q 9.1875 39.0625 7.671875 39.328125 
Q 6.15625 39.59375 2.984375 39.59375 
L 2.984375 43.109375 
L 18.109375 44.1875 
L 18.109375 11.921875 
Q 18.109375 8.015625 18.671875 5.828125 
Q 19.234375 3.65625 21.0625 2.578125 
Q 22.90625 1.515625 26.90625 1.515625 
Q 32.28125 1.515625 35.453125 6 
Q 38.625 10.5 38.625 16.21875 
L 38.625 33.984375 
Q 38.625 36.671875 37.796875 37.859375 
Q 36.96875 39.0625 35.46875 39.328125 
Q 33.984375 39.59375 30.8125 39.59375 
L 30.8125 43.109375 
L 45.90625 44.1875 
L 45.90625 9.078125 
Q 45.90625 6.453125 46.703125 5.25 
Q 47.515625 4.046875 49.015625 3.78125 
Q 50.53125 3.515625 53.71875 3.515625 
L 53.71875 0 
L 38.921875 -1.125 
L 38.921875 7.328125 
Q 37.0625 3.5625 33.734375 1.21875 
Q 30.421875 -1.125 26.421875 -1.125 
Q 19.234375 -1.125 15.015625 1.921875 
Q 10.796875 4.984375 10.796875 11.921875 
z
" id="Cmr10-117"/>
     </defs>
     <use transform="translate(0 0.715625)" xlink:href="#Cmr10-108"/>
     <use transform="translate(32.253047 39.865625)scale(0.7)" xlink:href="#Cmsy10-48"/>
     <use transform="translate(58.021211 0.715625)" xlink:href="#Cmr10-65"/>
     <use transform="translate(133.021211 0.715625)" xlink:href="#Cmr10-102"/>
     <use transform="translate(163.538789 0.715625)" xlink:href="#Cmr10-114"/>
     <use transform="translate(202.650117 0.715625)" xlink:href="#Cmr10-105"/>
     <use transform="translate(230.335664 0.715625)" xlink:href="#Cmr10-113"/>
     <use transform="translate(283.021211 0.715625)" xlink:href="#Cmr10-117"/>
     <use transform="translate(338.538789 0.715625)" xlink:href="#Cmr10-101"/>
    </g>
   </g>
   <g id="patch_24">
    <path d="M 265.575521 27.106984 
Q 218.445738 54.406243 170.348501 26.546628 
" style="fill:none;stroke:#9467bd;stroke-linecap:round;"/>
    <path d="M 259.772687 27.463518 
L 265.575521 27.106984 
L 262.379048 31.963172 
" style="fill:none;stroke:#9467bd;stroke-linecap:round;"/>
   </g>
   <g id="patch_25">
    <path d="M 211.17305 27.106984 
Q 258.302833 54.406243 306.40007 26.546628 
" style="fill:none;stroke:#2ca02c;stroke-linecap:round;"/>
    <path d="M 214.369524 31.963172 
L 211.17305 27.106984 
L 216.975885 27.463518 
" style="fill:none;stroke:#2ca02c;stroke-linecap:round;"/>
   </g>
   <g id="text_14">
    <g id="patch_26">
     <path d="M 352.18 25.53 
L 383.64 25.53 
L 383.64 3.3 
L 352.18 3.3 
z
" style="fill:#ffffff;stroke:#000000;stroke-linejoin:miter;"/>
    </g>
    <!-- $\overrightarrow{{a}}^{ \; \langle 4 \rangle}$ -->
    <g transform="translate(356.08 18.926406)scale(0.13 -0.13)">
     <defs>
      <path d="M 2.78125 16.5 
L 2.78125 20.015625 
L 33.6875 66.109375 
Q 34.03125 66.609375 34.71875 66.609375 
L 36.1875 66.609375 
Q 37.3125 66.609375 37.3125 65.484375 
L 37.3125 20.015625 
L 47.125 20.015625 
L 47.125 16.5 
L 37.3125 16.5 
L 37.3125 6.6875 
Q 37.3125 4.640625 40.234375 4.078125 
Q 43.171875 3.515625 47.015625 3.515625 
L 47.015625 0 
L 19.484375 0 
L 19.484375 3.515625 
Q 23.34375 3.515625 26.265625 4.078125 
Q 29.203125 4.640625 29.203125 6.6875 
L 29.203125 16.5 
z
M 6.109375 20.015625 
L 29.78125 20.015625 
L 29.78125 55.421875 
z
" id="Cmr10-52"/>
     </defs>
     <use transform="translate(-17.413574 57.875)" xlink:href="#Cmsy10-33"/>
     <use transform="translate(0 0.0625)" xlink:href="#Cmmi10-97"/>
     <use transform="translate(74.318335 103.667708)scale(0.7)" xlink:href="#Cmex10-173"/>
     <use transform="translate(107.370093 38.326562)scale(0.7)" xlink:href="#Cmr10-52"/>
     <use transform="translate(142.370093 103.667708)scale(0.7)" xlink:href="#Cmex10-174"/>
    </g>
   </g>
   <g id="text_15">
    <g id="patch_27">
     <path d="M 392.037143 25.53 
L 423.497143 25.53 
L 423.497143 3.3 
L 392.037143 3.3 
z
" style="fill:#ffffff;stroke:#000000;stroke-linejoin:miter;"/>
    </g>
    <!-- $\overleftarrow{{a}}^{ \; \langle 4 \rangle}$ -->
    <g transform="translate(395.937143 18.926406)scale(0.13 -0.13)">
     <use transform="translate(-17.413574 57.875)" xlink:href="#Cmsy10-195"/>
     <use transform="translate(0 0.0625)" xlink:href="#Cmmi10-97"/>
     <use transform="translate(74.318335 103.667708)scale(0.7)" xlink:href="#Cmex10-173"/>
     <use transform="translate(107.370093 38.326562)scale(0.7)" xlink:href="#Cmr10-52"/>
     <use transform="translate(142.370093 103.667708)scale(0.7)" xlink:href="#Cmex10-174"/>
    </g>
   </g>
   <g id="text_16">
    <g id="patch_28">
     <path d="M 371.718571 89.352941 
L 403.958571 89.352941 
L 403.958571 67.382941 
L 371.718571 67.382941 
z
" style="fill:#ffffff;"/>
    </g>
    <!-- $x^{ \; \langle 4 \rangle}$ -->
    <g transform="translate(375.618571 82.749347)scale(0.13 -0.13)">
     <use transform="translate(0 0.597135)" xlink:href="#Cmmi10-120"/>
     <use transform="translate(80.454351 104.202344)scale(0.7)" xlink:href="#Cmex10-173"/>
     <use transform="translate(113.506109 38.861198)scale(0.7)" xlink:href="#Cmr10-52"/>
     <use transform="translate(148.506109 104.202344)scale(0.7)" xlink:href="#Cmex10-174"/>
    </g>
   </g>
   <g id="patch_29">
    <path d="M 386.978617 65.576909 
Q 377.874353 46.456612 369.250742 28.345757 
" style="fill:none;stroke:#000000;stroke-linecap:round;"/>
    <path d="M 369.138801 34.158456 
L 369.250742 28.345757 
L 373.833737 31.922929 
" style="fill:none;stroke:#000000;stroke-linecap:round;"/>
   </g>
   <g id="patch_30">
    <path d="M 406.426535 28.345474 
Q 397.802925 46.456329 388.698661 65.576626 
" style="fill:none;stroke:#000000;stroke-linecap:round;"/>
    <path d="M 401.843541 31.922646 
L 406.426535 28.345474 
L 406.538476 34.158173 
" style="fill:none;stroke:#000000;stroke-linecap:round;"/>
   </g>
   <g id="text_17">
    <g id="patch_31">
     <path d="M 377.438571 120.535193 
L 398.238571 120.535193 
L 398.238571 100.153631 
L 377.438571 100.153631 
z
" style="fill:#ffffff;"/>
    </g>
    <!-- $\mathrm{en}$ -->
    <g transform="translate(381.338571 113.931599)scale(0.13 -0.13)">
     <use transform="translate(0 0.171875)" xlink:href="#Cmr10-101"/>
     <use transform="translate(44.384766 0.171875)" xlink:href="#Cmr10-110"/>
    </g>
   </g>
   <g id="patch_32">
    <path d="M 365.218378 27.106984 
Q 318.088596 54.406243 269.991358 26.546628 
" style="fill:none;stroke:#9467bd;stroke-linecap:round;"/>
    <path d="M 359.415544 27.463518 
L 365.218378 27.106984 
L 362.021905 31.963172 
" style="fill:none;stroke:#9467bd;stroke-linecap:round;"/>
   </g>
   <g id="patch_33">
    <path d="M 310.815908 27.106984 
Q 357.94569 54.406243 406.042928 26.546628 
" style="fill:none;stroke:#2ca02c;stroke-linecap:round;"/>
    <path d="M 314.012381 31.963172 
L 310.815908 27.106984 
L 316.618742 27.463518 
" style="fill:none;stroke:#2ca02c;stroke-linecap:round;"/>
   </g>
   <g id="text_18">
    <g id="patch_34">
     <path d="M 451.822857 25.53 
L 483.282857 25.53 
L 483.282857 3.3 
L 451.822857 3.3 
z
" style="fill:#ffffff;stroke:#000000;stroke-linejoin:miter;"/>
    </g>
    <!-- $\overrightarrow{{a}}^{ \; \langle 5 \rangle}$ -->
    <g transform="translate(455.722857 18.926406)scale(0.13 -0.13)">
     <defs>
      <path d="M 8.6875 11.375 
Q 9.71875 8.453125 11.84375 6.046875 
Q 13.96875 3.65625 16.875 2.3125 
Q 19.78125 0.984375 22.90625 0.984375 
Q 30.125 0.984375 32.859375 6.59375 
Q 35.59375 12.203125 35.59375 20.21875 
Q 35.59375 23.6875 35.46875 26.046875 
Q 35.359375 28.421875 34.8125 30.609375 
Q 33.890625 34.125 31.5625 36.765625 
Q 29.25 39.40625 25.875 39.40625 
Q 22.515625 39.40625 20.09375 38.375 
Q 17.671875 37.359375 16.15625 35.984375 
Q 14.65625 34.625 13.484375 33.109375 
Q 12.3125 31.59375 12.015625 31.5 
L 10.890625 31.5 
Q 10.640625 31.5 10.265625 31.8125 
Q 9.90625 32.125 9.90625 32.421875 
L 9.90625 65.828125 
Q 9.90625 66.0625 10.21875 66.328125 
Q 10.546875 66.609375 10.890625 66.609375 
L 11.1875 66.609375 
Q 17.921875 63.375 25.484375 63.375 
Q 32.90625 63.375 39.796875 66.609375 
L 40.09375 66.609375 
Q 40.4375 66.609375 40.71875 66.359375 
Q 41.015625 66.109375 41.015625 65.828125 
L 41.015625 64.890625 
Q 41.015625 64.40625 40.828125 64.40625 
Q 37.40625 59.859375 32.25 57.3125 
Q 27.09375 54.78125 21.578125 54.78125 
Q 17.578125 54.78125 13.375 55.90625 
L 13.375 37.015625 
Q 16.703125 39.703125 19.3125 40.84375 
Q 21.921875 42 25.984375 42 
Q 31.5 42 35.859375 38.8125 
Q 40.234375 35.640625 42.578125 30.53125 
Q 44.921875 25.4375 44.921875 20.125 
Q 44.921875 14.109375 41.96875 8.984375 
Q 39.015625 3.859375 33.9375 0.828125 
Q 28.859375 -2.203125 22.90625 -2.203125 
Q 17.96875 -2.203125 13.84375 0.328125 
Q 9.71875 2.875 7.34375 7.171875 
Q 4.984375 11.46875 4.984375 16.3125 
Q 4.984375 18.5625 6.4375 19.96875 
Q 7.90625 21.390625 10.109375 21.390625 
Q 12.3125 21.390625 13.796875 19.9375 
Q 15.28125 18.5 15.28125 16.3125 
Q 15.28125 14.15625 13.796875 12.671875 
Q 12.3125 11.1875 10.109375 11.1875 
Q 9.765625 11.1875 9.328125 11.25 
Q 8.890625 11.328125 8.6875 11.375 
z
" id="Cmr10-53"/>
     </defs>
     <use transform="translate(-17.413574 57.875)" xlink:href="#Cmsy10-33"/>
     <use transform="translate(0 0.0625)" xlink:href="#Cmmi10-97"/>
     <use transform="translate(74.318335 103.667708)scale(0.7)" xlink:href="#Cmex10-173"/>
     <use transform="translate(107.370093 38.326562)scale(0.7)" xlink:href="#Cmr10-53"/>
     <use transform="translate(142.370093 103.667708)scale(0.7)" xlink:href="#Cmex10-174"/>
    </g>
   </g>
   <g id="text_19">
    <g id="patch_35">
     <path d="M 491.68 25.53 
L 523.14 25.53 
L 523.14 3.3 
L 491.68 3.3 
z
" style="fill:#ffffff;stroke:#000000;stroke-linejoin:miter;"/>
    </g>
    <!-- $\overleftarrow{{a}}^{ \; \langle 5 \rangle}$ -->
    <g transform="translate(495.58 18.926406)scale(0.13 -0.13)">
     <use transform="translate(-17.413574 57.875)" xlink:href="#Cmsy10-195"/>
     <use transform="translate(0 0.0625)" xlink:href="#Cmmi10-97"/>
     <use transform="translate(74.318335 103.667708)scale(0.7)" xlink:href="#Cmex10-173"/>
     <use transform="translate(107.370093 38.326562)scale(0.7)" xlink:href="#Cmr10-53"/>
     <use transform="translate(142.370093 103.667708)scale(0.7)" xlink:href="#Cmex10-174"/>
    </g>
   </g>
   <g id="text_20">
    <g id="patch_36">
     <path d="M 471.361429 89.352941 
L 503.601429 89.352941 
L 503.601429 67.382941 
L 471.361429 67.382941 
z
" style="fill:#ffffff;"/>
    </g>
    <!-- $x^{ \; \langle 5 \rangle}$ -->
    <g transform="translate(475.261429 82.749347)scale(0.13 -0.13)">
     <use transform="translate(0 0.597135)" xlink:href="#Cmmi10-120"/>
     <use transform="translate(80.454351 104.202344)scale(0.7)" xlink:href="#Cmex10-173"/>
     <use transform="translate(113.506109 38.861198)scale(0.7)" xlink:href="#Cmr10-53"/>
     <use transform="translate(148.506109 104.202344)scale(0.7)" xlink:href="#Cmex10-174"/>
    </g>
   </g>
   <g id="patch_37">
    <path d="M 486.621474 65.576909 
Q 477.51721 46.456612 468.8936 28.345757 
" style="fill:none;stroke:#000000;stroke-linecap:round;"/>
    <path d="M 468.781658 34.158456 
L 468.8936 28.345757 
L 473.476594 31.922929 
" style="fill:none;stroke:#000000;stroke-linecap:round;"/>
   </g>
   <g id="patch_38">
    <path d="M 506.069392 28.345474 
Q 497.445782 46.456329 488.341518 65.576626 
" style="fill:none;stroke:#000000;stroke-linecap:round;"/>
    <path d="M 501.486398 31.922646 
L 506.069392 28.345474 
L 506.181334 34.158173 
" style="fill:none;stroke:#000000;stroke-linecap:round;"/>
   </g>
   <g id="text_21">
    <g id="patch_39">
     <path d="M 454.656429 120.535193 
L 520.306429 120.535193 
L 520.306429 100.153631 
L 454.656429 100.153631 
z
" style="fill:#ffffff;"/>
    </g>
    <!-- $\mathrm{septembre}$ -->
    <g transform="translate(458.556429 113.931599)scale(0.13 -0.13)">
     <defs>
      <path d="M 2.59375 -19.390625 
L 2.59375 -15.921875 
Q 6 -15.921875 8.203125 -15.328125 
Q 10.40625 -14.75 10.40625 -12.703125 
L 10.40625 35.5 
Q 10.40625 38.234375 8.453125 38.90625 
Q 6.5 39.59375 2.59375 39.59375 
L 2.59375 43.109375 
L 17.390625 44.1875 
L 17.390625 37.984375 
Q 20.125 41.015625 23.75 42.59375 
Q 27.390625 44.1875 31.5 44.1875 
Q 37.40625 44.1875 42.140625 40.984375 
Q 46.875 37.796875 49.53125 32.59375 
Q 52.203125 27.390625 52.203125 21.578125 
Q 52.203125 15.53125 49.25 10.296875 
Q 46.296875 5.078125 41.1875 1.96875 
Q 36.078125 -1.125 29.984375 -1.125 
Q 22.703125 -1.125 17.671875 4.78125 
L 17.671875 -12.703125 
Q 17.671875 -14.75 19.890625 -15.328125 
Q 22.125 -15.921875 25.484375 -15.921875 
L 25.484375 -19.390625 
z
M 17.671875 9.71875 
Q 19.4375 6.15625 22.5625 3.828125 
Q 25.6875 1.515625 29.390625 1.515625 
Q 32.859375 1.515625 35.515625 3.359375 
Q 38.1875 5.21875 39.984375 8.34375 
Q 41.796875 11.46875 42.640625 14.90625 
Q 43.5 18.359375 43.5 21.578125 
Q 43.5 25.59375 42.0625 30.25 
Q 40.625 34.90625 37.671875 38.109375 
Q 34.71875 41.3125 30.515625 41.3125 
Q 26.46875 41.3125 23.0625 39.234375 
Q 19.671875 37.15625 17.671875 33.59375 
z
" id="Cmr10-112"/>
      <path d="M 2.984375 0 
L 2.984375 3.515625 
Q 6.390625 3.515625 8.59375 4.046875 
Q 10.796875 4.59375 10.796875 6.6875 
L 10.796875 33.984375 
Q 10.796875 36.671875 9.984375 37.859375 
Q 9.1875 39.0625 7.671875 39.328125 
Q 6.15625 39.59375 2.984375 39.59375 
L 2.984375 43.109375 
L 17.484375 44.1875 
L 17.484375 34.421875 
Q 19.484375 38.71875 23.40625 41.453125 
Q 27.34375 44.1875 31.984375 44.1875 
Q 43.5 44.1875 45.515625 34.8125 
Q 47.515625 39.015625 51.359375 41.59375 
Q 55.21875 44.1875 59.8125 44.1875 
Q 64.359375 44.1875 67.453125 42.71875 
Q 70.5625 41.265625 72.125 38.25 
Q 73.6875 35.25 73.6875 30.71875 
L 73.6875 6.6875 
Q 73.6875 4.59375 75.90625 4.046875 
Q 78.125 3.515625 81.5 3.515625 
L 81.5 0 
L 58.59375 0 
L 58.59375 3.515625 
Q 62.015625 3.515625 64.203125 4.046875 
Q 66.40625 4.59375 66.40625 6.6875 
L 66.40625 30.421875 
Q 66.40625 35.453125 64.984375 38.53125 
Q 63.578125 41.609375 59.1875 41.609375 
Q 53.421875 41.609375 49.65625 36.96875 
Q 45.90625 32.328125 45.90625 26.421875 
L 45.90625 6.6875 
Q 45.90625 4.59375 48.09375 4.046875 
Q 50.296875 3.515625 53.71875 3.515625 
L 53.71875 0 
L 30.8125 0 
L 30.8125 3.515625 
Q 34.234375 3.515625 36.421875 4.046875 
Q 38.625 4.59375 38.625 6.6875 
L 38.625 30.421875 
Q 38.625 35.296875 37.203125 38.453125 
Q 35.796875 41.609375 31.390625 41.609375 
Q 25.59375 41.609375 21.84375 36.96875 
Q 18.109375 32.328125 18.109375 26.421875 
L 18.109375 6.6875 
Q 18.109375 4.59375 20.3125 4.046875 
Q 22.515625 3.515625 25.875 3.515625 
L 25.875 0 
z
" id="Cmr10-109"/>
      <path d="M 10.40625 0 
L 10.40625 59.1875 
Q 10.40625 61.859375 9.59375 63.0625 
Q 8.796875 64.265625 7.28125 64.53125 
Q 5.765625 64.796875 2.59375 64.796875 
L 2.59375 68.3125 
L 17.390625 69.390625 
L 17.390625 38.09375 
Q 19.046875 39.9375 21.265625 41.328125 
Q 23.484375 42.71875 26.015625 43.453125 
Q 28.5625 44.1875 31.203125 44.1875 
Q 35.6875 44.1875 39.515625 42.375 
Q 43.359375 40.578125 46.1875 37.40625 
Q 49.03125 34.234375 50.609375 30.109375 
Q 52.203125 25.984375 52.203125 21.578125 
Q 52.203125 15.53125 49.25 10.296875 
Q 46.296875 5.078125 41.1875 1.96875 
Q 36.078125 -1.125 29.984375 -1.125 
Q 26.171875 -1.125 22.609375 0.828125 
Q 19.046875 2.78125 16.703125 6 
L 13.28125 0 
z
M 17.671875 9.8125 
Q 19.34375 6.15625 22.46875 3.828125 
Q 25.59375 1.515625 29.390625 1.515625 
Q 34.578125 1.515625 37.765625 4.484375 
Q 40.96875 7.46875 42.234375 12 
Q 43.5 16.546875 43.5 21.578125 
Q 43.5 30.03125 41.3125 34.421875 
Q 40.328125 36.375 38.640625 38.03125 
Q 36.96875 39.703125 34.890625 40.65625 
Q 32.8125 41.609375 30.515625 41.609375 
Q 26.515625 41.609375 23.09375 39.484375 
Q 19.671875 37.359375 17.671875 33.796875 
z
" id="Cmr10-98"/>
     </defs>
     <use transform="translate(0 0.609375)" xlink:href="#Cmr10-115"/>
     <use transform="translate(39.404297 0.609375)" xlink:href="#Cmr10-101"/>
     <use transform="translate(83.789062 0.609375)" xlink:href="#Cmr10-112"/>
     <use transform="translate(139.306641 0.609375)" xlink:href="#Cmr10-116"/>
     <use transform="translate(178.125 0.609375)" xlink:href="#Cmr10-101"/>
     <use transform="translate(222.509766 0.609375)" xlink:href="#Cmr10-109"/>
     <use transform="translate(305.810547 0.609375)" xlink:href="#Cmr10-98"/>
     <use transform="translate(361.328125 0.609375)" xlink:href="#Cmr10-114"/>
     <use transform="translate(400.439453 0.609375)" xlink:href="#Cmr10-101"/>
    </g>
   </g>
   <g id="patch_40">
    <path d="M 464.861235 27.106984 
Q 417.731453 54.406243 369.634215 26.546628 
" style="fill:none;stroke:#9467bd;stroke-linecap:round;"/>
    <path d="M 459.058401 27.463518 
L 464.861235 27.106984 
L 461.664762 31.963172 
" style="fill:none;stroke:#9467bd;stroke-linecap:round;"/>
   </g>
   <g id="patch_41">
    <path d="M 410.458765 27.106984 
Q 457.588547 54.406243 505.685785 26.546628 
" style="fill:none;stroke:#2ca02c;stroke-linecap:round;"/>
    <path d="M 413.655238 31.963172 
L 410.458765 27.106984 
L 416.261599 27.463518 
" style="fill:none;stroke:#2ca02c;stroke-linecap:round;"/>
   </g>
   <g id="text_22">
    <g id="patch_42">
     <path d="M 541.371429 25.4 
L 573.091429 25.4 
L 573.091429 3.43 
L 541.371429 3.43 
z
" style="fill:#ffffff;"/>
    </g>
    <!-- $a^{ \; \langle 6 \rangle}$ -->
    <g transform="translate(545.271429 18.796406)scale(0.13 -0.13)">
     <defs>
      <path d="M 25 -2.203125 
Q 18.796875 -2.203125 14.640625 1.09375 
Q 10.5 4.390625 8.21875 9.640625 
Q 5.953125 14.890625 5.078125 20.65625 
Q 4.203125 26.421875 4.203125 32.328125 
Q 4.203125 40.234375 7.28125 48.1875 
Q 10.359375 56.15625 16.328125 61.375 
Q 22.3125 66.609375 30.515625 66.609375 
Q 33.9375 66.609375 36.890625 65.3125 
Q 39.84375 64.015625 41.53125 61.5 
Q 43.21875 58.984375 43.21875 55.421875 
Q 43.21875 53.375 41.828125 51.984375 
Q 40.4375 50.59375 38.375 50.59375 
Q 36.421875 50.59375 35 52 
Q 33.59375 53.421875 33.59375 55.421875 
Q 33.59375 57.375 35 58.78125 
Q 36.421875 60.203125 38.375 60.203125 
L 38.921875 60.203125 
Q 37.640625 62.015625 35.328125 62.859375 
Q 33.015625 63.71875 30.515625 63.71875 
Q 27.484375 63.71875 24.921875 62.390625 
Q 22.359375 61.078125 20.3125 58.828125 
Q 18.265625 56.59375 16.890625 53.875 
Q 15.53125 51.171875 14.765625 47.703125 
Q 14.015625 44.234375 13.8125 41.203125 
Q 13.625 38.1875 13.625 33.59375 
Q 15.375 37.703125 18.59375 40.3125 
Q 21.828125 42.921875 25.875 42.921875 
Q 30.328125 42.921875 33.984375 41.109375 
Q 37.640625 39.3125 40.28125 36.109375 
Q 42.921875 32.90625 44.3125 28.796875 
Q 45.703125 24.703125 45.703125 20.515625 
Q 45.703125 14.65625 43.09375 9.34375 
Q 40.484375 4.046875 35.734375 0.921875 
Q 31 -2.203125 25 -2.203125 
z
M 25 0.984375 
Q 28.859375 0.984375 31.203125 2.734375 
Q 33.546875 4.5 34.640625 7.390625 
Q 35.75 10.296875 36.015625 13.25 
Q 36.28125 16.21875 36.28125 20.515625 
Q 36.28125 26.171875 35.734375 30.171875 
Q 35.203125 34.1875 32.8125 37.234375 
Q 30.421875 40.28125 25.484375 40.28125 
Q 21.4375 40.28125 18.828125 37.546875 
Q 16.21875 34.8125 15.015625 30.640625 
Q 13.8125 26.46875 13.8125 22.609375 
Q 13.8125 21.296875 13.921875 20.609375 
Q 13.921875 20.453125 13.890625 20.359375 
Q 13.875 20.265625 13.8125 20.125 
Q 13.8125 15.828125 14.6875 11.421875 
Q 15.578125 7.03125 18.0625 4 
Q 20.5625 0.984375 25 0.984375 
z
" id="Cmr10-54"/>
     </defs>
     <use transform="translate(0 0.597135)" xlink:href="#Cmmi10-97"/>
     <use transform="translate(76.157476 104.202344)scale(0.7)" xlink:href="#Cmex10-173"/>
     <use transform="translate(109.209234 38.861198)scale(0.7)" xlink:href="#Cmr10-54"/>
     <use transform="translate(144.209234 104.202344)scale(0.7)" xlink:href="#Cmex10-174"/>
    </g>
   </g>
   <g id="patch_43">
    <path d="M 539.372915 14.415 
Q 532.257144 14.415 526.259407 14.415 
" style="fill:none;stroke:#000000;stroke-linecap:round;"/>
    <path d="M 531.459407 17.015 
L 526.259407 14.415 
L 531.459407 11.815 
" style="fill:none;stroke:#000000;stroke-linecap:round;"/>
   </g>
  </g>
 </g>
</svg>
