<?xml version="1.0" encoding="utf-8" standalone="no"?>
<!DOCTYPE svg PUBLIC "-//W3C//DTD SVG 1.1//EN"
  "http://www.w3.org/Graphics/SVG/1.1/DTD/svg11.dtd">
<!-- Created with matplotlib (https://matplotlib.org/) -->
<svg height="231.84pt" version="1.1" viewBox="0 0 369.99413 231.84" width="369.99413pt" xmlns="http://www.w3.org/2000/svg" xmlns:xlink="http://www.w3.org/1999/xlink">
 <metadata>
  <rdf:RDF xmlns:cc="http://creativecommons.org/ns#" xmlns:dc="http://purl.org/dc/elements/1.1/" xmlns:rdf="http://www.w3.org/1999/02/22-rdf-syntax-ns#">
   <cc:Work>
    <dc:type rdf:resource="http://purl.org/dc/dcmitype/StillImage"/>
    <dc:date>2021-06-08T19:18:09.104850</dc:date>
    <dc:format>image/svg+xml</dc:format>
    <dc:creator>
     <cc:Agent>
      <dc:title>Matplotlib v3.3.4, https://matplotlib.org/</dc:title>
     </cc:Agent>
    </dc:creator>
   </cc:Work>
  </rdf:RDF>
 </metadata>
 <defs>
  <style type="text/css">*{stroke-linecap:butt;stroke-linejoin:round;}</style>
 </defs>
 <g id="figure_1">
  <g id="patch_1">
   <path d="M 0 231.84 
L 369.99413 231.84 
L 369.99413 0 
L 0 0 
z
" style="fill:none;"/>
  </g>
  <g id="axes_1">
   <g id="text_1">
    <g id="patch_2">
     <path d="M 44.348961 162.503672 
L 64.543648 162.503672 
L 64.543648 69.336328 
L 44.348961 69.336328 
z
" style="fill:#ffffff;stroke:#000000;stroke-linejoin:miter;"/>
    </g>
    <!--  -->
    <g transform="translate(54.446304 83.114297)scale(0.13 -0.13)"/>
    <!--  -->
    <g transform="translate(54.446304 97.671453)scale(0.13 -0.13)"/>
    <!--  -->
    <g transform="translate(54.446304 112.228609)scale(0.13 -0.13)"/>
    <!--  -->
    <g transform="translate(54.446304 126.785766)scale(0.13 -0.13)"/>
    <!--  -->
    <g transform="translate(54.446304 141.342922)scale(0.13 -0.13)"/>
    <!--     -->
    <g transform="translate(48.248961 155.900078)scale(0.13 -0.13)">
     <defs>
      <path id="DejaVuSans-32"/>
     </defs>
     <use xlink:href="#DejaVuSans-32"/>
     <use x="31.787109" xlink:href="#DejaVuSans-32"/>
     <use x="63.574219" xlink:href="#DejaVuSans-32"/>
    </g>
   </g>
   <g id="text_2">
    <g id="patch_3">
     <path d="M 39.431304 225.741364 
L 69.461304 225.741364 
L 69.461304 203.771364 
L 39.431304 203.771364 
z
" style="fill:#ffffff;"/>
    </g>
    <!-- $x^{\langle 1 \rangle}$ -->
    <g transform="translate(43.331304 219.13777)scale(0.13 -0.13)">
     <defs>
      <path d="M 7.8125 2.875 
Q 9.578125 1.515625 12.796875 1.515625 
Q 15.921875 1.515625 18.3125 4.515625 
Q 20.703125 7.515625 21.578125 11.078125 
L 26.125 28.8125 
Q 27.203125 33.640625 27.203125 35.40625 
Q 27.203125 37.890625 25.8125 39.75 
Q 24.421875 41.609375 21.921875 41.609375 
Q 18.75 41.609375 15.96875 39.625 
Q 13.1875 37.640625 11.28125 34.59375 
Q 9.375 31.546875 8.59375 28.421875 
Q 8.40625 27.78125 7.8125 27.78125 
L 6.59375 27.78125 
Q 5.8125 27.78125 5.8125 28.71875 
L 5.8125 29 
Q 6.78125 32.71875 9.125 36.25 
Q 11.46875 39.796875 14.859375 41.984375 
Q 18.265625 44.1875 22.125 44.1875 
Q 25.78125 44.1875 28.734375 42.234375 
Q 31.6875 40.28125 32.90625 36.921875 
Q 34.625 39.984375 37.28125 42.078125 
Q 39.9375 44.1875 43.109375 44.1875 
Q 45.265625 44.1875 47.5 43.421875 
Q 49.75 42.671875 51.171875 41.109375 
Q 52.59375 39.546875 52.59375 37.203125 
Q 52.59375 34.671875 50.953125 32.828125 
Q 49.3125 31 46.78125 31 
Q 45.171875 31 44.09375 32.03125 
Q 43.015625 33.0625 43.015625 34.625 
Q 43.015625 36.71875 44.453125 38.296875 
Q 45.90625 39.890625 47.90625 40.1875 
Q 46.09375 41.609375 42.921875 41.609375 
Q 39.703125 41.609375 37.328125 38.625 
Q 34.96875 35.640625 33.984375 31.984375 
L 29.59375 14.3125 
Q 28.515625 10.296875 28.515625 7.71875 
Q 28.515625 5.171875 29.953125 3.34375 
Q 31.390625 1.515625 33.796875 1.515625 
Q 38.484375 1.515625 42.15625 5.640625 
Q 45.84375 9.765625 47.015625 14.703125 
Q 47.21875 15.28125 47.796875 15.28125 
L 49.03125 15.28125 
Q 49.421875 15.28125 49.65625 15.015625 
Q 49.90625 14.75 49.90625 14.40625 
Q 49.90625 14.3125 49.8125 14.109375 
Q 48.390625 8.15625 43.84375 3.515625 
Q 39.3125 -1.125 33.59375 -1.125 
Q 29.9375 -1.125 26.984375 0.84375 
Q 24.03125 2.828125 22.796875 6.203125 
Q 21.234375 3.265625 18.46875 1.0625 
Q 15.71875 -1.125 12.59375 -1.125 
Q 10.453125 -1.125 8.171875 -0.359375 
Q 5.90625 0.390625 4.484375 1.953125 
Q 3.078125 3.515625 3.078125 5.90625 
Q 3.078125 8.25 4.703125 10.171875 
Q 6.34375 12.109375 8.796875 12.109375 
Q 10.453125 12.109375 11.578125 11.109375 
Q 12.703125 10.109375 12.703125 8.5 
Q 12.703125 6.390625 11.296875 4.828125 
Q 9.90625 3.265625 7.8125 2.875 
z
" id="Cmmi10-120"/>
      <path d="M 35.5 -114.796875 
L 10.015625 -56.78125 
Q 9.8125 -56.5 9.8125 -56 
Q 9.8125 -55.515625 10.015625 -55.328125 
L 35.5 2.78125 
Q 35.984375 4 37.3125 4 
Q 38.03125 4 38.671875 3.359375 
Q 39.3125 2.734375 39.3125 2 
Q 39.3125 1.515625 39.203125 1.3125 
L 14.015625 -56 
L 39.203125 -113.28125 
Q 39.3125 -113.484375 39.3125 -114.015625 
Q 39.3125 -114.75 38.671875 -115.375 
Q 38.03125 -116.015625 37.3125 -116.015625 
Q 36.03125 -116.015625 35.5 -114.796875 
z
" id="Cmex10-173"/>
      <path d="M 9.28125 0 
L 9.28125 3.515625 
Q 21.78125 3.515625 21.78125 6.6875 
L 21.78125 59.1875 
Q 16.609375 56.6875 8.6875 56.6875 
L 8.6875 60.203125 
Q 20.953125 60.203125 27.203125 66.609375 
L 28.609375 66.609375 
Q 28.953125 66.609375 29.265625 66.328125 
Q 29.59375 66.0625 29.59375 65.71875 
L 29.59375 6.6875 
Q 29.59375 3.515625 42.09375 3.515625 
L 42.09375 0 
z
" id="Cmr10-49"/>
      <path d="M 7.8125 -114.015625 
Q 7.8125 -113.484375 8.015625 -113.28125 
L 33.109375 -56 
L 8.015625 1.3125 
Q 7.8125 1.515625 7.8125 2 
Q 7.8125 2.734375 8.390625 3.359375 
Q 8.984375 4 9.8125 4 
Q 10.984375 4 11.71875 2.78125 
L 37.203125 -55.328125 
Q 37.3125 -55.515625 37.3125 -56 
Q 37.3125 -56.5 37.203125 -56.78125 
L 11.71875 -114.796875 
Q 10.9375 -116.015625 9.8125 -116.015625 
Q 8.984375 -116.015625 8.390625 -115.375 
Q 7.8125 -114.75 7.8125 -114.015625 
z
" id="Cmex10-174"/>
     </defs>
     <use transform="translate(0 0.597135)" xlink:href="#Cmmi10-120"/>
     <use transform="translate(63.383359 104.202344)scale(0.7)" xlink:href="#Cmex10-173"/>
     <use transform="translate(96.435117 38.861198)scale(0.7)" xlink:href="#Cmr10-49"/>
     <use transform="translate(131.435117 104.202344)scale(0.7)" xlink:href="#Cmex10-174"/>
    </g>
   </g>
   <g id="patch_4">
    <path d="M 54.446304 201.768934 
Q 54.446304 183.135669 54.446304 165.620438 
" style="fill:none;stroke:#000000;stroke-linecap:round;"/>
    <path d="M 52.446304 169.620438 
L 54.446304 165.620438 
L 56.446304 169.620438 
" style="fill:none;stroke:#000000;stroke-linecap:round;"/>
   </g>
   <g id="text_3">
    <g id="patch_5">
     <path d="M 80.892609 126.110781 
L 100.782609 126.110781 
L 100.782609 105.729219 
L 80.892609 105.729219 
z
" style="fill:#ffffff;"/>
    </g>
    <!-- $\cdots$ -->
    <g transform="translate(84.792609 119.507187)scale(0.13 -0.13)">
     <defs>
      <path d="M 81.796875 25.296875 
Q 81.796875 22.703125 80.046875 20.796875 
Q 78.296875 18.90625 75.5 18.90625 
Q 72.59375 18.90625 70.84375 20.65625 
Q 69.09375 22.40625 69.09375 25.296875 
Q 69.09375 28 71.046875 29.796875 
Q 73 31.59375 75.5 31.59375 
Q 78 31.59375 79.890625 29.796875 
Q 81.796875 28 81.796875 25.296875 
z
M 52.59375 25.296875 
Q 52.59375 22.703125 50.84375 20.796875 
Q 49.09375 18.90625 46.296875 18.90625 
Q 43.40625 18.90625 41.65625 20.65625 
Q 39.90625 22.40625 39.90625 25.296875 
Q 39.90625 28 41.84375 29.796875 
Q 43.796875 31.59375 46.296875 31.59375 
Q 48.796875 31.59375 50.6875 29.796875 
Q 52.59375 28 52.59375 25.296875 
z
M 23.5 25.296875 
Q 23.5 22.703125 21.75 20.796875 
Q 20 18.90625 17.203125 18.90625 
Q 14.296875 18.90625 12.546875 20.65625 
Q 10.796875 22.40625 10.796875 25.296875 
Q 10.796875 28 12.75 29.796875 
Q 14.703125 31.59375 17.203125 31.59375 
Q 19.703125 31.59375 21.59375 29.796875 
Q 23.5 28 23.5 25.296875 
z
" id="STIXGeneral-Regular-8943"/>
     </defs>
     <use transform="translate(0 0.40625)" xlink:href="#STIXGeneral-Regular-8943"/>
    </g>
   </g>
   <g id="patch_6">
    <path d="M 77.774861 115.92 
Q 72.718445 115.92 66.543995 115.92 
" style="fill:none;stroke:#000000;stroke-linecap:round;"/>
    <path d="M 73.774861 113.92 
L 77.774861 115.92 
L 73.774861 117.92 
" style="fill:none;stroke:#000000;stroke-linecap:round;"/>
   </g>
   <g id="text_4">
    <g id="patch_7">
     <path d="M 117.131569 162.503672 
L 137.326257 162.503672 
L 137.326257 69.336328 
L 117.131569 69.336328 
z
" style="fill:#ffffff;stroke:#000000;stroke-linejoin:miter;"/>
    </g>
    <!--  -->
    <g transform="translate(127.228913 83.114297)scale(0.13 -0.13)"/>
    <!--  -->
    <g transform="translate(127.228913 97.671453)scale(0.13 -0.13)"/>
    <!--  -->
    <g transform="translate(127.228913 112.228609)scale(0.13 -0.13)"/>
    <!--  -->
    <g transform="translate(127.228913 126.785766)scale(0.13 -0.13)"/>
    <!--  -->
    <g transform="translate(127.228913 141.342922)scale(0.13 -0.13)"/>
    <!--     -->
    <g transform="translate(121.031569 155.900078)scale(0.13 -0.13)">
     <use xlink:href="#DejaVuSans-32"/>
     <use x="31.787109" xlink:href="#DejaVuSans-32"/>
     <use x="63.574219" xlink:href="#DejaVuSans-32"/>
    </g>
   </g>
   <g id="patch_8">
    <path d="M 114.013821 115.92 
Q 108.957405 115.92 102.782955 115.92 
" style="fill:none;stroke:#000000;stroke-linecap:round;"/>
    <path d="M 110.013821 113.92 
L 114.013821 115.92 
L 110.013821 117.92 
" style="fill:none;stroke:#000000;stroke-linecap:round;"/>
   </g>
   <g id="text_5">
    <g id="patch_9">
     <path d="M 109.678913 225.741364 
L 144.778913 225.741364 
L 144.778913 203.771364 
L 109.678913 203.771364 
z
" style="fill:#ffffff;"/>
    </g>
    <!-- $x^{\langle T_x \rangle}$ -->
    <g transform="translate(113.578913 219.13777)scale(0.13 -0.13)">
     <defs>
      <path d="M 4.59375 1.3125 
Q 4.640625 1.5625 4.8125 2.1875 
Q 4.984375 2.828125 5.25 3.171875 
Q 5.515625 3.515625 6 3.515625 
Q 14.59375 3.515625 17.390625 4 
Q 20.0625 4.6875 20.609375 6.890625 
L 34.28125 61.8125 
Q 34.71875 63.03125 34.71875 64.015625 
Q 34.71875 64.796875 31.203125 64.796875 
L 25.390625 64.796875 
Q 18.703125 64.796875 15.0625 62.734375 
Q 11.421875 60.6875 9.71875 57.3125 
Q 8.015625 53.953125 5.328125 46.296875 
Q 4.984375 45.40625 4.296875 45.40625 
L 3.421875 45.40625 
Q 2.390625 45.40625 2.390625 46.6875 
L 9.515625 67.390625 
Q 9.71875 68.3125 10.5 68.3125 
L 69.578125 68.3125 
Q 70.609375 68.3125 70.609375 67 
L 67.28125 46.296875 
Q 67.28125 46 66.9375 45.703125 
Q 66.609375 45.40625 66.3125 45.40625 
L 65.375 45.40625 
Q 64.40625 45.40625 64.40625 46.6875 
Q 65.484375 53.765625 65.484375 56.6875 
Q 65.484375 60.203125 64.015625 62 
Q 62.546875 63.8125 60.203125 64.296875 
Q 57.859375 64.796875 54.109375 64.796875 
L 48.1875 64.796875 
Q 45.515625 64.796875 44.578125 64.296875 
Q 43.65625 63.8125 43.015625 61.375 
L 29.296875 6.5 
Q 29.25 6.296875 29.21875 6.09375 
Q 29.203125 5.90625 29.109375 5.609375 
Q 29.109375 4.34375 30.609375 4 
Q 33.203125 3.515625 41.703125 3.515625 
Q 42.671875 3.515625 42.671875 2.203125 
Q 42.328125 0.78125 42.125 0.390625 
Q 41.9375 0 41.015625 0 
L 5.609375 0 
Q 4.59375 0 4.59375 1.3125 
z
" id="Cmmi10-84"/>
     </defs>
     <use transform="translate(0 0.597135)" xlink:href="#Cmmi10-120"/>
     <use transform="translate(63.383359 104.202344)scale(0.7)" xlink:href="#Cmex10-173"/>
     <use transform="translate(96.435117 38.861198)scale(0.7)" xlink:href="#Cmmi10-84"/>
     <use transform="translate(137.314023 26.956823)scale(0.49)" xlink:href="#Cmmi10-120"/>
     <use transform="translate(169.747402 104.202344)scale(0.7)" xlink:href="#Cmex10-174"/>
    </g>
   </g>
   <g id="patch_10">
    <path d="M 127.228913 201.768934 
Q 127.228913 183.135669 127.228913 165.620438 
" style="fill:none;stroke:#000000;stroke-linecap:round;"/>
    <path d="M 125.228913 169.620438 
L 127.228913 165.620438 
L 129.228913 169.620438 
" style="fill:none;stroke:#000000;stroke-linecap:round;"/>
   </g>
   <g id="text_6">
    <g id="patch_11">
     <path d="M 189.914178 162.503672 
L 210.108865 162.503672 
L 210.108865 69.336328 
L 189.914178 69.336328 
z
" style="fill:#ffffff;stroke:#000000;stroke-linejoin:miter;"/>
    </g>
    <!--  -->
    <g transform="translate(200.011522 83.114297)scale(0.13 -0.13)"/>
    <!--  -->
    <g transform="translate(200.011522 97.671453)scale(0.13 -0.13)"/>
    <!--  -->
    <g transform="translate(200.011522 112.228609)scale(0.13 -0.13)"/>
    <!--  -->
    <g transform="translate(200.011522 126.785766)scale(0.13 -0.13)"/>
    <!--  -->
    <g transform="translate(200.011522 141.342922)scale(0.13 -0.13)"/>
    <!--     -->
    <g transform="translate(193.814178 155.900078)scale(0.13 -0.13)">
     <use xlink:href="#DejaVuSans-32"/>
     <use x="31.787109" xlink:href="#DejaVuSans-32"/>
     <use x="63.574219" xlink:href="#DejaVuSans-32"/>
    </g>
   </g>
   <g id="patch_12">
    <path d="M 186.796493 115.92 
Q 163.619251 115.92 139.323975 115.92 
" style="fill:none;stroke:#000000;stroke-linecap:round;"/>
    <path d="M 182.796493 113.92 
L 186.796493 115.92 
L 182.796493 117.92 
" style="fill:none;stroke:#000000;stroke-linecap:round;"/>
   </g>
   <g id="text_7">
    <g id="patch_13">
     <path d="M 185.646522 29.303636 
L 214.376522 29.303636 
L 214.376522 4.863636 
L 185.646522 4.863636 
z
" style="fill:#ffffff;"/>
    </g>
    <!-- $\hat{y}^{\langle 1 \rangle}$ -->
    <g transform="translate(189.546522 22.673636)scale(0.13 -0.13)">
     <defs>
      <path d="M 13.484375 53.8125 
L 11.53125 55.90625 
L 25 69.390625 
L 38.375 55.90625 
L 36.375 53.8125 
L 25 63.8125 
z
" id="Cmr10-94"/>
      <path d="M 8.40625 -14.3125 
Q 10.5 -17.921875 15.71875 -17.921875 
Q 20.453125 -17.921875 23.921875 -14.59375 
Q 27.390625 -11.28125 29.515625 -6.5625 
Q 31.640625 -1.859375 32.8125 3.078125 
Q 28.375 -1.125 23.1875 -1.125 
Q 19.234375 -1.125 16.453125 0.234375 
Q 13.671875 1.609375 12.125 4.3125 
Q 10.59375 7.03125 10.59375 10.890625 
Q 10.59375 14.15625 11.46875 17.59375 
Q 12.359375 21.046875 13.9375 25.265625 
Q 15.53125 29.5 16.703125 32.625 
Q 18.015625 36.28125 18.015625 38.625 
Q 18.015625 41.609375 15.828125 41.609375 
Q 11.859375 41.609375 9.296875 37.53125 
Q 6.734375 33.453125 5.515625 28.421875 
Q 5.328125 27.78125 4.6875 27.78125 
L 3.515625 27.78125 
Q 2.6875 27.78125 2.6875 28.71875 
L 2.6875 29 
Q 4.296875 34.96875 7.609375 39.578125 
Q 10.9375 44.1875 16.015625 44.1875 
Q 19.578125 44.1875 22.046875 41.84375 
Q 24.515625 39.5 24.515625 35.890625 
Q 24.515625 34.03125 23.6875 31.984375 
Q 23.25 30.765625 21.6875 26.65625 
Q 20.125 22.5625 19.28125 19.875 
Q 18.453125 17.1875 17.921875 14.59375 
Q 17.390625 12.015625 17.390625 9.421875 
Q 17.390625 6.109375 18.796875 3.8125 
Q 20.21875 1.515625 23.296875 1.515625 
Q 29.5 1.515625 34.421875 9.078125 
L 42 39.890625 
Q 42.328125 41.21875 43.546875 42.15625 
Q 44.78125 43.109375 46.1875 43.109375 
Q 47.40625 43.109375 48.3125 42.328125 
Q 49.21875 41.546875 49.21875 40.28125 
Q 49.21875 39.703125 49.125 39.5 
L 39.203125 -0.296875 
Q 37.890625 -5.421875 34.375 -10.109375 
Q 30.859375 -14.796875 25.90625 -17.65625 
Q 20.953125 -20.515625 15.578125 -20.515625 
Q 12.984375 -20.515625 10.4375 -19.5 
Q 7.90625 -18.5 6.34375 -16.5 
Q 4.78125 -14.5 4.78125 -11.8125 
Q 4.78125 -9.078125 6.390625 -7.078125 
Q 8.015625 -5.078125 10.6875 -5.078125 
Q 12.3125 -5.078125 13.40625 -6.078125 
Q 14.5 -7.078125 14.5 -8.6875 
Q 14.5 -10.984375 12.78125 -12.6875 
Q 11.078125 -14.40625 8.796875 -14.40625 
Q 8.6875 -14.359375 8.59375 -14.328125 
Q 8.5 -14.3125 8.40625 -14.3125 
z
" id="Cmmi10-121"/>
     </defs>
     <use transform="translate(5.724609 3.472135)" xlink:href="#Cmr10-94"/>
     <use transform="translate(0 0.597135)" xlink:href="#Cmmi10-121"/>
     <use transform="translate(53.487578 104.202344)scale(0.7)" xlink:href="#Cmex10-173"/>
     <use transform="translate(86.539336 38.861198)scale(0.7)" xlink:href="#Cmr10-49"/>
     <use transform="translate(121.539336 104.202344)scale(0.7)" xlink:href="#Cmex10-174"/>
    </g>
   </g>
   <g id="patch_14">
    <path d="M 200.011522 32.420373 
Q 200.011522 49.318806 200.011522 67.335272 
" style="fill:none;stroke:#000000;stroke-linecap:round;"/>
    <path d="M 198.011522 36.420373 
L 200.011522 32.420373 
L 202.011522 36.420373 
" style="fill:none;stroke:#000000;stroke-linecap:round;"/>
   </g>
   <g id="text_8">
    <g id="patch_15">
     <path d="M 226.305482 162.503672 
L 246.50017 162.503672 
L 246.50017 69.336328 
L 226.305482 69.336328 
z
" style="fill:#ffffff;stroke:#000000;stroke-linejoin:miter;"/>
    </g>
    <!--  -->
    <g transform="translate(236.402826 83.114297)scale(0.13 -0.13)"/>
    <!--  -->
    <g transform="translate(236.402826 97.671453)scale(0.13 -0.13)"/>
    <!--  -->
    <g transform="translate(236.402826 112.228609)scale(0.13 -0.13)"/>
    <!--  -->
    <g transform="translate(236.402826 126.785766)scale(0.13 -0.13)"/>
    <!--  -->
    <g transform="translate(236.402826 141.342922)scale(0.13 -0.13)"/>
    <!--     -->
    <g transform="translate(230.205482 155.900078)scale(0.13 -0.13)">
     <use xlink:href="#DejaVuSans-32"/>
     <use x="31.787109" xlink:href="#DejaVuSans-32"/>
     <use x="63.574219" xlink:href="#DejaVuSans-32"/>
    </g>
   </g>
   <g id="patch_16">
    <path d="M 223.190551 115.92 
Q 218.208876 115.92 212.109168 115.92 
" style="fill:none;stroke:#000000;stroke-linecap:round;"/>
    <path d="M 219.190551 113.92 
L 223.190551 115.92 
L 219.190551 117.92 
" style="fill:none;stroke:#000000;stroke-linecap:round;"/>
   </g>
   <g id="text_9">
    <g id="patch_17">
     <path d="M 222.037826 29.303636 
L 250.767826 29.303636 
L 250.767826 4.863636 
L 222.037826 4.863636 
z
" style="fill:#ffffff;"/>
    </g>
    <!-- $\hat{y}^{\langle 2 \rangle}$ -->
    <g transform="translate(225.937826 22.673636)scale(0.13 -0.13)">
     <defs>
      <path d="M 4.984375 0 
L 4.984375 2.6875 
Q 4.984375 2.9375 5.171875 3.21875 
L 20.703125 20.40625 
Q 24.21875 24.21875 26.40625 26.796875 
Q 28.609375 29.390625 30.75 32.765625 
Q 32.90625 36.140625 34.15625 39.625 
Q 35.40625 43.109375 35.40625 47.015625 
Q 35.40625 51.125 33.890625 54.859375 
Q 32.375 58.59375 29.375 60.84375 
Q 26.375 63.09375 22.125 63.09375 
Q 17.78125 63.09375 14.3125 60.46875 
Q 10.84375 57.859375 9.421875 53.71875 
Q 9.8125 53.8125 10.5 53.8125 
Q 12.75 53.8125 14.328125 52.296875 
Q 15.921875 50.78125 15.921875 48.390625 
Q 15.921875 46.09375 14.328125 44.5 
Q 12.75 42.921875 10.5 42.921875 
Q 8.15625 42.921875 6.5625 44.546875 
Q 4.984375 46.1875 4.984375 48.390625 
Q 4.984375 52.15625 6.390625 55.4375 
Q 7.8125 58.734375 10.46875 61.296875 
Q 13.140625 63.875 16.484375 65.234375 
Q 19.828125 66.609375 23.578125 66.609375 
Q 29.296875 66.609375 34.21875 64.1875 
Q 39.15625 61.765625 42.03125 57.34375 
Q 44.921875 52.9375 44.921875 47.015625 
Q 44.921875 42.671875 43.015625 38.765625 
Q 41.109375 34.859375 38.125 31.65625 
Q 35.15625 28.46875 30.515625 24.40625 
Q 25.875 20.359375 24.421875 19 
L 13.09375 8.109375 
L 22.703125 8.109375 
Q 29.78125 8.109375 34.546875 8.21875 
Q 39.3125 8.34375 39.59375 8.59375 
Q 40.765625 9.859375 42 17.828125 
L 44.921875 17.828125 
L 42.09375 0 
z
" id="Cmr10-50"/>
     </defs>
     <use transform="translate(5.724609 3.472135)" xlink:href="#Cmr10-94"/>
     <use transform="translate(0 0.597135)" xlink:href="#Cmmi10-121"/>
     <use transform="translate(53.487578 104.202344)scale(0.7)" xlink:href="#Cmex10-173"/>
     <use transform="translate(86.539336 38.861198)scale(0.7)" xlink:href="#Cmr10-50"/>
     <use transform="translate(121.539336 104.202344)scale(0.7)" xlink:href="#Cmex10-174"/>
    </g>
   </g>
   <g id="patch_18">
    <path d="M 236.402826 32.420373 
Q 236.402826 49.318806 236.402826 67.335272 
" style="fill:none;stroke:#000000;stroke-linecap:round;"/>
    <path d="M 234.402826 36.420373 
L 236.402826 32.420373 
L 238.402826 36.420373 
" style="fill:none;stroke:#000000;stroke-linecap:round;"/>
   </g>
   <g id="patch_19">
    <path d="M 232.601905 172.946618 
L 229.562423 181.297524 
Q 226.142222 190.69445 225.127617 180.746055 
L 210.874204 40.988514 
Q 210.468213 37.007698 208.647832 34.341751 
" style="fill:none;stroke:#808080;stroke-linecap:round;"/>
    <path d="M 229.354439 176.021348 
L 232.601905 172.946618 
L 233.113209 177.389429 
" style="fill:none;stroke:#808080;stroke-linecap:round;"/>
   </g>
   <g id="text_10">
    <g id="patch_20">
     <path d="M 262.696787 162.503672 
L 282.891474 162.503672 
L 282.891474 69.336328 
L 262.696787 69.336328 
z
" style="fill:#ffffff;stroke:#000000;stroke-linejoin:miter;"/>
    </g>
    <!--  -->
    <g transform="translate(272.79413 83.114297)scale(0.13 -0.13)"/>
    <!--  -->
    <g transform="translate(272.79413 97.671453)scale(0.13 -0.13)"/>
    <!--  -->
    <g transform="translate(272.79413 112.228609)scale(0.13 -0.13)"/>
    <!--  -->
    <g transform="translate(272.79413 126.785766)scale(0.13 -0.13)"/>
    <!--  -->
    <g transform="translate(272.79413 141.342922)scale(0.13 -0.13)"/>
    <!--     -->
    <g transform="translate(266.596787 155.900078)scale(0.13 -0.13)">
     <use xlink:href="#DejaVuSans-32"/>
     <use x="31.787109" xlink:href="#DejaVuSans-32"/>
     <use x="63.574219" xlink:href="#DejaVuSans-32"/>
    </g>
   </g>
   <g id="patch_21">
    <path d="M 259.581855 115.92 
Q 254.600181 115.92 248.500472 115.92 
" style="fill:none;stroke:#000000;stroke-linecap:round;"/>
    <path d="M 255.581855 113.92 
L 259.581855 115.92 
L 255.581855 117.92 
" style="fill:none;stroke:#000000;stroke-linecap:round;"/>
   </g>
   <g id="text_11">
    <g id="patch_22">
     <path d="M 258.42913 29.303636 
L 287.15913 29.303636 
L 287.15913 4.863636 
L 258.42913 4.863636 
z
" style="fill:#ffffff;"/>
    </g>
    <!-- $\hat{y}^{\langle 3 \rangle}$ -->
    <g transform="translate(262.32913 22.673636)scale(0.13 -0.13)">
     <defs>
      <path d="M 9.515625 7.71875 
Q 11.859375 4.296875 15.8125 2.640625 
Q 19.78125 0.984375 24.3125 0.984375 
Q 30.125 0.984375 32.5625 5.9375 
Q 35.015625 10.890625 35.015625 17.1875 
Q 35.015625 20.015625 34.5 22.84375 
Q 33.984375 25.6875 32.765625 28.125 
Q 31.546875 30.5625 29.421875 32.03125 
Q 27.296875 33.5 24.21875 33.5 
L 17.578125 33.5 
Q 16.703125 33.5 16.703125 34.421875 
L 16.703125 35.296875 
Q 16.703125 36.078125 17.578125 36.078125 
L 23.09375 36.53125 
Q 26.609375 36.53125 28.921875 39.15625 
Q 31.25 41.796875 32.328125 45.578125 
Q 33.40625 49.359375 33.40625 52.78125 
Q 33.40625 57.5625 31.15625 60.640625 
Q 28.90625 63.71875 24.3125 63.71875 
Q 20.515625 63.71875 17.046875 62.28125 
Q 13.578125 60.84375 11.53125 57.90625 
Q 11.71875 57.953125 11.859375 57.984375 
Q 12.015625 58.015625 12.203125 58.015625 
Q 14.453125 58.015625 15.96875 56.453125 
Q 17.484375 54.890625 17.484375 52.6875 
Q 17.484375 50.53125 15.96875 48.96875 
Q 14.453125 47.40625 12.203125 47.40625 
Q 10.015625 47.40625 8.453125 48.96875 
Q 6.890625 50.53125 6.890625 52.6875 
Q 6.890625 56.984375 9.46875 60.15625 
Q 12.0625 63.328125 16.140625 64.96875 
Q 20.21875 66.609375 24.3125 66.609375 
Q 27.34375 66.609375 30.703125 65.703125 
Q 34.078125 64.796875 36.8125 63.109375 
Q 39.546875 61.421875 41.28125 58.78125 
Q 43.015625 56.15625 43.015625 52.78125 
Q 43.015625 48.578125 41.140625 45.015625 
Q 39.265625 41.453125 35.984375 38.859375 
Q 32.71875 36.28125 28.8125 35.015625 
Q 33.15625 34.1875 37.0625 31.734375 
Q 40.96875 29.296875 43.328125 25.484375 
Q 45.703125 21.6875 45.703125 17.28125 
Q 45.703125 11.765625 42.671875 7.296875 
Q 39.65625 2.828125 34.71875 0.3125 
Q 29.78125 -2.203125 24.3125 -2.203125 
Q 19.625 -2.203125 14.90625 -0.40625 
Q 10.203125 1.375 7.203125 4.9375 
Q 4.203125 8.5 4.203125 13.484375 
Q 4.203125 15.96875 5.859375 17.625 
Q 7.515625 19.28125 10.015625 19.28125 
Q 11.625 19.28125 12.96875 18.53125 
Q 14.3125 17.78125 15.0625 16.40625 
Q 15.828125 15.046875 15.828125 13.484375 
Q 15.828125 11.03125 14.109375 9.375 
Q 12.40625 7.71875 10.015625 7.71875 
z
" id="Cmr10-51"/>
     </defs>
     <use transform="translate(5.724609 3.472135)" xlink:href="#Cmr10-94"/>
     <use transform="translate(0 0.597135)" xlink:href="#Cmmi10-121"/>
     <use transform="translate(53.487578 104.202344)scale(0.7)" xlink:href="#Cmex10-173"/>
     <use transform="translate(86.539336 38.861198)scale(0.7)" xlink:href="#Cmr10-51"/>
     <use transform="translate(121.539336 104.202344)scale(0.7)" xlink:href="#Cmex10-174"/>
    </g>
   </g>
   <g id="patch_23">
    <path d="M 272.79413 32.420373 
Q 272.79413 49.318806 272.79413 67.335272 
" style="fill:none;stroke:#000000;stroke-linecap:round;"/>
    <path d="M 270.79413 36.420373 
L 272.79413 32.420373 
L 274.79413 36.420373 
" style="fill:none;stroke:#000000;stroke-linecap:round;"/>
   </g>
   <g id="patch_24">
    <path d="M 268.993209 172.946618 
L 265.953728 181.297524 
Q 262.533526 190.69445 261.518922 180.746055 
L 247.265508 40.988514 
Q 246.859518 37.007698 245.039136 34.341751 
" style="fill:none;stroke:#808080;stroke-linecap:round;"/>
    <path d="M 265.745743 176.021348 
L 268.993209 172.946618 
L 269.504514 177.389429 
" style="fill:none;stroke:#808080;stroke-linecap:round;"/>
   </g>
   <g id="text_12">
    <g id="patch_25">
     <path d="M 299.240435 126.110781 
L 319.130435 126.110781 
L 319.130435 105.729219 
L 299.240435 105.729219 
z
" style="fill:#ffffff;"/>
    </g>
    <!-- $\cdots$ -->
    <g transform="translate(303.140435 119.507187)scale(0.13 -0.13)">
     <use transform="translate(0 0.40625)" xlink:href="#STIXGeneral-Regular-8943"/>
    </g>
   </g>
   <g id="patch_26">
    <path d="M 296.122687 115.92 
Q 291.066271 115.92 284.891821 115.92 
" style="fill:none;stroke:#000000;stroke-linecap:round;"/>
    <path d="M 292.122687 113.92 
L 296.122687 115.92 
L 292.122687 117.92 
" style="fill:none;stroke:#000000;stroke-linecap:round;"/>
   </g>
   <g id="text_13">
    <g id="patch_27">
     <path d="M 335.479395 162.503672 
L 355.674083 162.503672 
L 355.674083 69.336328 
L 335.479395 69.336328 
z
" style="fill:#ffffff;stroke:#000000;stroke-linejoin:miter;"/>
    </g>
    <!--  -->
    <g transform="translate(345.576739 83.114297)scale(0.13 -0.13)"/>
    <!--  -->
    <g transform="translate(345.576739 97.671453)scale(0.13 -0.13)"/>
    <!--  -->
    <g transform="translate(345.576739 112.228609)scale(0.13 -0.13)"/>
    <!--  -->
    <g transform="translate(345.576739 126.785766)scale(0.13 -0.13)"/>
    <!--  -->
    <g transform="translate(345.576739 141.342922)scale(0.13 -0.13)"/>
    <!--     -->
    <g transform="translate(339.379395 155.900078)scale(0.13 -0.13)">
     <use xlink:href="#DejaVuSans-32"/>
     <use x="31.787109" xlink:href="#DejaVuSans-32"/>
     <use x="63.574219" xlink:href="#DejaVuSans-32"/>
    </g>
   </g>
   <g id="patch_28">
    <path d="M 332.361647 115.92 
Q 327.305231 115.92 321.130781 115.92 
" style="fill:none;stroke:#000000;stroke-linecap:round;"/>
    <path d="M 328.361647 113.92 
L 332.361647 115.92 
L 328.361647 117.92 
" style="fill:none;stroke:#000000;stroke-linecap:round;"/>
   </g>
   <g id="text_14">
    <g id="patch_29">
     <path d="M 328.936739 29.303636 
L 362.216739 29.303636 
L 362.216739 4.863636 
L 328.936739 4.863636 
z
" style="fill:#ffffff;"/>
    </g>
    <!-- $\hat{y}^{\langle T_y \rangle}$ -->
    <g transform="translate(332.836739 22.673636)scale(0.13 -0.13)">
     <use transform="translate(5.724609 3.472135)" xlink:href="#Cmr10-94"/>
     <use transform="translate(0 0.597135)" xlink:href="#Cmmi10-121"/>
     <use transform="translate(53.487578 104.202344)scale(0.7)" xlink:href="#Cmex10-173"/>
     <use transform="translate(86.539336 38.861198)scale(0.7)" xlink:href="#Cmmi10-84"/>
     <use transform="translate(127.418242 26.956823)scale(0.49)" xlink:href="#Cmmi10-121"/>
     <use transform="translate(155.903867 104.202344)scale(0.7)" xlink:href="#Cmex10-174"/>
    </g>
   </g>
   <g id="patch_30">
    <path d="M 345.576739 32.420373 
Q 345.576739 49.318806 345.576739 67.335272 
" style="fill:none;stroke:#000000;stroke-linecap:round;"/>
    <path d="M 343.576739 36.420373 
L 345.576739 32.420373 
L 347.576739 36.420373 
" style="fill:none;stroke:#000000;stroke-linecap:round;"/>
   </g>
   <g id="patch_31">
    <path d="M 341.775818 172.946618 
L 338.736336 181.297524 
Q 335.316135 190.69445 332.808114 181.014067 
L 321.541533 137.527647 
Q 320.470603 133.394104 318.061356 130.708978 
" style="fill:none;stroke:#808080;stroke-dasharray:3.7,1.6;stroke-dashoffset:0;stroke-linecap:round;"/>
    <path d="M 338.528352 176.021348 
L 341.775818 172.946618 
L 342.287122 177.389429 
" style="fill:none;stroke:#808080;stroke-dasharray:3.7,1.6;stroke-dashoffset:0;stroke-linecap:round;"/>
   </g>
   <g id="text_15">
    <g id="patch_32">
     <path d="M 3.3 126.905 
L 32.81 126.905 
L 32.81 104.935 
L 3.3 104.935 
z
" style="fill:#ffffff;"/>
    </g>
    <!-- $a^{\langle 0 \rangle}$ -->
    <g transform="translate(7.2 120.301406)scale(0.13 -0.13)">
     <defs>
      <path d="M 17.390625 -1.125 
Q 11.078125 -1.125 7.4375 3.640625 
Q 3.8125 8.40625 3.8125 14.890625 
Q 3.8125 21.296875 7.125 28.171875 
Q 10.453125 35.0625 16.09375 39.625 
Q 21.734375 44.1875 28.21875 44.1875 
Q 31.203125 44.1875 33.546875 42.578125 
Q 35.890625 40.96875 37.203125 38.1875 
Q 38.328125 42.1875 41.609375 42.1875 
Q 42.875 42.1875 43.71875 41.421875 
Q 44.578125 40.671875 44.578125 39.40625 
Q 44.578125 39.109375 44.546875 38.953125 
Q 44.53125 38.8125 44.484375 38.625 
L 37.5 10.6875 
Q 36.8125 7.71875 36.8125 5.8125 
Q 36.8125 1.515625 39.703125 1.515625 
Q 42.828125 1.515625 44.453125 5.484375 
Q 46.09375 9.46875 47.21875 14.703125 
Q 47.40625 15.28125 48 15.28125 
L 49.21875 15.28125 
Q 49.609375 15.28125 49.84375 14.9375 
Q 50.09375 14.59375 50.09375 14.3125 
Q 48.34375 7.328125 46.265625 3.09375 
Q 44.1875 -1.125 39.5 -1.125 
Q 36.140625 -1.125 33.546875 0.84375 
Q 30.953125 2.828125 30.328125 6.109375 
Q 23.875 -1.125 17.390625 -1.125 
z
M 17.484375 1.515625 
Q 21.09375 1.515625 24.484375 4.21875 
Q 27.875 6.9375 30.328125 10.59375 
Q 30.421875 10.6875 30.421875 10.890625 
L 35.796875 32.625 
L 35.890625 32.90625 
Q 35.296875 36.46875 33.3125 39.03125 
Q 31.34375 41.609375 27.984375 41.609375 
Q 24.609375 41.609375 21.703125 38.84375 
Q 18.796875 36.078125 16.796875 32.328125 
Q 14.84375 28.328125 13.0625 21.34375 
Q 11.28125 14.359375 11.28125 10.5 
Q 11.28125 7.03125 12.765625 4.265625 
Q 14.265625 1.515625 17.484375 1.515625 
z
" id="Cmmi10-97"/>
      <path d="M 25 -2.203125 
Q 12.75 -2.203125 8.328125 7.875 
Q 3.90625 17.96875 3.90625 31.890625 
Q 3.90625 40.578125 5.484375 48.234375 
Q 7.078125 55.90625 11.78125 61.25 
Q 16.5 66.609375 25 66.609375 
Q 31.59375 66.609375 35.78125 63.375 
Q 39.984375 60.15625 42.1875 55.046875 
Q 44.390625 49.953125 45.1875 44.109375 
Q 46 38.28125 46 31.890625 
Q 46 23.296875 44.40625 15.796875 
Q 42.828125 8.296875 38.1875 3.046875 
Q 33.546875 -2.203125 25 -2.203125 
z
M 25 0.390625 
Q 30.5625 0.390625 33.296875 6.09375 
Q 36.03125 11.8125 36.671875 18.75 
Q 37.3125 25.6875 37.3125 33.5 
Q 37.3125 41.015625 36.671875 47.359375 
Q 36.03125 53.71875 33.3125 58.859375 
Q 30.609375 64.015625 25 64.015625 
Q 19.34375 64.015625 16.609375 58.828125 
Q 13.875 53.65625 13.234375 47.328125 
Q 12.59375 41.015625 12.59375 33.5 
Q 12.59375 27.9375 12.859375 23 
Q 13.140625 18.0625 14.3125 12.8125 
Q 15.484375 7.5625 18.09375 3.96875 
Q 20.703125 0.390625 25 0.390625 
z
" id="Cmr10-48"/>
     </defs>
     <use transform="translate(0 0.597135)" xlink:href="#Cmmi10-97"/>
     <use transform="translate(59.086484 104.202344)scale(0.7)" xlink:href="#Cmex10-173"/>
     <use transform="translate(92.138242 38.861198)scale(0.7)" xlink:href="#Cmr10-48"/>
     <use transform="translate(127.138242 104.202344)scale(0.7)" xlink:href="#Cmex10-174"/>
    </g>
   </g>
   <g id="patch_33">
    <path d="M 34.807344 115.92 
Q 38.578799 115.92 41.232219 115.92 
" style="fill:none;stroke:#000000;stroke-linecap:round;"/>
    <path d="M 37.232219 113.92 
L 41.232219 115.92 
L 37.232219 117.92 
" style="fill:none;stroke:#000000;stroke-linecap:round;"/>
   </g>
   <g id="patch_34">
    <path d="M 90.837609 54.739591 
Q 90.837609 54.757452 90.837609 54.775312 
M 40.837609 57.775312 
L 40.837609 54.775312 
L 140.837609 54.775312 
L 140.837609 57.775312 
" style="fill:none;stroke:#ff0000;stroke-linecap:round;"/>
   </g>
   <g id="text_16">
    <!-- encoder -->
    <g transform="translate(70.477452 48.660844)scale(0.1 -0.1)">
     <defs>
      <path d="M 56.203125 29.59375 
L 56.203125 25.203125 
L 14.890625 25.203125 
Q 15.484375 15.921875 20.484375 11.0625 
Q 25.484375 6.203125 34.421875 6.203125 
Q 39.59375 6.203125 44.453125 7.46875 
Q 49.3125 8.734375 54.109375 11.28125 
L 54.109375 2.78125 
Q 49.265625 0.734375 44.1875 -0.34375 
Q 39.109375 -1.421875 33.890625 -1.421875 
Q 20.796875 -1.421875 13.15625 6.1875 
Q 5.515625 13.8125 5.515625 26.8125 
Q 5.515625 40.234375 12.765625 48.109375 
Q 20.015625 56 32.328125 56 
Q 43.359375 56 49.78125 48.890625 
Q 56.203125 41.796875 56.203125 29.59375 
z
M 47.21875 32.234375 
Q 47.125 39.59375 43.09375 43.984375 
Q 39.0625 48.390625 32.421875 48.390625 
Q 24.90625 48.390625 20.390625 44.140625 
Q 15.875 39.890625 15.1875 32.171875 
z
" id="DejaVuSans-101"/>
      <path d="M 54.890625 33.015625 
L 54.890625 0 
L 45.90625 0 
L 45.90625 32.71875 
Q 45.90625 40.484375 42.875 44.328125 
Q 39.84375 48.1875 33.796875 48.1875 
Q 26.515625 48.1875 22.3125 43.546875 
Q 18.109375 38.921875 18.109375 30.90625 
L 18.109375 0 
L 9.078125 0 
L 9.078125 54.6875 
L 18.109375 54.6875 
L 18.109375 46.1875 
Q 21.34375 51.125 25.703125 53.5625 
Q 30.078125 56 35.796875 56 
Q 45.21875 56 50.046875 50.171875 
Q 54.890625 44.34375 54.890625 33.015625 
z
" id="DejaVuSans-110"/>
      <path d="M 48.78125 52.59375 
L 48.78125 44.1875 
Q 44.96875 46.296875 41.140625 47.34375 
Q 37.3125 48.390625 33.40625 48.390625 
Q 24.65625 48.390625 19.8125 42.84375 
Q 14.984375 37.3125 14.984375 27.296875 
Q 14.984375 17.28125 19.8125 11.734375 
Q 24.65625 6.203125 33.40625 6.203125 
Q 37.3125 6.203125 41.140625 7.25 
Q 44.96875 8.296875 48.78125 10.40625 
L 48.78125 2.09375 
Q 45.015625 0.34375 40.984375 -0.53125 
Q 36.96875 -1.421875 32.421875 -1.421875 
Q 20.0625 -1.421875 12.78125 6.34375 
Q 5.515625 14.109375 5.515625 27.296875 
Q 5.515625 40.671875 12.859375 48.328125 
Q 20.21875 56 33.015625 56 
Q 37.15625 56 41.109375 55.140625 
Q 45.0625 54.296875 48.78125 52.59375 
z
" id="DejaVuSans-99"/>
      <path d="M 30.609375 48.390625 
Q 23.390625 48.390625 19.1875 42.75 
Q 14.984375 37.109375 14.984375 27.296875 
Q 14.984375 17.484375 19.15625 11.84375 
Q 23.34375 6.203125 30.609375 6.203125 
Q 37.796875 6.203125 41.984375 11.859375 
Q 46.1875 17.53125 46.1875 27.296875 
Q 46.1875 37.015625 41.984375 42.703125 
Q 37.796875 48.390625 30.609375 48.390625 
z
M 30.609375 56 
Q 42.328125 56 49.015625 48.375 
Q 55.71875 40.765625 55.71875 27.296875 
Q 55.71875 13.875 49.015625 6.21875 
Q 42.328125 -1.421875 30.609375 -1.421875 
Q 18.84375 -1.421875 12.171875 6.21875 
Q 5.515625 13.875 5.515625 27.296875 
Q 5.515625 40.765625 12.171875 48.375 
Q 18.84375 56 30.609375 56 
z
" id="DejaVuSans-111"/>
      <path d="M 45.40625 46.390625 
L 45.40625 75.984375 
L 54.390625 75.984375 
L 54.390625 0 
L 45.40625 0 
L 45.40625 8.203125 
Q 42.578125 3.328125 38.25 0.953125 
Q 33.9375 -1.421875 27.875 -1.421875 
Q 17.96875 -1.421875 11.734375 6.484375 
Q 5.515625 14.40625 5.515625 27.296875 
Q 5.515625 40.1875 11.734375 48.09375 
Q 17.96875 56 27.875 56 
Q 33.9375 56 38.25 53.625 
Q 42.578125 51.265625 45.40625 46.390625 
z
M 14.796875 27.296875 
Q 14.796875 17.390625 18.875 11.75 
Q 22.953125 6.109375 30.078125 6.109375 
Q 37.203125 6.109375 41.296875 11.75 
Q 45.40625 17.390625 45.40625 27.296875 
Q 45.40625 37.203125 41.296875 42.84375 
Q 37.203125 48.484375 30.078125 48.484375 
Q 22.953125 48.484375 18.875 42.84375 
Q 14.796875 37.203125 14.796875 27.296875 
z
" id="DejaVuSans-100"/>
      <path d="M 41.109375 46.296875 
Q 39.59375 47.171875 37.8125 47.578125 
Q 36.03125 48 33.890625 48 
Q 26.265625 48 22.1875 43.046875 
Q 18.109375 38.09375 18.109375 28.8125 
L 18.109375 0 
L 9.078125 0 
L 9.078125 54.6875 
L 18.109375 54.6875 
L 18.109375 46.1875 
Q 20.953125 51.171875 25.484375 53.578125 
Q 30.03125 56 36.53125 56 
Q 37.453125 56 38.578125 55.875 
Q 39.703125 55.765625 41.0625 55.515625 
z
" id="DejaVuSans-114"/>
     </defs>
     <use xlink:href="#DejaVuSans-101"/>
     <use x="61.523438" xlink:href="#DejaVuSans-110"/>
     <use x="124.902344" xlink:href="#DejaVuSans-99"/>
     <use x="179.882812" xlink:href="#DejaVuSans-111"/>
     <use x="241.064453" xlink:href="#DejaVuSans-100"/>
     <use x="304.541016" xlink:href="#DejaVuSans-101"/>
     <use x="366.064453" xlink:href="#DejaVuSans-114"/>
    </g>
   </g>
   <g id="patch_35">
    <path d="M 272.79413 200.564584 
Q 272.79413 200.167597 272.79413 199.770609 
M 362.79413 196.770609 
L 362.79413 199.770609 
L 182.79413 199.770609 
L 182.79413 196.770609 
" style="fill:none;stroke:#ff0000;stroke-linecap:round;"/>
   </g>
   <g id="text_17">
    <!-- decoder -->
    <g transform="translate(252.428505 210.164067)scale(0.1 -0.1)">
     <use xlink:href="#DejaVuSans-100"/>
     <use x="63.476562" xlink:href="#DejaVuSans-101"/>
     <use x="125" xlink:href="#DejaVuSans-99"/>
     <use x="179.980469" xlink:href="#DejaVuSans-111"/>
     <use x="241.162109" xlink:href="#DejaVuSans-100"/>
     <use x="304.638672" xlink:href="#DejaVuSans-101"/>
     <use x="366.162109" xlink:href="#DejaVuSans-114"/>
    </g>
   </g>
  </g>
 </g>
</svg>
