<?xml version="1.0" encoding="utf-8" standalone="no"?>
<!DOCTYPE svg PUBLIC "-//W3C//DTD SVG 1.1//EN"
  "http://www.w3.org/Graphics/SVG/1.1/DTD/svg11.dtd">
<svg height="246.958125pt" version="1.1" viewBox="0 0 697.678125 246.958125" width="697.678125pt" xmlns="http://www.w3.org/2000/svg" xmlns:xlink="http://www.w3.org/1999/xlink">
 <metadata>
  <rdf:RDF xmlns:cc="http://creativecommons.org/ns#" xmlns:dc="http://purl.org/dc/elements/1.1/" xmlns:rdf="http://www.w3.org/1999/02/22-rdf-syntax-ns#">
   <cc:Work>
    <dc:type rdf:resource="http://purl.org/dc/dcmitype/StillImage"/>
    <dc:date>2021-09-27T21:28:50.698542</dc:date>
    <dc:format>image/svg+xml</dc:format>
    <dc:creator>
     <cc:Agent>
      <dc:title>Matplotlib v3.4.3, https://matplotlib.org/</dc:title>
     </cc:Agent>
    </dc:creator>
   </cc:Work>
  </rdf:RDF>
 </metadata>
 <defs>
  <style type="text/css">*{stroke-linecap:butt;stroke-linejoin:round;}</style>
 </defs>
 <g id="figure_1">
  <g id="patch_1">
   <path d="M 0 246.958125 
L 697.678125 246.958125 
L 697.678125 -0 
L 0 -0 
z
" style="fill:none;"/>
  </g>
  <g id="axes_1">
   <g id="patch_2">
    <path d="M 20.878125 226.08 
L 217.819301 226.08 
L 217.819301 63 
L 20.878125 63 
z
" style="fill:#ffffff;"/>
   </g>
   <g id="matplotlib.axis_1">
    <g id="text_1">
     <!-- $x_1$ -->
     <g transform="translate(114.398713 237.678438)scale(0.1 -0.1)">
      <defs>
       <path d="M 500 184 
Q 613 97 819 97 
Q 1019 97 1172 289 
Q 1325 481 1381 709 
L 1672 1844 
Q 1741 2153 1741 2266 
Q 1741 2425 1652 2544 
Q 1563 2663 1403 2663 
Q 1200 2663 1022 2536 
Q 844 2409 722 2214 
Q 600 2019 550 1819 
Q 538 1778 500 1778 
L 422 1778 
Q 372 1778 372 1838 
L 372 1856 
Q 434 2094 584 2320 
Q 734 2547 951 2687 
Q 1169 2828 1416 2828 
Q 1650 2828 1839 2703 
Q 2028 2578 2106 2363 
Q 2216 2559 2386 2693 
Q 2556 2828 2759 2828 
Q 2897 2828 3040 2779 
Q 3184 2731 3275 2631 
Q 3366 2531 3366 2381 
Q 3366 2219 3261 2101 
Q 3156 1984 2994 1984 
Q 2891 1984 2822 2050 
Q 2753 2116 2753 2216 
Q 2753 2350 2845 2451 
Q 2938 2553 3066 2572 
Q 2950 2663 2747 2663 
Q 2541 2663 2389 2472 
Q 2238 2281 2175 2047 
L 1894 916 
Q 1825 659 1825 494 
Q 1825 331 1917 214 
Q 2009 97 2163 97 
Q 2463 97 2698 361 
Q 2934 625 3009 941 
Q 3022 978 3059 978 
L 3138 978 
Q 3163 978 3178 961 
Q 3194 944 3194 922 
Q 3194 916 3188 903 
Q 3097 522 2806 225 
Q 2516 -72 2150 -72 
Q 1916 -72 1727 54 
Q 1538 181 1459 397 
Q 1359 209 1182 68 
Q 1006 -72 806 -72 
Q 669 -72 523 -23 
Q 378 25 287 125 
Q 197 225 197 378 
Q 197 528 301 651 
Q 406 775 563 775 
Q 669 775 741 711 
Q 813 647 813 544 
Q 813 409 723 309 
Q 634 209 500 184 
z
" id="Cmmi10-78" transform="scale(0.015625)"/>
       <path d="M 594 0 
L 594 225 
Q 1394 225 1394 428 
L 1394 3788 
Q 1063 3628 556 3628 
L 556 3853 
Q 1341 3853 1741 4263 
L 1831 4263 
Q 1853 4263 1873 4245 
Q 1894 4228 1894 4206 
L 1894 428 
Q 1894 225 2694 225 
L 2694 0 
L 594 0 
z
" id="Cmr10-31" transform="scale(0.015625)"/>
      </defs>
      <use transform="translate(0 0.8125)" xlink:href="#Cmmi10-78"/>
      <use transform="translate(57.080078 -16.19375)scale(0.7)" xlink:href="#Cmr10-31"/>
     </g>
    </g>
   </g>
   <g id="matplotlib.axis_2">
    <g id="text_2">
     <!-- $x_2$ -->
     <g transform="translate(14.798438 149.49)rotate(-90)scale(0.1 -0.1)">
      <defs>
       <path d="M 319 0 
L 319 172 
Q 319 188 331 206 
L 1325 1306 
Q 1550 1550 1690 1715 
Q 1831 1881 1968 2097 
Q 2106 2313 2186 2536 
Q 2266 2759 2266 3009 
Q 2266 3272 2169 3511 
Q 2072 3750 1880 3894 
Q 1688 4038 1416 4038 
Q 1138 4038 916 3870 
Q 694 3703 603 3438 
Q 628 3444 672 3444 
Q 816 3444 917 3347 
Q 1019 3250 1019 3097 
Q 1019 2950 917 2848 
Q 816 2747 672 2747 
Q 522 2747 420 2851 
Q 319 2956 319 3097 
Q 319 3338 409 3548 
Q 500 3759 670 3923 
Q 841 4088 1055 4175 
Q 1269 4263 1509 4263 
Q 1875 4263 2190 4108 
Q 2506 3953 2690 3670 
Q 2875 3388 2875 3009 
Q 2875 2731 2753 2481 
Q 2631 2231 2440 2026 
Q 2250 1822 1953 1562 
Q 1656 1303 1563 1216 
L 838 519 
L 1453 519 
Q 1906 519 2211 526 
Q 2516 534 2534 550 
Q 2609 631 2688 1141 
L 2875 1141 
L 2694 0 
L 319 0 
z
" id="Cmr10-32" transform="scale(0.015625)"/>
      </defs>
      <use transform="translate(0 0.8125)" xlink:href="#Cmmi10-78"/>
      <use transform="translate(57.080078 -16.19375)scale(0.7)" xlink:href="#Cmr10-32"/>
     </g>
    </g>
   </g>
   <g id="line2d_1">
    <defs>
     <path d="M 0 -3 
L -3 3 
L 3 3 
z
" id="m1b00bac8d4" style="stroke:#ff7f0e;stroke-linejoin:miter;"/>
    </defs>
    <g clip-path="url(#p17cfcf8f65)">
     <use style="fill:#ff7f0e;stroke:#ff7f0e;stroke-linejoin:miter;" x="50.23905" xlink:href="#m1b00bac8d4" y="101.693852"/>
     <use style="fill:#ff7f0e;stroke:#ff7f0e;stroke-linejoin:miter;" x="29.829997" xlink:href="#m1b00bac8d4" y="77.981977"/>
     <use style="fill:#ff7f0e;stroke:#ff7f0e;stroke-linejoin:miter;" x="79.313385" xlink:href="#m1b00bac8d4" y="70.412727"/>
    </g>
   </g>
   <g id="line2d_2">
    <defs>
     <path d="M 0 3 
C 0.795609 3 1.55874 2.683901 2.12132 2.12132 
C 2.683901 1.55874 3 0.795609 3 0 
C 3 -0.795609 2.683901 -1.55874 2.12132 -2.12132 
C 1.55874 -2.683901 0.795609 -3 0 -3 
C -0.795609 -3 -1.55874 -2.683901 -2.12132 -2.12132 
C -2.683901 -1.55874 -3 -0.795609 -3 0 
C -3 0.795609 -2.683901 1.55874 -2.12132 2.12132 
C -1.55874 2.683901 -0.795609 3 0 3 
z
" id="m0f5592daa7" style="stroke:#1f77b4;"/>
    </defs>
    <g clip-path="url(#p17cfcf8f65)">
     <use style="fill:#ffffff;stroke:#1f77b4;" x="126.766033" xlink:href="#m0f5592daa7" y="197.23749"/>
     <use style="fill:#ffffff;stroke:#1f77b4;" x="118.470042" xlink:href="#m0f5592daa7" y="218.667273"/>
     <use style="fill:#ffffff;stroke:#1f77b4;" x="80.185945" xlink:href="#m0f5592daa7" y="200.514327"/>
     <use style="fill:#ffffff;stroke:#1f77b4;" x="130.915944" xlink:href="#m0f5592daa7" y="210.050322"/>
     <use style="fill:#ffffff;stroke:#1f77b4;" x="158.808885" xlink:href="#m0f5592daa7" y="133.548848"/>
     <use style="fill:#ffffff;stroke:#1f77b4;" x="194.607872" xlink:href="#m0f5592daa7" y="164.570437"/>
     <use style="fill:#ffffff;stroke:#1f77b4;" x="208.86743" xlink:href="#m0f5592daa7" y="189.139425"/>
     <use style="fill:#ffffff;stroke:#1f77b4;" x="183.582691" xlink:href="#m0f5592daa7" y="141.062606"/>
     <use style="fill:#ffffff;stroke:#1f77b4;" x="184.316178" xlink:href="#m0f5592daa7" y="185.86193"/>
    </g>
   </g>
   <g id="line2d_3">
    <path clip-path="url(#p17cfcf8f65)" d="M 20.878125 209.348749 
L 153.819687 63 
" style="fill:none;stroke:#e377c2;stroke-linecap:square;stroke-width:1.5;"/>
   </g>
   <g id="patch_3">
    <path d="M 20.878125 226.08 
L 20.878125 63 
" style="fill:none;stroke:#000000;stroke-linecap:square;stroke-linejoin:miter;stroke-width:0.8;"/>
   </g>
   <g id="patch_4">
    <path d="M 217.819301 226.08 
L 217.819301 63 
" style="fill:none;stroke:#000000;stroke-linecap:square;stroke-linejoin:miter;stroke-width:0.8;"/>
   </g>
   <g id="patch_5">
    <path d="M 20.878125 226.08 
L 217.819301 226.08 
" style="fill:none;stroke:#000000;stroke-linecap:square;stroke-linejoin:miter;stroke-width:0.8;"/>
   </g>
   <g id="patch_6">
    <path d="M 20.878125 63 
L 217.819301 63 
" style="fill:none;stroke:#000000;stroke-linecap:square;stroke-linejoin:miter;stroke-width:0.8;"/>
   </g>
   <g id="legend_1">
    <g id="patch_7">
     <path d="M 27.878125 58 
L 148.878125 58 
Q 150.878125 58 150.878125 56 
L 150.878125 9.2 
Q 150.878125 7.2 148.878125 7.2 
L 27.878125 7.2 
Q 25.878125 7.2 25.878125 9.2 
L 25.878125 56 
Q 25.878125 58 27.878125 58 
z
" style="fill:#ffffff;opacity:0.8;stroke:#cccccc;stroke-linejoin:miter;"/>
    </g>
    <g id="line2d_4"/>
    <g id="line2d_5">
     <g>
      <use style="fill:#ff7f0e;stroke:#ff7f0e;stroke-linejoin:miter;" x="39.878125" xlink:href="#m1b00bac8d4" y="15.3"/>
     </g>
    </g>
    <g id="text_3">
     <!-- $y=1\;\to\;$Class $T$ -->
     <g transform="translate(57.878125 18.8)scale(0.1 -0.1)">
      <defs>
       <path d="M 538 -916 
Q 672 -1147 1006 -1147 
Q 1309 -1147 1531 -934 
Q 1753 -722 1889 -420 
Q 2025 -119 2100 197 
Q 1816 -72 1484 -72 
Q 1231 -72 1053 15 
Q 875 103 776 276 
Q 678 450 678 697 
Q 678 906 734 1126 
Q 791 1347 892 1617 
Q 994 1888 1069 2088 
Q 1153 2322 1153 2472 
Q 1153 2663 1013 2663 
Q 759 2663 595 2402 
Q 431 2141 353 1819 
Q 341 1778 300 1778 
L 225 1778 
Q 172 1778 172 1838 
L 172 1856 
Q 275 2238 487 2533 
Q 700 2828 1025 2828 
Q 1253 2828 1411 2678 
Q 1569 2528 1569 2297 
Q 1569 2178 1516 2047 
Q 1488 1969 1388 1706 
Q 1288 1444 1234 1272 
Q 1181 1100 1147 934 
Q 1113 769 1113 603 
Q 1113 391 1203 244 
Q 1294 97 1491 97 
Q 1888 97 2203 581 
L 2688 2553 
Q 2709 2638 2787 2698 
Q 2866 2759 2956 2759 
Q 3034 2759 3092 2709 
Q 3150 2659 3150 2578 
Q 3150 2541 3144 2528 
L 2509 -19 
Q 2425 -347 2200 -647 
Q 1975 -947 1658 -1130 
Q 1341 -1313 997 -1313 
Q 831 -1313 668 -1248 
Q 506 -1184 406 -1056 
Q 306 -928 306 -756 
Q 306 -581 409 -453 
Q 513 -325 684 -325 
Q 788 -325 858 -389 
Q 928 -453 928 -556 
Q 928 -703 818 -812 
Q 709 -922 563 -922 
Q 556 -919 550 -917 
Q 544 -916 538 -916 
z
" id="Cmmi10-79" transform="scale(0.015625)"/>
       <path d="M 481 850 
Q 428 850 393 890 
Q 359 931 359 978 
Q 359 1031 393 1068 
Q 428 1106 481 1106 
L 4500 1106 
Q 4547 1106 4581 1068 
Q 4616 1031 4616 978 
Q 4616 931 4581 890 
Q 4547 850 4500 850 
L 481 850 
z
M 481 2094 
Q 428 2094 393 2131 
Q 359 2169 359 2222 
Q 359 2269 393 2309 
Q 428 2350 481 2350 
L 4500 2350 
Q 4547 2350 4581 2309 
Q 4616 2269 4616 2222 
Q 4616 2169 4581 2131 
Q 4547 2094 4500 2094 
L 481 2094 
z
" id="Cmr10-3d" transform="scale(0.015625)"/>
       <path d="M 481 1472 
Q 428 1472 393 1512 
Q 359 1553 359 1600 
Q 359 1647 393 1687 
Q 428 1728 481 1728 
L 5338 1728 
Q 5094 1903 4906 2133 
Q 4719 2363 4594 2627 
Q 4469 2891 4416 3188 
Q 4416 3272 4481 3272 
L 4609 3272 
Q 4631 3272 4648 3253 
Q 4666 3234 4672 3213 
Q 4725 2938 4839 2702 
Q 4953 2466 5125 2262 
Q 5297 2059 5509 1912 
Q 5722 1766 5991 1672 
Q 6034 1644 6034 1600 
Q 6034 1550 5991 1538 
Q 5656 1422 5378 1192 
Q 5100 963 4919 652 
Q 4738 341 4672 -13 
Q 4666 -34 4647 -53 
Q 4628 -72 4609 -72 
L 4481 -72 
Q 4416 -72 4416 13 
Q 4497 450 4740 836 
Q 4984 1222 5338 1472 
L 481 1472 
z
" id="Cmsy10-21" transform="scale(0.015625)"/>
       <path d="M 4122 4306 
L 4122 3641 
Q 3803 3938 3442 4084 
Q 3081 4231 2675 4231 
Q 1875 4231 1450 3742 
Q 1025 3253 1025 2328 
Q 1025 1406 1450 917 
Q 1875 428 2675 428 
Q 3081 428 3442 575 
Q 3803 722 4122 1019 
L 4122 359 
Q 3791 134 3420 21 
Q 3050 -91 2638 -91 
Q 1578 -91 968 557 
Q 359 1206 359 2328 
Q 359 3453 968 4101 
Q 1578 4750 2638 4750 
Q 3056 4750 3426 4639 
Q 3797 4528 4122 4306 
z
" id="DejaVuSans-43" transform="scale(0.015625)"/>
       <path d="M 603 4863 
L 1178 4863 
L 1178 0 
L 603 0 
L 603 4863 
z
" id="DejaVuSans-6c" transform="scale(0.015625)"/>
       <path d="M 2194 1759 
Q 1497 1759 1228 1600 
Q 959 1441 959 1056 
Q 959 750 1161 570 
Q 1363 391 1709 391 
Q 2188 391 2477 730 
Q 2766 1069 2766 1631 
L 2766 1759 
L 2194 1759 
z
M 3341 1997 
L 3341 0 
L 2766 0 
L 2766 531 
Q 2569 213 2275 61 
Q 1981 -91 1556 -91 
Q 1019 -91 701 211 
Q 384 513 384 1019 
Q 384 1609 779 1909 
Q 1175 2209 1959 2209 
L 2766 2209 
L 2766 2266 
Q 2766 2663 2505 2880 
Q 2244 3097 1772 3097 
Q 1472 3097 1187 3025 
Q 903 2953 641 2809 
L 641 3341 
Q 956 3463 1253 3523 
Q 1550 3584 1831 3584 
Q 2591 3584 2966 3190 
Q 3341 2797 3341 1997 
z
" id="DejaVuSans-61" transform="scale(0.015625)"/>
       <path d="M 2834 3397 
L 2834 2853 
Q 2591 2978 2328 3040 
Q 2066 3103 1784 3103 
Q 1356 3103 1142 2972 
Q 928 2841 928 2578 
Q 928 2378 1081 2264 
Q 1234 2150 1697 2047 
L 1894 2003 
Q 2506 1872 2764 1633 
Q 3022 1394 3022 966 
Q 3022 478 2636 193 
Q 2250 -91 1575 -91 
Q 1294 -91 989 -36 
Q 684 19 347 128 
L 347 722 
Q 666 556 975 473 
Q 1284 391 1588 391 
Q 1994 391 2212 530 
Q 2431 669 2431 922 
Q 2431 1156 2273 1281 
Q 2116 1406 1581 1522 
L 1381 1569 
Q 847 1681 609 1914 
Q 372 2147 372 2553 
Q 372 3047 722 3315 
Q 1072 3584 1716 3584 
Q 2034 3584 2315 3537 
Q 2597 3491 2834 3397 
z
" id="DejaVuSans-73" transform="scale(0.015625)"/>
       <path id="DejaVuSans-20" transform="scale(0.015625)"/>
       <path d="M 294 84 
Q 297 100 308 140 
Q 319 181 336 203 
Q 353 225 384 225 
Q 934 225 1113 256 
Q 1284 300 1319 441 
L 2194 3956 
Q 2222 4034 2222 4097 
Q 2222 4147 1997 4147 
L 1625 4147 
Q 1197 4147 964 4015 
Q 731 3884 622 3668 
Q 513 3453 341 2963 
Q 319 2906 275 2906 
L 219 2906 
Q 153 2906 153 2988 
L 609 4313 
Q 622 4372 672 4372 
L 4453 4372 
Q 4519 4372 4519 4288 
L 4306 2963 
Q 4306 2944 4284 2925 
Q 4263 2906 4244 2906 
L 4184 2906 
Q 4122 2906 4122 2988 
Q 4191 3441 4191 3628 
Q 4191 3853 4097 3968 
Q 4003 4084 3853 4115 
Q 3703 4147 3463 4147 
L 3084 4147 
Q 2913 4147 2853 4115 
Q 2794 4084 2753 3928 
L 1875 416 
Q 1872 403 1870 390 
Q 1869 378 1863 359 
Q 1863 278 1959 256 
Q 2125 225 2669 225 
Q 2731 225 2731 141 
Q 2709 50 2696 25 
Q 2684 0 2625 0 
L 359 0 
Q 294 0 294 84 
z
" id="Cmmi10-54" transform="scale(0.015625)"/>
      </defs>
      <use transform="translate(0 0.015625)" xlink:href="#Cmmi10-79"/>
      <use transform="translate(66.582031 0.015625)" xlink:href="#Cmr10-3d"/>
      <use transform="translate(161.826172 0.015625)" xlink:href="#Cmr10-31"/>
      <use transform="translate(236.213303 0.015625)" xlink:href="#Cmsy10-21"/>
      <use transform="translate(360.600434 0.015625)" xlink:href="#DejaVuSans-43"/>
      <use transform="translate(430.424652 0.015625)" xlink:href="#DejaVuSans-6c"/>
      <use transform="translate(458.207855 0.015625)" xlink:href="#DejaVuSans-61"/>
      <use transform="translate(519.487152 0.015625)" xlink:href="#DejaVuSans-73"/>
      <use transform="translate(571.586762 0.015625)" xlink:href="#DejaVuSans-73"/>
      <use transform="translate(623.686371 0.015625)" xlink:href="#DejaVuSans-20"/>
      <use transform="translate(655.47348 0.015625)" xlink:href="#Cmmi10-54"/>
     </g>
    </g>
    <g id="line2d_6"/>
    <g id="line2d_7">
     <g>
      <use style="fill:#ffffff;stroke:#1f77b4;" x="39.878125" xlink:href="#m0f5592daa7" y="30"/>
     </g>
    </g>
    <g id="text_4">
     <!-- $y=0\;\to\;$Class $C \cup S$ -->
     <g transform="translate(57.878125 33.5)scale(0.1 -0.1)">
      <defs>
       <path d="M 1600 -141 
Q 816 -141 533 504 
Q 250 1150 250 2041 
Q 250 2597 351 3087 
Q 453 3578 754 3920 
Q 1056 4263 1600 4263 
Q 2022 4263 2290 4056 
Q 2559 3850 2700 3523 
Q 2841 3197 2892 2823 
Q 2944 2450 2944 2041 
Q 2944 1491 2842 1011 
Q 2741 531 2444 195 
Q 2147 -141 1600 -141 
z
M 1600 25 
Q 1956 25 2131 390 
Q 2306 756 2347 1200 
Q 2388 1644 2388 2144 
Q 2388 2625 2347 3031 
Q 2306 3438 2132 3767 
Q 1959 4097 1600 4097 
Q 1238 4097 1063 3765 
Q 888 3434 847 3029 
Q 806 2625 806 2144 
Q 806 1788 823 1472 
Q 841 1156 916 820 
Q 991 484 1158 254 
Q 1325 25 1600 25 
z
" id="Cmr10-30" transform="scale(0.015625)"/>
       <path d="M 934 1381 
Q 934 997 1082 705 
Q 1231 413 1514 248 
Q 1797 84 2181 84 
Q 2584 84 2957 290 
Q 3331 497 3595 842 
Q 3859 1188 3956 1575 
Q 3969 1613 4006 1613 
L 4084 1613 
Q 4109 1613 4125 1595 
Q 4141 1578 4141 1556 
Q 4141 1550 4134 1538 
Q 4025 1094 3711 705 
Q 3397 316 2959 87 
Q 2522 -141 2059 -141 
Q 1559 -141 1162 84 
Q 766 309 545 709 
Q 325 1109 325 1613 
Q 325 2150 565 2676 
Q 806 3203 1212 3614 
Q 1619 4025 2139 4269 
Q 2659 4513 3194 4513 
Q 3406 4513 3600 4448 
Q 3794 4384 3959 4253 
Q 4125 4122 4231 3950 
L 4738 4500 
Q 4738 4513 4769 4513 
L 4806 4513 
Q 4831 4513 4847 4491 
Q 4863 4469 4863 4447 
L 4428 2719 
Q 4428 2675 4378 2675 
L 4263 2675 
Q 4213 2675 4213 2747 
Q 4238 2888 4238 3084 
Q 4238 3397 4131 3673 
Q 4025 3950 3801 4119 
Q 3578 4288 3256 4288 
Q 2734 4288 2300 4025 
Q 1866 3763 1564 3336 
Q 1263 2909 1098 2389 
Q 934 1869 934 1381 
z
" id="Cmmi10-43" transform="scale(0.015625)"/>
       <path d="M 359 1216 
L 359 3713 
Q 359 3759 396 3793 
Q 434 3828 488 3828 
Q 534 3828 575 3793 
Q 616 3759 616 3713 
L 616 1234 
Q 616 956 752 747 
Q 888 538 1111 398 
Q 1334 259 1606 187 
Q 1878 116 2131 116 
Q 2388 116 2659 186 
Q 2931 256 3151 393 
Q 3372 531 3509 743 
Q 3647 956 3647 1234 
L 3647 3713 
Q 3647 3759 3687 3793 
Q 3728 3828 3775 3828 
Q 3828 3828 3865 3793 
Q 3903 3759 3903 3713 
L 3903 1216 
Q 3903 891 3743 631 
Q 3584 372 3323 200 
Q 3063 28 2747 -56 
Q 2431 -141 2131 -141 
Q 1831 -141 1515 -56 
Q 1200 28 939 200 
Q 678 372 518 631 
Q 359 891 359 1216 
z
" id="Cmsy10-5b" transform="scale(0.015625)"/>
       <path d="M 391 -141 
Q 372 -141 356 -119 
Q 341 -97 341 -78 
L 709 1416 
Q 722 1453 763 1453 
L 838 1453 
Q 863 1453 877 1434 
Q 891 1416 891 1388 
Q 838 1169 838 997 
Q 838 534 1156 309 
Q 1475 84 1959 84 
Q 2169 84 2372 187 
Q 2575 291 2726 456 
Q 2878 622 2968 826 
Q 3059 1031 3059 1241 
Q 3059 1466 2940 1642 
Q 2822 1819 2613 1869 
L 1831 2075 
Q 1516 2159 1328 2414 
Q 1141 2669 1141 2988 
Q 1141 3372 1369 3728 
Q 1597 4084 1964 4298 
Q 2331 4513 2713 4513 
Q 3006 4513 3251 4405 
Q 3497 4297 3628 4063 
L 3994 4494 
Q 4031 4513 4038 4513 
L 4078 4513 
Q 4103 4513 4118 4491 
Q 4134 4469 4134 4447 
L 3763 2963 
Q 3753 2919 3713 2919 
L 3634 2919 
Q 3578 2919 3578 2988 
Q 3609 3191 3609 3341 
Q 3609 3638 3507 3858 
Q 3406 4078 3201 4192 
Q 2997 4306 2694 4306 
Q 2438 4306 2184 4159 
Q 1931 4013 1775 3769 
Q 1619 3525 1619 3263 
Q 1619 3056 1739 2897 
Q 1859 2738 2059 2681 
L 2841 2478 
Q 3053 2422 3211 2280 
Q 3369 2138 3450 1942 
Q 3531 1747 3531 1516 
Q 3531 1213 3403 917 
Q 3275 622 3045 378 
Q 2816 134 2525 -3 
Q 2234 -141 1931 -141 
Q 1169 -141 838 306 
L 481 -122 
Q 444 -141 434 -141 
L 391 -141 
z
" id="Cmmi10-53" transform="scale(0.015625)"/>
      </defs>
      <use transform="translate(0 0.015625)" xlink:href="#Cmmi10-79"/>
      <use transform="translate(66.582031 0.015625)" xlink:href="#Cmr10-3d"/>
      <use transform="translate(161.826172 0.015625)" xlink:href="#Cmr10-30"/>
      <use transform="translate(236.213303 0.015625)" xlink:href="#Cmsy10-21"/>
      <use transform="translate(360.600434 0.015625)" xlink:href="#DejaVuSans-43"/>
      <use transform="translate(430.424652 0.015625)" xlink:href="#DejaVuSans-6c"/>
      <use transform="translate(458.207855 0.015625)" xlink:href="#DejaVuSans-61"/>
      <use transform="translate(519.487152 0.015625)" xlink:href="#DejaVuSans-73"/>
      <use transform="translate(571.586762 0.015625)" xlink:href="#DejaVuSans-73"/>
      <use transform="translate(623.686371 0.015625)" xlink:href="#DejaVuSans-20"/>
      <use transform="translate(655.47348 0.015625)" xlink:href="#Cmmi10-43"/>
      <use transform="translate(744.418793 0.015625)" xlink:href="#Cmsy10-5b"/>
      <use transform="translate(828.578949 0.015625)" xlink:href="#Cmmi10-53"/>
     </g>
    </g>
    <g id="line2d_8">
     <path d="M 29.878125 47.8 
L 49.878125 47.8 
" style="fill:none;stroke:#e377c2;stroke-linecap:square;stroke-width:1.5;"/>
    </g>
    <g id="line2d_9"/>
    <g id="text_5">
     <!-- $h_\theta^{(1)}(x)$ -->
     <g transform="translate(57.878125 51.3)scale(0.1 -0.1)">
      <defs>
       <path d="M 341 116 
Q 341 153 347 172 
L 1275 3872 
Q 1300 3981 1306 4044 
Q 1306 4147 891 4147 
Q 825 4147 825 4231 
Q 828 4247 839 4287 
Q 850 4328 867 4350 
Q 884 4372 916 4372 
L 1778 4441 
L 1797 4441 
Q 1797 4434 1819 4423 
Q 1841 4413 1844 4409 
Q 1856 4378 1856 4359 
L 1356 2363 
Q 1750 2828 2291 2828 
Q 2516 2828 2680 2750 
Q 2844 2672 2936 2514 
Q 3028 2356 3028 2138 
Q 3028 1875 2911 1503 
Q 2794 1131 2619 672 
Q 2528 463 2528 288 
Q 2528 97 2675 97 
Q 2925 97 3092 364 
Q 3259 631 3328 941 
Q 3341 978 3378 978 
L 3456 978 
Q 3481 978 3497 961 
Q 3513 944 3513 922 
Q 3513 916 3506 903 
Q 3450 672 3339 448 
Q 3228 225 3059 76 
Q 2891 -72 2663 -72 
Q 2438 -72 2278 83 
Q 2119 238 2119 459 
Q 2119 578 2169 709 
Q 2350 1191 2470 1569 
Q 2591 1947 2591 2234 
Q 2591 2419 2519 2541 
Q 2447 2663 2278 2663 
Q 1934 2663 1678 2452 
Q 1422 2241 1234 1894 
L 800 147 
Q 775 50 703 -11 
Q 631 -72 538 -72 
Q 456 -72 398 -17 
Q 341 38 341 116 
z
" id="Cmmi10-68" transform="scale(0.015625)"/>
       <path d="M 1984 -1588 
Q 1628 -1306 1370 -942 
Q 1113 -578 948 -165 
Q 784 247 703 697 
Q 622 1147 622 1600 
Q 622 2059 703 2509 
Q 784 2959 951 3375 
Q 1119 3791 1378 4153 
Q 1638 4516 1984 4788 
Q 1984 4800 2016 4800 
L 2075 4800 
Q 2094 4800 2109 4783 
Q 2125 4766 2125 4744 
Q 2125 4716 2113 4703 
Q 1800 4397 1592 4047 
Q 1384 3697 1257 3301 
Q 1131 2906 1075 2482 
Q 1019 2059 1019 1600 
Q 1019 -434 2106 -1491 
Q 2125 -1509 2125 -1544 
Q 2125 -1559 2108 -1579 
Q 2091 -1600 2075 -1600 
L 2016 -1600 
Q 1984 -1600 1984 -1588 
z
" id="Cmr10-28" transform="scale(0.015625)"/>
       <path d="M 416 -1600 
Q 359 -1600 359 -1544 
Q 359 -1516 372 -1503 
Q 1466 -434 1466 1600 
Q 1466 3634 384 4691 
Q 359 4706 359 4744 
Q 359 4766 376 4783 
Q 394 4800 416 4800 
L 475 4800 
Q 494 4800 506 4788 
Q 966 4425 1272 3906 
Q 1578 3388 1720 2800 
Q 1863 2213 1863 1600 
Q 1863 1147 1786 708 
Q 1709 269 1542 -157 
Q 1375 -584 1119 -945 
Q 863 -1306 506 -1588 
Q 494 -1600 475 -1600 
L 416 -1600 
z
" id="Cmr10-29" transform="scale(0.015625)"/>
       <path d="M 1031 -72 
Q 741 -72 566 140 
Q 391 353 323 653 
Q 256 953 256 1247 
L 256 1253 
Q 256 1572 317 1915 
Q 378 2259 493 2601 
Q 609 2944 744 3213 
Q 838 3400 986 3631 
Q 1134 3863 1317 4064 
Q 1500 4266 1711 4389 
Q 1922 4513 2138 4513 
L 2144 4513 
Q 2375 4513 2529 4384 
Q 2684 4256 2770 4056 
Q 2856 3856 2890 3628 
Q 2925 3400 2925 3194 
Q 2925 2709 2794 2204 
Q 2663 1700 2431 1228 
Q 2344 1050 2189 809 
Q 2034 569 1861 378 
Q 1688 188 1472 58 
Q 1256 -72 1038 -72 
L 1031 -72 
z
M 1044 97 
Q 1256 97 1451 323 
Q 1647 550 1794 873 
Q 1941 1197 2052 1536 
Q 2163 1875 2216 2113 
L 909 2113 
Q 809 1709 753 1417 
Q 697 1125 697 844 
Q 697 97 1044 97 
z
M 959 2338 
L 2272 2338 
Q 2341 2619 2381 2808 
Q 2422 2997 2450 3206 
Q 2478 3416 2478 3597 
Q 2478 4347 2138 4347 
Q 1731 4347 1436 3692 
Q 1141 3038 959 2338 
z
" id="Cmmi10-b5" transform="scale(0.015625)"/>
      </defs>
      <use transform="translate(0 0.648438)" xlink:href="#Cmmi10-68"/>
      <use transform="translate(69.213125 54.5)scale(0.7)" xlink:href="#Cmr10-28"/>
      <use transform="translate(96.385977 54.5)scale(0.7)" xlink:href="#Cmr10-31"/>
      <use transform="translate(131.385977 54.5)scale(0.7)" xlink:href="#Cmr10-29"/>
      <use transform="translate(57.617188 -24.860938)scale(0.7)" xlink:href="#Cmmi10-b5"/>
      <use transform="translate(164.936172 0.648438)" xlink:href="#Cmr10-28"/>
      <use transform="translate(203.754531 0.648438)" xlink:href="#Cmmi10-78"/>
      <use transform="translate(260.834609 0.648438)" xlink:href="#Cmr10-29"/>
     </g>
    </g>
   </g>
  </g>
  <g id="axes_2">
   <g id="patch_8">
    <path d="M 257.207537 226.08 
L 454.148713 226.08 
L 454.148713 63 
L 257.207537 63 
z
" style="fill:#ffffff;"/>
   </g>
   <g id="matplotlib.axis_3">
    <g id="text_6">
     <!-- $x_1$ -->
     <g transform="translate(350.728125 237.678438)scale(0.1 -0.1)">
      <use transform="translate(0 0.8125)" xlink:href="#Cmmi10-78"/>
      <use transform="translate(57.080078 -16.19375)scale(0.7)" xlink:href="#Cmr10-31"/>
     </g>
    </g>
   </g>
   <g id="matplotlib.axis_4">
    <g id="text_7">
     <!-- $x_2$ -->
     <g transform="translate(251.127849 149.49)rotate(-90)scale(0.1 -0.1)">
      <use transform="translate(0 0.8125)" xlink:href="#Cmmi10-78"/>
      <use transform="translate(57.080078 -16.19375)scale(0.7)" xlink:href="#Cmr10-32"/>
     </g>
    </g>
   </g>
   <g id="line2d_10">
    <defs>
     <path d="M -3 3 
L 3 3 
L 3 -3 
L -3 -3 
z
" id="m9f1c76b607" style="stroke:#1f77b4;stroke-linejoin:miter;"/>
    </defs>
    <g clip-path="url(#p72bb831316)">
     <use style="fill:#1f77b4;stroke:#1f77b4;stroke-linejoin:miter;" x="363.095445" xlink:href="#m9f1c76b607" y="197.23749"/>
     <use style="fill:#1f77b4;stroke:#1f77b4;stroke-linejoin:miter;" x="354.799454" xlink:href="#m9f1c76b607" y="218.667273"/>
     <use style="fill:#1f77b4;stroke:#1f77b4;stroke-linejoin:miter;" x="316.515357" xlink:href="#m9f1c76b607" y="200.514327"/>
     <use style="fill:#1f77b4;stroke:#1f77b4;stroke-linejoin:miter;" x="367.245355" xlink:href="#m9f1c76b607" y="210.050322"/>
    </g>
   </g>
   <g id="line2d_11">
    <g clip-path="url(#p72bb831316)">
     <use style="fill:#ffffff;stroke:#1f77b4;" x="286.568462" xlink:href="#m0f5592daa7" y="101.693852"/>
     <use style="fill:#ffffff;stroke:#1f77b4;" x="266.159408" xlink:href="#m0f5592daa7" y="77.981977"/>
     <use style="fill:#ffffff;stroke:#1f77b4;" x="315.642797" xlink:href="#m0f5592daa7" y="70.412727"/>
     <use style="fill:#ffffff;stroke:#1f77b4;" x="395.138297" xlink:href="#m0f5592daa7" y="133.548848"/>
     <use style="fill:#ffffff;stroke:#1f77b4;" x="430.937284" xlink:href="#m0f5592daa7" y="164.570437"/>
     <use style="fill:#ffffff;stroke:#1f77b4;" x="445.196842" xlink:href="#m0f5592daa7" y="189.139425"/>
     <use style="fill:#ffffff;stroke:#1f77b4;" x="419.912102" xlink:href="#m0f5592daa7" y="141.062606"/>
     <use style="fill:#ffffff;stroke:#1f77b4;" x="420.645589" xlink:href="#m0f5592daa7" y="185.86193"/>
    </g>
   </g>
   <g id="line2d_12">
    <path clip-path="url(#p72bb831316)" d="M 257.207537 111.295578 
L 430.989006 226.08 
" style="fill:none;stroke:#e377c2;stroke-linecap:square;stroke-width:1.5;"/>
   </g>
   <g id="patch_9">
    <path d="M 257.207537 226.08 
L 257.207537 63 
" style="fill:none;stroke:#000000;stroke-linecap:square;stroke-linejoin:miter;stroke-width:0.8;"/>
   </g>
   <g id="patch_10">
    <path d="M 454.148713 226.08 
L 454.148713 63 
" style="fill:none;stroke:#000000;stroke-linecap:square;stroke-linejoin:miter;stroke-width:0.8;"/>
   </g>
   <g id="patch_11">
    <path d="M 257.207537 226.08 
L 454.148713 226.08 
" style="fill:none;stroke:#000000;stroke-linecap:square;stroke-linejoin:miter;stroke-width:0.8;"/>
   </g>
   <g id="patch_12">
    <path d="M 257.207537 63 
L 454.148713 63 
" style="fill:none;stroke:#000000;stroke-linecap:square;stroke-linejoin:miter;stroke-width:0.8;"/>
   </g>
   <g id="legend_2">
    <g id="patch_13">
     <path d="M 264.207537 58 
L 384.907537 58 
Q 386.907537 58 386.907537 56 
L 386.907537 9.2 
Q 386.907537 7.2 384.907537 7.2 
L 264.207537 7.2 
Q 262.207537 7.2 262.207537 9.2 
L 262.207537 56 
Q 262.207537 58 264.207537 58 
z
" style="fill:#ffffff;opacity:0.8;stroke:#cccccc;stroke-linejoin:miter;"/>
    </g>
    <g id="line2d_13"/>
    <g id="line2d_14">
     <g>
      <use style="fill:#1f77b4;stroke:#1f77b4;stroke-linejoin:miter;" x="276.207537" xlink:href="#m9f1c76b607" y="15.3"/>
     </g>
    </g>
    <g id="text_8">
     <!-- $y=1\;\to\;$Class $S$ -->
     <g transform="translate(294.207537 18.8)scale(0.1 -0.1)">
      <use transform="translate(0 0.015625)" xlink:href="#Cmmi10-79"/>
      <use transform="translate(66.582031 0.015625)" xlink:href="#Cmr10-3d"/>
      <use transform="translate(161.826172 0.015625)" xlink:href="#Cmr10-31"/>
      <use transform="translate(236.213303 0.015625)" xlink:href="#Cmsy10-21"/>
      <use transform="translate(360.600434 0.015625)" xlink:href="#DejaVuSans-43"/>
      <use transform="translate(430.424652 0.015625)" xlink:href="#DejaVuSans-6c"/>
      <use transform="translate(458.207855 0.015625)" xlink:href="#DejaVuSans-61"/>
      <use transform="translate(519.487152 0.015625)" xlink:href="#DejaVuSans-73"/>
      <use transform="translate(571.586762 0.015625)" xlink:href="#DejaVuSans-73"/>
      <use transform="translate(623.686371 0.015625)" xlink:href="#DejaVuSans-20"/>
      <use transform="translate(655.47348 0.015625)" xlink:href="#Cmmi10-53"/>
     </g>
    </g>
    <g id="line2d_15"/>
    <g id="line2d_16">
     <g>
      <use style="fill:#ffffff;stroke:#1f77b4;" x="276.207537" xlink:href="#m0f5592daa7" y="30"/>
     </g>
    </g>
    <g id="text_9">
     <!-- $y=0\;\to\;$Class $C \cup T$ -->
     <g transform="translate(294.207537 33.5)scale(0.1 -0.1)">
      <use transform="translate(0 0.015625)" xlink:href="#Cmmi10-79"/>
      <use transform="translate(66.582031 0.015625)" xlink:href="#Cmr10-3d"/>
      <use transform="translate(161.826172 0.015625)" xlink:href="#Cmr10-30"/>
      <use transform="translate(236.213303 0.015625)" xlink:href="#Cmsy10-21"/>
      <use transform="translate(360.600434 0.015625)" xlink:href="#DejaVuSans-43"/>
      <use transform="translate(430.424652 0.015625)" xlink:href="#DejaVuSans-6c"/>
      <use transform="translate(458.207855 0.015625)" xlink:href="#DejaVuSans-61"/>
      <use transform="translate(519.487152 0.015625)" xlink:href="#DejaVuSans-73"/>
      <use transform="translate(571.586762 0.015625)" xlink:href="#DejaVuSans-73"/>
      <use transform="translate(623.686371 0.015625)" xlink:href="#DejaVuSans-20"/>
      <use transform="translate(655.47348 0.015625)" xlink:href="#Cmmi10-43"/>
      <use transform="translate(744.418793 0.015625)" xlink:href="#Cmsy10-5b"/>
      <use transform="translate(828.578949 0.015625)" xlink:href="#Cmmi10-54"/>
     </g>
    </g>
    <g id="line2d_17">
     <path d="M 266.207537 47.8 
L 286.207537 47.8 
" style="fill:none;stroke:#e377c2;stroke-linecap:square;stroke-width:1.5;"/>
    </g>
    <g id="line2d_18"/>
    <g id="text_10">
     <!-- $h_\theta^{(2)}(x)$ -->
     <g transform="translate(294.207537 51.3)scale(0.1 -0.1)">
      <use transform="translate(0 0.648438)" xlink:href="#Cmmi10-68"/>
      <use transform="translate(69.213125 54.5)scale(0.7)" xlink:href="#Cmr10-28"/>
      <use transform="translate(96.385977 54.5)scale(0.7)" xlink:href="#Cmr10-32"/>
      <use transform="translate(131.385977 54.5)scale(0.7)" xlink:href="#Cmr10-29"/>
      <use transform="translate(57.617188 -24.860938)scale(0.7)" xlink:href="#Cmmi10-b5"/>
      <use transform="translate(164.936172 0.648438)" xlink:href="#Cmr10-28"/>
      <use transform="translate(203.754531 0.648438)" xlink:href="#Cmmi10-78"/>
      <use transform="translate(260.834609 0.648438)" xlink:href="#Cmr10-29"/>
     </g>
    </g>
   </g>
  </g>
  <g id="axes_3">
   <g id="patch_14">
    <path d="M 493.536949 226.08 
L 690.478125 226.08 
L 690.478125 63 
L 493.536949 63 
z
" style="fill:#ffffff;"/>
   </g>
   <g id="matplotlib.axis_5">
    <g id="text_11">
     <!-- $x_1$ -->
     <g transform="translate(587.057537 237.678438)scale(0.1 -0.1)">
      <use transform="translate(0 0.8125)" xlink:href="#Cmmi10-78"/>
      <use transform="translate(57.080078 -16.19375)scale(0.7)" xlink:href="#Cmr10-31"/>
     </g>
    </g>
   </g>
   <g id="matplotlib.axis_6">
    <g id="text_12">
     <!-- $x_2$ -->
     <g transform="translate(487.457261 149.49)rotate(-90)scale(0.1 -0.1)">
      <use transform="translate(0 0.8125)" xlink:href="#Cmmi10-78"/>
      <use transform="translate(57.080078 -16.19375)scale(0.7)" xlink:href="#Cmr10-32"/>
     </g>
    </g>
   </g>
   <g id="line2d_19">
    <defs>
     <path d="M -3 3 
L 3 -3 
M -3 -3 
L 3 3 
" id="m1abda8ccef" style="stroke:#d62728;"/>
    </defs>
    <g clip-path="url(#p0ebdc7895c)">
     <use style="fill:#d62728;stroke:#d62728;" x="631.467708" xlink:href="#m1abda8ccef" y="133.548848"/>
     <use style="fill:#d62728;stroke:#d62728;" x="667.266696" xlink:href="#m1abda8ccef" y="164.570437"/>
     <use style="fill:#d62728;stroke:#d62728;" x="681.526253" xlink:href="#m1abda8ccef" y="189.139425"/>
     <use style="fill:#d62728;stroke:#d62728;" x="656.241514" xlink:href="#m1abda8ccef" y="141.062606"/>
     <use style="fill:#d62728;stroke:#d62728;" x="656.975001" xlink:href="#m1abda8ccef" y="185.86193"/>
    </g>
   </g>
   <g id="line2d_20">
    <g clip-path="url(#p0ebdc7895c)">
     <use style="fill:#ffffff;stroke:#1f77b4;" x="522.897874" xlink:href="#m0f5592daa7" y="101.693852"/>
     <use style="fill:#ffffff;stroke:#1f77b4;" x="502.48882" xlink:href="#m0f5592daa7" y="77.981977"/>
     <use style="fill:#ffffff;stroke:#1f77b4;" x="551.972209" xlink:href="#m0f5592daa7" y="70.412727"/>
     <use style="fill:#ffffff;stroke:#1f77b4;" x="599.424856" xlink:href="#m0f5592daa7" y="197.23749"/>
     <use style="fill:#ffffff;stroke:#1f77b4;" x="591.128865" xlink:href="#m0f5592daa7" y="218.667273"/>
     <use style="fill:#ffffff;stroke:#1f77b4;" x="552.844769" xlink:href="#m0f5592daa7" y="200.514327"/>
     <use style="fill:#ffffff;stroke:#1f77b4;" x="603.574767" xlink:href="#m0f5592daa7" y="210.050322"/>
    </g>
   </g>
   <g id="line2d_21">
    <path clip-path="url(#p0ebdc7895c)" d="M 587.955804 63 
L 624.990815 226.08 
" style="fill:none;stroke:#e377c2;stroke-linecap:square;stroke-width:1.5;"/>
   </g>
   <g id="patch_15">
    <path d="M 493.536949 226.08 
L 493.536949 63 
" style="fill:none;stroke:#000000;stroke-linecap:square;stroke-linejoin:miter;stroke-width:0.8;"/>
   </g>
   <g id="patch_16">
    <path d="M 690.478125 226.08 
L 690.478125 63 
" style="fill:none;stroke:#000000;stroke-linecap:square;stroke-linejoin:miter;stroke-width:0.8;"/>
   </g>
   <g id="patch_17">
    <path d="M 493.536949 226.08 
L 690.478125 226.08 
" style="fill:none;stroke:#000000;stroke-linecap:square;stroke-linejoin:miter;stroke-width:0.8;"/>
   </g>
   <g id="patch_18">
    <path d="M 493.536949 63 
L 690.478125 63 
" style="fill:none;stroke:#000000;stroke-linecap:square;stroke-linejoin:miter;stroke-width:0.8;"/>
   </g>
   <g id="legend_3">
    <g id="patch_19">
     <path d="M 500.536949 58 
L 620.236949 58 
Q 622.236949 58 622.236949 56 
L 622.236949 9.2 
Q 622.236949 7.2 620.236949 7.2 
L 500.536949 7.2 
Q 498.536949 7.2 498.536949 9.2 
L 498.536949 56 
Q 498.536949 58 500.536949 58 
z
" style="fill:#ffffff;opacity:0.8;stroke:#cccccc;stroke-linejoin:miter;"/>
    </g>
    <g id="line2d_22"/>
    <g id="line2d_23">
     <g>
      <use style="fill:#d62728;stroke:#d62728;" x="512.536949" xlink:href="#m1abda8ccef" y="15.3"/>
     </g>
    </g>
    <g id="text_13">
     <!-- $y=1\;\to\;$Class $C$ -->
     <g transform="translate(530.536949 18.8)scale(0.1 -0.1)">
      <use transform="translate(0 0.015625)" xlink:href="#Cmmi10-79"/>
      <use transform="translate(66.582031 0.015625)" xlink:href="#Cmr10-3d"/>
      <use transform="translate(161.826172 0.015625)" xlink:href="#Cmr10-31"/>
      <use transform="translate(236.213303 0.015625)" xlink:href="#Cmsy10-21"/>
      <use transform="translate(360.600434 0.015625)" xlink:href="#DejaVuSans-43"/>
      <use transform="translate(430.424652 0.015625)" xlink:href="#DejaVuSans-6c"/>
      <use transform="translate(458.207855 0.015625)" xlink:href="#DejaVuSans-61"/>
      <use transform="translate(519.487152 0.015625)" xlink:href="#DejaVuSans-73"/>
      <use transform="translate(571.586762 0.015625)" xlink:href="#DejaVuSans-73"/>
      <use transform="translate(623.686371 0.015625)" xlink:href="#DejaVuSans-20"/>
      <use transform="translate(655.47348 0.015625)" xlink:href="#Cmmi10-43"/>
     </g>
    </g>
    <g id="line2d_24"/>
    <g id="line2d_25">
     <g>
      <use style="fill:#ffffff;stroke:#1f77b4;" x="512.536949" xlink:href="#m0f5592daa7" y="30"/>
     </g>
    </g>
    <g id="text_14">
     <!-- $y=0\;\to\;$Class $S \cup T$ -->
     <g transform="translate(530.536949 33.5)scale(0.1 -0.1)">
      <use transform="translate(0 0.015625)" xlink:href="#Cmmi10-79"/>
      <use transform="translate(66.582031 0.015625)" xlink:href="#Cmr10-3d"/>
      <use transform="translate(161.826172 0.015625)" xlink:href="#Cmr10-30"/>
      <use transform="translate(236.213303 0.015625)" xlink:href="#Cmsy10-21"/>
      <use transform="translate(360.600434 0.015625)" xlink:href="#DejaVuSans-43"/>
      <use transform="translate(430.424652 0.015625)" xlink:href="#DejaVuSans-6c"/>
      <use transform="translate(458.207855 0.015625)" xlink:href="#DejaVuSans-61"/>
      <use transform="translate(519.487152 0.015625)" xlink:href="#DejaVuSans-73"/>
      <use transform="translate(571.586762 0.015625)" xlink:href="#DejaVuSans-73"/>
      <use transform="translate(623.686371 0.015625)" xlink:href="#DejaVuSans-20"/>
      <use transform="translate(655.47348 0.015625)" xlink:href="#Cmmi10-53"/>
      <use transform="translate(734.311371 0.015625)" xlink:href="#Cmsy10-5b"/>
      <use transform="translate(818.471527 0.015625)" xlink:href="#Cmmi10-54"/>
     </g>
    </g>
    <g id="line2d_26">
     <path d="M 502.536949 47.8 
L 522.536949 47.8 
" style="fill:none;stroke:#e377c2;stroke-linecap:square;stroke-width:1.5;"/>
    </g>
    <g id="line2d_27"/>
    <g id="text_15">
     <!-- $h_\theta^{(3)}(x)$ -->
     <g transform="translate(530.536949 51.3)scale(0.1 -0.1)">
      <defs>
       <path d="M 609 494 
Q 759 275 1012 169 
Q 1266 63 1556 63 
Q 1928 63 2084 380 
Q 2241 697 2241 1100 
Q 2241 1281 2208 1462 
Q 2175 1644 2097 1800 
Q 2019 1956 1883 2050 
Q 1747 2144 1550 2144 
L 1125 2144 
Q 1069 2144 1069 2203 
L 1069 2259 
Q 1069 2309 1125 2309 
L 1478 2338 
Q 1703 2338 1851 2506 
Q 2000 2675 2069 2917 
Q 2138 3159 2138 3378 
Q 2138 3684 1994 3881 
Q 1850 4078 1556 4078 
Q 1313 4078 1091 3986 
Q 869 3894 738 3706 
Q 750 3709 759 3711 
Q 769 3713 781 3713 
Q 925 3713 1022 3613 
Q 1119 3513 1119 3372 
Q 1119 3234 1022 3134 
Q 925 3034 781 3034 
Q 641 3034 541 3134 
Q 441 3234 441 3372 
Q 441 3647 606 3850 
Q 772 4053 1033 4158 
Q 1294 4263 1556 4263 
Q 1750 4263 1965 4205 
Q 2181 4147 2356 4039 
Q 2531 3931 2642 3762 
Q 2753 3594 2753 3378 
Q 2753 3109 2633 2881 
Q 2513 2653 2303 2487 
Q 2094 2322 1844 2241 
Q 2122 2188 2372 2031 
Q 2622 1875 2773 1631 
Q 2925 1388 2925 1106 
Q 2925 753 2731 467 
Q 2538 181 2222 20 
Q 1906 -141 1556 -141 
Q 1256 -141 954 -26 
Q 653 88 461 316 
Q 269 544 269 863 
Q 269 1022 375 1128 
Q 481 1234 641 1234 
Q 744 1234 830 1186 
Q 916 1138 964 1050 
Q 1013 963 1013 863 
Q 1013 706 903 600 
Q 794 494 641 494 
L 609 494 
z
" id="Cmr10-33" transform="scale(0.015625)"/>
      </defs>
      <use transform="translate(0 0.648438)" xlink:href="#Cmmi10-68"/>
      <use transform="translate(69.213125 54.5)scale(0.7)" xlink:href="#Cmr10-28"/>
      <use transform="translate(96.385977 54.5)scale(0.7)" xlink:href="#Cmr10-33"/>
      <use transform="translate(131.385977 54.5)scale(0.7)" xlink:href="#Cmr10-29"/>
      <use transform="translate(57.617188 -24.860938)scale(0.7)" xlink:href="#Cmmi10-b5"/>
      <use transform="translate(164.936172 0.648438)" xlink:href="#Cmr10-28"/>
      <use transform="translate(203.754531 0.648438)" xlink:href="#Cmmi10-78"/>
      <use transform="translate(260.834609 0.648438)" xlink:href="#Cmr10-29"/>
     </g>
    </g>
   </g>
  </g>
 </g>
 <defs>
  <clipPath id="p17cfcf8f65">
   <rect height="163.08" width="196.941176" x="20.878125" y="63"/>
  </clipPath>
  <clipPath id="p72bb831316">
   <rect height="163.08" width="196.941176" x="257.207537" y="63"/>
  </clipPath>
  <clipPath id="p0ebdc7895c">
   <rect height="163.08" width="196.941176" x="493.536949" y="63"/>
  </clipPath>
 </defs>
</svg>
