<?xml version="1.0" encoding="utf-8" standalone="no"?>
<!DOCTYPE svg PUBLIC "-//W3C//DTD SVG 1.1//EN"
  "http://www.w3.org/Graphics/SVG/1.1/DTD/svg11.dtd">
<svg height="144.4pt" version="1.1" viewBox="0 0 237.875714 144.4" width="237.875714pt" xmlns="http://www.w3.org/2000/svg" xmlns:xlink="http://www.w3.org/1999/xlink">
 <metadata>
  <rdf:RDF xmlns:cc="http://creativecommons.org/ns#" xmlns:dc="http://purl.org/dc/elements/1.1/" xmlns:rdf="http://www.w3.org/1999/02/22-rdf-syntax-ns#">
   <cc:Work>
    <dc:type rdf:resource="http://purl.org/dc/dcmitype/StillImage"/>
    <dc:date>2021-10-02T10:35:48.321440</dc:date>
    <dc:format>image/svg+xml</dc:format>
    <dc:creator>
     <cc:Agent>
      <dc:title>Matplotlib v3.4.3, https://matplotlib.org/</dc:title>
     </cc:Agent>
    </dc:creator>
   </cc:Work>
  </rdf:RDF>
 </metadata>
 <defs>
  <style type="text/css">*{stroke-linecap:butt;stroke-linejoin:round;}</style>
 </defs>
 <g id="figure_1">
  <g id="patch_1">
   <path d="M 0 144.4 
L 237.875714 144.4 
L 237.875714 0 
L 0 0 
z
" style="fill:none;"/>
  </g>
  <g id="axes_1">
   <g id="text_1">
    <g id="patch_2">
     <path d="M 12.79 82.390781 
C 15.492627 82.390781 18.084925 81.317016 19.995971 79.405971 
C 21.907016 77.494925 22.980781 74.902627 22.980781 72.2 
C 22.980781 69.497373 21.907016 66.905075 19.995971 64.994029 
C 18.084925 63.082984 15.492627 62.009219 12.79 62.009219 
C 10.087373 62.009219 7.495075 63.082984 5.584029 64.994029 
C 3.672984 66.905075 2.599219 69.497373 2.599219 72.2 
C 2.599219 74.902627 3.672984 77.494925 5.584029 79.405971 
C 7.495075 81.317016 10.087373 82.390781 12.79 82.390781 
z
" style="fill:#ffffff;"/>
    </g>
    <!-- $o_c$ -->
    <g transform="translate(7.2 75.787188)scale(0.13 -0.13)">
     <defs>
      <path d="M 1288 -72 
Q 984 -72 748 72 
Q 513 216 384 459 
Q 256 703 256 1013 
Q 256 1447 498 1872 
Q 741 2297 1142 2562 
Q 1544 2828 1984 2828 
Q 2222 2828 2408 2747 
Q 2594 2666 2731 2519 
Q 2869 2372 2942 2175 
Q 3016 1978 3016 1747 
Q 3016 1413 2875 1089 
Q 2734 766 2489 502 
Q 2244 238 1928 83 
Q 1613 -72 1288 -72 
z
M 1300 97 
Q 1584 97 1820 290 
Q 2056 484 2207 779 
Q 2359 1075 2440 1403 
Q 2522 1731 2522 1997 
Q 2522 2275 2383 2469 
Q 2244 2663 1972 2663 
Q 1597 2663 1315 2342 
Q 1034 2022 892 1576 
Q 750 1131 750 763 
Q 750 484 892 290 
Q 1034 97 1300 97 
z
" id="Cmmi10-6f" transform="scale(0.015625)"/>
      <path d="M 750 763 
Q 750 484 892 290 
Q 1034 97 1300 97 
Q 1681 97 2032 272 
Q 2384 447 2606 756 
Q 2625 775 2656 775 
Q 2688 775 2720 739 
Q 2753 703 2753 672 
Q 2753 647 2741 634 
Q 2506 306 2109 117 
Q 1713 -72 1288 -72 
Q 981 -72 747 73 
Q 513 219 384 462 
Q 256 706 256 1013 
Q 256 1444 497 1869 
Q 738 2294 1138 2561 
Q 1538 2828 1978 2828 
Q 2266 2828 2495 2689 
Q 2725 2550 2725 2278 
Q 2725 2103 2623 1979 
Q 2522 1856 2350 1856 
Q 2247 1856 2176 1920 
Q 2106 1984 2106 2088 
Q 2106 2238 2215 2344 
Q 2325 2450 2472 2450 
L 2484 2450 
Q 2409 2559 2267 2611 
Q 2125 2663 1972 2663 
Q 1597 2663 1315 2342 
Q 1034 2022 892 1576 
Q 750 1131 750 763 
z
" id="Cmmi10-63" transform="scale(0.015625)"/>
     </defs>
     <use transform="translate(0 0.8125)" xlink:href="#Cmmi10-6f"/>
     <use transform="translate(48.388672 -16.19375)scale(0.7)" xlink:href="#Cmmi10-63"/>
    </g>
   </g>
   <g id="text_2">
    <g id="patch_3">
     <path d="M 65.932857 82.390781 
C 68.635484 82.390781 71.227782 81.317016 73.138828 79.405971 
C 75.049873 77.494925 76.123638 74.902627 76.123638 72.2 
C 76.123638 69.497373 75.049873 66.905075 73.138828 64.994029 
C 71.227782 63.082984 68.635484 62.009219 65.932857 62.009219 
C 63.23023 62.009219 60.637932 63.082984 58.726887 64.994029 
C 56.815841 66.905075 55.742076 69.497373 55.742076 72.2 
C 55.742076 74.902627 56.815841 77.494925 58.726887 79.405971 
C 60.637932 81.317016 63.23023 82.390781 65.932857 82.390781 
z
" style="fill:#ffffff;"/>
    </g>
    <!-- $E$ -->
    <g transform="translate(61.122857 75.787188)scale(0.13 -0.13)">
     <defs>
      <path d="M 300 0 
Q 238 0 238 84 
Q 241 100 250 139 
Q 259 178 276 201 
Q 294 225 319 225 
Q 709 225 863 269 
Q 947 297 984 441 
L 1863 3956 
Q 1875 4019 1875 4044 
Q 1875 4113 1797 4122 
Q 1678 4147 1338 4147 
Q 1275 4147 1275 4231 
Q 1278 4247 1287 4286 
Q 1297 4325 1314 4348 
Q 1331 4372 1356 4372 
L 4825 4372 
Q 4891 4372 4891 4288 
L 4738 2963 
Q 4738 2947 4714 2926 
Q 4691 2906 4672 2906 
L 4616 2906 
Q 4550 2906 4550 2988 
Q 4588 3300 4588 3450 
Q 4588 3706 4500 3848 
Q 4413 3991 4267 4053 
Q 4122 4116 3945 4131 
Q 3769 4147 3481 4147 
L 2753 4147 
Q 2578 4147 2522 4117 
Q 2466 4088 2419 3928 
L 2034 2381 
L 2534 2381 
Q 2859 2381 3025 2426 
Q 3191 2472 3287 2615 
Q 3384 2759 3463 3072 
Q 3469 3094 3486 3111 
Q 3503 3128 3525 3128 
L 3584 3128 
Q 3647 3128 3647 3047 
L 3250 1466 
Q 3238 1409 3188 1409 
L 3128 1409 
Q 3066 1409 3066 1491 
Q 3128 1747 3128 1869 
Q 3128 2056 2959 2106 
Q 2791 2156 2509 2156 
L 1978 2156 
L 1544 416 
Q 1516 338 1516 275 
Q 1516 225 1734 225 
L 2509 225 
Q 2972 225 3259 297 
Q 3547 369 3736 526 
Q 3925 684 4062 928 
Q 4200 1172 4397 1638 
Q 4409 1678 4453 1678 
L 4513 1678 
Q 4538 1678 4556 1656 
Q 4575 1634 4575 1606 
Q 4575 1594 4569 1581 
L 3909 38 
Q 3897 0 3859 0 
L 300 0 
z
" id="Cmmi10-45" transform="scale(0.015625)"/>
     </defs>
     <use transform="translate(0 0.6875)" xlink:href="#Cmmi10-45"/>
    </g>
   </g>
   <g id="patch_4">
    <path d="M 52.620452 72.2 
Q 39.360235 72.2 24.981984 72.2 
" style="fill:none;stroke:#000000;stroke-linecap:round;"/>
    <path d="M 47.420452 69.6 
L 52.620452 72.2 
L 47.420452 74.8 
" style="fill:none;stroke:#000000;stroke-linecap:round;"/>
   </g>
   <g id="text_3">
    <g id="patch_5">
     <path d="M 119.075714 82.390781 
C 121.778341 82.390781 124.370639 81.317016 126.281685 79.405971 
C 128.192731 77.494925 129.266496 74.902627 129.266496 72.2 
C 129.266496 69.497373 128.192731 66.905075 126.281685 64.994029 
C 124.370639 63.082984 121.778341 62.009219 119.075714 62.009219 
C 116.373088 62.009219 113.780789 63.082984 111.869744 64.994029 
C 109.958698 66.905075 108.884933 69.497373 108.884933 72.2 
C 108.884933 74.902627 109.958698 77.494925 111.869744 79.405971 
C 113.780789 81.317016 116.373088 82.390781 119.075714 82.390781 
z
" style="fill:#ffffff;"/>
    </g>
    <!-- $e_c$ -->
    <g transform="translate(113.615714 75.787188)scale(0.13 -0.13)">
     <defs>
      <path d="M 1288 -72 
Q 981 -72 751 87 
Q 522 247 401 517 
Q 281 788 281 1088 
Q 281 1544 511 1945 
Q 741 2347 1134 2587 
Q 1528 2828 1978 2828 
Q 2253 2828 2458 2686 
Q 2663 2544 2663 2278 
Q 2663 1909 2369 1729 
Q 2075 1550 1706 1508 
Q 1338 1466 891 1466 
L 872 1466 
Q 769 1084 769 813 
Q 769 528 900 312 
Q 1031 97 1300 97 
Q 1681 97 2032 272 
Q 2384 447 2606 756 
Q 2625 775 2656 775 
Q 2688 775 2720 739 
Q 2753 703 2753 672 
Q 2753 647 2741 634 
Q 2506 306 2109 117 
Q 1713 -72 1288 -72 
z
M 909 1631 
Q 1281 1631 1597 1665 
Q 1913 1700 2169 1839 
Q 2425 1978 2425 2272 
Q 2425 2391 2359 2480 
Q 2294 2569 2189 2616 
Q 2084 2663 1972 2663 
Q 1700 2663 1483 2516 
Q 1266 2369 1125 2133 
Q 984 1897 909 1631 
z
" id="Cmmi10-65" transform="scale(0.015625)"/>
     </defs>
     <use transform="translate(0 0.8125)" xlink:href="#Cmmi10-65"/>
     <use transform="translate(46.484375 -16.19375)scale(0.7)" xlink:href="#Cmmi10-63"/>
    </g>
   </g>
   <g id="patch_6">
    <path d="M 105.763309 72.2 
Q 92.503092 72.2 78.124842 72.2 
" style="fill:none;stroke:#000000;stroke-linecap:round;"/>
    <path d="M 100.563309 69.6 
L 105.763309 72.2 
L 100.563309 74.8 
" style="fill:none;stroke:#000000;stroke-linecap:round;"/>
   </g>
   <g id="text_4">
    <g id="patch_7">
     <path d="M 172.218571 30.619353 
C 174.921198 30.619353 177.513496 29.545588 179.424542 27.634542 
C 181.335588 25.723496 182.409353 23.131198 182.409353 20.428571 
C 182.409353 17.725945 181.335588 15.133647 179.424542 13.222601 
C 177.513496 11.311555 174.921198 10.23779 172.218571 10.23779 
C 169.515945 10.23779 166.923647 11.311555 165.012601 13.222601 
C 163.101555 15.133647 162.02779 17.725945 162.02779 20.428571 
C 162.02779 23.131198 163.101555 25.723496 165.012601 27.634542 
C 166.923647 29.545588 169.515945 30.619353 172.218571 30.619353 
z
" style="fill:#ffffff;stroke:#000000;stroke-linejoin:miter;"/>
    </g>
    <!--   -->
    <g transform="translate(170.15279 24.015759)scale(0.13 -0.13)">
     <defs>
      <path id="DejaVuSans-20" transform="scale(0.015625)"/>
     </defs>
     <use xlink:href="#DejaVuSans-20"/>
    </g>
   </g>
   <g id="patch_8">
    <path d="M 160.360158 23.063867 
Q 145.647085 46.314377 130.336161 70.509648 
" style="fill:none;stroke:#000000;stroke-linecap:round;"/>
    <path d="M 155.382487 26.067663 
L 160.360158 23.063867 
L 159.776592 28.848282 
" style="fill:none;stroke:#000000;stroke-linecap:round;"/>
   </g>
   <g id="text_5">
    <g id="patch_9">
     <path d="M 172.218571 56.505067 
C 174.921198 56.505067 177.513496 55.431302 179.424542 53.520256 
C 181.335588 51.609211 182.409353 49.016912 182.409353 46.314286 
C 182.409353 43.611659 181.335588 41.019361 179.424542 39.108315 
C 177.513496 37.197269 174.921198 36.123504 172.218571 36.123504 
C 169.515945 36.123504 166.923647 37.197269 165.012601 39.108315 
C 163.101555 41.019361 162.02779 43.611659 162.02779 46.314286 
C 162.02779 49.016912 163.101555 51.609211 165.012601 53.520256 
C 166.923647 55.431302 169.515945 56.505067 172.218571 56.505067 
z
" style="fill:#ffffff;stroke:#000000;stroke-linejoin:miter;"/>
    </g>
    <!--   -->
    <g transform="translate(170.15279 49.901473)scale(0.13 -0.13)">
     <use xlink:href="#DejaVuSans-20"/>
    </g>
   </g>
   <g id="patch_10">
    <path d="M 159.580866 48.247676 
Q 145.648567 59.256018 130.839022 70.957498 
" style="fill:none;stroke:#000000;stroke-linecap:round;"/>
    <path d="M 153.88888 49.431435 
L 159.580866 48.247676 
L 157.112682 53.511521 
" style="fill:none;stroke:#000000;stroke-linecap:round;"/>
   </g>
   <g id="text_6">
    <g id="patch_11">
     <path d="M 172.218571 82.390781 
C 174.921198 82.390781 177.513496 81.317016 179.424542 79.405971 
C 181.335588 77.494925 182.409353 74.902627 182.409353 72.2 
C 182.409353 69.497373 181.335588 66.905075 179.424542 64.994029 
C 177.513496 63.082984 174.921198 62.009219 172.218571 62.009219 
C 169.515945 62.009219 166.923647 63.082984 165.012601 64.994029 
C 163.101555 66.905075 162.02779 69.497373 162.02779 72.2 
C 162.02779 74.902627 163.101555 77.494925 165.012601 79.405971 
C 166.923647 81.317016 169.515945 82.390781 172.218571 82.390781 
z
" style="fill:#ffffff;stroke:#000000;stroke-linejoin:miter;"/>
    </g>
    <!--   -->
    <g transform="translate(170.15279 75.787188)scale(0.13 -0.13)">
     <use xlink:href="#DejaVuSans-20"/>
    </g>
   </g>
   <g id="patch_12">
    <path d="M 158.906166 72.2 
Q 145.645949 72.2 131.267699 72.2 
" style="fill:none;stroke:#000000;stroke-linecap:round;"/>
    <path d="M 153.706166 69.6 
L 158.906166 72.2 
L 153.706166 74.8 
" style="fill:none;stroke:#000000;stroke-linecap:round;"/>
   </g>
   <g id="text_7">
    <g id="patch_13">
     <path d="M 172.218571 108.276496 
C 174.921198 108.276496 177.513496 107.202731 179.424542 105.291685 
C 181.335588 103.380639 182.409353 100.788341 182.409353 98.085714 
C 182.409353 95.383088 181.335588 92.790789 179.424542 90.879744 
C 177.513496 88.968698 174.921198 87.894933 172.218571 87.894933 
C 169.515945 87.894933 166.923647 88.968698 165.012601 90.879744 
C 163.101555 92.790789 162.02779 95.383088 162.02779 98.085714 
C 162.02779 100.788341 163.101555 103.380639 165.012601 105.291685 
C 166.923647 107.202731 169.515945 108.276496 172.218571 108.276496 
z
" style="fill:#ffffff;"/>
    </g>
    <!-- $\vdots$ -->
    <g transform="translate(168.838571 101.672902)scale(0.13 -0.13)">
     <defs>
      <path d="M 2042 3475 
Q 2042 3309 1930 3187 
Q 1818 3066 1638 3066 
Q 1453 3066 1341 3178 
Q 1229 3290 1229 3475 
Q 1229 3648 1353 3763 
Q 1478 3878 1638 3878 
Q 1798 3878 1920 3763 
Q 2042 3648 2042 3475 
z
M 2042 1613 
Q 2042 1446 1930 1324 
Q 1818 1203 1638 1203 
Q 1453 1203 1341 1315 
Q 1229 1427 1229 1613 
Q 1229 1786 1353 1901 
Q 1478 2016 1638 2016 
Q 1798 2016 1920 1901 
Q 2042 1786 2042 1613 
z
M 2042 -256 
Q 2042 -422 1930 -544 
Q 1818 -666 1638 -666 
Q 1453 -666 1341 -554 
Q 1229 -442 1229 -256 
Q 1229 -83 1353 32 
Q 1478 147 1638 147 
Q 1798 147 1920 32 
Q 2042 -83 2042 -256 
z
" id="STIXGeneral-Regular-22ee" transform="scale(0.015625)"/>
     </defs>
     <use transform="translate(0 0.40625)" xlink:href="#STIXGeneral-Regular-22ee"/>
    </g>
   </g>
   <g id="text_8">
    <g id="patch_14">
     <path d="M 172.218571 134.16221 
C 174.921198 134.16221 177.513496 133.088445 179.424542 131.177399 
C 181.335588 129.266353 182.409353 126.674055 182.409353 123.971429 
C 182.409353 121.268802 181.335588 118.676504 179.424542 116.765458 
C 177.513496 114.854412 174.921198 113.780647 172.218571 113.780647 
C 169.515945 113.780647 166.923647 114.854412 165.012601 116.765458 
C 163.101555 118.676504 162.02779 121.268802 162.02779 123.971429 
C 162.02779 126.674055 163.101555 129.266353 165.012601 131.177399 
C 166.923647 133.088445 169.515945 134.16221 172.218571 134.16221 
z
" style="fill:#ffffff;stroke:#000000;stroke-linejoin:miter;"/>
    </g>
    <!--   -->
    <g transform="translate(170.15279 127.558616)scale(0.13 -0.13)">
     <use xlink:href="#DejaVuSans-20"/>
    </g>
   </g>
   <g id="patch_15">
    <path d="M 160.360158 121.336133 
Q 145.647085 98.085623 130.336161 73.890352 
" style="fill:none;stroke:#000000;stroke-linecap:round;"/>
    <path d="M 159.776592 115.551718 
L 160.360158 121.336133 
L 155.382487 118.332337 
" style="fill:none;stroke:#000000;stroke-linecap:round;"/>
   </g>
   <g id="text_9">
    <g id="patch_16">
     <path d="M 225.361429 82.390781 
C 228.064055 82.390781 230.656353 81.317016 232.567399 79.405971 
C 234.478445 77.494925 235.55221 74.902627 235.55221 72.2 
C 235.55221 69.497373 234.478445 66.905075 232.567399 64.994029 
C 230.656353 63.082984 228.064055 62.009219 225.361429 62.009219 
C 222.658802 62.009219 220.066504 63.082984 218.155458 64.994029 
C 216.244412 66.905075 215.170647 69.497373 215.170647 72.2 
C 215.170647 74.902627 216.244412 77.494925 218.155458 79.405971 
C 220.066504 81.317016 222.658802 82.390781 225.361429 82.390781 
z
" style="fill:#ffffff;"/>
    </g>
    <!-- $n$ -->
    <g transform="translate(221.396429 75.787188)scale(0.13 -0.13)">
     <defs>
      <path d="M 494 109 
Q 494 147 500 166 
L 978 2075 
Q 1025 2253 1025 2388 
Q 1025 2663 838 2663 
Q 638 2663 541 2423 
Q 444 2184 353 1819 
Q 353 1800 334 1789 
Q 316 1778 300 1778 
L 225 1778 
Q 203 1778 187 1801 
Q 172 1825 172 1844 
Q 241 2122 305 2315 
Q 369 2509 505 2668 
Q 641 2828 844 2828 
Q 1084 2828 1268 2676 
Q 1453 2525 1453 2291 
Q 1644 2541 1900 2684 
Q 2156 2828 2444 2828 
Q 2672 2828 2837 2750 
Q 3003 2672 3095 2514 
Q 3188 2356 3188 2138 
Q 3188 1875 3070 1503 
Q 2953 1131 2778 672 
Q 2688 463 2688 288 
Q 2688 97 2834 97 
Q 3084 97 3251 365 
Q 3419 634 3488 941 
Q 3500 978 3541 978 
L 3616 978 
Q 3641 978 3658 962 
Q 3675 947 3675 922 
Q 3675 916 3669 903 
Q 3581 541 3364 234 
Q 3147 -72 2822 -72 
Q 2597 -72 2437 83 
Q 2278 238 2278 459 
Q 2278 578 2328 709 
Q 2409 919 2514 1209 
Q 2619 1500 2686 1765 
Q 2753 2031 2753 2234 
Q 2753 2413 2679 2538 
Q 2606 2663 2431 2663 
Q 2197 2663 2000 2559 
Q 1803 2456 1656 2286 
Q 1509 2116 1388 1881 
L 953 141 
Q 931 53 854 -9 
Q 778 -72 684 -72 
Q 606 -72 550 -22 
Q 494 28 494 109 
z
" id="Cmmi10-6e" transform="scale(0.015625)"/>
     </defs>
     <use transform="translate(0 0.8125)" xlink:href="#Cmmi10-6e"/>
    </g>
   </g>
   <g id="patch_17">
    <path d="M 213.167057 72.2 
Q 207.788589 72.2 202.410121 72.2 
M 199.810121 7.2 
L 202.410121 7.2 
L 202.410121 137.2 
L 199.810121 137.2 
" style="fill:none;stroke:#000000;stroke-linecap:round;"/>
   </g>
  </g>
 </g>
</svg>
