<?xml version="1.0" encoding="utf-8" standalone="no"?>
<!DOCTYPE svg PUBLIC "-//W3C//DTD SVG 1.1//EN"
  "http://www.w3.org/Graphics/SVG/1.1/DTD/svg11.dtd">
<svg height="154.387812pt" version="1.1" viewBox="0 0 477.077358 154.387812" width="477.077358pt" xmlns="http://www.w3.org/2000/svg" xmlns:xlink="http://www.w3.org/1999/xlink">
 <metadata>
  <rdf:RDF xmlns:cc="http://creativecommons.org/ns#" xmlns:dc="http://purl.org/dc/elements/1.1/" xmlns:rdf="http://www.w3.org/1999/02/22-rdf-syntax-ns#">
   <cc:Work>
    <dc:type rdf:resource="http://purl.org/dc/dcmitype/StillImage"/>
    <dc:date>2021-10-02T10:35:48.804977</dc:date>
    <dc:format>image/svg+xml</dc:format>
    <dc:creator>
     <cc:Agent>
      <dc:title>Matplotlib v3.4.3, https://matplotlib.org/</dc:title>
     </cc:Agent>
    </dc:creator>
   </cc:Work>
  </rdf:RDF>
 </metadata>
 <defs>
  <style type="text/css">*{stroke-linecap:butt;stroke-linejoin:round;}</style>
 </defs>
 <g id="figure_1">
  <g id="patch_1">
   <path d="M 0 154.387812 
L 477.077358 154.387812 
L 477.077358 0 
L 0 0 
z
" style="fill:none;"/>
  </g>
  <g id="axes_1">
   <g id="text_1">
    <g id="patch_2">
     <path d="M 20.655 23.681563 
L 43.145 23.681563 
Q 47.045 23.681563 47.045 19.781563 
L 47.045 7.2 
Q 47.045 3.3 43.145 3.3 
L 20.655 3.3 
Q 16.755 3.3 16.755 7.2 
L 16.755 19.781563 
Q 16.755 23.681563 20.655 23.681563 
z
" style="fill:none;"/>
    </g>
    <!-- $\mathrm{The}$ -->
    <g transform="translate(20.655 17.077969)scale(0.13 -0.13)">
     <defs>
      <path d="M 1081 0 
L 1081 225 
Q 1403 225 1706 261 
Q 2009 297 2009 428 
L 2009 3944 
Q 2009 4081 1932 4114 
Q 1856 4147 1684 4147 
L 1416 4147 
Q 888 4147 666 3916 
Q 550 3800 500 3545 
Q 450 3291 416 2906 
L 231 2906 
L 353 4372 
L 4263 4372 
L 4384 2906 
L 4197 2906 
Q 4159 3319 4114 3561 
Q 4069 3803 3950 3916 
Q 3725 4147 3200 4147 
L 2931 4147 
Q 2816 4147 2752 4137 
Q 2688 4128 2647 4083 
Q 2606 4038 2606 3944 
L 2606 428 
Q 2606 297 2909 261 
Q 3213 225 3531 225 
L 3531 0 
L 1081 0 
z
" id="Cmr10-54" transform="scale(0.015625)"/>
      <path d="M 191 0 
L 191 225 
Q 409 225 550 259 
Q 691 294 691 428 
L 691 3788 
Q 691 3959 639 4036 
Q 588 4113 491 4130 
Q 394 4147 191 4147 
L 191 4372 
L 1141 4441 
L 1141 2241 
Q 1275 2506 1515 2667 
Q 1756 2828 2047 2828 
Q 2491 2828 2714 2615 
Q 2938 2403 2938 1966 
L 2938 428 
Q 2938 294 3078 259 
Q 3219 225 3438 225 
L 3438 0 
L 1972 0 
L 1972 225 
Q 2191 225 2331 259 
Q 2472 294 2472 428 
L 2472 1947 
Q 2472 2259 2381 2461 
Q 2291 2663 2009 2663 
Q 1638 2663 1398 2366 
Q 1159 2069 1159 1691 
L 1159 428 
Q 1159 294 1300 259 
Q 1441 225 1656 225 
L 1656 0 
L 191 0 
z
" id="Cmr10-68" transform="scale(0.015625)"/>
      <path d="M 1594 -72 
Q 1203 -72 876 133 
Q 550 338 364 680 
Q 178 1022 178 1403 
Q 178 1778 348 2115 
Q 519 2453 823 2661 
Q 1128 2869 1503 2869 
Q 1797 2869 2014 2770 
Q 2231 2672 2372 2497 
Q 2513 2322 2584 2084 
Q 2656 1847 2656 1563 
Q 2656 1478 2591 1478 
L 738 1478 
L 738 1409 
Q 738 878 952 497 
Q 1166 116 1650 116 
Q 1847 116 2014 203 
Q 2181 291 2304 447 
Q 2428 603 2472 781 
Q 2478 803 2495 820 
Q 2513 838 2534 838 
L 2591 838 
Q 2656 838 2656 756 
Q 2566 394 2266 161 
Q 1966 -72 1594 -72 
z
M 744 1638 
L 2203 1638 
Q 2203 1878 2136 2125 
Q 2069 2372 1912 2536 
Q 1756 2700 1503 2700 
Q 1141 2700 942 2361 
Q 744 2022 744 1638 
z
" id="Cmr10-65" transform="scale(0.015625)"/>
     </defs>
     <use transform="translate(0 0.609375)" xlink:href="#Cmr10-54"/>
     <use transform="translate(72.216797 0.609375)" xlink:href="#Cmr10-68"/>
     <use transform="translate(127.734375 0.609375)" xlink:href="#Cmr10-65"/>
    </g>
   </g>
   <g id="text_2">
    <g id="patch_3">
     <path d="M 93.116415 23.681563 
L 139.136415 23.681563 
Q 143.036415 23.681563 143.036415 19.781563 
L 143.036415 7.2 
Q 143.036415 3.3 139.136415 3.3 
L 93.116415 3.3 
Q 89.216415 3.3 89.216415 7.2 
L 89.216415 19.781563 
Q 89.216415 23.681563 93.116415 23.681563 
z
" style="fill:none;"/>
    </g>
    <!--    $o_{8928}$   -->
    <g transform="translate(93.116415 17.077969)scale(0.13 -0.13)">
     <defs>
      <path id="DejaVuSans-20" transform="scale(0.015625)"/>
      <path d="M 1288 -72 
Q 984 -72 748 72 
Q 513 216 384 459 
Q 256 703 256 1013 
Q 256 1447 498 1872 
Q 741 2297 1142 2562 
Q 1544 2828 1984 2828 
Q 2222 2828 2408 2747 
Q 2594 2666 2731 2519 
Q 2869 2372 2942 2175 
Q 3016 1978 3016 1747 
Q 3016 1413 2875 1089 
Q 2734 766 2489 502 
Q 2244 238 1928 83 
Q 1613 -72 1288 -72 
z
M 1300 97 
Q 1584 97 1820 290 
Q 2056 484 2207 779 
Q 2359 1075 2440 1403 
Q 2522 1731 2522 1997 
Q 2522 2275 2383 2469 
Q 2244 2663 1972 2663 
Q 1597 2663 1315 2342 
Q 1034 2022 892 1576 
Q 750 1131 750 763 
Q 750 484 892 290 
Q 1034 97 1300 97 
z
" id="Cmmi10-6f" transform="scale(0.015625)"/>
      <path d="M 269 972 
Q 269 1356 522 1651 
Q 775 1947 1172 2144 
L 934 2297 
Q 716 2441 578 2680 
Q 441 2919 441 3181 
Q 441 3488 602 3734 
Q 763 3981 1030 4122 
Q 1297 4263 1600 4263 
Q 1884 4263 2148 4147 
Q 2413 4031 2583 3815 
Q 2753 3600 2753 3303 
Q 2753 3088 2651 2903 
Q 2550 2719 2373 2572 
Q 2197 2425 1997 2322 
L 2363 2088 
Q 2616 1922 2770 1653 
Q 2925 1384 2925 1088 
Q 2925 741 2739 456 
Q 2553 172 2247 15 
Q 1941 -141 1600 -141 
Q 1269 -141 961 -6 
Q 653 128 461 383 
Q 269 638 269 972 
z
M 616 972 
Q 616 719 755 509 
Q 894 300 1122 181 
Q 1350 63 1600 63 
Q 1972 63 2275 280 
Q 2578 497 2578 856 
Q 2578 978 2529 1098 
Q 2481 1219 2395 1317 
Q 2309 1416 2203 1478 
L 1344 2034 
Q 1144 1928 976 1765 
Q 809 1603 712 1400 
Q 616 1197 616 972 
z
M 1056 2925 
L 1831 2425 
Q 2100 2581 2272 2803 
Q 2444 3025 2444 3303 
Q 2444 3519 2323 3698 
Q 2203 3878 2009 3978 
Q 1816 4078 1594 4078 
Q 1400 4078 1203 4003 
Q 1006 3928 878 3779 
Q 750 3631 750 3431 
Q 750 3131 1056 2925 
z
" id="Cmr10-38" transform="scale(0.015625)"/>
      <path d="M 722 269 
Q 897 63 1331 63 
Q 1575 63 1786 228 
Q 1997 394 2113 634 
Q 2247 906 2284 1214 
Q 2322 1522 2322 1978 
Q 2213 1719 2008 1553 
Q 1803 1388 1538 1388 
Q 1166 1388 873 1589 
Q 581 1791 425 2120 
Q 269 2450 269 2822 
Q 269 3206 444 3539 
Q 619 3872 928 4067 
Q 1238 4263 1631 4263 
Q 2019 4263 2280 4052 
Q 2541 3841 2678 3508 
Q 2816 3175 2870 2803 
Q 2925 2431 2925 2069 
Q 2925 1575 2744 1061 
Q 2563 547 2202 203 
Q 1841 -141 1331 -141 
Q 953 -141 690 37 
Q 428 216 428 575 
Q 428 706 517 795 
Q 606 884 738 884 
Q 866 884 955 795 
Q 1044 706 1044 575 
Q 1044 450 953 359 
Q 863 269 738 269 
L 722 269 
z
M 1563 1556 
Q 1825 1556 1992 1732 
Q 2159 1909 2234 2171 
Q 2309 2434 2309 2694 
L 2309 2816 
L 2309 2841 
Q 2309 3322 2168 3700 
Q 2028 4078 1631 4078 
Q 1378 4078 1220 3967 
Q 1063 3856 988 3672 
Q 913 3488 892 3278 
Q 872 3069 872 2822 
Q 872 2459 906 2203 
Q 941 1947 1094 1751 
Q 1247 1556 1563 1556 
z
" id="Cmr10-39" transform="scale(0.015625)"/>
      <path d="M 319 0 
L 319 172 
Q 319 188 331 206 
L 1325 1306 
Q 1550 1550 1690 1715 
Q 1831 1881 1968 2097 
Q 2106 2313 2186 2536 
Q 2266 2759 2266 3009 
Q 2266 3272 2169 3511 
Q 2072 3750 1880 3894 
Q 1688 4038 1416 4038 
Q 1138 4038 916 3870 
Q 694 3703 603 3438 
Q 628 3444 672 3444 
Q 816 3444 917 3347 
Q 1019 3250 1019 3097 
Q 1019 2950 917 2848 
Q 816 2747 672 2747 
Q 522 2747 420 2851 
Q 319 2956 319 3097 
Q 319 3338 409 3548 
Q 500 3759 670 3923 
Q 841 4088 1055 4175 
Q 1269 4263 1509 4263 
Q 1875 4263 2190 4108 
Q 2506 3953 2690 3670 
Q 2875 3388 2875 3009 
Q 2875 2731 2753 2481 
Q 2631 2231 2440 2026 
Q 2250 1822 1953 1562 
Q 1656 1303 1563 1216 
L 838 519 
L 1453 519 
Q 1906 519 2211 526 
Q 2516 534 2534 550 
Q 2609 631 2688 1141 
L 2875 1141 
L 2694 0 
L 319 0 
z
" id="Cmr10-32" transform="scale(0.015625)"/>
     </defs>
     <use transform="translate(0 0.8125)" xlink:href="#DejaVuSans-20"/>
     <use transform="translate(31.787109 0.8125)" xlink:href="#DejaVuSans-20"/>
     <use transform="translate(63.574219 0.8125)" xlink:href="#DejaVuSans-20"/>
     <use transform="translate(95.361328 0.8125)" xlink:href="#Cmmi10-6f"/>
     <use transform="translate(143.75 -16.19375)scale(0.7)" xlink:href="#Cmr10-38"/>
     <use transform="translate(178.75 -16.19375)scale(0.7)" xlink:href="#Cmr10-39"/>
     <use transform="translate(213.75 -16.19375)scale(0.7)" xlink:href="#Cmr10-32"/>
     <use transform="translate(248.75 -16.19375)scale(0.7)" xlink:href="#Cmr10-38"/>
     <use transform="translate(290.127344 0.8125)" xlink:href="#DejaVuSans-20"/>
     <use transform="translate(321.914453 0.8125)" xlink:href="#DejaVuSans-20"/>
    </g>
   </g>
   <g id="text_3">
    <g id="patch_4">
     <path d="M 170.71283 23.681563 
L 229.99283 23.681563 
Q 233.89283 23.681563 233.89283 19.781563 
L 233.89283 7.2 
Q 233.89283 3.3 229.99283 3.3 
L 170.71283 3.3 
Q 166.81283 3.3 166.81283 7.2 
L 166.81283 19.781563 
Q 166.81283 23.681563 170.71283 23.681563 
z
" style="fill:none;"/>
    </g>
    <!--       $E$       -->
    <g transform="translate(170.71283 17.077969)scale(0.13 -0.13)">
     <defs>
      <path d="M 300 0 
Q 238 0 238 84 
Q 241 100 250 139 
Q 259 178 276 201 
Q 294 225 319 225 
Q 709 225 863 269 
Q 947 297 984 441 
L 1863 3956 
Q 1875 4019 1875 4044 
Q 1875 4113 1797 4122 
Q 1678 4147 1338 4147 
Q 1275 4147 1275 4231 
Q 1278 4247 1287 4286 
Q 1297 4325 1314 4348 
Q 1331 4372 1356 4372 
L 4825 4372 
Q 4891 4372 4891 4288 
L 4738 2963 
Q 4738 2947 4714 2926 
Q 4691 2906 4672 2906 
L 4616 2906 
Q 4550 2906 4550 2988 
Q 4588 3300 4588 3450 
Q 4588 3706 4500 3848 
Q 4413 3991 4267 4053 
Q 4122 4116 3945 4131 
Q 3769 4147 3481 4147 
L 2753 4147 
Q 2578 4147 2522 4117 
Q 2466 4088 2419 3928 
L 2034 2381 
L 2534 2381 
Q 2859 2381 3025 2426 
Q 3191 2472 3287 2615 
Q 3384 2759 3463 3072 
Q 3469 3094 3486 3111 
Q 3503 3128 3525 3128 
L 3584 3128 
Q 3647 3128 3647 3047 
L 3250 1466 
Q 3238 1409 3188 1409 
L 3128 1409 
Q 3066 1409 3066 1491 
Q 3128 1747 3128 1869 
Q 3128 2056 2959 2106 
Q 2791 2156 2509 2156 
L 1978 2156 
L 1544 416 
Q 1516 338 1516 275 
Q 1516 225 1734 225 
L 2509 225 
Q 2972 225 3259 297 
Q 3547 369 3736 526 
Q 3925 684 4062 928 
Q 4200 1172 4397 1638 
Q 4409 1678 4453 1678 
L 4513 1678 
Q 4538 1678 4556 1656 
Q 4575 1634 4575 1606 
Q 4575 1594 4569 1581 
L 3909 38 
Q 3897 0 3859 0 
L 300 0 
z
" id="Cmmi10-45" transform="scale(0.015625)"/>
     </defs>
     <use transform="translate(0 0.6875)" xlink:href="#DejaVuSans-20"/>
     <use transform="translate(31.787109 0.6875)" xlink:href="#DejaVuSans-20"/>
     <use transform="translate(63.574219 0.6875)" xlink:href="#DejaVuSans-20"/>
     <use transform="translate(95.361328 0.6875)" xlink:href="#DejaVuSans-20"/>
     <use transform="translate(127.148438 0.6875)" xlink:href="#DejaVuSans-20"/>
     <use transform="translate(158.935547 0.6875)" xlink:href="#DejaVuSans-20"/>
     <use transform="translate(190.722656 0.6875)" xlink:href="#Cmmi10-45"/>
     <use transform="translate(264.501953 0.6875)" xlink:href="#DejaVuSans-20"/>
     <use transform="translate(296.289062 0.6875)" xlink:href="#DejaVuSans-20"/>
     <use transform="translate(328.076172 0.6875)" xlink:href="#DejaVuSans-20"/>
     <use transform="translate(359.863281 0.6875)" xlink:href="#DejaVuSans-20"/>
     <use transform="translate(391.650391 0.6875)" xlink:href="#DejaVuSans-20"/>
     <use transform="translate(423.4375 0.6875)" xlink:href="#DejaVuSans-20"/>
    </g>
   </g>
   <g id="patch_5">
    <path d="M 163.695046 13.490781 
Q 154.925592 13.490781 145.038103 13.490781 
" style="fill:none;stroke:#000000;stroke-linecap:round;"/>
    <path d="M 158.495046 10.890781 
L 163.695046 13.490781 
L 158.495046 16.090781 
" style="fill:none;stroke:#000000;stroke-linecap:round;"/>
   </g>
   <g id="text_4">
    <g id="patch_6">
     <path d="M 261.699245 23.681563 
L 307.459245 23.681563 
Q 311.359245 23.681563 311.359245 19.781563 
L 311.359245 7.2 
Q 311.359245 3.3 307.459245 3.3 
L 261.699245 3.3 
Q 257.799245 3.3 257.799245 7.2 
L 257.799245 19.781563 
Q 257.799245 23.681563 261.699245 23.681563 
z
" style="fill:none;"/>
    </g>
    <!--    $e_{8928}$   -->
    <g transform="translate(261.699245 17.077969)scale(0.13 -0.13)">
     <defs>
      <path d="M 1288 -72 
Q 981 -72 751 87 
Q 522 247 401 517 
Q 281 788 281 1088 
Q 281 1544 511 1945 
Q 741 2347 1134 2587 
Q 1528 2828 1978 2828 
Q 2253 2828 2458 2686 
Q 2663 2544 2663 2278 
Q 2663 1909 2369 1729 
Q 2075 1550 1706 1508 
Q 1338 1466 891 1466 
L 872 1466 
Q 769 1084 769 813 
Q 769 528 900 312 
Q 1031 97 1300 97 
Q 1681 97 2032 272 
Q 2384 447 2606 756 
Q 2625 775 2656 775 
Q 2688 775 2720 739 
Q 2753 703 2753 672 
Q 2753 647 2741 634 
Q 2506 306 2109 117 
Q 1713 -72 1288 -72 
z
M 909 1631 
Q 1281 1631 1597 1665 
Q 1913 1700 2169 1839 
Q 2425 1978 2425 2272 
Q 2425 2391 2359 2480 
Q 2294 2569 2189 2616 
Q 2084 2663 1972 2663 
Q 1700 2663 1483 2516 
Q 1266 2369 1125 2133 
Q 984 1897 909 1631 
z
" id="Cmmi10-65" transform="scale(0.015625)"/>
     </defs>
     <use transform="translate(0 0.8125)" xlink:href="#DejaVuSans-20"/>
     <use transform="translate(31.787109 0.8125)" xlink:href="#DejaVuSans-20"/>
     <use transform="translate(63.574219 0.8125)" xlink:href="#DejaVuSans-20"/>
     <use transform="translate(95.361328 0.8125)" xlink:href="#Cmmi10-65"/>
     <use transform="translate(141.845703 -16.19375)scale(0.7)" xlink:href="#Cmr10-38"/>
     <use transform="translate(176.845703 -16.19375)scale(0.7)" xlink:href="#Cmr10-39"/>
     <use transform="translate(211.845703 -16.19375)scale(0.7)" xlink:href="#Cmr10-32"/>
     <use transform="translate(246.845703 -16.19375)scale(0.7)" xlink:href="#Cmr10-38"/>
     <use transform="translate(288.223047 0.8125)" xlink:href="#DejaVuSans-20"/>
     <use transform="translate(320.010156 0.8125)" xlink:href="#DejaVuSans-20"/>
    </g>
   </g>
   <g id="patch_7">
    <path d="M 254.682201 13.490781 
Q 245.845362 13.490781 235.89049 13.490781 
" style="fill:none;stroke:#000000;stroke-linecap:round;"/>
    <path d="M 249.482201 10.890781 
L 254.682201 13.490781 
L 249.482201 16.090781 
" style="fill:none;stroke:#000000;stroke-linecap:round;"/>
   </g>
   <g id="text_5">
    <g id="patch_8">
     <path d="M 12.27 66.150312 
L 51.53 66.150312 
Q 55.43 66.150312 55.43 62.250312 
L 55.43 49.66875 
Q 55.43 45.76875 51.53 45.76875 
L 12.27 45.76875 
Q 8.37 45.76875 8.37 49.66875 
L 8.37 62.250312 
Q 8.37 66.150312 12.27 66.150312 
z
" style="fill:none;"/>
    </g>
    <!-- $\mathrm{dessert}$ -->
    <g transform="translate(12.27 59.546719)scale(0.13 -0.13)">
     <defs>
      <path d="M 1563 -72 
Q 1184 -72 871 133 
Q 559 338 386 672 
Q 213 1006 213 1381 
Q 213 1769 402 2101 
Q 591 2434 916 2631 
Q 1241 2828 1631 2828 
Q 1866 2828 2075 2729 
Q 2284 2631 2438 2456 
L 2438 3788 
Q 2438 3959 2386 4036 
Q 2334 4113 2239 4130 
Q 2144 4147 1941 4147 
L 1941 4372 
L 2888 4441 
L 2888 581 
Q 2888 413 2939 336 
Q 2991 259 3086 242 
Q 3181 225 3384 225 
L 3384 0 
L 2419 -72 
L 2419 331 
Q 2253 141 2025 34 
Q 1797 -72 1563 -72 
z
M 909 556 
Q 1019 347 1201 222 
Q 1384 97 1600 97 
Q 1866 97 2087 250 
Q 2309 403 2419 647 
L 2419 2181 
Q 2344 2322 2230 2433 
Q 2116 2544 1973 2603 
Q 1831 2663 1672 2663 
Q 1338 2663 1134 2473 
Q 931 2284 850 1990 
Q 769 1697 769 1375 
Q 769 1119 795 928 
Q 822 738 909 556 
z
" id="Cmr10-64" transform="scale(0.015625)"/>
      <path d="M 213 -19 
L 213 1025 
Q 213 1075 269 1075 
L 347 1075 
Q 384 1075 397 1025 
Q 575 97 1259 97 
Q 1563 97 1767 234 
Q 1972 372 1972 659 
Q 1972 866 1812 1011 
Q 1653 1156 1434 1209 
L 1006 1294 
Q 791 1341 614 1437 
Q 438 1534 325 1695 
Q 213 1856 213 2069 
Q 213 2350 361 2529 
Q 509 2709 746 2789 
Q 984 2869 1259 2869 
Q 1588 2869 1831 2694 
L 2016 2853 
Q 2016 2869 2047 2869 
L 2094 2869 
Q 2113 2869 2128 2851 
Q 2144 2834 2144 2816 
L 2144 1978 
Q 2144 1919 2094 1919 
L 2016 1919 
Q 1959 1919 1959 1978 
Q 1959 2313 1773 2516 
Q 1588 2719 1253 2719 
Q 966 2719 755 2612 
Q 544 2506 544 2247 
Q 544 2069 695 1955 
Q 847 1841 1050 1791 
L 1484 1709 
Q 1703 1659 1892 1540 
Q 2081 1422 2192 1240 
Q 2303 1059 2303 831 
Q 2303 600 2223 429 
Q 2144 259 2001 146 
Q 1859 34 1665 -19 
Q 1472 -72 1259 -72 
Q 859 -72 575 197 
L 341 -56 
Q 341 -72 306 -72 
L 269 -72 
Q 213 -72 213 -19 
z
" id="Cmr10-73" transform="scale(0.015625)"/>
      <path d="M 166 0 
L 166 225 
Q 384 225 525 259 
Q 666 294 666 428 
L 666 2175 
Q 666 2347 614 2423 
Q 563 2500 466 2517 
Q 369 2534 166 2534 
L 166 2759 
L 1081 2828 
L 1081 2203 
Q 1184 2481 1375 2654 
Q 1566 2828 1838 2828 
Q 2028 2828 2178 2715 
Q 2328 2603 2328 2419 
Q 2328 2303 2245 2217 
Q 2163 2131 2041 2131 
Q 1922 2131 1837 2215 
Q 1753 2300 1753 2419 
Q 1753 2591 1875 2663 
L 1838 2663 
Q 1578 2663 1414 2475 
Q 1250 2288 1181 2009 
Q 1113 1731 1113 1478 
L 1113 428 
Q 1113 225 1734 225 
L 1734 0 
L 166 0 
z
" id="Cmr10-72" transform="scale(0.015625)"/>
      <path d="M 653 769 
L 653 2534 
L 122 2534 
L 122 2700 
Q 541 2700 737 3090 
Q 934 3481 934 3938 
L 1119 3938 
L 1119 2759 
L 2022 2759 
L 2022 2534 
L 1119 2534 
L 1119 781 
Q 1119 516 1208 316 
Q 1297 116 1528 116 
Q 1747 116 1844 327 
Q 1941 538 1941 781 
L 1941 1159 
L 2125 1159 
L 2125 769 
Q 2125 569 2051 373 
Q 1978 178 1834 53 
Q 1691 -72 1484 -72 
Q 1100 -72 876 158 
Q 653 388 653 769 
z
" id="Cmr10-74" transform="scale(0.015625)"/>
     </defs>
     <use transform="translate(0 0.609375)" xlink:href="#Cmr10-64"/>
     <use transform="translate(55.517578 0.609375)" xlink:href="#Cmr10-65"/>
     <use transform="translate(99.902344 0.609375)" xlink:href="#Cmr10-73"/>
     <use transform="translate(139.306641 0.609375)" xlink:href="#Cmr10-73"/>
     <use transform="translate(178.710938 0.609375)" xlink:href="#Cmr10-65"/>
     <use transform="translate(223.095703 0.609375)" xlink:href="#Cmr10-72"/>
     <use transform="translate(262.207031 0.609375)" xlink:href="#Cmr10-74"/>
    </g>
   </g>
   <g id="text_6">
    <g id="patch_9">
     <path d="M 93.116415 66.150312 
L 139.136415 66.150312 
Q 143.036415 66.150312 143.036415 62.250312 
L 143.036415 49.66875 
Q 143.036415 45.76875 139.136415 45.76875 
L 93.116415 45.76875 
Q 89.216415 45.76875 89.216415 49.66875 
L 89.216415 62.250312 
Q 89.216415 66.150312 93.116415 66.150312 
z
" style="fill:none;"/>
    </g>
    <!--    $o_{2468}$   -->
    <g transform="translate(93.116415 59.546719)scale(0.13 -0.13)">
     <defs>
      <path d="M 178 1056 
L 178 1281 
L 2156 4231 
Q 2178 4263 2222 4263 
L 2316 4263 
Q 2388 4263 2388 4191 
L 2388 1281 
L 3016 1281 
L 3016 1056 
L 2388 1056 
L 2388 428 
Q 2388 297 2575 261 
Q 2763 225 3009 225 
L 3009 0 
L 1247 0 
L 1247 225 
Q 1494 225 1681 261 
Q 1869 297 1869 428 
L 1869 1056 
L 178 1056 
z
M 391 1281 
L 1906 1281 
L 1906 3547 
L 391 1281 
z
" id="Cmr10-34" transform="scale(0.015625)"/>
      <path d="M 1600 -141 
Q 1203 -141 937 70 
Q 672 281 526 617 
Q 381 953 325 1322 
Q 269 1691 269 2069 
Q 269 2575 466 3084 
Q 663 3594 1045 3928 
Q 1428 4263 1953 4263 
Q 2172 4263 2361 4180 
Q 2550 4097 2658 3936 
Q 2766 3775 2766 3547 
Q 2766 3416 2677 3327 
Q 2588 3238 2456 3238 
Q 2331 3238 2240 3328 
Q 2150 3419 2150 3547 
Q 2150 3672 2240 3762 
Q 2331 3853 2456 3853 
L 2491 3853 
Q 2409 3969 2261 4023 
Q 2113 4078 1953 4078 
Q 1759 4078 1595 3993 
Q 1431 3909 1300 3765 
Q 1169 3622 1081 3448 
Q 994 3275 945 3053 
Q 897 2831 884 2637 
Q 872 2444 872 2150 
Q 984 2413 1190 2580 
Q 1397 2747 1656 2747 
Q 1941 2747 2175 2631 
Q 2409 2516 2578 2311 
Q 2747 2106 2836 1843 
Q 2925 1581 2925 1313 
Q 2925 938 2758 598 
Q 2591 259 2287 59 
Q 1984 -141 1600 -141 
z
M 1600 63 
Q 1847 63 1997 175 
Q 2147 288 2217 473 
Q 2288 659 2305 848 
Q 2322 1038 2322 1313 
Q 2322 1675 2287 1931 
Q 2253 2188 2100 2383 
Q 1947 2578 1631 2578 
Q 1372 2578 1205 2403 
Q 1038 2228 961 1961 
Q 884 1694 884 1447 
Q 884 1363 891 1319 
Q 891 1309 889 1303 
Q 888 1297 884 1288 
Q 884 1013 940 731 
Q 997 450 1156 256 
Q 1316 63 1600 63 
z
" id="Cmr10-36" transform="scale(0.015625)"/>
     </defs>
     <use transform="translate(0 0.8125)" xlink:href="#DejaVuSans-20"/>
     <use transform="translate(31.787109 0.8125)" xlink:href="#DejaVuSans-20"/>
     <use transform="translate(63.574219 0.8125)" xlink:href="#DejaVuSans-20"/>
     <use transform="translate(95.361328 0.8125)" xlink:href="#Cmmi10-6f"/>
     <use transform="translate(143.75 -16.19375)scale(0.7)" xlink:href="#Cmr10-32"/>
     <use transform="translate(178.75 -16.19375)scale(0.7)" xlink:href="#Cmr10-34"/>
     <use transform="translate(213.75 -16.19375)scale(0.7)" xlink:href="#Cmr10-36"/>
     <use transform="translate(248.75 -16.19375)scale(0.7)" xlink:href="#Cmr10-38"/>
     <use transform="translate(290.127344 0.8125)" xlink:href="#DejaVuSans-20"/>
     <use transform="translate(321.914453 0.8125)" xlink:href="#DejaVuSans-20"/>
    </g>
   </g>
   <g id="text_7">
    <g id="patch_10">
     <path d="M 170.71283 66.150312 
L 229.99283 66.150312 
Q 233.89283 66.150312 233.89283 62.250312 
L 233.89283 49.66875 
Q 233.89283 45.76875 229.99283 45.76875 
L 170.71283 45.76875 
Q 166.81283 45.76875 166.81283 49.66875 
L 166.81283 62.250312 
Q 166.81283 66.150312 170.71283 66.150312 
z
" style="fill:none;"/>
    </g>
    <!--       $E$       -->
    <g transform="translate(170.71283 59.546719)scale(0.13 -0.13)">
     <use transform="translate(0 0.6875)" xlink:href="#DejaVuSans-20"/>
     <use transform="translate(31.787109 0.6875)" xlink:href="#DejaVuSans-20"/>
     <use transform="translate(63.574219 0.6875)" xlink:href="#DejaVuSans-20"/>
     <use transform="translate(95.361328 0.6875)" xlink:href="#DejaVuSans-20"/>
     <use transform="translate(127.148438 0.6875)" xlink:href="#DejaVuSans-20"/>
     <use transform="translate(158.935547 0.6875)" xlink:href="#DejaVuSans-20"/>
     <use transform="translate(190.722656 0.6875)" xlink:href="#Cmmi10-45"/>
     <use transform="translate(264.501953 0.6875)" xlink:href="#DejaVuSans-20"/>
     <use transform="translate(296.289062 0.6875)" xlink:href="#DejaVuSans-20"/>
     <use transform="translate(328.076172 0.6875)" xlink:href="#DejaVuSans-20"/>
     <use transform="translate(359.863281 0.6875)" xlink:href="#DejaVuSans-20"/>
     <use transform="translate(391.650391 0.6875)" xlink:href="#DejaVuSans-20"/>
     <use transform="translate(423.4375 0.6875)" xlink:href="#DejaVuSans-20"/>
    </g>
   </g>
   <g id="patch_11">
    <path d="M 163.695046 55.959531 
Q 154.925592 55.959531 145.038103 55.959531 
" style="fill:none;stroke:#000000;stroke-linecap:round;"/>
    <path d="M 158.495046 53.359531 
L 163.695046 55.959531 
L 158.495046 58.559531 
" style="fill:none;stroke:#000000;stroke-linecap:round;"/>
   </g>
   <g id="text_8">
    <g id="patch_12">
     <path d="M 261.699245 66.150312 
L 307.459245 66.150312 
Q 311.359245 66.150312 311.359245 62.250312 
L 311.359245 49.66875 
Q 311.359245 45.76875 307.459245 45.76875 
L 261.699245 45.76875 
Q 257.799245 45.76875 257.799245 49.66875 
L 257.799245 62.250312 
Q 257.799245 66.150312 261.699245 66.150312 
z
" style="fill:none;"/>
    </g>
    <!--    $e_{2468}$   -->
    <g transform="translate(261.699245 59.546719)scale(0.13 -0.13)">
     <use transform="translate(0 0.8125)" xlink:href="#DejaVuSans-20"/>
     <use transform="translate(31.787109 0.8125)" xlink:href="#DejaVuSans-20"/>
     <use transform="translate(63.574219 0.8125)" xlink:href="#DejaVuSans-20"/>
     <use transform="translate(95.361328 0.8125)" xlink:href="#Cmmi10-65"/>
     <use transform="translate(141.845703 -16.19375)scale(0.7)" xlink:href="#Cmr10-32"/>
     <use transform="translate(176.845703 -16.19375)scale(0.7)" xlink:href="#Cmr10-34"/>
     <use transform="translate(211.845703 -16.19375)scale(0.7)" xlink:href="#Cmr10-36"/>
     <use transform="translate(246.845703 -16.19375)scale(0.7)" xlink:href="#Cmr10-38"/>
     <use transform="translate(288.223047 0.8125)" xlink:href="#DejaVuSans-20"/>
     <use transform="translate(320.010156 0.8125)" xlink:href="#DejaVuSans-20"/>
    </g>
   </g>
   <g id="patch_13">
    <path d="M 254.682201 55.959531 
Q 245.845362 55.959531 235.89049 55.959531 
" style="fill:none;stroke:#000000;stroke-linecap:round;"/>
    <path d="M 249.482201 53.359531 
L 254.682201 55.959531 
L 249.482201 58.559531 
" style="fill:none;stroke:#000000;stroke-linecap:round;"/>
   </g>
   <g id="text_9">
    <g id="patch_14">
     <path d="M 27.48 108.619062 
L 36.32 108.619062 
Q 40.22 108.619062 40.22 104.719062 
L 40.22 92.1375 
Q 40.22 88.2375 36.32 88.2375 
L 27.48 88.2375 
Q 23.58 88.2375 23.58 92.1375 
L 23.58 104.719062 
Q 23.58 108.619062 27.48 108.619062 
z
" style="fill:none;"/>
    </g>
    <!-- $\mathrm{is}$ -->
    <g transform="translate(27.48 102.015469)scale(0.13 -0.13)">
     <defs>
      <path d="M 197 0 
L 197 225 
Q 416 225 556 259 
Q 697 294 697 428 
L 697 2175 
Q 697 2422 601 2478 
Q 506 2534 225 2534 
L 225 2759 
L 1147 2828 
L 1147 428 
Q 1147 294 1269 259 
Q 1391 225 1594 225 
L 1594 0 
L 197 0 
z
M 469 3928 
Q 469 4069 575 4175 
Q 681 4281 819 4281 
Q 909 4281 993 4234 
Q 1078 4188 1125 4103 
Q 1172 4019 1172 3928 
Q 1172 3791 1065 3684 
Q 959 3578 819 3578 
Q 681 3578 575 3684 
Q 469 3791 469 3928 
z
" id="Cmr10-69" transform="scale(0.015625)"/>
     </defs>
     <use transform="translate(0 0.109375)" xlink:href="#Cmr10-69"/>
     <use transform="translate(27.685547 0.109375)" xlink:href="#Cmr10-73"/>
    </g>
   </g>
   <g id="text_10">
    <g id="patch_15">
     <path d="M 93.116415 108.619062 
L 139.136415 108.619062 
Q 143.036415 108.619062 143.036415 104.719062 
L 143.036415 92.1375 
Q 143.036415 88.2375 139.136415 88.2375 
L 93.116415 88.2375 
Q 89.216415 88.2375 89.216415 92.1375 
L 89.216415 104.719062 
Q 89.216415 108.619062 93.116415 108.619062 
z
" style="fill:none;"/>
    </g>
    <!--    $o_{4694}$   -->
    <g transform="translate(93.116415 102.015469)scale(0.13 -0.13)">
     <use transform="translate(0 0.8125)" xlink:href="#DejaVuSans-20"/>
     <use transform="translate(31.787109 0.8125)" xlink:href="#DejaVuSans-20"/>
     <use transform="translate(63.574219 0.8125)" xlink:href="#DejaVuSans-20"/>
     <use transform="translate(95.361328 0.8125)" xlink:href="#Cmmi10-6f"/>
     <use transform="translate(143.75 -16.19375)scale(0.7)" xlink:href="#Cmr10-34"/>
     <use transform="translate(178.75 -16.19375)scale(0.7)" xlink:href="#Cmr10-36"/>
     <use transform="translate(213.75 -16.19375)scale(0.7)" xlink:href="#Cmr10-39"/>
     <use transform="translate(248.75 -16.19375)scale(0.7)" xlink:href="#Cmr10-34"/>
     <use transform="translate(290.127344 0.8125)" xlink:href="#DejaVuSans-20"/>
     <use transform="translate(321.914453 0.8125)" xlink:href="#DejaVuSans-20"/>
    </g>
   </g>
   <g id="text_11">
    <g id="patch_16">
     <path d="M 170.71283 108.619062 
L 229.99283 108.619062 
Q 233.89283 108.619062 233.89283 104.719062 
L 233.89283 92.1375 
Q 233.89283 88.2375 229.99283 88.2375 
L 170.71283 88.2375 
Q 166.81283 88.2375 166.81283 92.1375 
L 166.81283 104.719062 
Q 166.81283 108.619062 170.71283 108.619062 
z
" style="fill:none;"/>
    </g>
    <!--       $E$       -->
    <g transform="translate(170.71283 102.015469)scale(0.13 -0.13)">
     <use transform="translate(0 0.6875)" xlink:href="#DejaVuSans-20"/>
     <use transform="translate(31.787109 0.6875)" xlink:href="#DejaVuSans-20"/>
     <use transform="translate(63.574219 0.6875)" xlink:href="#DejaVuSans-20"/>
     <use transform="translate(95.361328 0.6875)" xlink:href="#DejaVuSans-20"/>
     <use transform="translate(127.148438 0.6875)" xlink:href="#DejaVuSans-20"/>
     <use transform="translate(158.935547 0.6875)" xlink:href="#DejaVuSans-20"/>
     <use transform="translate(190.722656 0.6875)" xlink:href="#Cmmi10-45"/>
     <use transform="translate(264.501953 0.6875)" xlink:href="#DejaVuSans-20"/>
     <use transform="translate(296.289062 0.6875)" xlink:href="#DejaVuSans-20"/>
     <use transform="translate(328.076172 0.6875)" xlink:href="#DejaVuSans-20"/>
     <use transform="translate(359.863281 0.6875)" xlink:href="#DejaVuSans-20"/>
     <use transform="translate(391.650391 0.6875)" xlink:href="#DejaVuSans-20"/>
     <use transform="translate(423.4375 0.6875)" xlink:href="#DejaVuSans-20"/>
    </g>
   </g>
   <g id="patch_17">
    <path d="M 163.695046 98.428281 
Q 154.925592 98.428281 145.038103 98.428281 
" style="fill:none;stroke:#000000;stroke-linecap:round;"/>
    <path d="M 158.495046 95.828281 
L 163.695046 98.428281 
L 158.495046 101.028281 
" style="fill:none;stroke:#000000;stroke-linecap:round;"/>
   </g>
   <g id="text_12">
    <g id="patch_18">
     <path d="M 261.699245 108.619062 
L 307.459245 108.619062 
Q 311.359245 108.619062 311.359245 104.719062 
L 311.359245 92.1375 
Q 311.359245 88.2375 307.459245 88.2375 
L 261.699245 88.2375 
Q 257.799245 88.2375 257.799245 92.1375 
L 257.799245 104.719062 
Q 257.799245 108.619062 261.699245 108.619062 
z
" style="fill:none;"/>
    </g>
    <!--    $e_{4694}$   -->
    <g transform="translate(261.699245 102.015469)scale(0.13 -0.13)">
     <use transform="translate(0 0.8125)" xlink:href="#DejaVuSans-20"/>
     <use transform="translate(31.787109 0.8125)" xlink:href="#DejaVuSans-20"/>
     <use transform="translate(63.574219 0.8125)" xlink:href="#DejaVuSans-20"/>
     <use transform="translate(95.361328 0.8125)" xlink:href="#Cmmi10-65"/>
     <use transform="translate(141.845703 -16.19375)scale(0.7)" xlink:href="#Cmr10-34"/>
     <use transform="translate(176.845703 -16.19375)scale(0.7)" xlink:href="#Cmr10-36"/>
     <use transform="translate(211.845703 -16.19375)scale(0.7)" xlink:href="#Cmr10-39"/>
     <use transform="translate(246.845703 -16.19375)scale(0.7)" xlink:href="#Cmr10-34"/>
     <use transform="translate(288.223047 0.8125)" xlink:href="#DejaVuSans-20"/>
     <use transform="translate(320.010156 0.8125)" xlink:href="#DejaVuSans-20"/>
    </g>
   </g>
   <g id="patch_19">
    <path d="M 254.682201 98.428281 
Q 245.845362 98.428281 235.89049 98.428281 
" style="fill:none;stroke:#000000;stroke-linecap:round;"/>
    <path d="M 249.482201 95.828281 
L 254.682201 98.428281 
L 249.482201 101.028281 
" style="fill:none;stroke:#000000;stroke-linecap:round;"/>
   </g>
   <g id="text_13">
    <g id="patch_20">
     <path d="M 7.2 151.087813 
L 56.6 151.087813 
Q 60.5 151.087813 60.5 147.187813 
L 60.5 134.60625 
Q 60.5 130.70625 56.6 130.70625 
L 7.2 130.70625 
Q 3.3 130.70625 3.3 134.60625 
L 3.3 147.187813 
Q 3.3 151.087813 7.2 151.087813 
z
" style="fill:none;"/>
    </g>
    <!-- $\mathrm{excellent}$ -->
    <g transform="translate(7.2 144.484219)scale(0.13 -0.13)">
     <defs>
      <path d="M 78 0 
L 78 225 
Q 322 225 537 320 
Q 753 416 903 603 
L 1484 1344 
L 728 2328 
Q 616 2469 483 2501 
Q 350 2534 109 2534 
L 109 2759 
L 1441 2759 
L 1441 2534 
Q 1356 2534 1282 2496 
Q 1209 2459 1209 2388 
Q 1209 2363 1228 2328 
L 1741 1663 
L 2125 2156 
Q 2203 2250 2203 2344 
Q 2203 2422 2151 2478 
Q 2100 2534 2016 2534 
L 2016 2759 
L 3194 2759 
L 3194 2534 
Q 2947 2534 2730 2439 
Q 2513 2344 2363 2156 
L 1856 1509 
L 2675 428 
Q 2797 288 2928 256 
Q 3059 225 3303 225 
L 3303 0 
L 1972 0 
L 1972 225 
Q 2050 225 2122 262 
Q 2194 300 2194 372 
Q 2194 400 2175 428 
L 1600 1191 
L 1141 603 
Q 1069 522 1069 416 
Q 1069 338 1122 281 
Q 1175 225 1247 225 
L 1247 0 
L 78 0 
z
" id="Cmr10-78" transform="scale(0.015625)"/>
      <path d="M 1594 -72 
Q 1206 -72 890 129 
Q 575 331 394 667 
Q 213 1003 213 1381 
Q 213 1759 392 2106 
Q 572 2453 889 2661 
Q 1206 2869 1594 2869 
Q 1969 2869 2276 2722 
Q 2584 2575 2584 2241 
Q 2584 2116 2495 2023 
Q 2406 1931 2278 1931 
Q 2150 1931 2061 2023 
Q 1972 2116 1972 2241 
Q 1972 2353 2044 2436 
Q 2116 2519 2222 2541 
Q 2000 2681 1600 2681 
Q 1294 2681 1106 2478 
Q 919 2275 844 1975 
Q 769 1675 769 1381 
Q 769 1072 861 783 
Q 953 494 1158 305 
Q 1363 116 1672 116 
Q 1975 116 2187 302 
Q 2400 488 2478 788 
Q 2478 825 2528 825 
L 2606 825 
Q 2625 825 2640 808 
Q 2656 791 2656 769 
L 2656 750 
Q 2559 372 2271 150 
Q 1984 -72 1594 -72 
z
" id="Cmr10-63" transform="scale(0.015625)"/>
      <path d="M 197 0 
L 197 225 
Q 416 225 556 259 
Q 697 294 697 428 
L 697 3788 
Q 697 3959 645 4036 
Q 594 4113 497 4130 
Q 400 4147 197 4147 
L 197 4372 
L 1147 4441 
L 1147 428 
Q 1147 294 1287 259 
Q 1428 225 1644 225 
L 1644 0 
L 197 0 
z
" id="Cmr10-6c" transform="scale(0.015625)"/>
      <path d="M 191 0 
L 191 225 
Q 409 225 550 259 
Q 691 294 691 428 
L 691 2175 
Q 691 2347 639 2423 
Q 588 2500 491 2517 
Q 394 2534 191 2534 
L 191 2759 
L 1119 2828 
L 1119 2203 
Q 1247 2478 1498 2653 
Q 1750 2828 2047 2828 
Q 2491 2828 2714 2615 
Q 2938 2403 2938 1966 
L 2938 428 
Q 2938 294 3078 259 
Q 3219 225 3438 225 
L 3438 0 
L 1972 0 
L 1972 225 
Q 2191 225 2331 259 
Q 2472 294 2472 428 
L 2472 1947 
Q 2472 2259 2381 2461 
Q 2291 2663 2009 2663 
Q 1638 2663 1398 2366 
Q 1159 2069 1159 1691 
L 1159 428 
Q 1159 294 1300 259 
Q 1441 225 1656 225 
L 1656 0 
L 191 0 
z
" id="Cmr10-6e" transform="scale(0.015625)"/>
     </defs>
     <use transform="translate(0 0.609375)" xlink:href="#Cmr10-65"/>
     <use transform="translate(44.384766 0.609375)" xlink:href="#Cmr10-78"/>
     <use transform="translate(97.070312 0.609375)" xlink:href="#Cmr10-63"/>
     <use transform="translate(141.455078 0.609375)" xlink:href="#Cmr10-65"/>
     <use transform="translate(185.839844 0.609375)" xlink:href="#Cmr10-6c"/>
     <use transform="translate(213.525391 0.609375)" xlink:href="#Cmr10-6c"/>
     <use transform="translate(241.210938 0.609375)" xlink:href="#Cmr10-65"/>
     <use transform="translate(285.595703 0.609375)" xlink:href="#Cmr10-6e"/>
     <use transform="translate(341.113281 0.609375)" xlink:href="#Cmr10-74"/>
    </g>
   </g>
   <g id="text_14">
    <g id="patch_21">
     <path d="M 93.116415 151.087813 
L 139.136415 151.087813 
Q 143.036415 151.087813 143.036415 147.187813 
L 143.036415 134.60625 
Q 143.036415 130.70625 139.136415 130.70625 
L 93.116415 130.70625 
Q 89.216415 130.70625 89.216415 134.60625 
L 89.216415 147.187813 
Q 89.216415 151.087813 93.116415 151.087813 
z
" style="fill:none;"/>
    </g>
    <!--    $o_{3180}$   -->
    <g transform="translate(93.116415 144.484219)scale(0.13 -0.13)">
     <defs>
      <path d="M 609 494 
Q 759 275 1012 169 
Q 1266 63 1556 63 
Q 1928 63 2084 380 
Q 2241 697 2241 1100 
Q 2241 1281 2208 1462 
Q 2175 1644 2097 1800 
Q 2019 1956 1883 2050 
Q 1747 2144 1550 2144 
L 1125 2144 
Q 1069 2144 1069 2203 
L 1069 2259 
Q 1069 2309 1125 2309 
L 1478 2338 
Q 1703 2338 1851 2506 
Q 2000 2675 2069 2917 
Q 2138 3159 2138 3378 
Q 2138 3684 1994 3881 
Q 1850 4078 1556 4078 
Q 1313 4078 1091 3986 
Q 869 3894 738 3706 
Q 750 3709 759 3711 
Q 769 3713 781 3713 
Q 925 3713 1022 3613 
Q 1119 3513 1119 3372 
Q 1119 3234 1022 3134 
Q 925 3034 781 3034 
Q 641 3034 541 3134 
Q 441 3234 441 3372 
Q 441 3647 606 3850 
Q 772 4053 1033 4158 
Q 1294 4263 1556 4263 
Q 1750 4263 1965 4205 
Q 2181 4147 2356 4039 
Q 2531 3931 2642 3762 
Q 2753 3594 2753 3378 
Q 2753 3109 2633 2881 
Q 2513 2653 2303 2487 
Q 2094 2322 1844 2241 
Q 2122 2188 2372 2031 
Q 2622 1875 2773 1631 
Q 2925 1388 2925 1106 
Q 2925 753 2731 467 
Q 2538 181 2222 20 
Q 1906 -141 1556 -141 
Q 1256 -141 954 -26 
Q 653 88 461 316 
Q 269 544 269 863 
Q 269 1022 375 1128 
Q 481 1234 641 1234 
Q 744 1234 830 1186 
Q 916 1138 964 1050 
Q 1013 963 1013 863 
Q 1013 706 903 600 
Q 794 494 641 494 
L 609 494 
z
" id="Cmr10-33" transform="scale(0.015625)"/>
      <path d="M 594 0 
L 594 225 
Q 1394 225 1394 428 
L 1394 3788 
Q 1063 3628 556 3628 
L 556 3853 
Q 1341 3853 1741 4263 
L 1831 4263 
Q 1853 4263 1873 4245 
Q 1894 4228 1894 4206 
L 1894 428 
Q 1894 225 2694 225 
L 2694 0 
L 594 0 
z
" id="Cmr10-31" transform="scale(0.015625)"/>
      <path d="M 1600 -141 
Q 816 -141 533 504 
Q 250 1150 250 2041 
Q 250 2597 351 3087 
Q 453 3578 754 3920 
Q 1056 4263 1600 4263 
Q 2022 4263 2290 4056 
Q 2559 3850 2700 3523 
Q 2841 3197 2892 2823 
Q 2944 2450 2944 2041 
Q 2944 1491 2842 1011 
Q 2741 531 2444 195 
Q 2147 -141 1600 -141 
z
M 1600 25 
Q 1956 25 2131 390 
Q 2306 756 2347 1200 
Q 2388 1644 2388 2144 
Q 2388 2625 2347 3031 
Q 2306 3438 2132 3767 
Q 1959 4097 1600 4097 
Q 1238 4097 1063 3765 
Q 888 3434 847 3029 
Q 806 2625 806 2144 
Q 806 1788 823 1472 
Q 841 1156 916 820 
Q 991 484 1158 254 
Q 1325 25 1600 25 
z
" id="Cmr10-30" transform="scale(0.015625)"/>
     </defs>
     <use transform="translate(0 0.8125)" xlink:href="#DejaVuSans-20"/>
     <use transform="translate(31.787109 0.8125)" xlink:href="#DejaVuSans-20"/>
     <use transform="translate(63.574219 0.8125)" xlink:href="#DejaVuSans-20"/>
     <use transform="translate(95.361328 0.8125)" xlink:href="#Cmmi10-6f"/>
     <use transform="translate(143.75 -16.19375)scale(0.7)" xlink:href="#Cmr10-33"/>
     <use transform="translate(178.75 -16.19375)scale(0.7)" xlink:href="#Cmr10-31"/>
     <use transform="translate(213.75 -16.19375)scale(0.7)" xlink:href="#Cmr10-38"/>
     <use transform="translate(248.75 -16.19375)scale(0.7)" xlink:href="#Cmr10-30"/>
     <use transform="translate(290.127344 0.8125)" xlink:href="#DejaVuSans-20"/>
     <use transform="translate(321.914453 0.8125)" xlink:href="#DejaVuSans-20"/>
    </g>
   </g>
   <g id="text_15">
    <g id="patch_22">
     <path d="M 170.71283 151.087813 
L 229.99283 151.087813 
Q 233.89283 151.087813 233.89283 147.187813 
L 233.89283 134.60625 
Q 233.89283 130.70625 229.99283 130.70625 
L 170.71283 130.70625 
Q 166.81283 130.70625 166.81283 134.60625 
L 166.81283 147.187813 
Q 166.81283 151.087813 170.71283 151.087813 
z
" style="fill:none;"/>
    </g>
    <!--       $E$       -->
    <g transform="translate(170.71283 144.484219)scale(0.13 -0.13)">
     <use transform="translate(0 0.6875)" xlink:href="#DejaVuSans-20"/>
     <use transform="translate(31.787109 0.6875)" xlink:href="#DejaVuSans-20"/>
     <use transform="translate(63.574219 0.6875)" xlink:href="#DejaVuSans-20"/>
     <use transform="translate(95.361328 0.6875)" xlink:href="#DejaVuSans-20"/>
     <use transform="translate(127.148438 0.6875)" xlink:href="#DejaVuSans-20"/>
     <use transform="translate(158.935547 0.6875)" xlink:href="#DejaVuSans-20"/>
     <use transform="translate(190.722656 0.6875)" xlink:href="#Cmmi10-45"/>
     <use transform="translate(264.501953 0.6875)" xlink:href="#DejaVuSans-20"/>
     <use transform="translate(296.289062 0.6875)" xlink:href="#DejaVuSans-20"/>
     <use transform="translate(328.076172 0.6875)" xlink:href="#DejaVuSans-20"/>
     <use transform="translate(359.863281 0.6875)" xlink:href="#DejaVuSans-20"/>
     <use transform="translate(391.650391 0.6875)" xlink:href="#DejaVuSans-20"/>
     <use transform="translate(423.4375 0.6875)" xlink:href="#DejaVuSans-20"/>
    </g>
   </g>
   <g id="patch_23">
    <path d="M 163.695046 140.897031 
Q 154.925592 140.897031 145.038103 140.897031 
" style="fill:none;stroke:#000000;stroke-linecap:round;"/>
    <path d="M 158.495046 138.297031 
L 163.695046 140.897031 
L 158.495046 143.497031 
" style="fill:none;stroke:#000000;stroke-linecap:round;"/>
   </g>
   <g id="text_16">
    <g id="patch_24">
     <path d="M 261.699245 151.087813 
L 307.459245 151.087813 
Q 311.359245 151.087813 311.359245 147.187813 
L 311.359245 134.60625 
Q 311.359245 130.70625 307.459245 130.70625 
L 261.699245 130.70625 
Q 257.799245 130.70625 257.799245 134.60625 
L 257.799245 147.187813 
Q 257.799245 151.087813 261.699245 151.087813 
z
" style="fill:none;"/>
    </g>
    <!--    $e_{3180}$   -->
    <g transform="translate(261.699245 144.484219)scale(0.13 -0.13)">
     <use transform="translate(0 0.8125)" xlink:href="#DejaVuSans-20"/>
     <use transform="translate(31.787109 0.8125)" xlink:href="#DejaVuSans-20"/>
     <use transform="translate(63.574219 0.8125)" xlink:href="#DejaVuSans-20"/>
     <use transform="translate(95.361328 0.8125)" xlink:href="#Cmmi10-65"/>
     <use transform="translate(141.845703 -16.19375)scale(0.7)" xlink:href="#Cmr10-33"/>
     <use transform="translate(176.845703 -16.19375)scale(0.7)" xlink:href="#Cmr10-31"/>
     <use transform="translate(211.845703 -16.19375)scale(0.7)" xlink:href="#Cmr10-38"/>
     <use transform="translate(246.845703 -16.19375)scale(0.7)" xlink:href="#Cmr10-30"/>
     <use transform="translate(288.223047 0.8125)" xlink:href="#DejaVuSans-20"/>
     <use transform="translate(320.010156 0.8125)" xlink:href="#DejaVuSans-20"/>
    </g>
   </g>
   <g id="patch_25">
    <path d="M 254.682201 140.897031 
Q 245.845362 140.897031 235.89049 140.897031 
" style="fill:none;stroke:#000000;stroke-linecap:round;"/>
    <path d="M 249.482201 138.297031 
L 254.682201 140.897031 
L 249.482201 143.497031 
" style="fill:none;stroke:#000000;stroke-linecap:round;"/>
   </g>
   <g id="text_17">
    <g id="patch_26">
     <path d="M 354.592379 90.631875 
L 383.018942 90.631875 
L 383.018942 63.755937 
L 354.592379 63.755937 
z
" style="fill:none;stroke:#000000;stroke-linejoin:miter;"/>
    </g>
    <!-- Avg/ -->
    <g transform="translate(357.861129 74.354375)scale(0.1 -0.1)">
     <defs>
      <path d="M 2188 4044 
L 1331 1722 
L 3047 1722 
L 2188 4044 
z
M 1831 4666 
L 2547 4666 
L 4325 0 
L 3669 0 
L 3244 1197 
L 1141 1197 
L 716 0 
L 50 0 
L 1831 4666 
z
" id="DejaVuSans-41" transform="scale(0.015625)"/>
      <path d="M 191 3500 
L 800 3500 
L 1894 563 
L 2988 3500 
L 3597 3500 
L 2284 0 
L 1503 0 
L 191 3500 
z
" id="DejaVuSans-76" transform="scale(0.015625)"/>
      <path d="M 2906 1791 
Q 2906 2416 2648 2759 
Q 2391 3103 1925 3103 
Q 1463 3103 1205 2759 
Q 947 2416 947 1791 
Q 947 1169 1205 825 
Q 1463 481 1925 481 
Q 2391 481 2648 825 
Q 2906 1169 2906 1791 
z
M 3481 434 
Q 3481 -459 3084 -895 
Q 2688 -1331 1869 -1331 
Q 1566 -1331 1297 -1286 
Q 1028 -1241 775 -1147 
L 775 -588 
Q 1028 -725 1275 -790 
Q 1522 -856 1778 -856 
Q 2344 -856 2625 -561 
Q 2906 -266 2906 331 
L 2906 616 
Q 2728 306 2450 153 
Q 2172 0 1784 0 
Q 1141 0 747 490 
Q 353 981 353 1791 
Q 353 2603 747 3093 
Q 1141 3584 1784 3584 
Q 2172 3584 2450 3431 
Q 2728 3278 2906 2969 
L 2906 3500 
L 3481 3500 
L 3481 434 
z
" id="DejaVuSans-67" transform="scale(0.015625)"/>
      <path d="M 1625 4666 
L 2156 4666 
L 531 -594 
L 0 -594 
L 1625 4666 
z
" id="DejaVuSans-2f" transform="scale(0.015625)"/>
     </defs>
     <use xlink:href="#DejaVuSans-41"/>
     <use x="62.533203" xlink:href="#DejaVuSans-76"/>
     <use x="121.712891" xlink:href="#DejaVuSans-67"/>
     <use x="185.189453" xlink:href="#DejaVuSans-2f"/>
    </g>
    <!-- Sum -->
    <g transform="translate(357.592379 85.552188)scale(0.1 -0.1)">
     <defs>
      <path d="M 3425 4513 
L 3425 3897 
Q 3066 4069 2747 4153 
Q 2428 4238 2131 4238 
Q 1616 4238 1336 4038 
Q 1056 3838 1056 3469 
Q 1056 3159 1242 3001 
Q 1428 2844 1947 2747 
L 2328 2669 
Q 3034 2534 3370 2195 
Q 3706 1856 3706 1288 
Q 3706 609 3251 259 
Q 2797 -91 1919 -91 
Q 1588 -91 1214 -16 
Q 841 59 441 206 
L 441 856 
Q 825 641 1194 531 
Q 1563 422 1919 422 
Q 2459 422 2753 634 
Q 3047 847 3047 1241 
Q 3047 1584 2836 1778 
Q 2625 1972 2144 2069 
L 1759 2144 
Q 1053 2284 737 2584 
Q 422 2884 422 3419 
Q 422 4038 858 4394 
Q 1294 4750 2059 4750 
Q 2388 4750 2728 4690 
Q 3069 4631 3425 4513 
z
" id="DejaVuSans-53" transform="scale(0.015625)"/>
      <path d="M 544 1381 
L 544 3500 
L 1119 3500 
L 1119 1403 
Q 1119 906 1312 657 
Q 1506 409 1894 409 
Q 2359 409 2629 706 
Q 2900 1003 2900 1516 
L 2900 3500 
L 3475 3500 
L 3475 0 
L 2900 0 
L 2900 538 
Q 2691 219 2414 64 
Q 2138 -91 1772 -91 
Q 1169 -91 856 284 
Q 544 659 544 1381 
z
M 1991 3584 
L 1991 3584 
z
" id="DejaVuSans-75" transform="scale(0.015625)"/>
      <path d="M 3328 2828 
Q 3544 3216 3844 3400 
Q 4144 3584 4550 3584 
Q 5097 3584 5394 3201 
Q 5691 2819 5691 2113 
L 5691 0 
L 5113 0 
L 5113 2094 
Q 5113 2597 4934 2840 
Q 4756 3084 4391 3084 
Q 3944 3084 3684 2787 
Q 3425 2491 3425 1978 
L 3425 0 
L 2847 0 
L 2847 2094 
Q 2847 2600 2669 2842 
Q 2491 3084 2119 3084 
Q 1678 3084 1418 2786 
Q 1159 2488 1159 1978 
L 1159 0 
L 581 0 
L 581 3500 
L 1159 3500 
L 1159 2956 
Q 1356 3278 1631 3431 
Q 1906 3584 2284 3584 
Q 2666 3584 2933 3390 
Q 3200 3197 3328 2828 
z
" id="DejaVuSans-6d" transform="scale(0.015625)"/>
     </defs>
     <use xlink:href="#DejaVuSans-53"/>
     <use x="63.476562" xlink:href="#DejaVuSans-75"/>
     <use x="126.855469" xlink:href="#DejaVuSans-6d"/>
    </g>
   </g>
   <g id="patch_27">
    <path d="M 351.791873 75.81841 
Q 332.973873 66.575766 313.15235 56.840232 
" style="fill:none;stroke:#000000;stroke-linecap:round;"/>
    <path d="M 348.270686 71.192263 
L 351.791873 75.81841 
L 345.978243 75.859671 
" style="fill:none;stroke:#000000;stroke-linecap:round;"/>
   </g>
   <g id="patch_28">
    <path d="M 352.843077 74.616345 
Q 332.976689 45.343635 312.482463 15.145819 
" style="fill:none;stroke:#000000;stroke-linecap:round;"/>
    <path d="M 352.074334 68.853617 
L 352.843077 74.616345 
L 347.771649 71.773703 
" style="fill:none;stroke:#000000;stroke-linecap:round;"/>
   </g>
   <g id="patch_29">
    <path d="M 351.791873 75.81841 
Q 332.973873 66.575766 313.15235 56.840232 
" style="fill:none;stroke:#000000;stroke-linecap:round;"/>
    <path d="M 348.270686 71.192263 
L 351.791873 75.81841 
L 345.978243 75.859671 
" style="fill:none;stroke:#000000;stroke-linecap:round;"/>
   </g>
   <g id="patch_30">
    <path d="M 351.791873 78.569402 
Q 332.973873 87.812046 313.15235 97.54758 
" style="fill:none;stroke:#000000;stroke-linecap:round;"/>
    <path d="M 345.978243 78.528141 
L 351.791873 78.569402 
L 348.270686 83.19555 
" style="fill:none;stroke:#000000;stroke-linecap:round;"/>
   </g>
   <g id="patch_31">
    <path d="M 352.843077 79.771467 
Q 332.976689 109.044177 312.482463 139.241993 
" style="fill:none;stroke:#000000;stroke-linecap:round;"/>
    <path d="M 347.771649 82.61411 
L 352.843077 79.771467 
L 352.074334 85.534195 
" style="fill:none;stroke:#000000;stroke-linecap:round;"/>
   </g>
   <g id="text_18">
    <g id="patch_32">
     <path d="M 419.341509 87.384687 
C 422.044136 87.384687 424.636434 86.310922 426.54748 84.399877 
C 428.458526 82.488831 429.532291 79.896533 429.532291 77.193906 
C 429.532291 74.491279 428.458526 71.898981 426.54748 69.987936 
C 424.636434 68.07689 422.044136 67.003125 419.341509 67.003125 
C 416.638883 67.003125 414.046585 68.07689 412.135539 69.987936 
C 410.224493 71.898981 409.150728 74.491279 409.150728 77.193906 
C 409.150728 79.896533 410.224493 82.488831 412.135539 84.399877 
C 414.046585 86.310922 416.638883 87.384687 419.341509 87.384687 
z
" style="fill:none;stroke:#000000;stroke-linejoin:miter;"/>
    </g>
    <!--   -->
    <g transform="translate(417.275728 80.781094)scale(0.13 -0.13)">
     <use xlink:href="#DejaVuSans-20"/>
    </g>
   </g>
   <g id="text_19">
    <!-- softmax -->
    <g transform="translate(399.150884 100.334844)scale(0.1 -0.1)">
     <defs>
      <path d="M 2834 3397 
L 2834 2853 
Q 2591 2978 2328 3040 
Q 2066 3103 1784 3103 
Q 1356 3103 1142 2972 
Q 928 2841 928 2578 
Q 928 2378 1081 2264 
Q 1234 2150 1697 2047 
L 1894 2003 
Q 2506 1872 2764 1633 
Q 3022 1394 3022 966 
Q 3022 478 2636 193 
Q 2250 -91 1575 -91 
Q 1294 -91 989 -36 
Q 684 19 347 128 
L 347 722 
Q 666 556 975 473 
Q 1284 391 1588 391 
Q 1994 391 2212 530 
Q 2431 669 2431 922 
Q 2431 1156 2273 1281 
Q 2116 1406 1581 1522 
L 1381 1569 
Q 847 1681 609 1914 
Q 372 2147 372 2553 
Q 372 3047 722 3315 
Q 1072 3584 1716 3584 
Q 2034 3584 2315 3537 
Q 2597 3491 2834 3397 
z
" id="DejaVuSans-73" transform="scale(0.015625)"/>
      <path d="M 1959 3097 
Q 1497 3097 1228 2736 
Q 959 2375 959 1747 
Q 959 1119 1226 758 
Q 1494 397 1959 397 
Q 2419 397 2687 759 
Q 2956 1122 2956 1747 
Q 2956 2369 2687 2733 
Q 2419 3097 1959 3097 
z
M 1959 3584 
Q 2709 3584 3137 3096 
Q 3566 2609 3566 1747 
Q 3566 888 3137 398 
Q 2709 -91 1959 -91 
Q 1206 -91 779 398 
Q 353 888 353 1747 
Q 353 2609 779 3096 
Q 1206 3584 1959 3584 
z
" id="DejaVuSans-6f" transform="scale(0.015625)"/>
      <path d="M 2375 4863 
L 2375 4384 
L 1825 4384 
Q 1516 4384 1395 4259 
Q 1275 4134 1275 3809 
L 1275 3500 
L 2222 3500 
L 2222 3053 
L 1275 3053 
L 1275 0 
L 697 0 
L 697 3053 
L 147 3053 
L 147 3500 
L 697 3500 
L 697 3744 
Q 697 4328 969 4595 
Q 1241 4863 1831 4863 
L 2375 4863 
z
" id="DejaVuSans-66" transform="scale(0.015625)"/>
      <path d="M 1172 4494 
L 1172 3500 
L 2356 3500 
L 2356 3053 
L 1172 3053 
L 1172 1153 
Q 1172 725 1289 603 
Q 1406 481 1766 481 
L 2356 481 
L 2356 0 
L 1766 0 
Q 1100 0 847 248 
Q 594 497 594 1153 
L 594 3053 
L 172 3053 
L 172 3500 
L 594 3500 
L 594 4494 
L 1172 4494 
z
" id="DejaVuSans-74" transform="scale(0.015625)"/>
      <path d="M 2194 1759 
Q 1497 1759 1228 1600 
Q 959 1441 959 1056 
Q 959 750 1161 570 
Q 1363 391 1709 391 
Q 2188 391 2477 730 
Q 2766 1069 2766 1631 
L 2766 1759 
L 2194 1759 
z
M 3341 1997 
L 3341 0 
L 2766 0 
L 2766 531 
Q 2569 213 2275 61 
Q 1981 -91 1556 -91 
Q 1019 -91 701 211 
Q 384 513 384 1019 
Q 384 1609 779 1909 
Q 1175 2209 1959 2209 
L 2766 2209 
L 2766 2266 
Q 2766 2663 2505 2880 
Q 2244 3097 1772 3097 
Q 1472 3097 1187 3025 
Q 903 2953 641 2809 
L 641 3341 
Q 956 3463 1253 3523 
Q 1550 3584 1831 3584 
Q 2591 3584 2966 3190 
Q 3341 2797 3341 1997 
z
" id="DejaVuSans-61" transform="scale(0.015625)"/>
      <path d="M 3513 3500 
L 2247 1797 
L 3578 0 
L 2900 0 
L 1881 1375 
L 863 0 
L 184 0 
L 1544 1831 
L 300 3500 
L 978 3500 
L 1906 2253 
L 2834 3500 
L 3513 3500 
z
" id="DejaVuSans-78" transform="scale(0.015625)"/>
     </defs>
     <use xlink:href="#DejaVuSans-73"/>
     <use x="52.099609" xlink:href="#DejaVuSans-6f"/>
     <use x="113.28125" xlink:href="#DejaVuSans-66"/>
     <use x="146.736328" xlink:href="#DejaVuSans-74"/>
     <use x="185.945312" xlink:href="#DejaVuSans-6d"/>
     <use x="283.357422" xlink:href="#DejaVuSans-61"/>
     <use x="344.636719" xlink:href="#DejaVuSans-78"/>
    </g>
   </g>
   <g id="patch_33">
    <path d="M 406.032617 77.193906 
Q 396.084884 77.193906 385.019116 77.193906 
" style="fill:none;stroke:#000000;stroke-linecap:round;"/>
    <path d="M 400.832617 74.593906 
L 406.032617 77.193906 
L 400.832617 79.793906 
" style="fill:none;stroke:#000000;stroke-linecap:round;"/>
   </g>
   <g id="text_20">
    <g id="patch_34">
     <path d="M 458.204717 87.384687 
L 464.704717 87.384687 
Q 468.604717 87.384687 468.604717 83.484687 
L 468.604717 70.903125 
Q 468.604717 67.003125 464.704717 67.003125 
L 458.204717 67.003125 
Q 454.304717 67.003125 454.304717 70.903125 
L 454.304717 83.484687 
Q 454.304717 87.384687 458.204717 87.384687 
z
" style="fill:none;"/>
    </g>
    <!-- $\hat{y}$ -->
    <g transform="translate(458.204717 80.754688)scale(0.13 -0.13)">
     <defs>
      <path d="M 863 3444 
L 738 3578 
L 1600 4441 
L 2456 3578 
L 2328 3444 
L 1600 4084 
L 863 3444 
z
" id="Cmr10-5e" transform="scale(0.015625)"/>
      <path d="M 538 -916 
Q 672 -1147 1006 -1147 
Q 1309 -1147 1531 -934 
Q 1753 -722 1889 -420 
Q 2025 -119 2100 197 
Q 1816 -72 1484 -72 
Q 1231 -72 1053 15 
Q 875 103 776 276 
Q 678 450 678 697 
Q 678 906 734 1126 
Q 791 1347 892 1617 
Q 994 1888 1069 2088 
Q 1153 2322 1153 2472 
Q 1153 2663 1013 2663 
Q 759 2663 595 2402 
Q 431 2141 353 1819 
Q 341 1778 300 1778 
L 225 1778 
Q 172 1778 172 1838 
L 172 1856 
Q 275 2238 487 2533 
Q 700 2828 1025 2828 
Q 1253 2828 1411 2678 
Q 1569 2528 1569 2297 
Q 1569 2178 1516 2047 
Q 1488 1969 1388 1706 
Q 1288 1444 1234 1272 
Q 1181 1100 1147 934 
Q 1113 769 1113 603 
Q 1113 391 1203 244 
Q 1294 97 1491 97 
Q 1888 97 2203 581 
L 2688 2553 
Q 2709 2638 2787 2698 
Q 2866 2759 2956 2759 
Q 3034 2759 3092 2709 
Q 3150 2659 3150 2578 
Q 3150 2541 3144 2528 
L 2509 -19 
Q 2425 -347 2200 -647 
Q 1975 -947 1658 -1130 
Q 1341 -1313 997 -1313 
Q 831 -1313 668 -1248 
Q 506 -1184 406 -1056 
Q 306 -928 306 -756 
Q 306 -581 409 -453 
Q 513 -325 684 -325 
Q 788 -325 858 -389 
Q 928 -453 928 -556 
Q 928 -703 818 -812 
Q 709 -922 563 -922 
Q 556 -919 550 -917 
Q 544 -916 538 -916 
z
" id="Cmmi10-79" transform="scale(0.015625)"/>
     </defs>
     <use transform="translate(5.724609 3.609375)" xlink:href="#Cmr10-5e"/>
     <use transform="translate(0 0.734375)" xlink:href="#Cmmi10-79"/>
    </g>
   </g>
   <g id="patch_35">
    <path d="M 451.187834 77.193906 
Q 441.918481 77.193906 431.531095 77.193906 
" style="fill:none;stroke:#000000;stroke-linecap:round;"/>
    <path d="M 445.987834 74.593906 
L 451.187834 77.193906 
L 445.987834 79.793906 
" style="fill:none;stroke:#000000;stroke-linecap:round;"/>
   </g>
  </g>
 </g>
</svg>
