<?xml version="1.0" encoding="utf-8" standalone="no"?>
<!DOCTYPE svg PUBLIC "-//W3C//DTD SVG 1.1//EN"
  "http://www.w3.org/Graphics/SVG/1.1/DTD/svg11.dtd">
<svg height="177.48pt" version="1.1" viewBox="0 0 322.998918 177.48" width="322.998918pt" xmlns="http://www.w3.org/2000/svg" xmlns:xlink="http://www.w3.org/1999/xlink">
 <metadata>
  <rdf:RDF xmlns:cc="http://creativecommons.org/ns#" xmlns:dc="http://purl.org/dc/elements/1.1/" xmlns:rdf="http://www.w3.org/1999/02/22-rdf-syntax-ns#">
   <cc:Work>
    <dc:type rdf:resource="http://purl.org/dc/dcmitype/StillImage"/>
    <dc:date>2021-10-02T10:35:46.103039</dc:date>
    <dc:format>image/svg+xml</dc:format>
    <dc:creator>
     <cc:Agent>
      <dc:title>Matplotlib v3.4.3, https://matplotlib.org/</dc:title>
     </cc:Agent>
    </dc:creator>
   </cc:Work>
  </rdf:RDF>
 </metadata>
 <defs>
  <style type="text/css">*{stroke-linecap:butt;stroke-linejoin:round;}</style>
 </defs>
 <g id="figure_1">
  <g id="patch_1">
   <path d="M -0 177.48 
L 322.998918 177.48 
L 322.998918 0 
L -0 0 
z
" style="fill:none;"/>
  </g>
  <g id="axes_1">
   <g id="text_1">
    <g id="patch_2">
     <path d="M 11.240625 76.696719 
L 36.309375 76.696719 
L 36.309375 49.820781 
L 11.240625 49.820781 
z
" style="fill:#ffffff;stroke:#000000;stroke-linejoin:miter;"/>
    </g>
    <!--        -->
    <g transform="translate(14.240625 60.419219)scale(0.1 -0.1)">
     <defs>
      <path id="DejaVuSans-20" transform="scale(0.015625)"/>
     </defs>
     <use xlink:href="#DejaVuSans-20"/>
     <use x="31.787109" xlink:href="#DejaVuSans-20"/>
     <use x="63.574219" xlink:href="#DejaVuSans-20"/>
     <use x="95.361328" xlink:href="#DejaVuSans-20"/>
     <use x="127.148438" xlink:href="#DejaVuSans-20"/>
     <use x="158.935547" xlink:href="#DejaVuSans-20"/>
    </g>
    <!--  -->
    <g transform="translate(23.775 71.617031)scale(0.1 -0.1)"/>
   </g>
   <g id="text_2">
    <g id="patch_3">
     <path d="M 8.799219 122.060313 
L 38.750781 122.060313 
L 38.750781 106.382188 
L 8.799219 106.382188 
z
" style="fill:#ffffff;"/>
    </g>
    <!-- Sally -->
    <g transform="translate(11.799219 116.980625)scale(0.1 -0.1)">
     <defs>
      <path d="M 3425 4513 
L 3425 3897 
Q 3066 4069 2747 4153 
Q 2428 4238 2131 4238 
Q 1616 4238 1336 4038 
Q 1056 3838 1056 3469 
Q 1056 3159 1242 3001 
Q 1428 2844 1947 2747 
L 2328 2669 
Q 3034 2534 3370 2195 
Q 3706 1856 3706 1288 
Q 3706 609 3251 259 
Q 2797 -91 1919 -91 
Q 1588 -91 1214 -16 
Q 841 59 441 206 
L 441 856 
Q 825 641 1194 531 
Q 1563 422 1919 422 
Q 2459 422 2753 634 
Q 3047 847 3047 1241 
Q 3047 1584 2836 1778 
Q 2625 1972 2144 2069 
L 1759 2144 
Q 1053 2284 737 2584 
Q 422 2884 422 3419 
Q 422 4038 858 4394 
Q 1294 4750 2059 4750 
Q 2388 4750 2728 4690 
Q 3069 4631 3425 4513 
z
" id="DejaVuSans-53" transform="scale(0.015625)"/>
      <path d="M 2194 1759 
Q 1497 1759 1228 1600 
Q 959 1441 959 1056 
Q 959 750 1161 570 
Q 1363 391 1709 391 
Q 2188 391 2477 730 
Q 2766 1069 2766 1631 
L 2766 1759 
L 2194 1759 
z
M 3341 1997 
L 3341 0 
L 2766 0 
L 2766 531 
Q 2569 213 2275 61 
Q 1981 -91 1556 -91 
Q 1019 -91 701 211 
Q 384 513 384 1019 
Q 384 1609 779 1909 
Q 1175 2209 1959 2209 
L 2766 2209 
L 2766 2266 
Q 2766 2663 2505 2880 
Q 2244 3097 1772 3097 
Q 1472 3097 1187 3025 
Q 903 2953 641 2809 
L 641 3341 
Q 956 3463 1253 3523 
Q 1550 3584 1831 3584 
Q 2591 3584 2966 3190 
Q 3341 2797 3341 1997 
z
" id="DejaVuSans-61" transform="scale(0.015625)"/>
      <path d="M 603 4863 
L 1178 4863 
L 1178 0 
L 603 0 
L 603 4863 
z
" id="DejaVuSans-6c" transform="scale(0.015625)"/>
      <path d="M 2059 -325 
Q 1816 -950 1584 -1140 
Q 1353 -1331 966 -1331 
L 506 -1331 
L 506 -850 
L 844 -850 
Q 1081 -850 1212 -737 
Q 1344 -625 1503 -206 
L 1606 56 
L 191 3500 
L 800 3500 
L 1894 763 
L 2988 3500 
L 3597 3500 
L 2059 -325 
z
" id="DejaVuSans-79" transform="scale(0.015625)"/>
     </defs>
     <use xlink:href="#DejaVuSans-53"/>
     <use x="63.476562" xlink:href="#DejaVuSans-61"/>
     <use x="124.755859" xlink:href="#DejaVuSans-6c"/>
     <use x="152.539062" xlink:href="#DejaVuSans-6c"/>
     <use x="180.322266" xlink:href="#DejaVuSans-79"/>
    </g>
   </g>
   <g id="patch_4">
    <path d="M 23.775 104.385521 
Q 23.775 91.539904 23.775 79.812321 
" style="fill:none;stroke:#000000;stroke-linecap:round;"/>
    <path d="M 21.775 83.812321 
L 23.775 79.812321 
L 25.775 83.812321 
" style="fill:none;stroke:#000000;stroke-linecap:round;"/>
   </g>
   <g id="text_3">
    <g id="patch_5">
     <path d="M 4.2 147.541562 
L 43.35 147.541562 
L 43.35 131.863438 
L 4.2 131.863438 
z
" style="fill:#ffffff;"/>
    </g>
    <!-- Robert -->
    <g transform="translate(7.2 142.461875)scale(0.1 -0.1)">
     <defs>
      <path d="M 2841 2188 
Q 3044 2119 3236 1894 
Q 3428 1669 3622 1275 
L 4263 0 
L 3584 0 
L 2988 1197 
Q 2756 1666 2539 1819 
Q 2322 1972 1947 1972 
L 1259 1972 
L 1259 0 
L 628 0 
L 628 4666 
L 2053 4666 
Q 2853 4666 3247 4331 
Q 3641 3997 3641 3322 
Q 3641 2881 3436 2590 
Q 3231 2300 2841 2188 
z
M 1259 4147 
L 1259 2491 
L 2053 2491 
Q 2509 2491 2742 2702 
Q 2975 2913 2975 3322 
Q 2975 3731 2742 3939 
Q 2509 4147 2053 4147 
L 1259 4147 
z
" id="DejaVuSans-52" transform="scale(0.015625)"/>
      <path d="M 1959 3097 
Q 1497 3097 1228 2736 
Q 959 2375 959 1747 
Q 959 1119 1226 758 
Q 1494 397 1959 397 
Q 2419 397 2687 759 
Q 2956 1122 2956 1747 
Q 2956 2369 2687 2733 
Q 2419 3097 1959 3097 
z
M 1959 3584 
Q 2709 3584 3137 3096 
Q 3566 2609 3566 1747 
Q 3566 888 3137 398 
Q 2709 -91 1959 -91 
Q 1206 -91 779 398 
Q 353 888 353 1747 
Q 353 2609 779 3096 
Q 1206 3584 1959 3584 
z
" id="DejaVuSans-6f" transform="scale(0.015625)"/>
      <path d="M 3116 1747 
Q 3116 2381 2855 2742 
Q 2594 3103 2138 3103 
Q 1681 3103 1420 2742 
Q 1159 2381 1159 1747 
Q 1159 1113 1420 752 
Q 1681 391 2138 391 
Q 2594 391 2855 752 
Q 3116 1113 3116 1747 
z
M 1159 2969 
Q 1341 3281 1617 3432 
Q 1894 3584 2278 3584 
Q 2916 3584 3314 3078 
Q 3713 2572 3713 1747 
Q 3713 922 3314 415 
Q 2916 -91 2278 -91 
Q 1894 -91 1617 61 
Q 1341 213 1159 525 
L 1159 0 
L 581 0 
L 581 4863 
L 1159 4863 
L 1159 2969 
z
" id="DejaVuSans-62" transform="scale(0.015625)"/>
      <path d="M 3597 1894 
L 3597 1613 
L 953 1613 
Q 991 1019 1311 708 
Q 1631 397 2203 397 
Q 2534 397 2845 478 
Q 3156 559 3463 722 
L 3463 178 
Q 3153 47 2828 -22 
Q 2503 -91 2169 -91 
Q 1331 -91 842 396 
Q 353 884 353 1716 
Q 353 2575 817 3079 
Q 1281 3584 2069 3584 
Q 2775 3584 3186 3129 
Q 3597 2675 3597 1894 
z
M 3022 2063 
Q 3016 2534 2758 2815 
Q 2500 3097 2075 3097 
Q 1594 3097 1305 2825 
Q 1016 2553 972 2059 
L 3022 2063 
z
" id="DejaVuSans-65" transform="scale(0.015625)"/>
      <path d="M 2631 2963 
Q 2534 3019 2420 3045 
Q 2306 3072 2169 3072 
Q 1681 3072 1420 2755 
Q 1159 2438 1159 1844 
L 1159 0 
L 581 0 
L 581 3500 
L 1159 3500 
L 1159 2956 
Q 1341 3275 1631 3429 
Q 1922 3584 2338 3584 
Q 2397 3584 2469 3576 
Q 2541 3569 2628 3553 
L 2631 2963 
z
" id="DejaVuSans-72" transform="scale(0.015625)"/>
      <path d="M 1172 4494 
L 1172 3500 
L 2356 3500 
L 2356 3053 
L 1172 3053 
L 1172 1153 
Q 1172 725 1289 603 
Q 1406 481 1766 481 
L 2356 481 
L 2356 0 
L 1766 0 
Q 1100 0 847 248 
Q 594 497 594 1153 
L 594 3053 
L 172 3053 
L 172 3500 
L 594 3500 
L 594 4494 
L 1172 4494 
z
" id="DejaVuSans-74" transform="scale(0.015625)"/>
     </defs>
     <use xlink:href="#DejaVuSans-52"/>
     <use x="64.982422" xlink:href="#DejaVuSans-6f"/>
     <use x="126.164062" xlink:href="#DejaVuSans-62"/>
     <use x="189.640625" xlink:href="#DejaVuSans-65"/>
     <use x="251.164062" xlink:href="#DejaVuSans-72"/>
     <use x="292.277344" xlink:href="#DejaVuSans-74"/>
    </g>
   </g>
   <g id="text_4">
    <g id="patch_6">
     <path d="M 17.59375 20.135313 
L 29.95625 20.135313 
L 29.95625 4.457188 
L 17.59375 4.457188 
z
" style="fill:#ffffff;"/>
    </g>
    <!-- 1 -->
    <g transform="translate(20.59375 15.055625)scale(0.1 -0.1)">
     <defs>
      <path d="M 794 531 
L 1825 531 
L 1825 4091 
L 703 3866 
L 703 4441 
L 1819 4666 
L 2450 4666 
L 2450 531 
L 3481 531 
L 3481 0 
L 794 0 
L 794 531 
z
" id="DejaVuSans-31" transform="scale(0.015625)"/>
     </defs>
     <use xlink:href="#DejaVuSans-31"/>
    </g>
   </g>
   <g id="patch_7">
    <path d="M 23.775 23.250013 
Q 23.775 34.977596 23.775 47.823213 
" style="fill:none;stroke:#000000;stroke-linecap:round;"/>
    <path d="M 21.775 27.250013 
L 23.775 23.250013 
L 25.775 27.250013 
" style="fill:none;stroke:#000000;stroke-linecap:round;"/>
   </g>
   <g id="text_5">
    <g id="patch_8">
     <path d="M 64.894471 76.696719 
L 89.963221 76.696719 
L 89.963221 49.820781 
L 64.894471 49.820781 
z
" style="fill:#ffffff;stroke:#000000;stroke-linejoin:miter;"/>
    </g>
    <!--        -->
    <g transform="translate(67.894471 60.419219)scale(0.1 -0.1)">
     <use xlink:href="#DejaVuSans-20"/>
     <use x="31.787109" xlink:href="#DejaVuSans-20"/>
     <use x="63.574219" xlink:href="#DejaVuSans-20"/>
     <use x="95.361328" xlink:href="#DejaVuSans-20"/>
     <use x="127.148438" xlink:href="#DejaVuSans-20"/>
     <use x="158.935547" xlink:href="#DejaVuSans-20"/>
    </g>
    <!--  -->
    <g transform="translate(77.428846 71.617031)scale(0.1 -0.1)"/>
   </g>
   <g id="patch_9">
    <path d="M 61.777016 63.25875 
Q 50.603394 63.25875 38.311738 63.25875 
" style="fill:none;stroke:#000000;stroke-linecap:round;"/>
    <path d="M 57.777016 61.25875 
L 61.777016 63.25875 
L 57.777016 65.25875 
" style="fill:none;stroke:#000000;stroke-linecap:round;"/>
   </g>
   <g id="text_6">
    <g id="patch_10">
     <path d="M 54.724159 122.060313 
L 100.133534 122.060313 
L 100.133534 106.382188 
L 54.724159 106.382188 
z
" style="fill:#ffffff;"/>
    </g>
    <!-- Johnson -->
    <g transform="translate(57.724159 116.980625)scale(0.1 -0.1)">
     <defs>
      <path d="M 628 4666 
L 1259 4666 
L 1259 325 
Q 1259 -519 939 -900 
Q 619 -1281 -91 -1281 
L -331 -1281 
L -331 -750 
L -134 -750 
Q 284 -750 456 -515 
Q 628 -281 628 325 
L 628 4666 
z
" id="DejaVuSans-4a" transform="scale(0.015625)"/>
      <path d="M 3513 2113 
L 3513 0 
L 2938 0 
L 2938 2094 
Q 2938 2591 2744 2837 
Q 2550 3084 2163 3084 
Q 1697 3084 1428 2787 
Q 1159 2491 1159 1978 
L 1159 0 
L 581 0 
L 581 4863 
L 1159 4863 
L 1159 2956 
Q 1366 3272 1645 3428 
Q 1925 3584 2291 3584 
Q 2894 3584 3203 3211 
Q 3513 2838 3513 2113 
z
" id="DejaVuSans-68" transform="scale(0.015625)"/>
      <path d="M 3513 2113 
L 3513 0 
L 2938 0 
L 2938 2094 
Q 2938 2591 2744 2837 
Q 2550 3084 2163 3084 
Q 1697 3084 1428 2787 
Q 1159 2491 1159 1978 
L 1159 0 
L 581 0 
L 581 3500 
L 1159 3500 
L 1159 2956 
Q 1366 3272 1645 3428 
Q 1925 3584 2291 3584 
Q 2894 3584 3203 3211 
Q 3513 2838 3513 2113 
z
" id="DejaVuSans-6e" transform="scale(0.015625)"/>
      <path d="M 2834 3397 
L 2834 2853 
Q 2591 2978 2328 3040 
Q 2066 3103 1784 3103 
Q 1356 3103 1142 2972 
Q 928 2841 928 2578 
Q 928 2378 1081 2264 
Q 1234 2150 1697 2047 
L 1894 2003 
Q 2506 1872 2764 1633 
Q 3022 1394 3022 966 
Q 3022 478 2636 193 
Q 2250 -91 1575 -91 
Q 1294 -91 989 -36 
Q 684 19 347 128 
L 347 722 
Q 666 556 975 473 
Q 1284 391 1588 391 
Q 1994 391 2212 530 
Q 2431 669 2431 922 
Q 2431 1156 2273 1281 
Q 2116 1406 1581 1522 
L 1381 1569 
Q 847 1681 609 1914 
Q 372 2147 372 2553 
Q 372 3047 722 3315 
Q 1072 3584 1716 3584 
Q 2034 3584 2315 3537 
Q 2597 3491 2834 3397 
z
" id="DejaVuSans-73" transform="scale(0.015625)"/>
     </defs>
     <use xlink:href="#DejaVuSans-4a"/>
     <use x="29.492188" xlink:href="#DejaVuSans-6f"/>
     <use x="90.673828" xlink:href="#DejaVuSans-68"/>
     <use x="154.052734" xlink:href="#DejaVuSans-6e"/>
     <use x="217.431641" xlink:href="#DejaVuSans-73"/>
     <use x="269.53125" xlink:href="#DejaVuSans-6f"/>
     <use x="330.712891" xlink:href="#DejaVuSans-6e"/>
    </g>
   </g>
   <g id="patch_11">
    <path d="M 77.428846 104.385521 
Q 77.428846 91.539904 77.428846 79.812321 
" style="fill:none;stroke:#000000;stroke-linecap:round;"/>
    <path d="M 75.428846 83.812321 
L 77.428846 79.812321 
L 79.428846 83.812321 
" style="fill:none;stroke:#000000;stroke-linecap:round;"/>
   </g>
   <g id="text_7">
    <g id="patch_12">
     <path d="M 67.085096 147.541562 
L 87.772596 147.541562 
L 87.772596 131.863438 
L 67.085096 131.863438 
z
" style="fill:#ffffff;"/>
    </g>
    <!-- Lin -->
    <g transform="translate(70.085096 142.461875)scale(0.1 -0.1)">
     <defs>
      <path d="M 628 4666 
L 1259 4666 
L 1259 531 
L 3531 531 
L 3531 0 
L 628 0 
L 628 4666 
z
" id="DejaVuSans-4c" transform="scale(0.015625)"/>
      <path d="M 603 3500 
L 1178 3500 
L 1178 0 
L 603 0 
L 603 3500 
z
M 603 4863 
L 1178 4863 
L 1178 4134 
L 603 4134 
L 603 4863 
z
" id="DejaVuSans-69" transform="scale(0.015625)"/>
     </defs>
     <use xlink:href="#DejaVuSans-4c"/>
     <use x="55.712891" xlink:href="#DejaVuSans-69"/>
     <use x="83.496094" xlink:href="#DejaVuSans-6e"/>
    </g>
   </g>
   <g id="text_8">
    <g id="patch_13">
     <path d="M 71.247596 20.135313 
L 83.610096 20.135313 
L 83.610096 4.457188 
L 71.247596 4.457188 
z
" style="fill:#ffffff;"/>
    </g>
    <!-- 1 -->
    <g transform="translate(74.247596 15.055625)scale(0.1 -0.1)">
     <use xlink:href="#DejaVuSans-31"/>
    </g>
   </g>
   <g id="patch_14">
    <path d="M 77.428846 23.250013 
Q 77.428846 34.977596 77.428846 47.823213 
" style="fill:none;stroke:#000000;stroke-linecap:round;"/>
    <path d="M 75.428846 27.250013 
L 77.428846 23.250013 
L 79.428846 27.250013 
" style="fill:none;stroke:#000000;stroke-linecap:round;"/>
   </g>
   <g id="text_9">
    <g id="patch_15">
     <path d="M 118.548317 76.696719 
L 143.617067 76.696719 
L 143.617067 49.820781 
L 118.548317 49.820781 
z
" style="fill:#ffffff;stroke:#000000;stroke-linejoin:miter;"/>
    </g>
    <!--        -->
    <g transform="translate(121.548317 60.419219)scale(0.1 -0.1)">
     <use xlink:href="#DejaVuSans-20"/>
     <use x="31.787109" xlink:href="#DejaVuSans-20"/>
     <use x="63.574219" xlink:href="#DejaVuSans-20"/>
     <use x="95.361328" xlink:href="#DejaVuSans-20"/>
     <use x="127.148438" xlink:href="#DejaVuSans-20"/>
     <use x="158.935547" xlink:href="#DejaVuSans-20"/>
    </g>
    <!--  -->
    <g transform="translate(131.082692 71.617031)scale(0.1 -0.1)"/>
   </g>
   <g id="patch_16">
    <path d="M 115.430862 63.25875 
Q 104.25724 63.25875 91.965585 63.25875 
" style="fill:none;stroke:#000000;stroke-linecap:round;"/>
    <path d="M 111.430862 61.25875 
L 115.430862 63.25875 
L 111.430862 65.25875 
" style="fill:none;stroke:#000000;stroke-linecap:round;"/>
   </g>
   <g id="text_10">
    <g id="patch_17">
     <path d="M 124.088942 122.060313 
L 138.076442 122.060313 
L 138.076442 106.382188 
L 124.088942 106.382188 
z
" style="fill:#ffffff;"/>
    </g>
    <!-- is -->
    <g transform="translate(127.088942 116.980625)scale(0.1 -0.1)">
     <use xlink:href="#DejaVuSans-69"/>
     <use x="27.783203" xlink:href="#DejaVuSans-73"/>
    </g>
   </g>
   <g id="patch_18">
    <path d="M 131.082692 104.385521 
Q 131.082692 91.539904 131.082692 79.812321 
" style="fill:none;stroke:#000000;stroke-linecap:round;"/>
    <path d="M 129.082692 83.812321 
L 131.082692 79.812321 
L 133.082692 83.812321 
" style="fill:none;stroke:#000000;stroke-linecap:round;"/>
   </g>
   <g id="text_11">
    <g id="patch_19">
     <path d="M 124.088942 147.541562 
L 138.076442 147.541562 
L 138.076442 131.863438 
L 124.088942 131.863438 
z
" style="fill:#ffffff;"/>
    </g>
    <!-- is -->
    <g transform="translate(127.088942 142.461875)scale(0.1 -0.1)">
     <use xlink:href="#DejaVuSans-69"/>
     <use x="27.783203" xlink:href="#DejaVuSans-73"/>
    </g>
   </g>
   <g id="text_12">
    <g id="patch_20">
     <path d="M 124.901442 20.135313 
L 137.263942 20.135313 
L 137.263942 4.457188 
L 124.901442 4.457188 
z
" style="fill:#ffffff;"/>
    </g>
    <!-- 0 -->
    <g transform="translate(127.901442 15.055625)scale(0.1 -0.1)">
     <defs>
      <path d="M 2034 4250 
Q 1547 4250 1301 3770 
Q 1056 3291 1056 2328 
Q 1056 1369 1301 889 
Q 1547 409 2034 409 
Q 2525 409 2770 889 
Q 3016 1369 3016 2328 
Q 3016 3291 2770 3770 
Q 2525 4250 2034 4250 
z
M 2034 4750 
Q 2819 4750 3233 4129 
Q 3647 3509 3647 2328 
Q 3647 1150 3233 529 
Q 2819 -91 2034 -91 
Q 1250 -91 836 529 
Q 422 1150 422 2328 
Q 422 3509 836 4129 
Q 1250 4750 2034 4750 
z
" id="DejaVuSans-30" transform="scale(0.015625)"/>
     </defs>
     <use xlink:href="#DejaVuSans-30"/>
    </g>
   </g>
   <g id="patch_21">
    <path d="M 131.082692 23.250013 
Q 131.082692 34.977596 131.082692 47.823213 
" style="fill:none;stroke:#000000;stroke-linecap:round;"/>
    <path d="M 129.082692 27.250013 
L 131.082692 23.250013 
L 133.082692 27.250013 
" style="fill:none;stroke:#000000;stroke-linecap:round;"/>
   </g>
   <g id="text_13">
    <g id="patch_22">
     <path d="M 172.202163 76.696719 
L 197.270913 76.696719 
L 197.270913 49.820781 
L 172.202163 49.820781 
z
" style="fill:#ffffff;stroke:#000000;stroke-linejoin:miter;"/>
    </g>
    <!--        -->
    <g transform="translate(175.202163 60.419219)scale(0.1 -0.1)">
     <use xlink:href="#DejaVuSans-20"/>
     <use x="31.787109" xlink:href="#DejaVuSans-20"/>
     <use x="63.574219" xlink:href="#DejaVuSans-20"/>
     <use x="95.361328" xlink:href="#DejaVuSans-20"/>
     <use x="127.148438" xlink:href="#DejaVuSans-20"/>
     <use x="158.935547" xlink:href="#DejaVuSans-20"/>
    </g>
    <!--  -->
    <g transform="translate(184.736538 71.617031)scale(0.1 -0.1)"/>
   </g>
   <g id="patch_23">
    <path d="M 169.084708 63.25875 
Q 157.911086 63.25875 145.619431 63.25875 
" style="fill:none;stroke:#000000;stroke-linecap:round;"/>
    <path d="M 165.084708 61.25875 
L 169.084708 63.25875 
L 165.084708 65.25875 
" style="fill:none;stroke:#000000;stroke-linecap:round;"/>
   </g>
   <g id="text_14">
    <g id="patch_24">
     <path d="M 175.503726 122.060313 
L 193.969351 122.060313 
L 193.969351 106.382188 
L 175.503726 106.382188 
z
" style="fill:#ffffff;"/>
    </g>
    <!-- an -->
    <g transform="translate(178.503726 116.980625)scale(0.1 -0.1)">
     <use xlink:href="#DejaVuSans-61"/>
     <use x="61.279297" xlink:href="#DejaVuSans-6e"/>
    </g>
   </g>
   <g id="patch_25">
    <path d="M 184.736538 104.385521 
Q 184.736538 91.539904 184.736538 79.812321 
" style="fill:none;stroke:#000000;stroke-linecap:round;"/>
    <path d="M 182.736538 83.812321 
L 184.736538 79.812321 
L 186.736538 83.812321 
" style="fill:none;stroke:#000000;stroke-linecap:round;"/>
   </g>
   <g id="text_15">
    <g id="patch_26">
     <path d="M 175.503726 147.541562 
L 193.969351 147.541562 
L 193.969351 131.863438 
L 175.503726 131.863438 
z
" style="fill:#ffffff;"/>
    </g>
    <!-- an -->
    <g transform="translate(178.503726 142.461875)scale(0.1 -0.1)">
     <use xlink:href="#DejaVuSans-61"/>
     <use x="61.279297" xlink:href="#DejaVuSans-6e"/>
    </g>
   </g>
   <g id="text_16">
    <g id="patch_27">
     <path d="M 178.555288 20.135313 
L 190.917788 20.135313 
L 190.917788 4.457188 
L 178.555288 4.457188 
z
" style="fill:#ffffff;"/>
    </g>
    <!-- 0 -->
    <g transform="translate(181.555288 15.055625)scale(0.1 -0.1)">
     <use xlink:href="#DejaVuSans-30"/>
    </g>
   </g>
   <g id="patch_28">
    <path d="M 184.736538 23.250013 
Q 184.736538 34.977596 184.736538 47.823213 
" style="fill:none;stroke:#000000;stroke-linecap:round;"/>
    <path d="M 182.736538 27.250013 
L 184.736538 23.250013 
L 186.736538 27.250013 
" style="fill:none;stroke:#000000;stroke-linecap:round;"/>
   </g>
   <g id="text_17">
    <g id="patch_29">
     <path d="M 225.85601 76.696719 
L 250.92476 76.696719 
L 250.92476 49.820781 
L 225.85601 49.820781 
z
" style="fill:#ffffff;stroke:#000000;stroke-linejoin:miter;"/>
    </g>
    <!--        -->
    <g transform="translate(228.85601 60.419219)scale(0.1 -0.1)">
     <use xlink:href="#DejaVuSans-20"/>
     <use x="31.787109" xlink:href="#DejaVuSans-20"/>
     <use x="63.574219" xlink:href="#DejaVuSans-20"/>
     <use x="95.361328" xlink:href="#DejaVuSans-20"/>
     <use x="127.148438" xlink:href="#DejaVuSans-20"/>
     <use x="158.935547" xlink:href="#DejaVuSans-20"/>
    </g>
    <!--  -->
    <g transform="translate(238.390385 71.617031)scale(0.1 -0.1)"/>
   </g>
   <g id="patch_30">
    <path d="M 222.738554 63.25875 
Q 211.564933 63.25875 199.273277 63.25875 
" style="fill:none;stroke:#000000;stroke-linecap:round;"/>
    <path d="M 218.738554 61.25875 
L 222.738554 63.25875 
L 218.738554 65.25875 
" style="fill:none;stroke:#000000;stroke-linecap:round;"/>
   </g>
   <g id="text_18">
    <g id="patch_31">
     <path d="M 217.791947 122.060313 
L 258.988822 122.060313 
L 258.988822 106.382188 
L 217.791947 106.382188 
z
" style="fill:#ffffff;"/>
    </g>
    <!-- orange -->
    <g transform="translate(220.791947 116.980625)scale(0.1 -0.1)">
     <defs>
      <path d="M 2906 1791 
Q 2906 2416 2648 2759 
Q 2391 3103 1925 3103 
Q 1463 3103 1205 2759 
Q 947 2416 947 1791 
Q 947 1169 1205 825 
Q 1463 481 1925 481 
Q 2391 481 2648 825 
Q 2906 1169 2906 1791 
z
M 3481 434 
Q 3481 -459 3084 -895 
Q 2688 -1331 1869 -1331 
Q 1566 -1331 1297 -1286 
Q 1028 -1241 775 -1147 
L 775 -588 
Q 1028 -725 1275 -790 
Q 1522 -856 1778 -856 
Q 2344 -856 2625 -561 
Q 2906 -266 2906 331 
L 2906 616 
Q 2728 306 2450 153 
Q 2172 0 1784 0 
Q 1141 0 747 490 
Q 353 981 353 1791 
Q 353 2603 747 3093 
Q 1141 3584 1784 3584 
Q 2172 3584 2450 3431 
Q 2728 3278 2906 2969 
L 2906 3500 
L 3481 3500 
L 3481 434 
z
" id="DejaVuSans-67" transform="scale(0.015625)"/>
     </defs>
     <use xlink:href="#DejaVuSans-6f"/>
     <use x="61.181641" xlink:href="#DejaVuSans-72"/>
     <use x="102.294922" xlink:href="#DejaVuSans-61"/>
     <use x="163.574219" xlink:href="#DejaVuSans-6e"/>
     <use x="226.953125" xlink:href="#DejaVuSans-67"/>
     <use x="290.429688" xlink:href="#DejaVuSans-65"/>
    </g>
   </g>
   <g id="patch_32">
    <path d="M 238.390385 104.385521 
Q 238.390385 91.539904 238.390385 79.812321 
" style="fill:none;stroke:#000000;stroke-linecap:round;"/>
    <path d="M 236.390385 83.812321 
L 238.390385 79.812321 
L 240.390385 83.812321 
" style="fill:none;stroke:#000000;stroke-linecap:round;"/>
   </g>
   <g id="text_19">
    <g id="patch_33">
     <path d="M 221.51226 147.541562 
L 255.26851 147.541562 
L 255.26851 131.863438 
L 221.51226 131.863438 
z
" style="fill:#ffffff;"/>
    </g>
    <!-- apple -->
    <g transform="translate(224.51226 142.461875)scale(0.1 -0.1)">
     <defs>
      <path d="M 1159 525 
L 1159 -1331 
L 581 -1331 
L 581 3500 
L 1159 3500 
L 1159 2969 
Q 1341 3281 1617 3432 
Q 1894 3584 2278 3584 
Q 2916 3584 3314 3078 
Q 3713 2572 3713 1747 
Q 3713 922 3314 415 
Q 2916 -91 2278 -91 
Q 1894 -91 1617 61 
Q 1341 213 1159 525 
z
M 3116 1747 
Q 3116 2381 2855 2742 
Q 2594 3103 2138 3103 
Q 1681 3103 1420 2742 
Q 1159 2381 1159 1747 
Q 1159 1113 1420 752 
Q 1681 391 2138 391 
Q 2594 391 2855 752 
Q 3116 1113 3116 1747 
z
" id="DejaVuSans-70" transform="scale(0.015625)"/>
     </defs>
     <use xlink:href="#DejaVuSans-61"/>
     <use x="61.279297" xlink:href="#DejaVuSans-70"/>
     <use x="124.755859" xlink:href="#DejaVuSans-70"/>
     <use x="188.232422" xlink:href="#DejaVuSans-6c"/>
     <use x="216.015625" xlink:href="#DejaVuSans-65"/>
    </g>
   </g>
   <g id="text_20">
    <g id="patch_34">
     <path d="M 232.209135 20.135313 
L 244.571635 20.135313 
L 244.571635 4.457188 
L 232.209135 4.457188 
z
" style="fill:#ffffff;"/>
    </g>
    <!-- 0 -->
    <g transform="translate(235.209135 15.055625)scale(0.1 -0.1)">
     <use xlink:href="#DejaVuSans-30"/>
    </g>
   </g>
   <g id="patch_35">
    <path d="M 238.390385 23.250013 
Q 238.390385 34.977596 238.390385 47.823213 
" style="fill:none;stroke:#000000;stroke-linecap:round;"/>
    <path d="M 236.390385 27.250013 
L 238.390385 23.250013 
L 240.390385 27.250013 
" style="fill:none;stroke:#000000;stroke-linecap:round;"/>
   </g>
   <g id="text_21">
    <g id="patch_36">
     <path d="M 219.370072 173.022813 
L 257.410697 173.022813 
L 257.410697 157.344688 
L 219.370072 157.344688 
z
" style="fill:#ffffff;"/>
    </g>
    <!-- durian -->
    <g transform="translate(222.370072 167.943125)scale(0.1 -0.1)">
     <defs>
      <path d="M 2906 2969 
L 2906 4863 
L 3481 4863 
L 3481 0 
L 2906 0 
L 2906 525 
Q 2725 213 2448 61 
Q 2172 -91 1784 -91 
Q 1150 -91 751 415 
Q 353 922 353 1747 
Q 353 2572 751 3078 
Q 1150 3584 1784 3584 
Q 2172 3584 2448 3432 
Q 2725 3281 2906 2969 
z
M 947 1747 
Q 947 1113 1208 752 
Q 1469 391 1925 391 
Q 2381 391 2643 752 
Q 2906 1113 2906 1747 
Q 2906 2381 2643 2742 
Q 2381 3103 1925 3103 
Q 1469 3103 1208 2742 
Q 947 2381 947 1747 
z
" id="DejaVuSans-64" transform="scale(0.015625)"/>
      <path d="M 544 1381 
L 544 3500 
L 1119 3500 
L 1119 1403 
Q 1119 906 1312 657 
Q 1506 409 1894 409 
Q 2359 409 2629 706 
Q 2900 1003 2900 1516 
L 2900 3500 
L 3475 3500 
L 3475 0 
L 2900 0 
L 2900 538 
Q 2691 219 2414 64 
Q 2138 -91 1772 -91 
Q 1169 -91 856 284 
Q 544 659 544 1381 
z
M 1991 3584 
L 1991 3584 
z
" id="DejaVuSans-75" transform="scale(0.015625)"/>
     </defs>
     <use xlink:href="#DejaVuSans-64"/>
     <use x="63.476562" xlink:href="#DejaVuSans-75"/>
     <use x="126.855469" xlink:href="#DejaVuSans-72"/>
     <use x="167.96875" xlink:href="#DejaVuSans-69"/>
     <use x="195.751953" xlink:href="#DejaVuSans-61"/>
     <use x="257.03125" xlink:href="#DejaVuSans-6e"/>
    </g>
   </g>
   <g id="text_22">
    <g id="patch_37">
     <path d="M 279.509856 76.696719 
L 304.578606 76.696719 
L 304.578606 49.820781 
L 279.509856 49.820781 
z
" style="fill:#ffffff;stroke:#000000;stroke-linejoin:miter;"/>
    </g>
    <!--        -->
    <g transform="translate(282.509856 60.419219)scale(0.1 -0.1)">
     <use xlink:href="#DejaVuSans-20"/>
     <use x="31.787109" xlink:href="#DejaVuSans-20"/>
     <use x="63.574219" xlink:href="#DejaVuSans-20"/>
     <use x="95.361328" xlink:href="#DejaVuSans-20"/>
     <use x="127.148438" xlink:href="#DejaVuSans-20"/>
     <use x="158.935547" xlink:href="#DejaVuSans-20"/>
    </g>
    <!--  -->
    <g transform="translate(292.044231 71.617031)scale(0.1 -0.1)"/>
   </g>
   <g id="patch_38">
    <path d="M 276.3924 63.25875 
Q 265.218779 63.25875 252.927123 63.25875 
" style="fill:none;stroke:#000000;stroke-linecap:round;"/>
    <path d="M 272.3924 61.25875 
L 276.3924 63.25875 
L 272.3924 65.25875 
" style="fill:none;stroke:#000000;stroke-linecap:round;"/>
   </g>
   <g id="text_23">
    <g id="patch_39">
     <path d="M 272.2497 122.060313 
L 311.838762 122.060313 
L 311.838762 106.382188 
L 272.2497 106.382188 
z
" style="fill:#ffffff;"/>
    </g>
    <!-- farmer -->
    <g transform="translate(275.2497 116.980625)scale(0.1 -0.1)">
     <defs>
      <path d="M 2375 4863 
L 2375 4384 
L 1825 4384 
Q 1516 4384 1395 4259 
Q 1275 4134 1275 3809 
L 1275 3500 
L 2222 3500 
L 2222 3053 
L 1275 3053 
L 1275 0 
L 697 0 
L 697 3053 
L 147 3053 
L 147 3500 
L 697 3500 
L 697 3744 
Q 697 4328 969 4595 
Q 1241 4863 1831 4863 
L 2375 4863 
z
" id="DejaVuSans-66" transform="scale(0.015625)"/>
      <path d="M 3328 2828 
Q 3544 3216 3844 3400 
Q 4144 3584 4550 3584 
Q 5097 3584 5394 3201 
Q 5691 2819 5691 2113 
L 5691 0 
L 5113 0 
L 5113 2094 
Q 5113 2597 4934 2840 
Q 4756 3084 4391 3084 
Q 3944 3084 3684 2787 
Q 3425 2491 3425 1978 
L 3425 0 
L 2847 0 
L 2847 2094 
Q 2847 2600 2669 2842 
Q 2491 3084 2119 3084 
Q 1678 3084 1418 2786 
Q 1159 2488 1159 1978 
L 1159 0 
L 581 0 
L 581 3500 
L 1159 3500 
L 1159 2956 
Q 1356 3278 1631 3431 
Q 1906 3584 2284 3584 
Q 2666 3584 2933 3390 
Q 3200 3197 3328 2828 
z
" id="DejaVuSans-6d" transform="scale(0.015625)"/>
     </defs>
     <use xlink:href="#DejaVuSans-66"/>
     <use x="35.205078" xlink:href="#DejaVuSans-61"/>
     <use x="96.484375" xlink:href="#DejaVuSans-72"/>
     <use x="135.847656" xlink:href="#DejaVuSans-6d"/>
     <use x="233.259766" xlink:href="#DejaVuSans-65"/>
     <use x="294.783203" xlink:href="#DejaVuSans-72"/>
    </g>
   </g>
   <g id="patch_40">
    <path d="M 292.044231 104.385521 
Q 292.044231 91.539904 292.044231 79.812321 
" style="fill:none;stroke:#000000;stroke-linecap:round;"/>
    <path d="M 290.044231 83.812321 
L 292.044231 79.812321 
L 294.044231 83.812321 
" style="fill:none;stroke:#000000;stroke-linecap:round;"/>
   </g>
   <g id="text_24">
    <g id="patch_41">
     <path d="M 272.2497 147.541562 
L 311.838762 147.541562 
L 311.838762 131.863438 
L 272.2497 131.863438 
z
" style="fill:#ffffff;"/>
    </g>
    <!-- farmer -->
    <g transform="translate(275.2497 142.461875)scale(0.1 -0.1)">
     <use xlink:href="#DejaVuSans-66"/>
     <use x="35.205078" xlink:href="#DejaVuSans-61"/>
     <use x="96.484375" xlink:href="#DejaVuSans-72"/>
     <use x="135.847656" xlink:href="#DejaVuSans-6d"/>
     <use x="233.259766" xlink:href="#DejaVuSans-65"/>
     <use x="294.783203" xlink:href="#DejaVuSans-72"/>
    </g>
   </g>
   <g id="text_25">
    <g id="patch_42">
     <path d="M 285.862981 20.135313 
L 298.225481 20.135313 
L 298.225481 4.457188 
L 285.862981 4.457188 
z
" style="fill:#ffffff;"/>
    </g>
    <!-- 0 -->
    <g transform="translate(288.862981 15.055625)scale(0.1 -0.1)">
     <use xlink:href="#DejaVuSans-30"/>
    </g>
   </g>
   <g id="patch_43">
    <path d="M 292.044231 23.250013 
Q 292.044231 34.977596 292.044231 47.823213 
" style="fill:none;stroke:#000000;stroke-linecap:round;"/>
    <path d="M 290.044231 27.250013 
L 292.044231 23.250013 
L 294.044231 27.250013 
" style="fill:none;stroke:#000000;stroke-linecap:round;"/>
   </g>
   <g id="text_26">
    <g id="patch_44">
     <path d="M 265.289543 173.022813 
L 318.798918 173.022813 
L 318.798918 157.344688 
L 265.289543 157.344688 
z
" style="fill:#ffffff;"/>
    </g>
    <!-- cultivator -->
    <g transform="translate(268.289543 167.943125)scale(0.1 -0.1)">
     <defs>
      <path d="M 3122 3366 
L 3122 2828 
Q 2878 2963 2633 3030 
Q 2388 3097 2138 3097 
Q 1578 3097 1268 2742 
Q 959 2388 959 1747 
Q 959 1106 1268 751 
Q 1578 397 2138 397 
Q 2388 397 2633 464 
Q 2878 531 3122 666 
L 3122 134 
Q 2881 22 2623 -34 
Q 2366 -91 2075 -91 
Q 1284 -91 818 406 
Q 353 903 353 1747 
Q 353 2603 823 3093 
Q 1294 3584 2113 3584 
Q 2378 3584 2631 3529 
Q 2884 3475 3122 3366 
z
" id="DejaVuSans-63" transform="scale(0.015625)"/>
      <path d="M 191 3500 
L 800 3500 
L 1894 563 
L 2988 3500 
L 3597 3500 
L 2284 0 
L 1503 0 
L 191 3500 
z
" id="DejaVuSans-76" transform="scale(0.015625)"/>
     </defs>
     <use xlink:href="#DejaVuSans-63"/>
     <use x="54.980469" xlink:href="#DejaVuSans-75"/>
     <use x="118.359375" xlink:href="#DejaVuSans-6c"/>
     <use x="146.142578" xlink:href="#DejaVuSans-74"/>
     <use x="185.351562" xlink:href="#DejaVuSans-69"/>
     <use x="213.134766" xlink:href="#DejaVuSans-76"/>
     <use x="272.314453" xlink:href="#DejaVuSans-61"/>
     <use x="333.59375" xlink:href="#DejaVuSans-74"/>
     <use x="372.802734" xlink:href="#DejaVuSans-6f"/>
     <use x="433.984375" xlink:href="#DejaVuSans-72"/>
    </g>
   </g>
  </g>
 </g>
</svg>
