<?xml version="1.0" encoding="utf-8" standalone="no"?>
<!DOCTYPE svg PUBLIC "-//W3C//DTD SVG 1.1//EN"
  "http://www.w3.org/Graphics/SVG/1.1/DTD/svg11.dtd">
<svg height="231.84pt" version="1.1" viewBox="0 0 355.162332 231.84" width="355.162332pt" xmlns="http://www.w3.org/2000/svg" xmlns:xlink="http://www.w3.org/1999/xlink">
 <metadata>
  <rdf:RDF xmlns:cc="http://creativecommons.org/ns#" xmlns:dc="http://purl.org/dc/elements/1.1/" xmlns:rdf="http://www.w3.org/1999/02/22-rdf-syntax-ns#">
   <cc:Work>
    <dc:type rdf:resource="http://purl.org/dc/dcmitype/StillImage"/>
    <dc:date>2021-10-02T10:35:47.830162</dc:date>
    <dc:format>image/svg+xml</dc:format>
    <dc:creator>
     <cc:Agent>
      <dc:title>Matplotlib v3.4.3, https://matplotlib.org/</dc:title>
     </cc:Agent>
    </dc:creator>
   </cc:Work>
  </rdf:RDF>
 </metadata>
 <defs>
  <style type="text/css">*{stroke-linecap:butt;stroke-linejoin:round;}</style>
 </defs>
 <g id="figure_1">
  <g id="patch_1">
   <path d="M 0 231.84 
L 355.162332 231.84 
L 355.162332 0 
L 0 0 
z
" style="fill:none;"/>
  </g>
  <g id="axes_1">
   <g id="text_1">
    <g id="patch_2">
     <path d="M 180.562332 24.185781 
C 183.264959 24.185781 185.857257 23.112016 187.768302 21.200971 
C 189.679348 19.289925 190.753113 16.697627 190.753113 13.995 
C 190.753113 11.292373 189.679348 8.700075 187.768302 6.789029 
C 185.857257 4.877984 183.264959 3.804219 180.562332 3.804219 
C 177.859705 3.804219 175.267407 4.877984 173.356361 6.789029 
C 171.445315 8.700075 170.37155 11.292373 170.37155 13.995 
C 170.37155 16.697627 171.445315 19.289925 173.356361 21.200971 
C 175.267407 23.112016 177.859705 24.185781 180.562332 24.185781 
z
" style="fill:#ffffff;stroke:#000000;stroke-linejoin:miter;"/>
    </g>
    <!--   -->
    <g transform="translate(178.49655 17.582187)scale(0.13 -0.13)">
     <defs>
      <path id="DejaVuSans-20" transform="scale(0.015625)"/>
     </defs>
     <use xlink:href="#DejaVuSans-20"/>
    </g>
   </g>
   <g id="text_2">
    <!-- $\frac{n}{1}$ -->
    <g transform="translate(157.430769 15.445)scale(0.1 -0.1)">
     <defs>
      <path d="M 494 109 
Q 494 147 500 166 
L 978 2075 
Q 1025 2253 1025 2388 
Q 1025 2663 838 2663 
Q 638 2663 541 2423 
Q 444 2184 353 1819 
Q 353 1800 334 1789 
Q 316 1778 300 1778 
L 225 1778 
Q 203 1778 187 1801 
Q 172 1825 172 1844 
Q 241 2122 305 2315 
Q 369 2509 505 2668 
Q 641 2828 844 2828 
Q 1084 2828 1268 2676 
Q 1453 2525 1453 2291 
Q 1644 2541 1900 2684 
Q 2156 2828 2444 2828 
Q 2672 2828 2837 2750 
Q 3003 2672 3095 2514 
Q 3188 2356 3188 2138 
Q 3188 1875 3070 1503 
Q 2953 1131 2778 672 
Q 2688 463 2688 288 
Q 2688 97 2834 97 
Q 3084 97 3251 365 
Q 3419 634 3488 941 
Q 3500 978 3541 978 
L 3616 978 
Q 3641 978 3658 962 
Q 3675 947 3675 922 
Q 3675 916 3669 903 
Q 3581 541 3364 234 
Q 3147 -72 2822 -72 
Q 2597 -72 2437 83 
Q 2278 238 2278 459 
Q 2278 578 2328 709 
Q 2409 919 2514 1209 
Q 2619 1500 2686 1765 
Q 2753 2031 2753 2234 
Q 2753 2413 2679 2538 
Q 2606 2663 2431 2663 
Q 2197 2663 2000 2559 
Q 1803 2456 1656 2286 
Q 1509 2116 1388 1881 
L 953 141 
Q 931 53 854 -9 
Q 778 -72 684 -72 
Q 606 -72 550 -22 
Q 494 28 494 109 
z
" id="Cmmi10-6e" transform="scale(0.015625)"/>
      <path d="M 594 0 
L 594 225 
Q 1394 225 1394 428 
L 1394 3788 
Q 1063 3628 556 3628 
L 556 3853 
Q 1341 3853 1741 4263 
L 1831 4263 
Q 1853 4263 1873 4245 
Q 1894 4228 1894 4206 
L 1894 428 
Q 1894 225 2694 225 
L 2694 0 
L 594 0 
z
" id="Cmr10-31" transform="scale(0.015625)"/>
     </defs>
     <use transform="translate(0 39.06875)scale(0.7)" xlink:href="#Cmmi10-6e"/>
     <use transform="translate(4 -39.595313)scale(0.7)" xlink:href="#Cmr10-31"/>
     <path d="M 0 13.28125 
L 0 19.53125 
L 42.006836 19.53125 
L 42.006836 13.28125 
L 0 13.28125 
z
"/>
    </g>
   </g>
   <g id="text_3">
    <g id="patch_3">
     <path d="M 94.716178 92.135781 
C 97.418805 92.135781 100.011103 91.062016 101.922148 89.150971 
C 103.833194 87.239925 104.906959 84.647627 104.906959 81.945 
C 104.906959 79.242373 103.833194 76.650075 101.922148 74.739029 
C 100.011103 72.827984 97.418805 71.754219 94.716178 71.754219 
C 92.013551 71.754219 89.421253 72.827984 87.510207 74.739029 
C 85.599162 76.650075 84.525397 79.242373 84.525397 81.945 
C 84.525397 84.647627 85.599162 87.239925 87.510207 89.150971 
C 89.421253 91.062016 92.013551 92.135781 94.716178 92.135781 
z
" style="fill:#ffffff;stroke:#000000;stroke-linejoin:miter;"/>
    </g>
    <!--   -->
    <g transform="translate(92.650397 85.532187)scale(0.13 -0.13)">
     <use xlink:href="#DejaVuSans-20"/>
    </g>
   </g>
   <g id="text_4">
    <!-- $\frac{n}{2}$ -->
    <g transform="translate(71.584615 83.395)scale(0.1 -0.1)">
     <defs>
      <path d="M 319 0 
L 319 172 
Q 319 188 331 206 
L 1325 1306 
Q 1550 1550 1690 1715 
Q 1831 1881 1968 2097 
Q 2106 2313 2186 2536 
Q 2266 2759 2266 3009 
Q 2266 3272 2169 3511 
Q 2072 3750 1880 3894 
Q 1688 4038 1416 4038 
Q 1138 4038 916 3870 
Q 694 3703 603 3438 
Q 628 3444 672 3444 
Q 816 3444 917 3347 
Q 1019 3250 1019 3097 
Q 1019 2950 917 2848 
Q 816 2747 672 2747 
Q 522 2747 420 2851 
Q 319 2956 319 3097 
Q 319 3338 409 3548 
Q 500 3759 670 3923 
Q 841 4088 1055 4175 
Q 1269 4263 1509 4263 
Q 1875 4263 2190 4108 
Q 2506 3953 2690 3670 
Q 2875 3388 2875 3009 
Q 2875 2731 2753 2481 
Q 2631 2231 2440 2026 
Q 2250 1822 1953 1562 
Q 1656 1303 1563 1216 
L 838 519 
L 1453 519 
Q 1906 519 2211 526 
Q 2516 534 2534 550 
Q 2609 631 2688 1141 
L 2875 1141 
L 2694 0 
L 319 0 
z
" id="Cmr10-32" transform="scale(0.015625)"/>
     </defs>
     <use transform="translate(0 39.06875)scale(0.7)" xlink:href="#Cmmi10-6e"/>
     <use transform="translate(4 -39.595313)scale(0.7)" xlink:href="#Cmr10-32"/>
     <path d="M 0 13.28125 
L 0 19.53125 
L 42.006836 19.53125 
L 42.006836 13.28125 
L 0 13.28125 
z
"/>
    </g>
   </g>
   <g id="patch_4">
    <path d="M 97.355034 70.095034 
Q 132.542478 47.970871 168.676414 25.251601 
" style="fill:none;stroke:#000000;stroke-linecap:round;"/>
    <path d="M 103.141117 69.52825 
L 97.355034 70.095034 
L 100.373256 65.126097 
" style="fill:none;stroke:#000000;stroke-linecap:round;"/>
   </g>
   <g id="text_5">
    <g id="patch_5">
     <path d="M 266.408486 92.135781 
C 269.111112 92.135781 271.70341 91.062016 273.614456 89.150971 
C 275.525502 87.239925 276.599267 84.647627 276.599267 81.945 
C 276.599267 79.242373 275.525502 76.650075 273.614456 74.739029 
C 271.70341 72.827984 269.111112 71.754219 266.408486 71.754219 
C 263.705859 71.754219 261.113561 72.827984 259.202515 74.739029 
C 257.291469 76.650075 256.217704 79.242373 256.217704 81.945 
C 256.217704 84.647627 257.291469 87.239925 259.202515 89.150971 
C 261.113561 91.062016 263.705859 92.135781 266.408486 92.135781 
z
" style="fill:#ffffff;stroke:#000000;stroke-linejoin:miter;"/>
    </g>
    <!--   -->
    <g transform="translate(264.342704 85.532187)scale(0.13 -0.13)">
     <use xlink:href="#DejaVuSans-20"/>
    </g>
   </g>
   <g id="text_6">
    <!-- $\frac{n}{2}$ -->
    <g transform="translate(243.276923 83.395)scale(0.1 -0.1)">
     <use transform="translate(0 39.06875)scale(0.7)" xlink:href="#Cmmi10-6e"/>
     <use transform="translate(4 -39.595313)scale(0.7)" xlink:href="#Cmr10-32"/>
     <path d="M 0 13.28125 
L 0 19.53125 
L 42.006836 19.53125 
L 42.006836 13.28125 
L 0 13.28125 
z
"/>
    </g>
   </g>
   <g id="patch_6">
    <path d="M 263.76963 70.095034 
Q 228.582185 47.970871 192.448249 25.251601 
" style="fill:none;stroke:#000000;stroke-linecap:round;"/>
    <path d="M 260.751407 65.126097 
L 263.76963 70.095034 
L 257.983547 69.52825 
" style="fill:none;stroke:#000000;stroke-linecap:round;"/>
   </g>
   <g id="text_7">
    <g id="patch_7">
     <path d="M 51.793101 160.085781 
C 54.495728 160.085781 57.088026 159.012016 58.999071 157.100971 
C 60.910117 155.189925 61.983882 152.597627 61.983882 149.895 
C 61.983882 147.192373 60.910117 144.600075 58.999071 142.689029 
C 57.088026 140.777984 54.495728 139.704219 51.793101 139.704219 
C 49.090474 139.704219 46.498176 140.777984 44.58713 142.689029 
C 42.676085 144.600075 41.60232 147.192373 41.60232 149.895 
C 41.60232 152.597627 42.676085 155.189925 44.58713 157.100971 
C 46.498176 159.012016 49.090474 160.085781 51.793101 160.085781 
z
" style="fill:#ffffff;stroke:#000000;stroke-linejoin:miter;"/>
    </g>
    <!--   -->
    <g transform="translate(49.72732 153.482187)scale(0.13 -0.13)">
     <use xlink:href="#DejaVuSans-20"/>
    </g>
   </g>
   <g id="text_8">
    <!-- $\frac{n}{4}$ -->
    <g transform="translate(28.661538 151.345)scale(0.1 -0.1)">
     <defs>
      <path d="M 178 1056 
L 178 1281 
L 2156 4231 
Q 2178 4263 2222 4263 
L 2316 4263 
Q 2388 4263 2388 4191 
L 2388 1281 
L 3016 1281 
L 3016 1056 
L 2388 1056 
L 2388 428 
Q 2388 297 2575 261 
Q 2763 225 3009 225 
L 3009 0 
L 1247 0 
L 1247 225 
Q 1494 225 1681 261 
Q 1869 297 1869 428 
L 1869 1056 
L 178 1056 
z
M 391 1281 
L 1906 1281 
L 1906 3547 
L 391 1281 
z
" id="Cmr10-34" transform="scale(0.015625)"/>
     </defs>
     <use transform="translate(0 39.06875)scale(0.7)" xlink:href="#Cmmi10-6e"/>
     <use transform="translate(4 -39.595313)scale(0.7)" xlink:href="#Cmr10-34"/>
     <path d="M 0 13.28125 
L 0 19.53125 
L 42.006836 19.53125 
L 42.006836 13.28125 
L 0 13.28125 
z
"/>
    </g>
   </g>
   <g id="patch_8">
    <path d="M 53.559645 137.136976 
Q 68.159563 115.919544 83.39326 93.781067 
" style="fill:none;stroke:#000000;stroke-linecap:round;"/>
    <path d="M 58.649267 134.327039 
L 53.559645 137.136976 
L 54.365468 131.379316 
" style="fill:none;stroke:#000000;stroke-linecap:round;"/>
   </g>
   <g id="text_9">
    <g id="patch_9">
     <path d="M 137.639255 160.085781 
C 140.341882 160.085781 142.93418 159.012016 144.845225 157.100971 
C 146.756271 155.189925 147.830036 152.597627 147.830036 149.895 
C 147.830036 147.192373 146.756271 144.600075 144.845225 142.689029 
C 142.93418 140.777984 140.341882 139.704219 137.639255 139.704219 
C 134.936628 139.704219 132.34433 140.777984 130.433284 142.689029 
C 128.522239 144.600075 127.448474 147.192373 127.448474 149.895 
C 127.448474 152.597627 128.522239 155.189925 130.433284 157.100971 
C 132.34433 159.012016 134.936628 160.085781 137.639255 160.085781 
z
" style="fill:#ffffff;stroke:#000000;stroke-linejoin:miter;"/>
    </g>
    <!--   -->
    <g transform="translate(135.573474 153.482187)scale(0.13 -0.13)">
     <use xlink:href="#DejaVuSans-20"/>
    </g>
   </g>
   <g id="text_10">
    <!-- $\frac{n}{4}$ -->
    <g transform="translate(114.507692 151.345)scale(0.1 -0.1)">
     <use transform="translate(0 39.06875)scale(0.7)" xlink:href="#Cmmi10-6e"/>
     <use transform="translate(4 -39.595313)scale(0.7)" xlink:href="#Cmr10-34"/>
     <path d="M 0 13.28125 
L 0 19.53125 
L 42.006836 19.53125 
L 42.006836 13.28125 
L 0 13.28125 
z
"/>
    </g>
   </g>
   <g id="patch_10">
    <path d="M 135.872711 137.136976 
Q 121.272793 115.919544 106.039096 93.781067 
" style="fill:none;stroke:#000000;stroke-linecap:round;"/>
    <path d="M 135.066887 131.379316 
L 135.872711 137.136976 
L 130.783089 134.327039 
" style="fill:none;stroke:#000000;stroke-linecap:round;"/>
   </g>
   <g id="text_11">
    <g id="patch_11">
     <path d="M 223.485409 160.085781 
C 226.188035 160.085781 228.780333 159.012016 230.691379 157.100971 
C 232.602425 155.189925 233.67619 152.597627 233.67619 149.895 
C 233.67619 147.192373 232.602425 144.600075 230.691379 142.689029 
C 228.780333 140.777984 226.188035 139.704219 223.485409 139.704219 
C 220.782782 139.704219 218.190484 140.777984 216.279438 142.689029 
C 214.368392 144.600075 213.294627 147.192373 213.294627 149.895 
C 213.294627 152.597627 214.368392 155.189925 216.279438 157.100971 
C 218.190484 159.012016 220.782782 160.085781 223.485409 160.085781 
z
" style="fill:#ffffff;stroke:#000000;stroke-linejoin:miter;"/>
    </g>
    <!--   -->
    <g transform="translate(221.419627 153.482187)scale(0.13 -0.13)">
     <use xlink:href="#DejaVuSans-20"/>
    </g>
   </g>
   <g id="text_12">
    <!-- $\frac{n}{4}$ -->
    <g transform="translate(200.353846 151.345)scale(0.1 -0.1)">
     <use transform="translate(0 39.06875)scale(0.7)" xlink:href="#Cmmi10-6e"/>
     <use transform="translate(4 -39.595313)scale(0.7)" xlink:href="#Cmr10-34"/>
     <path d="M 0 13.28125 
L 0 19.53125 
L 42.006836 19.53125 
L 42.006836 13.28125 
L 0 13.28125 
z
"/>
    </g>
   </g>
   <g id="patch_12">
    <path d="M 225.251953 137.136976 
Q 239.85187 115.919544 255.085568 93.781067 
" style="fill:none;stroke:#000000;stroke-linecap:round;"/>
    <path d="M 230.341575 134.327039 
L 225.251953 137.136976 
L 226.057776 131.379316 
" style="fill:none;stroke:#000000;stroke-linecap:round;"/>
   </g>
   <g id="text_13">
    <g id="patch_13">
     <path d="M 309.331563 160.085781 
C 312.034189 160.085781 314.626487 159.012016 316.537533 157.100971 
C 318.448579 155.189925 319.522344 152.597627 319.522344 149.895 
C 319.522344 147.192373 318.448579 144.600075 316.537533 142.689029 
C 314.626487 140.777984 312.034189 139.704219 309.331563 139.704219 
C 306.628936 139.704219 304.036638 140.777984 302.125592 142.689029 
C 300.214546 144.600075 299.140781 147.192373 299.140781 149.895 
C 299.140781 152.597627 300.214546 155.189925 302.125592 157.100971 
C 304.036638 159.012016 306.628936 160.085781 309.331563 160.085781 
z
" style="fill:#ffffff;stroke:#000000;stroke-linejoin:miter;"/>
    </g>
    <!--   -->
    <g transform="translate(307.265781 153.482187)scale(0.13 -0.13)">
     <use xlink:href="#DejaVuSans-20"/>
    </g>
   </g>
   <g id="text_14">
    <!-- $\frac{n}{4}$ -->
    <g transform="translate(286.2 151.345)scale(0.1 -0.1)">
     <use transform="translate(0 39.06875)scale(0.7)" xlink:href="#Cmmi10-6e"/>
     <use transform="translate(4 -39.595313)scale(0.7)" xlink:href="#Cmr10-34"/>
     <path d="M 0 13.28125 
L 0 19.53125 
L 42.006836 19.53125 
L 42.006836 13.28125 
L 0 13.28125 
z
"/>
    </g>
   </g>
   <g id="patch_14">
    <path d="M 307.565018 137.136976 
Q 292.965101 115.919544 277.731403 93.781067 
" style="fill:none;stroke:#000000;stroke-linecap:round;"/>
    <path d="M 306.759195 131.379316 
L 307.565018 137.136976 
L 302.475396 134.327039 
" style="fill:none;stroke:#000000;stroke-linecap:round;"/>
   </g>
   <g id="text_15">
    <g id="patch_15">
     <path d="M 30.331562 228.035781 
C 33.034189 228.035781 35.626487 226.962016 37.537533 225.050971 
C 39.448579 223.139925 40.522344 220.547627 40.522344 217.845 
C 40.522344 215.142373 39.448579 212.550075 37.537533 210.639029 
C 35.626487 208.727984 33.034189 207.654219 30.331562 207.654219 
C 27.628936 207.654219 25.036638 208.727984 23.125592 210.639029 
C 21.214546 212.550075 20.140781 215.142373 20.140781 217.845 
C 20.140781 220.547627 21.214546 223.139925 23.125592 225.050971 
C 25.036638 226.962016 27.628936 228.035781 30.331562 228.035781 
z
" style="fill:#ffffff;stroke:#000000;stroke-linejoin:miter;"/>
    </g>
    <!--   -->
    <g transform="translate(28.265781 221.432187)scale(0.13 -0.13)">
     <use xlink:href="#DejaVuSans-20"/>
    </g>
   </g>
   <g id="text_16">
    <!-- $\frac{n}{8}$ -->
    <g transform="translate(7.2 219.245)scale(0.1 -0.1)">
     <defs>
      <path d="M 269 972 
Q 269 1356 522 1651 
Q 775 1947 1172 2144 
L 934 2297 
Q 716 2441 578 2680 
Q 441 2919 441 3181 
Q 441 3488 602 3734 
Q 763 3981 1030 4122 
Q 1297 4263 1600 4263 
Q 1884 4263 2148 4147 
Q 2413 4031 2583 3815 
Q 2753 3600 2753 3303 
Q 2753 3088 2651 2903 
Q 2550 2719 2373 2572 
Q 2197 2425 1997 2322 
L 2363 2088 
Q 2616 1922 2770 1653 
Q 2925 1384 2925 1088 
Q 2925 741 2739 456 
Q 2553 172 2247 15 
Q 1941 -141 1600 -141 
Q 1269 -141 961 -6 
Q 653 128 461 383 
Q 269 638 269 972 
z
M 616 972 
Q 616 719 755 509 
Q 894 300 1122 181 
Q 1350 63 1600 63 
Q 1972 63 2275 280 
Q 2578 497 2578 856 
Q 2578 978 2529 1098 
Q 2481 1219 2395 1317 
Q 2309 1416 2203 1478 
L 1344 2034 
Q 1144 1928 976 1765 
Q 809 1603 712 1400 
Q 616 1197 616 972 
z
M 1056 2925 
L 1831 2425 
Q 2100 2581 2272 2803 
Q 2444 3025 2444 3303 
Q 2444 3519 2323 3698 
Q 2203 3878 2009 3978 
Q 1816 4078 1594 4078 
Q 1400 4078 1203 4003 
Q 1006 3928 878 3779 
Q 750 3631 750 3431 
Q 750 3131 1056 2925 
z
" id="Cmr10-38" transform="scale(0.015625)"/>
     </defs>
     <use transform="translate(0 39.06875)scale(0.7)" xlink:href="#Cmmi10-6e"/>
     <use transform="translate(4 -39.595313)scale(0.7)" xlink:href="#Cmr10-38"/>
     <path d="M 0 13.28125 
L 0 19.53125 
L 42.006836 19.53125 
L 42.006836 13.28125 
L 0 13.28125 
z
"/>
    </g>
   </g>
   <g id="patch_16">
    <path d="M 31.050919 204.618159 
Q 35.967157 183.869089 41.141162 162.032106 
" style="fill:none;stroke:#000000;stroke-linecap:round;"/>
    <path d="M 34.779757 200.157692 
L 31.050919 204.618159 
L 29.719848 198.958809 
" style="fill:none;stroke:#000000;stroke-linecap:round;"/>
   </g>
   <g id="text_17">
    <g id="patch_17">
     <path d="M 73.254639 228.035781 
C 75.957266 228.035781 78.549564 226.962016 80.46061 225.050971 
C 82.371656 223.139925 83.445421 220.547627 83.445421 217.845 
C 83.445421 215.142373 82.371656 212.550075 80.46061 210.639029 
C 78.549564 208.727984 75.957266 207.654219 73.254639 207.654219 
C 70.552013 207.654219 67.959715 208.727984 66.048669 210.639029 
C 64.137623 212.550075 63.063858 215.142373 63.063858 217.845 
C 63.063858 220.547627 64.137623 223.139925 66.048669 225.050971 
C 67.959715 226.962016 70.552013 228.035781 73.254639 228.035781 
z
" style="fill:#ffffff;stroke:#000000;stroke-linejoin:miter;"/>
    </g>
    <!--   -->
    <g transform="translate(71.188858 221.432187)scale(0.13 -0.13)">
     <use xlink:href="#DejaVuSans-20"/>
    </g>
   </g>
   <g id="text_18">
    <!-- $\frac{n}{8}$ -->
    <g transform="translate(50.123077 219.245)scale(0.1 -0.1)">
     <use transform="translate(0 39.06875)scale(0.7)" xlink:href="#Cmmi10-6e"/>
     <use transform="translate(4 -39.595313)scale(0.7)" xlink:href="#Cmr10-38"/>
     <path d="M 0 13.28125 
L 0 19.53125 
L 42.006836 19.53125 
L 42.006836 13.28125 
L 0 13.28125 
z
"/>
    </g>
   </g>
   <g id="patch_18">
    <path d="M 72.535282 204.618159 
Q 67.619045 183.869089 62.44504 162.032106 
" style="fill:none;stroke:#000000;stroke-linecap:round;"/>
    <path d="M 73.866354 198.958809 
L 72.535282 204.618159 
L 68.806445 200.157692 
" style="fill:none;stroke:#000000;stroke-linecap:round;"/>
   </g>
   <g id="text_19">
    <g id="patch_19">
     <path d="M 116.177716 228.035781 
C 118.880343 228.035781 121.472641 226.962016 123.383687 225.050971 
C 125.294733 223.139925 126.368498 220.547627 126.368498 217.845 
C 126.368498 215.142373 125.294733 212.550075 123.383687 210.639029 
C 121.472641 208.727984 118.880343 207.654219 116.177716 207.654219 
C 113.47509 207.654219 110.882792 208.727984 108.971746 210.639029 
C 107.0607 212.550075 105.986935 215.142373 105.986935 217.845 
C 105.986935 220.547627 107.0607 223.139925 108.971746 225.050971 
C 110.882792 226.962016 113.47509 228.035781 116.177716 228.035781 
z
" style="fill:#ffffff;stroke:#000000;stroke-linejoin:miter;"/>
    </g>
    <!--   -->
    <g transform="translate(114.111935 221.432187)scale(0.13 -0.13)">
     <use xlink:href="#DejaVuSans-20"/>
    </g>
   </g>
   <g id="text_20">
    <!-- $\frac{n}{8}$ -->
    <g transform="translate(93.046154 219.245)scale(0.1 -0.1)">
     <use transform="translate(0 39.06875)scale(0.7)" xlink:href="#Cmmi10-6e"/>
     <use transform="translate(4 -39.595313)scale(0.7)" xlink:href="#Cmr10-38"/>
     <path d="M 0 13.28125 
L 0 19.53125 
L 42.006836 19.53125 
L 42.006836 13.28125 
L 0 13.28125 
z
"/>
    </g>
   </g>
   <g id="patch_20">
    <path d="M 116.897073 204.618159 
Q 121.813311 183.869089 126.987316 162.032106 
" style="fill:none;stroke:#000000;stroke-linecap:round;"/>
    <path d="M 120.625911 200.157692 
L 116.897073 204.618159 
L 115.566002 198.958809 
" style="fill:none;stroke:#000000;stroke-linecap:round;"/>
   </g>
   <g id="text_21">
    <g id="patch_21">
     <path d="M 159.100793 228.035781 
C 161.80342 228.035781 164.395718 226.962016 166.306764 225.050971 
C 168.21781 223.139925 169.291575 220.547627 169.291575 217.845 
C 169.291575 215.142373 168.21781 212.550075 166.306764 210.639029 
C 164.395718 208.727984 161.80342 207.654219 159.100793 207.654219 
C 156.398166 207.654219 153.805868 208.727984 151.894823 210.639029 
C 149.983777 212.550075 148.910012 215.142373 148.910012 217.845 
C 148.910012 220.547627 149.983777 223.139925 151.894823 225.050971 
C 153.805868 226.962016 156.398166 228.035781 159.100793 228.035781 
z
" style="fill:#ffffff;stroke:#000000;stroke-linejoin:miter;"/>
    </g>
    <!--   -->
    <g transform="translate(157.035012 221.432187)scale(0.13 -0.13)">
     <use xlink:href="#DejaVuSans-20"/>
    </g>
   </g>
   <g id="text_22">
    <!-- $\frac{n}{8}$ -->
    <g transform="translate(135.969231 219.245)scale(0.1 -0.1)">
     <use transform="translate(0 39.06875)scale(0.7)" xlink:href="#Cmmi10-6e"/>
     <use transform="translate(4 -39.595313)scale(0.7)" xlink:href="#Cmr10-38"/>
     <path d="M 0 13.28125 
L 0 19.53125 
L 42.006836 19.53125 
L 42.006836 13.28125 
L 0 13.28125 
z
"/>
    </g>
   </g>
   <g id="patch_22">
    <path d="M 158.381436 204.618159 
Q 153.465199 183.869089 148.291194 162.032106 
" style="fill:none;stroke:#000000;stroke-linecap:round;"/>
    <path d="M 159.712507 198.958809 
L 158.381436 204.618159 
L 154.652598 200.157692 
" style="fill:none;stroke:#000000;stroke-linecap:round;"/>
   </g>
   <g id="text_23">
    <g id="patch_23">
     <path d="M 202.02387 228.035781 
C 204.726497 228.035781 207.318795 226.962016 209.229841 225.050971 
C 211.140886 223.139925 212.214651 220.547627 212.214651 217.845 
C 212.214651 215.142373 211.140886 212.550075 209.229841 210.639029 
C 207.318795 208.727984 204.726497 207.654219 202.02387 207.654219 
C 199.321243 207.654219 196.728945 208.727984 194.8179 210.639029 
C 192.906854 212.550075 191.833089 215.142373 191.833089 217.845 
C 191.833089 220.547627 192.906854 223.139925 194.8179 225.050971 
C 196.728945 226.962016 199.321243 228.035781 202.02387 228.035781 
z
" style="fill:#ffffff;stroke:#000000;stroke-linejoin:miter;"/>
    </g>
    <!--   -->
    <g transform="translate(199.958089 221.432187)scale(0.13 -0.13)">
     <use xlink:href="#DejaVuSans-20"/>
    </g>
   </g>
   <g id="text_24">
    <!-- $\frac{n}{8}$ -->
    <g transform="translate(178.892308 219.245)scale(0.1 -0.1)">
     <use transform="translate(0 39.06875)scale(0.7)" xlink:href="#Cmmi10-6e"/>
     <use transform="translate(4 -39.595313)scale(0.7)" xlink:href="#Cmr10-38"/>
     <path d="M 0 13.28125 
L 0 19.53125 
L 42.006836 19.53125 
L 42.006836 13.28125 
L 0 13.28125 
z
"/>
    </g>
   </g>
   <g id="patch_24">
    <path d="M 202.743227 204.618159 
Q 207.659465 183.869089 212.83347 162.032106 
" style="fill:none;stroke:#000000;stroke-linecap:round;"/>
    <path d="M 206.472065 200.157692 
L 202.743227 204.618159 
L 201.412156 198.958809 
" style="fill:none;stroke:#000000;stroke-linecap:round;"/>
   </g>
   <g id="text_25">
    <g id="patch_25">
     <path d="M 244.946947 228.035781 
C 247.649574 228.035781 250.241872 226.962016 252.152918 225.050971 
C 254.063963 223.139925 255.137728 220.547627 255.137728 217.845 
C 255.137728 215.142373 254.063963 212.550075 252.152918 210.639029 
C 250.241872 208.727984 247.649574 207.654219 244.946947 207.654219 
C 242.24432 207.654219 239.652022 208.727984 237.740977 210.639029 
C 235.829931 212.550075 234.756166 215.142373 234.756166 217.845 
C 234.756166 220.547627 235.829931 223.139925 237.740977 225.050971 
C 239.652022 226.962016 242.24432 228.035781 244.946947 228.035781 
z
" style="fill:#ffffff;stroke:#000000;stroke-linejoin:miter;"/>
    </g>
    <!--   -->
    <g transform="translate(242.881166 221.432187)scale(0.13 -0.13)">
     <use xlink:href="#DejaVuSans-20"/>
    </g>
   </g>
   <g id="text_26">
    <!-- $\frac{n}{8}$ -->
    <g transform="translate(221.815385 219.245)scale(0.1 -0.1)">
     <use transform="translate(0 39.06875)scale(0.7)" xlink:href="#Cmmi10-6e"/>
     <use transform="translate(4 -39.595313)scale(0.7)" xlink:href="#Cmr10-38"/>
     <path d="M 0 13.28125 
L 0 19.53125 
L 42.006836 19.53125 
L 42.006836 13.28125 
L 0 13.28125 
z
"/>
    </g>
   </g>
   <g id="patch_26">
    <path d="M 244.22759 204.618159 
Q 239.311353 183.869089 234.137348 162.032106 
" style="fill:none;stroke:#000000;stroke-linecap:round;"/>
    <path d="M 245.558661 198.958809 
L 244.22759 204.618159 
L 240.498752 200.157692 
" style="fill:none;stroke:#000000;stroke-linecap:round;"/>
   </g>
   <g id="text_27">
    <g id="patch_27">
     <path d="M 287.870024 228.035781 
C 290.572651 228.035781 293.164949 226.962016 295.075995 225.050971 
C 296.98704 223.139925 298.060805 220.547627 298.060805 217.845 
C 298.060805 215.142373 296.98704 212.550075 295.075995 210.639029 
C 293.164949 208.727984 290.572651 207.654219 287.870024 207.654219 
C 285.167397 207.654219 282.575099 208.727984 280.664054 210.639029 
C 278.753008 212.550075 277.679243 215.142373 277.679243 217.845 
C 277.679243 220.547627 278.753008 223.139925 280.664054 225.050971 
C 282.575099 226.962016 285.167397 228.035781 287.870024 228.035781 
z
" style="fill:#ffffff;stroke:#000000;stroke-linejoin:miter;"/>
    </g>
    <!--   -->
    <g transform="translate(285.804243 221.432187)scale(0.13 -0.13)">
     <use xlink:href="#DejaVuSans-20"/>
    </g>
   </g>
   <g id="text_28">
    <!-- $\frac{n}{8}$ -->
    <g transform="translate(264.738462 219.245)scale(0.1 -0.1)">
     <use transform="translate(0 39.06875)scale(0.7)" xlink:href="#Cmmi10-6e"/>
     <use transform="translate(4 -39.595313)scale(0.7)" xlink:href="#Cmr10-38"/>
     <path d="M 0 13.28125 
L 0 19.53125 
L 42.006836 19.53125 
L 42.006836 13.28125 
L 0 13.28125 
z
"/>
    </g>
   </g>
   <g id="patch_28">
    <path d="M 288.589381 204.618159 
Q 293.505618 183.869089 298.679624 162.032106 
" style="fill:none;stroke:#000000;stroke-linecap:round;"/>
    <path d="M 292.318219 200.157692 
L 288.589381 204.618159 
L 287.25831 198.958809 
" style="fill:none;stroke:#000000;stroke-linecap:round;"/>
   </g>
   <g id="text_29">
    <g id="patch_29">
     <path d="M 330.793101 228.035781 
C 333.495728 228.035781 336.088026 226.962016 337.999071 225.050971 
C 339.910117 223.139925 340.983882 220.547627 340.983882 217.845 
C 340.983882 215.142373 339.910117 212.550075 337.999071 210.639029 
C 336.088026 208.727984 333.495728 207.654219 330.793101 207.654219 
C 328.090474 207.654219 325.498176 208.727984 323.58713 210.639029 
C 321.676085 212.550075 320.60232 215.142373 320.60232 217.845 
C 320.60232 220.547627 321.676085 223.139925 323.58713 225.050971 
C 325.498176 226.962016 328.090474 228.035781 330.793101 228.035781 
z
" style="fill:#ffffff;stroke:#000000;stroke-linejoin:miter;"/>
    </g>
    <!--   -->
    <g transform="translate(328.72732 221.432187)scale(0.13 -0.13)">
     <use xlink:href="#DejaVuSans-20"/>
    </g>
   </g>
   <g id="text_30">
    <!-- $\frac{n}{8}$ -->
    <g transform="translate(307.661538 219.245)scale(0.1 -0.1)">
     <use transform="translate(0 39.06875)scale(0.7)" xlink:href="#Cmmi10-6e"/>
     <use transform="translate(4 -39.595313)scale(0.7)" xlink:href="#Cmr10-38"/>
     <path d="M 0 13.28125 
L 0 19.53125 
L 42.006836 19.53125 
L 42.006836 13.28125 
L 0 13.28125 
z
"/>
    </g>
   </g>
   <g id="patch_30">
    <path d="M 330.073744 204.618159 
Q 325.157507 183.869089 319.983501 162.032106 
" style="fill:none;stroke:#000000;stroke-linecap:round;"/>
    <path d="M 331.404815 198.958809 
L 330.073744 204.618159 
L 326.344906 200.157692 
" style="fill:none;stroke:#000000;stroke-linecap:round;"/>
   </g>
  </g>
 </g>
</svg>
