<?xml version="1.0" encoding="utf-8" standalone="no"?>
<!DOCTYPE svg PUBLIC "-//W3C//DTD SVG 1.1//EN"
  "http://www.w3.org/Graphics/SVG/1.1/DTD/svg11.dtd">
<!-- Created with matplotlib (https://matplotlib.org/) -->
<svg height="231.84pt" version="1.1" viewBox="0 0 355.162332 231.84" width="355.162332pt" xmlns="http://www.w3.org/2000/svg" xmlns:xlink="http://www.w3.org/1999/xlink">
 <metadata>
  <rdf:RDF xmlns:cc="http://creativecommons.org/ns#" xmlns:dc="http://purl.org/dc/elements/1.1/" xmlns:rdf="http://www.w3.org/1999/02/22-rdf-syntax-ns#">
   <cc:Work>
    <dc:type rdf:resource="http://purl.org/dc/dcmitype/StillImage"/>
    <dc:date>2021-05-31T11:56:12.254471</dc:date>
    <dc:format>image/svg+xml</dc:format>
    <dc:creator>
     <cc:Agent>
      <dc:title>Matplotlib v3.3.4, https://matplotlib.org/</dc:title>
     </cc:Agent>
    </dc:creator>
   </cc:Work>
  </rdf:RDF>
 </metadata>
 <defs>
  <style type="text/css">*{stroke-linecap:butt;stroke-linejoin:round;}</style>
 </defs>
 <g id="figure_1">
  <g id="patch_1">
   <path d="M 0 231.84 
L 355.162332 231.84 
L 355.162332 0 
L 0 0 
z
" style="fill:none;"/>
  </g>
  <g id="axes_1">
   <g id="text_1">
    <g id="patch_2">
     <path d="M 180.562332 24.185781 
C 183.264959 24.185781 185.857257 23.112016 187.768302 21.200971 
C 189.679348 19.289925 190.753113 16.697627 190.753113 13.995 
C 190.753113 11.292373 189.679348 8.700075 187.768302 6.789029 
C 185.857257 4.877984 183.264959 3.804219 180.562332 3.804219 
C 177.859705 3.804219 175.267407 4.877984 173.356361 6.789029 
C 171.445315 8.700075 170.37155 11.292373 170.37155 13.995 
C 170.37155 16.697627 171.445315 19.289925 173.356361 21.200971 
C 175.267407 23.112016 177.859705 24.185781 180.562332 24.185781 
z
" style="fill:#ffffff;stroke:#000000;stroke-linejoin:miter;"/>
    </g>
    <!--   -->
    <g transform="translate(178.49655 17.582187)scale(0.13 -0.13)">
     <defs>
      <path id="DejaVuSans-32"/>
     </defs>
     <use xlink:href="#DejaVuSans-32"/>
    </g>
   </g>
   <g id="text_2">
    <!-- $\frac{n}{1}$ -->
    <g transform="translate(157.430769 15.445)scale(0.1 -0.1)">
     <defs>
      <path d="M 7.71875 1.703125 
Q 7.71875 2.296875 7.8125 2.59375 
L 15.28125 32.421875 
Q 16.015625 35.203125 16.015625 37.3125 
Q 16.015625 41.609375 13.09375 41.609375 
Q 9.96875 41.609375 8.453125 37.859375 
Q 6.9375 34.125 5.515625 28.421875 
Q 5.515625 28.125 5.21875 27.953125 
Q 4.9375 27.78125 4.6875 27.78125 
L 3.515625 27.78125 
Q 3.171875 27.78125 2.921875 28.140625 
Q 2.6875 28.515625 2.6875 28.8125 
Q 3.765625 33.15625 4.765625 36.171875 
Q 5.765625 39.203125 7.890625 41.6875 
Q 10.015625 44.1875 13.1875 44.1875 
Q 16.9375 44.1875 19.8125 41.8125 
Q 22.703125 39.453125 22.703125 35.796875 
Q 25.6875 39.703125 29.6875 41.9375 
Q 33.6875 44.1875 38.1875 44.1875 
Q 41.75 44.1875 44.328125 42.96875 
Q 46.921875 41.75 48.359375 39.28125 
Q 49.8125 36.8125 49.8125 33.40625 
Q 49.8125 29.296875 47.96875 23.484375 
Q 46.140625 17.671875 43.40625 10.5 
Q 42 7.234375 42 4.5 
Q 42 1.515625 44.28125 1.515625 
Q 48.1875 1.515625 50.796875 5.703125 
Q 53.421875 9.90625 54.5 14.703125 
Q 54.6875 15.28125 55.328125 15.28125 
L 56.5 15.28125 
Q 56.890625 15.28125 57.15625 15.03125 
Q 57.421875 14.796875 57.421875 14.40625 
Q 57.421875 14.3125 57.328125 14.109375 
Q 55.953125 8.453125 52.5625 3.65625 
Q 49.171875 -1.125 44.09375 -1.125 
Q 40.578125 -1.125 38.078125 1.296875 
Q 35.59375 3.71875 35.59375 7.171875 
Q 35.59375 9.03125 36.375 11.078125 
Q 37.640625 14.359375 39.28125 18.890625 
Q 40.921875 23.4375 41.96875 27.578125 
Q 43.015625 31.734375 43.015625 34.90625 
Q 43.015625 37.703125 41.859375 39.65625 
Q 40.71875 41.609375 37.984375 41.609375 
Q 34.328125 41.609375 31.25 39.984375 
Q 28.171875 38.375 25.875 35.71875 
Q 23.578125 33.0625 21.6875 29.390625 
L 14.890625 2.203125 
Q 14.546875 0.828125 13.34375 -0.140625 
Q 12.15625 -1.125 10.6875 -1.125 
Q 9.46875 -1.125 8.59375 -0.34375 
Q 7.71875 0.4375 7.71875 1.703125 
z
" id="Cmmi10-110"/>
      <path d="M 9.28125 0 
L 9.28125 3.515625 
Q 21.78125 3.515625 21.78125 6.6875 
L 21.78125 59.1875 
Q 16.609375 56.6875 8.6875 56.6875 
L 8.6875 60.203125 
Q 20.953125 60.203125 27.203125 66.609375 
L 28.609375 66.609375 
Q 28.953125 66.609375 29.265625 66.328125 
Q 29.59375 66.0625 29.59375 65.71875 
L 29.59375 6.6875 
Q 29.59375 3.515625 42.09375 3.515625 
L 42.09375 0 
z
" id="Cmr10-49"/>
     </defs>
     <use transform="translate(0 39.06875)scale(0.7)" xlink:href="#Cmmi10-110"/>
     <use transform="translate(4 -39.595313)scale(0.7)" xlink:href="#Cmr10-49"/>
     <path d="M 0 13.28125 
L 0 19.53125 
L 42.006836 19.53125 
L 42.006836 13.28125 
L 0 13.28125 
z
"/>
    </g>
   </g>
   <g id="text_3">
    <g id="patch_3">
     <path d="M 94.716178 92.135781 
C 97.418805 92.135781 100.011103 91.062016 101.922148 89.150971 
C 103.833194 87.239925 104.906959 84.647627 104.906959 81.945 
C 104.906959 79.242373 103.833194 76.650075 101.922148 74.739029 
C 100.011103 72.827984 97.418805 71.754219 94.716178 71.754219 
C 92.013551 71.754219 89.421253 72.827984 87.510207 74.739029 
C 85.599162 76.650075 84.525397 79.242373 84.525397 81.945 
C 84.525397 84.647627 85.599162 87.239925 87.510207 89.150971 
C 89.421253 91.062016 92.013551 92.135781 94.716178 92.135781 
z
" style="fill:#ffffff;stroke:#000000;stroke-linejoin:miter;"/>
    </g>
    <!--   -->
    <g transform="translate(92.650397 85.532187)scale(0.13 -0.13)">
     <use xlink:href="#DejaVuSans-32"/>
    </g>
   </g>
   <g id="text_4">
    <!-- $\frac{n}{2}$ -->
    <g transform="translate(71.584615 83.395)scale(0.1 -0.1)">
     <defs>
      <path d="M 4.984375 0 
L 4.984375 2.6875 
Q 4.984375 2.9375 5.171875 3.21875 
L 20.703125 20.40625 
Q 24.21875 24.21875 26.40625 26.796875 
Q 28.609375 29.390625 30.75 32.765625 
Q 32.90625 36.140625 34.15625 39.625 
Q 35.40625 43.109375 35.40625 47.015625 
Q 35.40625 51.125 33.890625 54.859375 
Q 32.375 58.59375 29.375 60.84375 
Q 26.375 63.09375 22.125 63.09375 
Q 17.78125 63.09375 14.3125 60.46875 
Q 10.84375 57.859375 9.421875 53.71875 
Q 9.8125 53.8125 10.5 53.8125 
Q 12.75 53.8125 14.328125 52.296875 
Q 15.921875 50.78125 15.921875 48.390625 
Q 15.921875 46.09375 14.328125 44.5 
Q 12.75 42.921875 10.5 42.921875 
Q 8.15625 42.921875 6.5625 44.546875 
Q 4.984375 46.1875 4.984375 48.390625 
Q 4.984375 52.15625 6.390625 55.4375 
Q 7.8125 58.734375 10.46875 61.296875 
Q 13.140625 63.875 16.484375 65.234375 
Q 19.828125 66.609375 23.578125 66.609375 
Q 29.296875 66.609375 34.21875 64.1875 
Q 39.15625 61.765625 42.03125 57.34375 
Q 44.921875 52.9375 44.921875 47.015625 
Q 44.921875 42.671875 43.015625 38.765625 
Q 41.109375 34.859375 38.125 31.65625 
Q 35.15625 28.46875 30.515625 24.40625 
Q 25.875 20.359375 24.421875 19 
L 13.09375 8.109375 
L 22.703125 8.109375 
Q 29.78125 8.109375 34.546875 8.21875 
Q 39.3125 8.34375 39.59375 8.59375 
Q 40.765625 9.859375 42 17.828125 
L 44.921875 17.828125 
L 42.09375 0 
z
" id="Cmr10-50"/>
     </defs>
     <use transform="translate(0 39.06875)scale(0.7)" xlink:href="#Cmmi10-110"/>
     <use transform="translate(4 -39.595313)scale(0.7)" xlink:href="#Cmr10-50"/>
     <path d="M 0 13.28125 
L 0 19.53125 
L 42.006836 19.53125 
L 42.006836 13.28125 
L 0 13.28125 
z
"/>
    </g>
   </g>
   <g id="patch_4">
    <path d="M 97.355034 70.095034 
Q 132.542478 47.970871 168.676414 25.251601 
" style="fill:none;stroke:#000000;stroke-linecap:round;"/>
    <path d="M 103.141117 69.52825 
L 97.355034 70.095034 
L 100.373256 65.126097 
" style="fill:none;stroke:#000000;stroke-linecap:round;"/>
   </g>
   <g id="text_5">
    <g id="patch_5">
     <path d="M 266.408486 92.135781 
C 269.111112 92.135781 271.70341 91.062016 273.614456 89.150971 
C 275.525502 87.239925 276.599267 84.647627 276.599267 81.945 
C 276.599267 79.242373 275.525502 76.650075 273.614456 74.739029 
C 271.70341 72.827984 269.111112 71.754219 266.408486 71.754219 
C 263.705859 71.754219 261.113561 72.827984 259.202515 74.739029 
C 257.291469 76.650075 256.217704 79.242373 256.217704 81.945 
C 256.217704 84.647627 257.291469 87.239925 259.202515 89.150971 
C 261.113561 91.062016 263.705859 92.135781 266.408486 92.135781 
z
" style="fill:#ffffff;stroke:#000000;stroke-linejoin:miter;"/>
    </g>
    <!--   -->
    <g transform="translate(264.342704 85.532187)scale(0.13 -0.13)">
     <use xlink:href="#DejaVuSans-32"/>
    </g>
   </g>
   <g id="text_6">
    <!-- $\frac{n}{2}$ -->
    <g transform="translate(243.276923 83.395)scale(0.1 -0.1)">
     <use transform="translate(0 39.06875)scale(0.7)" xlink:href="#Cmmi10-110"/>
     <use transform="translate(4 -39.595313)scale(0.7)" xlink:href="#Cmr10-50"/>
     <path d="M 0 13.28125 
L 0 19.53125 
L 42.006836 19.53125 
L 42.006836 13.28125 
L 0 13.28125 
z
"/>
    </g>
   </g>
   <g id="patch_6">
    <path d="M 263.76963 70.095034 
Q 228.582185 47.970871 192.448249 25.251601 
" style="fill:none;stroke:#000000;stroke-linecap:round;"/>
    <path d="M 260.751407 65.126097 
L 263.76963 70.095034 
L 257.983547 69.52825 
" style="fill:none;stroke:#000000;stroke-linecap:round;"/>
   </g>
   <g id="text_7">
    <g id="patch_7">
     <path d="M 51.793101 160.085781 
C 54.495728 160.085781 57.088026 159.012016 58.999071 157.100971 
C 60.910117 155.189925 61.983882 152.597627 61.983882 149.895 
C 61.983882 147.192373 60.910117 144.600075 58.999071 142.689029 
C 57.088026 140.777984 54.495728 139.704219 51.793101 139.704219 
C 49.090474 139.704219 46.498176 140.777984 44.58713 142.689029 
C 42.676085 144.600075 41.60232 147.192373 41.60232 149.895 
C 41.60232 152.597627 42.676085 155.189925 44.58713 157.100971 
C 46.498176 159.012016 49.090474 160.085781 51.793101 160.085781 
z
" style="fill:#ffffff;stroke:#000000;stroke-linejoin:miter;"/>
    </g>
    <!--   -->
    <g transform="translate(49.72732 153.482187)scale(0.13 -0.13)">
     <use xlink:href="#DejaVuSans-32"/>
    </g>
   </g>
   <g id="text_8">
    <!-- $\frac{n}{4}$ -->
    <g transform="translate(28.661538 151.345)scale(0.1 -0.1)">
     <defs>
      <path d="M 2.78125 16.5 
L 2.78125 20.015625 
L 33.6875 66.109375 
Q 34.03125 66.609375 34.71875 66.609375 
L 36.1875 66.609375 
Q 37.3125 66.609375 37.3125 65.484375 
L 37.3125 20.015625 
L 47.125 20.015625 
L 47.125 16.5 
L 37.3125 16.5 
L 37.3125 6.6875 
Q 37.3125 4.640625 40.234375 4.078125 
Q 43.171875 3.515625 47.015625 3.515625 
L 47.015625 0 
L 19.484375 0 
L 19.484375 3.515625 
Q 23.34375 3.515625 26.265625 4.078125 
Q 29.203125 4.640625 29.203125 6.6875 
L 29.203125 16.5 
z
M 6.109375 20.015625 
L 29.78125 20.015625 
L 29.78125 55.421875 
z
" id="Cmr10-52"/>
     </defs>
     <use transform="translate(0 39.06875)scale(0.7)" xlink:href="#Cmmi10-110"/>
     <use transform="translate(4 -39.595313)scale(0.7)" xlink:href="#Cmr10-52"/>
     <path d="M 0 13.28125 
L 0 19.53125 
L 42.006836 19.53125 
L 42.006836 13.28125 
L 0 13.28125 
z
"/>
    </g>
   </g>
   <g id="patch_8">
    <path d="M 53.559645 137.136976 
Q 68.159563 115.919544 83.39326 93.781067 
" style="fill:none;stroke:#000000;stroke-linecap:round;"/>
    <path d="M 58.649267 134.327039 
L 53.559645 137.136976 
L 54.365468 131.379316 
" style="fill:none;stroke:#000000;stroke-linecap:round;"/>
   </g>
   <g id="text_9">
    <g id="patch_9">
     <path d="M 137.639255 160.085781 
C 140.341882 160.085781 142.93418 159.012016 144.845225 157.100971 
C 146.756271 155.189925 147.830036 152.597627 147.830036 149.895 
C 147.830036 147.192373 146.756271 144.600075 144.845225 142.689029 
C 142.93418 140.777984 140.341882 139.704219 137.639255 139.704219 
C 134.936628 139.704219 132.34433 140.777984 130.433284 142.689029 
C 128.522239 144.600075 127.448474 147.192373 127.448474 149.895 
C 127.448474 152.597627 128.522239 155.189925 130.433284 157.100971 
C 132.34433 159.012016 134.936628 160.085781 137.639255 160.085781 
z
" style="fill:#ffffff;stroke:#000000;stroke-linejoin:miter;"/>
    </g>
    <!--   -->
    <g transform="translate(135.573474 153.482187)scale(0.13 -0.13)">
     <use xlink:href="#DejaVuSans-32"/>
    </g>
   </g>
   <g id="text_10">
    <!-- $\frac{n}{4}$ -->
    <g transform="translate(114.507692 151.345)scale(0.1 -0.1)">
     <use transform="translate(0 39.06875)scale(0.7)" xlink:href="#Cmmi10-110"/>
     <use transform="translate(4 -39.595313)scale(0.7)" xlink:href="#Cmr10-52"/>
     <path d="M 0 13.28125 
L 0 19.53125 
L 42.006836 19.53125 
L 42.006836 13.28125 
L 0 13.28125 
z
"/>
    </g>
   </g>
   <g id="patch_10">
    <path d="M 135.872711 137.136976 
Q 121.272793 115.919544 106.039096 93.781067 
" style="fill:none;stroke:#000000;stroke-linecap:round;"/>
    <path d="M 135.066887 131.379316 
L 135.872711 137.136976 
L 130.783089 134.327039 
" style="fill:none;stroke:#000000;stroke-linecap:round;"/>
   </g>
   <g id="text_11">
    <g id="patch_11">
     <path d="M 223.485409 160.085781 
C 226.188035 160.085781 228.780333 159.012016 230.691379 157.100971 
C 232.602425 155.189925 233.67619 152.597627 233.67619 149.895 
C 233.67619 147.192373 232.602425 144.600075 230.691379 142.689029 
C 228.780333 140.777984 226.188035 139.704219 223.485409 139.704219 
C 220.782782 139.704219 218.190484 140.777984 216.279438 142.689029 
C 214.368392 144.600075 213.294627 147.192373 213.294627 149.895 
C 213.294627 152.597627 214.368392 155.189925 216.279438 157.100971 
C 218.190484 159.012016 220.782782 160.085781 223.485409 160.085781 
z
" style="fill:#ffffff;stroke:#000000;stroke-linejoin:miter;"/>
    </g>
    <!--   -->
    <g transform="translate(221.419627 153.482187)scale(0.13 -0.13)">
     <use xlink:href="#DejaVuSans-32"/>
    </g>
   </g>
   <g id="text_12">
    <!-- $\frac{n}{4}$ -->
    <g transform="translate(200.353846 151.345)scale(0.1 -0.1)">
     <use transform="translate(0 39.06875)scale(0.7)" xlink:href="#Cmmi10-110"/>
     <use transform="translate(4 -39.595313)scale(0.7)" xlink:href="#Cmr10-52"/>
     <path d="M 0 13.28125 
L 0 19.53125 
L 42.006836 19.53125 
L 42.006836 13.28125 
L 0 13.28125 
z
"/>
    </g>
   </g>
   <g id="patch_12">
    <path d="M 225.251953 137.136976 
Q 239.85187 115.919544 255.085568 93.781067 
" style="fill:none;stroke:#000000;stroke-linecap:round;"/>
    <path d="M 230.341575 134.327039 
L 225.251953 137.136976 
L 226.057776 131.379316 
" style="fill:none;stroke:#000000;stroke-linecap:round;"/>
   </g>
   <g id="text_13">
    <g id="patch_13">
     <path d="M 309.331563 160.085781 
C 312.034189 160.085781 314.626487 159.012016 316.537533 157.100971 
C 318.448579 155.189925 319.522344 152.597627 319.522344 149.895 
C 319.522344 147.192373 318.448579 144.600075 316.537533 142.689029 
C 314.626487 140.777984 312.034189 139.704219 309.331563 139.704219 
C 306.628936 139.704219 304.036638 140.777984 302.125592 142.689029 
C 300.214546 144.600075 299.140781 147.192373 299.140781 149.895 
C 299.140781 152.597627 300.214546 155.189925 302.125592 157.100971 
C 304.036638 159.012016 306.628936 160.085781 309.331563 160.085781 
z
" style="fill:#ffffff;stroke:#000000;stroke-linejoin:miter;"/>
    </g>
    <!--   -->
    <g transform="translate(307.265781 153.482187)scale(0.13 -0.13)">
     <use xlink:href="#DejaVuSans-32"/>
    </g>
   </g>
   <g id="text_14">
    <!-- $\frac{n}{4}$ -->
    <g transform="translate(286.2 151.345)scale(0.1 -0.1)">
     <use transform="translate(0 39.06875)scale(0.7)" xlink:href="#Cmmi10-110"/>
     <use transform="translate(4 -39.595313)scale(0.7)" xlink:href="#Cmr10-52"/>
     <path d="M 0 13.28125 
L 0 19.53125 
L 42.006836 19.53125 
L 42.006836 13.28125 
L 0 13.28125 
z
"/>
    </g>
   </g>
   <g id="patch_14">
    <path d="M 307.565018 137.136976 
Q 292.965101 115.919544 277.731403 93.781067 
" style="fill:none;stroke:#000000;stroke-linecap:round;"/>
    <path d="M 306.759195 131.379316 
L 307.565018 137.136976 
L 302.475396 134.327039 
" style="fill:none;stroke:#000000;stroke-linecap:round;"/>
   </g>
   <g id="text_15">
    <g id="patch_15">
     <path d="M 30.331562 228.035781 
C 33.034189 228.035781 35.626487 226.962016 37.537533 225.050971 
C 39.448579 223.139925 40.522344 220.547627 40.522344 217.845 
C 40.522344 215.142373 39.448579 212.550075 37.537533 210.639029 
C 35.626487 208.727984 33.034189 207.654219 30.331562 207.654219 
C 27.628936 207.654219 25.036638 208.727984 23.125592 210.639029 
C 21.214546 212.550075 20.140781 215.142373 20.140781 217.845 
C 20.140781 220.547627 21.214546 223.139925 23.125592 225.050971 
C 25.036638 226.962016 27.628936 228.035781 30.331562 228.035781 
z
" style="fill:#ffffff;stroke:#000000;stroke-linejoin:miter;"/>
    </g>
    <!--   -->
    <g transform="translate(28.265781 221.432187)scale(0.13 -0.13)">
     <use xlink:href="#DejaVuSans-32"/>
    </g>
   </g>
   <g id="text_16">
    <!-- $\frac{n}{8}$ -->
    <g transform="translate(7.2 219.245)scale(0.1 -0.1)">
     <defs>
      <path d="M 4.203125 15.1875 
Q 4.203125 21.1875 8.15625 25.796875 
Q 12.109375 30.421875 18.3125 33.5 
L 14.59375 35.890625 
Q 11.1875 38.140625 9.03125 41.875 
Q 6.890625 45.609375 6.890625 49.703125 
Q 6.890625 54.5 9.40625 58.34375 
Q 11.921875 62.203125 16.09375 64.40625 
Q 20.265625 66.609375 25 66.609375 
Q 29.4375 66.609375 33.5625 64.796875 
Q 37.703125 62.984375 40.359375 59.609375 
Q 43.015625 56.25 43.015625 51.609375 
Q 43.015625 48.25 41.421875 45.359375 
Q 39.84375 42.484375 37.078125 40.1875 
Q 34.328125 37.890625 31.203125 36.28125 
L 36.921875 32.625 
Q 40.875 30.03125 43.28125 25.828125 
Q 45.703125 21.625 45.703125 17 
Q 45.703125 11.578125 42.796875 7.125 
Q 39.890625 2.6875 35.109375 0.234375 
Q 30.328125 -2.203125 25 -2.203125 
Q 19.828125 -2.203125 15.015625 -0.09375 
Q 10.203125 2 7.203125 5.984375 
Q 4.203125 9.96875 4.203125 15.1875 
z
M 9.625 15.1875 
Q 9.625 11.234375 11.796875 7.953125 
Q 13.96875 4.6875 17.53125 2.828125 
Q 21.09375 0.984375 25 0.984375 
Q 30.8125 0.984375 35.546875 4.375 
Q 40.28125 7.765625 40.28125 13.375 
Q 40.28125 15.28125 39.515625 17.15625 
Q 38.765625 19.046875 37.421875 20.578125 
Q 36.078125 22.125 34.421875 23.09375 
L 21 31.78125 
Q 17.875 30.125 15.25 27.578125 
Q 12.640625 25.046875 11.125 21.875 
Q 9.625 18.703125 9.625 15.1875 
z
M 16.5 45.703125 
L 28.609375 37.890625 
Q 32.8125 40.328125 35.5 43.796875 
Q 38.1875 47.265625 38.1875 51.609375 
Q 38.1875 54.984375 36.296875 57.78125 
Q 34.421875 60.59375 31.390625 62.15625 
Q 28.375 63.71875 24.90625 63.71875 
Q 21.875 63.71875 18.796875 62.546875 
Q 15.71875 61.375 13.71875 59.046875 
Q 11.71875 56.734375 11.71875 53.609375 
Q 11.71875 48.921875 16.5 45.703125 
z
" id="Cmr10-56"/>
     </defs>
     <use transform="translate(0 39.06875)scale(0.7)" xlink:href="#Cmmi10-110"/>
     <use transform="translate(4 -39.595313)scale(0.7)" xlink:href="#Cmr10-56"/>
     <path d="M 0 13.28125 
L 0 19.53125 
L 42.006836 19.53125 
L 42.006836 13.28125 
L 0 13.28125 
z
"/>
    </g>
   </g>
   <g id="patch_16">
    <path d="M 31.050919 204.618159 
Q 35.967157 183.869089 41.141162 162.032106 
" style="fill:none;stroke:#000000;stroke-linecap:round;"/>
    <path d="M 34.779757 200.157692 
L 31.050919 204.618159 
L 29.719848 198.958809 
" style="fill:none;stroke:#000000;stroke-linecap:round;"/>
   </g>
   <g id="text_17">
    <g id="patch_17">
     <path d="M 73.254639 228.035781 
C 75.957266 228.035781 78.549564 226.962016 80.46061 225.050971 
C 82.371656 223.139925 83.445421 220.547627 83.445421 217.845 
C 83.445421 215.142373 82.371656 212.550075 80.46061 210.639029 
C 78.549564 208.727984 75.957266 207.654219 73.254639 207.654219 
C 70.552013 207.654219 67.959715 208.727984 66.048669 210.639029 
C 64.137623 212.550075 63.063858 215.142373 63.063858 217.845 
C 63.063858 220.547627 64.137623 223.139925 66.048669 225.050971 
C 67.959715 226.962016 70.552013 228.035781 73.254639 228.035781 
z
" style="fill:#ffffff;stroke:#000000;stroke-linejoin:miter;"/>
    </g>
    <!--   -->
    <g transform="translate(71.188858 221.432187)scale(0.13 -0.13)">
     <use xlink:href="#DejaVuSans-32"/>
    </g>
   </g>
   <g id="text_18">
    <!-- $\frac{n}{8}$ -->
    <g transform="translate(50.123077 219.245)scale(0.1 -0.1)">
     <use transform="translate(0 39.06875)scale(0.7)" xlink:href="#Cmmi10-110"/>
     <use transform="translate(4 -39.595313)scale(0.7)" xlink:href="#Cmr10-56"/>
     <path d="M 0 13.28125 
L 0 19.53125 
L 42.006836 19.53125 
L 42.006836 13.28125 
L 0 13.28125 
z
"/>
    </g>
   </g>
   <g id="patch_18">
    <path d="M 72.535282 204.618159 
Q 67.619045 183.869089 62.44504 162.032106 
" style="fill:none;stroke:#000000;stroke-linecap:round;"/>
    <path d="M 73.866354 198.958809 
L 72.535282 204.618159 
L 68.806445 200.157692 
" style="fill:none;stroke:#000000;stroke-linecap:round;"/>
   </g>
   <g id="text_19">
    <g id="patch_19">
     <path d="M 116.177716 228.035781 
C 118.880343 228.035781 121.472641 226.962016 123.383687 225.050971 
C 125.294733 223.139925 126.368498 220.547627 126.368498 217.845 
C 126.368498 215.142373 125.294733 212.550075 123.383687 210.639029 
C 121.472641 208.727984 118.880343 207.654219 116.177716 207.654219 
C 113.47509 207.654219 110.882792 208.727984 108.971746 210.639029 
C 107.0607 212.550075 105.986935 215.142373 105.986935 217.845 
C 105.986935 220.547627 107.0607 223.139925 108.971746 225.050971 
C 110.882792 226.962016 113.47509 228.035781 116.177716 228.035781 
z
" style="fill:#ffffff;stroke:#000000;stroke-linejoin:miter;"/>
    </g>
    <!--   -->
    <g transform="translate(114.111935 221.432187)scale(0.13 -0.13)">
     <use xlink:href="#DejaVuSans-32"/>
    </g>
   </g>
   <g id="text_20">
    <!-- $\frac{n}{8}$ -->
    <g transform="translate(93.046154 219.245)scale(0.1 -0.1)">
     <use transform="translate(0 39.06875)scale(0.7)" xlink:href="#Cmmi10-110"/>
     <use transform="translate(4 -39.595313)scale(0.7)" xlink:href="#Cmr10-56"/>
     <path d="M 0 13.28125 
L 0 19.53125 
L 42.006836 19.53125 
L 42.006836 13.28125 
L 0 13.28125 
z
"/>
    </g>
   </g>
   <g id="patch_20">
    <path d="M 116.897073 204.618159 
Q 121.813311 183.869089 126.987316 162.032106 
" style="fill:none;stroke:#000000;stroke-linecap:round;"/>
    <path d="M 120.625911 200.157692 
L 116.897073 204.618159 
L 115.566002 198.958809 
" style="fill:none;stroke:#000000;stroke-linecap:round;"/>
   </g>
   <g id="text_21">
    <g id="patch_21">
     <path d="M 159.100793 228.035781 
C 161.80342 228.035781 164.395718 226.962016 166.306764 225.050971 
C 168.21781 223.139925 169.291575 220.547627 169.291575 217.845 
C 169.291575 215.142373 168.21781 212.550075 166.306764 210.639029 
C 164.395718 208.727984 161.80342 207.654219 159.100793 207.654219 
C 156.398166 207.654219 153.805868 208.727984 151.894823 210.639029 
C 149.983777 212.550075 148.910012 215.142373 148.910012 217.845 
C 148.910012 220.547627 149.983777 223.139925 151.894823 225.050971 
C 153.805868 226.962016 156.398166 228.035781 159.100793 228.035781 
z
" style="fill:#ffffff;stroke:#000000;stroke-linejoin:miter;"/>
    </g>
    <!--   -->
    <g transform="translate(157.035012 221.432187)scale(0.13 -0.13)">
     <use xlink:href="#DejaVuSans-32"/>
    </g>
   </g>
   <g id="text_22">
    <!-- $\frac{n}{8}$ -->
    <g transform="translate(135.969231 219.245)scale(0.1 -0.1)">
     <use transform="translate(0 39.06875)scale(0.7)" xlink:href="#Cmmi10-110"/>
     <use transform="translate(4 -39.595313)scale(0.7)" xlink:href="#Cmr10-56"/>
     <path d="M 0 13.28125 
L 0 19.53125 
L 42.006836 19.53125 
L 42.006836 13.28125 
L 0 13.28125 
z
"/>
    </g>
   </g>
   <g id="patch_22">
    <path d="M 158.381436 204.618159 
Q 153.465199 183.869089 148.291194 162.032106 
" style="fill:none;stroke:#000000;stroke-linecap:round;"/>
    <path d="M 159.712507 198.958809 
L 158.381436 204.618159 
L 154.652598 200.157692 
" style="fill:none;stroke:#000000;stroke-linecap:round;"/>
   </g>
   <g id="text_23">
    <g id="patch_23">
     <path d="M 202.02387 228.035781 
C 204.726497 228.035781 207.318795 226.962016 209.229841 225.050971 
C 211.140886 223.139925 212.214651 220.547627 212.214651 217.845 
C 212.214651 215.142373 211.140886 212.550075 209.229841 210.639029 
C 207.318795 208.727984 204.726497 207.654219 202.02387 207.654219 
C 199.321243 207.654219 196.728945 208.727984 194.8179 210.639029 
C 192.906854 212.550075 191.833089 215.142373 191.833089 217.845 
C 191.833089 220.547627 192.906854 223.139925 194.8179 225.050971 
C 196.728945 226.962016 199.321243 228.035781 202.02387 228.035781 
z
" style="fill:#ffffff;stroke:#000000;stroke-linejoin:miter;"/>
    </g>
    <!--   -->
    <g transform="translate(199.958089 221.432187)scale(0.13 -0.13)">
     <use xlink:href="#DejaVuSans-32"/>
    </g>
   </g>
   <g id="text_24">
    <!-- $\frac{n}{8}$ -->
    <g transform="translate(178.892308 219.245)scale(0.1 -0.1)">
     <use transform="translate(0 39.06875)scale(0.7)" xlink:href="#Cmmi10-110"/>
     <use transform="translate(4 -39.595313)scale(0.7)" xlink:href="#Cmr10-56"/>
     <path d="M 0 13.28125 
L 0 19.53125 
L 42.006836 19.53125 
L 42.006836 13.28125 
L 0 13.28125 
z
"/>
    </g>
   </g>
   <g id="patch_24">
    <path d="M 202.743227 204.618159 
Q 207.659465 183.869089 212.83347 162.032106 
" style="fill:none;stroke:#000000;stroke-linecap:round;"/>
    <path d="M 206.472065 200.157692 
L 202.743227 204.618159 
L 201.412156 198.958809 
" style="fill:none;stroke:#000000;stroke-linecap:round;"/>
   </g>
   <g id="text_25">
    <g id="patch_25">
     <path d="M 244.946947 228.035781 
C 247.649574 228.035781 250.241872 226.962016 252.152918 225.050971 
C 254.063963 223.139925 255.137728 220.547627 255.137728 217.845 
C 255.137728 215.142373 254.063963 212.550075 252.152918 210.639029 
C 250.241872 208.727984 247.649574 207.654219 244.946947 207.654219 
C 242.24432 207.654219 239.652022 208.727984 237.740977 210.639029 
C 235.829931 212.550075 234.756166 215.142373 234.756166 217.845 
C 234.756166 220.547627 235.829931 223.139925 237.740977 225.050971 
C 239.652022 226.962016 242.24432 228.035781 244.946947 228.035781 
z
" style="fill:#ffffff;stroke:#000000;stroke-linejoin:miter;"/>
    </g>
    <!--   -->
    <g transform="translate(242.881166 221.432187)scale(0.13 -0.13)">
     <use xlink:href="#DejaVuSans-32"/>
    </g>
   </g>
   <g id="text_26">
    <!-- $\frac{n}{8}$ -->
    <g transform="translate(221.815385 219.245)scale(0.1 -0.1)">
     <use transform="translate(0 39.06875)scale(0.7)" xlink:href="#Cmmi10-110"/>
     <use transform="translate(4 -39.595313)scale(0.7)" xlink:href="#Cmr10-56"/>
     <path d="M 0 13.28125 
L 0 19.53125 
L 42.006836 19.53125 
L 42.006836 13.28125 
L 0 13.28125 
z
"/>
    </g>
   </g>
   <g id="patch_26">
    <path d="M 244.22759 204.618159 
Q 239.311353 183.869089 234.137348 162.032106 
" style="fill:none;stroke:#000000;stroke-linecap:round;"/>
    <path d="M 245.558661 198.958809 
L 244.22759 204.618159 
L 240.498752 200.157692 
" style="fill:none;stroke:#000000;stroke-linecap:round;"/>
   </g>
   <g id="text_27">
    <g id="patch_27">
     <path d="M 287.870024 228.035781 
C 290.572651 228.035781 293.164949 226.962016 295.075995 225.050971 
C 296.98704 223.139925 298.060805 220.547627 298.060805 217.845 
C 298.060805 215.142373 296.98704 212.550075 295.075995 210.639029 
C 293.164949 208.727984 290.572651 207.654219 287.870024 207.654219 
C 285.167397 207.654219 282.575099 208.727984 280.664054 210.639029 
C 278.753008 212.550075 277.679243 215.142373 277.679243 217.845 
C 277.679243 220.547627 278.753008 223.139925 280.664054 225.050971 
C 282.575099 226.962016 285.167397 228.035781 287.870024 228.035781 
z
" style="fill:#ffffff;stroke:#000000;stroke-linejoin:miter;"/>
    </g>
    <!--   -->
    <g transform="translate(285.804243 221.432187)scale(0.13 -0.13)">
     <use xlink:href="#DejaVuSans-32"/>
    </g>
   </g>
   <g id="text_28">
    <!-- $\frac{n}{8}$ -->
    <g transform="translate(264.738462 219.245)scale(0.1 -0.1)">
     <use transform="translate(0 39.06875)scale(0.7)" xlink:href="#Cmmi10-110"/>
     <use transform="translate(4 -39.595313)scale(0.7)" xlink:href="#Cmr10-56"/>
     <path d="M 0 13.28125 
L 0 19.53125 
L 42.006836 19.53125 
L 42.006836 13.28125 
L 0 13.28125 
z
"/>
    </g>
   </g>
   <g id="patch_28">
    <path d="M 288.589381 204.618159 
Q 293.505618 183.869089 298.679624 162.032106 
" style="fill:none;stroke:#000000;stroke-linecap:round;"/>
    <path d="M 292.318219 200.157692 
L 288.589381 204.618159 
L 287.25831 198.958809 
" style="fill:none;stroke:#000000;stroke-linecap:round;"/>
   </g>
   <g id="text_29">
    <g id="patch_29">
     <path d="M 330.793101 228.035781 
C 333.495728 228.035781 336.088026 226.962016 337.999071 225.050971 
C 339.910117 223.139925 340.983882 220.547627 340.983882 217.845 
C 340.983882 215.142373 339.910117 212.550075 337.999071 210.639029 
C 336.088026 208.727984 333.495728 207.654219 330.793101 207.654219 
C 328.090474 207.654219 325.498176 208.727984 323.58713 210.639029 
C 321.676085 212.550075 320.60232 215.142373 320.60232 217.845 
C 320.60232 220.547627 321.676085 223.139925 323.58713 225.050971 
C 325.498176 226.962016 328.090474 228.035781 330.793101 228.035781 
z
" style="fill:#ffffff;stroke:#000000;stroke-linejoin:miter;"/>
    </g>
    <!--   -->
    <g transform="translate(328.72732 221.432187)scale(0.13 -0.13)">
     <use xlink:href="#DejaVuSans-32"/>
    </g>
   </g>
   <g id="text_30">
    <!-- $\frac{n}{8}$ -->
    <g transform="translate(307.661538 219.245)scale(0.1 -0.1)">
     <use transform="translate(0 39.06875)scale(0.7)" xlink:href="#Cmmi10-110"/>
     <use transform="translate(4 -39.595313)scale(0.7)" xlink:href="#Cmr10-56"/>
     <path d="M 0 13.28125 
L 0 19.53125 
L 42.006836 19.53125 
L 42.006836 13.28125 
L 0 13.28125 
z
"/>
    </g>
   </g>
   <g id="patch_30">
    <path d="M 330.073744 204.618159 
Q 325.157507 183.869089 319.983501 162.032106 
" style="fill:none;stroke:#000000;stroke-linecap:round;"/>
    <path d="M 331.404815 198.958809 
L 330.073744 204.618159 
L 326.344906 200.157692 
" style="fill:none;stroke:#000000;stroke-linecap:round;"/>
   </g>
  </g>
 </g>
</svg>
