<?xml version="1.0" encoding="utf-8" standalone="no"?>
<!DOCTYPE svg PUBLIC "-//W3C//DTD SVG 1.1//EN"
  "http://www.w3.org/Graphics/SVG/1.1/DTD/svg11.dtd">
<!-- Created with matplotlib (https://matplotlib.org/) -->
<svg height="144.4pt" version="1.1" viewBox="0 0 237.875714 144.4" width="237.875714pt" xmlns="http://www.w3.org/2000/svg" xmlns:xlink="http://www.w3.org/1999/xlink">
 <metadata>
  <rdf:RDF xmlns:cc="http://creativecommons.org/ns#" xmlns:dc="http://purl.org/dc/elements/1.1/" xmlns:rdf="http://www.w3.org/1999/02/22-rdf-syntax-ns#">
   <cc:Work>
    <dc:type rdf:resource="http://purl.org/dc/dcmitype/StillImage"/>
    <dc:date>2021-05-31T11:56:13.051493</dc:date>
    <dc:format>image/svg+xml</dc:format>
    <dc:creator>
     <cc:Agent>
      <dc:title>Matplotlib v3.3.4, https://matplotlib.org/</dc:title>
     </cc:Agent>
    </dc:creator>
   </cc:Work>
  </rdf:RDF>
 </metadata>
 <defs>
  <style type="text/css">*{stroke-linecap:butt;stroke-linejoin:round;}</style>
 </defs>
 <g id="figure_1">
  <g id="patch_1">
   <path d="M 0 144.4 
L 237.875714 144.4 
L 237.875714 0 
L 0 0 
z
" style="fill:none;"/>
  </g>
  <g id="axes_1">
   <g id="text_1">
    <g id="patch_2">
     <path d="M 12.79 82.390781 
C 15.492627 82.390781 18.084925 81.317016 19.995971 79.405971 
C 21.907016 77.494925 22.980781 74.902627 22.980781 72.2 
C 22.980781 69.497373 21.907016 66.905075 19.995971 64.994029 
C 18.084925 63.082984 15.492627 62.009219 12.79 62.009219 
C 10.087373 62.009219 7.495075 63.082984 5.584029 64.994029 
C 3.672984 66.905075 2.599219 69.497373 2.599219 72.2 
C 2.599219 74.902627 3.672984 77.494925 5.584029 79.405971 
C 7.495075 81.317016 10.087373 82.390781 12.79 82.390781 
z
" style="fill:#ffffff;"/>
    </g>
    <!-- $o_c$ -->
    <g transform="translate(7.2 75.787188)scale(0.13 -0.13)">
     <defs>
      <path d="M 20.125 -1.125 
Q 15.375 -1.125 11.6875 1.125 
Q 8.015625 3.375 6 7.171875 
Q 4 10.984375 4 15.828125 
Q 4 22.609375 7.78125 29.25 
Q 11.578125 35.890625 17.84375 40.03125 
Q 24.125 44.1875 31 44.1875 
Q 34.71875 44.1875 37.625 42.921875 
Q 40.53125 41.65625 42.671875 39.359375 
Q 44.828125 37.0625 45.96875 33.984375 
Q 47.125 30.90625 47.125 27.296875 
Q 47.125 22.078125 44.921875 17.015625 
Q 42.71875 11.96875 38.890625 7.84375 
Q 35.0625 3.71875 30.125 1.296875 
Q 25.203125 -1.125 20.125 -1.125 
z
M 20.3125 1.515625 
Q 24.75 1.515625 28.4375 4.53125 
Q 32.125 7.5625 34.484375 12.171875 
Q 36.859375 16.796875 38.125 21.921875 
Q 39.40625 27.046875 39.40625 31.203125 
Q 39.40625 35.546875 37.234375 38.578125 
Q 35.0625 41.609375 30.8125 41.609375 
Q 24.953125 41.609375 20.546875 36.59375 
Q 16.15625 31.59375 13.9375 24.625 
Q 11.71875 17.671875 11.71875 11.921875 
Q 11.71875 7.5625 13.9375 4.53125 
Q 16.15625 1.515625 20.3125 1.515625 
z
" id="Cmmi10-111"/>
      <path d="M 11.71875 11.921875 
Q 11.71875 7.5625 13.9375 4.53125 
Q 16.15625 1.515625 20.3125 1.515625 
Q 26.265625 1.515625 31.75 4.25 
Q 37.25 6.984375 40.71875 11.8125 
Q 41.015625 12.109375 41.5 12.109375 
Q 42 12.109375 42.5 11.546875 
Q 43.015625 10.984375 43.015625 10.5 
Q 43.015625 10.109375 42.828125 9.90625 
Q 39.15625 4.78125 32.953125 1.828125 
Q 26.765625 -1.125 20.125 -1.125 
Q 15.328125 -1.125 11.671875 1.140625 
Q 8.015625 3.421875 6 7.21875 
Q 4 11.03125 4 15.828125 
Q 4 22.5625 7.765625 29.203125 
Q 11.53125 35.84375 17.78125 40.015625 
Q 24.03125 44.1875 30.90625 44.1875 
Q 35.40625 44.1875 38.984375 42.015625 
Q 42.578125 39.84375 42.578125 35.59375 
Q 42.578125 32.859375 40.984375 30.921875 
Q 39.40625 29 36.71875 29 
Q 35.109375 29 34 30 
Q 32.90625 31 32.90625 32.625 
Q 32.90625 34.96875 34.609375 36.625 
Q 36.328125 38.28125 38.625 38.28125 
L 38.8125 38.28125 
Q 37.640625 39.984375 35.421875 40.796875 
Q 33.203125 41.609375 30.8125 41.609375 
Q 24.953125 41.609375 20.546875 36.59375 
Q 16.15625 31.59375 13.9375 24.625 
Q 11.71875 17.671875 11.71875 11.921875 
z
" id="Cmmi10-99"/>
     </defs>
     <use transform="translate(0 0.8125)" xlink:href="#Cmmi10-111"/>
     <use transform="translate(48.388672 -16.19375)scale(0.7)" xlink:href="#Cmmi10-99"/>
    </g>
   </g>
   <g id="text_2">
    <g id="patch_3">
     <path d="M 65.932857 82.390781 
C 68.635484 82.390781 71.227782 81.317016 73.138828 79.405971 
C 75.049873 77.494925 76.123638 74.902627 76.123638 72.2 
C 76.123638 69.497373 75.049873 66.905075 73.138828 64.994029 
C 71.227782 63.082984 68.635484 62.009219 65.932857 62.009219 
C 63.23023 62.009219 60.637932 63.082984 58.726887 64.994029 
C 56.815841 66.905075 55.742076 69.497373 55.742076 72.2 
C 55.742076 74.902627 56.815841 77.494925 58.726887 79.405971 
C 60.637932 81.317016 63.23023 82.390781 65.932857 82.390781 
z
" style="fill:#ffffff;"/>
    </g>
    <!-- $E$ -->
    <g transform="translate(61.122857 75.787188)scale(0.13 -0.13)">
     <defs>
      <path d="M 4.6875 0 
Q 3.71875 0 3.71875 1.3125 
Q 3.765625 1.5625 3.90625 2.171875 
Q 4.046875 2.78125 4.3125 3.140625 
Q 4.59375 3.515625 4.984375 3.515625 
Q 11.078125 3.515625 13.484375 4.203125 
Q 14.796875 4.640625 15.375 6.890625 
L 29.109375 61.8125 
Q 29.296875 62.796875 29.296875 63.1875 
Q 29.296875 64.265625 28.078125 64.40625 
Q 26.21875 64.796875 20.90625 64.796875 
Q 19.921875 64.796875 19.921875 66.109375 
Q 19.96875 66.359375 20.109375 66.96875 
Q 20.265625 67.578125 20.53125 67.9375 
Q 20.796875 68.3125 21.1875 68.3125 
L 75.390625 68.3125 
Q 76.421875 68.3125 76.421875 67 
L 74.03125 46.296875 
Q 74.03125 46.046875 73.65625 45.71875 
Q 73.296875 45.40625 73 45.40625 
L 72.125 45.40625 
Q 71.09375 45.40625 71.09375 46.6875 
Q 71.6875 51.5625 71.6875 53.90625 
Q 71.6875 57.90625 70.3125 60.125 
Q 68.953125 62.359375 66.671875 63.328125 
Q 64.40625 64.3125 61.640625 64.546875 
Q 58.890625 64.796875 54.390625 64.796875 
L 43.015625 64.796875 
Q 40.28125 64.796875 39.40625 64.328125 
Q 38.53125 63.875 37.796875 61.375 
L 31.78125 37.203125 
L 39.59375 37.203125 
Q 44.671875 37.203125 47.265625 37.90625 
Q 49.859375 38.625 51.359375 40.859375 
Q 52.875 43.109375 54.109375 48 
Q 54.203125 48.34375 54.46875 48.609375 
Q 54.734375 48.875 55.078125 48.875 
L 56 48.875 
Q 56.984375 48.875 56.984375 47.609375 
L 50.78125 22.90625 
Q 50.59375 22.015625 49.8125 22.015625 
L 48.875 22.015625 
Q 47.90625 22.015625 47.90625 23.296875 
Q 48.875 27.296875 48.875 29.203125 
Q 48.875 32.125 46.234375 32.90625 
Q 43.609375 33.6875 39.203125 33.6875 
L 30.90625 33.6875 
L 24.125 6.5 
Q 23.6875 5.28125 23.6875 4.296875 
Q 23.6875 3.515625 27.09375 3.515625 
L 39.203125 3.515625 
Q 46.4375 3.515625 50.921875 4.640625 
Q 55.421875 5.765625 58.375 8.21875 
Q 61.328125 10.6875 63.46875 14.5 
Q 65.625 18.3125 68.703125 25.59375 
Q 68.890625 26.21875 69.578125 26.21875 
L 70.515625 26.21875 
Q 70.90625 26.21875 71.1875 25.875 
Q 71.484375 25.53125 71.484375 25.09375 
Q 71.484375 24.90625 71.390625 24.703125 
L 61.078125 0.59375 
Q 60.890625 0 60.296875 0 
z
" id="Cmmi10-69"/>
     </defs>
     <use transform="translate(0 0.6875)" xlink:href="#Cmmi10-69"/>
    </g>
   </g>
   <g id="patch_4">
    <path d="M 52.620452 72.2 
Q 39.360235 72.2 24.981984 72.2 
" style="fill:none;stroke:#000000;stroke-linecap:round;"/>
    <path d="M 47.420452 69.6 
L 52.620452 72.2 
L 47.420452 74.8 
" style="fill:none;stroke:#000000;stroke-linecap:round;"/>
   </g>
   <g id="text_3">
    <g id="patch_5">
     <path d="M 119.075714 82.390781 
C 121.778341 82.390781 124.370639 81.317016 126.281685 79.405971 
C 128.192731 77.494925 129.266496 74.902627 129.266496 72.2 
C 129.266496 69.497373 128.192731 66.905075 126.281685 64.994029 
C 124.370639 63.082984 121.778341 62.009219 119.075714 62.009219 
C 116.373088 62.009219 113.780789 63.082984 111.869744 64.994029 
C 109.958698 66.905075 108.884933 69.497373 108.884933 72.2 
C 108.884933 74.902627 109.958698 77.494925 111.869744 79.405971 
C 113.780789 81.317016 116.373088 82.390781 119.075714 82.390781 
z
" style="fill:#ffffff;"/>
    </g>
    <!-- $e_c$ -->
    <g transform="translate(113.615714 75.787188)scale(0.13 -0.13)">
     <defs>
      <path d="M 20.125 -1.125 
Q 15.328125 -1.125 11.734375 1.359375 
Q 8.15625 3.859375 6.265625 8.078125 
Q 4.390625 12.3125 4.390625 17 
Q 4.390625 24.125 7.984375 30.390625 
Q 11.578125 36.671875 17.71875 40.421875 
Q 23.875 44.1875 30.90625 44.1875 
Q 35.203125 44.1875 38.40625 41.96875 
Q 41.609375 39.75 41.609375 35.59375 
Q 41.609375 29.828125 37.015625 27.015625 
Q 32.421875 24.21875 26.65625 23.5625 
Q 20.90625 22.90625 13.921875 22.90625 
L 13.625 22.90625 
Q 12.015625 16.9375 12.015625 12.703125 
Q 12.015625 8.25 14.0625 4.875 
Q 16.109375 1.515625 20.3125 1.515625 
Q 26.265625 1.515625 31.75 4.25 
Q 37.25 6.984375 40.71875 11.8125 
Q 41.015625 12.109375 41.5 12.109375 
Q 42 12.109375 42.5 11.546875 
Q 43.015625 10.984375 43.015625 10.5 
Q 43.015625 10.109375 42.828125 9.90625 
Q 39.15625 4.78125 32.953125 1.828125 
Q 26.765625 -1.125 20.125 -1.125 
z
M 14.203125 25.484375 
Q 20.015625 25.484375 24.953125 26.015625 
Q 29.890625 26.5625 33.890625 28.734375 
Q 37.890625 30.90625 37.890625 35.5 
Q 37.890625 37.359375 36.859375 38.75 
Q 35.84375 40.140625 34.203125 40.875 
Q 32.5625 41.609375 30.8125 41.609375 
Q 26.5625 41.609375 23.171875 39.3125 
Q 19.78125 37.015625 17.578125 33.328125 
Q 15.375 29.640625 14.203125 25.484375 
z
" id="Cmmi10-101"/>
     </defs>
     <use transform="translate(0 0.8125)" xlink:href="#Cmmi10-101"/>
     <use transform="translate(46.484375 -16.19375)scale(0.7)" xlink:href="#Cmmi10-99"/>
    </g>
   </g>
   <g id="patch_6">
    <path d="M 105.763309 72.2 
Q 92.503092 72.2 78.124842 72.2 
" style="fill:none;stroke:#000000;stroke-linecap:round;"/>
    <path d="M 100.563309 69.6 
L 105.763309 72.2 
L 100.563309 74.8 
" style="fill:none;stroke:#000000;stroke-linecap:round;"/>
   </g>
   <g id="text_4">
    <g id="patch_7">
     <path d="M 172.218571 30.619353 
C 174.921198 30.619353 177.513496 29.545588 179.424542 27.634542 
C 181.335588 25.723496 182.409353 23.131198 182.409353 20.428571 
C 182.409353 17.725945 181.335588 15.133647 179.424542 13.222601 
C 177.513496 11.311555 174.921198 10.23779 172.218571 10.23779 
C 169.515945 10.23779 166.923647 11.311555 165.012601 13.222601 
C 163.101555 15.133647 162.02779 17.725945 162.02779 20.428571 
C 162.02779 23.131198 163.101555 25.723496 165.012601 27.634542 
C 166.923647 29.545588 169.515945 30.619353 172.218571 30.619353 
z
" style="fill:#ffffff;stroke:#000000;stroke-linejoin:miter;"/>
    </g>
    <!--   -->
    <g transform="translate(170.15279 24.015759)scale(0.13 -0.13)">
     <defs>
      <path id="DejaVuSans-32"/>
     </defs>
     <use xlink:href="#DejaVuSans-32"/>
    </g>
   </g>
   <g id="patch_8">
    <path d="M 160.360158 23.063867 
Q 145.647085 46.314377 130.336161 70.509648 
" style="fill:none;stroke:#000000;stroke-linecap:round;"/>
    <path d="M 155.382487 26.067663 
L 160.360158 23.063867 
L 159.776592 28.848282 
" style="fill:none;stroke:#000000;stroke-linecap:round;"/>
   </g>
   <g id="text_5">
    <g id="patch_9">
     <path d="M 172.218571 56.505067 
C 174.921198 56.505067 177.513496 55.431302 179.424542 53.520256 
C 181.335588 51.609211 182.409353 49.016912 182.409353 46.314286 
C 182.409353 43.611659 181.335588 41.019361 179.424542 39.108315 
C 177.513496 37.197269 174.921198 36.123504 172.218571 36.123504 
C 169.515945 36.123504 166.923647 37.197269 165.012601 39.108315 
C 163.101555 41.019361 162.02779 43.611659 162.02779 46.314286 
C 162.02779 49.016912 163.101555 51.609211 165.012601 53.520256 
C 166.923647 55.431302 169.515945 56.505067 172.218571 56.505067 
z
" style="fill:#ffffff;stroke:#000000;stroke-linejoin:miter;"/>
    </g>
    <!--   -->
    <g transform="translate(170.15279 49.901473)scale(0.13 -0.13)">
     <use xlink:href="#DejaVuSans-32"/>
    </g>
   </g>
   <g id="patch_10">
    <path d="M 159.580866 48.247676 
Q 145.648567 59.256018 130.839022 70.957498 
" style="fill:none;stroke:#000000;stroke-linecap:round;"/>
    <path d="M 153.88888 49.431435 
L 159.580866 48.247676 
L 157.112682 53.511521 
" style="fill:none;stroke:#000000;stroke-linecap:round;"/>
   </g>
   <g id="text_6">
    <g id="patch_11">
     <path d="M 172.218571 82.390781 
C 174.921198 82.390781 177.513496 81.317016 179.424542 79.405971 
C 181.335588 77.494925 182.409353 74.902627 182.409353 72.2 
C 182.409353 69.497373 181.335588 66.905075 179.424542 64.994029 
C 177.513496 63.082984 174.921198 62.009219 172.218571 62.009219 
C 169.515945 62.009219 166.923647 63.082984 165.012601 64.994029 
C 163.101555 66.905075 162.02779 69.497373 162.02779 72.2 
C 162.02779 74.902627 163.101555 77.494925 165.012601 79.405971 
C 166.923647 81.317016 169.515945 82.390781 172.218571 82.390781 
z
" style="fill:#ffffff;stroke:#000000;stroke-linejoin:miter;"/>
    </g>
    <!--   -->
    <g transform="translate(170.15279 75.787188)scale(0.13 -0.13)">
     <use xlink:href="#DejaVuSans-32"/>
    </g>
   </g>
   <g id="patch_12">
    <path d="M 158.906166 72.2 
Q 145.645949 72.2 131.267699 72.2 
" style="fill:none;stroke:#000000;stroke-linecap:round;"/>
    <path d="M 153.706166 69.6 
L 158.906166 72.2 
L 153.706166 74.8 
" style="fill:none;stroke:#000000;stroke-linecap:round;"/>
   </g>
   <g id="text_7">
    <g id="patch_13">
     <path d="M 172.218571 108.276496 
C 174.921198 108.276496 177.513496 107.202731 179.424542 105.291685 
C 181.335588 103.380639 182.409353 100.788341 182.409353 98.085714 
C 182.409353 95.383088 181.335588 92.790789 179.424542 90.879744 
C 177.513496 88.968698 174.921198 87.894933 172.218571 87.894933 
C 169.515945 87.894933 166.923647 88.968698 165.012601 90.879744 
C 163.101555 92.790789 162.02779 95.383088 162.02779 98.085714 
C 162.02779 100.788341 163.101555 103.380639 165.012601 105.291685 
C 166.923647 107.202731 169.515945 108.276496 172.218571 108.276496 
z
" style="fill:#ffffff;"/>
    </g>
    <!-- $\vdots$ -->
    <g transform="translate(168.838571 101.672902)scale(0.13 -0.13)">
     <defs>
      <path d="M 31.90625 54.296875 
Q 31.90625 51.703125 30.15625 49.796875 
Q 28.40625 47.90625 25.59375 47.90625 
Q 22.703125 47.90625 20.953125 49.65625 
Q 19.203125 51.40625 19.203125 54.296875 
Q 19.203125 57 21.140625 58.796875 
Q 23.09375 60.59375 25.59375 60.59375 
Q 28.09375 60.59375 30 58.796875 
Q 31.90625 57 31.90625 54.296875 
z
M 31.90625 25.203125 
Q 31.90625 22.59375 30.15625 20.6875 
Q 28.40625 18.796875 25.59375 18.796875 
Q 22.703125 18.796875 20.953125 20.546875 
Q 19.203125 22.296875 19.203125 25.203125 
Q 19.203125 27.90625 21.140625 29.703125 
Q 23.09375 31.5 25.59375 31.5 
Q 28.09375 31.5 30 29.703125 
Q 31.90625 27.90625 31.90625 25.203125 
z
M 31.90625 -4 
Q 31.90625 -6.59375 30.15625 -8.5 
Q 28.40625 -10.40625 25.59375 -10.40625 
Q 22.703125 -10.40625 20.953125 -8.65625 
Q 19.203125 -6.90625 19.203125 -4 
Q 19.203125 -1.296875 21.140625 0.5 
Q 23.09375 2.296875 25.59375 2.296875 
Q 28.09375 2.296875 30 0.5 
Q 31.90625 -1.296875 31.90625 -4 
z
" id="STIXGeneral-Regular-8942"/>
     </defs>
     <use transform="translate(0 0.40625)" xlink:href="#STIXGeneral-Regular-8942"/>
    </g>
   </g>
   <g id="text_8">
    <g id="patch_14">
     <path d="M 172.218571 134.16221 
C 174.921198 134.16221 177.513496 133.088445 179.424542 131.177399 
C 181.335588 129.266353 182.409353 126.674055 182.409353 123.971429 
C 182.409353 121.268802 181.335588 118.676504 179.424542 116.765458 
C 177.513496 114.854412 174.921198 113.780647 172.218571 113.780647 
C 169.515945 113.780647 166.923647 114.854412 165.012601 116.765458 
C 163.101555 118.676504 162.02779 121.268802 162.02779 123.971429 
C 162.02779 126.674055 163.101555 129.266353 165.012601 131.177399 
C 166.923647 133.088445 169.515945 134.16221 172.218571 134.16221 
z
" style="fill:#ffffff;stroke:#000000;stroke-linejoin:miter;"/>
    </g>
    <!--   -->
    <g transform="translate(170.15279 127.558616)scale(0.13 -0.13)">
     <use xlink:href="#DejaVuSans-32"/>
    </g>
   </g>
   <g id="patch_15">
    <path d="M 160.360158 121.336133 
Q 145.647085 98.085623 130.336161 73.890352 
" style="fill:none;stroke:#000000;stroke-linecap:round;"/>
    <path d="M 159.776592 115.551718 
L 160.360158 121.336133 
L 155.382487 118.332337 
" style="fill:none;stroke:#000000;stroke-linecap:round;"/>
   </g>
   <g id="text_9">
    <g id="patch_16">
     <path d="M 225.361429 82.390781 
C 228.064055 82.390781 230.656353 81.317016 232.567399 79.405971 
C 234.478445 77.494925 235.55221 74.902627 235.55221 72.2 
C 235.55221 69.497373 234.478445 66.905075 232.567399 64.994029 
C 230.656353 63.082984 228.064055 62.009219 225.361429 62.009219 
C 222.658802 62.009219 220.066504 63.082984 218.155458 64.994029 
C 216.244412 66.905075 215.170647 69.497373 215.170647 72.2 
C 215.170647 74.902627 216.244412 77.494925 218.155458 79.405971 
C 220.066504 81.317016 222.658802 82.390781 225.361429 82.390781 
z
" style="fill:#ffffff;"/>
    </g>
    <!-- $n$ -->
    <g transform="translate(221.396429 75.787188)scale(0.13 -0.13)">
     <defs>
      <path d="M 7.71875 1.703125 
Q 7.71875 2.296875 7.8125 2.59375 
L 15.28125 32.421875 
Q 16.015625 35.203125 16.015625 37.3125 
Q 16.015625 41.609375 13.09375 41.609375 
Q 9.96875 41.609375 8.453125 37.859375 
Q 6.9375 34.125 5.515625 28.421875 
Q 5.515625 28.125 5.21875 27.953125 
Q 4.9375 27.78125 4.6875 27.78125 
L 3.515625 27.78125 
Q 3.171875 27.78125 2.921875 28.140625 
Q 2.6875 28.515625 2.6875 28.8125 
Q 3.765625 33.15625 4.765625 36.171875 
Q 5.765625 39.203125 7.890625 41.6875 
Q 10.015625 44.1875 13.1875 44.1875 
Q 16.9375 44.1875 19.8125 41.8125 
Q 22.703125 39.453125 22.703125 35.796875 
Q 25.6875 39.703125 29.6875 41.9375 
Q 33.6875 44.1875 38.1875 44.1875 
Q 41.75 44.1875 44.328125 42.96875 
Q 46.921875 41.75 48.359375 39.28125 
Q 49.8125 36.8125 49.8125 33.40625 
Q 49.8125 29.296875 47.96875 23.484375 
Q 46.140625 17.671875 43.40625 10.5 
Q 42 7.234375 42 4.5 
Q 42 1.515625 44.28125 1.515625 
Q 48.1875 1.515625 50.796875 5.703125 
Q 53.421875 9.90625 54.5 14.703125 
Q 54.6875 15.28125 55.328125 15.28125 
L 56.5 15.28125 
Q 56.890625 15.28125 57.15625 15.03125 
Q 57.421875 14.796875 57.421875 14.40625 
Q 57.421875 14.3125 57.328125 14.109375 
Q 55.953125 8.453125 52.5625 3.65625 
Q 49.171875 -1.125 44.09375 -1.125 
Q 40.578125 -1.125 38.078125 1.296875 
Q 35.59375 3.71875 35.59375 7.171875 
Q 35.59375 9.03125 36.375 11.078125 
Q 37.640625 14.359375 39.28125 18.890625 
Q 40.921875 23.4375 41.96875 27.578125 
Q 43.015625 31.734375 43.015625 34.90625 
Q 43.015625 37.703125 41.859375 39.65625 
Q 40.71875 41.609375 37.984375 41.609375 
Q 34.328125 41.609375 31.25 39.984375 
Q 28.171875 38.375 25.875 35.71875 
Q 23.578125 33.0625 21.6875 29.390625 
L 14.890625 2.203125 
Q 14.546875 0.828125 13.34375 -0.140625 
Q 12.15625 -1.125 10.6875 -1.125 
Q 9.46875 -1.125 8.59375 -0.34375 
Q 7.71875 0.4375 7.71875 1.703125 
z
" id="Cmmi10-110"/>
     </defs>
     <use transform="translate(0 0.8125)" xlink:href="#Cmmi10-110"/>
    </g>
   </g>
   <g id="patch_17">
    <path d="M 213.167057 72.2 
Q 207.788589 72.2 202.410121 72.2 
M 199.810121 7.2 
L 202.410121 7.2 
L 202.410121 137.2 
L 199.810121 137.2 
" style="fill:none;stroke:#000000;stroke-linecap:round;"/>
   </g>
  </g>
 </g>
</svg>
