<?xml version="1.0" encoding="utf-8" standalone="no"?>
<!DOCTYPE svg PUBLIC "-//W3C//DTD SVG 1.1//EN"
  "http://www.w3.org/Graphics/SVG/1.1/DTD/svg11.dtd">
<!-- Created with matplotlib (https://matplotlib.org/) -->
<svg height="236.058486pt" version="1.1" viewBox="0 0 485.584 236.058486" width="485.584pt" xmlns="http://www.w3.org/2000/svg" xmlns:xlink="http://www.w3.org/1999/xlink">
 <metadata>
  <rdf:RDF xmlns:cc="http://creativecommons.org/ns#" xmlns:dc="http://purl.org/dc/elements/1.1/" xmlns:rdf="http://www.w3.org/1999/02/22-rdf-syntax-ns#">
   <cc:Work>
    <dc:type rdf:resource="http://purl.org/dc/dcmitype/StillImage"/>
    <dc:date>2021-05-31T11:56:11.057893</dc:date>
    <dc:format>image/svg+xml</dc:format>
    <dc:creator>
     <cc:Agent>
      <dc:title>Matplotlib v3.3.4, https://matplotlib.org/</dc:title>
     </cc:Agent>
    </dc:creator>
   </cc:Work>
  </rdf:RDF>
 </metadata>
 <defs>
  <style type="text/css">*{stroke-linecap:butt;stroke-linejoin:round;}</style>
 </defs>
 <g id="figure_1">
  <g id="patch_1">
   <path d="M 0 236.058486 
L 485.584 236.058486 
L 485.584 0 
L 0 0 
z
" style="fill:none;"/>
  </g>
  <g id="axes_1">
   <g id="text_1">
    <g id="patch_2">
     <path d="M 23.645 23.681563 
L 28.455 23.681563 
Q 32.355 23.681563 32.355 19.781563 
L 32.355 7.2 
Q 32.355 3.3 28.455 3.3 
L 23.645 3.3 
Q 19.745 3.3 19.745 7.2 
L 19.745 19.781563 
Q 19.745 23.681563 23.645 23.681563 
z
" style="fill:none;"/>
    </g>
    <!-- $\mathrm{I}$ -->
    <g transform="translate(23.645 17.077969)scale(0.13 -0.13)">
     <defs>
      <path d="M 2.59375 0 
L 2.59375 3.515625 
Q 13.375 3.515625 13.375 6.6875 
L 13.375 61.625 
Q 13.375 64.796875 2.59375 64.796875 
L 2.59375 68.3125 
L 33.5 68.3125 
L 33.5 64.796875 
Q 22.703125 64.796875 22.703125 61.625 
L 22.703125 6.6875 
Q 22.703125 3.515625 33.5 3.515625 
L 33.5 0 
z
" id="Cmr10-73"/>
     </defs>
     <use transform="translate(0 0.6875)" xlink:href="#Cmr10-73"/>
    </g>
   </g>
   <g id="text_2">
    <g id="patch_3">
     <path d="M 92.32 23.681563 
L 138.34 23.681563 
Q 142.24 23.681563 142.24 19.781563 
L 142.24 7.2 
Q 142.24 3.3 138.34 3.3 
L 92.32 3.3 
Q 88.42 3.3 88.42 7.2 
L 88.42 19.781563 
Q 88.42 23.681563 92.32 23.681563 
z
" style="fill:none;"/>
    </g>
    <!--    $o_{4343}$   -->
    <g transform="translate(92.32 17.077969)scale(0.13 -0.13)">
     <defs>
      <path id="DejaVuSans-32"/>
      <path d="M 20.125 -1.125 
Q 15.375 -1.125 11.6875 1.125 
Q 8.015625 3.375 6 7.171875 
Q 4 10.984375 4 15.828125 
Q 4 22.609375 7.78125 29.25 
Q 11.578125 35.890625 17.84375 40.03125 
Q 24.125 44.1875 31 44.1875 
Q 34.71875 44.1875 37.625 42.921875 
Q 40.53125 41.65625 42.671875 39.359375 
Q 44.828125 37.0625 45.96875 33.984375 
Q 47.125 30.90625 47.125 27.296875 
Q 47.125 22.078125 44.921875 17.015625 
Q 42.71875 11.96875 38.890625 7.84375 
Q 35.0625 3.71875 30.125 1.296875 
Q 25.203125 -1.125 20.125 -1.125 
z
M 20.3125 1.515625 
Q 24.75 1.515625 28.4375 4.53125 
Q 32.125 7.5625 34.484375 12.171875 
Q 36.859375 16.796875 38.125 21.921875 
Q 39.40625 27.046875 39.40625 31.203125 
Q 39.40625 35.546875 37.234375 38.578125 
Q 35.0625 41.609375 30.8125 41.609375 
Q 24.953125 41.609375 20.546875 36.59375 
Q 16.15625 31.59375 13.9375 24.625 
Q 11.71875 17.671875 11.71875 11.921875 
Q 11.71875 7.5625 13.9375 4.53125 
Q 16.15625 1.515625 20.3125 1.515625 
z
" id="Cmmi10-111"/>
      <path d="M 2.78125 16.5 
L 2.78125 20.015625 
L 33.6875 66.109375 
Q 34.03125 66.609375 34.71875 66.609375 
L 36.1875 66.609375 
Q 37.3125 66.609375 37.3125 65.484375 
L 37.3125 20.015625 
L 47.125 20.015625 
L 47.125 16.5 
L 37.3125 16.5 
L 37.3125 6.6875 
Q 37.3125 4.640625 40.234375 4.078125 
Q 43.171875 3.515625 47.015625 3.515625 
L 47.015625 0 
L 19.484375 0 
L 19.484375 3.515625 
Q 23.34375 3.515625 26.265625 4.078125 
Q 29.203125 4.640625 29.203125 6.6875 
L 29.203125 16.5 
z
M 6.109375 20.015625 
L 29.78125 20.015625 
L 29.78125 55.421875 
z
" id="Cmr10-52"/>
      <path d="M 9.515625 7.71875 
Q 11.859375 4.296875 15.8125 2.640625 
Q 19.78125 0.984375 24.3125 0.984375 
Q 30.125 0.984375 32.5625 5.9375 
Q 35.015625 10.890625 35.015625 17.1875 
Q 35.015625 20.015625 34.5 22.84375 
Q 33.984375 25.6875 32.765625 28.125 
Q 31.546875 30.5625 29.421875 32.03125 
Q 27.296875 33.5 24.21875 33.5 
L 17.578125 33.5 
Q 16.703125 33.5 16.703125 34.421875 
L 16.703125 35.296875 
Q 16.703125 36.078125 17.578125 36.078125 
L 23.09375 36.53125 
Q 26.609375 36.53125 28.921875 39.15625 
Q 31.25 41.796875 32.328125 45.578125 
Q 33.40625 49.359375 33.40625 52.78125 
Q 33.40625 57.5625 31.15625 60.640625 
Q 28.90625 63.71875 24.3125 63.71875 
Q 20.515625 63.71875 17.046875 62.28125 
Q 13.578125 60.84375 11.53125 57.90625 
Q 11.71875 57.953125 11.859375 57.984375 
Q 12.015625 58.015625 12.203125 58.015625 
Q 14.453125 58.015625 15.96875 56.453125 
Q 17.484375 54.890625 17.484375 52.6875 
Q 17.484375 50.53125 15.96875 48.96875 
Q 14.453125 47.40625 12.203125 47.40625 
Q 10.015625 47.40625 8.453125 48.96875 
Q 6.890625 50.53125 6.890625 52.6875 
Q 6.890625 56.984375 9.46875 60.15625 
Q 12.0625 63.328125 16.140625 64.96875 
Q 20.21875 66.609375 24.3125 66.609375 
Q 27.34375 66.609375 30.703125 65.703125 
Q 34.078125 64.796875 36.8125 63.109375 
Q 39.546875 61.421875 41.28125 58.78125 
Q 43.015625 56.15625 43.015625 52.78125 
Q 43.015625 48.578125 41.140625 45.015625 
Q 39.265625 41.453125 35.984375 38.859375 
Q 32.71875 36.28125 28.8125 35.015625 
Q 33.15625 34.1875 37.0625 31.734375 
Q 40.96875 29.296875 43.328125 25.484375 
Q 45.703125 21.6875 45.703125 17.28125 
Q 45.703125 11.765625 42.671875 7.296875 
Q 39.65625 2.828125 34.71875 0.3125 
Q 29.78125 -2.203125 24.3125 -2.203125 
Q 19.625 -2.203125 14.90625 -0.40625 
Q 10.203125 1.375 7.203125 4.9375 
Q 4.203125 8.5 4.203125 13.484375 
Q 4.203125 15.96875 5.859375 17.625 
Q 7.515625 19.28125 10.015625 19.28125 
Q 11.625 19.28125 12.96875 18.53125 
Q 14.3125 17.78125 15.0625 16.40625 
Q 15.828125 15.046875 15.828125 13.484375 
Q 15.828125 11.03125 14.109375 9.375 
Q 12.40625 7.71875 10.015625 7.71875 
z
" id="Cmr10-51"/>
     </defs>
     <use transform="translate(0 0.8125)" xlink:href="#DejaVuSans-32"/>
     <use transform="translate(31.787109 0.8125)" xlink:href="#DejaVuSans-32"/>
     <use transform="translate(63.574219 0.8125)" xlink:href="#DejaVuSans-32"/>
     <use transform="translate(95.361328 0.8125)" xlink:href="#Cmmi10-111"/>
     <use transform="translate(143.75 -16.19375)scale(0.7)" xlink:href="#Cmr10-52"/>
     <use transform="translate(178.75 -16.19375)scale(0.7)" xlink:href="#Cmr10-51"/>
     <use transform="translate(213.75 -16.19375)scale(0.7)" xlink:href="#Cmr10-52"/>
     <use transform="translate(248.75 -16.19375)scale(0.7)" xlink:href="#Cmr10-51"/>
     <use transform="translate(290.127344 0.8125)" xlink:href="#DejaVuSans-32"/>
     <use transform="translate(321.914453 0.8125)" xlink:href="#DejaVuSans-32"/>
    </g>
   </g>
   <g id="text_3">
    <g id="patch_4">
     <path d="M 174.97 23.681563 
L 234.25 23.681563 
Q 238.15 23.681563 238.15 19.781563 
L 238.15 7.2 
Q 238.15 3.3 234.25 3.3 
L 174.97 3.3 
Q 171.07 3.3 171.07 7.2 
L 171.07 19.781563 
Q 171.07 23.681563 174.97 23.681563 
z
" style="fill:none;"/>
    </g>
    <!--       $E$       -->
    <g transform="translate(174.97 17.077969)scale(0.13 -0.13)">
     <defs>
      <path d="M 4.6875 0 
Q 3.71875 0 3.71875 1.3125 
Q 3.765625 1.5625 3.90625 2.171875 
Q 4.046875 2.78125 4.3125 3.140625 
Q 4.59375 3.515625 4.984375 3.515625 
Q 11.078125 3.515625 13.484375 4.203125 
Q 14.796875 4.640625 15.375 6.890625 
L 29.109375 61.8125 
Q 29.296875 62.796875 29.296875 63.1875 
Q 29.296875 64.265625 28.078125 64.40625 
Q 26.21875 64.796875 20.90625 64.796875 
Q 19.921875 64.796875 19.921875 66.109375 
Q 19.96875 66.359375 20.109375 66.96875 
Q 20.265625 67.578125 20.53125 67.9375 
Q 20.796875 68.3125 21.1875 68.3125 
L 75.390625 68.3125 
Q 76.421875 68.3125 76.421875 67 
L 74.03125 46.296875 
Q 74.03125 46.046875 73.65625 45.71875 
Q 73.296875 45.40625 73 45.40625 
L 72.125 45.40625 
Q 71.09375 45.40625 71.09375 46.6875 
Q 71.6875 51.5625 71.6875 53.90625 
Q 71.6875 57.90625 70.3125 60.125 
Q 68.953125 62.359375 66.671875 63.328125 
Q 64.40625 64.3125 61.640625 64.546875 
Q 58.890625 64.796875 54.390625 64.796875 
L 43.015625 64.796875 
Q 40.28125 64.796875 39.40625 64.328125 
Q 38.53125 63.875 37.796875 61.375 
L 31.78125 37.203125 
L 39.59375 37.203125 
Q 44.671875 37.203125 47.265625 37.90625 
Q 49.859375 38.625 51.359375 40.859375 
Q 52.875 43.109375 54.109375 48 
Q 54.203125 48.34375 54.46875 48.609375 
Q 54.734375 48.875 55.078125 48.875 
L 56 48.875 
Q 56.984375 48.875 56.984375 47.609375 
L 50.78125 22.90625 
Q 50.59375 22.015625 49.8125 22.015625 
L 48.875 22.015625 
Q 47.90625 22.015625 47.90625 23.296875 
Q 48.875 27.296875 48.875 29.203125 
Q 48.875 32.125 46.234375 32.90625 
Q 43.609375 33.6875 39.203125 33.6875 
L 30.90625 33.6875 
L 24.125 6.5 
Q 23.6875 5.28125 23.6875 4.296875 
Q 23.6875 3.515625 27.09375 3.515625 
L 39.203125 3.515625 
Q 46.4375 3.515625 50.921875 4.640625 
Q 55.421875 5.765625 58.375 8.21875 
Q 61.328125 10.6875 63.46875 14.5 
Q 65.625 18.3125 68.703125 25.59375 
Q 68.890625 26.21875 69.578125 26.21875 
L 70.515625 26.21875 
Q 70.90625 26.21875 71.1875 25.875 
Q 71.484375 25.53125 71.484375 25.09375 
Q 71.484375 24.90625 71.390625 24.703125 
L 61.078125 0.59375 
Q 60.890625 0 60.296875 0 
z
" id="Cmmi10-69"/>
     </defs>
     <use transform="translate(0 0.6875)" xlink:href="#DejaVuSans-32"/>
     <use transform="translate(31.787109 0.6875)" xlink:href="#DejaVuSans-32"/>
     <use transform="translate(63.574219 0.6875)" xlink:href="#DejaVuSans-32"/>
     <use transform="translate(95.361328 0.6875)" xlink:href="#DejaVuSans-32"/>
     <use transform="translate(127.148438 0.6875)" xlink:href="#DejaVuSans-32"/>
     <use transform="translate(158.935547 0.6875)" xlink:href="#DejaVuSans-32"/>
     <use transform="translate(190.722656 0.6875)" xlink:href="#Cmmi10-69"/>
     <use transform="translate(264.501953 0.6875)" xlink:href="#DejaVuSans-32"/>
     <use transform="translate(296.289062 0.6875)" xlink:href="#DejaVuSans-32"/>
     <use transform="translate(328.076172 0.6875)" xlink:href="#DejaVuSans-32"/>
     <use transform="translate(359.863281 0.6875)" xlink:href="#DejaVuSans-32"/>
     <use transform="translate(391.650391 0.6875)" xlink:href="#DejaVuSans-32"/>
     <use transform="translate(423.4375 0.6875)" xlink:href="#DejaVuSans-32"/>
    </g>
   </g>
   <g id="patch_5">
    <path d="M 167.949492 13.490781 
Q 156.654228 13.490781 144.24093 13.490781 
" style="fill:none;stroke:#000000;stroke-linecap:round;"/>
    <path d="M 162.749492 10.890781 
L 167.949492 13.490781 
L 162.749492 16.090781 
" style="fill:none;stroke:#000000;stroke-linecap:round;"/>
   </g>
   <g id="text_4">
    <g id="patch_6">
     <path d="M 271.01 23.681563 
L 316.77 23.681563 
Q 320.67 23.681563 320.67 19.781563 
L 320.67 7.2 
Q 320.67 3.3 316.77 3.3 
L 271.01 3.3 
Q 267.11 3.3 267.11 7.2 
L 267.11 19.781563 
Q 267.11 23.681563 271.01 23.681563 
z
" style="fill:none;"/>
    </g>
    <!--    $e_{4343}$   -->
    <g transform="translate(271.01 17.077969)scale(0.13 -0.13)">
     <defs>
      <path d="M 20.125 -1.125 
Q 15.328125 -1.125 11.734375 1.359375 
Q 8.15625 3.859375 6.265625 8.078125 
Q 4.390625 12.3125 4.390625 17 
Q 4.390625 24.125 7.984375 30.390625 
Q 11.578125 36.671875 17.71875 40.421875 
Q 23.875 44.1875 30.90625 44.1875 
Q 35.203125 44.1875 38.40625 41.96875 
Q 41.609375 39.75 41.609375 35.59375 
Q 41.609375 29.828125 37.015625 27.015625 
Q 32.421875 24.21875 26.65625 23.5625 
Q 20.90625 22.90625 13.921875 22.90625 
L 13.625 22.90625 
Q 12.015625 16.9375 12.015625 12.703125 
Q 12.015625 8.25 14.0625 4.875 
Q 16.109375 1.515625 20.3125 1.515625 
Q 26.265625 1.515625 31.75 4.25 
Q 37.25 6.984375 40.71875 11.8125 
Q 41.015625 12.109375 41.5 12.109375 
Q 42 12.109375 42.5 11.546875 
Q 43.015625 10.984375 43.015625 10.5 
Q 43.015625 10.109375 42.828125 9.90625 
Q 39.15625 4.78125 32.953125 1.828125 
Q 26.765625 -1.125 20.125 -1.125 
z
M 14.203125 25.484375 
Q 20.015625 25.484375 24.953125 26.015625 
Q 29.890625 26.5625 33.890625 28.734375 
Q 37.890625 30.90625 37.890625 35.5 
Q 37.890625 37.359375 36.859375 38.75 
Q 35.84375 40.140625 34.203125 40.875 
Q 32.5625 41.609375 30.8125 41.609375 
Q 26.5625 41.609375 23.171875 39.3125 
Q 19.78125 37.015625 17.578125 33.328125 
Q 15.375 29.640625 14.203125 25.484375 
z
" id="Cmmi10-101"/>
     </defs>
     <use transform="translate(0 0.8125)" xlink:href="#DejaVuSans-32"/>
     <use transform="translate(31.787109 0.8125)" xlink:href="#DejaVuSans-32"/>
     <use transform="translate(63.574219 0.8125)" xlink:href="#DejaVuSans-32"/>
     <use transform="translate(95.361328 0.8125)" xlink:href="#Cmmi10-101"/>
     <use transform="translate(141.845703 -16.19375)scale(0.7)" xlink:href="#Cmr10-52"/>
     <use transform="translate(176.845703 -16.19375)scale(0.7)" xlink:href="#Cmr10-51"/>
     <use transform="translate(211.845703 -16.19375)scale(0.7)" xlink:href="#Cmr10-52"/>
     <use transform="translate(246.845703 -16.19375)scale(0.7)" xlink:href="#Cmr10-51"/>
     <use transform="translate(288.223047 0.8125)" xlink:href="#DejaVuSans-32"/>
     <use transform="translate(320.010156 0.8125)" xlink:href="#DejaVuSans-32"/>
    </g>
   </g>
   <g id="patch_7">
    <path d="M 263.994603 13.490781 
Q 252.630239 13.490781 240.147842 13.490781 
" style="fill:none;stroke:#000000;stroke-linecap:round;"/>
    <path d="M 258.794603 10.890781 
L 263.994603 13.490781 
L 258.794603 16.090781 
" style="fill:none;stroke:#000000;stroke-linecap:round;"/>
   </g>
   <g id="text_5">
    <g id="patch_8">
     <path d="M 11.945 65.496947 
L 40.155 65.496947 
Q 44.055 65.496947 44.055 61.596947 
L 44.055 49.015385 
Q 44.055 45.115385 40.155 45.115385 
L 11.945 45.115385 
Q 8.045 45.115385 8.045 49.015385 
L 8.045 61.596947 
Q 8.045 65.496947 11.945 65.496947 
z
" style="fill:none;"/>
    </g>
    <!-- $\mathrm{want}$ -->
    <g transform="translate(11.945 58.893353)scale(0.13 -0.13)">
     <defs>
      <path d="M 22.125 0 
L 9.1875 36.375 
Q 8.296875 38.578125 6.640625 39.078125 
Q 4.984375 39.59375 1.8125 39.59375 
L 1.8125 43.109375 
L 22.40625 43.109375 
L 22.40625 39.59375 
Q 16.5 39.59375 16.5 37.109375 
Q 16.546875 36.96875 16.578125 36.8125 
Q 16.609375 36.671875 16.609375 36.375 
L 26.21875 9.421875 
L 34.515625 32.90625 
L 33.203125 36.375 
Q 32.421875 38.578125 30.703125 39.078125 
Q 29 39.59375 25.875 39.59375 
L 25.875 43.109375 
L 45.609375 43.109375 
L 45.609375 39.59375 
Q 39.703125 39.59375 39.703125 37.109375 
Q 39.703125 36.71875 39.796875 36.375 
L 49.8125 8.203125 
L 58.890625 33.6875 
Q 59.078125 34.46875 59.078125 35.109375 
Q 59.078125 37.203125 57.296875 38.390625 
Q 55.515625 39.59375 53.328125 39.59375 
L 53.328125 43.109375 
L 70.3125 43.109375 
L 70.3125 39.59375 
Q 67.28125 39.59375 65.109375 38 
Q 62.9375 36.421875 61.921875 33.6875 
L 50 0 
Q 49.65625 -1.125 48.484375 -1.125 
L 47.703125 -1.125 
Q 46.53125 -1.125 46.1875 0 
L 36.078125 28.515625 
L 25.984375 0 
Q 25.484375 -1.125 24.421875 -1.125 
L 23.6875 -1.125 
Q 22.46875 -1.125 22.125 0 
z
" id="Cmr10-119"/>
      <path d="M 4 9.8125 
Q 4 15.765625 8.6875 19.5 
Q 13.375 23.25 19.9375 24.78125 
Q 26.515625 26.3125 32.421875 26.3125 
L 32.421875 30.421875 
Q 32.421875 33.296875 31.15625 36 
Q 29.890625 38.71875 27.484375 40.453125 
Q 25.09375 42.1875 22.21875 42.1875 
Q 15.578125 42.1875 12.109375 39.203125 
Q 14.015625 39.203125 15.25 37.765625 
Q 16.5 36.328125 16.5 34.421875 
Q 16.5 32.421875 15.078125 31 
Q 13.671875 29.59375 11.71875 29.59375 
Q 9.71875 29.59375 8.296875 31 
Q 6.890625 32.421875 6.890625 34.421875 
Q 6.890625 39.703125 11.671875 42.265625 
Q 16.453125 44.828125 22.21875 44.828125 
Q 26.265625 44.828125 30.359375 43.09375 
Q 34.46875 41.359375 37.078125 38.125 
Q 39.703125 34.90625 39.703125 30.609375 
L 39.703125 8.109375 
Q 39.703125 6.15625 40.53125 4.515625 
Q 41.359375 2.875 43.109375 2.875 
Q 44.78125 2.875 45.578125 4.53125 
Q 46.390625 6.203125 46.390625 8.109375 
L 46.390625 14.5 
L 49.3125 14.5 
L 49.3125 8.109375 
Q 49.3125 5.859375 48.140625 3.828125 
Q 46.96875 1.8125 44.984375 0.609375 
Q 43.015625 -0.59375 40.71875 -0.59375 
Q 37.796875 -0.59375 35.671875 1.671875 
Q 33.546875 3.953125 33.296875 7.078125 
Q 31.453125 3.328125 27.828125 1.09375 
Q 24.21875 -1.125 20.125 -1.125 
Q 16.3125 -1.125 12.625 0 
Q 8.9375 1.125 6.46875 3.53125 
Q 4 5.953125 4 9.8125 
z
M 12.109375 9.8125 
Q 12.109375 6.296875 14.6875 3.90625 
Q 17.28125 1.515625 20.796875 1.515625 
Q 24.03125 1.515625 26.65625 3.125 
Q 29.296875 4.734375 30.859375 7.515625 
Q 32.421875 10.296875 32.421875 13.375 
L 32.421875 23.78125 
Q 27.875 23.78125 23.109375 22.28125 
Q 18.359375 20.796875 15.234375 17.625 
Q 12.109375 14.453125 12.109375 9.8125 
z
" id="Cmr10-97"/>
      <path d="M 2.984375 0 
L 2.984375 3.515625 
Q 6.390625 3.515625 8.59375 4.046875 
Q 10.796875 4.59375 10.796875 6.6875 
L 10.796875 33.984375 
Q 10.796875 36.671875 9.984375 37.859375 
Q 9.1875 39.0625 7.671875 39.328125 
Q 6.15625 39.59375 2.984375 39.59375 
L 2.984375 43.109375 
L 17.484375 44.1875 
L 17.484375 34.421875 
Q 19.484375 38.71875 23.40625 41.453125 
Q 27.34375 44.1875 31.984375 44.1875 
Q 38.921875 44.1875 42.40625 40.859375 
Q 45.90625 37.546875 45.90625 30.71875 
L 45.90625 6.6875 
Q 45.90625 4.59375 48.09375 4.046875 
Q 50.296875 3.515625 53.71875 3.515625 
L 53.71875 0 
L 30.8125 0 
L 30.8125 3.515625 
Q 34.234375 3.515625 36.421875 4.046875 
Q 38.625 4.59375 38.625 6.6875 
L 38.625 30.421875 
Q 38.625 35.296875 37.203125 38.453125 
Q 35.796875 41.609375 31.390625 41.609375 
Q 25.59375 41.609375 21.84375 36.96875 
Q 18.109375 32.328125 18.109375 26.421875 
L 18.109375 6.6875 
Q 18.109375 4.59375 20.3125 4.046875 
Q 22.515625 3.515625 25.875 3.515625 
L 25.875 0 
z
" id="Cmr10-110"/>
      <path d="M 10.203125 12.015625 
L 10.203125 39.59375 
L 1.90625 39.59375 
L 1.90625 42.1875 
Q 8.453125 42.1875 11.515625 48.28125 
Q 14.59375 54.390625 14.59375 61.53125 
L 17.484375 61.53125 
L 17.484375 43.109375 
L 31.59375 43.109375 
L 31.59375 39.59375 
L 17.484375 39.59375 
L 17.484375 12.203125 
Q 17.484375 8.0625 18.875 4.9375 
Q 20.265625 1.8125 23.875 1.8125 
Q 27.296875 1.8125 28.8125 5.109375 
Q 30.328125 8.40625 30.328125 12.203125 
L 30.328125 18.109375 
L 33.203125 18.109375 
L 33.203125 12.015625 
Q 33.203125 8.890625 32.046875 5.828125 
Q 30.90625 2.78125 28.65625 0.828125 
Q 26.421875 -1.125 23.1875 -1.125 
Q 17.1875 -1.125 13.6875 2.46875 
Q 10.203125 6.0625 10.203125 12.015625 
z
" id="Cmr10-116"/>
     </defs>
     <use transform="translate(0 0.46875)" xlink:href="#Cmr10-119"/>
     <use transform="translate(72.216797 0.46875)" xlink:href="#Cmr10-97"/>
     <use transform="translate(122.216797 0.46875)" xlink:href="#Cmr10-110"/>
     <use transform="translate(177.734375 0.46875)" xlink:href="#Cmr10-116"/>
    </g>
   </g>
   <g id="text_6">
    <g id="patch_9">
     <path d="M 92.32 65.496947 
L 138.34 65.496947 
Q 142.24 65.496947 142.24 61.596947 
L 142.24 49.015385 
Q 142.24 45.115385 138.34 45.115385 
L 92.32 45.115385 
Q 88.42 45.115385 88.42 49.015385 
L 88.42 61.596947 
Q 88.42 65.496947 92.32 65.496947 
z
" style="fill:none;"/>
    </g>
    <!--    $o_{9556}$   -->
    <g transform="translate(92.32 58.893353)scale(0.13 -0.13)">
     <defs>
      <path d="M 11.28125 4.203125 
Q 14.015625 0.984375 20.796875 0.984375 
Q 24.609375 0.984375 27.90625 3.5625 
Q 31.203125 6.15625 33.015625 9.90625 
Q 35.109375 14.15625 35.6875 18.96875 
Q 36.28125 23.78125 36.28125 30.90625 
Q 34.578125 26.859375 31.375 24.265625 
Q 28.171875 21.6875 24.03125 21.6875 
Q 18.21875 21.6875 13.640625 24.828125 
Q 9.078125 27.984375 6.640625 33.125 
Q 4.203125 38.28125 4.203125 44.09375 
Q 4.203125 50.09375 6.9375 55.296875 
Q 9.671875 60.5 14.5 63.546875 
Q 19.34375 66.609375 25.484375 66.609375 
Q 31.546875 66.609375 35.625 63.3125 
Q 39.703125 60.015625 41.84375 54.8125 
Q 44 49.609375 44.84375 43.796875 
Q 45.703125 37.984375 45.703125 32.328125 
Q 45.703125 24.609375 42.875 16.578125 
Q 40.046875 8.546875 34.40625 3.171875 
Q 28.765625 -2.203125 20.796875 -2.203125 
Q 14.890625 -2.203125 10.78125 0.578125 
Q 6.6875 3.375 6.6875 8.984375 
Q 6.6875 11.03125 8.078125 12.421875 
Q 9.46875 13.8125 11.53125 13.8125 
Q 13.53125 13.8125 14.921875 12.421875 
Q 16.3125 11.03125 16.3125 8.984375 
Q 16.3125 7.03125 14.890625 5.609375 
Q 13.484375 4.203125 11.53125 4.203125 
z
M 24.421875 24.3125 
Q 28.515625 24.3125 31.125 27.0625 
Q 33.734375 29.828125 34.90625 33.921875 
Q 36.078125 38.03125 36.078125 42.09375 
L 36.078125 44 
L 36.078125 44.390625 
Q 36.078125 51.90625 33.875 57.8125 
Q 31.6875 63.71875 25.484375 63.71875 
Q 21.53125 63.71875 19.0625 61.984375 
Q 16.609375 60.25 15.4375 57.375 
Q 14.265625 54.5 13.9375 51.21875 
Q 13.625 47.953125 13.625 44.09375 
Q 13.625 38.421875 14.15625 34.421875 
Q 14.703125 30.421875 17.09375 27.359375 
Q 19.484375 24.3125 24.421875 24.3125 
z
" id="Cmr10-57"/>
      <path d="M 8.6875 11.375 
Q 9.71875 8.453125 11.84375 6.046875 
Q 13.96875 3.65625 16.875 2.3125 
Q 19.78125 0.984375 22.90625 0.984375 
Q 30.125 0.984375 32.859375 6.59375 
Q 35.59375 12.203125 35.59375 20.21875 
Q 35.59375 23.6875 35.46875 26.046875 
Q 35.359375 28.421875 34.8125 30.609375 
Q 33.890625 34.125 31.5625 36.765625 
Q 29.25 39.40625 25.875 39.40625 
Q 22.515625 39.40625 20.09375 38.375 
Q 17.671875 37.359375 16.15625 35.984375 
Q 14.65625 34.625 13.484375 33.109375 
Q 12.3125 31.59375 12.015625 31.5 
L 10.890625 31.5 
Q 10.640625 31.5 10.265625 31.8125 
Q 9.90625 32.125 9.90625 32.421875 
L 9.90625 65.828125 
Q 9.90625 66.0625 10.21875 66.328125 
Q 10.546875 66.609375 10.890625 66.609375 
L 11.1875 66.609375 
Q 17.921875 63.375 25.484375 63.375 
Q 32.90625 63.375 39.796875 66.609375 
L 40.09375 66.609375 
Q 40.4375 66.609375 40.71875 66.359375 
Q 41.015625 66.109375 41.015625 65.828125 
L 41.015625 64.890625 
Q 41.015625 64.40625 40.828125 64.40625 
Q 37.40625 59.859375 32.25 57.3125 
Q 27.09375 54.78125 21.578125 54.78125 
Q 17.578125 54.78125 13.375 55.90625 
L 13.375 37.015625 
Q 16.703125 39.703125 19.3125 40.84375 
Q 21.921875 42 25.984375 42 
Q 31.5 42 35.859375 38.8125 
Q 40.234375 35.640625 42.578125 30.53125 
Q 44.921875 25.4375 44.921875 20.125 
Q 44.921875 14.109375 41.96875 8.984375 
Q 39.015625 3.859375 33.9375 0.828125 
Q 28.859375 -2.203125 22.90625 -2.203125 
Q 17.96875 -2.203125 13.84375 0.328125 
Q 9.71875 2.875 7.34375 7.171875 
Q 4.984375 11.46875 4.984375 16.3125 
Q 4.984375 18.5625 6.4375 19.96875 
Q 7.90625 21.390625 10.109375 21.390625 
Q 12.3125 21.390625 13.796875 19.9375 
Q 15.28125 18.5 15.28125 16.3125 
Q 15.28125 14.15625 13.796875 12.671875 
Q 12.3125 11.1875 10.109375 11.1875 
Q 9.765625 11.1875 9.328125 11.25 
Q 8.890625 11.328125 8.6875 11.375 
z
" id="Cmr10-53"/>
      <path d="M 25 -2.203125 
Q 18.796875 -2.203125 14.640625 1.09375 
Q 10.5 4.390625 8.21875 9.640625 
Q 5.953125 14.890625 5.078125 20.65625 
Q 4.203125 26.421875 4.203125 32.328125 
Q 4.203125 40.234375 7.28125 48.1875 
Q 10.359375 56.15625 16.328125 61.375 
Q 22.3125 66.609375 30.515625 66.609375 
Q 33.9375 66.609375 36.890625 65.3125 
Q 39.84375 64.015625 41.53125 61.5 
Q 43.21875 58.984375 43.21875 55.421875 
Q 43.21875 53.375 41.828125 51.984375 
Q 40.4375 50.59375 38.375 50.59375 
Q 36.421875 50.59375 35 52 
Q 33.59375 53.421875 33.59375 55.421875 
Q 33.59375 57.375 35 58.78125 
Q 36.421875 60.203125 38.375 60.203125 
L 38.921875 60.203125 
Q 37.640625 62.015625 35.328125 62.859375 
Q 33.015625 63.71875 30.515625 63.71875 
Q 27.484375 63.71875 24.921875 62.390625 
Q 22.359375 61.078125 20.3125 58.828125 
Q 18.265625 56.59375 16.890625 53.875 
Q 15.53125 51.171875 14.765625 47.703125 
Q 14.015625 44.234375 13.8125 41.203125 
Q 13.625 38.1875 13.625 33.59375 
Q 15.375 37.703125 18.59375 40.3125 
Q 21.828125 42.921875 25.875 42.921875 
Q 30.328125 42.921875 33.984375 41.109375 
Q 37.640625 39.3125 40.28125 36.109375 
Q 42.921875 32.90625 44.3125 28.796875 
Q 45.703125 24.703125 45.703125 20.515625 
Q 45.703125 14.65625 43.09375 9.34375 
Q 40.484375 4.046875 35.734375 0.921875 
Q 31 -2.203125 25 -2.203125 
z
M 25 0.984375 
Q 28.859375 0.984375 31.203125 2.734375 
Q 33.546875 4.5 34.640625 7.390625 
Q 35.75 10.296875 36.015625 13.25 
Q 36.28125 16.21875 36.28125 20.515625 
Q 36.28125 26.171875 35.734375 30.171875 
Q 35.203125 34.1875 32.8125 37.234375 
Q 30.421875 40.28125 25.484375 40.28125 
Q 21.4375 40.28125 18.828125 37.546875 
Q 16.21875 34.8125 15.015625 30.640625 
Q 13.8125 26.46875 13.8125 22.609375 
Q 13.8125 21.296875 13.921875 20.609375 
Q 13.921875 20.453125 13.890625 20.359375 
Q 13.875 20.265625 13.8125 20.125 
Q 13.8125 15.828125 14.6875 11.421875 
Q 15.578125 7.03125 18.0625 4 
Q 20.5625 0.984375 25 0.984375 
z
" id="Cmr10-54"/>
     </defs>
     <use transform="translate(0 0.8125)" xlink:href="#DejaVuSans-32"/>
     <use transform="translate(31.787109 0.8125)" xlink:href="#DejaVuSans-32"/>
     <use transform="translate(63.574219 0.8125)" xlink:href="#DejaVuSans-32"/>
     <use transform="translate(95.361328 0.8125)" xlink:href="#Cmmi10-111"/>
     <use transform="translate(143.75 -16.19375)scale(0.7)" xlink:href="#Cmr10-57"/>
     <use transform="translate(178.75 -16.19375)scale(0.7)" xlink:href="#Cmr10-53"/>
     <use transform="translate(213.75 -16.19375)scale(0.7)" xlink:href="#Cmr10-53"/>
     <use transform="translate(248.75 -16.19375)scale(0.7)" xlink:href="#Cmr10-54"/>
     <use transform="translate(290.127344 0.8125)" xlink:href="#DejaVuSans-32"/>
     <use transform="translate(321.914453 0.8125)" xlink:href="#DejaVuSans-32"/>
    </g>
   </g>
   <g id="text_7">
    <g id="patch_10">
     <path d="M 174.97 65.496947 
L 234.25 65.496947 
Q 238.15 65.496947 238.15 61.596947 
L 238.15 49.015385 
Q 238.15 45.115385 234.25 45.115385 
L 174.97 45.115385 
Q 171.07 45.115385 171.07 49.015385 
L 171.07 61.596947 
Q 171.07 65.496947 174.97 65.496947 
z
" style="fill:none;"/>
    </g>
    <!--       $E$       -->
    <g transform="translate(174.97 58.893353)scale(0.13 -0.13)">
     <use transform="translate(0 0.6875)" xlink:href="#DejaVuSans-32"/>
     <use transform="translate(31.787109 0.6875)" xlink:href="#DejaVuSans-32"/>
     <use transform="translate(63.574219 0.6875)" xlink:href="#DejaVuSans-32"/>
     <use transform="translate(95.361328 0.6875)" xlink:href="#DejaVuSans-32"/>
     <use transform="translate(127.148438 0.6875)" xlink:href="#DejaVuSans-32"/>
     <use transform="translate(158.935547 0.6875)" xlink:href="#DejaVuSans-32"/>
     <use transform="translate(190.722656 0.6875)" xlink:href="#Cmmi10-69"/>
     <use transform="translate(264.501953 0.6875)" xlink:href="#DejaVuSans-32"/>
     <use transform="translate(296.289062 0.6875)" xlink:href="#DejaVuSans-32"/>
     <use transform="translate(328.076172 0.6875)" xlink:href="#DejaVuSans-32"/>
     <use transform="translate(359.863281 0.6875)" xlink:href="#DejaVuSans-32"/>
     <use transform="translate(391.650391 0.6875)" xlink:href="#DejaVuSans-32"/>
     <use transform="translate(423.4375 0.6875)" xlink:href="#DejaVuSans-32"/>
    </g>
   </g>
   <g id="patch_11">
    <path d="M 167.949492 55.306166 
Q 156.654228 55.306166 144.24093 55.306166 
" style="fill:none;stroke:#000000;stroke-linecap:round;"/>
    <path d="M 162.749492 52.706166 
L 167.949492 55.306166 
L 162.749492 57.906166 
" style="fill:none;stroke:#000000;stroke-linecap:round;"/>
   </g>
   <g id="text_8">
    <g id="patch_12">
     <path d="M 271.01 65.496947 
L 316.77 65.496947 
Q 320.67 65.496947 320.67 61.596947 
L 320.67 49.015385 
Q 320.67 45.115385 316.77 45.115385 
L 271.01 45.115385 
Q 267.11 45.115385 267.11 49.015385 
L 267.11 61.596947 
Q 267.11 65.496947 271.01 65.496947 
z
" style="fill:none;"/>
    </g>
    <!--    $e_{9556}$   -->
    <g transform="translate(271.01 58.893353)scale(0.13 -0.13)">
     <use transform="translate(0 0.8125)" xlink:href="#DejaVuSans-32"/>
     <use transform="translate(31.787109 0.8125)" xlink:href="#DejaVuSans-32"/>
     <use transform="translate(63.574219 0.8125)" xlink:href="#DejaVuSans-32"/>
     <use transform="translate(95.361328 0.8125)" xlink:href="#Cmmi10-101"/>
     <use transform="translate(141.845703 -16.19375)scale(0.7)" xlink:href="#Cmr10-57"/>
     <use transform="translate(176.845703 -16.19375)scale(0.7)" xlink:href="#Cmr10-53"/>
     <use transform="translate(211.845703 -16.19375)scale(0.7)" xlink:href="#Cmr10-53"/>
     <use transform="translate(246.845703 -16.19375)scale(0.7)" xlink:href="#Cmr10-54"/>
     <use transform="translate(288.223047 0.8125)" xlink:href="#DejaVuSans-32"/>
     <use transform="translate(320.010156 0.8125)" xlink:href="#DejaVuSans-32"/>
    </g>
   </g>
   <g id="patch_13">
    <path d="M 263.994603 55.306166 
Q 252.630239 55.306166 240.147842 55.306166 
" style="fill:none;stroke:#000000;stroke-linecap:round;"/>
    <path d="M 258.794603 52.706166 
L 263.994603 55.306166 
L 258.794603 57.906166 
" style="fill:none;stroke:#000000;stroke-linecap:round;"/>
   </g>
   <g id="text_9">
    <g id="patch_14">
     <path d="M 22.8 107.312332 
L 29.3 107.312332 
Q 33.2 107.312332 33.2 103.412332 
L 33.2 90.830769 
Q 33.2 86.930769 29.3 86.930769 
L 22.8 86.930769 
Q 18.9 86.930769 18.9 90.830769 
L 18.9 103.412332 
Q 18.9 107.312332 22.8 107.312332 
z
" style="fill:none;"/>
    </g>
    <!-- $\mathrm{a}$ -->
    <g transform="translate(22.8 100.708738)scale(0.13 -0.13)">
     <use transform="translate(0 0.171875)" xlink:href="#Cmr10-97"/>
    </g>
   </g>
   <g id="text_10">
    <g id="patch_15">
     <path d="M 92.905 107.312332 
L 137.755 107.312332 
Q 141.655 107.312332 141.655 103.412332 
L 141.655 90.830769 
Q 141.655 86.930769 137.755 86.930769 
L 92.905 86.930769 
Q 89.005 86.930769 89.005 90.830769 
L 89.005 103.412332 
Q 89.005 107.312332 92.905 107.312332 
z
" style="fill:none;"/>
    </g>
    <!--     $o_{1}$     -->
    <g transform="translate(92.905 100.708738)scale(0.13 -0.13)">
     <defs>
      <path d="M 9.28125 0 
L 9.28125 3.515625 
Q 21.78125 3.515625 21.78125 6.6875 
L 21.78125 59.1875 
Q 16.609375 56.6875 8.6875 56.6875 
L 8.6875 60.203125 
Q 20.953125 60.203125 27.203125 66.609375 
L 28.609375 66.609375 
Q 28.953125 66.609375 29.265625 66.328125 
Q 29.59375 66.0625 29.59375 65.71875 
L 29.59375 6.6875 
Q 29.59375 3.515625 42.09375 3.515625 
L 42.09375 0 
z
" id="Cmr10-49"/>
     </defs>
     <use transform="translate(0 0.8125)" xlink:href="#DejaVuSans-32"/>
     <use transform="translate(31.787109 0.8125)" xlink:href="#DejaVuSans-32"/>
     <use transform="translate(63.574219 0.8125)" xlink:href="#DejaVuSans-32"/>
     <use transform="translate(95.361328 0.8125)" xlink:href="#DejaVuSans-32"/>
     <use transform="translate(127.148438 0.8125)" xlink:href="#Cmmi10-111"/>
     <use transform="translate(175.537109 -16.19375)scale(0.7)" xlink:href="#Cmr10-49"/>
     <use transform="translate(216.914453 0.8125)" xlink:href="#DejaVuSans-32"/>
     <use transform="translate(248.701562 0.8125)" xlink:href="#DejaVuSans-32"/>
     <use transform="translate(280.488672 0.8125)" xlink:href="#DejaVuSans-32"/>
     <use transform="translate(312.275781 0.8125)" xlink:href="#DejaVuSans-32"/>
    </g>
   </g>
   <g id="text_11">
    <g id="patch_16">
     <path d="M 174.97 107.312332 
L 234.25 107.312332 
Q 238.15 107.312332 238.15 103.412332 
L 238.15 90.830769 
Q 238.15 86.930769 234.25 86.930769 
L 174.97 86.930769 
Q 171.07 86.930769 171.07 90.830769 
L 171.07 103.412332 
Q 171.07 107.312332 174.97 107.312332 
z
" style="fill:none;"/>
    </g>
    <!--       $E$       -->
    <g transform="translate(174.97 100.708738)scale(0.13 -0.13)">
     <use transform="translate(0 0.6875)" xlink:href="#DejaVuSans-32"/>
     <use transform="translate(31.787109 0.6875)" xlink:href="#DejaVuSans-32"/>
     <use transform="translate(63.574219 0.6875)" xlink:href="#DejaVuSans-32"/>
     <use transform="translate(95.361328 0.6875)" xlink:href="#DejaVuSans-32"/>
     <use transform="translate(127.148438 0.6875)" xlink:href="#DejaVuSans-32"/>
     <use transform="translate(158.935547 0.6875)" xlink:href="#DejaVuSans-32"/>
     <use transform="translate(190.722656 0.6875)" xlink:href="#Cmmi10-69"/>
     <use transform="translate(264.501953 0.6875)" xlink:href="#DejaVuSans-32"/>
     <use transform="translate(296.289062 0.6875)" xlink:href="#DejaVuSans-32"/>
     <use transform="translate(328.076172 0.6875)" xlink:href="#DejaVuSans-32"/>
     <use transform="translate(359.863281 0.6875)" xlink:href="#DejaVuSans-32"/>
     <use transform="translate(391.650391 0.6875)" xlink:href="#DejaVuSans-32"/>
     <use transform="translate(423.4375 0.6875)" xlink:href="#DejaVuSans-32"/>
    </g>
   </g>
   <g id="patch_17">
    <path d="M 167.951947 97.12155 
Q 156.361437 97.12155 143.652894 97.12155 
" style="fill:none;stroke:#000000;stroke-linecap:round;"/>
    <path d="M 162.751947 94.52155 
L 167.951947 97.12155 
L 162.751947 99.72155 
" style="fill:none;stroke:#000000;stroke-linecap:round;"/>
   </g>
   <g id="text_12">
    <g id="patch_18">
     <path d="M 271.595 107.312332 
L 316.185 107.312332 
Q 320.085 107.312332 320.085 103.412332 
L 320.085 90.830769 
Q 320.085 86.930769 316.185 86.930769 
L 271.595 86.930769 
Q 267.695 86.930769 267.695 90.830769 
L 267.695 103.412332 
Q 267.695 107.312332 271.595 107.312332 
z
" style="fill:none;"/>
    </g>
    <!--     $e_{1}$     -->
    <g transform="translate(271.595 100.708738)scale(0.13 -0.13)">
     <use transform="translate(0 0.8125)" xlink:href="#DejaVuSans-32"/>
     <use transform="translate(31.787109 0.8125)" xlink:href="#DejaVuSans-32"/>
     <use transform="translate(63.574219 0.8125)" xlink:href="#DejaVuSans-32"/>
     <use transform="translate(95.361328 0.8125)" xlink:href="#DejaVuSans-32"/>
     <use transform="translate(127.148438 0.8125)" xlink:href="#Cmmi10-101"/>
     <use transform="translate(173.632812 -16.19375)scale(0.7)" xlink:href="#Cmr10-49"/>
     <use transform="translate(215.010156 0.8125)" xlink:href="#DejaVuSans-32"/>
     <use transform="translate(246.797266 0.8125)" xlink:href="#DejaVuSans-32"/>
     <use transform="translate(278.584375 0.8125)" xlink:href="#DejaVuSans-32"/>
     <use transform="translate(310.371484 0.8125)" xlink:href="#DejaVuSans-32"/>
    </g>
   </g>
   <g id="patch_19">
    <path d="M 264.575321 97.12155 
Q 252.92194 97.12155 240.150524 97.12155 
" style="fill:none;stroke:#000000;stroke-linecap:round;"/>
    <path d="M 259.375321 94.52155 
L 264.575321 97.12155 
L 259.375321 99.72155 
" style="fill:none;stroke:#000000;stroke-linecap:round;"/>
   </g>
   <g id="text_13">
    <g id="patch_20">
     <path d="M 12.595 149.127716 
L 39.505 149.127716 
Q 43.405 149.127716 43.405 145.227716 
L 43.405 132.646154 
Q 43.405 128.746154 39.505 128.746154 
L 12.595 128.746154 
Q 8.695 128.746154 8.695 132.646154 
L 8.695 145.227716 
Q 8.695 149.127716 12.595 149.127716 
z
" style="fill:none;"/>
    </g>
    <!-- $\mathrm{glass}$ -->
    <g transform="translate(12.595 142.497716)scale(0.13 -0.13)">
     <defs>
      <path d="M 2.78125 -7.8125 
Q 2.78125 -4.25 5.359375 -1.578125 
Q 7.953125 1.078125 11.53125 2.203125 
Q 9.515625 3.71875 8.46875 6 
Q 7.421875 8.296875 7.421875 10.890625 
Q 7.421875 15.578125 10.40625 19.1875 
Q 5.8125 23.6875 5.8125 29.5 
Q 5.8125 32.625 7.15625 35.359375 
Q 8.5 38.09375 10.890625 40.09375 
Q 13.28125 42.09375 16.203125 43.140625 
Q 19.140625 44.1875 22.21875 44.1875 
Q 28.171875 44.1875 32.90625 40.71875 
Q 34.96875 42.921875 37.765625 44.109375 
Q 40.578125 45.3125 43.609375 45.3125 
Q 45.75 45.3125 47.109375 43.765625 
Q 48.484375 42.234375 48.484375 40.09375 
Q 48.484375 38.875 47.546875 37.9375 
Q 46.625 37.015625 45.40625 37.015625 
Q 44.140625 37.015625 43.203125 37.9375 
Q 42.28125 38.875 42.28125 40.09375 
Q 42.28125 41.9375 43.5 42.671875 
Q 38.328125 42.671875 34.625 39.109375 
Q 36.421875 37.3125 37.515625 34.6875 
Q 38.625 32.078125 38.625 29.5 
Q 38.625 25.25 36.28125 21.84375 
Q 33.9375 18.453125 30.09375 16.578125 
Q 26.265625 14.703125 22.21875 14.703125 
Q 16.75 14.703125 12.203125 17.671875 
Q 10.796875 15.71875 10.796875 13.28125 
Q 10.796875 10.640625 12.53125 8.65625 
Q 14.265625 6.6875 16.890625 6.6875 
L 25.09375 6.6875 
Q 31.0625 6.6875 35.84375 5.609375 
Q 40.625 4.546875 43.875 1.3125 
Q 47.125 -1.90625 47.125 -7.8125 
Q 47.125 -12.203125 43.40625 -15.109375 
Q 39.703125 -18.015625 34.546875 -19.3125 
Q 29.390625 -20.609375 25 -20.609375 
Q 20.5625 -20.609375 15.375 -19.3125 
Q 10.203125 -18.015625 6.484375 -15.109375 
Q 2.78125 -12.203125 2.78125 -7.8125 
z
M 8.40625 -7.8125 
Q 8.40625 -11.1875 11.140625 -13.453125 
Q 13.875 -15.71875 17.71875 -16.8125 
Q 21.578125 -17.921875 25 -17.921875 
Q 28.375 -17.921875 32.21875 -16.8125 
Q 36.078125 -15.71875 38.78125 -13.453125 
Q 41.5 -11.1875 41.5 -7.8125 
Q 41.5 -2.59375 36.71875 -1.046875 
Q 31.9375 0.484375 25.09375 0.484375 
L 16.890625 0.484375 
Q 14.59375 0.484375 12.671875 -0.609375 
Q 10.75 -1.703125 9.578125 -3.6875 
Q 8.40625 -5.671875 8.40625 -7.8125 
z
M 22.21875 17.390625 
Q 30.71875 17.390625 30.71875 29.5 
Q 30.71875 34.71875 28.90625 38.109375 
Q 27.09375 41.5 22.21875 41.5 
Q 17.328125 41.5 15.515625 38.109375 
Q 13.71875 34.71875 13.71875 29.5 
Q 13.71875 26.171875 14.40625 23.484375 
Q 15.09375 20.796875 16.9375 19.09375 
Q 18.796875 17.390625 22.21875 17.390625 
z
" id="Cmr10-103"/>
      <path d="M 3.078125 0 
L 3.078125 3.515625 
Q 6.5 3.515625 8.6875 4.046875 
Q 10.890625 4.59375 10.890625 6.6875 
L 10.890625 59.1875 
Q 10.890625 61.859375 10.078125 63.0625 
Q 9.28125 64.265625 7.765625 64.53125 
Q 6.25 64.796875 3.078125 64.796875 
L 3.078125 68.3125 
L 17.921875 69.390625 
L 17.921875 6.6875 
Q 17.921875 4.59375 20.109375 4.046875 
Q 22.3125 3.515625 25.6875 3.515625 
L 25.6875 0 
z
" id="Cmr10-108"/>
      <path d="M 3.328125 -0.296875 
L 3.328125 16.015625 
Q 3.328125 16.796875 4.203125 16.796875 
L 5.421875 16.796875 
Q 6 16.796875 6.203125 16.015625 
Q 8.984375 1.515625 19.671875 1.515625 
Q 24.421875 1.515625 27.609375 3.65625 
Q 30.8125 5.8125 30.8125 10.296875 
Q 30.8125 13.53125 28.3125 15.796875 
Q 25.828125 18.0625 22.40625 18.890625 
L 15.71875 20.21875 
Q 12.359375 20.953125 9.59375 22.453125 
Q 6.84375 23.96875 5.078125 26.484375 
Q 3.328125 29 3.328125 32.328125 
Q 3.328125 36.71875 5.640625 39.515625 
Q 7.953125 42.328125 11.65625 43.578125 
Q 15.375 44.828125 19.671875 44.828125 
Q 24.8125 44.828125 28.609375 42.09375 
L 31.5 44.578125 
Q 31.5 44.828125 31.984375 44.828125 
L 32.71875 44.828125 
Q 33.015625 44.828125 33.25 44.546875 
Q 33.5 44.28125 33.5 44 
L 33.5 30.90625 
Q 33.5 29.984375 32.71875 29.984375 
L 31.5 29.984375 
Q 30.609375 29.984375 30.609375 30.90625 
Q 30.609375 36.140625 27.703125 39.3125 
Q 24.8125 42.484375 19.578125 42.484375 
Q 15.09375 42.484375 11.796875 40.8125 
Q 8.5 39.15625 8.5 35.109375 
Q 8.5 32.328125 10.859375 30.546875 
Q 13.234375 28.765625 16.40625 27.984375 
L 23.1875 26.703125 
Q 26.609375 25.921875 29.5625 24.0625 
Q 32.515625 22.21875 34.25 19.375 
Q 35.984375 16.546875 35.984375 12.984375 
Q 35.984375 9.375 34.734375 6.703125 
Q 33.5 4.046875 31.265625 2.28125 
Q 29.046875 0.53125 26.015625 -0.296875 
Q 23 -1.125 19.671875 -1.125 
Q 13.421875 -1.125 8.984375 3.078125 
L 5.328125 -0.875 
Q 5.328125 -1.125 4.78125 -1.125 
L 4.203125 -1.125 
Q 3.328125 -1.125 3.328125 -0.296875 
z
" id="Cmr10-115"/>
     </defs>
     <use transform="translate(0 0.609375)" xlink:href="#Cmr10-103"/>
     <use transform="translate(50 0.609375)" xlink:href="#Cmr10-108"/>
     <use transform="translate(77.685547 0.609375)" xlink:href="#Cmr10-97"/>
     <use transform="translate(127.685547 0.609375)" xlink:href="#Cmr10-115"/>
     <use transform="translate(167.089844 0.609375)" xlink:href="#Cmr10-115"/>
    </g>
   </g>
   <g id="text_14">
    <g id="patch_21">
     <path d="M 92.32 149.127716 
L 138.34 149.127716 
Q 142.24 149.127716 142.24 145.227716 
L 142.24 132.646154 
Q 142.24 128.746154 138.34 128.746154 
L 92.32 128.746154 
Q 88.42 128.746154 88.42 132.646154 
L 88.42 145.227716 
Q 88.42 149.127716 92.32 149.127716 
z
" style="fill:none;"/>
    </g>
    <!--    $o_{3852}$   -->
    <g transform="translate(92.32 142.524123)scale(0.13 -0.13)">
     <defs>
      <path d="M 4.203125 15.1875 
Q 4.203125 21.1875 8.15625 25.796875 
Q 12.109375 30.421875 18.3125 33.5 
L 14.59375 35.890625 
Q 11.1875 38.140625 9.03125 41.875 
Q 6.890625 45.609375 6.890625 49.703125 
Q 6.890625 54.5 9.40625 58.34375 
Q 11.921875 62.203125 16.09375 64.40625 
Q 20.265625 66.609375 25 66.609375 
Q 29.4375 66.609375 33.5625 64.796875 
Q 37.703125 62.984375 40.359375 59.609375 
Q 43.015625 56.25 43.015625 51.609375 
Q 43.015625 48.25 41.421875 45.359375 
Q 39.84375 42.484375 37.078125 40.1875 
Q 34.328125 37.890625 31.203125 36.28125 
L 36.921875 32.625 
Q 40.875 30.03125 43.28125 25.828125 
Q 45.703125 21.625 45.703125 17 
Q 45.703125 11.578125 42.796875 7.125 
Q 39.890625 2.6875 35.109375 0.234375 
Q 30.328125 -2.203125 25 -2.203125 
Q 19.828125 -2.203125 15.015625 -0.09375 
Q 10.203125 2 7.203125 5.984375 
Q 4.203125 9.96875 4.203125 15.1875 
z
M 9.625 15.1875 
Q 9.625 11.234375 11.796875 7.953125 
Q 13.96875 4.6875 17.53125 2.828125 
Q 21.09375 0.984375 25 0.984375 
Q 30.8125 0.984375 35.546875 4.375 
Q 40.28125 7.765625 40.28125 13.375 
Q 40.28125 15.28125 39.515625 17.15625 
Q 38.765625 19.046875 37.421875 20.578125 
Q 36.078125 22.125 34.421875 23.09375 
L 21 31.78125 
Q 17.875 30.125 15.25 27.578125 
Q 12.640625 25.046875 11.125 21.875 
Q 9.625 18.703125 9.625 15.1875 
z
M 16.5 45.703125 
L 28.609375 37.890625 
Q 32.8125 40.328125 35.5 43.796875 
Q 38.1875 47.265625 38.1875 51.609375 
Q 38.1875 54.984375 36.296875 57.78125 
Q 34.421875 60.59375 31.390625 62.15625 
Q 28.375 63.71875 24.90625 63.71875 
Q 21.875 63.71875 18.796875 62.546875 
Q 15.71875 61.375 13.71875 59.046875 
Q 11.71875 56.734375 11.71875 53.609375 
Q 11.71875 48.921875 16.5 45.703125 
z
" id="Cmr10-56"/>
      <path d="M 4.984375 0 
L 4.984375 2.6875 
Q 4.984375 2.9375 5.171875 3.21875 
L 20.703125 20.40625 
Q 24.21875 24.21875 26.40625 26.796875 
Q 28.609375 29.390625 30.75 32.765625 
Q 32.90625 36.140625 34.15625 39.625 
Q 35.40625 43.109375 35.40625 47.015625 
Q 35.40625 51.125 33.890625 54.859375 
Q 32.375 58.59375 29.375 60.84375 
Q 26.375 63.09375 22.125 63.09375 
Q 17.78125 63.09375 14.3125 60.46875 
Q 10.84375 57.859375 9.421875 53.71875 
Q 9.8125 53.8125 10.5 53.8125 
Q 12.75 53.8125 14.328125 52.296875 
Q 15.921875 50.78125 15.921875 48.390625 
Q 15.921875 46.09375 14.328125 44.5 
Q 12.75 42.921875 10.5 42.921875 
Q 8.15625 42.921875 6.5625 44.546875 
Q 4.984375 46.1875 4.984375 48.390625 
Q 4.984375 52.15625 6.390625 55.4375 
Q 7.8125 58.734375 10.46875 61.296875 
Q 13.140625 63.875 16.484375 65.234375 
Q 19.828125 66.609375 23.578125 66.609375 
Q 29.296875 66.609375 34.21875 64.1875 
Q 39.15625 61.765625 42.03125 57.34375 
Q 44.921875 52.9375 44.921875 47.015625 
Q 44.921875 42.671875 43.015625 38.765625 
Q 41.109375 34.859375 38.125 31.65625 
Q 35.15625 28.46875 30.515625 24.40625 
Q 25.875 20.359375 24.421875 19 
L 13.09375 8.109375 
L 22.703125 8.109375 
Q 29.78125 8.109375 34.546875 8.21875 
Q 39.3125 8.34375 39.59375 8.59375 
Q 40.765625 9.859375 42 17.828125 
L 44.921875 17.828125 
L 42.09375 0 
z
" id="Cmr10-50"/>
     </defs>
     <use transform="translate(0 0.8125)" xlink:href="#DejaVuSans-32"/>
     <use transform="translate(31.787109 0.8125)" xlink:href="#DejaVuSans-32"/>
     <use transform="translate(63.574219 0.8125)" xlink:href="#DejaVuSans-32"/>
     <use transform="translate(95.361328 0.8125)" xlink:href="#Cmmi10-111"/>
     <use transform="translate(143.75 -16.19375)scale(0.7)" xlink:href="#Cmr10-51"/>
     <use transform="translate(178.75 -16.19375)scale(0.7)" xlink:href="#Cmr10-56"/>
     <use transform="translate(213.75 -16.19375)scale(0.7)" xlink:href="#Cmr10-53"/>
     <use transform="translate(248.75 -16.19375)scale(0.7)" xlink:href="#Cmr10-50"/>
     <use transform="translate(290.127344 0.8125)" xlink:href="#DejaVuSans-32"/>
     <use transform="translate(321.914453 0.8125)" xlink:href="#DejaVuSans-32"/>
    </g>
   </g>
   <g id="text_15">
    <g id="patch_22">
     <path d="M 174.97 149.127716 
L 234.25 149.127716 
Q 238.15 149.127716 238.15 145.227716 
L 238.15 132.646154 
Q 238.15 128.746154 234.25 128.746154 
L 174.97 128.746154 
Q 171.07 128.746154 171.07 132.646154 
L 171.07 145.227716 
Q 171.07 149.127716 174.97 149.127716 
z
" style="fill:none;"/>
    </g>
    <!--       $E$       -->
    <g transform="translate(174.97 142.524123)scale(0.13 -0.13)">
     <use transform="translate(0 0.6875)" xlink:href="#DejaVuSans-32"/>
     <use transform="translate(31.787109 0.6875)" xlink:href="#DejaVuSans-32"/>
     <use transform="translate(63.574219 0.6875)" xlink:href="#DejaVuSans-32"/>
     <use transform="translate(95.361328 0.6875)" xlink:href="#DejaVuSans-32"/>
     <use transform="translate(127.148438 0.6875)" xlink:href="#DejaVuSans-32"/>
     <use transform="translate(158.935547 0.6875)" xlink:href="#DejaVuSans-32"/>
     <use transform="translate(190.722656 0.6875)" xlink:href="#Cmmi10-69"/>
     <use transform="translate(264.501953 0.6875)" xlink:href="#DejaVuSans-32"/>
     <use transform="translate(296.289062 0.6875)" xlink:href="#DejaVuSans-32"/>
     <use transform="translate(328.076172 0.6875)" xlink:href="#DejaVuSans-32"/>
     <use transform="translate(359.863281 0.6875)" xlink:href="#DejaVuSans-32"/>
     <use transform="translate(391.650391 0.6875)" xlink:href="#DejaVuSans-32"/>
     <use transform="translate(423.4375 0.6875)" xlink:href="#DejaVuSans-32"/>
    </g>
   </g>
   <g id="patch_23">
    <path d="M 167.949492 138.936935 
Q 156.654228 138.936935 144.24093 138.936935 
" style="fill:none;stroke:#000000;stroke-linecap:round;"/>
    <path d="M 162.749492 136.336935 
L 167.949492 138.936935 
L 162.749492 141.536935 
" style="fill:none;stroke:#000000;stroke-linecap:round;"/>
   </g>
   <g id="text_16">
    <g id="patch_24">
     <path d="M 271.01 149.127716 
L 316.77 149.127716 
Q 320.67 149.127716 320.67 145.227716 
L 320.67 132.646154 
Q 320.67 128.746154 316.77 128.746154 
L 271.01 128.746154 
Q 267.11 128.746154 267.11 132.646154 
L 267.11 145.227716 
Q 267.11 149.127716 271.01 149.127716 
z
" style="fill:none;"/>
    </g>
    <!--    $e_{3852}$   -->
    <g transform="translate(271.01 142.524123)scale(0.13 -0.13)">
     <use transform="translate(0 0.8125)" xlink:href="#DejaVuSans-32"/>
     <use transform="translate(31.787109 0.8125)" xlink:href="#DejaVuSans-32"/>
     <use transform="translate(63.574219 0.8125)" xlink:href="#DejaVuSans-32"/>
     <use transform="translate(95.361328 0.8125)" xlink:href="#Cmmi10-101"/>
     <use transform="translate(141.845703 -16.19375)scale(0.7)" xlink:href="#Cmr10-51"/>
     <use transform="translate(176.845703 -16.19375)scale(0.7)" xlink:href="#Cmr10-56"/>
     <use transform="translate(211.845703 -16.19375)scale(0.7)" xlink:href="#Cmr10-53"/>
     <use transform="translate(246.845703 -16.19375)scale(0.7)" xlink:href="#Cmr10-50"/>
     <use transform="translate(288.223047 0.8125)" xlink:href="#DejaVuSans-32"/>
     <use transform="translate(320.010156 0.8125)" xlink:href="#DejaVuSans-32"/>
    </g>
   </g>
   <g id="patch_25">
    <path d="M 263.994603 138.936935 
Q 252.630239 138.936935 240.147842 138.936935 
" style="fill:none;stroke:#000000;stroke-linecap:round;"/>
    <path d="M 258.794603 136.336935 
L 263.994603 138.936935 
L 258.794603 141.536935 
" style="fill:none;stroke:#000000;stroke-linecap:round;"/>
   </g>
   <g id="text_17">
    <g id="patch_26">
     <path d="M 20.785 190.943101 
L 31.315 190.943101 
Q 35.215 190.943101 35.215 187.043101 
L 35.215 174.461538 
Q 35.215 170.561538 31.315 170.561538 
L 20.785 170.561538 
Q 16.885 170.561538 16.885 174.461538 
L 16.885 187.043101 
Q 16.885 190.943101 20.785 190.943101 
z
" style="fill:none;"/>
    </g>
    <!-- $\mathrm{of}$ -->
    <g transform="translate(20.785 184.339507)scale(0.13 -0.13)">
     <defs>
      <path d="M 25 -1.125 
Q 19 -1.125 13.859375 1.921875 
Q 8.734375 4.984375 5.75 10.109375 
Q 2.78125 15.234375 2.78125 21.296875 
Q 2.78125 25.875 4.421875 30.125 
Q 6.0625 34.375 9.109375 37.71875 
Q 12.15625 41.0625 16.203125 42.9375 
Q 20.265625 44.828125 25 44.828125 
Q 31.15625 44.828125 36.203125 41.578125 
Q 41.265625 38.328125 44.1875 32.875 
Q 47.125 27.4375 47.125 21.296875 
Q 47.125 15.28125 44.140625 10.125 
Q 41.15625 4.984375 36.046875 1.921875 
Q 30.953125 -1.125 25 -1.125 
z
M 25 1.8125 
Q 33.015625 1.8125 35.6875 7.609375 
Q 38.375 13.421875 38.375 22.40625 
Q 38.375 27.4375 37.84375 30.734375 
Q 37.3125 34.03125 35.5 36.71875 
Q 34.375 38.375 32.640625 39.625 
Q 30.90625 40.875 28.96875 41.53125 
Q 27.046875 42.1875 25 42.1875 
Q 21.875 42.1875 19.0625 40.765625 
Q 16.265625 39.359375 14.40625 36.71875 
Q 12.546875 33.890625 12.03125 30.484375 
Q 11.53125 27.09375 11.53125 22.40625 
Q 11.53125 16.796875 12.5 12.328125 
Q 13.484375 7.859375 16.4375 4.828125 
Q 19.390625 1.8125 25 1.8125 
z
" id="Cmr10-111"/>
      <path d="M 3.21875 0 
L 3.21875 3.515625 
Q 6.59375 3.515625 8.78125 4.046875 
Q 10.984375 4.59375 10.984375 6.6875 
L 10.984375 39.59375 
L 3.328125 39.59375 
L 3.328125 43.109375 
L 10.984375 43.109375 
L 10.984375 55.078125 
Q 10.984375 58.296875 12.328125 61.109375 
Q 13.671875 63.921875 15.9375 66.015625 
Q 18.21875 68.109375 21.171875 69.3125 
Q 24.125 70.515625 27.296875 70.515625 
Q 30.671875 70.515625 33.375 68.5 
Q 36.078125 66.5 36.078125 63.1875 
Q 36.078125 61.28125 34.78125 59.984375 
Q 33.5 58.6875 31.59375 58.6875 
Q 29.6875 58.6875 28.34375 59.984375 
Q 27 61.28125 27 63.1875 
Q 27 66.3125 29.6875 67.390625 
Q 28.078125 67.921875 26.8125 67.921875 
Q 23.875 67.921875 21.796875 65.84375 
Q 19.734375 63.765625 18.703125 60.78125 
Q 17.671875 57.8125 17.671875 54.890625 
L 17.671875 43.109375 
L 29.203125 43.109375 
L 29.203125 39.59375 
L 18.015625 39.59375 
L 18.015625 6.6875 
Q 18.015625 4.640625 20.9375 4.078125 
Q 23.875 3.515625 27.6875 3.515625 
L 27.6875 0 
z
" id="Cmr10-102"/>
     </defs>
     <use transform="translate(0 0.484375)" xlink:href="#Cmr10-111"/>
     <use transform="translate(50 0.484375)" xlink:href="#Cmr10-102"/>
    </g>
   </g>
   <g id="text_18">
    <g id="patch_27">
     <path d="M 92.32 190.943101 
L 138.34 190.943101 
Q 142.24 190.943101 142.24 187.043101 
L 142.24 174.461538 
Q 142.24 170.561538 138.34 170.561538 
L 92.32 170.561538 
Q 88.42 170.561538 88.42 174.461538 
L 88.42 187.043101 
Q 88.42 190.943101 92.32 190.943101 
z
" style="fill:none;"/>
    </g>
    <!--    $o_{6163}$   -->
    <g transform="translate(92.32 184.339507)scale(0.13 -0.13)">
     <use transform="translate(0 0.8125)" xlink:href="#DejaVuSans-32"/>
     <use transform="translate(31.787109 0.8125)" xlink:href="#DejaVuSans-32"/>
     <use transform="translate(63.574219 0.8125)" xlink:href="#DejaVuSans-32"/>
     <use transform="translate(95.361328 0.8125)" xlink:href="#Cmmi10-111"/>
     <use transform="translate(143.75 -16.19375)scale(0.7)" xlink:href="#Cmr10-54"/>
     <use transform="translate(178.75 -16.19375)scale(0.7)" xlink:href="#Cmr10-49"/>
     <use transform="translate(213.75 -16.19375)scale(0.7)" xlink:href="#Cmr10-54"/>
     <use transform="translate(248.75 -16.19375)scale(0.7)" xlink:href="#Cmr10-51"/>
     <use transform="translate(290.127344 0.8125)" xlink:href="#DejaVuSans-32"/>
     <use transform="translate(321.914453 0.8125)" xlink:href="#DejaVuSans-32"/>
    </g>
   </g>
   <g id="text_19">
    <g id="patch_28">
     <path d="M 174.97 190.943101 
L 234.25 190.943101 
Q 238.15 190.943101 238.15 187.043101 
L 238.15 174.461538 
Q 238.15 170.561538 234.25 170.561538 
L 174.97 170.561538 
Q 171.07 170.561538 171.07 174.461538 
L 171.07 187.043101 
Q 171.07 190.943101 174.97 190.943101 
z
" style="fill:none;"/>
    </g>
    <!--       $E$       -->
    <g transform="translate(174.97 184.339507)scale(0.13 -0.13)">
     <use transform="translate(0 0.6875)" xlink:href="#DejaVuSans-32"/>
     <use transform="translate(31.787109 0.6875)" xlink:href="#DejaVuSans-32"/>
     <use transform="translate(63.574219 0.6875)" xlink:href="#DejaVuSans-32"/>
     <use transform="translate(95.361328 0.6875)" xlink:href="#DejaVuSans-32"/>
     <use transform="translate(127.148438 0.6875)" xlink:href="#DejaVuSans-32"/>
     <use transform="translate(158.935547 0.6875)" xlink:href="#DejaVuSans-32"/>
     <use transform="translate(190.722656 0.6875)" xlink:href="#Cmmi10-69"/>
     <use transform="translate(264.501953 0.6875)" xlink:href="#DejaVuSans-32"/>
     <use transform="translate(296.289062 0.6875)" xlink:href="#DejaVuSans-32"/>
     <use transform="translate(328.076172 0.6875)" xlink:href="#DejaVuSans-32"/>
     <use transform="translate(359.863281 0.6875)" xlink:href="#DejaVuSans-32"/>
     <use transform="translate(391.650391 0.6875)" xlink:href="#DejaVuSans-32"/>
     <use transform="translate(423.4375 0.6875)" xlink:href="#DejaVuSans-32"/>
    </g>
   </g>
   <g id="patch_29">
    <path d="M 167.949492 180.75232 
Q 156.654228 180.75232 144.24093 180.75232 
" style="fill:none;stroke:#000000;stroke-linecap:round;"/>
    <path d="M 162.749492 178.15232 
L 167.949492 180.75232 
L 162.749492 183.35232 
" style="fill:none;stroke:#000000;stroke-linecap:round;"/>
   </g>
   <g id="text_20">
    <g id="patch_30">
     <path d="M 271.01 190.943101 
L 316.77 190.943101 
Q 320.67 190.943101 320.67 187.043101 
L 320.67 174.461538 
Q 320.67 170.561538 316.77 170.561538 
L 271.01 170.561538 
Q 267.11 170.561538 267.11 174.461538 
L 267.11 187.043101 
Q 267.11 190.943101 271.01 190.943101 
z
" style="fill:none;"/>
    </g>
    <!--    $e_{6163}$   -->
    <g transform="translate(271.01 184.339507)scale(0.13 -0.13)">
     <use transform="translate(0 0.8125)" xlink:href="#DejaVuSans-32"/>
     <use transform="translate(31.787109 0.8125)" xlink:href="#DejaVuSans-32"/>
     <use transform="translate(63.574219 0.8125)" xlink:href="#DejaVuSans-32"/>
     <use transform="translate(95.361328 0.8125)" xlink:href="#Cmmi10-101"/>
     <use transform="translate(141.845703 -16.19375)scale(0.7)" xlink:href="#Cmr10-54"/>
     <use transform="translate(176.845703 -16.19375)scale(0.7)" xlink:href="#Cmr10-49"/>
     <use transform="translate(211.845703 -16.19375)scale(0.7)" xlink:href="#Cmr10-54"/>
     <use transform="translate(246.845703 -16.19375)scale(0.7)" xlink:href="#Cmr10-51"/>
     <use transform="translate(288.223047 0.8125)" xlink:href="#DejaVuSans-32"/>
     <use transform="translate(320.010156 0.8125)" xlink:href="#DejaVuSans-32"/>
    </g>
   </g>
   <g id="patch_31">
    <path d="M 263.994603 180.75232 
Q 252.630239 180.75232 240.147842 180.75232 
" style="fill:none;stroke:#000000;stroke-linecap:round;"/>
    <path d="M 258.794603 178.15232 
L 263.994603 180.75232 
L 258.794603 183.35232 
" style="fill:none;stroke:#000000;stroke-linecap:round;"/>
   </g>
   <g id="text_21">
    <g id="patch_32">
     <path d="M 7.2 232.758486 
L 44.9 232.758486 
Q 48.8 232.758486 48.8 228.858486 
L 48.8 216.276923 
Q 48.8 212.376923 44.9 212.376923 
L 7.2 212.376923 
Q 3.3 212.376923 3.3 216.276923 
L 3.3 228.858486 
Q 3.3 232.758486 7.2 232.758486 
z
" style="fill:none;"/>
    </g>
    <!-- $\mathrm{orange}$ -->
    <g transform="translate(7.2 226.128486)scale(0.13 -0.13)">
     <defs>
      <path d="M 2.59375 0 
L 2.59375 3.515625 
Q 6 3.515625 8.203125 4.046875 
Q 10.40625 4.59375 10.40625 6.6875 
L 10.40625 33.984375 
Q 10.40625 36.671875 9.59375 37.859375 
Q 8.796875 39.0625 7.28125 39.328125 
Q 5.765625 39.59375 2.59375 39.59375 
L 2.59375 43.109375 
L 16.890625 44.1875 
L 16.890625 34.421875 
Q 18.5 38.765625 21.484375 41.46875 
Q 24.46875 44.1875 28.71875 44.1875 
Q 31.6875 44.1875 34.03125 42.421875 
Q 36.375 40.671875 36.375 37.796875 
Q 36.375 35.984375 35.078125 34.640625 
Q 33.796875 33.296875 31.890625 33.296875 
Q 30.03125 33.296875 28.703125 34.609375 
Q 27.390625 35.9375 27.390625 37.796875 
Q 27.390625 40.484375 29.296875 41.609375 
L 28.71875 41.609375 
Q 24.65625 41.609375 22.09375 38.671875 
Q 19.53125 35.75 18.453125 31.390625 
Q 17.390625 27.046875 17.390625 23.09375 
L 17.390625 6.6875 
Q 17.390625 3.515625 27.09375 3.515625 
L 27.09375 0 
z
" id="Cmr10-114"/>
      <path d="M 24.90625 -1.125 
Q 18.796875 -1.125 13.6875 2.078125 
Q 8.59375 5.28125 5.6875 10.625 
Q 2.78125 15.96875 2.78125 21.921875 
Q 2.78125 27.78125 5.4375 33.046875 
Q 8.109375 38.328125 12.859375 41.578125 
Q 17.625 44.828125 23.484375 44.828125 
Q 28.078125 44.828125 31.46875 43.28125 
Q 34.859375 41.75 37.0625 39.015625 
Q 39.265625 36.28125 40.375 32.5625 
Q 41.5 28.859375 41.5 24.421875 
Q 41.5 23.09375 40.484375 23.09375 
L 11.53125 23.09375 
L 11.53125 22.015625 
Q 11.53125 13.71875 14.875 7.765625 
Q 18.21875 1.8125 25.78125 1.8125 
Q 28.859375 1.8125 31.46875 3.171875 
Q 34.078125 4.546875 36 6.984375 
Q 37.9375 9.421875 38.625 12.203125 
Q 38.71875 12.546875 38.984375 12.8125 
Q 39.265625 13.09375 39.59375 13.09375 
L 40.484375 13.09375 
Q 41.5 13.09375 41.5 11.8125 
Q 40.09375 6.15625 35.40625 2.515625 
Q 30.71875 -1.125 24.90625 -1.125 
z
M 11.625 25.59375 
L 34.421875 25.59375 
Q 34.421875 29.34375 33.375 33.203125 
Q 32.328125 37.0625 29.875 39.625 
Q 27.4375 42.1875 23.484375 42.1875 
Q 17.828125 42.1875 14.71875 36.890625 
Q 11.625 31.59375 11.625 25.59375 
z
" id="Cmr10-101"/>
     </defs>
     <use transform="translate(0 0.6875)" xlink:href="#Cmr10-111"/>
     <use transform="translate(50 0.6875)" xlink:href="#Cmr10-114"/>
     <use transform="translate(89.111328 0.6875)" xlink:href="#Cmr10-97"/>
     <use transform="translate(139.111328 0.6875)" xlink:href="#Cmr10-110"/>
     <use transform="translate(194.628906 0.6875)" xlink:href="#Cmr10-103"/>
     <use transform="translate(244.628906 0.6875)" xlink:href="#Cmr10-101"/>
    </g>
   </g>
   <g id="text_22">
    <g id="patch_33">
     <path d="M 92.32 232.758486 
L 138.34 232.758486 
Q 142.24 232.758486 142.24 228.858486 
L 142.24 216.276923 
Q 142.24 212.376923 138.34 212.376923 
L 92.32 212.376923 
Q 88.42 212.376923 88.42 216.276923 
L 88.42 228.858486 
Q 88.42 232.758486 92.32 232.758486 
z
" style="fill:none;"/>
    </g>
    <!--    $o_{6257}$   -->
    <g transform="translate(92.32 226.154892)scale(0.13 -0.13)">
     <defs>
      <path d="M 17.390625 2.59375 
Q 17.390625 8.15625 18.359375 13.46875 
Q 19.34375 18.796875 21.21875 24 
Q 23.09375 29.203125 25.75 34.203125 
Q 28.421875 39.203125 31.59375 43.609375 
L 40.71875 56.296875 
L 29.296875 56.296875 
Q 11.53125 56.296875 10.984375 55.8125 
Q 9.671875 54.203125 8.5 46.578125 
L 5.609375 46.578125 
L 8.890625 67.578125 
L 11.8125 67.578125 
L 11.8125 67.28125 
Q 11.8125 65.484375 17.921875 64.9375 
Q 24.03125 64.40625 29.890625 64.40625 
L 48.484375 64.40625 
L 48.484375 61.8125 
Q 48.484375 61.71875 48.453125 61.671875 
Q 48.4375 61.625 48.390625 61.53125 
L 34.625 42.1875 
Q 29.546875 34.671875 28.265625 25.484375 
Q 27 16.3125 27 2.59375 
Q 27 0.640625 25.578125 -0.78125 
Q 24.171875 -2.203125 22.21875 -2.203125 
Q 20.21875 -2.203125 18.796875 -0.78125 
Q 17.390625 0.640625 17.390625 2.59375 
z
" id="Cmr10-55"/>
     </defs>
     <use transform="translate(0 0.8125)" xlink:href="#DejaVuSans-32"/>
     <use transform="translate(31.787109 0.8125)" xlink:href="#DejaVuSans-32"/>
     <use transform="translate(63.574219 0.8125)" xlink:href="#DejaVuSans-32"/>
     <use transform="translate(95.361328 0.8125)" xlink:href="#Cmmi10-111"/>
     <use transform="translate(143.75 -16.19375)scale(0.7)" xlink:href="#Cmr10-54"/>
     <use transform="translate(178.75 -16.19375)scale(0.7)" xlink:href="#Cmr10-50"/>
     <use transform="translate(213.75 -16.19375)scale(0.7)" xlink:href="#Cmr10-53"/>
     <use transform="translate(248.75 -16.19375)scale(0.7)" xlink:href="#Cmr10-55"/>
     <use transform="translate(290.127344 0.8125)" xlink:href="#DejaVuSans-32"/>
     <use transform="translate(321.914453 0.8125)" xlink:href="#DejaVuSans-32"/>
    </g>
   </g>
   <g id="text_23">
    <g id="patch_34">
     <path d="M 174.97 232.758486 
L 234.25 232.758486 
Q 238.15 232.758486 238.15 228.858486 
L 238.15 216.276923 
Q 238.15 212.376923 234.25 212.376923 
L 174.97 212.376923 
Q 171.07 212.376923 171.07 216.276923 
L 171.07 228.858486 
Q 171.07 232.758486 174.97 232.758486 
z
" style="fill:none;"/>
    </g>
    <!--       $E$       -->
    <g transform="translate(174.97 226.154892)scale(0.13 -0.13)">
     <use transform="translate(0 0.6875)" xlink:href="#DejaVuSans-32"/>
     <use transform="translate(31.787109 0.6875)" xlink:href="#DejaVuSans-32"/>
     <use transform="translate(63.574219 0.6875)" xlink:href="#DejaVuSans-32"/>
     <use transform="translate(95.361328 0.6875)" xlink:href="#DejaVuSans-32"/>
     <use transform="translate(127.148438 0.6875)" xlink:href="#DejaVuSans-32"/>
     <use transform="translate(158.935547 0.6875)" xlink:href="#DejaVuSans-32"/>
     <use transform="translate(190.722656 0.6875)" xlink:href="#Cmmi10-69"/>
     <use transform="translate(264.501953 0.6875)" xlink:href="#DejaVuSans-32"/>
     <use transform="translate(296.289062 0.6875)" xlink:href="#DejaVuSans-32"/>
     <use transform="translate(328.076172 0.6875)" xlink:href="#DejaVuSans-32"/>
     <use transform="translate(359.863281 0.6875)" xlink:href="#DejaVuSans-32"/>
     <use transform="translate(391.650391 0.6875)" xlink:href="#DejaVuSans-32"/>
     <use transform="translate(423.4375 0.6875)" xlink:href="#DejaVuSans-32"/>
    </g>
   </g>
   <g id="patch_35">
    <path d="M 167.949492 222.567704 
Q 156.654228 222.567704 144.24093 222.567704 
" style="fill:none;stroke:#000000;stroke-linecap:round;"/>
    <path d="M 162.749492 219.967704 
L 167.949492 222.567704 
L 162.749492 225.167704 
" style="fill:none;stroke:#000000;stroke-linecap:round;"/>
   </g>
   <g id="text_24">
    <g id="patch_36">
     <path d="M 271.01 232.758486 
L 316.77 232.758486 
Q 320.67 232.758486 320.67 228.858486 
L 320.67 216.276923 
Q 320.67 212.376923 316.77 212.376923 
L 271.01 212.376923 
Q 267.11 212.376923 267.11 216.276923 
L 267.11 228.858486 
Q 267.11 232.758486 271.01 232.758486 
z
" style="fill:none;"/>
    </g>
    <!--    $e_{6257}$   -->
    <g transform="translate(271.01 226.154892)scale(0.13 -0.13)">
     <use transform="translate(0 0.8125)" xlink:href="#DejaVuSans-32"/>
     <use transform="translate(31.787109 0.8125)" xlink:href="#DejaVuSans-32"/>
     <use transform="translate(63.574219 0.8125)" xlink:href="#DejaVuSans-32"/>
     <use transform="translate(95.361328 0.8125)" xlink:href="#Cmmi10-101"/>
     <use transform="translate(141.845703 -16.19375)scale(0.7)" xlink:href="#Cmr10-54"/>
     <use transform="translate(176.845703 -16.19375)scale(0.7)" xlink:href="#Cmr10-50"/>
     <use transform="translate(211.845703 -16.19375)scale(0.7)" xlink:href="#Cmr10-53"/>
     <use transform="translate(246.845703 -16.19375)scale(0.7)" xlink:href="#Cmr10-55"/>
     <use transform="translate(288.223047 0.8125)" xlink:href="#DejaVuSans-32"/>
     <use transform="translate(320.010156 0.8125)" xlink:href="#DejaVuSans-32"/>
    </g>
   </g>
   <g id="patch_37">
    <path d="M 263.994603 222.567704 
Q 252.630239 222.567704 240.147842 222.567704 
" style="fill:none;stroke:#000000;stroke-linecap:round;"/>
    <path d="M 258.794603 219.967704 
L 263.994603 222.567704 
L 258.794603 225.167704 
" style="fill:none;stroke:#000000;stroke-linecap:round;"/>
   </g>
   <g id="text_25">
    <g id="patch_38">
     <path d="M 370.17 159.155758 
L 396.17 159.155758 
L 396.17 76.902727 
L 370.17 76.902727 
z
" style="fill:none;stroke:#000000;stroke-linejoin:miter;"/>
    </g>
    <!--  -->
    <g transform="translate(383.17 99.780696)scale(0.13 -0.13)"/>
    <!--  -->
    <g transform="translate(383.17 114.337852)scale(0.13 -0.13)"/>
    <!--  -->
    <g transform="translate(383.17 128.895008)scale(0.13 -0.13)"/>
    <!--  -->
    <g transform="translate(383.17 143.452165)scale(0.13 -0.13)"/>
   </g>
   <g id="patch_39">
    <path d="M 367.294915 116.829055 
Q 345.128912 107.575986 321.931162 97.89222 
" style="fill:none;stroke:#000000;stroke-linecap:round;"/>
    <path d="M 363.49783 112.42654 
L 367.294915 116.829055 
L 361.494652 117.225214 
" style="fill:none;stroke:#000000;stroke-linecap:round;"/>
   </g>
   <g id="patch_40">
    <path d="M 368.835007 115.209887 
Q 345.420012 65.760037 321.526546 15.29971 
" style="fill:none;stroke:#000000;stroke-linecap:round;"/>
    <path d="M 368.959504 109.397444 
L 368.835007 115.209887 
L 364.25975 111.622824 
" style="fill:none;stroke:#000000;stroke-linecap:round;"/>
   </g>
   <g id="patch_41">
    <path d="M 368.235644 115.578157 
Q 345.419153 86.666631 321.910035 56.877455 
" style="fill:none;stroke:#000000;stroke-linecap:round;"/>
    <path d="M 367.055208 109.88548 
L 368.235644 115.578157 
L 362.973241 113.1069 
" style="fill:none;stroke:#000000;stroke-linecap:round;"/>
   </g>
   <g id="patch_42">
    <path d="M 367.294915 116.829055 
Q 345.128912 107.575986 321.931162 97.89222 
" style="fill:none;stroke:#000000;stroke-linecap:round;"/>
    <path d="M 363.49783 112.42654 
L 367.294915 116.829055 
L 361.494652 117.225214 
" style="fill:none;stroke:#000000;stroke-linecap:round;"/>
   </g>
   <g id="patch_43">
    <path d="M 367.300134 119.24141 
Q 345.420712 128.482788 322.511359 138.159186 
" style="fill:none;stroke:#000000;stroke-linecap:round;"/>
    <path d="M 361.49826 118.869581 
L 367.300134 119.24141 
L 363.521546 123.659812 
" style="fill:none;stroke:#000000;stroke-linecap:round;"/>
   </g>
   <g id="patch_44">
    <path d="M 368.235644 120.480329 
Q 345.419153 149.391855 321.910035 179.181031 
" style="fill:none;stroke:#000000;stroke-linecap:round;"/>
    <path d="M 362.973241 122.951586 
L 368.235644 120.480329 
L 367.055208 126.173006 
" style="fill:none;stroke:#000000;stroke-linecap:round;"/>
   </g>
   <g id="patch_45">
    <path d="M 368.835007 120.848598 
Q 345.420012 170.298448 321.526546 220.758776 
" style="fill:none;stroke:#000000;stroke-linecap:round;"/>
    <path d="M 364.25975 124.435662 
L 368.835007 120.848598 
L 368.959504 126.661042 
" style="fill:none;stroke:#000000;stroke-linecap:round;"/>
   </g>
   <g id="text_26">
    <g id="patch_46">
     <path d="M 454.594 128.220024 
C 457.296627 128.220024 459.888925 127.146259 461.799971 125.235213 
C 463.711016 123.324168 464.784781 120.73187 464.784781 118.029243 
C 464.784781 115.326616 463.711016 112.734318 461.799971 110.823272 
C 459.888925 108.912227 457.296627 107.838462 454.594 107.838462 
C 451.891373 107.838462 449.299075 108.912227 447.388029 110.823272 
C 445.476984 112.734318 444.403219 115.326616 444.403219 118.029243 
C 444.403219 120.73187 445.476984 123.324168 447.388029 125.235213 
C 449.299075 127.146259 451.891373 128.220024 454.594 128.220024 
z
" style="fill:none;stroke:#000000;stroke-linejoin:miter;"/>
    </g>
    <!--   -->
    <g transform="translate(452.528219 121.61643)scale(0.13 -0.13)">
     <use xlink:href="#DejaVuSans-32"/>
    </g>
   </g>
   <g id="patch_47">
    <path d="M 441.286262 118.029243 
Q 420.287518 118.029243 398.170739 118.029243 
" style="fill:none;stroke:#000000;stroke-linecap:round;"/>
    <path d="M 436.086262 115.429243 
L 441.286262 118.029243 
L 436.086262 120.629243 
" style="fill:none;stroke:#000000;stroke-linecap:round;"/>
   </g>
   <g id="text_27">
    <g id="patch_48">
     <path d="M 359.38 191.86732 
L 406.96 191.86732 
Q 410.86 191.86732 410.86 187.96732 
L 410.86 173.53732 
Q 410.86 169.63732 406.96 169.63732 
L 359.38 169.63732 
Q 355.48 169.63732 355.48 173.53732 
L 355.48 187.96732 
Q 355.48 191.86732 359.38 191.86732 
z
" style="fill:none;"/>
    </g>
    <!-- $W^{[1]}, b^{[1]}$ -->
    <g transform="translate(359.38 185.263726)scale(0.13 -0.13)">
     <defs>
      <path d="M 17.828125 -1.125 
L 13.1875 62.59375 
Q 12.84375 64.0625 10.984375 64.421875 
Q 9.125 64.796875 6.390625 64.796875 
Q 5.421875 64.796875 5.421875 66.109375 
Q 5.765625 67.390625 5.953125 67.84375 
Q 6.15625 68.3125 7.078125 68.3125 
L 30.90625 68.3125 
Q 31.890625 68.3125 31.890625 67 
Q 31.5 64.796875 30.609375 64.796875 
Q 22.609375 64.796875 22.125 62.015625 
L 25.6875 11.53125 
L 50.6875 55.078125 
L 50.203125 62.59375 
Q 49.859375 64.0625 48 64.421875 
Q 46.140625 64.796875 43.40625 64.796875 
Q 42.390625 64.796875 42.390625 66.109375 
Q 42.71875 67.390625 42.90625 67.84375 
Q 43.109375 68.3125 44.09375 68.3125 
L 67.921875 68.3125 
Q 68.890625 68.3125 68.890625 67 
Q 68.84375 66.75 68.703125 66.15625 
Q 68.5625 65.578125 68.3125 65.1875 
Q 68.0625 64.796875 67.578125 64.796875 
Q 59.515625 64.796875 59.078125 62.015625 
L 59.078125 61.28125 
L 62.703125 11.53125 
L 89.890625 58.984375 
Q 90.484375 60.0625 90.484375 61.078125 
Q 90.484375 63.140625 88.46875 63.96875 
Q 86.46875 64.796875 83.984375 64.796875 
Q 83.015625 64.796875 83.015625 66.109375 
Q 83.203125 66.890625 83.328125 67.328125 
Q 83.453125 67.78125 83.765625 68.046875 
Q 84.078125 68.3125 84.71875 68.3125 
L 103.8125 68.3125 
Q 104.78125 68.3125 104.78125 67 
Q 104.734375 66.75 104.578125 66.140625 
Q 104.4375 65.53125 104.171875 65.15625 
Q 103.90625 64.796875 103.515625 64.796875 
Q 96.390625 64.796875 92.671875 58.296875 
Q 92.390625 58.015625 92.390625 58.015625 
L 58.5 -1.125 
Q 57.953125 -2.203125 56.78125 -2.203125 
L 56 -2.203125 
Q 54.78125 -2.203125 54.78125 -1.125 
L 50.984375 50.390625 
L 21.578125 -1.125 
Q 20.84375 -2.203125 19.828125 -2.203125 
L 19 -2.203125 
Q 17.828125 -2.203125 17.828125 -1.125 
z
" id="Cmmi10-87"/>
      <path d="M 11.8125 -25 
L 11.8125 75 
L 25.484375 75 
L 25.484375 71 
L 15.828125 71 
L 15.828125 -21 
L 25.484375 -21 
L 25.484375 -25 
z
" id="Cmr10-91"/>
      <path d="M 2.203125 -25 
L 2.203125 -21 
L 11.921875 -21 
L 11.921875 71 
L 2.203125 71 
L 2.203125 75 
L 15.921875 75 
L 15.921875 -25 
z
" id="Cmr10-93"/>
      <path d="M 9.90625 -18.015625 
Q 9.90625 -17.578125 10.296875 -17.1875 
Q 13.921875 -13.71875 15.921875 -9.171875 
Q 17.921875 -4.640625 17.921875 0.390625 
L 17.921875 1.609375 
Q 16.3125 0 13.921875 0 
Q 11.625 0 10.015625 1.609375 
Q 8.40625 3.21875 8.40625 5.515625 
Q 8.40625 7.859375 10.015625 9.421875 
Q 11.625 10.984375 13.921875 10.984375 
Q 17.484375 10.984375 19 7.6875 
Q 20.515625 4.390625 20.515625 0.390625 
Q 20.515625 -5.171875 18.28125 -10.171875 
Q 16.0625 -15.1875 12.015625 -19.1875 
Q 11.625 -19.390625 11.375 -19.390625 
Q 10.890625 -19.390625 10.390625 -18.9375 
Q 9.90625 -18.5 9.90625 -18.015625 
z
" id="Cmmi10-59"/>
      <path d="M 17.28125 -1.125 
Q 11.234375 -1.125 7.859375 3.609375 
Q 4.5 8.34375 4.5 14.703125 
Q 4.5 15.625 4.953125 18.328125 
Q 5.421875 21.046875 5.421875 21.6875 
L 15.09375 60.5 
Q 15.484375 62.203125 15.578125 63.1875 
Q 15.578125 64.796875 9.078125 64.796875 
Q 8.109375 64.796875 8.109375 66.109375 
Q 8.15625 66.359375 8.328125 66.984375 
Q 8.5 67.625 8.765625 67.96875 
Q 9.03125 68.3125 9.515625 68.3125 
L 23 69.390625 
Q 24.21875 69.390625 24.21875 68.109375 
L 16.796875 38.625 
Q 22.46875 44.1875 28.21875 44.1875 
Q 32.46875 44.1875 35.515625 41.9375 
Q 38.578125 39.703125 40.09375 36.03125 
Q 41.609375 32.375 41.609375 28.21875 
Q 41.609375 23.390625 39.71875 18.234375 
Q 37.84375 13.09375 34.515625 8.671875 
Q 31.203125 4.25 26.75 1.5625 
Q 22.3125 -1.125 17.28125 -1.125 
z
M 17.484375 1.515625 
Q 20.90625 1.515625 23.875 4.375 
Q 26.859375 7.234375 28.71875 10.796875 
Q 30.71875 14.796875 32.453125 21.65625 
Q 34.1875 28.515625 34.1875 32.625 
Q 34.1875 36.1875 32.6875 38.890625 
Q 31.203125 41.609375 27.984375 41.609375 
Q 24.359375 41.609375 21.0625 38.9375 
Q 17.78125 36.28125 15.28125 32.625 
L 12.5 21.296875 
Q 10.890625 14.984375 10.796875 11.1875 
Q 10.796875 7.421875 12.421875 4.46875 
Q 14.0625 1.515625 17.484375 1.515625 
z
" id="Cmmi10-98"/>
     </defs>
     <use transform="translate(0 0.235938)" xlink:href="#Cmmi10-87"/>
     <use transform="translate(105.754297 38.5)scale(0.7)" xlink:href="#Cmr10-91"/>
     <use transform="translate(125.13418 38.5)scale(0.7)" xlink:href="#Cmr10-49"/>
     <use transform="translate(160.13418 38.5)scale(0.7)" xlink:href="#Cmr10-93"/>
     <use transform="translate(185.891406 0.235938)" xlink:href="#Cmmi10-59"/>
     <use transform="translate(231.135547 0.235938)" xlink:href="#Cmmi10-98"/>
     <use transform="translate(285.651406 38.5)scale(0.7)" xlink:href="#Cmr10-91"/>
     <use transform="translate(305.031289 38.5)scale(0.7)" xlink:href="#Cmr10-49"/>
     <use transform="translate(340.031289 38.5)scale(0.7)" xlink:href="#Cmr10-93"/>
    </g>
   </g>
   <g id="text_28">
    <g id="patch_49">
     <path d="M 430.804 191.86732 
L 478.384 191.86732 
Q 482.284 191.86732 482.284 187.96732 
L 482.284 173.53732 
Q 482.284 169.63732 478.384 169.63732 
L 430.804 169.63732 
Q 426.904 169.63732 426.904 173.53732 
L 426.904 187.96732 
Q 426.904 191.86732 430.804 191.86732 
z
" style="fill:none;"/>
    </g>
    <!-- $W^{[2]}, b^{[2]}$ -->
    <g transform="translate(430.804 185.263726)scale(0.13 -0.13)">
     <use transform="translate(0 0.235938)" xlink:href="#Cmmi10-87"/>
     <use transform="translate(105.754297 38.5)scale(0.7)" xlink:href="#Cmr10-91"/>
     <use transform="translate(125.13418 38.5)scale(0.7)" xlink:href="#Cmr10-50"/>
     <use transform="translate(160.13418 38.5)scale(0.7)" xlink:href="#Cmr10-93"/>
     <use transform="translate(185.891406 0.235938)" xlink:href="#Cmmi10-59"/>
     <use transform="translate(231.135547 0.235938)" xlink:href="#Cmmi10-98"/>
     <use transform="translate(285.651406 38.5)scale(0.7)" xlink:href="#Cmr10-91"/>
     <use transform="translate(305.031289 38.5)scale(0.7)" xlink:href="#Cmr10-50"/>
     <use transform="translate(340.031289 38.5)scale(0.7)" xlink:href="#Cmr10-93"/>
    </g>
   </g>
  </g>
 </g>
</svg>
