<?xml version="1.0" encoding="utf-8" standalone="no"?>
<!DOCTYPE svg PUBLIC "-//W3C//DTD SVG 1.1//EN"
  "http://www.w3.org/Graphics/SVG/1.1/DTD/svg11.dtd">
<!-- Created with matplotlib (https://matplotlib.org/) -->
<svg height="154.387812pt" version="1.1" viewBox="0 0 477.077358 154.387812" width="477.077358pt" xmlns="http://www.w3.org/2000/svg" xmlns:xlink="http://www.w3.org/1999/xlink">
 <metadata>
  <rdf:RDF xmlns:cc="http://creativecommons.org/ns#" xmlns:dc="http://purl.org/dc/elements/1.1/" xmlns:rdf="http://www.w3.org/1999/02/22-rdf-syntax-ns#">
   <cc:Work>
    <dc:type rdf:resource="http://purl.org/dc/dcmitype/StillImage"/>
    <dc:date>2021-05-31T11:56:13.691788</dc:date>
    <dc:format>image/svg+xml</dc:format>
    <dc:creator>
     <cc:Agent>
      <dc:title>Matplotlib v3.3.4, https://matplotlib.org/</dc:title>
     </cc:Agent>
    </dc:creator>
   </cc:Work>
  </rdf:RDF>
 </metadata>
 <defs>
  <style type="text/css">*{stroke-linecap:butt;stroke-linejoin:round;}</style>
 </defs>
 <g id="figure_1">
  <g id="patch_1">
   <path d="M 0 154.387812 
L 477.077358 154.387812 
L 477.077358 0 
L 0 0 
z
" style="fill:none;"/>
  </g>
  <g id="axes_1">
   <g id="text_1">
    <g id="patch_2">
     <path d="M 20.655 23.681563 
L 43.145 23.681563 
Q 47.045 23.681563 47.045 19.781563 
L 47.045 7.2 
Q 47.045 3.3 43.145 3.3 
L 20.655 3.3 
Q 16.755 3.3 16.755 7.2 
L 16.755 19.781563 
Q 16.755 23.681563 20.655 23.681563 
z
" style="fill:none;"/>
    </g>
    <!-- $\mathrm{The}$ -->
    <g transform="translate(20.655 17.077969)scale(0.13 -0.13)">
     <defs>
      <path d="M 16.890625 0 
L 16.890625 3.515625 
Q 21.921875 3.515625 26.65625 4.078125 
Q 31.390625 4.640625 31.390625 6.6875 
L 31.390625 61.625 
Q 31.390625 63.765625 30.1875 64.28125 
Q 29 64.796875 26.3125 64.796875 
L 22.125 64.796875 
Q 13.875 64.796875 10.40625 61.1875 
Q 8.59375 59.375 7.8125 55.390625 
Q 7.03125 51.421875 6.5 45.40625 
L 3.609375 45.40625 
L 5.515625 68.3125 
L 66.609375 68.3125 
L 68.5 45.40625 
L 65.578125 45.40625 
Q 64.984375 51.859375 64.28125 55.640625 
Q 63.578125 59.421875 61.71875 61.1875 
Q 58.203125 64.796875 50 64.796875 
L 45.796875 64.796875 
Q 44 64.796875 43 64.640625 
Q 42 64.5 41.359375 63.796875 
Q 40.71875 63.09375 40.71875 61.625 
L 40.71875 6.6875 
Q 40.71875 4.640625 45.453125 4.078125 
Q 50.203125 3.515625 55.171875 3.515625 
L 55.171875 0 
z
" id="Cmr10-84"/>
      <path d="M 2.984375 0 
L 2.984375 3.515625 
Q 6.390625 3.515625 8.59375 4.046875 
Q 10.796875 4.59375 10.796875 6.6875 
L 10.796875 59.1875 
Q 10.796875 61.859375 9.984375 63.0625 
Q 9.1875 64.265625 7.671875 64.53125 
Q 6.15625 64.796875 2.984375 64.796875 
L 2.984375 68.3125 
L 17.828125 69.390625 
L 17.828125 35.015625 
Q 19.921875 39.15625 23.671875 41.671875 
Q 27.4375 44.1875 31.984375 44.1875 
Q 38.921875 44.1875 42.40625 40.859375 
Q 45.90625 37.546875 45.90625 30.71875 
L 45.90625 6.6875 
Q 45.90625 4.59375 48.09375 4.046875 
Q 50.296875 3.515625 53.71875 3.515625 
L 53.71875 0 
L 30.8125 0 
L 30.8125 3.515625 
Q 34.234375 3.515625 36.421875 4.046875 
Q 38.625 4.59375 38.625 6.6875 
L 38.625 30.421875 
Q 38.625 35.296875 37.203125 38.453125 
Q 35.796875 41.609375 31.390625 41.609375 
Q 25.59375 41.609375 21.84375 36.96875 
Q 18.109375 32.328125 18.109375 26.421875 
L 18.109375 6.6875 
Q 18.109375 4.59375 20.3125 4.046875 
Q 22.515625 3.515625 25.875 3.515625 
L 25.875 0 
z
" id="Cmr10-104"/>
      <path d="M 24.90625 -1.125 
Q 18.796875 -1.125 13.6875 2.078125 
Q 8.59375 5.28125 5.6875 10.625 
Q 2.78125 15.96875 2.78125 21.921875 
Q 2.78125 27.78125 5.4375 33.046875 
Q 8.109375 38.328125 12.859375 41.578125 
Q 17.625 44.828125 23.484375 44.828125 
Q 28.078125 44.828125 31.46875 43.28125 
Q 34.859375 41.75 37.0625 39.015625 
Q 39.265625 36.28125 40.375 32.5625 
Q 41.5 28.859375 41.5 24.421875 
Q 41.5 23.09375 40.484375 23.09375 
L 11.53125 23.09375 
L 11.53125 22.015625 
Q 11.53125 13.71875 14.875 7.765625 
Q 18.21875 1.8125 25.78125 1.8125 
Q 28.859375 1.8125 31.46875 3.171875 
Q 34.078125 4.546875 36 6.984375 
Q 37.9375 9.421875 38.625 12.203125 
Q 38.71875 12.546875 38.984375 12.8125 
Q 39.265625 13.09375 39.59375 13.09375 
L 40.484375 13.09375 
Q 41.5 13.09375 41.5 11.8125 
Q 40.09375 6.15625 35.40625 2.515625 
Q 30.71875 -1.125 24.90625 -1.125 
z
M 11.625 25.59375 
L 34.421875 25.59375 
Q 34.421875 29.34375 33.375 33.203125 
Q 32.328125 37.0625 29.875 39.625 
Q 27.4375 42.1875 23.484375 42.1875 
Q 17.828125 42.1875 14.71875 36.890625 
Q 11.625 31.59375 11.625 25.59375 
z
" id="Cmr10-101"/>
     </defs>
     <use transform="translate(0 0.609375)" xlink:href="#Cmr10-84"/>
     <use transform="translate(72.216797 0.609375)" xlink:href="#Cmr10-104"/>
     <use transform="translate(127.734375 0.609375)" xlink:href="#Cmr10-101"/>
    </g>
   </g>
   <g id="text_2">
    <g id="patch_3">
     <path d="M 93.116415 23.681563 
L 139.136415 23.681563 
Q 143.036415 23.681563 143.036415 19.781563 
L 143.036415 7.2 
Q 143.036415 3.3 139.136415 3.3 
L 93.116415 3.3 
Q 89.216415 3.3 89.216415 7.2 
L 89.216415 19.781563 
Q 89.216415 23.681563 93.116415 23.681563 
z
" style="fill:none;"/>
    </g>
    <!--    $o_{8928}$   -->
    <g transform="translate(93.116415 17.077969)scale(0.13 -0.13)">
     <defs>
      <path id="DejaVuSans-32"/>
      <path d="M 20.125 -1.125 
Q 15.375 -1.125 11.6875 1.125 
Q 8.015625 3.375 6 7.171875 
Q 4 10.984375 4 15.828125 
Q 4 22.609375 7.78125 29.25 
Q 11.578125 35.890625 17.84375 40.03125 
Q 24.125 44.1875 31 44.1875 
Q 34.71875 44.1875 37.625 42.921875 
Q 40.53125 41.65625 42.671875 39.359375 
Q 44.828125 37.0625 45.96875 33.984375 
Q 47.125 30.90625 47.125 27.296875 
Q 47.125 22.078125 44.921875 17.015625 
Q 42.71875 11.96875 38.890625 7.84375 
Q 35.0625 3.71875 30.125 1.296875 
Q 25.203125 -1.125 20.125 -1.125 
z
M 20.3125 1.515625 
Q 24.75 1.515625 28.4375 4.53125 
Q 32.125 7.5625 34.484375 12.171875 
Q 36.859375 16.796875 38.125 21.921875 
Q 39.40625 27.046875 39.40625 31.203125 
Q 39.40625 35.546875 37.234375 38.578125 
Q 35.0625 41.609375 30.8125 41.609375 
Q 24.953125 41.609375 20.546875 36.59375 
Q 16.15625 31.59375 13.9375 24.625 
Q 11.71875 17.671875 11.71875 11.921875 
Q 11.71875 7.5625 13.9375 4.53125 
Q 16.15625 1.515625 20.3125 1.515625 
z
" id="Cmmi10-111"/>
      <path d="M 4.203125 15.1875 
Q 4.203125 21.1875 8.15625 25.796875 
Q 12.109375 30.421875 18.3125 33.5 
L 14.59375 35.890625 
Q 11.1875 38.140625 9.03125 41.875 
Q 6.890625 45.609375 6.890625 49.703125 
Q 6.890625 54.5 9.40625 58.34375 
Q 11.921875 62.203125 16.09375 64.40625 
Q 20.265625 66.609375 25 66.609375 
Q 29.4375 66.609375 33.5625 64.796875 
Q 37.703125 62.984375 40.359375 59.609375 
Q 43.015625 56.25 43.015625 51.609375 
Q 43.015625 48.25 41.421875 45.359375 
Q 39.84375 42.484375 37.078125 40.1875 
Q 34.328125 37.890625 31.203125 36.28125 
L 36.921875 32.625 
Q 40.875 30.03125 43.28125 25.828125 
Q 45.703125 21.625 45.703125 17 
Q 45.703125 11.578125 42.796875 7.125 
Q 39.890625 2.6875 35.109375 0.234375 
Q 30.328125 -2.203125 25 -2.203125 
Q 19.828125 -2.203125 15.015625 -0.09375 
Q 10.203125 2 7.203125 5.984375 
Q 4.203125 9.96875 4.203125 15.1875 
z
M 9.625 15.1875 
Q 9.625 11.234375 11.796875 7.953125 
Q 13.96875 4.6875 17.53125 2.828125 
Q 21.09375 0.984375 25 0.984375 
Q 30.8125 0.984375 35.546875 4.375 
Q 40.28125 7.765625 40.28125 13.375 
Q 40.28125 15.28125 39.515625 17.15625 
Q 38.765625 19.046875 37.421875 20.578125 
Q 36.078125 22.125 34.421875 23.09375 
L 21 31.78125 
Q 17.875 30.125 15.25 27.578125 
Q 12.640625 25.046875 11.125 21.875 
Q 9.625 18.703125 9.625 15.1875 
z
M 16.5 45.703125 
L 28.609375 37.890625 
Q 32.8125 40.328125 35.5 43.796875 
Q 38.1875 47.265625 38.1875 51.609375 
Q 38.1875 54.984375 36.296875 57.78125 
Q 34.421875 60.59375 31.390625 62.15625 
Q 28.375 63.71875 24.90625 63.71875 
Q 21.875 63.71875 18.796875 62.546875 
Q 15.71875 61.375 13.71875 59.046875 
Q 11.71875 56.734375 11.71875 53.609375 
Q 11.71875 48.921875 16.5 45.703125 
z
" id="Cmr10-56"/>
      <path d="M 11.28125 4.203125 
Q 14.015625 0.984375 20.796875 0.984375 
Q 24.609375 0.984375 27.90625 3.5625 
Q 31.203125 6.15625 33.015625 9.90625 
Q 35.109375 14.15625 35.6875 18.96875 
Q 36.28125 23.78125 36.28125 30.90625 
Q 34.578125 26.859375 31.375 24.265625 
Q 28.171875 21.6875 24.03125 21.6875 
Q 18.21875 21.6875 13.640625 24.828125 
Q 9.078125 27.984375 6.640625 33.125 
Q 4.203125 38.28125 4.203125 44.09375 
Q 4.203125 50.09375 6.9375 55.296875 
Q 9.671875 60.5 14.5 63.546875 
Q 19.34375 66.609375 25.484375 66.609375 
Q 31.546875 66.609375 35.625 63.3125 
Q 39.703125 60.015625 41.84375 54.8125 
Q 44 49.609375 44.84375 43.796875 
Q 45.703125 37.984375 45.703125 32.328125 
Q 45.703125 24.609375 42.875 16.578125 
Q 40.046875 8.546875 34.40625 3.171875 
Q 28.765625 -2.203125 20.796875 -2.203125 
Q 14.890625 -2.203125 10.78125 0.578125 
Q 6.6875 3.375 6.6875 8.984375 
Q 6.6875 11.03125 8.078125 12.421875 
Q 9.46875 13.8125 11.53125 13.8125 
Q 13.53125 13.8125 14.921875 12.421875 
Q 16.3125 11.03125 16.3125 8.984375 
Q 16.3125 7.03125 14.890625 5.609375 
Q 13.484375 4.203125 11.53125 4.203125 
z
M 24.421875 24.3125 
Q 28.515625 24.3125 31.125 27.0625 
Q 33.734375 29.828125 34.90625 33.921875 
Q 36.078125 38.03125 36.078125 42.09375 
L 36.078125 44 
L 36.078125 44.390625 
Q 36.078125 51.90625 33.875 57.8125 
Q 31.6875 63.71875 25.484375 63.71875 
Q 21.53125 63.71875 19.0625 61.984375 
Q 16.609375 60.25 15.4375 57.375 
Q 14.265625 54.5 13.9375 51.21875 
Q 13.625 47.953125 13.625 44.09375 
Q 13.625 38.421875 14.15625 34.421875 
Q 14.703125 30.421875 17.09375 27.359375 
Q 19.484375 24.3125 24.421875 24.3125 
z
" id="Cmr10-57"/>
      <path d="M 4.984375 0 
L 4.984375 2.6875 
Q 4.984375 2.9375 5.171875 3.21875 
L 20.703125 20.40625 
Q 24.21875 24.21875 26.40625 26.796875 
Q 28.609375 29.390625 30.75 32.765625 
Q 32.90625 36.140625 34.15625 39.625 
Q 35.40625 43.109375 35.40625 47.015625 
Q 35.40625 51.125 33.890625 54.859375 
Q 32.375 58.59375 29.375 60.84375 
Q 26.375 63.09375 22.125 63.09375 
Q 17.78125 63.09375 14.3125 60.46875 
Q 10.84375 57.859375 9.421875 53.71875 
Q 9.8125 53.8125 10.5 53.8125 
Q 12.75 53.8125 14.328125 52.296875 
Q 15.921875 50.78125 15.921875 48.390625 
Q 15.921875 46.09375 14.328125 44.5 
Q 12.75 42.921875 10.5 42.921875 
Q 8.15625 42.921875 6.5625 44.546875 
Q 4.984375 46.1875 4.984375 48.390625 
Q 4.984375 52.15625 6.390625 55.4375 
Q 7.8125 58.734375 10.46875 61.296875 
Q 13.140625 63.875 16.484375 65.234375 
Q 19.828125 66.609375 23.578125 66.609375 
Q 29.296875 66.609375 34.21875 64.1875 
Q 39.15625 61.765625 42.03125 57.34375 
Q 44.921875 52.9375 44.921875 47.015625 
Q 44.921875 42.671875 43.015625 38.765625 
Q 41.109375 34.859375 38.125 31.65625 
Q 35.15625 28.46875 30.515625 24.40625 
Q 25.875 20.359375 24.421875 19 
L 13.09375 8.109375 
L 22.703125 8.109375 
Q 29.78125 8.109375 34.546875 8.21875 
Q 39.3125 8.34375 39.59375 8.59375 
Q 40.765625 9.859375 42 17.828125 
L 44.921875 17.828125 
L 42.09375 0 
z
" id="Cmr10-50"/>
     </defs>
     <use transform="translate(0 0.8125)" xlink:href="#DejaVuSans-32"/>
     <use transform="translate(31.787109 0.8125)" xlink:href="#DejaVuSans-32"/>
     <use transform="translate(63.574219 0.8125)" xlink:href="#DejaVuSans-32"/>
     <use transform="translate(95.361328 0.8125)" xlink:href="#Cmmi10-111"/>
     <use transform="translate(143.75 -16.19375)scale(0.7)" xlink:href="#Cmr10-56"/>
     <use transform="translate(178.75 -16.19375)scale(0.7)" xlink:href="#Cmr10-57"/>
     <use transform="translate(213.75 -16.19375)scale(0.7)" xlink:href="#Cmr10-50"/>
     <use transform="translate(248.75 -16.19375)scale(0.7)" xlink:href="#Cmr10-56"/>
     <use transform="translate(290.127344 0.8125)" xlink:href="#DejaVuSans-32"/>
     <use transform="translate(321.914453 0.8125)" xlink:href="#DejaVuSans-32"/>
    </g>
   </g>
   <g id="text_3">
    <g id="patch_4">
     <path d="M 170.71283 23.681563 
L 229.99283 23.681563 
Q 233.89283 23.681563 233.89283 19.781563 
L 233.89283 7.2 
Q 233.89283 3.3 229.99283 3.3 
L 170.71283 3.3 
Q 166.81283 3.3 166.81283 7.2 
L 166.81283 19.781563 
Q 166.81283 23.681563 170.71283 23.681563 
z
" style="fill:none;"/>
    </g>
    <!--       $E$       -->
    <g transform="translate(170.71283 17.077969)scale(0.13 -0.13)">
     <defs>
      <path d="M 4.6875 0 
Q 3.71875 0 3.71875 1.3125 
Q 3.765625 1.5625 3.90625 2.171875 
Q 4.046875 2.78125 4.3125 3.140625 
Q 4.59375 3.515625 4.984375 3.515625 
Q 11.078125 3.515625 13.484375 4.203125 
Q 14.796875 4.640625 15.375 6.890625 
L 29.109375 61.8125 
Q 29.296875 62.796875 29.296875 63.1875 
Q 29.296875 64.265625 28.078125 64.40625 
Q 26.21875 64.796875 20.90625 64.796875 
Q 19.921875 64.796875 19.921875 66.109375 
Q 19.96875 66.359375 20.109375 66.96875 
Q 20.265625 67.578125 20.53125 67.9375 
Q 20.796875 68.3125 21.1875 68.3125 
L 75.390625 68.3125 
Q 76.421875 68.3125 76.421875 67 
L 74.03125 46.296875 
Q 74.03125 46.046875 73.65625 45.71875 
Q 73.296875 45.40625 73 45.40625 
L 72.125 45.40625 
Q 71.09375 45.40625 71.09375 46.6875 
Q 71.6875 51.5625 71.6875 53.90625 
Q 71.6875 57.90625 70.3125 60.125 
Q 68.953125 62.359375 66.671875 63.328125 
Q 64.40625 64.3125 61.640625 64.546875 
Q 58.890625 64.796875 54.390625 64.796875 
L 43.015625 64.796875 
Q 40.28125 64.796875 39.40625 64.328125 
Q 38.53125 63.875 37.796875 61.375 
L 31.78125 37.203125 
L 39.59375 37.203125 
Q 44.671875 37.203125 47.265625 37.90625 
Q 49.859375 38.625 51.359375 40.859375 
Q 52.875 43.109375 54.109375 48 
Q 54.203125 48.34375 54.46875 48.609375 
Q 54.734375 48.875 55.078125 48.875 
L 56 48.875 
Q 56.984375 48.875 56.984375 47.609375 
L 50.78125 22.90625 
Q 50.59375 22.015625 49.8125 22.015625 
L 48.875 22.015625 
Q 47.90625 22.015625 47.90625 23.296875 
Q 48.875 27.296875 48.875 29.203125 
Q 48.875 32.125 46.234375 32.90625 
Q 43.609375 33.6875 39.203125 33.6875 
L 30.90625 33.6875 
L 24.125 6.5 
Q 23.6875 5.28125 23.6875 4.296875 
Q 23.6875 3.515625 27.09375 3.515625 
L 39.203125 3.515625 
Q 46.4375 3.515625 50.921875 4.640625 
Q 55.421875 5.765625 58.375 8.21875 
Q 61.328125 10.6875 63.46875 14.5 
Q 65.625 18.3125 68.703125 25.59375 
Q 68.890625 26.21875 69.578125 26.21875 
L 70.515625 26.21875 
Q 70.90625 26.21875 71.1875 25.875 
Q 71.484375 25.53125 71.484375 25.09375 
Q 71.484375 24.90625 71.390625 24.703125 
L 61.078125 0.59375 
Q 60.890625 0 60.296875 0 
z
" id="Cmmi10-69"/>
     </defs>
     <use transform="translate(0 0.6875)" xlink:href="#DejaVuSans-32"/>
     <use transform="translate(31.787109 0.6875)" xlink:href="#DejaVuSans-32"/>
     <use transform="translate(63.574219 0.6875)" xlink:href="#DejaVuSans-32"/>
     <use transform="translate(95.361328 0.6875)" xlink:href="#DejaVuSans-32"/>
     <use transform="translate(127.148438 0.6875)" xlink:href="#DejaVuSans-32"/>
     <use transform="translate(158.935547 0.6875)" xlink:href="#DejaVuSans-32"/>
     <use transform="translate(190.722656 0.6875)" xlink:href="#Cmmi10-69"/>
     <use transform="translate(264.501953 0.6875)" xlink:href="#DejaVuSans-32"/>
     <use transform="translate(296.289062 0.6875)" xlink:href="#DejaVuSans-32"/>
     <use transform="translate(328.076172 0.6875)" xlink:href="#DejaVuSans-32"/>
     <use transform="translate(359.863281 0.6875)" xlink:href="#DejaVuSans-32"/>
     <use transform="translate(391.650391 0.6875)" xlink:href="#DejaVuSans-32"/>
     <use transform="translate(423.4375 0.6875)" xlink:href="#DejaVuSans-32"/>
    </g>
   </g>
   <g id="patch_5">
    <path d="M 163.695046 13.490781 
Q 154.925592 13.490781 145.038103 13.490781 
" style="fill:none;stroke:#000000;stroke-linecap:round;"/>
    <path d="M 158.495046 10.890781 
L 163.695046 13.490781 
L 158.495046 16.090781 
" style="fill:none;stroke:#000000;stroke-linecap:round;"/>
   </g>
   <g id="text_4">
    <g id="patch_6">
     <path d="M 261.699245 23.681563 
L 307.459245 23.681563 
Q 311.359245 23.681563 311.359245 19.781563 
L 311.359245 7.2 
Q 311.359245 3.3 307.459245 3.3 
L 261.699245 3.3 
Q 257.799245 3.3 257.799245 7.2 
L 257.799245 19.781563 
Q 257.799245 23.681563 261.699245 23.681563 
z
" style="fill:none;"/>
    </g>
    <!--    $e_{8928}$   -->
    <g transform="translate(261.699245 17.077969)scale(0.13 -0.13)">
     <defs>
      <path d="M 20.125 -1.125 
Q 15.328125 -1.125 11.734375 1.359375 
Q 8.15625 3.859375 6.265625 8.078125 
Q 4.390625 12.3125 4.390625 17 
Q 4.390625 24.125 7.984375 30.390625 
Q 11.578125 36.671875 17.71875 40.421875 
Q 23.875 44.1875 30.90625 44.1875 
Q 35.203125 44.1875 38.40625 41.96875 
Q 41.609375 39.75 41.609375 35.59375 
Q 41.609375 29.828125 37.015625 27.015625 
Q 32.421875 24.21875 26.65625 23.5625 
Q 20.90625 22.90625 13.921875 22.90625 
L 13.625 22.90625 
Q 12.015625 16.9375 12.015625 12.703125 
Q 12.015625 8.25 14.0625 4.875 
Q 16.109375 1.515625 20.3125 1.515625 
Q 26.265625 1.515625 31.75 4.25 
Q 37.25 6.984375 40.71875 11.8125 
Q 41.015625 12.109375 41.5 12.109375 
Q 42 12.109375 42.5 11.546875 
Q 43.015625 10.984375 43.015625 10.5 
Q 43.015625 10.109375 42.828125 9.90625 
Q 39.15625 4.78125 32.953125 1.828125 
Q 26.765625 -1.125 20.125 -1.125 
z
M 14.203125 25.484375 
Q 20.015625 25.484375 24.953125 26.015625 
Q 29.890625 26.5625 33.890625 28.734375 
Q 37.890625 30.90625 37.890625 35.5 
Q 37.890625 37.359375 36.859375 38.75 
Q 35.84375 40.140625 34.203125 40.875 
Q 32.5625 41.609375 30.8125 41.609375 
Q 26.5625 41.609375 23.171875 39.3125 
Q 19.78125 37.015625 17.578125 33.328125 
Q 15.375 29.640625 14.203125 25.484375 
z
" id="Cmmi10-101"/>
     </defs>
     <use transform="translate(0 0.8125)" xlink:href="#DejaVuSans-32"/>
     <use transform="translate(31.787109 0.8125)" xlink:href="#DejaVuSans-32"/>
     <use transform="translate(63.574219 0.8125)" xlink:href="#DejaVuSans-32"/>
     <use transform="translate(95.361328 0.8125)" xlink:href="#Cmmi10-101"/>
     <use transform="translate(141.845703 -16.19375)scale(0.7)" xlink:href="#Cmr10-56"/>
     <use transform="translate(176.845703 -16.19375)scale(0.7)" xlink:href="#Cmr10-57"/>
     <use transform="translate(211.845703 -16.19375)scale(0.7)" xlink:href="#Cmr10-50"/>
     <use transform="translate(246.845703 -16.19375)scale(0.7)" xlink:href="#Cmr10-56"/>
     <use transform="translate(288.223047 0.8125)" xlink:href="#DejaVuSans-32"/>
     <use transform="translate(320.010156 0.8125)" xlink:href="#DejaVuSans-32"/>
    </g>
   </g>
   <g id="patch_7">
    <path d="M 254.682201 13.490781 
Q 245.845362 13.490781 235.89049 13.490781 
" style="fill:none;stroke:#000000;stroke-linecap:round;"/>
    <path d="M 249.482201 10.890781 
L 254.682201 13.490781 
L 249.482201 16.090781 
" style="fill:none;stroke:#000000;stroke-linecap:round;"/>
   </g>
   <g id="text_5">
    <g id="patch_8">
     <path d="M 12.27 66.150312 
L 51.53 66.150312 
Q 55.43 66.150312 55.43 62.250312 
L 55.43 49.66875 
Q 55.43 45.76875 51.53 45.76875 
L 12.27 45.76875 
Q 8.37 45.76875 8.37 49.66875 
L 8.37 62.250312 
Q 8.37 66.150312 12.27 66.150312 
z
" style="fill:none;"/>
    </g>
    <!-- $\mathrm{dessert}$ -->
    <g transform="translate(12.27 59.546719)scale(0.13 -0.13)">
     <defs>
      <path d="M 24.421875 -1.125 
Q 18.5 -1.125 13.609375 2.078125 
Q 8.734375 5.28125 6.03125 10.5 
Q 3.328125 15.71875 3.328125 21.578125 
Q 3.328125 27.640625 6.28125 32.828125 
Q 9.234375 38.03125 14.3125 41.109375 
Q 19.390625 44.1875 25.484375 44.1875 
Q 29.15625 44.1875 32.421875 42.640625 
Q 35.6875 41.109375 38.09375 38.375 
L 38.09375 59.1875 
Q 38.09375 61.859375 37.28125 63.0625 
Q 36.46875 64.265625 34.984375 64.53125 
Q 33.5 64.796875 30.328125 64.796875 
L 30.328125 68.3125 
L 45.125 69.390625 
L 45.125 9.078125 
Q 45.125 6.453125 45.921875 5.25 
Q 46.734375 4.046875 48.21875 3.78125 
Q 49.703125 3.515625 52.875 3.515625 
L 52.875 0 
L 37.796875 -1.125 
L 37.796875 5.171875 
Q 35.203125 2.203125 31.640625 0.53125 
Q 28.078125 -1.125 24.421875 -1.125 
z
M 14.203125 8.6875 
Q 15.921875 5.421875 18.765625 3.46875 
Q 21.625 1.515625 25 1.515625 
Q 29.15625 1.515625 32.609375 3.90625 
Q 36.078125 6.296875 37.796875 10.109375 
L 37.796875 34.078125 
Q 36.625 36.28125 34.84375 38.015625 
Q 33.0625 39.75 30.828125 40.671875 
Q 28.609375 41.609375 26.125 41.609375 
Q 20.90625 41.609375 17.71875 38.640625 
Q 14.546875 35.6875 13.28125 31.09375 
Q 12.015625 26.515625 12.015625 21.484375 
Q 12.015625 17.484375 12.421875 14.5 
Q 12.84375 11.53125 14.203125 8.6875 
z
" id="Cmr10-100"/>
      <path d="M 3.328125 -0.296875 
L 3.328125 16.015625 
Q 3.328125 16.796875 4.203125 16.796875 
L 5.421875 16.796875 
Q 6 16.796875 6.203125 16.015625 
Q 8.984375 1.515625 19.671875 1.515625 
Q 24.421875 1.515625 27.609375 3.65625 
Q 30.8125 5.8125 30.8125 10.296875 
Q 30.8125 13.53125 28.3125 15.796875 
Q 25.828125 18.0625 22.40625 18.890625 
L 15.71875 20.21875 
Q 12.359375 20.953125 9.59375 22.453125 
Q 6.84375 23.96875 5.078125 26.484375 
Q 3.328125 29 3.328125 32.328125 
Q 3.328125 36.71875 5.640625 39.515625 
Q 7.953125 42.328125 11.65625 43.578125 
Q 15.375 44.828125 19.671875 44.828125 
Q 24.8125 44.828125 28.609375 42.09375 
L 31.5 44.578125 
Q 31.5 44.828125 31.984375 44.828125 
L 32.71875 44.828125 
Q 33.015625 44.828125 33.25 44.546875 
Q 33.5 44.28125 33.5 44 
L 33.5 30.90625 
Q 33.5 29.984375 32.71875 29.984375 
L 31.5 29.984375 
Q 30.609375 29.984375 30.609375 30.90625 
Q 30.609375 36.140625 27.703125 39.3125 
Q 24.8125 42.484375 19.578125 42.484375 
Q 15.09375 42.484375 11.796875 40.8125 
Q 8.5 39.15625 8.5 35.109375 
Q 8.5 32.328125 10.859375 30.546875 
Q 13.234375 28.765625 16.40625 27.984375 
L 23.1875 26.703125 
Q 26.609375 25.921875 29.5625 24.0625 
Q 32.515625 22.21875 34.25 19.375 
Q 35.984375 16.546875 35.984375 12.984375 
Q 35.984375 9.375 34.734375 6.703125 
Q 33.5 4.046875 31.265625 2.28125 
Q 29.046875 0.53125 26.015625 -0.296875 
Q 23 -1.125 19.671875 -1.125 
Q 13.421875 -1.125 8.984375 3.078125 
L 5.328125 -0.875 
Q 5.328125 -1.125 4.78125 -1.125 
L 4.203125 -1.125 
Q 3.328125 -1.125 3.328125 -0.296875 
z
" id="Cmr10-115"/>
      <path d="M 2.59375 0 
L 2.59375 3.515625 
Q 6 3.515625 8.203125 4.046875 
Q 10.40625 4.59375 10.40625 6.6875 
L 10.40625 33.984375 
Q 10.40625 36.671875 9.59375 37.859375 
Q 8.796875 39.0625 7.28125 39.328125 
Q 5.765625 39.59375 2.59375 39.59375 
L 2.59375 43.109375 
L 16.890625 44.1875 
L 16.890625 34.421875 
Q 18.5 38.765625 21.484375 41.46875 
Q 24.46875 44.1875 28.71875 44.1875 
Q 31.6875 44.1875 34.03125 42.421875 
Q 36.375 40.671875 36.375 37.796875 
Q 36.375 35.984375 35.078125 34.640625 
Q 33.796875 33.296875 31.890625 33.296875 
Q 30.03125 33.296875 28.703125 34.609375 
Q 27.390625 35.9375 27.390625 37.796875 
Q 27.390625 40.484375 29.296875 41.609375 
L 28.71875 41.609375 
Q 24.65625 41.609375 22.09375 38.671875 
Q 19.53125 35.75 18.453125 31.390625 
Q 17.390625 27.046875 17.390625 23.09375 
L 17.390625 6.6875 
Q 17.390625 3.515625 27.09375 3.515625 
L 27.09375 0 
z
" id="Cmr10-114"/>
      <path d="M 10.203125 12.015625 
L 10.203125 39.59375 
L 1.90625 39.59375 
L 1.90625 42.1875 
Q 8.453125 42.1875 11.515625 48.28125 
Q 14.59375 54.390625 14.59375 61.53125 
L 17.484375 61.53125 
L 17.484375 43.109375 
L 31.59375 43.109375 
L 31.59375 39.59375 
L 17.484375 39.59375 
L 17.484375 12.203125 
Q 17.484375 8.0625 18.875 4.9375 
Q 20.265625 1.8125 23.875 1.8125 
Q 27.296875 1.8125 28.8125 5.109375 
Q 30.328125 8.40625 30.328125 12.203125 
L 30.328125 18.109375 
L 33.203125 18.109375 
L 33.203125 12.015625 
Q 33.203125 8.890625 32.046875 5.828125 
Q 30.90625 2.78125 28.65625 0.828125 
Q 26.421875 -1.125 23.1875 -1.125 
Q 17.1875 -1.125 13.6875 2.46875 
Q 10.203125 6.0625 10.203125 12.015625 
z
" id="Cmr10-116"/>
     </defs>
     <use transform="translate(0 0.609375)" xlink:href="#Cmr10-100"/>
     <use transform="translate(55.517578 0.609375)" xlink:href="#Cmr10-101"/>
     <use transform="translate(99.902344 0.609375)" xlink:href="#Cmr10-115"/>
     <use transform="translate(139.306641 0.609375)" xlink:href="#Cmr10-115"/>
     <use transform="translate(178.710938 0.609375)" xlink:href="#Cmr10-101"/>
     <use transform="translate(223.095703 0.609375)" xlink:href="#Cmr10-114"/>
     <use transform="translate(262.207031 0.609375)" xlink:href="#Cmr10-116"/>
    </g>
   </g>
   <g id="text_6">
    <g id="patch_9">
     <path d="M 93.116415 66.150312 
L 139.136415 66.150312 
Q 143.036415 66.150312 143.036415 62.250312 
L 143.036415 49.66875 
Q 143.036415 45.76875 139.136415 45.76875 
L 93.116415 45.76875 
Q 89.216415 45.76875 89.216415 49.66875 
L 89.216415 62.250312 
Q 89.216415 66.150312 93.116415 66.150312 
z
" style="fill:none;"/>
    </g>
    <!--    $o_{2468}$   -->
    <g transform="translate(93.116415 59.546719)scale(0.13 -0.13)">
     <defs>
      <path d="M 2.78125 16.5 
L 2.78125 20.015625 
L 33.6875 66.109375 
Q 34.03125 66.609375 34.71875 66.609375 
L 36.1875 66.609375 
Q 37.3125 66.609375 37.3125 65.484375 
L 37.3125 20.015625 
L 47.125 20.015625 
L 47.125 16.5 
L 37.3125 16.5 
L 37.3125 6.6875 
Q 37.3125 4.640625 40.234375 4.078125 
Q 43.171875 3.515625 47.015625 3.515625 
L 47.015625 0 
L 19.484375 0 
L 19.484375 3.515625 
Q 23.34375 3.515625 26.265625 4.078125 
Q 29.203125 4.640625 29.203125 6.6875 
L 29.203125 16.5 
z
M 6.109375 20.015625 
L 29.78125 20.015625 
L 29.78125 55.421875 
z
" id="Cmr10-52"/>
      <path d="M 25 -2.203125 
Q 18.796875 -2.203125 14.640625 1.09375 
Q 10.5 4.390625 8.21875 9.640625 
Q 5.953125 14.890625 5.078125 20.65625 
Q 4.203125 26.421875 4.203125 32.328125 
Q 4.203125 40.234375 7.28125 48.1875 
Q 10.359375 56.15625 16.328125 61.375 
Q 22.3125 66.609375 30.515625 66.609375 
Q 33.9375 66.609375 36.890625 65.3125 
Q 39.84375 64.015625 41.53125 61.5 
Q 43.21875 58.984375 43.21875 55.421875 
Q 43.21875 53.375 41.828125 51.984375 
Q 40.4375 50.59375 38.375 50.59375 
Q 36.421875 50.59375 35 52 
Q 33.59375 53.421875 33.59375 55.421875 
Q 33.59375 57.375 35 58.78125 
Q 36.421875 60.203125 38.375 60.203125 
L 38.921875 60.203125 
Q 37.640625 62.015625 35.328125 62.859375 
Q 33.015625 63.71875 30.515625 63.71875 
Q 27.484375 63.71875 24.921875 62.390625 
Q 22.359375 61.078125 20.3125 58.828125 
Q 18.265625 56.59375 16.890625 53.875 
Q 15.53125 51.171875 14.765625 47.703125 
Q 14.015625 44.234375 13.8125 41.203125 
Q 13.625 38.1875 13.625 33.59375 
Q 15.375 37.703125 18.59375 40.3125 
Q 21.828125 42.921875 25.875 42.921875 
Q 30.328125 42.921875 33.984375 41.109375 
Q 37.640625 39.3125 40.28125 36.109375 
Q 42.921875 32.90625 44.3125 28.796875 
Q 45.703125 24.703125 45.703125 20.515625 
Q 45.703125 14.65625 43.09375 9.34375 
Q 40.484375 4.046875 35.734375 0.921875 
Q 31 -2.203125 25 -2.203125 
z
M 25 0.984375 
Q 28.859375 0.984375 31.203125 2.734375 
Q 33.546875 4.5 34.640625 7.390625 
Q 35.75 10.296875 36.015625 13.25 
Q 36.28125 16.21875 36.28125 20.515625 
Q 36.28125 26.171875 35.734375 30.171875 
Q 35.203125 34.1875 32.8125 37.234375 
Q 30.421875 40.28125 25.484375 40.28125 
Q 21.4375 40.28125 18.828125 37.546875 
Q 16.21875 34.8125 15.015625 30.640625 
Q 13.8125 26.46875 13.8125 22.609375 
Q 13.8125 21.296875 13.921875 20.609375 
Q 13.921875 20.453125 13.890625 20.359375 
Q 13.875 20.265625 13.8125 20.125 
Q 13.8125 15.828125 14.6875 11.421875 
Q 15.578125 7.03125 18.0625 4 
Q 20.5625 0.984375 25 0.984375 
z
" id="Cmr10-54"/>
     </defs>
     <use transform="translate(0 0.8125)" xlink:href="#DejaVuSans-32"/>
     <use transform="translate(31.787109 0.8125)" xlink:href="#DejaVuSans-32"/>
     <use transform="translate(63.574219 0.8125)" xlink:href="#DejaVuSans-32"/>
     <use transform="translate(95.361328 0.8125)" xlink:href="#Cmmi10-111"/>
     <use transform="translate(143.75 -16.19375)scale(0.7)" xlink:href="#Cmr10-50"/>
     <use transform="translate(178.75 -16.19375)scale(0.7)" xlink:href="#Cmr10-52"/>
     <use transform="translate(213.75 -16.19375)scale(0.7)" xlink:href="#Cmr10-54"/>
     <use transform="translate(248.75 -16.19375)scale(0.7)" xlink:href="#Cmr10-56"/>
     <use transform="translate(290.127344 0.8125)" xlink:href="#DejaVuSans-32"/>
     <use transform="translate(321.914453 0.8125)" xlink:href="#DejaVuSans-32"/>
    </g>
   </g>
   <g id="text_7">
    <g id="patch_10">
     <path d="M 170.71283 66.150312 
L 229.99283 66.150312 
Q 233.89283 66.150312 233.89283 62.250312 
L 233.89283 49.66875 
Q 233.89283 45.76875 229.99283 45.76875 
L 170.71283 45.76875 
Q 166.81283 45.76875 166.81283 49.66875 
L 166.81283 62.250312 
Q 166.81283 66.150312 170.71283 66.150312 
z
" style="fill:none;"/>
    </g>
    <!--       $E$       -->
    <g transform="translate(170.71283 59.546719)scale(0.13 -0.13)">
     <use transform="translate(0 0.6875)" xlink:href="#DejaVuSans-32"/>
     <use transform="translate(31.787109 0.6875)" xlink:href="#DejaVuSans-32"/>
     <use transform="translate(63.574219 0.6875)" xlink:href="#DejaVuSans-32"/>
     <use transform="translate(95.361328 0.6875)" xlink:href="#DejaVuSans-32"/>
     <use transform="translate(127.148438 0.6875)" xlink:href="#DejaVuSans-32"/>
     <use transform="translate(158.935547 0.6875)" xlink:href="#DejaVuSans-32"/>
     <use transform="translate(190.722656 0.6875)" xlink:href="#Cmmi10-69"/>
     <use transform="translate(264.501953 0.6875)" xlink:href="#DejaVuSans-32"/>
     <use transform="translate(296.289062 0.6875)" xlink:href="#DejaVuSans-32"/>
     <use transform="translate(328.076172 0.6875)" xlink:href="#DejaVuSans-32"/>
     <use transform="translate(359.863281 0.6875)" xlink:href="#DejaVuSans-32"/>
     <use transform="translate(391.650391 0.6875)" xlink:href="#DejaVuSans-32"/>
     <use transform="translate(423.4375 0.6875)" xlink:href="#DejaVuSans-32"/>
    </g>
   </g>
   <g id="patch_11">
    <path d="M 163.695046 55.959531 
Q 154.925592 55.959531 145.038103 55.959531 
" style="fill:none;stroke:#000000;stroke-linecap:round;"/>
    <path d="M 158.495046 53.359531 
L 163.695046 55.959531 
L 158.495046 58.559531 
" style="fill:none;stroke:#000000;stroke-linecap:round;"/>
   </g>
   <g id="text_8">
    <g id="patch_12">
     <path d="M 261.699245 66.150312 
L 307.459245 66.150312 
Q 311.359245 66.150312 311.359245 62.250312 
L 311.359245 49.66875 
Q 311.359245 45.76875 307.459245 45.76875 
L 261.699245 45.76875 
Q 257.799245 45.76875 257.799245 49.66875 
L 257.799245 62.250312 
Q 257.799245 66.150312 261.699245 66.150312 
z
" style="fill:none;"/>
    </g>
    <!--    $e_{2468}$   -->
    <g transform="translate(261.699245 59.546719)scale(0.13 -0.13)">
     <use transform="translate(0 0.8125)" xlink:href="#DejaVuSans-32"/>
     <use transform="translate(31.787109 0.8125)" xlink:href="#DejaVuSans-32"/>
     <use transform="translate(63.574219 0.8125)" xlink:href="#DejaVuSans-32"/>
     <use transform="translate(95.361328 0.8125)" xlink:href="#Cmmi10-101"/>
     <use transform="translate(141.845703 -16.19375)scale(0.7)" xlink:href="#Cmr10-50"/>
     <use transform="translate(176.845703 -16.19375)scale(0.7)" xlink:href="#Cmr10-52"/>
     <use transform="translate(211.845703 -16.19375)scale(0.7)" xlink:href="#Cmr10-54"/>
     <use transform="translate(246.845703 -16.19375)scale(0.7)" xlink:href="#Cmr10-56"/>
     <use transform="translate(288.223047 0.8125)" xlink:href="#DejaVuSans-32"/>
     <use transform="translate(320.010156 0.8125)" xlink:href="#DejaVuSans-32"/>
    </g>
   </g>
   <g id="patch_13">
    <path d="M 254.682201 55.959531 
Q 245.845362 55.959531 235.89049 55.959531 
" style="fill:none;stroke:#000000;stroke-linecap:round;"/>
    <path d="M 249.482201 53.359531 
L 254.682201 55.959531 
L 249.482201 58.559531 
" style="fill:none;stroke:#000000;stroke-linecap:round;"/>
   </g>
   <g id="text_9">
    <g id="patch_14">
     <path d="M 27.48 108.619062 
L 36.32 108.619062 
Q 40.22 108.619062 40.22 104.719062 
L 40.22 92.1375 
Q 40.22 88.2375 36.32 88.2375 
L 27.48 88.2375 
Q 23.58 88.2375 23.58 92.1375 
L 23.58 104.719062 
Q 23.58 108.619062 27.48 108.619062 
z
" style="fill:none;"/>
    </g>
    <!-- $\mathrm{is}$ -->
    <g transform="translate(27.48 102.015469)scale(0.13 -0.13)">
     <defs>
      <path d="M 3.078125 0 
L 3.078125 3.515625 
Q 6.5 3.515625 8.6875 4.046875 
Q 10.890625 4.59375 10.890625 6.6875 
L 10.890625 33.984375 
Q 10.890625 37.84375 9.390625 38.71875 
Q 7.90625 39.59375 3.515625 39.59375 
L 3.515625 43.109375 
L 17.921875 44.1875 
L 17.921875 6.6875 
Q 17.921875 4.59375 19.828125 4.046875 
Q 21.734375 3.515625 24.90625 3.515625 
L 24.90625 0 
z
M 7.328125 61.375 
Q 7.328125 63.578125 8.984375 65.234375 
Q 10.640625 66.890625 12.796875 66.890625 
Q 14.203125 66.890625 15.515625 66.15625 
Q 16.84375 65.4375 17.578125 64.109375 
Q 18.3125 62.796875 18.3125 61.375 
Q 18.3125 59.234375 16.640625 57.5625 
Q 14.984375 55.90625 12.796875 55.90625 
Q 10.640625 55.90625 8.984375 57.5625 
Q 7.328125 59.234375 7.328125 61.375 
z
" id="Cmr10-105"/>
     </defs>
     <use transform="translate(0 0.109375)" xlink:href="#Cmr10-105"/>
     <use transform="translate(27.685547 0.109375)" xlink:href="#Cmr10-115"/>
    </g>
   </g>
   <g id="text_10">
    <g id="patch_15">
     <path d="M 93.116415 108.619062 
L 139.136415 108.619062 
Q 143.036415 108.619062 143.036415 104.719062 
L 143.036415 92.1375 
Q 143.036415 88.2375 139.136415 88.2375 
L 93.116415 88.2375 
Q 89.216415 88.2375 89.216415 92.1375 
L 89.216415 104.719062 
Q 89.216415 108.619062 93.116415 108.619062 
z
" style="fill:none;"/>
    </g>
    <!--    $o_{4694}$   -->
    <g transform="translate(93.116415 102.015469)scale(0.13 -0.13)">
     <use transform="translate(0 0.8125)" xlink:href="#DejaVuSans-32"/>
     <use transform="translate(31.787109 0.8125)" xlink:href="#DejaVuSans-32"/>
     <use transform="translate(63.574219 0.8125)" xlink:href="#DejaVuSans-32"/>
     <use transform="translate(95.361328 0.8125)" xlink:href="#Cmmi10-111"/>
     <use transform="translate(143.75 -16.19375)scale(0.7)" xlink:href="#Cmr10-52"/>
     <use transform="translate(178.75 -16.19375)scale(0.7)" xlink:href="#Cmr10-54"/>
     <use transform="translate(213.75 -16.19375)scale(0.7)" xlink:href="#Cmr10-57"/>
     <use transform="translate(248.75 -16.19375)scale(0.7)" xlink:href="#Cmr10-52"/>
     <use transform="translate(290.127344 0.8125)" xlink:href="#DejaVuSans-32"/>
     <use transform="translate(321.914453 0.8125)" xlink:href="#DejaVuSans-32"/>
    </g>
   </g>
   <g id="text_11">
    <g id="patch_16">
     <path d="M 170.71283 108.619062 
L 229.99283 108.619062 
Q 233.89283 108.619062 233.89283 104.719062 
L 233.89283 92.1375 
Q 233.89283 88.2375 229.99283 88.2375 
L 170.71283 88.2375 
Q 166.81283 88.2375 166.81283 92.1375 
L 166.81283 104.719062 
Q 166.81283 108.619062 170.71283 108.619062 
z
" style="fill:none;"/>
    </g>
    <!--       $E$       -->
    <g transform="translate(170.71283 102.015469)scale(0.13 -0.13)">
     <use transform="translate(0 0.6875)" xlink:href="#DejaVuSans-32"/>
     <use transform="translate(31.787109 0.6875)" xlink:href="#DejaVuSans-32"/>
     <use transform="translate(63.574219 0.6875)" xlink:href="#DejaVuSans-32"/>
     <use transform="translate(95.361328 0.6875)" xlink:href="#DejaVuSans-32"/>
     <use transform="translate(127.148438 0.6875)" xlink:href="#DejaVuSans-32"/>
     <use transform="translate(158.935547 0.6875)" xlink:href="#DejaVuSans-32"/>
     <use transform="translate(190.722656 0.6875)" xlink:href="#Cmmi10-69"/>
     <use transform="translate(264.501953 0.6875)" xlink:href="#DejaVuSans-32"/>
     <use transform="translate(296.289062 0.6875)" xlink:href="#DejaVuSans-32"/>
     <use transform="translate(328.076172 0.6875)" xlink:href="#DejaVuSans-32"/>
     <use transform="translate(359.863281 0.6875)" xlink:href="#DejaVuSans-32"/>
     <use transform="translate(391.650391 0.6875)" xlink:href="#DejaVuSans-32"/>
     <use transform="translate(423.4375 0.6875)" xlink:href="#DejaVuSans-32"/>
    </g>
   </g>
   <g id="patch_17">
    <path d="M 163.695046 98.428281 
Q 154.925592 98.428281 145.038103 98.428281 
" style="fill:none;stroke:#000000;stroke-linecap:round;"/>
    <path d="M 158.495046 95.828281 
L 163.695046 98.428281 
L 158.495046 101.028281 
" style="fill:none;stroke:#000000;stroke-linecap:round;"/>
   </g>
   <g id="text_12">
    <g id="patch_18">
     <path d="M 261.699245 108.619062 
L 307.459245 108.619062 
Q 311.359245 108.619062 311.359245 104.719062 
L 311.359245 92.1375 
Q 311.359245 88.2375 307.459245 88.2375 
L 261.699245 88.2375 
Q 257.799245 88.2375 257.799245 92.1375 
L 257.799245 104.719062 
Q 257.799245 108.619062 261.699245 108.619062 
z
" style="fill:none;"/>
    </g>
    <!--    $e_{4694}$   -->
    <g transform="translate(261.699245 102.015469)scale(0.13 -0.13)">
     <use transform="translate(0 0.8125)" xlink:href="#DejaVuSans-32"/>
     <use transform="translate(31.787109 0.8125)" xlink:href="#DejaVuSans-32"/>
     <use transform="translate(63.574219 0.8125)" xlink:href="#DejaVuSans-32"/>
     <use transform="translate(95.361328 0.8125)" xlink:href="#Cmmi10-101"/>
     <use transform="translate(141.845703 -16.19375)scale(0.7)" xlink:href="#Cmr10-52"/>
     <use transform="translate(176.845703 -16.19375)scale(0.7)" xlink:href="#Cmr10-54"/>
     <use transform="translate(211.845703 -16.19375)scale(0.7)" xlink:href="#Cmr10-57"/>
     <use transform="translate(246.845703 -16.19375)scale(0.7)" xlink:href="#Cmr10-52"/>
     <use transform="translate(288.223047 0.8125)" xlink:href="#DejaVuSans-32"/>
     <use transform="translate(320.010156 0.8125)" xlink:href="#DejaVuSans-32"/>
    </g>
   </g>
   <g id="patch_19">
    <path d="M 254.682201 98.428281 
Q 245.845362 98.428281 235.89049 98.428281 
" style="fill:none;stroke:#000000;stroke-linecap:round;"/>
    <path d="M 249.482201 95.828281 
L 254.682201 98.428281 
L 249.482201 101.028281 
" style="fill:none;stroke:#000000;stroke-linecap:round;"/>
   </g>
   <g id="text_13">
    <g id="patch_20">
     <path d="M 7.2 151.087813 
L 56.6 151.087813 
Q 60.5 151.087813 60.5 147.187813 
L 60.5 134.60625 
Q 60.5 130.70625 56.6 130.70625 
L 7.2 130.70625 
Q 3.3 130.70625 3.3 134.60625 
L 3.3 147.187813 
Q 3.3 151.087813 7.2 151.087813 
z
" style="fill:none;"/>
    </g>
    <!-- $\mathrm{excellent}$ -->
    <g transform="translate(7.2 144.484219)scale(0.13 -0.13)">
     <defs>
      <path d="M 1.21875 0 
L 1.21875 3.515625 
Q 5.03125 3.515625 8.390625 5 
Q 11.765625 6.5 14.109375 9.421875 
L 23.1875 21 
L 11.375 36.375 
Q 9.625 38.578125 7.546875 39.078125 
Q 5.46875 39.59375 1.703125 39.59375 
L 1.703125 43.109375 
L 22.515625 43.109375 
L 22.515625 39.59375 
Q 21.1875 39.59375 20.03125 39 
Q 18.890625 38.421875 18.890625 37.3125 
Q 18.890625 36.921875 19.1875 36.375 
L 27.203125 25.984375 
L 33.203125 33.6875 
Q 34.421875 35.15625 34.421875 36.625 
Q 34.421875 37.84375 33.609375 38.71875 
Q 32.8125 39.59375 31.5 39.59375 
L 31.5 43.109375 
L 49.90625 43.109375 
L 49.90625 39.59375 
Q 46.046875 39.59375 42.65625 38.109375 
Q 39.265625 36.625 36.921875 33.6875 
L 29 23.578125 
L 41.796875 6.6875 
Q 43.703125 4.5 45.75 4 
Q 47.796875 3.515625 51.609375 3.515625 
L 51.609375 0 
L 30.8125 0 
L 30.8125 3.515625 
Q 32.03125 3.515625 33.15625 4.09375 
Q 34.28125 4.6875 34.28125 5.8125 
Q 34.28125 6.25 33.984375 6.6875 
L 25 18.609375 
L 17.828125 9.421875 
Q 16.703125 8.15625 16.703125 6.5 
Q 16.703125 5.28125 17.53125 4.390625 
Q 18.359375 3.515625 19.484375 3.515625 
L 19.484375 0 
z
" id="Cmr10-120"/>
      <path d="M 24.90625 -1.125 
Q 18.84375 -1.125 13.90625 2.015625 
Q 8.984375 5.171875 6.15625 10.421875 
Q 3.328125 15.671875 3.328125 21.578125 
Q 3.328125 27.484375 6.125 32.90625 
Q 8.9375 38.328125 13.890625 41.578125 
Q 18.84375 44.828125 24.90625 44.828125 
Q 30.765625 44.828125 35.5625 42.53125 
Q 40.375 40.234375 40.375 35.015625 
Q 40.375 33.0625 38.984375 31.609375 
Q 37.59375 30.171875 35.59375 30.171875 
Q 33.59375 30.171875 32.203125 31.609375 
Q 30.8125 33.0625 30.8125 35.015625 
Q 30.8125 36.765625 31.9375 38.0625 
Q 33.0625 39.359375 34.71875 39.703125 
Q 31.25 41.890625 25 41.890625 
Q 20.21875 41.890625 17.28125 38.71875 
Q 14.359375 35.546875 13.1875 30.859375 
Q 12.015625 26.171875 12.015625 21.578125 
Q 12.015625 16.75 13.453125 12.234375 
Q 14.890625 7.71875 18.09375 4.765625 
Q 21.296875 1.8125 26.125 1.8125 
Q 30.859375 1.8125 34.171875 4.71875 
Q 37.5 7.625 38.71875 12.3125 
Q 38.71875 12.890625 39.5 12.890625 
L 40.71875 12.890625 
Q 41.015625 12.890625 41.25 12.625 
Q 41.5 12.359375 41.5 12.015625 
L 41.5 11.71875 
Q 39.984375 5.8125 35.484375 2.34375 
Q 31 -1.125 24.90625 -1.125 
z
" id="Cmr10-99"/>
      <path d="M 3.078125 0 
L 3.078125 3.515625 
Q 6.5 3.515625 8.6875 4.046875 
Q 10.890625 4.59375 10.890625 6.6875 
L 10.890625 59.1875 
Q 10.890625 61.859375 10.078125 63.0625 
Q 9.28125 64.265625 7.765625 64.53125 
Q 6.25 64.796875 3.078125 64.796875 
L 3.078125 68.3125 
L 17.921875 69.390625 
L 17.921875 6.6875 
Q 17.921875 4.59375 20.109375 4.046875 
Q 22.3125 3.515625 25.6875 3.515625 
L 25.6875 0 
z
" id="Cmr10-108"/>
      <path d="M 2.984375 0 
L 2.984375 3.515625 
Q 6.390625 3.515625 8.59375 4.046875 
Q 10.796875 4.59375 10.796875 6.6875 
L 10.796875 33.984375 
Q 10.796875 36.671875 9.984375 37.859375 
Q 9.1875 39.0625 7.671875 39.328125 
Q 6.15625 39.59375 2.984375 39.59375 
L 2.984375 43.109375 
L 17.484375 44.1875 
L 17.484375 34.421875 
Q 19.484375 38.71875 23.40625 41.453125 
Q 27.34375 44.1875 31.984375 44.1875 
Q 38.921875 44.1875 42.40625 40.859375 
Q 45.90625 37.546875 45.90625 30.71875 
L 45.90625 6.6875 
Q 45.90625 4.59375 48.09375 4.046875 
Q 50.296875 3.515625 53.71875 3.515625 
L 53.71875 0 
L 30.8125 0 
L 30.8125 3.515625 
Q 34.234375 3.515625 36.421875 4.046875 
Q 38.625 4.59375 38.625 6.6875 
L 38.625 30.421875 
Q 38.625 35.296875 37.203125 38.453125 
Q 35.796875 41.609375 31.390625 41.609375 
Q 25.59375 41.609375 21.84375 36.96875 
Q 18.109375 32.328125 18.109375 26.421875 
L 18.109375 6.6875 
Q 18.109375 4.59375 20.3125 4.046875 
Q 22.515625 3.515625 25.875 3.515625 
L 25.875 0 
z
" id="Cmr10-110"/>
     </defs>
     <use transform="translate(0 0.609375)" xlink:href="#Cmr10-101"/>
     <use transform="translate(44.384766 0.609375)" xlink:href="#Cmr10-120"/>
     <use transform="translate(97.070312 0.609375)" xlink:href="#Cmr10-99"/>
     <use transform="translate(141.455078 0.609375)" xlink:href="#Cmr10-101"/>
     <use transform="translate(185.839844 0.609375)" xlink:href="#Cmr10-108"/>
     <use transform="translate(213.525391 0.609375)" xlink:href="#Cmr10-108"/>
     <use transform="translate(241.210938 0.609375)" xlink:href="#Cmr10-101"/>
     <use transform="translate(285.595703 0.609375)" xlink:href="#Cmr10-110"/>
     <use transform="translate(341.113281 0.609375)" xlink:href="#Cmr10-116"/>
    </g>
   </g>
   <g id="text_14">
    <g id="patch_21">
     <path d="M 93.116415 151.087813 
L 139.136415 151.087813 
Q 143.036415 151.087813 143.036415 147.187813 
L 143.036415 134.60625 
Q 143.036415 130.70625 139.136415 130.70625 
L 93.116415 130.70625 
Q 89.216415 130.70625 89.216415 134.60625 
L 89.216415 147.187813 
Q 89.216415 151.087813 93.116415 151.087813 
z
" style="fill:none;"/>
    </g>
    <!--    $o_{3180}$   -->
    <g transform="translate(93.116415 144.484219)scale(0.13 -0.13)">
     <defs>
      <path d="M 9.515625 7.71875 
Q 11.859375 4.296875 15.8125 2.640625 
Q 19.78125 0.984375 24.3125 0.984375 
Q 30.125 0.984375 32.5625 5.9375 
Q 35.015625 10.890625 35.015625 17.1875 
Q 35.015625 20.015625 34.5 22.84375 
Q 33.984375 25.6875 32.765625 28.125 
Q 31.546875 30.5625 29.421875 32.03125 
Q 27.296875 33.5 24.21875 33.5 
L 17.578125 33.5 
Q 16.703125 33.5 16.703125 34.421875 
L 16.703125 35.296875 
Q 16.703125 36.078125 17.578125 36.078125 
L 23.09375 36.53125 
Q 26.609375 36.53125 28.921875 39.15625 
Q 31.25 41.796875 32.328125 45.578125 
Q 33.40625 49.359375 33.40625 52.78125 
Q 33.40625 57.5625 31.15625 60.640625 
Q 28.90625 63.71875 24.3125 63.71875 
Q 20.515625 63.71875 17.046875 62.28125 
Q 13.578125 60.84375 11.53125 57.90625 
Q 11.71875 57.953125 11.859375 57.984375 
Q 12.015625 58.015625 12.203125 58.015625 
Q 14.453125 58.015625 15.96875 56.453125 
Q 17.484375 54.890625 17.484375 52.6875 
Q 17.484375 50.53125 15.96875 48.96875 
Q 14.453125 47.40625 12.203125 47.40625 
Q 10.015625 47.40625 8.453125 48.96875 
Q 6.890625 50.53125 6.890625 52.6875 
Q 6.890625 56.984375 9.46875 60.15625 
Q 12.0625 63.328125 16.140625 64.96875 
Q 20.21875 66.609375 24.3125 66.609375 
Q 27.34375 66.609375 30.703125 65.703125 
Q 34.078125 64.796875 36.8125 63.109375 
Q 39.546875 61.421875 41.28125 58.78125 
Q 43.015625 56.15625 43.015625 52.78125 
Q 43.015625 48.578125 41.140625 45.015625 
Q 39.265625 41.453125 35.984375 38.859375 
Q 32.71875 36.28125 28.8125 35.015625 
Q 33.15625 34.1875 37.0625 31.734375 
Q 40.96875 29.296875 43.328125 25.484375 
Q 45.703125 21.6875 45.703125 17.28125 
Q 45.703125 11.765625 42.671875 7.296875 
Q 39.65625 2.828125 34.71875 0.3125 
Q 29.78125 -2.203125 24.3125 -2.203125 
Q 19.625 -2.203125 14.90625 -0.40625 
Q 10.203125 1.375 7.203125 4.9375 
Q 4.203125 8.5 4.203125 13.484375 
Q 4.203125 15.96875 5.859375 17.625 
Q 7.515625 19.28125 10.015625 19.28125 
Q 11.625 19.28125 12.96875 18.53125 
Q 14.3125 17.78125 15.0625 16.40625 
Q 15.828125 15.046875 15.828125 13.484375 
Q 15.828125 11.03125 14.109375 9.375 
Q 12.40625 7.71875 10.015625 7.71875 
z
" id="Cmr10-51"/>
      <path d="M 9.28125 0 
L 9.28125 3.515625 
Q 21.78125 3.515625 21.78125 6.6875 
L 21.78125 59.1875 
Q 16.609375 56.6875 8.6875 56.6875 
L 8.6875 60.203125 
Q 20.953125 60.203125 27.203125 66.609375 
L 28.609375 66.609375 
Q 28.953125 66.609375 29.265625 66.328125 
Q 29.59375 66.0625 29.59375 65.71875 
L 29.59375 6.6875 
Q 29.59375 3.515625 42.09375 3.515625 
L 42.09375 0 
z
" id="Cmr10-49"/>
      <path d="M 25 -2.203125 
Q 12.75 -2.203125 8.328125 7.875 
Q 3.90625 17.96875 3.90625 31.890625 
Q 3.90625 40.578125 5.484375 48.234375 
Q 7.078125 55.90625 11.78125 61.25 
Q 16.5 66.609375 25 66.609375 
Q 31.59375 66.609375 35.78125 63.375 
Q 39.984375 60.15625 42.1875 55.046875 
Q 44.390625 49.953125 45.1875 44.109375 
Q 46 38.28125 46 31.890625 
Q 46 23.296875 44.40625 15.796875 
Q 42.828125 8.296875 38.1875 3.046875 
Q 33.546875 -2.203125 25 -2.203125 
z
M 25 0.390625 
Q 30.5625 0.390625 33.296875 6.09375 
Q 36.03125 11.8125 36.671875 18.75 
Q 37.3125 25.6875 37.3125 33.5 
Q 37.3125 41.015625 36.671875 47.359375 
Q 36.03125 53.71875 33.3125 58.859375 
Q 30.609375 64.015625 25 64.015625 
Q 19.34375 64.015625 16.609375 58.828125 
Q 13.875 53.65625 13.234375 47.328125 
Q 12.59375 41.015625 12.59375 33.5 
Q 12.59375 27.9375 12.859375 23 
Q 13.140625 18.0625 14.3125 12.8125 
Q 15.484375 7.5625 18.09375 3.96875 
Q 20.703125 0.390625 25 0.390625 
z
" id="Cmr10-48"/>
     </defs>
     <use transform="translate(0 0.8125)" xlink:href="#DejaVuSans-32"/>
     <use transform="translate(31.787109 0.8125)" xlink:href="#DejaVuSans-32"/>
     <use transform="translate(63.574219 0.8125)" xlink:href="#DejaVuSans-32"/>
     <use transform="translate(95.361328 0.8125)" xlink:href="#Cmmi10-111"/>
     <use transform="translate(143.75 -16.19375)scale(0.7)" xlink:href="#Cmr10-51"/>
     <use transform="translate(178.75 -16.19375)scale(0.7)" xlink:href="#Cmr10-49"/>
     <use transform="translate(213.75 -16.19375)scale(0.7)" xlink:href="#Cmr10-56"/>
     <use transform="translate(248.75 -16.19375)scale(0.7)" xlink:href="#Cmr10-48"/>
     <use transform="translate(290.127344 0.8125)" xlink:href="#DejaVuSans-32"/>
     <use transform="translate(321.914453 0.8125)" xlink:href="#DejaVuSans-32"/>
    </g>
   </g>
   <g id="text_15">
    <g id="patch_22">
     <path d="M 170.71283 151.087813 
L 229.99283 151.087813 
Q 233.89283 151.087813 233.89283 147.187813 
L 233.89283 134.60625 
Q 233.89283 130.70625 229.99283 130.70625 
L 170.71283 130.70625 
Q 166.81283 130.70625 166.81283 134.60625 
L 166.81283 147.187813 
Q 166.81283 151.087813 170.71283 151.087813 
z
" style="fill:none;"/>
    </g>
    <!--       $E$       -->
    <g transform="translate(170.71283 144.484219)scale(0.13 -0.13)">
     <use transform="translate(0 0.6875)" xlink:href="#DejaVuSans-32"/>
     <use transform="translate(31.787109 0.6875)" xlink:href="#DejaVuSans-32"/>
     <use transform="translate(63.574219 0.6875)" xlink:href="#DejaVuSans-32"/>
     <use transform="translate(95.361328 0.6875)" xlink:href="#DejaVuSans-32"/>
     <use transform="translate(127.148438 0.6875)" xlink:href="#DejaVuSans-32"/>
     <use transform="translate(158.935547 0.6875)" xlink:href="#DejaVuSans-32"/>
     <use transform="translate(190.722656 0.6875)" xlink:href="#Cmmi10-69"/>
     <use transform="translate(264.501953 0.6875)" xlink:href="#DejaVuSans-32"/>
     <use transform="translate(296.289062 0.6875)" xlink:href="#DejaVuSans-32"/>
     <use transform="translate(328.076172 0.6875)" xlink:href="#DejaVuSans-32"/>
     <use transform="translate(359.863281 0.6875)" xlink:href="#DejaVuSans-32"/>
     <use transform="translate(391.650391 0.6875)" xlink:href="#DejaVuSans-32"/>
     <use transform="translate(423.4375 0.6875)" xlink:href="#DejaVuSans-32"/>
    </g>
   </g>
   <g id="patch_23">
    <path d="M 163.695046 140.897031 
Q 154.925592 140.897031 145.038103 140.897031 
" style="fill:none;stroke:#000000;stroke-linecap:round;"/>
    <path d="M 158.495046 138.297031 
L 163.695046 140.897031 
L 158.495046 143.497031 
" style="fill:none;stroke:#000000;stroke-linecap:round;"/>
   </g>
   <g id="text_16">
    <g id="patch_24">
     <path d="M 261.699245 151.087813 
L 307.459245 151.087813 
Q 311.359245 151.087813 311.359245 147.187813 
L 311.359245 134.60625 
Q 311.359245 130.70625 307.459245 130.70625 
L 261.699245 130.70625 
Q 257.799245 130.70625 257.799245 134.60625 
L 257.799245 147.187813 
Q 257.799245 151.087813 261.699245 151.087813 
z
" style="fill:none;"/>
    </g>
    <!--    $e_{3180}$   -->
    <g transform="translate(261.699245 144.484219)scale(0.13 -0.13)">
     <use transform="translate(0 0.8125)" xlink:href="#DejaVuSans-32"/>
     <use transform="translate(31.787109 0.8125)" xlink:href="#DejaVuSans-32"/>
     <use transform="translate(63.574219 0.8125)" xlink:href="#DejaVuSans-32"/>
     <use transform="translate(95.361328 0.8125)" xlink:href="#Cmmi10-101"/>
     <use transform="translate(141.845703 -16.19375)scale(0.7)" xlink:href="#Cmr10-51"/>
     <use transform="translate(176.845703 -16.19375)scale(0.7)" xlink:href="#Cmr10-49"/>
     <use transform="translate(211.845703 -16.19375)scale(0.7)" xlink:href="#Cmr10-56"/>
     <use transform="translate(246.845703 -16.19375)scale(0.7)" xlink:href="#Cmr10-48"/>
     <use transform="translate(288.223047 0.8125)" xlink:href="#DejaVuSans-32"/>
     <use transform="translate(320.010156 0.8125)" xlink:href="#DejaVuSans-32"/>
    </g>
   </g>
   <g id="patch_25">
    <path d="M 254.682201 140.897031 
Q 245.845362 140.897031 235.89049 140.897031 
" style="fill:none;stroke:#000000;stroke-linecap:round;"/>
    <path d="M 249.482201 138.297031 
L 254.682201 140.897031 
L 249.482201 143.497031 
" style="fill:none;stroke:#000000;stroke-linecap:round;"/>
   </g>
   <g id="text_17">
    <g id="patch_26">
     <path d="M 354.592379 90.631875 
L 383.018942 90.631875 
L 383.018942 63.755937 
L 354.592379 63.755937 
z
" style="fill:none;stroke:#000000;stroke-linejoin:miter;"/>
    </g>
    <!-- Avg/ -->
    <g transform="translate(357.861129 74.354375)scale(0.1 -0.1)">
     <defs>
      <path d="M 34.1875 63.1875 
L 20.796875 26.90625 
L 47.609375 26.90625 
z
M 28.609375 72.90625 
L 39.796875 72.90625 
L 67.578125 0 
L 57.328125 0 
L 50.6875 18.703125 
L 17.828125 18.703125 
L 11.1875 0 
L 0.78125 0 
z
" id="DejaVuSans-65"/>
      <path d="M 2.984375 54.6875 
L 12.5 54.6875 
L 29.59375 8.796875 
L 46.6875 54.6875 
L 56.203125 54.6875 
L 35.6875 0 
L 23.484375 0 
z
" id="DejaVuSans-118"/>
      <path d="M 45.40625 27.984375 
Q 45.40625 37.75 41.375 43.109375 
Q 37.359375 48.484375 30.078125 48.484375 
Q 22.859375 48.484375 18.828125 43.109375 
Q 14.796875 37.75 14.796875 27.984375 
Q 14.796875 18.265625 18.828125 12.890625 
Q 22.859375 7.515625 30.078125 7.515625 
Q 37.359375 7.515625 41.375 12.890625 
Q 45.40625 18.265625 45.40625 27.984375 
z
M 54.390625 6.78125 
Q 54.390625 -7.171875 48.1875 -13.984375 
Q 42 -20.796875 29.203125 -20.796875 
Q 24.46875 -20.796875 20.265625 -20.09375 
Q 16.0625 -19.390625 12.109375 -17.921875 
L 12.109375 -9.1875 
Q 16.0625 -11.328125 19.921875 -12.34375 
Q 23.78125 -13.375 27.78125 -13.375 
Q 36.625 -13.375 41.015625 -8.765625 
Q 45.40625 -4.15625 45.40625 5.171875 
L 45.40625 9.625 
Q 42.625 4.78125 38.28125 2.390625 
Q 33.9375 0 27.875 0 
Q 17.828125 0 11.671875 7.65625 
Q 5.515625 15.328125 5.515625 27.984375 
Q 5.515625 40.671875 11.671875 48.328125 
Q 17.828125 56 27.875 56 
Q 33.9375 56 38.28125 53.609375 
Q 42.625 51.21875 45.40625 46.390625 
L 45.40625 54.6875 
L 54.390625 54.6875 
z
" id="DejaVuSans-103"/>
      <path d="M 25.390625 72.90625 
L 33.6875 72.90625 
L 8.296875 -9.28125 
L 0 -9.28125 
z
" id="DejaVuSans-47"/>
     </defs>
     <use xlink:href="#DejaVuSans-65"/>
     <use x="62.533203" xlink:href="#DejaVuSans-118"/>
     <use x="121.712891" xlink:href="#DejaVuSans-103"/>
     <use x="185.189453" xlink:href="#DejaVuSans-47"/>
    </g>
    <!-- Sum -->
    <g transform="translate(357.592379 85.552188)scale(0.1 -0.1)">
     <defs>
      <path d="M 53.515625 70.515625 
L 53.515625 60.890625 
Q 47.90625 63.578125 42.921875 64.890625 
Q 37.9375 66.21875 33.296875 66.21875 
Q 25.25 66.21875 20.875 63.09375 
Q 16.5 59.96875 16.5 54.203125 
Q 16.5 49.359375 19.40625 46.890625 
Q 22.3125 44.4375 30.421875 42.921875 
L 36.375 41.703125 
Q 47.40625 39.59375 52.65625 34.296875 
Q 57.90625 29 57.90625 20.125 
Q 57.90625 9.515625 50.796875 4.046875 
Q 43.703125 -1.421875 29.984375 -1.421875 
Q 24.8125 -1.421875 18.96875 -0.25 
Q 13.140625 0.921875 6.890625 3.21875 
L 6.890625 13.375 
Q 12.890625 10.015625 18.65625 8.296875 
Q 24.421875 6.59375 29.984375 6.59375 
Q 38.421875 6.59375 43.015625 9.90625 
Q 47.609375 13.234375 47.609375 19.390625 
Q 47.609375 24.75 44.3125 27.78125 
Q 41.015625 30.8125 33.5 32.328125 
L 27.484375 33.5 
Q 16.453125 35.6875 11.515625 40.375 
Q 6.59375 45.0625 6.59375 53.421875 
Q 6.59375 63.09375 13.40625 68.65625 
Q 20.21875 74.21875 32.171875 74.21875 
Q 37.3125 74.21875 42.625 73.28125 
Q 47.953125 72.359375 53.515625 70.515625 
z
" id="DejaVuSans-83"/>
      <path d="M 8.5 21.578125 
L 8.5 54.6875 
L 17.484375 54.6875 
L 17.484375 21.921875 
Q 17.484375 14.15625 20.5 10.265625 
Q 23.53125 6.390625 29.59375 6.390625 
Q 36.859375 6.390625 41.078125 11.03125 
Q 45.3125 15.671875 45.3125 23.6875 
L 45.3125 54.6875 
L 54.296875 54.6875 
L 54.296875 0 
L 45.3125 0 
L 45.3125 8.40625 
Q 42.046875 3.421875 37.71875 1 
Q 33.40625 -1.421875 27.6875 -1.421875 
Q 18.265625 -1.421875 13.375 4.4375 
Q 8.5 10.296875 8.5 21.578125 
z
M 31.109375 56 
z
" id="DejaVuSans-117"/>
      <path d="M 52 44.1875 
Q 55.375 50.25 60.0625 53.125 
Q 64.75 56 71.09375 56 
Q 79.640625 56 84.28125 50.015625 
Q 88.921875 44.046875 88.921875 33.015625 
L 88.921875 0 
L 79.890625 0 
L 79.890625 32.71875 
Q 79.890625 40.578125 77.09375 44.375 
Q 74.3125 48.1875 68.609375 48.1875 
Q 61.625 48.1875 57.5625 43.546875 
Q 53.515625 38.921875 53.515625 30.90625 
L 53.515625 0 
L 44.484375 0 
L 44.484375 32.71875 
Q 44.484375 40.625 41.703125 44.40625 
Q 38.921875 48.1875 33.109375 48.1875 
Q 26.21875 48.1875 22.15625 43.53125 
Q 18.109375 38.875 18.109375 30.90625 
L 18.109375 0 
L 9.078125 0 
L 9.078125 54.6875 
L 18.109375 54.6875 
L 18.109375 46.1875 
Q 21.1875 51.21875 25.484375 53.609375 
Q 29.78125 56 35.6875 56 
Q 41.65625 56 45.828125 52.96875 
Q 50 49.953125 52 44.1875 
z
" id="DejaVuSans-109"/>
     </defs>
     <use xlink:href="#DejaVuSans-83"/>
     <use x="63.476562" xlink:href="#DejaVuSans-117"/>
     <use x="126.855469" xlink:href="#DejaVuSans-109"/>
    </g>
   </g>
   <g id="patch_27">
    <path d="M 351.791873 75.81841 
Q 332.973873 66.575766 313.15235 56.840232 
" style="fill:none;stroke:#000000;stroke-linecap:round;"/>
    <path d="M 348.270686 71.192263 
L 351.791873 75.81841 
L 345.978243 75.859671 
" style="fill:none;stroke:#000000;stroke-linecap:round;"/>
   </g>
   <g id="patch_28">
    <path d="M 352.843077 74.616345 
Q 332.976689 45.343635 312.482463 15.145819 
" style="fill:none;stroke:#000000;stroke-linecap:round;"/>
    <path d="M 352.074334 68.853617 
L 352.843077 74.616345 
L 347.771649 71.773703 
" style="fill:none;stroke:#000000;stroke-linecap:round;"/>
   </g>
   <g id="patch_29">
    <path d="M 351.791873 75.81841 
Q 332.973873 66.575766 313.15235 56.840232 
" style="fill:none;stroke:#000000;stroke-linecap:round;"/>
    <path d="M 348.270686 71.192263 
L 351.791873 75.81841 
L 345.978243 75.859671 
" style="fill:none;stroke:#000000;stroke-linecap:round;"/>
   </g>
   <g id="patch_30">
    <path d="M 351.791873 78.569402 
Q 332.973873 87.812046 313.15235 97.54758 
" style="fill:none;stroke:#000000;stroke-linecap:round;"/>
    <path d="M 345.978243 78.528141 
L 351.791873 78.569402 
L 348.270686 83.19555 
" style="fill:none;stroke:#000000;stroke-linecap:round;"/>
   </g>
   <g id="patch_31">
    <path d="M 352.843077 79.771467 
Q 332.976689 109.044177 312.482463 139.241993 
" style="fill:none;stroke:#000000;stroke-linecap:round;"/>
    <path d="M 347.771649 82.61411 
L 352.843077 79.771467 
L 352.074334 85.534195 
" style="fill:none;stroke:#000000;stroke-linecap:round;"/>
   </g>
   <g id="text_18">
    <g id="patch_32">
     <path d="M 419.341509 87.384687 
C 422.044136 87.384687 424.636434 86.310922 426.54748 84.399877 
C 428.458526 82.488831 429.532291 79.896533 429.532291 77.193906 
C 429.532291 74.491279 428.458526 71.898981 426.54748 69.987936 
C 424.636434 68.07689 422.044136 67.003125 419.341509 67.003125 
C 416.638883 67.003125 414.046585 68.07689 412.135539 69.987936 
C 410.224493 71.898981 409.150728 74.491279 409.150728 77.193906 
C 409.150728 79.896533 410.224493 82.488831 412.135539 84.399877 
C 414.046585 86.310922 416.638883 87.384687 419.341509 87.384687 
z
" style="fill:none;stroke:#000000;stroke-linejoin:miter;"/>
    </g>
    <!--   -->
    <g transform="translate(417.275728 80.781094)scale(0.13 -0.13)">
     <use xlink:href="#DejaVuSans-32"/>
    </g>
   </g>
   <g id="text_19">
    <!-- softmax -->
    <g transform="translate(399.150884 100.334844)scale(0.1 -0.1)">
     <defs>
      <path d="M 44.28125 53.078125 
L 44.28125 44.578125 
Q 40.484375 46.53125 36.375 47.5 
Q 32.28125 48.484375 27.875 48.484375 
Q 21.1875 48.484375 17.84375 46.4375 
Q 14.5 44.390625 14.5 40.28125 
Q 14.5 37.15625 16.890625 35.375 
Q 19.28125 33.59375 26.515625 31.984375 
L 29.59375 31.296875 
Q 39.15625 29.25 43.1875 25.515625 
Q 47.21875 21.78125 47.21875 15.09375 
Q 47.21875 7.46875 41.1875 3.015625 
Q 35.15625 -1.421875 24.609375 -1.421875 
Q 20.21875 -1.421875 15.453125 -0.5625 
Q 10.6875 0.296875 5.421875 2 
L 5.421875 11.28125 
Q 10.40625 8.6875 15.234375 7.390625 
Q 20.0625 6.109375 24.8125 6.109375 
Q 31.15625 6.109375 34.5625 8.28125 
Q 37.984375 10.453125 37.984375 14.40625 
Q 37.984375 18.0625 35.515625 20.015625 
Q 33.0625 21.96875 24.703125 23.78125 
L 21.578125 24.515625 
Q 13.234375 26.265625 9.515625 29.90625 
Q 5.8125 33.546875 5.8125 39.890625 
Q 5.8125 47.609375 11.28125 51.796875 
Q 16.75 56 26.8125 56 
Q 31.78125 56 36.171875 55.265625 
Q 40.578125 54.546875 44.28125 53.078125 
z
" id="DejaVuSans-115"/>
      <path d="M 30.609375 48.390625 
Q 23.390625 48.390625 19.1875 42.75 
Q 14.984375 37.109375 14.984375 27.296875 
Q 14.984375 17.484375 19.15625 11.84375 
Q 23.34375 6.203125 30.609375 6.203125 
Q 37.796875 6.203125 41.984375 11.859375 
Q 46.1875 17.53125 46.1875 27.296875 
Q 46.1875 37.015625 41.984375 42.703125 
Q 37.796875 48.390625 30.609375 48.390625 
z
M 30.609375 56 
Q 42.328125 56 49.015625 48.375 
Q 55.71875 40.765625 55.71875 27.296875 
Q 55.71875 13.875 49.015625 6.21875 
Q 42.328125 -1.421875 30.609375 -1.421875 
Q 18.84375 -1.421875 12.171875 6.21875 
Q 5.515625 13.875 5.515625 27.296875 
Q 5.515625 40.765625 12.171875 48.375 
Q 18.84375 56 30.609375 56 
z
" id="DejaVuSans-111"/>
      <path d="M 37.109375 75.984375 
L 37.109375 68.5 
L 28.515625 68.5 
Q 23.6875 68.5 21.796875 66.546875 
Q 19.921875 64.59375 19.921875 59.515625 
L 19.921875 54.6875 
L 34.71875 54.6875 
L 34.71875 47.703125 
L 19.921875 47.703125 
L 19.921875 0 
L 10.890625 0 
L 10.890625 47.703125 
L 2.296875 47.703125 
L 2.296875 54.6875 
L 10.890625 54.6875 
L 10.890625 58.5 
Q 10.890625 67.625 15.140625 71.796875 
Q 19.390625 75.984375 28.609375 75.984375 
z
" id="DejaVuSans-102"/>
      <path d="M 18.3125 70.21875 
L 18.3125 54.6875 
L 36.8125 54.6875 
L 36.8125 47.703125 
L 18.3125 47.703125 
L 18.3125 18.015625 
Q 18.3125 11.328125 20.140625 9.421875 
Q 21.96875 7.515625 27.59375 7.515625 
L 36.8125 7.515625 
L 36.8125 0 
L 27.59375 0 
Q 17.1875 0 13.234375 3.875 
Q 9.28125 7.765625 9.28125 18.015625 
L 9.28125 47.703125 
L 2.6875 47.703125 
L 2.6875 54.6875 
L 9.28125 54.6875 
L 9.28125 70.21875 
z
" id="DejaVuSans-116"/>
      <path d="M 34.28125 27.484375 
Q 23.390625 27.484375 19.1875 25 
Q 14.984375 22.515625 14.984375 16.5 
Q 14.984375 11.71875 18.140625 8.90625 
Q 21.296875 6.109375 26.703125 6.109375 
Q 34.1875 6.109375 38.703125 11.40625 
Q 43.21875 16.703125 43.21875 25.484375 
L 43.21875 27.484375 
z
M 52.203125 31.203125 
L 52.203125 0 
L 43.21875 0 
L 43.21875 8.296875 
Q 40.140625 3.328125 35.546875 0.953125 
Q 30.953125 -1.421875 24.3125 -1.421875 
Q 15.921875 -1.421875 10.953125 3.296875 
Q 6 8.015625 6 15.921875 
Q 6 25.140625 12.171875 29.828125 
Q 18.359375 34.515625 30.609375 34.515625 
L 43.21875 34.515625 
L 43.21875 35.40625 
Q 43.21875 41.609375 39.140625 45 
Q 35.0625 48.390625 27.6875 48.390625 
Q 23 48.390625 18.546875 47.265625 
Q 14.109375 46.140625 10.015625 43.890625 
L 10.015625 52.203125 
Q 14.9375 54.109375 19.578125 55.046875 
Q 24.21875 56 28.609375 56 
Q 40.484375 56 46.34375 49.84375 
Q 52.203125 43.703125 52.203125 31.203125 
z
" id="DejaVuSans-97"/>
      <path d="M 54.890625 54.6875 
L 35.109375 28.078125 
L 55.90625 0 
L 45.3125 0 
L 29.390625 21.484375 
L 13.484375 0 
L 2.875 0 
L 24.125 28.609375 
L 4.6875 54.6875 
L 15.28125 54.6875 
L 29.78125 35.203125 
L 44.28125 54.6875 
z
" id="DejaVuSans-120"/>
     </defs>
     <use xlink:href="#DejaVuSans-115"/>
     <use x="52.099609" xlink:href="#DejaVuSans-111"/>
     <use x="113.28125" xlink:href="#DejaVuSans-102"/>
     <use x="146.736328" xlink:href="#DejaVuSans-116"/>
     <use x="185.945312" xlink:href="#DejaVuSans-109"/>
     <use x="283.357422" xlink:href="#DejaVuSans-97"/>
     <use x="344.636719" xlink:href="#DejaVuSans-120"/>
    </g>
   </g>
   <g id="patch_33">
    <path d="M 406.032617 77.193906 
Q 396.084884 77.193906 385.019116 77.193906 
" style="fill:none;stroke:#000000;stroke-linecap:round;"/>
    <path d="M 400.832617 74.593906 
L 406.032617 77.193906 
L 400.832617 79.793906 
" style="fill:none;stroke:#000000;stroke-linecap:round;"/>
   </g>
   <g id="text_20">
    <g id="patch_34">
     <path d="M 458.204717 87.384687 
L 464.704717 87.384687 
Q 468.604717 87.384687 468.604717 83.484687 
L 468.604717 70.903125 
Q 468.604717 67.003125 464.704717 67.003125 
L 458.204717 67.003125 
Q 454.304717 67.003125 454.304717 70.903125 
L 454.304717 83.484687 
Q 454.304717 87.384687 458.204717 87.384687 
z
" style="fill:none;"/>
    </g>
    <!-- $\hat{y}$ -->
    <g transform="translate(458.204717 80.754688)scale(0.13 -0.13)">
     <defs>
      <path d="M 13.484375 53.8125 
L 11.53125 55.90625 
L 25 69.390625 
L 38.375 55.90625 
L 36.375 53.8125 
L 25 63.8125 
z
" id="Cmr10-94"/>
      <path d="M 8.40625 -14.3125 
Q 10.5 -17.921875 15.71875 -17.921875 
Q 20.453125 -17.921875 23.921875 -14.59375 
Q 27.390625 -11.28125 29.515625 -6.5625 
Q 31.640625 -1.859375 32.8125 3.078125 
Q 28.375 -1.125 23.1875 -1.125 
Q 19.234375 -1.125 16.453125 0.234375 
Q 13.671875 1.609375 12.125 4.3125 
Q 10.59375 7.03125 10.59375 10.890625 
Q 10.59375 14.15625 11.46875 17.59375 
Q 12.359375 21.046875 13.9375 25.265625 
Q 15.53125 29.5 16.703125 32.625 
Q 18.015625 36.28125 18.015625 38.625 
Q 18.015625 41.609375 15.828125 41.609375 
Q 11.859375 41.609375 9.296875 37.53125 
Q 6.734375 33.453125 5.515625 28.421875 
Q 5.328125 27.78125 4.6875 27.78125 
L 3.515625 27.78125 
Q 2.6875 27.78125 2.6875 28.71875 
L 2.6875 29 
Q 4.296875 34.96875 7.609375 39.578125 
Q 10.9375 44.1875 16.015625 44.1875 
Q 19.578125 44.1875 22.046875 41.84375 
Q 24.515625 39.5 24.515625 35.890625 
Q 24.515625 34.03125 23.6875 31.984375 
Q 23.25 30.765625 21.6875 26.65625 
Q 20.125 22.5625 19.28125 19.875 
Q 18.453125 17.1875 17.921875 14.59375 
Q 17.390625 12.015625 17.390625 9.421875 
Q 17.390625 6.109375 18.796875 3.8125 
Q 20.21875 1.515625 23.296875 1.515625 
Q 29.5 1.515625 34.421875 9.078125 
L 42 39.890625 
Q 42.328125 41.21875 43.546875 42.15625 
Q 44.78125 43.109375 46.1875 43.109375 
Q 47.40625 43.109375 48.3125 42.328125 
Q 49.21875 41.546875 49.21875 40.28125 
Q 49.21875 39.703125 49.125 39.5 
L 39.203125 -0.296875 
Q 37.890625 -5.421875 34.375 -10.109375 
Q 30.859375 -14.796875 25.90625 -17.65625 
Q 20.953125 -20.515625 15.578125 -20.515625 
Q 12.984375 -20.515625 10.4375 -19.5 
Q 7.90625 -18.5 6.34375 -16.5 
Q 4.78125 -14.5 4.78125 -11.8125 
Q 4.78125 -9.078125 6.390625 -7.078125 
Q 8.015625 -5.078125 10.6875 -5.078125 
Q 12.3125 -5.078125 13.40625 -6.078125 
Q 14.5 -7.078125 14.5 -8.6875 
Q 14.5 -10.984375 12.78125 -12.6875 
Q 11.078125 -14.40625 8.796875 -14.40625 
Q 8.6875 -14.359375 8.59375 -14.328125 
Q 8.5 -14.3125 8.40625 -14.3125 
z
" id="Cmmi10-121"/>
     </defs>
     <use transform="translate(5.724609 3.609375)" xlink:href="#Cmr10-94"/>
     <use transform="translate(0 0.734375)" xlink:href="#Cmmi10-121"/>
    </g>
   </g>
   <g id="patch_35">
    <path d="M 451.187834 77.193906 
Q 441.918481 77.193906 431.531095 77.193906 
" style="fill:none;stroke:#000000;stroke-linecap:round;"/>
    <path d="M 445.987834 74.593906 
L 451.187834 77.193906 
L 445.987834 79.793906 
" style="fill:none;stroke:#000000;stroke-linecap:round;"/>
   </g>
  </g>
 </g>
</svg>
