<?xml version="1.0" encoding="utf-8" standalone="no"?>
<!DOCTYPE svg PUBLIC "-//W3C//DTD SVG 1.1//EN"
  "http://www.w3.org/Graphics/SVG/1.1/DTD/svg11.dtd">
<svg height="236.058486pt" version="1.1" viewBox="0 0 485.584 236.058486" width="485.584pt" xmlns="http://www.w3.org/2000/svg" xmlns:xlink="http://www.w3.org/1999/xlink">
 <metadata>
  <rdf:RDF xmlns:cc="http://creativecommons.org/ns#" xmlns:dc="http://purl.org/dc/elements/1.1/" xmlns:rdf="http://www.w3.org/1999/02/22-rdf-syntax-ns#">
   <cc:Work>
    <dc:type rdf:resource="http://purl.org/dc/dcmitype/StillImage"/>
    <dc:date>2021-10-02T10:35:46.869748</dc:date>
    <dc:format>image/svg+xml</dc:format>
    <dc:creator>
     <cc:Agent>
      <dc:title>Matplotlib v3.4.3, https://matplotlib.org/</dc:title>
     </cc:Agent>
    </dc:creator>
   </cc:Work>
  </rdf:RDF>
 </metadata>
 <defs>
  <style type="text/css">*{stroke-linecap:butt;stroke-linejoin:round;}</style>
 </defs>
 <g id="figure_1">
  <g id="patch_1">
   <path d="M 0 236.058486 
L 485.584 236.058486 
L 485.584 0 
L 0 0 
z
" style="fill:none;"/>
  </g>
  <g id="axes_1">
   <g id="text_1">
    <g id="patch_2">
     <path d="M 23.645 23.681563 
L 28.455 23.681563 
Q 32.355 23.681563 32.355 19.781563 
L 32.355 7.2 
Q 32.355 3.3 28.455 3.3 
L 23.645 3.3 
Q 19.745 3.3 19.745 7.2 
L 19.745 19.781563 
Q 19.745 23.681563 23.645 23.681563 
z
" style="fill:none;"/>
    </g>
    <!-- $\mathrm{I}$ -->
    <g transform="translate(23.645 17.077969)scale(0.13 -0.13)">
     <defs>
      <path d="M 166 0 
L 166 225 
Q 856 225 856 428 
L 856 3944 
Q 856 4147 166 4147 
L 166 4372 
L 2144 4372 
L 2144 4147 
Q 1453 4147 1453 3944 
L 1453 428 
Q 1453 225 2144 225 
L 2144 0 
L 166 0 
z
" id="Cmr10-49" transform="scale(0.015625)"/>
     </defs>
     <use transform="translate(0 0.6875)" xlink:href="#Cmr10-49"/>
    </g>
   </g>
   <g id="text_2">
    <g id="patch_3">
     <path d="M 92.32 23.681563 
L 138.34 23.681563 
Q 142.24 23.681563 142.24 19.781563 
L 142.24 7.2 
Q 142.24 3.3 138.34 3.3 
L 92.32 3.3 
Q 88.42 3.3 88.42 7.2 
L 88.42 19.781563 
Q 88.42 23.681563 92.32 23.681563 
z
" style="fill:none;"/>
    </g>
    <!--    $o_{4343}$   -->
    <g transform="translate(92.32 17.077969)scale(0.13 -0.13)">
     <defs>
      <path id="DejaVuSans-20" transform="scale(0.015625)"/>
      <path d="M 1288 -72 
Q 984 -72 748 72 
Q 513 216 384 459 
Q 256 703 256 1013 
Q 256 1447 498 1872 
Q 741 2297 1142 2562 
Q 1544 2828 1984 2828 
Q 2222 2828 2408 2747 
Q 2594 2666 2731 2519 
Q 2869 2372 2942 2175 
Q 3016 1978 3016 1747 
Q 3016 1413 2875 1089 
Q 2734 766 2489 502 
Q 2244 238 1928 83 
Q 1613 -72 1288 -72 
z
M 1300 97 
Q 1584 97 1820 290 
Q 2056 484 2207 779 
Q 2359 1075 2440 1403 
Q 2522 1731 2522 1997 
Q 2522 2275 2383 2469 
Q 2244 2663 1972 2663 
Q 1597 2663 1315 2342 
Q 1034 2022 892 1576 
Q 750 1131 750 763 
Q 750 484 892 290 
Q 1034 97 1300 97 
z
" id="Cmmi10-6f" transform="scale(0.015625)"/>
      <path d="M 178 1056 
L 178 1281 
L 2156 4231 
Q 2178 4263 2222 4263 
L 2316 4263 
Q 2388 4263 2388 4191 
L 2388 1281 
L 3016 1281 
L 3016 1056 
L 2388 1056 
L 2388 428 
Q 2388 297 2575 261 
Q 2763 225 3009 225 
L 3009 0 
L 1247 0 
L 1247 225 
Q 1494 225 1681 261 
Q 1869 297 1869 428 
L 1869 1056 
L 178 1056 
z
M 391 1281 
L 1906 1281 
L 1906 3547 
L 391 1281 
z
" id="Cmr10-34" transform="scale(0.015625)"/>
      <path d="M 609 494 
Q 759 275 1012 169 
Q 1266 63 1556 63 
Q 1928 63 2084 380 
Q 2241 697 2241 1100 
Q 2241 1281 2208 1462 
Q 2175 1644 2097 1800 
Q 2019 1956 1883 2050 
Q 1747 2144 1550 2144 
L 1125 2144 
Q 1069 2144 1069 2203 
L 1069 2259 
Q 1069 2309 1125 2309 
L 1478 2338 
Q 1703 2338 1851 2506 
Q 2000 2675 2069 2917 
Q 2138 3159 2138 3378 
Q 2138 3684 1994 3881 
Q 1850 4078 1556 4078 
Q 1313 4078 1091 3986 
Q 869 3894 738 3706 
Q 750 3709 759 3711 
Q 769 3713 781 3713 
Q 925 3713 1022 3613 
Q 1119 3513 1119 3372 
Q 1119 3234 1022 3134 
Q 925 3034 781 3034 
Q 641 3034 541 3134 
Q 441 3234 441 3372 
Q 441 3647 606 3850 
Q 772 4053 1033 4158 
Q 1294 4263 1556 4263 
Q 1750 4263 1965 4205 
Q 2181 4147 2356 4039 
Q 2531 3931 2642 3762 
Q 2753 3594 2753 3378 
Q 2753 3109 2633 2881 
Q 2513 2653 2303 2487 
Q 2094 2322 1844 2241 
Q 2122 2188 2372 2031 
Q 2622 1875 2773 1631 
Q 2925 1388 2925 1106 
Q 2925 753 2731 467 
Q 2538 181 2222 20 
Q 1906 -141 1556 -141 
Q 1256 -141 954 -26 
Q 653 88 461 316 
Q 269 544 269 863 
Q 269 1022 375 1128 
Q 481 1234 641 1234 
Q 744 1234 830 1186 
Q 916 1138 964 1050 
Q 1013 963 1013 863 
Q 1013 706 903 600 
Q 794 494 641 494 
L 609 494 
z
" id="Cmr10-33" transform="scale(0.015625)"/>
     </defs>
     <use transform="translate(0 0.8125)" xlink:href="#DejaVuSans-20"/>
     <use transform="translate(31.787109 0.8125)" xlink:href="#DejaVuSans-20"/>
     <use transform="translate(63.574219 0.8125)" xlink:href="#DejaVuSans-20"/>
     <use transform="translate(95.361328 0.8125)" xlink:href="#Cmmi10-6f"/>
     <use transform="translate(143.75 -16.19375)scale(0.7)" xlink:href="#Cmr10-34"/>
     <use transform="translate(178.75 -16.19375)scale(0.7)" xlink:href="#Cmr10-33"/>
     <use transform="translate(213.75 -16.19375)scale(0.7)" xlink:href="#Cmr10-34"/>
     <use transform="translate(248.75 -16.19375)scale(0.7)" xlink:href="#Cmr10-33"/>
     <use transform="translate(290.127344 0.8125)" xlink:href="#DejaVuSans-20"/>
     <use transform="translate(321.914453 0.8125)" xlink:href="#DejaVuSans-20"/>
    </g>
   </g>
   <g id="text_3">
    <g id="patch_4">
     <path d="M 174.97 23.681563 
L 234.25 23.681563 
Q 238.15 23.681563 238.15 19.781563 
L 238.15 7.2 
Q 238.15 3.3 234.25 3.3 
L 174.97 3.3 
Q 171.07 3.3 171.07 7.2 
L 171.07 19.781563 
Q 171.07 23.681563 174.97 23.681563 
z
" style="fill:none;"/>
    </g>
    <!--       $E$       -->
    <g transform="translate(174.97 17.077969)scale(0.13 -0.13)">
     <defs>
      <path d="M 300 0 
Q 238 0 238 84 
Q 241 100 250 139 
Q 259 178 276 201 
Q 294 225 319 225 
Q 709 225 863 269 
Q 947 297 984 441 
L 1863 3956 
Q 1875 4019 1875 4044 
Q 1875 4113 1797 4122 
Q 1678 4147 1338 4147 
Q 1275 4147 1275 4231 
Q 1278 4247 1287 4286 
Q 1297 4325 1314 4348 
Q 1331 4372 1356 4372 
L 4825 4372 
Q 4891 4372 4891 4288 
L 4738 2963 
Q 4738 2947 4714 2926 
Q 4691 2906 4672 2906 
L 4616 2906 
Q 4550 2906 4550 2988 
Q 4588 3300 4588 3450 
Q 4588 3706 4500 3848 
Q 4413 3991 4267 4053 
Q 4122 4116 3945 4131 
Q 3769 4147 3481 4147 
L 2753 4147 
Q 2578 4147 2522 4117 
Q 2466 4088 2419 3928 
L 2034 2381 
L 2534 2381 
Q 2859 2381 3025 2426 
Q 3191 2472 3287 2615 
Q 3384 2759 3463 3072 
Q 3469 3094 3486 3111 
Q 3503 3128 3525 3128 
L 3584 3128 
Q 3647 3128 3647 3047 
L 3250 1466 
Q 3238 1409 3188 1409 
L 3128 1409 
Q 3066 1409 3066 1491 
Q 3128 1747 3128 1869 
Q 3128 2056 2959 2106 
Q 2791 2156 2509 2156 
L 1978 2156 
L 1544 416 
Q 1516 338 1516 275 
Q 1516 225 1734 225 
L 2509 225 
Q 2972 225 3259 297 
Q 3547 369 3736 526 
Q 3925 684 4062 928 
Q 4200 1172 4397 1638 
Q 4409 1678 4453 1678 
L 4513 1678 
Q 4538 1678 4556 1656 
Q 4575 1634 4575 1606 
Q 4575 1594 4569 1581 
L 3909 38 
Q 3897 0 3859 0 
L 300 0 
z
" id="Cmmi10-45" transform="scale(0.015625)"/>
     </defs>
     <use transform="translate(0 0.6875)" xlink:href="#DejaVuSans-20"/>
     <use transform="translate(31.787109 0.6875)" xlink:href="#DejaVuSans-20"/>
     <use transform="translate(63.574219 0.6875)" xlink:href="#DejaVuSans-20"/>
     <use transform="translate(95.361328 0.6875)" xlink:href="#DejaVuSans-20"/>
     <use transform="translate(127.148438 0.6875)" xlink:href="#DejaVuSans-20"/>
     <use transform="translate(158.935547 0.6875)" xlink:href="#DejaVuSans-20"/>
     <use transform="translate(190.722656 0.6875)" xlink:href="#Cmmi10-45"/>
     <use transform="translate(264.501953 0.6875)" xlink:href="#DejaVuSans-20"/>
     <use transform="translate(296.289062 0.6875)" xlink:href="#DejaVuSans-20"/>
     <use transform="translate(328.076172 0.6875)" xlink:href="#DejaVuSans-20"/>
     <use transform="translate(359.863281 0.6875)" xlink:href="#DejaVuSans-20"/>
     <use transform="translate(391.650391 0.6875)" xlink:href="#DejaVuSans-20"/>
     <use transform="translate(423.4375 0.6875)" xlink:href="#DejaVuSans-20"/>
    </g>
   </g>
   <g id="patch_5">
    <path d="M 167.949492 13.490781 
Q 156.654228 13.490781 144.24093 13.490781 
" style="fill:none;stroke:#000000;stroke-linecap:round;"/>
    <path d="M 162.749492 10.890781 
L 167.949492 13.490781 
L 162.749492 16.090781 
" style="fill:none;stroke:#000000;stroke-linecap:round;"/>
   </g>
   <g id="text_4">
    <g id="patch_6">
     <path d="M 271.01 23.681563 
L 316.77 23.681563 
Q 320.67 23.681563 320.67 19.781563 
L 320.67 7.2 
Q 320.67 3.3 316.77 3.3 
L 271.01 3.3 
Q 267.11 3.3 267.11 7.2 
L 267.11 19.781563 
Q 267.11 23.681563 271.01 23.681563 
z
" style="fill:none;"/>
    </g>
    <!--    $e_{4343}$   -->
    <g transform="translate(271.01 17.077969)scale(0.13 -0.13)">
     <defs>
      <path d="M 1288 -72 
Q 981 -72 751 87 
Q 522 247 401 517 
Q 281 788 281 1088 
Q 281 1544 511 1945 
Q 741 2347 1134 2587 
Q 1528 2828 1978 2828 
Q 2253 2828 2458 2686 
Q 2663 2544 2663 2278 
Q 2663 1909 2369 1729 
Q 2075 1550 1706 1508 
Q 1338 1466 891 1466 
L 872 1466 
Q 769 1084 769 813 
Q 769 528 900 312 
Q 1031 97 1300 97 
Q 1681 97 2032 272 
Q 2384 447 2606 756 
Q 2625 775 2656 775 
Q 2688 775 2720 739 
Q 2753 703 2753 672 
Q 2753 647 2741 634 
Q 2506 306 2109 117 
Q 1713 -72 1288 -72 
z
M 909 1631 
Q 1281 1631 1597 1665 
Q 1913 1700 2169 1839 
Q 2425 1978 2425 2272 
Q 2425 2391 2359 2480 
Q 2294 2569 2189 2616 
Q 2084 2663 1972 2663 
Q 1700 2663 1483 2516 
Q 1266 2369 1125 2133 
Q 984 1897 909 1631 
z
" id="Cmmi10-65" transform="scale(0.015625)"/>
     </defs>
     <use transform="translate(0 0.8125)" xlink:href="#DejaVuSans-20"/>
     <use transform="translate(31.787109 0.8125)" xlink:href="#DejaVuSans-20"/>
     <use transform="translate(63.574219 0.8125)" xlink:href="#DejaVuSans-20"/>
     <use transform="translate(95.361328 0.8125)" xlink:href="#Cmmi10-65"/>
     <use transform="translate(141.845703 -16.19375)scale(0.7)" xlink:href="#Cmr10-34"/>
     <use transform="translate(176.845703 -16.19375)scale(0.7)" xlink:href="#Cmr10-33"/>
     <use transform="translate(211.845703 -16.19375)scale(0.7)" xlink:href="#Cmr10-34"/>
     <use transform="translate(246.845703 -16.19375)scale(0.7)" xlink:href="#Cmr10-33"/>
     <use transform="translate(288.223047 0.8125)" xlink:href="#DejaVuSans-20"/>
     <use transform="translate(320.010156 0.8125)" xlink:href="#DejaVuSans-20"/>
    </g>
   </g>
   <g id="patch_7">
    <path d="M 263.994603 13.490781 
Q 252.630239 13.490781 240.147842 13.490781 
" style="fill:none;stroke:#000000;stroke-linecap:round;"/>
    <path d="M 258.794603 10.890781 
L 263.994603 13.490781 
L 258.794603 16.090781 
" style="fill:none;stroke:#000000;stroke-linecap:round;"/>
   </g>
   <g id="text_5">
    <g id="patch_8">
     <path d="M 11.945 65.496947 
L 40.155 65.496947 
Q 44.055 65.496947 44.055 61.596947 
L 44.055 49.015385 
Q 44.055 45.115385 40.155 45.115385 
L 11.945 45.115385 
Q 8.045 45.115385 8.045 49.015385 
L 8.045 61.596947 
Q 8.045 65.496947 11.945 65.496947 
z
" style="fill:none;"/>
    </g>
    <!-- $\mathrm{want}$ -->
    <g transform="translate(11.945 58.893353)scale(0.13 -0.13)">
     <defs>
      <path d="M 1416 0 
L 588 2328 
Q 531 2469 425 2501 
Q 319 2534 116 2534 
L 116 2759 
L 1434 2759 
L 1434 2534 
Q 1056 2534 1056 2375 
Q 1059 2366 1061 2356 
Q 1063 2347 1063 2328 
L 1678 603 
L 2209 2106 
L 2125 2328 
Q 2075 2469 1965 2501 
Q 1856 2534 1656 2534 
L 1656 2759 
L 2919 2759 
L 2919 2534 
Q 2541 2534 2541 2375 
Q 2541 2350 2547 2328 
L 3188 525 
L 3769 2156 
Q 3781 2206 3781 2247 
Q 3781 2381 3667 2457 
Q 3553 2534 3413 2534 
L 3413 2759 
L 4500 2759 
L 4500 2534 
Q 4306 2534 4167 2432 
Q 4028 2331 3963 2156 
L 3200 0 
Q 3178 -72 3103 -72 
L 3053 -72 
Q 2978 -72 2956 0 
L 2309 1825 
L 1663 0 
Q 1631 -72 1563 -72 
L 1516 -72 
Q 1438 -72 1416 0 
z
" id="Cmr10-77" transform="scale(0.015625)"/>
      <path d="M 256 628 
Q 256 1009 556 1248 
Q 856 1488 1276 1586 
Q 1697 1684 2075 1684 
L 2075 1947 
Q 2075 2131 1994 2304 
Q 1913 2478 1759 2589 
Q 1606 2700 1422 2700 
Q 997 2700 775 2509 
Q 897 2509 976 2417 
Q 1056 2325 1056 2203 
Q 1056 2075 965 1984 
Q 875 1894 750 1894 
Q 622 1894 531 1984 
Q 441 2075 441 2203 
Q 441 2541 747 2705 
Q 1053 2869 1422 2869 
Q 1681 2869 1943 2758 
Q 2206 2647 2373 2440 
Q 2541 2234 2541 1959 
L 2541 519 
Q 2541 394 2594 289 
Q 2647 184 2759 184 
Q 2866 184 2917 290 
Q 2969 397 2969 519 
L 2969 928 
L 3156 928 
L 3156 519 
Q 3156 375 3081 245 
Q 3006 116 2879 39 
Q 2753 -38 2606 -38 
Q 2419 -38 2283 107 
Q 2147 253 2131 453 
Q 2013 213 1781 70 
Q 1550 -72 1288 -72 
Q 1044 -72 808 0 
Q 572 72 414 226 
Q 256 381 256 628 
z
M 775 628 
Q 775 403 940 250 
Q 1106 97 1331 97 
Q 1538 97 1706 200 
Q 1875 303 1975 481 
Q 2075 659 2075 856 
L 2075 1522 
Q 1784 1522 1479 1426 
Q 1175 1331 975 1128 
Q 775 925 775 628 
z
" id="Cmr10-61" transform="scale(0.015625)"/>
      <path d="M 191 0 
L 191 225 
Q 409 225 550 259 
Q 691 294 691 428 
L 691 2175 
Q 691 2347 639 2423 
Q 588 2500 491 2517 
Q 394 2534 191 2534 
L 191 2759 
L 1119 2828 
L 1119 2203 
Q 1247 2478 1498 2653 
Q 1750 2828 2047 2828 
Q 2491 2828 2714 2615 
Q 2938 2403 2938 1966 
L 2938 428 
Q 2938 294 3078 259 
Q 3219 225 3438 225 
L 3438 0 
L 1972 0 
L 1972 225 
Q 2191 225 2331 259 
Q 2472 294 2472 428 
L 2472 1947 
Q 2472 2259 2381 2461 
Q 2291 2663 2009 2663 
Q 1638 2663 1398 2366 
Q 1159 2069 1159 1691 
L 1159 428 
Q 1159 294 1300 259 
Q 1441 225 1656 225 
L 1656 0 
L 191 0 
z
" id="Cmr10-6e" transform="scale(0.015625)"/>
      <path d="M 653 769 
L 653 2534 
L 122 2534 
L 122 2700 
Q 541 2700 737 3090 
Q 934 3481 934 3938 
L 1119 3938 
L 1119 2759 
L 2022 2759 
L 2022 2534 
L 1119 2534 
L 1119 781 
Q 1119 516 1208 316 
Q 1297 116 1528 116 
Q 1747 116 1844 327 
Q 1941 538 1941 781 
L 1941 1159 
L 2125 1159 
L 2125 769 
Q 2125 569 2051 373 
Q 1978 178 1834 53 
Q 1691 -72 1484 -72 
Q 1100 -72 876 158 
Q 653 388 653 769 
z
" id="Cmr10-74" transform="scale(0.015625)"/>
     </defs>
     <use transform="translate(0 0.46875)" xlink:href="#Cmr10-77"/>
     <use transform="translate(72.216797 0.46875)" xlink:href="#Cmr10-61"/>
     <use transform="translate(122.216797 0.46875)" xlink:href="#Cmr10-6e"/>
     <use transform="translate(177.734375 0.46875)" xlink:href="#Cmr10-74"/>
    </g>
   </g>
   <g id="text_6">
    <g id="patch_9">
     <path d="M 92.32 65.496947 
L 138.34 65.496947 
Q 142.24 65.496947 142.24 61.596947 
L 142.24 49.015385 
Q 142.24 45.115385 138.34 45.115385 
L 92.32 45.115385 
Q 88.42 45.115385 88.42 49.015385 
L 88.42 61.596947 
Q 88.42 65.496947 92.32 65.496947 
z
" style="fill:none;"/>
    </g>
    <!--    $o_{9556}$   -->
    <g transform="translate(92.32 58.893353)scale(0.13 -0.13)">
     <defs>
      <path d="M 722 269 
Q 897 63 1331 63 
Q 1575 63 1786 228 
Q 1997 394 2113 634 
Q 2247 906 2284 1214 
Q 2322 1522 2322 1978 
Q 2213 1719 2008 1553 
Q 1803 1388 1538 1388 
Q 1166 1388 873 1589 
Q 581 1791 425 2120 
Q 269 2450 269 2822 
Q 269 3206 444 3539 
Q 619 3872 928 4067 
Q 1238 4263 1631 4263 
Q 2019 4263 2280 4052 
Q 2541 3841 2678 3508 
Q 2816 3175 2870 2803 
Q 2925 2431 2925 2069 
Q 2925 1575 2744 1061 
Q 2563 547 2202 203 
Q 1841 -141 1331 -141 
Q 953 -141 690 37 
Q 428 216 428 575 
Q 428 706 517 795 
Q 606 884 738 884 
Q 866 884 955 795 
Q 1044 706 1044 575 
Q 1044 450 953 359 
Q 863 269 738 269 
L 722 269 
z
M 1563 1556 
Q 1825 1556 1992 1732 
Q 2159 1909 2234 2171 
Q 2309 2434 2309 2694 
L 2309 2816 
L 2309 2841 
Q 2309 3322 2168 3700 
Q 2028 4078 1631 4078 
Q 1378 4078 1220 3967 
Q 1063 3856 988 3672 
Q 913 3488 892 3278 
Q 872 3069 872 2822 
Q 872 2459 906 2203 
Q 941 1947 1094 1751 
Q 1247 1556 1563 1556 
z
" id="Cmr10-39" transform="scale(0.015625)"/>
      <path d="M 556 728 
Q 622 541 758 387 
Q 894 234 1080 148 
Q 1266 63 1466 63 
Q 1928 63 2103 422 
Q 2278 781 2278 1294 
Q 2278 1516 2270 1667 
Q 2263 1819 2228 1959 
Q 2169 2184 2020 2353 
Q 1872 2522 1656 2522 
Q 1441 2522 1286 2456 
Q 1131 2391 1034 2303 
Q 938 2216 863 2119 
Q 788 2022 769 2016 
L 697 2016 
Q 681 2016 657 2036 
Q 634 2056 634 2075 
L 634 4213 
Q 634 4228 654 4245 
Q 675 4263 697 4263 
L 716 4263 
Q 1147 4056 1631 4056 
Q 2106 4056 2547 4263 
L 2566 4263 
Q 2588 4263 2606 4247 
Q 2625 4231 2625 4213 
L 2625 4153 
Q 2625 4122 2613 4122 
Q 2394 3831 2064 3668 
Q 1734 3506 1381 3506 
Q 1125 3506 856 3578 
L 856 2369 
Q 1069 2541 1236 2614 
Q 1403 2688 1663 2688 
Q 2016 2688 2295 2484 
Q 2575 2281 2725 1954 
Q 2875 1628 2875 1288 
Q 2875 903 2686 575 
Q 2497 247 2172 53 
Q 1847 -141 1466 -141 
Q 1150 -141 886 21 
Q 622 184 470 459 
Q 319 734 319 1044 
Q 319 1188 412 1278 
Q 506 1369 647 1369 
Q 788 1369 883 1276 
Q 978 1184 978 1044 
Q 978 906 883 811 
Q 788 716 647 716 
Q 625 716 597 720 
Q 569 725 556 728 
z
" id="Cmr10-35" transform="scale(0.015625)"/>
      <path d="M 1600 -141 
Q 1203 -141 937 70 
Q 672 281 526 617 
Q 381 953 325 1322 
Q 269 1691 269 2069 
Q 269 2575 466 3084 
Q 663 3594 1045 3928 
Q 1428 4263 1953 4263 
Q 2172 4263 2361 4180 
Q 2550 4097 2658 3936 
Q 2766 3775 2766 3547 
Q 2766 3416 2677 3327 
Q 2588 3238 2456 3238 
Q 2331 3238 2240 3328 
Q 2150 3419 2150 3547 
Q 2150 3672 2240 3762 
Q 2331 3853 2456 3853 
L 2491 3853 
Q 2409 3969 2261 4023 
Q 2113 4078 1953 4078 
Q 1759 4078 1595 3993 
Q 1431 3909 1300 3765 
Q 1169 3622 1081 3448 
Q 994 3275 945 3053 
Q 897 2831 884 2637 
Q 872 2444 872 2150 
Q 984 2413 1190 2580 
Q 1397 2747 1656 2747 
Q 1941 2747 2175 2631 
Q 2409 2516 2578 2311 
Q 2747 2106 2836 1843 
Q 2925 1581 2925 1313 
Q 2925 938 2758 598 
Q 2591 259 2287 59 
Q 1984 -141 1600 -141 
z
M 1600 63 
Q 1847 63 1997 175 
Q 2147 288 2217 473 
Q 2288 659 2305 848 
Q 2322 1038 2322 1313 
Q 2322 1675 2287 1931 
Q 2253 2188 2100 2383 
Q 1947 2578 1631 2578 
Q 1372 2578 1205 2403 
Q 1038 2228 961 1961 
Q 884 1694 884 1447 
Q 884 1363 891 1319 
Q 891 1309 889 1303 
Q 888 1297 884 1288 
Q 884 1013 940 731 
Q 997 450 1156 256 
Q 1316 63 1600 63 
z
" id="Cmr10-36" transform="scale(0.015625)"/>
     </defs>
     <use transform="translate(0 0.8125)" xlink:href="#DejaVuSans-20"/>
     <use transform="translate(31.787109 0.8125)" xlink:href="#DejaVuSans-20"/>
     <use transform="translate(63.574219 0.8125)" xlink:href="#DejaVuSans-20"/>
     <use transform="translate(95.361328 0.8125)" xlink:href="#Cmmi10-6f"/>
     <use transform="translate(143.75 -16.19375)scale(0.7)" xlink:href="#Cmr10-39"/>
     <use transform="translate(178.75 -16.19375)scale(0.7)" xlink:href="#Cmr10-35"/>
     <use transform="translate(213.75 -16.19375)scale(0.7)" xlink:href="#Cmr10-35"/>
     <use transform="translate(248.75 -16.19375)scale(0.7)" xlink:href="#Cmr10-36"/>
     <use transform="translate(290.127344 0.8125)" xlink:href="#DejaVuSans-20"/>
     <use transform="translate(321.914453 0.8125)" xlink:href="#DejaVuSans-20"/>
    </g>
   </g>
   <g id="text_7">
    <g id="patch_10">
     <path d="M 174.97 65.496947 
L 234.25 65.496947 
Q 238.15 65.496947 238.15 61.596947 
L 238.15 49.015385 
Q 238.15 45.115385 234.25 45.115385 
L 174.97 45.115385 
Q 171.07 45.115385 171.07 49.015385 
L 171.07 61.596947 
Q 171.07 65.496947 174.97 65.496947 
z
" style="fill:none;"/>
    </g>
    <!--       $E$       -->
    <g transform="translate(174.97 58.893353)scale(0.13 -0.13)">
     <use transform="translate(0 0.6875)" xlink:href="#DejaVuSans-20"/>
     <use transform="translate(31.787109 0.6875)" xlink:href="#DejaVuSans-20"/>
     <use transform="translate(63.574219 0.6875)" xlink:href="#DejaVuSans-20"/>
     <use transform="translate(95.361328 0.6875)" xlink:href="#DejaVuSans-20"/>
     <use transform="translate(127.148438 0.6875)" xlink:href="#DejaVuSans-20"/>
     <use transform="translate(158.935547 0.6875)" xlink:href="#DejaVuSans-20"/>
     <use transform="translate(190.722656 0.6875)" xlink:href="#Cmmi10-45"/>
     <use transform="translate(264.501953 0.6875)" xlink:href="#DejaVuSans-20"/>
     <use transform="translate(296.289062 0.6875)" xlink:href="#DejaVuSans-20"/>
     <use transform="translate(328.076172 0.6875)" xlink:href="#DejaVuSans-20"/>
     <use transform="translate(359.863281 0.6875)" xlink:href="#DejaVuSans-20"/>
     <use transform="translate(391.650391 0.6875)" xlink:href="#DejaVuSans-20"/>
     <use transform="translate(423.4375 0.6875)" xlink:href="#DejaVuSans-20"/>
    </g>
   </g>
   <g id="patch_11">
    <path d="M 167.949492 55.306166 
Q 156.654228 55.306166 144.24093 55.306166 
" style="fill:none;stroke:#000000;stroke-linecap:round;"/>
    <path d="M 162.749492 52.706166 
L 167.949492 55.306166 
L 162.749492 57.906166 
" style="fill:none;stroke:#000000;stroke-linecap:round;"/>
   </g>
   <g id="text_8">
    <g id="patch_12">
     <path d="M 271.01 65.496947 
L 316.77 65.496947 
Q 320.67 65.496947 320.67 61.596947 
L 320.67 49.015385 
Q 320.67 45.115385 316.77 45.115385 
L 271.01 45.115385 
Q 267.11 45.115385 267.11 49.015385 
L 267.11 61.596947 
Q 267.11 65.496947 271.01 65.496947 
z
" style="fill:none;"/>
    </g>
    <!--    $e_{9556}$   -->
    <g transform="translate(271.01 58.893353)scale(0.13 -0.13)">
     <use transform="translate(0 0.8125)" xlink:href="#DejaVuSans-20"/>
     <use transform="translate(31.787109 0.8125)" xlink:href="#DejaVuSans-20"/>
     <use transform="translate(63.574219 0.8125)" xlink:href="#DejaVuSans-20"/>
     <use transform="translate(95.361328 0.8125)" xlink:href="#Cmmi10-65"/>
     <use transform="translate(141.845703 -16.19375)scale(0.7)" xlink:href="#Cmr10-39"/>
     <use transform="translate(176.845703 -16.19375)scale(0.7)" xlink:href="#Cmr10-35"/>
     <use transform="translate(211.845703 -16.19375)scale(0.7)" xlink:href="#Cmr10-35"/>
     <use transform="translate(246.845703 -16.19375)scale(0.7)" xlink:href="#Cmr10-36"/>
     <use transform="translate(288.223047 0.8125)" xlink:href="#DejaVuSans-20"/>
     <use transform="translate(320.010156 0.8125)" xlink:href="#DejaVuSans-20"/>
    </g>
   </g>
   <g id="patch_13">
    <path d="M 263.994603 55.306166 
Q 252.630239 55.306166 240.147842 55.306166 
" style="fill:none;stroke:#000000;stroke-linecap:round;"/>
    <path d="M 258.794603 52.706166 
L 263.994603 55.306166 
L 258.794603 57.906166 
" style="fill:none;stroke:#000000;stroke-linecap:round;"/>
   </g>
   <g id="text_9">
    <g id="patch_14">
     <path d="M 22.8 107.312332 
L 29.3 107.312332 
Q 33.2 107.312332 33.2 103.412332 
L 33.2 90.830769 
Q 33.2 86.930769 29.3 86.930769 
L 22.8 86.930769 
Q 18.9 86.930769 18.9 90.830769 
L 18.9 103.412332 
Q 18.9 107.312332 22.8 107.312332 
z
" style="fill:none;"/>
    </g>
    <!-- $\mathrm{a}$ -->
    <g transform="translate(22.8 100.708738)scale(0.13 -0.13)">
     <use transform="translate(0 0.171875)" xlink:href="#Cmr10-61"/>
    </g>
   </g>
   <g id="text_10">
    <g id="patch_15">
     <path d="M 92.905 107.312332 
L 137.755 107.312332 
Q 141.655 107.312332 141.655 103.412332 
L 141.655 90.830769 
Q 141.655 86.930769 137.755 86.930769 
L 92.905 86.930769 
Q 89.005 86.930769 89.005 90.830769 
L 89.005 103.412332 
Q 89.005 107.312332 92.905 107.312332 
z
" style="fill:none;"/>
    </g>
    <!--     $o_{1}$     -->
    <g transform="translate(92.905 100.708738)scale(0.13 -0.13)">
     <defs>
      <path d="M 594 0 
L 594 225 
Q 1394 225 1394 428 
L 1394 3788 
Q 1063 3628 556 3628 
L 556 3853 
Q 1341 3853 1741 4263 
L 1831 4263 
Q 1853 4263 1873 4245 
Q 1894 4228 1894 4206 
L 1894 428 
Q 1894 225 2694 225 
L 2694 0 
L 594 0 
z
" id="Cmr10-31" transform="scale(0.015625)"/>
     </defs>
     <use transform="translate(0 0.8125)" xlink:href="#DejaVuSans-20"/>
     <use transform="translate(31.787109 0.8125)" xlink:href="#DejaVuSans-20"/>
     <use transform="translate(63.574219 0.8125)" xlink:href="#DejaVuSans-20"/>
     <use transform="translate(95.361328 0.8125)" xlink:href="#DejaVuSans-20"/>
     <use transform="translate(127.148438 0.8125)" xlink:href="#Cmmi10-6f"/>
     <use transform="translate(175.537109 -16.19375)scale(0.7)" xlink:href="#Cmr10-31"/>
     <use transform="translate(216.914453 0.8125)" xlink:href="#DejaVuSans-20"/>
     <use transform="translate(248.701562 0.8125)" xlink:href="#DejaVuSans-20"/>
     <use transform="translate(280.488672 0.8125)" xlink:href="#DejaVuSans-20"/>
     <use transform="translate(312.275781 0.8125)" xlink:href="#DejaVuSans-20"/>
    </g>
   </g>
   <g id="text_11">
    <g id="patch_16">
     <path d="M 174.97 107.312332 
L 234.25 107.312332 
Q 238.15 107.312332 238.15 103.412332 
L 238.15 90.830769 
Q 238.15 86.930769 234.25 86.930769 
L 174.97 86.930769 
Q 171.07 86.930769 171.07 90.830769 
L 171.07 103.412332 
Q 171.07 107.312332 174.97 107.312332 
z
" style="fill:none;"/>
    </g>
    <!--       $E$       -->
    <g transform="translate(174.97 100.708738)scale(0.13 -0.13)">
     <use transform="translate(0 0.6875)" xlink:href="#DejaVuSans-20"/>
     <use transform="translate(31.787109 0.6875)" xlink:href="#DejaVuSans-20"/>
     <use transform="translate(63.574219 0.6875)" xlink:href="#DejaVuSans-20"/>
     <use transform="translate(95.361328 0.6875)" xlink:href="#DejaVuSans-20"/>
     <use transform="translate(127.148438 0.6875)" xlink:href="#DejaVuSans-20"/>
     <use transform="translate(158.935547 0.6875)" xlink:href="#DejaVuSans-20"/>
     <use transform="translate(190.722656 0.6875)" xlink:href="#Cmmi10-45"/>
     <use transform="translate(264.501953 0.6875)" xlink:href="#DejaVuSans-20"/>
     <use transform="translate(296.289062 0.6875)" xlink:href="#DejaVuSans-20"/>
     <use transform="translate(328.076172 0.6875)" xlink:href="#DejaVuSans-20"/>
     <use transform="translate(359.863281 0.6875)" xlink:href="#DejaVuSans-20"/>
     <use transform="translate(391.650391 0.6875)" xlink:href="#DejaVuSans-20"/>
     <use transform="translate(423.4375 0.6875)" xlink:href="#DejaVuSans-20"/>
    </g>
   </g>
   <g id="patch_17">
    <path d="M 167.951947 97.12155 
Q 156.361437 97.12155 143.652894 97.12155 
" style="fill:none;stroke:#000000;stroke-linecap:round;"/>
    <path d="M 162.751947 94.52155 
L 167.951947 97.12155 
L 162.751947 99.72155 
" style="fill:none;stroke:#000000;stroke-linecap:round;"/>
   </g>
   <g id="text_12">
    <g id="patch_18">
     <path d="M 271.595 107.312332 
L 316.185 107.312332 
Q 320.085 107.312332 320.085 103.412332 
L 320.085 90.830769 
Q 320.085 86.930769 316.185 86.930769 
L 271.595 86.930769 
Q 267.695 86.930769 267.695 90.830769 
L 267.695 103.412332 
Q 267.695 107.312332 271.595 107.312332 
z
" style="fill:none;"/>
    </g>
    <!--     $e_{1}$     -->
    <g transform="translate(271.595 100.708738)scale(0.13 -0.13)">
     <use transform="translate(0 0.8125)" xlink:href="#DejaVuSans-20"/>
     <use transform="translate(31.787109 0.8125)" xlink:href="#DejaVuSans-20"/>
     <use transform="translate(63.574219 0.8125)" xlink:href="#DejaVuSans-20"/>
     <use transform="translate(95.361328 0.8125)" xlink:href="#DejaVuSans-20"/>
     <use transform="translate(127.148438 0.8125)" xlink:href="#Cmmi10-65"/>
     <use transform="translate(173.632812 -16.19375)scale(0.7)" xlink:href="#Cmr10-31"/>
     <use transform="translate(215.010156 0.8125)" xlink:href="#DejaVuSans-20"/>
     <use transform="translate(246.797266 0.8125)" xlink:href="#DejaVuSans-20"/>
     <use transform="translate(278.584375 0.8125)" xlink:href="#DejaVuSans-20"/>
     <use transform="translate(310.371484 0.8125)" xlink:href="#DejaVuSans-20"/>
    </g>
   </g>
   <g id="patch_19">
    <path d="M 264.575321 97.12155 
Q 252.92194 97.12155 240.150524 97.12155 
" style="fill:none;stroke:#000000;stroke-linecap:round;"/>
    <path d="M 259.375321 94.52155 
L 264.575321 97.12155 
L 259.375321 99.72155 
" style="fill:none;stroke:#000000;stroke-linecap:round;"/>
   </g>
   <g id="text_13">
    <g id="patch_20">
     <path d="M 12.595 149.127716 
L 39.505 149.127716 
Q 43.405 149.127716 43.405 145.227716 
L 43.405 132.646154 
Q 43.405 128.746154 39.505 128.746154 
L 12.595 128.746154 
Q 8.695 128.746154 8.695 132.646154 
L 8.695 145.227716 
Q 8.695 149.127716 12.595 149.127716 
z
" style="fill:none;"/>
    </g>
    <!-- $\mathrm{glass}$ -->
    <g transform="translate(12.595 142.497716)scale(0.13 -0.13)">
     <defs>
      <path d="M 178 -500 
Q 178 -272 343 -101 
Q 509 69 738 141 
Q 609 238 542 384 
Q 475 531 475 697 
Q 475 997 666 1228 
Q 372 1516 372 1888 
Q 372 2088 458 2263 
Q 544 2438 697 2566 
Q 850 2694 1037 2761 
Q 1225 2828 1422 2828 
Q 1803 2828 2106 2606 
Q 2238 2747 2417 2823 
Q 2597 2900 2791 2900 
Q 2928 2900 3015 2801 
Q 3103 2703 3103 2566 
Q 3103 2488 3043 2428 
Q 2984 2369 2906 2369 
Q 2825 2369 2765 2428 
Q 2706 2488 2706 2566 
Q 2706 2684 2784 2731 
Q 2453 2731 2216 2503 
Q 2331 2388 2401 2220 
Q 2472 2053 2472 1888 
Q 2472 1616 2322 1398 
Q 2172 1181 1926 1061 
Q 1681 941 1422 941 
Q 1072 941 781 1131 
Q 691 1006 691 850 
Q 691 681 802 554 
Q 913 428 1081 428 
L 1606 428 
Q 1988 428 2294 359 
Q 2600 291 2808 84 
Q 3016 -122 3016 -500 
Q 3016 -781 2778 -967 
Q 2541 -1153 2211 -1236 
Q 1881 -1319 1600 -1319 
Q 1316 -1319 984 -1236 
Q 653 -1153 415 -967 
Q 178 -781 178 -500 
z
M 538 -500 
Q 538 -716 713 -861 
Q 888 -1006 1134 -1076 
Q 1381 -1147 1600 -1147 
Q 1816 -1147 2062 -1076 
Q 2309 -1006 2482 -861 
Q 2656 -716 2656 -500 
Q 2656 -166 2350 -67 
Q 2044 31 1606 31 
L 1081 31 
Q 934 31 811 -39 
Q 688 -109 613 -236 
Q 538 -363 538 -500 
z
M 1422 1113 
Q 1966 1113 1966 1888 
Q 1966 2222 1850 2439 
Q 1734 2656 1422 2656 
Q 1109 2656 993 2439 
Q 878 2222 878 1888 
Q 878 1675 922 1503 
Q 966 1331 1084 1222 
Q 1203 1113 1422 1113 
z
" id="Cmr10-67" transform="scale(0.015625)"/>
      <path d="M 197 0 
L 197 225 
Q 416 225 556 259 
Q 697 294 697 428 
L 697 3788 
Q 697 3959 645 4036 
Q 594 4113 497 4130 
Q 400 4147 197 4147 
L 197 4372 
L 1147 4441 
L 1147 428 
Q 1147 294 1287 259 
Q 1428 225 1644 225 
L 1644 0 
L 197 0 
z
" id="Cmr10-6c" transform="scale(0.015625)"/>
      <path d="M 213 -19 
L 213 1025 
Q 213 1075 269 1075 
L 347 1075 
Q 384 1075 397 1025 
Q 575 97 1259 97 
Q 1563 97 1767 234 
Q 1972 372 1972 659 
Q 1972 866 1812 1011 
Q 1653 1156 1434 1209 
L 1006 1294 
Q 791 1341 614 1437 
Q 438 1534 325 1695 
Q 213 1856 213 2069 
Q 213 2350 361 2529 
Q 509 2709 746 2789 
Q 984 2869 1259 2869 
Q 1588 2869 1831 2694 
L 2016 2853 
Q 2016 2869 2047 2869 
L 2094 2869 
Q 2113 2869 2128 2851 
Q 2144 2834 2144 2816 
L 2144 1978 
Q 2144 1919 2094 1919 
L 2016 1919 
Q 1959 1919 1959 1978 
Q 1959 2313 1773 2516 
Q 1588 2719 1253 2719 
Q 966 2719 755 2612 
Q 544 2506 544 2247 
Q 544 2069 695 1955 
Q 847 1841 1050 1791 
L 1484 1709 
Q 1703 1659 1892 1540 
Q 2081 1422 2192 1240 
Q 2303 1059 2303 831 
Q 2303 600 2223 429 
Q 2144 259 2001 146 
Q 1859 34 1665 -19 
Q 1472 -72 1259 -72 
Q 859 -72 575 197 
L 341 -56 
Q 341 -72 306 -72 
L 269 -72 
Q 213 -72 213 -19 
z
" id="Cmr10-73" transform="scale(0.015625)"/>
     </defs>
     <use transform="translate(0 0.609375)" xlink:href="#Cmr10-67"/>
     <use transform="translate(50 0.609375)" xlink:href="#Cmr10-6c"/>
     <use transform="translate(77.685547 0.609375)" xlink:href="#Cmr10-61"/>
     <use transform="translate(127.685547 0.609375)" xlink:href="#Cmr10-73"/>
     <use transform="translate(167.089844 0.609375)" xlink:href="#Cmr10-73"/>
    </g>
   </g>
   <g id="text_14">
    <g id="patch_21">
     <path d="M 92.32 149.127716 
L 138.34 149.127716 
Q 142.24 149.127716 142.24 145.227716 
L 142.24 132.646154 
Q 142.24 128.746154 138.34 128.746154 
L 92.32 128.746154 
Q 88.42 128.746154 88.42 132.646154 
L 88.42 145.227716 
Q 88.42 149.127716 92.32 149.127716 
z
" style="fill:none;"/>
    </g>
    <!--    $o_{3852}$   -->
    <g transform="translate(92.32 142.524123)scale(0.13 -0.13)">
     <defs>
      <path d="M 269 972 
Q 269 1356 522 1651 
Q 775 1947 1172 2144 
L 934 2297 
Q 716 2441 578 2680 
Q 441 2919 441 3181 
Q 441 3488 602 3734 
Q 763 3981 1030 4122 
Q 1297 4263 1600 4263 
Q 1884 4263 2148 4147 
Q 2413 4031 2583 3815 
Q 2753 3600 2753 3303 
Q 2753 3088 2651 2903 
Q 2550 2719 2373 2572 
Q 2197 2425 1997 2322 
L 2363 2088 
Q 2616 1922 2770 1653 
Q 2925 1384 2925 1088 
Q 2925 741 2739 456 
Q 2553 172 2247 15 
Q 1941 -141 1600 -141 
Q 1269 -141 961 -6 
Q 653 128 461 383 
Q 269 638 269 972 
z
M 616 972 
Q 616 719 755 509 
Q 894 300 1122 181 
Q 1350 63 1600 63 
Q 1972 63 2275 280 
Q 2578 497 2578 856 
Q 2578 978 2529 1098 
Q 2481 1219 2395 1317 
Q 2309 1416 2203 1478 
L 1344 2034 
Q 1144 1928 976 1765 
Q 809 1603 712 1400 
Q 616 1197 616 972 
z
M 1056 2925 
L 1831 2425 
Q 2100 2581 2272 2803 
Q 2444 3025 2444 3303 
Q 2444 3519 2323 3698 
Q 2203 3878 2009 3978 
Q 1816 4078 1594 4078 
Q 1400 4078 1203 4003 
Q 1006 3928 878 3779 
Q 750 3631 750 3431 
Q 750 3131 1056 2925 
z
" id="Cmr10-38" transform="scale(0.015625)"/>
      <path d="M 319 0 
L 319 172 
Q 319 188 331 206 
L 1325 1306 
Q 1550 1550 1690 1715 
Q 1831 1881 1968 2097 
Q 2106 2313 2186 2536 
Q 2266 2759 2266 3009 
Q 2266 3272 2169 3511 
Q 2072 3750 1880 3894 
Q 1688 4038 1416 4038 
Q 1138 4038 916 3870 
Q 694 3703 603 3438 
Q 628 3444 672 3444 
Q 816 3444 917 3347 
Q 1019 3250 1019 3097 
Q 1019 2950 917 2848 
Q 816 2747 672 2747 
Q 522 2747 420 2851 
Q 319 2956 319 3097 
Q 319 3338 409 3548 
Q 500 3759 670 3923 
Q 841 4088 1055 4175 
Q 1269 4263 1509 4263 
Q 1875 4263 2190 4108 
Q 2506 3953 2690 3670 
Q 2875 3388 2875 3009 
Q 2875 2731 2753 2481 
Q 2631 2231 2440 2026 
Q 2250 1822 1953 1562 
Q 1656 1303 1563 1216 
L 838 519 
L 1453 519 
Q 1906 519 2211 526 
Q 2516 534 2534 550 
Q 2609 631 2688 1141 
L 2875 1141 
L 2694 0 
L 319 0 
z
" id="Cmr10-32" transform="scale(0.015625)"/>
     </defs>
     <use transform="translate(0 0.8125)" xlink:href="#DejaVuSans-20"/>
     <use transform="translate(31.787109 0.8125)" xlink:href="#DejaVuSans-20"/>
     <use transform="translate(63.574219 0.8125)" xlink:href="#DejaVuSans-20"/>
     <use transform="translate(95.361328 0.8125)" xlink:href="#Cmmi10-6f"/>
     <use transform="translate(143.75 -16.19375)scale(0.7)" xlink:href="#Cmr10-33"/>
     <use transform="translate(178.75 -16.19375)scale(0.7)" xlink:href="#Cmr10-38"/>
     <use transform="translate(213.75 -16.19375)scale(0.7)" xlink:href="#Cmr10-35"/>
     <use transform="translate(248.75 -16.19375)scale(0.7)" xlink:href="#Cmr10-32"/>
     <use transform="translate(290.127344 0.8125)" xlink:href="#DejaVuSans-20"/>
     <use transform="translate(321.914453 0.8125)" xlink:href="#DejaVuSans-20"/>
    </g>
   </g>
   <g id="text_15">
    <g id="patch_22">
     <path d="M 174.97 149.127716 
L 234.25 149.127716 
Q 238.15 149.127716 238.15 145.227716 
L 238.15 132.646154 
Q 238.15 128.746154 234.25 128.746154 
L 174.97 128.746154 
Q 171.07 128.746154 171.07 132.646154 
L 171.07 145.227716 
Q 171.07 149.127716 174.97 149.127716 
z
" style="fill:none;"/>
    </g>
    <!--       $E$       -->
    <g transform="translate(174.97 142.524123)scale(0.13 -0.13)">
     <use transform="translate(0 0.6875)" xlink:href="#DejaVuSans-20"/>
     <use transform="translate(31.787109 0.6875)" xlink:href="#DejaVuSans-20"/>
     <use transform="translate(63.574219 0.6875)" xlink:href="#DejaVuSans-20"/>
     <use transform="translate(95.361328 0.6875)" xlink:href="#DejaVuSans-20"/>
     <use transform="translate(127.148438 0.6875)" xlink:href="#DejaVuSans-20"/>
     <use transform="translate(158.935547 0.6875)" xlink:href="#DejaVuSans-20"/>
     <use transform="translate(190.722656 0.6875)" xlink:href="#Cmmi10-45"/>
     <use transform="translate(264.501953 0.6875)" xlink:href="#DejaVuSans-20"/>
     <use transform="translate(296.289062 0.6875)" xlink:href="#DejaVuSans-20"/>
     <use transform="translate(328.076172 0.6875)" xlink:href="#DejaVuSans-20"/>
     <use transform="translate(359.863281 0.6875)" xlink:href="#DejaVuSans-20"/>
     <use transform="translate(391.650391 0.6875)" xlink:href="#DejaVuSans-20"/>
     <use transform="translate(423.4375 0.6875)" xlink:href="#DejaVuSans-20"/>
    </g>
   </g>
   <g id="patch_23">
    <path d="M 167.949492 138.936935 
Q 156.654228 138.936935 144.24093 138.936935 
" style="fill:none;stroke:#000000;stroke-linecap:round;"/>
    <path d="M 162.749492 136.336935 
L 167.949492 138.936935 
L 162.749492 141.536935 
" style="fill:none;stroke:#000000;stroke-linecap:round;"/>
   </g>
   <g id="text_16">
    <g id="patch_24">
     <path d="M 271.01 149.127716 
L 316.77 149.127716 
Q 320.67 149.127716 320.67 145.227716 
L 320.67 132.646154 
Q 320.67 128.746154 316.77 128.746154 
L 271.01 128.746154 
Q 267.11 128.746154 267.11 132.646154 
L 267.11 145.227716 
Q 267.11 149.127716 271.01 149.127716 
z
" style="fill:none;"/>
    </g>
    <!--    $e_{3852}$   -->
    <g transform="translate(271.01 142.524123)scale(0.13 -0.13)">
     <use transform="translate(0 0.8125)" xlink:href="#DejaVuSans-20"/>
     <use transform="translate(31.787109 0.8125)" xlink:href="#DejaVuSans-20"/>
     <use transform="translate(63.574219 0.8125)" xlink:href="#DejaVuSans-20"/>
     <use transform="translate(95.361328 0.8125)" xlink:href="#Cmmi10-65"/>
     <use transform="translate(141.845703 -16.19375)scale(0.7)" xlink:href="#Cmr10-33"/>
     <use transform="translate(176.845703 -16.19375)scale(0.7)" xlink:href="#Cmr10-38"/>
     <use transform="translate(211.845703 -16.19375)scale(0.7)" xlink:href="#Cmr10-35"/>
     <use transform="translate(246.845703 -16.19375)scale(0.7)" xlink:href="#Cmr10-32"/>
     <use transform="translate(288.223047 0.8125)" xlink:href="#DejaVuSans-20"/>
     <use transform="translate(320.010156 0.8125)" xlink:href="#DejaVuSans-20"/>
    </g>
   </g>
   <g id="patch_25">
    <path d="M 263.994603 138.936935 
Q 252.630239 138.936935 240.147842 138.936935 
" style="fill:none;stroke:#000000;stroke-linecap:round;"/>
    <path d="M 258.794603 136.336935 
L 263.994603 138.936935 
L 258.794603 141.536935 
" style="fill:none;stroke:#000000;stroke-linecap:round;"/>
   </g>
   <g id="text_17">
    <g id="patch_26">
     <path d="M 20.785 190.943101 
L 31.315 190.943101 
Q 35.215 190.943101 35.215 187.043101 
L 35.215 174.461538 
Q 35.215 170.561538 31.315 170.561538 
L 20.785 170.561538 
Q 16.885 170.561538 16.885 174.461538 
L 16.885 187.043101 
Q 16.885 190.943101 20.785 190.943101 
z
" style="fill:none;"/>
    </g>
    <!-- $\mathrm{of}$ -->
    <g transform="translate(20.785 184.339507)scale(0.13 -0.13)">
     <defs>
      <path d="M 1600 -72 
Q 1216 -72 887 123 
Q 559 319 368 647 
Q 178 975 178 1363 
Q 178 1656 283 1928 
Q 388 2200 583 2414 
Q 778 2628 1037 2748 
Q 1297 2869 1600 2869 
Q 1994 2869 2317 2661 
Q 2641 2453 2828 2104 
Q 3016 1756 3016 1363 
Q 3016 978 2825 648 
Q 2634 319 2307 123 
Q 1981 -72 1600 -72 
z
M 1600 116 
Q 2113 116 2284 487 
Q 2456 859 2456 1434 
Q 2456 1756 2422 1967 
Q 2388 2178 2272 2350 
Q 2200 2456 2089 2536 
Q 1978 2616 1854 2658 
Q 1731 2700 1600 2700 
Q 1400 2700 1220 2609 
Q 1041 2519 922 2350 
Q 803 2169 770 1951 
Q 738 1734 738 1434 
Q 738 1075 800 789 
Q 863 503 1052 309 
Q 1241 116 1600 116 
z
" id="Cmr10-6f" transform="scale(0.015625)"/>
      <path d="M 206 0 
L 206 225 
Q 422 225 562 259 
Q 703 294 703 428 
L 703 2534 
L 213 2534 
L 213 2759 
L 703 2759 
L 703 3525 
Q 703 3731 789 3911 
Q 875 4091 1020 4225 
Q 1166 4359 1355 4436 
Q 1544 4513 1747 4513 
Q 1963 4513 2136 4384 
Q 2309 4256 2309 4044 
Q 2309 3922 2226 3839 
Q 2144 3756 2022 3756 
Q 1900 3756 1814 3839 
Q 1728 3922 1728 4044 
Q 1728 4244 1900 4313 
Q 1797 4347 1716 4347 
Q 1528 4347 1395 4214 
Q 1263 4081 1197 3890 
Q 1131 3700 1131 3513 
L 1131 2759 
L 1869 2759 
L 1869 2534 
L 1153 2534 
L 1153 428 
Q 1153 297 1340 261 
Q 1528 225 1772 225 
L 1772 0 
L 206 0 
z
" id="Cmr10-66" transform="scale(0.015625)"/>
     </defs>
     <use transform="translate(0 0.484375)" xlink:href="#Cmr10-6f"/>
     <use transform="translate(50 0.484375)" xlink:href="#Cmr10-66"/>
    </g>
   </g>
   <g id="text_18">
    <g id="patch_27">
     <path d="M 92.32 190.943101 
L 138.34 190.943101 
Q 142.24 190.943101 142.24 187.043101 
L 142.24 174.461538 
Q 142.24 170.561538 138.34 170.561538 
L 92.32 170.561538 
Q 88.42 170.561538 88.42 174.461538 
L 88.42 187.043101 
Q 88.42 190.943101 92.32 190.943101 
z
" style="fill:none;"/>
    </g>
    <!--    $o_{6163}$   -->
    <g transform="translate(92.32 184.339507)scale(0.13 -0.13)">
     <use transform="translate(0 0.8125)" xlink:href="#DejaVuSans-20"/>
     <use transform="translate(31.787109 0.8125)" xlink:href="#DejaVuSans-20"/>
     <use transform="translate(63.574219 0.8125)" xlink:href="#DejaVuSans-20"/>
     <use transform="translate(95.361328 0.8125)" xlink:href="#Cmmi10-6f"/>
     <use transform="translate(143.75 -16.19375)scale(0.7)" xlink:href="#Cmr10-36"/>
     <use transform="translate(178.75 -16.19375)scale(0.7)" xlink:href="#Cmr10-31"/>
     <use transform="translate(213.75 -16.19375)scale(0.7)" xlink:href="#Cmr10-36"/>
     <use transform="translate(248.75 -16.19375)scale(0.7)" xlink:href="#Cmr10-33"/>
     <use transform="translate(290.127344 0.8125)" xlink:href="#DejaVuSans-20"/>
     <use transform="translate(321.914453 0.8125)" xlink:href="#DejaVuSans-20"/>
    </g>
   </g>
   <g id="text_19">
    <g id="patch_28">
     <path d="M 174.97 190.943101 
L 234.25 190.943101 
Q 238.15 190.943101 238.15 187.043101 
L 238.15 174.461538 
Q 238.15 170.561538 234.25 170.561538 
L 174.97 170.561538 
Q 171.07 170.561538 171.07 174.461538 
L 171.07 187.043101 
Q 171.07 190.943101 174.97 190.943101 
z
" style="fill:none;"/>
    </g>
    <!--       $E$       -->
    <g transform="translate(174.97 184.339507)scale(0.13 -0.13)">
     <use transform="translate(0 0.6875)" xlink:href="#DejaVuSans-20"/>
     <use transform="translate(31.787109 0.6875)" xlink:href="#DejaVuSans-20"/>
     <use transform="translate(63.574219 0.6875)" xlink:href="#DejaVuSans-20"/>
     <use transform="translate(95.361328 0.6875)" xlink:href="#DejaVuSans-20"/>
     <use transform="translate(127.148438 0.6875)" xlink:href="#DejaVuSans-20"/>
     <use transform="translate(158.935547 0.6875)" xlink:href="#DejaVuSans-20"/>
     <use transform="translate(190.722656 0.6875)" xlink:href="#Cmmi10-45"/>
     <use transform="translate(264.501953 0.6875)" xlink:href="#DejaVuSans-20"/>
     <use transform="translate(296.289062 0.6875)" xlink:href="#DejaVuSans-20"/>
     <use transform="translate(328.076172 0.6875)" xlink:href="#DejaVuSans-20"/>
     <use transform="translate(359.863281 0.6875)" xlink:href="#DejaVuSans-20"/>
     <use transform="translate(391.650391 0.6875)" xlink:href="#DejaVuSans-20"/>
     <use transform="translate(423.4375 0.6875)" xlink:href="#DejaVuSans-20"/>
    </g>
   </g>
   <g id="patch_29">
    <path d="M 167.949492 180.75232 
Q 156.654228 180.75232 144.24093 180.75232 
" style="fill:none;stroke:#000000;stroke-linecap:round;"/>
    <path d="M 162.749492 178.15232 
L 167.949492 180.75232 
L 162.749492 183.35232 
" style="fill:none;stroke:#000000;stroke-linecap:round;"/>
   </g>
   <g id="text_20">
    <g id="patch_30">
     <path d="M 271.01 190.943101 
L 316.77 190.943101 
Q 320.67 190.943101 320.67 187.043101 
L 320.67 174.461538 
Q 320.67 170.561538 316.77 170.561538 
L 271.01 170.561538 
Q 267.11 170.561538 267.11 174.461538 
L 267.11 187.043101 
Q 267.11 190.943101 271.01 190.943101 
z
" style="fill:none;"/>
    </g>
    <!--    $e_{6163}$   -->
    <g transform="translate(271.01 184.339507)scale(0.13 -0.13)">
     <use transform="translate(0 0.8125)" xlink:href="#DejaVuSans-20"/>
     <use transform="translate(31.787109 0.8125)" xlink:href="#DejaVuSans-20"/>
     <use transform="translate(63.574219 0.8125)" xlink:href="#DejaVuSans-20"/>
     <use transform="translate(95.361328 0.8125)" xlink:href="#Cmmi10-65"/>
     <use transform="translate(141.845703 -16.19375)scale(0.7)" xlink:href="#Cmr10-36"/>
     <use transform="translate(176.845703 -16.19375)scale(0.7)" xlink:href="#Cmr10-31"/>
     <use transform="translate(211.845703 -16.19375)scale(0.7)" xlink:href="#Cmr10-36"/>
     <use transform="translate(246.845703 -16.19375)scale(0.7)" xlink:href="#Cmr10-33"/>
     <use transform="translate(288.223047 0.8125)" xlink:href="#DejaVuSans-20"/>
     <use transform="translate(320.010156 0.8125)" xlink:href="#DejaVuSans-20"/>
    </g>
   </g>
   <g id="patch_31">
    <path d="M 263.994603 180.75232 
Q 252.630239 180.75232 240.147842 180.75232 
" style="fill:none;stroke:#000000;stroke-linecap:round;"/>
    <path d="M 258.794603 178.15232 
L 263.994603 180.75232 
L 258.794603 183.35232 
" style="fill:none;stroke:#000000;stroke-linecap:round;"/>
   </g>
   <g id="text_21">
    <g id="patch_32">
     <path d="M 7.2 232.758486 
L 44.9 232.758486 
Q 48.8 232.758486 48.8 228.858486 
L 48.8 216.276923 
Q 48.8 212.376923 44.9 212.376923 
L 7.2 212.376923 
Q 3.3 212.376923 3.3 216.276923 
L 3.3 228.858486 
Q 3.3 232.758486 7.2 232.758486 
z
" style="fill:none;"/>
    </g>
    <!-- $\mathrm{orange}$ -->
    <g transform="translate(7.2 226.128486)scale(0.13 -0.13)">
     <defs>
      <path d="M 166 0 
L 166 225 
Q 384 225 525 259 
Q 666 294 666 428 
L 666 2175 
Q 666 2347 614 2423 
Q 563 2500 466 2517 
Q 369 2534 166 2534 
L 166 2759 
L 1081 2828 
L 1081 2203 
Q 1184 2481 1375 2654 
Q 1566 2828 1838 2828 
Q 2028 2828 2178 2715 
Q 2328 2603 2328 2419 
Q 2328 2303 2245 2217 
Q 2163 2131 2041 2131 
Q 1922 2131 1837 2215 
Q 1753 2300 1753 2419 
Q 1753 2591 1875 2663 
L 1838 2663 
Q 1578 2663 1414 2475 
Q 1250 2288 1181 2009 
Q 1113 1731 1113 1478 
L 1113 428 
Q 1113 225 1734 225 
L 1734 0 
L 166 0 
z
" id="Cmr10-72" transform="scale(0.015625)"/>
      <path d="M 1594 -72 
Q 1203 -72 876 133 
Q 550 338 364 680 
Q 178 1022 178 1403 
Q 178 1778 348 2115 
Q 519 2453 823 2661 
Q 1128 2869 1503 2869 
Q 1797 2869 2014 2770 
Q 2231 2672 2372 2497 
Q 2513 2322 2584 2084 
Q 2656 1847 2656 1563 
Q 2656 1478 2591 1478 
L 738 1478 
L 738 1409 
Q 738 878 952 497 
Q 1166 116 1650 116 
Q 1847 116 2014 203 
Q 2181 291 2304 447 
Q 2428 603 2472 781 
Q 2478 803 2495 820 
Q 2513 838 2534 838 
L 2591 838 
Q 2656 838 2656 756 
Q 2566 394 2266 161 
Q 1966 -72 1594 -72 
z
M 744 1638 
L 2203 1638 
Q 2203 1878 2136 2125 
Q 2069 2372 1912 2536 
Q 1756 2700 1503 2700 
Q 1141 2700 942 2361 
Q 744 2022 744 1638 
z
" id="Cmr10-65" transform="scale(0.015625)"/>
     </defs>
     <use transform="translate(0 0.6875)" xlink:href="#Cmr10-6f"/>
     <use transform="translate(50 0.6875)" xlink:href="#Cmr10-72"/>
     <use transform="translate(89.111328 0.6875)" xlink:href="#Cmr10-61"/>
     <use transform="translate(139.111328 0.6875)" xlink:href="#Cmr10-6e"/>
     <use transform="translate(194.628906 0.6875)" xlink:href="#Cmr10-67"/>
     <use transform="translate(244.628906 0.6875)" xlink:href="#Cmr10-65"/>
    </g>
   </g>
   <g id="text_22">
    <g id="patch_33">
     <path d="M 92.32 232.758486 
L 138.34 232.758486 
Q 142.24 232.758486 142.24 228.858486 
L 142.24 216.276923 
Q 142.24 212.376923 138.34 212.376923 
L 92.32 212.376923 
Q 88.42 212.376923 88.42 216.276923 
L 88.42 228.858486 
Q 88.42 232.758486 92.32 232.758486 
z
" style="fill:none;"/>
    </g>
    <!--    $o_{6257}$   -->
    <g transform="translate(92.32 226.154892)scale(0.13 -0.13)">
     <defs>
      <path d="M 1113 166 
Q 1113 522 1175 862 
Q 1238 1203 1358 1536 
Q 1478 1869 1648 2189 
Q 1819 2509 2022 2791 
L 2606 3603 
L 1875 3603 
Q 738 3603 703 3572 
Q 619 3469 544 2981 
L 359 2981 
L 569 4325 
L 756 4325 
L 756 4306 
Q 756 4191 1147 4156 
Q 1538 4122 1913 4122 
L 3103 4122 
L 3103 3956 
Q 3103 3950 3101 3947 
Q 3100 3944 3097 3938 
L 2216 2700 
Q 1891 2219 1809 1631 
Q 1728 1044 1728 166 
Q 1728 41 1637 -50 
Q 1547 -141 1422 -141 
Q 1294 -141 1203 -50 
Q 1113 41 1113 166 
z
" id="Cmr10-37" transform="scale(0.015625)"/>
     </defs>
     <use transform="translate(0 0.8125)" xlink:href="#DejaVuSans-20"/>
     <use transform="translate(31.787109 0.8125)" xlink:href="#DejaVuSans-20"/>
     <use transform="translate(63.574219 0.8125)" xlink:href="#DejaVuSans-20"/>
     <use transform="translate(95.361328 0.8125)" xlink:href="#Cmmi10-6f"/>
     <use transform="translate(143.75 -16.19375)scale(0.7)" xlink:href="#Cmr10-36"/>
     <use transform="translate(178.75 -16.19375)scale(0.7)" xlink:href="#Cmr10-32"/>
     <use transform="translate(213.75 -16.19375)scale(0.7)" xlink:href="#Cmr10-35"/>
     <use transform="translate(248.75 -16.19375)scale(0.7)" xlink:href="#Cmr10-37"/>
     <use transform="translate(290.127344 0.8125)" xlink:href="#DejaVuSans-20"/>
     <use transform="translate(321.914453 0.8125)" xlink:href="#DejaVuSans-20"/>
    </g>
   </g>
   <g id="text_23">
    <g id="patch_34">
     <path d="M 174.97 232.758486 
L 234.25 232.758486 
Q 238.15 232.758486 238.15 228.858486 
L 238.15 216.276923 
Q 238.15 212.376923 234.25 212.376923 
L 174.97 212.376923 
Q 171.07 212.376923 171.07 216.276923 
L 171.07 228.858486 
Q 171.07 232.758486 174.97 232.758486 
z
" style="fill:none;"/>
    </g>
    <!--       $E$       -->
    <g transform="translate(174.97 226.154892)scale(0.13 -0.13)">
     <use transform="translate(0 0.6875)" xlink:href="#DejaVuSans-20"/>
     <use transform="translate(31.787109 0.6875)" xlink:href="#DejaVuSans-20"/>
     <use transform="translate(63.574219 0.6875)" xlink:href="#DejaVuSans-20"/>
     <use transform="translate(95.361328 0.6875)" xlink:href="#DejaVuSans-20"/>
     <use transform="translate(127.148438 0.6875)" xlink:href="#DejaVuSans-20"/>
     <use transform="translate(158.935547 0.6875)" xlink:href="#DejaVuSans-20"/>
     <use transform="translate(190.722656 0.6875)" xlink:href="#Cmmi10-45"/>
     <use transform="translate(264.501953 0.6875)" xlink:href="#DejaVuSans-20"/>
     <use transform="translate(296.289062 0.6875)" xlink:href="#DejaVuSans-20"/>
     <use transform="translate(328.076172 0.6875)" xlink:href="#DejaVuSans-20"/>
     <use transform="translate(359.863281 0.6875)" xlink:href="#DejaVuSans-20"/>
     <use transform="translate(391.650391 0.6875)" xlink:href="#DejaVuSans-20"/>
     <use transform="translate(423.4375 0.6875)" xlink:href="#DejaVuSans-20"/>
    </g>
   </g>
   <g id="patch_35">
    <path d="M 167.949492 222.567704 
Q 156.654228 222.567704 144.24093 222.567704 
" style="fill:none;stroke:#000000;stroke-linecap:round;"/>
    <path d="M 162.749492 219.967704 
L 167.949492 222.567704 
L 162.749492 225.167704 
" style="fill:none;stroke:#000000;stroke-linecap:round;"/>
   </g>
   <g id="text_24">
    <g id="patch_36">
     <path d="M 271.01 232.758486 
L 316.77 232.758486 
Q 320.67 232.758486 320.67 228.858486 
L 320.67 216.276923 
Q 320.67 212.376923 316.77 212.376923 
L 271.01 212.376923 
Q 267.11 212.376923 267.11 216.276923 
L 267.11 228.858486 
Q 267.11 232.758486 271.01 232.758486 
z
" style="fill:none;"/>
    </g>
    <!--    $e_{6257}$   -->
    <g transform="translate(271.01 226.154892)scale(0.13 -0.13)">
     <use transform="translate(0 0.8125)" xlink:href="#DejaVuSans-20"/>
     <use transform="translate(31.787109 0.8125)" xlink:href="#DejaVuSans-20"/>
     <use transform="translate(63.574219 0.8125)" xlink:href="#DejaVuSans-20"/>
     <use transform="translate(95.361328 0.8125)" xlink:href="#Cmmi10-65"/>
     <use transform="translate(141.845703 -16.19375)scale(0.7)" xlink:href="#Cmr10-36"/>
     <use transform="translate(176.845703 -16.19375)scale(0.7)" xlink:href="#Cmr10-32"/>
     <use transform="translate(211.845703 -16.19375)scale(0.7)" xlink:href="#Cmr10-35"/>
     <use transform="translate(246.845703 -16.19375)scale(0.7)" xlink:href="#Cmr10-37"/>
     <use transform="translate(288.223047 0.8125)" xlink:href="#DejaVuSans-20"/>
     <use transform="translate(320.010156 0.8125)" xlink:href="#DejaVuSans-20"/>
    </g>
   </g>
   <g id="patch_37">
    <path d="M 263.994603 222.567704 
Q 252.630239 222.567704 240.147842 222.567704 
" style="fill:none;stroke:#000000;stroke-linecap:round;"/>
    <path d="M 258.794603 219.967704 
L 263.994603 222.567704 
L 258.794603 225.167704 
" style="fill:none;stroke:#000000;stroke-linecap:round;"/>
   </g>
   <g id="text_25">
    <g id="patch_38">
     <path d="M 370.17 159.155758 
L 396.17 159.155758 
L 396.17 76.902727 
L 370.17 76.902727 
z
" style="fill:none;stroke:#000000;stroke-linejoin:miter;"/>
    </g>
    <!--  -->
    <g transform="translate(383.17 99.780696)scale(0.13 -0.13)"/>
    <!--  -->
    <g transform="translate(383.17 114.337852)scale(0.13 -0.13)"/>
    <!--  -->
    <g transform="translate(383.17 128.895008)scale(0.13 -0.13)"/>
    <!--  -->
    <g transform="translate(383.17 143.452165)scale(0.13 -0.13)"/>
   </g>
   <g id="patch_39">
    <path d="M 367.294915 116.829055 
Q 345.128912 107.575986 321.931162 97.89222 
" style="fill:none;stroke:#000000;stroke-linecap:round;"/>
    <path d="M 363.49783 112.42654 
L 367.294915 116.829055 
L 361.494652 117.225214 
" style="fill:none;stroke:#000000;stroke-linecap:round;"/>
   </g>
   <g id="patch_40">
    <path d="M 368.835007 115.209887 
Q 345.420012 65.760037 321.526546 15.29971 
" style="fill:none;stroke:#000000;stroke-linecap:round;"/>
    <path d="M 368.959504 109.397444 
L 368.835007 115.209887 
L 364.25975 111.622824 
" style="fill:none;stroke:#000000;stroke-linecap:round;"/>
   </g>
   <g id="patch_41">
    <path d="M 368.235644 115.578157 
Q 345.419153 86.666631 321.910035 56.877455 
" style="fill:none;stroke:#000000;stroke-linecap:round;"/>
    <path d="M 367.055208 109.88548 
L 368.235644 115.578157 
L 362.973241 113.1069 
" style="fill:none;stroke:#000000;stroke-linecap:round;"/>
   </g>
   <g id="patch_42">
    <path d="M 367.294915 116.829055 
Q 345.128912 107.575986 321.931162 97.89222 
" style="fill:none;stroke:#000000;stroke-linecap:round;"/>
    <path d="M 363.49783 112.42654 
L 367.294915 116.829055 
L 361.494652 117.225214 
" style="fill:none;stroke:#000000;stroke-linecap:round;"/>
   </g>
   <g id="patch_43">
    <path d="M 367.300134 119.24141 
Q 345.420712 128.482788 322.511359 138.159186 
" style="fill:none;stroke:#000000;stroke-linecap:round;"/>
    <path d="M 361.49826 118.869581 
L 367.300134 119.24141 
L 363.521546 123.659812 
" style="fill:none;stroke:#000000;stroke-linecap:round;"/>
   </g>
   <g id="patch_44">
    <path d="M 368.235644 120.480329 
Q 345.419153 149.391855 321.910035 179.181031 
" style="fill:none;stroke:#000000;stroke-linecap:round;"/>
    <path d="M 362.973241 122.951586 
L 368.235644 120.480329 
L 367.055208 126.173006 
" style="fill:none;stroke:#000000;stroke-linecap:round;"/>
   </g>
   <g id="patch_45">
    <path d="M 368.835007 120.848598 
Q 345.420012 170.298448 321.526546 220.758776 
" style="fill:none;stroke:#000000;stroke-linecap:round;"/>
    <path d="M 364.25975 124.435662 
L 368.835007 120.848598 
L 368.959504 126.661042 
" style="fill:none;stroke:#000000;stroke-linecap:round;"/>
   </g>
   <g id="text_26">
    <g id="patch_46">
     <path d="M 454.594 128.220024 
C 457.296627 128.220024 459.888925 127.146259 461.799971 125.235213 
C 463.711016 123.324168 464.784781 120.73187 464.784781 118.029243 
C 464.784781 115.326616 463.711016 112.734318 461.799971 110.823272 
C 459.888925 108.912227 457.296627 107.838462 454.594 107.838462 
C 451.891373 107.838462 449.299075 108.912227 447.388029 110.823272 
C 445.476984 112.734318 444.403219 115.326616 444.403219 118.029243 
C 444.403219 120.73187 445.476984 123.324168 447.388029 125.235213 
C 449.299075 127.146259 451.891373 128.220024 454.594 128.220024 
z
" style="fill:none;stroke:#000000;stroke-linejoin:miter;"/>
    </g>
    <!--   -->
    <g transform="translate(452.528219 121.61643)scale(0.13 -0.13)">
     <use xlink:href="#DejaVuSans-20"/>
    </g>
   </g>
   <g id="patch_47">
    <path d="M 441.286262 118.029243 
Q 420.287518 118.029243 398.170739 118.029243 
" style="fill:none;stroke:#000000;stroke-linecap:round;"/>
    <path d="M 436.086262 115.429243 
L 441.286262 118.029243 
L 436.086262 120.629243 
" style="fill:none;stroke:#000000;stroke-linecap:round;"/>
   </g>
   <g id="text_27">
    <g id="patch_48">
     <path d="M 359.38 191.86732 
L 406.96 191.86732 
Q 410.86 191.86732 410.86 187.96732 
L 410.86 173.53732 
Q 410.86 169.63732 406.96 169.63732 
L 359.38 169.63732 
Q 355.48 169.63732 355.48 173.53732 
L 355.48 187.96732 
Q 355.48 191.86732 359.38 191.86732 
z
" style="fill:none;"/>
    </g>
    <!-- $W^{[1]}, b^{[1]}$ -->
    <g transform="translate(359.38 185.263726)scale(0.13 -0.13)">
     <defs>
      <path d="M 1141 -72 
L 844 4006 
Q 822 4100 703 4123 
Q 584 4147 409 4147 
Q 347 4147 347 4231 
Q 369 4313 381 4342 
Q 394 4372 453 4372 
L 1978 4372 
Q 2041 4372 2041 4288 
Q 2016 4147 1959 4147 
Q 1447 4147 1416 3969 
L 1644 738 
L 3244 3525 
L 3213 4006 
Q 3191 4100 3072 4123 
Q 2953 4147 2778 4147 
Q 2713 4147 2713 4231 
Q 2734 4313 2746 4342 
Q 2759 4372 2822 4372 
L 4347 4372 
Q 4409 4372 4409 4288 
Q 4406 4272 4397 4234 
Q 4388 4197 4372 4172 
Q 4356 4147 4325 4147 
Q 3809 4147 3781 3969 
L 3781 3922 
L 4013 738 
L 5753 3775 
Q 5791 3844 5791 3909 
Q 5791 4041 5662 4094 
Q 5534 4147 5375 4147 
Q 5313 4147 5313 4231 
Q 5325 4281 5333 4309 
Q 5341 4338 5361 4355 
Q 5381 4372 5422 4372 
L 6644 4372 
Q 6706 4372 6706 4288 
Q 6703 4272 6693 4233 
Q 6684 4194 6667 4170 
Q 6650 4147 6625 4147 
Q 6169 4147 5931 3731 
Q 5913 3713 5913 3713 
L 3744 -72 
Q 3709 -141 3634 -141 
L 3584 -141 
Q 3506 -141 3506 -72 
L 3263 3225 
L 1381 -72 
Q 1334 -141 1269 -141 
L 1216 -141 
Q 1141 -141 1141 -72 
z
" id="Cmmi10-57" transform="scale(0.015625)"/>
      <path d="M 756 -1600 
L 756 4800 
L 1631 4800 
L 1631 4544 
L 1013 4544 
L 1013 -1344 
L 1631 -1344 
L 1631 -1600 
L 756 -1600 
z
" id="Cmr10-5b" transform="scale(0.015625)"/>
      <path d="M 141 -1600 
L 141 -1344 
L 763 -1344 
L 763 4544 
L 141 4544 
L 141 4800 
L 1019 4800 
L 1019 -1600 
L 141 -1600 
z
" id="Cmr10-5d" transform="scale(0.015625)"/>
      <path d="M 634 -1153 
Q 634 -1125 659 -1100 
Q 891 -878 1019 -587 
Q 1147 -297 1147 25 
L 1147 103 
Q 1044 0 891 0 
Q 744 0 641 103 
Q 538 206 538 353 
Q 538 503 641 603 
Q 744 703 891 703 
Q 1119 703 1216 492 
Q 1313 281 1313 25 
Q 1313 -331 1170 -651 
Q 1028 -972 769 -1228 
Q 744 -1241 728 -1241 
Q 697 -1241 665 -1212 
Q 634 -1184 634 -1153 
z
" id="Cmmi10-3b" transform="scale(0.015625)"/>
      <path d="M 1106 -72 
Q 719 -72 503 231 
Q 288 534 288 941 
Q 288 1000 317 1173 
Q 347 1347 347 1388 
L 966 3872 
Q 991 3981 997 4044 
Q 997 4147 581 4147 
Q 519 4147 519 4231 
Q 522 4247 533 4287 
Q 544 4328 561 4350 
Q 578 4372 609 4372 
L 1472 4441 
Q 1550 4441 1550 4359 
L 1075 2472 
Q 1438 2828 1806 2828 
Q 2078 2828 2273 2684 
Q 2469 2541 2566 2306 
Q 2663 2072 2663 1806 
Q 2663 1497 2542 1167 
Q 2422 838 2209 555 
Q 1997 272 1712 100 
Q 1428 -72 1106 -72 
z
M 1119 97 
Q 1338 97 1528 280 
Q 1719 463 1838 691 
Q 1966 947 2077 1386 
Q 2188 1825 2188 2088 
Q 2188 2316 2092 2489 
Q 1997 2663 1791 2663 
Q 1559 2663 1348 2492 
Q 1138 2322 978 2088 
L 800 1363 
Q 697 959 691 716 
Q 691 475 795 286 
Q 900 97 1119 97 
z
" id="Cmmi10-62" transform="scale(0.015625)"/>
     </defs>
     <use transform="translate(0 0.235938)" xlink:href="#Cmmi10-57"/>
     <use transform="translate(105.754297 38.5)scale(0.7)" xlink:href="#Cmr10-5b"/>
     <use transform="translate(125.13418 38.5)scale(0.7)" xlink:href="#Cmr10-31"/>
     <use transform="translate(160.13418 38.5)scale(0.7)" xlink:href="#Cmr10-5d"/>
     <use transform="translate(185.891406 0.235938)" xlink:href="#Cmmi10-3b"/>
     <use transform="translate(231.135547 0.235938)" xlink:href="#Cmmi10-62"/>
     <use transform="translate(285.651406 38.5)scale(0.7)" xlink:href="#Cmr10-5b"/>
     <use transform="translate(305.031289 38.5)scale(0.7)" xlink:href="#Cmr10-31"/>
     <use transform="translate(340.031289 38.5)scale(0.7)" xlink:href="#Cmr10-5d"/>
    </g>
   </g>
   <g id="text_28">
    <g id="patch_49">
     <path d="M 430.804 191.86732 
L 478.384 191.86732 
Q 482.284 191.86732 482.284 187.96732 
L 482.284 173.53732 
Q 482.284 169.63732 478.384 169.63732 
L 430.804 169.63732 
Q 426.904 169.63732 426.904 173.53732 
L 426.904 187.96732 
Q 426.904 191.86732 430.804 191.86732 
z
" style="fill:none;"/>
    </g>
    <!-- $W^{[2]}, b^{[2]}$ -->
    <g transform="translate(430.804 185.263726)scale(0.13 -0.13)">
     <use transform="translate(0 0.235938)" xlink:href="#Cmmi10-57"/>
     <use transform="translate(105.754297 38.5)scale(0.7)" xlink:href="#Cmr10-5b"/>
     <use transform="translate(125.13418 38.5)scale(0.7)" xlink:href="#Cmr10-32"/>
     <use transform="translate(160.13418 38.5)scale(0.7)" xlink:href="#Cmr10-5d"/>
     <use transform="translate(185.891406 0.235938)" xlink:href="#Cmmi10-3b"/>
     <use transform="translate(231.135547 0.235938)" xlink:href="#Cmmi10-62"/>
     <use transform="translate(285.651406 38.5)scale(0.7)" xlink:href="#Cmr10-5b"/>
     <use transform="translate(305.031289 38.5)scale(0.7)" xlink:href="#Cmr10-32"/>
     <use transform="translate(340.031289 38.5)scale(0.7)" xlink:href="#Cmr10-5d"/>
    </g>
   </g>
  </g>
 </g>
</svg>
