<?xml version="1.0" encoding="utf-8" standalone="no"?>
<!DOCTYPE svg PUBLIC "-//W3C//DTD SVG 1.1//EN"
  "http://www.w3.org/Graphics/SVG/1.1/DTD/svg11.dtd">
<svg height="259.02pt" version="1.1" viewBox="0 0 483.645 259.02" width="483.645pt" xmlns="http://www.w3.org/2000/svg" xmlns:xlink="http://www.w3.org/1999/xlink">
 <metadata>
  <rdf:RDF xmlns:cc="http://creativecommons.org/ns#" xmlns:dc="http://purl.org/dc/elements/1.1/" xmlns:rdf="http://www.w3.org/1999/02/22-rdf-syntax-ns#">
   <cc:Work>
    <dc:type rdf:resource="http://purl.org/dc/dcmitype/StillImage"/>
    <dc:date>2021-10-02T10:35:49.345278</dc:date>
    <dc:format>image/svg+xml</dc:format>
    <dc:creator>
     <cc:Agent>
      <dc:title>Matplotlib v3.4.3, https://matplotlib.org/</dc:title>
     </cc:Agent>
    </dc:creator>
   </cc:Work>
  </rdf:RDF>
 </metadata>
 <defs>
  <style type="text/css">*{stroke-linecap:butt;stroke-linejoin:round;}</style>
 </defs>
 <g id="figure_1">
  <g id="patch_1">
   <path d="M 0 259.02 
L 483.645 259.02 
L 483.645 0 
L 0 0 
z
" style="fill:none;"/>
  </g>
  <g id="axes_1">
   <g id="text_1">
    <g id="patch_2">
     <path d="M 53.85 253.575609 
L 126.26 253.575609 
L 126.26 233.194046 
L 53.85 233.194046 
z
" style="fill:none;"/>
    </g>
    <!-- $\mathrm{Completely}$ -->
    <g transform="translate(57.75 246.945609)scale(0.13 -0.13)">
     <defs>
      <path d="M 1459 684 
Q 1678 406 2006 245 
Q 2334 84 2688 84 
Q 2984 84 3237 201 
Q 3491 319 3680 528 
Q 3869 738 3970 1003 
Q 4072 1269 4072 1563 
Q 4072 1613 4128 1613 
L 4206 1613 
Q 4256 1613 4256 1550 
Q 4256 1216 4128 905 
Q 4000 594 3765 358 
Q 3531 122 3226 -9 
Q 2922 -141 2591 -141 
Q 2131 -141 1720 45 
Q 1309 231 1004 554 
Q 700 878 529 1303 
Q 359 1728 359 2188 
Q 359 2647 529 3072 
Q 700 3497 1004 3822 
Q 1309 4147 1720 4330 
Q 2131 4513 2591 4513 
Q 2919 4513 3219 4370 
Q 3519 4228 3744 3969 
L 4116 4494 
Q 4153 4513 4159 4513 
L 4206 4513 
Q 4225 4513 4240 4497 
Q 4256 4481 4256 4459 
L 4256 2731 
Q 4256 2675 4206 2675 
L 4091 2675 
Q 4031 2675 4031 2731 
Q 4031 2916 3957 3144 
Q 3884 3372 3770 3576 
Q 3656 3781 3506 3938 
Q 3147 4288 2681 4288 
Q 2328 4288 2004 4128 
Q 1681 3969 1459 3688 
Q 1225 3388 1134 3005 
Q 1044 2622 1044 2188 
Q 1044 1753 1134 1368 
Q 1225 984 1459 684 
z
" id="Cmr10-43" transform="scale(0.015625)"/>
      <path d="M 1600 -72 
Q 1216 -72 887 123 
Q 559 319 368 647 
Q 178 975 178 1363 
Q 178 1656 283 1928 
Q 388 2200 583 2414 
Q 778 2628 1037 2748 
Q 1297 2869 1600 2869 
Q 1994 2869 2317 2661 
Q 2641 2453 2828 2104 
Q 3016 1756 3016 1363 
Q 3016 978 2825 648 
Q 2634 319 2307 123 
Q 1981 -72 1600 -72 
z
M 1600 116 
Q 2113 116 2284 487 
Q 2456 859 2456 1434 
Q 2456 1756 2422 1967 
Q 2388 2178 2272 2350 
Q 2200 2456 2089 2536 
Q 1978 2616 1854 2658 
Q 1731 2700 1600 2700 
Q 1400 2700 1220 2609 
Q 1041 2519 922 2350 
Q 803 2169 770 1951 
Q 738 1734 738 1434 
Q 738 1075 800 789 
Q 863 503 1052 309 
Q 1241 116 1600 116 
z
" id="Cmr10-6f" transform="scale(0.015625)"/>
      <path d="M 191 0 
L 191 225 
Q 409 225 550 259 
Q 691 294 691 428 
L 691 2175 
Q 691 2347 639 2423 
Q 588 2500 491 2517 
Q 394 2534 191 2534 
L 191 2759 
L 1119 2828 
L 1119 2203 
Q 1247 2478 1498 2653 
Q 1750 2828 2047 2828 
Q 2784 2828 2913 2228 
Q 3041 2497 3287 2662 
Q 3534 2828 3828 2828 
Q 4119 2828 4317 2734 
Q 4516 2641 4616 2448 
Q 4716 2256 4716 1966 
L 4716 428 
Q 4716 294 4858 259 
Q 5000 225 5216 225 
L 5216 0 
L 3750 0 
L 3750 225 
Q 3969 225 4109 259 
Q 4250 294 4250 428 
L 4250 1947 
Q 4250 2269 4159 2466 
Q 4069 2663 3788 2663 
Q 3419 2663 3178 2366 
Q 2938 2069 2938 1691 
L 2938 428 
Q 2938 294 3078 259 
Q 3219 225 3438 225 
L 3438 0 
L 1972 0 
L 1972 225 
Q 2191 225 2331 259 
Q 2472 294 2472 428 
L 2472 1947 
Q 2472 2259 2381 2461 
Q 2291 2663 2009 2663 
Q 1638 2663 1398 2366 
Q 1159 2069 1159 1691 
L 1159 428 
Q 1159 294 1300 259 
Q 1441 225 1656 225 
L 1656 0 
L 191 0 
z
" id="Cmr10-6d" transform="scale(0.015625)"/>
      <path d="M 166 -1241 
L 166 -1019 
Q 384 -1019 525 -981 
Q 666 -944 666 -813 
L 666 2272 
Q 666 2447 541 2490 
Q 416 2534 166 2534 
L 166 2759 
L 1113 2828 
L 1113 2431 
Q 1288 2625 1520 2726 
Q 1753 2828 2016 2828 
Q 2394 2828 2697 2623 
Q 3000 2419 3170 2086 
Q 3341 1753 3341 1381 
Q 3341 994 3152 659 
Q 2963 325 2636 126 
Q 2309 -72 1919 -72 
Q 1453 -72 1131 306 
L 1131 -813 
Q 1131 -944 1273 -981 
Q 1416 -1019 1631 -1019 
L 1631 -1241 
L 166 -1241 
z
M 1131 622 
Q 1244 394 1444 245 
Q 1644 97 1881 97 
Q 2103 97 2273 215 
Q 2444 334 2559 534 
Q 2675 734 2729 954 
Q 2784 1175 2784 1381 
Q 2784 1638 2692 1936 
Q 2600 2234 2411 2439 
Q 2222 2644 1953 2644 
Q 1694 2644 1476 2511 
Q 1259 2378 1131 2150 
L 1131 622 
z
" id="Cmr10-70" transform="scale(0.015625)"/>
      <path d="M 197 0 
L 197 225 
Q 416 225 556 259 
Q 697 294 697 428 
L 697 3788 
Q 697 3959 645 4036 
Q 594 4113 497 4130 
Q 400 4147 197 4147 
L 197 4372 
L 1147 4441 
L 1147 428 
Q 1147 294 1287 259 
Q 1428 225 1644 225 
L 1644 0 
L 197 0 
z
" id="Cmr10-6c" transform="scale(0.015625)"/>
      <path d="M 1594 -72 
Q 1203 -72 876 133 
Q 550 338 364 680 
Q 178 1022 178 1403 
Q 178 1778 348 2115 
Q 519 2453 823 2661 
Q 1128 2869 1503 2869 
Q 1797 2869 2014 2770 
Q 2231 2672 2372 2497 
Q 2513 2322 2584 2084 
Q 2656 1847 2656 1563 
Q 2656 1478 2591 1478 
L 738 1478 
L 738 1409 
Q 738 878 952 497 
Q 1166 116 1650 116 
Q 1847 116 2014 203 
Q 2181 291 2304 447 
Q 2428 603 2472 781 
Q 2478 803 2495 820 
Q 2513 838 2534 838 
L 2591 838 
Q 2656 838 2656 756 
Q 2566 394 2266 161 
Q 1966 -72 1594 -72 
z
M 744 1638 
L 2203 1638 
Q 2203 1878 2136 2125 
Q 2069 2372 1912 2536 
Q 1756 2700 1503 2700 
Q 1141 2700 942 2361 
Q 744 2022 744 1638 
z
" id="Cmr10-65" transform="scale(0.015625)"/>
      <path d="M 653 769 
L 653 2534 
L 122 2534 
L 122 2700 
Q 541 2700 737 3090 
Q 934 3481 934 3938 
L 1119 3938 
L 1119 2759 
L 2022 2759 
L 2022 2534 
L 1119 2534 
L 1119 781 
Q 1119 516 1208 316 
Q 1297 116 1528 116 
Q 1747 116 1844 327 
Q 1941 538 1941 781 
L 1941 1159 
L 2125 1159 
L 2125 769 
Q 2125 569 2051 373 
Q 1978 178 1834 53 
Q 1691 -72 1484 -72 
Q 1100 -72 876 158 
Q 653 388 653 769 
z
" id="Cmr10-74" transform="scale(0.015625)"/>
      <path d="M 441 -1050 
Q 563 -1147 709 -1147 
Q 1113 -1147 1369 -538 
L 1588 0 
L 628 2350 
Q 569 2469 447 2501 
Q 325 2534 122 2534 
L 122 2759 
L 1466 2759 
L 1466 2534 
Q 1113 2534 1113 2381 
Q 1113 2356 1119 2344 
L 1831 594 
L 2472 2169 
Q 2491 2219 2491 2278 
Q 2491 2356 2448 2414 
Q 2406 2472 2339 2503 
Q 2272 2534 2188 2534 
L 2188 2759 
L 3250 2759 
L 3250 2534 
Q 3053 2534 2904 2443 
Q 2756 2353 2675 2175 
L 1569 -538 
Q 1481 -744 1364 -917 
Q 1247 -1091 1078 -1202 
Q 909 -1313 709 -1313 
Q 475 -1313 298 -1158 
Q 122 -1003 122 -775 
Q 122 -656 203 -575 
Q 284 -494 403 -494 
Q 484 -494 548 -530 
Q 613 -566 648 -628 
Q 684 -691 684 -775 
Q 684 -878 615 -959 
Q 547 -1041 441 -1050 
z
" id="Cmr10-79" transform="scale(0.015625)"/>
     </defs>
     <use transform="translate(0 0.484375)" xlink:href="#Cmr10-43"/>
     <use transform="translate(72.216797 0.484375)" xlink:href="#Cmr10-6f"/>
     <use transform="translate(122.216797 0.484375)" xlink:href="#Cmr10-6d"/>
     <use transform="translate(205.517578 0.484375)" xlink:href="#Cmr10-70"/>
     <use transform="translate(261.035156 0.484375)" xlink:href="#Cmr10-6c"/>
     <use transform="translate(288.720703 0.484375)" xlink:href="#Cmr10-65"/>
     <use transform="translate(333.105469 0.484375)" xlink:href="#Cmr10-74"/>
     <use transform="translate(371.923828 0.484375)" xlink:href="#Cmr10-65"/>
     <use transform="translate(416.308594 0.484375)" xlink:href="#Cmr10-6c"/>
     <use transform="translate(443.994141 0.484375)" xlink:href="#Cmr10-79"/>
    </g>
   </g>
   <g id="text_2">
    <g id="patch_3">
     <path d="M 81.345 211.399747 
L 98.765 211.399747 
L 98.765 191.018184 
L 81.345 191.018184 
z
" style="fill:none;"/>
    </g>
    <!-- $E$ -->
    <g transform="translate(85.245 204.796153)scale(0.13 -0.13)">
     <defs>
      <path d="M 300 0 
Q 238 0 238 84 
Q 241 100 250 139 
Q 259 178 276 201 
Q 294 225 319 225 
Q 709 225 863 269 
Q 947 297 984 441 
L 1863 3956 
Q 1875 4019 1875 4044 
Q 1875 4113 1797 4122 
Q 1678 4147 1338 4147 
Q 1275 4147 1275 4231 
Q 1278 4247 1287 4286 
Q 1297 4325 1314 4348 
Q 1331 4372 1356 4372 
L 4825 4372 
Q 4891 4372 4891 4288 
L 4738 2963 
Q 4738 2947 4714 2926 
Q 4691 2906 4672 2906 
L 4616 2906 
Q 4550 2906 4550 2988 
Q 4588 3300 4588 3450 
Q 4588 3706 4500 3848 
Q 4413 3991 4267 4053 
Q 4122 4116 3945 4131 
Q 3769 4147 3481 4147 
L 2753 4147 
Q 2578 4147 2522 4117 
Q 2466 4088 2419 3928 
L 2034 2381 
L 2534 2381 
Q 2859 2381 3025 2426 
Q 3191 2472 3287 2615 
Q 3384 2759 3463 3072 
Q 3469 3094 3486 3111 
Q 3503 3128 3525 3128 
L 3584 3128 
Q 3647 3128 3647 3047 
L 3250 1466 
Q 3238 1409 3188 1409 
L 3128 1409 
Q 3066 1409 3066 1491 
Q 3128 1747 3128 1869 
Q 3128 2056 2959 2106 
Q 2791 2156 2509 2156 
L 1978 2156 
L 1544 416 
Q 1516 338 1516 275 
Q 1516 225 1734 225 
L 2509 225 
Q 2972 225 3259 297 
Q 3547 369 3736 526 
Q 3925 684 4062 928 
Q 4200 1172 4397 1638 
Q 4409 1678 4453 1678 
L 4513 1678 
Q 4538 1678 4556 1656 
Q 4575 1634 4575 1606 
Q 4575 1594 4569 1581 
L 3909 38 
Q 3897 0 3859 0 
L 300 0 
z
" id="Cmmi10-45" transform="scale(0.015625)"/>
     </defs>
     <use transform="translate(0 0.6875)" xlink:href="#Cmmi10-45"/>
    </g>
   </g>
   <g id="patch_4">
    <path d="M 90.055 214.515769 
Q 90.055 222.297859 90.055 231.197983 
" style="fill:none;stroke:#000000;stroke-linecap:round;"/>
    <path d="M 87.455 219.715769 
L 90.055 214.515769 
L 92.655 219.715769 
" style="fill:none;stroke:#000000;stroke-linecap:round;"/>
   </g>
   <g id="text_3">
    <g id="patch_5">
     <path d="M 73.61 169.223885 
L 106.5 169.223885 
L 106.5 148.842322 
L 73.61 148.842322 
z
" style="fill:none;"/>
    </g>
    <!-- $e_{1852}$ -->
    <g transform="translate(77.51 162.620291)scale(0.13 -0.13)">
     <defs>
      <path d="M 1288 -72 
Q 981 -72 751 87 
Q 522 247 401 517 
Q 281 788 281 1088 
Q 281 1544 511 1945 
Q 741 2347 1134 2587 
Q 1528 2828 1978 2828 
Q 2253 2828 2458 2686 
Q 2663 2544 2663 2278 
Q 2663 1909 2369 1729 
Q 2075 1550 1706 1508 
Q 1338 1466 891 1466 
L 872 1466 
Q 769 1084 769 813 
Q 769 528 900 312 
Q 1031 97 1300 97 
Q 1681 97 2032 272 
Q 2384 447 2606 756 
Q 2625 775 2656 775 
Q 2688 775 2720 739 
Q 2753 703 2753 672 
Q 2753 647 2741 634 
Q 2506 306 2109 117 
Q 1713 -72 1288 -72 
z
M 909 1631 
Q 1281 1631 1597 1665 
Q 1913 1700 2169 1839 
Q 2425 1978 2425 2272 
Q 2425 2391 2359 2480 
Q 2294 2569 2189 2616 
Q 2084 2663 1972 2663 
Q 1700 2663 1483 2516 
Q 1266 2369 1125 2133 
Q 984 1897 909 1631 
z
" id="Cmmi10-65" transform="scale(0.015625)"/>
      <path d="M 594 0 
L 594 225 
Q 1394 225 1394 428 
L 1394 3788 
Q 1063 3628 556 3628 
L 556 3853 
Q 1341 3853 1741 4263 
L 1831 4263 
Q 1853 4263 1873 4245 
Q 1894 4228 1894 4206 
L 1894 428 
Q 1894 225 2694 225 
L 2694 0 
L 594 0 
z
" id="Cmr10-31" transform="scale(0.015625)"/>
      <path d="M 269 972 
Q 269 1356 522 1651 
Q 775 1947 1172 2144 
L 934 2297 
Q 716 2441 578 2680 
Q 441 2919 441 3181 
Q 441 3488 602 3734 
Q 763 3981 1030 4122 
Q 1297 4263 1600 4263 
Q 1884 4263 2148 4147 
Q 2413 4031 2583 3815 
Q 2753 3600 2753 3303 
Q 2753 3088 2651 2903 
Q 2550 2719 2373 2572 
Q 2197 2425 1997 2322 
L 2363 2088 
Q 2616 1922 2770 1653 
Q 2925 1384 2925 1088 
Q 2925 741 2739 456 
Q 2553 172 2247 15 
Q 1941 -141 1600 -141 
Q 1269 -141 961 -6 
Q 653 128 461 383 
Q 269 638 269 972 
z
M 616 972 
Q 616 719 755 509 
Q 894 300 1122 181 
Q 1350 63 1600 63 
Q 1972 63 2275 280 
Q 2578 497 2578 856 
Q 2578 978 2529 1098 
Q 2481 1219 2395 1317 
Q 2309 1416 2203 1478 
L 1344 2034 
Q 1144 1928 976 1765 
Q 809 1603 712 1400 
Q 616 1197 616 972 
z
M 1056 2925 
L 1831 2425 
Q 2100 2581 2272 2803 
Q 2444 3025 2444 3303 
Q 2444 3519 2323 3698 
Q 2203 3878 2009 3978 
Q 1816 4078 1594 4078 
Q 1400 4078 1203 4003 
Q 1006 3928 878 3779 
Q 750 3631 750 3431 
Q 750 3131 1056 2925 
z
" id="Cmr10-38" transform="scale(0.015625)"/>
      <path d="M 556 728 
Q 622 541 758 387 
Q 894 234 1080 148 
Q 1266 63 1466 63 
Q 1928 63 2103 422 
Q 2278 781 2278 1294 
Q 2278 1516 2270 1667 
Q 2263 1819 2228 1959 
Q 2169 2184 2020 2353 
Q 1872 2522 1656 2522 
Q 1441 2522 1286 2456 
Q 1131 2391 1034 2303 
Q 938 2216 863 2119 
Q 788 2022 769 2016 
L 697 2016 
Q 681 2016 657 2036 
Q 634 2056 634 2075 
L 634 4213 
Q 634 4228 654 4245 
Q 675 4263 697 4263 
L 716 4263 
Q 1147 4056 1631 4056 
Q 2106 4056 2547 4263 
L 2566 4263 
Q 2588 4263 2606 4247 
Q 2625 4231 2625 4213 
L 2625 4153 
Q 2625 4122 2613 4122 
Q 2394 3831 2064 3668 
Q 1734 3506 1381 3506 
Q 1125 3506 856 3578 
L 856 2369 
Q 1069 2541 1236 2614 
Q 1403 2688 1663 2688 
Q 2016 2688 2295 2484 
Q 2575 2281 2725 1954 
Q 2875 1628 2875 1288 
Q 2875 903 2686 575 
Q 2497 247 2172 53 
Q 1847 -141 1466 -141 
Q 1150 -141 886 21 
Q 622 184 470 459 
Q 319 734 319 1044 
Q 319 1188 412 1278 
Q 506 1369 647 1369 
Q 788 1369 883 1276 
Q 978 1184 978 1044 
Q 978 906 883 811 
Q 788 716 647 716 
Q 625 716 597 720 
Q 569 725 556 728 
z
" id="Cmr10-35" transform="scale(0.015625)"/>
      <path d="M 319 0 
L 319 172 
Q 319 188 331 206 
L 1325 1306 
Q 1550 1550 1690 1715 
Q 1831 1881 1968 2097 
Q 2106 2313 2186 2536 
Q 2266 2759 2266 3009 
Q 2266 3272 2169 3511 
Q 2072 3750 1880 3894 
Q 1688 4038 1416 4038 
Q 1138 4038 916 3870 
Q 694 3703 603 3438 
Q 628 3444 672 3444 
Q 816 3444 917 3347 
Q 1019 3250 1019 3097 
Q 1019 2950 917 2848 
Q 816 2747 672 2747 
Q 522 2747 420 2851 
Q 319 2956 319 3097 
Q 319 3338 409 3548 
Q 500 3759 670 3923 
Q 841 4088 1055 4175 
Q 1269 4263 1509 4263 
Q 1875 4263 2190 4108 
Q 2506 3953 2690 3670 
Q 2875 3388 2875 3009 
Q 2875 2731 2753 2481 
Q 2631 2231 2440 2026 
Q 2250 1822 1953 1562 
Q 1656 1303 1563 1216 
L 838 519 
L 1453 519 
Q 1906 519 2211 526 
Q 2516 534 2534 550 
Q 2609 631 2688 1141 
L 2875 1141 
L 2694 0 
L 319 0 
z
" id="Cmr10-32" transform="scale(0.015625)"/>
     </defs>
     <use transform="translate(0 0.8125)" xlink:href="#Cmmi10-65"/>
     <use transform="translate(46.484375 -16.19375)scale(0.7)" xlink:href="#Cmr10-31"/>
     <use transform="translate(81.484375 -16.19375)scale(0.7)" xlink:href="#Cmr10-38"/>
     <use transform="translate(116.484375 -16.19375)scale(0.7)" xlink:href="#Cmr10-35"/>
     <use transform="translate(151.484375 -16.19375)scale(0.7)" xlink:href="#Cmr10-32"/>
    </g>
   </g>
   <g id="patch_6">
    <path d="M 90.055 172.339907 
Q 90.055 180.121997 90.055 189.022121 
" style="fill:none;stroke:#000000;stroke-linecap:round;"/>
    <path d="M 87.455 177.539907 
L 90.055 172.339907 
L 92.655 177.539907 
" style="fill:none;stroke:#000000;stroke-linecap:round;"/>
   </g>
   <g id="text_4">
    <g id="patch_7">
     <path d="M 75.3 127.842241 
L 104.81 127.842241 
L 104.81 105.872241 
L 75.3 105.872241 
z
" style="fill:none;stroke:#000000;stroke-linejoin:miter;"/>
    </g>
    <!-- $a^{\langle 1 \rangle}$ -->
    <g transform="translate(79.2 121.238648)scale(0.13 -0.13)">
     <defs>
      <path d="M 1113 -72 
Q 709 -72 476 233 
Q 244 538 244 953 
Q 244 1363 456 1803 
Q 669 2244 1030 2536 
Q 1391 2828 1806 2828 
Q 1997 2828 2147 2725 
Q 2297 2622 2381 2444 
Q 2453 2700 2663 2700 
Q 2744 2700 2798 2651 
Q 2853 2603 2853 2522 
Q 2853 2503 2851 2493 
Q 2850 2484 2847 2472 
L 2400 684 
Q 2356 494 2356 372 
Q 2356 97 2541 97 
Q 2741 97 2845 351 
Q 2950 606 3022 941 
Q 3034 978 3072 978 
L 3150 978 
Q 3175 978 3190 956 
Q 3206 934 3206 916 
Q 3094 469 2961 198 
Q 2828 -72 2528 -72 
Q 2313 -72 2147 54 
Q 1981 181 1941 391 
Q 1528 -72 1113 -72 
z
M 1119 97 
Q 1350 97 1567 270 
Q 1784 444 1941 678 
Q 1947 684 1947 697 
L 2291 2088 
L 2297 2106 
Q 2259 2334 2132 2498 
Q 2006 2663 1791 2663 
Q 1575 2663 1389 2486 
Q 1203 2309 1075 2069 
Q 950 1813 836 1366 
Q 722 919 722 672 
Q 722 450 817 273 
Q 913 97 1119 97 
z
" id="Cmmi10-61" transform="scale(0.015625)"/>
      <path d="M 2272 -7347 
L 641 -3634 
Q 628 -3616 628 -3584 
Q 628 -3553 641 -3541 
L 2272 178 
Q 2303 256 2388 256 
Q 2434 256 2475 215 
Q 2516 175 2516 128 
Q 2516 97 2509 84 
L 897 -3584 
L 2509 -7250 
Q 2516 -7263 2516 -7297 
Q 2516 -7344 2475 -7384 
Q 2434 -7425 2388 -7425 
Q 2306 -7425 2272 -7347 
z
" id="Cmex10-ad" transform="scale(0.015625)"/>
      <path d="M 500 -7297 
Q 500 -7263 513 -7250 
L 2119 -3584 
L 513 84 
Q 500 97 500 128 
Q 500 175 537 215 
Q 575 256 628 256 
Q 703 256 750 178 
L 2381 -3541 
Q 2388 -3553 2388 -3584 
Q 2388 -3616 2381 -3634 
L 750 -7347 
Q 700 -7425 628 -7425 
Q 575 -7425 537 -7384 
Q 500 -7344 500 -7297 
z
" id="Cmex10-ae" transform="scale(0.015625)"/>
     </defs>
     <use transform="translate(0 0.597135)" xlink:href="#Cmmi10-61"/>
     <use transform="translate(59.086484 104.202344)scale(0.7)" xlink:href="#Cmex10-ad"/>
     <use transform="translate(92.138242 38.861198)scale(0.7)" xlink:href="#Cmr10-31"/>
     <use transform="translate(127.138242 104.202344)scale(0.7)" xlink:href="#Cmex10-ae"/>
    </g>
   </g>
   <g id="patch_8">
    <path d="M 90.055 130.962358 
Q 90.055 138.343795 90.055 146.843265 
" style="fill:none;stroke:#000000;stroke-linecap:round;"/>
    <path d="M 87.455 136.162358 
L 90.055 130.962358 
L 92.655 136.162358 
" style="fill:none;stroke:#000000;stroke-linecap:round;"/>
   </g>
   <g id="text_5">
    <g id="patch_9">
     <path d="M 138.135 253.575609 
L 185.975 253.575609 
L 185.975 233.194046 
L 138.135 233.194046 
z
" style="fill:none;"/>
    </g>
    <!-- $\mathrm{lacking}$ -->
    <g transform="translate(142.035 246.945609)scale(0.13 -0.13)">
     <defs>
      <path d="M 256 628 
Q 256 1009 556 1248 
Q 856 1488 1276 1586 
Q 1697 1684 2075 1684 
L 2075 1947 
Q 2075 2131 1994 2304 
Q 1913 2478 1759 2589 
Q 1606 2700 1422 2700 
Q 997 2700 775 2509 
Q 897 2509 976 2417 
Q 1056 2325 1056 2203 
Q 1056 2075 965 1984 
Q 875 1894 750 1894 
Q 622 1894 531 1984 
Q 441 2075 441 2203 
Q 441 2541 747 2705 
Q 1053 2869 1422 2869 
Q 1681 2869 1943 2758 
Q 2206 2647 2373 2440 
Q 2541 2234 2541 1959 
L 2541 519 
Q 2541 394 2594 289 
Q 2647 184 2759 184 
Q 2866 184 2917 290 
Q 2969 397 2969 519 
L 2969 928 
L 3156 928 
L 3156 519 
Q 3156 375 3081 245 
Q 3006 116 2879 39 
Q 2753 -38 2606 -38 
Q 2419 -38 2283 107 
Q 2147 253 2131 453 
Q 2013 213 1781 70 
Q 1550 -72 1288 -72 
Q 1044 -72 808 0 
Q 572 72 414 226 
Q 256 381 256 628 
z
M 775 628 
Q 775 403 940 250 
Q 1106 97 1331 97 
Q 1538 97 1706 200 
Q 1875 303 1975 481 
Q 2075 659 2075 856 
L 2075 1522 
Q 1784 1522 1479 1426 
Q 1175 1331 975 1128 
Q 775 925 775 628 
z
" id="Cmr10-61" transform="scale(0.015625)"/>
      <path d="M 1594 -72 
Q 1206 -72 890 129 
Q 575 331 394 667 
Q 213 1003 213 1381 
Q 213 1759 392 2106 
Q 572 2453 889 2661 
Q 1206 2869 1594 2869 
Q 1969 2869 2276 2722 
Q 2584 2575 2584 2241 
Q 2584 2116 2495 2023 
Q 2406 1931 2278 1931 
Q 2150 1931 2061 2023 
Q 1972 2116 1972 2241 
Q 1972 2353 2044 2436 
Q 2116 2519 2222 2541 
Q 2000 2681 1600 2681 
Q 1294 2681 1106 2478 
Q 919 2275 844 1975 
Q 769 1675 769 1381 
Q 769 1072 861 783 
Q 953 494 1158 305 
Q 1363 116 1672 116 
Q 1975 116 2187 302 
Q 2400 488 2478 788 
Q 2478 825 2528 825 
L 2606 825 
Q 2625 825 2640 808 
Q 2656 791 2656 769 
L 2656 750 
Q 2559 372 2271 150 
Q 1984 -72 1594 -72 
z
" id="Cmr10-63" transform="scale(0.015625)"/>
      <path d="M 166 0 
L 166 225 
Q 384 225 525 259 
Q 666 294 666 428 
L 666 3788 
Q 666 3959 614 4036 
Q 563 4113 466 4130 
Q 369 4147 166 4147 
L 166 4372 
L 1113 4441 
L 1113 1403 
L 1972 2156 
Q 2100 2278 2100 2381 
Q 2100 2456 2047 2495 
Q 1994 2534 1919 2534 
L 1919 2759 
L 3122 2759 
L 3122 2534 
Q 2688 2534 2253 2156 
L 1797 1759 
L 2613 603 
Q 2781 363 2895 294 
Q 3009 225 3272 225 
L 3272 0 
L 1997 0 
L 1997 225 
Q 2216 225 2216 359 
Q 2216 456 2100 603 
L 1484 1478 
L 1094 1141 
L 1094 428 
Q 1094 294 1236 259 
Q 1378 225 1594 225 
L 1594 0 
L 166 0 
z
" id="Cmr10-6b" transform="scale(0.015625)"/>
      <path d="M 197 0 
L 197 225 
Q 416 225 556 259 
Q 697 294 697 428 
L 697 2175 
Q 697 2422 601 2478 
Q 506 2534 225 2534 
L 225 2759 
L 1147 2828 
L 1147 428 
Q 1147 294 1269 259 
Q 1391 225 1594 225 
L 1594 0 
L 197 0 
z
M 469 3928 
Q 469 4069 575 4175 
Q 681 4281 819 4281 
Q 909 4281 993 4234 
Q 1078 4188 1125 4103 
Q 1172 4019 1172 3928 
Q 1172 3791 1065 3684 
Q 959 3578 819 3578 
Q 681 3578 575 3684 
Q 469 3791 469 3928 
z
" id="Cmr10-69" transform="scale(0.015625)"/>
      <path d="M 191 0 
L 191 225 
Q 409 225 550 259 
Q 691 294 691 428 
L 691 2175 
Q 691 2347 639 2423 
Q 588 2500 491 2517 
Q 394 2534 191 2534 
L 191 2759 
L 1119 2828 
L 1119 2203 
Q 1247 2478 1498 2653 
Q 1750 2828 2047 2828 
Q 2491 2828 2714 2615 
Q 2938 2403 2938 1966 
L 2938 428 
Q 2938 294 3078 259 
Q 3219 225 3438 225 
L 3438 0 
L 1972 0 
L 1972 225 
Q 2191 225 2331 259 
Q 2472 294 2472 428 
L 2472 1947 
Q 2472 2259 2381 2461 
Q 2291 2663 2009 2663 
Q 1638 2663 1398 2366 
Q 1159 2069 1159 1691 
L 1159 428 
Q 1159 294 1300 259 
Q 1441 225 1656 225 
L 1656 0 
L 191 0 
z
" id="Cmr10-6e" transform="scale(0.015625)"/>
      <path d="M 178 -500 
Q 178 -272 343 -101 
Q 509 69 738 141 
Q 609 238 542 384 
Q 475 531 475 697 
Q 475 997 666 1228 
Q 372 1516 372 1888 
Q 372 2088 458 2263 
Q 544 2438 697 2566 
Q 850 2694 1037 2761 
Q 1225 2828 1422 2828 
Q 1803 2828 2106 2606 
Q 2238 2747 2417 2823 
Q 2597 2900 2791 2900 
Q 2928 2900 3015 2801 
Q 3103 2703 3103 2566 
Q 3103 2488 3043 2428 
Q 2984 2369 2906 2369 
Q 2825 2369 2765 2428 
Q 2706 2488 2706 2566 
Q 2706 2684 2784 2731 
Q 2453 2731 2216 2503 
Q 2331 2388 2401 2220 
Q 2472 2053 2472 1888 
Q 2472 1616 2322 1398 
Q 2172 1181 1926 1061 
Q 1681 941 1422 941 
Q 1072 941 781 1131 
Q 691 1006 691 850 
Q 691 681 802 554 
Q 913 428 1081 428 
L 1606 428 
Q 1988 428 2294 359 
Q 2600 291 2808 84 
Q 3016 -122 3016 -500 
Q 3016 -781 2778 -967 
Q 2541 -1153 2211 -1236 
Q 1881 -1319 1600 -1319 
Q 1316 -1319 984 -1236 
Q 653 -1153 415 -967 
Q 178 -781 178 -500 
z
M 538 -500 
Q 538 -716 713 -861 
Q 888 -1006 1134 -1076 
Q 1381 -1147 1600 -1147 
Q 1816 -1147 2062 -1076 
Q 2309 -1006 2482 -861 
Q 2656 -716 2656 -500 
Q 2656 -166 2350 -67 
Q 2044 31 1606 31 
L 1081 31 
Q 934 31 811 -39 
Q 688 -109 613 -236 
Q 538 -363 538 -500 
z
M 1422 1113 
Q 1966 1113 1966 1888 
Q 1966 2222 1850 2439 
Q 1734 2656 1422 2656 
Q 1109 2656 993 2439 
Q 878 2222 878 1888 
Q 878 1675 922 1503 
Q 966 1331 1084 1222 
Q 1203 1113 1422 1113 
z
" id="Cmr10-67" transform="scale(0.015625)"/>
     </defs>
     <use transform="translate(0 0.609375)" xlink:href="#Cmr10-6c"/>
     <use transform="translate(27.685547 0.609375)" xlink:href="#Cmr10-61"/>
     <use transform="translate(77.685547 0.609375)" xlink:href="#Cmr10-63"/>
     <use transform="translate(122.070312 0.609375)" xlink:href="#Cmr10-6b"/>
     <use transform="translate(174.755859 0.609375)" xlink:href="#Cmr10-69"/>
     <use transform="translate(202.441406 0.609375)" xlink:href="#Cmr10-6e"/>
     <use transform="translate(257.958984 0.609375)" xlink:href="#Cmr10-67"/>
    </g>
   </g>
   <g id="text_6">
    <g id="patch_10">
     <path d="M 153.345 211.399747 
L 170.765 211.399747 
L 170.765 191.018184 
L 153.345 191.018184 
z
" style="fill:none;"/>
    </g>
    <!-- $E$ -->
    <g transform="translate(157.245 204.796153)scale(0.13 -0.13)">
     <use transform="translate(0 0.6875)" xlink:href="#Cmmi10-45"/>
    </g>
   </g>
   <g id="patch_11">
    <path d="M 162.055 214.515769 
Q 162.055 222.297859 162.055 231.197983 
" style="fill:none;stroke:#000000;stroke-linecap:round;"/>
    <path d="M 159.455 219.715769 
L 162.055 214.515769 
L 164.655 219.715769 
" style="fill:none;stroke:#000000;stroke-linecap:round;"/>
   </g>
   <g id="text_7">
    <g id="patch_12">
     <path d="M 145.61 169.223885 
L 178.5 169.223885 
L 178.5 148.842322 
L 145.61 148.842322 
z
" style="fill:none;"/>
    </g>
    <!-- $e_{4966}$ -->
    <g transform="translate(149.51 162.620291)scale(0.13 -0.13)">
     <defs>
      <path d="M 178 1056 
L 178 1281 
L 2156 4231 
Q 2178 4263 2222 4263 
L 2316 4263 
Q 2388 4263 2388 4191 
L 2388 1281 
L 3016 1281 
L 3016 1056 
L 2388 1056 
L 2388 428 
Q 2388 297 2575 261 
Q 2763 225 3009 225 
L 3009 0 
L 1247 0 
L 1247 225 
Q 1494 225 1681 261 
Q 1869 297 1869 428 
L 1869 1056 
L 178 1056 
z
M 391 1281 
L 1906 1281 
L 1906 3547 
L 391 1281 
z
" id="Cmr10-34" transform="scale(0.015625)"/>
      <path d="M 722 269 
Q 897 63 1331 63 
Q 1575 63 1786 228 
Q 1997 394 2113 634 
Q 2247 906 2284 1214 
Q 2322 1522 2322 1978 
Q 2213 1719 2008 1553 
Q 1803 1388 1538 1388 
Q 1166 1388 873 1589 
Q 581 1791 425 2120 
Q 269 2450 269 2822 
Q 269 3206 444 3539 
Q 619 3872 928 4067 
Q 1238 4263 1631 4263 
Q 2019 4263 2280 4052 
Q 2541 3841 2678 3508 
Q 2816 3175 2870 2803 
Q 2925 2431 2925 2069 
Q 2925 1575 2744 1061 
Q 2563 547 2202 203 
Q 1841 -141 1331 -141 
Q 953 -141 690 37 
Q 428 216 428 575 
Q 428 706 517 795 
Q 606 884 738 884 
Q 866 884 955 795 
Q 1044 706 1044 575 
Q 1044 450 953 359 
Q 863 269 738 269 
L 722 269 
z
M 1563 1556 
Q 1825 1556 1992 1732 
Q 2159 1909 2234 2171 
Q 2309 2434 2309 2694 
L 2309 2816 
L 2309 2841 
Q 2309 3322 2168 3700 
Q 2028 4078 1631 4078 
Q 1378 4078 1220 3967 
Q 1063 3856 988 3672 
Q 913 3488 892 3278 
Q 872 3069 872 2822 
Q 872 2459 906 2203 
Q 941 1947 1094 1751 
Q 1247 1556 1563 1556 
z
" id="Cmr10-39" transform="scale(0.015625)"/>
      <path d="M 1600 -141 
Q 1203 -141 937 70 
Q 672 281 526 617 
Q 381 953 325 1322 
Q 269 1691 269 2069 
Q 269 2575 466 3084 
Q 663 3594 1045 3928 
Q 1428 4263 1953 4263 
Q 2172 4263 2361 4180 
Q 2550 4097 2658 3936 
Q 2766 3775 2766 3547 
Q 2766 3416 2677 3327 
Q 2588 3238 2456 3238 
Q 2331 3238 2240 3328 
Q 2150 3419 2150 3547 
Q 2150 3672 2240 3762 
Q 2331 3853 2456 3853 
L 2491 3853 
Q 2409 3969 2261 4023 
Q 2113 4078 1953 4078 
Q 1759 4078 1595 3993 
Q 1431 3909 1300 3765 
Q 1169 3622 1081 3448 
Q 994 3275 945 3053 
Q 897 2831 884 2637 
Q 872 2444 872 2150 
Q 984 2413 1190 2580 
Q 1397 2747 1656 2747 
Q 1941 2747 2175 2631 
Q 2409 2516 2578 2311 
Q 2747 2106 2836 1843 
Q 2925 1581 2925 1313 
Q 2925 938 2758 598 
Q 2591 259 2287 59 
Q 1984 -141 1600 -141 
z
M 1600 63 
Q 1847 63 1997 175 
Q 2147 288 2217 473 
Q 2288 659 2305 848 
Q 2322 1038 2322 1313 
Q 2322 1675 2287 1931 
Q 2253 2188 2100 2383 
Q 1947 2578 1631 2578 
Q 1372 2578 1205 2403 
Q 1038 2228 961 1961 
Q 884 1694 884 1447 
Q 884 1363 891 1319 
Q 891 1309 889 1303 
Q 888 1297 884 1288 
Q 884 1013 940 731 
Q 997 450 1156 256 
Q 1316 63 1600 63 
z
" id="Cmr10-36" transform="scale(0.015625)"/>
     </defs>
     <use transform="translate(0 0.8125)" xlink:href="#Cmmi10-65"/>
     <use transform="translate(46.484375 -16.19375)scale(0.7)" xlink:href="#Cmr10-34"/>
     <use transform="translate(81.484375 -16.19375)scale(0.7)" xlink:href="#Cmr10-39"/>
     <use transform="translate(116.484375 -16.19375)scale(0.7)" xlink:href="#Cmr10-36"/>
     <use transform="translate(151.484375 -16.19375)scale(0.7)" xlink:href="#Cmr10-36"/>
    </g>
   </g>
   <g id="patch_13">
    <path d="M 162.055 172.339907 
Q 162.055 180.121997 162.055 189.022121 
" style="fill:none;stroke:#000000;stroke-linecap:round;"/>
    <path d="M 159.455 177.539907 
L 162.055 172.339907 
L 164.655 177.539907 
" style="fill:none;stroke:#000000;stroke-linecap:round;"/>
   </g>
   <g id="text_8">
    <g id="patch_14">
     <path d="M 147.3 127.842241 
L 176.81 127.842241 
L 176.81 105.872241 
L 147.3 105.872241 
z
" style="fill:none;stroke:#000000;stroke-linejoin:miter;"/>
    </g>
    <!-- $a^{\langle 2 \rangle}$ -->
    <g transform="translate(151.2 121.238648)scale(0.13 -0.13)">
     <use transform="translate(0 0.597135)" xlink:href="#Cmmi10-61"/>
     <use transform="translate(59.086484 104.202344)scale(0.7)" xlink:href="#Cmex10-ad"/>
     <use transform="translate(92.138242 38.861198)scale(0.7)" xlink:href="#Cmr10-32"/>
     <use transform="translate(127.138242 104.202344)scale(0.7)" xlink:href="#Cmex10-ae"/>
    </g>
   </g>
   <g id="patch_15">
    <path d="M 162.055 130.962358 
Q 162.055 138.343795 162.055 146.843265 
" style="fill:none;stroke:#000000;stroke-linecap:round;"/>
    <path d="M 159.455 136.162358 
L 162.055 130.962358 
L 164.655 136.162358 
" style="fill:none;stroke:#000000;stroke-linecap:round;"/>
   </g>
   <g id="text_9">
    <g id="patch_16">
     <path d="M 224.695 253.575609 
L 243.415 253.575609 
L 243.415 233.194046 
L 224.695 233.194046 
z
" style="fill:none;"/>
    </g>
    <!-- $\mathrm{in}$ -->
    <g transform="translate(228.595 246.972015)scale(0.13 -0.13)">
     <use transform="translate(0 0.109375)" xlink:href="#Cmr10-69"/>
     <use transform="translate(27.685547 0.109375)" xlink:href="#Cmr10-6e"/>
    </g>
   </g>
   <g id="text_10">
    <g id="patch_17">
     <path d="M 225.345 211.399747 
L 242.765 211.399747 
L 242.765 191.018184 
L 225.345 191.018184 
z
" style="fill:none;"/>
    </g>
    <!-- $E$ -->
    <g transform="translate(229.245 204.796153)scale(0.13 -0.13)">
     <use transform="translate(0 0.6875)" xlink:href="#Cmmi10-45"/>
    </g>
   </g>
   <g id="patch_18">
    <path d="M 234.055 214.515769 
Q 234.055 222.297859 234.055 231.197983 
" style="fill:none;stroke:#000000;stroke-linecap:round;"/>
    <path d="M 231.455 219.715769 
L 234.055 214.515769 
L 236.655 219.715769 
" style="fill:none;stroke:#000000;stroke-linecap:round;"/>
   </g>
   <g id="text_11">
    <g id="patch_19">
     <path d="M 217.61 169.223885 
L 250.5 169.223885 
L 250.5 148.842322 
L 217.61 148.842322 
z
" style="fill:none;"/>
    </g>
    <!-- $e_{4427}$ -->
    <g transform="translate(221.51 162.620291)scale(0.13 -0.13)">
     <defs>
      <path d="M 1113 166 
Q 1113 522 1175 862 
Q 1238 1203 1358 1536 
Q 1478 1869 1648 2189 
Q 1819 2509 2022 2791 
L 2606 3603 
L 1875 3603 
Q 738 3603 703 3572 
Q 619 3469 544 2981 
L 359 2981 
L 569 4325 
L 756 4325 
L 756 4306 
Q 756 4191 1147 4156 
Q 1538 4122 1913 4122 
L 3103 4122 
L 3103 3956 
Q 3103 3950 3101 3947 
Q 3100 3944 3097 3938 
L 2216 2700 
Q 1891 2219 1809 1631 
Q 1728 1044 1728 166 
Q 1728 41 1637 -50 
Q 1547 -141 1422 -141 
Q 1294 -141 1203 -50 
Q 1113 41 1113 166 
z
" id="Cmr10-37" transform="scale(0.015625)"/>
     </defs>
     <use transform="translate(0 0.8125)" xlink:href="#Cmmi10-65"/>
     <use transform="translate(46.484375 -16.19375)scale(0.7)" xlink:href="#Cmr10-34"/>
     <use transform="translate(81.484375 -16.19375)scale(0.7)" xlink:href="#Cmr10-34"/>
     <use transform="translate(116.484375 -16.19375)scale(0.7)" xlink:href="#Cmr10-32"/>
     <use transform="translate(151.484375 -16.19375)scale(0.7)" xlink:href="#Cmr10-37"/>
    </g>
   </g>
   <g id="patch_20">
    <path d="M 234.055 172.339907 
Q 234.055 180.121997 234.055 189.022121 
" style="fill:none;stroke:#000000;stroke-linecap:round;"/>
    <path d="M 231.455 177.539907 
L 234.055 172.339907 
L 236.655 177.539907 
" style="fill:none;stroke:#000000;stroke-linecap:round;"/>
   </g>
   <g id="text_12">
    <g id="patch_21">
     <path d="M 219.3 127.842241 
L 248.81 127.842241 
L 248.81 105.872241 
L 219.3 105.872241 
z
" style="fill:none;stroke:#000000;stroke-linejoin:miter;"/>
    </g>
    <!-- $a^{\langle 3 \rangle}$ -->
    <g transform="translate(223.2 121.238648)scale(0.13 -0.13)">
     <defs>
      <path d="M 609 494 
Q 759 275 1012 169 
Q 1266 63 1556 63 
Q 1928 63 2084 380 
Q 2241 697 2241 1100 
Q 2241 1281 2208 1462 
Q 2175 1644 2097 1800 
Q 2019 1956 1883 2050 
Q 1747 2144 1550 2144 
L 1125 2144 
Q 1069 2144 1069 2203 
L 1069 2259 
Q 1069 2309 1125 2309 
L 1478 2338 
Q 1703 2338 1851 2506 
Q 2000 2675 2069 2917 
Q 2138 3159 2138 3378 
Q 2138 3684 1994 3881 
Q 1850 4078 1556 4078 
Q 1313 4078 1091 3986 
Q 869 3894 738 3706 
Q 750 3709 759 3711 
Q 769 3713 781 3713 
Q 925 3713 1022 3613 
Q 1119 3513 1119 3372 
Q 1119 3234 1022 3134 
Q 925 3034 781 3034 
Q 641 3034 541 3134 
Q 441 3234 441 3372 
Q 441 3647 606 3850 
Q 772 4053 1033 4158 
Q 1294 4263 1556 4263 
Q 1750 4263 1965 4205 
Q 2181 4147 2356 4039 
Q 2531 3931 2642 3762 
Q 2753 3594 2753 3378 
Q 2753 3109 2633 2881 
Q 2513 2653 2303 2487 
Q 2094 2322 1844 2241 
Q 2122 2188 2372 2031 
Q 2622 1875 2773 1631 
Q 2925 1388 2925 1106 
Q 2925 753 2731 467 
Q 2538 181 2222 20 
Q 1906 -141 1556 -141 
Q 1256 -141 954 -26 
Q 653 88 461 316 
Q 269 544 269 863 
Q 269 1022 375 1128 
Q 481 1234 641 1234 
Q 744 1234 830 1186 
Q 916 1138 964 1050 
Q 1013 963 1013 863 
Q 1013 706 903 600 
Q 794 494 641 494 
L 609 494 
z
" id="Cmr10-33" transform="scale(0.015625)"/>
     </defs>
     <use transform="translate(0 0.597135)" xlink:href="#Cmmi10-61"/>
     <use transform="translate(59.086484 104.202344)scale(0.7)" xlink:href="#Cmex10-ad"/>
     <use transform="translate(92.138242 38.861198)scale(0.7)" xlink:href="#Cmr10-33"/>
     <use transform="translate(127.138242 104.202344)scale(0.7)" xlink:href="#Cmex10-ae"/>
    </g>
   </g>
   <g id="patch_22">
    <path d="M 234.055 130.962358 
Q 234.055 138.343795 234.055 146.843265 
" style="fill:none;stroke:#000000;stroke-linecap:round;"/>
    <path d="M 231.455 136.162358 
L 234.055 130.962358 
L 236.655 136.162358 
" style="fill:none;stroke:#000000;stroke-linecap:round;"/>
   </g>
   <g id="text_13">
    <g id="patch_23">
     <path d="M 288.765 253.575609 
L 323.345 253.575609 
L 323.345 233.194046 
L 288.765 233.194046 
z
" style="fill:none;"/>
    </g>
    <!-- $\mathrm{good}$ -->
    <g transform="translate(292.665 246.945609)scale(0.13 -0.13)">
     <defs>
      <path d="M 1563 -72 
Q 1184 -72 871 133 
Q 559 338 386 672 
Q 213 1006 213 1381 
Q 213 1769 402 2101 
Q 591 2434 916 2631 
Q 1241 2828 1631 2828 
Q 1866 2828 2075 2729 
Q 2284 2631 2438 2456 
L 2438 3788 
Q 2438 3959 2386 4036 
Q 2334 4113 2239 4130 
Q 2144 4147 1941 4147 
L 1941 4372 
L 2888 4441 
L 2888 581 
Q 2888 413 2939 336 
Q 2991 259 3086 242 
Q 3181 225 3384 225 
L 3384 0 
L 2419 -72 
L 2419 331 
Q 2253 141 2025 34 
Q 1797 -72 1563 -72 
z
M 909 556 
Q 1019 347 1201 222 
Q 1384 97 1600 97 
Q 1866 97 2087 250 
Q 2309 403 2419 647 
L 2419 2181 
Q 2344 2322 2230 2433 
Q 2116 2544 1973 2603 
Q 1831 2663 1672 2663 
Q 1338 2663 1134 2473 
Q 931 2284 850 1990 
Q 769 1697 769 1375 
Q 769 1119 795 928 
Q 822 738 909 556 
z
" id="Cmr10-64" transform="scale(0.015625)"/>
     </defs>
     <use transform="translate(0 0.609375)" xlink:href="#Cmr10-67"/>
     <use transform="translate(50 0.609375)" xlink:href="#Cmr10-6f"/>
     <use transform="translate(100 0.609375)" xlink:href="#Cmr10-6f"/>
     <use transform="translate(150 0.609375)" xlink:href="#Cmr10-64"/>
    </g>
   </g>
   <g id="text_14">
    <g id="patch_24">
     <path d="M 297.345 211.399747 
L 314.765 211.399747 
L 314.765 191.018184 
L 297.345 191.018184 
z
" style="fill:none;"/>
    </g>
    <!-- $E$ -->
    <g transform="translate(301.245 204.796153)scale(0.13 -0.13)">
     <use transform="translate(0 0.6875)" xlink:href="#Cmmi10-45"/>
    </g>
   </g>
   <g id="patch_25">
    <path d="M 306.055 214.515769 
Q 306.055 222.297859 306.055 231.197983 
" style="fill:none;stroke:#000000;stroke-linecap:round;"/>
    <path d="M 303.455 219.715769 
L 306.055 214.515769 
L 308.655 219.715769 
" style="fill:none;stroke:#000000;stroke-linecap:round;"/>
   </g>
   <g id="text_15">
    <g id="patch_26">
     <path d="M 289.61 169.223885 
L 322.5 169.223885 
L 322.5 148.842322 
L 289.61 148.842322 
z
" style="fill:none;"/>
    </g>
    <!-- $e_{3882}$ -->
    <g transform="translate(293.51 162.620291)scale(0.13 -0.13)">
     <use transform="translate(0 0.8125)" xlink:href="#Cmmi10-65"/>
     <use transform="translate(46.484375 -16.19375)scale(0.7)" xlink:href="#Cmr10-33"/>
     <use transform="translate(81.484375 -16.19375)scale(0.7)" xlink:href="#Cmr10-38"/>
     <use transform="translate(116.484375 -16.19375)scale(0.7)" xlink:href="#Cmr10-38"/>
     <use transform="translate(151.484375 -16.19375)scale(0.7)" xlink:href="#Cmr10-32"/>
    </g>
   </g>
   <g id="patch_27">
    <path d="M 306.055 172.339907 
Q 306.055 180.121997 306.055 189.022121 
" style="fill:none;stroke:#000000;stroke-linecap:round;"/>
    <path d="M 303.455 177.539907 
L 306.055 172.339907 
L 308.655 177.539907 
" style="fill:none;stroke:#000000;stroke-linecap:round;"/>
   </g>
   <g id="text_16">
    <g id="patch_28">
     <path d="M 291.3 127.842241 
L 320.81 127.842241 
L 320.81 105.872241 
L 291.3 105.872241 
z
" style="fill:none;stroke:#000000;stroke-linejoin:miter;"/>
    </g>
    <!-- $a^{\langle 4 \rangle}$ -->
    <g transform="translate(295.2 121.238648)scale(0.13 -0.13)">
     <use transform="translate(0 0.597135)" xlink:href="#Cmmi10-61"/>
     <use transform="translate(59.086484 104.202344)scale(0.7)" xlink:href="#Cmex10-ad"/>
     <use transform="translate(92.138242 38.861198)scale(0.7)" xlink:href="#Cmr10-34"/>
     <use transform="translate(127.138242 104.202344)scale(0.7)" xlink:href="#Cmex10-ae"/>
    </g>
   </g>
   <g id="patch_29">
    <path d="M 306.055 130.962358 
Q 306.055 138.343795 306.055 146.843265 
" style="fill:none;stroke:#000000;stroke-linecap:round;"/>
    <path d="M 303.455 136.162358 
L 306.055 130.962358 
L 308.655 136.162358 
" style="fill:none;stroke:#000000;stroke-linecap:round;"/>
   </g>
   <g id="text_17">
    <g id="patch_30">
     <path d="M 365.445 253.575609 
L 390.665 253.575609 
L 390.665 233.194046 
L 365.445 233.194046 
z
" style="fill:none;"/>
    </g>
    <!-- $\mathrm{...}$ -->
    <g transform="translate(369.345 246.972015)scale(0.13 -0.13)">
     <defs>
      <path d="M 538 353 
Q 538 497 644 600 
Q 750 703 891 703 
Q 978 703 1062 656 
Q 1147 609 1194 525 
Q 1241 441 1241 353 
Q 1241 213 1137 106 
Q 1034 0 891 0 
Q 750 0 644 106 
Q 538 213 538 353 
z
" id="Cmmi10-3a" transform="scale(0.015625)"/>
     </defs>
     <use transform="translate(0 0.015625)" xlink:href="#Cmmi10-3a"/>
     <use transform="translate(44.345703 0.015625)" xlink:href="#Cmmi10-3a"/>
     <use transform="translate(88.691406 0.015625)" xlink:href="#Cmmi10-3a"/>
    </g>
   </g>
   <g id="text_18">
    <g id="patch_31">
     <path d="M 365.445 127.048023 
L 390.665 127.048023 
L 390.665 106.66646 
L 365.445 106.66646 
z
" style="fill:none;stroke:#ffffff;stroke-linejoin:miter;"/>
    </g>
    <!-- $\mathrm{...}$ -->
    <g transform="translate(369.345 120.444429)scale(0.13 -0.13)">
     <use transform="translate(0 0.015625)" xlink:href="#Cmmi10-3a"/>
     <use transform="translate(44.345703 0.015625)" xlink:href="#Cmmi10-3a"/>
     <use transform="translate(88.691406 0.015625)" xlink:href="#Cmmi10-3a"/>
    </g>
   </g>
   <g id="text_19">
    <g id="patch_32">
     <path d="M 419.765 253.575609 
L 480.345 253.575609 
L 480.345 233.194046 
L 419.765 233.194046 
z
" style="fill:none;"/>
    </g>
    <!-- $\mathrm{ambience}$ -->
    <g transform="translate(423.665 246.972015)scale(0.13 -0.13)">
     <defs>
      <path d="M 666 0 
L 666 3788 
Q 666 3959 614 4036 
Q 563 4113 466 4130 
Q 369 4147 166 4147 
L 166 4372 
L 1113 4441 
L 1113 2438 
Q 1219 2556 1361 2645 
Q 1503 2734 1665 2781 
Q 1828 2828 1997 2828 
Q 2284 2828 2529 2712 
Q 2775 2597 2956 2394 
Q 3138 2191 3239 1927 
Q 3341 1663 3341 1381 
Q 3341 994 3152 659 
Q 2963 325 2636 126 
Q 2309 -72 1919 -72 
Q 1675 -72 1447 53 
Q 1219 178 1069 384 
L 850 0 
L 666 0 
z
M 1131 628 
Q 1238 394 1438 245 
Q 1638 97 1881 97 
Q 2213 97 2417 287 
Q 2622 478 2703 768 
Q 2784 1059 2784 1381 
Q 2784 1922 2644 2203 
Q 2581 2328 2473 2434 
Q 2366 2541 2233 2602 
Q 2100 2663 1953 2663 
Q 1697 2663 1478 2527 
Q 1259 2391 1131 2163 
L 1131 628 
z
" id="Cmr10-62" transform="scale(0.015625)"/>
     </defs>
     <use transform="translate(0 0.609375)" xlink:href="#Cmr10-61"/>
     <use transform="translate(50 0.609375)" xlink:href="#Cmr10-6d"/>
     <use transform="translate(133.300781 0.609375)" xlink:href="#Cmr10-62"/>
     <use transform="translate(188.818359 0.609375)" xlink:href="#Cmr10-69"/>
     <use transform="translate(216.503906 0.609375)" xlink:href="#Cmr10-65"/>
     <use transform="translate(260.888672 0.609375)" xlink:href="#Cmr10-6e"/>
     <use transform="translate(316.40625 0.609375)" xlink:href="#Cmr10-63"/>
     <use transform="translate(360.791016 0.609375)" xlink:href="#Cmr10-65"/>
    </g>
   </g>
   <g id="text_20">
    <g id="patch_33">
     <path d="M 441.345 211.399747 
L 458.765 211.399747 
L 458.765 191.018184 
L 441.345 191.018184 
z
" style="fill:none;"/>
    </g>
    <!-- $E$ -->
    <g transform="translate(445.245 204.796153)scale(0.13 -0.13)">
     <use transform="translate(0 0.6875)" xlink:href="#Cmmi10-45"/>
    </g>
   </g>
   <g id="patch_34">
    <path d="M 450.055 214.515769 
Q 450.055 222.297859 450.055 231.197983 
" style="fill:none;stroke:#000000;stroke-linecap:round;"/>
    <path d="M 447.455 219.715769 
L 450.055 214.515769 
L 452.655 219.715769 
" style="fill:none;stroke:#000000;stroke-linecap:round;"/>
   </g>
   <g id="text_21">
    <g id="patch_35">
     <path d="M 435.885 169.223885 
L 464.225 169.223885 
L 464.225 148.842322 
L 435.885 148.842322 
z
" style="fill:none;"/>
    </g>
    <!-- $e_{330}$ -->
    <g transform="translate(439.785 162.620291)scale(0.13 -0.13)">
     <defs>
      <path d="M 1600 -141 
Q 816 -141 533 504 
Q 250 1150 250 2041 
Q 250 2597 351 3087 
Q 453 3578 754 3920 
Q 1056 4263 1600 4263 
Q 2022 4263 2290 4056 
Q 2559 3850 2700 3523 
Q 2841 3197 2892 2823 
Q 2944 2450 2944 2041 
Q 2944 1491 2842 1011 
Q 2741 531 2444 195 
Q 2147 -141 1600 -141 
z
M 1600 25 
Q 1956 25 2131 390 
Q 2306 756 2347 1200 
Q 2388 1644 2388 2144 
Q 2388 2625 2347 3031 
Q 2306 3438 2132 3767 
Q 1959 4097 1600 4097 
Q 1238 4097 1063 3765 
Q 888 3434 847 3029 
Q 806 2625 806 2144 
Q 806 1788 823 1472 
Q 841 1156 916 820 
Q 991 484 1158 254 
Q 1325 25 1600 25 
z
" id="Cmr10-30" transform="scale(0.015625)"/>
     </defs>
     <use transform="translate(0 0.8125)" xlink:href="#Cmmi10-65"/>
     <use transform="translate(46.484375 -16.19375)scale(0.7)" xlink:href="#Cmr10-33"/>
     <use transform="translate(81.484375 -16.19375)scale(0.7)" xlink:href="#Cmr10-33"/>
     <use transform="translate(116.484375 -16.19375)scale(0.7)" xlink:href="#Cmr10-30"/>
    </g>
   </g>
   <g id="patch_36">
    <path d="M 450.055 172.339907 
Q 450.055 180.121997 450.055 189.022121 
" style="fill:none;stroke:#000000;stroke-linecap:round;"/>
    <path d="M 447.455 177.539907 
L 450.055 172.339907 
L 452.655 177.539907 
" style="fill:none;stroke:#000000;stroke-linecap:round;"/>
   </g>
   <g id="text_22">
    <g id="patch_37">
     <path d="M 433.025 127.842241 
L 467.085 127.842241 
L 467.085 105.872241 
L 433.025 105.872241 
z
" style="fill:none;stroke:#000000;stroke-linejoin:miter;"/>
    </g>
    <!-- $a^{\langle 10 \rangle}$ -->
    <g transform="translate(436.925 121.238648)scale(0.13 -0.13)">
     <use transform="translate(0 0.597135)" xlink:href="#Cmmi10-61"/>
     <use transform="translate(59.086484 104.202344)scale(0.7)" xlink:href="#Cmex10-ad"/>
     <use transform="translate(92.138242 38.861198)scale(0.7)" xlink:href="#Cmr10-31"/>
     <use transform="translate(127.138242 38.861198)scale(0.7)" xlink:href="#Cmr10-30"/>
     <use transform="translate(162.138242 104.202344)scale(0.7)" xlink:href="#Cmex10-ae"/>
    </g>
   </g>
   <g id="patch_38">
    <path d="M 450.055 130.962358 
Q 450.055 138.343795 450.055 146.843265 
" style="fill:none;stroke:#000000;stroke-linecap:round;"/>
    <path d="M 447.455 136.162358 
L 450.055 130.962358 
L 452.655 136.162358 
" style="fill:none;stroke:#000000;stroke-linecap:round;"/>
   </g>
   <g id="text_23">
    <g id="patch_39">
     <path d="M 450.055 68.001816 
C 452.757627 68.001816 455.349925 66.928051 457.260971 65.017005 
C 459.172016 63.105959 460.245781 60.513661 460.245781 57.811034 
C 460.245781 55.108408 459.172016 52.51611 457.260971 50.605064 
C 455.349925 48.694018 452.757627 47.620253 450.055 47.620253 
C 447.352373 47.620253 444.760075 48.694018 442.849029 50.605064 
C 440.937984 52.51611 439.864219 55.108408 439.864219 57.811034 
C 439.864219 60.513661 440.937984 63.105959 442.849029 65.017005 
C 444.760075 66.928051 447.352373 68.001816 450.055 68.001816 
z
" style="fill:none;stroke:#000000;stroke-linejoin:miter;"/>
    </g>
    <!--   -->
    <g transform="translate(447.989219 61.398222)scale(0.13 -0.13)">
     <defs>
      <path id="DejaVuSans-20" transform="scale(0.015625)"/>
     </defs>
     <use xlink:href="#DejaVuSans-20"/>
    </g>
   </g>
   <g id="text_24">
    <!-- softmax -->
    <g transform="translate(429.864375 80.951972)scale(0.1 -0.1)">
     <defs>
      <path d="M 2834 3397 
L 2834 2853 
Q 2591 2978 2328 3040 
Q 2066 3103 1784 3103 
Q 1356 3103 1142 2972 
Q 928 2841 928 2578 
Q 928 2378 1081 2264 
Q 1234 2150 1697 2047 
L 1894 2003 
Q 2506 1872 2764 1633 
Q 3022 1394 3022 966 
Q 3022 478 2636 193 
Q 2250 -91 1575 -91 
Q 1294 -91 989 -36 
Q 684 19 347 128 
L 347 722 
Q 666 556 975 473 
Q 1284 391 1588 391 
Q 1994 391 2212 530 
Q 2431 669 2431 922 
Q 2431 1156 2273 1281 
Q 2116 1406 1581 1522 
L 1381 1569 
Q 847 1681 609 1914 
Q 372 2147 372 2553 
Q 372 3047 722 3315 
Q 1072 3584 1716 3584 
Q 2034 3584 2315 3537 
Q 2597 3491 2834 3397 
z
" id="DejaVuSans-73" transform="scale(0.015625)"/>
      <path d="M 1959 3097 
Q 1497 3097 1228 2736 
Q 959 2375 959 1747 
Q 959 1119 1226 758 
Q 1494 397 1959 397 
Q 2419 397 2687 759 
Q 2956 1122 2956 1747 
Q 2956 2369 2687 2733 
Q 2419 3097 1959 3097 
z
M 1959 3584 
Q 2709 3584 3137 3096 
Q 3566 2609 3566 1747 
Q 3566 888 3137 398 
Q 2709 -91 1959 -91 
Q 1206 -91 779 398 
Q 353 888 353 1747 
Q 353 2609 779 3096 
Q 1206 3584 1959 3584 
z
" id="DejaVuSans-6f" transform="scale(0.015625)"/>
      <path d="M 2375 4863 
L 2375 4384 
L 1825 4384 
Q 1516 4384 1395 4259 
Q 1275 4134 1275 3809 
L 1275 3500 
L 2222 3500 
L 2222 3053 
L 1275 3053 
L 1275 0 
L 697 0 
L 697 3053 
L 147 3053 
L 147 3500 
L 697 3500 
L 697 3744 
Q 697 4328 969 4595 
Q 1241 4863 1831 4863 
L 2375 4863 
z
" id="DejaVuSans-66" transform="scale(0.015625)"/>
      <path d="M 1172 4494 
L 1172 3500 
L 2356 3500 
L 2356 3053 
L 1172 3053 
L 1172 1153 
Q 1172 725 1289 603 
Q 1406 481 1766 481 
L 2356 481 
L 2356 0 
L 1766 0 
Q 1100 0 847 248 
Q 594 497 594 1153 
L 594 3053 
L 172 3053 
L 172 3500 
L 594 3500 
L 594 4494 
L 1172 4494 
z
" id="DejaVuSans-74" transform="scale(0.015625)"/>
      <path d="M 3328 2828 
Q 3544 3216 3844 3400 
Q 4144 3584 4550 3584 
Q 5097 3584 5394 3201 
Q 5691 2819 5691 2113 
L 5691 0 
L 5113 0 
L 5113 2094 
Q 5113 2597 4934 2840 
Q 4756 3084 4391 3084 
Q 3944 3084 3684 2787 
Q 3425 2491 3425 1978 
L 3425 0 
L 2847 0 
L 2847 2094 
Q 2847 2600 2669 2842 
Q 2491 3084 2119 3084 
Q 1678 3084 1418 2786 
Q 1159 2488 1159 1978 
L 1159 0 
L 581 0 
L 581 3500 
L 1159 3500 
L 1159 2956 
Q 1356 3278 1631 3431 
Q 1906 3584 2284 3584 
Q 2666 3584 2933 3390 
Q 3200 3197 3328 2828 
z
" id="DejaVuSans-6d" transform="scale(0.015625)"/>
      <path d="M 2194 1759 
Q 1497 1759 1228 1600 
Q 959 1441 959 1056 
Q 959 750 1161 570 
Q 1363 391 1709 391 
Q 2188 391 2477 730 
Q 2766 1069 2766 1631 
L 2766 1759 
L 2194 1759 
z
M 3341 1997 
L 3341 0 
L 2766 0 
L 2766 531 
Q 2569 213 2275 61 
Q 1981 -91 1556 -91 
Q 1019 -91 701 211 
Q 384 513 384 1019 
Q 384 1609 779 1909 
Q 1175 2209 1959 2209 
L 2766 2209 
L 2766 2266 
Q 2766 2663 2505 2880 
Q 2244 3097 1772 3097 
Q 1472 3097 1187 3025 
Q 903 2953 641 2809 
L 641 3341 
Q 956 3463 1253 3523 
Q 1550 3584 1831 3584 
Q 2591 3584 2966 3190 
Q 3341 2797 3341 1997 
z
" id="DejaVuSans-61" transform="scale(0.015625)"/>
      <path d="M 3513 3500 
L 2247 1797 
L 3578 0 
L 2900 0 
L 1881 1375 
L 863 0 
L 184 0 
L 1544 1831 
L 300 3500 
L 978 3500 
L 1906 2253 
L 2834 3500 
L 3513 3500 
z
" id="DejaVuSans-78" transform="scale(0.015625)"/>
     </defs>
     <use xlink:href="#DejaVuSans-73"/>
     <use x="52.099609" xlink:href="#DejaVuSans-6f"/>
     <use x="113.28125" xlink:href="#DejaVuSans-66"/>
     <use x="146.736328" xlink:href="#DejaVuSans-74"/>
     <use x="185.945312" xlink:href="#DejaVuSans-6d"/>
     <use x="283.357422" xlink:href="#DejaVuSans-61"/>
     <use x="344.636719" xlink:href="#DejaVuSans-78"/>
    </g>
   </g>
   <g id="patch_40">
    <path d="M 450.055 84.121013 
Q 450.055 93.436801 450.055 103.870623 
" style="fill:none;stroke:#000000;stroke-linecap:round;"/>
    <path d="M 447.455 89.321013 
L 450.055 84.121013 
L 452.655 89.321013 
" style="fill:none;stroke:#000000;stroke-linecap:round;"/>
   </g>
   <g id="text_25">
    <g id="patch_41">
     <path d="M 442.905 25.825954 
L 457.205 25.825954 
L 457.205 5.444391 
L 442.905 5.444391 
z
" style="fill:none;"/>
    </g>
    <!-- $\hat{y}$ -->
    <g transform="translate(446.805 19.195954)scale(0.13 -0.13)">
     <defs>
      <path d="M 863 3444 
L 738 3578 
L 1600 4441 
L 2456 3578 
L 2328 3444 
L 1600 4084 
L 863 3444 
z
" id="Cmr10-5e" transform="scale(0.015625)"/>
      <path d="M 538 -916 
Q 672 -1147 1006 -1147 
Q 1309 -1147 1531 -934 
Q 1753 -722 1889 -420 
Q 2025 -119 2100 197 
Q 1816 -72 1484 -72 
Q 1231 -72 1053 15 
Q 875 103 776 276 
Q 678 450 678 697 
Q 678 906 734 1126 
Q 791 1347 892 1617 
Q 994 1888 1069 2088 
Q 1153 2322 1153 2472 
Q 1153 2663 1013 2663 
Q 759 2663 595 2402 
Q 431 2141 353 1819 
Q 341 1778 300 1778 
L 225 1778 
Q 172 1778 172 1838 
L 172 1856 
Q 275 2238 487 2533 
Q 700 2828 1025 2828 
Q 1253 2828 1411 2678 
Q 1569 2528 1569 2297 
Q 1569 2178 1516 2047 
Q 1488 1969 1388 1706 
Q 1288 1444 1234 1272 
Q 1181 1100 1147 934 
Q 1113 769 1113 603 
Q 1113 391 1203 244 
Q 1294 97 1491 97 
Q 1888 97 2203 581 
L 2688 2553 
Q 2709 2638 2787 2698 
Q 2866 2759 2956 2759 
Q 3034 2759 3092 2709 
Q 3150 2659 3150 2578 
Q 3150 2541 3144 2528 
L 2509 -19 
Q 2425 -347 2200 -647 
Q 1975 -947 1658 -1130 
Q 1341 -1313 997 -1313 
Q 831 -1313 668 -1248 
Q 506 -1184 406 -1056 
Q 306 -928 306 -756 
Q 306 -581 409 -453 
Q 513 -325 684 -325 
Q 788 -325 858 -389 
Q 928 -453 928 -556 
Q 928 -703 818 -812 
Q 709 -922 563 -922 
Q 556 -919 550 -917 
Q 544 -916 538 -916 
z
" id="Cmmi10-79" transform="scale(0.015625)"/>
     </defs>
     <use transform="translate(5.724609 3.609375)" xlink:href="#Cmr10-5e"/>
     <use transform="translate(0 0.734375)" xlink:href="#Cmmi10-79"/>
    </g>
   </g>
   <g id="patch_42">
    <path d="M 450.055 28.941976 
Q 450.055 36.724066 450.055 45.62419 
" style="fill:none;stroke:#000000;stroke-linecap:round;"/>
    <path d="M 447.455 34.141976 
L 450.055 28.941976 
L 452.655 34.141976 
" style="fill:none;stroke:#000000;stroke-linecap:round;"/>
   </g>
   <g id="text_26">
    <g id="patch_43">
     <path d="M 3.3 127.842241 
L 32.81 127.842241 
L 32.81 105.872241 
L 3.3 105.872241 
z
" style="fill:none;stroke:#000000;stroke-linejoin:miter;"/>
    </g>
    <!-- $a^{{\langle 0 \rangle}}$ -->
    <g transform="translate(7.2 121.238648)scale(0.13 -0.13)">
     <use transform="translate(0 0.597135)" xlink:href="#Cmmi10-61"/>
     <use transform="translate(59.086484 104.202344)scale(0.7)" xlink:href="#Cmex10-ad"/>
     <use transform="translate(92.138242 38.861198)scale(0.7)" xlink:href="#Cmr10-30"/>
     <use transform="translate(127.138242 104.202344)scale(0.7)" xlink:href="#Cmex10-ae"/>
    </g>
   </g>
   <g id="patch_44">
    <path d="M 72.182467 116.857241 
Q 54.056145 116.857241 34.811789 116.857241 
" style="fill:none;stroke:#000000;stroke-linecap:round;"/>
    <path d="M 66.982467 114.257241 
L 72.182467 116.857241 
L 66.982467 119.457241 
" style="fill:none;stroke:#000000;stroke-linecap:round;"/>
   </g>
   <g id="patch_45">
    <path d="M 144.182467 116.857241 
Q 126.056145 116.857241 106.811789 116.857241 
" style="fill:none;stroke:#000000;stroke-linecap:round;"/>
    <path d="M 138.982467 114.257241 
L 144.182467 116.857241 
L 138.982467 119.457241 
" style="fill:none;stroke:#000000;stroke-linecap:round;"/>
   </g>
   <g id="patch_46">
    <path d="M 216.182467 116.857241 
Q 198.056145 116.857241 178.811789 116.857241 
" style="fill:none;stroke:#000000;stroke-linecap:round;"/>
    <path d="M 210.982467 114.257241 
L 216.182467 116.857241 
L 210.982467 119.457241 
" style="fill:none;stroke:#000000;stroke-linecap:round;"/>
   </g>
   <g id="patch_47">
    <path d="M 288.182467 116.857241 
Q 270.056145 116.857241 250.811789 116.857241 
" style="fill:none;stroke:#000000;stroke-linecap:round;"/>
    <path d="M 282.982467 114.257241 
L 288.182467 116.857241 
L 282.982467 119.457241 
" style="fill:none;stroke:#000000;stroke-linecap:round;"/>
   </g>
   <g id="patch_48">
    <path d="M 362.324602 116.857241 
Q 343.126822 116.857241 322.811007 116.857241 
" style="fill:none;stroke:#000000;stroke-linecap:round;"/>
    <path d="M 357.124602 114.257241 
L 362.324602 116.857241 
L 357.124602 119.457241 
" style="fill:none;stroke:#000000;stroke-linecap:round;"/>
   </g>
   <g id="patch_49">
    <path d="M 429.908414 116.857241 
Q 411.843428 116.857241 392.660408 116.857241 
" style="fill:none;stroke:#000000;stroke-linecap:round;"/>
    <path d="M 424.708414 114.257241 
L 429.908414 116.857241 
L 424.708414 119.457241 
" style="fill:none;stroke:#000000;stroke-linecap:round;"/>
   </g>
  </g>
 </g>
</svg>
