<?xml version="1.0" encoding="utf-8" standalone="no"?>
<!DOCTYPE svg PUBLIC "-//W3C//DTD SVG 1.1//EN"
  "http://www.w3.org/Graphics/SVG/1.1/DTD/svg11.dtd">
<!-- Created with matplotlib (https://matplotlib.org/) -->
<svg height="171.922076pt" version="1.1" viewBox="0 0 907.2 171.922076" width="907.2pt" xmlns="http://www.w3.org/2000/svg" xmlns:xlink="http://www.w3.org/1999/xlink">
 <metadata>
  <rdf:RDF xmlns:cc="http://creativecommons.org/ns#" xmlns:dc="http://purl.org/dc/elements/1.1/" xmlns:rdf="http://www.w3.org/1999/02/22-rdf-syntax-ns#">
   <cc:Work>
    <dc:type rdf:resource="http://purl.org/dc/dcmitype/StillImage"/>
    <dc:date>2021-04-20T22:40:29.606782</dc:date>
    <dc:format>image/svg+xml</dc:format>
    <dc:creator>
     <cc:Agent>
      <dc:title>Matplotlib v3.3.4, https://matplotlib.org/</dc:title>
     </cc:Agent>
    </dc:creator>
   </cc:Work>
  </rdf:RDF>
 </metadata>
 <defs>
  <style type="text/css">*{stroke-linecap:butt;stroke-linejoin:round;}</style>
 </defs>
 <g id="figure_1">
  <g id="patch_1">
   <path d="M 0 171.922076 
L 907.2 171.922076 
L 907.2 0 
L 0 0 
z
" style="fill:none;"/>
  </g>
  <g id="patch_2">
   <path d="M 7.2 152.140513 
L 134.742857 152.140513 
L 134.742857 24.597656 
L 7.2 24.597656 
z
" style="fill:#ffffff;"/>
  </g>
  <g id="axes_1">
   <g id="Poly3DCollection_1">
    <path clip-path="url(#pc1d4d97825)" d="M 41.682614 124.37894 
L 39.944164 125.015282 
L 39.225503 40.061119 
L 41.004867 39.756273 
z
" style="fill:#0d324b;"/>
    <path clip-path="url(#pc1d4d97825)" d="M 109.074016 134.38664 
L 39.944164 125.015282 
L 41.682614 124.37894 
L 110.622799 133.673706 
z
" style="fill:#113f60;"/>
    <path clip-path="url(#pc1d4d97825)" d="M 41.682614 124.37894 
L 41.004867 39.756273 
L 111.501161 44.214323 
L 110.622799 133.673706 
z
" style="fill:#1b699f;"/>
    <path clip-path="url(#pc1d4d97825)" d="M 111.501161 44.214323 
L 41.004867 39.756273 
L 39.225503 40.061119 
L 109.920156 44.556738 
z
" style="fill:#185b8a;"/>
    <path clip-path="url(#pc1d4d97825)" d="M 111.501161 44.214323 
L 109.920156 44.556738 
L 109.074016 134.38664 
L 110.622799 133.673706 
z
" style="fill:#1b699f;"/>
   </g>
   <g id="text_1">
    <!-- $ 32 \times 32 \times 3$ -->
    <g transform="translate(40.031429 162.018482)scale(0.13 -0.13)">
     <defs>
      <path d="M 9.515625 7.71875 
Q 11.859375 4.296875 15.8125 2.640625 
Q 19.78125 0.984375 24.3125 0.984375 
Q 30.125 0.984375 32.5625 5.9375 
Q 35.015625 10.890625 35.015625 17.1875 
Q 35.015625 20.015625 34.5 22.84375 
Q 33.984375 25.6875 32.765625 28.125 
Q 31.546875 30.5625 29.421875 32.03125 
Q 27.296875 33.5 24.21875 33.5 
L 17.578125 33.5 
Q 16.703125 33.5 16.703125 34.421875 
L 16.703125 35.296875 
Q 16.703125 36.078125 17.578125 36.078125 
L 23.09375 36.53125 
Q 26.609375 36.53125 28.921875 39.15625 
Q 31.25 41.796875 32.328125 45.578125 
Q 33.40625 49.359375 33.40625 52.78125 
Q 33.40625 57.5625 31.15625 60.640625 
Q 28.90625 63.71875 24.3125 63.71875 
Q 20.515625 63.71875 17.046875 62.28125 
Q 13.578125 60.84375 11.53125 57.90625 
Q 11.71875 57.953125 11.859375 57.984375 
Q 12.015625 58.015625 12.203125 58.015625 
Q 14.453125 58.015625 15.96875 56.453125 
Q 17.484375 54.890625 17.484375 52.6875 
Q 17.484375 50.53125 15.96875 48.96875 
Q 14.453125 47.40625 12.203125 47.40625 
Q 10.015625 47.40625 8.453125 48.96875 
Q 6.890625 50.53125 6.890625 52.6875 
Q 6.890625 56.984375 9.46875 60.15625 
Q 12.0625 63.328125 16.140625 64.96875 
Q 20.21875 66.609375 24.3125 66.609375 
Q 27.34375 66.609375 30.703125 65.703125 
Q 34.078125 64.796875 36.8125 63.109375 
Q 39.546875 61.421875 41.28125 58.78125 
Q 43.015625 56.15625 43.015625 52.78125 
Q 43.015625 48.578125 41.140625 45.015625 
Q 39.265625 41.453125 35.984375 38.859375 
Q 32.71875 36.28125 28.8125 35.015625 
Q 33.15625 34.1875 37.0625 31.734375 
Q 40.96875 29.296875 43.328125 25.484375 
Q 45.703125 21.6875 45.703125 17.28125 
Q 45.703125 11.765625 42.671875 7.296875 
Q 39.65625 2.828125 34.71875 0.3125 
Q 29.78125 -2.203125 24.3125 -2.203125 
Q 19.625 -2.203125 14.90625 -0.40625 
Q 10.203125 1.375 7.203125 4.9375 
Q 4.203125 8.5 4.203125 13.484375 
Q 4.203125 15.96875 5.859375 17.625 
Q 7.515625 19.28125 10.015625 19.28125 
Q 11.625 19.28125 12.96875 18.53125 
Q 14.3125 17.78125 15.0625 16.40625 
Q 15.828125 15.046875 15.828125 13.484375 
Q 15.828125 11.03125 14.109375 9.375 
Q 12.40625 7.71875 10.015625 7.71875 
z
" id="Cmr10-51"/>
      <path d="M 4.984375 0 
L 4.984375 2.6875 
Q 4.984375 2.9375 5.171875 3.21875 
L 20.703125 20.40625 
Q 24.21875 24.21875 26.40625 26.796875 
Q 28.609375 29.390625 30.75 32.765625 
Q 32.90625 36.140625 34.15625 39.625 
Q 35.40625 43.109375 35.40625 47.015625 
Q 35.40625 51.125 33.890625 54.859375 
Q 32.375 58.59375 29.375 60.84375 
Q 26.375 63.09375 22.125 63.09375 
Q 17.78125 63.09375 14.3125 60.46875 
Q 10.84375 57.859375 9.421875 53.71875 
Q 9.8125 53.8125 10.5 53.8125 
Q 12.75 53.8125 14.328125 52.296875 
Q 15.921875 50.78125 15.921875 48.390625 
Q 15.921875 46.09375 14.328125 44.5 
Q 12.75 42.921875 10.5 42.921875 
Q 8.15625 42.921875 6.5625 44.546875 
Q 4.984375 46.1875 4.984375 48.390625 
Q 4.984375 52.15625 6.390625 55.4375 
Q 7.8125 58.734375 10.46875 61.296875 
Q 13.140625 63.875 16.484375 65.234375 
Q 19.828125 66.609375 23.578125 66.609375 
Q 29.296875 66.609375 34.21875 64.1875 
Q 39.15625 61.765625 42.03125 57.34375 
Q 44.921875 52.9375 44.921875 47.015625 
Q 44.921875 42.671875 43.015625 38.765625 
Q 41.109375 34.859375 38.125 31.65625 
Q 35.15625 28.46875 30.515625 24.40625 
Q 25.875 20.359375 24.421875 19 
L 13.09375 8.109375 
L 22.703125 8.109375 
Q 29.78125 8.109375 34.546875 8.21875 
Q 39.3125 8.34375 39.59375 8.59375 
Q 40.765625 9.859375 42 17.828125 
L 44.921875 17.828125 
L 42.09375 0 
z
" id="Cmr10-50"/>
      <path d="M 14.703125 2.875 
Q 14.703125 3.65625 15.1875 4.296875 
L 35.984375 25 
L 15.1875 45.796875 
Q 14.703125 46.296875 14.703125 47.125 
Q 14.703125 47.859375 15.28125 48.484375 
Q 15.875 49.125 16.703125 49.125 
Q 17.390625 49.125 18.21875 48.484375 
L 38.921875 27.78125 
L 59.515625 48.484375 
Q 60.359375 49.125 60.984375 49.125 
Q 61.8125 49.125 62.390625 48.53125 
Q 62.984375 47.953125 62.984375 47.125 
Q 62.984375 46.296875 62.5 45.796875 
L 41.703125 25 
L 62.5 4.296875 
Q 62.984375 3.65625 62.984375 2.875 
Q 62.984375 2.046875 62.390625 1.453125 
Q 61.8125 0.875 60.984375 0.875 
Q 60.25 0.875 59.515625 1.609375 
L 38.921875 22.21875 
L 18.21875 1.609375 
Q 17.484375 0.875 16.703125 0.875 
Q 15.875 0.875 15.28125 1.515625 
Q 14.703125 2.15625 14.703125 2.875 
z
" id="Cmsy10-163"/>
     </defs>
     <use transform="translate(0 0.390625)" xlink:href="#Cmr10-51"/>
     <use transform="translate(50 0.390625)" xlink:href="#Cmr10-50"/>
     <use transform="translate(117.558594 0.390625)" xlink:href="#Cmsy10-163"/>
     <use transform="translate(212.802734 0.390625)" xlink:href="#Cmr10-51"/>
     <use transform="translate(262.802734 0.390625)" xlink:href="#Cmr10-50"/>
     <use transform="translate(330.361328 0.390625)" xlink:href="#Cmsy10-163"/>
     <use transform="translate(425.605469 0.390625)" xlink:href="#Cmr10-51"/>
    </g>
   </g>
   <g id="text_2">
    <!-- $x$ -->
    <g transform="translate(66.621429 18.597656)scale(0.15 -0.15)">
     <defs>
      <path d="M 7.8125 2.875 
Q 9.578125 1.515625 12.796875 1.515625 
Q 15.921875 1.515625 18.3125 4.515625 
Q 20.703125 7.515625 21.578125 11.078125 
L 26.125 28.8125 
Q 27.203125 33.640625 27.203125 35.40625 
Q 27.203125 37.890625 25.8125 39.75 
Q 24.421875 41.609375 21.921875 41.609375 
Q 18.75 41.609375 15.96875 39.625 
Q 13.1875 37.640625 11.28125 34.59375 
Q 9.375 31.546875 8.59375 28.421875 
Q 8.40625 27.78125 7.8125 27.78125 
L 6.59375 27.78125 
Q 5.8125 27.78125 5.8125 28.71875 
L 5.8125 29 
Q 6.78125 32.71875 9.125 36.25 
Q 11.46875 39.796875 14.859375 41.984375 
Q 18.265625 44.1875 22.125 44.1875 
Q 25.78125 44.1875 28.734375 42.234375 
Q 31.6875 40.28125 32.90625 36.921875 
Q 34.625 39.984375 37.28125 42.078125 
Q 39.9375 44.1875 43.109375 44.1875 
Q 45.265625 44.1875 47.5 43.421875 
Q 49.75 42.671875 51.171875 41.109375 
Q 52.59375 39.546875 52.59375 37.203125 
Q 52.59375 34.671875 50.953125 32.828125 
Q 49.3125 31 46.78125 31 
Q 45.171875 31 44.09375 32.03125 
Q 43.015625 33.0625 43.015625 34.625 
Q 43.015625 36.71875 44.453125 38.296875 
Q 45.90625 39.890625 47.90625 40.1875 
Q 46.09375 41.609375 42.921875 41.609375 
Q 39.703125 41.609375 37.328125 38.625 
Q 34.96875 35.640625 33.984375 31.984375 
L 29.59375 14.3125 
Q 28.515625 10.296875 28.515625 7.71875 
Q 28.515625 5.171875 29.953125 3.34375 
Q 31.390625 1.515625 33.796875 1.515625 
Q 38.484375 1.515625 42.15625 5.640625 
Q 45.84375 9.765625 47.015625 14.703125 
Q 47.21875 15.28125 47.796875 15.28125 
L 49.03125 15.28125 
Q 49.421875 15.28125 49.65625 15.015625 
Q 49.90625 14.75 49.90625 14.40625 
Q 49.90625 14.3125 49.8125 14.109375 
Q 48.390625 8.15625 43.84375 3.515625 
Q 39.3125 -1.125 33.59375 -1.125 
Q 29.9375 -1.125 26.984375 0.84375 
Q 24.03125 2.828125 22.796875 6.203125 
Q 21.234375 3.265625 18.46875 1.0625 
Q 15.71875 -1.125 12.59375 -1.125 
Q 10.453125 -1.125 8.171875 -0.359375 
Q 5.90625 0.390625 4.484375 1.953125 
Q 3.078125 3.515625 3.078125 5.90625 
Q 3.078125 8.25 4.703125 10.171875 
Q 6.34375 12.109375 8.796875 12.109375 
Q 10.453125 12.109375 11.578125 11.109375 
Q 12.703125 10.109375 12.703125 8.5 
Q 12.703125 6.390625 11.296875 4.828125 
Q 9.90625 3.265625 7.8125 2.875 
z
" id="Cmmi10-120"/>
     </defs>
     <use transform="translate(0 0.8125)" xlink:href="#Cmmi10-120"/>
    </g>
   </g>
   <g id="Poly3DCollection_2">
    <path clip-path="url(#pc1d4d97825)" d="M 39.944164 125.015282 
L 38.19177 125.656728 
L 37.431552 40.368464 
L 39.225503 40.061119 
z
" style="fill:#124312;"/>
    <path clip-path="url(#pc1d4d97825)" d="M 107.512079 135.105629 
L 38.19177 125.656728 
L 39.944164 125.015282 
L 109.074016 134.38664 
z
" style="fill:#175517;"/>
    <path clip-path="url(#pc1d4d97825)" d="M 109.920156 44.556738 
L 39.225503 40.061119 
L 37.431552 40.368464 
L 108.325408 44.902128 
z
" style="fill:#227b22;"/>
    <path clip-path="url(#pc1d4d97825)" d="M 109.920156 44.556738 
L 108.325408 44.902128 
L 107.512079 135.105629 
L 109.074016 134.38664 
z
" style="fill:#278d27;"/>
   </g>
   <g id="Poly3DCollection_3">
    <path clip-path="url(#pc1d4d97825)" d="M 38.19177 125.656728 
L 36.425262 126.30334 
L 35.622833 40.67834 
L 37.431552 40.368464 
z
" style="fill:#591011;"/>
    <path clip-path="url(#pc1d4d97825)" d="M 105.936818 135.830751 
L 36.425262 126.30334 
L 38.19177 125.656728 
L 107.512079 135.105629 
z
" style="fill:#721515;"/>
    <path clip-path="url(#pc1d4d97825)" d="M 105.936818 135.830751 
L 106.716739 45.250535 
L 35.622833 40.67834 
L 36.425262 126.30334 
z
" style="fill:#591011;"/>
    <path clip-path="url(#pc1d4d97825)" d="M 108.325408 44.902128 
L 37.431552 40.368464 
L 35.622833 40.67834 
L 106.716739 45.250535 
z
" style="fill:#a41e1f;"/>
    <path clip-path="url(#pc1d4d97825)" d="M 108.325408 44.902128 
L 106.716739 45.250535 
L 105.936818 135.830751 
L 107.512079 135.105629 
z
" style="fill:#bd2223;"/>
   </g>
  </g>
  <g id="patch_3">
   <path d="M 160.251429 152.140513 
L 287.794286 152.140513 
L 287.794286 24.597656 
L 160.251429 24.597656 
z
" style="fill:#ffffff;"/>
  </g>
  <g id="axes_2">
   <g id="Poly3DCollection_4">
    <path clip-path="url(#p5a100dcd41)" d="M 198.468232 122.61182 
L 186.64845 126.927367 
L 185.790417 42.005817 
L 197.885896 39.910885 
z
" style="fill:#6a6a6a;stroke:#000000;stroke-width:0.1;"/>
    <path clip-path="url(#p5a100dcd41)" d="M 198.468232 122.61182 
L 197.885896 39.910885 
L 266.877795 44.2687 
L 265.969112 131.583223 
z
" style="fill:#e1e1e1;stroke:#000000;stroke-width:0.1;"/>
    <path clip-path="url(#p5a100dcd41)" d="M 255.414226 136.411845 
L 186.64845 126.927367 
L 198.468232 122.61182 
L 265.969112 131.583223 
z
" style="fill:#888888;stroke:#000000;stroke-width:0.1;"/>
    <path clip-path="url(#p5a100dcd41)" d="M 266.877795 44.2687 
L 197.885896 39.910885 
L 185.790417 42.005817 
L 256.10435 46.618575 
z
" style="fill:#c3c3c3;stroke:#000000;stroke-width:0.1;"/>
    <path clip-path="url(#p5a100dcd41)" d="M 255.414226 136.411845 
L 256.10435 46.618575 
L 185.790417 42.005817 
L 186.64845 126.927367 
z
" style="fill:#6a6a6a;stroke:#000000;stroke-width:0.1;"/>
    <path clip-path="url(#p5a100dcd41)" d="M 266.877795 44.2687 
L 256.10435 46.618575 
L 255.414226 136.411845 
L 265.969112 131.583223 
z
" style="fill:#e1e1e1;stroke:#000000;stroke-width:0.1;"/>
   </g>
   <g id="text_3">
    <!-- $ 28 \times 28 \times 8$ -->
    <g transform="translate(193.082857 162.018482)scale(0.13 -0.13)">
     <defs>
      <path d="M 4.203125 15.1875 
Q 4.203125 21.1875 8.15625 25.796875 
Q 12.109375 30.421875 18.3125 33.5 
L 14.59375 35.890625 
Q 11.1875 38.140625 9.03125 41.875 
Q 6.890625 45.609375 6.890625 49.703125 
Q 6.890625 54.5 9.40625 58.34375 
Q 11.921875 62.203125 16.09375 64.40625 
Q 20.265625 66.609375 25 66.609375 
Q 29.4375 66.609375 33.5625 64.796875 
Q 37.703125 62.984375 40.359375 59.609375 
Q 43.015625 56.25 43.015625 51.609375 
Q 43.015625 48.25 41.421875 45.359375 
Q 39.84375 42.484375 37.078125 40.1875 
Q 34.328125 37.890625 31.203125 36.28125 
L 36.921875 32.625 
Q 40.875 30.03125 43.28125 25.828125 
Q 45.703125 21.625 45.703125 17 
Q 45.703125 11.578125 42.796875 7.125 
Q 39.890625 2.6875 35.109375 0.234375 
Q 30.328125 -2.203125 25 -2.203125 
Q 19.828125 -2.203125 15.015625 -0.09375 
Q 10.203125 2 7.203125 5.984375 
Q 4.203125 9.96875 4.203125 15.1875 
z
M 9.625 15.1875 
Q 9.625 11.234375 11.796875 7.953125 
Q 13.96875 4.6875 17.53125 2.828125 
Q 21.09375 0.984375 25 0.984375 
Q 30.8125 0.984375 35.546875 4.375 
Q 40.28125 7.765625 40.28125 13.375 
Q 40.28125 15.28125 39.515625 17.15625 
Q 38.765625 19.046875 37.421875 20.578125 
Q 36.078125 22.125 34.421875 23.09375 
L 21 31.78125 
Q 17.875 30.125 15.25 27.578125 
Q 12.640625 25.046875 11.125 21.875 
Q 9.625 18.703125 9.625 15.1875 
z
M 16.5 45.703125 
L 28.609375 37.890625 
Q 32.8125 40.328125 35.5 43.796875 
Q 38.1875 47.265625 38.1875 51.609375 
Q 38.1875 54.984375 36.296875 57.78125 
Q 34.421875 60.59375 31.390625 62.15625 
Q 28.375 63.71875 24.90625 63.71875 
Q 21.875 63.71875 18.796875 62.546875 
Q 15.71875 61.375 13.71875 59.046875 
Q 11.71875 56.734375 11.71875 53.609375 
Q 11.71875 48.921875 16.5 45.703125 
z
" id="Cmr10-56"/>
     </defs>
     <use transform="translate(0 0.390625)" xlink:href="#Cmr10-50"/>
     <use transform="translate(50 0.390625)" xlink:href="#Cmr10-56"/>
     <use transform="translate(117.558594 0.390625)" xlink:href="#Cmsy10-163"/>
     <use transform="translate(212.802734 0.390625)" xlink:href="#Cmr10-50"/>
     <use transform="translate(262.802734 0.390625)" xlink:href="#Cmr10-56"/>
     <use transform="translate(330.361328 0.390625)" xlink:href="#Cmsy10-163"/>
     <use transform="translate(425.605469 0.390625)" xlink:href="#Cmr10-56"/>
    </g>
   </g>
   <g id="text_4">
    <!-- CONV 1 -->
    <g transform="translate(202.728404 18.597656)scale(0.11 -0.11)">
     <defs>
      <path d="M 64.40625 67.28125 
L 64.40625 56.890625 
Q 59.421875 61.53125 53.78125 63.8125 
Q 48.140625 66.109375 41.796875 66.109375 
Q 29.296875 66.109375 22.65625 58.46875 
Q 16.015625 50.828125 16.015625 36.375 
Q 16.015625 21.96875 22.65625 14.328125 
Q 29.296875 6.6875 41.796875 6.6875 
Q 48.140625 6.6875 53.78125 8.984375 
Q 59.421875 11.28125 64.40625 15.921875 
L 64.40625 5.609375 
Q 59.234375 2.09375 53.4375 0.328125 
Q 47.65625 -1.421875 41.21875 -1.421875 
Q 24.65625 -1.421875 15.125 8.703125 
Q 5.609375 18.84375 5.609375 36.375 
Q 5.609375 53.953125 15.125 64.078125 
Q 24.65625 74.21875 41.21875 74.21875 
Q 47.75 74.21875 53.53125 72.484375 
Q 59.328125 70.75 64.40625 67.28125 
z
" id="DejaVuSans-67"/>
      <path d="M 39.40625 66.21875 
Q 28.65625 66.21875 22.328125 58.203125 
Q 16.015625 50.203125 16.015625 36.375 
Q 16.015625 22.609375 22.328125 14.59375 
Q 28.65625 6.59375 39.40625 6.59375 
Q 50.140625 6.59375 56.421875 14.59375 
Q 62.703125 22.609375 62.703125 36.375 
Q 62.703125 50.203125 56.421875 58.203125 
Q 50.140625 66.21875 39.40625 66.21875 
z
M 39.40625 74.21875 
Q 54.734375 74.21875 63.90625 63.9375 
Q 73.09375 53.65625 73.09375 36.375 
Q 73.09375 19.140625 63.90625 8.859375 
Q 54.734375 -1.421875 39.40625 -1.421875 
Q 24.03125 -1.421875 14.8125 8.828125 
Q 5.609375 19.09375 5.609375 36.375 
Q 5.609375 53.65625 14.8125 63.9375 
Q 24.03125 74.21875 39.40625 74.21875 
z
" id="DejaVuSans-79"/>
      <path d="M 9.8125 72.90625 
L 23.09375 72.90625 
L 55.421875 11.921875 
L 55.421875 72.90625 
L 64.984375 72.90625 
L 64.984375 0 
L 51.703125 0 
L 19.390625 60.984375 
L 19.390625 0 
L 9.8125 0 
z
" id="DejaVuSans-78"/>
      <path d="M 28.609375 0 
L 0.78125 72.90625 
L 11.078125 72.90625 
L 34.1875 11.53125 
L 57.328125 72.90625 
L 67.578125 72.90625 
L 39.796875 0 
z
" id="DejaVuSans-86"/>
      <path id="DejaVuSans-32"/>
      <path d="M 12.40625 8.296875 
L 28.515625 8.296875 
L 28.515625 63.921875 
L 10.984375 60.40625 
L 10.984375 69.390625 
L 28.421875 72.90625 
L 38.28125 72.90625 
L 38.28125 8.296875 
L 54.390625 8.296875 
L 54.390625 0 
L 12.40625 0 
z
" id="DejaVuSans-49"/>
     </defs>
     <use xlink:href="#DejaVuSans-67"/>
     <use x="69.824219" xlink:href="#DejaVuSans-79"/>
     <use x="148.535156" xlink:href="#DejaVuSans-78"/>
     <use x="223.339844" xlink:href="#DejaVuSans-86"/>
     <use x="291.748047" xlink:href="#DejaVuSans-32"/>
     <use x="323.535156" xlink:href="#DejaVuSans-49"/>
    </g>
   </g>
  </g>
  <g id="patch_4">
   <path d="M 313.302857 152.140513 
L 440.845714 152.140513 
L 440.845714 24.597656 
L 313.302857 24.597656 
z
" style="fill:#ffffff;"/>
  </g>
  <g id="axes_3">
   <g id="Poly3DCollection_5">
    <path clip-path="url(#p17f526ce78)" d="M 370.163892 110.812557 
L 370.021361 46.665963 
L 423.525135 50.292151 
L 422.767019 117.180101 
z
" style="fill:#e1e1e1;stroke:#000000;stroke-width:0.1;"/>
    <path clip-path="url(#p17f526ce78)" d="M 370.163892 110.812557 
L 332.862742 123.980587 
L 332.03468 54.170676 
L 370.021361 46.665963 
z
" style="fill:#6a6a6a;stroke:#000000;stroke-width:0.1;"/>
    <path clip-path="url(#p17f526ce78)" d="M 388.662222 131.580854 
L 332.862742 123.980587 
L 370.163892 110.812557 
L 422.767019 117.180101 
z
" style="fill:#888888;stroke:#000000;stroke-width:0.1;"/>
    <path clip-path="url(#p17f526ce78)" d="M 423.525135 50.292151 
L 370.021361 46.665963 
L 332.03468 54.170676 
L 388.848711 58.512429 
z
" style="fill:#c3c3c3;stroke:#000000;stroke-width:0.1;"/>
    <path clip-path="url(#p17f526ce78)" d="M 423.525135 50.292151 
L 388.848711 58.512429 
L 388.662222 131.580854 
L 422.767019 117.180101 
z
" style="fill:#e1e1e1;stroke:#000000;stroke-width:0.1;"/>
    <path clip-path="url(#p17f526ce78)" d="M 388.662222 131.580854 
L 388.848711 58.512429 
L 332.03468 54.170676 
L 332.862742 123.980587 
z
" style="fill:#6a6a6a;stroke:#000000;stroke-width:0.1;"/>
   </g>
   <g id="text_5">
    <!-- $ 14 \times 14 \times 8$ -->
    <g transform="translate(346.134286 162.018482)scale(0.13 -0.13)">
     <defs>
      <path d="M 9.28125 0 
L 9.28125 3.515625 
Q 21.78125 3.515625 21.78125 6.6875 
L 21.78125 59.1875 
Q 16.609375 56.6875 8.6875 56.6875 
L 8.6875 60.203125 
Q 20.953125 60.203125 27.203125 66.609375 
L 28.609375 66.609375 
Q 28.953125 66.609375 29.265625 66.328125 
Q 29.59375 66.0625 29.59375 65.71875 
L 29.59375 6.6875 
Q 29.59375 3.515625 42.09375 3.515625 
L 42.09375 0 
z
" id="Cmr10-49"/>
      <path d="M 2.78125 16.5 
L 2.78125 20.015625 
L 33.6875 66.109375 
Q 34.03125 66.609375 34.71875 66.609375 
L 36.1875 66.609375 
Q 37.3125 66.609375 37.3125 65.484375 
L 37.3125 20.015625 
L 47.125 20.015625 
L 47.125 16.5 
L 37.3125 16.5 
L 37.3125 6.6875 
Q 37.3125 4.640625 40.234375 4.078125 
Q 43.171875 3.515625 47.015625 3.515625 
L 47.015625 0 
L 19.484375 0 
L 19.484375 3.515625 
Q 23.34375 3.515625 26.265625 4.078125 
Q 29.203125 4.640625 29.203125 6.6875 
L 29.203125 16.5 
z
M 6.109375 20.015625 
L 29.78125 20.015625 
L 29.78125 55.421875 
z
" id="Cmr10-52"/>
     </defs>
     <use transform="translate(0 0.390625)" xlink:href="#Cmr10-49"/>
     <use transform="translate(50 0.390625)" xlink:href="#Cmr10-52"/>
     <use transform="translate(117.558594 0.390625)" xlink:href="#Cmsy10-163"/>
     <use transform="translate(212.802734 0.390625)" xlink:href="#Cmr10-49"/>
     <use transform="translate(262.802734 0.390625)" xlink:href="#Cmr10-52"/>
     <use transform="translate(330.361328 0.390625)" xlink:href="#Cmsy10-163"/>
     <use transform="translate(425.605469 0.390625)" xlink:href="#Cmr10-56"/>
    </g>
   </g>
   <g id="text_6">
    <!-- POOL 1 -->
    <g transform="translate(356.78702 18.597656)scale(0.11 -0.11)">
     <defs>
      <path d="M 19.671875 64.796875 
L 19.671875 37.40625 
L 32.078125 37.40625 
Q 38.96875 37.40625 42.71875 40.96875 
Q 46.484375 44.53125 46.484375 51.125 
Q 46.484375 57.671875 42.71875 61.234375 
Q 38.96875 64.796875 32.078125 64.796875 
z
M 9.8125 72.90625 
L 32.078125 72.90625 
Q 44.34375 72.90625 50.609375 67.359375 
Q 56.890625 61.8125 56.890625 51.125 
Q 56.890625 40.328125 50.609375 34.8125 
Q 44.34375 29.296875 32.078125 29.296875 
L 19.671875 29.296875 
L 19.671875 0 
L 9.8125 0 
z
" id="DejaVuSans-80"/>
      <path d="M 9.8125 72.90625 
L 19.671875 72.90625 
L 19.671875 8.296875 
L 55.171875 8.296875 
L 55.171875 0 
L 9.8125 0 
z
" id="DejaVuSans-76"/>
     </defs>
     <use xlink:href="#DejaVuSans-80"/>
     <use x="60.302734" xlink:href="#DejaVuSans-79"/>
     <use x="139.013672" xlink:href="#DejaVuSans-79"/>
     <use x="217.724609" xlink:href="#DejaVuSans-76"/>
     <use x="273.4375" xlink:href="#DejaVuSans-32"/>
     <use x="305.224609" xlink:href="#DejaVuSans-49"/>
    </g>
   </g>
  </g>
  <g id="patch_5">
   <path d="M 466.354286 152.140513 
L 593.897143 152.140513 
L 593.897143 24.597656 
L 466.354286 24.597656 
z
" style="fill:#ffffff;"/>
  </g>
  <g id="axes_4">
   <g id="Poly3DCollection_6">
    <path clip-path="url(#p1a262a0ddf)" d="M 534.7497 101.706767 
L 534.784917 54.415617 
L 574.058776 57.302136 
L 573.536258 106.066696 
z
" style="fill:#e1e1e1;stroke:#000000;stroke-width:0.1;"/>
    <path clip-path="url(#p1a262a0ddf)" d="M 534.7497 101.706767 
L 486.604513 118.098983 
L 485.988341 65.279814 
L 534.784917 54.415617 
z
" style="fill:#6a6a6a;stroke:#000000;stroke-width:0.1;"/>
    <path clip-path="url(#p1a262a0ddf)" d="M 528.484293 123.5889 
L 486.604513 118.098983 
L 534.7497 101.706767 
L 573.536258 106.066696 
z
" style="fill:#888888;stroke:#000000;stroke-width:0.1;"/>
    <path clip-path="url(#p1a262a0ddf)" d="M 574.058776 57.302136 
L 534.784917 54.415617 
L 485.988341 65.279814 
L 528.436799 68.925433 
z
" style="fill:#c3c3c3;stroke:#000000;stroke-width:0.1;"/>
    <path clip-path="url(#p1a262a0ddf)" d="M 574.058776 57.302136 
L 528.436799 68.925433 
L 528.484293 123.5889 
L 573.536258 106.066696 
z
" style="fill:#e1e1e1;stroke:#000000;stroke-width:0.1;"/>
    <path clip-path="url(#p1a262a0ddf)" d="M 528.484293 123.5889 
L 528.436799 68.925433 
L 485.988341 65.279814 
L 486.604513 118.098983 
z
" style="fill:#6a6a6a;stroke:#000000;stroke-width:0.1;"/>
   </g>
   <g id="text_7">
    <!-- $ 10 \times 10 \times 16$ -->
    <g transform="translate(495.935714 162.018482)scale(0.13 -0.13)">
     <defs>
      <path d="M 25 -2.203125 
Q 12.75 -2.203125 8.328125 7.875 
Q 3.90625 17.96875 3.90625 31.890625 
Q 3.90625 40.578125 5.484375 48.234375 
Q 7.078125 55.90625 11.78125 61.25 
Q 16.5 66.609375 25 66.609375 
Q 31.59375 66.609375 35.78125 63.375 
Q 39.984375 60.15625 42.1875 55.046875 
Q 44.390625 49.953125 45.1875 44.109375 
Q 46 38.28125 46 31.890625 
Q 46 23.296875 44.40625 15.796875 
Q 42.828125 8.296875 38.1875 3.046875 
Q 33.546875 -2.203125 25 -2.203125 
z
M 25 0.390625 
Q 30.5625 0.390625 33.296875 6.09375 
Q 36.03125 11.8125 36.671875 18.75 
Q 37.3125 25.6875 37.3125 33.5 
Q 37.3125 41.015625 36.671875 47.359375 
Q 36.03125 53.71875 33.3125 58.859375 
Q 30.609375 64.015625 25 64.015625 
Q 19.34375 64.015625 16.609375 58.828125 
Q 13.875 53.65625 13.234375 47.328125 
Q 12.59375 41.015625 12.59375 33.5 
Q 12.59375 27.9375 12.859375 23 
Q 13.140625 18.0625 14.3125 12.8125 
Q 15.484375 7.5625 18.09375 3.96875 
Q 20.703125 0.390625 25 0.390625 
z
" id="Cmr10-48"/>
      <path d="M 25 -2.203125 
Q 18.796875 -2.203125 14.640625 1.09375 
Q 10.5 4.390625 8.21875 9.640625 
Q 5.953125 14.890625 5.078125 20.65625 
Q 4.203125 26.421875 4.203125 32.328125 
Q 4.203125 40.234375 7.28125 48.1875 
Q 10.359375 56.15625 16.328125 61.375 
Q 22.3125 66.609375 30.515625 66.609375 
Q 33.9375 66.609375 36.890625 65.3125 
Q 39.84375 64.015625 41.53125 61.5 
Q 43.21875 58.984375 43.21875 55.421875 
Q 43.21875 53.375 41.828125 51.984375 
Q 40.4375 50.59375 38.375 50.59375 
Q 36.421875 50.59375 35 52 
Q 33.59375 53.421875 33.59375 55.421875 
Q 33.59375 57.375 35 58.78125 
Q 36.421875 60.203125 38.375 60.203125 
L 38.921875 60.203125 
Q 37.640625 62.015625 35.328125 62.859375 
Q 33.015625 63.71875 30.515625 63.71875 
Q 27.484375 63.71875 24.921875 62.390625 
Q 22.359375 61.078125 20.3125 58.828125 
Q 18.265625 56.59375 16.890625 53.875 
Q 15.53125 51.171875 14.765625 47.703125 
Q 14.015625 44.234375 13.8125 41.203125 
Q 13.625 38.1875 13.625 33.59375 
Q 15.375 37.703125 18.59375 40.3125 
Q 21.828125 42.921875 25.875 42.921875 
Q 30.328125 42.921875 33.984375 41.109375 
Q 37.640625 39.3125 40.28125 36.109375 
Q 42.921875 32.90625 44.3125 28.796875 
Q 45.703125 24.703125 45.703125 20.515625 
Q 45.703125 14.65625 43.09375 9.34375 
Q 40.484375 4.046875 35.734375 0.921875 
Q 31 -2.203125 25 -2.203125 
z
M 25 0.984375 
Q 28.859375 0.984375 31.203125 2.734375 
Q 33.546875 4.5 34.640625 7.390625 
Q 35.75 10.296875 36.015625 13.25 
Q 36.28125 16.21875 36.28125 20.515625 
Q 36.28125 26.171875 35.734375 30.171875 
Q 35.203125 34.1875 32.8125 37.234375 
Q 30.421875 40.28125 25.484375 40.28125 
Q 21.4375 40.28125 18.828125 37.546875 
Q 16.21875 34.8125 15.015625 30.640625 
Q 13.8125 26.46875 13.8125 22.609375 
Q 13.8125 21.296875 13.921875 20.609375 
Q 13.921875 20.453125 13.890625 20.359375 
Q 13.875 20.265625 13.8125 20.125 
Q 13.8125 15.828125 14.6875 11.421875 
Q 15.578125 7.03125 18.0625 4 
Q 20.5625 0.984375 25 0.984375 
z
" id="Cmr10-54"/>
     </defs>
     <use transform="translate(0 0.390625)" xlink:href="#Cmr10-49"/>
     <use transform="translate(50 0.390625)" xlink:href="#Cmr10-48"/>
     <use transform="translate(117.558594 0.390625)" xlink:href="#Cmsy10-163"/>
     <use transform="translate(212.802734 0.390625)" xlink:href="#Cmr10-49"/>
     <use transform="translate(262.802734 0.390625)" xlink:href="#Cmr10-48"/>
     <use transform="translate(330.361328 0.390625)" xlink:href="#Cmsy10-163"/>
     <use transform="translate(425.605469 0.390625)" xlink:href="#Cmr10-49"/>
     <use transform="translate(475.605469 0.390625)" xlink:href="#Cmr10-54"/>
    </g>
   </g>
   <g id="text_8">
    <!-- CONV 2 -->
    <g transform="translate(508.831261 18.597656)scale(0.11 -0.11)">
     <defs>
      <path d="M 19.1875 8.296875 
L 53.609375 8.296875 
L 53.609375 0 
L 7.328125 0 
L 7.328125 8.296875 
Q 12.9375 14.109375 22.625 23.890625 
Q 32.328125 33.6875 34.8125 36.53125 
Q 39.546875 41.84375 41.421875 45.53125 
Q 43.3125 49.21875 43.3125 52.78125 
Q 43.3125 58.59375 39.234375 62.25 
Q 35.15625 65.921875 28.609375 65.921875 
Q 23.96875 65.921875 18.8125 64.3125 
Q 13.671875 62.703125 7.8125 59.421875 
L 7.8125 69.390625 
Q 13.765625 71.78125 18.9375 73 
Q 24.125 74.21875 28.421875 74.21875 
Q 39.75 74.21875 46.484375 68.546875 
Q 53.21875 62.890625 53.21875 53.421875 
Q 53.21875 48.921875 51.53125 44.890625 
Q 49.859375 40.875 45.40625 35.40625 
Q 44.1875 33.984375 37.640625 27.21875 
Q 31.109375 20.453125 19.1875 8.296875 
z
" id="DejaVuSans-50"/>
     </defs>
     <use xlink:href="#DejaVuSans-67"/>
     <use x="69.824219" xlink:href="#DejaVuSans-79"/>
     <use x="148.535156" xlink:href="#DejaVuSans-78"/>
     <use x="223.339844" xlink:href="#DejaVuSans-86"/>
     <use x="291.748047" xlink:href="#DejaVuSans-32"/>
     <use x="323.535156" xlink:href="#DejaVuSans-50"/>
    </g>
   </g>
  </g>
  <g id="patch_6">
   <path d="M 619.405714 152.140513 
L 746.948571 152.140513 
L 746.948571 24.597656 
L 619.405714 24.597656 
z
" style="fill:#ffffff;"/>
  </g>
  <g id="axes_5">
   <g id="Poly3DCollection_7">
    <path clip-path="url(#pb1ff917dcf)" d="M 699.085514 91.585682 
L 699.184522 64.329417 
L 721.663345 66.147916 
L 721.403888 93.887234 
z
" style="fill:#e1e1e1;stroke:#000000;stroke-width:0.1;"/>
    <path clip-path="url(#pb1ff917dcf)" d="M 699.085514 91.585682 
L 643.984477 109.45904 
L 643.658213 78.463625 
L 699.184522 64.329417 
z
" style="fill:#6a6a6a;stroke:#000000;stroke-width:0.1;"/>
    <path clip-path="url(#pb1ff917dcf)" d="M 668.374726 112.464622 
L 643.984477 109.45904 
L 699.085514 91.585682 
L 721.403888 93.887234 
z
" style="fill:#888888;stroke:#000000;stroke-width:0.1;"/>
    <path clip-path="url(#pb1ff917dcf)" d="M 721.663345 66.147916 
L 699.184522 64.329417 
L 643.658213 78.463625 
L 668.240184 80.843174 
z
" style="fill:#c3c3c3;stroke:#000000;stroke-width:0.1;"/>
    <path clip-path="url(#pb1ff917dcf)" d="M 721.663345 66.147916 
L 668.240184 80.843174 
L 668.374726 112.464622 
L 721.403888 93.887234 
z
" style="fill:#e1e1e1;stroke:#000000;stroke-width:0.1;"/>
    <path clip-path="url(#pb1ff917dcf)" d="M 668.374726 112.464622 
L 668.240184 80.843174 
L 643.658213 78.463625 
L 643.984477 109.45904 
z
" style="fill:#6a6a6a;stroke:#000000;stroke-width:0.1;"/>
   </g>
   <g id="text_9">
    <!-- $ 5 \times 5 \times 16$ -->
    <g transform="translate(655.487143 162.018482)scale(0.13 -0.13)">
     <defs>
      <path d="M 8.6875 11.375 
Q 9.71875 8.453125 11.84375 6.046875 
Q 13.96875 3.65625 16.875 2.3125 
Q 19.78125 0.984375 22.90625 0.984375 
Q 30.125 0.984375 32.859375 6.59375 
Q 35.59375 12.203125 35.59375 20.21875 
Q 35.59375 23.6875 35.46875 26.046875 
Q 35.359375 28.421875 34.8125 30.609375 
Q 33.890625 34.125 31.5625 36.765625 
Q 29.25 39.40625 25.875 39.40625 
Q 22.515625 39.40625 20.09375 38.375 
Q 17.671875 37.359375 16.15625 35.984375 
Q 14.65625 34.625 13.484375 33.109375 
Q 12.3125 31.59375 12.015625 31.5 
L 10.890625 31.5 
Q 10.640625 31.5 10.265625 31.8125 
Q 9.90625 32.125 9.90625 32.421875 
L 9.90625 65.828125 
Q 9.90625 66.0625 10.21875 66.328125 
Q 10.546875 66.609375 10.890625 66.609375 
L 11.1875 66.609375 
Q 17.921875 63.375 25.484375 63.375 
Q 32.90625 63.375 39.796875 66.609375 
L 40.09375 66.609375 
Q 40.4375 66.609375 40.71875 66.359375 
Q 41.015625 66.109375 41.015625 65.828125 
L 41.015625 64.890625 
Q 41.015625 64.40625 40.828125 64.40625 
Q 37.40625 59.859375 32.25 57.3125 
Q 27.09375 54.78125 21.578125 54.78125 
Q 17.578125 54.78125 13.375 55.90625 
L 13.375 37.015625 
Q 16.703125 39.703125 19.3125 40.84375 
Q 21.921875 42 25.984375 42 
Q 31.5 42 35.859375 38.8125 
Q 40.234375 35.640625 42.578125 30.53125 
Q 44.921875 25.4375 44.921875 20.125 
Q 44.921875 14.109375 41.96875 8.984375 
Q 39.015625 3.859375 33.9375 0.828125 
Q 28.859375 -2.203125 22.90625 -2.203125 
Q 17.96875 -2.203125 13.84375 0.328125 
Q 9.71875 2.875 7.34375 7.171875 
Q 4.984375 11.46875 4.984375 16.3125 
Q 4.984375 18.5625 6.4375 19.96875 
Q 7.90625 21.390625 10.109375 21.390625 
Q 12.3125 21.390625 13.796875 19.9375 
Q 15.28125 18.5 15.28125 16.3125 
Q 15.28125 14.15625 13.796875 12.671875 
Q 12.3125 11.1875 10.109375 11.1875 
Q 9.765625 11.1875 9.328125 11.25 
Q 8.890625 11.328125 8.6875 11.375 
z
" id="Cmr10-53"/>
     </defs>
     <use transform="translate(0 0.390625)" xlink:href="#Cmr10-53"/>
     <use transform="translate(67.558594 0.390625)" xlink:href="#Cmsy10-163"/>
     <use transform="translate(162.802734 0.390625)" xlink:href="#Cmr10-53"/>
     <use transform="translate(230.361328 0.390625)" xlink:href="#Cmsy10-163"/>
     <use transform="translate(325.605469 0.390625)" xlink:href="#Cmr10-49"/>
     <use transform="translate(375.605469 0.390625)" xlink:href="#Cmr10-54"/>
    </g>
   </g>
   <g id="text_10">
    <!-- POOL 2 -->
    <g transform="translate(662.889877 18.597656)scale(0.11 -0.11)">
     <use xlink:href="#DejaVuSans-80"/>
     <use x="60.302734" xlink:href="#DejaVuSans-79"/>
     <use x="139.013672" xlink:href="#DejaVuSans-79"/>
     <use x="217.724609" xlink:href="#DejaVuSans-76"/>
     <use x="273.4375" xlink:href="#DejaVuSans-32"/>
     <use x="305.224609" xlink:href="#DejaVuSans-50"/>
    </g>
   </g>
  </g>
  <g id="axes_6">
   <g id="line2d_1">
    <path clip-path="url(#p47cf258cb0)" d="M 784.414286 37.351942 
L 816.3 37.351942 
" style="fill:none;stroke:#000000;stroke-linecap:square;stroke-width:0.25;"/>
   </g>
   <g id="line2d_2">
    <path clip-path="url(#p47cf258cb0)" d="M 784.414286 37.351942 
L 816.3 62.860513 
" style="fill:none;stroke:#000000;stroke-linecap:square;stroke-width:0.25;"/>
   </g>
   <g id="line2d_3">
    <path clip-path="url(#p47cf258cb0)" d="M 784.414286 37.351942 
L 816.3 88.369085 
" style="fill:none;stroke:#000000;stroke-linecap:square;stroke-width:0.25;"/>
   </g>
   <g id="line2d_4">
    <path clip-path="url(#p47cf258cb0)" d="M 784.414286 37.351942 
L 816.3 113.877656 
" style="fill:none;stroke:#ffffff;stroke-linecap:square;stroke-width:0.25;"/>
   </g>
   <g id="line2d_5">
    <path clip-path="url(#p47cf258cb0)" d="M 784.414286 37.351942 
L 816.3 139.386228 
" style="fill:none;stroke:#000000;stroke-linecap:square;stroke-width:0.25;"/>
   </g>
   <g id="line2d_6">
    <path clip-path="url(#p47cf258cb0)" d="M 784.414286 62.860513 
L 816.3 37.351942 
" style="fill:none;stroke:#000000;stroke-linecap:square;stroke-width:0.25;"/>
   </g>
   <g id="line2d_7">
    <path clip-path="url(#p47cf258cb0)" d="M 784.414286 62.860513 
L 816.3 62.860513 
" style="fill:none;stroke:#000000;stroke-linecap:square;stroke-width:0.25;"/>
   </g>
   <g id="line2d_8">
    <path clip-path="url(#p47cf258cb0)" d="M 784.414286 62.860513 
L 816.3 88.369085 
" style="fill:none;stroke:#000000;stroke-linecap:square;stroke-width:0.25;"/>
   </g>
   <g id="line2d_9">
    <path clip-path="url(#p47cf258cb0)" d="M 784.414286 62.860513 
L 816.3 113.877656 
" style="fill:none;stroke:#ffffff;stroke-linecap:square;stroke-width:0.25;"/>
   </g>
   <g id="line2d_10">
    <path clip-path="url(#p47cf258cb0)" d="M 784.414286 62.860513 
L 816.3 139.386228 
" style="fill:none;stroke:#000000;stroke-linecap:square;stroke-width:0.25;"/>
   </g>
   <g id="line2d_11">
    <path clip-path="url(#p47cf258cb0)" d="M 784.414286 88.369085 
L 816.3 37.351942 
" style="fill:none;stroke:#000000;stroke-linecap:square;stroke-width:0.25;"/>
   </g>
   <g id="line2d_12">
    <path clip-path="url(#p47cf258cb0)" d="M 784.414286 88.369085 
L 816.3 62.860513 
" style="fill:none;stroke:#000000;stroke-linecap:square;stroke-width:0.25;"/>
   </g>
   <g id="line2d_13">
    <path clip-path="url(#p47cf258cb0)" d="M 784.414286 88.369085 
L 816.3 88.369085 
" style="fill:none;stroke:#000000;stroke-linecap:square;stroke-width:0.25;"/>
   </g>
   <g id="line2d_14">
    <path clip-path="url(#p47cf258cb0)" d="M 784.414286 88.369085 
L 816.3 113.877656 
" style="fill:none;stroke:#ffffff;stroke-linecap:square;stroke-width:0.25;"/>
   </g>
   <g id="line2d_15">
    <path clip-path="url(#p47cf258cb0)" d="M 784.414286 88.369085 
L 816.3 139.386228 
" style="fill:none;stroke:#000000;stroke-linecap:square;stroke-width:0.25;"/>
   </g>
   <g id="line2d_16">
    <path clip-path="url(#p47cf258cb0)" d="M 784.414286 113.877656 
L 816.3 37.351942 
" style="fill:none;stroke:#ffffff;stroke-linecap:square;stroke-width:0.25;"/>
   </g>
   <g id="line2d_17">
    <path clip-path="url(#p47cf258cb0)" d="M 784.414286 113.877656 
L 816.3 62.860513 
" style="fill:none;stroke:#ffffff;stroke-linecap:square;stroke-width:0.25;"/>
   </g>
   <g id="line2d_18">
    <path clip-path="url(#p47cf258cb0)" d="M 784.414286 113.877656 
L 816.3 88.369085 
" style="fill:none;stroke:#ffffff;stroke-linecap:square;stroke-width:0.25;"/>
   </g>
   <g id="line2d_19">
    <path clip-path="url(#p47cf258cb0)" d="M 784.414286 113.877656 
L 816.3 113.877656 
" style="fill:none;stroke:#ffffff;stroke-linecap:square;stroke-width:0.25;"/>
   </g>
   <g id="line2d_20">
    <path clip-path="url(#p47cf258cb0)" d="M 784.414286 113.877656 
L 816.3 139.386228 
" style="fill:none;stroke:#ffffff;stroke-linecap:square;stroke-width:0.25;"/>
   </g>
   <g id="line2d_21">
    <path clip-path="url(#p47cf258cb0)" d="M 784.414286 139.386228 
L 816.3 37.351942 
" style="fill:none;stroke:#000000;stroke-linecap:square;stroke-width:0.25;"/>
   </g>
   <g id="line2d_22">
    <path clip-path="url(#p47cf258cb0)" d="M 784.414286 139.386228 
L 816.3 62.860513 
" style="fill:none;stroke:#000000;stroke-linecap:square;stroke-width:0.25;"/>
   </g>
   <g id="line2d_23">
    <path clip-path="url(#p47cf258cb0)" d="M 784.414286 139.386228 
L 816.3 88.369085 
" style="fill:none;stroke:#000000;stroke-linecap:square;stroke-width:0.25;"/>
   </g>
   <g id="line2d_24">
    <path clip-path="url(#p47cf258cb0)" d="M 784.414286 139.386228 
L 816.3 113.877656 
" style="fill:none;stroke:#ffffff;stroke-linecap:square;stroke-width:0.25;"/>
   </g>
   <g id="line2d_25">
    <path clip-path="url(#p47cf258cb0)" d="M 784.414286 139.386228 
L 816.3 139.386228 
" style="fill:none;stroke:#000000;stroke-linecap:square;stroke-width:0.25;"/>
   </g>
   <g id="line2d_26">
    <path clip-path="url(#p47cf258cb0)" d="M 816.3 37.351942 
L 848.185714 37.351942 
" style="fill:none;stroke:#000000;stroke-linecap:square;stroke-width:0.25;"/>
   </g>
   <g id="line2d_27">
    <path clip-path="url(#p47cf258cb0)" d="M 816.3 37.351942 
L 848.185714 62.860513 
" style="fill:none;stroke:#000000;stroke-linecap:square;stroke-width:0.25;"/>
   </g>
   <g id="line2d_28">
    <path clip-path="url(#p47cf258cb0)" d="M 816.3 37.351942 
L 848.185714 88.369085 
" style="fill:none;stroke:#000000;stroke-linecap:square;stroke-width:0.25;"/>
   </g>
   <g id="line2d_29">
    <path clip-path="url(#p47cf258cb0)" d="M 816.3 37.351942 
L 848.185714 113.877656 
" style="fill:none;stroke:#ffffff;stroke-linecap:square;stroke-width:0.25;"/>
   </g>
   <g id="line2d_30">
    <path clip-path="url(#p47cf258cb0)" d="M 816.3 37.351942 
L 848.185714 139.386228 
" style="fill:none;stroke:#000000;stroke-linecap:square;stroke-width:0.25;"/>
   </g>
   <g id="line2d_31">
    <path clip-path="url(#p47cf258cb0)" d="M 816.3 62.860513 
L 848.185714 37.351942 
" style="fill:none;stroke:#000000;stroke-linecap:square;stroke-width:0.25;"/>
   </g>
   <g id="line2d_32">
    <path clip-path="url(#p47cf258cb0)" d="M 816.3 62.860513 
L 848.185714 62.860513 
" style="fill:none;stroke:#000000;stroke-linecap:square;stroke-width:0.25;"/>
   </g>
   <g id="line2d_33">
    <path clip-path="url(#p47cf258cb0)" d="M 816.3 62.860513 
L 848.185714 88.369085 
" style="fill:none;stroke:#000000;stroke-linecap:square;stroke-width:0.25;"/>
   </g>
   <g id="line2d_34">
    <path clip-path="url(#p47cf258cb0)" d="M 816.3 62.860513 
L 848.185714 113.877656 
" style="fill:none;stroke:#ffffff;stroke-linecap:square;stroke-width:0.25;"/>
   </g>
   <g id="line2d_35">
    <path clip-path="url(#p47cf258cb0)" d="M 816.3 62.860513 
L 848.185714 139.386228 
" style="fill:none;stroke:#000000;stroke-linecap:square;stroke-width:0.25;"/>
   </g>
   <g id="line2d_36">
    <path clip-path="url(#p47cf258cb0)" d="M 816.3 88.369085 
L 848.185714 37.351942 
" style="fill:none;stroke:#000000;stroke-linecap:square;stroke-width:0.25;"/>
   </g>
   <g id="line2d_37">
    <path clip-path="url(#p47cf258cb0)" d="M 816.3 88.369085 
L 848.185714 62.860513 
" style="fill:none;stroke:#000000;stroke-linecap:square;stroke-width:0.25;"/>
   </g>
   <g id="line2d_38">
    <path clip-path="url(#p47cf258cb0)" d="M 816.3 88.369085 
L 848.185714 88.369085 
" style="fill:none;stroke:#000000;stroke-linecap:square;stroke-width:0.25;"/>
   </g>
   <g id="line2d_39">
    <path clip-path="url(#p47cf258cb0)" d="M 816.3 88.369085 
L 848.185714 113.877656 
" style="fill:none;stroke:#ffffff;stroke-linecap:square;stroke-width:0.25;"/>
   </g>
   <g id="line2d_40">
    <path clip-path="url(#p47cf258cb0)" d="M 816.3 88.369085 
L 848.185714 139.386228 
" style="fill:none;stroke:#000000;stroke-linecap:square;stroke-width:0.25;"/>
   </g>
   <g id="line2d_41">
    <path clip-path="url(#p47cf258cb0)" d="M 816.3 113.877656 
L 848.185714 37.351942 
" style="fill:none;stroke:#ffffff;stroke-linecap:square;stroke-width:0.25;"/>
   </g>
   <g id="line2d_42">
    <path clip-path="url(#p47cf258cb0)" d="M 816.3 113.877656 
L 848.185714 62.860513 
" style="fill:none;stroke:#ffffff;stroke-linecap:square;stroke-width:0.25;"/>
   </g>
   <g id="line2d_43">
    <path clip-path="url(#p47cf258cb0)" d="M 816.3 113.877656 
L 848.185714 88.369085 
" style="fill:none;stroke:#ffffff;stroke-linecap:square;stroke-width:0.25;"/>
   </g>
   <g id="line2d_44">
    <path clip-path="url(#p47cf258cb0)" d="M 816.3 113.877656 
L 848.185714 113.877656 
" style="fill:none;stroke:#ffffff;stroke-linecap:square;stroke-width:0.25;"/>
   </g>
   <g id="line2d_45">
    <path clip-path="url(#p47cf258cb0)" d="M 816.3 113.877656 
L 848.185714 139.386228 
" style="fill:none;stroke:#ffffff;stroke-linecap:square;stroke-width:0.25;"/>
   </g>
   <g id="line2d_46">
    <path clip-path="url(#p47cf258cb0)" d="M 816.3 139.386228 
L 848.185714 37.351942 
" style="fill:none;stroke:#000000;stroke-linecap:square;stroke-width:0.25;"/>
   </g>
   <g id="line2d_47">
    <path clip-path="url(#p47cf258cb0)" d="M 816.3 139.386228 
L 848.185714 62.860513 
" style="fill:none;stroke:#000000;stroke-linecap:square;stroke-width:0.25;"/>
   </g>
   <g id="line2d_48">
    <path clip-path="url(#p47cf258cb0)" d="M 816.3 139.386228 
L 848.185714 88.369085 
" style="fill:none;stroke:#000000;stroke-linecap:square;stroke-width:0.25;"/>
   </g>
   <g id="line2d_49">
    <path clip-path="url(#p47cf258cb0)" d="M 816.3 139.386228 
L 848.185714 113.877656 
" style="fill:none;stroke:#ffffff;stroke-linecap:square;stroke-width:0.25;"/>
   </g>
   <g id="line2d_50">
    <path clip-path="url(#p47cf258cb0)" d="M 816.3 139.386228 
L 848.185714 139.386228 
" style="fill:none;stroke:#000000;stroke-linecap:square;stroke-width:0.25;"/>
   </g>
   <g id="line2d_51">
    <path clip-path="url(#p47cf258cb0)" d="M 848.185714 37.351942 
L 880.071429 88.369085 
" style="fill:none;stroke:#000000;stroke-linecap:square;stroke-width:0.25;"/>
   </g>
   <g id="line2d_52">
    <path clip-path="url(#p47cf258cb0)" d="M 848.185714 62.860513 
L 880.071429 88.369085 
" style="fill:none;stroke:#000000;stroke-linecap:square;stroke-width:0.25;"/>
   </g>
   <g id="line2d_53">
    <path clip-path="url(#p47cf258cb0)" d="M 848.185714 88.369085 
L 880.071429 88.369085 
" style="fill:none;stroke:#000000;stroke-linecap:square;stroke-width:0.25;"/>
   </g>
   <g id="line2d_54">
    <path clip-path="url(#p47cf258cb0)" d="M 848.185714 113.877656 
L 880.071429 88.369085 
" style="fill:none;stroke:#ffffff;stroke-linecap:square;stroke-width:0.25;"/>
   </g>
   <g id="line2d_55">
    <path clip-path="url(#p47cf258cb0)" d="M 848.185714 139.386228 
L 880.071429 88.369085 
" style="fill:none;stroke:#000000;stroke-linecap:square;stroke-width:0.25;"/>
   </g>
   <g id="patch_7">
    <path d="M 169.885482 88.369085 
Q 147.496745 88.369085 123.989975 88.369085 
" style="fill:none;stroke:#000000;stroke-linecap:round;"/>
    <path d="M 165.885482 86.369085 
L 169.885482 88.369085 
L 165.885482 90.369085 
" style="fill:none;stroke:#000000;stroke-linecap:round;"/>
   </g>
   <g id="text_11">
    <!-- $f=5$ -->
    <g transform="translate(133.157728 104.220647)scale(0.13 -0.13)">
     <defs>
      <path d="M 9.71875 -16.5 
Q 11.578125 -17.921875 14.203125 -17.921875 
Q 17.78125 -17.921875 20.015625 -10.015625 
Q 20.953125 -6.203125 25.09375 15.09375 
L 29.6875 39.59375 
L 21.09375 39.59375 
Q 20.125 39.59375 20.125 40.921875 
Q 20.515625 43.109375 21.390625 43.109375 
L 30.328125 43.109375 
L 31.5 49.609375 
Q 32.078125 52.640625 32.5625 54.8125 
Q 33.0625 56.984375 33.625 58.828125 
Q 34.1875 60.6875 35.296875 62.984375 
Q 37.015625 66.265625 39.921875 68.390625 
Q 42.828125 70.515625 46.1875 70.515625 
Q 48.390625 70.515625 50.46875 69.703125 
Q 52.546875 68.890625 53.859375 67.28125 
Q 55.171875 65.671875 55.171875 63.484375 
Q 55.171875 60.9375 53.484375 59.046875 
Q 51.8125 57.171875 49.421875 57.171875 
Q 47.796875 57.171875 46.65625 58.171875 
Q 45.515625 59.1875 45.515625 60.796875 
Q 45.515625 62.984375 47 64.625 
Q 48.484375 66.265625 50.6875 66.5 
Q 48.828125 67.921875 46.09375 67.921875 
Q 44.578125 67.921875 43.234375 66.5 
Q 41.890625 65.09375 41.5 63.484375 
Q 40.875 60.9375 38.71875 49.703125 
L 37.5 43.109375 
L 47.796875 43.109375 
Q 48.78125 43.109375 48.78125 41.796875 
Q 48.734375 41.546875 48.578125 40.9375 
Q 48.4375 40.328125 48.171875 39.953125 
Q 47.90625 39.59375 47.515625 39.59375 
L 36.8125 39.59375 
L 32.171875 15.1875 
Q 31.296875 9.859375 30.140625 4.359375 
Q 29 -1.125 26.921875 -6.90625 
Q 24.859375 -12.703125 21.625 -16.609375 
Q 18.40625 -20.515625 14.015625 -20.515625 
Q 10.640625 -20.515625 7.984375 -18.578125 
Q 5.328125 -16.65625 5.328125 -13.484375 
Q 5.328125 -10.9375 6.953125 -9.046875 
Q 8.59375 -7.171875 11.078125 -7.171875 
Q 12.75 -7.171875 13.859375 -8.171875 
Q 14.984375 -9.1875 14.984375 -10.796875 
Q 14.984375 -12.9375 13.390625 -14.71875 
Q 11.8125 -16.5 9.71875 -16.5 
z
" id="Cmmi10-102"/>
      <path d="M 7.515625 13.28125 
Q 6.6875 13.28125 6.140625 13.90625 
Q 5.609375 14.546875 5.609375 15.28125 
Q 5.609375 16.109375 6.140625 16.6875 
Q 6.6875 17.28125 7.515625 17.28125 
L 70.3125 17.28125 
Q 71.046875 17.28125 71.578125 16.6875 
Q 72.125 16.109375 72.125 15.28125 
Q 72.125 14.546875 71.578125 13.90625 
Q 71.046875 13.28125 70.3125 13.28125 
z
M 7.515625 32.71875 
Q 6.6875 32.71875 6.140625 33.296875 
Q 5.609375 33.890625 5.609375 34.71875 
Q 5.609375 35.453125 6.140625 36.078125 
Q 6.6875 36.71875 7.515625 36.71875 
L 70.3125 36.71875 
Q 71.046875 36.71875 71.578125 36.078125 
Q 72.125 35.453125 72.125 34.71875 
Q 72.125 33.890625 71.578125 33.296875 
Q 71.046875 32.71875 70.3125 32.71875 
z
" id="Cmr10-61"/>
     </defs>
     <use transform="translate(0 0.484375)" xlink:href="#Cmmi10-102"/>
     <use transform="translate(66.435547 0.484375)" xlink:href="#Cmr10-61"/>
     <use transform="translate(161.679688 0.484375)" xlink:href="#Cmr10-53"/>
    </g>
    <!-- $s=1$ -->
    <g transform="translate(133.287728 118.80421)scale(0.13 -0.13)">
     <defs>
      <path d="M 8.6875 6.109375 
Q 11.375 1.515625 19.484375 1.515625 
Q 23 1.515625 26.171875 2.703125 
Q 29.34375 3.90625 31.421875 6.296875 
Q 33.5 8.6875 33.5 12.109375 
Q 33.5 14.703125 31.640625 16.359375 
Q 29.78125 18.015625 27.09375 18.609375 
L 21.6875 19.671875 
Q 17.96875 20.609375 15.578125 23.140625 
Q 13.1875 25.6875 13.1875 29.296875 
Q 13.1875 33.734375 15.59375 37.15625 
Q 18.015625 40.578125 21.96875 42.375 
Q 25.921875 44.1875 30.171875 44.1875 
Q 34.71875 44.1875 38.296875 42.015625 
Q 41.890625 39.84375 41.890625 35.59375 
Q 41.890625 33.296875 40.59375 31.53125 
Q 39.3125 29.78125 37.015625 29.78125 
Q 35.6875 29.78125 34.734375 30.640625 
Q 33.796875 31.5 33.796875 32.8125 
Q 33.796875 33.984375 34.453125 35.078125 
Q 35.109375 36.1875 36.203125 36.84375 
Q 37.3125 37.5 38.484375 37.5 
Q 37.59375 39.65625 35.171875 40.625 
Q 32.765625 41.609375 29.984375 41.609375 
Q 27.4375 41.609375 24.890625 40.578125 
Q 22.359375 39.546875 20.8125 37.5625 
Q 19.28125 35.59375 19.28125 32.90625 
Q 19.28125 31.109375 20.546875 29.734375 
Q 21.828125 28.375 23.6875 27.78125 
L 29.5 26.609375 
Q 32.28125 26.03125 34.59375 24.53125 
Q 36.921875 23.046875 38.25 20.765625 
Q 39.59375 18.5 39.59375 15.578125 
Q 39.59375 11.859375 37.515625 8.25 
Q 35.453125 4.640625 32.421875 2.484375 
Q 27.09375 -1.125 19.390625 -1.125 
Q 14.0625 -1.125 9.609375 1.3125 
Q 5.171875 3.765625 5.171875 8.59375 
Q 5.171875 11.328125 6.75 13.34375 
Q 8.34375 15.375 11.078125 15.375 
Q 12.703125 15.375 13.796875 14.390625 
Q 14.890625 13.421875 14.890625 11.8125 
Q 14.890625 9.515625 13.171875 7.8125 
Q 11.46875 6.109375 9.1875 6.109375 
z
" id="Cmmi10-115"/>
     </defs>
     <use transform="translate(0 0.390625)" xlink:href="#Cmmi10-115"/>
     <use transform="translate(64.335938 0.390625)" xlink:href="#Cmr10-61"/>
     <use transform="translate(159.580078 0.390625)" xlink:href="#Cmr10-49"/>
    </g>
   </g>
   <g id="patch_8">
    <path d="M 322.93691 88.369085 
Q 300.548174 88.369085 277.041404 88.369085 
" style="fill:none;stroke:#000000;stroke-linecap:round;"/>
    <path d="M 318.93691 86.369085 
L 322.93691 88.369085 
L 318.93691 90.369085 
" style="fill:none;stroke:#000000;stroke-linecap:round;"/>
   </g>
   <g id="text_12">
    <!-- $f=2$ -->
    <g transform="translate(286.209157 104.220647)scale(0.13 -0.13)">
     <use transform="translate(0 0.484375)" xlink:href="#Cmmi10-102"/>
     <use transform="translate(66.435547 0.484375)" xlink:href="#Cmr10-61"/>
     <use transform="translate(161.679688 0.484375)" xlink:href="#Cmr10-50"/>
    </g>
    <!-- $s=2$ -->
    <g transform="translate(286.339157 118.80421)scale(0.13 -0.13)">
     <use transform="translate(0 0.390625)" xlink:href="#Cmmi10-115"/>
     <use transform="translate(64.335938 0.390625)" xlink:href="#Cmr10-61"/>
     <use transform="translate(159.580078 0.390625)" xlink:href="#Cmr10-50"/>
    </g>
    <!-- $\mathrm{maxpool}$ -->
    <g transform="translate(275.939157 133.361366)scale(0.13 -0.13)">
     <defs>
      <path d="M 2.984375 0 
L 2.984375 3.515625 
Q 6.390625 3.515625 8.59375 4.046875 
Q 10.796875 4.59375 10.796875 6.6875 
L 10.796875 33.984375 
Q 10.796875 36.671875 9.984375 37.859375 
Q 9.1875 39.0625 7.671875 39.328125 
Q 6.15625 39.59375 2.984375 39.59375 
L 2.984375 43.109375 
L 17.484375 44.1875 
L 17.484375 34.421875 
Q 19.484375 38.71875 23.40625 41.453125 
Q 27.34375 44.1875 31.984375 44.1875 
Q 43.5 44.1875 45.515625 34.8125 
Q 47.515625 39.015625 51.359375 41.59375 
Q 55.21875 44.1875 59.8125 44.1875 
Q 64.359375 44.1875 67.453125 42.71875 
Q 70.5625 41.265625 72.125 38.25 
Q 73.6875 35.25 73.6875 30.71875 
L 73.6875 6.6875 
Q 73.6875 4.59375 75.90625 4.046875 
Q 78.125 3.515625 81.5 3.515625 
L 81.5 0 
L 58.59375 0 
L 58.59375 3.515625 
Q 62.015625 3.515625 64.203125 4.046875 
Q 66.40625 4.59375 66.40625 6.6875 
L 66.40625 30.421875 
Q 66.40625 35.453125 64.984375 38.53125 
Q 63.578125 41.609375 59.1875 41.609375 
Q 53.421875 41.609375 49.65625 36.96875 
Q 45.90625 32.328125 45.90625 26.421875 
L 45.90625 6.6875 
Q 45.90625 4.59375 48.09375 4.046875 
Q 50.296875 3.515625 53.71875 3.515625 
L 53.71875 0 
L 30.8125 0 
L 30.8125 3.515625 
Q 34.234375 3.515625 36.421875 4.046875 
Q 38.625 4.59375 38.625 6.6875 
L 38.625 30.421875 
Q 38.625 35.296875 37.203125 38.453125 
Q 35.796875 41.609375 31.390625 41.609375 
Q 25.59375 41.609375 21.84375 36.96875 
Q 18.109375 32.328125 18.109375 26.421875 
L 18.109375 6.6875 
Q 18.109375 4.59375 20.3125 4.046875 
Q 22.515625 3.515625 25.875 3.515625 
L 25.875 0 
z
" id="Cmr10-109"/>
      <path d="M 4 9.8125 
Q 4 15.765625 8.6875 19.5 
Q 13.375 23.25 19.9375 24.78125 
Q 26.515625 26.3125 32.421875 26.3125 
L 32.421875 30.421875 
Q 32.421875 33.296875 31.15625 36 
Q 29.890625 38.71875 27.484375 40.453125 
Q 25.09375 42.1875 22.21875 42.1875 
Q 15.578125 42.1875 12.109375 39.203125 
Q 14.015625 39.203125 15.25 37.765625 
Q 16.5 36.328125 16.5 34.421875 
Q 16.5 32.421875 15.078125 31 
Q 13.671875 29.59375 11.71875 29.59375 
Q 9.71875 29.59375 8.296875 31 
Q 6.890625 32.421875 6.890625 34.421875 
Q 6.890625 39.703125 11.671875 42.265625 
Q 16.453125 44.828125 22.21875 44.828125 
Q 26.265625 44.828125 30.359375 43.09375 
Q 34.46875 41.359375 37.078125 38.125 
Q 39.703125 34.90625 39.703125 30.609375 
L 39.703125 8.109375 
Q 39.703125 6.15625 40.53125 4.515625 
Q 41.359375 2.875 43.109375 2.875 
Q 44.78125 2.875 45.578125 4.53125 
Q 46.390625 6.203125 46.390625 8.109375 
L 46.390625 14.5 
L 49.3125 14.5 
L 49.3125 8.109375 
Q 49.3125 5.859375 48.140625 3.828125 
Q 46.96875 1.8125 44.984375 0.609375 
Q 43.015625 -0.59375 40.71875 -0.59375 
Q 37.796875 -0.59375 35.671875 1.671875 
Q 33.546875 3.953125 33.296875 7.078125 
Q 31.453125 3.328125 27.828125 1.09375 
Q 24.21875 -1.125 20.125 -1.125 
Q 16.3125 -1.125 12.625 0 
Q 8.9375 1.125 6.46875 3.53125 
Q 4 5.953125 4 9.8125 
z
M 12.109375 9.8125 
Q 12.109375 6.296875 14.6875 3.90625 
Q 17.28125 1.515625 20.796875 1.515625 
Q 24.03125 1.515625 26.65625 3.125 
Q 29.296875 4.734375 30.859375 7.515625 
Q 32.421875 10.296875 32.421875 13.375 
L 32.421875 23.78125 
Q 27.875 23.78125 23.109375 22.28125 
Q 18.359375 20.796875 15.234375 17.625 
Q 12.109375 14.453125 12.109375 9.8125 
z
" id="Cmr10-97"/>
      <path d="M 1.21875 0 
L 1.21875 3.515625 
Q 5.03125 3.515625 8.390625 5 
Q 11.765625 6.5 14.109375 9.421875 
L 23.1875 21 
L 11.375 36.375 
Q 9.625 38.578125 7.546875 39.078125 
Q 5.46875 39.59375 1.703125 39.59375 
L 1.703125 43.109375 
L 22.515625 43.109375 
L 22.515625 39.59375 
Q 21.1875 39.59375 20.03125 39 
Q 18.890625 38.421875 18.890625 37.3125 
Q 18.890625 36.921875 19.1875 36.375 
L 27.203125 25.984375 
L 33.203125 33.6875 
Q 34.421875 35.15625 34.421875 36.625 
Q 34.421875 37.84375 33.609375 38.71875 
Q 32.8125 39.59375 31.5 39.59375 
L 31.5 43.109375 
L 49.90625 43.109375 
L 49.90625 39.59375 
Q 46.046875 39.59375 42.65625 38.109375 
Q 39.265625 36.625 36.921875 33.6875 
L 29 23.578125 
L 41.796875 6.6875 
Q 43.703125 4.5 45.75 4 
Q 47.796875 3.515625 51.609375 3.515625 
L 51.609375 0 
L 30.8125 0 
L 30.8125 3.515625 
Q 32.03125 3.515625 33.15625 4.09375 
Q 34.28125 4.6875 34.28125 5.8125 
Q 34.28125 6.25 33.984375 6.6875 
L 25 18.609375 
L 17.828125 9.421875 
Q 16.703125 8.15625 16.703125 6.5 
Q 16.703125 5.28125 17.53125 4.390625 
Q 18.359375 3.515625 19.484375 3.515625 
L 19.484375 0 
z
" id="Cmr10-120"/>
      <path d="M 2.59375 -19.390625 
L 2.59375 -15.921875 
Q 6 -15.921875 8.203125 -15.328125 
Q 10.40625 -14.75 10.40625 -12.703125 
L 10.40625 35.5 
Q 10.40625 38.234375 8.453125 38.90625 
Q 6.5 39.59375 2.59375 39.59375 
L 2.59375 43.109375 
L 17.390625 44.1875 
L 17.390625 37.984375 
Q 20.125 41.015625 23.75 42.59375 
Q 27.390625 44.1875 31.5 44.1875 
Q 37.40625 44.1875 42.140625 40.984375 
Q 46.875 37.796875 49.53125 32.59375 
Q 52.203125 27.390625 52.203125 21.578125 
Q 52.203125 15.53125 49.25 10.296875 
Q 46.296875 5.078125 41.1875 1.96875 
Q 36.078125 -1.125 29.984375 -1.125 
Q 22.703125 -1.125 17.671875 4.78125 
L 17.671875 -12.703125 
Q 17.671875 -14.75 19.890625 -15.328125 
Q 22.125 -15.921875 25.484375 -15.921875 
L 25.484375 -19.390625 
z
M 17.671875 9.71875 
Q 19.4375 6.15625 22.5625 3.828125 
Q 25.6875 1.515625 29.390625 1.515625 
Q 32.859375 1.515625 35.515625 3.359375 
Q 38.1875 5.21875 39.984375 8.34375 
Q 41.796875 11.46875 42.640625 14.90625 
Q 43.5 18.359375 43.5 21.578125 
Q 43.5 25.59375 42.0625 30.25 
Q 40.625 34.90625 37.671875 38.109375 
Q 34.71875 41.3125 30.515625 41.3125 
Q 26.46875 41.3125 23.0625 39.234375 
Q 19.671875 37.15625 17.671875 33.59375 
z
" id="Cmr10-112"/>
      <path d="M 25 -1.125 
Q 19 -1.125 13.859375 1.921875 
Q 8.734375 4.984375 5.75 10.109375 
Q 2.78125 15.234375 2.78125 21.296875 
Q 2.78125 25.875 4.421875 30.125 
Q 6.0625 34.375 9.109375 37.71875 
Q 12.15625 41.0625 16.203125 42.9375 
Q 20.265625 44.828125 25 44.828125 
Q 31.15625 44.828125 36.203125 41.578125 
Q 41.265625 38.328125 44.1875 32.875 
Q 47.125 27.4375 47.125 21.296875 
Q 47.125 15.28125 44.140625 10.125 
Q 41.15625 4.984375 36.046875 1.921875 
Q 30.953125 -1.125 25 -1.125 
z
M 25 1.8125 
Q 33.015625 1.8125 35.6875 7.609375 
Q 38.375 13.421875 38.375 22.40625 
Q 38.375 27.4375 37.84375 30.734375 
Q 37.3125 34.03125 35.5 36.71875 
Q 34.375 38.375 32.640625 39.625 
Q 30.90625 40.875 28.96875 41.53125 
Q 27.046875 42.1875 25 42.1875 
Q 21.875 42.1875 19.0625 40.765625 
Q 16.265625 39.359375 14.40625 36.71875 
Q 12.546875 33.890625 12.03125 30.484375 
Q 11.53125 27.09375 11.53125 22.40625 
Q 11.53125 16.796875 12.5 12.328125 
Q 13.484375 7.859375 16.4375 4.828125 
Q 19.390625 1.8125 25 1.8125 
z
" id="Cmr10-111"/>
      <path d="M 3.078125 0 
L 3.078125 3.515625 
Q 6.5 3.515625 8.6875 4.046875 
Q 10.890625 4.59375 10.890625 6.6875 
L 10.890625 59.1875 
Q 10.890625 61.859375 10.078125 63.0625 
Q 9.28125 64.265625 7.765625 64.53125 
Q 6.25 64.796875 3.078125 64.796875 
L 3.078125 68.3125 
L 17.921875 69.390625 
L 17.921875 6.6875 
Q 17.921875 4.59375 20.109375 4.046875 
Q 22.3125 3.515625 25.6875 3.515625 
L 25.6875 0 
z
" id="Cmr10-108"/>
     </defs>
     <use transform="translate(0 0.609375)" xlink:href="#Cmr10-109"/>
     <use transform="translate(83.300781 0.609375)" xlink:href="#Cmr10-97"/>
     <use transform="translate(133.300781 0.609375)" xlink:href="#Cmr10-120"/>
     <use transform="translate(185.986328 0.609375)" xlink:href="#Cmr10-112"/>
     <use transform="translate(241.503906 0.609375)" xlink:href="#Cmr10-111"/>
     <use transform="translate(291.503906 0.609375)" xlink:href="#Cmr10-111"/>
     <use transform="translate(341.503906 0.609375)" xlink:href="#Cmr10-108"/>
    </g>
   </g>
   <g id="patch_9">
    <path d="M 475.988339 88.369085 
Q 453.599603 88.369085 430.092832 88.369085 
" style="fill:none;stroke:#000000;stroke-linecap:round;"/>
    <path d="M 471.988339 86.369085 
L 475.988339 88.369085 
L 471.988339 90.369085 
" style="fill:none;stroke:#000000;stroke-linecap:round;"/>
   </g>
   <g id="text_13">
    <!-- $f=5$ -->
    <g transform="translate(439.260586 104.220647)scale(0.13 -0.13)">
     <use transform="translate(0 0.484375)" xlink:href="#Cmmi10-102"/>
     <use transform="translate(66.435547 0.484375)" xlink:href="#Cmr10-61"/>
     <use transform="translate(161.679688 0.484375)" xlink:href="#Cmr10-53"/>
    </g>
    <!-- $s=2$ -->
    <g transform="translate(439.390586 118.80421)scale(0.13 -0.13)">
     <use transform="translate(0 0.390625)" xlink:href="#Cmmi10-115"/>
     <use transform="translate(64.335938 0.390625)" xlink:href="#Cmr10-61"/>
     <use transform="translate(159.580078 0.390625)" xlink:href="#Cmr10-50"/>
    </g>
   </g>
   <g id="patch_10">
    <path d="M 629.039767 88.369085 
Q 606.651031 88.369085 583.144261 88.369085 
" style="fill:none;stroke:#000000;stroke-linecap:round;"/>
    <path d="M 625.039767 86.369085 
L 629.039767 88.369085 
L 625.039767 90.369085 
" style="fill:none;stroke:#000000;stroke-linecap:round;"/>
   </g>
   <g id="text_14">
    <!-- $f=2$ -->
    <g transform="translate(592.312014 104.220647)scale(0.13 -0.13)">
     <use transform="translate(0 0.484375)" xlink:href="#Cmmi10-102"/>
     <use transform="translate(66.435547 0.484375)" xlink:href="#Cmr10-61"/>
     <use transform="translate(161.679688 0.484375)" xlink:href="#Cmr10-50"/>
    </g>
    <!-- $s=2$ -->
    <g transform="translate(592.442014 118.80421)scale(0.13 -0.13)">
     <use transform="translate(0 0.390625)" xlink:href="#Cmmi10-115"/>
     <use transform="translate(64.335938 0.390625)" xlink:href="#Cmr10-61"/>
     <use transform="translate(159.580078 0.390625)" xlink:href="#Cmr10-50"/>
    </g>
    <!-- $\mathrm{maxpool}$ -->
    <g transform="translate(582.042014 133.361366)scale(0.13 -0.13)">
     <use transform="translate(0 0.609375)" xlink:href="#Cmr10-109"/>
     <use transform="translate(83.300781 0.609375)" xlink:href="#Cmr10-97"/>
     <use transform="translate(133.300781 0.609375)" xlink:href="#Cmr10-120"/>
     <use transform="translate(185.986328 0.609375)" xlink:href="#Cmr10-112"/>
     <use transform="translate(241.503906 0.609375)" xlink:href="#Cmr10-111"/>
     <use transform="translate(291.503906 0.609375)" xlink:href="#Cmr10-111"/>
     <use transform="translate(341.503906 0.609375)" xlink:href="#Cmr10-108"/>
    </g>
   </g>
   <g id="patch_11">
    <path d="M 629.039767 88.369085 
Q 606.651031 88.369085 583.144261 88.369085 
" style="fill:none;stroke:#000000;stroke-linecap:round;"/>
    <path d="M 625.039767 86.369085 
L 629.039767 88.369085 
L 625.039767 90.369085 
" style="fill:none;stroke:#000000;stroke-linecap:round;"/>
   </g>
   <g id="patch_12">
    <path d="M 769.335353 88.369085 
Q 753.321936 88.369085 736.190484 88.369085 
" style="fill:none;stroke:#000000;stroke-linecap:round;"/>
    <path d="M 765.335353 86.369085 
L 769.335353 88.369085 
L 765.335353 90.369085 
" style="fill:none;stroke:#000000;stroke-linecap:round;"/>
   </g>
   <g id="patch_13">
    <path clip-path="url(#p47cf258cb0)" d="M 784.414286 44.526228 
C 786.316929 44.526228 788.1419 43.7703 789.487272 42.424928 
C 790.832643 41.079556 791.588571 39.254585 791.588571 37.351942 
C 791.588571 35.449299 790.832643 33.624328 789.487272 32.278956 
C 788.1419 30.933584 786.316929 30.177656 784.414286 30.177656 
C 782.511643 30.177656 780.686671 30.933584 779.3413 32.278956 
C 777.995928 33.624328 777.24 35.449299 777.24 37.351942 
C 777.24 39.254585 777.995928 41.079556 779.3413 42.424928 
C 780.686671 43.7703 782.511643 44.526228 784.414286 44.526228 
z
" style="fill:#ffffff;stroke:#000000;stroke-linejoin:miter;"/>
   </g>
   <g id="patch_14">
    <path clip-path="url(#p47cf258cb0)" d="M 784.414286 70.034799 
C 786.316929 70.034799 788.1419 69.278871 789.487272 67.933499 
C 790.832643 66.588128 791.588571 64.763156 791.588571 62.860513 
C 791.588571 60.957871 790.832643 59.132899 789.487272 57.787527 
C 788.1419 56.442156 786.316929 55.686228 784.414286 55.686228 
C 782.511643 55.686228 780.686671 56.442156 779.3413 57.787527 
C 777.995928 59.132899 777.24 60.957871 777.24 62.860513 
C 777.24 64.763156 777.995928 66.588128 779.3413 67.933499 
C 780.686671 69.278871 782.511643 70.034799 784.414286 70.034799 
z
" style="fill:#ffffff;stroke:#000000;stroke-linejoin:miter;"/>
   </g>
   <g id="patch_15">
    <path clip-path="url(#p47cf258cb0)" d="M 784.414286 95.543371 
C 786.316929 95.543371 788.1419 94.787443 789.487272 93.442071 
C 790.832643 92.096699 791.588571 90.271728 791.588571 88.369085 
C 791.588571 86.466442 790.832643 84.64147 789.487272 83.296099 
C 788.1419 81.950727 786.316929 81.194799 784.414286 81.194799 
C 782.511643 81.194799 780.686671 81.950727 779.3413 83.296099 
C 777.995928 84.64147 777.24 86.466442 777.24 88.369085 
C 777.24 90.271728 777.995928 92.096699 779.3413 93.442071 
C 780.686671 94.787443 782.511643 95.543371 784.414286 95.543371 
z
" style="fill:#ffffff;stroke:#000000;stroke-linejoin:miter;"/>
   </g>
   <g id="patch_16">
    <path clip-path="url(#p47cf258cb0)" d="M 784.414286 121.051942 
C 786.316929 121.051942 788.1419 120.296014 789.487272 118.950642 
C 790.832643 117.605271 791.588571 115.780299 791.588571 113.877656 
C 791.588571 111.975013 790.832643 110.150042 789.487272 108.80467 
C 788.1419 107.459299 786.316929 106.703371 784.414286 106.703371 
C 782.511643 106.703371 780.686671 107.459299 779.3413 108.80467 
C 777.995928 110.150042 777.24 111.975013 777.24 113.877656 
C 777.24 115.780299 777.995928 117.605271 779.3413 118.950642 
C 780.686671 120.296014 782.511643 121.051942 784.414286 121.051942 
z
" style="fill:#ffffff;stroke:#ffffff;stroke-linejoin:miter;"/>
   </g>
   <g id="patch_17">
    <path clip-path="url(#p47cf258cb0)" d="M 784.414286 146.560513 
C 786.316929 146.560513 788.1419 145.804585 789.487272 144.459214 
C 790.832643 143.113842 791.588571 141.28887 791.588571 139.386228 
C 791.588571 137.483585 790.832643 135.658613 789.487272 134.313242 
C 788.1419 132.96787 786.316929 132.211942 784.414286 132.211942 
C 782.511643 132.211942 780.686671 132.96787 779.3413 134.313242 
C 777.995928 135.658613 777.24 137.483585 777.24 139.386228 
C 777.24 141.28887 777.995928 143.113842 779.3413 144.459214 
C 780.686671 145.804585 782.511643 146.560513 784.414286 146.560513 
z
" style="fill:#ffffff;stroke:#000000;stroke-linejoin:miter;"/>
   </g>
   <g id="patch_18">
    <path clip-path="url(#p47cf258cb0)" d="M 816.3 44.526228 
C 818.202643 44.526228 820.027614 43.7703 821.372986 42.424928 
C 822.718358 41.079556 823.474286 39.254585 823.474286 37.351942 
C 823.474286 35.449299 822.718358 33.624328 821.372986 32.278956 
C 820.027614 30.933584 818.202643 30.177656 816.3 30.177656 
C 814.397357 30.177656 812.572386 30.933584 811.227014 32.278956 
C 809.881642 33.624328 809.125714 35.449299 809.125714 37.351942 
C 809.125714 39.254585 809.881642 41.079556 811.227014 42.424928 
C 812.572386 43.7703 814.397357 44.526228 816.3 44.526228 
z
" style="fill:#ffffff;stroke:#000000;stroke-linejoin:miter;"/>
   </g>
   <g id="patch_19">
    <path clip-path="url(#p47cf258cb0)" d="M 816.3 70.034799 
C 818.202643 70.034799 820.027614 69.278871 821.372986 67.933499 
C 822.718358 66.588128 823.474286 64.763156 823.474286 62.860513 
C 823.474286 60.957871 822.718358 59.132899 821.372986 57.787527 
C 820.027614 56.442156 818.202643 55.686228 816.3 55.686228 
C 814.397357 55.686228 812.572386 56.442156 811.227014 57.787527 
C 809.881642 59.132899 809.125714 60.957871 809.125714 62.860513 
C 809.125714 64.763156 809.881642 66.588128 811.227014 67.933499 
C 812.572386 69.278871 814.397357 70.034799 816.3 70.034799 
z
" style="fill:#ffffff;stroke:#000000;stroke-linejoin:miter;"/>
   </g>
   <g id="patch_20">
    <path clip-path="url(#p47cf258cb0)" d="M 816.3 95.543371 
C 818.202643 95.543371 820.027614 94.787443 821.372986 93.442071 
C 822.718358 92.096699 823.474286 90.271728 823.474286 88.369085 
C 823.474286 86.466442 822.718358 84.64147 821.372986 83.296099 
C 820.027614 81.950727 818.202643 81.194799 816.3 81.194799 
C 814.397357 81.194799 812.572386 81.950727 811.227014 83.296099 
C 809.881642 84.64147 809.125714 86.466442 809.125714 88.369085 
C 809.125714 90.271728 809.881642 92.096699 811.227014 93.442071 
C 812.572386 94.787443 814.397357 95.543371 816.3 95.543371 
z
" style="fill:#ffffff;stroke:#000000;stroke-linejoin:miter;"/>
   </g>
   <g id="patch_21">
    <path clip-path="url(#p47cf258cb0)" d="M 816.3 121.051942 
C 818.202643 121.051942 820.027614 120.296014 821.372986 118.950642 
C 822.718358 117.605271 823.474286 115.780299 823.474286 113.877656 
C 823.474286 111.975013 822.718358 110.150042 821.372986 108.80467 
C 820.027614 107.459299 818.202643 106.703371 816.3 106.703371 
C 814.397357 106.703371 812.572386 107.459299 811.227014 108.80467 
C 809.881642 110.150042 809.125714 111.975013 809.125714 113.877656 
C 809.125714 115.780299 809.881642 117.605271 811.227014 118.950642 
C 812.572386 120.296014 814.397357 121.051942 816.3 121.051942 
z
" style="fill:#ffffff;stroke:#ffffff;stroke-linejoin:miter;"/>
   </g>
   <g id="patch_22">
    <path clip-path="url(#p47cf258cb0)" d="M 816.3 146.560513 
C 818.202643 146.560513 820.027614 145.804585 821.372986 144.459214 
C 822.718358 143.113842 823.474286 141.28887 823.474286 139.386228 
C 823.474286 137.483585 822.718358 135.658613 821.372986 134.313242 
C 820.027614 132.96787 818.202643 132.211942 816.3 132.211942 
C 814.397357 132.211942 812.572386 132.96787 811.227014 134.313242 
C 809.881642 135.658613 809.125714 137.483585 809.125714 139.386228 
C 809.125714 141.28887 809.881642 143.113842 811.227014 144.459214 
C 812.572386 145.804585 814.397357 146.560513 816.3 146.560513 
z
" style="fill:#ffffff;stroke:#000000;stroke-linejoin:miter;"/>
   </g>
   <g id="patch_23">
    <path clip-path="url(#p47cf258cb0)" d="M 848.185714 44.526228 
C 850.088357 44.526228 851.913329 43.7703 853.2587 42.424928 
C 854.604072 41.079556 855.36 39.254585 855.36 37.351942 
C 855.36 35.449299 854.604072 33.624328 853.2587 32.278956 
C 851.913329 30.933584 850.088357 30.177656 848.185714 30.177656 
C 846.283071 30.177656 844.4581 30.933584 843.112728 32.278956 
C 841.767357 33.624328 841.011429 35.449299 841.011429 37.351942 
C 841.011429 39.254585 841.767357 41.079556 843.112728 42.424928 
C 844.4581 43.7703 846.283071 44.526228 848.185714 44.526228 
z
" style="fill:#ffffff;stroke:#000000;stroke-linejoin:miter;"/>
   </g>
   <g id="patch_24">
    <path clip-path="url(#p47cf258cb0)" d="M 848.185714 70.034799 
C 850.088357 70.034799 851.913329 69.278871 853.2587 67.933499 
C 854.604072 66.588128 855.36 64.763156 855.36 62.860513 
C 855.36 60.957871 854.604072 59.132899 853.2587 57.787527 
C 851.913329 56.442156 850.088357 55.686228 848.185714 55.686228 
C 846.283071 55.686228 844.4581 56.442156 843.112728 57.787527 
C 841.767357 59.132899 841.011429 60.957871 841.011429 62.860513 
C 841.011429 64.763156 841.767357 66.588128 843.112728 67.933499 
C 844.4581 69.278871 846.283071 70.034799 848.185714 70.034799 
z
" style="fill:#ffffff;stroke:#000000;stroke-linejoin:miter;"/>
   </g>
   <g id="patch_25">
    <path clip-path="url(#p47cf258cb0)" d="M 848.185714 95.543371 
C 850.088357 95.543371 851.913329 94.787443 853.2587 93.442071 
C 854.604072 92.096699 855.36 90.271728 855.36 88.369085 
C 855.36 86.466442 854.604072 84.64147 853.2587 83.296099 
C 851.913329 81.950727 850.088357 81.194799 848.185714 81.194799 
C 846.283071 81.194799 844.4581 81.950727 843.112728 83.296099 
C 841.767357 84.64147 841.011429 86.466442 841.011429 88.369085 
C 841.011429 90.271728 841.767357 92.096699 843.112728 93.442071 
C 844.4581 94.787443 846.283071 95.543371 848.185714 95.543371 
z
" style="fill:#ffffff;stroke:#000000;stroke-linejoin:miter;"/>
   </g>
   <g id="patch_26">
    <path clip-path="url(#p47cf258cb0)" d="M 848.185714 121.051942 
C 850.088357 121.051942 851.913329 120.296014 853.2587 118.950642 
C 854.604072 117.605271 855.36 115.780299 855.36 113.877656 
C 855.36 111.975013 854.604072 110.150042 853.2587 108.80467 
C 851.913329 107.459299 850.088357 106.703371 848.185714 106.703371 
C 846.283071 106.703371 844.4581 107.459299 843.112728 108.80467 
C 841.767357 110.150042 841.011429 111.975013 841.011429 113.877656 
C 841.011429 115.780299 841.767357 117.605271 843.112728 118.950642 
C 844.4581 120.296014 846.283071 121.051942 848.185714 121.051942 
z
" style="fill:#ffffff;stroke:#ffffff;stroke-linejoin:miter;"/>
   </g>
   <g id="patch_27">
    <path clip-path="url(#p47cf258cb0)" d="M 848.185714 146.560513 
C 850.088357 146.560513 851.913329 145.804585 853.2587 144.459214 
C 854.604072 143.113842 855.36 141.28887 855.36 139.386228 
C 855.36 137.483585 854.604072 135.658613 853.2587 134.313242 
C 851.913329 132.96787 850.088357 132.211942 848.185714 132.211942 
C 846.283071 132.211942 844.4581 132.96787 843.112728 134.313242 
C 841.767357 135.658613 841.011429 137.483585 841.011429 139.386228 
C 841.011429 141.28887 841.767357 143.113842 843.112728 144.459214 
C 844.4581 145.804585 846.283071 146.560513 848.185714 146.560513 
z
" style="fill:#ffffff;stroke:#000000;stroke-linejoin:miter;"/>
   </g>
   <g id="patch_28">
    <path clip-path="url(#p47cf258cb0)" d="M 880.071429 95.543371 
C 881.974071 95.543371 883.799043 94.787443 885.144415 93.442071 
C 886.489786 92.096699 887.245714 90.271728 887.245714 88.369085 
C 887.245714 86.466442 886.489786 84.64147 885.144415 83.296099 
C 883.799043 81.950727 881.974071 81.194799 880.071429 81.194799 
C 878.168786 81.194799 876.343814 81.950727 874.998442 83.296099 
C 873.653071 84.64147 872.897143 86.466442 872.897143 88.369085 
C 872.897143 90.271728 873.653071 92.096699 874.998442 93.442071 
C 876.343814 94.787443 878.168786 95.543371 880.071429 95.543371 
z
" style="fill:#ffffff;stroke:#000000;stroke-linejoin:miter;"/>
   </g>
   <g id="text_15">
    <!-- 400 -->
    <g transform="translate(774.870536 154.899888)scale(0.1 -0.1)">
     <defs>
      <path d="M 37.796875 64.3125 
L 12.890625 25.390625 
L 37.796875 25.390625 
z
M 35.203125 72.90625 
L 47.609375 72.90625 
L 47.609375 25.390625 
L 58.015625 25.390625 
L 58.015625 17.1875 
L 47.609375 17.1875 
L 47.609375 0 
L 37.796875 0 
L 37.796875 17.1875 
L 4.890625 17.1875 
L 4.890625 26.703125 
z
" id="DejaVuSans-52"/>
      <path d="M 31.78125 66.40625 
Q 24.171875 66.40625 20.328125 58.90625 
Q 16.5 51.421875 16.5 36.375 
Q 16.5 21.390625 20.328125 13.890625 
Q 24.171875 6.390625 31.78125 6.390625 
Q 39.453125 6.390625 43.28125 13.890625 
Q 47.125 21.390625 47.125 36.375 
Q 47.125 51.421875 43.28125 58.90625 
Q 39.453125 66.40625 31.78125 66.40625 
z
M 31.78125 74.21875 
Q 44.046875 74.21875 50.515625 64.515625 
Q 56.984375 54.828125 56.984375 36.375 
Q 56.984375 17.96875 50.515625 8.265625 
Q 44.046875 -1.421875 31.78125 -1.421875 
Q 19.53125 -1.421875 13.0625 8.265625 
Q 6.59375 17.96875 6.59375 36.375 
Q 6.59375 54.828125 13.0625 64.515625 
Q 19.53125 74.21875 31.78125 74.21875 
z
" id="DejaVuSans-48"/>
     </defs>
     <use xlink:href="#DejaVuSans-52"/>
     <use x="63.623047" xlink:href="#DejaVuSans-48"/>
     <use x="127.246094" xlink:href="#DejaVuSans-48"/>
    </g>
   </g>
   <g id="text_16">
    <!-- 120 -->
    <g transform="translate(806.75625 154.899888)scale(0.1 -0.1)">
     <use xlink:href="#DejaVuSans-49"/>
     <use x="63.623047" xlink:href="#DejaVuSans-50"/>
     <use x="127.246094" xlink:href="#DejaVuSans-48"/>
    </g>
   </g>
   <g id="text_17">
    <!-- 84 -->
    <g transform="translate(841.823214 154.899888)scale(0.1 -0.1)">
     <defs>
      <path d="M 31.78125 34.625 
Q 24.75 34.625 20.71875 30.859375 
Q 16.703125 27.09375 16.703125 20.515625 
Q 16.703125 13.921875 20.71875 10.15625 
Q 24.75 6.390625 31.78125 6.390625 
Q 38.8125 6.390625 42.859375 10.171875 
Q 46.921875 13.96875 46.921875 20.515625 
Q 46.921875 27.09375 42.890625 30.859375 
Q 38.875 34.625 31.78125 34.625 
z
M 21.921875 38.8125 
Q 15.578125 40.375 12.03125 44.71875 
Q 8.5 49.078125 8.5 55.328125 
Q 8.5 64.0625 14.71875 69.140625 
Q 20.953125 74.21875 31.78125 74.21875 
Q 42.671875 74.21875 48.875 69.140625 
Q 55.078125 64.0625 55.078125 55.328125 
Q 55.078125 49.078125 51.53125 44.71875 
Q 48 40.375 41.703125 38.8125 
Q 48.828125 37.15625 52.796875 32.3125 
Q 56.78125 27.484375 56.78125 20.515625 
Q 56.78125 9.90625 50.3125 4.234375 
Q 43.84375 -1.421875 31.78125 -1.421875 
Q 19.734375 -1.421875 13.25 4.234375 
Q 6.78125 9.90625 6.78125 20.515625 
Q 6.78125 27.484375 10.78125 32.3125 
Q 14.796875 37.15625 21.921875 38.8125 
z
M 18.3125 54.390625 
Q 18.3125 48.734375 21.84375 45.5625 
Q 25.390625 42.390625 31.78125 42.390625 
Q 38.140625 42.390625 41.71875 45.5625 
Q 45.3125 48.734375 45.3125 54.390625 
Q 45.3125 60.0625 41.71875 63.234375 
Q 38.140625 66.40625 31.78125 66.40625 
Q 25.390625 66.40625 21.84375 63.234375 
Q 18.3125 60.0625 18.3125 54.390625 
z
" id="DejaVuSans-56"/>
     </defs>
     <use xlink:href="#DejaVuSans-56"/>
     <use x="63.623047" xlink:href="#DejaVuSans-52"/>
    </g>
   </g>
   <g id="text_18">
    <!-- 10 -->
    <g transform="translate(873.708929 154.899888)scale(0.1 -0.1)">
     <use xlink:href="#DejaVuSans-49"/>
     <use x="63.623047" xlink:href="#DejaVuSans-48"/>
    </g>
   </g>
   <g id="text_19">
    <!--   -->
    <g transform="translate(782.825223 40.111317)scale(0.1 -0.1)">
     <use xlink:href="#DejaVuSans-32"/>
    </g>
   </g>
   <g id="text_20">
    <!--   -->
    <g transform="translate(782.825223 65.619888)scale(0.1 -0.1)">
     <use xlink:href="#DejaVuSans-32"/>
    </g>
   </g>
   <g id="text_21">
    <!--   -->
    <g transform="translate(782.825223 91.12846)scale(0.1 -0.1)">
     <use xlink:href="#DejaVuSans-32"/>
    </g>
   </g>
   <g id="text_22">
    <!-- $\vdots$ -->
    <g transform="translate(781.814286 116.637031)scale(0.1 -0.1)">
     <defs>
      <path d="M 31.90625 54.296875 
Q 31.90625 51.703125 30.15625 49.796875 
Q 28.40625 47.90625 25.59375 47.90625 
Q 22.703125 47.90625 20.953125 49.65625 
Q 19.203125 51.40625 19.203125 54.296875 
Q 19.203125 57 21.140625 58.796875 
Q 23.09375 60.59375 25.59375 60.59375 
Q 28.09375 60.59375 30 58.796875 
Q 31.90625 57 31.90625 54.296875 
z
M 31.90625 25.203125 
Q 31.90625 22.59375 30.15625 20.6875 
Q 28.40625 18.796875 25.59375 18.796875 
Q 22.703125 18.796875 20.953125 20.546875 
Q 19.203125 22.296875 19.203125 25.203125 
Q 19.203125 27.90625 21.140625 29.703125 
Q 23.09375 31.5 25.59375 31.5 
Q 28.09375 31.5 30 29.703125 
Q 31.90625 27.90625 31.90625 25.203125 
z
M 31.90625 -4 
Q 31.90625 -6.59375 30.15625 -8.5 
Q 28.40625 -10.40625 25.59375 -10.40625 
Q 22.703125 -10.40625 20.953125 -8.65625 
Q 19.203125 -6.90625 19.203125 -4 
Q 19.203125 -1.296875 21.140625 0.5 
Q 23.09375 2.296875 25.59375 2.296875 
Q 28.09375 2.296875 30 0.5 
Q 31.90625 -1.296875 31.90625 -4 
z
" id="STIXGeneral-Regular-8942"/>
     </defs>
     <use transform="translate(0 0.40625)" xlink:href="#STIXGeneral-Regular-8942"/>
    </g>
   </g>
   <g id="text_23">
    <!--   -->
    <g transform="translate(782.825223 142.145603)scale(0.1 -0.1)">
     <use xlink:href="#DejaVuSans-32"/>
    </g>
   </g>
   <g id="text_24">
    <!--   -->
    <g transform="translate(814.710938 40.111317)scale(0.1 -0.1)">
     <use xlink:href="#DejaVuSans-32"/>
    </g>
   </g>
   <g id="text_25">
    <!--   -->
    <g transform="translate(814.710938 65.619888)scale(0.1 -0.1)">
     <use xlink:href="#DejaVuSans-32"/>
    </g>
   </g>
   <g id="text_26">
    <!--   -->
    <g transform="translate(814.710938 91.12846)scale(0.1 -0.1)">
     <use xlink:href="#DejaVuSans-32"/>
    </g>
   </g>
   <g id="text_27">
    <!-- $\vdots$ -->
    <g transform="translate(813.7 116.637031)scale(0.1 -0.1)">
     <use transform="translate(0 0.40625)" xlink:href="#STIXGeneral-Regular-8942"/>
    </g>
   </g>
   <g id="text_28">
    <!--   -->
    <g transform="translate(814.710938 142.145603)scale(0.1 -0.1)">
     <use xlink:href="#DejaVuSans-32"/>
    </g>
   </g>
   <g id="text_29">
    <!--   -->
    <g transform="translate(846.596652 40.111317)scale(0.1 -0.1)">
     <use xlink:href="#DejaVuSans-32"/>
    </g>
   </g>
   <g id="text_30">
    <!--   -->
    <g transform="translate(846.596652 65.619888)scale(0.1 -0.1)">
     <use xlink:href="#DejaVuSans-32"/>
    </g>
   </g>
   <g id="text_31">
    <!--   -->
    <g transform="translate(846.596652 91.12846)scale(0.1 -0.1)">
     <use xlink:href="#DejaVuSans-32"/>
    </g>
   </g>
   <g id="text_32">
    <!-- $\vdots$ -->
    <g transform="translate(845.585714 116.637031)scale(0.1 -0.1)">
     <use transform="translate(0 0.40625)" xlink:href="#STIXGeneral-Regular-8942"/>
    </g>
   </g>
   <g id="text_33">
    <!--   -->
    <g transform="translate(846.596652 142.145603)scale(0.1 -0.1)">
     <use xlink:href="#DejaVuSans-32"/>
    </g>
   </g>
  </g>
 </g>
 <defs>
  <clipPath id="pc1d4d97825">
   <rect height="127.542857" width="127.542857" x="7.2" y="24.597656"/>
  </clipPath>
  <clipPath id="p5a100dcd41">
   <rect height="127.542857" width="127.542857" x="160.251429" y="24.597656"/>
  </clipPath>
  <clipPath id="p17f526ce78">
   <rect height="127.542857" width="127.542857" x="313.302857" y="24.597656"/>
  </clipPath>
  <clipPath id="p1a262a0ddf">
   <rect height="127.542857" width="127.542857" x="466.354286" y="24.597656"/>
  </clipPath>
  <clipPath id="pb1ff917dcf">
   <rect height="127.542857" width="127.542857" x="619.405714" y="24.597656"/>
  </clipPath>
  <clipPath id="p47cf258cb0">
   <rect height="127.542857" width="127.542857" x="772.457143" y="24.597656"/>
  </clipPath>
 </defs>
</svg>
