<?xml version="1.0" encoding="utf-8" standalone="no"?>
<!DOCTYPE svg PUBLIC "-//W3C//DTD SVG 1.1//EN"
  "http://www.w3.org/Graphics/SVG/1.1/DTD/svg11.dtd">
<svg height="262.19625pt" version="1.1" viewBox="0 0 349.304474 262.19625" width="349.304474pt" xmlns="http://www.w3.org/2000/svg" xmlns:xlink="http://www.w3.org/1999/xlink">
 <metadata>
  <rdf:RDF xmlns:cc="http://creativecommons.org/ns#" xmlns:dc="http://purl.org/dc/elements/1.1/" xmlns:rdf="http://www.w3.org/1999/02/22-rdf-syntax-ns#">
   <cc:Work>
    <dc:type rdf:resource="http://purl.org/dc/dcmitype/StillImage"/>
    <dc:date>2021-09-27T21:28:09.385875</dc:date>
    <dc:format>image/svg+xml</dc:format>
    <dc:creator>
     <cc:Agent>
      <dc:title>Matplotlib v3.4.3, https://matplotlib.org/</dc:title>
     </cc:Agent>
    </dc:creator>
   </cc:Work>
  </rdf:RDF>
 </metadata>
 <defs>
  <style type="text/css">*{stroke-linecap:butt;stroke-linejoin:round;}</style>
 </defs>
 <g id="figure_1">
  <g id="patch_1">
   <path d="M 0 262.19625 
L 349.304474 262.19625 
L 349.304474 0 
L 0 0 
z
" style="fill:none;"/>
  </g>
  <g id="axes_1">
   <g id="patch_2">
    <path d="M 7.304474 224.64 
L 342.104474 224.64 
L 342.104474 7.2 
L 7.304474 7.2 
z
" style="fill:#ffffff;"/>
   </g>
   <g id="PolyCollection_1">
    <path clip-path="url(#pb30e83f958)" d="M 22.522656 214.756364 
L 22.522656 214.74739 
L 25.597036 214.745381 
L 28.671417 214.742922 
L 31.745797 214.739913 
L 34.820177 214.736231 
L 37.894557 214.731724 
L 40.968937 214.726209 
L 44.043317 214.71946 
L 47.117698 214.7112 
L 50.192078 214.701091 
L 53.266458 214.688722 
L 56.340838 214.673585 
L 59.415218 214.655062 
L 62.489598 214.632398 
L 65.563979 214.604667 
L 68.638359 214.570738 
L 71.712739 214.529229 
L 74.787119 214.478452 
L 77.861499 214.416342 
L 80.935879 214.34038 
L 84.01026 214.247493 
L 87.08464 214.133929 
L 90.15902 213.99512 
L 93.2334 213.8255 
L 96.30778 213.618305 
L 99.38216 213.365318 
L 102.456541 213.056579 
L 105.530921 212.68004 
L 108.605301 212.221169 
L 111.679681 211.662492 
L 114.754061 210.983079 
L 117.828441 210.157995 
L 120.902822 209.157702 
L 123.977202 207.947488 
L 127.051582 206.486935 
L 130.125962 204.729541 
L 133.200342 202.622597 
L 136.274722 200.107483 
L 139.349103 197.120584 
L 142.423483 193.595074 
L 145.497863 189.463801 
L 148.572243 184.663493 
L 151.646623 179.140365 
L 154.721003 172.856993 
L 157.795384 165.799985 
L 160.869764 157.987543 
L 163.944144 149.475651 
L 167.018524 140.36134 
L 170.092904 130.781655 
L 173.167284 120.907496 
L 176.241665 110.932504 
L 176.241665 214.756364 
L 176.241665 214.756364 
L 173.167284 214.756364 
L 170.092904 214.756364 
L 167.018524 214.756364 
L 163.944144 214.756364 
L 160.869764 214.756364 
L 157.795384 214.756364 
L 154.721003 214.756364 
L 151.646623 214.756364 
L 148.572243 214.756364 
L 145.497863 214.756364 
L 142.423483 214.756364 
L 139.349103 214.756364 
L 136.274722 214.756364 
L 133.200342 214.756364 
L 130.125962 214.756364 
L 127.051582 214.756364 
L 123.977202 214.756364 
L 120.902822 214.756364 
L 117.828441 214.756364 
L 114.754061 214.756364 
L 111.679681 214.756364 
L 108.605301 214.756364 
L 105.530921 214.756364 
L 102.456541 214.756364 
L 99.38216 214.756364 
L 96.30778 214.756364 
L 93.2334 214.756364 
L 90.15902 214.756364 
L 87.08464 214.756364 
L 84.01026 214.756364 
L 80.935879 214.756364 
L 77.861499 214.756364 
L 74.787119 214.756364 
L 71.712739 214.756364 
L 68.638359 214.756364 
L 65.563979 214.756364 
L 62.489598 214.756364 
L 59.415218 214.756364 
L 56.340838 214.756364 
L 53.266458 214.756364 
L 50.192078 214.756364 
L 47.117698 214.756364 
L 44.043317 214.756364 
L 40.968937 214.756364 
L 37.894557 214.756364 
L 34.820177 214.756364 
L 31.745797 214.756364 
L 28.671417 214.756364 
L 25.597036 214.756364 
L 22.522656 214.756364 
z
" style="fill:#ff7f0e;fill-opacity:0.3;"/>
   </g>
   <g id="PolyCollection_2">
    <path clip-path="url(#pb30e83f958)" d="M 176.241665 17.083636 
L 176.241665 110.932504 
L 179.316045 101.058345 
L 182.390425 91.47866 
L 185.464805 82.364349 
L 188.539185 73.852457 
L 191.613565 66.040015 
L 194.687946 58.983007 
L 197.762326 52.699635 
L 200.836706 47.176507 
L 203.911086 42.376199 
L 206.985466 38.244926 
L 210.059846 34.719416 
L 213.134226 31.732517 
L 216.208607 29.217403 
L 219.282987 27.110459 
L 222.357367 25.353065 
L 225.431747 23.892512 
L 228.506127 22.682298 
L 231.580507 21.682005 
L 234.654888 20.856921 
L 237.729268 20.177508 
L 240.803648 19.618831 
L 243.878028 19.15996 
L 246.952408 18.783421 
L 250.026788 18.474682 
L 253.101169 18.221695 
L 256.175549 18.0145 
L 259.249929 17.84488 
L 262.324309 17.706071 
L 265.398689 17.592507 
L 268.473069 17.49962 
L 271.54745 17.423658 
L 274.62183 17.361548 
L 277.69621 17.310771 
L 280.77059 17.269262 
L 283.84497 17.235333 
L 286.91935 17.207602 
L 289.993731 17.184938 
L 293.068111 17.166415 
L 296.142491 17.151278 
L 299.216871 17.138909 
L 302.291251 17.1288 
L 305.365631 17.12054 
L 308.440012 17.113791 
L 311.514392 17.108276 
L 314.588772 17.103769 
L 317.663152 17.100087 
L 320.737532 17.097078 
L 323.811912 17.094619 
L 326.886293 17.09261 
L 326.886293 17.083636 
L 326.886293 17.083636 
L 323.811912 17.083636 
L 320.737532 17.083636 
L 317.663152 17.083636 
L 314.588772 17.083636 
L 311.514392 17.083636 
L 308.440012 17.083636 
L 305.365631 17.083636 
L 302.291251 17.083636 
L 299.216871 17.083636 
L 296.142491 17.083636 
L 293.068111 17.083636 
L 289.993731 17.083636 
L 286.91935 17.083636 
L 283.84497 17.083636 
L 280.77059 17.083636 
L 277.69621 17.083636 
L 274.62183 17.083636 
L 271.54745 17.083636 
L 268.473069 17.083636 
L 265.398689 17.083636 
L 262.324309 17.083636 
L 259.249929 17.083636 
L 256.175549 17.083636 
L 253.101169 17.083636 
L 250.026788 17.083636 
L 246.952408 17.083636 
L 243.878028 17.083636 
L 240.803648 17.083636 
L 237.729268 17.083636 
L 234.654888 17.083636 
L 231.580507 17.083636 
L 228.506127 17.083636 
L 225.431747 17.083636 
L 222.357367 17.083636 
L 219.282987 17.083636 
L 216.208607 17.083636 
L 213.134226 17.083636 
L 210.059846 17.083636 
L 206.985466 17.083636 
L 203.911086 17.083636 
L 200.836706 17.083636 
L 197.762326 17.083636 
L 194.687946 17.083636 
L 191.613565 17.083636 
L 188.539185 17.083636 
L 185.464805 17.083636 
L 182.390425 17.083636 
L 179.316045 17.083636 
L 176.241665 17.083636 
z
" style="fill:#2ca02c;fill-opacity:0.3;"/>
   </g>
   <g id="matplotlib.axis_1">
    <g id="xtick_1">
     <g id="line2d_1">
      <defs>
       <path d="M 0 0 
L 0 3.5 
" id="m94e8fa79e4" style="stroke:#000000;stroke-width:0.8;"/>
      </defs>
      <g>
       <use style="stroke:#000000;stroke-width:0.8;" x="22.522656" xlink:href="#m94e8fa79e4" y="224.64"/>
      </g>
     </g>
     <g id="text_1">
      <!-- −10.0 -->
      <g transform="translate(7.2 239.238437)scale(0.1 -0.1)">
       <defs>
        <path d="M 678 2272 
L 4684 2272 
L 4684 1741 
L 678 1741 
L 678 2272 
z
" id="DejaVuSans-2212" transform="scale(0.015625)"/>
        <path d="M 794 531 
L 1825 531 
L 1825 4091 
L 703 3866 
L 703 4441 
L 1819 4666 
L 2450 4666 
L 2450 531 
L 3481 531 
L 3481 0 
L 794 0 
L 794 531 
z
" id="DejaVuSans-31" transform="scale(0.015625)"/>
        <path d="M 2034 4250 
Q 1547 4250 1301 3770 
Q 1056 3291 1056 2328 
Q 1056 1369 1301 889 
Q 1547 409 2034 409 
Q 2525 409 2770 889 
Q 3016 1369 3016 2328 
Q 3016 3291 2770 3770 
Q 2525 4250 2034 4250 
z
M 2034 4750 
Q 2819 4750 3233 4129 
Q 3647 3509 3647 2328 
Q 3647 1150 3233 529 
Q 2819 -91 2034 -91 
Q 1250 -91 836 529 
Q 422 1150 422 2328 
Q 422 3509 836 4129 
Q 1250 4750 2034 4750 
z
" id="DejaVuSans-30" transform="scale(0.015625)"/>
        <path d="M 684 794 
L 1344 794 
L 1344 0 
L 684 0 
L 684 794 
z
" id="DejaVuSans-2e" transform="scale(0.015625)"/>
       </defs>
       <use xlink:href="#DejaVuSans-2212"/>
       <use x="83.789062" xlink:href="#DejaVuSans-31"/>
       <use x="147.412109" xlink:href="#DejaVuSans-30"/>
       <use x="211.035156" xlink:href="#DejaVuSans-2e"/>
       <use x="242.822266" xlink:href="#DejaVuSans-30"/>
      </g>
     </g>
    </g>
    <g id="xtick_2">
     <g id="line2d_2">
      <g>
       <use style="stroke:#000000;stroke-width:0.8;" x="60.568111" xlink:href="#m94e8fa79e4" y="224.64"/>
      </g>
     </g>
     <g id="text_2">
      <!-- −7.5 -->
      <g transform="translate(48.426705 239.238437)scale(0.1 -0.1)">
       <defs>
        <path d="M 525 4666 
L 3525 4666 
L 3525 4397 
L 1831 0 
L 1172 0 
L 2766 4134 
L 525 4134 
L 525 4666 
z
" id="DejaVuSans-37" transform="scale(0.015625)"/>
        <path d="M 691 4666 
L 3169 4666 
L 3169 4134 
L 1269 4134 
L 1269 2991 
Q 1406 3038 1543 3061 
Q 1681 3084 1819 3084 
Q 2600 3084 3056 2656 
Q 3513 2228 3513 1497 
Q 3513 744 3044 326 
Q 2575 -91 1722 -91 
Q 1428 -91 1123 -41 
Q 819 9 494 109 
L 494 744 
Q 775 591 1075 516 
Q 1375 441 1709 441 
Q 2250 441 2565 725 
Q 2881 1009 2881 1497 
Q 2881 1984 2565 2268 
Q 2250 2553 1709 2553 
Q 1456 2553 1204 2497 
Q 953 2441 691 2322 
L 691 4666 
z
" id="DejaVuSans-35" transform="scale(0.015625)"/>
       </defs>
       <use xlink:href="#DejaVuSans-2212"/>
       <use x="83.789062" xlink:href="#DejaVuSans-37"/>
       <use x="147.412109" xlink:href="#DejaVuSans-2e"/>
       <use x="179.199219" xlink:href="#DejaVuSans-35"/>
      </g>
     </g>
    </g>
    <g id="xtick_3">
     <g id="line2d_3">
      <g>
       <use style="stroke:#000000;stroke-width:0.8;" x="98.613565" xlink:href="#m94e8fa79e4" y="224.64"/>
      </g>
     </g>
     <g id="text_3">
      <!-- −5.0 -->
      <g transform="translate(86.472159 239.238437)scale(0.1 -0.1)">
       <use xlink:href="#DejaVuSans-2212"/>
       <use x="83.789062" xlink:href="#DejaVuSans-35"/>
       <use x="147.412109" xlink:href="#DejaVuSans-2e"/>
       <use x="179.199219" xlink:href="#DejaVuSans-30"/>
      </g>
     </g>
    </g>
    <g id="xtick_4">
     <g id="line2d_4">
      <g>
       <use style="stroke:#000000;stroke-width:0.8;" x="136.65902" xlink:href="#m94e8fa79e4" y="224.64"/>
      </g>
     </g>
     <g id="text_4">
      <!-- −2.5 -->
      <g transform="translate(124.517614 239.238437)scale(0.1 -0.1)">
       <defs>
        <path d="M 1228 531 
L 3431 531 
L 3431 0 
L 469 0 
L 469 531 
Q 828 903 1448 1529 
Q 2069 2156 2228 2338 
Q 2531 2678 2651 2914 
Q 2772 3150 2772 3378 
Q 2772 3750 2511 3984 
Q 2250 4219 1831 4219 
Q 1534 4219 1204 4116 
Q 875 4013 500 3803 
L 500 4441 
Q 881 4594 1212 4672 
Q 1544 4750 1819 4750 
Q 2544 4750 2975 4387 
Q 3406 4025 3406 3419 
Q 3406 3131 3298 2873 
Q 3191 2616 2906 2266 
Q 2828 2175 2409 1742 
Q 1991 1309 1228 531 
z
" id="DejaVuSans-32" transform="scale(0.015625)"/>
       </defs>
       <use xlink:href="#DejaVuSans-2212"/>
       <use x="83.789062" xlink:href="#DejaVuSans-32"/>
       <use x="147.412109" xlink:href="#DejaVuSans-2e"/>
       <use x="179.199219" xlink:href="#DejaVuSans-35"/>
      </g>
     </g>
    </g>
    <g id="xtick_5">
     <g id="line2d_5">
      <g>
       <use style="stroke:#000000;stroke-width:0.8;" x="174.704474" xlink:href="#m94e8fa79e4" y="224.64"/>
      </g>
     </g>
     <g id="text_5">
      <!-- 0.0 -->
      <g transform="translate(166.752912 239.238437)scale(0.1 -0.1)">
       <use xlink:href="#DejaVuSans-30"/>
       <use x="63.623047" xlink:href="#DejaVuSans-2e"/>
       <use x="95.410156" xlink:href="#DejaVuSans-30"/>
      </g>
     </g>
    </g>
    <g id="xtick_6">
     <g id="line2d_6">
      <g>
       <use style="stroke:#000000;stroke-width:0.8;" x="212.749929" xlink:href="#m94e8fa79e4" y="224.64"/>
      </g>
     </g>
     <g id="text_6">
      <!-- 2.5 -->
      <g transform="translate(204.798366 239.238437)scale(0.1 -0.1)">
       <use xlink:href="#DejaVuSans-32"/>
       <use x="63.623047" xlink:href="#DejaVuSans-2e"/>
       <use x="95.410156" xlink:href="#DejaVuSans-35"/>
      </g>
     </g>
    </g>
    <g id="xtick_7">
     <g id="line2d_7">
      <g>
       <use style="stroke:#000000;stroke-width:0.8;" x="250.795384" xlink:href="#m94e8fa79e4" y="224.64"/>
      </g>
     </g>
     <g id="text_7">
      <!-- 5.0 -->
      <g transform="translate(242.843821 239.238437)scale(0.1 -0.1)">
       <use xlink:href="#DejaVuSans-35"/>
       <use x="63.623047" xlink:href="#DejaVuSans-2e"/>
       <use x="95.410156" xlink:href="#DejaVuSans-30"/>
      </g>
     </g>
    </g>
    <g id="xtick_8">
     <g id="line2d_8">
      <g>
       <use style="stroke:#000000;stroke-width:0.8;" x="288.840838" xlink:href="#m94e8fa79e4" y="224.64"/>
      </g>
     </g>
     <g id="text_8">
      <!-- 7.5 -->
      <g transform="translate(280.889276 239.238437)scale(0.1 -0.1)">
       <use xlink:href="#DejaVuSans-37"/>
       <use x="63.623047" xlink:href="#DejaVuSans-2e"/>
       <use x="95.410156" xlink:href="#DejaVuSans-35"/>
      </g>
     </g>
    </g>
    <g id="xtick_9">
     <g id="line2d_9">
      <g>
       <use style="stroke:#000000;stroke-width:0.8;" x="326.886293" xlink:href="#m94e8fa79e4" y="224.64"/>
      </g>
     </g>
     <g id="text_9">
      <!-- 10.0 -->
      <g transform="translate(315.75348 239.238437)scale(0.1 -0.1)">
       <use xlink:href="#DejaVuSans-31"/>
       <use x="63.623047" xlink:href="#DejaVuSans-30"/>
       <use x="127.246094" xlink:href="#DejaVuSans-2e"/>
       <use x="159.033203" xlink:href="#DejaVuSans-30"/>
      </g>
     </g>
    </g>
    <g id="text_10">
     <!-- z -->
     <g transform="translate(172.080256 252.916562)scale(0.1 -0.1)">
      <defs>
       <path d="M 353 3500 
L 3084 3500 
L 3084 2975 
L 922 459 
L 3084 459 
L 3084 0 
L 275 0 
L 275 525 
L 2438 3041 
L 353 3041 
L 353 3500 
z
" id="DejaVuSans-7a" transform="scale(0.015625)"/>
      </defs>
      <use xlink:href="#DejaVuSans-7a"/>
     </g>
    </g>
   </g>
   <g id="matplotlib.axis_2">
    <g id="ytick_1">
     <g id="line2d_10">
      <defs>
       <path d="M 0 0 
L -3.5 0 
" id="m137b44817d" style="stroke:#000000;stroke-width:0.8;"/>
      </defs>
      <g>
       <use style="stroke:#000000;stroke-width:0.8;" x="174.704474" xlink:href="#m137b44817d" y="214.756364"/>
      </g>
     </g>
     <g id="text_11">
      <!-- 0.0 -->
      <g transform="translate(151.801349 218.555582)scale(0.1 -0.1)">
       <use xlink:href="#DejaVuSans-30"/>
       <use x="63.623047" xlink:href="#DejaVuSans-2e"/>
       <use x="95.410156" xlink:href="#DejaVuSans-30"/>
      </g>
     </g>
    </g>
    <g id="ytick_2">
     <g id="line2d_11">
      <g>
       <use style="stroke:#000000;stroke-width:0.8;" x="174.704474" xlink:href="#m137b44817d" y="115.92"/>
      </g>
     </g>
     <g id="text_12">
      <!-- 0.5 -->
      <g transform="translate(151.801349 119.719219)scale(0.1 -0.1)">
       <use xlink:href="#DejaVuSans-30"/>
       <use x="63.623047" xlink:href="#DejaVuSans-2e"/>
       <use x="95.410156" xlink:href="#DejaVuSans-35"/>
      </g>
     </g>
    </g>
    <g id="ytick_3">
     <g id="line2d_12">
      <g>
       <use style="stroke:#000000;stroke-width:0.8;" x="174.704474" xlink:href="#m137b44817d" y="17.083636"/>
      </g>
     </g>
     <g id="text_13">
      <!-- 1.0 -->
      <g transform="translate(151.801349 20.882855)scale(0.1 -0.1)">
       <use xlink:href="#DejaVuSans-31"/>
       <use x="63.623047" xlink:href="#DejaVuSans-2e"/>
       <use x="95.410156" xlink:href="#DejaVuSans-30"/>
      </g>
     </g>
    </g>
   </g>
   <g id="line2d_13">
    <path clip-path="url(#pb30e83f958)" d="M 22.522656 214.74739 
L 25.597036 214.745381 
L 28.671417 214.742922 
L 31.745797 214.739913 
L 34.820177 214.736231 
L 37.894557 214.731724 
L 40.968937 214.726209 
L 44.043317 214.71946 
L 47.117698 214.7112 
L 50.192078 214.701091 
L 53.266458 214.688722 
L 56.340838 214.673585 
L 59.415218 214.655062 
L 62.489598 214.632398 
L 65.563979 214.604667 
L 68.638359 214.570738 
L 71.712739 214.529229 
L 74.787119 214.478452 
L 77.861499 214.416342 
L 80.935879 214.34038 
L 84.01026 214.247493 
L 87.08464 214.133929 
L 90.15902 213.99512 
L 93.2334 213.8255 
L 96.30778 213.618305 
L 99.38216 213.365318 
L 102.456541 213.056579 
L 105.530921 212.68004 
L 108.605301 212.221169 
L 111.679681 211.662492 
L 114.754061 210.983079 
L 117.828441 210.157995 
L 120.902822 209.157702 
L 123.977202 207.947488 
L 127.051582 206.486935 
L 130.125962 204.729541 
L 133.200342 202.622597 
L 136.274722 200.107483 
L 139.349103 197.120584 
L 142.423483 193.595074 
L 145.497863 189.463801 
L 148.572243 184.663493 
L 151.646623 179.140365 
L 154.721003 172.856993 
L 157.795384 165.799985 
L 160.869764 157.987543 
L 163.944144 149.475651 
L 167.018524 140.36134 
L 170.092904 130.781655 
L 173.167284 120.907496 
L 176.241665 110.932504 
L 179.316045 101.058345 
L 182.390425 91.47866 
L 185.464805 82.364349 
L 188.539185 73.852457 
L 191.613565 66.040015 
L 194.687946 58.983007 
L 197.762326 52.699635 
L 200.836706 47.176507 
L 203.911086 42.376199 
L 206.985466 38.244926 
L 210.059846 34.719416 
L 213.134226 31.732517 
L 216.208607 29.217403 
L 219.282987 27.110459 
L 222.357367 25.353065 
L 225.431747 23.892512 
L 228.506127 22.682298 
L 231.580507 21.682005 
L 234.654888 20.856921 
L 237.729268 20.177508 
L 240.803648 19.618831 
L 243.878028 19.15996 
L 246.952408 18.783421 
L 250.026788 18.474682 
L 253.101169 18.221695 
L 256.175549 18.0145 
L 259.249929 17.84488 
L 262.324309 17.706071 
L 265.398689 17.592507 
L 268.473069 17.49962 
L 271.54745 17.423658 
L 274.62183 17.361548 
L 277.69621 17.310771 
L 280.77059 17.269262 
L 283.84497 17.235333 
L 286.91935 17.207602 
L 289.993731 17.184938 
L 293.068111 17.166415 
L 296.142491 17.151278 
L 299.216871 17.138909 
L 302.291251 17.1288 
L 305.365631 17.12054 
L 308.440012 17.113791 
L 311.514392 17.108276 
L 314.588772 17.103769 
L 317.663152 17.100087 
L 320.737532 17.097078 
L 323.811912 17.094619 
L 326.886293 17.09261 
" style="fill:none;stroke:#1f77b4;stroke-linecap:square;stroke-width:1.5;"/>
   </g>
   <g id="patch_3">
    <path d="M 174.704474 224.64 
L 174.704474 7.2 
" style="fill:none;stroke:#000000;stroke-linecap:square;stroke-linejoin:miter;stroke-width:0.8;"/>
   </g>
   <g id="patch_4">
    <path d="M 7.304474 224.64 
L 342.104474 224.64 
" style="fill:none;stroke:#000000;stroke-linecap:square;stroke-linejoin:miter;stroke-width:0.8;"/>
   </g>
   <g id="legend_1">
    <g id="patch_5">
     <path d="M 191.004474 219.64 
L 335.104474 219.64 
Q 337.104474 219.64 337.104474 217.64 
L 337.104474 170.84 
Q 337.104474 168.84 335.104474 168.84 
L 191.004474 168.84 
Q 189.004474 168.84 189.004474 170.84 
L 189.004474 217.64 
Q 189.004474 219.64 191.004474 219.64 
z
" style="fill:#ffffff;opacity:0.8;stroke:#cccccc;stroke-linejoin:miter;"/>
    </g>
    <g id="line2d_14">
     <path d="M 193.004474 178.04 
L 213.004474 178.04 
" style="fill:none;stroke:#1f77b4;stroke-linecap:square;stroke-width:1.5;"/>
    </g>
    <g id="line2d_15"/>
    <g id="text_14">
     <!-- $g(\theta^Tx)$ -->
     <g transform="translate(221.004474 181.54)scale(0.1 -0.1)">
      <defs>
       <path d="M 91 -916 
Q 91 -759 198 -642 
Q 306 -525 459 -525 
Q 563 -525 633 -589 
Q 703 -653 703 -756 
Q 703 -872 637 -964 
Q 572 -1056 469 -1094 
Q 641 -1147 1006 -1147 
Q 1300 -1147 1544 -920 
Q 1788 -694 1863 -397 
L 2047 353 
Q 1700 0 1325 0 
Q 1050 0 854 140 
Q 659 281 556 515 
Q 453 750 453 1013 
Q 453 1306 573 1628 
Q 694 1950 911 2225 
Q 1128 2500 1409 2664 
Q 1691 2828 2003 2828 
Q 2191 2828 2341 2725 
Q 2491 2622 2578 2450 
Q 2641 2700 2853 2700 
Q 2934 2700 2990 2651 
Q 3047 2603 3047 2522 
Q 3047 2503 3045 2493 
Q 3044 2484 3041 2472 
L 2309 -434 
Q 2259 -634 2125 -800 
Q 1991 -966 1809 -1077 
Q 1628 -1188 1412 -1250 
Q 1197 -1313 997 -1313 
Q 631 -1313 361 -1242 
Q 91 -1172 91 -916 
z
M 1338 166 
Q 1747 166 2144 728 
L 2497 2125 
Q 2453 2347 2322 2505 
Q 2191 2663 1991 2663 
Q 1778 2663 1589 2489 
Q 1400 2316 1275 2075 
Q 1156 1844 1045 1411 
Q 934 978 934 728 
Q 934 509 1034 337 
Q 1134 166 1338 166 
z
" id="Cmmi10-67" transform="scale(0.015625)"/>
       <path d="M 1984 -1588 
Q 1628 -1306 1370 -942 
Q 1113 -578 948 -165 
Q 784 247 703 697 
Q 622 1147 622 1600 
Q 622 2059 703 2509 
Q 784 2959 951 3375 
Q 1119 3791 1378 4153 
Q 1638 4516 1984 4788 
Q 1984 4800 2016 4800 
L 2075 4800 
Q 2094 4800 2109 4783 
Q 2125 4766 2125 4744 
Q 2125 4716 2113 4703 
Q 1800 4397 1592 4047 
Q 1384 3697 1257 3301 
Q 1131 2906 1075 2482 
Q 1019 2059 1019 1600 
Q 1019 -434 2106 -1491 
Q 2125 -1509 2125 -1544 
Q 2125 -1559 2108 -1579 
Q 2091 -1600 2075 -1600 
L 2016 -1600 
Q 1984 -1600 1984 -1588 
z
" id="Cmr10-28" transform="scale(0.015625)"/>
       <path d="M 1031 -72 
Q 741 -72 566 140 
Q 391 353 323 653 
Q 256 953 256 1247 
L 256 1253 
Q 256 1572 317 1915 
Q 378 2259 493 2601 
Q 609 2944 744 3213 
Q 838 3400 986 3631 
Q 1134 3863 1317 4064 
Q 1500 4266 1711 4389 
Q 1922 4513 2138 4513 
L 2144 4513 
Q 2375 4513 2529 4384 
Q 2684 4256 2770 4056 
Q 2856 3856 2890 3628 
Q 2925 3400 2925 3194 
Q 2925 2709 2794 2204 
Q 2663 1700 2431 1228 
Q 2344 1050 2189 809 
Q 2034 569 1861 378 
Q 1688 188 1472 58 
Q 1256 -72 1038 -72 
L 1031 -72 
z
M 1044 97 
Q 1256 97 1451 323 
Q 1647 550 1794 873 
Q 1941 1197 2052 1536 
Q 2163 1875 2216 2113 
L 909 2113 
Q 809 1709 753 1417 
Q 697 1125 697 844 
Q 697 97 1044 97 
z
M 959 2338 
L 2272 2338 
Q 2341 2619 2381 2808 
Q 2422 2997 2450 3206 
Q 2478 3416 2478 3597 
Q 2478 4347 2138 4347 
Q 1731 4347 1436 3692 
Q 1141 3038 959 2338 
z
" id="Cmmi10-b5" transform="scale(0.015625)"/>
       <path d="M 294 84 
Q 297 100 308 140 
Q 319 181 336 203 
Q 353 225 384 225 
Q 934 225 1113 256 
Q 1284 300 1319 441 
L 2194 3956 
Q 2222 4034 2222 4097 
Q 2222 4147 1997 4147 
L 1625 4147 
Q 1197 4147 964 4015 
Q 731 3884 622 3668 
Q 513 3453 341 2963 
Q 319 2906 275 2906 
L 219 2906 
Q 153 2906 153 2988 
L 609 4313 
Q 622 4372 672 4372 
L 4453 4372 
Q 4519 4372 4519 4288 
L 4306 2963 
Q 4306 2944 4284 2925 
Q 4263 2906 4244 2906 
L 4184 2906 
Q 4122 2906 4122 2988 
Q 4191 3441 4191 3628 
Q 4191 3853 4097 3968 
Q 4003 4084 3853 4115 
Q 3703 4147 3463 4147 
L 3084 4147 
Q 2913 4147 2853 4115 
Q 2794 4084 2753 3928 
L 1875 416 
Q 1872 403 1870 390 
Q 1869 378 1863 359 
Q 1863 278 1959 256 
Q 2125 225 2669 225 
Q 2731 225 2731 141 
Q 2709 50 2696 25 
Q 2684 0 2625 0 
L 359 0 
Q 294 0 294 84 
z
" id="Cmmi10-54" transform="scale(0.015625)"/>
       <path d="M 500 184 
Q 613 97 819 97 
Q 1019 97 1172 289 
Q 1325 481 1381 709 
L 1672 1844 
Q 1741 2153 1741 2266 
Q 1741 2425 1652 2544 
Q 1563 2663 1403 2663 
Q 1200 2663 1022 2536 
Q 844 2409 722 2214 
Q 600 2019 550 1819 
Q 538 1778 500 1778 
L 422 1778 
Q 372 1778 372 1838 
L 372 1856 
Q 434 2094 584 2320 
Q 734 2547 951 2687 
Q 1169 2828 1416 2828 
Q 1650 2828 1839 2703 
Q 2028 2578 2106 2363 
Q 2216 2559 2386 2693 
Q 2556 2828 2759 2828 
Q 2897 2828 3040 2779 
Q 3184 2731 3275 2631 
Q 3366 2531 3366 2381 
Q 3366 2219 3261 2101 
Q 3156 1984 2994 1984 
Q 2891 1984 2822 2050 
Q 2753 2116 2753 2216 
Q 2753 2350 2845 2451 
Q 2938 2553 3066 2572 
Q 2950 2663 2747 2663 
Q 2541 2663 2389 2472 
Q 2238 2281 2175 2047 
L 1894 916 
Q 1825 659 1825 494 
Q 1825 331 1917 214 
Q 2009 97 2163 97 
Q 2463 97 2698 361 
Q 2934 625 3009 941 
Q 3022 978 3059 978 
L 3138 978 
Q 3163 978 3178 961 
Q 3194 944 3194 922 
Q 3194 916 3188 903 
Q 3097 522 2806 225 
Q 2516 -72 2150 -72 
Q 1916 -72 1727 54 
Q 1538 181 1459 397 
Q 1359 209 1182 68 
Q 1006 -72 806 -72 
Q 669 -72 523 -23 
Q 378 25 287 125 
Q 197 225 197 378 
Q 197 528 301 651 
Q 406 775 563 775 
Q 669 775 741 711 
Q 813 647 813 544 
Q 813 409 723 309 
Q 634 209 500 184 
z
" id="Cmmi10-78" transform="scale(0.015625)"/>
       <path d="M 416 -1600 
Q 359 -1600 359 -1544 
Q 359 -1516 372 -1503 
Q 1466 -434 1466 1600 
Q 1466 3634 384 4691 
Q 359 4706 359 4744 
Q 359 4766 376 4783 
Q 394 4800 416 4800 
L 475 4800 
Q 494 4800 506 4788 
Q 966 4425 1272 3906 
Q 1578 3388 1720 2800 
Q 1863 2213 1863 1600 
Q 1863 1147 1786 708 
Q 1709 269 1542 -157 
Q 1375 -584 1119 -945 
Q 863 -1306 506 -1588 
Q 494 -1600 475 -1600 
L 416 -1600 
z
" id="Cmr10-29" transform="scale(0.015625)"/>
      </defs>
      <use transform="translate(0 0.917188)" xlink:href="#Cmmi10-67"/>
      <use transform="translate(47.705078 0.917188)" xlink:href="#Cmr10-28"/>
      <use transform="translate(86.523438 0.917188)" xlink:href="#Cmmi10-b5"/>
      <use transform="translate(145.279453 39.18125)scale(0.7)" xlink:href="#Cmmi10-54"/>
      <use transform="translate(192.535703 0.917188)" xlink:href="#Cmmi10-78"/>
      <use transform="translate(249.615781 0.917188)" xlink:href="#Cmr10-29"/>
     </g>
    </g>
    <g id="patch_6">
     <path d="M 193.004474 197.74 
L 213.004474 197.74 
L 213.004474 190.74 
L 193.004474 190.74 
z
" style="fill:#ff7f0e;fill-opacity:0.3;"/>
    </g>
    <g id="text_15">
     <!-- $g\left(\theta^Tx\right)&lt;0.5\quad\to\quad\theta^Tx&lt;0$ -->
     <g transform="translate(221.004474 197.74)scale(0.1 -0.1)">
      <defs>
       <path d="M 594 1491 
Q 531 1519 531 1600 
Q 531 1681 616 1722 
L 4269 3444 
Q 4294 3456 4313 3456 
Q 4369 3456 4405 3417 
Q 4441 3378 4441 3328 
Q 4441 3250 4366 3206 
L 959 1600 
L 4384 -19 
Q 4441 -38 4441 -128 
Q 4441 -178 4405 -217 
Q 4369 -256 4313 -256 
Q 4294 -256 4269 -244 
L 594 1491 
z
" id="Cmmi10-3c" transform="scale(0.015625)"/>
       <path d="M 1600 -141 
Q 816 -141 533 504 
Q 250 1150 250 2041 
Q 250 2597 351 3087 
Q 453 3578 754 3920 
Q 1056 4263 1600 4263 
Q 2022 4263 2290 4056 
Q 2559 3850 2700 3523 
Q 2841 3197 2892 2823 
Q 2944 2450 2944 2041 
Q 2944 1491 2842 1011 
Q 2741 531 2444 195 
Q 2147 -141 1600 -141 
z
M 1600 25 
Q 1956 25 2131 390 
Q 2306 756 2347 1200 
Q 2388 1644 2388 2144 
Q 2388 2625 2347 3031 
Q 2306 3438 2132 3767 
Q 1959 4097 1600 4097 
Q 1238 4097 1063 3765 
Q 888 3434 847 3029 
Q 806 2625 806 2144 
Q 806 1788 823 1472 
Q 841 1156 916 820 
Q 991 484 1158 254 
Q 1325 25 1600 25 
z
" id="Cmr10-30" transform="scale(0.015625)"/>
       <path d="M 538 353 
Q 538 497 644 600 
Q 750 703 891 703 
Q 978 703 1062 656 
Q 1147 609 1194 525 
Q 1241 441 1241 353 
Q 1241 213 1137 106 
Q 1034 0 891 0 
Q 750 0 644 106 
Q 538 213 538 353 
z
" id="Cmmi10-3a" transform="scale(0.015625)"/>
       <path d="M 556 728 
Q 622 541 758 387 
Q 894 234 1080 148 
Q 1266 63 1466 63 
Q 1928 63 2103 422 
Q 2278 781 2278 1294 
Q 2278 1516 2270 1667 
Q 2263 1819 2228 1959 
Q 2169 2184 2020 2353 
Q 1872 2522 1656 2522 
Q 1441 2522 1286 2456 
Q 1131 2391 1034 2303 
Q 938 2216 863 2119 
Q 788 2022 769 2016 
L 697 2016 
Q 681 2016 657 2036 
Q 634 2056 634 2075 
L 634 4213 
Q 634 4228 654 4245 
Q 675 4263 697 4263 
L 716 4263 
Q 1147 4056 1631 4056 
Q 2106 4056 2547 4263 
L 2566 4263 
Q 2588 4263 2606 4247 
Q 2625 4231 2625 4213 
L 2625 4153 
Q 2625 4122 2613 4122 
Q 2394 3831 2064 3668 
Q 1734 3506 1381 3506 
Q 1125 3506 856 3578 
L 856 2369 
Q 1069 2541 1236 2614 
Q 1403 2688 1663 2688 
Q 2016 2688 2295 2484 
Q 2575 2281 2725 1954 
Q 2875 1628 2875 1288 
Q 2875 903 2686 575 
Q 2497 247 2172 53 
Q 1847 -141 1466 -141 
Q 1150 -141 886 21 
Q 622 184 470 459 
Q 319 734 319 1044 
Q 319 1188 412 1278 
Q 506 1369 647 1369 
Q 788 1369 883 1276 
Q 978 1184 978 1044 
Q 978 906 883 811 
Q 788 716 647 716 
Q 625 716 597 720 
Q 569 725 556 728 
z
" id="Cmr10-35" transform="scale(0.015625)"/>
       <path d="M 481 1472 
Q 428 1472 393 1512 
Q 359 1553 359 1600 
Q 359 1647 393 1687 
Q 428 1728 481 1728 
L 5338 1728 
Q 5094 1903 4906 2133 
Q 4719 2363 4594 2627 
Q 4469 2891 4416 3188 
Q 4416 3272 4481 3272 
L 4609 3272 
Q 4631 3272 4648 3253 
Q 4666 3234 4672 3213 
Q 4725 2938 4839 2702 
Q 4953 2466 5125 2262 
Q 5297 2059 5509 1912 
Q 5722 1766 5991 1672 
Q 6034 1644 6034 1600 
Q 6034 1550 5991 1538 
Q 5656 1422 5378 1192 
Q 5100 963 4919 652 
Q 4738 341 4672 -13 
Q 4666 -34 4647 -53 
Q 4628 -72 4609 -72 
L 4481 -72 
Q 4416 -72 4416 13 
Q 4497 450 4740 836 
Q 4984 1222 5338 1472 
L 481 1472 
z
" id="Cmsy10-21" transform="scale(0.015625)"/>
      </defs>
      <use transform="translate(0 0.917188)" xlink:href="#Cmmi10-67"/>
      <use transform="translate(47.705078 21.589063)scale(0.872078)" xlink:href="#Cmr10-28"/>
      <use transform="translate(81.555893 0.917188)" xlink:href="#Cmmi10-b5"/>
      <use transform="translate(140.311909 39.18125)scale(0.7)" xlink:href="#Cmmi10-54"/>
      <use transform="translate(187.568159 0.917188)" xlink:href="#Cmmi10-78"/>
      <use transform="translate(244.648237 21.589063)scale(0.872078)" xlink:href="#Cmr10-29"/>
      <use transform="translate(296.057645 0.917188)" xlink:href="#Cmmi10-3c"/>
      <use transform="translate(391.301786 0.917188)" xlink:href="#Cmr10-30"/>
      <use transform="translate(441.301786 0.917188)" xlink:href="#Cmmi10-3a"/>
      <use transform="translate(468.987333 0.917188)" xlink:href="#Cmr10-35"/>
      <use transform="translate(606.780302 0.917188)" xlink:href="#Cmsy10-21"/>
      <use transform="translate(794.57327 0.917188)" xlink:href="#Cmmi10-b5"/>
      <use transform="translate(853.329286 39.18125)scale(0.7)" xlink:href="#Cmmi10-54"/>
      <use transform="translate(900.585536 0.917188)" xlink:href="#Cmmi10-78"/>
      <use transform="translate(975.224208 0.917188)" xlink:href="#Cmmi10-3c"/>
      <use transform="translate(1070.468348 0.917188)" xlink:href="#Cmr10-30"/>
     </g>
    </g>
    <g id="patch_7">
     <path d="M 193.004474 213.54 
L 213.004474 213.54 
L 213.004474 206.54 
L 193.004474 206.54 
z
" style="fill:#2ca02c;fill-opacity:0.3;"/>
    </g>
    <g id="text_16">
     <!-- $g\left(\theta^Tx\right)\geq0.5\quad\to\quad\theta^Tx\geq0$ -->
     <g transform="translate(221.004474 213.54)scale(0.1 -0.1)">
      <defs>
       <path d="M 653 -878 
Q 600 -878 565 -837 
Q 531 -797 531 -750 
Q 531 -697 565 -659 
Q 600 -622 653 -622 
L 4325 -622 
Q 4375 -622 4408 -659 
Q 4441 -697 4441 -750 
Q 4441 -797 4408 -837 
Q 4375 -878 4325 -878 
L 653 -878 
z
M 531 494 
Q 531 572 616 616 
L 4013 2222 
L 594 3834 
Q 531 3863 531 3944 
Q 531 3991 568 4031 
Q 606 4072 659 4072 
Q 691 4072 709 4063 
L 4384 2328 
Q 4441 2300 4441 2222 
Q 4441 2144 4366 2100 
L 709 378 
Q 691 366 659 366 
Q 606 366 568 403 
Q 531 441 531 494 
z
" id="Cmsy10-b8" transform="scale(0.015625)"/>
      </defs>
      <use transform="translate(0 0.917188)" xlink:href="#Cmmi10-67"/>
      <use transform="translate(47.705078 21.589063)scale(0.872078)" xlink:href="#Cmr10-28"/>
      <use transform="translate(81.555893 0.917188)" xlink:href="#Cmmi10-b5"/>
      <use transform="translate(140.311909 39.18125)scale(0.7)" xlink:href="#Cmmi10-54"/>
      <use transform="translate(187.568159 0.917188)" xlink:href="#Cmmi10-78"/>
      <use transform="translate(244.648237 21.589063)scale(0.872078)" xlink:href="#Cmr10-29"/>
      <use transform="translate(296.057645 0.917188)" xlink:href="#Cmsy10-b8"/>
      <use transform="translate(391.301786 0.917188)" xlink:href="#Cmr10-30"/>
      <use transform="translate(441.301786 0.917188)" xlink:href="#Cmmi10-3a"/>
      <use transform="translate(468.987333 0.917188)" xlink:href="#Cmr10-35"/>
      <use transform="translate(606.780302 0.917188)" xlink:href="#Cmsy10-21"/>
      <use transform="translate(794.57327 0.917188)" xlink:href="#Cmmi10-b5"/>
      <use transform="translate(853.329286 39.18125)scale(0.7)" xlink:href="#Cmmi10-54"/>
      <use transform="translate(900.585536 0.917188)" xlink:href="#Cmmi10-78"/>
      <use transform="translate(975.224208 0.917188)" xlink:href="#Cmsy10-b8"/>
      <use transform="translate(1070.468348 0.917188)" xlink:href="#Cmr10-30"/>
     </g>
    </g>
   </g>
  </g>
 </g>
 <defs>
  <clipPath id="pb30e83f958">
   <rect height="217.44" width="334.8" x="7.304474" y="7.2"/>
  </clipPath>
 </defs>
</svg>
