<?xml version="1.0" encoding="utf-8" standalone="no"?>
<!DOCTYPE svg PUBLIC "-//W3C//DTD SVG 1.1//EN"
  "http://www.w3.org/Graphics/SVG/1.1/DTD/svg11.dtd">
<svg height="245.1925pt" version="1.1" viewBox="0 0 457.795891 245.1925" width="457.795891pt" xmlns="http://www.w3.org/2000/svg" xmlns:xlink="http://www.w3.org/1999/xlink">
 <metadata>
  <rdf:RDF xmlns:cc="http://creativecommons.org/ns#" xmlns:dc="http://purl.org/dc/elements/1.1/" xmlns:rdf="http://www.w3.org/1999/02/22-rdf-syntax-ns#">
   <cc:Work>
    <dc:type rdf:resource="http://purl.org/dc/dcmitype/StillImage"/>
    <dc:date>2021-09-27T21:35:27.624220</dc:date>
    <dc:format>image/svg+xml</dc:format>
    <dc:creator>
     <cc:Agent>
      <dc:title>Matplotlib v3.4.3, https://matplotlib.org/</dc:title>
     </cc:Agent>
    </dc:creator>
   </cc:Work>
  </rdf:RDF>
 </metadata>
 <defs>
  <style type="text/css">*{stroke-linecap:butt;stroke-linejoin:round;}</style>
 </defs>
 <g id="figure_1">
  <g id="patch_1">
   <path d="M 0 245.1925 
L 457.795891 245.1925 
L 457.795891 0 
L 0 0 
z
" style="fill:none;"/>
  </g>
  <g id="axes_1">
   <g id="patch_2">
    <path d="M 34.240625 207.63625 
L 197.320625 207.63625 
L 197.320625 44.55625 
L 34.240625 44.55625 
z
" style="fill:#ffffff;"/>
   </g>
   <g id="matplotlib.axis_1">
    <g id="xtick_1">
     <g id="line2d_1">
      <defs>
       <path d="M 0 0 
L 0 3.5 
" id="mdea943eee8" style="stroke:#000000;stroke-width:0.8;"/>
      </defs>
      <g>
       <use style="stroke:#000000;stroke-width:0.8;" x="41.653352" xlink:href="#mdea943eee8" y="207.63625"/>
      </g>
     </g>
     <g id="text_1">
      <!-- 0 -->
      <g transform="translate(38.472102 222.234688)scale(0.1 -0.1)">
       <defs>
        <path d="M 2034 4250 
Q 1547 4250 1301 3770 
Q 1056 3291 1056 2328 
Q 1056 1369 1301 889 
Q 1547 409 2034 409 
Q 2525 409 2770 889 
Q 3016 1369 3016 2328 
Q 3016 3291 2770 3770 
Q 2525 4250 2034 4250 
z
M 2034 4750 
Q 2819 4750 3233 4129 
Q 3647 3509 3647 2328 
Q 3647 1150 3233 529 
Q 2819 -91 2034 -91 
Q 1250 -91 836 529 
Q 422 1150 422 2328 
Q 422 3509 836 4129 
Q 1250 4750 2034 4750 
z
" id="DejaVuSans-30" transform="scale(0.015625)"/>
       </defs>
       <use xlink:href="#DejaVuSans-30"/>
      </g>
     </g>
    </g>
    <g id="xtick_2">
     <g id="line2d_2">
      <g>
       <use style="stroke:#000000;stroke-width:0.8;" x="189.907898" xlink:href="#mdea943eee8" y="207.63625"/>
      </g>
     </g>
     <g id="text_2">
      <!-- 1 -->
      <g transform="translate(186.726648 222.234688)scale(0.1 -0.1)">
       <defs>
        <path d="M 794 531 
L 1825 531 
L 1825 4091 
L 703 3866 
L 703 4441 
L 1819 4666 
L 2450 4666 
L 2450 531 
L 3481 531 
L 3481 0 
L 794 0 
L 794 531 
z
" id="DejaVuSans-31" transform="scale(0.015625)"/>
       </defs>
       <use xlink:href="#DejaVuSans-31"/>
      </g>
     </g>
    </g>
    <g id="text_3">
     <!-- $x_1$ -->
     <g transform="translate(110.830625 235.912813)scale(0.1 -0.1)">
      <defs>
       <path d="M 500 184 
Q 613 97 819 97 
Q 1019 97 1172 289 
Q 1325 481 1381 709 
L 1672 1844 
Q 1741 2153 1741 2266 
Q 1741 2425 1652 2544 
Q 1563 2663 1403 2663 
Q 1200 2663 1022 2536 
Q 844 2409 722 2214 
Q 600 2019 550 1819 
Q 538 1778 500 1778 
L 422 1778 
Q 372 1778 372 1838 
L 372 1856 
Q 434 2094 584 2320 
Q 734 2547 951 2687 
Q 1169 2828 1416 2828 
Q 1650 2828 1839 2703 
Q 2028 2578 2106 2363 
Q 2216 2559 2386 2693 
Q 2556 2828 2759 2828 
Q 2897 2828 3040 2779 
Q 3184 2731 3275 2631 
Q 3366 2531 3366 2381 
Q 3366 2219 3261 2101 
Q 3156 1984 2994 1984 
Q 2891 1984 2822 2050 
Q 2753 2116 2753 2216 
Q 2753 2350 2845 2451 
Q 2938 2553 3066 2572 
Q 2950 2663 2747 2663 
Q 2541 2663 2389 2472 
Q 2238 2281 2175 2047 
L 1894 916 
Q 1825 659 1825 494 
Q 1825 331 1917 214 
Q 2009 97 2163 97 
Q 2463 97 2698 361 
Q 2934 625 3009 941 
Q 3022 978 3059 978 
L 3138 978 
Q 3163 978 3178 961 
Q 3194 944 3194 922 
Q 3194 916 3188 903 
Q 3097 522 2806 225 
Q 2516 -72 2150 -72 
Q 1916 -72 1727 54 
Q 1538 181 1459 397 
Q 1359 209 1182 68 
Q 1006 -72 806 -72 
Q 669 -72 523 -23 
Q 378 25 287 125 
Q 197 225 197 378 
Q 197 528 301 651 
Q 406 775 563 775 
Q 669 775 741 711 
Q 813 647 813 544 
Q 813 409 723 309 
Q 634 209 500 184 
z
" id="Cmmi10-78" transform="scale(0.015625)"/>
       <path d="M 594 0 
L 594 225 
Q 1394 225 1394 428 
L 1394 3788 
Q 1063 3628 556 3628 
L 556 3853 
Q 1341 3853 1741 4263 
L 1831 4263 
Q 1853 4263 1873 4245 
Q 1894 4228 1894 4206 
L 1894 428 
Q 1894 225 2694 225 
L 2694 0 
L 594 0 
z
" id="Cmr10-31" transform="scale(0.015625)"/>
      </defs>
      <use transform="translate(0 0.8125)" xlink:href="#Cmmi10-78"/>
      <use transform="translate(57.080078 -16.19375)scale(0.7)" xlink:href="#Cmr10-31"/>
     </g>
    </g>
   </g>
   <g id="matplotlib.axis_2">
    <g id="ytick_1">
     <g id="line2d_3">
      <defs>
       <path d="M 0 0 
L -3.5 0 
" id="m55a188fcc0" style="stroke:#000000;stroke-width:0.8;"/>
      </defs>
      <g>
       <use style="stroke:#000000;stroke-width:0.8;" x="34.240625" xlink:href="#m55a188fcc0" y="200.223523"/>
      </g>
     </g>
     <g id="text_4">
      <!-- 0 -->
      <g transform="translate(20.878125 204.022741)scale(0.1 -0.1)">
       <use xlink:href="#DejaVuSans-30"/>
      </g>
     </g>
    </g>
    <g id="ytick_2">
     <g id="line2d_4">
      <g>
       <use style="stroke:#000000;stroke-width:0.8;" x="34.240625" xlink:href="#m55a188fcc0" y="51.968977"/>
      </g>
     </g>
     <g id="text_5">
      <!-- 1 -->
      <g transform="translate(20.878125 55.768196)scale(0.1 -0.1)">
       <use xlink:href="#DejaVuSans-31"/>
      </g>
     </g>
    </g>
    <g id="text_6">
     <!-- $x_2$ -->
     <g transform="translate(14.798438 131.04625)rotate(-90)scale(0.1 -0.1)">
      <defs>
       <path d="M 319 0 
L 319 172 
Q 319 188 331 206 
L 1325 1306 
Q 1550 1550 1690 1715 
Q 1831 1881 1968 2097 
Q 2106 2313 2186 2536 
Q 2266 2759 2266 3009 
Q 2266 3272 2169 3511 
Q 2072 3750 1880 3894 
Q 1688 4038 1416 4038 
Q 1138 4038 916 3870 
Q 694 3703 603 3438 
Q 628 3444 672 3444 
Q 816 3444 917 3347 
Q 1019 3250 1019 3097 
Q 1019 2950 917 2848 
Q 816 2747 672 2747 
Q 522 2747 420 2851 
Q 319 2956 319 3097 
Q 319 3338 409 3548 
Q 500 3759 670 3923 
Q 841 4088 1055 4175 
Q 1269 4263 1509 4263 
Q 1875 4263 2190 4108 
Q 2506 3953 2690 3670 
Q 2875 3388 2875 3009 
Q 2875 2731 2753 2481 
Q 2631 2231 2440 2026 
Q 2250 1822 1953 1562 
Q 1656 1303 1563 1216 
L 838 519 
L 1453 519 
Q 1906 519 2211 526 
Q 2516 534 2534 550 
Q 2609 631 2688 1141 
L 2875 1141 
L 2694 0 
L 319 0 
z
" id="Cmr10-32" transform="scale(0.015625)"/>
      </defs>
      <use transform="translate(0 0.8125)" xlink:href="#Cmmi10-78"/>
      <use transform="translate(57.080078 -16.19375)scale(0.7)" xlink:href="#Cmr10-32"/>
     </g>
    </g>
   </g>
   <g id="line2d_5">
    <defs>
     <path d="M -3 3 
L 3 -3 
M -3 -3 
L 3 3 
" id="m5c726985d1" style="stroke:#d62728;"/>
    </defs>
    <g clip-path="url(#p67294ae631)">
     <use style="fill:#d62728;stroke:#d62728;" x="41.653352" xlink:href="#m5c726985d1" y="200.223523"/>
     <use style="fill:#d62728;stroke:#d62728;" x="189.907898" xlink:href="#m5c726985d1" y="51.968977"/>
    </g>
   </g>
   <g id="line2d_6">
    <defs>
     <path d="M 0 3 
C 0.795609 3 1.55874 2.683901 2.12132 2.12132 
C 2.683901 1.55874 3 0.795609 3 0 
C 3 -0.795609 2.683901 -1.55874 2.12132 -2.12132 
C 1.55874 -2.683901 0.795609 -3 0 -3 
C -0.795609 -3 -1.55874 -2.683901 -2.12132 -2.12132 
C -2.683901 -1.55874 -3 -0.795609 -3 0 
C -3 0.795609 -2.683901 1.55874 -2.12132 2.12132 
C -1.55874 2.683901 -0.795609 3 0 3 
z
" id="m57124d27be" style="stroke:#1f77b4;"/>
    </defs>
    <g clip-path="url(#p67294ae631)">
     <use style="fill:#1f77b4;stroke:#1f77b4;" x="41.653352" xlink:href="#m57124d27be" y="51.968977"/>
     <use style="fill:#1f77b4;stroke:#1f77b4;" x="189.907898" xlink:href="#m57124d27be" y="200.223523"/>
    </g>
   </g>
   <g id="patch_3">
    <path d="M 34.240625 207.63625 
L 34.240625 44.55625 
" style="fill:none;stroke:#000000;stroke-linecap:square;stroke-linejoin:miter;stroke-width:0.8;"/>
   </g>
   <g id="patch_4">
    <path d="M 197.320625 207.63625 
L 197.320625 44.55625 
" style="fill:none;stroke:#000000;stroke-linecap:square;stroke-linejoin:miter;stroke-width:0.8;"/>
   </g>
   <g id="patch_5">
    <path d="M 34.240625 207.63625 
L 197.320625 207.63625 
" style="fill:none;stroke:#000000;stroke-linecap:square;stroke-linejoin:miter;stroke-width:0.8;"/>
   </g>
   <g id="patch_6">
    <path d="M 34.240625 44.55625 
L 197.320625 44.55625 
" style="fill:none;stroke:#000000;stroke-linecap:square;stroke-linejoin:miter;stroke-width:0.8;"/>
   </g>
   <g id="text_7">
    <!-- A -->
    <g transform="translate(26.086625 41.22875)scale(0.16 -0.16)">
     <defs>
      <path d="M 2188 4044 
L 1331 1722 
L 3047 1722 
L 2188 4044 
z
M 1831 4666 
L 2547 4666 
L 4325 0 
L 3669 0 
L 3244 1197 
L 1141 1197 
L 716 0 
L 50 0 
L 1831 4666 
z
" id="DejaVuSans-41" transform="scale(0.015625)"/>
     </defs>
     <use xlink:href="#DejaVuSans-41"/>
    </g>
   </g>
   <g id="legend_1">
    <g id="patch_7">
     <path d="M 41.240625 39.55625 
L 116.978125 39.55625 
Q 118.978125 39.55625 118.978125 37.55625 
L 118.978125 9.2 
Q 118.978125 7.2 116.978125 7.2 
L 41.240625 7.2 
Q 39.240625 7.2 39.240625 9.2 
L 39.240625 37.55625 
Q 39.240625 39.55625 41.240625 39.55625 
z
" style="fill:#ffffff;opacity:0.8;stroke:#cccccc;stroke-linejoin:miter;"/>
    </g>
    <g id="line2d_7"/>
    <g id="line2d_8">
     <g>
      <use style="fill:#d62728;stroke:#d62728;" x="53.240625" xlink:href="#m5c726985d1" y="15.298437"/>
     </g>
    </g>
    <g id="text_8">
     <!-- positive -->
     <g transform="translate(71.240625 18.798437)scale(0.1 -0.1)">
      <defs>
       <path d="M 1159 525 
L 1159 -1331 
L 581 -1331 
L 581 3500 
L 1159 3500 
L 1159 2969 
Q 1341 3281 1617 3432 
Q 1894 3584 2278 3584 
Q 2916 3584 3314 3078 
Q 3713 2572 3713 1747 
Q 3713 922 3314 415 
Q 2916 -91 2278 -91 
Q 1894 -91 1617 61 
Q 1341 213 1159 525 
z
M 3116 1747 
Q 3116 2381 2855 2742 
Q 2594 3103 2138 3103 
Q 1681 3103 1420 2742 
Q 1159 2381 1159 1747 
Q 1159 1113 1420 752 
Q 1681 391 2138 391 
Q 2594 391 2855 752 
Q 3116 1113 3116 1747 
z
" id="DejaVuSans-70" transform="scale(0.015625)"/>
       <path d="M 1959 3097 
Q 1497 3097 1228 2736 
Q 959 2375 959 1747 
Q 959 1119 1226 758 
Q 1494 397 1959 397 
Q 2419 397 2687 759 
Q 2956 1122 2956 1747 
Q 2956 2369 2687 2733 
Q 2419 3097 1959 3097 
z
M 1959 3584 
Q 2709 3584 3137 3096 
Q 3566 2609 3566 1747 
Q 3566 888 3137 398 
Q 2709 -91 1959 -91 
Q 1206 -91 779 398 
Q 353 888 353 1747 
Q 353 2609 779 3096 
Q 1206 3584 1959 3584 
z
" id="DejaVuSans-6f" transform="scale(0.015625)"/>
       <path d="M 2834 3397 
L 2834 2853 
Q 2591 2978 2328 3040 
Q 2066 3103 1784 3103 
Q 1356 3103 1142 2972 
Q 928 2841 928 2578 
Q 928 2378 1081 2264 
Q 1234 2150 1697 2047 
L 1894 2003 
Q 2506 1872 2764 1633 
Q 3022 1394 3022 966 
Q 3022 478 2636 193 
Q 2250 -91 1575 -91 
Q 1294 -91 989 -36 
Q 684 19 347 128 
L 347 722 
Q 666 556 975 473 
Q 1284 391 1588 391 
Q 1994 391 2212 530 
Q 2431 669 2431 922 
Q 2431 1156 2273 1281 
Q 2116 1406 1581 1522 
L 1381 1569 
Q 847 1681 609 1914 
Q 372 2147 372 2553 
Q 372 3047 722 3315 
Q 1072 3584 1716 3584 
Q 2034 3584 2315 3537 
Q 2597 3491 2834 3397 
z
" id="DejaVuSans-73" transform="scale(0.015625)"/>
       <path d="M 603 3500 
L 1178 3500 
L 1178 0 
L 603 0 
L 603 3500 
z
M 603 4863 
L 1178 4863 
L 1178 4134 
L 603 4134 
L 603 4863 
z
" id="DejaVuSans-69" transform="scale(0.015625)"/>
       <path d="M 1172 4494 
L 1172 3500 
L 2356 3500 
L 2356 3053 
L 1172 3053 
L 1172 1153 
Q 1172 725 1289 603 
Q 1406 481 1766 481 
L 2356 481 
L 2356 0 
L 1766 0 
Q 1100 0 847 248 
Q 594 497 594 1153 
L 594 3053 
L 172 3053 
L 172 3500 
L 594 3500 
L 594 4494 
L 1172 4494 
z
" id="DejaVuSans-74" transform="scale(0.015625)"/>
       <path d="M 191 3500 
L 800 3500 
L 1894 563 
L 2988 3500 
L 3597 3500 
L 2284 0 
L 1503 0 
L 191 3500 
z
" id="DejaVuSans-76" transform="scale(0.015625)"/>
       <path d="M 3597 1894 
L 3597 1613 
L 953 1613 
Q 991 1019 1311 708 
Q 1631 397 2203 397 
Q 2534 397 2845 478 
Q 3156 559 3463 722 
L 3463 178 
Q 3153 47 2828 -22 
Q 2503 -91 2169 -91 
Q 1331 -91 842 396 
Q 353 884 353 1716 
Q 353 2575 817 3079 
Q 1281 3584 2069 3584 
Q 2775 3584 3186 3129 
Q 3597 2675 3597 1894 
z
M 3022 2063 
Q 3016 2534 2758 2815 
Q 2500 3097 2075 3097 
Q 1594 3097 1305 2825 
Q 1016 2553 972 2059 
L 3022 2063 
z
" id="DejaVuSans-65" transform="scale(0.015625)"/>
      </defs>
      <use xlink:href="#DejaVuSans-70"/>
      <use x="63.476562" xlink:href="#DejaVuSans-6f"/>
      <use x="124.658203" xlink:href="#DejaVuSans-73"/>
      <use x="176.757812" xlink:href="#DejaVuSans-69"/>
      <use x="204.541016" xlink:href="#DejaVuSans-74"/>
      <use x="243.75" xlink:href="#DejaVuSans-69"/>
      <use x="271.533203" xlink:href="#DejaVuSans-76"/>
      <use x="330.712891" xlink:href="#DejaVuSans-65"/>
     </g>
    </g>
    <g id="line2d_9"/>
    <g id="line2d_10">
     <g>
      <use style="fill:#1f77b4;stroke:#1f77b4;" x="53.240625" xlink:href="#m57124d27be" y="29.976562"/>
     </g>
    </g>
    <g id="text_9">
     <!-- negative -->
     <g transform="translate(71.240625 33.476562)scale(0.1 -0.1)">
      <defs>
       <path d="M 3513 2113 
L 3513 0 
L 2938 0 
L 2938 2094 
Q 2938 2591 2744 2837 
Q 2550 3084 2163 3084 
Q 1697 3084 1428 2787 
Q 1159 2491 1159 1978 
L 1159 0 
L 581 0 
L 581 3500 
L 1159 3500 
L 1159 2956 
Q 1366 3272 1645 3428 
Q 1925 3584 2291 3584 
Q 2894 3584 3203 3211 
Q 3513 2838 3513 2113 
z
" id="DejaVuSans-6e" transform="scale(0.015625)"/>
       <path d="M 2906 1791 
Q 2906 2416 2648 2759 
Q 2391 3103 1925 3103 
Q 1463 3103 1205 2759 
Q 947 2416 947 1791 
Q 947 1169 1205 825 
Q 1463 481 1925 481 
Q 2391 481 2648 825 
Q 2906 1169 2906 1791 
z
M 3481 434 
Q 3481 -459 3084 -895 
Q 2688 -1331 1869 -1331 
Q 1566 -1331 1297 -1286 
Q 1028 -1241 775 -1147 
L 775 -588 
Q 1028 -725 1275 -790 
Q 1522 -856 1778 -856 
Q 2344 -856 2625 -561 
Q 2906 -266 2906 331 
L 2906 616 
Q 2728 306 2450 153 
Q 2172 0 1784 0 
Q 1141 0 747 490 
Q 353 981 353 1791 
Q 353 2603 747 3093 
Q 1141 3584 1784 3584 
Q 2172 3584 2450 3431 
Q 2728 3278 2906 2969 
L 2906 3500 
L 3481 3500 
L 3481 434 
z
" id="DejaVuSans-67" transform="scale(0.015625)"/>
       <path d="M 2194 1759 
Q 1497 1759 1228 1600 
Q 959 1441 959 1056 
Q 959 750 1161 570 
Q 1363 391 1709 391 
Q 2188 391 2477 730 
Q 2766 1069 2766 1631 
L 2766 1759 
L 2194 1759 
z
M 3341 1997 
L 3341 0 
L 2766 0 
L 2766 531 
Q 2569 213 2275 61 
Q 1981 -91 1556 -91 
Q 1019 -91 701 211 
Q 384 513 384 1019 
Q 384 1609 779 1909 
Q 1175 2209 1959 2209 
L 2766 2209 
L 2766 2266 
Q 2766 2663 2505 2880 
Q 2244 3097 1772 3097 
Q 1472 3097 1187 3025 
Q 903 2953 641 2809 
L 641 3341 
Q 956 3463 1253 3523 
Q 1550 3584 1831 3584 
Q 2591 3584 2966 3190 
Q 3341 2797 3341 1997 
z
" id="DejaVuSans-61" transform="scale(0.015625)"/>
      </defs>
      <use xlink:href="#DejaVuSans-6e"/>
      <use x="63.378906" xlink:href="#DejaVuSans-65"/>
      <use x="124.902344" xlink:href="#DejaVuSans-67"/>
      <use x="188.378906" xlink:href="#DejaVuSans-61"/>
      <use x="249.658203" xlink:href="#DejaVuSans-74"/>
      <use x="288.867188" xlink:href="#DejaVuSans-69"/>
      <use x="316.650391" xlink:href="#DejaVuSans-76"/>
      <use x="375.830078" xlink:href="#DejaVuSans-65"/>
     </g>
    </g>
   </g>
  </g>
  <g id="axes_2">
   <g id="patch_8">
    <path d="M 267.947177 207.63625 
L 450.595891 207.63625 
L 450.595891 44.55625 
L 267.947177 44.55625 
z
" style="fill:#ffffff;"/>
   </g>
   <g id="matplotlib.axis_3">
    <g id="xtick_3">
     <g id="line2d_11">
      <g>
       <use style="stroke:#000000;stroke-width:0.8;" x="317.690657" xlink:href="#mdea943eee8" y="207.63625"/>
      </g>
     </g>
     <g id="text_10">
      <!-- 0 -->
      <g transform="translate(314.509407 222.234688)scale(0.1 -0.1)">
       <use xlink:href="#DejaVuSans-30"/>
      </g>
     </g>
    </g>
    <g id="xtick_4">
     <g id="line2d_12">
      <g>
       <use style="stroke:#000000;stroke-width:0.8;" x="400.852411" xlink:href="#mdea943eee8" y="207.63625"/>
      </g>
     </g>
     <g id="text_11">
      <!-- 1 -->
      <g transform="translate(397.671161 222.234688)scale(0.1 -0.1)">
       <use xlink:href="#DejaVuSans-31"/>
      </g>
     </g>
    </g>
    <g id="text_12">
     <!-- $x_1$ -->
     <g transform="translate(354.321534 235.912813)scale(0.1 -0.1)">
      <use transform="translate(0 0.8125)" xlink:href="#Cmmi10-78"/>
      <use transform="translate(57.080078 -16.19375)scale(0.7)" xlink:href="#Cmr10-31"/>
     </g>
    </g>
   </g>
   <g id="matplotlib.axis_4">
    <g id="ytick_3">
     <g id="line2d_13">
      <g>
       <use style="stroke:#000000;stroke-width:0.8;" x="267.947177" xlink:href="#m55a188fcc0" y="167.677127"/>
      </g>
     </g>
     <g id="text_13">
      <!-- 0 -->
      <g transform="translate(254.584677 171.476346)scale(0.1 -0.1)">
       <use xlink:href="#DejaVuSans-30"/>
      </g>
     </g>
    </g>
    <g id="ytick_4">
     <g id="line2d_14">
      <g>
       <use style="stroke:#000000;stroke-width:0.8;" x="267.947177" xlink:href="#m55a188fcc0" y="84.515373"/>
      </g>
     </g>
     <g id="text_14">
      <!-- 1 -->
      <g transform="translate(254.584677 88.314592)scale(0.1 -0.1)">
       <use xlink:href="#DejaVuSans-31"/>
      </g>
     </g>
    </g>
    <g id="text_15">
     <!-- $x_2$ -->
     <g transform="translate(248.50499 131.04625)rotate(-90)scale(0.1 -0.1)">
      <use transform="translate(0 0.8125)" xlink:href="#Cmmi10-78"/>
      <use transform="translate(57.080078 -16.19375)scale(0.7)" xlink:href="#Cmr10-32"/>
     </g>
    </g>
   </g>
   <g id="line2d_15">
    <g clip-path="url(#p8df8b3654e)">
     <use style="fill:#d62728;stroke:#d62728;" x="299.063028" xlink:href="#m5c726985d1" y="169.429441"/>
     <use style="fill:#d62728;stroke:#d62728;" x="347.831399" xlink:href="#m5c726985d1" y="200.223523"/>
     <use style="fill:#d62728;stroke:#d62728;" x="314.5231" xlink:href="#m5c726985d1" y="151.177981"/>
     <use style="fill:#d62728;stroke:#d62728;" x="307.990461" xlink:href="#m5c726985d1" y="175.907226"/>
     <use style="fill:#d62728;stroke:#d62728;" x="359.131923" xlink:href="#m5c726985d1" y="186.213797"/>
     <use style="fill:#d62728;stroke:#d62728;" x="419.48004" xlink:href="#m5c726985d1" y="82.763059"/>
     <use style="fill:#d62728;stroke:#d62728;" x="370.711669" xlink:href="#m5c726985d1" y="51.968977"/>
     <use style="fill:#d62728;stroke:#d62728;" x="404.019969" xlink:href="#m5c726985d1" y="101.014519"/>
     <use style="fill:#d62728;stroke:#d62728;" x="410.552607" xlink:href="#m5c726985d1" y="76.285274"/>
     <use style="fill:#d62728;stroke:#d62728;" x="359.411145" xlink:href="#m5c726985d1" y="65.978703"/>
    </g>
   </g>
   <g id="line2d_16">
    <g clip-path="url(#p8df8b3654e)">
     <use style="fill:#1f77b4;stroke:#1f77b4;" x="276.249391" xlink:href="#m57124d27be" y="65.978703"/>
     <use style="fill:#1f77b4;stroke:#1f77b4;" x="327.390853" xlink:href="#m57124d27be" y="76.285274"/>
     <use style="fill:#1f77b4;stroke:#1f77b4;" x="320.858215" xlink:href="#m57124d27be" y="101.014519"/>
     <use style="fill:#1f77b4;stroke:#1f77b4;" x="287.549915" xlink:href="#m57124d27be" y="51.968977"/>
     <use style="fill:#1f77b4;stroke:#1f77b4;" x="336.318286" xlink:href="#m57124d27be" y="82.763059"/>
     <use style="fill:#1f77b4;stroke:#1f77b4;" x="442.293677" xlink:href="#m57124d27be" y="186.213797"/>
     <use style="fill:#1f77b4;stroke:#1f77b4;" x="391.152215" xlink:href="#m57124d27be" y="175.907226"/>
     <use style="fill:#1f77b4;stroke:#1f77b4;" x="397.684854" xlink:href="#m57124d27be" y="151.177981"/>
     <use style="fill:#1f77b4;stroke:#1f77b4;" x="430.993153" xlink:href="#m57124d27be" y="200.223523"/>
     <use style="fill:#1f77b4;stroke:#1f77b4;" x="382.224782" xlink:href="#m57124d27be" y="169.429441"/>
    </g>
   </g>
   <g id="patch_9">
    <path d="M 267.947177 207.63625 
L 267.947177 44.55625 
" style="fill:none;stroke:#000000;stroke-linecap:square;stroke-linejoin:miter;stroke-width:0.8;"/>
   </g>
   <g id="patch_10">
    <path d="M 450.595891 207.63625 
L 450.595891 44.55625 
" style="fill:none;stroke:#000000;stroke-linecap:square;stroke-linejoin:miter;stroke-width:0.8;"/>
   </g>
   <g id="patch_11">
    <path d="M 267.947177 207.63625 
L 450.595891 207.63625 
" style="fill:none;stroke:#000000;stroke-linecap:square;stroke-linejoin:miter;stroke-width:0.8;"/>
   </g>
   <g id="patch_12">
    <path d="M 267.947177 44.55625 
L 450.595891 44.55625 
" style="fill:none;stroke:#000000;stroke-linecap:square;stroke-linejoin:miter;stroke-width:0.8;"/>
   </g>
   <g id="text_16">
    <!-- B -->
    <g transform="translate(258.814741 41.22875)scale(0.16 -0.16)">
     <defs>
      <path d="M 1259 2228 
L 1259 519 
L 2272 519 
Q 2781 519 3026 730 
Q 3272 941 3272 1375 
Q 3272 1813 3026 2020 
Q 2781 2228 2272 2228 
L 1259 2228 
z
M 1259 4147 
L 1259 2741 
L 2194 2741 
Q 2656 2741 2882 2914 
Q 3109 3088 3109 3444 
Q 3109 3797 2882 3972 
Q 2656 4147 2194 4147 
L 1259 4147 
z
M 628 4666 
L 2241 4666 
Q 2963 4666 3353 4366 
Q 3744 4066 3744 3513 
Q 3744 3084 3544 2831 
Q 3344 2578 2956 2516 
Q 3422 2416 3680 2098 
Q 3938 1781 3938 1306 
Q 3938 681 3513 340 
Q 3088 0 2303 0 
L 628 0 
L 628 4666 
z
" id="DejaVuSans-42" transform="scale(0.015625)"/>
     </defs>
     <use xlink:href="#DejaVuSans-42"/>
    </g>
   </g>
   <g id="legend_2">
    <g id="patch_13">
     <path d="M 274.947177 39.55625 
L 350.684677 39.55625 
Q 352.684677 39.55625 352.684677 37.55625 
L 352.684677 9.2 
Q 352.684677 7.2 350.684677 7.2 
L 274.947177 7.2 
Q 272.947177 7.2 272.947177 9.2 
L 272.947177 37.55625 
Q 272.947177 39.55625 274.947177 39.55625 
z
" style="fill:#ffffff;opacity:0.8;stroke:#cccccc;stroke-linejoin:miter;"/>
    </g>
    <g id="line2d_17"/>
    <g id="line2d_18">
     <g>
      <use style="fill:#d62728;stroke:#d62728;" x="286.947177" xlink:href="#m5c726985d1" y="15.298437"/>
     </g>
    </g>
    <g id="text_17">
     <!-- positive -->
     <g transform="translate(304.947177 18.798437)scale(0.1 -0.1)">
      <use xlink:href="#DejaVuSans-70"/>
      <use x="63.476562" xlink:href="#DejaVuSans-6f"/>
      <use x="124.658203" xlink:href="#DejaVuSans-73"/>
      <use x="176.757812" xlink:href="#DejaVuSans-69"/>
      <use x="204.541016" xlink:href="#DejaVuSans-74"/>
      <use x="243.75" xlink:href="#DejaVuSans-69"/>
      <use x="271.533203" xlink:href="#DejaVuSans-76"/>
      <use x="330.712891" xlink:href="#DejaVuSans-65"/>
     </g>
    </g>
    <g id="line2d_19"/>
    <g id="line2d_20">
     <g>
      <use style="fill:#1f77b4;stroke:#1f77b4;" x="286.947177" xlink:href="#m57124d27be" y="29.976562"/>
     </g>
    </g>
    <g id="text_18">
     <!-- negative -->
     <g transform="translate(304.947177 33.476562)scale(0.1 -0.1)">
      <use xlink:href="#DejaVuSans-6e"/>
      <use x="63.378906" xlink:href="#DejaVuSans-65"/>
      <use x="124.902344" xlink:href="#DejaVuSans-67"/>
      <use x="188.378906" xlink:href="#DejaVuSans-61"/>
      <use x="249.658203" xlink:href="#DejaVuSans-74"/>
      <use x="288.867188" xlink:href="#DejaVuSans-69"/>
      <use x="316.650391" xlink:href="#DejaVuSans-76"/>
      <use x="375.830078" xlink:href="#DejaVuSans-65"/>
     </g>
    </g>
   </g>
  </g>
 </g>
 <defs>
  <clipPath id="p67294ae631">
   <rect height="163.08" width="163.08" x="34.240625" y="44.55625"/>
  </clipPath>
  <clipPath id="p8df8b3654e">
   <rect height="163.08" width="182.648714" x="267.947177" y="44.55625"/>
  </clipPath>
 </defs>
</svg>
