<?xml version="1.0" encoding="utf-8" standalone="no"?>
<!DOCTYPE svg PUBLIC "-//W3C//DTD SVG 1.1//EN"
  "http://www.w3.org/Graphics/SVG/1.1/DTD/svg11.dtd">
<svg height="127.988713pt" version="1.1" viewBox="0 0 684 127.988713" width="684pt" xmlns="http://www.w3.org/2000/svg" xmlns:xlink="http://www.w3.org/1999/xlink">
 <metadata>
  <rdf:RDF xmlns:cc="http://creativecommons.org/ns#" xmlns:dc="http://purl.org/dc/elements/1.1/" xmlns:rdf="http://www.w3.org/1999/02/22-rdf-syntax-ns#">
   <cc:Work>
    <dc:type rdf:resource="http://purl.org/dc/dcmitype/StillImage"/>
    <dc:date>2021-09-27T21:35:28.404206</dc:date>
    <dc:format>image/svg+xml</dc:format>
    <dc:creator>
     <cc:Agent>
      <dc:title>Matplotlib v3.4.3, https://matplotlib.org/</dc:title>
     </cc:Agent>
    </dc:creator>
   </cc:Work>
  </rdf:RDF>
 </metadata>
 <defs>
  <style type="text/css">*{stroke-linecap:butt;stroke-linejoin:round;}</style>
 </defs>
 <g id="figure_1">
  <g id="patch_1">
   <path d="M 0 127.988713 
L 684 127.988713 
L 684 0 
L 0 0 
z
" style="fill:none;"/>
  </g>
  <g id="axes_1">
   <g id="line2d_1">
    <path clip-path="url(#pc3fac05ecb)" d="M 31.817647 38.72989 
L 130.288235 71.553419 
" style="fill:none;stroke:#000000;stroke-linecap:square;stroke-width:0.25;"/>
   </g>
   <g id="line2d_2">
    <path clip-path="url(#pc3fac05ecb)" d="M 31.817647 71.553419 
L 130.288235 71.553419 
" style="fill:none;stroke:#000000;stroke-linecap:square;stroke-width:0.25;"/>
   </g>
   <g id="line2d_3">
    <path clip-path="url(#pc3fac05ecb)" d="M 31.817647 104.376949 
L 130.288235 71.553419 
" style="fill:none;stroke:#000000;stroke-linecap:square;stroke-width:0.25;"/>
   </g>
   <g id="text_1">
    <!-- -30 -->
    <g transform="translate(72.433017 48.003801)rotate(-341.565051)scale(0.1 -0.1)">
     <defs>
      <path d="M 313 2009 
L 1997 2009 
L 1997 1497 
L 313 1497 
L 313 2009 
z
" id="DejaVuSans-2d" transform="scale(0.015625)"/>
      <path d="M 2597 2516 
Q 3050 2419 3304 2112 
Q 3559 1806 3559 1356 
Q 3559 666 3084 287 
Q 2609 -91 1734 -91 
Q 1441 -91 1130 -33 
Q 819 25 488 141 
L 488 750 
Q 750 597 1062 519 
Q 1375 441 1716 441 
Q 2309 441 2620 675 
Q 2931 909 2931 1356 
Q 2931 1769 2642 2001 
Q 2353 2234 1838 2234 
L 1294 2234 
L 1294 2753 
L 1863 2753 
Q 2328 2753 2575 2939 
Q 2822 3125 2822 3475 
Q 2822 3834 2567 4026 
Q 2313 4219 1838 4219 
Q 1578 4219 1281 4162 
Q 984 4106 628 3988 
L 628 4550 
Q 988 4650 1302 4700 
Q 1616 4750 1894 4750 
Q 2613 4750 3031 4423 
Q 3450 4097 3450 3541 
Q 3450 3153 3228 2886 
Q 3006 2619 2597 2516 
z
" id="DejaVuSans-33" transform="scale(0.015625)"/>
      <path d="M 2034 4250 
Q 1547 4250 1301 3770 
Q 1056 3291 1056 2328 
Q 1056 1369 1301 889 
Q 1547 409 2034 409 
Q 2525 409 2770 889 
Q 3016 1369 3016 2328 
Q 3016 3291 2770 3770 
Q 2525 4250 2034 4250 
z
M 2034 4750 
Q 2819 4750 3233 4129 
Q 3647 3509 3647 2328 
Q 3647 1150 3233 529 
Q 2819 -91 2034 -91 
Q 1250 -91 836 529 
Q 422 1150 422 2328 
Q 422 3509 836 4129 
Q 1250 4750 2034 4750 
z
" id="DejaVuSans-30" transform="scale(0.015625)"/>
     </defs>
     <use xlink:href="#DejaVuSans-2d"/>
     <use x="36.083984" xlink:href="#DejaVuSans-33"/>
     <use x="99.707031" xlink:href="#DejaVuSans-30"/>
    </g>
   </g>
   <g id="text_2">
    <!-- 20 -->
    <g transform="translate(74.690441 69.473732)rotate(-0)scale(0.1 -0.1)">
     <defs>
      <path d="M 1228 531 
L 3431 531 
L 3431 0 
L 469 0 
L 469 531 
Q 828 903 1448 1529 
Q 2069 2156 2228 2338 
Q 2531 2678 2651 2914 
Q 2772 3150 2772 3378 
Q 2772 3750 2511 3984 
Q 2250 4219 1831 4219 
Q 1534 4219 1204 4116 
Q 875 4013 500 3803 
L 500 4441 
Q 881 4594 1212 4672 
Q 1544 4750 1819 4750 
Q 2544 4750 2975 4387 
Q 3406 4025 3406 3419 
Q 3406 3131 3298 2873 
Q 3191 2616 2906 2266 
Q 2828 2175 2409 1742 
Q 1991 1309 1228 531 
z
" id="DejaVuSans-32" transform="scale(0.015625)"/>
     </defs>
     <use xlink:href="#DejaVuSans-32"/>
     <use x="63.623047" xlink:href="#DejaVuSans-30"/>
    </g>
   </g>
   <g id="text_3">
    <!-- 20 -->
    <g transform="translate(75.889535 85.992219)rotate(-18.434949)scale(0.1 -0.1)">
     <use xlink:href="#DejaVuSans-32"/>
     <use x="63.623047" xlink:href="#DejaVuSans-30"/>
    </g>
   </g>
   <g id="text_4">
    <!-- AND -->
    <g transform="translate(92.457463 16.318125)scale(0.12 -0.12)">
     <defs>
      <path d="M 2188 4044 
L 1331 1722 
L 3047 1722 
L 2188 4044 
z
M 1831 4666 
L 2547 4666 
L 4325 0 
L 3669 0 
L 3244 1197 
L 1141 1197 
L 716 0 
L 50 0 
L 1831 4666 
z
" id="DejaVuSans-41" transform="scale(0.015625)"/>
      <path d="M 628 4666 
L 1478 4666 
L 3547 763 
L 3547 4666 
L 4159 4666 
L 4159 0 
L 3309 0 
L 1241 3903 
L 1241 0 
L 628 0 
L 628 4666 
z
" id="DejaVuSans-4e" transform="scale(0.015625)"/>
      <path d="M 1259 4147 
L 1259 519 
L 2022 519 
Q 2988 519 3436 956 
Q 3884 1394 3884 2338 
Q 3884 3275 3436 3711 
Q 2988 4147 2022 4147 
L 1259 4147 
z
M 628 4666 
L 1925 4666 
Q 3281 4666 3915 4102 
Q 4550 3538 4550 2338 
Q 4550 1131 3912 565 
Q 3275 0 1925 0 
L 628 0 
L 628 4666 
z
" id="DejaVuSans-44" transform="scale(0.015625)"/>
     </defs>
     <use xlink:href="#DejaVuSans-41"/>
     <use x="68.408203" xlink:href="#DejaVuSans-4e"/>
     <use x="143.212891" xlink:href="#DejaVuSans-44"/>
    </g>
   </g>
   <g id="patch_2">
    <path clip-path="url(#pc3fac05ecb)" d="M 31.817647 51.859301 
C 35.299608 51.859301 38.639425 50.475904 41.101543 48.013786 
C 43.563661 45.551668 44.947059 42.21185 44.947059 38.72989 
C 44.947059 35.247929 43.563661 31.908112 41.101543 29.445994 
C 38.639425 26.983876 35.299608 25.600478 31.817647 25.600478 
C 28.335686 25.600478 24.995869 26.983876 22.533751 29.445994 
C 20.071633 31.908112 18.688235 35.247929 18.688235 38.72989 
C 18.688235 42.21185 20.071633 45.551668 22.533751 48.013786 
C 24.995869 50.475904 28.335686 51.859301 31.817647 51.859301 
z
" style="fill:#ffffff;stroke:#1f77b4;stroke-linejoin:miter;stroke-width:2;"/>
   </g>
   <g id="patch_3">
    <path clip-path="url(#pc3fac05ecb)" d="M 31.817647 84.682831 
C 35.299608 84.682831 38.639425 83.299433 41.101543 80.837315 
C 43.563661 78.375197 44.947059 75.03538 44.947059 71.553419 
C 44.947059 68.071458 43.563661 64.731641 41.101543 62.269523 
C 38.639425 59.807405 35.299608 58.424007 31.817647 58.424007 
C 28.335686 58.424007 24.995869 59.807405 22.533751 62.269523 
C 20.071633 64.731641 18.688235 68.071458 18.688235 71.553419 
C 18.688235 75.03538 20.071633 78.375197 22.533751 80.837315 
C 24.995869 83.299433 28.335686 84.682831 31.817647 84.682831 
z
" style="fill:#ffffff;stroke:#1f77b4;stroke-linejoin:miter;stroke-width:2;"/>
   </g>
   <g id="patch_4">
    <path clip-path="url(#pc3fac05ecb)" d="M 31.817647 117.50636 
C 35.299608 117.50636 38.639425 116.122963 41.101543 113.660845 
C 43.563661 111.198727 44.947059 107.858909 44.947059 104.376949 
C 44.947059 100.894988 43.563661 97.55517 41.101543 95.093052 
C 38.639425 92.630934 35.299608 91.247537 31.817647 91.247537 
C 28.335686 91.247537 24.995869 92.630934 22.533751 95.093052 
C 20.071633 97.55517 18.688235 100.894988 18.688235 104.376949 
C 18.688235 107.858909 20.071633 111.198727 22.533751 113.660845 
C 24.995869 116.122963 28.335686 117.50636 31.817647 117.50636 
z
" style="fill:#ffffff;stroke:#1f77b4;stroke-linejoin:miter;stroke-width:2;"/>
   </g>
   <g id="patch_5">
    <path clip-path="url(#pc3fac05ecb)" d="M 130.288235 84.682831 
C 133.770196 84.682831 137.110013 83.299433 139.572131 80.837315 
C 142.034249 78.375197 143.417647 75.03538 143.417647 71.553419 
C 143.417647 68.071458 142.034249 64.731641 139.572131 62.269523 
C 137.110013 59.807405 133.770196 58.424007 130.288235 58.424007 
C 126.806275 58.424007 123.466457 59.807405 121.004339 62.269523 
C 118.542221 64.731641 117.158824 68.071458 117.158824 71.553419 
C 117.158824 75.03538 118.542221 78.375197 121.004339 80.837315 
C 123.466457 83.299433 126.806275 84.682831 130.288235 84.682831 
z
" style="fill:#ffffff;stroke:#d62728;stroke-linejoin:miter;stroke-width:2;"/>
   </g>
   <g id="text_5">
    <!-- $a_{0}^{[0]}$ -->
    <g transform="translate(24.817647 42.52989)scale(0.1 -0.1)">
     <defs>
      <path d="M 1113 -72 
Q 709 -72 476 233 
Q 244 538 244 953 
Q 244 1363 456 1803 
Q 669 2244 1030 2536 
Q 1391 2828 1806 2828 
Q 1997 2828 2147 2725 
Q 2297 2622 2381 2444 
Q 2453 2700 2663 2700 
Q 2744 2700 2798 2651 
Q 2853 2603 2853 2522 
Q 2853 2503 2851 2493 
Q 2850 2484 2847 2472 
L 2400 684 
Q 2356 494 2356 372 
Q 2356 97 2541 97 
Q 2741 97 2845 351 
Q 2950 606 3022 941 
Q 3034 978 3072 978 
L 3150 978 
Q 3175 978 3190 956 
Q 3206 934 3206 916 
Q 3094 469 2961 198 
Q 2828 -72 2528 -72 
Q 2313 -72 2147 54 
Q 1981 181 1941 391 
Q 1528 -72 1113 -72 
z
M 1119 97 
Q 1350 97 1567 270 
Q 1784 444 1941 678 
Q 1947 684 1947 697 
L 2291 2088 
L 2297 2106 
Q 2259 2334 2132 2498 
Q 2006 2663 1791 2663 
Q 1575 2663 1389 2486 
Q 1203 2309 1075 2069 
Q 950 1813 836 1366 
Q 722 919 722 672 
Q 722 450 817 273 
Q 913 97 1119 97 
z
" id="Cmmi10-61" transform="scale(0.015625)"/>
      <path d="M 756 -1600 
L 756 4800 
L 1631 4800 
L 1631 4544 
L 1013 4544 
L 1013 -1344 
L 1631 -1344 
L 1631 -1600 
L 756 -1600 
z
" id="Cmr10-5b" transform="scale(0.015625)"/>
      <path d="M 1600 -141 
Q 816 -141 533 504 
Q 250 1150 250 2041 
Q 250 2597 351 3087 
Q 453 3578 754 3920 
Q 1056 4263 1600 4263 
Q 2022 4263 2290 4056 
Q 2559 3850 2700 3523 
Q 2841 3197 2892 2823 
Q 2944 2450 2944 2041 
Q 2944 1491 2842 1011 
Q 2741 531 2444 195 
Q 2147 -141 1600 -141 
z
M 1600 25 
Q 1956 25 2131 390 
Q 2306 756 2347 1200 
Q 2388 1644 2388 2144 
Q 2388 2625 2347 3031 
Q 2306 3438 2132 3767 
Q 1959 4097 1600 4097 
Q 1238 4097 1063 3765 
Q 888 3434 847 3029 
Q 806 2625 806 2144 
Q 806 1788 823 1472 
Q 841 1156 916 820 
Q 991 484 1158 254 
Q 1325 25 1600 25 
z
" id="Cmr10-30" transform="scale(0.015625)"/>
      <path d="M 141 -1600 
L 141 -1344 
L 763 -1344 
L 763 4544 
L 141 4544 
L 141 4800 
L 1019 4800 
L 1019 -1600 
L 141 -1600 
z
" id="Cmr10-5d" transform="scale(0.015625)"/>
     </defs>
     <use transform="translate(0 0.382812)" xlink:href="#Cmmi10-61"/>
     <use transform="translate(59.086484 51.5)scale(0.7)" xlink:href="#Cmr10-5b"/>
     <use transform="translate(78.466367 51.5)scale(0.7)" xlink:href="#Cmr10-30"/>
     <use transform="translate(113.466367 51.5)scale(0.7)" xlink:href="#Cmr10-5d"/>
     <use transform="translate(52.783203 -25.126563)scale(0.7)" xlink:href="#Cmr10-30"/>
    </g>
   </g>
   <g id="text_6">
    <!-- $a_{1}^{[0]}$ -->
    <g transform="translate(24.817647 75.453419)scale(0.1 -0.1)">
     <defs>
      <path d="M 594 0 
L 594 225 
Q 1394 225 1394 428 
L 1394 3788 
Q 1063 3628 556 3628 
L 556 3853 
Q 1341 3853 1741 4263 
L 1831 4263 
Q 1853 4263 1873 4245 
Q 1894 4228 1894 4206 
L 1894 428 
Q 1894 225 2694 225 
L 2694 0 
L 594 0 
z
" id="Cmr10-31" transform="scale(0.015625)"/>
     </defs>
     <use transform="translate(0 0.382812)" xlink:href="#Cmmi10-61"/>
     <use transform="translate(59.086484 51.5)scale(0.7)" xlink:href="#Cmr10-5b"/>
     <use transform="translate(78.466367 51.5)scale(0.7)" xlink:href="#Cmr10-30"/>
     <use transform="translate(113.466367 51.5)scale(0.7)" xlink:href="#Cmr10-5d"/>
     <use transform="translate(52.783203 -25.126563)scale(0.7)" xlink:href="#Cmr10-31"/>
    </g>
   </g>
   <g id="text_7">
    <!-- $a_{2}^{[0]}$ -->
    <g transform="translate(24.817647 108.276949)scale(0.1 -0.1)">
     <defs>
      <path d="M 319 0 
L 319 172 
Q 319 188 331 206 
L 1325 1306 
Q 1550 1550 1690 1715 
Q 1831 1881 1968 2097 
Q 2106 2313 2186 2536 
Q 2266 2759 2266 3009 
Q 2266 3272 2169 3511 
Q 2072 3750 1880 3894 
Q 1688 4038 1416 4038 
Q 1138 4038 916 3870 
Q 694 3703 603 3438 
Q 628 3444 672 3444 
Q 816 3444 917 3347 
Q 1019 3250 1019 3097 
Q 1019 2950 917 2848 
Q 816 2747 672 2747 
Q 522 2747 420 2851 
Q 319 2956 319 3097 
Q 319 3338 409 3548 
Q 500 3759 670 3923 
Q 841 4088 1055 4175 
Q 1269 4263 1509 4263 
Q 1875 4263 2190 4108 
Q 2506 3953 2690 3670 
Q 2875 3388 2875 3009 
Q 2875 2731 2753 2481 
Q 2631 2231 2440 2026 
Q 2250 1822 1953 1562 
Q 1656 1303 1563 1216 
L 838 519 
L 1453 519 
Q 1906 519 2211 526 
Q 2516 534 2534 550 
Q 2609 631 2688 1141 
L 2875 1141 
L 2694 0 
L 319 0 
z
" id="Cmr10-32" transform="scale(0.015625)"/>
     </defs>
     <use transform="translate(0 0.382812)" xlink:href="#Cmmi10-61"/>
     <use transform="translate(59.086484 51.5)scale(0.7)" xlink:href="#Cmr10-5b"/>
     <use transform="translate(78.466367 51.5)scale(0.7)" xlink:href="#Cmr10-30"/>
     <use transform="translate(113.466367 51.5)scale(0.7)" xlink:href="#Cmr10-5d"/>
     <use transform="translate(52.783203 -25.126563)scale(0.7)" xlink:href="#Cmr10-32"/>
    </g>
   </g>
   <g id="text_8">
    <!-- $a_{0}^{[1]}$ -->
    <g transform="translate(123.288235 75.353419)scale(0.1 -0.1)">
     <use transform="translate(0 0.382812)" xlink:href="#Cmmi10-61"/>
     <use transform="translate(59.086484 51.5)scale(0.7)" xlink:href="#Cmr10-5b"/>
     <use transform="translate(78.466367 51.5)scale(0.7)" xlink:href="#Cmr10-31"/>
     <use transform="translate(113.466367 51.5)scale(0.7)" xlink:href="#Cmr10-5d"/>
     <use transform="translate(52.783203 -25.126563)scale(0.7)" xlink:href="#Cmr10-30"/>
    </g>
   </g>
  </g>
  <g id="axes_2">
   <g id="line2d_4">
    <path clip-path="url(#pbe87cf7513)" d="M 268.147059 38.72989 
L 366.617647 71.553419 
" style="fill:none;stroke:#000000;stroke-linecap:square;stroke-width:0.25;"/>
   </g>
   <g id="line2d_5">
    <path clip-path="url(#pbe87cf7513)" d="M 268.147059 71.553419 
L 366.617647 71.553419 
" style="fill:none;stroke:#000000;stroke-linecap:square;stroke-width:0.25;"/>
   </g>
   <g id="line2d_6">
    <path clip-path="url(#pbe87cf7513)" d="M 268.147059 104.376949 
L 366.617647 71.553419 
" style="fill:none;stroke:#000000;stroke-linecap:square;stroke-width:0.25;"/>
   </g>
   <g id="text_9">
    <!-- 10 -->
    <g transform="translate(310.473764 49.144691)rotate(-341.565051)scale(0.1 -0.1)">
     <defs>
      <path d="M 794 531 
L 1825 531 
L 1825 4091 
L 703 3866 
L 703 4441 
L 1819 4666 
L 2450 4666 
L 2450 531 
L 3481 531 
L 3481 0 
L 794 0 
L 794 531 
z
" id="DejaVuSans-31" transform="scale(0.015625)"/>
     </defs>
     <use xlink:href="#DejaVuSans-31"/>
     <use x="63.623047" xlink:href="#DejaVuSans-30"/>
    </g>
   </g>
   <g id="text_10">
    <!-- -20 -->
    <g transform="translate(309.215947 69.473732)rotate(-0)scale(0.1 -0.1)">
     <use xlink:href="#DejaVuSans-2d"/>
     <use x="36.083984" xlink:href="#DejaVuSans-32"/>
     <use x="99.707031" xlink:href="#DejaVuSans-30"/>
    </g>
   </g>
   <g id="text_11">
    <!-- -20 -->
    <g transform="translate(310.507611 85.992219)rotate(-18.434949)scale(0.1 -0.1)">
     <use xlink:href="#DejaVuSans-2d"/>
     <use x="36.083984" xlink:href="#DejaVuSans-32"/>
     <use x="99.707031" xlink:href="#DejaVuSans-30"/>
    </g>
   </g>
   <g id="text_12">
    <!-- (NOT $x_1$) AND (NOT $x_2$) -->
    <g transform="translate(274.32 16.318125)scale(0.12 -0.12)">
     <defs>
      <path d="M 1984 4856 
Q 1566 4138 1362 3434 
Q 1159 2731 1159 2009 
Q 1159 1288 1364 580 
Q 1569 -128 1984 -844 
L 1484 -844 
Q 1016 -109 783 600 
Q 550 1309 550 2009 
Q 550 2706 781 3412 
Q 1013 4119 1484 4856 
L 1984 4856 
z
" id="DejaVuSans-28" transform="scale(0.015625)"/>
      <path d="M 2522 4238 
Q 1834 4238 1429 3725 
Q 1025 3213 1025 2328 
Q 1025 1447 1429 934 
Q 1834 422 2522 422 
Q 3209 422 3611 934 
Q 4013 1447 4013 2328 
Q 4013 3213 3611 3725 
Q 3209 4238 2522 4238 
z
M 2522 4750 
Q 3503 4750 4090 4092 
Q 4678 3434 4678 2328 
Q 4678 1225 4090 567 
Q 3503 -91 2522 -91 
Q 1538 -91 948 565 
Q 359 1222 359 2328 
Q 359 3434 948 4092 
Q 1538 4750 2522 4750 
z
" id="DejaVuSans-4f" transform="scale(0.015625)"/>
      <path d="M -19 4666 
L 3928 4666 
L 3928 4134 
L 2272 4134 
L 2272 0 
L 1638 0 
L 1638 4134 
L -19 4134 
L -19 4666 
z
" id="DejaVuSans-54" transform="scale(0.015625)"/>
      <path id="DejaVuSans-20" transform="scale(0.015625)"/>
      <path d="M 500 184 
Q 613 97 819 97 
Q 1019 97 1172 289 
Q 1325 481 1381 709 
L 1672 1844 
Q 1741 2153 1741 2266 
Q 1741 2425 1652 2544 
Q 1563 2663 1403 2663 
Q 1200 2663 1022 2536 
Q 844 2409 722 2214 
Q 600 2019 550 1819 
Q 538 1778 500 1778 
L 422 1778 
Q 372 1778 372 1838 
L 372 1856 
Q 434 2094 584 2320 
Q 734 2547 951 2687 
Q 1169 2828 1416 2828 
Q 1650 2828 1839 2703 
Q 2028 2578 2106 2363 
Q 2216 2559 2386 2693 
Q 2556 2828 2759 2828 
Q 2897 2828 3040 2779 
Q 3184 2731 3275 2631 
Q 3366 2531 3366 2381 
Q 3366 2219 3261 2101 
Q 3156 1984 2994 1984 
Q 2891 1984 2822 2050 
Q 2753 2116 2753 2216 
Q 2753 2350 2845 2451 
Q 2938 2553 3066 2572 
Q 2950 2663 2747 2663 
Q 2541 2663 2389 2472 
Q 2238 2281 2175 2047 
L 1894 916 
Q 1825 659 1825 494 
Q 1825 331 1917 214 
Q 2009 97 2163 97 
Q 2463 97 2698 361 
Q 2934 625 3009 941 
Q 3022 978 3059 978 
L 3138 978 
Q 3163 978 3178 961 
Q 3194 944 3194 922 
Q 3194 916 3188 903 
Q 3097 522 2806 225 
Q 2516 -72 2150 -72 
Q 1916 -72 1727 54 
Q 1538 181 1459 397 
Q 1359 209 1182 68 
Q 1006 -72 806 -72 
Q 669 -72 523 -23 
Q 378 25 287 125 
Q 197 225 197 378 
Q 197 528 301 651 
Q 406 775 563 775 
Q 669 775 741 711 
Q 813 647 813 544 
Q 813 409 723 309 
Q 634 209 500 184 
z
" id="Cmmi10-78" transform="scale(0.015625)"/>
      <path d="M 513 4856 
L 1013 4856 
Q 1481 4119 1714 3412 
Q 1947 2706 1947 2009 
Q 1947 1309 1714 600 
Q 1481 -109 1013 -844 
L 513 -844 
Q 928 -128 1133 580 
Q 1338 1288 1338 2009 
Q 1338 2731 1133 3434 
Q 928 4138 513 4856 
z
" id="DejaVuSans-29" transform="scale(0.015625)"/>
     </defs>
     <use transform="translate(0 0.125)" xlink:href="#DejaVuSans-28"/>
     <use transform="translate(39.013672 0.125)" xlink:href="#DejaVuSans-4e"/>
     <use transform="translate(113.818359 0.125)" xlink:href="#DejaVuSans-4f"/>
     <use transform="translate(192.529297 0.125)" xlink:href="#DejaVuSans-54"/>
     <use transform="translate(253.613281 0.125)" xlink:href="#DejaVuSans-20"/>
     <use transform="translate(285.400391 0.125)" xlink:href="#Cmmi10-78"/>
     <use transform="translate(342.480469 -16.88125)scale(0.7)" xlink:href="#Cmr10-31"/>
     <use transform="translate(383.857813 0.125)" xlink:href="#DejaVuSans-29"/>
     <use transform="translate(422.871484 0.125)" xlink:href="#DejaVuSans-20"/>
     <use transform="translate(454.658594 0.125)" xlink:href="#DejaVuSans-41"/>
     <use transform="translate(523.066797 0.125)" xlink:href="#DejaVuSans-4e"/>
     <use transform="translate(596.121484 0.125)" xlink:href="#DejaVuSans-44"/>
     <use transform="translate(673.123438 0.125)" xlink:href="#DejaVuSans-20"/>
     <use transform="translate(704.910547 0.125)" xlink:href="#DejaVuSans-28"/>
     <use transform="translate(743.924219 0.125)" xlink:href="#DejaVuSans-4e"/>
     <use transform="translate(818.728906 0.125)" xlink:href="#DejaVuSans-4f"/>
     <use transform="translate(897.439844 0.125)" xlink:href="#DejaVuSans-54"/>
     <use transform="translate(958.523828 0.125)" xlink:href="#DejaVuSans-20"/>
     <use transform="translate(990.310938 0.125)" xlink:href="#Cmmi10-78"/>
     <use transform="translate(1047.391016 -16.88125)scale(0.7)" xlink:href="#Cmr10-32"/>
     <use transform="translate(1088.768359 0.125)" xlink:href="#DejaVuSans-29"/>
    </g>
   </g>
   <g id="patch_6">
    <path clip-path="url(#pbe87cf7513)" d="M 268.147059 51.859301 
C 271.62902 51.859301 274.968837 50.475904 277.430955 48.013786 
C 279.893073 45.551668 281.276471 42.21185 281.276471 38.72989 
C 281.276471 35.247929 279.893073 31.908112 277.430955 29.445994 
C 274.968837 26.983876 271.62902 25.600478 268.147059 25.600478 
C 264.665098 25.600478 261.325281 26.983876 258.863163 29.445994 
C 256.401045 31.908112 255.017647 35.247929 255.017647 38.72989 
C 255.017647 42.21185 256.401045 45.551668 258.863163 48.013786 
C 261.325281 50.475904 264.665098 51.859301 268.147059 51.859301 
z
" style="fill:#ffffff;stroke:#1f77b4;stroke-linejoin:miter;stroke-width:2;"/>
   </g>
   <g id="patch_7">
    <path clip-path="url(#pbe87cf7513)" d="M 268.147059 84.682831 
C 271.62902 84.682831 274.968837 83.299433 277.430955 80.837315 
C 279.893073 78.375197 281.276471 75.03538 281.276471 71.553419 
C 281.276471 68.071458 279.893073 64.731641 277.430955 62.269523 
C 274.968837 59.807405 271.62902 58.424007 268.147059 58.424007 
C 264.665098 58.424007 261.325281 59.807405 258.863163 62.269523 
C 256.401045 64.731641 255.017647 68.071458 255.017647 71.553419 
C 255.017647 75.03538 256.401045 78.375197 258.863163 80.837315 
C 261.325281 83.299433 264.665098 84.682831 268.147059 84.682831 
z
" style="fill:#ffffff;stroke:#1f77b4;stroke-linejoin:miter;stroke-width:2;"/>
   </g>
   <g id="patch_8">
    <path clip-path="url(#pbe87cf7513)" d="M 268.147059 117.50636 
C 271.62902 117.50636 274.968837 116.122963 277.430955 113.660845 
C 279.893073 111.198727 281.276471 107.858909 281.276471 104.376949 
C 281.276471 100.894988 279.893073 97.55517 277.430955 95.093052 
C 274.968837 92.630934 271.62902 91.247537 268.147059 91.247537 
C 264.665098 91.247537 261.325281 92.630934 258.863163 95.093052 
C 256.401045 97.55517 255.017647 100.894988 255.017647 104.376949 
C 255.017647 107.858909 256.401045 111.198727 258.863163 113.660845 
C 261.325281 116.122963 264.665098 117.50636 268.147059 117.50636 
z
" style="fill:#ffffff;stroke:#1f77b4;stroke-linejoin:miter;stroke-width:2;"/>
   </g>
   <g id="patch_9">
    <path clip-path="url(#pbe87cf7513)" d="M 366.617647 84.682831 
C 370.099608 84.682831 373.439425 83.299433 375.901543 80.837315 
C 378.363661 78.375197 379.747059 75.03538 379.747059 71.553419 
C 379.747059 68.071458 378.363661 64.731641 375.901543 62.269523 
C 373.439425 59.807405 370.099608 58.424007 366.617647 58.424007 
C 363.135686 58.424007 359.795869 59.807405 357.333751 62.269523 
C 354.871633 64.731641 353.488235 68.071458 353.488235 71.553419 
C 353.488235 75.03538 354.871633 78.375197 357.333751 80.837315 
C 359.795869 83.299433 363.135686 84.682831 366.617647 84.682831 
z
" style="fill:#ffffff;stroke:#17becf;stroke-linejoin:miter;stroke-width:2;"/>
   </g>
   <g id="text_13">
    <!-- $a_{0}^{[0]}$ -->
    <g transform="translate(261.147059 42.52989)scale(0.1 -0.1)">
     <use transform="translate(0 0.382812)" xlink:href="#Cmmi10-61"/>
     <use transform="translate(59.086484 51.5)scale(0.7)" xlink:href="#Cmr10-5b"/>
     <use transform="translate(78.466367 51.5)scale(0.7)" xlink:href="#Cmr10-30"/>
     <use transform="translate(113.466367 51.5)scale(0.7)" xlink:href="#Cmr10-5d"/>
     <use transform="translate(52.783203 -25.126563)scale(0.7)" xlink:href="#Cmr10-30"/>
    </g>
   </g>
   <g id="text_14">
    <!-- $a_{1}^{[0]}$ -->
    <g transform="translate(261.147059 75.453419)scale(0.1 -0.1)">
     <use transform="translate(0 0.382812)" xlink:href="#Cmmi10-61"/>
     <use transform="translate(59.086484 51.5)scale(0.7)" xlink:href="#Cmr10-5b"/>
     <use transform="translate(78.466367 51.5)scale(0.7)" xlink:href="#Cmr10-30"/>
     <use transform="translate(113.466367 51.5)scale(0.7)" xlink:href="#Cmr10-5d"/>
     <use transform="translate(52.783203 -25.126563)scale(0.7)" xlink:href="#Cmr10-31"/>
    </g>
   </g>
   <g id="text_15">
    <!-- $a_{2}^{[0]}$ -->
    <g transform="translate(261.147059 108.276949)scale(0.1 -0.1)">
     <use transform="translate(0 0.382812)" xlink:href="#Cmmi10-61"/>
     <use transform="translate(59.086484 51.5)scale(0.7)" xlink:href="#Cmr10-5b"/>
     <use transform="translate(78.466367 51.5)scale(0.7)" xlink:href="#Cmr10-30"/>
     <use transform="translate(113.466367 51.5)scale(0.7)" xlink:href="#Cmr10-5d"/>
     <use transform="translate(52.783203 -25.126563)scale(0.7)" xlink:href="#Cmr10-32"/>
    </g>
   </g>
   <g id="text_16">
    <!-- $a_{0}^{[1]}$ -->
    <g transform="translate(359.617647 75.353419)scale(0.1 -0.1)">
     <use transform="translate(0 0.382812)" xlink:href="#Cmmi10-61"/>
     <use transform="translate(59.086484 51.5)scale(0.7)" xlink:href="#Cmr10-5b"/>
     <use transform="translate(78.466367 51.5)scale(0.7)" xlink:href="#Cmr10-31"/>
     <use transform="translate(113.466367 51.5)scale(0.7)" xlink:href="#Cmr10-5d"/>
     <use transform="translate(52.783203 -25.126563)scale(0.7)" xlink:href="#Cmr10-30"/>
    </g>
   </g>
  </g>
  <g id="axes_3">
   <g id="line2d_7">
    <path clip-path="url(#p9307f6e6b5)" d="M 504.476471 38.72989 
L 602.947059 71.553419 
" style="fill:none;stroke:#000000;stroke-linecap:square;stroke-width:0.25;"/>
   </g>
   <g id="line2d_8">
    <path clip-path="url(#p9307f6e6b5)" d="M 504.476471 71.553419 
L 602.947059 71.553419 
" style="fill:none;stroke:#000000;stroke-linecap:square;stroke-width:0.25;"/>
   </g>
   <g id="line2d_9">
    <path clip-path="url(#p9307f6e6b5)" d="M 504.476471 104.376949 
L 602.947059 71.553419 
" style="fill:none;stroke:#000000;stroke-linecap:square;stroke-width:0.25;"/>
   </g>
   <g id="text_17">
    <!-- -10 -->
    <g transform="translate(545.09184 48.003801)rotate(-341.565051)scale(0.1 -0.1)">
     <use xlink:href="#DejaVuSans-2d"/>
     <use x="36.083984" xlink:href="#DejaVuSans-31"/>
     <use x="99.707031" xlink:href="#DejaVuSans-30"/>
    </g>
   </g>
   <g id="text_18">
    <!-- 20 -->
    <g transform="translate(547.349265 69.473732)rotate(-0)scale(0.1 -0.1)">
     <use xlink:href="#DejaVuSans-32"/>
     <use x="63.623047" xlink:href="#DejaVuSans-30"/>
    </g>
   </g>
   <g id="text_19">
    <!-- 20 -->
    <g transform="translate(548.548358 85.992219)rotate(-18.434949)scale(0.1 -0.1)">
     <use xlink:href="#DejaVuSans-32"/>
     <use x="63.623047" xlink:href="#DejaVuSans-30"/>
    </g>
   </g>
   <g id="text_20">
    <!-- OR -->
    <g transform="translate(569.437224 16.318125)scale(0.12 -0.12)">
     <defs>
      <path d="M 2841 2188 
Q 3044 2119 3236 1894 
Q 3428 1669 3622 1275 
L 4263 0 
L 3584 0 
L 2988 1197 
Q 2756 1666 2539 1819 
Q 2322 1972 1947 1972 
L 1259 1972 
L 1259 0 
L 628 0 
L 628 4666 
L 2053 4666 
Q 2853 4666 3247 4331 
Q 3641 3997 3641 3322 
Q 3641 2881 3436 2590 
Q 3231 2300 2841 2188 
z
M 1259 4147 
L 1259 2491 
L 2053 2491 
Q 2509 2491 2742 2702 
Q 2975 2913 2975 3322 
Q 2975 3731 2742 3939 
Q 2509 4147 2053 4147 
L 1259 4147 
z
" id="DejaVuSans-52" transform="scale(0.015625)"/>
     </defs>
     <use xlink:href="#DejaVuSans-4f"/>
     <use x="78.710938" xlink:href="#DejaVuSans-52"/>
    </g>
   </g>
   <g id="patch_10">
    <path clip-path="url(#p9307f6e6b5)" d="M 504.476471 51.859301 
C 507.958431 51.859301 511.298249 50.475904 513.760367 48.013786 
C 516.222485 45.551668 517.605882 42.21185 517.605882 38.72989 
C 517.605882 35.247929 516.222485 31.908112 513.760367 29.445994 
C 511.298249 26.983876 507.958431 25.600478 504.476471 25.600478 
C 500.99451 25.600478 497.654693 26.983876 495.192574 29.445994 
C 492.730456 31.908112 491.347059 35.247929 491.347059 38.72989 
C 491.347059 42.21185 492.730456 45.551668 495.192574 48.013786 
C 497.654693 50.475904 500.99451 51.859301 504.476471 51.859301 
z
" style="fill:#ffffff;stroke:#1f77b4;stroke-linejoin:miter;stroke-width:2;"/>
   </g>
   <g id="patch_11">
    <path clip-path="url(#p9307f6e6b5)" d="M 504.476471 84.682831 
C 507.958431 84.682831 511.298249 83.299433 513.760367 80.837315 
C 516.222485 78.375197 517.605882 75.03538 517.605882 71.553419 
C 517.605882 68.071458 516.222485 64.731641 513.760367 62.269523 
C 511.298249 59.807405 507.958431 58.424007 504.476471 58.424007 
C 500.99451 58.424007 497.654693 59.807405 495.192574 62.269523 
C 492.730456 64.731641 491.347059 68.071458 491.347059 71.553419 
C 491.347059 75.03538 492.730456 78.375197 495.192574 80.837315 
C 497.654693 83.299433 500.99451 84.682831 504.476471 84.682831 
z
" style="fill:#ffffff;stroke:#1f77b4;stroke-linejoin:miter;stroke-width:2;"/>
   </g>
   <g id="patch_12">
    <path clip-path="url(#p9307f6e6b5)" d="M 504.476471 117.50636 
C 507.958431 117.50636 511.298249 116.122963 513.760367 113.660845 
C 516.222485 111.198727 517.605882 107.858909 517.605882 104.376949 
C 517.605882 100.894988 516.222485 97.55517 513.760367 95.093052 
C 511.298249 92.630934 507.958431 91.247537 504.476471 91.247537 
C 500.99451 91.247537 497.654693 92.630934 495.192574 95.093052 
C 492.730456 97.55517 491.347059 100.894988 491.347059 104.376949 
C 491.347059 107.858909 492.730456 111.198727 495.192574 113.660845 
C 497.654693 116.122963 500.99451 117.50636 504.476471 117.50636 
z
" style="fill:#ffffff;stroke:#1f77b4;stroke-linejoin:miter;stroke-width:2;"/>
   </g>
   <g id="patch_13">
    <path clip-path="url(#p9307f6e6b5)" d="M 602.947059 84.682831 
C 606.42902 84.682831 609.768837 83.299433 612.230955 80.837315 
C 614.693073 78.375197 616.076471 75.03538 616.076471 71.553419 
C 616.076471 68.071458 614.693073 64.731641 612.230955 62.269523 
C 609.768837 59.807405 606.42902 58.424007 602.947059 58.424007 
C 599.465098 58.424007 596.125281 59.807405 593.663163 62.269523 
C 591.201045 64.731641 589.817647 68.071458 589.817647 71.553419 
C 589.817647 75.03538 591.201045 78.375197 593.663163 80.837315 
C 596.125281 83.299433 599.465098 84.682831 602.947059 84.682831 
z
" style="fill:#ffffff;stroke:#2ca02c;stroke-linejoin:miter;stroke-width:2;"/>
   </g>
   <g id="text_21">
    <!-- $a_{0}^{[0]}$ -->
    <g transform="translate(497.476471 42.52989)scale(0.1 -0.1)">
     <use transform="translate(0 0.382812)" xlink:href="#Cmmi10-61"/>
     <use transform="translate(59.086484 51.5)scale(0.7)" xlink:href="#Cmr10-5b"/>
     <use transform="translate(78.466367 51.5)scale(0.7)" xlink:href="#Cmr10-30"/>
     <use transform="translate(113.466367 51.5)scale(0.7)" xlink:href="#Cmr10-5d"/>
     <use transform="translate(52.783203 -25.126563)scale(0.7)" xlink:href="#Cmr10-30"/>
    </g>
   </g>
   <g id="text_22">
    <!-- $a_{1}^{[0]}$ -->
    <g transform="translate(497.476471 75.453419)scale(0.1 -0.1)">
     <use transform="translate(0 0.382812)" xlink:href="#Cmmi10-61"/>
     <use transform="translate(59.086484 51.5)scale(0.7)" xlink:href="#Cmr10-5b"/>
     <use transform="translate(78.466367 51.5)scale(0.7)" xlink:href="#Cmr10-30"/>
     <use transform="translate(113.466367 51.5)scale(0.7)" xlink:href="#Cmr10-5d"/>
     <use transform="translate(52.783203 -25.126563)scale(0.7)" xlink:href="#Cmr10-31"/>
    </g>
   </g>
   <g id="text_23">
    <!-- $a_{2}^{[0]}$ -->
    <g transform="translate(497.476471 108.276949)scale(0.1 -0.1)">
     <use transform="translate(0 0.382812)" xlink:href="#Cmmi10-61"/>
     <use transform="translate(59.086484 51.5)scale(0.7)" xlink:href="#Cmr10-5b"/>
     <use transform="translate(78.466367 51.5)scale(0.7)" xlink:href="#Cmr10-30"/>
     <use transform="translate(113.466367 51.5)scale(0.7)" xlink:href="#Cmr10-5d"/>
     <use transform="translate(52.783203 -25.126563)scale(0.7)" xlink:href="#Cmr10-32"/>
    </g>
   </g>
   <g id="text_24">
    <!-- $a_{0}^{[1]}$ -->
    <g transform="translate(595.947059 75.353419)scale(0.1 -0.1)">
     <use transform="translate(0 0.382812)" xlink:href="#Cmmi10-61"/>
     <use transform="translate(59.086484 51.5)scale(0.7)" xlink:href="#Cmr10-5b"/>
     <use transform="translate(78.466367 51.5)scale(0.7)" xlink:href="#Cmr10-31"/>
     <use transform="translate(113.466367 51.5)scale(0.7)" xlink:href="#Cmr10-5d"/>
     <use transform="translate(52.783203 -25.126563)scale(0.7)" xlink:href="#Cmr10-30"/>
    </g>
   </g>
  </g>
 </g>
 <defs>
  <clipPath id="pc3fac05ecb">
   <rect height="98.470588" width="196.941176" x="7.2" y="22.318125"/>
  </clipPath>
  <clipPath id="pbe87cf7513">
   <rect height="98.470588" width="196.941176" x="243.529412" y="22.318125"/>
  </clipPath>
  <clipPath id="p9307f6e6b5">
   <rect height="98.470588" width="196.941176" x="479.858824" y="22.318125"/>
  </clipPath>
 </defs>
</svg>
