<?xml version="1.0" encoding="utf-8" standalone="no"?>
<!DOCTYPE svg PUBLIC "-//W3C//DTD SVG 1.1//EN"
  "http://www.w3.org/Graphics/SVG/1.1/DTD/svg11.dtd">
<svg height="181.8pt" version="1.1" viewBox="0 0 349.2 181.8" width="349.2pt" xmlns="http://www.w3.org/2000/svg" xmlns:xlink="http://www.w3.org/1999/xlink">
 <metadata>
  <rdf:RDF xmlns:cc="http://creativecommons.org/ns#" xmlns:dc="http://purl.org/dc/elements/1.1/" xmlns:rdf="http://www.w3.org/1999/02/22-rdf-syntax-ns#">
   <cc:Work>
    <dc:type rdf:resource="http://purl.org/dc/dcmitype/StillImage"/>
    <dc:date>2021-09-27T21:35:28.000698</dc:date>
    <dc:format>image/svg+xml</dc:format>
    <dc:creator>
     <cc:Agent>
      <dc:title>Matplotlib v3.4.3, https://matplotlib.org/</dc:title>
     </cc:Agent>
    </dc:creator>
   </cc:Work>
  </rdf:RDF>
 </metadata>
 <defs>
  <style type="text/css">*{stroke-linecap:butt;stroke-linejoin:round;}</style>
 </defs>
 <g id="figure_1">
  <g id="patch_1">
   <path d="M 0 181.8 
L 349.2 181.8 
L 349.2 0 
L 0 0 
z
" style="fill:none;"/>
  </g>
  <g id="axes_1">
   <g id="line2d_1">
    <path clip-path="url(#p0e9390b226)" d="M 49.05 35.1 
L 216.45 90.9 
" style="fill:none;stroke:#000000;stroke-linecap:square;stroke-width:0.25;"/>
   </g>
   <g id="line2d_2">
    <path clip-path="url(#p0e9390b226)" d="M 49.05 90.9 
L 216.45 90.9 
" style="fill:none;stroke:#000000;stroke-linecap:square;stroke-width:0.25;"/>
   </g>
   <g id="line2d_3">
    <path clip-path="url(#p0e9390b226)" d="M 49.05 146.7 
L 216.45 90.9 
" style="fill:none;stroke:#000000;stroke-linecap:square;stroke-width:0.25;"/>
   </g>
   <g id="text_1">
    <!-- -10 -->
    <g transform="translate(124.130076 55.862146)rotate(-341.565051)scale(0.1 -0.1)">
     <defs>
      <path d="M 313 2009 
L 1997 2009 
L 1997 1497 
L 313 1497 
L 313 2009 
z
" id="DejaVuSans-2d" transform="scale(0.015625)"/>
      <path d="M 794 531 
L 1825 531 
L 1825 4091 
L 703 3866 
L 703 4441 
L 1819 4666 
L 2450 4666 
L 2450 531 
L 3481 531 
L 3481 0 
L 794 0 
L 794 531 
z
" id="DejaVuSans-31" transform="scale(0.015625)"/>
      <path d="M 2034 4250 
Q 1547 4250 1301 3770 
Q 1056 3291 1056 2328 
Q 1056 1369 1301 889 
Q 1547 409 2034 409 
Q 2525 409 2770 889 
Q 3016 1369 3016 2328 
Q 3016 3291 2770 3770 
Q 2525 4250 2034 4250 
z
M 2034 4750 
Q 2819 4750 3233 4129 
Q 3647 3509 3647 2328 
Q 3647 1150 3233 529 
Q 2819 -91 2034 -91 
Q 1250 -91 836 529 
Q 422 1150 422 2328 
Q 422 3509 836 4129 
Q 1250 4750 2034 4750 
z
" id="DejaVuSans-30" transform="scale(0.015625)"/>
     </defs>
     <use xlink:href="#DejaVuSans-2d"/>
     <use x="36.083984" xlink:href="#DejaVuSans-31"/>
     <use x="99.707031" xlink:href="#DejaVuSans-30"/>
    </g>
   </g>
   <g id="text_2">
    <!-- 20 -->
    <g transform="translate(126.3875 88.820312)rotate(-0)scale(0.1 -0.1)">
     <defs>
      <path d="M 1228 531 
L 3431 531 
L 3431 0 
L 469 0 
L 469 531 
Q 828 903 1448 1529 
Q 2069 2156 2228 2338 
Q 2531 2678 2651 2914 
Q 2772 3150 2772 3378 
Q 2772 3750 2511 3984 
Q 2250 4219 1831 4219 
Q 1534 4219 1204 4116 
Q 875 4013 500 3803 
L 500 4441 
Q 881 4594 1212 4672 
Q 1544 4750 1819 4750 
Q 2544 4750 2975 4387 
Q 3406 4025 3406 3419 
Q 3406 3131 3298 2873 
Q 3191 2616 2906 2266 
Q 2828 2175 2409 1742 
Q 1991 1309 1228 531 
z
" id="DejaVuSans-32" transform="scale(0.015625)"/>
     </defs>
     <use xlink:href="#DejaVuSans-32"/>
     <use x="63.623047" xlink:href="#DejaVuSans-30"/>
    </g>
   </g>
   <g id="text_3">
    <!-- 20 -->
    <g transform="translate(127.586594 116.827035)rotate(-18.434949)scale(0.1 -0.1)">
     <use xlink:href="#DejaVuSans-32"/>
     <use x="63.623047" xlink:href="#DejaVuSans-30"/>
    </g>
   </g>
   <g id="patch_2">
    <path clip-path="url(#p0e9390b226)" d="M 49.05 57.42 
C 54.969333 57.42 60.647023 55.068224 64.832623 50.882623 
C 69.018224 46.697023 71.37 41.019333 71.37 35.1 
C 71.37 29.180667 69.018224 23.502977 64.832623 19.317377 
C 60.647023 15.131776 54.969333 12.78 49.05 12.78 
C 43.130667 12.78 37.452977 15.131776 33.267377 19.317377 
C 29.081776 23.502977 26.73 29.180667 26.73 35.1 
C 26.73 41.019333 29.081776 46.697023 33.267377 50.882623 
C 37.452977 55.068224 43.130667 57.42 49.05 57.42 
z
" style="fill:#ffffff;stroke:#1f77b4;stroke-linejoin:miter;"/>
   </g>
   <g id="patch_3">
    <path clip-path="url(#p0e9390b226)" d="M 49.05 113.22 
C 54.969333 113.22 60.647023 110.868224 64.832623 106.682623 
C 69.018224 102.497023 71.37 96.819333 71.37 90.9 
C 71.37 84.980667 69.018224 79.302977 64.832623 75.117377 
C 60.647023 70.931776 54.969333 68.58 49.05 68.58 
C 43.130667 68.58 37.452977 70.931776 33.267377 75.117377 
C 29.081776 79.302977 26.73 84.980667 26.73 90.9 
C 26.73 96.819333 29.081776 102.497023 33.267377 106.682623 
C 37.452977 110.868224 43.130667 113.22 49.05 113.22 
z
" style="fill:#ffffff;stroke:#1f77b4;stroke-linejoin:miter;"/>
   </g>
   <g id="patch_4">
    <path clip-path="url(#p0e9390b226)" d="M 49.05 169.02 
C 54.969333 169.02 60.647023 166.668224 64.832623 162.482623 
C 69.018224 158.297023 71.37 152.619333 71.37 146.7 
C 71.37 140.780667 69.018224 135.102977 64.832623 130.917377 
C 60.647023 126.731776 54.969333 124.38 49.05 124.38 
C 43.130667 124.38 37.452977 126.731776 33.267377 130.917377 
C 29.081776 135.102977 26.73 140.780667 26.73 146.7 
C 26.73 152.619333 29.081776 158.297023 33.267377 162.482623 
C 37.452977 166.668224 43.130667 169.02 49.05 169.02 
z
" style="fill:#ffffff;stroke:#1f77b4;stroke-linejoin:miter;"/>
   </g>
   <g id="patch_5">
    <path clip-path="url(#p0e9390b226)" d="M 216.45 113.22 
C 222.369333 113.22 228.047023 110.868224 232.232623 106.682623 
C 236.418224 102.497023 238.77 96.819333 238.77 90.9 
C 238.77 84.980667 236.418224 79.302977 232.232623 75.117377 
C 228.047023 70.931776 222.369333 68.58 216.45 68.58 
C 210.530667 68.58 204.852977 70.931776 200.667377 75.117377 
C 196.481776 79.302977 194.13 84.980667 194.13 90.9 
C 194.13 96.819333 196.481776 102.497023 200.667377 106.682623 
C 204.852977 110.868224 210.530667 113.22 216.45 113.22 
z
" style="fill:#ffffff;stroke:#ff7f0e;stroke-linejoin:miter;"/>
   </g>
   <g id="text_4">
    <!-- $a_{0}^{[0]}$ -->
    <g transform="translate(42.05 38.9)scale(0.1 -0.1)">
     <defs>
      <path d="M 1113 -72 
Q 709 -72 476 233 
Q 244 538 244 953 
Q 244 1363 456 1803 
Q 669 2244 1030 2536 
Q 1391 2828 1806 2828 
Q 1997 2828 2147 2725 
Q 2297 2622 2381 2444 
Q 2453 2700 2663 2700 
Q 2744 2700 2798 2651 
Q 2853 2603 2853 2522 
Q 2853 2503 2851 2493 
Q 2850 2484 2847 2472 
L 2400 684 
Q 2356 494 2356 372 
Q 2356 97 2541 97 
Q 2741 97 2845 351 
Q 2950 606 3022 941 
Q 3034 978 3072 978 
L 3150 978 
Q 3175 978 3190 956 
Q 3206 934 3206 916 
Q 3094 469 2961 198 
Q 2828 -72 2528 -72 
Q 2313 -72 2147 54 
Q 1981 181 1941 391 
Q 1528 -72 1113 -72 
z
M 1119 97 
Q 1350 97 1567 270 
Q 1784 444 1941 678 
Q 1947 684 1947 697 
L 2291 2088 
L 2297 2106 
Q 2259 2334 2132 2498 
Q 2006 2663 1791 2663 
Q 1575 2663 1389 2486 
Q 1203 2309 1075 2069 
Q 950 1813 836 1366 
Q 722 919 722 672 
Q 722 450 817 273 
Q 913 97 1119 97 
z
" id="Cmmi10-61" transform="scale(0.015625)"/>
      <path d="M 756 -1600 
L 756 4800 
L 1631 4800 
L 1631 4544 
L 1013 4544 
L 1013 -1344 
L 1631 -1344 
L 1631 -1600 
L 756 -1600 
z
" id="Cmr10-5b" transform="scale(0.015625)"/>
      <path d="M 1600 -141 
Q 816 -141 533 504 
Q 250 1150 250 2041 
Q 250 2597 351 3087 
Q 453 3578 754 3920 
Q 1056 4263 1600 4263 
Q 2022 4263 2290 4056 
Q 2559 3850 2700 3523 
Q 2841 3197 2892 2823 
Q 2944 2450 2944 2041 
Q 2944 1491 2842 1011 
Q 2741 531 2444 195 
Q 2147 -141 1600 -141 
z
M 1600 25 
Q 1956 25 2131 390 
Q 2306 756 2347 1200 
Q 2388 1644 2388 2144 
Q 2388 2625 2347 3031 
Q 2306 3438 2132 3767 
Q 1959 4097 1600 4097 
Q 1238 4097 1063 3765 
Q 888 3434 847 3029 
Q 806 2625 806 2144 
Q 806 1788 823 1472 
Q 841 1156 916 820 
Q 991 484 1158 254 
Q 1325 25 1600 25 
z
" id="Cmr10-30" transform="scale(0.015625)"/>
      <path d="M 141 -1600 
L 141 -1344 
L 763 -1344 
L 763 4544 
L 141 4544 
L 141 4800 
L 1019 4800 
L 1019 -1600 
L 141 -1600 
z
" id="Cmr10-5d" transform="scale(0.015625)"/>
     </defs>
     <use transform="translate(0 0.382812)" xlink:href="#Cmmi10-61"/>
     <use transform="translate(59.086484 51.5)scale(0.7)" xlink:href="#Cmr10-5b"/>
     <use transform="translate(78.466367 51.5)scale(0.7)" xlink:href="#Cmr10-30"/>
     <use transform="translate(113.466367 51.5)scale(0.7)" xlink:href="#Cmr10-5d"/>
     <use transform="translate(52.783203 -25.126563)scale(0.7)" xlink:href="#Cmr10-30"/>
    </g>
   </g>
   <g id="text_5">
    <!-- $a_{1}^{[0]}$ -->
    <g transform="translate(42.05 94.8)scale(0.1 -0.1)">
     <defs>
      <path d="M 594 0 
L 594 225 
Q 1394 225 1394 428 
L 1394 3788 
Q 1063 3628 556 3628 
L 556 3853 
Q 1341 3853 1741 4263 
L 1831 4263 
Q 1853 4263 1873 4245 
Q 1894 4228 1894 4206 
L 1894 428 
Q 1894 225 2694 225 
L 2694 0 
L 594 0 
z
" id="Cmr10-31" transform="scale(0.015625)"/>
     </defs>
     <use transform="translate(0 0.382812)" xlink:href="#Cmmi10-61"/>
     <use transform="translate(59.086484 51.5)scale(0.7)" xlink:href="#Cmr10-5b"/>
     <use transform="translate(78.466367 51.5)scale(0.7)" xlink:href="#Cmr10-30"/>
     <use transform="translate(113.466367 51.5)scale(0.7)" xlink:href="#Cmr10-5d"/>
     <use transform="translate(52.783203 -25.126563)scale(0.7)" xlink:href="#Cmr10-31"/>
    </g>
   </g>
   <g id="text_6">
    <!-- $a_{2}^{[0]}$ -->
    <g transform="translate(42.05 150.6)scale(0.1 -0.1)">
     <defs>
      <path d="M 319 0 
L 319 172 
Q 319 188 331 206 
L 1325 1306 
Q 1550 1550 1690 1715 
Q 1831 1881 1968 2097 
Q 2106 2313 2186 2536 
Q 2266 2759 2266 3009 
Q 2266 3272 2169 3511 
Q 2072 3750 1880 3894 
Q 1688 4038 1416 4038 
Q 1138 4038 916 3870 
Q 694 3703 603 3438 
Q 628 3444 672 3444 
Q 816 3444 917 3347 
Q 1019 3250 1019 3097 
Q 1019 2950 917 2848 
Q 816 2747 672 2747 
Q 522 2747 420 2851 
Q 319 2956 319 3097 
Q 319 3338 409 3548 
Q 500 3759 670 3923 
Q 841 4088 1055 4175 
Q 1269 4263 1509 4263 
Q 1875 4263 2190 4108 
Q 2506 3953 2690 3670 
Q 2875 3388 2875 3009 
Q 2875 2731 2753 2481 
Q 2631 2231 2440 2026 
Q 2250 1822 1953 1562 
Q 1656 1303 1563 1216 
L 838 519 
L 1453 519 
Q 1906 519 2211 526 
Q 2516 534 2534 550 
Q 2609 631 2688 1141 
L 2875 1141 
L 2694 0 
L 319 0 
z
" id="Cmr10-32" transform="scale(0.015625)"/>
     </defs>
     <use transform="translate(0 0.382812)" xlink:href="#Cmmi10-61"/>
     <use transform="translate(59.086484 51.5)scale(0.7)" xlink:href="#Cmr10-5b"/>
     <use transform="translate(78.466367 51.5)scale(0.7)" xlink:href="#Cmr10-30"/>
     <use transform="translate(113.466367 51.5)scale(0.7)" xlink:href="#Cmr10-5d"/>
     <use transform="translate(52.783203 -25.126563)scale(0.7)" xlink:href="#Cmr10-32"/>
    </g>
   </g>
   <g id="text_7">
    <!-- $a_{0}^{[1]}$ -->
    <g transform="translate(209.45 94.7)scale(0.1 -0.1)">
     <use transform="translate(0 0.382812)" xlink:href="#Cmmi10-61"/>
     <use transform="translate(59.086484 51.5)scale(0.7)" xlink:href="#Cmr10-5b"/>
     <use transform="translate(78.466367 51.5)scale(0.7)" xlink:href="#Cmr10-31"/>
     <use transform="translate(113.466367 51.5)scale(0.7)" xlink:href="#Cmr10-5d"/>
     <use transform="translate(52.783203 -25.126563)scale(0.7)" xlink:href="#Cmr10-30"/>
    </g>
   </g>
  </g>
 </g>
 <defs>
  <clipPath id="p0e9390b226">
   <rect height="167.4" width="334.8" x="7.2" y="7.2"/>
  </clipPath>
 </defs>
</svg>
