<?xml version="1.0" encoding="utf-8" standalone="no"?>
<!DOCTYPE svg PUBLIC "-//W3C//DTD SVG 1.1//EN"
  "http://www.w3.org/Graphics/SVG/1.1/DTD/svg11.dtd">
<!-- Created with matplotlib (https://matplotlib.org/) -->
<svg height="415.72492pt" version="1.1" viewBox="0 0 582.691406 415.72492" width="582.691406pt" xmlns="http://www.w3.org/2000/svg" xmlns:xlink="http://www.w3.org/1999/xlink">
 <metadata>
  <rdf:RDF xmlns:cc="http://creativecommons.org/ns#" xmlns:dc="http://purl.org/dc/elements/1.1/" xmlns:rdf="http://www.w3.org/1999/02/22-rdf-syntax-ns#">
   <cc:Work>
    <dc:type rdf:resource="http://purl.org/dc/dcmitype/StillImage"/>
    <dc:date>2021-09-27T19:37:12.842152</dc:date>
    <dc:format>image/svg+xml</dc:format>
    <dc:creator>
     <cc:Agent>
      <dc:title>Matplotlib v3.3.4, https://matplotlib.org/</dc:title>
     </cc:Agent>
    </dc:creator>
   </cc:Work>
  </rdf:RDF>
 </metadata>
 <defs>
  <style type="text/css">*{stroke-linecap:butt;stroke-linejoin:round;}</style>
 </defs>
 <g id="figure_1">
  <g id="axes_1">
   <g id="table_1">
    <g id="patch_1">
     <path d="M 40.467877 49.406856 
L 60.161994 49.406856 
L 60.161994 29.480873 
L 40.467877 29.480873 
z
" style="fill:#ffffff;stroke:#000000;stroke-linejoin:miter;"/>
    </g>
    <g id="patch_2">
     <path d="M 60.161994 49.406856 
L 79.856112 49.406856 
L 79.856112 29.480873 
L 60.161994 29.480873 
z
" style="fill:#ffffff;stroke:#000000;stroke-linejoin:miter;"/>
    </g>
    <g id="patch_3">
     <path d="M 79.856112 49.406856 
L 99.55023 49.406856 
L 99.55023 29.480873 
L 79.856112 29.480873 
z
" style="fill:#ffffff;stroke:#000000;stroke-linejoin:miter;"/>
    </g>
    <g id="patch_4">
     <path d="M 99.55023 49.406856 
L 119.244347 49.406856 
L 119.244347 29.480873 
L 99.55023 29.480873 
z
" style="fill:#ffffff;stroke:#000000;stroke-linejoin:miter;"/>
    </g>
    <g id="patch_5">
     <path d="M 119.244347 49.406856 
L 138.938465 49.406856 
L 138.938465 29.480873 
L 119.244347 29.480873 
z
" style="fill:#ffffff;stroke:#000000;stroke-linejoin:miter;"/>
    </g>
    <g id="patch_6">
     <path d="M 138.938465 49.406856 
L 158.632583 49.406856 
L 158.632583 29.480873 
L 138.938465 29.480873 
z
" style="fill:#ffffff;stroke:#000000;stroke-linejoin:miter;"/>
    </g>
    <g id="patch_7">
     <path d="M 40.467877 69.33284 
L 60.161994 69.33284 
L 60.161994 49.406856 
L 40.467877 49.406856 
z
" style="fill:#ffffff;stroke:#000000;stroke-linejoin:miter;"/>
    </g>
    <g id="patch_8">
     <path d="M 60.161994 69.33284 
L 79.856112 69.33284 
L 79.856112 49.406856 
L 60.161994 49.406856 
z
" style="fill:#ffffff;stroke:#000000;stroke-linejoin:miter;"/>
    </g>
    <g id="patch_9">
     <path d="M 79.856112 69.33284 
L 99.55023 69.33284 
L 99.55023 49.406856 
L 79.856112 49.406856 
z
" style="fill:#ffffff;stroke:#000000;stroke-linejoin:miter;"/>
    </g>
    <g id="patch_10">
     <path d="M 99.55023 69.33284 
L 119.244347 69.33284 
L 119.244347 49.406856 
L 99.55023 49.406856 
z
" style="fill:#ffffff;stroke:#000000;stroke-linejoin:miter;"/>
    </g>
    <g id="patch_11">
     <path d="M 119.244347 69.33284 
L 138.938465 69.33284 
L 138.938465 49.406856 
L 119.244347 49.406856 
z
" style="fill:#ffffff;stroke:#000000;stroke-linejoin:miter;"/>
    </g>
    <g id="patch_12">
     <path d="M 138.938465 69.33284 
L 158.632583 69.33284 
L 158.632583 49.406856 
L 138.938465 49.406856 
z
" style="fill:#ffffff;stroke:#000000;stroke-linejoin:miter;"/>
    </g>
    <g id="patch_13">
     <path d="M 40.467877 89.258824 
L 60.161994 89.258824 
L 60.161994 69.33284 
L 40.467877 69.33284 
z
" style="fill:#ffffff;stroke:#000000;stroke-linejoin:miter;"/>
    </g>
    <g id="patch_14">
     <path d="M 60.161994 89.258824 
L 79.856112 89.258824 
L 79.856112 69.33284 
L 60.161994 69.33284 
z
" style="fill:#ffffff;stroke:#000000;stroke-linejoin:miter;"/>
    </g>
    <g id="patch_15">
     <path d="M 79.856112 89.258824 
L 99.55023 89.258824 
L 99.55023 69.33284 
L 79.856112 69.33284 
z
" style="fill:#ffffff;stroke:#000000;stroke-linejoin:miter;"/>
    </g>
    <g id="patch_16">
     <path d="M 99.55023 89.258824 
L 119.244347 89.258824 
L 119.244347 69.33284 
L 99.55023 69.33284 
z
" style="fill:#ffffff;stroke:#000000;stroke-linejoin:miter;"/>
    </g>
    <g id="patch_17">
     <path d="M 119.244347 89.258824 
L 138.938465 89.258824 
L 138.938465 69.33284 
L 119.244347 69.33284 
z
" style="fill:#ffffff;stroke:#000000;stroke-linejoin:miter;"/>
    </g>
    <g id="patch_18">
     <path d="M 138.938465 89.258824 
L 158.632583 89.258824 
L 158.632583 69.33284 
L 138.938465 69.33284 
z
" style="fill:#ffffff;stroke:#000000;stroke-linejoin:miter;"/>
    </g>
    <g id="patch_19">
     <path d="M 40.467877 109.184807 
L 60.161994 109.184807 
L 60.161994 89.258824 
L 40.467877 89.258824 
z
" style="fill:#ffffff;stroke:#000000;stroke-linejoin:miter;"/>
    </g>
    <g id="patch_20">
     <path d="M 60.161994 109.184807 
L 79.856112 109.184807 
L 79.856112 89.258824 
L 60.161994 89.258824 
z
" style="fill:#ffffff;stroke:#000000;stroke-linejoin:miter;"/>
    </g>
    <g id="patch_21">
     <path d="M 79.856112 109.184807 
L 99.55023 109.184807 
L 99.55023 89.258824 
L 79.856112 89.258824 
z
" style="fill:#ffffff;stroke:#000000;stroke-linejoin:miter;"/>
    </g>
    <g id="patch_22">
     <path d="M 99.55023 109.184807 
L 119.244347 109.184807 
L 119.244347 89.258824 
L 99.55023 89.258824 
z
" style="fill:#ffffff;stroke:#000000;stroke-linejoin:miter;"/>
    </g>
    <g id="patch_23">
     <path d="M 119.244347 109.184807 
L 138.938465 109.184807 
L 138.938465 89.258824 
L 119.244347 89.258824 
z
" style="fill:#ffffff;stroke:#000000;stroke-linejoin:miter;"/>
    </g>
    <g id="patch_24">
     <path d="M 138.938465 109.184807 
L 158.632583 109.184807 
L 158.632583 89.258824 
L 138.938465 89.258824 
z
" style="fill:#ffffff;stroke:#000000;stroke-linejoin:miter;"/>
    </g>
    <g id="patch_25">
     <path d="M 40.467877 129.110791 
L 60.161994 129.110791 
L 60.161994 109.184807 
L 40.467877 109.184807 
z
" style="fill:#ffffff;stroke:#000000;stroke-linejoin:miter;"/>
    </g>
    <g id="patch_26">
     <path d="M 60.161994 129.110791 
L 79.856112 129.110791 
L 79.856112 109.184807 
L 60.161994 109.184807 
z
" style="fill:#ffffff;stroke:#000000;stroke-linejoin:miter;"/>
    </g>
    <g id="patch_27">
     <path d="M 79.856112 129.110791 
L 99.55023 129.110791 
L 99.55023 109.184807 
L 79.856112 109.184807 
z
" style="fill:#ffffff;stroke:#000000;stroke-linejoin:miter;"/>
    </g>
    <g id="patch_28">
     <path d="M 99.55023 129.110791 
L 119.244347 129.110791 
L 119.244347 109.184807 
L 99.55023 109.184807 
z
" style="fill:#ffffff;stroke:#000000;stroke-linejoin:miter;"/>
    </g>
    <g id="patch_29">
     <path d="M 119.244347 129.110791 
L 138.938465 129.110791 
L 138.938465 109.184807 
L 119.244347 109.184807 
z
" style="fill:#ffffff;stroke:#000000;stroke-linejoin:miter;"/>
    </g>
    <g id="patch_30">
     <path d="M 138.938465 129.110791 
L 158.632583 129.110791 
L 158.632583 109.184807 
L 138.938465 109.184807 
z
" style="fill:#ffffff;stroke:#000000;stroke-linejoin:miter;"/>
    </g>
    <g id="patch_31">
     <path d="M 40.467877 149.036774 
L 60.161994 149.036774 
L 60.161994 129.110791 
L 40.467877 129.110791 
z
" style="fill:#ffffff;stroke:#000000;stroke-linejoin:miter;"/>
    </g>
    <g id="patch_32">
     <path d="M 60.161994 149.036774 
L 79.856112 149.036774 
L 79.856112 129.110791 
L 60.161994 129.110791 
z
" style="fill:#ffffff;stroke:#000000;stroke-linejoin:miter;"/>
    </g>
    <g id="patch_33">
     <path d="M 79.856112 149.036774 
L 99.55023 149.036774 
L 99.55023 129.110791 
L 79.856112 129.110791 
z
" style="fill:#ffffff;stroke:#000000;stroke-linejoin:miter;"/>
    </g>
    <g id="patch_34">
     <path d="M 99.55023 149.036774 
L 119.244347 149.036774 
L 119.244347 129.110791 
L 99.55023 129.110791 
z
" style="fill:#ffffff;stroke:#000000;stroke-linejoin:miter;"/>
    </g>
    <g id="patch_35">
     <path d="M 119.244347 149.036774 
L 138.938465 149.036774 
L 138.938465 129.110791 
L 119.244347 129.110791 
z
" style="fill:#ffffff;stroke:#000000;stroke-linejoin:miter;"/>
    </g>
    <g id="patch_36">
     <path d="M 138.938465 149.036774 
L 158.632583 149.036774 
L 158.632583 129.110791 
L 138.938465 129.110791 
z
" style="fill:#ffffff;stroke:#000000;stroke-linejoin:miter;"/>
    </g>
   </g>
   <g id="text_1">
    <!-- A -->
    <g transform="translate(7.230469 18.597656)scale(0.15 -0.15)">
     <defs>
      <path d="M 34.1875 63.1875 
L 20.796875 26.90625 
L 47.609375 26.90625 
z
M 28.609375 72.90625 
L 39.796875 72.90625 
L 67.578125 0 
L 57.328125 0 
L 50.6875 18.703125 
L 17.828125 18.703125 
L 11.1875 0 
L 0.78125 0 
z
" id="DejaVuSans-65"/>
     </defs>
     <use xlink:href="#DejaVuSans-65"/>
    </g>
   </g>
  </g>
  <g id="axes_2">
   <g id="table_2">
    <g id="patch_37">
     <path d="M 266.95023 79.295832 
L 286.644347 79.295832 
L 286.644347 59.369848 
L 266.95023 59.369848 
z
" style="fill:#ffffff;stroke:#000000;stroke-linejoin:miter;"/>
    </g>
    <g id="patch_38">
     <path d="M 286.644347 79.295832 
L 306.338465 79.295832 
L 306.338465 59.369848 
L 286.644347 59.369848 
z
" style="fill:#ffffff;stroke:#000000;stroke-linejoin:miter;"/>
    </g>
    <g id="patch_39">
     <path d="M 306.338465 79.295832 
L 326.032583 79.295832 
L 326.032583 59.369848 
L 306.338465 59.369848 
z
" style="fill:#ffffff;stroke:#000000;stroke-linejoin:miter;"/>
    </g>
    <g id="patch_40">
     <path d="M 266.95023 99.221815 
L 286.644347 99.221815 
L 286.644347 79.295832 
L 266.95023 79.295832 
z
" style="fill:#ffffff;stroke:#000000;stroke-linejoin:miter;"/>
    </g>
    <g id="patch_41">
     <path d="M 286.644347 99.221815 
L 306.338465 99.221815 
L 306.338465 79.295832 
L 286.644347 79.295832 
z
" style="fill:#ffffff;stroke:#000000;stroke-linejoin:miter;"/>
    </g>
    <g id="patch_42">
     <path d="M 306.338465 99.221815 
L 326.032583 99.221815 
L 326.032583 79.295832 
L 306.338465 79.295832 
z
" style="fill:#ffffff;stroke:#000000;stroke-linejoin:miter;"/>
    </g>
    <g id="patch_43">
     <path d="M 266.95023 119.147799 
L 286.644347 119.147799 
L 286.644347 99.221815 
L 266.95023 99.221815 
z
" style="fill:#ffffff;stroke:#000000;stroke-linejoin:miter;"/>
    </g>
    <g id="patch_44">
     <path d="M 286.644347 119.147799 
L 306.338465 119.147799 
L 306.338465 99.221815 
L 286.644347 99.221815 
z
" style="fill:#ffffff;stroke:#000000;stroke-linejoin:miter;"/>
    </g>
    <g id="patch_45">
     <path d="M 306.338465 119.147799 
L 326.032583 119.147799 
L 326.032583 99.221815 
L 306.338465 99.221815 
z
" style="fill:#ffffff;stroke:#000000;stroke-linejoin:miter;"/>
    </g>
   </g>
   <g id="text_2">
    <!-- * -->
    <g transform="translate(214.432583 93.397886)scale(0.15 -0.15)">
     <defs>
      <path d="M 47.015625 60.890625 
L 29.5 51.421875 
L 47.015625 41.890625 
L 44.1875 37.109375 
L 27.78125 47.015625 
L 27.78125 28.609375 
L 22.21875 28.609375 
L 22.21875 47.015625 
L 5.8125 37.109375 
L 2.984375 41.890625 
L 20.515625 51.421875 
L 2.984375 60.890625 
L 5.8125 65.71875 
L 22.21875 55.8125 
L 22.21875 74.21875 
L 27.78125 74.21875 
L 27.78125 55.8125 
L 44.1875 65.71875 
z
" id="DejaVuSans-42"/>
     </defs>
     <use xlink:href="#DejaVuSans-42"/>
    </g>
   </g>
  </g>
  <g id="axes_3">
   <g id="table_3">
    <g id="patch_46">
     <path d="M 454.044347 69.33284 
L 473.738465 69.33284 
L 473.738465 49.406856 
L 454.044347 49.406856 
z
" style="fill:#ffffff;stroke:#000000;stroke-linejoin:miter;"/>
    </g>
    <g id="patch_47">
     <path d="M 473.738465 69.33284 
L 493.432583 69.33284 
L 493.432583 49.406856 
L 473.738465 49.406856 
z
" style="fill:#ffffff;stroke:#000000;stroke-linejoin:miter;"/>
    </g>
    <g id="patch_48">
     <path d="M 493.432583 69.33284 
L 513.1267 69.33284 
L 513.1267 49.406856 
L 493.432583 49.406856 
z
" style="fill:#ffffff;stroke:#000000;stroke-linejoin:miter;"/>
    </g>
    <g id="patch_49">
     <path d="M 513.1267 69.33284 
L 532.820818 69.33284 
L 532.820818 49.406856 
L 513.1267 49.406856 
z
" style="fill:#ffffff;stroke:#000000;stroke-linejoin:miter;"/>
    </g>
    <g id="patch_50">
     <path d="M 454.044347 89.258824 
L 473.738465 89.258824 
L 473.738465 69.33284 
L 454.044347 69.33284 
z
" style="fill:#ffffff;stroke:#000000;stroke-linejoin:miter;"/>
    </g>
    <g id="patch_51">
     <path d="M 473.738465 89.258824 
L 493.432583 89.258824 
L 493.432583 69.33284 
L 473.738465 69.33284 
z
" style="fill:#ffffff;stroke:#000000;stroke-linejoin:miter;"/>
    </g>
    <g id="patch_52">
     <path d="M 493.432583 89.258824 
L 513.1267 89.258824 
L 513.1267 69.33284 
L 493.432583 69.33284 
z
" style="fill:#ffffff;stroke:#000000;stroke-linejoin:miter;"/>
    </g>
    <g id="patch_53">
     <path d="M 513.1267 89.258824 
L 532.820818 89.258824 
L 532.820818 69.33284 
L 513.1267 69.33284 
z
" style="fill:#ffffff;stroke:#000000;stroke-linejoin:miter;"/>
    </g>
    <g id="patch_54">
     <path d="M 454.044347 109.184807 
L 473.738465 109.184807 
L 473.738465 89.258824 
L 454.044347 89.258824 
z
" style="fill:#ffffff;stroke:#000000;stroke-linejoin:miter;"/>
    </g>
    <g id="patch_55">
     <path d="M 473.738465 109.184807 
L 493.432583 109.184807 
L 493.432583 89.258824 
L 473.738465 89.258824 
z
" style="fill:#ffffff;stroke:#000000;stroke-linejoin:miter;"/>
    </g>
    <g id="patch_56">
     <path d="M 493.432583 109.184807 
L 513.1267 109.184807 
L 513.1267 89.258824 
L 493.432583 89.258824 
z
" style="fill:#ffffff;stroke:#000000;stroke-linejoin:miter;"/>
    </g>
    <g id="patch_57">
     <path d="M 513.1267 109.184807 
L 532.820818 109.184807 
L 532.820818 89.258824 
L 513.1267 89.258824 
z
" style="fill:#ffffff;stroke:#000000;stroke-linejoin:miter;"/>
    </g>
    <g id="patch_58">
     <path d="M 454.044347 129.110791 
L 473.738465 129.110791 
L 473.738465 109.184807 
L 454.044347 109.184807 
z
" style="fill:#ffffff;stroke:#000000;stroke-linejoin:miter;"/>
    </g>
    <g id="patch_59">
     <path d="M 473.738465 129.110791 
L 493.432583 129.110791 
L 493.432583 109.184807 
L 473.738465 109.184807 
z
" style="fill:#ffffff;stroke:#000000;stroke-linejoin:miter;"/>
    </g>
    <g id="patch_60">
     <path d="M 493.432583 129.110791 
L 513.1267 129.110791 
L 513.1267 109.184807 
L 493.432583 109.184807 
z
" style="fill:#ffffff;stroke:#000000;stroke-linejoin:miter;"/>
    </g>
    <g id="patch_61">
     <path d="M 513.1267 129.110791 
L 532.820818 129.110791 
L 532.820818 109.184807 
L 513.1267 109.184807 
z
" style="fill:#ffffff;stroke:#000000;stroke-linejoin:miter;"/>
    </g>
   </g>
   <g id="text_3">
    <!-- = -->
    <g transform="translate(378.55023 93.397886)scale(0.15 -0.15)">
     <defs>
      <path d="M 10.59375 45.40625 
L 73.1875 45.40625 
L 73.1875 37.203125 
L 10.59375 37.203125 
z
M 10.59375 25.484375 
L 73.1875 25.484375 
L 73.1875 17.1875 
L 10.59375 17.1875 
z
" id="DejaVuSans-61"/>
     </defs>
     <use xlink:href="#DejaVuSans-61"/>
    </g>
   </g>
  </g>
  <g id="axes_4">
   <g id="table_4">
    <g id="patch_62">
     <path d="M 79.856112 326.466096 
L 99.55023 326.466096 
L 99.55023 306.540113 
L 79.856112 306.540113 
z
" style="fill:#bff8ff;stroke:#000000;stroke-linejoin:miter;"/>
    </g>
    <g id="text_4">
     <!-- $2$ -->
     <g transform="translate(87.453171 318.986542)scale(0.09 -0.09)">
      <defs>
       <path d="M 4.984375 0 
L 4.984375 2.6875 
Q 4.984375 2.9375 5.171875 3.21875 
L 20.703125 20.40625 
Q 24.21875 24.21875 26.40625 26.796875 
Q 28.609375 29.390625 30.75 32.765625 
Q 32.90625 36.140625 34.15625 39.625 
Q 35.40625 43.109375 35.40625 47.015625 
Q 35.40625 51.125 33.890625 54.859375 
Q 32.375 58.59375 29.375 60.84375 
Q 26.375 63.09375 22.125 63.09375 
Q 17.78125 63.09375 14.3125 60.46875 
Q 10.84375 57.859375 9.421875 53.71875 
Q 9.8125 53.8125 10.5 53.8125 
Q 12.75 53.8125 14.328125 52.296875 
Q 15.921875 50.78125 15.921875 48.390625 
Q 15.921875 46.09375 14.328125 44.5 
Q 12.75 42.921875 10.5 42.921875 
Q 8.15625 42.921875 6.5625 44.546875 
Q 4.984375 46.1875 4.984375 48.390625 
Q 4.984375 52.15625 6.390625 55.4375 
Q 7.8125 58.734375 10.46875 61.296875 
Q 13.140625 63.875 16.484375 65.234375 
Q 19.828125 66.609375 23.578125 66.609375 
Q 29.296875 66.609375 34.21875 64.1875 
Q 39.15625 61.765625 42.03125 57.34375 
Q 44.921875 52.9375 44.921875 47.015625 
Q 44.921875 42.671875 43.015625 38.765625 
Q 41.109375 34.859375 38.125 31.65625 
Q 35.15625 28.46875 30.515625 24.40625 
Q 25.875 20.359375 24.421875 19 
L 13.09375 8.109375 
L 22.703125 8.109375 
Q 29.78125 8.109375 34.546875 8.21875 
Q 39.3125 8.34375 39.59375 8.59375 
Q 40.765625 9.859375 42 17.828125 
L 44.921875 17.828125 
L 42.09375 0 
z
" id="Cmr10-50"/>
      </defs>
      <use transform="translate(0 0.390625)" xlink:href="#Cmr10-50"/>
     </g>
    </g>
    <g id="patch_63">
     <path d="M 99.55023 326.466096 
L 119.244347 326.466096 
L 119.244347 306.540113 
L 99.55023 306.540113 
z
" style="fill:#80ffa1;stroke:#000000;stroke-linejoin:miter;"/>
    </g>
    <g id="text_5">
     <!-- $1$ -->
     <g transform="translate(107.147289 318.986542)scale(0.09 -0.09)">
      <defs>
       <path d="M 9.28125 0 
L 9.28125 3.515625 
Q 21.78125 3.515625 21.78125 6.6875 
L 21.78125 59.1875 
Q 16.609375 56.6875 8.6875 56.6875 
L 8.6875 60.203125 
Q 20.953125 60.203125 27.203125 66.609375 
L 28.609375 66.609375 
Q 28.953125 66.609375 29.265625 66.328125 
Q 29.59375 66.0625 29.59375 65.71875 
L 29.59375 6.6875 
Q 29.59375 3.515625 42.09375 3.515625 
L 42.09375 0 
z
" id="Cmr10-49"/>
      </defs>
      <use transform="translate(0 0.390625)" xlink:href="#Cmr10-49"/>
     </g>
    </g>
    <g id="patch_64">
     <path d="M 79.856112 346.39208 
L 99.55023 346.39208 
L 99.55023 326.466096 
L 79.856112 326.466096 
z
" style="fill:#ffffff;stroke:#000000;stroke-linejoin:miter;"/>
    </g>
    <g id="text_6">
     <!-- $3$ -->
     <g transform="translate(87.453171 338.912526)scale(0.09 -0.09)">
      <defs>
       <path d="M 9.515625 7.71875 
Q 11.859375 4.296875 15.8125 2.640625 
Q 19.78125 0.984375 24.3125 0.984375 
Q 30.125 0.984375 32.5625 5.9375 
Q 35.015625 10.890625 35.015625 17.1875 
Q 35.015625 20.015625 34.5 22.84375 
Q 33.984375 25.6875 32.765625 28.125 
Q 31.546875 30.5625 29.421875 32.03125 
Q 27.296875 33.5 24.21875 33.5 
L 17.578125 33.5 
Q 16.703125 33.5 16.703125 34.421875 
L 16.703125 35.296875 
Q 16.703125 36.078125 17.578125 36.078125 
L 23.09375 36.53125 
Q 26.609375 36.53125 28.921875 39.15625 
Q 31.25 41.796875 32.328125 45.578125 
Q 33.40625 49.359375 33.40625 52.78125 
Q 33.40625 57.5625 31.15625 60.640625 
Q 28.90625 63.71875 24.3125 63.71875 
Q 20.515625 63.71875 17.046875 62.28125 
Q 13.578125 60.84375 11.53125 57.90625 
Q 11.71875 57.953125 11.859375 57.984375 
Q 12.015625 58.015625 12.203125 58.015625 
Q 14.453125 58.015625 15.96875 56.453125 
Q 17.484375 54.890625 17.484375 52.6875 
Q 17.484375 50.53125 15.96875 48.96875 
Q 14.453125 47.40625 12.203125 47.40625 
Q 10.015625 47.40625 8.453125 48.96875 
Q 6.890625 50.53125 6.890625 52.6875 
Q 6.890625 56.984375 9.46875 60.15625 
Q 12.0625 63.328125 16.140625 64.96875 
Q 20.21875 66.609375 24.3125 66.609375 
Q 27.34375 66.609375 30.703125 65.703125 
Q 34.078125 64.796875 36.8125 63.109375 
Q 39.546875 61.421875 41.28125 58.78125 
Q 43.015625 56.15625 43.015625 52.78125 
Q 43.015625 48.578125 41.140625 45.015625 
Q 39.265625 41.453125 35.984375 38.859375 
Q 32.71875 36.28125 28.8125 35.015625 
Q 33.15625 34.1875 37.0625 31.734375 
Q 40.96875 29.296875 43.328125 25.484375 
Q 45.703125 21.6875 45.703125 17.28125 
Q 45.703125 11.765625 42.671875 7.296875 
Q 39.65625 2.828125 34.71875 0.3125 
Q 29.78125 -2.203125 24.3125 -2.203125 
Q 19.625 -2.203125 14.90625 -0.40625 
Q 10.203125 1.375 7.203125 4.9375 
Q 4.203125 8.5 4.203125 13.484375 
Q 4.203125 15.96875 5.859375 17.625 
Q 7.515625 19.28125 10.015625 19.28125 
Q 11.625 19.28125 12.96875 18.53125 
Q 14.3125 17.78125 15.0625 16.40625 
Q 15.828125 15.046875 15.828125 13.484375 
Q 15.828125 11.03125 14.109375 9.375 
Q 12.40625 7.71875 10.015625 7.71875 
z
" id="Cmr10-51"/>
      </defs>
      <use transform="translate(0 0.390625)" xlink:href="#Cmr10-51"/>
     </g>
    </g>
    <g id="patch_65">
     <path d="M 99.55023 346.39208 
L 119.244347 346.39208 
L 119.244347 326.466096 
L 99.55023 326.466096 
z
" style="fill:#ffffff;stroke:#000000;stroke-linejoin:miter;"/>
    </g>
    <g id="text_7">
     <!-- $2$ -->
     <g transform="translate(107.147289 338.912526)scale(0.09 -0.09)">
      <use transform="translate(0 0.390625)" xlink:href="#Cmr10-50"/>
     </g>
    </g>
   </g>
   <g id="text_8">
    <!-- B -->
    <g transform="translate(7.2 255.804929)scale(0.15 -0.15)">
     <defs>
      <path d="M 19.671875 34.8125 
L 19.671875 8.109375 
L 35.5 8.109375 
Q 43.453125 8.109375 47.28125 11.40625 
Q 51.125 14.703125 51.125 21.484375 
Q 51.125 28.328125 47.28125 31.5625 
Q 43.453125 34.8125 35.5 34.8125 
z
M 19.671875 64.796875 
L 19.671875 42.828125 
L 34.28125 42.828125 
Q 41.5 42.828125 45.03125 45.53125 
Q 48.578125 48.25 48.578125 53.8125 
Q 48.578125 59.328125 45.03125 62.0625 
Q 41.5 64.796875 34.28125 64.796875 
z
M 9.8125 72.90625 
L 35.015625 72.90625 
Q 46.296875 72.90625 52.390625 68.21875 
Q 58.5 63.53125 58.5 54.890625 
Q 58.5 48.1875 55.375 44.234375 
Q 52.25 40.28125 46.1875 39.3125 
Q 53.46875 37.75 57.5 32.78125 
Q 61.53125 27.828125 61.53125 20.40625 
Q 61.53125 10.640625 54.890625 5.3125 
Q 48.25 0 35.984375 0 
L 9.8125 0 
z
" id="DejaVuSans-66"/>
     </defs>
     <use xlink:href="#DejaVuSans-66"/>
    </g>
   </g>
  </g>
  <g id="axes_5">
   <g id="table_5">
    <g id="patch_66">
     <path d="M 266.95023 316.503104 
L 286.644347 316.503104 
L 286.644347 296.577121 
L 266.95023 296.577121 
z
" style="fill:#bff8ff;stroke:#000000;stroke-linejoin:miter;"/>
    </g>
    <g id="text_9">
     <!-- $1$ -->
     <g transform="translate(274.547289 309.02355)scale(0.09 -0.09)">
      <use transform="translate(0 0.390625)" xlink:href="#Cmr10-49"/>
     </g>
    </g>
    <g id="patch_67">
     <path d="M 286.644347 316.503104 
L 306.338465 316.503104 
L 306.338465 296.577121 
L 286.644347 296.577121 
z
" style="fill:#bff8ff;stroke:#000000;stroke-linejoin:miter;"/>
    </g>
    <g id="text_10">
     <!-- $2$ -->
     <g transform="translate(294.241406 309.02355)scale(0.09 -0.09)">
      <use transform="translate(0 0.390625)" xlink:href="#Cmr10-50"/>
     </g>
    </g>
    <g id="patch_68">
     <path d="M 306.338465 316.503104 
L 326.032583 316.503104 
L 326.032583 296.577121 
L 306.338465 296.577121 
z
" style="fill:#bff8ff;stroke:#000000;stroke-linejoin:miter;"/>
    </g>
    <g id="text_11">
     <!-- $1$ -->
     <g transform="translate(313.935524 309.02355)scale(0.09 -0.09)">
      <use transform="translate(0 0.390625)" xlink:href="#Cmr10-49"/>
     </g>
    </g>
    <g id="patch_69">
     <path d="M 266.95023 336.429088 
L 286.644347 336.429088 
L 286.644347 316.503104 
L 266.95023 316.503104 
z
" style="fill:#bff8ff;stroke:#000000;stroke-linejoin:miter;"/>
    </g>
    <g id="text_12">
     <!-- $2$ -->
     <g transform="translate(274.547289 328.949534)scale(0.09 -0.09)">
      <use transform="translate(0 0.390625)" xlink:href="#Cmr10-50"/>
     </g>
    </g>
    <g id="patch_70">
     <path d="M 286.644347 336.429088 
L 306.338465 336.429088 
L 306.338465 316.503104 
L 286.644347 316.503104 
z
" style="fill:#bff8ff;stroke:#000000;stroke-linejoin:miter;"/>
    </g>
    <g id="text_13">
     <!-- $0$ -->
     <g transform="translate(294.241406 328.949534)scale(0.09 -0.09)">
      <defs>
       <path d="M 25 -2.203125 
Q 12.75 -2.203125 8.328125 7.875 
Q 3.90625 17.96875 3.90625 31.890625 
Q 3.90625 40.578125 5.484375 48.234375 
Q 7.078125 55.90625 11.78125 61.25 
Q 16.5 66.609375 25 66.609375 
Q 31.59375 66.609375 35.78125 63.375 
Q 39.984375 60.15625 42.1875 55.046875 
Q 44.390625 49.953125 45.1875 44.109375 
Q 46 38.28125 46 31.890625 
Q 46 23.296875 44.40625 15.796875 
Q 42.828125 8.296875 38.1875 3.046875 
Q 33.546875 -2.203125 25 -2.203125 
z
M 25 0.390625 
Q 30.5625 0.390625 33.296875 6.09375 
Q 36.03125 11.8125 36.671875 18.75 
Q 37.3125 25.6875 37.3125 33.5 
Q 37.3125 41.015625 36.671875 47.359375 
Q 36.03125 53.71875 33.3125 58.859375 
Q 30.609375 64.015625 25 64.015625 
Q 19.34375 64.015625 16.609375 58.828125 
Q 13.875 53.65625 13.234375 47.328125 
Q 12.59375 41.015625 12.59375 33.5 
Q 12.59375 27.9375 12.859375 23 
Q 13.140625 18.0625 14.3125 12.8125 
Q 15.484375 7.5625 18.09375 3.96875 
Q 20.703125 0.390625 25 0.390625 
z
" id="Cmr10-48"/>
      </defs>
      <use transform="translate(0 0.390625)" xlink:href="#Cmr10-48"/>
     </g>
    </g>
    <g id="patch_71">
     <path d="M 306.338465 336.429088 
L 326.032583 336.429088 
L 326.032583 316.503104 
L 306.338465 316.503104 
z
" style="fill:#bff8ff;stroke:#000000;stroke-linejoin:miter;"/>
    </g>
    <g id="text_14">
     <!-- $1$ -->
     <g transform="translate(313.935524 328.949534)scale(0.09 -0.09)">
      <use transform="translate(0 0.390625)" xlink:href="#Cmr10-49"/>
     </g>
    </g>
    <g id="patch_72">
     <path d="M 266.95023 356.355072 
L 286.644347 356.355072 
L 286.644347 336.429088 
L 266.95023 336.429088 
z
" style="fill:#bff8ff;stroke:#000000;stroke-linejoin:miter;"/>
    </g>
    <g id="text_15">
     <!-- $0$ -->
     <g transform="translate(274.547289 348.875517)scale(0.09 -0.09)">
      <use transform="translate(0 0.390625)" xlink:href="#Cmr10-48"/>
     </g>
    </g>
    <g id="patch_73">
     <path d="M 286.644347 356.355072 
L 306.338465 356.355072 
L 306.338465 336.429088 
L 286.644347 336.429088 
z
" style="fill:#bff8ff;stroke:#000000;stroke-linejoin:miter;"/>
    </g>
    <g id="text_16">
     <!-- $2$ -->
     <g transform="translate(294.241406 348.875517)scale(0.09 -0.09)">
      <use transform="translate(0 0.390625)" xlink:href="#Cmr10-50"/>
     </g>
    </g>
    <g id="patch_74">
     <path d="M 306.338465 356.355072 
L 326.032583 356.355072 
L 326.032583 336.429088 
L 306.338465 336.429088 
z
" style="fill:#bff8ff;stroke:#000000;stroke-linejoin:miter;"/>
    </g>
    <g id="text_17">
     <!-- $1$ -->
     <g transform="translate(313.935524 348.875517)scale(0.09 -0.09)">
      <use transform="translate(0 0.390625)" xlink:href="#Cmr10-49"/>
     </g>
    </g>
   </g>
   <g id="text_18">
    <!-- * -->
    <g transform="translate(214.432583 330.605159)scale(0.15 -0.15)">
     <use xlink:href="#DejaVuSans-42"/>
    </g>
   </g>
  </g>
  <g id="axes_6">
   <g id="table_6">
    <g id="patch_75">
     <path d="M 434.35023 286.614129 
L 454.044347 286.614129 
L 454.044347 266.688145 
L 434.35023 266.688145 
z
" style="fill:#e0e0e0;stroke:#000000;stroke-linejoin:miter;"/>
    </g>
    <g id="patch_76">
     <path d="M 454.044347 286.614129 
L 473.738465 286.614129 
L 473.738465 266.688145 
L 454.044347 266.688145 
z
" style="fill:#e0e0e0;stroke:#000000;stroke-linejoin:miter;"/>
    </g>
    <g id="patch_77">
     <path d="M 473.738465 286.614129 
L 493.432583 286.614129 
L 493.432583 266.688145 
L 473.738465 266.688145 
z
" style="fill:#e0e0e0;stroke:#000000;stroke-linejoin:miter;"/>
    </g>
    <g id="patch_78">
     <path d="M 493.432583 286.614129 
L 513.1267 286.614129 
L 513.1267 266.688145 
L 493.432583 266.688145 
z
" style="fill:#e0e0e0;stroke:#000000;stroke-linejoin:miter;"/>
    </g>
    <g id="patch_79">
     <path d="M 513.1267 286.614129 
L 532.820818 286.614129 
L 532.820818 266.688145 
L 513.1267 266.688145 
z
" style="fill:#e0e0e0;stroke:#000000;stroke-linejoin:miter;"/>
    </g>
    <g id="patch_80">
     <path d="M 532.820818 286.614129 
L 552.514936 286.614129 
L 552.514936 266.688145 
L 532.820818 266.688145 
z
" style="fill:#e0e0e0;stroke:#000000;stroke-linejoin:miter;"/>
    </g>
    <g id="patch_81">
     <path d="M 434.35023 306.540113 
L 454.044347 306.540113 
L 454.044347 286.614129 
L 434.35023 286.614129 
z
" style="fill:#e0e0e0;stroke:#000000;stroke-linejoin:miter;"/>
    </g>
    <g id="patch_82">
     <path d="M 454.044347 306.540113 
L 473.738465 306.540113 
L 473.738465 286.614129 
L 454.044347 286.614129 
z
" style="fill:#bff8ff;stroke:#000000;stroke-linejoin:miter;"/>
    </g>
    <g id="text_19">
     <!-- $0$ -->
     <g transform="translate(461.641406 299.060558)scale(0.09 -0.09)">
      <use transform="translate(0 0.390625)" xlink:href="#Cmr10-48"/>
     </g>
    </g>
    <g id="patch_83">
     <path d="M 473.738465 306.540113 
L 493.432583 306.540113 
L 493.432583 286.614129 
L 473.738465 286.614129 
z
" style="fill:#bff8ff;stroke:#000000;stroke-linejoin:miter;"/>
    </g>
    <g id="text_20">
     <!-- $2+2$ -->
     <g transform="translate(474.000524 299.060558)scale(0.09 -0.09)">
      <defs>
       <path d="M 7.515625 23 
Q 6.6875 23 6.140625 23.625 
Q 5.609375 24.265625 5.609375 25 
Q 5.609375 25.734375 6.140625 26.359375 
Q 6.6875 27 7.515625 27 
L 36.921875 27 
L 36.921875 56.5 
Q 36.921875 57.28125 37.5 57.78125 
Q 38.09375 58.296875 38.921875 58.296875 
Q 39.65625 58.296875 40.28125 57.78125 
Q 40.921875 57.28125 40.921875 56.5 
L 40.921875 27 
L 70.3125 27 
Q 71.046875 27 71.578125 26.359375 
Q 72.125 25.734375 72.125 25 
Q 72.125 24.265625 71.578125 23.625 
Q 71.046875 23 70.3125 23 
L 40.921875 23 
L 40.921875 -6.5 
Q 40.921875 -7.28125 40.28125 -7.78125 
Q 39.65625 -8.296875 38.921875 -8.296875 
Q 38.09375 -8.296875 37.5 -7.78125 
Q 36.921875 -7.28125 36.921875 -6.5 
L 36.921875 23 
z
" id="Cmr10-43"/>
      </defs>
      <use transform="translate(0 0.390625)" xlink:href="#Cmr10-50"/>
      <use transform="translate(67.558594 0.390625)" xlink:href="#Cmr10-43"/>
      <use transform="translate(162.802734 0.390625)" xlink:href="#Cmr10-50"/>
     </g>
    </g>
    <g id="patch_84">
     <path d="M 493.432583 306.540113 
L 513.1267 306.540113 
L 513.1267 286.614129 
L 493.432583 286.614129 
z
" style="fill:#ffffff;stroke:#000000;stroke-linejoin:miter;"/>
    </g>
    <g id="text_21">
     <!-- $0$ -->
     <g transform="translate(501.029642 299.060558)scale(0.09 -0.09)">
      <use transform="translate(0 0.390625)" xlink:href="#Cmr10-48"/>
     </g>
    </g>
    <g id="patch_85">
     <path d="M 513.1267 306.540113 
L 532.820818 306.540113 
L 532.820818 286.614129 
L 513.1267 286.614129 
z
" style="fill:#ffffff;stroke:#000000;stroke-linejoin:miter;"/>
    </g>
    <g id="text_22">
     <!-- $1$ -->
     <g transform="translate(520.723759 299.060558)scale(0.09 -0.09)">
      <use transform="translate(0 0.390625)" xlink:href="#Cmr10-49"/>
     </g>
    </g>
    <g id="patch_86">
     <path d="M 532.820818 306.540113 
L 552.514936 306.540113 
L 552.514936 286.614129 
L 532.820818 286.614129 
z
" style="fill:#e0e0e0;stroke:#000000;stroke-linejoin:miter;"/>
    </g>
    <g id="patch_87">
     <path d="M 434.35023 326.466096 
L 454.044347 326.466096 
L 454.044347 306.540113 
L 434.35023 306.540113 
z
" style="fill:#e0e0e0;stroke:#000000;stroke-linejoin:miter;"/>
    </g>
    <g id="patch_88">
     <path d="M 454.044347 326.466096 
L 473.738465 326.466096 
L 473.738465 306.540113 
L 454.044347 306.540113 
z
" style="fill:#bff8ff;stroke:#000000;stroke-linejoin:miter;"/>
    </g>
    <g id="text_23">
     <!-- $4$ -->
     <g transform="translate(461.641406 318.986542)scale(0.09 -0.09)">
      <defs>
       <path d="M 2.78125 16.5 
L 2.78125 20.015625 
L 33.6875 66.109375 
Q 34.03125 66.609375 34.71875 66.609375 
L 36.1875 66.609375 
Q 37.3125 66.609375 37.3125 65.484375 
L 37.3125 20.015625 
L 47.125 20.015625 
L 47.125 16.5 
L 37.3125 16.5 
L 37.3125 6.6875 
Q 37.3125 4.640625 40.234375 4.078125 
Q 43.171875 3.515625 47.015625 3.515625 
L 47.015625 0 
L 19.484375 0 
L 19.484375 3.515625 
Q 23.34375 3.515625 26.265625 4.078125 
Q 29.203125 4.640625 29.203125 6.6875 
L 29.203125 16.5 
z
M 6.109375 20.015625 
L 29.78125 20.015625 
L 29.78125 55.421875 
z
" id="Cmr10-52"/>
      </defs>
      <use transform="translate(0 0.390625)" xlink:href="#Cmr10-52"/>
     </g>
    </g>
    <g id="patch_89">
     <path d="M 473.738465 326.466096 
L 493.432583 326.466096 
L 493.432583 306.540113 
L 473.738465 306.540113 
z
" style="fill:#bff8ff;stroke:#000000;stroke-linejoin:miter;"/>
    </g>
    <g id="text_24">
     <!-- $2+0$ -->
     <g transform="translate(474.000524 318.986542)scale(0.09 -0.09)">
      <use transform="translate(0 0.390625)" xlink:href="#Cmr10-50"/>
      <use transform="translate(67.558594 0.390625)" xlink:href="#Cmr10-43"/>
      <use transform="translate(162.802734 0.390625)" xlink:href="#Cmr10-48"/>
     </g>
    </g>
    <g id="patch_90">
     <path d="M 493.432583 326.466096 
L 513.1267 326.466096 
L 513.1267 306.540113 
L 493.432583 306.540113 
z
" style="fill:#ffffff;stroke:#000000;stroke-linejoin:miter;"/>
    </g>
    <g id="text_25">
     <!-- $2$ -->
     <g transform="translate(501.029642 318.986542)scale(0.09 -0.09)">
      <use transform="translate(0 0.390625)" xlink:href="#Cmr10-50"/>
     </g>
    </g>
    <g id="patch_91">
     <path d="M 513.1267 326.466096 
L 532.820818 326.466096 
L 532.820818 306.540113 
L 513.1267 306.540113 
z
" style="fill:#ffffff;stroke:#000000;stroke-linejoin:miter;"/>
    </g>
    <g id="text_26">
     <!-- $1$ -->
     <g transform="translate(520.723759 318.986542)scale(0.09 -0.09)">
      <use transform="translate(0 0.390625)" xlink:href="#Cmr10-49"/>
     </g>
    </g>
    <g id="patch_92">
     <path d="M 532.820818 326.466096 
L 552.514936 326.466096 
L 552.514936 306.540113 
L 532.820818 306.540113 
z
" style="fill:#e0e0e0;stroke:#000000;stroke-linejoin:miter;"/>
    </g>
    <g id="patch_93">
     <path d="M 434.35023 346.39208 
L 454.044347 346.39208 
L 454.044347 326.466096 
L 434.35023 326.466096 
z
" style="fill:#e0e0e0;stroke:#000000;stroke-linejoin:miter;"/>
    </g>
    <g id="patch_94">
     <path d="M 454.044347 346.39208 
L 473.738465 346.39208 
L 473.738465 326.466096 
L 454.044347 326.466096 
z
" style="fill:#ffffff;stroke:#000000;stroke-linejoin:miter;"/>
    </g>
    <g id="patch_95">
     <path d="M 473.738465 346.39208 
L 493.432583 346.39208 
L 493.432583 326.466096 
L 473.738465 326.466096 
z
" style="fill:#ffffff;stroke:#000000;stroke-linejoin:miter;"/>
    </g>
    <g id="patch_96">
     <path d="M 493.432583 346.39208 
L 513.1267 346.39208 
L 513.1267 326.466096 
L 493.432583 326.466096 
z
" style="fill:#ffffff;stroke:#000000;stroke-linejoin:miter;"/>
    </g>
    <g id="patch_97">
     <path d="M 513.1267 346.39208 
L 532.820818 346.39208 
L 532.820818 326.466096 
L 513.1267 326.466096 
z
" style="fill:#ffffff;stroke:#000000;stroke-linejoin:miter;"/>
    </g>
    <g id="patch_98">
     <path d="M 532.820818 346.39208 
L 552.514936 346.39208 
L 552.514936 326.466096 
L 532.820818 326.466096 
z
" style="fill:#e0e0e0;stroke:#000000;stroke-linejoin:miter;"/>
    </g>
    <g id="patch_99">
     <path d="M 434.35023 366.318064 
L 454.044347 366.318064 
L 454.044347 346.39208 
L 434.35023 346.39208 
z
" style="fill:#e0e0e0;stroke:#000000;stroke-linejoin:miter;"/>
    </g>
    <g id="patch_100">
     <path d="M 454.044347 366.318064 
L 473.738465 366.318064 
L 473.738465 346.39208 
L 454.044347 346.39208 
z
" style="fill:#ffffff;stroke:#000000;stroke-linejoin:miter;"/>
    </g>
    <g id="patch_101">
     <path d="M 473.738465 366.318064 
L 493.432583 366.318064 
L 493.432583 346.39208 
L 473.738465 346.39208 
z
" style="fill:#ffffff;stroke:#000000;stroke-linejoin:miter;"/>
    </g>
    <g id="patch_102">
     <path d="M 493.432583 366.318064 
L 513.1267 366.318064 
L 513.1267 346.39208 
L 493.432583 346.39208 
z
" style="fill:#ffffff;stroke:#000000;stroke-linejoin:miter;"/>
    </g>
    <g id="patch_103">
     <path d="M 513.1267 366.318064 
L 532.820818 366.318064 
L 532.820818 346.39208 
L 513.1267 346.39208 
z
" style="fill:#ffffff;stroke:#000000;stroke-linejoin:miter;"/>
    </g>
    <g id="patch_104">
     <path d="M 532.820818 366.318064 
L 552.514936 366.318064 
L 552.514936 346.39208 
L 532.820818 346.39208 
z
" style="fill:#e0e0e0;stroke:#000000;stroke-linejoin:miter;"/>
    </g>
    <g id="patch_105">
     <path d="M 434.35023 386.244047 
L 454.044347 386.244047 
L 454.044347 366.318064 
L 434.35023 366.318064 
z
" style="fill:#e0e0e0;stroke:#000000;stroke-linejoin:miter;"/>
    </g>
    <g id="patch_106">
     <path d="M 454.044347 386.244047 
L 473.738465 386.244047 
L 473.738465 366.318064 
L 454.044347 366.318064 
z
" style="fill:#e0e0e0;stroke:#000000;stroke-linejoin:miter;"/>
    </g>
    <g id="patch_107">
     <path d="M 473.738465 386.244047 
L 493.432583 386.244047 
L 493.432583 366.318064 
L 473.738465 366.318064 
z
" style="fill:#e0e0e0;stroke:#000000;stroke-linejoin:miter;"/>
    </g>
    <g id="patch_108">
     <path d="M 493.432583 386.244047 
L 513.1267 386.244047 
L 513.1267 366.318064 
L 493.432583 366.318064 
z
" style="fill:#e0e0e0;stroke:#000000;stroke-linejoin:miter;"/>
    </g>
    <g id="patch_109">
     <path d="M 513.1267 386.244047 
L 532.820818 386.244047 
L 532.820818 366.318064 
L 513.1267 366.318064 
z
" style="fill:#e0e0e0;stroke:#000000;stroke-linejoin:miter;"/>
    </g>
    <g id="patch_110">
     <path d="M 532.820818 386.244047 
L 552.514936 386.244047 
L 552.514936 366.318064 
L 532.820818 366.318064 
z
" style="fill:#e0e0e0;stroke:#000000;stroke-linejoin:miter;"/>
    </g>
   </g>
   <g id="patch_111">
    <path clip-path="url(#pcbb4164fa5)" d="M 433.753438 326.466096 
L 493.432583 326.466096 
L 493.432583 266.786952 
L 433.753438 266.786952 
z
" style="fill:none;stroke:#00ffff;stroke-linejoin:miter;stroke-width:2;"/>
   </g>
   <g id="patch_112">
    <path clip-path="url(#pcbb4164fa5)" d="M 474.036861 326.466096 
L 533.716005 326.466096 
L 533.716005 266.786952 
L 474.036861 266.786952 
z
" style="fill:none;stroke:#00ff00;stroke-linejoin:miter;stroke-width:2;"/>
   </g>
   <g id="text_27">
    <!-- = -->
    <g transform="translate(378.55023 330.605159)scale(0.15 -0.15)">
     <use xlink:href="#DejaVuSans-61"/>
    </g>
   </g>
   <g id="text_28">
    <!-- Normal convolution -->
    <g transform="translate(233.036172 17.077969)scale(0.13 -0.13)">
     <defs>
      <path d="M 9.8125 72.90625 
L 23.09375 72.90625 
L 55.421875 11.921875 
L 55.421875 72.90625 
L 64.984375 72.90625 
L 64.984375 0 
L 51.703125 0 
L 19.390625 60.984375 
L 19.390625 0 
L 9.8125 0 
z
" id="DejaVuSans-78"/>
      <path d="M 30.609375 48.390625 
Q 23.390625 48.390625 19.1875 42.75 
Q 14.984375 37.109375 14.984375 27.296875 
Q 14.984375 17.484375 19.15625 11.84375 
Q 23.34375 6.203125 30.609375 6.203125 
Q 37.796875 6.203125 41.984375 11.859375 
Q 46.1875 17.53125 46.1875 27.296875 
Q 46.1875 37.015625 41.984375 42.703125 
Q 37.796875 48.390625 30.609375 48.390625 
z
M 30.609375 56 
Q 42.328125 56 49.015625 48.375 
Q 55.71875 40.765625 55.71875 27.296875 
Q 55.71875 13.875 49.015625 6.21875 
Q 42.328125 -1.421875 30.609375 -1.421875 
Q 18.84375 -1.421875 12.171875 6.21875 
Q 5.515625 13.875 5.515625 27.296875 
Q 5.515625 40.765625 12.171875 48.375 
Q 18.84375 56 30.609375 56 
z
" id="DejaVuSans-111"/>
      <path d="M 41.109375 46.296875 
Q 39.59375 47.171875 37.8125 47.578125 
Q 36.03125 48 33.890625 48 
Q 26.265625 48 22.1875 43.046875 
Q 18.109375 38.09375 18.109375 28.8125 
L 18.109375 0 
L 9.078125 0 
L 9.078125 54.6875 
L 18.109375 54.6875 
L 18.109375 46.1875 
Q 20.953125 51.171875 25.484375 53.578125 
Q 30.03125 56 36.53125 56 
Q 37.453125 56 38.578125 55.875 
Q 39.703125 55.765625 41.0625 55.515625 
z
" id="DejaVuSans-114"/>
      <path d="M 52 44.1875 
Q 55.375 50.25 60.0625 53.125 
Q 64.75 56 71.09375 56 
Q 79.640625 56 84.28125 50.015625 
Q 88.921875 44.046875 88.921875 33.015625 
L 88.921875 0 
L 79.890625 0 
L 79.890625 32.71875 
Q 79.890625 40.578125 77.09375 44.375 
Q 74.3125 48.1875 68.609375 48.1875 
Q 61.625 48.1875 57.5625 43.546875 
Q 53.515625 38.921875 53.515625 30.90625 
L 53.515625 0 
L 44.484375 0 
L 44.484375 32.71875 
Q 44.484375 40.625 41.703125 44.40625 
Q 38.921875 48.1875 33.109375 48.1875 
Q 26.21875 48.1875 22.15625 43.53125 
Q 18.109375 38.875 18.109375 30.90625 
L 18.109375 0 
L 9.078125 0 
L 9.078125 54.6875 
L 18.109375 54.6875 
L 18.109375 46.1875 
Q 21.1875 51.21875 25.484375 53.609375 
Q 29.78125 56 35.6875 56 
Q 41.65625 56 45.828125 52.96875 
Q 50 49.953125 52 44.1875 
z
" id="DejaVuSans-109"/>
      <path d="M 34.28125 27.484375 
Q 23.390625 27.484375 19.1875 25 
Q 14.984375 22.515625 14.984375 16.5 
Q 14.984375 11.71875 18.140625 8.90625 
Q 21.296875 6.109375 26.703125 6.109375 
Q 34.1875 6.109375 38.703125 11.40625 
Q 43.21875 16.703125 43.21875 25.484375 
L 43.21875 27.484375 
z
M 52.203125 31.203125 
L 52.203125 0 
L 43.21875 0 
L 43.21875 8.296875 
Q 40.140625 3.328125 35.546875 0.953125 
Q 30.953125 -1.421875 24.3125 -1.421875 
Q 15.921875 -1.421875 10.953125 3.296875 
Q 6 8.015625 6 15.921875 
Q 6 25.140625 12.171875 29.828125 
Q 18.359375 34.515625 30.609375 34.515625 
L 43.21875 34.515625 
L 43.21875 35.40625 
Q 43.21875 41.609375 39.140625 45 
Q 35.0625 48.390625 27.6875 48.390625 
Q 23 48.390625 18.546875 47.265625 
Q 14.109375 46.140625 10.015625 43.890625 
L 10.015625 52.203125 
Q 14.9375 54.109375 19.578125 55.046875 
Q 24.21875 56 28.609375 56 
Q 40.484375 56 46.34375 49.84375 
Q 52.203125 43.703125 52.203125 31.203125 
z
" id="DejaVuSans-97"/>
      <path d="M 9.421875 75.984375 
L 18.40625 75.984375 
L 18.40625 0 
L 9.421875 0 
z
" id="DejaVuSans-108"/>
      <path id="DejaVuSans-32"/>
      <path d="M 48.78125 52.59375 
L 48.78125 44.1875 
Q 44.96875 46.296875 41.140625 47.34375 
Q 37.3125 48.390625 33.40625 48.390625 
Q 24.65625 48.390625 19.8125 42.84375 
Q 14.984375 37.3125 14.984375 27.296875 
Q 14.984375 17.28125 19.8125 11.734375 
Q 24.65625 6.203125 33.40625 6.203125 
Q 37.3125 6.203125 41.140625 7.25 
Q 44.96875 8.296875 48.78125 10.40625 
L 48.78125 2.09375 
Q 45.015625 0.34375 40.984375 -0.53125 
Q 36.96875 -1.421875 32.421875 -1.421875 
Q 20.0625 -1.421875 12.78125 6.34375 
Q 5.515625 14.109375 5.515625 27.296875 
Q 5.515625 40.671875 12.859375 48.328125 
Q 20.21875 56 33.015625 56 
Q 37.15625 56 41.109375 55.140625 
Q 45.0625 54.296875 48.78125 52.59375 
z
" id="DejaVuSans-99"/>
      <path d="M 54.890625 33.015625 
L 54.890625 0 
L 45.90625 0 
L 45.90625 32.71875 
Q 45.90625 40.484375 42.875 44.328125 
Q 39.84375 48.1875 33.796875 48.1875 
Q 26.515625 48.1875 22.3125 43.546875 
Q 18.109375 38.921875 18.109375 30.90625 
L 18.109375 0 
L 9.078125 0 
L 9.078125 54.6875 
L 18.109375 54.6875 
L 18.109375 46.1875 
Q 21.34375 51.125 25.703125 53.5625 
Q 30.078125 56 35.796875 56 
Q 45.21875 56 50.046875 50.171875 
Q 54.890625 44.34375 54.890625 33.015625 
z
" id="DejaVuSans-110"/>
      <path d="M 2.984375 54.6875 
L 12.5 54.6875 
L 29.59375 8.796875 
L 46.6875 54.6875 
L 56.203125 54.6875 
L 35.6875 0 
L 23.484375 0 
z
" id="DejaVuSans-118"/>
      <path d="M 8.5 21.578125 
L 8.5 54.6875 
L 17.484375 54.6875 
L 17.484375 21.921875 
Q 17.484375 14.15625 20.5 10.265625 
Q 23.53125 6.390625 29.59375 6.390625 
Q 36.859375 6.390625 41.078125 11.03125 
Q 45.3125 15.671875 45.3125 23.6875 
L 45.3125 54.6875 
L 54.296875 54.6875 
L 54.296875 0 
L 45.3125 0 
L 45.3125 8.40625 
Q 42.046875 3.421875 37.71875 1 
Q 33.40625 -1.421875 27.6875 -1.421875 
Q 18.265625 -1.421875 13.375 4.4375 
Q 8.5 10.296875 8.5 21.578125 
z
M 31.109375 56 
z
" id="DejaVuSans-117"/>
      <path d="M 18.3125 70.21875 
L 18.3125 54.6875 
L 36.8125 54.6875 
L 36.8125 47.703125 
L 18.3125 47.703125 
L 18.3125 18.015625 
Q 18.3125 11.328125 20.140625 9.421875 
Q 21.96875 7.515625 27.59375 7.515625 
L 36.8125 7.515625 
L 36.8125 0 
L 27.59375 0 
Q 17.1875 0 13.234375 3.875 
Q 9.28125 7.765625 9.28125 18.015625 
L 9.28125 47.703125 
L 2.6875 47.703125 
L 2.6875 54.6875 
L 9.28125 54.6875 
L 9.28125 70.21875 
z
" id="DejaVuSans-116"/>
      <path d="M 9.421875 54.6875 
L 18.40625 54.6875 
L 18.40625 0 
L 9.421875 0 
z
M 9.421875 75.984375 
L 18.40625 75.984375 
L 18.40625 64.59375 
L 9.421875 64.59375 
z
" id="DejaVuSans-105"/>
     </defs>
     <use xlink:href="#DejaVuSans-78"/>
     <use x="74.804688" xlink:href="#DejaVuSans-111"/>
     <use x="135.986328" xlink:href="#DejaVuSans-114"/>
     <use x="175.349609" xlink:href="#DejaVuSans-109"/>
     <use x="272.761719" xlink:href="#DejaVuSans-97"/>
     <use x="334.041016" xlink:href="#DejaVuSans-108"/>
     <use x="361.824219" xlink:href="#DejaVuSans-32"/>
     <use x="393.611328" xlink:href="#DejaVuSans-99"/>
     <use x="448.591797" xlink:href="#DejaVuSans-111"/>
     <use x="509.773438" xlink:href="#DejaVuSans-110"/>
     <use x="573.152344" xlink:href="#DejaVuSans-118"/>
     <use x="632.332031" xlink:href="#DejaVuSans-111"/>
     <use x="693.513672" xlink:href="#DejaVuSans-108"/>
     <use x="721.296875" xlink:href="#DejaVuSans-117"/>
     <use x="784.675781" xlink:href="#DejaVuSans-116"/>
     <use x="823.884766" xlink:href="#DejaVuSans-105"/>
     <use x="851.667969" xlink:href="#DejaVuSans-111"/>
     <use x="912.849609" xlink:href="#DejaVuSans-110"/>
    </g>
   </g>
   <g id="text_29">
    <!-- Transpose convolution -->
    <g transform="translate(223.893516 254.285241)scale(0.13 -0.13)">
     <defs>
      <path d="M -0.296875 72.90625 
L 61.375 72.90625 
L 61.375 64.59375 
L 35.5 64.59375 
L 35.5 0 
L 25.59375 0 
L 25.59375 64.59375 
L -0.296875 64.59375 
z
" id="DejaVuSans-84"/>
      <path d="M 44.28125 53.078125 
L 44.28125 44.578125 
Q 40.484375 46.53125 36.375 47.5 
Q 32.28125 48.484375 27.875 48.484375 
Q 21.1875 48.484375 17.84375 46.4375 
Q 14.5 44.390625 14.5 40.28125 
Q 14.5 37.15625 16.890625 35.375 
Q 19.28125 33.59375 26.515625 31.984375 
L 29.59375 31.296875 
Q 39.15625 29.25 43.1875 25.515625 
Q 47.21875 21.78125 47.21875 15.09375 
Q 47.21875 7.46875 41.1875 3.015625 
Q 35.15625 -1.421875 24.609375 -1.421875 
Q 20.21875 -1.421875 15.453125 -0.5625 
Q 10.6875 0.296875 5.421875 2 
L 5.421875 11.28125 
Q 10.40625 8.6875 15.234375 7.390625 
Q 20.0625 6.109375 24.8125 6.109375 
Q 31.15625 6.109375 34.5625 8.28125 
Q 37.984375 10.453125 37.984375 14.40625 
Q 37.984375 18.0625 35.515625 20.015625 
Q 33.0625 21.96875 24.703125 23.78125 
L 21.578125 24.515625 
Q 13.234375 26.265625 9.515625 29.90625 
Q 5.8125 33.546875 5.8125 39.890625 
Q 5.8125 47.609375 11.28125 51.796875 
Q 16.75 56 26.8125 56 
Q 31.78125 56 36.171875 55.265625 
Q 40.578125 54.546875 44.28125 53.078125 
z
" id="DejaVuSans-115"/>
      <path d="M 18.109375 8.203125 
L 18.109375 -20.796875 
L 9.078125 -20.796875 
L 9.078125 54.6875 
L 18.109375 54.6875 
L 18.109375 46.390625 
Q 20.953125 51.265625 25.265625 53.625 
Q 29.59375 56 35.59375 56 
Q 45.5625 56 51.78125 48.09375 
Q 58.015625 40.1875 58.015625 27.296875 
Q 58.015625 14.40625 51.78125 6.484375 
Q 45.5625 -1.421875 35.59375 -1.421875 
Q 29.59375 -1.421875 25.265625 0.953125 
Q 20.953125 3.328125 18.109375 8.203125 
z
M 48.6875 27.296875 
Q 48.6875 37.203125 44.609375 42.84375 
Q 40.53125 48.484375 33.40625 48.484375 
Q 26.265625 48.484375 22.1875 42.84375 
Q 18.109375 37.203125 18.109375 27.296875 
Q 18.109375 17.390625 22.1875 11.75 
Q 26.265625 6.109375 33.40625 6.109375 
Q 40.53125 6.109375 44.609375 11.75 
Q 48.6875 17.390625 48.6875 27.296875 
z
" id="DejaVuSans-112"/>
      <path d="M 56.203125 29.59375 
L 56.203125 25.203125 
L 14.890625 25.203125 
Q 15.484375 15.921875 20.484375 11.0625 
Q 25.484375 6.203125 34.421875 6.203125 
Q 39.59375 6.203125 44.453125 7.46875 
Q 49.3125 8.734375 54.109375 11.28125 
L 54.109375 2.78125 
Q 49.265625 0.734375 44.1875 -0.34375 
Q 39.109375 -1.421875 33.890625 -1.421875 
Q 20.796875 -1.421875 13.15625 6.1875 
Q 5.515625 13.8125 5.515625 26.8125 
Q 5.515625 40.234375 12.765625 48.109375 
Q 20.015625 56 32.328125 56 
Q 43.359375 56 49.78125 48.890625 
Q 56.203125 41.796875 56.203125 29.59375 
z
M 47.21875 32.234375 
Q 47.125 39.59375 43.09375 43.984375 
Q 39.0625 48.390625 32.421875 48.390625 
Q 24.90625 48.390625 20.390625 44.140625 
Q 15.875 39.890625 15.1875 32.171875 
z
" id="DejaVuSans-101"/>
     </defs>
     <use xlink:href="#DejaVuSans-84"/>
     <use x="46.333984" xlink:href="#DejaVuSans-114"/>
     <use x="87.447266" xlink:href="#DejaVuSans-97"/>
     <use x="148.726562" xlink:href="#DejaVuSans-110"/>
     <use x="212.105469" xlink:href="#DejaVuSans-115"/>
     <use x="264.205078" xlink:href="#DejaVuSans-112"/>
     <use x="327.681641" xlink:href="#DejaVuSans-111"/>
     <use x="388.863281" xlink:href="#DejaVuSans-115"/>
     <use x="440.962891" xlink:href="#DejaVuSans-101"/>
     <use x="502.486328" xlink:href="#DejaVuSans-32"/>
     <use x="534.273438" xlink:href="#DejaVuSans-99"/>
     <use x="589.253906" xlink:href="#DejaVuSans-111"/>
     <use x="650.435547" xlink:href="#DejaVuSans-110"/>
     <use x="713.814453" xlink:href="#DejaVuSans-118"/>
     <use x="772.994141" xlink:href="#DejaVuSans-111"/>
     <use x="834.175781" xlink:href="#DejaVuSans-108"/>
     <use x="861.958984" xlink:href="#DejaVuSans-117"/>
     <use x="925.337891" xlink:href="#DejaVuSans-116"/>
     <use x="964.546875" xlink:href="#DejaVuSans-105"/>
     <use x="992.330078" xlink:href="#DejaVuSans-111"/>
     <use x="1053.511719" xlink:href="#DejaVuSans-110"/>
    </g>
   </g>
  </g>
 </g>
 <defs>
  <clipPath id="pcbb4164fa5">
   <rect height="164.117647" width="164.117647" x="411.373759" y="244.407273"/>
  </clipPath>
 </defs>
</svg>
