<?xml version="1.0" encoding="utf-8" standalone="no"?>
<!DOCTYPE svg PUBLIC "-//W3C//DTD SVG 1.1//EN"
  "http://www.w3.org/Graphics/SVG/1.1/DTD/svg11.dtd">
<!-- Created with matplotlib (https://matplotlib.org/) -->
<svg height="129.848276pt" version="1.1" viewBox="0 0 684 129.848276" width="684pt" xmlns="http://www.w3.org/2000/svg" xmlns:xlink="http://www.w3.org/1999/xlink">
 <metadata>
  <rdf:RDF xmlns:cc="http://creativecommons.org/ns#" xmlns:dc="http://purl.org/dc/elements/1.1/" xmlns:rdf="http://www.w3.org/1999/02/22-rdf-syntax-ns#">
   <cc:Work>
    <dc:type rdf:resource="http://purl.org/dc/dcmitype/StillImage"/>
    <dc:date>2021-09-27T19:37:12.056824</dc:date>
    <dc:format>image/svg+xml</dc:format>
    <dc:creator>
     <cc:Agent>
      <dc:title>Matplotlib v3.3.4, https://matplotlib.org/</dc:title>
     </cc:Agent>
    </dc:creator>
   </cc:Work>
  </rdf:RDF>
 </metadata>
 <defs>
  <style type="text/css">*{stroke-linecap:butt;stroke-linejoin:round;}</style>
 </defs>
 <g id="figure_1">
  <g id="patch_1">
   <path d="M 0 129.848276 
L 684 129.848276 
L 684 0 
L 0 0 
z
" style="fill:none;"/>
  </g>
  <g id="patch_2">
   <path d="M 7.2 122.648276 
L 122.648276 122.648276 
L 122.648276 7.2 
L 7.2 7.2 
z
" style="fill:#ffffff;"/>
  </g>
  <g id="axes_1">
   <g id="Poly3DCollection_1">
    <path clip-path="url(#p70c9527c41)" d="M 33.374485 21.613833 
L 37.277542 20.945789 
L 37.90376 97.737512 
L 34.09125 99.133351 
z
" style="fill:#e1e1e1;fill-opacity:0.3;"/>
    <path clip-path="url(#p70c9527c41)" d="M 37.90376 97.737512 
L 100.444159 106.186218 
L 97.046548 107.751048 
L 34.09125 99.133351 
z
" style="fill:#888888;fill-opacity:0.3;"/>
    <path clip-path="url(#p70c9527c41)" d="M 37.90376 97.737512 
L 37.277542 20.945789 
L 101.232787 24.993645 
L 100.444159 106.186218 
z
" style="fill:#6a6a6a;fill-opacity:0.3;"/>
    <path clip-path="url(#p70c9527c41)" d="M 97.046548 107.751048 
L 97.763712 25.744511 
L 33.374485 21.613833 
L 34.09125 99.133351 
z
" style="fill:#e1e1e1;fill-opacity:0.3;"/>
    <path clip-path="url(#p70c9527c41)" d="M 33.374485 21.613833 
L 97.763712 25.744511 
L 101.232787 24.993645 
L 37.277542 20.945789 
z
" style="fill:#c3c3c3;fill-opacity:0.3;"/>
    <path clip-path="url(#p70c9527c41)" d="M 97.046548 107.751048 
L 100.444159 106.186218 
L 101.232787 24.993645 
L 97.763712 25.744511 
z
" style="fill:#6a6a6a;fill-opacity:0.3;"/>
   </g>
  </g>
  <g id="patch_3">
   <path d="M 145.737931 122.648276 
L 261.186207 122.648276 
L 261.186207 7.2 
L 145.737931 7.2 
z
" style="fill:#ffffff;"/>
  </g>
  <g id="axes_2">
   <g id="Poly3DCollection_2">
    <path clip-path="url(#p7e0be5fae6)" d="M 210.774874 74.311226 
L 210.836181 36.711012 
L 242.004603 39.066454 
L 241.603738 77.691774 
z
" style="fill:#6a6a6a;fill-opacity:0.3;"/>
    <path clip-path="url(#p7e0be5fae6)" d="M 164.418819 47.461075 
L 210.836181 36.711012 
L 210.774874 74.311226 
L 164.901512 89.723436 
z
" style="fill:#e1e1e1;fill-opacity:0.3;"/>
    <path clip-path="url(#p7e0be5fae6)" d="M 210.774874 74.311226 
L 241.603738 77.691774 
L 198.331607 94.035499 
L 164.901512 89.723436 
z
" style="fill:#888888;fill-opacity:0.3;"/>
    <path clip-path="url(#p7e0be5fae6)" d="M 164.418819 47.461075 
L 198.248536 50.473987 
L 242.004603 39.066454 
L 210.836181 36.711012 
z
" style="fill:#c3c3c3;fill-opacity:0.3;"/>
    <path clip-path="url(#p7e0be5fae6)" d="M 198.331607 94.035499 
L 241.603738 77.691774 
L 242.004603 39.066454 
L 198.248536 50.473987 
z
" style="fill:#6a6a6a;fill-opacity:0.3;"/>
    <path clip-path="url(#p7e0be5fae6)" d="M 198.331607 94.035499 
L 198.248536 50.473987 
L 164.418819 47.461075 
L 164.901512 89.723436 
z
" style="fill:#e1e1e1;fill-opacity:0.3;"/>
   </g>
  </g>
  <g id="patch_4">
   <path d="M 284.275862 122.648276 
L 399.724138 122.648276 
L 399.724138 7.2 
L 284.275862 7.2 
z
" style="fill:#ffffff;"/>
  </g>
  <g id="axes_3">
   <g id="Poly3DCollection_3">
    <path clip-path="url(#p04439c0839)" d="M 359.257513 65.058897 
L 359.341736 46.079142 
L 374.956453 47.379994 
L 374.786561 66.617464 
z
" style="fill:#6a6a6a;fill-opacity:0.3;"/>
    <path clip-path="url(#p04439c0839)" d="M 308.062601 59.665592 
L 359.341736 46.079142 
L 359.257513 65.058897 
L 308.279623 81.325498 
z
" style="fill:#e1e1e1;fill-opacity:0.3;"/>
    <path clip-path="url(#p04439c0839)" d="M 359.257513 65.058897 
L 374.786561 66.617464 
L 325.289414 83.375077 
L 308.279623 81.325498 
z
" style="fill:#888888;fill-opacity:0.3;"/>
    <path clip-path="url(#p04439c0839)" d="M 308.062601 59.665592 
L 325.175214 61.378982 
L 374.956453 47.379994 
L 359.341736 46.079142 
z
" style="fill:#c3c3c3;fill-opacity:0.3;"/>
    <path clip-path="url(#p04439c0839)" d="M 325.289414 83.375077 
L 374.786561 66.617464 
L 374.956453 47.379994 
L 325.175214 61.378982 
z
" style="fill:#6a6a6a;fill-opacity:0.3;"/>
    <path clip-path="url(#p04439c0839)" d="M 325.289414 83.375077 
L 325.175214 61.378982 
L 308.062601 59.665592 
L 308.279623 81.325498 
z
" style="fill:#e1e1e1;fill-opacity:0.3;"/>
   </g>
  </g>
  <g id="patch_5">
   <path d="M 422.813793 122.648276 
L 538.262069 122.648276 
L 538.262069 7.2 
L 422.813793 7.2 
z
" style="fill:#ffffff;"/>
  </g>
  <g id="axes_4">
   <g id="Poly3DCollection_4">
    <path clip-path="url(#pbc2847fca7)" d="M 487.850736 74.311226 
L 487.912043 36.711012 
L 519.080466 39.066454 
L 518.6796 77.691774 
z
" style="fill:#6a6a6a;fill-opacity:0.3;"/>
    <path clip-path="url(#pbc2847fca7)" d="M 441.494681 47.461075 
L 487.912043 36.711012 
L 487.850736 74.311226 
L 441.977374 89.723436 
z
" style="fill:#e1e1e1;fill-opacity:0.3;"/>
    <path clip-path="url(#pbc2847fca7)" d="M 487.850736 74.311226 
L 518.6796 77.691774 
L 475.407469 94.035499 
L 441.977374 89.723436 
z
" style="fill:#888888;fill-opacity:0.3;"/>
    <path clip-path="url(#pbc2847fca7)" d="M 441.494681 47.461075 
L 475.324398 50.473987 
L 519.080466 39.066454 
L 487.912043 36.711012 
z
" style="fill:#c3c3c3;fill-opacity:0.3;"/>
    <path clip-path="url(#pbc2847fca7)" d="M 475.407469 94.035499 
L 518.6796 77.691774 
L 519.080466 39.066454 
L 475.324398 50.473987 
z
" style="fill:#6a6a6a;fill-opacity:0.3;"/>
    <path clip-path="url(#pbc2847fca7)" d="M 475.407469 94.035499 
L 475.324398 50.473987 
L 441.494681 47.461075 
L 441.977374 89.723436 
z
" style="fill:#e1e1e1;fill-opacity:0.3;"/>
   </g>
  </g>
  <g id="patch_6">
   <path d="M 561.351724 122.648276 
L 676.8 122.648276 
L 676.8 7.2 
L 561.351724 7.2 
z
" style="fill:#ffffff;"/>
  </g>
  <g id="axes_5">
   <g id="Poly3DCollection_5">
    <path clip-path="url(#pe6bc386aba)" d="M 587.526209 21.613833 
L 591.429266 20.945789 
L 592.055484 97.737512 
L 588.242974 99.133351 
z
" style="fill:#e1e1e1;fill-opacity:0.3;"/>
    <path clip-path="url(#pe6bc386aba)" d="M 592.055484 97.737512 
L 654.595883 106.186218 
L 651.198272 107.751048 
L 588.242974 99.133351 
z
" style="fill:#888888;fill-opacity:0.3;"/>
    <path clip-path="url(#pe6bc386aba)" d="M 592.055484 97.737512 
L 591.429266 20.945789 
L 655.384512 24.993645 
L 654.595883 106.186218 
z
" style="fill:#6a6a6a;fill-opacity:0.3;"/>
    <path clip-path="url(#pe6bc386aba)" d="M 651.198272 107.751048 
L 651.915436 25.744511 
L 587.526209 21.613833 
L 588.242974 99.133351 
z
" style="fill:#e1e1e1;fill-opacity:0.3;"/>
    <path clip-path="url(#pe6bc386aba)" d="M 587.526209 21.613833 
L 651.915436 25.744511 
L 655.384512 24.993645 
L 591.429266 20.945789 
z
" style="fill:#c3c3c3;fill-opacity:0.3;"/>
    <path clip-path="url(#pe6bc386aba)" d="M 651.198272 107.751048 
L 654.595883 106.186218 
L 655.384512 24.993645 
L 651.915436 25.744511 
z
" style="fill:#6a6a6a;fill-opacity:0.3;"/>
   </g>
   <g id="patch_7">
    <path d="M 154.166365 64.924138 
Q 134.19301 64.924138 113.101622 64.924138 
" style="fill:none;stroke:#000000;stroke-linecap:round;"/>
    <path d="M 150.166365 62.924138 
L 154.166365 64.924138 
L 150.166365 66.924138 
" style="fill:none;stroke:#000000;stroke-linecap:round;"/>
   </g>
   <g id="patch_8">
    <path d="M 292.704296 64.924138 
Q 272.730941 64.924138 251.639553 64.924138 
" style="fill:none;stroke:#000000;stroke-linecap:round;"/>
    <path d="M 288.704296 62.924138 
L 292.704296 64.924138 
L 288.704296 66.924138 
" style="fill:none;stroke:#000000;stroke-linecap:round;"/>
   </g>
   <g id="patch_9">
    <path d="M 431.242227 64.924138 
Q 411.268873 64.924138 390.177484 64.924138 
" style="fill:none;stroke:#000000;stroke-linecap:round;"/>
    <path d="M 427.242227 62.924138 
L 431.242227 64.924138 
L 427.242227 66.924138 
" style="fill:none;stroke:#000000;stroke-linecap:round;"/>
   </g>
   <g id="patch_10">
    <path d="M 569.780158 64.924138 
Q 549.806804 64.924138 528.715415 64.924138 
" style="fill:none;stroke:#000000;stroke-linecap:round;"/>
    <path d="M 565.780158 62.924138 
L 569.780158 64.924138 
L 565.780158 66.924138 
" style="fill:none;stroke:#000000;stroke-linecap:round;"/>
   </g>
  </g>
 </g>
 <defs>
  <clipPath id="p70c9527c41">
   <rect height="115.448276" width="115.448276" x="7.2" y="7.2"/>
  </clipPath>
  <clipPath id="p7e0be5fae6">
   <rect height="115.448276" width="115.448276" x="145.737931" y="7.2"/>
  </clipPath>
  <clipPath id="p04439c0839">
   <rect height="115.448276" width="115.448276" x="284.275862" y="7.2"/>
  </clipPath>
  <clipPath id="pbc2847fca7">
   <rect height="115.448276" width="115.448276" x="422.813793" y="7.2"/>
  </clipPath>
  <clipPath id="pe6bc386aba">
   <rect height="115.448276" width="115.448276" x="561.351724" y="7.2"/>
  </clipPath>
 </defs>
</svg>
