<?xml version="1.0" encoding="utf-8" standalone="no"?>
<!DOCTYPE svg PUBLIC "-//W3C//DTD SVG 1.1//EN"
  "http://www.w3.org/Graphics/SVG/1.1/DTD/svg11.dtd">
<!-- Created with matplotlib (https://matplotlib.org/) -->
<svg height="146.011034pt" version="1.1" viewBox="0 0 684 146.011034" width="684pt" xmlns="http://www.w3.org/2000/svg" xmlns:xlink="http://www.w3.org/1999/xlink">
 <metadata>
  <rdf:RDF xmlns:cc="http://creativecommons.org/ns#" xmlns:dc="http://purl.org/dc/elements/1.1/" xmlns:rdf="http://www.w3.org/1999/02/22-rdf-syntax-ns#">
   <cc:Work>
    <dc:type rdf:resource="http://purl.org/dc/dcmitype/StillImage"/>
    <dc:date>2021-05-04T19:03:48.838132</dc:date>
    <dc:format>image/svg+xml</dc:format>
    <dc:creator>
     <cc:Agent>
      <dc:title>Matplotlib v3.3.4, https://matplotlib.org/</dc:title>
     </cc:Agent>
    </dc:creator>
   </cc:Work>
  </rdf:RDF>
 </metadata>
 <defs>
  <style type="text/css">*{stroke-linecap:butt;stroke-linejoin:round;}</style>
 </defs>
 <g id="figure_1">
  <g id="patch_1">
   <path d="M 0 146.011034 
L 684 146.011034 
L 684 0 
L 0 0 
z
" style="fill:none;"/>
  </g>
  <g id="patch_2">
   <path d="M 7.2 138.811034 
L 122.648276 138.811034 
L 122.648276 23.362759 
L 7.2 23.362759 
z
" style="fill:#ffffff;"/>
  </g>
  <g id="axes_1">
   <g id="Poly3DCollection_1">
    <path clip-path="url(#p95c7a44025)" d="M 33.374485 37.776592 
L 37.277542 37.108548 
L 37.90376 113.90027 
L 34.09125 115.29611 
z
" style="fill:#e1e1e1;fill-opacity:0.3;"/>
    <path clip-path="url(#p95c7a44025)" d="M 37.90376 113.90027 
L 100.444159 122.348977 
L 97.046548 123.913807 
L 34.09125 115.29611 
z
" style="fill:#888888;fill-opacity:0.3;"/>
    <path clip-path="url(#p95c7a44025)" d="M 37.90376 113.90027 
L 37.277542 37.108548 
L 101.232787 41.156404 
L 100.444159 122.348977 
z
" style="fill:#6a6a6a;fill-opacity:0.3;"/>
    <path clip-path="url(#p95c7a44025)" d="M 97.046548 123.913807 
L 97.763712 41.90727 
L 33.374485 37.776592 
L 34.09125 115.29611 
z
" style="fill:#e1e1e1;fill-opacity:0.3;"/>
    <path clip-path="url(#p95c7a44025)" d="M 33.374485 37.776592 
L 97.763712 41.90727 
L 101.232787 41.156404 
L 37.277542 37.108548 
z
" style="fill:#c3c3c3;fill-opacity:0.3;"/>
    <path clip-path="url(#p95c7a44025)" d="M 97.046548 123.913807 
L 100.444159 122.348977 
L 101.232787 41.156404 
L 97.763712 41.90727 
z
" style="fill:#6a6a6a;fill-opacity:0.3;"/>
   </g>
  </g>
  <g id="patch_3">
   <path d="M 145.737931 138.811034 
L 261.186207 138.811034 
L 261.186207 23.362759 
L 145.737931 23.362759 
z
" style="fill:#ffffff;"/>
  </g>
  <g id="axes_2">
   <g id="Poly3DCollection_2">
    <path clip-path="url(#pe6b1a0dd8c)" d="M 210.774874 90.473985 
L 210.836181 52.873771 
L 242.004603 55.229213 
L 241.603738 93.854532 
z
" style="fill:#6a6a6a;fill-opacity:0.3;"/>
    <path clip-path="url(#pe6b1a0dd8c)" d="M 164.418819 63.623833 
L 210.836181 52.873771 
L 210.774874 90.473985 
L 164.901512 105.886194 
z
" style="fill:#e1e1e1;fill-opacity:0.3;"/>
    <path clip-path="url(#pe6b1a0dd8c)" d="M 210.774874 90.473985 
L 241.603738 93.854532 
L 198.331607 110.198258 
L 164.901512 105.886194 
z
" style="fill:#888888;fill-opacity:0.3;"/>
    <path clip-path="url(#pe6b1a0dd8c)" d="M 164.418819 63.623833 
L 198.248536 66.636745 
L 242.004603 55.229213 
L 210.836181 52.873771 
z
" style="fill:#c3c3c3;fill-opacity:0.3;"/>
    <path clip-path="url(#pe6b1a0dd8c)" d="M 198.331607 110.198258 
L 241.603738 93.854532 
L 242.004603 55.229213 
L 198.248536 66.636745 
z
" style="fill:#6a6a6a;fill-opacity:0.3;"/>
    <path clip-path="url(#pe6b1a0dd8c)" d="M 198.331607 110.198258 
L 198.248536 66.636745 
L 164.418819 63.623833 
L 164.901512 105.886194 
z
" style="fill:#e1e1e1;fill-opacity:0.3;"/>
   </g>
  </g>
  <g id="patch_4">
   <path d="M 284.275862 138.811034 
L 399.724138 138.811034 
L 399.724138 23.362759 
L 284.275862 23.362759 
z
" style="fill:#ffffff;"/>
  </g>
  <g id="axes_3">
   <g id="Poly3DCollection_3">
    <path clip-path="url(#p050eac297c)" d="M 359.257513 81.221656 
L 359.341736 62.241901 
L 374.956453 63.542752 
L 374.786561 82.780223 
z
" style="fill:#6a6a6a;fill-opacity:0.3;"/>
    <path clip-path="url(#p050eac297c)" d="M 308.062601 75.828351 
L 359.341736 62.241901 
L 359.257513 81.221656 
L 308.279623 97.488256 
z
" style="fill:#e1e1e1;fill-opacity:0.3;"/>
    <path clip-path="url(#p050eac297c)" d="M 359.257513 81.221656 
L 374.786561 82.780223 
L 325.289414 99.537836 
L 308.279623 97.488256 
z
" style="fill:#888888;fill-opacity:0.3;"/>
    <path clip-path="url(#p050eac297c)" d="M 308.062601 75.828351 
L 325.175214 77.54174 
L 374.956453 63.542752 
L 359.341736 62.241901 
z
" style="fill:#c3c3c3;fill-opacity:0.3;"/>
    <path clip-path="url(#p050eac297c)" d="M 325.289414 99.537836 
L 374.786561 82.780223 
L 374.956453 63.542752 
L 325.175214 77.54174 
z
" style="fill:#6a6a6a;fill-opacity:0.3;"/>
    <path clip-path="url(#p050eac297c)" d="M 325.289414 99.537836 
L 325.175214 77.54174 
L 308.062601 75.828351 
L 308.279623 97.488256 
z
" style="fill:#e1e1e1;fill-opacity:0.3;"/>
   </g>
  </g>
  <g id="patch_5">
   <path d="M 422.813793 138.811034 
L 538.262069 138.811034 
L 538.262069 23.362759 
L 422.813793 23.362759 
z
" style="fill:#ffffff;"/>
  </g>
  <g id="axes_4">
   <g id="Poly3DCollection_4">
    <path clip-path="url(#pa682153f3b)" d="M 487.850736 90.473985 
L 487.912043 52.873771 
L 519.080466 55.229213 
L 518.6796 93.854532 
z
" style="fill:#6a6a6a;fill-opacity:0.3;"/>
    <path clip-path="url(#pa682153f3b)" d="M 441.494681 63.623833 
L 487.912043 52.873771 
L 487.850736 90.473985 
L 441.977374 105.886194 
z
" style="fill:#e1e1e1;fill-opacity:0.3;"/>
    <path clip-path="url(#pa682153f3b)" d="M 487.850736 90.473985 
L 518.6796 93.854532 
L 475.407469 110.198258 
L 441.977374 105.886194 
z
" style="fill:#888888;fill-opacity:0.3;"/>
    <path clip-path="url(#pa682153f3b)" d="M 441.494681 63.623833 
L 475.324398 66.636745 
L 519.080466 55.229213 
L 487.912043 52.873771 
z
" style="fill:#c3c3c3;fill-opacity:0.3;"/>
    <path clip-path="url(#pa682153f3b)" d="M 475.407469 110.198258 
L 518.6796 93.854532 
L 519.080466 55.229213 
L 475.324398 66.636745 
z
" style="fill:#6a6a6a;fill-opacity:0.3;"/>
    <path clip-path="url(#pa682153f3b)" d="M 475.407469 110.198258 
L 475.324398 66.636745 
L 441.494681 63.623833 
L 441.977374 105.886194 
z
" style="fill:#e1e1e1;fill-opacity:0.3;"/>
   </g>
  </g>
  <g id="patch_6">
   <path d="M 561.351724 138.811034 
L 676.8 138.811034 
L 676.8 23.362759 
L 561.351724 23.362759 
z
" style="fill:#ffffff;"/>
  </g>
  <g id="axes_5">
   <g id="Poly3DCollection_5">
    <path clip-path="url(#p1c946541c5)" d="M 587.526209 37.776592 
L 591.429266 37.108548 
L 592.055484 113.90027 
L 588.242974 115.29611 
z
" style="fill:#e1e1e1;fill-opacity:0.3;"/>
    <path clip-path="url(#p1c946541c5)" d="M 592.055484 113.90027 
L 654.595883 122.348977 
L 651.198272 123.913807 
L 588.242974 115.29611 
z
" style="fill:#888888;fill-opacity:0.3;"/>
    <path clip-path="url(#p1c946541c5)" d="M 592.055484 113.90027 
L 591.429266 37.108548 
L 655.384512 41.156404 
L 654.595883 122.348977 
z
" style="fill:#6a6a6a;fill-opacity:0.3;"/>
    <path clip-path="url(#p1c946541c5)" d="M 651.198272 123.913807 
L 651.915436 41.90727 
L 587.526209 37.776592 
L 588.242974 115.29611 
z
" style="fill:#e1e1e1;fill-opacity:0.3;"/>
    <path clip-path="url(#p1c946541c5)" d="M 587.526209 37.776592 
L 651.915436 41.90727 
L 655.384512 41.156404 
L 591.429266 37.108548 
z
" style="fill:#c3c3c3;fill-opacity:0.3;"/>
    <path clip-path="url(#p1c946541c5)" d="M 651.198272 123.913807 
L 654.595883 122.348977 
L 655.384512 41.156404 
L 651.915436 41.90727 
z
" style="fill:#6a6a6a;fill-opacity:0.3;"/>
   </g>
   <g id="patch_7">
    <path d="M 154.166365 81.086897 
Q 134.19301 81.086897 113.101622 81.086897 
" style="fill:none;stroke:#000000;stroke-linecap:round;"/>
    <path d="M 150.166365 79.086897 
L 154.166365 81.086897 
L 150.166365 83.086897 
" style="fill:none;stroke:#000000;stroke-linecap:round;"/>
   </g>
   <g id="patch_8">
    <path d="M 292.704296 81.086897 
Q 272.730941 81.086897 251.639553 81.086897 
" style="fill:none;stroke:#000000;stroke-linecap:round;"/>
    <path d="M 288.704296 79.086897 
L 292.704296 81.086897 
L 288.704296 83.086897 
" style="fill:none;stroke:#000000;stroke-linecap:round;"/>
   </g>
   <g id="patch_9">
    <path d="M 431.242227 81.086897 
Q 411.268873 81.086897 390.177484 81.086897 
" style="fill:none;stroke:#000000;stroke-linecap:round;"/>
    <path d="M 427.242227 79.086897 
L 431.242227 81.086897 
L 427.242227 83.086897 
" style="fill:none;stroke:#000000;stroke-linecap:round;"/>
   </g>
   <g id="patch_10">
    <path d="M 569.780158 81.086897 
Q 549.806804 81.086897 528.715415 81.086897 
" style="fill:none;stroke:#000000;stroke-linecap:round;"/>
    <path d="M 565.780158 79.086897 
L 569.780158 81.086897 
L 565.780158 83.086897 
" style="fill:none;stroke:#000000;stroke-linecap:round;"/>
   </g>
   <g id="patch_11">
    <path d="M 480.537931 31.790628 
L 480.537931 7.2 
L 203.462069 7.2 
L 203.462069 32.908662 
" style="fill:none;stroke:#000000;stroke-linecap:round;"/>
    <path d="M 482.537931 27.790628 
L 480.537931 31.790628 
L 478.537931 27.790628 
" style="fill:none;stroke:#000000;stroke-linecap:round;"/>
   </g>
   <g id="text_1">
    <!-- skip connections -->
    <g transform="translate(301.19375 20.054331)scale(0.1 -0.1)">
     <defs>
      <path d="M 44.28125 53.078125 
L 44.28125 44.578125 
Q 40.484375 46.53125 36.375 47.5 
Q 32.28125 48.484375 27.875 48.484375 
Q 21.1875 48.484375 17.84375 46.4375 
Q 14.5 44.390625 14.5 40.28125 
Q 14.5 37.15625 16.890625 35.375 
Q 19.28125 33.59375 26.515625 31.984375 
L 29.59375 31.296875 
Q 39.15625 29.25 43.1875 25.515625 
Q 47.21875 21.78125 47.21875 15.09375 
Q 47.21875 7.46875 41.1875 3.015625 
Q 35.15625 -1.421875 24.609375 -1.421875 
Q 20.21875 -1.421875 15.453125 -0.5625 
Q 10.6875 0.296875 5.421875 2 
L 5.421875 11.28125 
Q 10.40625 8.6875 15.234375 7.390625 
Q 20.0625 6.109375 24.8125 6.109375 
Q 31.15625 6.109375 34.5625 8.28125 
Q 37.984375 10.453125 37.984375 14.40625 
Q 37.984375 18.0625 35.515625 20.015625 
Q 33.0625 21.96875 24.703125 23.78125 
L 21.578125 24.515625 
Q 13.234375 26.265625 9.515625 29.90625 
Q 5.8125 33.546875 5.8125 39.890625 
Q 5.8125 47.609375 11.28125 51.796875 
Q 16.75 56 26.8125 56 
Q 31.78125 56 36.171875 55.265625 
Q 40.578125 54.546875 44.28125 53.078125 
z
" id="DejaVuSans-115"/>
      <path d="M 9.078125 75.984375 
L 18.109375 75.984375 
L 18.109375 31.109375 
L 44.921875 54.6875 
L 56.390625 54.6875 
L 27.390625 29.109375 
L 57.625 0 
L 45.90625 0 
L 18.109375 26.703125 
L 18.109375 0 
L 9.078125 0 
z
" id="DejaVuSans-107"/>
      <path d="M 9.421875 54.6875 
L 18.40625 54.6875 
L 18.40625 0 
L 9.421875 0 
z
M 9.421875 75.984375 
L 18.40625 75.984375 
L 18.40625 64.59375 
L 9.421875 64.59375 
z
" id="DejaVuSans-105"/>
      <path d="M 18.109375 8.203125 
L 18.109375 -20.796875 
L 9.078125 -20.796875 
L 9.078125 54.6875 
L 18.109375 54.6875 
L 18.109375 46.390625 
Q 20.953125 51.265625 25.265625 53.625 
Q 29.59375 56 35.59375 56 
Q 45.5625 56 51.78125 48.09375 
Q 58.015625 40.1875 58.015625 27.296875 
Q 58.015625 14.40625 51.78125 6.484375 
Q 45.5625 -1.421875 35.59375 -1.421875 
Q 29.59375 -1.421875 25.265625 0.953125 
Q 20.953125 3.328125 18.109375 8.203125 
z
M 48.6875 27.296875 
Q 48.6875 37.203125 44.609375 42.84375 
Q 40.53125 48.484375 33.40625 48.484375 
Q 26.265625 48.484375 22.1875 42.84375 
Q 18.109375 37.203125 18.109375 27.296875 
Q 18.109375 17.390625 22.1875 11.75 
Q 26.265625 6.109375 33.40625 6.109375 
Q 40.53125 6.109375 44.609375 11.75 
Q 48.6875 17.390625 48.6875 27.296875 
z
" id="DejaVuSans-112"/>
      <path id="DejaVuSans-32"/>
      <path d="M 48.78125 52.59375 
L 48.78125 44.1875 
Q 44.96875 46.296875 41.140625 47.34375 
Q 37.3125 48.390625 33.40625 48.390625 
Q 24.65625 48.390625 19.8125 42.84375 
Q 14.984375 37.3125 14.984375 27.296875 
Q 14.984375 17.28125 19.8125 11.734375 
Q 24.65625 6.203125 33.40625 6.203125 
Q 37.3125 6.203125 41.140625 7.25 
Q 44.96875 8.296875 48.78125 10.40625 
L 48.78125 2.09375 
Q 45.015625 0.34375 40.984375 -0.53125 
Q 36.96875 -1.421875 32.421875 -1.421875 
Q 20.0625 -1.421875 12.78125 6.34375 
Q 5.515625 14.109375 5.515625 27.296875 
Q 5.515625 40.671875 12.859375 48.328125 
Q 20.21875 56 33.015625 56 
Q 37.15625 56 41.109375 55.140625 
Q 45.0625 54.296875 48.78125 52.59375 
z
" id="DejaVuSans-99"/>
      <path d="M 30.609375 48.390625 
Q 23.390625 48.390625 19.1875 42.75 
Q 14.984375 37.109375 14.984375 27.296875 
Q 14.984375 17.484375 19.15625 11.84375 
Q 23.34375 6.203125 30.609375 6.203125 
Q 37.796875 6.203125 41.984375 11.859375 
Q 46.1875 17.53125 46.1875 27.296875 
Q 46.1875 37.015625 41.984375 42.703125 
Q 37.796875 48.390625 30.609375 48.390625 
z
M 30.609375 56 
Q 42.328125 56 49.015625 48.375 
Q 55.71875 40.765625 55.71875 27.296875 
Q 55.71875 13.875 49.015625 6.21875 
Q 42.328125 -1.421875 30.609375 -1.421875 
Q 18.84375 -1.421875 12.171875 6.21875 
Q 5.515625 13.875 5.515625 27.296875 
Q 5.515625 40.765625 12.171875 48.375 
Q 18.84375 56 30.609375 56 
z
" id="DejaVuSans-111"/>
      <path d="M 54.890625 33.015625 
L 54.890625 0 
L 45.90625 0 
L 45.90625 32.71875 
Q 45.90625 40.484375 42.875 44.328125 
Q 39.84375 48.1875 33.796875 48.1875 
Q 26.515625 48.1875 22.3125 43.546875 
Q 18.109375 38.921875 18.109375 30.90625 
L 18.109375 0 
L 9.078125 0 
L 9.078125 54.6875 
L 18.109375 54.6875 
L 18.109375 46.1875 
Q 21.34375 51.125 25.703125 53.5625 
Q 30.078125 56 35.796875 56 
Q 45.21875 56 50.046875 50.171875 
Q 54.890625 44.34375 54.890625 33.015625 
z
" id="DejaVuSans-110"/>
      <path d="M 56.203125 29.59375 
L 56.203125 25.203125 
L 14.890625 25.203125 
Q 15.484375 15.921875 20.484375 11.0625 
Q 25.484375 6.203125 34.421875 6.203125 
Q 39.59375 6.203125 44.453125 7.46875 
Q 49.3125 8.734375 54.109375 11.28125 
L 54.109375 2.78125 
Q 49.265625 0.734375 44.1875 -0.34375 
Q 39.109375 -1.421875 33.890625 -1.421875 
Q 20.796875 -1.421875 13.15625 6.1875 
Q 5.515625 13.8125 5.515625 26.8125 
Q 5.515625 40.234375 12.765625 48.109375 
Q 20.015625 56 32.328125 56 
Q 43.359375 56 49.78125 48.890625 
Q 56.203125 41.796875 56.203125 29.59375 
z
M 47.21875 32.234375 
Q 47.125 39.59375 43.09375 43.984375 
Q 39.0625 48.390625 32.421875 48.390625 
Q 24.90625 48.390625 20.390625 44.140625 
Q 15.875 39.890625 15.1875 32.171875 
z
" id="DejaVuSans-101"/>
      <path d="M 18.3125 70.21875 
L 18.3125 54.6875 
L 36.8125 54.6875 
L 36.8125 47.703125 
L 18.3125 47.703125 
L 18.3125 18.015625 
Q 18.3125 11.328125 20.140625 9.421875 
Q 21.96875 7.515625 27.59375 7.515625 
L 36.8125 7.515625 
L 36.8125 0 
L 27.59375 0 
Q 17.1875 0 13.234375 3.875 
Q 9.28125 7.765625 9.28125 18.015625 
L 9.28125 47.703125 
L 2.6875 47.703125 
L 2.6875 54.6875 
L 9.28125 54.6875 
L 9.28125 70.21875 
z
" id="DejaVuSans-116"/>
     </defs>
     <use xlink:href="#DejaVuSans-115"/>
     <use x="52.099609" xlink:href="#DejaVuSans-107"/>
     <use x="110.009766" xlink:href="#DejaVuSans-105"/>
     <use x="137.792969" xlink:href="#DejaVuSans-112"/>
     <use x="201.269531" xlink:href="#DejaVuSans-32"/>
     <use x="233.056641" xlink:href="#DejaVuSans-99"/>
     <use x="288.037109" xlink:href="#DejaVuSans-111"/>
     <use x="349.21875" xlink:href="#DejaVuSans-110"/>
     <use x="412.597656" xlink:href="#DejaVuSans-110"/>
     <use x="475.976562" xlink:href="#DejaVuSans-101"/>
     <use x="537.5" xlink:href="#DejaVuSans-99"/>
     <use x="592.480469" xlink:href="#DejaVuSans-116"/>
     <use x="631.689453" xlink:href="#DejaVuSans-105"/>
     <use x="659.472656" xlink:href="#DejaVuSans-111"/>
     <use x="720.654297" xlink:href="#DejaVuSans-110"/>
     <use x="784.033203" xlink:href="#DejaVuSans-115"/>
    </g>
   </g>
  </g>
 </g>
 <defs>
  <clipPath id="p95c7a44025">
   <rect height="115.448276" width="115.448276" x="7.2" y="23.362759"/>
  </clipPath>
  <clipPath id="pe6b1a0dd8c">
   <rect height="115.448276" width="115.448276" x="145.737931" y="23.362759"/>
  </clipPath>
  <clipPath id="p050eac297c">
   <rect height="115.448276" width="115.448276" x="284.275862" y="23.362759"/>
  </clipPath>
  <clipPath id="pa682153f3b">
   <rect height="115.448276" width="115.448276" x="422.813793" y="23.362759"/>
  </clipPath>
  <clipPath id="p1c946541c5">
   <rect height="115.448276" width="115.448276" x="561.351724" y="23.362759"/>
  </clipPath>
 </defs>
</svg>
