<?xml version="1.0" encoding="utf-8" standalone="no"?>
<!DOCTYPE svg PUBLIC "-//W3C//DTD SVG 1.1//EN"
  "http://www.w3.org/Graphics/SVG/1.1/DTD/svg11.dtd">
<svg height="186.639063pt" version="1.1" viewBox="0 0 349.2 186.639063" width="349.2pt" xmlns="http://www.w3.org/2000/svg" xmlns:xlink="http://www.w3.org/1999/xlink">
 <metadata>
  <rdf:RDF xmlns:cc="http://creativecommons.org/ns#" xmlns:dc="http://purl.org/dc/elements/1.1/" xmlns:rdf="http://www.w3.org/1999/02/22-rdf-syntax-ns#">
   <cc:Work>
    <dc:type rdf:resource="http://purl.org/dc/dcmitype/StillImage"/>
    <dc:date>2021-10-02T10:37:58.723261</dc:date>
    <dc:format>image/svg+xml</dc:format>
    <dc:creator>
     <cc:Agent>
      <dc:title>Matplotlib v3.4.3, https://matplotlib.org/</dc:title>
     </cc:Agent>
    </dc:creator>
   </cc:Work>
  </rdf:RDF>
 </metadata>
 <defs>
  <style type="text/css">*{stroke-linecap:butt;stroke-linejoin:round;}</style>
 </defs>
 <g id="figure_1">
  <g id="patch_1">
   <path d="M 0 186.639063 
L 349.2 186.639063 
L 349.2 0 
L 0 0 
z
" style="fill:none;"/>
  </g>
  <g id="axes_1">
   <g id="line2d_1">
    <path clip-path="url(#pd042f3cb8c)" d="M 38.5875 57.42 
L 122.2875 23.94 
" style="fill:none;stroke:#000000;stroke-linecap:square;stroke-width:0.25;"/>
   </g>
   <g id="line2d_2">
    <path clip-path="url(#pd042f3cb8c)" d="M 38.5875 57.42 
L 122.2875 57.42 
" style="fill:none;stroke:#000000;stroke-linecap:square;stroke-width:0.25;"/>
   </g>
   <g id="line2d_3">
    <path clip-path="url(#pd042f3cb8c)" d="M 38.5875 57.42 
L 122.2875 90.9 
" style="fill:none;stroke:#000000;stroke-linecap:square;stroke-width:0.25;"/>
   </g>
   <g id="line2d_4">
    <path clip-path="url(#pd042f3cb8c)" d="M 38.5875 57.42 
L 122.2875 124.38 
" style="fill:none;stroke:#000000;stroke-linecap:square;stroke-width:0.25;"/>
   </g>
   <g id="line2d_5">
    <path clip-path="url(#pd042f3cb8c)" d="M 38.5875 57.42 
L 122.2875 157.86 
" style="fill:none;stroke:#000000;stroke-linecap:square;stroke-width:0.25;"/>
   </g>
   <g id="line2d_6">
    <path clip-path="url(#pd042f3cb8c)" d="M 38.5875 90.9 
L 122.2875 23.94 
" style="fill:none;stroke:#000000;stroke-linecap:square;stroke-width:0.25;"/>
   </g>
   <g id="line2d_7">
    <path clip-path="url(#pd042f3cb8c)" d="M 38.5875 90.9 
L 122.2875 57.42 
" style="fill:none;stroke:#000000;stroke-linecap:square;stroke-width:0.25;"/>
   </g>
   <g id="line2d_8">
    <path clip-path="url(#pd042f3cb8c)" d="M 38.5875 90.9 
L 122.2875 90.9 
" style="fill:none;stroke:#000000;stroke-linecap:square;stroke-width:0.25;"/>
   </g>
   <g id="line2d_9">
    <path clip-path="url(#pd042f3cb8c)" d="M 38.5875 90.9 
L 122.2875 124.38 
" style="fill:none;stroke:#000000;stroke-linecap:square;stroke-width:0.25;"/>
   </g>
   <g id="line2d_10">
    <path clip-path="url(#pd042f3cb8c)" d="M 38.5875 90.9 
L 122.2875 157.86 
" style="fill:none;stroke:#000000;stroke-linecap:square;stroke-width:0.25;"/>
   </g>
   <g id="line2d_11">
    <path clip-path="url(#pd042f3cb8c)" d="M 38.5875 124.38 
L 122.2875 23.94 
" style="fill:none;stroke:#000000;stroke-linecap:square;stroke-width:0.25;"/>
   </g>
   <g id="line2d_12">
    <path clip-path="url(#pd042f3cb8c)" d="M 38.5875 124.38 
L 122.2875 57.42 
" style="fill:none;stroke:#000000;stroke-linecap:square;stroke-width:0.25;"/>
   </g>
   <g id="line2d_13">
    <path clip-path="url(#pd042f3cb8c)" d="M 38.5875 124.38 
L 122.2875 90.9 
" style="fill:none;stroke:#000000;stroke-linecap:square;stroke-width:0.25;"/>
   </g>
   <g id="line2d_14">
    <path clip-path="url(#pd042f3cb8c)" d="M 38.5875 124.38 
L 122.2875 124.38 
" style="fill:none;stroke:#000000;stroke-linecap:square;stroke-width:0.25;"/>
   </g>
   <g id="line2d_15">
    <path clip-path="url(#pd042f3cb8c)" d="M 38.5875 124.38 
L 122.2875 157.86 
" style="fill:none;stroke:#000000;stroke-linecap:square;stroke-width:0.25;"/>
   </g>
   <g id="line2d_16">
    <path clip-path="url(#pd042f3cb8c)" d="M 122.2875 23.94 
L 205.9875 23.94 
" style="fill:none;stroke:#000000;stroke-linecap:square;stroke-width:0.25;"/>
   </g>
   <g id="line2d_17">
    <path clip-path="url(#pd042f3cb8c)" d="M 122.2875 23.94 
L 205.9875 57.42 
" style="fill:none;stroke:#000000;stroke-linecap:square;stroke-width:0.25;"/>
   </g>
   <g id="line2d_18">
    <path clip-path="url(#pd042f3cb8c)" d="M 122.2875 23.94 
L 205.9875 90.9 
" style="fill:none;stroke:#000000;stroke-linecap:square;stroke-width:0.25;"/>
   </g>
   <g id="line2d_19">
    <path clip-path="url(#pd042f3cb8c)" d="M 122.2875 23.94 
L 205.9875 124.38 
" style="fill:none;stroke:#000000;stroke-linecap:square;stroke-width:0.25;"/>
   </g>
   <g id="line2d_20">
    <path clip-path="url(#pd042f3cb8c)" d="M 122.2875 23.94 
L 205.9875 157.86 
" style="fill:none;stroke:#000000;stroke-linecap:square;stroke-width:0.25;"/>
   </g>
   <g id="line2d_21">
    <path clip-path="url(#pd042f3cb8c)" d="M 122.2875 57.42 
L 205.9875 23.94 
" style="fill:none;stroke:#000000;stroke-linecap:square;stroke-width:0.25;"/>
   </g>
   <g id="line2d_22">
    <path clip-path="url(#pd042f3cb8c)" d="M 122.2875 57.42 
L 205.9875 57.42 
" style="fill:none;stroke:#000000;stroke-linecap:square;stroke-width:0.25;"/>
   </g>
   <g id="line2d_23">
    <path clip-path="url(#pd042f3cb8c)" d="M 122.2875 57.42 
L 205.9875 90.9 
" style="fill:none;stroke:#000000;stroke-linecap:square;stroke-width:0.25;"/>
   </g>
   <g id="line2d_24">
    <path clip-path="url(#pd042f3cb8c)" d="M 122.2875 57.42 
L 205.9875 124.38 
" style="fill:none;stroke:#000000;stroke-linecap:square;stroke-width:0.25;"/>
   </g>
   <g id="line2d_25">
    <path clip-path="url(#pd042f3cb8c)" d="M 122.2875 57.42 
L 205.9875 157.86 
" style="fill:none;stroke:#000000;stroke-linecap:square;stroke-width:0.25;"/>
   </g>
   <g id="line2d_26">
    <path clip-path="url(#pd042f3cb8c)" d="M 122.2875 90.9 
L 205.9875 23.94 
" style="fill:none;stroke:#000000;stroke-linecap:square;stroke-width:0.25;"/>
   </g>
   <g id="line2d_27">
    <path clip-path="url(#pd042f3cb8c)" d="M 122.2875 90.9 
L 205.9875 57.42 
" style="fill:none;stroke:#000000;stroke-linecap:square;stroke-width:0.25;"/>
   </g>
   <g id="line2d_28">
    <path clip-path="url(#pd042f3cb8c)" d="M 122.2875 90.9 
L 205.9875 90.9 
" style="fill:none;stroke:#000000;stroke-linecap:square;stroke-width:0.25;"/>
   </g>
   <g id="line2d_29">
    <path clip-path="url(#pd042f3cb8c)" d="M 122.2875 90.9 
L 205.9875 124.38 
" style="fill:none;stroke:#000000;stroke-linecap:square;stroke-width:0.25;"/>
   </g>
   <g id="line2d_30">
    <path clip-path="url(#pd042f3cb8c)" d="M 122.2875 90.9 
L 205.9875 157.86 
" style="fill:none;stroke:#000000;stroke-linecap:square;stroke-width:0.25;"/>
   </g>
   <g id="line2d_31">
    <path clip-path="url(#pd042f3cb8c)" d="M 122.2875 124.38 
L 205.9875 23.94 
" style="fill:none;stroke:#000000;stroke-linecap:square;stroke-width:0.25;"/>
   </g>
   <g id="line2d_32">
    <path clip-path="url(#pd042f3cb8c)" d="M 122.2875 124.38 
L 205.9875 57.42 
" style="fill:none;stroke:#000000;stroke-linecap:square;stroke-width:0.25;"/>
   </g>
   <g id="line2d_33">
    <path clip-path="url(#pd042f3cb8c)" d="M 122.2875 124.38 
L 205.9875 90.9 
" style="fill:none;stroke:#000000;stroke-linecap:square;stroke-width:0.25;"/>
   </g>
   <g id="line2d_34">
    <path clip-path="url(#pd042f3cb8c)" d="M 122.2875 124.38 
L 205.9875 124.38 
" style="fill:none;stroke:#000000;stroke-linecap:square;stroke-width:0.25;"/>
   </g>
   <g id="line2d_35">
    <path clip-path="url(#pd042f3cb8c)" d="M 122.2875 124.38 
L 205.9875 157.86 
" style="fill:none;stroke:#000000;stroke-linecap:square;stroke-width:0.25;"/>
   </g>
   <g id="line2d_36">
    <path clip-path="url(#pd042f3cb8c)" d="M 122.2875 157.86 
L 205.9875 23.94 
" style="fill:none;stroke:#000000;stroke-linecap:square;stroke-width:0.25;"/>
   </g>
   <g id="line2d_37">
    <path clip-path="url(#pd042f3cb8c)" d="M 122.2875 157.86 
L 205.9875 57.42 
" style="fill:none;stroke:#000000;stroke-linecap:square;stroke-width:0.25;"/>
   </g>
   <g id="line2d_38">
    <path clip-path="url(#pd042f3cb8c)" d="M 122.2875 157.86 
L 205.9875 90.9 
" style="fill:none;stroke:#000000;stroke-linecap:square;stroke-width:0.25;"/>
   </g>
   <g id="line2d_39">
    <path clip-path="url(#pd042f3cb8c)" d="M 122.2875 157.86 
L 205.9875 124.38 
" style="fill:none;stroke:#000000;stroke-linecap:square;stroke-width:0.25;"/>
   </g>
   <g id="line2d_40">
    <path clip-path="url(#pd042f3cb8c)" d="M 122.2875 157.86 
L 205.9875 157.86 
" style="fill:none;stroke:#000000;stroke-linecap:square;stroke-width:0.25;"/>
   </g>
   <g id="line2d_41">
    <path clip-path="url(#pd042f3cb8c)" d="M 205.9875 23.94 
L 289.6875 40.68 
" style="fill:none;stroke:#000000;stroke-linecap:square;stroke-width:0.25;"/>
   </g>
   <g id="line2d_42">
    <path clip-path="url(#pd042f3cb8c)" d="M 205.9875 23.94 
L 289.6875 74.16 
" style="fill:none;stroke:#000000;stroke-linecap:square;stroke-width:0.25;"/>
   </g>
   <g id="line2d_43">
    <path clip-path="url(#pd042f3cb8c)" d="M 205.9875 23.94 
L 289.6875 107.64 
" style="fill:none;stroke:#000000;stroke-linecap:square;stroke-width:0.25;"/>
   </g>
   <g id="line2d_44">
    <path clip-path="url(#pd042f3cb8c)" d="M 205.9875 23.94 
L 289.6875 141.12 
" style="fill:none;stroke:#000000;stroke-linecap:square;stroke-width:0.25;"/>
   </g>
   <g id="line2d_45">
    <path clip-path="url(#pd042f3cb8c)" d="M 205.9875 57.42 
L 289.6875 40.68 
" style="fill:none;stroke:#000000;stroke-linecap:square;stroke-width:0.25;"/>
   </g>
   <g id="line2d_46">
    <path clip-path="url(#pd042f3cb8c)" d="M 205.9875 57.42 
L 289.6875 74.16 
" style="fill:none;stroke:#000000;stroke-linecap:square;stroke-width:0.25;"/>
   </g>
   <g id="line2d_47">
    <path clip-path="url(#pd042f3cb8c)" d="M 205.9875 57.42 
L 289.6875 107.64 
" style="fill:none;stroke:#000000;stroke-linecap:square;stroke-width:0.25;"/>
   </g>
   <g id="line2d_48">
    <path clip-path="url(#pd042f3cb8c)" d="M 205.9875 57.42 
L 289.6875 141.12 
" style="fill:none;stroke:#000000;stroke-linecap:square;stroke-width:0.25;"/>
   </g>
   <g id="line2d_49">
    <path clip-path="url(#pd042f3cb8c)" d="M 205.9875 90.9 
L 289.6875 40.68 
" style="fill:none;stroke:#000000;stroke-linecap:square;stroke-width:0.25;"/>
   </g>
   <g id="line2d_50">
    <path clip-path="url(#pd042f3cb8c)" d="M 205.9875 90.9 
L 289.6875 74.16 
" style="fill:none;stroke:#000000;stroke-linecap:square;stroke-width:0.25;"/>
   </g>
   <g id="line2d_51">
    <path clip-path="url(#pd042f3cb8c)" d="M 205.9875 90.9 
L 289.6875 107.64 
" style="fill:none;stroke:#000000;stroke-linecap:square;stroke-width:0.25;"/>
   </g>
   <g id="line2d_52">
    <path clip-path="url(#pd042f3cb8c)" d="M 205.9875 90.9 
L 289.6875 141.12 
" style="fill:none;stroke:#000000;stroke-linecap:square;stroke-width:0.25;"/>
   </g>
   <g id="line2d_53">
    <path clip-path="url(#pd042f3cb8c)" d="M 205.9875 124.38 
L 289.6875 40.68 
" style="fill:none;stroke:#000000;stroke-linecap:square;stroke-width:0.25;"/>
   </g>
   <g id="line2d_54">
    <path clip-path="url(#pd042f3cb8c)" d="M 205.9875 124.38 
L 289.6875 74.16 
" style="fill:none;stroke:#000000;stroke-linecap:square;stroke-width:0.25;"/>
   </g>
   <g id="line2d_55">
    <path clip-path="url(#pd042f3cb8c)" d="M 205.9875 124.38 
L 289.6875 107.64 
" style="fill:none;stroke:#000000;stroke-linecap:square;stroke-width:0.25;"/>
   </g>
   <g id="line2d_56">
    <path clip-path="url(#pd042f3cb8c)" d="M 205.9875 124.38 
L 289.6875 141.12 
" style="fill:none;stroke:#000000;stroke-linecap:square;stroke-width:0.25;"/>
   </g>
   <g id="line2d_57">
    <path clip-path="url(#pd042f3cb8c)" d="M 205.9875 157.86 
L 289.6875 40.68 
" style="fill:none;stroke:#000000;stroke-linecap:square;stroke-width:0.25;"/>
   </g>
   <g id="line2d_58">
    <path clip-path="url(#pd042f3cb8c)" d="M 205.9875 157.86 
L 289.6875 74.16 
" style="fill:none;stroke:#000000;stroke-linecap:square;stroke-width:0.25;"/>
   </g>
   <g id="line2d_59">
    <path clip-path="url(#pd042f3cb8c)" d="M 205.9875 157.86 
L 289.6875 107.64 
" style="fill:none;stroke:#000000;stroke-linecap:square;stroke-width:0.25;"/>
   </g>
   <g id="line2d_60">
    <path clip-path="url(#pd042f3cb8c)" d="M 205.9875 157.86 
L 289.6875 141.12 
" style="fill:none;stroke:#000000;stroke-linecap:square;stroke-width:0.25;"/>
   </g>
   <g id="patch_2">
    <path clip-path="url(#pd042f3cb8c)" d="M 38.5875 63.279 
C 40.141325 63.279 41.631718 62.661659 42.730439 61.562939 
C 43.829159 60.464218 44.4465 58.973825 44.4465 57.42 
C 44.4465 55.866175 43.829159 54.375782 42.730439 53.277061 
C 41.631718 52.178341 40.141325 51.561 38.5875 51.561 
C 37.033675 51.561 35.543282 52.178341 34.444561 53.277061 
C 33.345841 54.375782 32.7285 55.866175 32.7285 57.42 
C 32.7285 58.973825 33.345841 60.464218 34.444561 61.562939 
C 35.543282 62.661659 37.033675 63.279 38.5875 63.279 
z
" style="fill:#ffffff;stroke:#1f77b4;stroke-linejoin:miter;"/>
   </g>
   <g id="patch_3">
    <path clip-path="url(#pd042f3cb8c)" d="M 38.5875 96.759 
C 40.141325 96.759 41.631718 96.141659 42.730439 95.042939 
C 43.829159 93.944218 44.4465 92.453825 44.4465 90.9 
C 44.4465 89.346175 43.829159 87.855782 42.730439 86.757061 
C 41.631718 85.658341 40.141325 85.041 38.5875 85.041 
C 37.033675 85.041 35.543282 85.658341 34.444561 86.757061 
C 33.345841 87.855782 32.7285 89.346175 32.7285 90.9 
C 32.7285 92.453825 33.345841 93.944218 34.444561 95.042939 
C 35.543282 96.141659 37.033675 96.759 38.5875 96.759 
z
" style="fill:#ffffff;stroke:#1f77b4;stroke-linejoin:miter;"/>
   </g>
   <g id="patch_4">
    <path clip-path="url(#pd042f3cb8c)" d="M 38.5875 130.239 
C 40.141325 130.239 41.631718 129.621659 42.730439 128.522939 
C 43.829159 127.424218 44.4465 125.933825 44.4465 124.38 
C 44.4465 122.826175 43.829159 121.335782 42.730439 120.237061 
C 41.631718 119.138341 40.141325 118.521 38.5875 118.521 
C 37.033675 118.521 35.543282 119.138341 34.444561 120.237061 
C 33.345841 121.335782 32.7285 122.826175 32.7285 124.38 
C 32.7285 125.933825 33.345841 127.424218 34.444561 128.522939 
C 35.543282 129.621659 37.033675 130.239 38.5875 130.239 
z
" style="fill:#ffffff;stroke:#1f77b4;stroke-linejoin:miter;"/>
   </g>
   <g id="patch_5">
    <path clip-path="url(#pd042f3cb8c)" d="M 122.2875 29.799 
C 123.841325 29.799 125.331718 29.181659 126.430439 28.082939 
C 127.529159 26.984218 128.1465 25.493825 128.1465 23.94 
C 128.1465 22.386175 127.529159 20.895782 126.430439 19.797061 
C 125.331718 18.698341 123.841325 18.081 122.2875 18.081 
C 120.733675 18.081 119.243282 18.698341 118.144561 19.797061 
C 117.045841 20.895782 116.4285 22.386175 116.4285 23.94 
C 116.4285 25.493825 117.045841 26.984218 118.144561 28.082939 
C 119.243282 29.181659 120.733675 29.799 122.2875 29.799 
z
" style="fill:#ffffff;stroke:#ff7f0e;stroke-linejoin:miter;"/>
   </g>
   <g id="patch_6">
    <path clip-path="url(#pd042f3cb8c)" d="M 122.2875 63.279 
C 123.841325 63.279 125.331718 62.661659 126.430439 61.562939 
C 127.529159 60.464218 128.1465 58.973825 128.1465 57.42 
C 128.1465 55.866175 127.529159 54.375782 126.430439 53.277061 
C 125.331718 52.178341 123.841325 51.561 122.2875 51.561 
C 120.733675 51.561 119.243282 52.178341 118.144561 53.277061 
C 117.045841 54.375782 116.4285 55.866175 116.4285 57.42 
C 116.4285 58.973825 117.045841 60.464218 118.144561 61.562939 
C 119.243282 62.661659 120.733675 63.279 122.2875 63.279 
z
" style="fill:#ffffff;stroke:#ff7f0e;stroke-linejoin:miter;"/>
   </g>
   <g id="patch_7">
    <path clip-path="url(#pd042f3cb8c)" d="M 122.2875 96.759 
C 123.841325 96.759 125.331718 96.141659 126.430439 95.042939 
C 127.529159 93.944218 128.1465 92.453825 128.1465 90.9 
C 128.1465 89.346175 127.529159 87.855782 126.430439 86.757061 
C 125.331718 85.658341 123.841325 85.041 122.2875 85.041 
C 120.733675 85.041 119.243282 85.658341 118.144561 86.757061 
C 117.045841 87.855782 116.4285 89.346175 116.4285 90.9 
C 116.4285 92.453825 117.045841 93.944218 118.144561 95.042939 
C 119.243282 96.141659 120.733675 96.759 122.2875 96.759 
z
" style="fill:#ffffff;stroke:#ff7f0e;stroke-linejoin:miter;"/>
   </g>
   <g id="patch_8">
    <path clip-path="url(#pd042f3cb8c)" d="M 122.2875 130.239 
C 123.841325 130.239 125.331718 129.621659 126.430439 128.522939 
C 127.529159 127.424218 128.1465 125.933825 128.1465 124.38 
C 128.1465 122.826175 127.529159 121.335782 126.430439 120.237061 
C 125.331718 119.138341 123.841325 118.521 122.2875 118.521 
C 120.733675 118.521 119.243282 119.138341 118.144561 120.237061 
C 117.045841 121.335782 116.4285 122.826175 116.4285 124.38 
C 116.4285 125.933825 117.045841 127.424218 118.144561 128.522939 
C 119.243282 129.621659 120.733675 130.239 122.2875 130.239 
z
" style="fill:#ffffff;stroke:#ff7f0e;stroke-linejoin:miter;"/>
   </g>
   <g id="patch_9">
    <path clip-path="url(#pd042f3cb8c)" d="M 122.2875 163.719 
C 123.841325 163.719 125.331718 163.101659 126.430439 162.002939 
C 127.529159 160.904218 128.1465 159.413825 128.1465 157.86 
C 128.1465 156.306175 127.529159 154.815782 126.430439 153.717061 
C 125.331718 152.618341 123.841325 152.001 122.2875 152.001 
C 120.733675 152.001 119.243282 152.618341 118.144561 153.717061 
C 117.045841 154.815782 116.4285 156.306175 116.4285 157.86 
C 116.4285 159.413825 117.045841 160.904218 118.144561 162.002939 
C 119.243282 163.101659 120.733675 163.719 122.2875 163.719 
z
" style="fill:#ffffff;stroke:#ff7f0e;stroke-linejoin:miter;"/>
   </g>
   <g id="patch_10">
    <path clip-path="url(#pd042f3cb8c)" d="M 205.9875 29.799 
C 207.541325 29.799 209.031718 29.181659 210.130439 28.082939 
C 211.229159 26.984218 211.8465 25.493825 211.8465 23.94 
C 211.8465 22.386175 211.229159 20.895782 210.130439 19.797061 
C 209.031718 18.698341 207.541325 18.081 205.9875 18.081 
C 204.433675 18.081 202.943282 18.698341 201.844561 19.797061 
C 200.745841 20.895782 200.1285 22.386175 200.1285 23.94 
C 200.1285 25.493825 200.745841 26.984218 201.844561 28.082939 
C 202.943282 29.181659 204.433675 29.799 205.9875 29.799 
z
" style="fill:#ffffff;stroke:#ff7f0e;stroke-linejoin:miter;"/>
   </g>
   <g id="patch_11">
    <path clip-path="url(#pd042f3cb8c)" d="M 205.9875 63.279 
C 207.541325 63.279 209.031718 62.661659 210.130439 61.562939 
C 211.229159 60.464218 211.8465 58.973825 211.8465 57.42 
C 211.8465 55.866175 211.229159 54.375782 210.130439 53.277061 
C 209.031718 52.178341 207.541325 51.561 205.9875 51.561 
C 204.433675 51.561 202.943282 52.178341 201.844561 53.277061 
C 200.745841 54.375782 200.1285 55.866175 200.1285 57.42 
C 200.1285 58.973825 200.745841 60.464218 201.844561 61.562939 
C 202.943282 62.661659 204.433675 63.279 205.9875 63.279 
z
" style="fill:#ffffff;stroke:#ff7f0e;stroke-linejoin:miter;"/>
   </g>
   <g id="patch_12">
    <path clip-path="url(#pd042f3cb8c)" d="M 205.9875 96.759 
C 207.541325 96.759 209.031718 96.141659 210.130439 95.042939 
C 211.229159 93.944218 211.8465 92.453825 211.8465 90.9 
C 211.8465 89.346175 211.229159 87.855782 210.130439 86.757061 
C 209.031718 85.658341 207.541325 85.041 205.9875 85.041 
C 204.433675 85.041 202.943282 85.658341 201.844561 86.757061 
C 200.745841 87.855782 200.1285 89.346175 200.1285 90.9 
C 200.1285 92.453825 200.745841 93.944218 201.844561 95.042939 
C 202.943282 96.141659 204.433675 96.759 205.9875 96.759 
z
" style="fill:#ffffff;stroke:#ff7f0e;stroke-linejoin:miter;"/>
   </g>
   <g id="patch_13">
    <path clip-path="url(#pd042f3cb8c)" d="M 205.9875 130.239 
C 207.541325 130.239 209.031718 129.621659 210.130439 128.522939 
C 211.229159 127.424218 211.8465 125.933825 211.8465 124.38 
C 211.8465 122.826175 211.229159 121.335782 210.130439 120.237061 
C 209.031718 119.138341 207.541325 118.521 205.9875 118.521 
C 204.433675 118.521 202.943282 119.138341 201.844561 120.237061 
C 200.745841 121.335782 200.1285 122.826175 200.1285 124.38 
C 200.1285 125.933825 200.745841 127.424218 201.844561 128.522939 
C 202.943282 129.621659 204.433675 130.239 205.9875 130.239 
z
" style="fill:#ffffff;stroke:#ff7f0e;stroke-linejoin:miter;"/>
   </g>
   <g id="patch_14">
    <path clip-path="url(#pd042f3cb8c)" d="M 205.9875 163.719 
C 207.541325 163.719 209.031718 163.101659 210.130439 162.002939 
C 211.229159 160.904218 211.8465 159.413825 211.8465 157.86 
C 211.8465 156.306175 211.229159 154.815782 210.130439 153.717061 
C 209.031718 152.618341 207.541325 152.001 205.9875 152.001 
C 204.433675 152.001 202.943282 152.618341 201.844561 153.717061 
C 200.745841 154.815782 200.1285 156.306175 200.1285 157.86 
C 200.1285 159.413825 200.745841 160.904218 201.844561 162.002939 
C 202.943282 163.101659 204.433675 163.719 205.9875 163.719 
z
" style="fill:#ffffff;stroke:#ff7f0e;stroke-linejoin:miter;"/>
   </g>
   <g id="patch_15">
    <path clip-path="url(#pd042f3cb8c)" d="M 289.6875 46.539 
C 291.241325 46.539 292.731718 45.921659 293.830439 44.822939 
C 294.929159 43.724218 295.5465 42.233825 295.5465 40.68 
C 295.5465 39.126175 294.929159 37.635782 293.830439 36.537061 
C 292.731718 35.438341 291.241325 34.821 289.6875 34.821 
C 288.133675 34.821 286.643282 35.438341 285.544561 36.537061 
C 284.445841 37.635782 283.8285 39.126175 283.8285 40.68 
C 283.8285 42.233825 284.445841 43.724218 285.544561 44.822939 
C 286.643282 45.921659 288.133675 46.539 289.6875 46.539 
z
" style="fill:#ffffff;stroke:#ff7f0e;stroke-linejoin:miter;"/>
   </g>
   <g id="patch_16">
    <path clip-path="url(#pd042f3cb8c)" d="M 289.6875 80.019 
C 291.241325 80.019 292.731718 79.401659 293.830439 78.302939 
C 294.929159 77.204218 295.5465 75.713825 295.5465 74.16 
C 295.5465 72.606175 294.929159 71.115782 293.830439 70.017061 
C 292.731718 68.918341 291.241325 68.301 289.6875 68.301 
C 288.133675 68.301 286.643282 68.918341 285.544561 70.017061 
C 284.445841 71.115782 283.8285 72.606175 283.8285 74.16 
C 283.8285 75.713825 284.445841 77.204218 285.544561 78.302939 
C 286.643282 79.401659 288.133675 80.019 289.6875 80.019 
z
" style="fill:#ffffff;stroke:#ff7f0e;stroke-linejoin:miter;"/>
   </g>
   <g id="patch_17">
    <path clip-path="url(#pd042f3cb8c)" d="M 289.6875 113.499 
C 291.241325 113.499 292.731718 112.881659 293.830439 111.782939 
C 294.929159 110.684218 295.5465 109.193825 295.5465 107.64 
C 295.5465 106.086175 294.929159 104.595782 293.830439 103.497061 
C 292.731718 102.398341 291.241325 101.781 289.6875 101.781 
C 288.133675 101.781 286.643282 102.398341 285.544561 103.497061 
C 284.445841 104.595782 283.8285 106.086175 283.8285 107.64 
C 283.8285 109.193825 284.445841 110.684218 285.544561 111.782939 
C 286.643282 112.881659 288.133675 113.499 289.6875 113.499 
z
" style="fill:#ffffff;stroke:#ff7f0e;stroke-linejoin:miter;"/>
   </g>
   <g id="patch_18">
    <path clip-path="url(#pd042f3cb8c)" d="M 289.6875 146.979 
C 291.241325 146.979 292.731718 146.361659 293.830439 145.262939 
C 294.929159 144.164218 295.5465 142.673825 295.5465 141.12 
C 295.5465 139.566175 294.929159 138.075782 293.830439 136.977061 
C 292.731718 135.878341 291.241325 135.261 289.6875 135.261 
C 288.133675 135.261 286.643282 135.878341 285.544561 136.977061 
C 284.445841 138.075782 283.8285 139.566175 283.8285 141.12 
C 283.8285 142.673825 284.445841 144.164218 285.544561 145.262939 
C 286.643282 146.361659 288.133675 146.979 289.6875 146.979 
z
" style="fill:#ffffff;stroke:#ff7f0e;stroke-linejoin:miter;"/>
   </g>
   <g id="text_1">
    <!-- Input Layer -->
    <g transform="translate(10.110156 177.359375)scale(0.1 -0.1)">
     <defs>
      <path d="M 628 4666 
L 1259 4666 
L 1259 0 
L 628 0 
L 628 4666 
z
" id="DejaVuSans-49" transform="scale(0.015625)"/>
      <path d="M 3513 2113 
L 3513 0 
L 2938 0 
L 2938 2094 
Q 2938 2591 2744 2837 
Q 2550 3084 2163 3084 
Q 1697 3084 1428 2787 
Q 1159 2491 1159 1978 
L 1159 0 
L 581 0 
L 581 3500 
L 1159 3500 
L 1159 2956 
Q 1366 3272 1645 3428 
Q 1925 3584 2291 3584 
Q 2894 3584 3203 3211 
Q 3513 2838 3513 2113 
z
" id="DejaVuSans-6e" transform="scale(0.015625)"/>
      <path d="M 1159 525 
L 1159 -1331 
L 581 -1331 
L 581 3500 
L 1159 3500 
L 1159 2969 
Q 1341 3281 1617 3432 
Q 1894 3584 2278 3584 
Q 2916 3584 3314 3078 
Q 3713 2572 3713 1747 
Q 3713 922 3314 415 
Q 2916 -91 2278 -91 
Q 1894 -91 1617 61 
Q 1341 213 1159 525 
z
M 3116 1747 
Q 3116 2381 2855 2742 
Q 2594 3103 2138 3103 
Q 1681 3103 1420 2742 
Q 1159 2381 1159 1747 
Q 1159 1113 1420 752 
Q 1681 391 2138 391 
Q 2594 391 2855 752 
Q 3116 1113 3116 1747 
z
" id="DejaVuSans-70" transform="scale(0.015625)"/>
      <path d="M 544 1381 
L 544 3500 
L 1119 3500 
L 1119 1403 
Q 1119 906 1312 657 
Q 1506 409 1894 409 
Q 2359 409 2629 706 
Q 2900 1003 2900 1516 
L 2900 3500 
L 3475 3500 
L 3475 0 
L 2900 0 
L 2900 538 
Q 2691 219 2414 64 
Q 2138 -91 1772 -91 
Q 1169 -91 856 284 
Q 544 659 544 1381 
z
M 1991 3584 
L 1991 3584 
z
" id="DejaVuSans-75" transform="scale(0.015625)"/>
      <path d="M 1172 4494 
L 1172 3500 
L 2356 3500 
L 2356 3053 
L 1172 3053 
L 1172 1153 
Q 1172 725 1289 603 
Q 1406 481 1766 481 
L 2356 481 
L 2356 0 
L 1766 0 
Q 1100 0 847 248 
Q 594 497 594 1153 
L 594 3053 
L 172 3053 
L 172 3500 
L 594 3500 
L 594 4494 
L 1172 4494 
z
" id="DejaVuSans-74" transform="scale(0.015625)"/>
      <path id="DejaVuSans-20" transform="scale(0.015625)"/>
      <path d="M 628 4666 
L 1259 4666 
L 1259 531 
L 3531 531 
L 3531 0 
L 628 0 
L 628 4666 
z
" id="DejaVuSans-4c" transform="scale(0.015625)"/>
      <path d="M 2194 1759 
Q 1497 1759 1228 1600 
Q 959 1441 959 1056 
Q 959 750 1161 570 
Q 1363 391 1709 391 
Q 2188 391 2477 730 
Q 2766 1069 2766 1631 
L 2766 1759 
L 2194 1759 
z
M 3341 1997 
L 3341 0 
L 2766 0 
L 2766 531 
Q 2569 213 2275 61 
Q 1981 -91 1556 -91 
Q 1019 -91 701 211 
Q 384 513 384 1019 
Q 384 1609 779 1909 
Q 1175 2209 1959 2209 
L 2766 2209 
L 2766 2266 
Q 2766 2663 2505 2880 
Q 2244 3097 1772 3097 
Q 1472 3097 1187 3025 
Q 903 2953 641 2809 
L 641 3341 
Q 956 3463 1253 3523 
Q 1550 3584 1831 3584 
Q 2591 3584 2966 3190 
Q 3341 2797 3341 1997 
z
" id="DejaVuSans-61" transform="scale(0.015625)"/>
      <path d="M 2059 -325 
Q 1816 -950 1584 -1140 
Q 1353 -1331 966 -1331 
L 506 -1331 
L 506 -850 
L 844 -850 
Q 1081 -850 1212 -737 
Q 1344 -625 1503 -206 
L 1606 56 
L 191 3500 
L 800 3500 
L 1894 763 
L 2988 3500 
L 3597 3500 
L 2059 -325 
z
" id="DejaVuSans-79" transform="scale(0.015625)"/>
      <path d="M 3597 1894 
L 3597 1613 
L 953 1613 
Q 991 1019 1311 708 
Q 1631 397 2203 397 
Q 2534 397 2845 478 
Q 3156 559 3463 722 
L 3463 178 
Q 3153 47 2828 -22 
Q 2503 -91 2169 -91 
Q 1331 -91 842 396 
Q 353 884 353 1716 
Q 353 2575 817 3079 
Q 1281 3584 2069 3584 
Q 2775 3584 3186 3129 
Q 3597 2675 3597 1894 
z
M 3022 2063 
Q 3016 2534 2758 2815 
Q 2500 3097 2075 3097 
Q 1594 3097 1305 2825 
Q 1016 2553 972 2059 
L 3022 2063 
z
" id="DejaVuSans-65" transform="scale(0.015625)"/>
      <path d="M 2631 2963 
Q 2534 3019 2420 3045 
Q 2306 3072 2169 3072 
Q 1681 3072 1420 2755 
Q 1159 2438 1159 1844 
L 1159 0 
L 581 0 
L 581 3500 
L 1159 3500 
L 1159 2956 
Q 1341 3275 1631 3429 
Q 1922 3584 2338 3584 
Q 2397 3584 2469 3576 
Q 2541 3569 2628 3553 
L 2631 2963 
z
" id="DejaVuSans-72" transform="scale(0.015625)"/>
     </defs>
     <use xlink:href="#DejaVuSans-49"/>
     <use x="29.492188" xlink:href="#DejaVuSans-6e"/>
     <use x="92.871094" xlink:href="#DejaVuSans-70"/>
     <use x="156.347656" xlink:href="#DejaVuSans-75"/>
     <use x="219.726562" xlink:href="#DejaVuSans-74"/>
     <use x="258.935547" xlink:href="#DejaVuSans-20"/>
     <use x="290.722656" xlink:href="#DejaVuSans-4c"/>
     <use x="346.435547" xlink:href="#DejaVuSans-61"/>
     <use x="407.714844" xlink:href="#DejaVuSans-79"/>
     <use x="466.894531" xlink:href="#DejaVuSans-65"/>
     <use x="528.417969" xlink:href="#DejaVuSans-72"/>
    </g>
   </g>
   <g id="text_2">
    <!-- Layer 1 -->
    <g transform="translate(103.575781 177.359375)scale(0.1 -0.1)">
     <defs>
      <path d="M 794 531 
L 1825 531 
L 1825 4091 
L 703 3866 
L 703 4441 
L 1819 4666 
L 2450 4666 
L 2450 531 
L 3481 531 
L 3481 0 
L 794 0 
L 794 531 
z
" id="DejaVuSans-31" transform="scale(0.015625)"/>
     </defs>
     <use xlink:href="#DejaVuSans-4c"/>
     <use x="55.712891" xlink:href="#DejaVuSans-61"/>
     <use x="116.992188" xlink:href="#DejaVuSans-79"/>
     <use x="176.171875" xlink:href="#DejaVuSans-65"/>
     <use x="237.695312" xlink:href="#DejaVuSans-72"/>
     <use x="278.808594" xlink:href="#DejaVuSans-20"/>
     <use x="310.595703" xlink:href="#DejaVuSans-31"/>
    </g>
   </g>
   <g id="text_3">
    <!-- Layer 2 -->
    <g transform="translate(187.275781 177.359375)scale(0.1 -0.1)">
     <defs>
      <path d="M 1228 531 
L 3431 531 
L 3431 0 
L 469 0 
L 469 531 
Q 828 903 1448 1529 
Q 2069 2156 2228 2338 
Q 2531 2678 2651 2914 
Q 2772 3150 2772 3378 
Q 2772 3750 2511 3984 
Q 2250 4219 1831 4219 
Q 1534 4219 1204 4116 
Q 875 4013 500 3803 
L 500 4441 
Q 881 4594 1212 4672 
Q 1544 4750 1819 4750 
Q 2544 4750 2975 4387 
Q 3406 4025 3406 3419 
Q 3406 3131 3298 2873 
Q 3191 2616 2906 2266 
Q 2828 2175 2409 1742 
Q 1991 1309 1228 531 
z
" id="DejaVuSans-32" transform="scale(0.015625)"/>
     </defs>
     <use xlink:href="#DejaVuSans-4c"/>
     <use x="55.712891" xlink:href="#DejaVuSans-61"/>
     <use x="116.992188" xlink:href="#DejaVuSans-79"/>
     <use x="176.171875" xlink:href="#DejaVuSans-65"/>
     <use x="237.695312" xlink:href="#DejaVuSans-72"/>
     <use x="278.808594" xlink:href="#DejaVuSans-20"/>
     <use x="310.595703" xlink:href="#DejaVuSans-32"/>
    </g>
   </g>
   <g id="text_4">
    <!-- Layer 3 -->
    <g transform="translate(270.975781 177.359375)scale(0.1 -0.1)">
     <defs>
      <path d="M 2597 2516 
Q 3050 2419 3304 2112 
Q 3559 1806 3559 1356 
Q 3559 666 3084 287 
Q 2609 -91 1734 -91 
Q 1441 -91 1130 -33 
Q 819 25 488 141 
L 488 750 
Q 750 597 1062 519 
Q 1375 441 1716 441 
Q 2309 441 2620 675 
Q 2931 909 2931 1356 
Q 2931 1769 2642 2001 
Q 2353 2234 1838 2234 
L 1294 2234 
L 1294 2753 
L 1863 2753 
Q 2328 2753 2575 2939 
Q 2822 3125 2822 3475 
Q 2822 3834 2567 4026 
Q 2313 4219 1838 4219 
Q 1578 4219 1281 4162 
Q 984 4106 628 3988 
L 628 4550 
Q 988 4650 1302 4700 
Q 1616 4750 1894 4750 
Q 2613 4750 3031 4423 
Q 3450 4097 3450 3541 
Q 3450 3153 3228 2886 
Q 3006 2619 2597 2516 
z
" id="DejaVuSans-33" transform="scale(0.015625)"/>
     </defs>
     <use xlink:href="#DejaVuSans-4c"/>
     <use x="55.712891" xlink:href="#DejaVuSans-61"/>
     <use x="116.992188" xlink:href="#DejaVuSans-79"/>
     <use x="176.171875" xlink:href="#DejaVuSans-65"/>
     <use x="237.695312" xlink:href="#DejaVuSans-72"/>
     <use x="278.808594" xlink:href="#DejaVuSans-20"/>
     <use x="310.595703" xlink:href="#DejaVuSans-33"/>
    </g>
   </g>
  </g>
 </g>
 <defs>
  <clipPath id="pd042f3cb8c">
   <rect height="167.4" width="334.8" x="7.2" y="7.2"/>
  </clipPath>
 </defs>
</svg>
