<?xml version="1.0" encoding="utf-8" standalone="no"?>
<!DOCTYPE svg PUBLIC "-//W3C//DTD SVG 1.1//EN"
  "http://www.w3.org/Graphics/SVG/1.1/DTD/svg11.dtd">
<svg height="264.456pt" version="1.1" viewBox="0 0 568.208574 264.456" width="568.208574pt" xmlns="http://www.w3.org/2000/svg" xmlns:xlink="http://www.w3.org/1999/xlink">
 <metadata>
  <rdf:RDF xmlns:cc="http://creativecommons.org/ns#" xmlns:dc="http://purl.org/dc/elements/1.1/" xmlns:rdf="http://www.w3.org/1999/02/22-rdf-syntax-ns#">
   <cc:Work>
    <dc:type rdf:resource="http://purl.org/dc/dcmitype/StillImage"/>
    <dc:date>2021-10-02T10:37:59.196222</dc:date>
    <dc:format>image/svg+xml</dc:format>
    <dc:creator>
     <cc:Agent>
      <dc:title>Matplotlib v3.4.3, https://matplotlib.org/</dc:title>
     </cc:Agent>
    </dc:creator>
   </cc:Work>
  </rdf:RDF>
 </metadata>
 <defs>
  <style type="text/css">*{stroke-linecap:butt;stroke-linejoin:round;}</style>
 </defs>
 <g id="figure_1">
  <g id="patch_1">
   <path d="M 0 264.456 
L 568.208574 264.456 
L 568.208574 0 
L 0 0 
z
" style="fill:none;"/>
  </g>
  <g id="axes_1">
   <g id="line2d_1">
    <path clip-path="url(#p3ab1073067)" d="M 63.364938 76.056 
L 135.844938 76.056 
" style="fill:none;stroke:#000000;stroke-linecap:square;stroke-width:0.25;"/>
   </g>
   <g id="line2d_2">
    <path clip-path="url(#p3ab1073067)" d="M 63.364938 76.056 
L 135.844938 148.536 
" style="fill:none;stroke:#000000;stroke-linecap:square;stroke-width:0.25;"/>
   </g>
   <g id="line2d_3">
    <path clip-path="url(#p3ab1073067)" d="M 63.364938 76.056 
L 135.844938 221.016 
" style="fill:none;stroke:#000000;stroke-linecap:square;stroke-width:0.25;"/>
   </g>
   <g id="line2d_4">
    <path clip-path="url(#p3ab1073067)" d="M 63.364938 148.536 
L 135.844938 76.056 
" style="fill:none;stroke:#000000;stroke-linecap:square;stroke-width:0.25;"/>
   </g>
   <g id="line2d_5">
    <path clip-path="url(#p3ab1073067)" d="M 63.364938 148.536 
L 135.844938 148.536 
" style="fill:none;stroke:#000000;stroke-linecap:square;stroke-width:0.25;"/>
   </g>
   <g id="line2d_6">
    <path clip-path="url(#p3ab1073067)" d="M 63.364938 148.536 
L 135.844938 221.016 
" style="fill:none;stroke:#000000;stroke-linecap:square;stroke-width:0.25;"/>
   </g>
   <g id="line2d_7">
    <path clip-path="url(#p3ab1073067)" d="M 63.364938 221.016 
L 135.844938 76.056 
" style="fill:none;stroke:#000000;stroke-linecap:square;stroke-width:0.25;"/>
   </g>
   <g id="line2d_8">
    <path clip-path="url(#p3ab1073067)" d="M 63.364938 221.016 
L 135.844938 148.536 
" style="fill:none;stroke:#000000;stroke-linecap:square;stroke-width:0.25;"/>
   </g>
   <g id="line2d_9">
    <path clip-path="url(#p3ab1073067)" d="M 63.364938 221.016 
L 135.844938 221.016 
" style="fill:none;stroke:#000000;stroke-linecap:square;stroke-width:0.25;"/>
   </g>
   <g id="line2d_10">
    <path clip-path="url(#p3ab1073067)" d="M 135.844938 76.056 
L 208.324938 148.536 
" style="fill:none;stroke:#000000;stroke-linecap:square;stroke-width:0.25;"/>
   </g>
   <g id="line2d_11">
    <path clip-path="url(#p3ab1073067)" d="M 135.844938 148.536 
L 208.324938 148.536 
" style="fill:none;stroke:#000000;stroke-linecap:square;stroke-width:0.25;"/>
   </g>
   <g id="line2d_12">
    <path clip-path="url(#p3ab1073067)" d="M 135.844938 221.016 
L 208.324938 148.536 
" style="fill:none;stroke:#000000;stroke-linecap:square;stroke-width:0.25;"/>
   </g>
   <g id="text_1">
    <!-- A -->
    <g transform="translate(7.2 18.597656)scale(0.15 -0.15)">
     <defs>
      <path d="M 2188 4044 
L 1331 1722 
L 3047 1722 
L 2188 4044 
z
M 1831 4666 
L 2547 4666 
L 4325 0 
L 3669 0 
L 3244 1197 
L 1141 1197 
L 716 0 
L 50 0 
L 1831 4666 
z
" id="DejaVuSans-41" transform="scale(0.015625)"/>
     </defs>
     <use xlink:href="#DejaVuSans-41"/>
    </g>
   </g>
   <g id="patch_2">
    <path clip-path="url(#p3ab1073067)" d="M 63.364938 97.8 
C 69.131514 97.8 74.662682 95.508915 78.740267 91.43133 
C 82.817852 87.353745 85.108938 81.822576 85.108938 76.056 
C 85.108938 70.289424 82.817852 64.758255 78.740267 60.68067 
C 74.662682 56.603085 69.131514 54.312 63.364938 54.312 
C 57.598361 54.312 52.067193 56.603085 47.989608 60.68067 
C 43.912023 64.758255 41.620937 70.289424 41.620937 76.056 
C 41.620937 81.822576 43.912023 87.353745 47.989608 91.43133 
C 52.067193 95.508915 57.598361 97.8 63.364938 97.8 
z
" style="fill:#ffffff;stroke:#1f77b4;stroke-linejoin:miter;"/>
   </g>
   <g id="patch_3">
    <path clip-path="url(#p3ab1073067)" d="M 63.364938 170.28 
C 69.131514 170.28 74.662682 167.988915 78.740267 163.91133 
C 82.817852 159.833745 85.108938 154.302576 85.108938 148.536 
C 85.108938 142.769424 82.817852 137.238255 78.740267 133.16067 
C 74.662682 129.083085 69.131514 126.792 63.364938 126.792 
C 57.598361 126.792 52.067193 129.083085 47.989608 133.16067 
C 43.912023 137.238255 41.620937 142.769424 41.620937 148.536 
C 41.620937 154.302576 43.912023 159.833745 47.989608 163.91133 
C 52.067193 167.988915 57.598361 170.28 63.364938 170.28 
z
" style="fill:#ffffff;stroke:#1f77b4;stroke-linejoin:miter;"/>
   </g>
   <g id="patch_4">
    <path clip-path="url(#p3ab1073067)" d="M 63.364938 242.76 
C 69.131514 242.76 74.662682 240.468915 78.740267 236.39133 
C 82.817852 232.313745 85.108938 226.782576 85.108938 221.016 
C 85.108938 215.249424 82.817852 209.718255 78.740267 205.64067 
C 74.662682 201.563085 69.131514 199.272 63.364938 199.272 
C 57.598361 199.272 52.067193 201.563085 47.989608 205.64067 
C 43.912023 209.718255 41.620937 215.249424 41.620937 221.016 
C 41.620937 226.782576 43.912023 232.313745 47.989608 236.39133 
C 52.067193 240.468915 57.598361 242.76 63.364938 242.76 
z
" style="fill:#ffffff;stroke:#1f77b4;stroke-linejoin:miter;"/>
   </g>
   <g id="patch_5">
    <path clip-path="url(#p3ab1073067)" d="M 135.844938 97.8 
C 141.611514 97.8 147.142682 95.508915 151.220267 91.43133 
C 155.297852 87.353745 157.588938 81.822576 157.588938 76.056 
C 157.588938 70.289424 155.297852 64.758255 151.220267 60.68067 
C 147.142682 56.603085 141.611514 54.312 135.844938 54.312 
C 130.078361 54.312 124.547193 56.603085 120.469608 60.68067 
C 116.392023 64.758255 114.100938 70.289424 114.100938 76.056 
C 114.100938 81.822576 116.392023 87.353745 120.469608 91.43133 
C 124.547193 95.508915 130.078361 97.8 135.844938 97.8 
z
" style="fill:#ffffff;stroke:#ff7f0e;stroke-linejoin:miter;"/>
   </g>
   <g id="patch_6">
    <path clip-path="url(#p3ab1073067)" d="M 135.844938 170.28 
C 141.611514 170.28 147.142682 167.988915 151.220267 163.91133 
C 155.297852 159.833745 157.588938 154.302576 157.588938 148.536 
C 157.588938 142.769424 155.297852 137.238255 151.220267 133.16067 
C 147.142682 129.083085 141.611514 126.792 135.844938 126.792 
C 130.078361 126.792 124.547193 129.083085 120.469608 133.16067 
C 116.392023 137.238255 114.100938 142.769424 114.100938 148.536 
C 114.100938 154.302576 116.392023 159.833745 120.469608 163.91133 
C 124.547193 167.988915 130.078361 170.28 135.844938 170.28 
z
" style="fill:#ffffff;stroke:#ff7f0e;stroke-linejoin:miter;"/>
   </g>
   <g id="patch_7">
    <path clip-path="url(#p3ab1073067)" d="M 135.844938 242.76 
C 141.611514 242.76 147.142682 240.468915 151.220267 236.39133 
C 155.297852 232.313745 157.588938 226.782576 157.588938 221.016 
C 157.588938 215.249424 155.297852 209.718255 151.220267 205.64067 
C 147.142682 201.563085 141.611514 199.272 135.844938 199.272 
C 130.078361 199.272 124.547193 201.563085 120.469608 205.64067 
C 116.392023 209.718255 114.100938 215.249424 114.100938 221.016 
C 114.100938 226.782576 116.392023 232.313745 120.469608 236.39133 
C 124.547193 240.468915 130.078361 242.76 135.844938 242.76 
z
" style="fill:#ffffff;stroke:#ff7f0e;stroke-linejoin:miter;"/>
   </g>
   <g id="patch_8">
    <path clip-path="url(#p3ab1073067)" d="M 208.324938 170.28 
C 214.091514 170.28 219.622682 167.988915 223.700267 163.91133 
C 227.777852 159.833745 230.068938 154.302576 230.068938 148.536 
C 230.068938 142.769424 227.777852 137.238255 223.700267 133.16067 
C 219.622682 129.083085 214.091514 126.792 208.324938 126.792 
C 202.558361 126.792 197.027193 129.083085 192.949608 133.16067 
C 188.872023 137.238255 186.580938 142.769424 186.580938 148.536 
C 186.580938 154.302576 188.872023 159.833745 192.949608 163.91133 
C 197.027193 167.988915 202.558361 170.28 208.324938 170.28 
z
" style="fill:#ffffff;stroke:#ff7f0e;stroke-linejoin:miter;"/>
   </g>
   <g id="text_2">
    <!-- $x_1$ -->
    <g transform="translate(58.414938 78.815375)scale(0.1 -0.1)">
     <defs>
      <path d="M 500 184 
Q 613 97 819 97 
Q 1019 97 1172 289 
Q 1325 481 1381 709 
L 1672 1844 
Q 1741 2153 1741 2266 
Q 1741 2425 1652 2544 
Q 1563 2663 1403 2663 
Q 1200 2663 1022 2536 
Q 844 2409 722 2214 
Q 600 2019 550 1819 
Q 538 1778 500 1778 
L 422 1778 
Q 372 1778 372 1838 
L 372 1856 
Q 434 2094 584 2320 
Q 734 2547 951 2687 
Q 1169 2828 1416 2828 
Q 1650 2828 1839 2703 
Q 2028 2578 2106 2363 
Q 2216 2559 2386 2693 
Q 2556 2828 2759 2828 
Q 2897 2828 3040 2779 
Q 3184 2731 3275 2631 
Q 3366 2531 3366 2381 
Q 3366 2219 3261 2101 
Q 3156 1984 2994 1984 
Q 2891 1984 2822 2050 
Q 2753 2116 2753 2216 
Q 2753 2350 2845 2451 
Q 2938 2553 3066 2572 
Q 2950 2663 2747 2663 
Q 2541 2663 2389 2472 
Q 2238 2281 2175 2047 
L 1894 916 
Q 1825 659 1825 494 
Q 1825 331 1917 214 
Q 2009 97 2163 97 
Q 2463 97 2698 361 
Q 2934 625 3009 941 
Q 3022 978 3059 978 
L 3138 978 
Q 3163 978 3178 961 
Q 3194 944 3194 922 
Q 3194 916 3188 903 
Q 3097 522 2806 225 
Q 2516 -72 2150 -72 
Q 1916 -72 1727 54 
Q 1538 181 1459 397 
Q 1359 209 1182 68 
Q 1006 -72 806 -72 
Q 669 -72 523 -23 
Q 378 25 287 125 
Q 197 225 197 378 
Q 197 528 301 651 
Q 406 775 563 775 
Q 669 775 741 711 
Q 813 647 813 544 
Q 813 409 723 309 
Q 634 209 500 184 
z
" id="Cmmi10-78" transform="scale(0.015625)"/>
      <path d="M 594 0 
L 594 225 
Q 1394 225 1394 428 
L 1394 3788 
Q 1063 3628 556 3628 
L 556 3853 
Q 1341 3853 1741 4263 
L 1831 4263 
Q 1853 4263 1873 4245 
Q 1894 4228 1894 4206 
L 1894 428 
Q 1894 225 2694 225 
L 2694 0 
L 594 0 
z
" id="Cmr10-31" transform="scale(0.015625)"/>
     </defs>
     <use transform="translate(0 0.8125)" xlink:href="#Cmmi10-78"/>
     <use transform="translate(57.080078 -16.19375)scale(0.7)" xlink:href="#Cmr10-31"/>
    </g>
   </g>
   <g id="text_3">
    <!-- $x_2$ -->
    <g transform="translate(58.414938 151.295375)scale(0.1 -0.1)">
     <defs>
      <path d="M 319 0 
L 319 172 
Q 319 188 331 206 
L 1325 1306 
Q 1550 1550 1690 1715 
Q 1831 1881 1968 2097 
Q 2106 2313 2186 2536 
Q 2266 2759 2266 3009 
Q 2266 3272 2169 3511 
Q 2072 3750 1880 3894 
Q 1688 4038 1416 4038 
Q 1138 4038 916 3870 
Q 694 3703 603 3438 
Q 628 3444 672 3444 
Q 816 3444 917 3347 
Q 1019 3250 1019 3097 
Q 1019 2950 917 2848 
Q 816 2747 672 2747 
Q 522 2747 420 2851 
Q 319 2956 319 3097 
Q 319 3338 409 3548 
Q 500 3759 670 3923 
Q 841 4088 1055 4175 
Q 1269 4263 1509 4263 
Q 1875 4263 2190 4108 
Q 2506 3953 2690 3670 
Q 2875 3388 2875 3009 
Q 2875 2731 2753 2481 
Q 2631 2231 2440 2026 
Q 2250 1822 1953 1562 
Q 1656 1303 1563 1216 
L 838 519 
L 1453 519 
Q 1906 519 2211 526 
Q 2516 534 2534 550 
Q 2609 631 2688 1141 
L 2875 1141 
L 2694 0 
L 319 0 
z
" id="Cmr10-32" transform="scale(0.015625)"/>
     </defs>
     <use transform="translate(0 0.8125)" xlink:href="#Cmmi10-78"/>
     <use transform="translate(57.080078 -16.19375)scale(0.7)" xlink:href="#Cmr10-32"/>
    </g>
   </g>
   <g id="text_4">
    <!-- $x_3$ -->
    <g transform="translate(58.414938 223.775375)scale(0.1 -0.1)">
     <defs>
      <path d="M 609 494 
Q 759 275 1012 169 
Q 1266 63 1556 63 
Q 1928 63 2084 380 
Q 2241 697 2241 1100 
Q 2241 1281 2208 1462 
Q 2175 1644 2097 1800 
Q 2019 1956 1883 2050 
Q 1747 2144 1550 2144 
L 1125 2144 
Q 1069 2144 1069 2203 
L 1069 2259 
Q 1069 2309 1125 2309 
L 1478 2338 
Q 1703 2338 1851 2506 
Q 2000 2675 2069 2917 
Q 2138 3159 2138 3378 
Q 2138 3684 1994 3881 
Q 1850 4078 1556 4078 
Q 1313 4078 1091 3986 
Q 869 3894 738 3706 
Q 750 3709 759 3711 
Q 769 3713 781 3713 
Q 925 3713 1022 3613 
Q 1119 3513 1119 3372 
Q 1119 3234 1022 3134 
Q 925 3034 781 3034 
Q 641 3034 541 3134 
Q 441 3234 441 3372 
Q 441 3647 606 3850 
Q 772 4053 1033 4158 
Q 1294 4263 1556 4263 
Q 1750 4263 1965 4205 
Q 2181 4147 2356 4039 
Q 2531 3931 2642 3762 
Q 2753 3594 2753 3378 
Q 2753 3109 2633 2881 
Q 2513 2653 2303 2487 
Q 2094 2322 1844 2241 
Q 2122 2188 2372 2031 
Q 2622 1875 2773 1631 
Q 2925 1388 2925 1106 
Q 2925 753 2731 467 
Q 2538 181 2222 20 
Q 1906 -141 1556 -141 
Q 1256 -141 954 -26 
Q 653 88 461 316 
Q 269 544 269 863 
Q 269 1022 375 1128 
Q 481 1234 641 1234 
Q 744 1234 830 1186 
Q 916 1138 964 1050 
Q 1013 963 1013 863 
Q 1013 706 903 600 
Q 794 494 641 494 
L 609 494 
z
" id="Cmr10-33" transform="scale(0.015625)"/>
     </defs>
     <use transform="translate(0 0.8125)" xlink:href="#Cmmi10-78"/>
     <use transform="translate(57.080078 -16.19375)scale(0.7)" xlink:href="#Cmr10-33"/>
    </g>
   </g>
   <g id="text_5">
    <!-- lin -->
    <g transform="translate(129.898063 78.815375)scale(0.1 -0.1)">
     <defs>
      <path d="M 603 4863 
L 1178 4863 
L 1178 0 
L 603 0 
L 603 4863 
z
" id="DejaVuSans-6c" transform="scale(0.015625)"/>
      <path d="M 603 3500 
L 1178 3500 
L 1178 0 
L 603 0 
L 603 3500 
z
M 603 4863 
L 1178 4863 
L 1178 4134 
L 603 4134 
L 603 4863 
z
" id="DejaVuSans-69" transform="scale(0.015625)"/>
      <path d="M 3513 2113 
L 3513 0 
L 2938 0 
L 2938 2094 
Q 2938 2591 2744 2837 
Q 2550 3084 2163 3084 
Q 1697 3084 1428 2787 
Q 1159 2491 1159 1978 
L 1159 0 
L 581 0 
L 581 3500 
L 1159 3500 
L 1159 2956 
Q 1366 3272 1645 3428 
Q 1925 3584 2291 3584 
Q 2894 3584 3203 3211 
Q 3513 2838 3513 2113 
z
" id="DejaVuSans-6e" transform="scale(0.015625)"/>
     </defs>
     <use xlink:href="#DejaVuSans-6c"/>
     <use x="27.783203" xlink:href="#DejaVuSans-69"/>
     <use x="55.566406" xlink:href="#DejaVuSans-6e"/>
    </g>
   </g>
   <g id="text_6">
    <!-- lin -->
    <g transform="translate(129.898063 151.295375)scale(0.1 -0.1)">
     <use xlink:href="#DejaVuSans-6c"/>
     <use x="27.783203" xlink:href="#DejaVuSans-69"/>
     <use x="55.566406" xlink:href="#DejaVuSans-6e"/>
    </g>
   </g>
   <g id="text_7">
    <!-- lin -->
    <g transform="translate(129.898063 223.775375)scale(0.1 -0.1)">
     <use xlink:href="#DejaVuSans-6c"/>
     <use x="27.783203" xlink:href="#DejaVuSans-69"/>
     <use x="55.566406" xlink:href="#DejaVuSans-6e"/>
    </g>
   </g>
   <g id="text_8">
    <!-- $\sigma$ -->
    <g transform="translate(205.424938 151.295375)scale(0.1 -0.1)">
     <defs>
      <path d="M 1197 -72 
Q 913 -72 692 64 
Q 472 200 351 431 
Q 231 663 231 941 
Q 231 1238 365 1566 
Q 500 1894 733 2166 
Q 966 2438 1259 2598 
Q 1553 2759 1863 2759 
L 3475 2759 
Q 3541 2759 3587 2715 
Q 3634 2672 3634 2597 
Q 3634 2503 3567 2433 
Q 3500 2363 3406 2363 
L 2625 2363 
Q 2809 2088 2809 1697 
Q 2809 1375 2684 1062 
Q 2559 750 2337 492 
Q 2116 234 1820 81 
Q 1525 -72 1197 -72 
z
M 1203 97 
Q 1553 97 1823 370 
Q 2094 644 2237 1039 
Q 2381 1434 2381 1772 
Q 2381 2047 2229 2205 
Q 2078 2363 1806 2363 
Q 1434 2363 1173 2113 
Q 913 1863 783 1484 
Q 653 1106 653 756 
Q 653 481 798 289 
Q 944 97 1203 97 
z
" id="Cmmi10-be" transform="scale(0.015625)"/>
     </defs>
     <use transform="translate(0 0.890625)" xlink:href="#Cmmi10-be"/>
    </g>
   </g>
  </g>
  <g id="axes_2">
   <g id="line2d_13">
    <path clip-path="url(#p42fe449cfa)" d="M 367.728574 76.056 
L 440.208574 76.056 
" style="fill:none;stroke:#000000;stroke-linecap:square;stroke-width:0.25;"/>
   </g>
   <g id="line2d_14">
    <path clip-path="url(#p42fe449cfa)" d="M 367.728574 76.056 
L 440.208574 148.536 
" style="fill:none;stroke:#000000;stroke-linecap:square;stroke-width:0.25;"/>
   </g>
   <g id="line2d_15">
    <path clip-path="url(#p42fe449cfa)" d="M 367.728574 76.056 
L 440.208574 221.016 
" style="fill:none;stroke:#000000;stroke-linecap:square;stroke-width:0.25;"/>
   </g>
   <g id="line2d_16">
    <path clip-path="url(#p42fe449cfa)" d="M 367.728574 148.536 
L 440.208574 76.056 
" style="fill:none;stroke:#000000;stroke-linecap:square;stroke-width:0.25;"/>
   </g>
   <g id="line2d_17">
    <path clip-path="url(#p42fe449cfa)" d="M 367.728574 148.536 
L 440.208574 148.536 
" style="fill:none;stroke:#000000;stroke-linecap:square;stroke-width:0.25;"/>
   </g>
   <g id="line2d_18">
    <path clip-path="url(#p42fe449cfa)" d="M 367.728574 148.536 
L 440.208574 221.016 
" style="fill:none;stroke:#000000;stroke-linecap:square;stroke-width:0.25;"/>
   </g>
   <g id="line2d_19">
    <path clip-path="url(#p42fe449cfa)" d="M 367.728574 221.016 
L 440.208574 76.056 
" style="fill:none;stroke:#000000;stroke-linecap:square;stroke-width:0.25;"/>
   </g>
   <g id="line2d_20">
    <path clip-path="url(#p42fe449cfa)" d="M 367.728574 221.016 
L 440.208574 148.536 
" style="fill:none;stroke:#000000;stroke-linecap:square;stroke-width:0.25;"/>
   </g>
   <g id="line2d_21">
    <path clip-path="url(#p42fe449cfa)" d="M 367.728574 221.016 
L 440.208574 221.016 
" style="fill:none;stroke:#000000;stroke-linecap:square;stroke-width:0.25;"/>
   </g>
   <g id="line2d_22">
    <path clip-path="url(#p42fe449cfa)" d="M 440.208574 76.056 
L 512.688574 148.536 
" style="fill:none;stroke:#000000;stroke-linecap:square;stroke-width:0.25;"/>
   </g>
   <g id="line2d_23">
    <path clip-path="url(#p42fe449cfa)" d="M 440.208574 148.536 
L 512.688574 148.536 
" style="fill:none;stroke:#000000;stroke-linecap:square;stroke-width:0.25;"/>
   </g>
   <g id="line2d_24">
    <path clip-path="url(#p42fe449cfa)" d="M 440.208574 221.016 
L 512.688574 148.536 
" style="fill:none;stroke:#000000;stroke-linecap:square;stroke-width:0.25;"/>
   </g>
   <g id="text_9">
    <!-- B -->
    <g transform="translate(311.533168 18.597656)scale(0.15 -0.15)">
     <defs>
      <path d="M 1259 2228 
L 1259 519 
L 2272 519 
Q 2781 519 3026 730 
Q 3272 941 3272 1375 
Q 3272 1813 3026 2020 
Q 2781 2228 2272 2228 
L 1259 2228 
z
M 1259 4147 
L 1259 2741 
L 2194 2741 
Q 2656 2741 2882 2914 
Q 3109 3088 3109 3444 
Q 3109 3797 2882 3972 
Q 2656 4147 2194 4147 
L 1259 4147 
z
M 628 4666 
L 2241 4666 
Q 2963 4666 3353 4366 
Q 3744 4066 3744 3513 
Q 3744 3084 3544 2831 
Q 3344 2578 2956 2516 
Q 3422 2416 3680 2098 
Q 3938 1781 3938 1306 
Q 3938 681 3513 340 
Q 3088 0 2303 0 
L 628 0 
L 628 4666 
z
" id="DejaVuSans-42" transform="scale(0.015625)"/>
     </defs>
     <use xlink:href="#DejaVuSans-42"/>
    </g>
   </g>
   <g id="patch_9">
    <path clip-path="url(#p42fe449cfa)" d="M 367.728574 97.8 
C 373.49515 97.8 379.026319 95.508915 383.103904 91.43133 
C 387.181489 87.353745 389.472574 81.822576 389.472574 76.056 
C 389.472574 70.289424 387.181489 64.758255 383.103904 60.68067 
C 379.026319 56.603085 373.49515 54.312 367.728574 54.312 
C 361.961998 54.312 356.430829 56.603085 352.353244 60.68067 
C 348.275659 64.758255 345.984574 70.289424 345.984574 76.056 
C 345.984574 81.822576 348.275659 87.353745 352.353244 91.43133 
C 356.430829 95.508915 361.961998 97.8 367.728574 97.8 
z
" style="fill:#ffffff;stroke:#1f77b4;stroke-linejoin:miter;"/>
   </g>
   <g id="patch_10">
    <path clip-path="url(#p42fe449cfa)" d="M 367.728574 170.28 
C 373.49515 170.28 379.026319 167.988915 383.103904 163.91133 
C 387.181489 159.833745 389.472574 154.302576 389.472574 148.536 
C 389.472574 142.769424 387.181489 137.238255 383.103904 133.16067 
C 379.026319 129.083085 373.49515 126.792 367.728574 126.792 
C 361.961998 126.792 356.430829 129.083085 352.353244 133.16067 
C 348.275659 137.238255 345.984574 142.769424 345.984574 148.536 
C 345.984574 154.302576 348.275659 159.833745 352.353244 163.91133 
C 356.430829 167.988915 361.961998 170.28 367.728574 170.28 
z
" style="fill:#ffffff;stroke:#1f77b4;stroke-linejoin:miter;"/>
   </g>
   <g id="patch_11">
    <path clip-path="url(#p42fe449cfa)" d="M 367.728574 242.76 
C 373.49515 242.76 379.026319 240.468915 383.103904 236.39133 
C 387.181489 232.313745 389.472574 226.782576 389.472574 221.016 
C 389.472574 215.249424 387.181489 209.718255 383.103904 205.64067 
C 379.026319 201.563085 373.49515 199.272 367.728574 199.272 
C 361.961998 199.272 356.430829 201.563085 352.353244 205.64067 
C 348.275659 209.718255 345.984574 215.249424 345.984574 221.016 
C 345.984574 226.782576 348.275659 232.313745 352.353244 236.39133 
C 356.430829 240.468915 361.961998 242.76 367.728574 242.76 
z
" style="fill:#ffffff;stroke:#1f77b4;stroke-linejoin:miter;"/>
   </g>
   <g id="patch_12">
    <path clip-path="url(#p42fe449cfa)" d="M 440.208574 97.8 
C 445.97515 97.8 451.506319 95.508915 455.583904 91.43133 
C 459.661489 87.353745 461.952574 81.822576 461.952574 76.056 
C 461.952574 70.289424 459.661489 64.758255 455.583904 60.68067 
C 451.506319 56.603085 445.97515 54.312 440.208574 54.312 
C 434.441998 54.312 428.910829 56.603085 424.833244 60.68067 
C 420.755659 64.758255 418.464574 70.289424 418.464574 76.056 
C 418.464574 81.822576 420.755659 87.353745 424.833244 91.43133 
C 428.910829 95.508915 434.441998 97.8 440.208574 97.8 
z
" style="fill:#ffffff;stroke:#ff7f0e;stroke-linejoin:miter;"/>
   </g>
   <g id="patch_13">
    <path clip-path="url(#p42fe449cfa)" d="M 440.208574 170.28 
C 445.97515 170.28 451.506319 167.988915 455.583904 163.91133 
C 459.661489 159.833745 461.952574 154.302576 461.952574 148.536 
C 461.952574 142.769424 459.661489 137.238255 455.583904 133.16067 
C 451.506319 129.083085 445.97515 126.792 440.208574 126.792 
C 434.441998 126.792 428.910829 129.083085 424.833244 133.16067 
C 420.755659 137.238255 418.464574 142.769424 418.464574 148.536 
C 418.464574 154.302576 420.755659 159.833745 424.833244 163.91133 
C 428.910829 167.988915 434.441998 170.28 440.208574 170.28 
z
" style="fill:#ffffff;stroke:#ff7f0e;stroke-linejoin:miter;"/>
   </g>
   <g id="patch_14">
    <path clip-path="url(#p42fe449cfa)" d="M 440.208574 242.76 
C 445.97515 242.76 451.506319 240.468915 455.583904 236.39133 
C 459.661489 232.313745 461.952574 226.782576 461.952574 221.016 
C 461.952574 215.249424 459.661489 209.718255 455.583904 205.64067 
C 451.506319 201.563085 445.97515 199.272 440.208574 199.272 
C 434.441998 199.272 428.910829 201.563085 424.833244 205.64067 
C 420.755659 209.718255 418.464574 215.249424 418.464574 221.016 
C 418.464574 226.782576 420.755659 232.313745 424.833244 236.39133 
C 428.910829 240.468915 434.441998 242.76 440.208574 242.76 
z
" style="fill:#ffffff;stroke:#ff7f0e;stroke-linejoin:miter;"/>
   </g>
   <g id="patch_15">
    <path clip-path="url(#p42fe449cfa)" d="M 512.688574 170.28 
C 518.45515 170.28 523.986319 167.988915 528.063904 163.91133 
C 532.141489 159.833745 534.432574 154.302576 534.432574 148.536 
C 534.432574 142.769424 532.141489 137.238255 528.063904 133.16067 
C 523.986319 129.083085 518.45515 126.792 512.688574 126.792 
C 506.921998 126.792 501.390829 129.083085 497.313244 133.16067 
C 493.235659 137.238255 490.944574 142.769424 490.944574 148.536 
C 490.944574 154.302576 493.235659 159.833745 497.313244 163.91133 
C 501.390829 167.988915 506.921998 170.28 512.688574 170.28 
z
" style="fill:#ffffff;stroke:#ff7f0e;stroke-linejoin:miter;"/>
   </g>
   <g id="text_10">
    <!-- $x_1$ -->
    <g transform="translate(362.778574 78.815375)scale(0.1 -0.1)">
     <use transform="translate(0 0.8125)" xlink:href="#Cmmi10-78"/>
     <use transform="translate(57.080078 -16.19375)scale(0.7)" xlink:href="#Cmr10-31"/>
    </g>
   </g>
   <g id="text_11">
    <!-- $x_2$ -->
    <g transform="translate(362.778574 151.295375)scale(0.1 -0.1)">
     <use transform="translate(0 0.8125)" xlink:href="#Cmmi10-78"/>
     <use transform="translate(57.080078 -16.19375)scale(0.7)" xlink:href="#Cmr10-32"/>
    </g>
   </g>
   <g id="text_12">
    <!-- $x_3$ -->
    <g transform="translate(362.778574 223.775375)scale(0.1 -0.1)">
     <use transform="translate(0 0.8125)" xlink:href="#Cmmi10-78"/>
     <use transform="translate(57.080078 -16.19375)scale(0.7)" xlink:href="#Cmr10-33"/>
    </g>
   </g>
   <g id="text_13">
    <!-- ! lin -->
    <g transform="translate(430.667949 78.815375)scale(0.1 -0.1)">
     <defs>
      <path d="M 966 794 
L 1600 794 
L 1600 0 
L 966 0 
L 966 794 
z
M 966 4666 
L 1600 4666 
L 1600 2619 
L 1538 1503 
L 1031 1503 
L 966 2619 
L 966 4666 
z
" id="DejaVuSans-21" transform="scale(0.015625)"/>
      <path id="DejaVuSans-20" transform="scale(0.015625)"/>
     </defs>
     <use xlink:href="#DejaVuSans-21"/>
     <use x="40.087891" xlink:href="#DejaVuSans-20"/>
     <use x="71.875" xlink:href="#DejaVuSans-6c"/>
     <use x="99.658203" xlink:href="#DejaVuSans-69"/>
     <use x="127.441406" xlink:href="#DejaVuSans-6e"/>
    </g>
   </g>
   <g id="text_14">
    <!-- ! lin -->
    <g transform="translate(430.667949 151.295375)scale(0.1 -0.1)">
     <use xlink:href="#DejaVuSans-21"/>
     <use x="40.087891" xlink:href="#DejaVuSans-20"/>
     <use x="71.875" xlink:href="#DejaVuSans-6c"/>
     <use x="99.658203" xlink:href="#DejaVuSans-69"/>
     <use x="127.441406" xlink:href="#DejaVuSans-6e"/>
    </g>
   </g>
   <g id="text_15">
    <!-- ! lin -->
    <g transform="translate(430.667949 223.775375)scale(0.1 -0.1)">
     <use xlink:href="#DejaVuSans-21"/>
     <use x="40.087891" xlink:href="#DejaVuSans-20"/>
     <use x="71.875" xlink:href="#DejaVuSans-6c"/>
     <use x="99.658203" xlink:href="#DejaVuSans-69"/>
     <use x="127.441406" xlink:href="#DejaVuSans-6e"/>
    </g>
   </g>
   <g id="text_16">
    <!-- lin -->
    <g transform="translate(506.741699 151.295375)scale(0.1 -0.1)">
     <use xlink:href="#DejaVuSans-6c"/>
     <use x="27.783203" xlink:href="#DejaVuSans-69"/>
     <use x="55.566406" xlink:href="#DejaVuSans-6e"/>
    </g>
   </g>
  </g>
 </g>
 <defs>
  <clipPath id="p3ab1073067">
   <rect height="217.44" width="217.44" x="39.204937" y="39.816"/>
  </clipPath>
  <clipPath id="p42fe449cfa">
   <rect height="217.44" width="217.44" x="343.568574" y="39.816"/>
  </clipPath>
 </defs>
</svg>
