<?xml version="1.0" encoding="utf-8" standalone="no"?>
<!DOCTYPE svg PUBLIC "-//W3C//DTD SVG 1.1//EN"
  "http://www.w3.org/Graphics/SVG/1.1/DTD/svg11.dtd">
<svg height="426.71625pt" version="1.1" viewBox="0 0 483.703125 426.71625" width="483.703125pt" xmlns="http://www.w3.org/2000/svg" xmlns:xlink="http://www.w3.org/1999/xlink">
 <metadata>
  <rdf:RDF xmlns:cc="http://creativecommons.org/ns#" xmlns:dc="http://purl.org/dc/elements/1.1/" xmlns:rdf="http://www.w3.org/1999/02/22-rdf-syntax-ns#">
   <cc:Work>
    <dc:type rdf:resource="http://purl.org/dc/dcmitype/StillImage"/>
    <dc:date>2021-10-02T10:37:59.398689</dc:date>
    <dc:format>image/svg+xml</dc:format>
    <dc:creator>
     <cc:Agent>
      <dc:title>Matplotlib v3.4.3, https://matplotlib.org/</dc:title>
     </cc:Agent>
    </dc:creator>
   </cc:Work>
  </rdf:RDF>
 </metadata>
 <defs>
  <style type="text/css">*{stroke-linecap:butt;stroke-linejoin:round;}</style>
 </defs>
 <g id="figure_1">
  <g id="patch_1">
   <path d="M 0 426.71625 
L 483.703125 426.71625 
L 483.703125 0 
L 0 0 
z
" style="fill:none;"/>
  </g>
  <g id="axes_1">
   <g id="patch_2">
    <path d="M 30.103125 195.281761 
L 233.012216 195.281761 
L 233.012216 22.318125 
L 30.103125 22.318125 
z
" style="fill:#ffffff;"/>
   </g>
   <g id="matplotlib.axis_1">
    <g id="xtick_1">
     <g id="line2d_1">
      <defs>
       <path d="M 0 0 
L 0 3.5 
" id="m1f15b87453" style="stroke:#000000;stroke-width:0.8;"/>
      </defs>
      <g>
       <use style="stroke:#000000;stroke-width:0.8;" x="39.326265" xlink:href="#m1f15b87453" y="195.281761"/>
      </g>
     </g>
    </g>
    <g id="xtick_2">
     <g id="line2d_2">
      <g>
       <use style="stroke:#000000;stroke-width:0.8;" x="85.441968" xlink:href="#m1f15b87453" y="195.281761"/>
      </g>
     </g>
    </g>
    <g id="xtick_3">
     <g id="line2d_3">
      <g>
       <use style="stroke:#000000;stroke-width:0.8;" x="131.55767" xlink:href="#m1f15b87453" y="195.281761"/>
      </g>
     </g>
    </g>
    <g id="xtick_4">
     <g id="line2d_4">
      <g>
       <use style="stroke:#000000;stroke-width:0.8;" x="177.673373" xlink:href="#m1f15b87453" y="195.281761"/>
      </g>
     </g>
    </g>
    <g id="xtick_5">
     <g id="line2d_5">
      <g>
       <use style="stroke:#000000;stroke-width:0.8;" x="223.789075" xlink:href="#m1f15b87453" y="195.281761"/>
      </g>
     </g>
    </g>
   </g>
   <g id="matplotlib.axis_2">
    <g id="ytick_1">
     <g id="line2d_6">
      <defs>
       <path d="M 0 0 
L -3.5 0 
" id="m83841aa2c2" style="stroke:#000000;stroke-width:0.8;"/>
      </defs>
      <g>
       <use style="stroke:#000000;stroke-width:0.8;" x="30.103125" xlink:href="#m83841aa2c2" y="187.419778"/>
      </g>
     </g>
     <g id="text_1">
      <!-- 0.0 -->
      <g transform="translate(7.2 191.218997)scale(0.1 -0.1)">
       <defs>
        <path d="M 2034 4250 
Q 1547 4250 1301 3770 
Q 1056 3291 1056 2328 
Q 1056 1369 1301 889 
Q 1547 409 2034 409 
Q 2525 409 2770 889 
Q 3016 1369 3016 2328 
Q 3016 3291 2770 3770 
Q 2525 4250 2034 4250 
z
M 2034 4750 
Q 2819 4750 3233 4129 
Q 3647 3509 3647 2328 
Q 3647 1150 3233 529 
Q 2819 -91 2034 -91 
Q 1250 -91 836 529 
Q 422 1150 422 2328 
Q 422 3509 836 4129 
Q 1250 4750 2034 4750 
z
" id="DejaVuSans-30" transform="scale(0.015625)"/>
        <path d="M 684 794 
L 1344 794 
L 1344 0 
L 684 0 
L 684 794 
z
" id="DejaVuSans-2e" transform="scale(0.015625)"/>
       </defs>
       <use xlink:href="#DejaVuSans-30"/>
       <use x="63.623047" xlink:href="#DejaVuSans-2e"/>
       <use x="95.410156" xlink:href="#DejaVuSans-30"/>
      </g>
     </g>
    </g>
    <g id="ytick_2">
     <g id="line2d_7">
      <g>
       <use style="stroke:#000000;stroke-width:0.8;" x="30.103125" xlink:href="#m83841aa2c2" y="155.971844"/>
      </g>
     </g>
     <g id="text_2">
      <!-- 0.2 -->
      <g transform="translate(7.2 159.771063)scale(0.1 -0.1)">
       <defs>
        <path d="M 1228 531 
L 3431 531 
L 3431 0 
L 469 0 
L 469 531 
Q 828 903 1448 1529 
Q 2069 2156 2228 2338 
Q 2531 2678 2651 2914 
Q 2772 3150 2772 3378 
Q 2772 3750 2511 3984 
Q 2250 4219 1831 4219 
Q 1534 4219 1204 4116 
Q 875 4013 500 3803 
L 500 4441 
Q 881 4594 1212 4672 
Q 1544 4750 1819 4750 
Q 2544 4750 2975 4387 
Q 3406 4025 3406 3419 
Q 3406 3131 3298 2873 
Q 3191 2616 2906 2266 
Q 2828 2175 2409 1742 
Q 1991 1309 1228 531 
z
" id="DejaVuSans-32" transform="scale(0.015625)"/>
       </defs>
       <use xlink:href="#DejaVuSans-30"/>
       <use x="63.623047" xlink:href="#DejaVuSans-2e"/>
       <use x="95.410156" xlink:href="#DejaVuSans-32"/>
      </g>
     </g>
    </g>
    <g id="ytick_3">
     <g id="line2d_8">
      <g>
       <use style="stroke:#000000;stroke-width:0.8;" x="30.103125" xlink:href="#m83841aa2c2" y="124.52391"/>
      </g>
     </g>
     <g id="text_3">
      <!-- 0.4 -->
      <g transform="translate(7.2 128.323129)scale(0.1 -0.1)">
       <defs>
        <path d="M 2419 4116 
L 825 1625 
L 2419 1625 
L 2419 4116 
z
M 2253 4666 
L 3047 4666 
L 3047 1625 
L 3713 1625 
L 3713 1100 
L 3047 1100 
L 3047 0 
L 2419 0 
L 2419 1100 
L 313 1100 
L 313 1709 
L 2253 4666 
z
" id="DejaVuSans-34" transform="scale(0.015625)"/>
       </defs>
       <use xlink:href="#DejaVuSans-30"/>
       <use x="63.623047" xlink:href="#DejaVuSans-2e"/>
       <use x="95.410156" xlink:href="#DejaVuSans-34"/>
      </g>
     </g>
    </g>
    <g id="ytick_4">
     <g id="line2d_9">
      <g>
       <use style="stroke:#000000;stroke-width:0.8;" x="30.103125" xlink:href="#m83841aa2c2" y="93.075976"/>
      </g>
     </g>
     <g id="text_4">
      <!-- 0.6 -->
      <g transform="translate(7.2 96.875195)scale(0.1 -0.1)">
       <defs>
        <path d="M 2113 2584 
Q 1688 2584 1439 2293 
Q 1191 2003 1191 1497 
Q 1191 994 1439 701 
Q 1688 409 2113 409 
Q 2538 409 2786 701 
Q 3034 994 3034 1497 
Q 3034 2003 2786 2293 
Q 2538 2584 2113 2584 
z
M 3366 4563 
L 3366 3988 
Q 3128 4100 2886 4159 
Q 2644 4219 2406 4219 
Q 1781 4219 1451 3797 
Q 1122 3375 1075 2522 
Q 1259 2794 1537 2939 
Q 1816 3084 2150 3084 
Q 2853 3084 3261 2657 
Q 3669 2231 3669 1497 
Q 3669 778 3244 343 
Q 2819 -91 2113 -91 
Q 1303 -91 875 529 
Q 447 1150 447 2328 
Q 447 3434 972 4092 
Q 1497 4750 2381 4750 
Q 2619 4750 2861 4703 
Q 3103 4656 3366 4563 
z
" id="DejaVuSans-36" transform="scale(0.015625)"/>
       </defs>
       <use xlink:href="#DejaVuSans-30"/>
       <use x="63.623047" xlink:href="#DejaVuSans-2e"/>
       <use x="95.410156" xlink:href="#DejaVuSans-36"/>
      </g>
     </g>
    </g>
    <g id="ytick_5">
     <g id="line2d_10">
      <g>
       <use style="stroke:#000000;stroke-width:0.8;" x="30.103125" xlink:href="#m83841aa2c2" y="61.628042"/>
      </g>
     </g>
     <g id="text_5">
      <!-- 0.8 -->
      <g transform="translate(7.2 65.427261)scale(0.1 -0.1)">
       <defs>
        <path d="M 2034 2216 
Q 1584 2216 1326 1975 
Q 1069 1734 1069 1313 
Q 1069 891 1326 650 
Q 1584 409 2034 409 
Q 2484 409 2743 651 
Q 3003 894 3003 1313 
Q 3003 1734 2745 1975 
Q 2488 2216 2034 2216 
z
M 1403 2484 
Q 997 2584 770 2862 
Q 544 3141 544 3541 
Q 544 4100 942 4425 
Q 1341 4750 2034 4750 
Q 2731 4750 3128 4425 
Q 3525 4100 3525 3541 
Q 3525 3141 3298 2862 
Q 3072 2584 2669 2484 
Q 3125 2378 3379 2068 
Q 3634 1759 3634 1313 
Q 3634 634 3220 271 
Q 2806 -91 2034 -91 
Q 1263 -91 848 271 
Q 434 634 434 1313 
Q 434 1759 690 2068 
Q 947 2378 1403 2484 
z
M 1172 3481 
Q 1172 3119 1398 2916 
Q 1625 2713 2034 2713 
Q 2441 2713 2670 2916 
Q 2900 3119 2900 3481 
Q 2900 3844 2670 4047 
Q 2441 4250 2034 4250 
Q 1625 4250 1398 4047 
Q 1172 3844 1172 3481 
z
" id="DejaVuSans-38" transform="scale(0.015625)"/>
       </defs>
       <use xlink:href="#DejaVuSans-30"/>
       <use x="63.623047" xlink:href="#DejaVuSans-2e"/>
       <use x="95.410156" xlink:href="#DejaVuSans-38"/>
      </g>
     </g>
    </g>
    <g id="ytick_6">
     <g id="line2d_11">
      <g>
       <use style="stroke:#000000;stroke-width:0.8;" x="30.103125" xlink:href="#m83841aa2c2" y="30.180108"/>
      </g>
     </g>
     <g id="text_6">
      <!-- 1.0 -->
      <g transform="translate(7.2 33.979327)scale(0.1 -0.1)">
       <defs>
        <path d="M 794 531 
L 1825 531 
L 1825 4091 
L 703 3866 
L 703 4441 
L 1819 4666 
L 2450 4666 
L 2450 531 
L 3481 531 
L 3481 0 
L 794 0 
L 794 531 
z
" id="DejaVuSans-31" transform="scale(0.015625)"/>
       </defs>
       <use xlink:href="#DejaVuSans-31"/>
       <use x="63.623047" xlink:href="#DejaVuSans-2e"/>
       <use x="95.410156" xlink:href="#DejaVuSans-30"/>
      </g>
     </g>
    </g>
   </g>
   <g id="line2d_12">
    <path clip-path="url(#p179aa1eb12)" d="M 39.326265 187.41264 
L 43.090813 187.409042 
L 46.85536 187.403632 
L 50.619907 187.395497 
L 54.384454 187.383263 
L 58.149001 187.364871 
L 61.913548 187.337224 
L 65.678095 187.295678 
L 69.442643 187.233273 
L 73.20719 187.139601 
L 76.971737 186.999134 
L 80.736284 186.788814 
L 84.500831 186.474618 
L 88.265378 186.006835 
L 92.029925 185.313932 
L 95.794473 184.295385 
L 99.55902 182.815154 
L 103.323567 180.700283 
L 107.088114 177.754119 
L 110.852661 173.800519 
L 114.617208 168.779212 
L 118.381755 162.898532 
L 122.146303 156.797272 
L 125.91085 151.575142 
L 129.675397 148.516344 
L 133.439944 148.516344 
L 137.204491 151.575142 
L 140.969038 156.797272 
L 144.733585 162.898532 
L 148.498133 168.779212 
L 152.26268 173.800519 
L 156.027227 177.754119 
L 159.791774 180.700283 
L 163.556321 182.815154 
L 167.320868 184.295385 
L 171.085415 185.313932 
L 174.849963 186.006835 
L 178.61451 186.474618 
L 182.379057 186.788814 
L 186.143604 186.999134 
L 189.908151 187.139601 
L 193.672698 187.233273 
L 197.437245 187.295678 
L 201.201793 187.337224 
L 204.96634 187.364871 
L 208.730887 187.383263 
L 212.495434 187.395497 
L 216.259981 187.403632 
L 220.024528 187.409042 
L 223.789075 187.41264 
" style="fill:none;stroke:#1f77b4;stroke-linecap:square;stroke-width:1.5;"/>
   </g>
   <g id="patch_3">
    <path d="M 30.103125 195.281761 
L 30.103125 22.318125 
" style="fill:none;stroke:#000000;stroke-linecap:square;stroke-linejoin:miter;stroke-width:0.8;"/>
   </g>
   <g id="patch_4">
    <path d="M 233.012216 195.281761 
L 233.012216 22.318125 
" style="fill:none;stroke:#000000;stroke-linecap:square;stroke-linejoin:miter;stroke-width:0.8;"/>
   </g>
   <g id="patch_5">
    <path d="M 30.103125 195.281761 
L 233.012216 195.281761 
" style="fill:none;stroke:#000000;stroke-linecap:square;stroke-linejoin:miter;stroke-width:0.8;"/>
   </g>
   <g id="patch_6">
    <path d="M 30.103125 22.318125 
L 233.012216 22.318125 
" style="fill:none;stroke:#000000;stroke-linecap:square;stroke-linejoin:miter;stroke-width:0.8;"/>
   </g>
   <g id="text_7">
    <!-- Derivative of sigmoid -->
    <g transform="translate(67.431733 16.318125)scale(0.12 -0.12)">
     <defs>
      <path d="M 1259 4147 
L 1259 519 
L 2022 519 
Q 2988 519 3436 956 
Q 3884 1394 3884 2338 
Q 3884 3275 3436 3711 
Q 2988 4147 2022 4147 
L 1259 4147 
z
M 628 4666 
L 1925 4666 
Q 3281 4666 3915 4102 
Q 4550 3538 4550 2338 
Q 4550 1131 3912 565 
Q 3275 0 1925 0 
L 628 0 
L 628 4666 
z
" id="DejaVuSans-44" transform="scale(0.015625)"/>
      <path d="M 3597 1894 
L 3597 1613 
L 953 1613 
Q 991 1019 1311 708 
Q 1631 397 2203 397 
Q 2534 397 2845 478 
Q 3156 559 3463 722 
L 3463 178 
Q 3153 47 2828 -22 
Q 2503 -91 2169 -91 
Q 1331 -91 842 396 
Q 353 884 353 1716 
Q 353 2575 817 3079 
Q 1281 3584 2069 3584 
Q 2775 3584 3186 3129 
Q 3597 2675 3597 1894 
z
M 3022 2063 
Q 3016 2534 2758 2815 
Q 2500 3097 2075 3097 
Q 1594 3097 1305 2825 
Q 1016 2553 972 2059 
L 3022 2063 
z
" id="DejaVuSans-65" transform="scale(0.015625)"/>
      <path d="M 2631 2963 
Q 2534 3019 2420 3045 
Q 2306 3072 2169 3072 
Q 1681 3072 1420 2755 
Q 1159 2438 1159 1844 
L 1159 0 
L 581 0 
L 581 3500 
L 1159 3500 
L 1159 2956 
Q 1341 3275 1631 3429 
Q 1922 3584 2338 3584 
Q 2397 3584 2469 3576 
Q 2541 3569 2628 3553 
L 2631 2963 
z
" id="DejaVuSans-72" transform="scale(0.015625)"/>
      <path d="M 603 3500 
L 1178 3500 
L 1178 0 
L 603 0 
L 603 3500 
z
M 603 4863 
L 1178 4863 
L 1178 4134 
L 603 4134 
L 603 4863 
z
" id="DejaVuSans-69" transform="scale(0.015625)"/>
      <path d="M 191 3500 
L 800 3500 
L 1894 563 
L 2988 3500 
L 3597 3500 
L 2284 0 
L 1503 0 
L 191 3500 
z
" id="DejaVuSans-76" transform="scale(0.015625)"/>
      <path d="M 2194 1759 
Q 1497 1759 1228 1600 
Q 959 1441 959 1056 
Q 959 750 1161 570 
Q 1363 391 1709 391 
Q 2188 391 2477 730 
Q 2766 1069 2766 1631 
L 2766 1759 
L 2194 1759 
z
M 3341 1997 
L 3341 0 
L 2766 0 
L 2766 531 
Q 2569 213 2275 61 
Q 1981 -91 1556 -91 
Q 1019 -91 701 211 
Q 384 513 384 1019 
Q 384 1609 779 1909 
Q 1175 2209 1959 2209 
L 2766 2209 
L 2766 2266 
Q 2766 2663 2505 2880 
Q 2244 3097 1772 3097 
Q 1472 3097 1187 3025 
Q 903 2953 641 2809 
L 641 3341 
Q 956 3463 1253 3523 
Q 1550 3584 1831 3584 
Q 2591 3584 2966 3190 
Q 3341 2797 3341 1997 
z
" id="DejaVuSans-61" transform="scale(0.015625)"/>
      <path d="M 1172 4494 
L 1172 3500 
L 2356 3500 
L 2356 3053 
L 1172 3053 
L 1172 1153 
Q 1172 725 1289 603 
Q 1406 481 1766 481 
L 2356 481 
L 2356 0 
L 1766 0 
Q 1100 0 847 248 
Q 594 497 594 1153 
L 594 3053 
L 172 3053 
L 172 3500 
L 594 3500 
L 594 4494 
L 1172 4494 
z
" id="DejaVuSans-74" transform="scale(0.015625)"/>
      <path id="DejaVuSans-20" transform="scale(0.015625)"/>
      <path d="M 1959 3097 
Q 1497 3097 1228 2736 
Q 959 2375 959 1747 
Q 959 1119 1226 758 
Q 1494 397 1959 397 
Q 2419 397 2687 759 
Q 2956 1122 2956 1747 
Q 2956 2369 2687 2733 
Q 2419 3097 1959 3097 
z
M 1959 3584 
Q 2709 3584 3137 3096 
Q 3566 2609 3566 1747 
Q 3566 888 3137 398 
Q 2709 -91 1959 -91 
Q 1206 -91 779 398 
Q 353 888 353 1747 
Q 353 2609 779 3096 
Q 1206 3584 1959 3584 
z
" id="DejaVuSans-6f" transform="scale(0.015625)"/>
      <path d="M 2375 4863 
L 2375 4384 
L 1825 4384 
Q 1516 4384 1395 4259 
Q 1275 4134 1275 3809 
L 1275 3500 
L 2222 3500 
L 2222 3053 
L 1275 3053 
L 1275 0 
L 697 0 
L 697 3053 
L 147 3053 
L 147 3500 
L 697 3500 
L 697 3744 
Q 697 4328 969 4595 
Q 1241 4863 1831 4863 
L 2375 4863 
z
" id="DejaVuSans-66" transform="scale(0.015625)"/>
      <path d="M 2834 3397 
L 2834 2853 
Q 2591 2978 2328 3040 
Q 2066 3103 1784 3103 
Q 1356 3103 1142 2972 
Q 928 2841 928 2578 
Q 928 2378 1081 2264 
Q 1234 2150 1697 2047 
L 1894 2003 
Q 2506 1872 2764 1633 
Q 3022 1394 3022 966 
Q 3022 478 2636 193 
Q 2250 -91 1575 -91 
Q 1294 -91 989 -36 
Q 684 19 347 128 
L 347 722 
Q 666 556 975 473 
Q 1284 391 1588 391 
Q 1994 391 2212 530 
Q 2431 669 2431 922 
Q 2431 1156 2273 1281 
Q 2116 1406 1581 1522 
L 1381 1569 
Q 847 1681 609 1914 
Q 372 2147 372 2553 
Q 372 3047 722 3315 
Q 1072 3584 1716 3584 
Q 2034 3584 2315 3537 
Q 2597 3491 2834 3397 
z
" id="DejaVuSans-73" transform="scale(0.015625)"/>
      <path d="M 2906 1791 
Q 2906 2416 2648 2759 
Q 2391 3103 1925 3103 
Q 1463 3103 1205 2759 
Q 947 2416 947 1791 
Q 947 1169 1205 825 
Q 1463 481 1925 481 
Q 2391 481 2648 825 
Q 2906 1169 2906 1791 
z
M 3481 434 
Q 3481 -459 3084 -895 
Q 2688 -1331 1869 -1331 
Q 1566 -1331 1297 -1286 
Q 1028 -1241 775 -1147 
L 775 -588 
Q 1028 -725 1275 -790 
Q 1522 -856 1778 -856 
Q 2344 -856 2625 -561 
Q 2906 -266 2906 331 
L 2906 616 
Q 2728 306 2450 153 
Q 2172 0 1784 0 
Q 1141 0 747 490 
Q 353 981 353 1791 
Q 353 2603 747 3093 
Q 1141 3584 1784 3584 
Q 2172 3584 2450 3431 
Q 2728 3278 2906 2969 
L 2906 3500 
L 3481 3500 
L 3481 434 
z
" id="DejaVuSans-67" transform="scale(0.015625)"/>
      <path d="M 3328 2828 
Q 3544 3216 3844 3400 
Q 4144 3584 4550 3584 
Q 5097 3584 5394 3201 
Q 5691 2819 5691 2113 
L 5691 0 
L 5113 0 
L 5113 2094 
Q 5113 2597 4934 2840 
Q 4756 3084 4391 3084 
Q 3944 3084 3684 2787 
Q 3425 2491 3425 1978 
L 3425 0 
L 2847 0 
L 2847 2094 
Q 2847 2600 2669 2842 
Q 2491 3084 2119 3084 
Q 1678 3084 1418 2786 
Q 1159 2488 1159 1978 
L 1159 0 
L 581 0 
L 581 3500 
L 1159 3500 
L 1159 2956 
Q 1356 3278 1631 3431 
Q 1906 3584 2284 3584 
Q 2666 3584 2933 3390 
Q 3200 3197 3328 2828 
z
" id="DejaVuSans-6d" transform="scale(0.015625)"/>
      <path d="M 2906 2969 
L 2906 4863 
L 3481 4863 
L 3481 0 
L 2906 0 
L 2906 525 
Q 2725 213 2448 61 
Q 2172 -91 1784 -91 
Q 1150 -91 751 415 
Q 353 922 353 1747 
Q 353 2572 751 3078 
Q 1150 3584 1784 3584 
Q 2172 3584 2448 3432 
Q 2725 3281 2906 2969 
z
M 947 1747 
Q 947 1113 1208 752 
Q 1469 391 1925 391 
Q 2381 391 2643 752 
Q 2906 1113 2906 1747 
Q 2906 2381 2643 2742 
Q 2381 3103 1925 3103 
Q 1469 3103 1208 2742 
Q 947 2381 947 1747 
z
" id="DejaVuSans-64" transform="scale(0.015625)"/>
     </defs>
     <use xlink:href="#DejaVuSans-44"/>
     <use x="77.001953" xlink:href="#DejaVuSans-65"/>
     <use x="138.525391" xlink:href="#DejaVuSans-72"/>
     <use x="179.638672" xlink:href="#DejaVuSans-69"/>
     <use x="207.421875" xlink:href="#DejaVuSans-76"/>
     <use x="266.601562" xlink:href="#DejaVuSans-61"/>
     <use x="327.880859" xlink:href="#DejaVuSans-74"/>
     <use x="367.089844" xlink:href="#DejaVuSans-69"/>
     <use x="394.873047" xlink:href="#DejaVuSans-76"/>
     <use x="454.052734" xlink:href="#DejaVuSans-65"/>
     <use x="515.576172" xlink:href="#DejaVuSans-20"/>
     <use x="547.363281" xlink:href="#DejaVuSans-6f"/>
     <use x="608.544922" xlink:href="#DejaVuSans-66"/>
     <use x="643.75" xlink:href="#DejaVuSans-20"/>
     <use x="675.537109" xlink:href="#DejaVuSans-73"/>
     <use x="727.636719" xlink:href="#DejaVuSans-69"/>
     <use x="755.419922" xlink:href="#DejaVuSans-67"/>
     <use x="818.896484" xlink:href="#DejaVuSans-6d"/>
     <use x="916.308594" xlink:href="#DejaVuSans-6f"/>
     <use x="977.490234" xlink:href="#DejaVuSans-69"/>
     <use x="1005.273438" xlink:href="#DejaVuSans-64"/>
    </g>
   </g>
  </g>
  <g id="axes_2">
   <g id="patch_7">
    <path d="M 273.594034 195.281761 
L 476.503125 195.281761 
L 476.503125 22.318125 
L 273.594034 22.318125 
z
" style="fill:#ffffff;"/>
   </g>
   <g id="matplotlib.axis_3">
    <g id="xtick_6">
     <g id="line2d_13">
      <g>
       <use style="stroke:#000000;stroke-width:0.8;" x="282.817175" xlink:href="#m1f15b87453" y="195.281761"/>
      </g>
     </g>
    </g>
    <g id="xtick_7">
     <g id="line2d_14">
      <g>
       <use style="stroke:#000000;stroke-width:0.8;" x="328.932877" xlink:href="#m1f15b87453" y="195.281761"/>
      </g>
     </g>
    </g>
    <g id="xtick_8">
     <g id="line2d_15">
      <g>
       <use style="stroke:#000000;stroke-width:0.8;" x="375.04858" xlink:href="#m1f15b87453" y="195.281761"/>
      </g>
     </g>
    </g>
    <g id="xtick_9">
     <g id="line2d_16">
      <g>
       <use style="stroke:#000000;stroke-width:0.8;" x="421.164282" xlink:href="#m1f15b87453" y="195.281761"/>
      </g>
     </g>
    </g>
    <g id="xtick_10">
     <g id="line2d_17">
      <g>
       <use style="stroke:#000000;stroke-width:0.8;" x="467.279985" xlink:href="#m1f15b87453" y="195.281761"/>
      </g>
     </g>
    </g>
   </g>
   <g id="matplotlib.axis_4">
    <g id="ytick_7">
     <g id="line2d_18">
      <g>
       <use style="stroke:#000000;stroke-width:0.8;" x="273.594034" xlink:href="#m83841aa2c2" y="187.419778"/>
      </g>
     </g>
    </g>
    <g id="ytick_8">
     <g id="line2d_19">
      <g>
       <use style="stroke:#000000;stroke-width:0.8;" x="273.594034" xlink:href="#m83841aa2c2" y="155.971844"/>
      </g>
     </g>
    </g>
    <g id="ytick_9">
     <g id="line2d_20">
      <g>
       <use style="stroke:#000000;stroke-width:0.8;" x="273.594034" xlink:href="#m83841aa2c2" y="124.52391"/>
      </g>
     </g>
    </g>
    <g id="ytick_10">
     <g id="line2d_21">
      <g>
       <use style="stroke:#000000;stroke-width:0.8;" x="273.594034" xlink:href="#m83841aa2c2" y="93.075976"/>
      </g>
     </g>
    </g>
    <g id="ytick_11">
     <g id="line2d_22">
      <g>
       <use style="stroke:#000000;stroke-width:0.8;" x="273.594034" xlink:href="#m83841aa2c2" y="61.628042"/>
      </g>
     </g>
    </g>
    <g id="ytick_12">
     <g id="line2d_23">
      <g>
       <use style="stroke:#000000;stroke-width:0.8;" x="273.594034" xlink:href="#m83841aa2c2" y="30.180108"/>
      </g>
     </g>
    </g>
   </g>
   <g id="line2d_24">
    <path clip-path="url(#pc0cef01bc0)" d="M 282.817175 187.419777 
L 286.581722 187.419775 
L 290.346269 187.419771 
L 294.110816 187.419763 
L 297.875363 187.419744 
L 301.63991 187.419701 
L 305.404457 187.419604 
L 309.169005 187.419385 
L 312.933552 187.418889 
L 316.698099 187.417767 
L 320.462646 187.415228 
L 324.227193 187.409486 
L 327.99174 187.396496 
L 331.756287 187.367116 
L 335.520835 187.300672 
L 339.285382 187.150468 
L 343.049929 186.811211 
L 346.814476 186.046452 
L 350.579023 184.330166 
L 354.34357 180.516828 
L 358.108117 172.232569 
L 361.872665 155.114362 
L 365.637212 123.415434 
L 369.401759 77.005201 
L 373.166306 36.551394 
L 376.930853 36.551394 
L 380.6954 77.005201 
L 384.459947 123.415434 
L 388.224495 155.114362 
L 391.989042 172.232569 
L 395.753589 180.516828 
L 399.518136 184.330166 
L 403.282683 186.046452 
L 407.04723 186.811211 
L 410.811777 187.150468 
L 414.576325 187.300672 
L 418.340872 187.367116 
L 422.105419 187.396496 
L 425.869966 187.409486 
L 429.634513 187.415228 
L 433.39906 187.417767 
L 437.163607 187.418889 
L 440.928155 187.419385 
L 444.692702 187.419604 
L 448.457249 187.419701 
L 452.221796 187.419744 
L 455.986343 187.419763 
L 459.75089 187.419771 
L 463.515437 187.419775 
L 467.279985 187.419777 
" style="fill:none;stroke:#1f77b4;stroke-linecap:square;stroke-width:1.5;"/>
   </g>
   <g id="patch_8">
    <path d="M 273.594034 195.281761 
L 273.594034 22.318125 
" style="fill:none;stroke:#000000;stroke-linecap:square;stroke-linejoin:miter;stroke-width:0.8;"/>
   </g>
   <g id="patch_9">
    <path d="M 476.503125 195.281761 
L 476.503125 22.318125 
" style="fill:none;stroke:#000000;stroke-linecap:square;stroke-linejoin:miter;stroke-width:0.8;"/>
   </g>
   <g id="patch_10">
    <path d="M 273.594034 195.281761 
L 476.503125 195.281761 
" style="fill:none;stroke:#000000;stroke-linecap:square;stroke-linejoin:miter;stroke-width:0.8;"/>
   </g>
   <g id="patch_11">
    <path d="M 273.594034 22.318125 
L 476.503125 22.318125 
" style="fill:none;stroke:#000000;stroke-linecap:square;stroke-linejoin:miter;stroke-width:0.8;"/>
   </g>
   <g id="text_8">
    <!-- Derivative of tanh -->
    <g transform="translate(320.881705 16.318125)scale(0.12 -0.12)">
     <defs>
      <path d="M 3513 2113 
L 3513 0 
L 2938 0 
L 2938 2094 
Q 2938 2591 2744 2837 
Q 2550 3084 2163 3084 
Q 1697 3084 1428 2787 
Q 1159 2491 1159 1978 
L 1159 0 
L 581 0 
L 581 3500 
L 1159 3500 
L 1159 2956 
Q 1366 3272 1645 3428 
Q 1925 3584 2291 3584 
Q 2894 3584 3203 3211 
Q 3513 2838 3513 2113 
z
" id="DejaVuSans-6e" transform="scale(0.015625)"/>
      <path d="M 3513 2113 
L 3513 0 
L 2938 0 
L 2938 2094 
Q 2938 2591 2744 2837 
Q 2550 3084 2163 3084 
Q 1697 3084 1428 2787 
Q 1159 2491 1159 1978 
L 1159 0 
L 581 0 
L 581 4863 
L 1159 4863 
L 1159 2956 
Q 1366 3272 1645 3428 
Q 1925 3584 2291 3584 
Q 2894 3584 3203 3211 
Q 3513 2838 3513 2113 
z
" id="DejaVuSans-68" transform="scale(0.015625)"/>
     </defs>
     <use xlink:href="#DejaVuSans-44"/>
     <use x="77.001953" xlink:href="#DejaVuSans-65"/>
     <use x="138.525391" xlink:href="#DejaVuSans-72"/>
     <use x="179.638672" xlink:href="#DejaVuSans-69"/>
     <use x="207.421875" xlink:href="#DejaVuSans-76"/>
     <use x="266.601562" xlink:href="#DejaVuSans-61"/>
     <use x="327.880859" xlink:href="#DejaVuSans-74"/>
     <use x="367.089844" xlink:href="#DejaVuSans-69"/>
     <use x="394.873047" xlink:href="#DejaVuSans-76"/>
     <use x="454.052734" xlink:href="#DejaVuSans-65"/>
     <use x="515.576172" xlink:href="#DejaVuSans-20"/>
     <use x="547.363281" xlink:href="#DejaVuSans-6f"/>
     <use x="608.544922" xlink:href="#DejaVuSans-66"/>
     <use x="643.75" xlink:href="#DejaVuSans-20"/>
     <use x="675.537109" xlink:href="#DejaVuSans-74"/>
     <use x="714.746094" xlink:href="#DejaVuSans-61"/>
     <use x="776.025391" xlink:href="#DejaVuSans-6e"/>
     <use x="839.404297" xlink:href="#DejaVuSans-68"/>
    </g>
   </g>
  </g>
  <g id="axes_3">
   <g id="patch_12">
    <path d="M 30.103125 402.838125 
L 233.012216 402.838125 
L 233.012216 229.874489 
L 30.103125 229.874489 
z
" style="fill:#ffffff;"/>
   </g>
   <g id="matplotlib.axis_5">
    <g id="xtick_11">
     <g id="line2d_25">
      <g>
       <use style="stroke:#000000;stroke-width:0.8;" x="39.326265" xlink:href="#m1f15b87453" y="402.838125"/>
      </g>
     </g>
     <g id="text_9">
      <!-- −10 -->
      <g transform="translate(28.773922 417.436562)scale(0.1 -0.1)">
       <defs>
        <path d="M 678 2272 
L 4684 2272 
L 4684 1741 
L 678 1741 
L 678 2272 
z
" id="DejaVuSans-2212" transform="scale(0.015625)"/>
       </defs>
       <use xlink:href="#DejaVuSans-2212"/>
       <use x="83.789062" xlink:href="#DejaVuSans-31"/>
       <use x="147.412109" xlink:href="#DejaVuSans-30"/>
      </g>
     </g>
    </g>
    <g id="xtick_12">
     <g id="line2d_26">
      <g>
       <use style="stroke:#000000;stroke-width:0.8;" x="85.441968" xlink:href="#m1f15b87453" y="402.838125"/>
      </g>
     </g>
     <g id="text_10">
      <!-- −5 -->
      <g transform="translate(78.070874 417.436562)scale(0.1 -0.1)">
       <defs>
        <path d="M 691 4666 
L 3169 4666 
L 3169 4134 
L 1269 4134 
L 1269 2991 
Q 1406 3038 1543 3061 
Q 1681 3084 1819 3084 
Q 2600 3084 3056 2656 
Q 3513 2228 3513 1497 
Q 3513 744 3044 326 
Q 2575 -91 1722 -91 
Q 1428 -91 1123 -41 
Q 819 9 494 109 
L 494 744 
Q 775 591 1075 516 
Q 1375 441 1709 441 
Q 2250 441 2565 725 
Q 2881 1009 2881 1497 
Q 2881 1984 2565 2268 
Q 2250 2553 1709 2553 
Q 1456 2553 1204 2497 
Q 953 2441 691 2322 
L 691 4666 
z
" id="DejaVuSans-35" transform="scale(0.015625)"/>
       </defs>
       <use xlink:href="#DejaVuSans-2212"/>
       <use x="83.789062" xlink:href="#DejaVuSans-35"/>
      </g>
     </g>
    </g>
    <g id="xtick_13">
     <g id="line2d_27">
      <g>
       <use style="stroke:#000000;stroke-width:0.8;" x="131.55767" xlink:href="#m1f15b87453" y="402.838125"/>
      </g>
     </g>
     <g id="text_11">
      <!-- 0 -->
      <g transform="translate(128.37642 417.436562)scale(0.1 -0.1)">
       <use xlink:href="#DejaVuSans-30"/>
      </g>
     </g>
    </g>
    <g id="xtick_14">
     <g id="line2d_28">
      <g>
       <use style="stroke:#000000;stroke-width:0.8;" x="177.673373" xlink:href="#m1f15b87453" y="402.838125"/>
      </g>
     </g>
     <g id="text_12">
      <!-- 5 -->
      <g transform="translate(174.492123 417.436562)scale(0.1 -0.1)">
       <use xlink:href="#DejaVuSans-35"/>
      </g>
     </g>
    </g>
    <g id="xtick_15">
     <g id="line2d_29">
      <g>
       <use style="stroke:#000000;stroke-width:0.8;" x="223.789075" xlink:href="#m1f15b87453" y="402.838125"/>
      </g>
     </g>
     <g id="text_13">
      <!-- 10 -->
      <g transform="translate(217.426575 417.436562)scale(0.1 -0.1)">
       <use xlink:href="#DejaVuSans-31"/>
       <use x="63.623047" xlink:href="#DejaVuSans-30"/>
      </g>
     </g>
    </g>
   </g>
   <g id="matplotlib.axis_6">
    <g id="ytick_13">
     <g id="line2d_30">
      <g>
       <use style="stroke:#000000;stroke-width:0.8;" x="30.103125" xlink:href="#m83841aa2c2" y="394.976142"/>
      </g>
     </g>
     <g id="text_14">
      <!-- 0.0 -->
      <g transform="translate(7.2 398.77536)scale(0.1 -0.1)">
       <use xlink:href="#DejaVuSans-30"/>
       <use x="63.623047" xlink:href="#DejaVuSans-2e"/>
       <use x="95.410156" xlink:href="#DejaVuSans-30"/>
      </g>
     </g>
    </g>
    <g id="ytick_14">
     <g id="line2d_31">
      <g>
       <use style="stroke:#000000;stroke-width:0.8;" x="30.103125" xlink:href="#m83841aa2c2" y="363.528208"/>
      </g>
     </g>
     <g id="text_15">
      <!-- 0.2 -->
      <g transform="translate(7.2 367.327426)scale(0.1 -0.1)">
       <use xlink:href="#DejaVuSans-30"/>
       <use x="63.623047" xlink:href="#DejaVuSans-2e"/>
       <use x="95.410156" xlink:href="#DejaVuSans-32"/>
      </g>
     </g>
    </g>
    <g id="ytick_15">
     <g id="line2d_32">
      <g>
       <use style="stroke:#000000;stroke-width:0.8;" x="30.103125" xlink:href="#m83841aa2c2" y="332.080274"/>
      </g>
     </g>
     <g id="text_16">
      <!-- 0.4 -->
      <g transform="translate(7.2 335.879493)scale(0.1 -0.1)">
       <use xlink:href="#DejaVuSans-30"/>
       <use x="63.623047" xlink:href="#DejaVuSans-2e"/>
       <use x="95.410156" xlink:href="#DejaVuSans-34"/>
      </g>
     </g>
    </g>
    <g id="ytick_16">
     <g id="line2d_33">
      <g>
       <use style="stroke:#000000;stroke-width:0.8;" x="30.103125" xlink:href="#m83841aa2c2" y="300.63234"/>
      </g>
     </g>
     <g id="text_17">
      <!-- 0.6 -->
      <g transform="translate(7.2 304.431559)scale(0.1 -0.1)">
       <use xlink:href="#DejaVuSans-30"/>
       <use x="63.623047" xlink:href="#DejaVuSans-2e"/>
       <use x="95.410156" xlink:href="#DejaVuSans-36"/>
      </g>
     </g>
    </g>
    <g id="ytick_17">
     <g id="line2d_34">
      <g>
       <use style="stroke:#000000;stroke-width:0.8;" x="30.103125" xlink:href="#m83841aa2c2" y="269.184406"/>
      </g>
     </g>
     <g id="text_18">
      <!-- 0.8 -->
      <g transform="translate(7.2 272.983625)scale(0.1 -0.1)">
       <use xlink:href="#DejaVuSans-30"/>
       <use x="63.623047" xlink:href="#DejaVuSans-2e"/>
       <use x="95.410156" xlink:href="#DejaVuSans-38"/>
      </g>
     </g>
    </g>
    <g id="ytick_18">
     <g id="line2d_35">
      <g>
       <use style="stroke:#000000;stroke-width:0.8;" x="30.103125" xlink:href="#m83841aa2c2" y="237.736472"/>
      </g>
     </g>
     <g id="text_19">
      <!-- 1.0 -->
      <g transform="translate(7.2 241.535691)scale(0.1 -0.1)">
       <use xlink:href="#DejaVuSans-31"/>
       <use x="63.623047" xlink:href="#DejaVuSans-2e"/>
       <use x="95.410156" xlink:href="#DejaVuSans-30"/>
      </g>
     </g>
    </g>
   </g>
   <g id="line2d_36">
    <path clip-path="url(#p55358cfc68)" d="M 39.326265 394.976142 
L 43.090813 394.976142 
L 46.85536 394.976142 
L 50.619907 394.976142 
L 54.384454 394.976142 
L 58.149001 394.976142 
L 61.913548 394.976142 
L 65.678095 394.976142 
L 69.442643 394.976142 
L 73.20719 394.976142 
L 76.971737 394.976142 
L 80.736284 394.976142 
L 84.500831 394.976142 
L 88.265378 394.976142 
L 92.029925 394.976142 
L 95.794473 394.976142 
L 99.55902 394.976142 
L 103.323567 394.976142 
L 107.088114 394.976142 
L 110.852661 394.976142 
L 114.617208 394.976142 
L 118.381755 394.976142 
L 122.146303 394.976142 
L 125.91085 394.976142 
L 129.675397 394.976142 
L 133.439944 237.736472 
L 137.204491 237.736472 
L 140.969038 237.736472 
L 144.733585 237.736472 
L 148.498133 237.736472 
L 152.26268 237.736472 
L 156.027227 237.736472 
L 159.791774 237.736472 
L 163.556321 237.736472 
L 167.320868 237.736472 
L 171.085415 237.736472 
L 174.849963 237.736472 
L 178.61451 237.736472 
L 182.379057 237.736472 
L 186.143604 237.736472 
L 189.908151 237.736472 
L 193.672698 237.736472 
L 197.437245 237.736472 
L 201.201793 237.736472 
L 204.96634 237.736472 
L 208.730887 237.736472 
L 212.495434 237.736472 
L 216.259981 237.736472 
L 220.024528 237.736472 
L 223.789075 237.736472 
" style="fill:none;stroke:#1f77b4;stroke-linecap:square;stroke-width:1.5;"/>
   </g>
   <g id="patch_13">
    <path d="M 30.103125 402.838125 
L 30.103125 229.874489 
" style="fill:none;stroke:#000000;stroke-linecap:square;stroke-linejoin:miter;stroke-width:0.8;"/>
   </g>
   <g id="patch_14">
    <path d="M 233.012216 402.838125 
L 233.012216 229.874489 
" style="fill:none;stroke:#000000;stroke-linecap:square;stroke-linejoin:miter;stroke-width:0.8;"/>
   </g>
   <g id="patch_15">
    <path d="M 30.103125 402.838125 
L 233.012216 402.838125 
" style="fill:none;stroke:#000000;stroke-linecap:square;stroke-linejoin:miter;stroke-width:0.8;"/>
   </g>
   <g id="patch_16">
    <path d="M 30.103125 229.874489 
L 233.012216 229.874489 
" style="fill:none;stroke:#000000;stroke-linecap:square;stroke-linejoin:miter;stroke-width:0.8;"/>
   </g>
   <g id="text_20">
    <!-- Derivative of ReLU -->
    <g transform="translate(75.999545 223.874489)scale(0.12 -0.12)">
     <defs>
      <path d="M 2841 2188 
Q 3044 2119 3236 1894 
Q 3428 1669 3622 1275 
L 4263 0 
L 3584 0 
L 2988 1197 
Q 2756 1666 2539 1819 
Q 2322 1972 1947 1972 
L 1259 1972 
L 1259 0 
L 628 0 
L 628 4666 
L 2053 4666 
Q 2853 4666 3247 4331 
Q 3641 3997 3641 3322 
Q 3641 2881 3436 2590 
Q 3231 2300 2841 2188 
z
M 1259 4147 
L 1259 2491 
L 2053 2491 
Q 2509 2491 2742 2702 
Q 2975 2913 2975 3322 
Q 2975 3731 2742 3939 
Q 2509 4147 2053 4147 
L 1259 4147 
z
" id="DejaVuSans-52" transform="scale(0.015625)"/>
      <path d="M 628 4666 
L 1259 4666 
L 1259 531 
L 3531 531 
L 3531 0 
L 628 0 
L 628 4666 
z
" id="DejaVuSans-4c" transform="scale(0.015625)"/>
      <path d="M 556 4666 
L 1191 4666 
L 1191 1831 
Q 1191 1081 1462 751 
Q 1734 422 2344 422 
Q 2950 422 3222 751 
Q 3494 1081 3494 1831 
L 3494 4666 
L 4128 4666 
L 4128 1753 
Q 4128 841 3676 375 
Q 3225 -91 2344 -91 
Q 1459 -91 1007 375 
Q 556 841 556 1753 
L 556 4666 
z
" id="DejaVuSans-55" transform="scale(0.015625)"/>
     </defs>
     <use xlink:href="#DejaVuSans-44"/>
     <use x="77.001953" xlink:href="#DejaVuSans-65"/>
     <use x="138.525391" xlink:href="#DejaVuSans-72"/>
     <use x="179.638672" xlink:href="#DejaVuSans-69"/>
     <use x="207.421875" xlink:href="#DejaVuSans-76"/>
     <use x="266.601562" xlink:href="#DejaVuSans-61"/>
     <use x="327.880859" xlink:href="#DejaVuSans-74"/>
     <use x="367.089844" xlink:href="#DejaVuSans-69"/>
     <use x="394.873047" xlink:href="#DejaVuSans-76"/>
     <use x="454.052734" xlink:href="#DejaVuSans-65"/>
     <use x="515.576172" xlink:href="#DejaVuSans-20"/>
     <use x="547.363281" xlink:href="#DejaVuSans-6f"/>
     <use x="608.544922" xlink:href="#DejaVuSans-66"/>
     <use x="643.75" xlink:href="#DejaVuSans-20"/>
     <use x="675.537109" xlink:href="#DejaVuSans-52"/>
     <use x="740.519531" xlink:href="#DejaVuSans-65"/>
     <use x="802.042969" xlink:href="#DejaVuSans-4c"/>
     <use x="852.755859" xlink:href="#DejaVuSans-55"/>
    </g>
   </g>
  </g>
  <g id="axes_4">
   <g id="patch_17">
    <path d="M 273.594034 402.838125 
L 476.503125 402.838125 
L 476.503125 229.874489 
L 273.594034 229.874489 
z
" style="fill:#ffffff;"/>
   </g>
   <g id="matplotlib.axis_7">
    <g id="xtick_16">
     <g id="line2d_37">
      <g>
       <use style="stroke:#000000;stroke-width:0.8;" x="282.817175" xlink:href="#m1f15b87453" y="402.838125"/>
      </g>
     </g>
     <g id="text_21">
      <!-- −10 -->
      <g transform="translate(272.264831 417.436562)scale(0.1 -0.1)">
       <use xlink:href="#DejaVuSans-2212"/>
       <use x="83.789062" xlink:href="#DejaVuSans-31"/>
       <use x="147.412109" xlink:href="#DejaVuSans-30"/>
      </g>
     </g>
    </g>
    <g id="xtick_17">
     <g id="line2d_38">
      <g>
       <use style="stroke:#000000;stroke-width:0.8;" x="328.932877" xlink:href="#m1f15b87453" y="402.838125"/>
      </g>
     </g>
     <g id="text_22">
      <!-- −5 -->
      <g transform="translate(321.561783 417.436562)scale(0.1 -0.1)">
       <use xlink:href="#DejaVuSans-2212"/>
       <use x="83.789062" xlink:href="#DejaVuSans-35"/>
      </g>
     </g>
    </g>
    <g id="xtick_18">
     <g id="line2d_39">
      <g>
       <use style="stroke:#000000;stroke-width:0.8;" x="375.04858" xlink:href="#m1f15b87453" y="402.838125"/>
      </g>
     </g>
     <g id="text_23">
      <!-- 0 -->
      <g transform="translate(371.86733 417.436562)scale(0.1 -0.1)">
       <use xlink:href="#DejaVuSans-30"/>
      </g>
     </g>
    </g>
    <g id="xtick_19">
     <g id="line2d_40">
      <g>
       <use style="stroke:#000000;stroke-width:0.8;" x="421.164282" xlink:href="#m1f15b87453" y="402.838125"/>
      </g>
     </g>
     <g id="text_24">
      <!-- 5 -->
      <g transform="translate(417.983032 417.436562)scale(0.1 -0.1)">
       <use xlink:href="#DejaVuSans-35"/>
      </g>
     </g>
    </g>
    <g id="xtick_20">
     <g id="line2d_41">
      <g>
       <use style="stroke:#000000;stroke-width:0.8;" x="467.279985" xlink:href="#m1f15b87453" y="402.838125"/>
      </g>
     </g>
     <g id="text_25">
      <!-- 10 -->
      <g transform="translate(460.917485 417.436562)scale(0.1 -0.1)">
       <use xlink:href="#DejaVuSans-31"/>
       <use x="63.623047" xlink:href="#DejaVuSans-30"/>
      </g>
     </g>
    </g>
   </g>
   <g id="matplotlib.axis_8">
    <g id="ytick_19">
     <g id="line2d_42">
      <g>
       <use style="stroke:#000000;stroke-width:0.8;" x="273.594034" xlink:href="#m83841aa2c2" y="394.976142"/>
      </g>
     </g>
    </g>
    <g id="ytick_20">
     <g id="line2d_43">
      <g>
       <use style="stroke:#000000;stroke-width:0.8;" x="273.594034" xlink:href="#m83841aa2c2" y="363.528208"/>
      </g>
     </g>
    </g>
    <g id="ytick_21">
     <g id="line2d_44">
      <g>
       <use style="stroke:#000000;stroke-width:0.8;" x="273.594034" xlink:href="#m83841aa2c2" y="332.080274"/>
      </g>
     </g>
    </g>
    <g id="ytick_22">
     <g id="line2d_45">
      <g>
       <use style="stroke:#000000;stroke-width:0.8;" x="273.594034" xlink:href="#m83841aa2c2" y="300.63234"/>
      </g>
     </g>
    </g>
    <g id="ytick_23">
     <g id="line2d_46">
      <g>
       <use style="stroke:#000000;stroke-width:0.8;" x="273.594034" xlink:href="#m83841aa2c2" y="269.184406"/>
      </g>
     </g>
    </g>
    <g id="ytick_24">
     <g id="line2d_47">
      <g>
       <use style="stroke:#000000;stroke-width:0.8;" x="273.594034" xlink:href="#m83841aa2c2" y="237.736472"/>
      </g>
     </g>
    </g>
   </g>
   <g id="line2d_48">
    <path clip-path="url(#p0ef0a9fa20)" d="M 282.817175 387.114158 
L 286.581722 387.114158 
L 290.346269 387.114158 
L 294.110816 387.114158 
L 297.875363 387.114158 
L 301.63991 387.114158 
L 305.404457 387.114158 
L 309.169005 387.114158 
L 312.933552 387.114158 
L 316.698099 387.114158 
L 320.462646 387.114158 
L 324.227193 387.114158 
L 327.99174 387.114158 
L 331.756287 387.114158 
L 335.520835 387.114158 
L 339.285382 387.114158 
L 343.049929 387.114158 
L 346.814476 387.114158 
L 350.579023 387.114158 
L 354.34357 387.114158 
L 358.108117 387.114158 
L 361.872665 387.114158 
L 365.637212 387.114158 
L 369.401759 387.114158 
L 373.166306 387.114158 
L 376.930853 237.736472 
L 380.6954 237.736472 
L 384.459947 237.736472 
L 388.224495 237.736472 
L 391.989042 237.736472 
L 395.753589 237.736472 
L 399.518136 237.736472 
L 403.282683 237.736472 
L 407.04723 237.736472 
L 410.811777 237.736472 
L 414.576325 237.736472 
L 418.340872 237.736472 
L 422.105419 237.736472 
L 425.869966 237.736472 
L 429.634513 237.736472 
L 433.39906 237.736472 
L 437.163607 237.736472 
L 440.928155 237.736472 
L 444.692702 237.736472 
L 448.457249 237.736472 
L 452.221796 237.736472 
L 455.986343 237.736472 
L 459.75089 237.736472 
L 463.515437 237.736472 
L 467.279985 237.736472 
" style="fill:none;stroke:#1f77b4;stroke-linecap:square;stroke-width:1.5;"/>
   </g>
   <g id="patch_18">
    <path d="M 273.594034 402.838125 
L 273.594034 229.874489 
" style="fill:none;stroke:#000000;stroke-linecap:square;stroke-linejoin:miter;stroke-width:0.8;"/>
   </g>
   <g id="patch_19">
    <path d="M 476.503125 402.838125 
L 476.503125 229.874489 
" style="fill:none;stroke:#000000;stroke-linecap:square;stroke-linejoin:miter;stroke-width:0.8;"/>
   </g>
   <g id="patch_20">
    <path d="M 273.594034 402.838125 
L 476.503125 402.838125 
" style="fill:none;stroke:#000000;stroke-linecap:square;stroke-linejoin:miter;stroke-width:0.8;"/>
   </g>
   <g id="patch_21">
    <path d="M 273.594034 229.874489 
L 476.503125 229.874489 
" style="fill:none;stroke:#000000;stroke-linecap:square;stroke-linejoin:miter;stroke-width:0.8;"/>
   </g>
   <g id="text_26">
    <!-- Derivative of Leaky-ReLU -->
    <g transform="translate(300.015767 223.874489)scale(0.12 -0.12)">
     <defs>
      <path d="M 581 4863 
L 1159 4863 
L 1159 1991 
L 2875 3500 
L 3609 3500 
L 1753 1863 
L 3688 0 
L 2938 0 
L 1159 1709 
L 1159 0 
L 581 0 
L 581 4863 
z
" id="DejaVuSans-6b" transform="scale(0.015625)"/>
      <path d="M 2059 -325 
Q 1816 -950 1584 -1140 
Q 1353 -1331 966 -1331 
L 506 -1331 
L 506 -850 
L 844 -850 
Q 1081 -850 1212 -737 
Q 1344 -625 1503 -206 
L 1606 56 
L 191 3500 
L 800 3500 
L 1894 763 
L 2988 3500 
L 3597 3500 
L 2059 -325 
z
" id="DejaVuSans-79" transform="scale(0.015625)"/>
      <path d="M 313 2009 
L 1997 2009 
L 1997 1497 
L 313 1497 
L 313 2009 
z
" id="DejaVuSans-2d" transform="scale(0.015625)"/>
     </defs>
     <use xlink:href="#DejaVuSans-44"/>
     <use x="77.001953" xlink:href="#DejaVuSans-65"/>
     <use x="138.525391" xlink:href="#DejaVuSans-72"/>
     <use x="179.638672" xlink:href="#DejaVuSans-69"/>
     <use x="207.421875" xlink:href="#DejaVuSans-76"/>
     <use x="266.601562" xlink:href="#DejaVuSans-61"/>
     <use x="327.880859" xlink:href="#DejaVuSans-74"/>
     <use x="367.089844" xlink:href="#DejaVuSans-69"/>
     <use x="394.873047" xlink:href="#DejaVuSans-76"/>
     <use x="454.052734" xlink:href="#DejaVuSans-65"/>
     <use x="515.576172" xlink:href="#DejaVuSans-20"/>
     <use x="547.363281" xlink:href="#DejaVuSans-6f"/>
     <use x="608.544922" xlink:href="#DejaVuSans-66"/>
     <use x="643.75" xlink:href="#DejaVuSans-20"/>
     <use x="675.537109" xlink:href="#DejaVuSans-4c"/>
     <use x="729.5" xlink:href="#DejaVuSans-65"/>
     <use x="791.023438" xlink:href="#DejaVuSans-61"/>
     <use x="852.302734" xlink:href="#DejaVuSans-6b"/>
     <use x="906.587891" xlink:href="#DejaVuSans-79"/>
     <use x="964.017578" xlink:href="#DejaVuSans-2d"/>
     <use x="1000.101562" xlink:href="#DejaVuSans-52"/>
     <use x="1065.083984" xlink:href="#DejaVuSans-65"/>
     <use x="1126.607422" xlink:href="#DejaVuSans-4c"/>
     <use x="1177.320312" xlink:href="#DejaVuSans-55"/>
    </g>
   </g>
  </g>
 </g>
 <defs>
  <clipPath id="p179aa1eb12">
   <rect height="172.963636" width="202.909091" x="30.103125" y="22.318125"/>
  </clipPath>
  <clipPath id="pc0cef01bc0">
   <rect height="172.963636" width="202.909091" x="273.594034" y="22.318125"/>
  </clipPath>
  <clipPath id="p55358cfc68">
   <rect height="172.963636" width="202.909091" x="30.103125" y="229.874489"/>
  </clipPath>
  <clipPath id="p0ef0a9fa20">
   <rect height="172.963636" width="202.909091" x="273.594034" y="229.874489"/>
  </clipPath>
 </defs>
</svg>
