<?xml version="1.0" encoding="utf-8" standalone="no"?>
<!DOCTYPE svg PUBLIC "-//W3C//DTD SVG 1.1//EN"
  "http://www.w3.org/Graphics/SVG/1.1/DTD/svg11.dtd">
<svg height="331.971875pt" version="1.1" viewBox="0 0 711.040625 331.971875" width="711.040625pt" xmlns="http://www.w3.org/2000/svg" xmlns:xlink="http://www.w3.org/1999/xlink">
 <metadata>
  <rdf:RDF xmlns:cc="http://creativecommons.org/ns#" xmlns:dc="http://purl.org/dc/elements/1.1/" xmlns:rdf="http://www.w3.org/1999/02/22-rdf-syntax-ns#">
   <cc:Work>
    <dc:type rdf:resource="http://purl.org/dc/dcmitype/StillImage"/>
    <dc:date>2021-09-27T21:28:32.803336</dc:date>
    <dc:format>image/svg+xml</dc:format>
    <dc:creator>
     <cc:Agent>
      <dc:title>Matplotlib v3.4.3, https://matplotlib.org/</dc:title>
     </cc:Agent>
    </dc:creator>
   </cc:Work>
  </rdf:RDF>
 </metadata>
 <defs>
  <style type="text/css">*{stroke-linecap:butt;stroke-linejoin:round;}</style>
 </defs>
 <g id="figure_1">
  <g id="patch_1">
   <path d="M 0 331.971875 
L 711.040625 331.971875 
L 711.040625 0 
L 0 0 
z
" style="fill:none;"/>
  </g>
  <g id="axes_1">
   <g id="patch_2">
    <path d="M 34.240625 294.09375 
L 338.604261 294.09375 
L 338.604261 22.29375 
L 34.240625 22.29375 
z
" style="fill:#ffffff;"/>
   </g>
   <g id="matplotlib.axis_1">
    <g id="xtick_1">
     <g id="line2d_1">
      <defs>
       <path d="M 0 0 
L 0 3.5 
" id="m7f89370d17" style="stroke:#000000;stroke-width:0.8;"/>
      </defs>
      <g>
       <use style="stroke:#000000;stroke-width:0.8;" x="45.251925" xlink:href="#m7f89370d17" y="294.09375"/>
      </g>
     </g>
     <g id="text_1">
      <!-- 0 -->
      <g transform="translate(42.070675 308.692187)scale(0.1 -0.1)">
       <defs>
        <path d="M 2034 4250 
Q 1547 4250 1301 3770 
Q 1056 3291 1056 2328 
Q 1056 1369 1301 889 
Q 1547 409 2034 409 
Q 2525 409 2770 889 
Q 3016 1369 3016 2328 
Q 3016 3291 2770 3770 
Q 2525 4250 2034 4250 
z
M 2034 4750 
Q 2819 4750 3233 4129 
Q 3647 3509 3647 2328 
Q 3647 1150 3233 529 
Q 2819 -91 2034 -91 
Q 1250 -91 836 529 
Q 422 1150 422 2328 
Q 422 3509 836 4129 
Q 1250 4750 2034 4750 
z
" id="DejaVuSans-30" transform="scale(0.015625)"/>
       </defs>
       <use xlink:href="#DejaVuSans-30"/>
      </g>
     </g>
    </g>
    <g id="xtick_2">
     <g id="line2d_2">
      <g>
       <use style="stroke:#000000;stroke-width:0.8;" x="327.592961" xlink:href="#m7f89370d17" y="294.09375"/>
      </g>
     </g>
     <g id="text_2">
      <!-- 1 -->
      <g transform="translate(324.411711 308.692187)scale(0.1 -0.1)">
       <defs>
        <path d="M 794 531 
L 1825 531 
L 1825 4091 
L 703 3866 
L 703 4441 
L 1819 4666 
L 2450 4666 
L 2450 531 
L 3481 531 
L 3481 0 
L 794 0 
L 794 531 
z
" id="DejaVuSans-31" transform="scale(0.015625)"/>
       </defs>
       <use xlink:href="#DejaVuSans-31"/>
      </g>
     </g>
    </g>
    <g id="text_3">
     <!-- $h_\theta(x)$ -->
     <g transform="translate(174.822443 322.271875)scale(0.1 -0.1)">
      <defs>
       <path d="M 341 116 
Q 341 153 347 172 
L 1275 3872 
Q 1300 3981 1306 4044 
Q 1306 4147 891 4147 
Q 825 4147 825 4231 
Q 828 4247 839 4287 
Q 850 4328 867 4350 
Q 884 4372 916 4372 
L 1778 4441 
L 1797 4441 
Q 1797 4434 1819 4423 
Q 1841 4413 1844 4409 
Q 1856 4378 1856 4359 
L 1356 2363 
Q 1750 2828 2291 2828 
Q 2516 2828 2680 2750 
Q 2844 2672 2936 2514 
Q 3028 2356 3028 2138 
Q 3028 1875 2911 1503 
Q 2794 1131 2619 672 
Q 2528 463 2528 288 
Q 2528 97 2675 97 
Q 2925 97 3092 364 
Q 3259 631 3328 941 
Q 3341 978 3378 978 
L 3456 978 
Q 3481 978 3497 961 
Q 3513 944 3513 922 
Q 3513 916 3506 903 
Q 3450 672 3339 448 
Q 3228 225 3059 76 
Q 2891 -72 2663 -72 
Q 2438 -72 2278 83 
Q 2119 238 2119 459 
Q 2119 578 2169 709 
Q 2350 1191 2470 1569 
Q 2591 1947 2591 2234 
Q 2591 2419 2519 2541 
Q 2447 2663 2278 2663 
Q 1934 2663 1678 2452 
Q 1422 2241 1234 1894 
L 800 147 
Q 775 50 703 -11 
Q 631 -72 538 -72 
Q 456 -72 398 -17 
Q 341 38 341 116 
z
" id="Cmmi10-68" transform="scale(0.015625)"/>
       <path d="M 1031 -72 
Q 741 -72 566 140 
Q 391 353 323 653 
Q 256 953 256 1247 
L 256 1253 
Q 256 1572 317 1915 
Q 378 2259 493 2601 
Q 609 2944 744 3213 
Q 838 3400 986 3631 
Q 1134 3863 1317 4064 
Q 1500 4266 1711 4389 
Q 1922 4513 2138 4513 
L 2144 4513 
Q 2375 4513 2529 4384 
Q 2684 4256 2770 4056 
Q 2856 3856 2890 3628 
Q 2925 3400 2925 3194 
Q 2925 2709 2794 2204 
Q 2663 1700 2431 1228 
Q 2344 1050 2189 809 
Q 2034 569 1861 378 
Q 1688 188 1472 58 
Q 1256 -72 1038 -72 
L 1031 -72 
z
M 1044 97 
Q 1256 97 1451 323 
Q 1647 550 1794 873 
Q 1941 1197 2052 1536 
Q 2163 1875 2216 2113 
L 909 2113 
Q 809 1709 753 1417 
Q 697 1125 697 844 
Q 697 97 1044 97 
z
M 959 2338 
L 2272 2338 
Q 2341 2619 2381 2808 
Q 2422 2997 2450 3206 
Q 2478 3416 2478 3597 
Q 2478 4347 2138 4347 
Q 1731 4347 1436 3692 
Q 1141 3038 959 2338 
z
" id="Cmmi10-b5" transform="scale(0.015625)"/>
       <path d="M 1984 -1588 
Q 1628 -1306 1370 -942 
Q 1113 -578 948 -165 
Q 784 247 703 697 
Q 622 1147 622 1600 
Q 622 2059 703 2509 
Q 784 2959 951 3375 
Q 1119 3791 1378 4153 
Q 1638 4516 1984 4788 
Q 1984 4800 2016 4800 
L 2075 4800 
Q 2094 4800 2109 4783 
Q 2125 4766 2125 4744 
Q 2125 4716 2113 4703 
Q 1800 4397 1592 4047 
Q 1384 3697 1257 3301 
Q 1131 2906 1075 2482 
Q 1019 2059 1019 1600 
Q 1019 -434 2106 -1491 
Q 2125 -1509 2125 -1544 
Q 2125 -1559 2108 -1579 
Q 2091 -1600 2075 -1600 
L 2016 -1600 
Q 1984 -1600 1984 -1588 
z
" id="Cmr10-28" transform="scale(0.015625)"/>
       <path d="M 500 184 
Q 613 97 819 97 
Q 1019 97 1172 289 
Q 1325 481 1381 709 
L 1672 1844 
Q 1741 2153 1741 2266 
Q 1741 2425 1652 2544 
Q 1563 2663 1403 2663 
Q 1200 2663 1022 2536 
Q 844 2409 722 2214 
Q 600 2019 550 1819 
Q 538 1778 500 1778 
L 422 1778 
Q 372 1778 372 1838 
L 372 1856 
Q 434 2094 584 2320 
Q 734 2547 951 2687 
Q 1169 2828 1416 2828 
Q 1650 2828 1839 2703 
Q 2028 2578 2106 2363 
Q 2216 2559 2386 2693 
Q 2556 2828 2759 2828 
Q 2897 2828 3040 2779 
Q 3184 2731 3275 2631 
Q 3366 2531 3366 2381 
Q 3366 2219 3261 2101 
Q 3156 1984 2994 1984 
Q 2891 1984 2822 2050 
Q 2753 2116 2753 2216 
Q 2753 2350 2845 2451 
Q 2938 2553 3066 2572 
Q 2950 2663 2747 2663 
Q 2541 2663 2389 2472 
Q 2238 2281 2175 2047 
L 1894 916 
Q 1825 659 1825 494 
Q 1825 331 1917 214 
Q 2009 97 2163 97 
Q 2463 97 2698 361 
Q 2934 625 3009 941 
Q 3022 978 3059 978 
L 3138 978 
Q 3163 978 3178 961 
Q 3194 944 3194 922 
Q 3194 916 3188 903 
Q 3097 522 2806 225 
Q 2516 -72 2150 -72 
Q 1916 -72 1727 54 
Q 1538 181 1459 397 
Q 1359 209 1182 68 
Q 1006 -72 806 -72 
Q 669 -72 523 -23 
Q 378 25 287 125 
Q 197 225 197 378 
Q 197 528 301 651 
Q 406 775 563 775 
Q 669 775 741 711 
Q 813 647 813 544 
Q 813 409 723 309 
Q 634 209 500 184 
z
" id="Cmmi10-78" transform="scale(0.015625)"/>
       <path d="M 416 -1600 
Q 359 -1600 359 -1544 
Q 359 -1516 372 -1503 
Q 1466 -434 1466 1600 
Q 1466 3634 384 4691 
Q 359 4706 359 4744 
Q 359 4766 376 4783 
Q 394 4800 416 4800 
L 475 4800 
Q 494 4800 506 4788 
Q 966 4425 1272 3906 
Q 1578 3388 1720 2800 
Q 1863 2213 1863 1600 
Q 1863 1147 1786 708 
Q 1709 269 1542 -157 
Q 1375 -584 1119 -945 
Q 863 -1306 506 -1588 
Q 494 -1600 475 -1600 
L 416 -1600 
z
" id="Cmr10-29" transform="scale(0.015625)"/>
      </defs>
      <use xlink:href="#Cmmi10-68"/>
      <use transform="translate(57.617188 -17.00625)scale(0.7)" xlink:href="#Cmmi10-b5"/>
      <use transform="translate(96.841211 0)" xlink:href="#Cmr10-28"/>
      <use transform="translate(135.65957 0)" xlink:href="#Cmmi10-78"/>
      <use transform="translate(192.739648 0)" xlink:href="#Cmr10-29"/>
     </g>
    </g>
   </g>
   <g id="matplotlib.axis_2">
    <g id="ytick_1">
     <g id="line2d_3">
      <defs>
       <path d="M 0 0 
L -3.5 0 
" id="mffae0e4915" style="stroke:#000000;stroke-width:0.8;"/>
      </defs>
      <g>
       <use style="stroke:#000000;stroke-width:0.8;" x="34.240625" xlink:href="#mffae0e4915" y="282.279636"/>
      </g>
     </g>
     <g id="text_4">
      <!-- 0 -->
      <g transform="translate(20.878125 286.078855)scale(0.1 -0.1)">
       <use xlink:href="#DejaVuSans-30"/>
      </g>
     </g>
    </g>
    <g id="text_5">
     <!-- Cost -->
     <g transform="translate(14.798438 169.309375)rotate(-90)scale(0.1 -0.1)">
      <defs>
       <path d="M 4122 4306 
L 4122 3641 
Q 3803 3938 3442 4084 
Q 3081 4231 2675 4231 
Q 1875 4231 1450 3742 
Q 1025 3253 1025 2328 
Q 1025 1406 1450 917 
Q 1875 428 2675 428 
Q 3081 428 3442 575 
Q 3803 722 4122 1019 
L 4122 359 
Q 3791 134 3420 21 
Q 3050 -91 2638 -91 
Q 1578 -91 968 557 
Q 359 1206 359 2328 
Q 359 3453 968 4101 
Q 1578 4750 2638 4750 
Q 3056 4750 3426 4639 
Q 3797 4528 4122 4306 
z
" id="DejaVuSans-43" transform="scale(0.015625)"/>
       <path d="M 1959 3097 
Q 1497 3097 1228 2736 
Q 959 2375 959 1747 
Q 959 1119 1226 758 
Q 1494 397 1959 397 
Q 2419 397 2687 759 
Q 2956 1122 2956 1747 
Q 2956 2369 2687 2733 
Q 2419 3097 1959 3097 
z
M 1959 3584 
Q 2709 3584 3137 3096 
Q 3566 2609 3566 1747 
Q 3566 888 3137 398 
Q 2709 -91 1959 -91 
Q 1206 -91 779 398 
Q 353 888 353 1747 
Q 353 2609 779 3096 
Q 1206 3584 1959 3584 
z
" id="DejaVuSans-6f" transform="scale(0.015625)"/>
       <path d="M 2834 3397 
L 2834 2853 
Q 2591 2978 2328 3040 
Q 2066 3103 1784 3103 
Q 1356 3103 1142 2972 
Q 928 2841 928 2578 
Q 928 2378 1081 2264 
Q 1234 2150 1697 2047 
L 1894 2003 
Q 2506 1872 2764 1633 
Q 3022 1394 3022 966 
Q 3022 478 2636 193 
Q 2250 -91 1575 -91 
Q 1294 -91 989 -36 
Q 684 19 347 128 
L 347 722 
Q 666 556 975 473 
Q 1284 391 1588 391 
Q 1994 391 2212 530 
Q 2431 669 2431 922 
Q 2431 1156 2273 1281 
Q 2116 1406 1581 1522 
L 1381 1569 
Q 847 1681 609 1914 
Q 372 2147 372 2553 
Q 372 3047 722 3315 
Q 1072 3584 1716 3584 
Q 2034 3584 2315 3537 
Q 2597 3491 2834 3397 
z
" id="DejaVuSans-73" transform="scale(0.015625)"/>
       <path d="M 1172 4494 
L 1172 3500 
L 2356 3500 
L 2356 3053 
L 1172 3053 
L 1172 1153 
Q 1172 725 1289 603 
Q 1406 481 1766 481 
L 2356 481 
L 2356 0 
L 1766 0 
Q 1100 0 847 248 
Q 594 497 594 1153 
L 594 3053 
L 172 3053 
L 172 3500 
L 594 3500 
L 594 4494 
L 1172 4494 
z
" id="DejaVuSans-74" transform="scale(0.015625)"/>
      </defs>
      <use xlink:href="#DejaVuSans-43"/>
      <use x="69.824219" xlink:href="#DejaVuSans-6f"/>
      <use x="131.005859" xlink:href="#DejaVuSans-73"/>
      <use x="183.105469" xlink:href="#DejaVuSans-74"/>
     </g>
    </g>
   </g>
   <g id="line2d_4">
    <path clip-path="url(#p01d45ad3f4)" d="M 48.075336 34.648295 
L 53.722156 93.723383 
L 59.368977 121.191735 
L 65.015798 139.284676 
L 70.662619 152.798471 
L 76.309439 163.589029 
L 81.95626 172.571938 
L 87.603081 180.266823 
L 93.249901 186.997153 
L 98.896722 192.97803 
L 104.543543 198.359764 
L 110.190364 203.25154 
L 115.837184 207.735175 
L 121.484005 211.873559 
L 127.130826 215.716084 
L 132.777646 219.302243 
L 138.424467 222.664117 
L 144.071288 225.828115 
L 149.718109 228.816243 
L 155.364929 231.647026 
L 161.01175 234.33621 
L 166.658571 236.897287 
L 172.305391 239.341911 
L 177.952212 241.680212 
L 183.599033 243.921056 
L 189.245854 246.072241 
L 194.892674 248.140668 
L 200.539495 250.132468 
L 206.186316 252.053117 
L 211.833136 253.907524 
L 217.479957 255.700106 
L 223.126778 257.434852 
L 228.773599 259.115378 
L 234.420419 260.744971 
L 240.06724 262.326628 
L 245.714061 263.863089 
L 251.360881 265.356864 
L 257.007702 266.810262 
L 262.654523 268.225409 
L 268.301344 269.604266 
L 273.948164 270.948647 
L 279.594985 272.260236 
L 285.241806 273.540593 
L 290.888626 274.791172 
L 296.535447 276.013326 
L 302.182268 277.208318 
L 307.829088 278.377331 
L 313.475909 279.521469 
L 319.12273 280.641769 
L 324.769551 281.739205 
" style="fill:none;stroke:#1f77b4;stroke-linecap:square;stroke-width:1.5;"/>
   </g>
   <g id="patch_3">
    <path d="M 34.240625 294.09375 
L 34.240625 22.29375 
" style="fill:none;stroke:#000000;stroke-linecap:square;stroke-linejoin:miter;stroke-width:0.8;"/>
   </g>
   <g id="patch_4">
    <path d="M 338.604261 294.09375 
L 338.604261 22.29375 
" style="fill:none;stroke:#000000;stroke-linecap:square;stroke-linejoin:miter;stroke-width:0.8;"/>
   </g>
   <g id="patch_5">
    <path d="M 34.240625 294.09375 
L 338.604261 294.09375 
" style="fill:none;stroke:#000000;stroke-linecap:square;stroke-linejoin:miter;stroke-width:0.8;"/>
   </g>
   <g id="patch_6">
    <path d="M 34.240625 22.29375 
L 338.604261 22.29375 
" style="fill:none;stroke:#000000;stroke-linecap:square;stroke-linejoin:miter;stroke-width:0.8;"/>
   </g>
   <g id="text_6">
    <!-- $y=1$ -->
    <g transform="translate(173.702443 16.29375)scale(0.12 -0.12)">
     <defs>
      <path d="M 538 -916 
Q 672 -1147 1006 -1147 
Q 1309 -1147 1531 -934 
Q 1753 -722 1889 -420 
Q 2025 -119 2100 197 
Q 1816 -72 1484 -72 
Q 1231 -72 1053 15 
Q 875 103 776 276 
Q 678 450 678 697 
Q 678 906 734 1126 
Q 791 1347 892 1617 
Q 994 1888 1069 2088 
Q 1153 2322 1153 2472 
Q 1153 2663 1013 2663 
Q 759 2663 595 2402 
Q 431 2141 353 1819 
Q 341 1778 300 1778 
L 225 1778 
Q 172 1778 172 1838 
L 172 1856 
Q 275 2238 487 2533 
Q 700 2828 1025 2828 
Q 1253 2828 1411 2678 
Q 1569 2528 1569 2297 
Q 1569 2178 1516 2047 
Q 1488 1969 1388 1706 
Q 1288 1444 1234 1272 
Q 1181 1100 1147 934 
Q 1113 769 1113 603 
Q 1113 391 1203 244 
Q 1294 97 1491 97 
Q 1888 97 2203 581 
L 2688 2553 
Q 2709 2638 2787 2698 
Q 2866 2759 2956 2759 
Q 3034 2759 3092 2709 
Q 3150 2659 3150 2578 
Q 3150 2541 3144 2528 
L 2509 -19 
Q 2425 -347 2200 -647 
Q 1975 -947 1658 -1130 
Q 1341 -1313 997 -1313 
Q 831 -1313 668 -1248 
Q 506 -1184 406 -1056 
Q 306 -928 306 -756 
Q 306 -581 409 -453 
Q 513 -325 684 -325 
Q 788 -325 858 -389 
Q 928 -453 928 -556 
Q 928 -703 818 -812 
Q 709 -922 563 -922 
Q 556 -919 550 -917 
Q 544 -916 538 -916 
z
" id="Cmmi10-79" transform="scale(0.015625)"/>
      <path d="M 481 850 
Q 428 850 393 890 
Q 359 931 359 978 
Q 359 1031 393 1068 
Q 428 1106 481 1106 
L 4500 1106 
Q 4547 1106 4581 1068 
Q 4616 1031 4616 978 
Q 4616 931 4581 890 
Q 4547 850 4500 850 
L 481 850 
z
M 481 2094 
Q 428 2094 393 2131 
Q 359 2169 359 2222 
Q 359 2269 393 2309 
Q 428 2350 481 2350 
L 4500 2350 
Q 4547 2350 4581 2309 
Q 4616 2269 4616 2222 
Q 4616 2169 4581 2131 
Q 4547 2094 4500 2094 
L 481 2094 
z
" id="Cmr10-3d" transform="scale(0.015625)"/>
      <path d="M 594 0 
L 594 225 
Q 1394 225 1394 428 
L 1394 3788 
Q 1063 3628 556 3628 
L 556 3853 
Q 1341 3853 1741 4263 
L 1831 4263 
Q 1853 4263 1873 4245 
Q 1894 4228 1894 4206 
L 1894 428 
Q 1894 225 2694 225 
L 2694 0 
L 594 0 
z
" id="Cmr10-31" transform="scale(0.015625)"/>
     </defs>
     <use transform="translate(0 0.390625)" xlink:href="#Cmmi10-79"/>
     <use transform="translate(66.582031 0.390625)" xlink:href="#Cmr10-3d"/>
     <use transform="translate(161.826172 0.390625)" xlink:href="#Cmr10-31"/>
    </g>
   </g>
  </g>
  <g id="axes_2">
   <g id="patch_7">
    <path d="M 399.476989 294.09375 
L 703.840625 294.09375 
L 703.840625 22.29375 
L 399.476989 22.29375 
z
" style="fill:#ffffff;"/>
   </g>
   <g id="matplotlib.axis_3">
    <g id="xtick_3">
     <g id="line2d_5">
      <g>
       <use style="stroke:#000000;stroke-width:0.8;" x="410.488289" xlink:href="#m7f89370d17" y="294.09375"/>
      </g>
     </g>
     <g id="text_7">
      <!-- 0 -->
      <g transform="translate(407.307039 308.692187)scale(0.1 -0.1)">
       <use xlink:href="#DejaVuSans-30"/>
      </g>
     </g>
    </g>
    <g id="xtick_4">
     <g id="line2d_6">
      <g>
       <use style="stroke:#000000;stroke-width:0.8;" x="692.829325" xlink:href="#m7f89370d17" y="294.09375"/>
      </g>
     </g>
     <g id="text_8">
      <!-- 1 -->
      <g transform="translate(689.648075 308.692187)scale(0.1 -0.1)">
       <use xlink:href="#DejaVuSans-31"/>
      </g>
     </g>
    </g>
   </g>
   <g id="matplotlib.axis_4">
    <g id="ytick_2">
     <g id="line2d_7">
      <g>
       <use style="stroke:#000000;stroke-width:0.8;" x="399.476989" xlink:href="#mffae0e4915" y="282.279636"/>
      </g>
     </g>
     <g id="text_9">
      <!-- 0 -->
      <g transform="translate(386.114489 286.078855)scale(0.1 -0.1)">
       <use xlink:href="#DejaVuSans-30"/>
      </g>
     </g>
    </g>
   </g>
   <g id="line2d_8">
    <path clip-path="url(#p2871884cf6)" d="M 413.311699 281.739205 
L 418.95852 280.641769 
L 424.605341 279.521469 
L 430.252162 278.377331 
L 435.898982 277.208318 
L 441.545803 276.013326 
L 447.192624 274.791172 
L 452.839444 273.540593 
L 458.486265 272.260236 
L 464.133086 270.948647 
L 469.779906 269.604266 
L 475.426727 268.225409 
L 481.073548 266.810262 
L 486.720369 265.356864 
L 492.367189 263.863089 
L 498.01401 262.326628 
L 503.660831 260.744971 
L 509.307651 259.115378 
L 514.954472 257.434852 
L 520.601293 255.700106 
L 526.248114 253.907524 
L 531.894934 252.053117 
L 537.541755 250.132468 
L 543.188576 248.140668 
L 548.835396 246.072241 
L 554.482217 243.921056 
L 560.129038 241.680212 
L 565.775859 239.341911 
L 571.422679 236.897287 
L 577.0695 234.33621 
L 582.716321 231.647026 
L 588.363141 228.816243 
L 594.009962 225.828115 
L 599.656783 222.664117 
L 605.303604 219.302243 
L 610.950424 215.716084 
L 616.597245 211.873559 
L 622.244066 207.735175 
L 627.890886 203.25154 
L 633.537707 198.359764 
L 639.184528 192.97803 
L 644.831349 186.997153 
L 650.478169 180.266823 
L 656.12499 172.571938 
L 661.771811 163.589029 
L 667.418631 152.798471 
L 673.065452 139.284676 
L 678.712273 121.191735 
L 684.359094 93.723383 
L 690.005914 34.648295 
" style="fill:none;stroke:#1f77b4;stroke-linecap:square;stroke-width:1.5;"/>
   </g>
   <g id="patch_8">
    <path d="M 399.476989 294.09375 
L 399.476989 22.29375 
" style="fill:none;stroke:#000000;stroke-linecap:square;stroke-linejoin:miter;stroke-width:0.8;"/>
   </g>
   <g id="patch_9">
    <path d="M 703.840625 294.09375 
L 703.840625 22.29375 
" style="fill:none;stroke:#000000;stroke-linecap:square;stroke-linejoin:miter;stroke-width:0.8;"/>
   </g>
   <g id="patch_10">
    <path d="M 399.476989 294.09375 
L 703.840625 294.09375 
" style="fill:none;stroke:#000000;stroke-linecap:square;stroke-linejoin:miter;stroke-width:0.8;"/>
   </g>
   <g id="patch_11">
    <path d="M 399.476989 22.29375 
L 703.840625 22.29375 
" style="fill:none;stroke:#000000;stroke-linecap:square;stroke-linejoin:miter;stroke-width:0.8;"/>
   </g>
   <g id="text_10">
    <!-- $y=0$ -->
    <g transform="translate(538.938807 16.29375)scale(0.12 -0.12)">
     <defs>
      <path d="M 1600 -141 
Q 816 -141 533 504 
Q 250 1150 250 2041 
Q 250 2597 351 3087 
Q 453 3578 754 3920 
Q 1056 4263 1600 4263 
Q 2022 4263 2290 4056 
Q 2559 3850 2700 3523 
Q 2841 3197 2892 2823 
Q 2944 2450 2944 2041 
Q 2944 1491 2842 1011 
Q 2741 531 2444 195 
Q 2147 -141 1600 -141 
z
M 1600 25 
Q 1956 25 2131 390 
Q 2306 756 2347 1200 
Q 2388 1644 2388 2144 
Q 2388 2625 2347 3031 
Q 2306 3438 2132 3767 
Q 1959 4097 1600 4097 
Q 1238 4097 1063 3765 
Q 888 3434 847 3029 
Q 806 2625 806 2144 
Q 806 1788 823 1472 
Q 841 1156 916 820 
Q 991 484 1158 254 
Q 1325 25 1600 25 
z
" id="Cmr10-30" transform="scale(0.015625)"/>
     </defs>
     <use transform="translate(0 0.390625)" xlink:href="#Cmmi10-79"/>
     <use transform="translate(66.582031 0.390625)" xlink:href="#Cmr10-3d"/>
     <use transform="translate(161.826172 0.390625)" xlink:href="#Cmr10-30"/>
    </g>
   </g>
  </g>
  <g id="axes_3">
   <g id="patch_12">
    <path d="M 189.604261 135.29375 
L 333.604261 135.29375 
L 333.604261 27.29375 
L 189.604261 27.29375 
z
" style="fill:#ffffff;"/>
   </g>
   <g id="matplotlib.axis_5">
    <g id="xtick_5">
     <g id="line2d_9">
      <g>
       <use style="stroke:#000000;stroke-width:0.8;" x="258.159285" xlink:href="#m7f89370d17" y="81.29375"/>
      </g>
     </g>
     <g id="text_11">
      <!-- 1 -->
      <g transform="translate(254.978035 95.892187)scale(0.1 -0.1)">
       <use xlink:href="#DejaVuSans-31"/>
      </g>
     </g>
    </g>
   </g>
   <g id="matplotlib.axis_6"/>
   <g id="line2d_10">
    <path clip-path="url(#p0369858e06)" d="M 196.149716 130.384659 
L 197.415217 126.789638 
L 198.680719 123.714249 
L 199.94622 121.027072 
L 201.211722 118.640992 
L 202.477223 116.495281 
L 203.742724 114.545912 
L 205.008226 112.759946 
L 206.273727 111.112094 
L 207.539229 109.58252 
L 208.80473 108.155376 
L 210.070231 106.817801 
L 211.335733 105.559211 
L 212.601234 104.370797 
L 213.866736 103.245144 
L 215.132237 102.175955 
L 216.397739 101.157835 
L 217.66324 100.186127 
L 218.928741 99.256782 
L 220.194243 98.366262 
L 221.459744 97.511452 
L 222.725246 96.689598 
L 223.990747 95.898253 
L 225.256248 95.135232 
L 226.52175 94.398578 
L 227.787251 93.68653 
L 229.052753 92.997496 
L 230.318254 92.330036 
L 231.583756 91.682839 
L 232.849257 91.054711 
L 234.114758 90.44456 
L 235.38026 89.851387 
L 236.645761 89.274272 
L 237.911263 88.712367 
L 239.176764 88.164893 
L 240.442265 87.631126 
L 241.707767 87.110397 
L 242.973268 86.602083 
L 244.23877 86.105608 
L 245.504271 85.620431 
L 246.769773 85.14605 
L 248.035274 84.681995 
L 249.300775 84.227826 
L 250.566277 83.78313 
L 251.831778 83.347521 
L 253.09728 82.920634 
L 254.362781 82.502127 
L 255.628282 82.091678 
L 256.893784 81.688981 
L 258.159285 81.29375 
L 258.159285 81.29375 
L 259.565398 80.86303 
L 260.971511 80.44084 
L 262.377623 80.026848 
L 263.783736 79.620742 
L 265.189849 79.222228 
L 266.595961 78.831026 
L 268.002074 78.446873 
L 269.408187 78.069519 
L 270.814299 77.698729 
L 272.220412 77.334277 
L 273.626525 76.975951 
L 275.032637 76.623547 
L 276.43875 76.276875 
L 277.844863 75.935749 
L 279.250976 75.599995 
L 280.657088 75.269447 
L 282.063201 74.943946 
L 283.469314 74.62334 
L 284.875426 74.307484 
L 286.281539 73.996239 
L 287.687652 73.689472 
L 289.093764 73.387057 
L 290.499877 73.088871 
L 291.90599 72.794799 
L 293.312102 72.504728 
L 294.718215 72.21855 
L 296.124328 71.936163 
L 297.53044 71.657467 
L 298.936553 71.382368 
L 300.342666 71.110773 
L 301.748779 70.842595 
L 303.154891 70.577748 
L 304.561004 70.31615 
L 305.967117 70.057724 
L 307.373229 69.802393 
L 308.779342 69.550083 
L 310.185455 69.300725 
L 311.591567 69.054249 
L 312.99768 68.81059 
L 314.403793 68.569685 
L 315.809905 68.331471 
L 317.216018 68.095889 
L 318.622131 67.862882 
L 320.028243 67.632395 
L 321.434356 67.404372 
L 322.840469 67.178762 
L 324.246581 66.955515 
L 325.652694 66.734582 
L 327.058807 66.515914 
" style="fill:none;stroke:#ff7f0e;stroke-linecap:square;stroke-width:1.5;"/>
   </g>
   <g id="line2d_11">
    <path clip-path="url(#p0369858e06)" d="M 196.149716 32.202841 
L 197.415217 35.797862 
L 198.680719 38.873251 
L 199.94622 41.560428 
L 201.211722 43.946508 
L 202.477223 46.092219 
L 203.742724 48.041588 
L 205.008226 49.827554 
L 206.273727 51.475406 
L 207.539229 53.00498 
L 208.80473 54.432124 
L 210.070231 55.769699 
L 211.335733 57.028289 
L 212.601234 58.216703 
L 213.866736 59.342356 
L 215.132237 60.411545 
L 216.397739 61.429665 
L 217.66324 62.401373 
L 218.928741 63.330718 
L 220.194243 64.221238 
L 221.459744 65.076048 
L 222.725246 65.897902 
L 223.990747 66.689247 
L 225.256248 67.452268 
L 226.52175 68.188922 
L 227.787251 68.90097 
L 229.052753 69.590004 
L 230.318254 70.257464 
L 231.583756 70.904661 
L 232.849257 71.532789 
L 234.114758 72.14294 
L 235.38026 72.736113 
L 236.645761 73.313228 
L 237.911263 73.875133 
L 239.176764 74.422607 
L 240.442265 74.956374 
L 241.707767 75.477103 
L 242.973268 75.985417 
L 244.23877 76.481892 
L 245.504271 76.967069 
L 246.769773 77.44145 
L 248.035274 77.905505 
L 249.300775 78.359674 
L 250.566277 78.80437 
L 251.831778 79.239979 
L 253.09728 79.666866 
L 254.362781 80.085373 
L 255.628282 80.495822 
L 256.893784 80.898519 
L 258.159285 81.29375 
" style="fill:none;stroke:#1f77b4;stroke-linecap:square;stroke-width:1.5;"/>
   </g>
   <g id="line2d_12">
    <path clip-path="url(#p0369858e06)" d="M 258.159285 81.29375 
L 259.565398 81.72447 
L 260.971511 82.14666 
L 262.377623 82.560652 
L 263.783736 82.966758 
L 265.189849 83.365272 
L 266.595961 83.756474 
L 268.002074 84.140627 
L 269.408187 84.517981 
L 270.814299 84.888771 
L 272.220412 85.253223 
L 273.626525 85.611549 
L 275.032637 85.963953 
L 276.43875 86.310625 
L 277.844863 86.651751 
L 279.250976 86.987505 
L 280.657088 87.318053 
L 282.063201 87.643554 
L 283.469314 87.96416 
L 284.875426 88.280016 
L 286.281539 88.591261 
L 287.687652 88.898028 
L 289.093764 89.200443 
L 290.499877 89.498629 
L 291.90599 89.792701 
L 293.312102 90.082772 
L 294.718215 90.36895 
L 296.124328 90.651337 
L 297.53044 90.930033 
L 298.936553 91.205132 
L 300.342666 91.476727 
L 301.748779 91.744905 
L 303.154891 92.009752 
L 304.561004 92.27135 
L 305.967117 92.529776 
L 307.373229 92.785107 
L 308.779342 93.037417 
L 310.185455 93.286775 
L 311.591567 93.533251 
L 312.99768 93.77691 
L 314.403793 94.017815 
L 315.809905 94.256029 
L 317.216018 94.491611 
L 318.622131 94.724618 
L 320.028243 94.955105 
L 321.434356 95.183128 
L 322.840469 95.408738 
L 324.246581 95.631985 
L 325.652694 95.852918 
L 327.058807 96.071586 
" style="fill:none;stroke:#1f77b4;stroke-dasharray:5.55,2.4;stroke-dashoffset:0;stroke-width:1.5;"/>
   </g>
   <g id="patch_13">
    <path d="M 189.604261 135.29375 
L 189.604261 27.29375 
" style="fill:none;stroke:#000000;stroke-linecap:square;stroke-linejoin:miter;stroke-width:0.8;"/>
   </g>
   <g id="patch_14">
    <path d="M 189.604261 81.29375 
L 333.604261 81.29375 
" style="fill:none;stroke:#000000;stroke-linecap:square;stroke-linejoin:miter;stroke-width:0.8;"/>
   </g>
   <g id="legend_1">
    <g id="patch_15">
     <path d="M 261.604261 173.490625 
L 326.604261 173.490625 
Q 328.604261 173.490625 328.604261 171.490625 
L 328.604261 142.29375 
Q 328.604261 140.29375 326.604261 140.29375 
L 261.604261 140.29375 
Q 259.604261 140.29375 259.604261 142.29375 
L 259.604261 171.490625 
Q 259.604261 173.490625 261.604261 173.490625 
z
" style="fill:#ffffff;opacity:0.8;stroke:#cccccc;stroke-linejoin:miter;"/>
    </g>
    <g id="line2d_13">
     <path d="M 263.604261 148.392187 
L 283.604261 148.392187 
" style="fill:none;stroke:#ff7f0e;stroke-linecap:square;stroke-width:1.5;"/>
    </g>
    <g id="line2d_14"/>
    <g id="text_12">
     <!-- $\log(z)$ -->
     <g transform="translate(291.604261 151.892187)scale(0.1 -0.1)">
      <defs>
       <path d="M 197 0 
L 197 225 
Q 416 225 556 259 
Q 697 294 697 428 
L 697 3788 
Q 697 3959 645 4036 
Q 594 4113 497 4130 
Q 400 4147 197 4147 
L 197 4372 
L 1147 4441 
L 1147 428 
Q 1147 294 1287 259 
Q 1428 225 1644 225 
L 1644 0 
L 197 0 
z
" id="Cmr10-6c" transform="scale(0.015625)"/>
       <path d="M 1600 -72 
Q 1216 -72 887 123 
Q 559 319 368 647 
Q 178 975 178 1363 
Q 178 1656 283 1928 
Q 388 2200 583 2414 
Q 778 2628 1037 2748 
Q 1297 2869 1600 2869 
Q 1994 2869 2317 2661 
Q 2641 2453 2828 2104 
Q 3016 1756 3016 1363 
Q 3016 978 2825 648 
Q 2634 319 2307 123 
Q 1981 -72 1600 -72 
z
M 1600 116 
Q 2113 116 2284 487 
Q 2456 859 2456 1434 
Q 2456 1756 2422 1967 
Q 2388 2178 2272 2350 
Q 2200 2456 2089 2536 
Q 1978 2616 1854 2658 
Q 1731 2700 1600 2700 
Q 1400 2700 1220 2609 
Q 1041 2519 922 2350 
Q 803 2169 770 1951 
Q 738 1734 738 1434 
Q 738 1075 800 789 
Q 863 503 1052 309 
Q 1241 116 1600 116 
z
" id="Cmr10-6f" transform="scale(0.015625)"/>
       <path d="M 178 -500 
Q 178 -272 343 -101 
Q 509 69 738 141 
Q 609 238 542 384 
Q 475 531 475 697 
Q 475 997 666 1228 
Q 372 1516 372 1888 
Q 372 2088 458 2263 
Q 544 2438 697 2566 
Q 850 2694 1037 2761 
Q 1225 2828 1422 2828 
Q 1803 2828 2106 2606 
Q 2238 2747 2417 2823 
Q 2597 2900 2791 2900 
Q 2928 2900 3015 2801 
Q 3103 2703 3103 2566 
Q 3103 2488 3043 2428 
Q 2984 2369 2906 2369 
Q 2825 2369 2765 2428 
Q 2706 2488 2706 2566 
Q 2706 2684 2784 2731 
Q 2453 2731 2216 2503 
Q 2331 2388 2401 2220 
Q 2472 2053 2472 1888 
Q 2472 1616 2322 1398 
Q 2172 1181 1926 1061 
Q 1681 941 1422 941 
Q 1072 941 781 1131 
Q 691 1006 691 850 
Q 691 681 802 554 
Q 913 428 1081 428 
L 1606 428 
Q 1988 428 2294 359 
Q 2600 291 2808 84 
Q 3016 -122 3016 -500 
Q 3016 -781 2778 -967 
Q 2541 -1153 2211 -1236 
Q 1881 -1319 1600 -1319 
Q 1316 -1319 984 -1236 
Q 653 -1153 415 -967 
Q 178 -781 178 -500 
z
M 538 -500 
Q 538 -716 713 -861 
Q 888 -1006 1134 -1076 
Q 1381 -1147 1600 -1147 
Q 1816 -1147 2062 -1076 
Q 2309 -1006 2482 -861 
Q 2656 -716 2656 -500 
Q 2656 -166 2350 -67 
Q 2044 31 1606 31 
L 1081 31 
Q 934 31 811 -39 
Q 688 -109 613 -236 
Q 538 -363 538 -500 
z
M 1422 1113 
Q 1966 1113 1966 1888 
Q 1966 2222 1850 2439 
Q 1734 2656 1422 2656 
Q 1109 2656 993 2439 
Q 878 2222 878 1888 
Q 878 1675 922 1503 
Q 966 1331 1084 1222 
Q 1203 1113 1422 1113 
z
" id="Cmr10-67" transform="scale(0.015625)"/>
       <path d="M 313 -72 
Q 263 -72 263 -13 
Q 263 19 275 31 
Q 447 328 689 598 
Q 931 869 1239 1145 
Q 1547 1422 1858 1700 
Q 2169 1978 2363 2194 
L 2338 2194 
Q 2197 2194 1925 2284 
Q 1653 2375 1497 2375 
Q 1328 2375 1168 2301 
Q 1009 2228 966 2075 
Q 956 2028 916 2028 
L 838 2028 
Q 788 2028 788 2094 
L 788 2113 
Q 838 2300 952 2462 
Q 1066 2625 1233 2726 
Q 1400 2828 1581 2828 
Q 1709 2828 1793 2770 
Q 1878 2713 1990 2591 
Q 2103 2469 2173 2416 
Q 2244 2363 2350 2363 
Q 2491 2363 2602 2491 
Q 2713 2619 2822 2809 
Q 2841 2828 2869 2828 
L 2944 2828 
Q 2966 2828 2980 2812 
Q 2994 2797 2994 2772 
Q 2994 2750 2981 2731 
Q 2809 2434 2579 2176 
Q 2350 1919 1979 1586 
Q 1609 1253 1354 1023 
Q 1100 794 878 550 
Q 928 563 1013 563 
Q 1169 563 1439 473 
Q 1709 384 1856 384 
Q 2016 384 2178 453 
Q 2341 522 2459 647 
Q 2578 772 2619 934 
Q 2634 978 2669 978 
L 2747 978 
Q 2772 978 2787 958 
Q 2803 938 2803 916 
Q 2803 909 2797 897 
Q 2738 653 2591 433 
Q 2444 213 2230 70 
Q 2016 -72 1772 -72 
Q 1650 -72 1565 -15 
Q 1481 41 1367 164 
Q 1253 288 1181 342 
Q 1109 397 1006 397 
Q 688 397 434 -50 
Q 413 -72 391 -72 
L 313 -72 
z
" id="Cmmi10-7a" transform="scale(0.015625)"/>
      </defs>
      <use xlink:href="#Cmr10-6c"/>
      <use transform="translate(27.685547 0)" xlink:href="#Cmr10-6f"/>
      <use transform="translate(77.685547 0)" xlink:href="#Cmr10-67"/>
      <use transform="translate(127.685547 0)" xlink:href="#Cmr10-28"/>
      <use transform="translate(166.503906 0)" xlink:href="#Cmmi10-7a"/>
      <use transform="translate(212.988281 0)" xlink:href="#Cmr10-29"/>
     </g>
    </g>
    <g id="line2d_15">
     <path d="M 263.604261 163.490625 
L 283.604261 163.490625 
" style="fill:none;stroke:#1f77b4;stroke-linecap:square;stroke-width:1.5;"/>
    </g>
    <g id="line2d_16"/>
    <g id="text_13">
     <!-- $-\log(z)$ -->
     <g transform="translate(291.604261 166.990625)scale(0.1 -0.1)">
      <defs>
       <path d="M 653 1472 
Q 600 1472 565 1512 
Q 531 1553 531 1600 
Q 531 1647 565 1687 
Q 600 1728 653 1728 
L 4325 1728 
Q 4375 1728 4408 1687 
Q 4441 1647 4441 1600 
Q 4441 1553 4408 1512 
Q 4375 1472 4325 1472 
L 653 1472 
z
" id="Cmsy10-a1" transform="scale(0.015625)"/>
      </defs>
      <use xlink:href="#Cmsy10-a1"/>
      <use transform="translate(77.685547 0)" xlink:href="#Cmr10-6c"/>
      <use transform="translate(105.371094 0)" xlink:href="#Cmr10-6f"/>
      <use transform="translate(155.371094 0)" xlink:href="#Cmr10-67"/>
      <use transform="translate(205.371094 0)" xlink:href="#Cmr10-28"/>
      <use transform="translate(244.189453 0)" xlink:href="#Cmmi10-7a"/>
      <use transform="translate(290.673828 0)" xlink:href="#Cmr10-29"/>
     </g>
    </g>
   </g>
  </g>
  <g id="axes_4">
   <g id="patch_16">
    <path d="M 420.480625 133.42175 
L 564.480625 133.42175 
L 564.480625 25.42175 
L 420.480625 25.42175 
z
" style="fill:#ffffff;"/>
   </g>
   <g id="matplotlib.axis_7">
    <g id="xtick_6">
     <g id="line2d_17">
      <g>
       <use style="stroke:#000000;stroke-width:0.8;" x="557.93517" xlink:href="#m7f89370d17" y="133.42175"/>
      </g>
     </g>
     <g id="text_14">
      <!-- 1 -->
      <g transform="translate(554.75392 148.020187)scale(0.1 -0.1)">
       <use xlink:href="#DejaVuSans-31"/>
      </g>
     </g>
    </g>
   </g>
   <g id="matplotlib.axis_8"/>
   <g id="line2d_18">
    <path clip-path="url(#p005d29f14e)" d="M 427.02608 128.512659 
L 429.697694 128.068849 
L 432.369308 127.615801 
L 435.040922 127.153122 
L 437.712536 126.680394 
L 440.38415 126.19717 
L 443.055764 125.702974 
L 445.727378 125.197296 
L 448.398992 124.679589 
L 451.070606 124.149268 
L 453.742221 123.605702 
L 456.413835 123.048213 
L 459.085449 122.476069 
L 461.757063 121.888478 
L 464.428677 121.284584 
L 467.100291 120.663454 
L 469.771905 120.024078 
L 472.443519 119.365349 
L 475.115133 118.686061 
L 477.786747 117.984887 
L 480.458362 117.260372 
L 483.129976 116.510906 
L 485.80159 115.734711 
L 488.473204 114.929809 
L 491.144818 114.093994 
L 493.816432 113.224797 
L 496.488046 112.319441 
L 499.15966 111.374785 
L 501.831274 110.387262 
L 504.502888 109.352796 
L 507.174503 108.266701 
L 509.846117 107.123551 
L 512.517731 105.917017 
L 515.189345 104.639657 
L 517.860959 103.282632 
L 520.532573 101.835342 
L 523.204187 100.284917 
L 525.875801 98.615522 
L 528.547415 96.807371 
L 531.219029 94.83529 
L 533.890644 92.666563 
L 536.562258 90.257584 
L 539.233872 87.548417 
L 541.905486 84.45345 
L 544.5771 80.844267 
L 547.248714 76.515275 
L 549.920328 71.105986 
L 552.591942 63.891344 
L 555.263556 53.024882 
L 557.93517 30.330841 
" style="fill:none;stroke:#1f77b4;stroke-linecap:square;stroke-width:1.5;"/>
   </g>
   <g id="patch_17">
    <path d="M 420.480625 133.42175 
L 420.480625 25.42175 
" style="fill:none;stroke:#000000;stroke-linecap:square;stroke-linejoin:miter;stroke-width:0.8;"/>
   </g>
   <g id="patch_18">
    <path d="M 420.480625 133.42175 
L 564.480625 133.42175 
" style="fill:none;stroke:#000000;stroke-linecap:square;stroke-linejoin:miter;stroke-width:0.8;"/>
   </g>
   <g id="legend_2">
    <g id="patch_19">
     <path d="M 427.480625 48.520187 
L 508.780625 48.520187 
Q 510.780625 48.520187 510.780625 46.520187 
L 510.780625 32.42175 
Q 510.780625 30.42175 508.780625 30.42175 
L 427.480625 30.42175 
Q 425.480625 30.42175 425.480625 32.42175 
L 425.480625 46.520187 
Q 425.480625 48.520187 427.480625 48.520187 
z
" style="fill:#ffffff;opacity:0.8;stroke:#cccccc;stroke-linejoin:miter;"/>
    </g>
    <g id="line2d_19">
     <path d="M 429.480625 38.520187 
L 449.480625 38.520187 
" style="fill:none;stroke:#1f77b4;stroke-linecap:square;stroke-width:1.5;"/>
    </g>
    <g id="line2d_20"/>
    <g id="text_15">
     <!-- $-\log(1-z)$ -->
     <g transform="translate(457.480625 42.020187)scale(0.1 -0.1)">
      <use xlink:href="#Cmsy10-a1"/>
      <use transform="translate(77.685547 0)" xlink:href="#Cmr10-6c"/>
      <use transform="translate(105.371094 0)" xlink:href="#Cmr10-6f"/>
      <use transform="translate(155.371094 0)" xlink:href="#Cmr10-67"/>
      <use transform="translate(205.371094 0)" xlink:href="#Cmr10-28"/>
      <use transform="translate(244.189453 0)" xlink:href="#Cmr10-31"/>
      <use transform="translate(311.748047 0)" xlink:href="#Cmsy10-a1"/>
      <use transform="translate(406.992188 0)" xlink:href="#Cmmi10-7a"/>
      <use transform="translate(453.476562 0)" xlink:href="#Cmr10-29"/>
     </g>
    </g>
   </g>
  </g>
 </g>
 <defs>
  <clipPath id="p01d45ad3f4">
   <rect height="271.8" width="304.363636" x="34.240625" y="22.29375"/>
  </clipPath>
  <clipPath id="p2871884cf6">
   <rect height="271.8" width="304.363636" x="399.476989" y="22.29375"/>
  </clipPath>
  <clipPath id="p0369858e06">
   <rect height="108" width="144" x="189.604261" y="27.29375"/>
  </clipPath>
  <clipPath id="p005d29f14e">
   <rect height="108" width="144" x="420.480625" y="25.42175"/>
  </clipPath>
 </defs>
</svg>
