<?xml version="1.0" encoding="utf-8" standalone="no"?>
<!DOCTYPE svg PUBLIC "-//W3C//DTD SVG 1.1//EN"
  "http://www.w3.org/Graphics/SVG/1.1/DTD/svg11.dtd">
<svg height="264.716576pt" version="1.1" viewBox="0 0 397.667187 264.716576" width="397.667187pt" xmlns="http://www.w3.org/2000/svg" xmlns:xlink="http://www.w3.org/1999/xlink">
 <metadata>
  <rdf:RDF xmlns:cc="http://creativecommons.org/ns#" xmlns:dc="http://purl.org/dc/elements/1.1/" xmlns:rdf="http://www.w3.org/1999/02/22-rdf-syntax-ns#">
   <cc:Work>
    <dc:type rdf:resource="http://purl.org/dc/dcmitype/StillImage"/>
    <dc:date>2021-09-27T21:28:32.653586</dc:date>
    <dc:format>image/svg+xml</dc:format>
    <dc:creator>
     <cc:Agent>
      <dc:title>Matplotlib v3.4.3, https://matplotlib.org/</dc:title>
     </cc:Agent>
    </dc:creator>
   </cc:Work>
  </rdf:RDF>
 </metadata>
 <defs>
  <style type="text/css">*{stroke-linecap:butt;stroke-linejoin:round;}</style>
 </defs>
 <g id="figure_1">
  <g id="patch_1">
   <path d="M 0 264.716576 
L 397.667187 264.716576 
L 397.667187 0 
L 0 0 
z
" style="fill:none;"/>
  </g>
  <g id="axes_1">
   <g id="patch_2">
    <path d="M 55.667188 227.160326 
L 390.467188 227.160326 
L 390.467188 9.720326 
L 55.667188 9.720326 
z
" style="fill:#ffffff;"/>
   </g>
   <g id="matplotlib.axis_1">
    <g id="xtick_1">
     <g id="line2d_1">
      <defs>
       <path d="M 0 0 
L 0 3.5 
" id="m13ab318c03" style="stroke:#000000;stroke-width:0.8;"/>
      </defs>
      <g>
       <use style="stroke:#000000;stroke-width:0.8;" x="101.964744" xlink:href="#m13ab318c03" y="227.160326"/>
      </g>
     </g>
     <g id="text_1">
      <!-- −20 -->
      <g transform="translate(91.412401 241.758764)scale(0.1 -0.1)">
       <defs>
        <path d="M 678 2272 
L 4684 2272 
L 4684 1741 
L 678 1741 
L 678 2272 
z
" id="DejaVuSans-2212" transform="scale(0.015625)"/>
        <path d="M 1228 531 
L 3431 531 
L 3431 0 
L 469 0 
L 469 531 
Q 828 903 1448 1529 
Q 2069 2156 2228 2338 
Q 2531 2678 2651 2914 
Q 2772 3150 2772 3378 
Q 2772 3750 2511 3984 
Q 2250 4219 1831 4219 
Q 1534 4219 1204 4116 
Q 875 4013 500 3803 
L 500 4441 
Q 881 4594 1212 4672 
Q 1544 4750 1819 4750 
Q 2544 4750 2975 4387 
Q 3406 4025 3406 3419 
Q 3406 3131 3298 2873 
Q 3191 2616 2906 2266 
Q 2828 2175 2409 1742 
Q 1991 1309 1228 531 
z
" id="DejaVuSans-32" transform="scale(0.015625)"/>
        <path d="M 2034 4250 
Q 1547 4250 1301 3770 
Q 1056 3291 1056 2328 
Q 1056 1369 1301 889 
Q 1547 409 2034 409 
Q 2525 409 2770 889 
Q 3016 1369 3016 2328 
Q 3016 3291 2770 3770 
Q 2525 4250 2034 4250 
z
M 2034 4750 
Q 2819 4750 3233 4129 
Q 3647 3509 3647 2328 
Q 3647 1150 3233 529 
Q 2819 -91 2034 -91 
Q 1250 -91 836 529 
Q 422 1150 422 2328 
Q 422 3509 836 4129 
Q 1250 4750 2034 4750 
z
" id="DejaVuSans-30" transform="scale(0.015625)"/>
       </defs>
       <use xlink:href="#DejaVuSans-2212"/>
       <use x="83.789062" xlink:href="#DejaVuSans-32"/>
       <use x="147.412109" xlink:href="#DejaVuSans-30"/>
      </g>
     </g>
    </g>
    <g id="xtick_2">
     <g id="line2d_2">
      <g>
       <use style="stroke:#000000;stroke-width:0.8;" x="162.515966" xlink:href="#m13ab318c03" y="227.160326"/>
      </g>
     </g>
     <g id="text_2">
      <!-- −10 -->
      <g transform="translate(151.963622 241.758764)scale(0.1 -0.1)">
       <defs>
        <path d="M 794 531 
L 1825 531 
L 1825 4091 
L 703 3866 
L 703 4441 
L 1819 4666 
L 2450 4666 
L 2450 531 
L 3481 531 
L 3481 0 
L 794 0 
L 794 531 
z
" id="DejaVuSans-31" transform="scale(0.015625)"/>
       </defs>
       <use xlink:href="#DejaVuSans-2212"/>
       <use x="83.789062" xlink:href="#DejaVuSans-31"/>
       <use x="147.412109" xlink:href="#DejaVuSans-30"/>
      </g>
     </g>
    </g>
    <g id="xtick_3">
     <g id="line2d_3">
      <g>
       <use style="stroke:#000000;stroke-width:0.8;" x="223.067188" xlink:href="#m13ab318c03" y="227.160326"/>
      </g>
     </g>
     <g id="text_3">
      <!-- 0 -->
      <g transform="translate(219.885938 241.758764)scale(0.1 -0.1)">
       <use xlink:href="#DejaVuSans-30"/>
      </g>
     </g>
    </g>
    <g id="xtick_4">
     <g id="line2d_4">
      <g>
       <use style="stroke:#000000;stroke-width:0.8;" x="283.618409" xlink:href="#m13ab318c03" y="227.160326"/>
      </g>
     </g>
     <g id="text_4">
      <!-- 10 -->
      <g transform="translate(277.255909 241.758764)scale(0.1 -0.1)">
       <use xlink:href="#DejaVuSans-31"/>
       <use x="63.623047" xlink:href="#DejaVuSans-30"/>
      </g>
     </g>
    </g>
    <g id="xtick_5">
     <g id="line2d_5">
      <g>
       <use style="stroke:#000000;stroke-width:0.8;" x="344.169631" xlink:href="#m13ab318c03" y="227.160326"/>
      </g>
     </g>
     <g id="text_5">
      <!-- 20 -->
      <g transform="translate(337.807131 241.758764)scale(0.1 -0.1)">
       <use xlink:href="#DejaVuSans-32"/>
       <use x="63.623047" xlink:href="#DejaVuSans-30"/>
      </g>
     </g>
    </g>
    <g id="text_6">
     <!-- $\theta$ -->
     <g transform="translate(220.717188 255.436889)scale(0.1 -0.1)">
      <defs>
       <path d="M 1031 -72 
Q 741 -72 566 140 
Q 391 353 323 653 
Q 256 953 256 1247 
L 256 1253 
Q 256 1572 317 1915 
Q 378 2259 493 2601 
Q 609 2944 744 3213 
Q 838 3400 986 3631 
Q 1134 3863 1317 4064 
Q 1500 4266 1711 4389 
Q 1922 4513 2138 4513 
L 2144 4513 
Q 2375 4513 2529 4384 
Q 2684 4256 2770 4056 
Q 2856 3856 2890 3628 
Q 2925 3400 2925 3194 
Q 2925 2709 2794 2204 
Q 2663 1700 2431 1228 
Q 2344 1050 2189 809 
Q 2034 569 1861 378 
Q 1688 188 1472 58 
Q 1256 -72 1038 -72 
L 1031 -72 
z
M 1044 97 
Q 1256 97 1451 323 
Q 1647 550 1794 873 
Q 1941 1197 2052 1536 
Q 2163 1875 2216 2113 
L 909 2113 
Q 809 1709 753 1417 
Q 697 1125 697 844 
Q 697 97 1044 97 
z
M 959 2338 
L 2272 2338 
Q 2341 2619 2381 2808 
Q 2422 2997 2450 3206 
Q 2478 3416 2478 3597 
Q 2478 4347 2138 4347 
Q 1731 4347 1436 3692 
Q 1141 3038 959 2338 
z
" id="Cmmi10-b5" transform="scale(0.015625)"/>
      </defs>
      <use transform="translate(0 0.484375)" xlink:href="#Cmmi10-b5"/>
     </g>
    </g>
   </g>
   <g id="matplotlib.axis_2">
    <g id="ytick_1">
     <g id="line2d_6">
      <defs>
       <path d="M 0 0 
L -3.5 0 
" id="ma227dc5509" style="stroke:#000000;stroke-width:0.8;"/>
      </defs>
      <g>
       <use style="stroke:#000000;stroke-width:0.8;" x="55.667188" xlink:href="#ma227dc5509" y="217.902698"/>
      </g>
     </g>
     <g id="text_7">
      <!-- −100 -->
      <g transform="translate(21.2 221.701916)scale(0.1 -0.1)">
       <use xlink:href="#DejaVuSans-2212"/>
       <use x="83.789062" xlink:href="#DejaVuSans-31"/>
       <use x="147.412109" xlink:href="#DejaVuSans-30"/>
       <use x="211.035156" xlink:href="#DejaVuSans-30"/>
      </g>
     </g>
    </g>
    <g id="ytick_2">
     <g id="line2d_7">
      <g>
       <use style="stroke:#000000;stroke-width:0.8;" x="55.667188" xlink:href="#ma227dc5509" y="192.039763"/>
      </g>
     </g>
     <g id="text_8">
      <!-- 0 -->
      <g transform="translate(42.304688 195.838981)scale(0.1 -0.1)">
       <use xlink:href="#DejaVuSans-30"/>
      </g>
     </g>
    </g>
    <g id="ytick_3">
     <g id="line2d_8">
      <g>
       <use style="stroke:#000000;stroke-width:0.8;" x="55.667188" xlink:href="#ma227dc5509" y="166.176828"/>
      </g>
     </g>
     <g id="text_9">
      <!-- 100 -->
      <g transform="translate(29.579688 169.976047)scale(0.1 -0.1)">
       <use xlink:href="#DejaVuSans-31"/>
       <use x="63.623047" xlink:href="#DejaVuSans-30"/>
       <use x="127.246094" xlink:href="#DejaVuSans-30"/>
      </g>
     </g>
    </g>
    <g id="ytick_4">
     <g id="line2d_9">
      <g>
       <use style="stroke:#000000;stroke-width:0.8;" x="55.667188" xlink:href="#ma227dc5509" y="140.313893"/>
      </g>
     </g>
     <g id="text_10">
      <!-- 200 -->
      <g transform="translate(29.579688 144.113112)scale(0.1 -0.1)">
       <use xlink:href="#DejaVuSans-32"/>
       <use x="63.623047" xlink:href="#DejaVuSans-30"/>
       <use x="127.246094" xlink:href="#DejaVuSans-30"/>
      </g>
     </g>
    </g>
    <g id="ytick_5">
     <g id="line2d_10">
      <g>
       <use style="stroke:#000000;stroke-width:0.8;" x="55.667188" xlink:href="#ma227dc5509" y="114.450958"/>
      </g>
     </g>
     <g id="text_11">
      <!-- 300 -->
      <g transform="translate(29.579688 118.250177)scale(0.1 -0.1)">
       <defs>
        <path d="M 2597 2516 
Q 3050 2419 3304 2112 
Q 3559 1806 3559 1356 
Q 3559 666 3084 287 
Q 2609 -91 1734 -91 
Q 1441 -91 1130 -33 
Q 819 25 488 141 
L 488 750 
Q 750 597 1062 519 
Q 1375 441 1716 441 
Q 2309 441 2620 675 
Q 2931 909 2931 1356 
Q 2931 1769 2642 2001 
Q 2353 2234 1838 2234 
L 1294 2234 
L 1294 2753 
L 1863 2753 
Q 2328 2753 2575 2939 
Q 2822 3125 2822 3475 
Q 2822 3834 2567 4026 
Q 2313 4219 1838 4219 
Q 1578 4219 1281 4162 
Q 984 4106 628 3988 
L 628 4550 
Q 988 4650 1302 4700 
Q 1616 4750 1894 4750 
Q 2613 4750 3031 4423 
Q 3450 4097 3450 3541 
Q 3450 3153 3228 2886 
Q 3006 2619 2597 2516 
z
" id="DejaVuSans-33" transform="scale(0.015625)"/>
       </defs>
       <use xlink:href="#DejaVuSans-33"/>
       <use x="63.623047" xlink:href="#DejaVuSans-30"/>
       <use x="127.246094" xlink:href="#DejaVuSans-30"/>
      </g>
     </g>
    </g>
    <g id="ytick_6">
     <g id="line2d_11">
      <g>
       <use style="stroke:#000000;stroke-width:0.8;" x="55.667188" xlink:href="#ma227dc5509" y="88.588023"/>
      </g>
     </g>
     <g id="text_12">
      <!-- 400 -->
      <g transform="translate(29.579688 92.387242)scale(0.1 -0.1)">
       <defs>
        <path d="M 2419 4116 
L 825 1625 
L 2419 1625 
L 2419 4116 
z
M 2253 4666 
L 3047 4666 
L 3047 1625 
L 3713 1625 
L 3713 1100 
L 3047 1100 
L 3047 0 
L 2419 0 
L 2419 1100 
L 313 1100 
L 313 1709 
L 2253 4666 
z
" id="DejaVuSans-34" transform="scale(0.015625)"/>
       </defs>
       <use xlink:href="#DejaVuSans-34"/>
       <use x="63.623047" xlink:href="#DejaVuSans-30"/>
       <use x="127.246094" xlink:href="#DejaVuSans-30"/>
      </g>
     </g>
    </g>
    <g id="ytick_7">
     <g id="line2d_12">
      <g>
       <use style="stroke:#000000;stroke-width:0.8;" x="55.667188" xlink:href="#ma227dc5509" y="62.725088"/>
      </g>
     </g>
     <g id="text_13">
      <!-- 500 -->
      <g transform="translate(29.579688 66.524307)scale(0.1 -0.1)">
       <defs>
        <path d="M 691 4666 
L 3169 4666 
L 3169 4134 
L 1269 4134 
L 1269 2991 
Q 1406 3038 1543 3061 
Q 1681 3084 1819 3084 
Q 2600 3084 3056 2656 
Q 3513 2228 3513 1497 
Q 3513 744 3044 326 
Q 2575 -91 1722 -91 
Q 1428 -91 1123 -41 
Q 819 9 494 109 
L 494 744 
Q 775 591 1075 516 
Q 1375 441 1709 441 
Q 2250 441 2565 725 
Q 2881 1009 2881 1497 
Q 2881 1984 2565 2268 
Q 2250 2553 1709 2553 
Q 1456 2553 1204 2497 
Q 953 2441 691 2322 
L 691 4666 
z
" id="DejaVuSans-35" transform="scale(0.015625)"/>
       </defs>
       <use xlink:href="#DejaVuSans-35"/>
       <use x="63.623047" xlink:href="#DejaVuSans-30"/>
       <use x="127.246094" xlink:href="#DejaVuSans-30"/>
      </g>
     </g>
    </g>
    <g id="ytick_8">
     <g id="line2d_13">
      <g>
       <use style="stroke:#000000;stroke-width:0.8;" x="55.667188" xlink:href="#ma227dc5509" y="36.862154"/>
      </g>
     </g>
     <g id="text_14">
      <!-- 600 -->
      <g transform="translate(29.579688 40.661372)scale(0.1 -0.1)">
       <defs>
        <path d="M 2113 2584 
Q 1688 2584 1439 2293 
Q 1191 2003 1191 1497 
Q 1191 994 1439 701 
Q 1688 409 2113 409 
Q 2538 409 2786 701 
Q 3034 994 3034 1497 
Q 3034 2003 2786 2293 
Q 2538 2584 2113 2584 
z
M 3366 4563 
L 3366 3988 
Q 3128 4100 2886 4159 
Q 2644 4219 2406 4219 
Q 1781 4219 1451 3797 
Q 1122 3375 1075 2522 
Q 1259 2794 1537 2939 
Q 1816 3084 2150 3084 
Q 2853 3084 3261 2657 
Q 3669 2231 3669 1497 
Q 3669 778 3244 343 
Q 2819 -91 2113 -91 
Q 1303 -91 875 529 
Q 447 1150 447 2328 
Q 447 3434 972 4092 
Q 1497 4750 2381 4750 
Q 2619 4750 2861 4703 
Q 3103 4656 3366 4563 
z
" id="DejaVuSans-36" transform="scale(0.015625)"/>
       </defs>
       <use xlink:href="#DejaVuSans-36"/>
       <use x="63.623047" xlink:href="#DejaVuSans-30"/>
       <use x="127.246094" xlink:href="#DejaVuSans-30"/>
      </g>
     </g>
    </g>
    <g id="ytick_9">
     <g id="line2d_14">
      <g>
       <use style="stroke:#000000;stroke-width:0.8;" x="55.667188" xlink:href="#ma227dc5509" y="10.999219"/>
      </g>
     </g>
     <g id="text_15">
      <!-- 700 -->
      <g transform="translate(29.579688 14.798437)scale(0.1 -0.1)">
       <defs>
        <path d="M 525 4666 
L 3525 4666 
L 3525 4397 
L 1831 0 
L 1172 0 
L 2766 4134 
L 525 4134 
L 525 4666 
z
" id="DejaVuSans-37" transform="scale(0.015625)"/>
       </defs>
       <use xlink:href="#DejaVuSans-37"/>
       <use x="63.623047" xlink:href="#DejaVuSans-30"/>
       <use x="127.246094" xlink:href="#DejaVuSans-30"/>
      </g>
     </g>
    </g>
    <g id="text_16">
     <!-- $J(\theta)$ -->
     <g transform="translate(14.7 127.440326)rotate(-90)scale(0.1 -0.1)">
      <defs>
       <path d="M 697 384 
Q 759 206 928 115 
Q 1097 25 1294 25 
Q 1494 25 1680 164 
Q 1866 303 1995 512 
Q 2125 722 2175 928 
L 2931 3956 
Q 2938 3981 2939 3993 
Q 2941 4006 2944 4019 
Q 2944 4088 2894 4103 
Q 2725 4147 2209 4147 
Q 2144 4147 2144 4231 
Q 2156 4281 2164 4309 
Q 2172 4338 2192 4355 
Q 2213 4372 2253 4372 
L 3988 4372 
Q 4050 4372 4050 4288 
Q 4025 4147 3969 4147 
Q 3744 4147 3628 4112 
Q 3513 4078 3469 3928 
L 2713 903 
Q 2641 606 2420 367 
Q 2200 128 1897 -6 
Q 1594 -141 1288 -141 
Q 950 -141 695 46 
Q 441 234 441 556 
Q 441 769 556 922 
Q 672 1075 884 1075 
Q 1006 1075 1089 1000 
Q 1172 925 1172 806 
Q 1172 634 1044 506 
Q 916 378 744 378 
Q 709 378 697 384 
z
" id="Cmmi10-4a" transform="scale(0.015625)"/>
       <path d="M 1984 -1588 
Q 1628 -1306 1370 -942 
Q 1113 -578 948 -165 
Q 784 247 703 697 
Q 622 1147 622 1600 
Q 622 2059 703 2509 
Q 784 2959 951 3375 
Q 1119 3791 1378 4153 
Q 1638 4516 1984 4788 
Q 1984 4800 2016 4800 
L 2075 4800 
Q 2094 4800 2109 4783 
Q 2125 4766 2125 4744 
Q 2125 4716 2113 4703 
Q 1800 4397 1592 4047 
Q 1384 3697 1257 3301 
Q 1131 2906 1075 2482 
Q 1019 2059 1019 1600 
Q 1019 -434 2106 -1491 
Q 2125 -1509 2125 -1544 
Q 2125 -1559 2108 -1579 
Q 2091 -1600 2075 -1600 
L 2016 -1600 
Q 1984 -1600 1984 -1588 
z
" id="Cmr10-28" transform="scale(0.015625)"/>
       <path d="M 416 -1600 
Q 359 -1600 359 -1544 
Q 359 -1516 372 -1503 
Q 1466 -434 1466 1600 
Q 1466 3634 384 4691 
Q 359 4706 359 4744 
Q 359 4766 376 4783 
Q 394 4800 416 4800 
L 475 4800 
Q 494 4800 506 4788 
Q 966 4425 1272 3906 
Q 1578 3388 1720 2800 
Q 1863 2213 1863 1600 
Q 1863 1147 1786 708 
Q 1709 269 1542 -157 
Q 1375 -584 1119 -945 
Q 863 -1306 506 -1588 
Q 494 -1600 475 -1600 
L 416 -1600 
z
" id="Cmr10-29" transform="scale(0.015625)"/>
      </defs>
      <use xlink:href="#Cmmi10-4a"/>
      <use transform="translate(55.419922 0)" xlink:href="#Cmr10-28"/>
      <use transform="translate(94.238281 0)" xlink:href="#Cmmi10-b5"/>
      <use transform="translate(141.162109 0)" xlink:href="#Cmr10-29"/>
     </g>
    </g>
   </g>
   <g id="line2d_15">
    <path clip-path="url(#pe2d34f44d5)" d="M 70.885369 28.675324 
L 76.978735 41.495655 
L 83.072102 53.792172 
L 88.860799 64.988681 
L 94.649497 75.712449 
L 100.438195 85.963476 
L 105.922224 95.2389 
L 111.406254 104.090035 
L 116.890283 112.516882 
L 122.069645 120.085984 
L 127.249006 127.276631 
L 132.428367 134.088823 
L 137.607728 140.52256 
L 142.482421 146.232125 
L 147.357114 151.60645 
L 152.231807 156.645534 
L 156.801831 161.065209 
L 161.371856 165.190238 
L 165.94188 169.020623 
L 170.511905 172.556363 
L 175.08193 175.797458 
L 179.347286 178.556644 
L 183.612642 181.059163 
L 187.877998 183.305012 
L 192.143355 185.294193 
L 196.408711 187.026706 
L 200.369399 188.405644 
L 204.330087 189.563272 
L 208.290775 190.499588 
L 212.251463 191.214593 
L 216.212151 191.708287 
L 220.172839 191.98067 
L 224.133527 192.031742 
L 228.094215 191.861502 
L 232.054902 191.469952 
L 236.01559 190.85709 
L 239.976278 190.022918 
L 243.936966 188.967434 
L 247.897654 187.690639 
L 251.858342 186.192533 
L 256.123699 184.331686 
L 260.389055 182.214171 
L 264.654411 179.839987 
L 268.919767 177.209135 
L 273.185124 174.321614 
L 277.45048 171.177425 
L 282.020504 167.523827 
L 286.590529 163.575584 
L 291.160554 159.332696 
L 295.730578 154.795163 
L 300.605271 149.630364 
L 305.479964 144.130324 
L 310.354657 138.295044 
L 315.22935 132.124523 
L 320.408711 125.201021 
L 325.588072 117.899064 
L 330.767433 110.218651 
L 336.251463 101.673946 
L 341.735492 92.704953 
L 347.219522 83.311671 
L 353.008219 72.936239 
L 358.796917 62.088065 
L 364.585615 50.76715 
L 370.374313 38.973494 
L 375.249006 28.675324 
L 375.249006 28.675324 
" style="fill:none;stroke:#1f77b4;stroke-linecap:square;stroke-width:1.5;"/>
   </g>
   <g id="line2d_16">
    <path clip-path="url(#pe2d34f44d5)" d="M 70.885369 28.675324 
L 73.322716 23.734663 
L 74.541389 21.746283 
L 75.455394 20.621058 
L 76.369399 19.887002 
L 76.978735 19.644922 
L 77.588072 19.618693 
L 78.197409 19.821261 
L 78.806745 20.263204 
L 79.416082 20.952624 
L 80.330087 22.462193 
L 81.244092 24.548112 
L 82.158097 27.204667 
L 83.37677 31.59977 
L 84.595443 36.8941 
L 86.118785 44.594836 
L 87.946794 55.020748 
L 94.04016 90.916705 
L 95.563502 98.156187 
L 96.782175 102.992509 
L 98.000848 106.86126 
L 98.914853 109.084851 
L 99.828858 110.710525 
L 100.438195 111.461237 
L 101.047531 111.94872 
L 101.656868 112.178681 
L 102.266205 112.15938 
L 102.875541 111.901547 
L 103.484878 111.418272 
L 104.398883 110.304732 
L 105.312888 108.779154 
L 106.531561 106.2251 
L 108.054902 102.459669 
L 111.710922 93.107651 
L 112.929595 90.608318 
L 113.8436 89.131571 
L 114.757605 88.069587 
L 115.366942 87.620139 
L 115.976278 87.394109 
L 116.585615 87.403124 
L 117.194952 87.656382 
L 117.804288 88.160556 
L 118.413625 88.919727 
L 119.32763 90.539046 
L 120.241635 92.728473 
L 121.15564 95.468505 
L 122.374313 99.920805 
L 123.897654 106.610019 
L 125.725664 115.898415 
L 132.428367 151.509034 
L 133.64704 156.526731 
L 134.865713 160.680137 
L 135.779718 163.162807 
L 136.693723 165.068151 
L 137.607728 166.378302 
L 138.217065 166.918249 
L 138.826401 167.193289 
L 139.435738 167.207993 
L 140.045074 166.969511 
L 140.654411 166.487506 
L 141.263748 165.774049 
L 142.177753 164.301895 
L 143.091758 162.399123 
L 144.310431 159.308987 
L 145.833772 154.81401 
L 150.099129 141.727205 
L 151.317802 138.731025 
L 152.231807 136.912015 
L 153.145812 135.529998 
L 154.059816 134.63704 
L 154.669153 134.334021 
L 155.27849 134.275737 
L 155.887826 134.4687 
L 156.497163 134.916828 
L 157.1065 135.621403 
L 158.020504 137.155396 
L 158.934509 139.24703 
L 159.848514 141.867676 
L 161.067188 146.112386 
L 162.590529 152.438787 
L 164.418539 161.102389 
L 169.5979 186.355378 
L 171.121242 192.366292 
L 172.339915 196.286117 
L 173.25392 198.624217 
L 174.167925 200.402729 
L 175.08193 201.595678 
L 175.691266 202.058736 
L 176.300603 202.254986 
L 176.909939 202.186538 
L 177.519276 201.858126 
L 178.128613 201.27706 
L 179.042617 199.953865 
L 179.956622 198.127984 
L 181.175296 195.006826 
L 182.393969 191.245182 
L 184.221979 184.801739 
L 188.182667 170.559375 
L 189.40134 166.927405 
L 190.620013 163.965522 
L 191.534018 162.270805 
L 192.448023 161.081792 
L 193.057359 160.588428 
L 193.666696 160.343778 
L 194.276033 160.352901 
L 194.885369 160.618237 
L 195.494706 161.139577 
L 196.104043 161.914072 
L 197.018047 163.537823 
L 197.932052 165.689122 
L 199.150726 169.304908 
L 200.369399 173.654668 
L 202.197409 181.199996 
L 207.681438 204.987017 
L 208.900111 209.211274 
L 210.118785 212.664204 
L 211.032789 214.668229 
L 211.946794 216.122621 
L 212.556131 216.771681 
L 213.165468 217.157376 
L 213.774804 217.27669 
L 214.384141 217.129252 
L 214.993477 216.717334 
L 215.602814 216.045834 
L 216.516819 214.568893 
L 217.430824 212.560929 
L 218.649497 209.14119 
L 219.86817 205.004551 
L 221.69618 197.83251 
L 226.875541 176.722447 
L 228.094215 172.772755 
L 229.312888 169.572729 
L 230.226893 167.741359 
L 231.140898 166.442571 
L 231.750234 165.886605 
L 232.359571 165.584642 
L 232.968907 165.538955 
L 233.578244 165.749173 
L 234.187581 166.212279 
L 234.796917 166.922648 
L 235.710922 168.433244 
L 236.624927 170.443265 
L 237.8436 173.812992 
L 239.366942 178.923218 
L 241.49962 187.125849 
L 244.850971 200.081139 
L 246.374313 205.018448 
L 247.592986 208.196995 
L 248.506991 210.033413 
L 249.420996 211.345014 
L 250.030332 211.908862 
L 250.639669 212.214544 
L 251.249006 212.256595 
L 251.858342 212.032164 
L 252.467679 211.541046 
L 253.077016 210.785679 
L 253.99102 209.16893 
L 254.905025 206.99744 
L 256.123699 203.310304 
L 257.342372 198.836043 
L 258.865713 192.37834 
L 261.30306 180.913837 
L 264.045074 168.153612 
L 265.568416 161.937831 
L 266.787089 157.714659 
L 268.005762 154.311933 
L 268.919767 152.363839 
L 269.833772 150.968989 
L 270.443109 150.355948 
L 271.052445 149.999237 
L 271.661782 149.89832 
L 272.271119 150.050016 
L 272.880455 150.448538 
L 273.489792 151.085546 
L 274.403797 152.463938 
L 275.317802 154.307795 
L 276.536475 157.390195 
L 278.059816 162.014686 
L 280.801831 171.36781 
L 282.934509 178.292275 
L 284.153183 181.647201 
L 285.371856 184.338107 
L 286.285861 185.828258 
L 287.199866 186.806749 
L 287.809202 187.154114 
L 288.418539 187.246513 
L 289.027875 187.077352 
L 289.637212 186.642633 
L 290.246549 185.940991 
L 291.160554 184.391573 
L 292.074559 182.260482 
L 292.988563 179.576083 
L 294.207237 175.20815 
L 295.730578 168.665575 
L 297.558588 159.650372 
L 303.347286 130.078404 
L 304.870627 123.898277 
L 306.089301 119.868984 
L 307.003305 117.452827 
L 307.91731 115.590929 
L 308.831315 114.300886 
L 309.440652 113.761239 
L 310.049988 113.47592 
L 310.659325 113.440277 
L 311.268662 113.647078 
L 311.877998 114.086585 
L 312.487335 114.746653 
L 313.40134 116.118151 
L 314.315345 117.895396 
L 315.534018 120.779162 
L 317.362028 125.83287 
L 320.713379 135.286511 
L 321.932052 138.1097 
L 322.846057 139.824601 
L 323.760062 141.118074 
L 324.369399 141.716796 
L 324.978735 142.087016 
L 325.588072 142.216151 
L 326.197409 142.094004 
L 326.806745 141.712865 
L 327.416082 141.067596 
L 328.025418 140.155675 
L 328.939423 138.288817 
L 329.853428 135.834434 
L 330.767433 132.817163 
L 331.986106 127.984478 
L 333.509448 120.817044 
L 335.337458 110.972505 
L 341.735492 75.105174 
L 343.258834 68.374988 
L 344.477507 63.944015 
L 345.391512 61.24223 
L 346.305517 59.102839 
L 347.219522 57.538491 
L 347.828858 56.815266 
L 348.438195 56.344073 
L 349.047531 56.118801 
L 349.656868 56.130798 
L 350.266205 56.368959 
L 350.875541 56.819836 
L 351.789546 57.86019 
L 352.703551 59.282185 
L 353.922224 61.649381 
L 355.750234 65.82535 
L 358.492249 72.125006 
L 359.710922 74.407712 
L 360.624927 75.742489 
L 361.538932 76.674811 
L 362.148269 77.041907 
L 362.757605 77.186726 
L 363.366942 77.095678 
L 363.976278 76.757508 
L 364.585615 76.163407 
L 365.194952 75.307105 
L 366.108957 73.523712 
L 367.022961 71.141467 
L 367.936966 68.172465 
L 369.15564 63.346387 
L 370.374313 57.617235 
L 371.897654 49.386064 
L 374.030332 36.451482 
L 375.249006 28.675324 
L 375.249006 28.675324 
" style="fill:none;stroke:#ff7f0e;stroke-linecap:square;stroke-width:1.5;"/>
   </g>
   <g id="patch_3">
    <path d="M 55.667188 227.160326 
L 55.667188 9.720326 
" style="fill:none;stroke:#000000;stroke-linecap:square;stroke-linejoin:miter;stroke-width:0.8;"/>
   </g>
   <g id="patch_4">
    <path d="M 390.467188 227.160326 
L 390.467188 9.720326 
" style="fill:none;stroke:#000000;stroke-linecap:square;stroke-linejoin:miter;stroke-width:0.8;"/>
   </g>
   <g id="patch_5">
    <path d="M 55.667188 227.160326 
L 390.467188 227.160326 
" style="fill:none;stroke:#000000;stroke-linecap:square;stroke-linejoin:miter;stroke-width:0.8;"/>
   </g>
   <g id="patch_6">
    <path d="M 55.667188 9.720326 
L 390.467188 9.720326 
" style="fill:none;stroke:#000000;stroke-linecap:square;stroke-linejoin:miter;stroke-width:0.8;"/>
   </g>
   <g id="legend_1">
    <g id="patch_7">
     <path d="M 62.667188 222.160326 
L 152.409375 222.160326 
Q 154.409375 222.160326 154.409375 220.160326 
L 154.409375 191.804076 
Q 154.409375 189.804076 152.409375 189.804076 
L 62.667188 189.804076 
Q 60.667188 189.804076 60.667188 191.804076 
L 60.667188 220.160326 
Q 60.667188 222.160326 62.667188 222.160326 
z
" style="fill:#ffffff;opacity:0.8;stroke:#cccccc;stroke-linejoin:miter;"/>
    </g>
    <g id="line2d_17">
     <path d="M 64.667188 197.902514 
L 84.667188 197.902514 
" style="fill:none;stroke:#1f77b4;stroke-linecap:square;stroke-width:1.5;"/>
    </g>
    <g id="line2d_18"/>
    <g id="text_17">
     <!-- convex -->
     <g transform="translate(92.667188 201.402514)scale(0.1 -0.1)">
      <defs>
       <path d="M 3122 3366 
L 3122 2828 
Q 2878 2963 2633 3030 
Q 2388 3097 2138 3097 
Q 1578 3097 1268 2742 
Q 959 2388 959 1747 
Q 959 1106 1268 751 
Q 1578 397 2138 397 
Q 2388 397 2633 464 
Q 2878 531 3122 666 
L 3122 134 
Q 2881 22 2623 -34 
Q 2366 -91 2075 -91 
Q 1284 -91 818 406 
Q 353 903 353 1747 
Q 353 2603 823 3093 
Q 1294 3584 2113 3584 
Q 2378 3584 2631 3529 
Q 2884 3475 3122 3366 
z
" id="DejaVuSans-63" transform="scale(0.015625)"/>
       <path d="M 1959 3097 
Q 1497 3097 1228 2736 
Q 959 2375 959 1747 
Q 959 1119 1226 758 
Q 1494 397 1959 397 
Q 2419 397 2687 759 
Q 2956 1122 2956 1747 
Q 2956 2369 2687 2733 
Q 2419 3097 1959 3097 
z
M 1959 3584 
Q 2709 3584 3137 3096 
Q 3566 2609 3566 1747 
Q 3566 888 3137 398 
Q 2709 -91 1959 -91 
Q 1206 -91 779 398 
Q 353 888 353 1747 
Q 353 2609 779 3096 
Q 1206 3584 1959 3584 
z
" id="DejaVuSans-6f" transform="scale(0.015625)"/>
       <path d="M 3513 2113 
L 3513 0 
L 2938 0 
L 2938 2094 
Q 2938 2591 2744 2837 
Q 2550 3084 2163 3084 
Q 1697 3084 1428 2787 
Q 1159 2491 1159 1978 
L 1159 0 
L 581 0 
L 581 3500 
L 1159 3500 
L 1159 2956 
Q 1366 3272 1645 3428 
Q 1925 3584 2291 3584 
Q 2894 3584 3203 3211 
Q 3513 2838 3513 2113 
z
" id="DejaVuSans-6e" transform="scale(0.015625)"/>
       <path d="M 191 3500 
L 800 3500 
L 1894 563 
L 2988 3500 
L 3597 3500 
L 2284 0 
L 1503 0 
L 191 3500 
z
" id="DejaVuSans-76" transform="scale(0.015625)"/>
       <path d="M 3597 1894 
L 3597 1613 
L 953 1613 
Q 991 1019 1311 708 
Q 1631 397 2203 397 
Q 2534 397 2845 478 
Q 3156 559 3463 722 
L 3463 178 
Q 3153 47 2828 -22 
Q 2503 -91 2169 -91 
Q 1331 -91 842 396 
Q 353 884 353 1716 
Q 353 2575 817 3079 
Q 1281 3584 2069 3584 
Q 2775 3584 3186 3129 
Q 3597 2675 3597 1894 
z
M 3022 2063 
Q 3016 2534 2758 2815 
Q 2500 3097 2075 3097 
Q 1594 3097 1305 2825 
Q 1016 2553 972 2059 
L 3022 2063 
z
" id="DejaVuSans-65" transform="scale(0.015625)"/>
       <path d="M 3513 3500 
L 2247 1797 
L 3578 0 
L 2900 0 
L 1881 1375 
L 863 0 
L 184 0 
L 1544 1831 
L 300 3500 
L 978 3500 
L 1906 2253 
L 2834 3500 
L 3513 3500 
z
" id="DejaVuSans-78" transform="scale(0.015625)"/>
      </defs>
      <use xlink:href="#DejaVuSans-63"/>
      <use x="54.980469" xlink:href="#DejaVuSans-6f"/>
      <use x="116.162109" xlink:href="#DejaVuSans-6e"/>
      <use x="179.541016" xlink:href="#DejaVuSans-76"/>
      <use x="238.720703" xlink:href="#DejaVuSans-65"/>
      <use x="298.494141" xlink:href="#DejaVuSans-78"/>
     </g>
    </g>
    <g id="line2d_19">
     <path d="M 64.667188 212.580639 
L 84.667188 212.580639 
" style="fill:none;stroke:#ff7f0e;stroke-linecap:square;stroke-width:1.5;"/>
    </g>
    <g id="line2d_20"/>
    <g id="text_18">
     <!-- non convex -->
     <g transform="translate(92.667188 216.080639)scale(0.1 -0.1)">
      <defs>
       <path id="DejaVuSans-20" transform="scale(0.015625)"/>
      </defs>
      <use xlink:href="#DejaVuSans-6e"/>
      <use x="63.378906" xlink:href="#DejaVuSans-6f"/>
      <use x="124.560547" xlink:href="#DejaVuSans-6e"/>
      <use x="187.939453" xlink:href="#DejaVuSans-20"/>
      <use x="219.726562" xlink:href="#DejaVuSans-63"/>
      <use x="274.707031" xlink:href="#DejaVuSans-6f"/>
      <use x="335.888672" xlink:href="#DejaVuSans-6e"/>
      <use x="399.267578" xlink:href="#DejaVuSans-76"/>
      <use x="458.447266" xlink:href="#DejaVuSans-65"/>
      <use x="518.220703" xlink:href="#DejaVuSans-78"/>
     </g>
    </g>
   </g>
  </g>
 </g>
 <defs>
  <clipPath id="pe2d34f44d5">
   <rect height="217.44" width="334.8" x="55.667188" y="9.720326"/>
  </clipPath>
 </defs>
</svg>
