<?xml version="1.0" encoding="utf-8" standalone="no"?>
<!DOCTYPE svg PUBLIC "-//W3C//DTD SVG 1.1//EN"
  "http://www.w3.org/Graphics/SVG/1.1/DTD/svg11.dtd">
<svg height="233.048243pt" version="1.1" viewBox="0 0 354.181316 233.048243" width="354.181316pt" xmlns="http://www.w3.org/2000/svg" xmlns:xlink="http://www.w3.org/1999/xlink">
 <metadata>
  <rdf:RDF xmlns:cc="http://creativecommons.org/ns#" xmlns:dc="http://purl.org/dc/elements/1.1/" xmlns:rdf="http://www.w3.org/1999/02/22-rdf-syntax-ns#">
   <cc:Work>
    <dc:type rdf:resource="http://purl.org/dc/dcmitype/StillImage"/>
    <dc:date>2021-09-29T07:52:43.521663</dc:date>
    <dc:format>image/svg+xml</dc:format>
    <dc:creator>
     <cc:Agent>
      <dc:title>Matplotlib v3.4.3, https://matplotlib.org/</dc:title>
     </cc:Agent>
    </dc:creator>
   </cc:Work>
  </rdf:RDF>
 </metadata>
 <defs>
  <style type="text/css">*{stroke-linecap:butt;stroke-linejoin:round;}</style>
 </defs>
 <g id="figure_1">
  <g id="patch_1">
   <path d="M 0 233.048243 
L 354.181316 233.048243 
L 354.181316 0 
L 0 0 
z
" style="fill:none;"/>
  </g>
  <g id="axes_1">
   <g id="text_1">
    <g id="patch_2">
     <path d="M 3.3 170.980676 
L 32.81 170.980676 
L 32.81 149.010676 
L 3.3 149.010676 
z
" style="fill:#ffffff;stroke:#000000;stroke-linejoin:miter;"/>
    </g>
    <!-- $a^{\langle 0 \rangle}$ -->
    <g transform="translate(7.2 164.377082)scale(0.13 -0.13)">
     <defs>
      <path d="M 1113 -72 
Q 709 -72 476 233 
Q 244 538 244 953 
Q 244 1363 456 1803 
Q 669 2244 1030 2536 
Q 1391 2828 1806 2828 
Q 1997 2828 2147 2725 
Q 2297 2622 2381 2444 
Q 2453 2700 2663 2700 
Q 2744 2700 2798 2651 
Q 2853 2603 2853 2522 
Q 2853 2503 2851 2493 
Q 2850 2484 2847 2472 
L 2400 684 
Q 2356 494 2356 372 
Q 2356 97 2541 97 
Q 2741 97 2845 351 
Q 2950 606 3022 941 
Q 3034 978 3072 978 
L 3150 978 
Q 3175 978 3190 956 
Q 3206 934 3206 916 
Q 3094 469 2961 198 
Q 2828 -72 2528 -72 
Q 2313 -72 2147 54 
Q 1981 181 1941 391 
Q 1528 -72 1113 -72 
z
M 1119 97 
Q 1350 97 1567 270 
Q 1784 444 1941 678 
Q 1947 684 1947 697 
L 2291 2088 
L 2297 2106 
Q 2259 2334 2132 2498 
Q 2006 2663 1791 2663 
Q 1575 2663 1389 2486 
Q 1203 2309 1075 2069 
Q 950 1813 836 1366 
Q 722 919 722 672 
Q 722 450 817 273 
Q 913 97 1119 97 
z
" id="Cmmi10-61" transform="scale(0.015625)"/>
      <path d="M 2272 -7347 
L 641 -3634 
Q 628 -3616 628 -3584 
Q 628 -3553 641 -3541 
L 2272 178 
Q 2303 256 2388 256 
Q 2434 256 2475 215 
Q 2516 175 2516 128 
Q 2516 97 2509 84 
L 897 -3584 
L 2509 -7250 
Q 2516 -7263 2516 -7297 
Q 2516 -7344 2475 -7384 
Q 2434 -7425 2388 -7425 
Q 2306 -7425 2272 -7347 
z
" id="Cmex10-ad" transform="scale(0.015625)"/>
      <path d="M 1600 -141 
Q 816 -141 533 504 
Q 250 1150 250 2041 
Q 250 2597 351 3087 
Q 453 3578 754 3920 
Q 1056 4263 1600 4263 
Q 2022 4263 2290 4056 
Q 2559 3850 2700 3523 
Q 2841 3197 2892 2823 
Q 2944 2450 2944 2041 
Q 2944 1491 2842 1011 
Q 2741 531 2444 195 
Q 2147 -141 1600 -141 
z
M 1600 25 
Q 1956 25 2131 390 
Q 2306 756 2347 1200 
Q 2388 1644 2388 2144 
Q 2388 2625 2347 3031 
Q 2306 3438 2132 3767 
Q 1959 4097 1600 4097 
Q 1238 4097 1063 3765 
Q 888 3434 847 3029 
Q 806 2625 806 2144 
Q 806 1788 823 1472 
Q 841 1156 916 820 
Q 991 484 1158 254 
Q 1325 25 1600 25 
z
" id="Cmr10-30" transform="scale(0.015625)"/>
      <path d="M 500 -7297 
Q 500 -7263 513 -7250 
L 2119 -3584 
L 513 84 
Q 500 97 500 128 
Q 500 175 537 215 
Q 575 256 628 256 
Q 703 256 750 178 
L 2381 -3541 
Q 2388 -3553 2388 -3584 
Q 2388 -3616 2381 -3634 
L 750 -7347 
Q 700 -7425 628 -7425 
Q 575 -7425 537 -7384 
Q 500 -7344 500 -7297 
z
" id="Cmex10-ae" transform="scale(0.015625)"/>
     </defs>
     <use transform="translate(0 0.597135)" xlink:href="#Cmmi10-61"/>
     <use transform="translate(59.086484 104.202344)scale(0.7)" xlink:href="#Cmex10-ad"/>
     <use transform="translate(92.138242 38.861198)scale(0.7)" xlink:href="#Cmr10-30"/>
     <use transform="translate(127.138242 104.202344)scale(0.7)" xlink:href="#Cmex10-ae"/>
    </g>
   </g>
   <g id="text_2">
    <g id="patch_3">
     <path d="M 62.036842 170.980676 
L 91.546842 170.980676 
L 91.546842 149.010676 
L 62.036842 149.010676 
z
" style="fill:#ffffff;stroke:#000000;stroke-linejoin:miter;"/>
    </g>
    <!-- $a^{\langle 1 \rangle}$ -->
    <g transform="translate(65.936842 164.377082)scale(0.13 -0.13)">
     <defs>
      <path d="M 594 0 
L 594 225 
Q 1394 225 1394 428 
L 1394 3788 
Q 1063 3628 556 3628 
L 556 3853 
Q 1341 3853 1741 4263 
L 1831 4263 
Q 1853 4263 1873 4245 
Q 1894 4228 1894 4206 
L 1894 428 
Q 1894 225 2694 225 
L 2694 0 
L 594 0 
z
" id="Cmr10-31" transform="scale(0.015625)"/>
     </defs>
     <use transform="translate(0 0.597135)" xlink:href="#Cmmi10-61"/>
     <use transform="translate(59.086484 104.202344)scale(0.7)" xlink:href="#Cmex10-ad"/>
     <use transform="translate(92.138242 38.861198)scale(0.7)" xlink:href="#Cmr10-31"/>
     <use transform="translate(127.138242 104.202344)scale(0.7)" xlink:href="#Cmex10-ae"/>
    </g>
   </g>
   <g id="patch_4">
    <path d="M 58.917312 159.995676 
Q 47.421356 159.995676 34.807367 159.995676 
" style="fill:none;stroke:#000000;stroke-linecap:round;"/>
    <path d="M 54.917312 157.995676 
L 58.917312 159.995676 
L 54.917312 161.995676 
" style="fill:none;stroke:#000000;stroke-linecap:round;"/>
   </g>
   <g id="patch_5">
    <path d="M 35.315241 172.835765 
Q 47.423081 181.464966 60.441387 172.187365 
" style="fill:none;stroke:#ff0000;stroke-linecap:round;"/>
    <path d="M 37.411863 176.785977 
L 35.315241 172.835765 
L 39.733384 173.528595 
" style="fill:none;stroke:#ff0000;stroke-linecap:round;"/>
   </g>
   <g id="text_3">
    <g id="patch_6">
     <path d="M 61.776842 229.748243 
L 91.806842 229.748243 
L 91.806842 207.778243 
L 61.776842 207.778243 
z
" style="fill:#ffffff;"/>
    </g>
    <!-- $x^{\langle 1 \rangle}$ -->
    <g transform="translate(65.676842 223.144649)scale(0.13 -0.13)">
     <defs>
      <path d="M 500 184 
Q 613 97 819 97 
Q 1019 97 1172 289 
Q 1325 481 1381 709 
L 1672 1844 
Q 1741 2153 1741 2266 
Q 1741 2425 1652 2544 
Q 1563 2663 1403 2663 
Q 1200 2663 1022 2536 
Q 844 2409 722 2214 
Q 600 2019 550 1819 
Q 538 1778 500 1778 
L 422 1778 
Q 372 1778 372 1838 
L 372 1856 
Q 434 2094 584 2320 
Q 734 2547 951 2687 
Q 1169 2828 1416 2828 
Q 1650 2828 1839 2703 
Q 2028 2578 2106 2363 
Q 2216 2559 2386 2693 
Q 2556 2828 2759 2828 
Q 2897 2828 3040 2779 
Q 3184 2731 3275 2631 
Q 3366 2531 3366 2381 
Q 3366 2219 3261 2101 
Q 3156 1984 2994 1984 
Q 2891 1984 2822 2050 
Q 2753 2116 2753 2216 
Q 2753 2350 2845 2451 
Q 2938 2553 3066 2572 
Q 2950 2663 2747 2663 
Q 2541 2663 2389 2472 
Q 2238 2281 2175 2047 
L 1894 916 
Q 1825 659 1825 494 
Q 1825 331 1917 214 
Q 2009 97 2163 97 
Q 2463 97 2698 361 
Q 2934 625 3009 941 
Q 3022 978 3059 978 
L 3138 978 
Q 3163 978 3178 961 
Q 3194 944 3194 922 
Q 3194 916 3188 903 
Q 3097 522 2806 225 
Q 2516 -72 2150 -72 
Q 1916 -72 1727 54 
Q 1538 181 1459 397 
Q 1359 209 1182 68 
Q 1006 -72 806 -72 
Q 669 -72 523 -23 
Q 378 25 287 125 
Q 197 225 197 378 
Q 197 528 301 651 
Q 406 775 563 775 
Q 669 775 741 711 
Q 813 647 813 544 
Q 813 409 723 309 
Q 634 209 500 184 
z
" id="Cmmi10-78" transform="scale(0.015625)"/>
     </defs>
     <use transform="translate(0 0.597135)" xlink:href="#Cmmi10-78"/>
     <use transform="translate(63.383359 104.202344)scale(0.7)" xlink:href="#Cmex10-ad"/>
     <use transform="translate(96.435117 38.861198)scale(0.7)" xlink:href="#Cmr10-31"/>
     <use transform="translate(131.435117 104.202344)scale(0.7)" xlink:href="#Cmex10-ae"/>
    </g>
   </g>
   <g id="patch_7">
    <path d="M 76.791842 205.779352 
Q 76.791842 189.380391 76.791842 174.099464 
" style="fill:none;stroke:#000000;stroke-linecap:round;"/>
    <path d="M 74.791842 178.099464 
L 76.791842 174.099464 
L 78.791842 178.099464 
" style="fill:none;stroke:#000000;stroke-linecap:round;"/>
   </g>
   <g id="text_4">
    <g id="patch_8">
     <path d="M 62.296842 113.448108 
L 91.286842 113.448108 
L 91.286842 89.008108 
L 62.296842 89.008108 
z
" style="fill:#ffffff;stroke:#000000;stroke-linejoin:miter;"/>
    </g>
    <!-- $y^{\langle 1 \rangle}$ -->
    <g transform="translate(66.196842 106.818108)scale(0.13 -0.13)">
     <defs>
      <path d="M 538 -916 
Q 672 -1147 1006 -1147 
Q 1309 -1147 1531 -934 
Q 1753 -722 1889 -420 
Q 2025 -119 2100 197 
Q 1816 -72 1484 -72 
Q 1231 -72 1053 15 
Q 875 103 776 276 
Q 678 450 678 697 
Q 678 906 734 1126 
Q 791 1347 892 1617 
Q 994 1888 1069 2088 
Q 1153 2322 1153 2472 
Q 1153 2663 1013 2663 
Q 759 2663 595 2402 
Q 431 2141 353 1819 
Q 341 1778 300 1778 
L 225 1778 
Q 172 1778 172 1838 
L 172 1856 
Q 275 2238 487 2533 
Q 700 2828 1025 2828 
Q 1253 2828 1411 2678 
Q 1569 2528 1569 2297 
Q 1569 2178 1516 2047 
Q 1488 1969 1388 1706 
Q 1288 1444 1234 1272 
Q 1181 1100 1147 934 
Q 1113 769 1113 603 
Q 1113 391 1203 244 
Q 1294 97 1491 97 
Q 1888 97 2203 581 
L 2688 2553 
Q 2709 2638 2787 2698 
Q 2866 2759 2956 2759 
Q 3034 2759 3092 2709 
Q 3150 2659 3150 2578 
Q 3150 2541 3144 2528 
L 2509 -19 
Q 2425 -347 2200 -647 
Q 1975 -947 1658 -1130 
Q 1341 -1313 997 -1313 
Q 831 -1313 668 -1248 
Q 506 -1184 406 -1056 
Q 306 -928 306 -756 
Q 306 -581 409 -453 
Q 513 -325 684 -325 
Q 788 -325 858 -389 
Q 928 -453 928 -556 
Q 928 -703 818 -812 
Q 709 -922 563 -922 
Q 556 -919 550 -917 
Q 544 -916 538 -916 
z
" id="Cmmi10-79" transform="scale(0.015625)"/>
     </defs>
     <use transform="translate(0 0.597135)" xlink:href="#Cmmi10-79"/>
     <use transform="translate(55.326719 104.202344)scale(0.7)" xlink:href="#Cmex10-ad"/>
     <use transform="translate(88.378477 38.861198)scale(0.7)" xlink:href="#Cmr10-31"/>
     <use transform="translate(123.378477 104.202344)scale(0.7)" xlink:href="#Cmex10-ae"/>
    </g>
   </g>
   <g id="patch_9">
    <path d="M 76.791842 116.567405 
Q 76.791842 131.228346 76.791842 147.007321 
" style="fill:none;stroke:#000000;stroke-linecap:round;"/>
    <path d="M 74.791842 120.567405 
L 76.791842 116.567405 
L 78.791842 120.567405 
" style="fill:none;stroke:#000000;stroke-linecap:round;"/>
   </g>
   <g id="text_5">
    <g id="patch_10">
     <path d="M 61.126842 53.510541 
L 92.456842 53.510541 
L 92.456842 31.410541 
L 61.126842 31.410541 
z
" style="fill:#ffffff;stroke:#000000;stroke-linejoin:miter;"/>
    </g>
    <!-- $\mathcal{L}^{\langle 1 \rangle}$ -->
    <g transform="translate(65.026842 46.906947)scale(0.13 -0.13)">
     <defs>
      <path d="M 238 -141 
Q 197 -141 197 -97 
Q 197 -72 219 -38 
Q 266 38 359 130 
Q 453 222 494 275 
Q 656 509 750 691 
Q 913 1028 1031 1466 
Q 1206 2163 1348 2597 
Q 1491 3031 1722 3419 
Q 1903 3719 2168 3967 
Q 2434 4216 2757 4364 
Q 3081 4513 3419 4513 
L 3456 4513 
Q 3622 4513 3734 4430 
Q 3847 4347 3905 4208 
Q 3963 4069 3963 3909 
Q 3963 3666 3884 3572 
Q 3663 3331 3359 3291 
L 3322 3291 
Q 3284 3291 3284 3334 
Q 3284 3341 3300 3431 
Q 3316 3522 3316 3584 
Q 3316 3791 3212 3944 
Q 3109 4097 2906 4097 
Q 2669 4097 2669 4056 
Q 2494 3934 2333 3651 
Q 2172 3369 2051 3039 
Q 1931 2709 1837 2376 
Q 1744 2044 1672 1753 
Q 1594 1438 1470 1148 
Q 1347 859 1178 603 
Q 1253 628 1363 628 
L 1403 628 
Q 1625 628 1847 583 
Q 2069 538 2378 450 
Q 2688 363 2894 320 
Q 3100 278 3328 275 
Q 3397 275 3440 337 
Q 3484 400 3526 511 
Q 3569 622 3597 659 
Q 3694 766 3834 844 
Q 3975 922 4116 941 
L 4153 941 
Q 4172 941 4184 928 
Q 4197 916 4197 897 
Q 4197 897 4191 878 
Q 4128 628 3897 386 
Q 3666 144 3370 1 
Q 3075 -141 2828 -141 
L 2791 -141 
Q 2569 -141 2356 -100 
Q 2144 -59 1834 28 
Q 1525 116 1304 162 
Q 1084 209 863 213 
Q 578 -100 275 -141 
L 238 -141 
z
" id="Cmsy10-4c" transform="scale(0.015625)"/>
     </defs>
     <use transform="translate(0 0.597135)" xlink:href="#Cmsy10-4c"/>
     <use transform="translate(73.360625 104.202344)scale(0.7)" xlink:href="#Cmex10-ad"/>
     <use transform="translate(106.412383 38.861198)scale(0.7)" xlink:href="#Cmr10-31"/>
     <use transform="translate(141.412383 104.202344)scale(0.7)" xlink:href="#Cmex10-ae"/>
    </g>
   </g>
   <g id="patch_11">
    <path d="M 76.791842 56.626179 
Q 76.791842 71.25828 76.791842 87.008416 
" style="fill:none;stroke:#000000;stroke-linecap:round;"/>
    <path d="M 74.791842 60.626179 
L 76.791842 56.626179 
L 78.791842 60.626179 
" style="fill:none;stroke:#000000;stroke-linecap:round;"/>
   </g>
   <g id="patch_12">
    <path d="M 79.75589 84.837766 
Q 88.08025 72.113262 80.195371 58.45315 
" style="fill:none;stroke:#ff0000;stroke-linecap:round;"/>
    <path d="M 83.619384 82.585341 
L 79.75589 84.837766 
L 80.272047 80.395516 
" style="fill:none;stroke:#ff0000;stroke-linecap:round;"/>
   </g>
   <g id="patch_13">
    <path d="M 79.757484 144.838835 
Q 88.104538 132.083451 80.19743 118.392541 
" style="fill:none;stroke:#ff0000;stroke-linecap:round;"/>
    <path d="M 83.621286 142.586939 
L 79.757484 144.838835 
L 80.274249 140.396656 
" style="fill:none;stroke:#ff0000;stroke-linecap:round;"/>
   </g>
   <g id="text_6">
    <g id="patch_14">
     <path d="M 120.773684 170.980676 
L 150.283684 170.980676 
L 150.283684 149.010676 
L 120.773684 149.010676 
z
" style="fill:#ffffff;stroke:#000000;stroke-linejoin:miter;"/>
    </g>
    <!-- $a^{\langle 2 \rangle}$ -->
    <g transform="translate(124.673684 164.377082)scale(0.13 -0.13)">
     <defs>
      <path d="M 319 0 
L 319 172 
Q 319 188 331 206 
L 1325 1306 
Q 1550 1550 1690 1715 
Q 1831 1881 1968 2097 
Q 2106 2313 2186 2536 
Q 2266 2759 2266 3009 
Q 2266 3272 2169 3511 
Q 2072 3750 1880 3894 
Q 1688 4038 1416 4038 
Q 1138 4038 916 3870 
Q 694 3703 603 3438 
Q 628 3444 672 3444 
Q 816 3444 917 3347 
Q 1019 3250 1019 3097 
Q 1019 2950 917 2848 
Q 816 2747 672 2747 
Q 522 2747 420 2851 
Q 319 2956 319 3097 
Q 319 3338 409 3548 
Q 500 3759 670 3923 
Q 841 4088 1055 4175 
Q 1269 4263 1509 4263 
Q 1875 4263 2190 4108 
Q 2506 3953 2690 3670 
Q 2875 3388 2875 3009 
Q 2875 2731 2753 2481 
Q 2631 2231 2440 2026 
Q 2250 1822 1953 1562 
Q 1656 1303 1563 1216 
L 838 519 
L 1453 519 
Q 1906 519 2211 526 
Q 2516 534 2534 550 
Q 2609 631 2688 1141 
L 2875 1141 
L 2694 0 
L 319 0 
z
" id="Cmr10-32" transform="scale(0.015625)"/>
     </defs>
     <use transform="translate(0 0.597135)" xlink:href="#Cmmi10-61"/>
     <use transform="translate(59.086484 104.202344)scale(0.7)" xlink:href="#Cmex10-ad"/>
     <use transform="translate(92.138242 38.861198)scale(0.7)" xlink:href="#Cmr10-32"/>
     <use transform="translate(127.138242 104.202344)scale(0.7)" xlink:href="#Cmex10-ae"/>
    </g>
   </g>
   <g id="patch_15">
    <path d="M 117.654154 159.995676 
Q 106.158199 159.995676 93.544209 159.995676 
" style="fill:none;stroke:#000000;stroke-linecap:round;"/>
    <path d="M 113.654154 157.995676 
L 117.654154 159.995676 
L 113.654154 161.995676 
" style="fill:none;stroke:#000000;stroke-linecap:round;"/>
   </g>
   <g id="patch_16">
    <path d="M 94.052083 172.835765 
Q 106.159923 181.464966 119.178229 172.187365 
" style="fill:none;stroke:#ff0000;stroke-linecap:round;"/>
    <path d="M 96.148705 176.785977 
L 94.052083 172.835765 
L 98.470226 173.528595 
" style="fill:none;stroke:#ff0000;stroke-linecap:round;"/>
   </g>
   <g id="text_7">
    <g id="patch_17">
     <path d="M 120.513684 229.748243 
L 150.543684 229.748243 
L 150.543684 207.778243 
L 120.513684 207.778243 
z
" style="fill:#ffffff;"/>
    </g>
    <!-- $x^{\langle 2 \rangle}$ -->
    <g transform="translate(124.413684 223.144649)scale(0.13 -0.13)">
     <use transform="translate(0 0.597135)" xlink:href="#Cmmi10-78"/>
     <use transform="translate(63.383359 104.202344)scale(0.7)" xlink:href="#Cmex10-ad"/>
     <use transform="translate(96.435117 38.861198)scale(0.7)" xlink:href="#Cmr10-32"/>
     <use transform="translate(131.435117 104.202344)scale(0.7)" xlink:href="#Cmex10-ae"/>
    </g>
   </g>
   <g id="patch_18">
    <path d="M 135.528684 205.779352 
Q 135.528684 189.380391 135.528684 174.099464 
" style="fill:none;stroke:#000000;stroke-linecap:round;"/>
    <path d="M 133.528684 178.099464 
L 135.528684 174.099464 
L 137.528684 178.099464 
" style="fill:none;stroke:#000000;stroke-linecap:round;"/>
   </g>
   <g id="text_8">
    <g id="patch_19">
     <path d="M 121.033684 113.448108 
L 150.023684 113.448108 
L 150.023684 89.008108 
L 121.033684 89.008108 
z
" style="fill:#ffffff;stroke:#000000;stroke-linejoin:miter;"/>
    </g>
    <!-- $y^{\langle 2 \rangle}$ -->
    <g transform="translate(124.933684 106.818108)scale(0.13 -0.13)">
     <use transform="translate(0 0.597135)" xlink:href="#Cmmi10-79"/>
     <use transform="translate(55.326719 104.202344)scale(0.7)" xlink:href="#Cmex10-ad"/>
     <use transform="translate(88.378477 38.861198)scale(0.7)" xlink:href="#Cmr10-32"/>
     <use transform="translate(123.378477 104.202344)scale(0.7)" xlink:href="#Cmex10-ae"/>
    </g>
   </g>
   <g id="patch_20">
    <path d="M 135.528684 116.567405 
Q 135.528684 131.228346 135.528684 147.007321 
" style="fill:none;stroke:#000000;stroke-linecap:round;"/>
    <path d="M 133.528684 120.567405 
L 135.528684 116.567405 
L 137.528684 120.567405 
" style="fill:none;stroke:#000000;stroke-linecap:round;"/>
   </g>
   <g id="text_9">
    <g id="patch_21">
     <path d="M 119.863684 53.510541 
L 151.193684 53.510541 
L 151.193684 31.410541 
L 119.863684 31.410541 
z
" style="fill:#ffffff;stroke:#000000;stroke-linejoin:miter;"/>
    </g>
    <!-- $\mathcal{L}^{\langle 2 \rangle}$ -->
    <g transform="translate(123.763684 46.906947)scale(0.13 -0.13)">
     <use transform="translate(0 0.597135)" xlink:href="#Cmsy10-4c"/>
     <use transform="translate(73.360625 104.202344)scale(0.7)" xlink:href="#Cmex10-ad"/>
     <use transform="translate(106.412383 38.861198)scale(0.7)" xlink:href="#Cmr10-32"/>
     <use transform="translate(141.412383 104.202344)scale(0.7)" xlink:href="#Cmex10-ae"/>
    </g>
   </g>
   <g id="patch_22">
    <path d="M 135.528684 56.626179 
Q 135.528684 71.25828 135.528684 87.008416 
" style="fill:none;stroke:#000000;stroke-linecap:round;"/>
    <path d="M 133.528684 60.626179 
L 135.528684 56.626179 
L 137.528684 60.626179 
" style="fill:none;stroke:#000000;stroke-linecap:round;"/>
   </g>
   <g id="patch_23">
    <path d="M 138.492732 84.837766 
Q 146.817092 72.113262 138.932213 58.45315 
" style="fill:none;stroke:#ff0000;stroke-linecap:round;"/>
    <path d="M 142.356226 82.585341 
L 138.492732 84.837766 
L 139.008889 80.395516 
" style="fill:none;stroke:#ff0000;stroke-linecap:round;"/>
   </g>
   <g id="patch_24">
    <path d="M 138.494326 144.838835 
Q 146.84138 132.083451 138.934272 118.392541 
" style="fill:none;stroke:#ff0000;stroke-linecap:round;"/>
    <path d="M 142.358128 142.586939 
L 138.494326 144.838835 
L 139.011091 140.396656 
" style="fill:none;stroke:#ff0000;stroke-linecap:round;"/>
   </g>
   <g id="text_10">
    <g id="patch_25">
     <path d="M 179.510526 170.980676 
L 209.020526 170.980676 
L 209.020526 149.010676 
L 179.510526 149.010676 
z
" style="fill:#ffffff;stroke:#000000;stroke-linejoin:miter;"/>
    </g>
    <!-- $a^{\langle 3 \rangle}$ -->
    <g transform="translate(183.410526 164.377082)scale(0.13 -0.13)">
     <defs>
      <path d="M 609 494 
Q 759 275 1012 169 
Q 1266 63 1556 63 
Q 1928 63 2084 380 
Q 2241 697 2241 1100 
Q 2241 1281 2208 1462 
Q 2175 1644 2097 1800 
Q 2019 1956 1883 2050 
Q 1747 2144 1550 2144 
L 1125 2144 
Q 1069 2144 1069 2203 
L 1069 2259 
Q 1069 2309 1125 2309 
L 1478 2338 
Q 1703 2338 1851 2506 
Q 2000 2675 2069 2917 
Q 2138 3159 2138 3378 
Q 2138 3684 1994 3881 
Q 1850 4078 1556 4078 
Q 1313 4078 1091 3986 
Q 869 3894 738 3706 
Q 750 3709 759 3711 
Q 769 3713 781 3713 
Q 925 3713 1022 3613 
Q 1119 3513 1119 3372 
Q 1119 3234 1022 3134 
Q 925 3034 781 3034 
Q 641 3034 541 3134 
Q 441 3234 441 3372 
Q 441 3647 606 3850 
Q 772 4053 1033 4158 
Q 1294 4263 1556 4263 
Q 1750 4263 1965 4205 
Q 2181 4147 2356 4039 
Q 2531 3931 2642 3762 
Q 2753 3594 2753 3378 
Q 2753 3109 2633 2881 
Q 2513 2653 2303 2487 
Q 2094 2322 1844 2241 
Q 2122 2188 2372 2031 
Q 2622 1875 2773 1631 
Q 2925 1388 2925 1106 
Q 2925 753 2731 467 
Q 2538 181 2222 20 
Q 1906 -141 1556 -141 
Q 1256 -141 954 -26 
Q 653 88 461 316 
Q 269 544 269 863 
Q 269 1022 375 1128 
Q 481 1234 641 1234 
Q 744 1234 830 1186 
Q 916 1138 964 1050 
Q 1013 963 1013 863 
Q 1013 706 903 600 
Q 794 494 641 494 
L 609 494 
z
" id="Cmr10-33" transform="scale(0.015625)"/>
     </defs>
     <use transform="translate(0 0.597135)" xlink:href="#Cmmi10-61"/>
     <use transform="translate(59.086484 104.202344)scale(0.7)" xlink:href="#Cmex10-ad"/>
     <use transform="translate(92.138242 38.861198)scale(0.7)" xlink:href="#Cmr10-33"/>
     <use transform="translate(127.138242 104.202344)scale(0.7)" xlink:href="#Cmex10-ae"/>
    </g>
   </g>
   <g id="patch_26">
    <path d="M 176.390996 159.995676 
Q 164.895041 159.995676 152.281051 159.995676 
" style="fill:none;stroke:#000000;stroke-linecap:round;"/>
    <path d="M 172.390996 157.995676 
L 176.390996 159.995676 
L 172.390996 161.995676 
" style="fill:none;stroke:#000000;stroke-linecap:round;"/>
   </g>
   <g id="patch_27">
    <path d="M 152.788925 172.835765 
Q 164.896765 181.464966 177.915071 172.187365 
" style="fill:none;stroke:#ff0000;stroke-linecap:round;"/>
    <path d="M 154.885547 176.785977 
L 152.788925 172.835765 
L 157.207068 173.528595 
" style="fill:none;stroke:#ff0000;stroke-linecap:round;"/>
   </g>
   <g id="text_11">
    <g id="patch_28">
     <path d="M 179.250526 229.748243 
L 209.280526 229.748243 
L 209.280526 207.778243 
L 179.250526 207.778243 
z
" style="fill:#ffffff;"/>
    </g>
    <!-- $x^{\langle 3 \rangle}$ -->
    <g transform="translate(183.150526 223.144649)scale(0.13 -0.13)">
     <use transform="translate(0 0.597135)" xlink:href="#Cmmi10-78"/>
     <use transform="translate(63.383359 104.202344)scale(0.7)" xlink:href="#Cmex10-ad"/>
     <use transform="translate(96.435117 38.861198)scale(0.7)" xlink:href="#Cmr10-33"/>
     <use transform="translate(131.435117 104.202344)scale(0.7)" xlink:href="#Cmex10-ae"/>
    </g>
   </g>
   <g id="patch_29">
    <path d="M 194.265526 205.779352 
Q 194.265526 189.380391 194.265526 174.099464 
" style="fill:none;stroke:#000000;stroke-linecap:round;"/>
    <path d="M 192.265526 178.099464 
L 194.265526 174.099464 
L 196.265526 178.099464 
" style="fill:none;stroke:#000000;stroke-linecap:round;"/>
   </g>
   <g id="text_12">
    <g id="patch_30">
     <path d="M 179.770526 113.448108 
L 208.760526 113.448108 
L 208.760526 89.008108 
L 179.770526 89.008108 
z
" style="fill:#ffffff;stroke:#000000;stroke-linejoin:miter;"/>
    </g>
    <!-- $y^{\langle 3 \rangle}$ -->
    <g transform="translate(183.670526 106.818108)scale(0.13 -0.13)">
     <use transform="translate(0 0.597135)" xlink:href="#Cmmi10-79"/>
     <use transform="translate(55.326719 104.202344)scale(0.7)" xlink:href="#Cmex10-ad"/>
     <use transform="translate(88.378477 38.861198)scale(0.7)" xlink:href="#Cmr10-33"/>
     <use transform="translate(123.378477 104.202344)scale(0.7)" xlink:href="#Cmex10-ae"/>
    </g>
   </g>
   <g id="patch_31">
    <path d="M 194.265526 116.567405 
Q 194.265526 131.228346 194.265526 147.007321 
" style="fill:none;stroke:#000000;stroke-linecap:round;"/>
    <path d="M 192.265526 120.567405 
L 194.265526 116.567405 
L 196.265526 120.567405 
" style="fill:none;stroke:#000000;stroke-linecap:round;"/>
   </g>
   <g id="text_13">
    <g id="patch_32">
     <path d="M 178.600526 53.510541 
L 209.930526 53.510541 
L 209.930526 31.410541 
L 178.600526 31.410541 
z
" style="fill:#ffffff;stroke:#000000;stroke-linejoin:miter;"/>
    </g>
    <!-- $\mathcal{L}^{\langle 3 \rangle}$ -->
    <g transform="translate(182.500526 46.906947)scale(0.13 -0.13)">
     <use transform="translate(0 0.597135)" xlink:href="#Cmsy10-4c"/>
     <use transform="translate(73.360625 104.202344)scale(0.7)" xlink:href="#Cmex10-ad"/>
     <use transform="translate(106.412383 38.861198)scale(0.7)" xlink:href="#Cmr10-33"/>
     <use transform="translate(141.412383 104.202344)scale(0.7)" xlink:href="#Cmex10-ae"/>
    </g>
   </g>
   <g id="patch_33">
    <path d="M 194.265526 56.626179 
Q 194.265526 71.25828 194.265526 87.008416 
" style="fill:none;stroke:#000000;stroke-linecap:round;"/>
    <path d="M 192.265526 60.626179 
L 194.265526 56.626179 
L 196.265526 60.626179 
" style="fill:none;stroke:#000000;stroke-linecap:round;"/>
   </g>
   <g id="patch_34">
    <path d="M 197.229574 84.837766 
Q 205.553934 72.113262 197.669055 58.45315 
" style="fill:none;stroke:#ff0000;stroke-linecap:round;"/>
    <path d="M 201.093068 82.585341 
L 197.229574 84.837766 
L 197.745731 80.395516 
" style="fill:none;stroke:#ff0000;stroke-linecap:round;"/>
   </g>
   <g id="patch_35">
    <path d="M 197.231169 144.838835 
Q 205.578222 132.083451 197.671114 118.392541 
" style="fill:none;stroke:#ff0000;stroke-linecap:round;"/>
    <path d="M 201.09497 142.586939 
L 197.231169 144.838835 
L 197.747933 140.396656 
" style="fill:none;stroke:#ff0000;stroke-linecap:round;"/>
   </g>
   <g id="text_14">
    <g id="patch_36">
     <path d="M 243.057368 170.186457 
L 262.947368 170.186457 
L 262.947368 149.804894 
L 243.057368 149.804894 
z
" style="fill:#ffffff;"/>
    </g>
    <!-- $\cdots$ -->
    <g transform="translate(246.957368 163.582863)scale(0.13 -0.13)">
     <defs>
      <path d="M 5235 1619 
Q 5235 1453 5123 1331 
Q 5011 1210 4832 1210 
Q 4646 1210 4534 1322 
Q 4422 1434 4422 1619 
Q 4422 1792 4547 1907 
Q 4672 2022 4832 2022 
Q 4992 2022 5113 1907 
Q 5235 1792 5235 1619 
z
M 3366 1619 
Q 3366 1453 3254 1331 
Q 3142 1210 2963 1210 
Q 2778 1210 2666 1322 
Q 2554 1434 2554 1619 
Q 2554 1792 2678 1907 
Q 2803 2022 2963 2022 
Q 3123 2022 3244 1907 
Q 3366 1792 3366 1619 
z
M 1504 1619 
Q 1504 1453 1392 1331 
Q 1280 1210 1101 1210 
Q 915 1210 803 1322 
Q 691 1434 691 1619 
Q 691 1792 816 1907 
Q 941 2022 1101 2022 
Q 1261 2022 1382 1907 
Q 1504 1792 1504 1619 
z
" id="STIXGeneral-Regular-22ef" transform="scale(0.015625)"/>
     </defs>
     <use transform="translate(0 0.40625)" xlink:href="#STIXGeneral-Regular-22ef"/>
    </g>
   </g>
   <g id="patch_37">
    <path d="M 239.940833 159.995676 
Q 226.03894 159.995676 211.019012 159.995676 
" style="fill:none;stroke:#000000;stroke-linecap:round;"/>
    <path d="M 235.940833 157.995676 
L 239.940833 159.995676 
L 235.940833 161.995676 
" style="fill:none;stroke:#000000;stroke-linecap:round;"/>
   </g>
   <g id="patch_38">
    <path d="M 211.558165 172.790756 
Q 226.328825 182.986597 241.497318 171.434877 
" style="fill:none;stroke:#ff0000;stroke-linecap:round;"/>
    <path d="M 213.713901 176.709021 
L 211.558165 172.790756 
L 215.986219 173.417127 
" style="fill:none;stroke:#ff0000;stroke-linecap:round;"/>
   </g>
   <g id="text_15">
    <g id="patch_39">
     <path d="M 294.514211 170.980676 
L 328.964211 170.980676 
L 328.964211 149.010676 
L 294.514211 149.010676 
z
" style="fill:#ffffff;stroke:#000000;stroke-linejoin:miter;"/>
    </g>
    <!-- $a^{\langle T_x \rangle}$ -->
    <g transform="translate(298.414211 164.377082)scale(0.13 -0.13)">
     <defs>
      <path d="M 294 84 
Q 297 100 308 140 
Q 319 181 336 203 
Q 353 225 384 225 
Q 934 225 1113 256 
Q 1284 300 1319 441 
L 2194 3956 
Q 2222 4034 2222 4097 
Q 2222 4147 1997 4147 
L 1625 4147 
Q 1197 4147 964 4015 
Q 731 3884 622 3668 
Q 513 3453 341 2963 
Q 319 2906 275 2906 
L 219 2906 
Q 153 2906 153 2988 
L 609 4313 
Q 622 4372 672 4372 
L 4453 4372 
Q 4519 4372 4519 4288 
L 4306 2963 
Q 4306 2944 4284 2925 
Q 4263 2906 4244 2906 
L 4184 2906 
Q 4122 2906 4122 2988 
Q 4191 3441 4191 3628 
Q 4191 3853 4097 3968 
Q 4003 4084 3853 4115 
Q 3703 4147 3463 4147 
L 3084 4147 
Q 2913 4147 2853 4115 
Q 2794 4084 2753 3928 
L 1875 416 
Q 1872 403 1870 390 
Q 1869 378 1863 359 
Q 1863 278 1959 256 
Q 2125 225 2669 225 
Q 2731 225 2731 141 
Q 2709 50 2696 25 
Q 2684 0 2625 0 
L 359 0 
Q 294 0 294 84 
z
" id="Cmmi10-54" transform="scale(0.015625)"/>
     </defs>
     <use transform="translate(0 0.597135)" xlink:href="#Cmmi10-61"/>
     <use transform="translate(59.086484 104.202344)scale(0.7)" xlink:href="#Cmex10-ad"/>
     <use transform="translate(92.138242 38.861198)scale(0.7)" xlink:href="#Cmmi10-54"/>
     <use transform="translate(133.017148 26.956823)scale(0.49)" xlink:href="#Cmmi10-78"/>
     <use transform="translate(165.450527 104.202344)scale(0.7)" xlink:href="#Cmex10-ae"/>
    </g>
   </g>
   <g id="patch_40">
    <path d="M 291.396275 159.995676 
Q 278.732405 159.995676 264.9505 159.995676 
" style="fill:none;stroke:#000000;stroke-linecap:round;"/>
    <path d="M 287.396275 157.995676 
L 291.396275 159.995676 
L 287.396275 161.995676 
" style="fill:none;stroke:#000000;stroke-linecap:round;"/>
   </g>
   <g id="patch_41">
    <path d="M 265.399295 172.110963 
Q 278.443388 182.001235 292.892077 172.14979 
" style="fill:none;stroke:#ff0000;stroke-linecap:round;"/>
    <path d="M 267.378311 176.121387 
L 265.399295 172.110963 
L 269.795043 172.934004 
" style="fill:none;stroke:#ff0000;stroke-linecap:round;"/>
   </g>
   <g id="text_16">
    <g id="patch_42">
     <path d="M 294.189211 229.748243 
L 329.289211 229.748243 
L 329.289211 207.778243 
L 294.189211 207.778243 
z
" style="fill:#ffffff;"/>
    </g>
    <!-- $x^{\langle T_x \rangle}$ -->
    <g transform="translate(298.089211 223.144649)scale(0.13 -0.13)">
     <use transform="translate(0 0.597135)" xlink:href="#Cmmi10-78"/>
     <use transform="translate(63.383359 104.202344)scale(0.7)" xlink:href="#Cmex10-ad"/>
     <use transform="translate(96.435117 38.861198)scale(0.7)" xlink:href="#Cmmi10-54"/>
     <use transform="translate(137.314023 26.956823)scale(0.49)" xlink:href="#Cmmi10-78"/>
     <use transform="translate(169.747402 104.202344)scale(0.7)" xlink:href="#Cmex10-ae"/>
    </g>
   </g>
   <g id="patch_43">
    <path d="M 311.739211 205.779352 
Q 311.739211 189.380391 311.739211 174.099464 
" style="fill:none;stroke:#000000;stroke-linecap:round;"/>
    <path d="M 309.739211 178.099464 
L 311.739211 174.099464 
L 313.739211 178.099464 
" style="fill:none;stroke:#000000;stroke-linecap:round;"/>
   </g>
   <g id="text_17">
    <g id="patch_44">
     <path d="M 294.969211 113.448108 
L 328.509211 113.448108 
L 328.509211 89.008108 
L 294.969211 89.008108 
z
" style="fill:#ffffff;stroke:#000000;stroke-linejoin:miter;"/>
    </g>
    <!-- $y^{\langle T_y \rangle}$ -->
    <g transform="translate(298.869211 106.818108)scale(0.13 -0.13)">
     <use transform="translate(0 0.597135)" xlink:href="#Cmmi10-79"/>
     <use transform="translate(55.326719 104.202344)scale(0.7)" xlink:href="#Cmex10-ad"/>
     <use transform="translate(88.378477 38.861198)scale(0.7)" xlink:href="#Cmmi10-54"/>
     <use transform="translate(129.257383 26.956823)scale(0.49)" xlink:href="#Cmmi10-79"/>
     <use transform="translate(157.743008 104.202344)scale(0.7)" xlink:href="#Cmex10-ae"/>
    </g>
   </g>
   <g id="patch_45">
    <path d="M 311.739211 116.567405 
Q 311.739211 131.228346 311.739211 147.007321 
" style="fill:none;stroke:#000000;stroke-linecap:round;"/>
    <path d="M 309.739211 120.567405 
L 311.739211 116.567405 
L 313.739211 120.567405 
" style="fill:none;stroke:#000000;stroke-linecap:round;"/>
   </g>
   <g id="text_18">
    <g id="patch_46">
     <path d="M 293.799211 53.510541 
L 329.679211 53.510541 
L 329.679211 31.410541 
L 293.799211 31.410541 
z
" style="fill:#ffffff;stroke:#000000;stroke-linejoin:miter;"/>
    </g>
    <!-- $\mathcal{L}^{\langle T_y \rangle}$ -->
    <g transform="translate(297.699211 46.906947)scale(0.13 -0.13)">
     <use transform="translate(0 0.597135)" xlink:href="#Cmsy10-4c"/>
     <use transform="translate(73.360625 104.202344)scale(0.7)" xlink:href="#Cmex10-ad"/>
     <use transform="translate(106.412383 38.861198)scale(0.7)" xlink:href="#Cmmi10-54"/>
     <use transform="translate(147.291289 26.956823)scale(0.49)" xlink:href="#Cmmi10-79"/>
     <use transform="translate(175.776914 104.202344)scale(0.7)" xlink:href="#Cmex10-ae"/>
    </g>
   </g>
   <g id="patch_47">
    <path d="M 311.739211 56.626179 
Q 311.739211 71.25828 311.739211 87.008416 
" style="fill:none;stroke:#000000;stroke-linecap:round;"/>
    <path d="M 309.739211 60.626179 
L 311.739211 56.626179 
L 313.739211 60.626179 
" style="fill:none;stroke:#000000;stroke-linecap:round;"/>
   </g>
   <g id="patch_48">
    <path d="M 314.703259 84.837766 
Q 323.027619 72.113262 315.142739 58.45315 
" style="fill:none;stroke:#ff0000;stroke-linecap:round;"/>
    <path d="M 318.566752 82.585341 
L 314.703259 84.837766 
L 315.219415 80.395516 
" style="fill:none;stroke:#ff0000;stroke-linecap:round;"/>
   </g>
   <g id="patch_49">
    <path d="M 314.704853 144.838835 
Q 323.051907 132.083451 315.144798 118.392541 
" style="fill:none;stroke:#ff0000;stroke-linecap:round;"/>
    <path d="M 318.568655 142.586939 
L 314.704853 144.838835 
L 315.221617 140.396656 
" style="fill:none;stroke:#ff0000;stroke-linecap:round;"/>
   </g>
   <g id="text_19">
    <g id="patch_50">
     <path d="M 334.657632 20.915819 
L 347.557632 20.915819 
L 347.557632 5.237694 
L 334.657632 5.237694 
z
" style="fill:#ffffff;stroke:#000000;stroke-linejoin:miter;"/>
    </g>
    <!-- $\mathcal{L}$ -->
    <g transform="translate(337.657632 15.836132)scale(0.1 -0.1)">
     <use transform="translate(0 0.484375)" xlink:href="#Cmsy10-4c"/>
    </g>
   </g>
   <g id="patch_51">
    <path d="M 331.536742 13.076757 
L 78.791842 13.076757 
Q 76.791842 13.076757 76.791842 15.076757 
L 76.791842 29.412683 
" style="fill:none;stroke:#000000;stroke-linecap:round;"/>
    <path d="M 327.536742 11.076757 
L 331.536742 13.076757 
L 327.536742 15.076757 
" style="fill:none;stroke:#000000;stroke-linecap:round;"/>
   </g>
   <g id="patch_52">
    <path d="M 95.547144 30.969166 
Q 213.041918 14.250578 332.658823 20.804668 
" style="fill:none;stroke:#ff0000;stroke-linecap:round;"/>
    <path d="M 99.789001 32.385729 
L 95.547144 30.969166 
L 99.225508 28.425618 
" style="fill:none;stroke:#ff0000;stroke-linecap:round;"/>
   </g>
   <g id="patch_53">
    <path d="M 331.539311 13.076757 
L 137.528684 13.076757 
Q 135.528684 13.076757 135.528684 15.076757 
L 135.528684 29.412683 
" style="fill:none;stroke:#000000;stroke-linecap:round;"/>
    <path d="M 327.539311 11.076757 
L 331.539311 13.076757 
L 327.539311 15.076757 
" style="fill:none;stroke:#000000;stroke-linecap:round;"/>
   </g>
   <g id="patch_54">
    <path d="M 154.271943 30.928437 
Q 242.411814 17.186368 332.660915 20.832996 
" style="fill:none;stroke:#ff0000;stroke-linecap:round;"/>
    <path d="M 158.532296 32.288359 
L 154.271943 30.928437 
L 157.916092 28.336107 
" style="fill:none;stroke:#ff0000;stroke-linecap:round;"/>
   </g>
   <g id="patch_55">
    <path d="M 331.541933 13.076757 
L 196.265526 13.076757 
Q 194.265526 13.076757 194.265526 15.076757 
L 194.265526 29.412683 
" style="fill:none;stroke:#000000;stroke-linecap:round;"/>
    <path d="M 327.541933 11.076757 
L 331.541933 13.076757 
L 327.541933 15.076757 
" style="fill:none;stroke:#000000;stroke-linecap:round;"/>
   </g>
   <g id="patch_56">
    <path d="M 212.997102 30.847849 
Q 271.78654 20.121842 332.659669 20.887543 
" style="fill:none;stroke:#ff0000;stroke-linecap:round;"/>
    <path d="M 217.291115 32.09743 
L 212.997102 30.847849 
L 216.573174 28.162387 
" style="fill:none;stroke:#ff0000;stroke-linecap:round;"/>
   </g>
   <g id="patch_57">
    <path d="M 331.540193 13.076757 
L 313.739211 13.076757 
Q 311.739211 13.076757 311.739211 15.076757 
L 311.739211 29.412683 
" style="fill:none;stroke:#000000;stroke-linecap:round;"/>
    <path d="M 327.540193 11.076757 
L 331.540193 13.076757 
L 327.540193 15.076757 
" style="fill:none;stroke:#000000;stroke-linecap:round;"/>
   </g>
   <g id="patch_58">
    <path d="M 330.796411 28.499172 
Q 331.792309 25.98651 333.652433 22.649022 
" style="fill:none;stroke:#ff0000;stroke-linecap:round;"/>
    <path d="M 334.129555 25.517536 
L 330.796411 28.499172 
L 330.410989 24.043675 
" style="fill:none;stroke:#ff0000;stroke-linecap:round;"/>
   </g>
  </g>
 </g>
</svg>
