<?xml version="1.0" encoding="utf-8" standalone="no"?>
<!DOCTYPE svg PUBLIC "-//W3C//DTD SVG 1.1//EN"
  "http://www.w3.org/Graphics/SVG/1.1/DTD/svg11.dtd">
<!-- Created with matplotlib (https://matplotlib.org/) -->
<svg height="256.932pt" version="1.1" viewBox="0 0 588.292034 256.932" width="588.292034pt" xmlns="http://www.w3.org/2000/svg" xmlns:xlink="http://www.w3.org/1999/xlink">
 <metadata>
  <rdf:RDF xmlns:cc="http://creativecommons.org/ns#" xmlns:dc="http://purl.org/dc/elements/1.1/" xmlns:rdf="http://www.w3.org/1999/02/22-rdf-syntax-ns#">
   <cc:Work>
    <dc:type rdf:resource="http://purl.org/dc/dcmitype/StillImage"/>
    <dc:date>2021-05-14T22:55:40.806197</dc:date>
    <dc:format>image/svg+xml</dc:format>
    <dc:creator>
     <cc:Agent>
      <dc:title>Matplotlib v3.3.4, https://matplotlib.org/</dc:title>
     </cc:Agent>
    </dc:creator>
   </cc:Work>
  </rdf:RDF>
 </metadata>
 <defs>
  <style type="text/css">*{stroke-linecap:butt;stroke-linejoin:round;}</style>
 </defs>
 <g id="figure_1">
  <g id="patch_1">
   <path d="M 0 256.932 
L 588.292034 256.932 
L 588.292034 0 
L 0 0 
z
" style="fill:none;"/>
  </g>
  <g id="axes_1">
   <g id="patch_2">
    <path clip-path="url(#p30e9cbac30)" d="M 70.609091 202.590545 
C 73.299697 202.590545 75.880465 201.521556 77.783011 199.619011 
C 79.685556 197.716465 80.754545 195.135697 80.754545 192.445091 
C 80.754545 189.754485 79.685556 187.173717 77.783011 185.271171 
C 75.880465 183.368625 73.299697 182.299636 70.609091 182.299636 
C 67.918485 182.299636 65.337717 183.368625 63.435171 185.271171 
C 61.532625 187.173717 60.463636 189.754485 60.463636 192.445091 
C 60.463636 195.135697 61.532625 197.716465 63.435171 199.619011 
C 65.337717 201.521556 67.918485 202.590545 70.609091 202.590545 
z
" style="fill:none;stroke:#000000;stroke-linejoin:miter;"/>
   </g>
   <g id="patch_3">
    <path clip-path="url(#p30e9cbac30)" d="M 70.609091 170.886 
C 73.299697 170.886 75.880465 169.817011 77.783011 167.914465 
C 79.685556 166.011919 80.754545 163.431151 80.754545 160.740545 
C 80.754545 158.049939 79.685556 155.469171 77.783011 153.566626 
C 75.880465 151.66408 73.299697 150.595091 70.609091 150.595091 
C 67.918485 150.595091 65.337717 151.66408 63.435171 153.566626 
C 61.532625 155.469171 60.463636 158.049939 60.463636 160.740545 
C 60.463636 163.431151 61.532625 166.011919 63.435171 167.914465 
C 65.337717 169.817011 67.918485 170.886 70.609091 170.886 
z
" style="fill:none;stroke:#000000;stroke-linejoin:miter;"/>
   </g>
   <g id="patch_4">
    <path clip-path="url(#p30e9cbac30)" d="M 70.609091 139.181455 
C 73.299697 139.181455 75.880465 138.112465 77.783011 136.20992 
C 79.685556 134.307374 80.754545 131.726606 80.754545 129.036 
C 80.754545 126.345394 79.685556 123.764626 77.783011 121.86208 
C 75.880465 119.959535 73.299697 118.890545 70.609091 118.890545 
C 67.918485 118.890545 65.337717 119.959535 63.435171 121.86208 
C 61.532625 123.764626 60.463636 126.345394 60.463636 129.036 
C 60.463636 131.726606 61.532625 134.307374 63.435171 136.20992 
C 65.337717 138.112465 67.918485 139.181455 70.609091 139.181455 
z
" style="fill:none;stroke:#000000;stroke-linejoin:miter;"/>
   </g>
   <g id="patch_5">
    <path clip-path="url(#p30e9cbac30)" d="M 70.609091 107.476909 
C 73.299697 107.476909 75.880465 106.40792 77.783011 104.505374 
C 79.685556 102.602829 80.754545 100.022061 80.754545 97.331455 
C 80.754545 94.640849 79.685556 92.060081 77.783011 90.157535 
C 75.880465 88.254989 73.299697 87.186 70.609091 87.186 
C 67.918485 87.186 65.337717 88.254989 63.435171 90.157535 
C 61.532625 92.060081 60.463636 94.640849 60.463636 97.331455 
C 60.463636 100.022061 61.532625 102.602829 63.435171 104.505374 
C 65.337717 106.40792 67.918485 107.476909 70.609091 107.476909 
z
" style="fill:none;stroke:#000000;stroke-linejoin:miter;"/>
   </g>
   <g id="patch_6">
    <path clip-path="url(#p30e9cbac30)" d="M 70.609091 75.772364 
C 73.299697 75.772364 75.880465 74.703375 77.783011 72.800829 
C 79.685556 70.898283 80.754545 68.317515 80.754545 65.626909 
C 80.754545 62.936303 79.685556 60.355535 77.783011 58.452989 
C 75.880465 56.550444 73.299697 55.481455 70.609091 55.481455 
C 67.918485 55.481455 65.337717 56.550444 63.435171 58.452989 
C 61.532625 60.355535 60.463636 62.936303 60.463636 65.626909 
C 60.463636 68.317515 61.532625 70.898283 63.435171 72.800829 
C 65.337717 74.703375 67.918485 75.772364 70.609091 75.772364 
z
" style="fill:none;stroke:#000000;stroke-linejoin:miter;"/>
   </g>
   <g id="patch_7">
    <path clip-path="url(#p30e9cbac30)" d="M 57.927273 205.126909 
L 83.290909 205.126909 
L 83.290909 52.945091 
L 57.927273 52.945091 
z
" style="fill:none;stroke:#000000;stroke-linejoin:miter;"/>
   </g>
   <g id="patch_8">
    <path clip-path="url(#p30e9cbac30)" d="M 121.336364 202.590545 
C 124.02697 202.590545 126.607738 201.521556 128.510283 199.619011 
C 130.412829 197.716465 131.481818 195.135697 131.481818 192.445091 
C 131.481818 189.754485 130.412829 187.173717 128.510283 185.271171 
C 126.607738 183.368625 124.02697 182.299636 121.336364 182.299636 
C 118.645758 182.299636 116.06499 183.368625 114.162444 185.271171 
C 112.259898 187.173717 111.190909 189.754485 111.190909 192.445091 
C 111.190909 195.135697 112.259898 197.716465 114.162444 199.619011 
C 116.06499 201.521556 118.645758 202.590545 121.336364 202.590545 
z
" style="fill:none;stroke:#000000;stroke-linejoin:miter;"/>
   </g>
   <g id="patch_9">
    <path clip-path="url(#p30e9cbac30)" d="M 121.336364 170.886 
C 124.02697 170.886 126.607738 169.817011 128.510283 167.914465 
C 130.412829 166.011919 131.481818 163.431151 131.481818 160.740545 
C 131.481818 158.049939 130.412829 155.469171 128.510283 153.566626 
C 126.607738 151.66408 124.02697 150.595091 121.336364 150.595091 
C 118.645758 150.595091 116.06499 151.66408 114.162444 153.566626 
C 112.259898 155.469171 111.190909 158.049939 111.190909 160.740545 
C 111.190909 163.431151 112.259898 166.011919 114.162444 167.914465 
C 116.06499 169.817011 118.645758 170.886 121.336364 170.886 
z
" style="fill:none;stroke:#000000;stroke-linejoin:miter;"/>
   </g>
   <g id="patch_10">
    <path clip-path="url(#p30e9cbac30)" d="M 121.336364 139.181455 
C 124.02697 139.181455 126.607738 138.112465 128.510283 136.20992 
C 130.412829 134.307374 131.481818 131.726606 131.481818 129.036 
C 131.481818 126.345394 130.412829 123.764626 128.510283 121.86208 
C 126.607738 119.959535 124.02697 118.890545 121.336364 118.890545 
C 118.645758 118.890545 116.06499 119.959535 114.162444 121.86208 
C 112.259898 123.764626 111.190909 126.345394 111.190909 129.036 
C 111.190909 131.726606 112.259898 134.307374 114.162444 136.20992 
C 116.06499 138.112465 118.645758 139.181455 121.336364 139.181455 
z
" style="fill:none;stroke:#000000;stroke-linejoin:miter;"/>
   </g>
   <g id="patch_11">
    <path clip-path="url(#p30e9cbac30)" d="M 121.336364 107.476909 
C 124.02697 107.476909 126.607738 106.40792 128.510283 104.505374 
C 130.412829 102.602829 131.481818 100.022061 131.481818 97.331455 
C 131.481818 94.640849 130.412829 92.060081 128.510283 90.157535 
C 126.607738 88.254989 124.02697 87.186 121.336364 87.186 
C 118.645758 87.186 116.06499 88.254989 114.162444 90.157535 
C 112.259898 92.060081 111.190909 94.640849 111.190909 97.331455 
C 111.190909 100.022061 112.259898 102.602829 114.162444 104.505374 
C 116.06499 106.40792 118.645758 107.476909 121.336364 107.476909 
z
" style="fill:none;stroke:#000000;stroke-linejoin:miter;"/>
   </g>
   <g id="patch_12">
    <path clip-path="url(#p30e9cbac30)" d="M 121.336364 75.772364 
C 124.02697 75.772364 126.607738 74.703375 128.510283 72.800829 
C 130.412829 70.898283 131.481818 68.317515 131.481818 65.626909 
C 131.481818 62.936303 130.412829 60.355535 128.510283 58.452989 
C 126.607738 56.550444 124.02697 55.481455 121.336364 55.481455 
C 118.645758 55.481455 116.06499 56.550444 114.162444 58.452989 
C 112.259898 60.355535 111.190909 62.936303 111.190909 65.626909 
C 111.190909 68.317515 112.259898 70.898283 114.162444 72.800829 
C 116.06499 74.703375 118.645758 75.772364 121.336364 75.772364 
z
" style="fill:none;stroke:#000000;stroke-linejoin:miter;"/>
   </g>
   <g id="patch_13">
    <path clip-path="url(#p30e9cbac30)" d="M 108.654545 205.126909 
L 134.018182 205.126909 
L 134.018182 52.945091 
L 108.654545 52.945091 
z
" style="fill:none;stroke:#000000;stroke-linejoin:miter;"/>
   </g>
   <g id="patch_14">
    <path clip-path="url(#p30e9cbac30)" d="M 172.063636 202.590545 
C 174.754242 202.590545 177.33501 201.521556 179.237556 199.619011 
C 181.140102 197.716465 182.209091 195.135697 182.209091 192.445091 
C 182.209091 189.754485 181.140102 187.173717 179.237556 185.271171 
C 177.33501 183.368625 174.754242 182.299636 172.063636 182.299636 
C 169.37303 182.299636 166.792262 183.368625 164.889717 185.271171 
C 162.987171 187.173717 161.918182 189.754485 161.918182 192.445091 
C 161.918182 195.135697 162.987171 197.716465 164.889717 199.619011 
C 166.792262 201.521556 169.37303 202.590545 172.063636 202.590545 
z
" style="fill:none;stroke:#000000;stroke-linejoin:miter;"/>
   </g>
   <g id="patch_15">
    <path clip-path="url(#p30e9cbac30)" d="M 172.063636 170.886 
C 174.754242 170.886 177.33501 169.817011 179.237556 167.914465 
C 181.140102 166.011919 182.209091 163.431151 182.209091 160.740545 
C 182.209091 158.049939 181.140102 155.469171 179.237556 153.566626 
C 177.33501 151.66408 174.754242 150.595091 172.063636 150.595091 
C 169.37303 150.595091 166.792262 151.66408 164.889717 153.566626 
C 162.987171 155.469171 161.918182 158.049939 161.918182 160.740545 
C 161.918182 163.431151 162.987171 166.011919 164.889717 167.914465 
C 166.792262 169.817011 169.37303 170.886 172.063636 170.886 
z
" style="fill:none;stroke:#000000;stroke-linejoin:miter;"/>
   </g>
   <g id="patch_16">
    <path clip-path="url(#p30e9cbac30)" d="M 172.063636 139.181455 
C 174.754242 139.181455 177.33501 138.112465 179.237556 136.20992 
C 181.140102 134.307374 182.209091 131.726606 182.209091 129.036 
C 182.209091 126.345394 181.140102 123.764626 179.237556 121.86208 
C 177.33501 119.959535 174.754242 118.890545 172.063636 118.890545 
C 169.37303 118.890545 166.792262 119.959535 164.889717 121.86208 
C 162.987171 123.764626 161.918182 126.345394 161.918182 129.036 
C 161.918182 131.726606 162.987171 134.307374 164.889717 136.20992 
C 166.792262 138.112465 169.37303 139.181455 172.063636 139.181455 
z
" style="fill:none;stroke:#000000;stroke-linejoin:miter;"/>
   </g>
   <g id="patch_17">
    <path clip-path="url(#p30e9cbac30)" d="M 172.063636 107.476909 
C 174.754242 107.476909 177.33501 106.40792 179.237556 104.505374 
C 181.140102 102.602829 182.209091 100.022061 182.209091 97.331455 
C 182.209091 94.640849 181.140102 92.060081 179.237556 90.157535 
C 177.33501 88.254989 174.754242 87.186 172.063636 87.186 
C 169.37303 87.186 166.792262 88.254989 164.889717 90.157535 
C 162.987171 92.060081 161.918182 94.640849 161.918182 97.331455 
C 161.918182 100.022061 162.987171 102.602829 164.889717 104.505374 
C 166.792262 106.40792 169.37303 107.476909 172.063636 107.476909 
z
" style="fill:none;stroke:#000000;stroke-linejoin:miter;"/>
   </g>
   <g id="patch_18">
    <path clip-path="url(#p30e9cbac30)" d="M 172.063636 75.772364 
C 174.754242 75.772364 177.33501 74.703375 179.237556 72.800829 
C 181.140102 70.898283 182.209091 68.317515 182.209091 65.626909 
C 182.209091 62.936303 181.140102 60.355535 179.237556 58.452989 
C 177.33501 56.550444 174.754242 55.481455 172.063636 55.481455 
C 169.37303 55.481455 166.792262 56.550444 164.889717 58.452989 
C 162.987171 60.355535 161.918182 62.936303 161.918182 65.626909 
C 161.918182 68.317515 162.987171 70.898283 164.889717 72.800829 
C 166.792262 74.703375 169.37303 75.772364 172.063636 75.772364 
z
" style="fill:none;stroke:#000000;stroke-linejoin:miter;"/>
   </g>
   <g id="patch_19">
    <path clip-path="url(#p30e9cbac30)" d="M 159.381818 205.126909 
L 184.745455 205.126909 
L 184.745455 52.945091 
L 159.381818 52.945091 
z
" style="fill:none;stroke:#000000;stroke-linejoin:miter;"/>
   </g>
   <g id="patch_20">
    <path clip-path="url(#p30e9cbac30)" d="M 273.518182 202.590545 
C 276.208788 202.590545 278.789556 201.521556 280.692102 199.619011 
C 282.594647 197.716465 283.663636 195.135697 283.663636 192.445091 
C 283.663636 189.754485 282.594647 187.173717 280.692102 185.271171 
C 278.789556 183.368625 276.208788 182.299636 273.518182 182.299636 
C 270.827576 182.299636 268.246808 183.368625 266.344262 185.271171 
C 264.441716 187.173717 263.372727 189.754485 263.372727 192.445091 
C 263.372727 195.135697 264.441716 197.716465 266.344262 199.619011 
C 268.246808 201.521556 270.827576 202.590545 273.518182 202.590545 
z
" style="fill:none;stroke:#000000;stroke-linejoin:miter;"/>
   </g>
   <g id="patch_21">
    <path clip-path="url(#p30e9cbac30)" d="M 273.518182 170.886 
C 276.208788 170.886 278.789556 169.817011 280.692102 167.914465 
C 282.594647 166.011919 283.663636 163.431151 283.663636 160.740545 
C 283.663636 158.049939 282.594647 155.469171 280.692102 153.566626 
C 278.789556 151.66408 276.208788 150.595091 273.518182 150.595091 
C 270.827576 150.595091 268.246808 151.66408 266.344262 153.566626 
C 264.441716 155.469171 263.372727 158.049939 263.372727 160.740545 
C 263.372727 163.431151 264.441716 166.011919 266.344262 167.914465 
C 268.246808 169.817011 270.827576 170.886 273.518182 170.886 
z
" style="fill:none;stroke:#000000;stroke-linejoin:miter;"/>
   </g>
   <g id="patch_22">
    <path clip-path="url(#p30e9cbac30)" d="M 273.518182 139.181455 
C 276.208788 139.181455 278.789556 138.112465 280.692102 136.20992 
C 282.594647 134.307374 283.663636 131.726606 283.663636 129.036 
C 283.663636 126.345394 282.594647 123.764626 280.692102 121.86208 
C 278.789556 119.959535 276.208788 118.890545 273.518182 118.890545 
C 270.827576 118.890545 268.246808 119.959535 266.344262 121.86208 
C 264.441716 123.764626 263.372727 126.345394 263.372727 129.036 
C 263.372727 131.726606 264.441716 134.307374 266.344262 136.20992 
C 268.246808 138.112465 270.827576 139.181455 273.518182 139.181455 
z
" style="fill:none;stroke:#000000;stroke-linejoin:miter;"/>
   </g>
   <g id="patch_23">
    <path clip-path="url(#p30e9cbac30)" d="M 273.518182 107.476909 
C 276.208788 107.476909 278.789556 106.40792 280.692102 104.505374 
C 282.594647 102.602829 283.663636 100.022061 283.663636 97.331455 
C 283.663636 94.640849 282.594647 92.060081 280.692102 90.157535 
C 278.789556 88.254989 276.208788 87.186 273.518182 87.186 
C 270.827576 87.186 268.246808 88.254989 266.344262 90.157535 
C 264.441716 92.060081 263.372727 94.640849 263.372727 97.331455 
C 263.372727 100.022061 264.441716 102.602829 266.344262 104.505374 
C 268.246808 106.40792 270.827576 107.476909 273.518182 107.476909 
z
" style="fill:none;stroke:#000000;stroke-linejoin:miter;"/>
   </g>
   <g id="patch_24">
    <path clip-path="url(#p30e9cbac30)" d="M 273.518182 75.772364 
C 276.208788 75.772364 278.789556 74.703375 280.692102 72.800829 
C 282.594647 70.898283 283.663636 68.317515 283.663636 65.626909 
C 283.663636 62.936303 282.594647 60.355535 280.692102 58.452989 
C 278.789556 56.550444 276.208788 55.481455 273.518182 55.481455 
C 270.827576 55.481455 268.246808 56.550444 266.344262 58.452989 
C 264.441716 60.355535 263.372727 62.936303 263.372727 65.626909 
C 263.372727 68.317515 264.441716 70.898283 266.344262 72.800829 
C 268.246808 74.703375 270.827576 75.772364 273.518182 75.772364 
z
" style="fill:none;stroke:#000000;stroke-linejoin:miter;"/>
   </g>
   <g id="patch_25">
    <path clip-path="url(#p30e9cbac30)" d="M 260.836364 205.126909 
L 286.2 205.126909 
L 286.2 52.945091 
L 260.836364 52.945091 
z
" style="fill:none;stroke:#000000;stroke-linejoin:miter;"/>
   </g>
   <g id="text_1">
    <!-- $\cdots$ -->
    <g transform="translate(217.210909 132.34725)scale(0.12 -0.12)">
     <defs>
      <path d="M 81.796875 25.296875 
Q 81.796875 22.703125 80.046875 20.796875 
Q 78.296875 18.90625 75.5 18.90625 
Q 72.59375 18.90625 70.84375 20.65625 
Q 69.09375 22.40625 69.09375 25.296875 
Q 69.09375 28 71.046875 29.796875 
Q 73 31.59375 75.5 31.59375 
Q 78 31.59375 79.890625 29.796875 
Q 81.796875 28 81.796875 25.296875 
z
M 52.59375 25.296875 
Q 52.59375 22.703125 50.84375 20.796875 
Q 49.09375 18.90625 46.296875 18.90625 
Q 43.40625 18.90625 41.65625 20.65625 
Q 39.90625 22.40625 39.90625 25.296875 
Q 39.90625 28 41.84375 29.796875 
Q 43.796875 31.59375 46.296875 31.59375 
Q 48.796875 31.59375 50.6875 29.796875 
Q 52.59375 28 52.59375 25.296875 
z
M 23.5 25.296875 
Q 23.5 22.703125 21.75 20.796875 
Q 20 18.90625 17.203125 18.90625 
Q 14.296875 18.90625 12.546875 20.65625 
Q 10.796875 22.40625 10.796875 25.296875 
Q 10.796875 28 12.75 29.796875 
Q 14.703125 31.59375 17.203125 31.59375 
Q 19.703125 31.59375 21.59375 29.796875 
Q 23.5 28 23.5 25.296875 
z
" id="STIXGeneral-Regular-8943"/>
     </defs>
     <use transform="translate(0 0.40625)" xlink:href="#STIXGeneral-Regular-8943"/>
    </g>
   </g>
  </g>
  <g id="axes_2">
   <g id="patch_26">
    <path clip-path="url(#p26fe958ad3)" d="M 538.208182 207.858 
C 541.09147 207.858 543.857054 206.712457 545.895847 204.673665 
C 547.934639 202.634872 549.080182 199.869288 549.080182 196.986 
C 549.080182 194.102712 547.934639 191.337128 545.895847 189.298335 
C 543.857054 187.259543 541.09147 186.114 538.208182 186.114 
C 535.324894 186.114 532.559309 187.259543 530.520517 189.298335 
C 528.481724 191.337128 527.336182 194.102712 527.336182 196.986 
C 527.336182 199.869288 528.481724 202.634872 530.520517 204.673665 
C 532.559309 206.712457 535.324894 207.858 538.208182 207.858 
z
" style="fill:none;stroke:#000000;stroke-linejoin:miter;"/>
   </g>
   <g id="patch_27">
    <path clip-path="url(#p26fe958ad3)" d="M 538.208182 173.883 
C 541.09147 173.883 543.857054 172.737457 545.895847 170.698665 
C 547.934639 168.659872 549.080182 165.894288 549.080182 163.011 
C 549.080182 160.127712 547.934639 157.362128 545.895847 155.323335 
C 543.857054 153.284543 541.09147 152.139 538.208182 152.139 
C 535.324894 152.139 532.559309 153.284543 530.520517 155.323335 
C 528.481724 157.362128 527.336182 160.127712 527.336182 163.011 
C 527.336182 165.894288 528.481724 168.659872 530.520517 170.698665 
C 532.559309 172.737457 535.324894 173.883 538.208182 173.883 
z
" style="fill:none;stroke:#000000;stroke-linejoin:miter;"/>
   </g>
   <g id="patch_28">
    <path clip-path="url(#p26fe958ad3)" d="M 538.208182 139.908 
C 541.09147 139.908 543.857054 138.762457 545.895847 136.723665 
C 547.934639 134.684872 549.080182 131.919288 549.080182 129.036 
C 549.080182 126.152712 547.934639 123.387128 545.895847 121.348335 
C 543.857054 119.309543 541.09147 118.164 538.208182 118.164 
C 535.324894 118.164 532.559309 119.309543 530.520517 121.348335 
C 528.481724 123.387128 527.336182 126.152712 527.336182 129.036 
C 527.336182 131.919288 528.481724 134.684872 530.520517 136.723665 
C 532.559309 138.762457 535.324894 139.908 538.208182 139.908 
z
" style="fill:none;stroke:#000000;stroke-linejoin:miter;"/>
   </g>
   <g id="patch_29">
    <path clip-path="url(#p26fe958ad3)" d="M 538.208182 105.933 
C 541.09147 105.933 543.857054 104.787457 545.895847 102.748665 
C 547.934639 100.709872 549.080182 97.944288 549.080182 95.061 
C 549.080182 92.177712 547.934639 89.412128 545.895847 87.373335 
C 543.857054 85.334543 541.09147 84.189 538.208182 84.189 
C 535.324894 84.189 532.559309 85.334543 530.520517 87.373335 
C 528.481724 89.412128 527.336182 92.177712 527.336182 95.061 
C 527.336182 97.944288 528.481724 100.709872 530.520517 102.748665 
C 532.559309 104.787457 535.324894 105.933 538.208182 105.933 
z
" style="fill:none;stroke:#000000;stroke-linejoin:miter;"/>
   </g>
   <g id="patch_30">
    <path clip-path="url(#p26fe958ad3)" d="M 538.208182 71.958 
C 541.09147 71.958 543.857054 70.812457 545.895847 68.773665 
C 547.934639 66.734872 549.080182 63.969288 549.080182 61.086 
C 549.080182 58.202712 547.934639 55.437128 545.895847 53.398335 
C 543.857054 51.359543 541.09147 50.214 538.208182 50.214 
C 535.324894 50.214 532.559309 51.359543 530.520517 53.398335 
C 528.481724 55.437128 527.336182 58.202712 527.336182 61.086 
C 527.336182 63.969288 528.481724 66.734872 530.520517 68.773665 
C 532.559309 70.812457 535.324894 71.958 538.208182 71.958 
z
" style="fill:none;stroke:#000000;stroke-linejoin:miter;"/>
   </g>
   <g id="patch_31">
    <path clip-path="url(#p26fe958ad3)" d="M 524.618182 210.576 
L 551.798182 210.576 
L 551.798182 47.496 
L 524.618182 47.496 
z
" style="fill:none;stroke:#000000;stroke-linejoin:miter;"/>
   </g>
   <g id="patch_32">
    <path d="M 70.609091 225.019774 
Q 70.609091 216.071385 70.609091 208.241029 
" style="fill:none;stroke:#000000;stroke-linecap:round;"/>
    <path d="M 68.209091 213.041029 
L 70.609091 208.241029 
L 73.009091 213.041029 
" style="fill:none;stroke:#000000;stroke-linecap:round;"/>
   </g>
   <g id="text_2">
    <!-- $\hat{x}^{\langle 1 \rangle}$ -->
    <g transform="translate(60.409091 239.607648)scale(0.12 -0.12)">
     <defs>
      <path d="M 13.484375 53.8125 
L 11.53125 55.90625 
L 25 69.390625 
L 38.375 55.90625 
L 36.375 53.8125 
L 25 63.8125 
z
" id="Cmr10-94"/>
      <path d="M 7.8125 2.875 
Q 9.578125 1.515625 12.796875 1.515625 
Q 15.921875 1.515625 18.3125 4.515625 
Q 20.703125 7.515625 21.578125 11.078125 
L 26.125 28.8125 
Q 27.203125 33.640625 27.203125 35.40625 
Q 27.203125 37.890625 25.8125 39.75 
Q 24.421875 41.609375 21.921875 41.609375 
Q 18.75 41.609375 15.96875 39.625 
Q 13.1875 37.640625 11.28125 34.59375 
Q 9.375 31.546875 8.59375 28.421875 
Q 8.40625 27.78125 7.8125 27.78125 
L 6.59375 27.78125 
Q 5.8125 27.78125 5.8125 28.71875 
L 5.8125 29 
Q 6.78125 32.71875 9.125 36.25 
Q 11.46875 39.796875 14.859375 41.984375 
Q 18.265625 44.1875 22.125 44.1875 
Q 25.78125 44.1875 28.734375 42.234375 
Q 31.6875 40.28125 32.90625 36.921875 
Q 34.625 39.984375 37.28125 42.078125 
Q 39.9375 44.1875 43.109375 44.1875 
Q 45.265625 44.1875 47.5 43.421875 
Q 49.75 42.671875 51.171875 41.109375 
Q 52.59375 39.546875 52.59375 37.203125 
Q 52.59375 34.671875 50.953125 32.828125 
Q 49.3125 31 46.78125 31 
Q 45.171875 31 44.09375 32.03125 
Q 43.015625 33.0625 43.015625 34.625 
Q 43.015625 36.71875 44.453125 38.296875 
Q 45.90625 39.890625 47.90625 40.1875 
Q 46.09375 41.609375 42.921875 41.609375 
Q 39.703125 41.609375 37.328125 38.625 
Q 34.96875 35.640625 33.984375 31.984375 
L 29.59375 14.3125 
Q 28.515625 10.296875 28.515625 7.71875 
Q 28.515625 5.171875 29.953125 3.34375 
Q 31.390625 1.515625 33.796875 1.515625 
Q 38.484375 1.515625 42.15625 5.640625 
Q 45.84375 9.765625 47.015625 14.703125 
Q 47.21875 15.28125 47.796875 15.28125 
L 49.03125 15.28125 
Q 49.421875 15.28125 49.65625 15.015625 
Q 49.90625 14.75 49.90625 14.40625 
Q 49.90625 14.3125 49.8125 14.109375 
Q 48.390625 8.15625 43.84375 3.515625 
Q 39.3125 -1.125 33.59375 -1.125 
Q 29.9375 -1.125 26.984375 0.84375 
Q 24.03125 2.828125 22.796875 6.203125 
Q 21.234375 3.265625 18.46875 1.0625 
Q 15.71875 -1.125 12.59375 -1.125 
Q 10.453125 -1.125 8.171875 -0.359375 
Q 5.90625 0.390625 4.484375 1.953125 
Q 3.078125 3.515625 3.078125 5.90625 
Q 3.078125 8.25 4.703125 10.171875 
Q 6.34375 12.109375 8.796875 12.109375 
Q 10.453125 12.109375 11.578125 11.109375 
Q 12.703125 10.109375 12.703125 8.5 
Q 12.703125 6.390625 11.296875 4.828125 
Q 9.90625 3.265625 7.8125 2.875 
z
" id="Cmmi10-120"/>
      <path d="M 35.5 -114.796875 
L 10.015625 -56.78125 
Q 9.8125 -56.5 9.8125 -56 
Q 9.8125 -55.515625 10.015625 -55.328125 
L 35.5 2.78125 
Q 35.984375 4 37.3125 4 
Q 38.03125 4 38.671875 3.359375 
Q 39.3125 2.734375 39.3125 2 
Q 39.3125 1.515625 39.203125 1.3125 
L 14.015625 -56 
L 39.203125 -113.28125 
Q 39.3125 -113.484375 39.3125 -114.015625 
Q 39.3125 -114.75 38.671875 -115.375 
Q 38.03125 -116.015625 37.3125 -116.015625 
Q 36.03125 -116.015625 35.5 -114.796875 
z
" id="Cmex10-173"/>
      <path d="M 9.28125 0 
L 9.28125 3.515625 
Q 21.78125 3.515625 21.78125 6.6875 
L 21.78125 59.1875 
Q 16.609375 56.6875 8.6875 56.6875 
L 8.6875 60.203125 
Q 20.953125 60.203125 27.203125 66.609375 
L 28.609375 66.609375 
Q 28.953125 66.609375 29.265625 66.328125 
Q 29.59375 66.0625 29.59375 65.71875 
L 29.59375 6.6875 
Q 29.59375 3.515625 42.09375 3.515625 
L 42.09375 0 
z
" id="Cmr10-49"/>
      <path d="M 7.8125 -114.015625 
Q 7.8125 -113.484375 8.015625 -113.28125 
L 33.109375 -56 
L 8.015625 1.3125 
Q 7.8125 1.515625 7.8125 2 
Q 7.8125 2.734375 8.390625 3.359375 
Q 8.984375 4 9.8125 4 
Q 10.984375 4 11.71875 2.78125 
L 37.203125 -55.328125 
Q 37.3125 -55.515625 37.3125 -56 
Q 37.3125 -56.5 37.203125 -56.78125 
L 11.71875 -114.796875 
Q 10.9375 -116.015625 9.8125 -116.015625 
Q 8.984375 -116.015625 8.390625 -115.375 
Q 7.8125 -114.75 7.8125 -114.015625 
z
" id="Cmex10-174"/>
     </defs>
     <use transform="translate(10.73877 3.472135)" xlink:href="#Cmr10-94"/>
     <use transform="translate(0 0.597135)" xlink:href="#Cmmi10-120"/>
     <use transform="translate(61.544219 104.202344)scale(0.7)" xlink:href="#Cmex10-173"/>
     <use transform="translate(94.595977 38.861198)scale(0.7)" xlink:href="#Cmr10-49"/>
     <use transform="translate(129.595977 104.202344)scale(0.7)" xlink:href="#Cmex10-174"/>
    </g>
   </g>
   <g id="patch_33">
    <path d="M 70.609091 35.304573 
Q 70.609091 42.565145 70.609091 50.943751 
" style="fill:none;stroke:#000000;stroke-linecap:round;"/>
    <path d="M 68.209091 40.104573 
L 70.609091 35.304573 
L 73.009091 40.104573 
" style="fill:none;stroke:#000000;stroke-linecap:round;"/>
   </g>
   <g id="text_3">
    <!-- $\hat{y}^{\langle 1 \rangle}$ -->
    <g transform="translate(60.949091 27.668727)scale(0.12 -0.12)">
     <defs>
      <path d="M 8.40625 -14.3125 
Q 10.5 -17.921875 15.71875 -17.921875 
Q 20.453125 -17.921875 23.921875 -14.59375 
Q 27.390625 -11.28125 29.515625 -6.5625 
Q 31.640625 -1.859375 32.8125 3.078125 
Q 28.375 -1.125 23.1875 -1.125 
Q 19.234375 -1.125 16.453125 0.234375 
Q 13.671875 1.609375 12.125 4.3125 
Q 10.59375 7.03125 10.59375 10.890625 
Q 10.59375 14.15625 11.46875 17.59375 
Q 12.359375 21.046875 13.9375 25.265625 
Q 15.53125 29.5 16.703125 32.625 
Q 18.015625 36.28125 18.015625 38.625 
Q 18.015625 41.609375 15.828125 41.609375 
Q 11.859375 41.609375 9.296875 37.53125 
Q 6.734375 33.453125 5.515625 28.421875 
Q 5.328125 27.78125 4.6875 27.78125 
L 3.515625 27.78125 
Q 2.6875 27.78125 2.6875 28.71875 
L 2.6875 29 
Q 4.296875 34.96875 7.609375 39.578125 
Q 10.9375 44.1875 16.015625 44.1875 
Q 19.578125 44.1875 22.046875 41.84375 
Q 24.515625 39.5 24.515625 35.890625 
Q 24.515625 34.03125 23.6875 31.984375 
Q 23.25 30.765625 21.6875 26.65625 
Q 20.125 22.5625 19.28125 19.875 
Q 18.453125 17.1875 17.921875 14.59375 
Q 17.390625 12.015625 17.390625 9.421875 
Q 17.390625 6.109375 18.796875 3.8125 
Q 20.21875 1.515625 23.296875 1.515625 
Q 29.5 1.515625 34.421875 9.078125 
L 42 39.890625 
Q 42.328125 41.21875 43.546875 42.15625 
Q 44.78125 43.109375 46.1875 43.109375 
Q 47.40625 43.109375 48.3125 42.328125 
Q 49.21875 41.546875 49.21875 40.28125 
Q 49.21875 39.703125 49.125 39.5 
L 39.203125 -0.296875 
Q 37.890625 -5.421875 34.375 -10.109375 
Q 30.859375 -14.796875 25.90625 -17.65625 
Q 20.953125 -20.515625 15.578125 -20.515625 
Q 12.984375 -20.515625 10.4375 -19.5 
Q 7.90625 -18.5 6.34375 -16.5 
Q 4.78125 -14.5 4.78125 -11.8125 
Q 4.78125 -9.078125 6.390625 -7.078125 
Q 8.015625 -5.078125 10.6875 -5.078125 
Q 12.3125 -5.078125 13.40625 -6.078125 
Q 14.5 -7.078125 14.5 -8.6875 
Q 14.5 -10.984375 12.78125 -12.6875 
Q 11.078125 -14.40625 8.796875 -14.40625 
Q 8.6875 -14.359375 8.59375 -14.328125 
Q 8.5 -14.3125 8.40625 -14.3125 
z
" id="Cmmi10-121"/>
     </defs>
     <use transform="translate(5.724609 3.472135)" xlink:href="#Cmr10-94"/>
     <use transform="translate(0 0.597135)" xlink:href="#Cmmi10-121"/>
     <use transform="translate(53.487578 104.202344)scale(0.7)" xlink:href="#Cmex10-173"/>
     <use transform="translate(86.539336 38.861198)scale(0.7)" xlink:href="#Cmr10-49"/>
     <use transform="translate(121.539336 104.202344)scale(0.7)" xlink:href="#Cmex10-174"/>
    </g>
   </g>
   <g id="text_4">
    <!-- $W_{{ax}}$ -->
    <g transform="translate(83.290909 214.245034)scale(0.12 -0.12)">
     <defs>
      <path d="M 17.828125 -1.125 
L 13.1875 62.59375 
Q 12.84375 64.0625 10.984375 64.421875 
Q 9.125 64.796875 6.390625 64.796875 
Q 5.421875 64.796875 5.421875 66.109375 
Q 5.765625 67.390625 5.953125 67.84375 
Q 6.15625 68.3125 7.078125 68.3125 
L 30.90625 68.3125 
Q 31.890625 68.3125 31.890625 67 
Q 31.5 64.796875 30.609375 64.796875 
Q 22.609375 64.796875 22.125 62.015625 
L 25.6875 11.53125 
L 50.6875 55.078125 
L 50.203125 62.59375 
Q 49.859375 64.0625 48 64.421875 
Q 46.140625 64.796875 43.40625 64.796875 
Q 42.390625 64.796875 42.390625 66.109375 
Q 42.71875 67.390625 42.90625 67.84375 
Q 43.109375 68.3125 44.09375 68.3125 
L 67.921875 68.3125 
Q 68.890625 68.3125 68.890625 67 
Q 68.84375 66.75 68.703125 66.15625 
Q 68.5625 65.578125 68.3125 65.1875 
Q 68.0625 64.796875 67.578125 64.796875 
Q 59.515625 64.796875 59.078125 62.015625 
L 59.078125 61.28125 
L 62.703125 11.53125 
L 89.890625 58.984375 
Q 90.484375 60.0625 90.484375 61.078125 
Q 90.484375 63.140625 88.46875 63.96875 
Q 86.46875 64.796875 83.984375 64.796875 
Q 83.015625 64.796875 83.015625 66.109375 
Q 83.203125 66.890625 83.328125 67.328125 
Q 83.453125 67.78125 83.765625 68.046875 
Q 84.078125 68.3125 84.71875 68.3125 
L 103.8125 68.3125 
Q 104.78125 68.3125 104.78125 67 
Q 104.734375 66.75 104.578125 66.140625 
Q 104.4375 65.53125 104.171875 65.15625 
Q 103.90625 64.796875 103.515625 64.796875 
Q 96.390625 64.796875 92.671875 58.296875 
Q 92.390625 58.015625 92.390625 58.015625 
L 58.5 -1.125 
Q 57.953125 -2.203125 56.78125 -2.203125 
L 56 -2.203125 
Q 54.78125 -2.203125 54.78125 -1.125 
L 50.984375 50.390625 
L 21.578125 -1.125 
Q 20.84375 -2.203125 19.828125 -2.203125 
L 19 -2.203125 
Q 17.828125 -2.203125 17.828125 -1.125 
z
" id="Cmmi10-87"/>
      <path d="M 17.390625 -1.125 
Q 11.078125 -1.125 7.4375 3.640625 
Q 3.8125 8.40625 3.8125 14.890625 
Q 3.8125 21.296875 7.125 28.171875 
Q 10.453125 35.0625 16.09375 39.625 
Q 21.734375 44.1875 28.21875 44.1875 
Q 31.203125 44.1875 33.546875 42.578125 
Q 35.890625 40.96875 37.203125 38.1875 
Q 38.328125 42.1875 41.609375 42.1875 
Q 42.875 42.1875 43.71875 41.421875 
Q 44.578125 40.671875 44.578125 39.40625 
Q 44.578125 39.109375 44.546875 38.953125 
Q 44.53125 38.8125 44.484375 38.625 
L 37.5 10.6875 
Q 36.8125 7.71875 36.8125 5.8125 
Q 36.8125 1.515625 39.703125 1.515625 
Q 42.828125 1.515625 44.453125 5.484375 
Q 46.09375 9.46875 47.21875 14.703125 
Q 47.40625 15.28125 48 15.28125 
L 49.21875 15.28125 
Q 49.609375 15.28125 49.84375 14.9375 
Q 50.09375 14.59375 50.09375 14.3125 
Q 48.34375 7.328125 46.265625 3.09375 
Q 44.1875 -1.125 39.5 -1.125 
Q 36.140625 -1.125 33.546875 0.84375 
Q 30.953125 2.828125 30.328125 6.109375 
Q 23.875 -1.125 17.390625 -1.125 
z
M 17.484375 1.515625 
Q 21.09375 1.515625 24.484375 4.21875 
Q 27.875 6.9375 30.328125 10.59375 
Q 30.421875 10.6875 30.421875 10.890625 
L 35.796875 32.625 
L 35.890625 32.90625 
Q 35.296875 36.46875 33.3125 39.03125 
Q 31.34375 41.609375 27.984375 41.609375 
Q 24.609375 41.609375 21.703125 38.84375 
Q 18.796875 36.078125 16.796875 32.328125 
Q 14.84375 28.328125 13.0625 21.34375 
Q 11.28125 14.359375 11.28125 10.5 
Q 11.28125 7.03125 12.765625 4.265625 
Q 14.265625 1.515625 17.484375 1.515625 
z
" id="Cmmi10-97"/>
     </defs>
     <use transform="translate(0 0.6875)" xlink:href="#Cmmi10-87"/>
     <use transform="translate(94.384766 -16.31875)scale(0.7)" xlink:href="#Cmmi10-97"/>
     <use transform="translate(131.333008 -16.31875)scale(0.7)" xlink:href="#Cmmi10-120"/>
    </g>
   </g>
   <g id="text_5">
    <!-- $W_{{ya}}$ -->
    <g transform="translate(83.290909 49.105091)scale(0.12 -0.12)">
     <use transform="translate(0 0.6875)" xlink:href="#Cmmi10-87"/>
     <use transform="translate(94.384766 -16.31875)scale(0.7)" xlink:href="#Cmmi10-121"/>
     <use transform="translate(128.701172 -16.31875)scale(0.7)" xlink:href="#Cmmi10-97"/>
    </g>
   </g>
   <g id="patch_34">
    <path d="M 54.812224 129.036 
Q 45.246703 129.036 34.563148 129.036 
" style="fill:none;stroke:#000000;stroke-linecap:round;"/>
    <path d="M 50.012224 126.636 
L 54.812224 129.036 
L 50.012224 131.436 
" style="fill:none;stroke:#000000;stroke-linecap:round;"/>
   </g>
   <g id="text_6">
    <!-- $a^{\langle 0 \rangle}$ -->
    <g transform="translate(34.772224 124.140375)scale(0.12 -0.12)">
     <defs>
      <path d="M 25 -2.203125 
Q 12.75 -2.203125 8.328125 7.875 
Q 3.90625 17.96875 3.90625 31.890625 
Q 3.90625 40.578125 5.484375 48.234375 
Q 7.078125 55.90625 11.78125 61.25 
Q 16.5 66.609375 25 66.609375 
Q 31.59375 66.609375 35.78125 63.375 
Q 39.984375 60.15625 42.1875 55.046875 
Q 44.390625 49.953125 45.1875 44.109375 
Q 46 38.28125 46 31.890625 
Q 46 23.296875 44.40625 15.796875 
Q 42.828125 8.296875 38.1875 3.046875 
Q 33.546875 -2.203125 25 -2.203125 
z
M 25 0.390625 
Q 30.5625 0.390625 33.296875 6.09375 
Q 36.03125 11.8125 36.671875 18.75 
Q 37.3125 25.6875 37.3125 33.5 
Q 37.3125 41.015625 36.671875 47.359375 
Q 36.03125 53.71875 33.3125 58.859375 
Q 30.609375 64.015625 25 64.015625 
Q 19.34375 64.015625 16.609375 58.828125 
Q 13.875 53.65625 13.234375 47.328125 
Q 12.59375 41.015625 12.59375 33.5 
Q 12.59375 27.9375 12.859375 23 
Q 13.140625 18.0625 14.3125 12.8125 
Q 15.484375 7.5625 18.09375 3.96875 
Q 20.703125 0.390625 25 0.390625 
z
" id="Cmr10-48"/>
     </defs>
     <use transform="translate(0 0.597135)" xlink:href="#Cmmi10-97"/>
     <use transform="translate(59.086484 104.202344)scale(0.7)" xlink:href="#Cmex10-173"/>
     <use transform="translate(92.138242 38.861198)scale(0.7)" xlink:href="#Cmr10-48"/>
     <use transform="translate(127.138242 104.202344)scale(0.7)" xlink:href="#Cmex10-174"/>
    </g>
   </g>
   <g id="text_7">
    <!-- $W_{{aa}}$ -->
    <g transform="translate(34.187686 145.354125)scale(0.12 -0.12)">
     <use transform="translate(0 0.6875)" xlink:href="#Cmmi10-87"/>
     <use transform="translate(94.384766 -16.31875)scale(0.7)" xlink:href="#Cmmi10-97"/>
     <use transform="translate(131.333008 -16.31875)scale(0.7)" xlink:href="#Cmmi10-97"/>
    </g>
   </g>
   <g id="patch_35">
    <path d="M 121.336364 225.019774 
Q 121.336364 216.071385 121.336364 208.241029 
" style="fill:none;stroke:#000000;stroke-linecap:round;"/>
    <path d="M 118.936364 213.041029 
L 121.336364 208.241029 
L 123.736364 213.041029 
" style="fill:none;stroke:#000000;stroke-linecap:round;"/>
   </g>
   <g id="text_8">
    <!-- $\hat{x}^{\langle 2 \rangle}$ -->
    <g transform="translate(111.136364 239.607648)scale(0.12 -0.12)">
     <defs>
      <path d="M 4.984375 0 
L 4.984375 2.6875 
Q 4.984375 2.9375 5.171875 3.21875 
L 20.703125 20.40625 
Q 24.21875 24.21875 26.40625 26.796875 
Q 28.609375 29.390625 30.75 32.765625 
Q 32.90625 36.140625 34.15625 39.625 
Q 35.40625 43.109375 35.40625 47.015625 
Q 35.40625 51.125 33.890625 54.859375 
Q 32.375 58.59375 29.375 60.84375 
Q 26.375 63.09375 22.125 63.09375 
Q 17.78125 63.09375 14.3125 60.46875 
Q 10.84375 57.859375 9.421875 53.71875 
Q 9.8125 53.8125 10.5 53.8125 
Q 12.75 53.8125 14.328125 52.296875 
Q 15.921875 50.78125 15.921875 48.390625 
Q 15.921875 46.09375 14.328125 44.5 
Q 12.75 42.921875 10.5 42.921875 
Q 8.15625 42.921875 6.5625 44.546875 
Q 4.984375 46.1875 4.984375 48.390625 
Q 4.984375 52.15625 6.390625 55.4375 
Q 7.8125 58.734375 10.46875 61.296875 
Q 13.140625 63.875 16.484375 65.234375 
Q 19.828125 66.609375 23.578125 66.609375 
Q 29.296875 66.609375 34.21875 64.1875 
Q 39.15625 61.765625 42.03125 57.34375 
Q 44.921875 52.9375 44.921875 47.015625 
Q 44.921875 42.671875 43.015625 38.765625 
Q 41.109375 34.859375 38.125 31.65625 
Q 35.15625 28.46875 30.515625 24.40625 
Q 25.875 20.359375 24.421875 19 
L 13.09375 8.109375 
L 22.703125 8.109375 
Q 29.78125 8.109375 34.546875 8.21875 
Q 39.3125 8.34375 39.59375 8.59375 
Q 40.765625 9.859375 42 17.828125 
L 44.921875 17.828125 
L 42.09375 0 
z
" id="Cmr10-50"/>
     </defs>
     <use transform="translate(10.73877 3.472135)" xlink:href="#Cmr10-94"/>
     <use transform="translate(0 0.597135)" xlink:href="#Cmmi10-120"/>
     <use transform="translate(61.544219 104.202344)scale(0.7)" xlink:href="#Cmex10-173"/>
     <use transform="translate(94.595977 38.861198)scale(0.7)" xlink:href="#Cmr10-50"/>
     <use transform="translate(129.595977 104.202344)scale(0.7)" xlink:href="#Cmex10-174"/>
    </g>
   </g>
   <g id="patch_36">
    <path d="M 121.336364 35.304573 
Q 121.336364 42.565145 121.336364 50.943751 
" style="fill:none;stroke:#000000;stroke-linecap:round;"/>
    <path d="M 118.936364 40.104573 
L 121.336364 35.304573 
L 123.736364 40.104573 
" style="fill:none;stroke:#000000;stroke-linecap:round;"/>
   </g>
   <g id="text_9">
    <!-- $\hat{y}^{\langle 2 \rangle}$ -->
    <g transform="translate(111.676364 27.668727)scale(0.12 -0.12)">
     <use transform="translate(5.724609 3.472135)" xlink:href="#Cmr10-94"/>
     <use transform="translate(0 0.597135)" xlink:href="#Cmmi10-121"/>
     <use transform="translate(53.487578 104.202344)scale(0.7)" xlink:href="#Cmex10-173"/>
     <use transform="translate(86.539336 38.861198)scale(0.7)" xlink:href="#Cmr10-50"/>
     <use transform="translate(121.539336 104.202344)scale(0.7)" xlink:href="#Cmex10-174"/>
    </g>
   </g>
   <g id="text_10">
    <!-- $W_{{ax}}$ -->
    <g transform="translate(134.018182 214.245034)scale(0.12 -0.12)">
     <use transform="translate(0 0.6875)" xlink:href="#Cmmi10-87"/>
     <use transform="translate(94.384766 -16.31875)scale(0.7)" xlink:href="#Cmmi10-97"/>
     <use transform="translate(131.333008 -16.31875)scale(0.7)" xlink:href="#Cmmi10-120"/>
    </g>
   </g>
   <g id="text_11">
    <!-- $W_{{ya}}$ -->
    <g transform="translate(134.018182 49.105091)scale(0.12 -0.12)">
     <use transform="translate(0 0.6875)" xlink:href="#Cmmi10-87"/>
     <use transform="translate(94.384766 -16.31875)scale(0.7)" xlink:href="#Cmmi10-121"/>
     <use transform="translate(128.701172 -16.31875)scale(0.7)" xlink:href="#Cmmi10-97"/>
    </g>
   </g>
   <g id="patch_37">
    <path d="M 105.539497 129.036 
Q 95.973976 129.036 85.290421 129.036 
" style="fill:none;stroke:#000000;stroke-linecap:round;"/>
    <path d="M 100.739497 126.636 
L 105.539497 129.036 
L 100.739497 131.436 
" style="fill:none;stroke:#000000;stroke-linecap:round;"/>
   </g>
   <g id="text_12">
    <!-- $a^{\langle 1 \rangle}$ -->
    <g transform="translate(85.499497 124.140375)scale(0.12 -0.12)">
     <use transform="translate(0 0.597135)" xlink:href="#Cmmi10-97"/>
     <use transform="translate(59.086484 104.202344)scale(0.7)" xlink:href="#Cmex10-173"/>
     <use transform="translate(92.138242 38.861198)scale(0.7)" xlink:href="#Cmr10-49"/>
     <use transform="translate(127.138242 104.202344)scale(0.7)" xlink:href="#Cmex10-174"/>
    </g>
   </g>
   <g id="text_13">
    <!-- $W_{{aa}}$ -->
    <g transform="translate(84.914959 145.354125)scale(0.12 -0.12)">
     <use transform="translate(0 0.6875)" xlink:href="#Cmmi10-87"/>
     <use transform="translate(94.384766 -16.31875)scale(0.7)" xlink:href="#Cmmi10-97"/>
     <use transform="translate(131.333008 -16.31875)scale(0.7)" xlink:href="#Cmmi10-97"/>
    </g>
   </g>
   <g id="patch_38">
    <path d="M 172.063636 225.019774 
Q 172.063636 216.071385 172.063636 208.241029 
" style="fill:none;stroke:#000000;stroke-linecap:round;"/>
    <path d="M 169.663636 213.041029 
L 172.063636 208.241029 
L 174.463636 213.041029 
" style="fill:none;stroke:#000000;stroke-linecap:round;"/>
   </g>
   <g id="text_14">
    <!-- $\hat{x}^{\langle 3 \rangle}$ -->
    <g transform="translate(161.863636 239.607648)scale(0.12 -0.12)">
     <defs>
      <path d="M 9.515625 7.71875 
Q 11.859375 4.296875 15.8125 2.640625 
Q 19.78125 0.984375 24.3125 0.984375 
Q 30.125 0.984375 32.5625 5.9375 
Q 35.015625 10.890625 35.015625 17.1875 
Q 35.015625 20.015625 34.5 22.84375 
Q 33.984375 25.6875 32.765625 28.125 
Q 31.546875 30.5625 29.421875 32.03125 
Q 27.296875 33.5 24.21875 33.5 
L 17.578125 33.5 
Q 16.703125 33.5 16.703125 34.421875 
L 16.703125 35.296875 
Q 16.703125 36.078125 17.578125 36.078125 
L 23.09375 36.53125 
Q 26.609375 36.53125 28.921875 39.15625 
Q 31.25 41.796875 32.328125 45.578125 
Q 33.40625 49.359375 33.40625 52.78125 
Q 33.40625 57.5625 31.15625 60.640625 
Q 28.90625 63.71875 24.3125 63.71875 
Q 20.515625 63.71875 17.046875 62.28125 
Q 13.578125 60.84375 11.53125 57.90625 
Q 11.71875 57.953125 11.859375 57.984375 
Q 12.015625 58.015625 12.203125 58.015625 
Q 14.453125 58.015625 15.96875 56.453125 
Q 17.484375 54.890625 17.484375 52.6875 
Q 17.484375 50.53125 15.96875 48.96875 
Q 14.453125 47.40625 12.203125 47.40625 
Q 10.015625 47.40625 8.453125 48.96875 
Q 6.890625 50.53125 6.890625 52.6875 
Q 6.890625 56.984375 9.46875 60.15625 
Q 12.0625 63.328125 16.140625 64.96875 
Q 20.21875 66.609375 24.3125 66.609375 
Q 27.34375 66.609375 30.703125 65.703125 
Q 34.078125 64.796875 36.8125 63.109375 
Q 39.546875 61.421875 41.28125 58.78125 
Q 43.015625 56.15625 43.015625 52.78125 
Q 43.015625 48.578125 41.140625 45.015625 
Q 39.265625 41.453125 35.984375 38.859375 
Q 32.71875 36.28125 28.8125 35.015625 
Q 33.15625 34.1875 37.0625 31.734375 
Q 40.96875 29.296875 43.328125 25.484375 
Q 45.703125 21.6875 45.703125 17.28125 
Q 45.703125 11.765625 42.671875 7.296875 
Q 39.65625 2.828125 34.71875 0.3125 
Q 29.78125 -2.203125 24.3125 -2.203125 
Q 19.625 -2.203125 14.90625 -0.40625 
Q 10.203125 1.375 7.203125 4.9375 
Q 4.203125 8.5 4.203125 13.484375 
Q 4.203125 15.96875 5.859375 17.625 
Q 7.515625 19.28125 10.015625 19.28125 
Q 11.625 19.28125 12.96875 18.53125 
Q 14.3125 17.78125 15.0625 16.40625 
Q 15.828125 15.046875 15.828125 13.484375 
Q 15.828125 11.03125 14.109375 9.375 
Q 12.40625 7.71875 10.015625 7.71875 
z
" id="Cmr10-51"/>
     </defs>
     <use transform="translate(10.73877 3.472135)" xlink:href="#Cmr10-94"/>
     <use transform="translate(0 0.597135)" xlink:href="#Cmmi10-120"/>
     <use transform="translate(61.544219 104.202344)scale(0.7)" xlink:href="#Cmex10-173"/>
     <use transform="translate(94.595977 38.861198)scale(0.7)" xlink:href="#Cmr10-51"/>
     <use transform="translate(129.595977 104.202344)scale(0.7)" xlink:href="#Cmex10-174"/>
    </g>
   </g>
   <g id="patch_39">
    <path d="M 172.063636 35.304573 
Q 172.063636 42.565145 172.063636 50.943751 
" style="fill:none;stroke:#000000;stroke-linecap:round;"/>
    <path d="M 169.663636 40.104573 
L 172.063636 35.304573 
L 174.463636 40.104573 
" style="fill:none;stroke:#000000;stroke-linecap:round;"/>
   </g>
   <g id="text_15">
    <!-- $\hat{y}^{\langle 3 \rangle}$ -->
    <g transform="translate(162.403636 27.668727)scale(0.12 -0.12)">
     <use transform="translate(5.724609 3.472135)" xlink:href="#Cmr10-94"/>
     <use transform="translate(0 0.597135)" xlink:href="#Cmmi10-121"/>
     <use transform="translate(53.487578 104.202344)scale(0.7)" xlink:href="#Cmex10-173"/>
     <use transform="translate(86.539336 38.861198)scale(0.7)" xlink:href="#Cmr10-51"/>
     <use transform="translate(121.539336 104.202344)scale(0.7)" xlink:href="#Cmex10-174"/>
    </g>
   </g>
   <g id="text_16">
    <!-- $W_{{ax}}$ -->
    <g transform="translate(184.745455 214.245034)scale(0.12 -0.12)">
     <use transform="translate(0 0.6875)" xlink:href="#Cmmi10-87"/>
     <use transform="translate(94.384766 -16.31875)scale(0.7)" xlink:href="#Cmmi10-97"/>
     <use transform="translate(131.333008 -16.31875)scale(0.7)" xlink:href="#Cmmi10-120"/>
    </g>
   </g>
   <g id="text_17">
    <!-- $W_{{ya}}$ -->
    <g transform="translate(184.745455 49.105091)scale(0.12 -0.12)">
     <use transform="translate(0 0.6875)" xlink:href="#Cmmi10-87"/>
     <use transform="translate(94.384766 -16.31875)scale(0.7)" xlink:href="#Cmmi10-121"/>
     <use transform="translate(128.701172 -16.31875)scale(0.7)" xlink:href="#Cmmi10-97"/>
    </g>
   </g>
   <g id="patch_40">
    <path d="M 156.266769 129.036 
Q 146.701249 129.036 136.017694 129.036 
" style="fill:none;stroke:#000000;stroke-linecap:round;"/>
    <path d="M 151.466769 126.636 
L 156.266769 129.036 
L 151.466769 131.436 
" style="fill:none;stroke:#000000;stroke-linecap:round;"/>
   </g>
   <g id="text_18">
    <!-- $a^{\langle 2 \rangle}$ -->
    <g transform="translate(136.226769 124.140375)scale(0.12 -0.12)">
     <use transform="translate(0 0.597135)" xlink:href="#Cmmi10-97"/>
     <use transform="translate(59.086484 104.202344)scale(0.7)" xlink:href="#Cmex10-173"/>
     <use transform="translate(92.138242 38.861198)scale(0.7)" xlink:href="#Cmr10-50"/>
     <use transform="translate(127.138242 104.202344)scale(0.7)" xlink:href="#Cmex10-174"/>
    </g>
   </g>
   <g id="text_19">
    <!-- $W_{{aa}}$ -->
    <g transform="translate(135.642232 145.354125)scale(0.12 -0.12)">
     <use transform="translate(0 0.6875)" xlink:href="#Cmmi10-87"/>
     <use transform="translate(94.384766 -16.31875)scale(0.7)" xlink:href="#Cmmi10-97"/>
     <use transform="translate(131.333008 -16.31875)scale(0.7)" xlink:href="#Cmmi10-97"/>
    </g>
   </g>
   <g id="patch_41">
    <path d="M 206.994042 129.036 
Q 197.428521 129.036 186.744966 129.036 
" style="fill:none;stroke:#000000;stroke-linecap:round;"/>
    <path d="M 202.194042 126.636 
L 206.994042 129.036 
L 202.194042 131.436 
" style="fill:none;stroke:#000000;stroke-linecap:round;"/>
   </g>
   <g id="text_20">
    <!-- $a^{\langle 3 \rangle}$ -->
    <g transform="translate(186.954042 124.140375)scale(0.12 -0.12)">
     <use transform="translate(0 0.597135)" xlink:href="#Cmmi10-97"/>
     <use transform="translate(59.086484 104.202344)scale(0.7)" xlink:href="#Cmex10-173"/>
     <use transform="translate(92.138242 38.861198)scale(0.7)" xlink:href="#Cmr10-51"/>
     <use transform="translate(127.138242 104.202344)scale(0.7)" xlink:href="#Cmex10-174"/>
    </g>
   </g>
   <g id="text_21">
    <!-- $W_{{aa}}$ -->
    <g transform="translate(186.369504 145.354125)scale(0.12 -0.12)">
     <use transform="translate(0 0.6875)" xlink:href="#Cmmi10-87"/>
     <use transform="translate(94.384766 -16.31875)scale(0.7)" xlink:href="#Cmmi10-97"/>
     <use transform="translate(131.333008 -16.31875)scale(0.7)" xlink:href="#Cmmi10-97"/>
    </g>
   </g>
   <g id="patch_42">
    <path d="M 273.518182 225.019774 
Q 273.518182 216.071385 273.518182 208.241029 
" style="fill:none;stroke:#000000;stroke-linecap:round;"/>
    <path d="M 271.118182 213.041029 
L 273.518182 208.241029 
L 275.918182 213.041029 
" style="fill:none;stroke:#000000;stroke-linecap:round;"/>
   </g>
   <g id="text_22">
    <!-- $\hat{x}^{\langle T_x \rangle}$ -->
    <g transform="translate(261.038182 239.607648)scale(0.12 -0.12)">
     <defs>
      <path d="M 4.59375 1.3125 
Q 4.640625 1.5625 4.8125 2.1875 
Q 4.984375 2.828125 5.25 3.171875 
Q 5.515625 3.515625 6 3.515625 
Q 14.59375 3.515625 17.390625 4 
Q 20.0625 4.6875 20.609375 6.890625 
L 34.28125 61.8125 
Q 34.71875 63.03125 34.71875 64.015625 
Q 34.71875 64.796875 31.203125 64.796875 
L 25.390625 64.796875 
Q 18.703125 64.796875 15.0625 62.734375 
Q 11.421875 60.6875 9.71875 57.3125 
Q 8.015625 53.953125 5.328125 46.296875 
Q 4.984375 45.40625 4.296875 45.40625 
L 3.421875 45.40625 
Q 2.390625 45.40625 2.390625 46.6875 
L 9.515625 67.390625 
Q 9.71875 68.3125 10.5 68.3125 
L 69.578125 68.3125 
Q 70.609375 68.3125 70.609375 67 
L 67.28125 46.296875 
Q 67.28125 46 66.9375 45.703125 
Q 66.609375 45.40625 66.3125 45.40625 
L 65.375 45.40625 
Q 64.40625 45.40625 64.40625 46.6875 
Q 65.484375 53.765625 65.484375 56.6875 
Q 65.484375 60.203125 64.015625 62 
Q 62.546875 63.8125 60.203125 64.296875 
Q 57.859375 64.796875 54.109375 64.796875 
L 48.1875 64.796875 
Q 45.515625 64.796875 44.578125 64.296875 
Q 43.65625 63.8125 43.015625 61.375 
L 29.296875 6.5 
Q 29.25 6.296875 29.21875 6.09375 
Q 29.203125 5.90625 29.109375 5.609375 
Q 29.109375 4.34375 30.609375 4 
Q 33.203125 3.515625 41.703125 3.515625 
Q 42.671875 3.515625 42.671875 2.203125 
Q 42.328125 0.78125 42.125 0.390625 
Q 41.9375 0 41.015625 0 
L 5.609375 0 
Q 4.59375 0 4.59375 1.3125 
z
" id="Cmmi10-84"/>
     </defs>
     <use transform="translate(10.73877 3.472135)" xlink:href="#Cmr10-94"/>
     <use transform="translate(0 0.597135)" xlink:href="#Cmmi10-120"/>
     <use transform="translate(61.544219 104.202344)scale(0.7)" xlink:href="#Cmex10-173"/>
     <use transform="translate(94.595977 38.861198)scale(0.7)" xlink:href="#Cmmi10-84"/>
     <use transform="translate(135.474883 26.956823)scale(0.49)" xlink:href="#Cmmi10-120"/>
     <use transform="translate(167.908262 104.202344)scale(0.7)" xlink:href="#Cmex10-174"/>
    </g>
   </g>
   <g id="patch_43">
    <path d="M 273.518182 35.304573 
Q 273.518182 42.565145 273.518182 50.943751 
" style="fill:none;stroke:#000000;stroke-linecap:round;"/>
    <path d="M 271.118182 40.104573 
L 273.518182 35.304573 
L 275.918182 40.104573 
" style="fill:none;stroke:#000000;stroke-linecap:round;"/>
   </g>
   <g id="text_23">
    <!-- $\hat{y}^{\langle T_y \rangle}$ -->
    <g transform="translate(261.758182 27.668727)scale(0.12 -0.12)">
     <use transform="translate(5.724609 3.472135)" xlink:href="#Cmr10-94"/>
     <use transform="translate(0 0.597135)" xlink:href="#Cmmi10-121"/>
     <use transform="translate(53.487578 104.202344)scale(0.7)" xlink:href="#Cmex10-173"/>
     <use transform="translate(86.539336 38.861198)scale(0.7)" xlink:href="#Cmmi10-84"/>
     <use transform="translate(127.418242 26.956823)scale(0.49)" xlink:href="#Cmmi10-121"/>
     <use transform="translate(155.903867 104.202344)scale(0.7)" xlink:href="#Cmex10-174"/>
    </g>
   </g>
   <g id="text_24">
    <!-- $W_{{ax}}$ -->
    <g transform="translate(286.2 214.245034)scale(0.12 -0.12)">
     <use transform="translate(0 0.6875)" xlink:href="#Cmmi10-87"/>
     <use transform="translate(94.384766 -16.31875)scale(0.7)" xlink:href="#Cmmi10-97"/>
     <use transform="translate(131.333008 -16.31875)scale(0.7)" xlink:href="#Cmmi10-120"/>
    </g>
   </g>
   <g id="text_25">
    <!-- $W_{{ya}}$ -->
    <g transform="translate(286.2 49.105091)scale(0.12 -0.12)">
     <use transform="translate(0 0.6875)" xlink:href="#Cmmi10-87"/>
     <use transform="translate(94.384766 -16.31875)scale(0.7)" xlink:href="#Cmmi10-121"/>
     <use transform="translate(128.701172 -16.31875)scale(0.7)" xlink:href="#Cmmi10-97"/>
    </g>
   </g>
   <g id="patch_44">
    <path d="M 257.721315 129.036 
Q 248.155794 129.036 237.472239 129.036 
" style="fill:none;stroke:#000000;stroke-linecap:round;"/>
    <path d="M 252.921315 126.636 
L 257.721315 129.036 
L 252.921315 131.436 
" style="fill:none;stroke:#000000;stroke-linecap:round;"/>
   </g>
   <g id="text_26">
    <!-- $a^{\langle T_x-1 \rangle}$ -->
    <g transform="translate(219.441315 124.140375)scale(0.12 -0.12)">
     <defs>
      <path d="M 10.203125 23 
Q 9.375 23 8.828125 23.625 
Q 8.296875 24.265625 8.296875 25 
Q 8.296875 25.734375 8.828125 26.359375 
Q 9.375 27 10.203125 27 
L 67.578125 27 
Q 68.359375 27 68.875 26.359375 
Q 69.390625 25.734375 69.390625 25 
Q 69.390625 24.265625 68.875 23.625 
Q 68.359375 23 67.578125 23 
z
" id="Cmsy10-161"/>
     </defs>
     <use transform="translate(0 0.597135)" xlink:href="#Cmmi10-97"/>
     <use transform="translate(59.086484 104.202344)scale(0.7)" xlink:href="#Cmex10-173"/>
     <use transform="translate(92.138242 38.861198)scale(0.7)" xlink:href="#Cmmi10-84"/>
     <use transform="translate(133.017148 26.956823)scale(0.49)" xlink:href="#Cmmi10-120"/>
     <use transform="translate(177.741543 38.861198)scale(0.7)" xlink:href="#Cmsy10-161"/>
     <use transform="translate(244.412441 38.861198)scale(0.7)" xlink:href="#Cmr10-49"/>
     <use transform="translate(279.412441 104.202344)scale(0.7)" xlink:href="#Cmex10-174"/>
    </g>
   </g>
   <g id="text_27">
    <!-- $W_{{aa}}$ -->
    <g transform="translate(237.096777 145.354125)scale(0.12 -0.12)">
     <use transform="translate(0 0.6875)" xlink:href="#Cmmi10-87"/>
     <use transform="translate(94.384766 -16.31875)scale(0.7)" xlink:href="#Cmmi10-97"/>
     <use transform="translate(131.333008 -16.31875)scale(0.7)" xlink:href="#Cmmi10-97"/>
    </g>
   </g>
   <g id="patch_45">
    <path d="M 538.208182 232.650381 
Q 538.208182 222.614244 538.208182 213.696142 
" style="fill:none;stroke:#000000;stroke-linecap:round;"/>
    <path d="M 535.808182 218.496142 
L 538.208182 213.696142 
L 540.608182 218.496142 
" style="fill:none;stroke:#000000;stroke-linecap:round;"/>
   </g>
   <g id="text_28">
    <!-- $\hat{x}^{\langle t \rangle}$ -->
    <g transform="translate(528.608182 247.236375)scale(0.12 -0.12)">
     <defs>
      <path d="M 6.203125 8.109375 
Q 6.203125 9.578125 6.5 10.890625 
L 13.71875 39.59375 
L 3.21875 39.59375 
Q 2.203125 39.59375 2.203125 40.921875 
Q 2.59375 43.109375 3.515625 43.109375 
L 14.59375 43.109375 
L 18.609375 59.421875 
Q 19 60.75 20.171875 61.671875 
Q 21.34375 62.59375 22.796875 62.59375 
Q 24.078125 62.59375 24.921875 61.828125 
Q 25.78125 61.078125 25.78125 59.8125 
Q 25.78125 59.515625 25.75 59.34375 
Q 25.734375 59.1875 25.6875 58.984375 
L 21.6875 43.109375 
L 31.984375 43.109375 
Q 33.015625 43.109375 33.015625 41.796875 
Q 32.953125 41.546875 32.8125 40.953125 
Q 32.671875 40.375 32.421875 39.984375 
Q 32.171875 39.59375 31.6875 39.59375 
L 20.796875 39.59375 
L 13.625 10.6875 
Q 12.890625 7.859375 12.890625 5.8125 
Q 12.890625 1.515625 15.828125 1.515625 
Q 20.21875 1.515625 23.609375 5.640625 
Q 27 9.765625 28.8125 14.703125 
Q 29.203125 15.28125 29.59375 15.28125 
L 30.8125 15.28125 
Q 31.203125 15.28125 31.4375 15.015625 
Q 31.6875 14.75 31.6875 14.40625 
Q 31.6875 14.203125 31.59375 14.109375 
Q 29.390625 8.0625 25.1875 3.46875 
Q 21 -1.125 15.578125 -1.125 
Q 11.625 -1.125 8.90625 1.453125 
Q 6.203125 4.046875 6.203125 8.109375 
z
" id="Cmmi10-116"/>
     </defs>
     <use transform="translate(10.73877 3.472135)" xlink:href="#Cmr10-94"/>
     <use transform="translate(0 0.597135)" xlink:href="#Cmmi10-120"/>
     <use transform="translate(61.544219 104.202344)scale(0.7)" xlink:href="#Cmex10-173"/>
     <use transform="translate(94.595977 38.861198)scale(0.7)" xlink:href="#Cmmi10-116"/>
     <use transform="translate(119.854766 104.202344)scale(0.7)" xlink:href="#Cmex10-174"/>
    </g>
   </g>
   <g id="patch_46">
    <path d="M 538.208182 27.678884 
Q 538.208182 36.027923 538.208182 45.494996 
" style="fill:none;stroke:#000000;stroke-linecap:round;"/>
    <path d="M 535.808182 32.478884 
L 538.208182 27.678884 
L 540.608182 32.478884 
" style="fill:none;stroke:#000000;stroke-linecap:round;"/>
   </g>
   <g id="text_29">
    <!-- $\hat{y}^{\langle t \rangle}$ -->
    <g transform="translate(529.088182 20.04)scale(0.12 -0.12)">
     <use transform="translate(5.724609 3.472135)" xlink:href="#Cmr10-94"/>
     <use transform="translate(0 0.597135)" xlink:href="#Cmmi10-121"/>
     <use transform="translate(53.487578 104.202344)scale(0.7)" xlink:href="#Cmex10-173"/>
     <use transform="translate(86.539336 38.861198)scale(0.7)" xlink:href="#Cmmi10-116"/>
     <use transform="translate(111.798125 104.202344)scale(0.7)" xlink:href="#Cmex10-174"/>
    </g>
   </g>
   <g id="patch_47">
    <path d="M 553.710194 112.15044 
Q 570.592034 107.464135 570.592034 126.887597 
L 570.592034 131.184403 
Q 570.592034 150.607865 554.78749 146.220611 
" style="fill:none;stroke:#000000;stroke-linecap:round;"/>
    <path d="M 558.106784 149.217657 
L 554.78749 146.220611 
L 559.176704 145.363404 
" style="fill:none;stroke:#000000;stroke-linecap:round;"/>
   </g>
   <g id="text_30">
    <g id="patch_48">
     <path d="M 565.824847 135.067664 
L 575.359222 135.067664 
L 575.359222 125.389539 
L 565.824847 125.389539 
z
" style="stroke:#000000;stroke-linejoin:miter;"/>
    </g>
    <!--     -->
    <g transform="translate(565.824847 132.987977)scale(0.1 -0.1)">
     <defs>
      <path id="DejaVuSans-32"/>
     </defs>
     <use xlink:href="#DejaVuSans-32"/>
     <use x="31.787109" xlink:href="#DejaVuSans-32"/>
     <use x="63.574219" xlink:href="#DejaVuSans-32"/>
    </g>
   </g>
   <g id="text_31">
    <!-- $W_{{aa}}$ -->
    <g transform="translate(560.092034 158.335782)scale(0.12 -0.12)">
     <use transform="translate(0 0.6875)" xlink:href="#Cmmi10-87"/>
     <use transform="translate(94.384766 -16.31875)scale(0.7)" xlink:href="#Cmmi10-97"/>
     <use transform="translate(131.333008 -16.31875)scale(0.7)" xlink:href="#Cmmi10-97"/>
    </g>
   </g>
   <g id="text_32">
    <!-- $W_{{ax}}$ -->
    <g transform="translate(551.798182 219.694125)scale(0.12 -0.12)">
     <use transform="translate(0 0.6875)" xlink:href="#Cmmi10-87"/>
     <use transform="translate(94.384766 -16.31875)scale(0.7)" xlink:href="#Cmmi10-97"/>
     <use transform="translate(131.333008 -16.31875)scale(0.7)" xlink:href="#Cmmi10-120"/>
    </g>
   </g>
   <g id="text_33">
    <!-- $W_{{ya}}$ -->
    <g transform="translate(551.798182 43.656)scale(0.12 -0.12)">
     <use transform="translate(0 0.6875)" xlink:href="#Cmmi10-87"/>
     <use transform="translate(94.384766 -16.31875)scale(0.7)" xlink:href="#Cmmi10-121"/>
     <use transform="translate(128.701172 -16.31875)scale(0.7)" xlink:href="#Cmmi10-97"/>
    </g>
   </g>
  </g>
 </g>
 <defs>
  <clipPath id="p30e9cbac30">
   <rect height="202.909091" width="304.363636" x="7.2" y="27.581455"/>
  </clipPath>
  <clipPath id="p26fe958ad3">
   <rect height="217.44" width="108.72" x="470.258182" y="20.316"/>
  </clipPath>
 </defs>
</svg>
