<?xml version="1.0" encoding="utf-8" standalone="no"?>
<!DOCTYPE svg PUBLIC "-//W3C//DTD SVG 1.1//EN"
  "http://www.w3.org/Graphics/SVG/1.1/DTD/svg11.dtd">
<!-- Created with matplotlib (https://matplotlib.org/) -->
<svg height="258.333187pt" version="1.1" viewBox="0 0 598.552972 258.333187" width="598.552972pt" xmlns="http://www.w3.org/2000/svg" xmlns:xlink="http://www.w3.org/1999/xlink">
 <metadata>
  <rdf:RDF xmlns:cc="http://creativecommons.org/ns#" xmlns:dc="http://purl.org/dc/elements/1.1/" xmlns:rdf="http://www.w3.org/1999/02/22-rdf-syntax-ns#">
   <cc:Work>
    <dc:type rdf:resource="http://purl.org/dc/dcmitype/StillImage"/>
    <dc:date>2021-05-16T19:43:49.633874</dc:date>
    <dc:format>image/svg+xml</dc:format>
    <dc:creator>
     <cc:Agent>
      <dc:title>Matplotlib v3.3.4, https://matplotlib.org/</dc:title>
     </cc:Agent>
    </dc:creator>
   </cc:Work>
  </rdf:RDF>
 </metadata>
 <defs>
  <style type="text/css">*{stroke-linecap:butt;stroke-linejoin:round;}</style>
 </defs>
 <g id="figure_1">
  <g id="patch_1">
   <path d="M 0 258.333187 
L 598.552972 258.333187 
L 598.552972 0 
L 0 0 
z
" style="fill:none;"/>
  </g>
  <g id="axes_1">
   <g id="patch_2">
    <path clip-path="url(#p3149a6f255)" d="M 80.870028 203.991733 
C 83.560634 203.991733 86.141402 202.922744 88.043948 201.020198 
C 89.946494 199.117652 91.015483 196.536884 91.015483 193.846278 
C 91.015483 191.155672 89.946494 188.574904 88.043948 186.672359 
C 86.141402 184.769813 83.560634 183.700824 80.870028 183.700824 
C 78.179422 183.700824 75.598654 184.769813 73.696109 186.672359 
C 71.793563 188.574904 70.724574 191.155672 70.724574 193.846278 
C 70.724574 196.536884 71.793563 199.117652 73.696109 201.020198 
C 75.598654 202.922744 78.179422 203.991733 80.870028 203.991733 
z
" style="fill:none;stroke:#000000;stroke-linejoin:miter;"/>
   </g>
   <g id="patch_3">
    <path clip-path="url(#p3149a6f255)" d="M 80.870028 172.287187 
C 83.560634 172.287187 86.141402 171.218198 88.043948 169.315653 
C 89.946494 167.413107 91.015483 164.832339 91.015483 162.141733 
C 91.015483 159.451127 89.946494 156.870359 88.043948 154.967813 
C 86.141402 153.065268 83.560634 151.996278 80.870028 151.996278 
C 78.179422 151.996278 75.598654 153.065268 73.696109 154.967813 
C 71.793563 156.870359 70.724574 159.451127 70.724574 162.141733 
C 70.724574 164.832339 71.793563 167.413107 73.696109 169.315653 
C 75.598654 171.218198 78.179422 172.287187 80.870028 172.287187 
z
" style="fill:none;stroke:#000000;stroke-linejoin:miter;"/>
   </g>
   <g id="patch_4">
    <path clip-path="url(#p3149a6f255)" d="M 80.870028 140.582642 
C 83.560634 140.582642 86.141402 139.513653 88.043948 137.611107 
C 89.946494 135.708561 91.015483 133.127793 91.015483 130.437187 
C 91.015483 127.746582 89.946494 125.165814 88.043948 123.263268 
C 86.141402 121.360722 83.560634 120.291733 80.870028 120.291733 
C 78.179422 120.291733 75.598654 121.360722 73.696109 123.263268 
C 71.793563 125.165814 70.724574 127.746582 70.724574 130.437187 
C 70.724574 133.127793 71.793563 135.708561 73.696109 137.611107 
C 75.598654 139.513653 78.179422 140.582642 80.870028 140.582642 
z
" style="fill:none;stroke:#000000;stroke-linejoin:miter;"/>
   </g>
   <g id="patch_5">
    <path clip-path="url(#p3149a6f255)" d="M 80.870028 108.878097 
C 83.560634 108.878097 86.141402 107.809107 88.043948 105.906562 
C 89.946494 104.004016 91.015483 101.423248 91.015483 98.732642 
C 91.015483 96.042036 89.946494 93.461268 88.043948 91.558722 
C 86.141402 89.656177 83.560634 88.587187 80.870028 88.587187 
C 78.179422 88.587187 75.598654 89.656177 73.696109 91.558722 
C 71.793563 93.461268 70.724574 96.042036 70.724574 98.732642 
C 70.724574 101.423248 71.793563 104.004016 73.696109 105.906562 
C 75.598654 107.809107 78.179422 108.878097 80.870028 108.878097 
z
" style="fill:none;stroke:#000000;stroke-linejoin:miter;"/>
   </g>
   <g id="patch_6">
    <path clip-path="url(#p3149a6f255)" d="M 80.870028 77.173551 
C 83.560634 77.173551 86.141402 76.104562 88.043948 74.202016 
C 89.946494 72.299471 91.015483 69.718703 91.015483 67.028097 
C 91.015483 64.337491 89.946494 61.756723 88.043948 59.854177 
C 86.141402 57.951631 83.560634 56.882642 80.870028 56.882642 
C 78.179422 56.882642 75.598654 57.951631 73.696109 59.854177 
C 71.793563 61.756723 70.724574 64.337491 70.724574 67.028097 
C 70.724574 69.718703 71.793563 72.299471 73.696109 74.202016 
C 75.598654 76.104562 78.179422 77.173551 80.870028 77.173551 
z
" style="fill:none;stroke:#000000;stroke-linejoin:miter;"/>
   </g>
   <g id="patch_7">
    <path clip-path="url(#p3149a6f255)" d="M 68.18821 206.528097 
L 93.551847 206.528097 
L 93.551847 54.346278 
L 68.18821 54.346278 
z
" style="fill:none;stroke:#000000;stroke-linejoin:miter;"/>
   </g>
   <g id="patch_8">
    <path clip-path="url(#p3149a6f255)" d="M 131.597301 203.991733 
C 134.287907 203.991733 136.868675 202.922744 138.771221 201.020198 
C 140.673767 199.117652 141.742756 196.536884 141.742756 193.846278 
C 141.742756 191.155672 140.673767 188.574904 138.771221 186.672359 
C 136.868675 184.769813 134.287907 183.700824 131.597301 183.700824 
C 128.906695 183.700824 126.325927 184.769813 124.423381 186.672359 
C 122.520836 188.574904 121.451847 191.155672 121.451847 193.846278 
C 121.451847 196.536884 122.520836 199.117652 124.423381 201.020198 
C 126.325927 202.922744 128.906695 203.991733 131.597301 203.991733 
z
" style="fill:none;stroke:#000000;stroke-linejoin:miter;"/>
   </g>
   <g id="patch_9">
    <path clip-path="url(#p3149a6f255)" d="M 131.597301 172.287187 
C 134.287907 172.287187 136.868675 171.218198 138.771221 169.315653 
C 140.673767 167.413107 141.742756 164.832339 141.742756 162.141733 
C 141.742756 159.451127 140.673767 156.870359 138.771221 154.967813 
C 136.868675 153.065268 134.287907 151.996278 131.597301 151.996278 
C 128.906695 151.996278 126.325927 153.065268 124.423381 154.967813 
C 122.520836 156.870359 121.451847 159.451127 121.451847 162.141733 
C 121.451847 164.832339 122.520836 167.413107 124.423381 169.315653 
C 126.325927 171.218198 128.906695 172.287187 131.597301 172.287187 
z
" style="fill:none;stroke:#000000;stroke-linejoin:miter;"/>
   </g>
   <g id="patch_10">
    <path clip-path="url(#p3149a6f255)" d="M 131.597301 140.582642 
C 134.287907 140.582642 136.868675 139.513653 138.771221 137.611107 
C 140.673767 135.708561 141.742756 133.127793 141.742756 130.437187 
C 141.742756 127.746582 140.673767 125.165814 138.771221 123.263268 
C 136.868675 121.360722 134.287907 120.291733 131.597301 120.291733 
C 128.906695 120.291733 126.325927 121.360722 124.423381 123.263268 
C 122.520836 125.165814 121.451847 127.746582 121.451847 130.437187 
C 121.451847 133.127793 122.520836 135.708561 124.423381 137.611107 
C 126.325927 139.513653 128.906695 140.582642 131.597301 140.582642 
z
" style="fill:none;stroke:#000000;stroke-linejoin:miter;"/>
   </g>
   <g id="patch_11">
    <path clip-path="url(#p3149a6f255)" d="M 131.597301 108.878097 
C 134.287907 108.878097 136.868675 107.809107 138.771221 105.906562 
C 140.673767 104.004016 141.742756 101.423248 141.742756 98.732642 
C 141.742756 96.042036 140.673767 93.461268 138.771221 91.558722 
C 136.868675 89.656177 134.287907 88.587187 131.597301 88.587187 
C 128.906695 88.587187 126.325927 89.656177 124.423381 91.558722 
C 122.520836 93.461268 121.451847 96.042036 121.451847 98.732642 
C 121.451847 101.423248 122.520836 104.004016 124.423381 105.906562 
C 126.325927 107.809107 128.906695 108.878097 131.597301 108.878097 
z
" style="fill:none;stroke:#000000;stroke-linejoin:miter;"/>
   </g>
   <g id="patch_12">
    <path clip-path="url(#p3149a6f255)" d="M 131.597301 77.173551 
C 134.287907 77.173551 136.868675 76.104562 138.771221 74.202016 
C 140.673767 72.299471 141.742756 69.718703 141.742756 67.028097 
C 141.742756 64.337491 140.673767 61.756723 138.771221 59.854177 
C 136.868675 57.951631 134.287907 56.882642 131.597301 56.882642 
C 128.906695 56.882642 126.325927 57.951631 124.423381 59.854177 
C 122.520836 61.756723 121.451847 64.337491 121.451847 67.028097 
C 121.451847 69.718703 122.520836 72.299471 124.423381 74.202016 
C 126.325927 76.104562 128.906695 77.173551 131.597301 77.173551 
z
" style="fill:none;stroke:#000000;stroke-linejoin:miter;"/>
   </g>
   <g id="patch_13">
    <path clip-path="url(#p3149a6f255)" d="M 118.915483 206.528097 
L 144.279119 206.528097 
L 144.279119 54.346278 
L 118.915483 54.346278 
z
" style="fill:none;stroke:#000000;stroke-linejoin:miter;"/>
   </g>
   <g id="patch_14">
    <path clip-path="url(#p3149a6f255)" d="M 182.324574 203.991733 
C 185.01518 203.991733 187.595948 202.922744 189.498494 201.020198 
C 191.401039 199.117652 192.470028 196.536884 192.470028 193.846278 
C 192.470028 191.155672 191.401039 188.574904 189.498494 186.672359 
C 187.595948 184.769813 185.01518 183.700824 182.324574 183.700824 
C 179.633968 183.700824 177.0532 184.769813 175.150654 186.672359 
C 173.248108 188.574904 172.179119 191.155672 172.179119 193.846278 
C 172.179119 196.536884 173.248108 199.117652 175.150654 201.020198 
C 177.0532 202.922744 179.633968 203.991733 182.324574 203.991733 
z
" style="fill:none;stroke:#000000;stroke-linejoin:miter;"/>
   </g>
   <g id="patch_15">
    <path clip-path="url(#p3149a6f255)" d="M 182.324574 172.287187 
C 185.01518 172.287187 187.595948 171.218198 189.498494 169.315653 
C 191.401039 167.413107 192.470028 164.832339 192.470028 162.141733 
C 192.470028 159.451127 191.401039 156.870359 189.498494 154.967813 
C 187.595948 153.065268 185.01518 151.996278 182.324574 151.996278 
C 179.633968 151.996278 177.0532 153.065268 175.150654 154.967813 
C 173.248108 156.870359 172.179119 159.451127 172.179119 162.141733 
C 172.179119 164.832339 173.248108 167.413107 175.150654 169.315653 
C 177.0532 171.218198 179.633968 172.287187 182.324574 172.287187 
z
" style="fill:none;stroke:#000000;stroke-linejoin:miter;"/>
   </g>
   <g id="patch_16">
    <path clip-path="url(#p3149a6f255)" d="M 182.324574 140.582642 
C 185.01518 140.582642 187.595948 139.513653 189.498494 137.611107 
C 191.401039 135.708561 192.470028 133.127793 192.470028 130.437187 
C 192.470028 127.746582 191.401039 125.165814 189.498494 123.263268 
C 187.595948 121.360722 185.01518 120.291733 182.324574 120.291733 
C 179.633968 120.291733 177.0532 121.360722 175.150654 123.263268 
C 173.248108 125.165814 172.179119 127.746582 172.179119 130.437187 
C 172.179119 133.127793 173.248108 135.708561 175.150654 137.611107 
C 177.0532 139.513653 179.633968 140.582642 182.324574 140.582642 
z
" style="fill:none;stroke:#000000;stroke-linejoin:miter;"/>
   </g>
   <g id="patch_17">
    <path clip-path="url(#p3149a6f255)" d="M 182.324574 108.878097 
C 185.01518 108.878097 187.595948 107.809107 189.498494 105.906562 
C 191.401039 104.004016 192.470028 101.423248 192.470028 98.732642 
C 192.470028 96.042036 191.401039 93.461268 189.498494 91.558722 
C 187.595948 89.656177 185.01518 88.587187 182.324574 88.587187 
C 179.633968 88.587187 177.0532 89.656177 175.150654 91.558722 
C 173.248108 93.461268 172.179119 96.042036 172.179119 98.732642 
C 172.179119 101.423248 173.248108 104.004016 175.150654 105.906562 
C 177.0532 107.809107 179.633968 108.878097 182.324574 108.878097 
z
" style="fill:none;stroke:#000000;stroke-linejoin:miter;"/>
   </g>
   <g id="patch_18">
    <path clip-path="url(#p3149a6f255)" d="M 182.324574 77.173551 
C 185.01518 77.173551 187.595948 76.104562 189.498494 74.202016 
C 191.401039 72.299471 192.470028 69.718703 192.470028 67.028097 
C 192.470028 64.337491 191.401039 61.756723 189.498494 59.854177 
C 187.595948 57.951631 185.01518 56.882642 182.324574 56.882642 
C 179.633968 56.882642 177.0532 57.951631 175.150654 59.854177 
C 173.248108 61.756723 172.179119 64.337491 172.179119 67.028097 
C 172.179119 69.718703 173.248108 72.299471 175.150654 74.202016 
C 177.0532 76.104562 179.633968 77.173551 182.324574 77.173551 
z
" style="fill:none;stroke:#000000;stroke-linejoin:miter;"/>
   </g>
   <g id="patch_19">
    <path clip-path="url(#p3149a6f255)" d="M 169.642756 206.528097 
L 195.006392 206.528097 
L 195.006392 54.346278 
L 169.642756 54.346278 
z
" style="fill:none;stroke:#000000;stroke-linejoin:miter;"/>
   </g>
   <g id="patch_20">
    <path clip-path="url(#p3149a6f255)" d="M 283.779119 203.991733 
C 286.469725 203.991733 289.050493 202.922744 290.953039 201.020198 
C 292.855585 199.117652 293.924574 196.536884 293.924574 193.846278 
C 293.924574 191.155672 292.855585 188.574904 290.953039 186.672359 
C 289.050493 184.769813 286.469725 183.700824 283.779119 183.700824 
C 281.088513 183.700824 278.507745 184.769813 276.6052 186.672359 
C 274.702654 188.574904 273.633665 191.155672 273.633665 193.846278 
C 273.633665 196.536884 274.702654 199.117652 276.6052 201.020198 
C 278.507745 202.922744 281.088513 203.991733 283.779119 203.991733 
z
" style="fill:none;stroke:#000000;stroke-linejoin:miter;"/>
   </g>
   <g id="patch_21">
    <path clip-path="url(#p3149a6f255)" d="M 283.779119 172.287187 
C 286.469725 172.287187 289.050493 171.218198 290.953039 169.315653 
C 292.855585 167.413107 293.924574 164.832339 293.924574 162.141733 
C 293.924574 159.451127 292.855585 156.870359 290.953039 154.967813 
C 289.050493 153.065268 286.469725 151.996278 283.779119 151.996278 
C 281.088513 151.996278 278.507745 153.065268 276.6052 154.967813 
C 274.702654 156.870359 273.633665 159.451127 273.633665 162.141733 
C 273.633665 164.832339 274.702654 167.413107 276.6052 169.315653 
C 278.507745 171.218198 281.088513 172.287187 283.779119 172.287187 
z
" style="fill:none;stroke:#000000;stroke-linejoin:miter;"/>
   </g>
   <g id="patch_22">
    <path clip-path="url(#p3149a6f255)" d="M 283.779119 140.582642 
C 286.469725 140.582642 289.050493 139.513653 290.953039 137.611107 
C 292.855585 135.708561 293.924574 133.127793 293.924574 130.437187 
C 293.924574 127.746582 292.855585 125.165814 290.953039 123.263268 
C 289.050493 121.360722 286.469725 120.291733 283.779119 120.291733 
C 281.088513 120.291733 278.507745 121.360722 276.6052 123.263268 
C 274.702654 125.165814 273.633665 127.746582 273.633665 130.437187 
C 273.633665 133.127793 274.702654 135.708561 276.6052 137.611107 
C 278.507745 139.513653 281.088513 140.582642 283.779119 140.582642 
z
" style="fill:none;stroke:#000000;stroke-linejoin:miter;"/>
   </g>
   <g id="patch_23">
    <path clip-path="url(#p3149a6f255)" d="M 283.779119 108.878097 
C 286.469725 108.878097 289.050493 107.809107 290.953039 105.906562 
C 292.855585 104.004016 293.924574 101.423248 293.924574 98.732642 
C 293.924574 96.042036 292.855585 93.461268 290.953039 91.558722 
C 289.050493 89.656177 286.469725 88.587187 283.779119 88.587187 
C 281.088513 88.587187 278.507745 89.656177 276.6052 91.558722 
C 274.702654 93.461268 273.633665 96.042036 273.633665 98.732642 
C 273.633665 101.423248 274.702654 104.004016 276.6052 105.906562 
C 278.507745 107.809107 281.088513 108.878097 283.779119 108.878097 
z
" style="fill:none;stroke:#000000;stroke-linejoin:miter;"/>
   </g>
   <g id="patch_24">
    <path clip-path="url(#p3149a6f255)" d="M 283.779119 77.173551 
C 286.469725 77.173551 289.050493 76.104562 290.953039 74.202016 
C 292.855585 72.299471 293.924574 69.718703 293.924574 67.028097 
C 293.924574 64.337491 292.855585 61.756723 290.953039 59.854177 
C 289.050493 57.951631 286.469725 56.882642 283.779119 56.882642 
C 281.088513 56.882642 278.507745 57.951631 276.6052 59.854177 
C 274.702654 61.756723 273.633665 64.337491 273.633665 67.028097 
C 273.633665 69.718703 274.702654 72.299471 276.6052 74.202016 
C 278.507745 76.104562 281.088513 77.173551 283.779119 77.173551 
z
" style="fill:none;stroke:#000000;stroke-linejoin:miter;"/>
   </g>
   <g id="patch_25">
    <path clip-path="url(#p3149a6f255)" d="M 271.097301 206.528097 
L 296.460938 206.528097 
L 296.460938 54.346278 
L 271.097301 54.346278 
z
" style="fill:none;stroke:#000000;stroke-linejoin:miter;"/>
   </g>
   <g id="text_1">
    <!-- $\cdots$ -->
    <g transform="translate(227.471847 133.748437)scale(0.12 -0.12)">
     <defs>
      <path d="M 81.796875 25.296875 
Q 81.796875 22.703125 80.046875 20.796875 
Q 78.296875 18.90625 75.5 18.90625 
Q 72.59375 18.90625 70.84375 20.65625 
Q 69.09375 22.40625 69.09375 25.296875 
Q 69.09375 28 71.046875 29.796875 
Q 73 31.59375 75.5 31.59375 
Q 78 31.59375 79.890625 29.796875 
Q 81.796875 28 81.796875 25.296875 
z
M 52.59375 25.296875 
Q 52.59375 22.703125 50.84375 20.796875 
Q 49.09375 18.90625 46.296875 18.90625 
Q 43.40625 18.90625 41.65625 20.65625 
Q 39.90625 22.40625 39.90625 25.296875 
Q 39.90625 28 41.84375 29.796875 
Q 43.796875 31.59375 46.296875 31.59375 
Q 48.796875 31.59375 50.6875 29.796875 
Q 52.59375 28 52.59375 25.296875 
z
M 23.5 25.296875 
Q 23.5 22.703125 21.75 20.796875 
Q 20 18.90625 17.203125 18.90625 
Q 14.296875 18.90625 12.546875 20.65625 
Q 10.796875 22.40625 10.796875 25.296875 
Q 10.796875 28 12.75 29.796875 
Q 14.703125 31.59375 17.203125 31.59375 
Q 19.703125 31.59375 21.59375 29.796875 
Q 23.5 28 23.5 25.296875 
z
" id="STIXGeneral-Regular-8943"/>
     </defs>
     <use transform="translate(0 0.40625)" xlink:href="#STIXGeneral-Regular-8943"/>
    </g>
   </g>
   <g id="text_2">
    <!-- A -->
    <g transform="translate(7.2 25.863111)scale(0.15 -0.15)">
     <defs>
      <path d="M 34.1875 63.1875 
L 20.796875 26.90625 
L 47.609375 26.90625 
z
M 28.609375 72.90625 
L 39.796875 72.90625 
L 67.578125 0 
L 57.328125 0 
L 50.6875 18.703125 
L 17.828125 18.703125 
L 11.1875 0 
L 0.78125 0 
z
" id="DejaVuSans-65"/>
     </defs>
     <use xlink:href="#DejaVuSans-65"/>
    </g>
   </g>
  </g>
  <g id="axes_2">
   <g id="patch_26">
    <path clip-path="url(#p9eb9dc3828)" d="M 548.469119 209.259187 
C 551.352407 209.259187 554.117992 208.113645 556.156784 206.074852 
C 558.195577 204.03606 559.341119 201.270476 559.341119 198.387187 
C 559.341119 195.503899 558.195577 192.738315 556.156784 190.699523 
C 554.117992 188.66073 551.352407 187.515187 548.469119 187.515187 
C 545.585831 187.515187 542.820247 188.66073 540.781454 190.699523 
C 538.742662 192.738315 537.597119 195.503899 537.597119 198.387187 
C 537.597119 201.270476 538.742662 204.03606 540.781454 206.074852 
C 542.820247 208.113645 545.585831 209.259187 548.469119 209.259187 
z
" style="fill:none;stroke:#000000;stroke-linejoin:miter;"/>
   </g>
   <g id="patch_27">
    <path clip-path="url(#p9eb9dc3828)" d="M 548.469119 175.284187 
C 551.352407 175.284187 554.117992 174.138645 556.156784 172.099852 
C 558.195577 170.06106 559.341119 167.295476 559.341119 164.412187 
C 559.341119 161.528899 558.195577 158.763315 556.156784 156.724523 
C 554.117992 154.68573 551.352407 153.540187 548.469119 153.540187 
C 545.585831 153.540187 542.820247 154.68573 540.781454 156.724523 
C 538.742662 158.763315 537.597119 161.528899 537.597119 164.412187 
C 537.597119 167.295476 538.742662 170.06106 540.781454 172.099852 
C 542.820247 174.138645 545.585831 175.284187 548.469119 175.284187 
z
" style="fill:none;stroke:#000000;stroke-linejoin:miter;"/>
   </g>
   <g id="patch_28">
    <path clip-path="url(#p9eb9dc3828)" d="M 548.469119 141.309187 
C 551.352407 141.309187 554.117992 140.163645 556.156784 138.124852 
C 558.195577 136.08606 559.341119 133.320476 559.341119 130.437187 
C 559.341119 127.553899 558.195577 124.788315 556.156784 122.749523 
C 554.117992 120.71073 551.352407 119.565187 548.469119 119.565187 
C 545.585831 119.565187 542.820247 120.71073 540.781454 122.749523 
C 538.742662 124.788315 537.597119 127.553899 537.597119 130.437187 
C 537.597119 133.320476 538.742662 136.08606 540.781454 138.124852 
C 542.820247 140.163645 545.585831 141.309187 548.469119 141.309187 
z
" style="fill:none;stroke:#000000;stroke-linejoin:miter;"/>
   </g>
   <g id="patch_29">
    <path clip-path="url(#p9eb9dc3828)" d="M 548.469119 107.334187 
C 551.352407 107.334187 554.117992 106.188645 556.156784 104.149852 
C 558.195577 102.11106 559.341119 99.345476 559.341119 96.462187 
C 559.341119 93.578899 558.195577 90.813315 556.156784 88.774523 
C 554.117992 86.73573 551.352407 85.590187 548.469119 85.590187 
C 545.585831 85.590187 542.820247 86.73573 540.781454 88.774523 
C 538.742662 90.813315 537.597119 93.578899 537.597119 96.462187 
C 537.597119 99.345476 538.742662 102.11106 540.781454 104.149852 
C 542.820247 106.188645 545.585831 107.334187 548.469119 107.334187 
z
" style="fill:none;stroke:#000000;stroke-linejoin:miter;"/>
   </g>
   <g id="patch_30">
    <path clip-path="url(#p9eb9dc3828)" d="M 548.469119 73.359187 
C 551.352407 73.359187 554.117992 72.213645 556.156784 70.174852 
C 558.195577 68.13606 559.341119 65.370476 559.341119 62.487187 
C 559.341119 59.603899 558.195577 56.838315 556.156784 54.799523 
C 554.117992 52.76073 551.352407 51.615187 548.469119 51.615187 
C 545.585831 51.615187 542.820247 52.76073 540.781454 54.799523 
C 538.742662 56.838315 537.597119 59.603899 537.597119 62.487187 
C 537.597119 65.370476 538.742662 68.13606 540.781454 70.174852 
C 542.820247 72.213645 545.585831 73.359187 548.469119 73.359187 
z
" style="fill:none;stroke:#000000;stroke-linejoin:miter;"/>
   </g>
   <g id="patch_31">
    <path clip-path="url(#p9eb9dc3828)" d="M 534.879119 211.977187 
L 562.059119 211.977187 
L 562.059119 48.897187 
L 534.879119 48.897187 
z
" style="fill:none;stroke:#000000;stroke-linejoin:miter;"/>
   </g>
   <g id="patch_32">
    <path d="M 80.870028 226.420962 
Q 80.870028 217.472572 80.870028 209.642216 
" style="fill:none;stroke:#000000;stroke-linecap:round;"/>
    <path d="M 78.470028 214.442216 
L 80.870028 209.642216 
L 83.270028 214.442216 
" style="fill:none;stroke:#000000;stroke-linecap:round;"/>
   </g>
   <g id="text_3">
    <!-- $\hat{x}^{\langle 1 \rangle}$ -->
    <g transform="translate(70.670028 241.008835)scale(0.12 -0.12)">
     <defs>
      <path d="M 13.484375 53.8125 
L 11.53125 55.90625 
L 25 69.390625 
L 38.375 55.90625 
L 36.375 53.8125 
L 25 63.8125 
z
" id="Cmr10-94"/>
      <path d="M 7.8125 2.875 
Q 9.578125 1.515625 12.796875 1.515625 
Q 15.921875 1.515625 18.3125 4.515625 
Q 20.703125 7.515625 21.578125 11.078125 
L 26.125 28.8125 
Q 27.203125 33.640625 27.203125 35.40625 
Q 27.203125 37.890625 25.8125 39.75 
Q 24.421875 41.609375 21.921875 41.609375 
Q 18.75 41.609375 15.96875 39.625 
Q 13.1875 37.640625 11.28125 34.59375 
Q 9.375 31.546875 8.59375 28.421875 
Q 8.40625 27.78125 7.8125 27.78125 
L 6.59375 27.78125 
Q 5.8125 27.78125 5.8125 28.71875 
L 5.8125 29 
Q 6.78125 32.71875 9.125 36.25 
Q 11.46875 39.796875 14.859375 41.984375 
Q 18.265625 44.1875 22.125 44.1875 
Q 25.78125 44.1875 28.734375 42.234375 
Q 31.6875 40.28125 32.90625 36.921875 
Q 34.625 39.984375 37.28125 42.078125 
Q 39.9375 44.1875 43.109375 44.1875 
Q 45.265625 44.1875 47.5 43.421875 
Q 49.75 42.671875 51.171875 41.109375 
Q 52.59375 39.546875 52.59375 37.203125 
Q 52.59375 34.671875 50.953125 32.828125 
Q 49.3125 31 46.78125 31 
Q 45.171875 31 44.09375 32.03125 
Q 43.015625 33.0625 43.015625 34.625 
Q 43.015625 36.71875 44.453125 38.296875 
Q 45.90625 39.890625 47.90625 40.1875 
Q 46.09375 41.609375 42.921875 41.609375 
Q 39.703125 41.609375 37.328125 38.625 
Q 34.96875 35.640625 33.984375 31.984375 
L 29.59375 14.3125 
Q 28.515625 10.296875 28.515625 7.71875 
Q 28.515625 5.171875 29.953125 3.34375 
Q 31.390625 1.515625 33.796875 1.515625 
Q 38.484375 1.515625 42.15625 5.640625 
Q 45.84375 9.765625 47.015625 14.703125 
Q 47.21875 15.28125 47.796875 15.28125 
L 49.03125 15.28125 
Q 49.421875 15.28125 49.65625 15.015625 
Q 49.90625 14.75 49.90625 14.40625 
Q 49.90625 14.3125 49.8125 14.109375 
Q 48.390625 8.15625 43.84375 3.515625 
Q 39.3125 -1.125 33.59375 -1.125 
Q 29.9375 -1.125 26.984375 0.84375 
Q 24.03125 2.828125 22.796875 6.203125 
Q 21.234375 3.265625 18.46875 1.0625 
Q 15.71875 -1.125 12.59375 -1.125 
Q 10.453125 -1.125 8.171875 -0.359375 
Q 5.90625 0.390625 4.484375 1.953125 
Q 3.078125 3.515625 3.078125 5.90625 
Q 3.078125 8.25 4.703125 10.171875 
Q 6.34375 12.109375 8.796875 12.109375 
Q 10.453125 12.109375 11.578125 11.109375 
Q 12.703125 10.109375 12.703125 8.5 
Q 12.703125 6.390625 11.296875 4.828125 
Q 9.90625 3.265625 7.8125 2.875 
z
" id="Cmmi10-120"/>
      <path d="M 35.5 -114.796875 
L 10.015625 -56.78125 
Q 9.8125 -56.5 9.8125 -56 
Q 9.8125 -55.515625 10.015625 -55.328125 
L 35.5 2.78125 
Q 35.984375 4 37.3125 4 
Q 38.03125 4 38.671875 3.359375 
Q 39.3125 2.734375 39.3125 2 
Q 39.3125 1.515625 39.203125 1.3125 
L 14.015625 -56 
L 39.203125 -113.28125 
Q 39.3125 -113.484375 39.3125 -114.015625 
Q 39.3125 -114.75 38.671875 -115.375 
Q 38.03125 -116.015625 37.3125 -116.015625 
Q 36.03125 -116.015625 35.5 -114.796875 
z
" id="Cmex10-173"/>
      <path d="M 9.28125 0 
L 9.28125 3.515625 
Q 21.78125 3.515625 21.78125 6.6875 
L 21.78125 59.1875 
Q 16.609375 56.6875 8.6875 56.6875 
L 8.6875 60.203125 
Q 20.953125 60.203125 27.203125 66.609375 
L 28.609375 66.609375 
Q 28.953125 66.609375 29.265625 66.328125 
Q 29.59375 66.0625 29.59375 65.71875 
L 29.59375 6.6875 
Q 29.59375 3.515625 42.09375 3.515625 
L 42.09375 0 
z
" id="Cmr10-49"/>
      <path d="M 7.8125 -114.015625 
Q 7.8125 -113.484375 8.015625 -113.28125 
L 33.109375 -56 
L 8.015625 1.3125 
Q 7.8125 1.515625 7.8125 2 
Q 7.8125 2.734375 8.390625 3.359375 
Q 8.984375 4 9.8125 4 
Q 10.984375 4 11.71875 2.78125 
L 37.203125 -55.328125 
Q 37.3125 -55.515625 37.3125 -56 
Q 37.3125 -56.5 37.203125 -56.78125 
L 11.71875 -114.796875 
Q 10.9375 -116.015625 9.8125 -116.015625 
Q 8.984375 -116.015625 8.390625 -115.375 
Q 7.8125 -114.75 7.8125 -114.015625 
z
" id="Cmex10-174"/>
     </defs>
     <use transform="translate(10.73877 3.472135)" xlink:href="#Cmr10-94"/>
     <use transform="translate(0 0.597135)" xlink:href="#Cmmi10-120"/>
     <use transform="translate(61.544219 104.202344)scale(0.7)" xlink:href="#Cmex10-173"/>
     <use transform="translate(94.595977 38.861198)scale(0.7)" xlink:href="#Cmr10-49"/>
     <use transform="translate(129.595977 104.202344)scale(0.7)" xlink:href="#Cmex10-174"/>
    </g>
   </g>
   <g id="patch_33">
    <path d="M 80.870028 36.705761 
Q 80.870028 43.966333 80.870028 52.344939 
" style="fill:none;stroke:#000000;stroke-linecap:round;"/>
    <path d="M 78.470028 41.505761 
L 80.870028 36.705761 
L 83.270028 41.505761 
" style="fill:none;stroke:#000000;stroke-linecap:round;"/>
   </g>
   <g id="text_4">
    <!-- $\hat{y}^{\langle 1 \rangle}$ -->
    <g transform="translate(71.210028 29.069915)scale(0.12 -0.12)">
     <defs>
      <path d="M 8.40625 -14.3125 
Q 10.5 -17.921875 15.71875 -17.921875 
Q 20.453125 -17.921875 23.921875 -14.59375 
Q 27.390625 -11.28125 29.515625 -6.5625 
Q 31.640625 -1.859375 32.8125 3.078125 
Q 28.375 -1.125 23.1875 -1.125 
Q 19.234375 -1.125 16.453125 0.234375 
Q 13.671875 1.609375 12.125 4.3125 
Q 10.59375 7.03125 10.59375 10.890625 
Q 10.59375 14.15625 11.46875 17.59375 
Q 12.359375 21.046875 13.9375 25.265625 
Q 15.53125 29.5 16.703125 32.625 
Q 18.015625 36.28125 18.015625 38.625 
Q 18.015625 41.609375 15.828125 41.609375 
Q 11.859375 41.609375 9.296875 37.53125 
Q 6.734375 33.453125 5.515625 28.421875 
Q 5.328125 27.78125 4.6875 27.78125 
L 3.515625 27.78125 
Q 2.6875 27.78125 2.6875 28.71875 
L 2.6875 29 
Q 4.296875 34.96875 7.609375 39.578125 
Q 10.9375 44.1875 16.015625 44.1875 
Q 19.578125 44.1875 22.046875 41.84375 
Q 24.515625 39.5 24.515625 35.890625 
Q 24.515625 34.03125 23.6875 31.984375 
Q 23.25 30.765625 21.6875 26.65625 
Q 20.125 22.5625 19.28125 19.875 
Q 18.453125 17.1875 17.921875 14.59375 
Q 17.390625 12.015625 17.390625 9.421875 
Q 17.390625 6.109375 18.796875 3.8125 
Q 20.21875 1.515625 23.296875 1.515625 
Q 29.5 1.515625 34.421875 9.078125 
L 42 39.890625 
Q 42.328125 41.21875 43.546875 42.15625 
Q 44.78125 43.109375 46.1875 43.109375 
Q 47.40625 43.109375 48.3125 42.328125 
Q 49.21875 41.546875 49.21875 40.28125 
Q 49.21875 39.703125 49.125 39.5 
L 39.203125 -0.296875 
Q 37.890625 -5.421875 34.375 -10.109375 
Q 30.859375 -14.796875 25.90625 -17.65625 
Q 20.953125 -20.515625 15.578125 -20.515625 
Q 12.984375 -20.515625 10.4375 -19.5 
Q 7.90625 -18.5 6.34375 -16.5 
Q 4.78125 -14.5 4.78125 -11.8125 
Q 4.78125 -9.078125 6.390625 -7.078125 
Q 8.015625 -5.078125 10.6875 -5.078125 
Q 12.3125 -5.078125 13.40625 -6.078125 
Q 14.5 -7.078125 14.5 -8.6875 
Q 14.5 -10.984375 12.78125 -12.6875 
Q 11.078125 -14.40625 8.796875 -14.40625 
Q 8.6875 -14.359375 8.59375 -14.328125 
Q 8.5 -14.3125 8.40625 -14.3125 
z
" id="Cmmi10-121"/>
     </defs>
     <use transform="translate(5.724609 3.472135)" xlink:href="#Cmr10-94"/>
     <use transform="translate(0 0.597135)" xlink:href="#Cmmi10-121"/>
     <use transform="translate(53.487578 104.202344)scale(0.7)" xlink:href="#Cmex10-173"/>
     <use transform="translate(86.539336 38.861198)scale(0.7)" xlink:href="#Cmr10-49"/>
     <use transform="translate(121.539336 104.202344)scale(0.7)" xlink:href="#Cmex10-174"/>
    </g>
   </g>
   <g id="text_5">
    <!-- $W_{{ax}}$ -->
    <g transform="translate(93.551847 215.646222)scale(0.12 -0.12)">
     <defs>
      <path d="M 17.828125 -1.125 
L 13.1875 62.59375 
Q 12.84375 64.0625 10.984375 64.421875 
Q 9.125 64.796875 6.390625 64.796875 
Q 5.421875 64.796875 5.421875 66.109375 
Q 5.765625 67.390625 5.953125 67.84375 
Q 6.15625 68.3125 7.078125 68.3125 
L 30.90625 68.3125 
Q 31.890625 68.3125 31.890625 67 
Q 31.5 64.796875 30.609375 64.796875 
Q 22.609375 64.796875 22.125 62.015625 
L 25.6875 11.53125 
L 50.6875 55.078125 
L 50.203125 62.59375 
Q 49.859375 64.0625 48 64.421875 
Q 46.140625 64.796875 43.40625 64.796875 
Q 42.390625 64.796875 42.390625 66.109375 
Q 42.71875 67.390625 42.90625 67.84375 
Q 43.109375 68.3125 44.09375 68.3125 
L 67.921875 68.3125 
Q 68.890625 68.3125 68.890625 67 
Q 68.84375 66.75 68.703125 66.15625 
Q 68.5625 65.578125 68.3125 65.1875 
Q 68.0625 64.796875 67.578125 64.796875 
Q 59.515625 64.796875 59.078125 62.015625 
L 59.078125 61.28125 
L 62.703125 11.53125 
L 89.890625 58.984375 
Q 90.484375 60.0625 90.484375 61.078125 
Q 90.484375 63.140625 88.46875 63.96875 
Q 86.46875 64.796875 83.984375 64.796875 
Q 83.015625 64.796875 83.015625 66.109375 
Q 83.203125 66.890625 83.328125 67.328125 
Q 83.453125 67.78125 83.765625 68.046875 
Q 84.078125 68.3125 84.71875 68.3125 
L 103.8125 68.3125 
Q 104.78125 68.3125 104.78125 67 
Q 104.734375 66.75 104.578125 66.140625 
Q 104.4375 65.53125 104.171875 65.15625 
Q 103.90625 64.796875 103.515625 64.796875 
Q 96.390625 64.796875 92.671875 58.296875 
Q 92.390625 58.015625 92.390625 58.015625 
L 58.5 -1.125 
Q 57.953125 -2.203125 56.78125 -2.203125 
L 56 -2.203125 
Q 54.78125 -2.203125 54.78125 -1.125 
L 50.984375 50.390625 
L 21.578125 -1.125 
Q 20.84375 -2.203125 19.828125 -2.203125 
L 19 -2.203125 
Q 17.828125 -2.203125 17.828125 -1.125 
z
" id="Cmmi10-87"/>
      <path d="M 17.390625 -1.125 
Q 11.078125 -1.125 7.4375 3.640625 
Q 3.8125 8.40625 3.8125 14.890625 
Q 3.8125 21.296875 7.125 28.171875 
Q 10.453125 35.0625 16.09375 39.625 
Q 21.734375 44.1875 28.21875 44.1875 
Q 31.203125 44.1875 33.546875 42.578125 
Q 35.890625 40.96875 37.203125 38.1875 
Q 38.328125 42.1875 41.609375 42.1875 
Q 42.875 42.1875 43.71875 41.421875 
Q 44.578125 40.671875 44.578125 39.40625 
Q 44.578125 39.109375 44.546875 38.953125 
Q 44.53125 38.8125 44.484375 38.625 
L 37.5 10.6875 
Q 36.8125 7.71875 36.8125 5.8125 
Q 36.8125 1.515625 39.703125 1.515625 
Q 42.828125 1.515625 44.453125 5.484375 
Q 46.09375 9.46875 47.21875 14.703125 
Q 47.40625 15.28125 48 15.28125 
L 49.21875 15.28125 
Q 49.609375 15.28125 49.84375 14.9375 
Q 50.09375 14.59375 50.09375 14.3125 
Q 48.34375 7.328125 46.265625 3.09375 
Q 44.1875 -1.125 39.5 -1.125 
Q 36.140625 -1.125 33.546875 0.84375 
Q 30.953125 2.828125 30.328125 6.109375 
Q 23.875 -1.125 17.390625 -1.125 
z
M 17.484375 1.515625 
Q 21.09375 1.515625 24.484375 4.21875 
Q 27.875 6.9375 30.328125 10.59375 
Q 30.421875 10.6875 30.421875 10.890625 
L 35.796875 32.625 
L 35.890625 32.90625 
Q 35.296875 36.46875 33.3125 39.03125 
Q 31.34375 41.609375 27.984375 41.609375 
Q 24.609375 41.609375 21.703125 38.84375 
Q 18.796875 36.078125 16.796875 32.328125 
Q 14.84375 28.328125 13.0625 21.34375 
Q 11.28125 14.359375 11.28125 10.5 
Q 11.28125 7.03125 12.765625 4.265625 
Q 14.265625 1.515625 17.484375 1.515625 
z
" id="Cmmi10-97"/>
     </defs>
     <use transform="translate(0 0.6875)" xlink:href="#Cmmi10-87"/>
     <use transform="translate(94.384766 -16.31875)scale(0.7)" xlink:href="#Cmmi10-97"/>
     <use transform="translate(131.333008 -16.31875)scale(0.7)" xlink:href="#Cmmi10-120"/>
    </g>
   </g>
   <g id="text_6">
    <!-- $W_{{ya}}$ -->
    <g transform="translate(93.551847 50.506278)scale(0.12 -0.12)">
     <use transform="translate(0 0.6875)" xlink:href="#Cmmi10-87"/>
     <use transform="translate(94.384766 -16.31875)scale(0.7)" xlink:href="#Cmmi10-121"/>
     <use transform="translate(128.701172 -16.31875)scale(0.7)" xlink:href="#Cmmi10-97"/>
    </g>
   </g>
   <g id="patch_34">
    <path d="M 65.073161 130.437187 
Q 55.507641 130.437187 44.824086 130.437187 
" style="fill:none;stroke:#000000;stroke-linecap:round;"/>
    <path d="M 60.273161 128.037187 
L 65.073161 130.437187 
L 60.273161 132.837187 
" style="fill:none;stroke:#000000;stroke-linecap:round;"/>
   </g>
   <g id="text_7">
    <!-- $a^{\langle 0 \rangle}$ -->
    <g transform="translate(45.033161 125.541562)scale(0.12 -0.12)">
     <defs>
      <path d="M 25 -2.203125 
Q 12.75 -2.203125 8.328125 7.875 
Q 3.90625 17.96875 3.90625 31.890625 
Q 3.90625 40.578125 5.484375 48.234375 
Q 7.078125 55.90625 11.78125 61.25 
Q 16.5 66.609375 25 66.609375 
Q 31.59375 66.609375 35.78125 63.375 
Q 39.984375 60.15625 42.1875 55.046875 
Q 44.390625 49.953125 45.1875 44.109375 
Q 46 38.28125 46 31.890625 
Q 46 23.296875 44.40625 15.796875 
Q 42.828125 8.296875 38.1875 3.046875 
Q 33.546875 -2.203125 25 -2.203125 
z
M 25 0.390625 
Q 30.5625 0.390625 33.296875 6.09375 
Q 36.03125 11.8125 36.671875 18.75 
Q 37.3125 25.6875 37.3125 33.5 
Q 37.3125 41.015625 36.671875 47.359375 
Q 36.03125 53.71875 33.3125 58.859375 
Q 30.609375 64.015625 25 64.015625 
Q 19.34375 64.015625 16.609375 58.828125 
Q 13.875 53.65625 13.234375 47.328125 
Q 12.59375 41.015625 12.59375 33.5 
Q 12.59375 27.9375 12.859375 23 
Q 13.140625 18.0625 14.3125 12.8125 
Q 15.484375 7.5625 18.09375 3.96875 
Q 20.703125 0.390625 25 0.390625 
z
" id="Cmr10-48"/>
     </defs>
     <use transform="translate(0 0.597135)" xlink:href="#Cmmi10-97"/>
     <use transform="translate(59.086484 104.202344)scale(0.7)" xlink:href="#Cmex10-173"/>
     <use transform="translate(92.138242 38.861198)scale(0.7)" xlink:href="#Cmr10-48"/>
     <use transform="translate(127.138242 104.202344)scale(0.7)" xlink:href="#Cmex10-174"/>
    </g>
   </g>
   <g id="text_8">
    <!-- $W_{{aa}}$ -->
    <g transform="translate(44.448624 146.755312)scale(0.12 -0.12)">
     <use transform="translate(0 0.6875)" xlink:href="#Cmmi10-87"/>
     <use transform="translate(94.384766 -16.31875)scale(0.7)" xlink:href="#Cmmi10-97"/>
     <use transform="translate(131.333008 -16.31875)scale(0.7)" xlink:href="#Cmmi10-97"/>
    </g>
   </g>
   <g id="patch_35">
    <path d="M 131.597301 226.420962 
Q 131.597301 217.472572 131.597301 209.642216 
" style="fill:none;stroke:#000000;stroke-linecap:round;"/>
    <path d="M 129.197301 214.442216 
L 131.597301 209.642216 
L 133.997301 214.442216 
" style="fill:none;stroke:#000000;stroke-linecap:round;"/>
   </g>
   <g id="text_9">
    <!-- $\hat{x}^{\langle 2 \rangle}$ -->
    <g transform="translate(121.397301 241.008835)scale(0.12 -0.12)">
     <defs>
      <path d="M 4.984375 0 
L 4.984375 2.6875 
Q 4.984375 2.9375 5.171875 3.21875 
L 20.703125 20.40625 
Q 24.21875 24.21875 26.40625 26.796875 
Q 28.609375 29.390625 30.75 32.765625 
Q 32.90625 36.140625 34.15625 39.625 
Q 35.40625 43.109375 35.40625 47.015625 
Q 35.40625 51.125 33.890625 54.859375 
Q 32.375 58.59375 29.375 60.84375 
Q 26.375 63.09375 22.125 63.09375 
Q 17.78125 63.09375 14.3125 60.46875 
Q 10.84375 57.859375 9.421875 53.71875 
Q 9.8125 53.8125 10.5 53.8125 
Q 12.75 53.8125 14.328125 52.296875 
Q 15.921875 50.78125 15.921875 48.390625 
Q 15.921875 46.09375 14.328125 44.5 
Q 12.75 42.921875 10.5 42.921875 
Q 8.15625 42.921875 6.5625 44.546875 
Q 4.984375 46.1875 4.984375 48.390625 
Q 4.984375 52.15625 6.390625 55.4375 
Q 7.8125 58.734375 10.46875 61.296875 
Q 13.140625 63.875 16.484375 65.234375 
Q 19.828125 66.609375 23.578125 66.609375 
Q 29.296875 66.609375 34.21875 64.1875 
Q 39.15625 61.765625 42.03125 57.34375 
Q 44.921875 52.9375 44.921875 47.015625 
Q 44.921875 42.671875 43.015625 38.765625 
Q 41.109375 34.859375 38.125 31.65625 
Q 35.15625 28.46875 30.515625 24.40625 
Q 25.875 20.359375 24.421875 19 
L 13.09375 8.109375 
L 22.703125 8.109375 
Q 29.78125 8.109375 34.546875 8.21875 
Q 39.3125 8.34375 39.59375 8.59375 
Q 40.765625 9.859375 42 17.828125 
L 44.921875 17.828125 
L 42.09375 0 
z
" id="Cmr10-50"/>
     </defs>
     <use transform="translate(10.73877 3.472135)" xlink:href="#Cmr10-94"/>
     <use transform="translate(0 0.597135)" xlink:href="#Cmmi10-120"/>
     <use transform="translate(61.544219 104.202344)scale(0.7)" xlink:href="#Cmex10-173"/>
     <use transform="translate(94.595977 38.861198)scale(0.7)" xlink:href="#Cmr10-50"/>
     <use transform="translate(129.595977 104.202344)scale(0.7)" xlink:href="#Cmex10-174"/>
    </g>
   </g>
   <g id="patch_36">
    <path d="M 131.597301 36.705761 
Q 131.597301 43.966333 131.597301 52.344939 
" style="fill:none;stroke:#000000;stroke-linecap:round;"/>
    <path d="M 129.197301 41.505761 
L 131.597301 36.705761 
L 133.997301 41.505761 
" style="fill:none;stroke:#000000;stroke-linecap:round;"/>
   </g>
   <g id="text_10">
    <!-- $\hat{y}^{\langle 2 \rangle}$ -->
    <g transform="translate(121.937301 29.069915)scale(0.12 -0.12)">
     <use transform="translate(5.724609 3.472135)" xlink:href="#Cmr10-94"/>
     <use transform="translate(0 0.597135)" xlink:href="#Cmmi10-121"/>
     <use transform="translate(53.487578 104.202344)scale(0.7)" xlink:href="#Cmex10-173"/>
     <use transform="translate(86.539336 38.861198)scale(0.7)" xlink:href="#Cmr10-50"/>
     <use transform="translate(121.539336 104.202344)scale(0.7)" xlink:href="#Cmex10-174"/>
    </g>
   </g>
   <g id="text_11">
    <!-- $W_{{ax}}$ -->
    <g transform="translate(144.279119 215.646222)scale(0.12 -0.12)">
     <use transform="translate(0 0.6875)" xlink:href="#Cmmi10-87"/>
     <use transform="translate(94.384766 -16.31875)scale(0.7)" xlink:href="#Cmmi10-97"/>
     <use transform="translate(131.333008 -16.31875)scale(0.7)" xlink:href="#Cmmi10-120"/>
    </g>
   </g>
   <g id="text_12">
    <!-- $W_{{ya}}$ -->
    <g transform="translate(144.279119 50.506278)scale(0.12 -0.12)">
     <use transform="translate(0 0.6875)" xlink:href="#Cmmi10-87"/>
     <use transform="translate(94.384766 -16.31875)scale(0.7)" xlink:href="#Cmmi10-121"/>
     <use transform="translate(128.701172 -16.31875)scale(0.7)" xlink:href="#Cmmi10-97"/>
    </g>
   </g>
   <g id="patch_37">
    <path d="M 115.800434 130.437187 
Q 106.234913 130.437187 95.551359 130.437187 
" style="fill:none;stroke:#000000;stroke-linecap:round;"/>
    <path d="M 111.000434 128.037187 
L 115.800434 130.437187 
L 111.000434 132.837187 
" style="fill:none;stroke:#000000;stroke-linecap:round;"/>
   </g>
   <g id="text_13">
    <!-- $a^{\langle 1 \rangle}$ -->
    <g transform="translate(95.760434 125.541562)scale(0.12 -0.12)">
     <use transform="translate(0 0.597135)" xlink:href="#Cmmi10-97"/>
     <use transform="translate(59.086484 104.202344)scale(0.7)" xlink:href="#Cmex10-173"/>
     <use transform="translate(92.138242 38.861198)scale(0.7)" xlink:href="#Cmr10-49"/>
     <use transform="translate(127.138242 104.202344)scale(0.7)" xlink:href="#Cmex10-174"/>
    </g>
   </g>
   <g id="text_14">
    <!-- $W_{{aa}}$ -->
    <g transform="translate(95.175896 146.755312)scale(0.12 -0.12)">
     <use transform="translate(0 0.6875)" xlink:href="#Cmmi10-87"/>
     <use transform="translate(94.384766 -16.31875)scale(0.7)" xlink:href="#Cmmi10-97"/>
     <use transform="translate(131.333008 -16.31875)scale(0.7)" xlink:href="#Cmmi10-97"/>
    </g>
   </g>
   <g id="patch_38">
    <path d="M 182.324574 226.420962 
Q 182.324574 217.472572 182.324574 209.642216 
" style="fill:none;stroke:#000000;stroke-linecap:round;"/>
    <path d="M 179.924574 214.442216 
L 182.324574 209.642216 
L 184.724574 214.442216 
" style="fill:none;stroke:#000000;stroke-linecap:round;"/>
   </g>
   <g id="text_15">
    <!-- $\hat{x}^{\langle 3 \rangle}$ -->
    <g transform="translate(172.124574 241.008835)scale(0.12 -0.12)">
     <defs>
      <path d="M 9.515625 7.71875 
Q 11.859375 4.296875 15.8125 2.640625 
Q 19.78125 0.984375 24.3125 0.984375 
Q 30.125 0.984375 32.5625 5.9375 
Q 35.015625 10.890625 35.015625 17.1875 
Q 35.015625 20.015625 34.5 22.84375 
Q 33.984375 25.6875 32.765625 28.125 
Q 31.546875 30.5625 29.421875 32.03125 
Q 27.296875 33.5 24.21875 33.5 
L 17.578125 33.5 
Q 16.703125 33.5 16.703125 34.421875 
L 16.703125 35.296875 
Q 16.703125 36.078125 17.578125 36.078125 
L 23.09375 36.53125 
Q 26.609375 36.53125 28.921875 39.15625 
Q 31.25 41.796875 32.328125 45.578125 
Q 33.40625 49.359375 33.40625 52.78125 
Q 33.40625 57.5625 31.15625 60.640625 
Q 28.90625 63.71875 24.3125 63.71875 
Q 20.515625 63.71875 17.046875 62.28125 
Q 13.578125 60.84375 11.53125 57.90625 
Q 11.71875 57.953125 11.859375 57.984375 
Q 12.015625 58.015625 12.203125 58.015625 
Q 14.453125 58.015625 15.96875 56.453125 
Q 17.484375 54.890625 17.484375 52.6875 
Q 17.484375 50.53125 15.96875 48.96875 
Q 14.453125 47.40625 12.203125 47.40625 
Q 10.015625 47.40625 8.453125 48.96875 
Q 6.890625 50.53125 6.890625 52.6875 
Q 6.890625 56.984375 9.46875 60.15625 
Q 12.0625 63.328125 16.140625 64.96875 
Q 20.21875 66.609375 24.3125 66.609375 
Q 27.34375 66.609375 30.703125 65.703125 
Q 34.078125 64.796875 36.8125 63.109375 
Q 39.546875 61.421875 41.28125 58.78125 
Q 43.015625 56.15625 43.015625 52.78125 
Q 43.015625 48.578125 41.140625 45.015625 
Q 39.265625 41.453125 35.984375 38.859375 
Q 32.71875 36.28125 28.8125 35.015625 
Q 33.15625 34.1875 37.0625 31.734375 
Q 40.96875 29.296875 43.328125 25.484375 
Q 45.703125 21.6875 45.703125 17.28125 
Q 45.703125 11.765625 42.671875 7.296875 
Q 39.65625 2.828125 34.71875 0.3125 
Q 29.78125 -2.203125 24.3125 -2.203125 
Q 19.625 -2.203125 14.90625 -0.40625 
Q 10.203125 1.375 7.203125 4.9375 
Q 4.203125 8.5 4.203125 13.484375 
Q 4.203125 15.96875 5.859375 17.625 
Q 7.515625 19.28125 10.015625 19.28125 
Q 11.625 19.28125 12.96875 18.53125 
Q 14.3125 17.78125 15.0625 16.40625 
Q 15.828125 15.046875 15.828125 13.484375 
Q 15.828125 11.03125 14.109375 9.375 
Q 12.40625 7.71875 10.015625 7.71875 
z
" id="Cmr10-51"/>
     </defs>
     <use transform="translate(10.73877 3.472135)" xlink:href="#Cmr10-94"/>
     <use transform="translate(0 0.597135)" xlink:href="#Cmmi10-120"/>
     <use transform="translate(61.544219 104.202344)scale(0.7)" xlink:href="#Cmex10-173"/>
     <use transform="translate(94.595977 38.861198)scale(0.7)" xlink:href="#Cmr10-51"/>
     <use transform="translate(129.595977 104.202344)scale(0.7)" xlink:href="#Cmex10-174"/>
    </g>
   </g>
   <g id="patch_39">
    <path d="M 182.324574 36.705761 
Q 182.324574 43.966333 182.324574 52.344939 
" style="fill:none;stroke:#000000;stroke-linecap:round;"/>
    <path d="M 179.924574 41.505761 
L 182.324574 36.705761 
L 184.724574 41.505761 
" style="fill:none;stroke:#000000;stroke-linecap:round;"/>
   </g>
   <g id="text_16">
    <!-- $\hat{y}^{\langle 3 \rangle}$ -->
    <g transform="translate(172.664574 29.069915)scale(0.12 -0.12)">
     <use transform="translate(5.724609 3.472135)" xlink:href="#Cmr10-94"/>
     <use transform="translate(0 0.597135)" xlink:href="#Cmmi10-121"/>
     <use transform="translate(53.487578 104.202344)scale(0.7)" xlink:href="#Cmex10-173"/>
     <use transform="translate(86.539336 38.861198)scale(0.7)" xlink:href="#Cmr10-51"/>
     <use transform="translate(121.539336 104.202344)scale(0.7)" xlink:href="#Cmex10-174"/>
    </g>
   </g>
   <g id="text_17">
    <!-- $W_{{ax}}$ -->
    <g transform="translate(195.006392 215.646222)scale(0.12 -0.12)">
     <use transform="translate(0 0.6875)" xlink:href="#Cmmi10-87"/>
     <use transform="translate(94.384766 -16.31875)scale(0.7)" xlink:href="#Cmmi10-97"/>
     <use transform="translate(131.333008 -16.31875)scale(0.7)" xlink:href="#Cmmi10-120"/>
    </g>
   </g>
   <g id="text_18">
    <!-- $W_{{ya}}$ -->
    <g transform="translate(195.006392 50.506278)scale(0.12 -0.12)">
     <use transform="translate(0 0.6875)" xlink:href="#Cmmi10-87"/>
     <use transform="translate(94.384766 -16.31875)scale(0.7)" xlink:href="#Cmmi10-121"/>
     <use transform="translate(128.701172 -16.31875)scale(0.7)" xlink:href="#Cmmi10-97"/>
    </g>
   </g>
   <g id="patch_40">
    <path d="M 166.527707 130.437187 
Q 156.962186 130.437187 146.278631 130.437187 
" style="fill:none;stroke:#000000;stroke-linecap:round;"/>
    <path d="M 161.727707 128.037187 
L 166.527707 130.437187 
L 161.727707 132.837187 
" style="fill:none;stroke:#000000;stroke-linecap:round;"/>
   </g>
   <g id="text_19">
    <!-- $a^{\langle 2 \rangle}$ -->
    <g transform="translate(146.487707 125.541562)scale(0.12 -0.12)">
     <use transform="translate(0 0.597135)" xlink:href="#Cmmi10-97"/>
     <use transform="translate(59.086484 104.202344)scale(0.7)" xlink:href="#Cmex10-173"/>
     <use transform="translate(92.138242 38.861198)scale(0.7)" xlink:href="#Cmr10-50"/>
     <use transform="translate(127.138242 104.202344)scale(0.7)" xlink:href="#Cmex10-174"/>
    </g>
   </g>
   <g id="text_20">
    <!-- $W_{{aa}}$ -->
    <g transform="translate(145.903169 146.755312)scale(0.12 -0.12)">
     <use transform="translate(0 0.6875)" xlink:href="#Cmmi10-87"/>
     <use transform="translate(94.384766 -16.31875)scale(0.7)" xlink:href="#Cmmi10-97"/>
     <use transform="translate(131.333008 -16.31875)scale(0.7)" xlink:href="#Cmmi10-97"/>
    </g>
   </g>
   <g id="patch_41">
    <path d="M 217.25498 130.437187 
Q 207.689459 130.437187 197.005904 130.437187 
" style="fill:none;stroke:#000000;stroke-linecap:round;"/>
    <path d="M 212.45498 128.037187 
L 217.25498 130.437187 
L 212.45498 132.837187 
" style="fill:none;stroke:#000000;stroke-linecap:round;"/>
   </g>
   <g id="text_21">
    <!-- $a^{\langle 3 \rangle}$ -->
    <g transform="translate(197.21498 125.541562)scale(0.12 -0.12)">
     <use transform="translate(0 0.597135)" xlink:href="#Cmmi10-97"/>
     <use transform="translate(59.086484 104.202344)scale(0.7)" xlink:href="#Cmex10-173"/>
     <use transform="translate(92.138242 38.861198)scale(0.7)" xlink:href="#Cmr10-51"/>
     <use transform="translate(127.138242 104.202344)scale(0.7)" xlink:href="#Cmex10-174"/>
    </g>
   </g>
   <g id="text_22">
    <!-- $W_{{aa}}$ -->
    <g transform="translate(196.630442 146.755312)scale(0.12 -0.12)">
     <use transform="translate(0 0.6875)" xlink:href="#Cmmi10-87"/>
     <use transform="translate(94.384766 -16.31875)scale(0.7)" xlink:href="#Cmmi10-97"/>
     <use transform="translate(131.333008 -16.31875)scale(0.7)" xlink:href="#Cmmi10-97"/>
    </g>
   </g>
   <g id="patch_42">
    <path d="M 283.779119 226.420962 
Q 283.779119 217.472572 283.779119 209.642216 
" style="fill:none;stroke:#000000;stroke-linecap:round;"/>
    <path d="M 281.379119 214.442216 
L 283.779119 209.642216 
L 286.179119 214.442216 
" style="fill:none;stroke:#000000;stroke-linecap:round;"/>
   </g>
   <g id="text_23">
    <!-- $\hat{x}^{\langle T_x \rangle}$ -->
    <g transform="translate(271.299119 241.008835)scale(0.12 -0.12)">
     <defs>
      <path d="M 4.59375 1.3125 
Q 4.640625 1.5625 4.8125 2.1875 
Q 4.984375 2.828125 5.25 3.171875 
Q 5.515625 3.515625 6 3.515625 
Q 14.59375 3.515625 17.390625 4 
Q 20.0625 4.6875 20.609375 6.890625 
L 34.28125 61.8125 
Q 34.71875 63.03125 34.71875 64.015625 
Q 34.71875 64.796875 31.203125 64.796875 
L 25.390625 64.796875 
Q 18.703125 64.796875 15.0625 62.734375 
Q 11.421875 60.6875 9.71875 57.3125 
Q 8.015625 53.953125 5.328125 46.296875 
Q 4.984375 45.40625 4.296875 45.40625 
L 3.421875 45.40625 
Q 2.390625 45.40625 2.390625 46.6875 
L 9.515625 67.390625 
Q 9.71875 68.3125 10.5 68.3125 
L 69.578125 68.3125 
Q 70.609375 68.3125 70.609375 67 
L 67.28125 46.296875 
Q 67.28125 46 66.9375 45.703125 
Q 66.609375 45.40625 66.3125 45.40625 
L 65.375 45.40625 
Q 64.40625 45.40625 64.40625 46.6875 
Q 65.484375 53.765625 65.484375 56.6875 
Q 65.484375 60.203125 64.015625 62 
Q 62.546875 63.8125 60.203125 64.296875 
Q 57.859375 64.796875 54.109375 64.796875 
L 48.1875 64.796875 
Q 45.515625 64.796875 44.578125 64.296875 
Q 43.65625 63.8125 43.015625 61.375 
L 29.296875 6.5 
Q 29.25 6.296875 29.21875 6.09375 
Q 29.203125 5.90625 29.109375 5.609375 
Q 29.109375 4.34375 30.609375 4 
Q 33.203125 3.515625 41.703125 3.515625 
Q 42.671875 3.515625 42.671875 2.203125 
Q 42.328125 0.78125 42.125 0.390625 
Q 41.9375 0 41.015625 0 
L 5.609375 0 
Q 4.59375 0 4.59375 1.3125 
z
" id="Cmmi10-84"/>
     </defs>
     <use transform="translate(10.73877 3.472135)" xlink:href="#Cmr10-94"/>
     <use transform="translate(0 0.597135)" xlink:href="#Cmmi10-120"/>
     <use transform="translate(61.544219 104.202344)scale(0.7)" xlink:href="#Cmex10-173"/>
     <use transform="translate(94.595977 38.861198)scale(0.7)" xlink:href="#Cmmi10-84"/>
     <use transform="translate(135.474883 26.956823)scale(0.49)" xlink:href="#Cmmi10-120"/>
     <use transform="translate(167.908262 104.202344)scale(0.7)" xlink:href="#Cmex10-174"/>
    </g>
   </g>
   <g id="patch_43">
    <path d="M 283.779119 36.705761 
Q 283.779119 43.966333 283.779119 52.344939 
" style="fill:none;stroke:#000000;stroke-linecap:round;"/>
    <path d="M 281.379119 41.505761 
L 283.779119 36.705761 
L 286.179119 41.505761 
" style="fill:none;stroke:#000000;stroke-linecap:round;"/>
   </g>
   <g id="text_24">
    <!-- $\hat{y}^{\langle T_y \rangle}$ -->
    <g transform="translate(272.019119 29.069915)scale(0.12 -0.12)">
     <use transform="translate(5.724609 3.472135)" xlink:href="#Cmr10-94"/>
     <use transform="translate(0 0.597135)" xlink:href="#Cmmi10-121"/>
     <use transform="translate(53.487578 104.202344)scale(0.7)" xlink:href="#Cmex10-173"/>
     <use transform="translate(86.539336 38.861198)scale(0.7)" xlink:href="#Cmmi10-84"/>
     <use transform="translate(127.418242 26.956823)scale(0.49)" xlink:href="#Cmmi10-121"/>
     <use transform="translate(155.903867 104.202344)scale(0.7)" xlink:href="#Cmex10-174"/>
    </g>
   </g>
   <g id="text_25">
    <!-- $W_{{ax}}$ -->
    <g transform="translate(296.460938 215.646222)scale(0.12 -0.12)">
     <use transform="translate(0 0.6875)" xlink:href="#Cmmi10-87"/>
     <use transform="translate(94.384766 -16.31875)scale(0.7)" xlink:href="#Cmmi10-97"/>
     <use transform="translate(131.333008 -16.31875)scale(0.7)" xlink:href="#Cmmi10-120"/>
    </g>
   </g>
   <g id="text_26">
    <!-- $W_{{ya}}$ -->
    <g transform="translate(296.460938 50.506278)scale(0.12 -0.12)">
     <use transform="translate(0 0.6875)" xlink:href="#Cmmi10-87"/>
     <use transform="translate(94.384766 -16.31875)scale(0.7)" xlink:href="#Cmmi10-121"/>
     <use transform="translate(128.701172 -16.31875)scale(0.7)" xlink:href="#Cmmi10-97"/>
    </g>
   </g>
   <g id="patch_44">
    <path d="M 267.982252 130.437187 
Q 258.416732 130.437187 247.733177 130.437187 
" style="fill:none;stroke:#000000;stroke-linecap:round;"/>
    <path d="M 263.182252 128.037187 
L 267.982252 130.437187 
L 263.182252 132.837187 
" style="fill:none;stroke:#000000;stroke-linecap:round;"/>
   </g>
   <g id="text_27">
    <!-- $a^{\langle T_x-1 \rangle}$ -->
    <g transform="translate(229.702252 125.541562)scale(0.12 -0.12)">
     <defs>
      <path d="M 10.203125 23 
Q 9.375 23 8.828125 23.625 
Q 8.296875 24.265625 8.296875 25 
Q 8.296875 25.734375 8.828125 26.359375 
Q 9.375 27 10.203125 27 
L 67.578125 27 
Q 68.359375 27 68.875 26.359375 
Q 69.390625 25.734375 69.390625 25 
Q 69.390625 24.265625 68.875 23.625 
Q 68.359375 23 67.578125 23 
z
" id="Cmsy10-161"/>
     </defs>
     <use transform="translate(0 0.597135)" xlink:href="#Cmmi10-97"/>
     <use transform="translate(59.086484 104.202344)scale(0.7)" xlink:href="#Cmex10-173"/>
     <use transform="translate(92.138242 38.861198)scale(0.7)" xlink:href="#Cmmi10-84"/>
     <use transform="translate(133.017148 26.956823)scale(0.49)" xlink:href="#Cmmi10-120"/>
     <use transform="translate(177.741543 38.861198)scale(0.7)" xlink:href="#Cmsy10-161"/>
     <use transform="translate(244.412441 38.861198)scale(0.7)" xlink:href="#Cmr10-49"/>
     <use transform="translate(279.412441 104.202344)scale(0.7)" xlink:href="#Cmex10-174"/>
    </g>
   </g>
   <g id="text_28">
    <!-- $W_{{aa}}$ -->
    <g transform="translate(247.357715 146.755312)scale(0.12 -0.12)">
     <use transform="translate(0 0.6875)" xlink:href="#Cmmi10-87"/>
     <use transform="translate(94.384766 -16.31875)scale(0.7)" xlink:href="#Cmmi10-97"/>
     <use transform="translate(131.333008 -16.31875)scale(0.7)" xlink:href="#Cmmi10-97"/>
    </g>
   </g>
   <g id="patch_45">
    <path d="M 548.469119 234.051569 
Q 548.469119 224.015432 548.469119 215.097329 
" style="fill:none;stroke:#000000;stroke-linecap:round;"/>
    <path d="M 546.069119 219.897329 
L 548.469119 215.097329 
L 550.869119 219.897329 
" style="fill:none;stroke:#000000;stroke-linecap:round;"/>
   </g>
   <g id="text_29">
    <!-- $\hat{x}^{\langle t \rangle}$ -->
    <g transform="translate(538.869119 248.637562)scale(0.12 -0.12)">
     <defs>
      <path d="M 6.203125 8.109375 
Q 6.203125 9.578125 6.5 10.890625 
L 13.71875 39.59375 
L 3.21875 39.59375 
Q 2.203125 39.59375 2.203125 40.921875 
Q 2.59375 43.109375 3.515625 43.109375 
L 14.59375 43.109375 
L 18.609375 59.421875 
Q 19 60.75 20.171875 61.671875 
Q 21.34375 62.59375 22.796875 62.59375 
Q 24.078125 62.59375 24.921875 61.828125 
Q 25.78125 61.078125 25.78125 59.8125 
Q 25.78125 59.515625 25.75 59.34375 
Q 25.734375 59.1875 25.6875 58.984375 
L 21.6875 43.109375 
L 31.984375 43.109375 
Q 33.015625 43.109375 33.015625 41.796875 
Q 32.953125 41.546875 32.8125 40.953125 
Q 32.671875 40.375 32.421875 39.984375 
Q 32.171875 39.59375 31.6875 39.59375 
L 20.796875 39.59375 
L 13.625 10.6875 
Q 12.890625 7.859375 12.890625 5.8125 
Q 12.890625 1.515625 15.828125 1.515625 
Q 20.21875 1.515625 23.609375 5.640625 
Q 27 9.765625 28.8125 14.703125 
Q 29.203125 15.28125 29.59375 15.28125 
L 30.8125 15.28125 
Q 31.203125 15.28125 31.4375 15.015625 
Q 31.6875 14.75 31.6875 14.40625 
Q 31.6875 14.203125 31.59375 14.109375 
Q 29.390625 8.0625 25.1875 3.46875 
Q 21 -1.125 15.578125 -1.125 
Q 11.625 -1.125 8.90625 1.453125 
Q 6.203125 4.046875 6.203125 8.109375 
z
" id="Cmmi10-116"/>
     </defs>
     <use transform="translate(10.73877 3.472135)" xlink:href="#Cmr10-94"/>
     <use transform="translate(0 0.597135)" xlink:href="#Cmmi10-120"/>
     <use transform="translate(61.544219 104.202344)scale(0.7)" xlink:href="#Cmex10-173"/>
     <use transform="translate(94.595977 38.861198)scale(0.7)" xlink:href="#Cmmi10-116"/>
     <use transform="translate(119.854766 104.202344)scale(0.7)" xlink:href="#Cmex10-174"/>
    </g>
   </g>
   <g id="patch_46">
    <path d="M 548.469119 29.080072 
Q 548.469119 37.429111 548.469119 46.896184 
" style="fill:none;stroke:#000000;stroke-linecap:round;"/>
    <path d="M 546.069119 33.880072 
L 548.469119 29.080072 
L 550.869119 33.880072 
" style="fill:none;stroke:#000000;stroke-linecap:round;"/>
   </g>
   <g id="text_30">
    <!-- $\hat{y}^{\langle t \rangle}$ -->
    <g transform="translate(539.349119 21.441187)scale(0.12 -0.12)">
     <use transform="translate(5.724609 3.472135)" xlink:href="#Cmr10-94"/>
     <use transform="translate(0 0.597135)" xlink:href="#Cmmi10-121"/>
     <use transform="translate(53.487578 104.202344)scale(0.7)" xlink:href="#Cmex10-173"/>
     <use transform="translate(86.539336 38.861198)scale(0.7)" xlink:href="#Cmmi10-116"/>
     <use transform="translate(111.798125 104.202344)scale(0.7)" xlink:href="#Cmex10-174"/>
    </g>
   </g>
   <g id="patch_47">
    <path d="M 563.971131 113.551628 
Q 580.852972 108.865323 580.852972 128.288785 
L 580.852972 132.58559 
Q 580.852972 152.009052 565.048428 147.621799 
" style="fill:none;stroke:#000000;stroke-linecap:round;"/>
    <path d="M 568.367722 150.618845 
L 565.048428 147.621799 
L 569.437641 146.764591 
" style="fill:none;stroke:#000000;stroke-linecap:round;"/>
   </g>
   <g id="text_31">
    <g id="patch_48">
     <path d="M 576.085784 136.468852 
L 585.620159 136.468852 
L 585.620159 126.790727 
L 576.085784 126.790727 
z
" style="stroke:#000000;stroke-linejoin:miter;"/>
    </g>
    <!--     -->
    <g transform="translate(576.085784 134.389164)scale(0.1 -0.1)">
     <defs>
      <path id="DejaVuSans-32"/>
     </defs>
     <use xlink:href="#DejaVuSans-32"/>
     <use x="31.787109" xlink:href="#DejaVuSans-32"/>
     <use x="63.574219" xlink:href="#DejaVuSans-32"/>
    </g>
   </g>
   <g id="text_32">
    <!-- $W_{{aa}}$ -->
    <g transform="translate(570.352972 159.73697)scale(0.12 -0.12)">
     <use transform="translate(0 0.6875)" xlink:href="#Cmmi10-87"/>
     <use transform="translate(94.384766 -16.31875)scale(0.7)" xlink:href="#Cmmi10-97"/>
     <use transform="translate(131.333008 -16.31875)scale(0.7)" xlink:href="#Cmmi10-97"/>
    </g>
   </g>
   <g id="text_33">
    <!-- $W_{{ax}}$ -->
    <g transform="translate(562.059119 221.095312)scale(0.12 -0.12)">
     <use transform="translate(0 0.6875)" xlink:href="#Cmmi10-87"/>
     <use transform="translate(94.384766 -16.31875)scale(0.7)" xlink:href="#Cmmi10-97"/>
     <use transform="translate(131.333008 -16.31875)scale(0.7)" xlink:href="#Cmmi10-120"/>
    </g>
   </g>
   <g id="text_34">
    <!-- $W_{{ya}}$ -->
    <g transform="translate(562.059119 45.057187)scale(0.12 -0.12)">
     <use transform="translate(0 0.6875)" xlink:href="#Cmmi10-87"/>
     <use transform="translate(94.384766 -16.31875)scale(0.7)" xlink:href="#Cmmi10-121"/>
     <use transform="translate(128.701172 -16.31875)scale(0.7)" xlink:href="#Cmmi10-97"/>
    </g>
   </g>
   <g id="text_35">
    <!-- B -->
    <g transform="translate(470.227713 18.597656)scale(0.15 -0.15)">
     <defs>
      <path d="M 19.671875 34.8125 
L 19.671875 8.109375 
L 35.5 8.109375 
Q 43.453125 8.109375 47.28125 11.40625 
Q 51.125 14.703125 51.125 21.484375 
Q 51.125 28.328125 47.28125 31.5625 
Q 43.453125 34.8125 35.5 34.8125 
z
M 19.671875 64.796875 
L 19.671875 42.828125 
L 34.28125 42.828125 
Q 41.5 42.828125 45.03125 45.53125 
Q 48.578125 48.25 48.578125 53.8125 
Q 48.578125 59.328125 45.03125 62.0625 
Q 41.5 64.796875 34.28125 64.796875 
z
M 9.8125 72.90625 
L 35.015625 72.90625 
Q 46.296875 72.90625 52.390625 68.21875 
Q 58.5 63.53125 58.5 54.890625 
Q 58.5 48.1875 55.375 44.234375 
Q 52.25 40.28125 46.1875 39.3125 
Q 53.46875 37.75 57.5 32.78125 
Q 61.53125 27.828125 61.53125 20.40625 
Q 61.53125 10.640625 54.890625 5.3125 
Q 48.25 0 35.984375 0 
L 9.8125 0 
z
" id="DejaVuSans-66"/>
     </defs>
     <use xlink:href="#DejaVuSans-66"/>
    </g>
   </g>
  </g>
 </g>
 <defs>
  <clipPath id="p3149a6f255">
   <rect height="202.909091" width="304.363636" x="17.460938" y="28.982642"/>
  </clipPath>
  <clipPath id="p9eb9dc3828">
   <rect height="217.44" width="108.72" x="480.519119" y="21.717187"/>
  </clipPath>
 </defs>
</svg>
