<?xml version="1.0" encoding="utf-8" standalone="no"?>
<!DOCTYPE svg PUBLIC "-//W3C//DTD SVG 1.1//EN"
  "http://www.w3.org/Graphics/SVG/1.1/DTD/svg11.dtd">
<!-- Created with matplotlib (https://matplotlib.org/) -->
<svg height="233.048243pt" version="1.1" viewBox="0 0 354.181316 233.048243" width="354.181316pt" xmlns="http://www.w3.org/2000/svg" xmlns:xlink="http://www.w3.org/1999/xlink">
 <metadata>
  <rdf:RDF xmlns:cc="http://creativecommons.org/ns#" xmlns:dc="http://purl.org/dc/elements/1.1/" xmlns:rdf="http://www.w3.org/1999/02/22-rdf-syntax-ns#">
   <cc:Work>
    <dc:type rdf:resource="http://purl.org/dc/dcmitype/StillImage"/>
    <dc:date>2021-09-27T19:37:38.197016</dc:date>
    <dc:format>image/svg+xml</dc:format>
    <dc:creator>
     <cc:Agent>
      <dc:title>Matplotlib v3.3.4, https://matplotlib.org/</dc:title>
     </cc:Agent>
    </dc:creator>
   </cc:Work>
  </rdf:RDF>
 </metadata>
 <defs>
  <style type="text/css">*{stroke-linecap:butt;stroke-linejoin:round;}</style>
 </defs>
 <g id="figure_1">
  <g id="patch_1">
   <path d="M 0 233.048243 
L 354.181316 233.048243 
L 354.181316 0 
L 0 0 
z
" style="fill:none;"/>
  </g>
  <g id="axes_1">
   <g id="text_1">
    <g id="patch_2">
     <path d="M 3.3 170.980676 
L 32.81 170.980676 
L 32.81 149.010676 
L 3.3 149.010676 
z
" style="fill:#ffffff;stroke:#000000;stroke-linejoin:miter;"/>
    </g>
    <!-- $a^{\langle 0 \rangle}$ -->
    <g transform="translate(7.2 164.377082)scale(0.13 -0.13)">
     <defs>
      <path d="M 17.390625 -1.125 
Q 11.078125 -1.125 7.4375 3.640625 
Q 3.8125 8.40625 3.8125 14.890625 
Q 3.8125 21.296875 7.125 28.171875 
Q 10.453125 35.0625 16.09375 39.625 
Q 21.734375 44.1875 28.21875 44.1875 
Q 31.203125 44.1875 33.546875 42.578125 
Q 35.890625 40.96875 37.203125 38.1875 
Q 38.328125 42.1875 41.609375 42.1875 
Q 42.875 42.1875 43.71875 41.421875 
Q 44.578125 40.671875 44.578125 39.40625 
Q 44.578125 39.109375 44.546875 38.953125 
Q 44.53125 38.8125 44.484375 38.625 
L 37.5 10.6875 
Q 36.8125 7.71875 36.8125 5.8125 
Q 36.8125 1.515625 39.703125 1.515625 
Q 42.828125 1.515625 44.453125 5.484375 
Q 46.09375 9.46875 47.21875 14.703125 
Q 47.40625 15.28125 48 15.28125 
L 49.21875 15.28125 
Q 49.609375 15.28125 49.84375 14.9375 
Q 50.09375 14.59375 50.09375 14.3125 
Q 48.34375 7.328125 46.265625 3.09375 
Q 44.1875 -1.125 39.5 -1.125 
Q 36.140625 -1.125 33.546875 0.84375 
Q 30.953125 2.828125 30.328125 6.109375 
Q 23.875 -1.125 17.390625 -1.125 
z
M 17.484375 1.515625 
Q 21.09375 1.515625 24.484375 4.21875 
Q 27.875 6.9375 30.328125 10.59375 
Q 30.421875 10.6875 30.421875 10.890625 
L 35.796875 32.625 
L 35.890625 32.90625 
Q 35.296875 36.46875 33.3125 39.03125 
Q 31.34375 41.609375 27.984375 41.609375 
Q 24.609375 41.609375 21.703125 38.84375 
Q 18.796875 36.078125 16.796875 32.328125 
Q 14.84375 28.328125 13.0625 21.34375 
Q 11.28125 14.359375 11.28125 10.5 
Q 11.28125 7.03125 12.765625 4.265625 
Q 14.265625 1.515625 17.484375 1.515625 
z
" id="Cmmi10-97"/>
      <path d="M 35.5 -114.796875 
L 10.015625 -56.78125 
Q 9.8125 -56.5 9.8125 -56 
Q 9.8125 -55.515625 10.015625 -55.328125 
L 35.5 2.78125 
Q 35.984375 4 37.3125 4 
Q 38.03125 4 38.671875 3.359375 
Q 39.3125 2.734375 39.3125 2 
Q 39.3125 1.515625 39.203125 1.3125 
L 14.015625 -56 
L 39.203125 -113.28125 
Q 39.3125 -113.484375 39.3125 -114.015625 
Q 39.3125 -114.75 38.671875 -115.375 
Q 38.03125 -116.015625 37.3125 -116.015625 
Q 36.03125 -116.015625 35.5 -114.796875 
z
" id="Cmex10-173"/>
      <path d="M 25 -2.203125 
Q 12.75 -2.203125 8.328125 7.875 
Q 3.90625 17.96875 3.90625 31.890625 
Q 3.90625 40.578125 5.484375 48.234375 
Q 7.078125 55.90625 11.78125 61.25 
Q 16.5 66.609375 25 66.609375 
Q 31.59375 66.609375 35.78125 63.375 
Q 39.984375 60.15625 42.1875 55.046875 
Q 44.390625 49.953125 45.1875 44.109375 
Q 46 38.28125 46 31.890625 
Q 46 23.296875 44.40625 15.796875 
Q 42.828125 8.296875 38.1875 3.046875 
Q 33.546875 -2.203125 25 -2.203125 
z
M 25 0.390625 
Q 30.5625 0.390625 33.296875 6.09375 
Q 36.03125 11.8125 36.671875 18.75 
Q 37.3125 25.6875 37.3125 33.5 
Q 37.3125 41.015625 36.671875 47.359375 
Q 36.03125 53.71875 33.3125 58.859375 
Q 30.609375 64.015625 25 64.015625 
Q 19.34375 64.015625 16.609375 58.828125 
Q 13.875 53.65625 13.234375 47.328125 
Q 12.59375 41.015625 12.59375 33.5 
Q 12.59375 27.9375 12.859375 23 
Q 13.140625 18.0625 14.3125 12.8125 
Q 15.484375 7.5625 18.09375 3.96875 
Q 20.703125 0.390625 25 0.390625 
z
" id="Cmr10-48"/>
      <path d="M 7.8125 -114.015625 
Q 7.8125 -113.484375 8.015625 -113.28125 
L 33.109375 -56 
L 8.015625 1.3125 
Q 7.8125 1.515625 7.8125 2 
Q 7.8125 2.734375 8.390625 3.359375 
Q 8.984375 4 9.8125 4 
Q 10.984375 4 11.71875 2.78125 
L 37.203125 -55.328125 
Q 37.3125 -55.515625 37.3125 -56 
Q 37.3125 -56.5 37.203125 -56.78125 
L 11.71875 -114.796875 
Q 10.9375 -116.015625 9.8125 -116.015625 
Q 8.984375 -116.015625 8.390625 -115.375 
Q 7.8125 -114.75 7.8125 -114.015625 
z
" id="Cmex10-174"/>
     </defs>
     <use transform="translate(0 0.597135)" xlink:href="#Cmmi10-97"/>
     <use transform="translate(59.086484 104.202344)scale(0.7)" xlink:href="#Cmex10-173"/>
     <use transform="translate(92.138242 38.861198)scale(0.7)" xlink:href="#Cmr10-48"/>
     <use transform="translate(127.138242 104.202344)scale(0.7)" xlink:href="#Cmex10-174"/>
    </g>
   </g>
   <g id="text_2">
    <g id="patch_3">
     <path d="M 62.036842 170.980676 
L 91.546842 170.980676 
L 91.546842 149.010676 
L 62.036842 149.010676 
z
" style="fill:#ffffff;stroke:#000000;stroke-linejoin:miter;"/>
    </g>
    <!-- $a^{\langle 1 \rangle}$ -->
    <g transform="translate(65.936842 164.377082)scale(0.13 -0.13)">
     <defs>
      <path d="M 9.28125 0 
L 9.28125 3.515625 
Q 21.78125 3.515625 21.78125 6.6875 
L 21.78125 59.1875 
Q 16.609375 56.6875 8.6875 56.6875 
L 8.6875 60.203125 
Q 20.953125 60.203125 27.203125 66.609375 
L 28.609375 66.609375 
Q 28.953125 66.609375 29.265625 66.328125 
Q 29.59375 66.0625 29.59375 65.71875 
L 29.59375 6.6875 
Q 29.59375 3.515625 42.09375 3.515625 
L 42.09375 0 
z
" id="Cmr10-49"/>
     </defs>
     <use transform="translate(0 0.597135)" xlink:href="#Cmmi10-97"/>
     <use transform="translate(59.086484 104.202344)scale(0.7)" xlink:href="#Cmex10-173"/>
     <use transform="translate(92.138242 38.861198)scale(0.7)" xlink:href="#Cmr10-49"/>
     <use transform="translate(127.138242 104.202344)scale(0.7)" xlink:href="#Cmex10-174"/>
    </g>
   </g>
   <g id="patch_4">
    <path d="M 58.917312 159.995676 
Q 47.421356 159.995676 34.807367 159.995676 
" style="fill:none;stroke:#000000;stroke-linecap:round;"/>
    <path d="M 54.917312 157.995676 
L 58.917312 159.995676 
L 54.917312 161.995676 
" style="fill:none;stroke:#000000;stroke-linecap:round;"/>
   </g>
   <g id="patch_5">
    <path d="M 35.315241 172.835765 
Q 47.423081 181.464966 60.441387 172.187365 
" style="fill:none;stroke:#ff0000;stroke-linecap:round;"/>
    <path d="M 37.411863 176.785977 
L 35.315241 172.835765 
L 39.733384 173.528595 
" style="fill:none;stroke:#ff0000;stroke-linecap:round;"/>
   </g>
   <g id="text_3">
    <g id="patch_6">
     <path d="M 61.776842 229.748243 
L 91.806842 229.748243 
L 91.806842 207.778243 
L 61.776842 207.778243 
z
" style="fill:#ffffff;"/>
    </g>
    <!-- $x^{\langle 1 \rangle}$ -->
    <g transform="translate(65.676842 223.144649)scale(0.13 -0.13)">
     <defs>
      <path d="M 7.8125 2.875 
Q 9.578125 1.515625 12.796875 1.515625 
Q 15.921875 1.515625 18.3125 4.515625 
Q 20.703125 7.515625 21.578125 11.078125 
L 26.125 28.8125 
Q 27.203125 33.640625 27.203125 35.40625 
Q 27.203125 37.890625 25.8125 39.75 
Q 24.421875 41.609375 21.921875 41.609375 
Q 18.75 41.609375 15.96875 39.625 
Q 13.1875 37.640625 11.28125 34.59375 
Q 9.375 31.546875 8.59375 28.421875 
Q 8.40625 27.78125 7.8125 27.78125 
L 6.59375 27.78125 
Q 5.8125 27.78125 5.8125 28.71875 
L 5.8125 29 
Q 6.78125 32.71875 9.125 36.25 
Q 11.46875 39.796875 14.859375 41.984375 
Q 18.265625 44.1875 22.125 44.1875 
Q 25.78125 44.1875 28.734375 42.234375 
Q 31.6875 40.28125 32.90625 36.921875 
Q 34.625 39.984375 37.28125 42.078125 
Q 39.9375 44.1875 43.109375 44.1875 
Q 45.265625 44.1875 47.5 43.421875 
Q 49.75 42.671875 51.171875 41.109375 
Q 52.59375 39.546875 52.59375 37.203125 
Q 52.59375 34.671875 50.953125 32.828125 
Q 49.3125 31 46.78125 31 
Q 45.171875 31 44.09375 32.03125 
Q 43.015625 33.0625 43.015625 34.625 
Q 43.015625 36.71875 44.453125 38.296875 
Q 45.90625 39.890625 47.90625 40.1875 
Q 46.09375 41.609375 42.921875 41.609375 
Q 39.703125 41.609375 37.328125 38.625 
Q 34.96875 35.640625 33.984375 31.984375 
L 29.59375 14.3125 
Q 28.515625 10.296875 28.515625 7.71875 
Q 28.515625 5.171875 29.953125 3.34375 
Q 31.390625 1.515625 33.796875 1.515625 
Q 38.484375 1.515625 42.15625 5.640625 
Q 45.84375 9.765625 47.015625 14.703125 
Q 47.21875 15.28125 47.796875 15.28125 
L 49.03125 15.28125 
Q 49.421875 15.28125 49.65625 15.015625 
Q 49.90625 14.75 49.90625 14.40625 
Q 49.90625 14.3125 49.8125 14.109375 
Q 48.390625 8.15625 43.84375 3.515625 
Q 39.3125 -1.125 33.59375 -1.125 
Q 29.9375 -1.125 26.984375 0.84375 
Q 24.03125 2.828125 22.796875 6.203125 
Q 21.234375 3.265625 18.46875 1.0625 
Q 15.71875 -1.125 12.59375 -1.125 
Q 10.453125 -1.125 8.171875 -0.359375 
Q 5.90625 0.390625 4.484375 1.953125 
Q 3.078125 3.515625 3.078125 5.90625 
Q 3.078125 8.25 4.703125 10.171875 
Q 6.34375 12.109375 8.796875 12.109375 
Q 10.453125 12.109375 11.578125 11.109375 
Q 12.703125 10.109375 12.703125 8.5 
Q 12.703125 6.390625 11.296875 4.828125 
Q 9.90625 3.265625 7.8125 2.875 
z
" id="Cmmi10-120"/>
     </defs>
     <use transform="translate(0 0.597135)" xlink:href="#Cmmi10-120"/>
     <use transform="translate(63.383359 104.202344)scale(0.7)" xlink:href="#Cmex10-173"/>
     <use transform="translate(96.435117 38.861198)scale(0.7)" xlink:href="#Cmr10-49"/>
     <use transform="translate(131.435117 104.202344)scale(0.7)" xlink:href="#Cmex10-174"/>
    </g>
   </g>
   <g id="patch_7">
    <path d="M 76.791842 205.779352 
Q 76.791842 189.380391 76.791842 174.099464 
" style="fill:none;stroke:#000000;stroke-linecap:round;"/>
    <path d="M 74.791842 178.099464 
L 76.791842 174.099464 
L 78.791842 178.099464 
" style="fill:none;stroke:#000000;stroke-linecap:round;"/>
   </g>
   <g id="text_4">
    <g id="patch_8">
     <path d="M 62.296842 113.448108 
L 91.286842 113.448108 
L 91.286842 89.008108 
L 62.296842 89.008108 
z
" style="fill:#ffffff;stroke:#000000;stroke-linejoin:miter;"/>
    </g>
    <!-- $y^{\langle 1 \rangle}$ -->
    <g transform="translate(66.196842 106.818108)scale(0.13 -0.13)">
     <defs>
      <path d="M 8.40625 -14.3125 
Q 10.5 -17.921875 15.71875 -17.921875 
Q 20.453125 -17.921875 23.921875 -14.59375 
Q 27.390625 -11.28125 29.515625 -6.5625 
Q 31.640625 -1.859375 32.8125 3.078125 
Q 28.375 -1.125 23.1875 -1.125 
Q 19.234375 -1.125 16.453125 0.234375 
Q 13.671875 1.609375 12.125 4.3125 
Q 10.59375 7.03125 10.59375 10.890625 
Q 10.59375 14.15625 11.46875 17.59375 
Q 12.359375 21.046875 13.9375 25.265625 
Q 15.53125 29.5 16.703125 32.625 
Q 18.015625 36.28125 18.015625 38.625 
Q 18.015625 41.609375 15.828125 41.609375 
Q 11.859375 41.609375 9.296875 37.53125 
Q 6.734375 33.453125 5.515625 28.421875 
Q 5.328125 27.78125 4.6875 27.78125 
L 3.515625 27.78125 
Q 2.6875 27.78125 2.6875 28.71875 
L 2.6875 29 
Q 4.296875 34.96875 7.609375 39.578125 
Q 10.9375 44.1875 16.015625 44.1875 
Q 19.578125 44.1875 22.046875 41.84375 
Q 24.515625 39.5 24.515625 35.890625 
Q 24.515625 34.03125 23.6875 31.984375 
Q 23.25 30.765625 21.6875 26.65625 
Q 20.125 22.5625 19.28125 19.875 
Q 18.453125 17.1875 17.921875 14.59375 
Q 17.390625 12.015625 17.390625 9.421875 
Q 17.390625 6.109375 18.796875 3.8125 
Q 20.21875 1.515625 23.296875 1.515625 
Q 29.5 1.515625 34.421875 9.078125 
L 42 39.890625 
Q 42.328125 41.21875 43.546875 42.15625 
Q 44.78125 43.109375 46.1875 43.109375 
Q 47.40625 43.109375 48.3125 42.328125 
Q 49.21875 41.546875 49.21875 40.28125 
Q 49.21875 39.703125 49.125 39.5 
L 39.203125 -0.296875 
Q 37.890625 -5.421875 34.375 -10.109375 
Q 30.859375 -14.796875 25.90625 -17.65625 
Q 20.953125 -20.515625 15.578125 -20.515625 
Q 12.984375 -20.515625 10.4375 -19.5 
Q 7.90625 -18.5 6.34375 -16.5 
Q 4.78125 -14.5 4.78125 -11.8125 
Q 4.78125 -9.078125 6.390625 -7.078125 
Q 8.015625 -5.078125 10.6875 -5.078125 
Q 12.3125 -5.078125 13.40625 -6.078125 
Q 14.5 -7.078125 14.5 -8.6875 
Q 14.5 -10.984375 12.78125 -12.6875 
Q 11.078125 -14.40625 8.796875 -14.40625 
Q 8.6875 -14.359375 8.59375 -14.328125 
Q 8.5 -14.3125 8.40625 -14.3125 
z
" id="Cmmi10-121"/>
     </defs>
     <use transform="translate(0 0.597135)" xlink:href="#Cmmi10-121"/>
     <use transform="translate(55.326719 104.202344)scale(0.7)" xlink:href="#Cmex10-173"/>
     <use transform="translate(88.378477 38.861198)scale(0.7)" xlink:href="#Cmr10-49"/>
     <use transform="translate(123.378477 104.202344)scale(0.7)" xlink:href="#Cmex10-174"/>
    </g>
   </g>
   <g id="patch_9">
    <path d="M 76.791842 116.567405 
Q 76.791842 131.228346 76.791842 147.007321 
" style="fill:none;stroke:#000000;stroke-linecap:round;"/>
    <path d="M 74.791842 120.567405 
L 76.791842 116.567405 
L 78.791842 120.567405 
" style="fill:none;stroke:#000000;stroke-linecap:round;"/>
   </g>
   <g id="text_5">
    <g id="patch_10">
     <path d="M 61.126842 53.510541 
L 92.456842 53.510541 
L 92.456842 31.410541 
L 61.126842 31.410541 
z
" style="fill:#ffffff;stroke:#000000;stroke-linejoin:miter;"/>
    </g>
    <!-- $\mathcal{L}^{\langle 1 \rangle}$ -->
    <g transform="translate(65.026842 46.906947)scale(0.13 -0.13)">
     <defs>
      <path d="M 3.71875 -2.203125 
Q 3.078125 -2.203125 3.078125 -1.515625 
Q 3.078125 -1.125 3.421875 -0.59375 
Q 4.15625 0.59375 5.609375 2.03125 
Q 7.078125 3.46875 7.71875 4.296875 
Q 10.25 7.953125 11.71875 10.796875 
Q 14.265625 16.0625 16.109375 22.90625 
Q 18.84375 33.796875 21.0625 40.578125 
Q 23.296875 47.359375 26.90625 53.421875 
Q 29.734375 58.109375 33.875 61.984375 
Q 38.03125 65.875 43.078125 68.1875 
Q 48.140625 70.515625 53.421875 70.515625 
L 54 70.515625 
Q 56.59375 70.515625 58.34375 69.21875 
Q 60.109375 67.921875 61.015625 65.75 
Q 61.921875 63.578125 61.921875 61.078125 
Q 61.921875 57.28125 60.6875 55.8125 
Q 57.234375 52.046875 52.484375 51.421875 
L 51.90625 51.421875 
Q 51.3125 51.421875 51.3125 52.09375 
Q 51.3125 52.203125 51.5625 53.609375 
Q 51.8125 55.03125 51.8125 56 
Q 51.8125 59.234375 50.1875 61.625 
Q 48.578125 64.015625 45.40625 64.015625 
Q 41.703125 64.015625 41.703125 63.375 
Q 38.96875 61.46875 36.453125 57.046875 
Q 33.9375 52.640625 32.046875 47.484375 
Q 30.171875 42.328125 28.703125 37.125 
Q 27.25 31.9375 26.125 27.390625 
Q 24.90625 22.46875 22.96875 17.9375 
Q 21.046875 13.421875 18.40625 9.421875 
Q 19.578125 9.8125 21.296875 9.8125 
L 21.921875 9.8125 
Q 25.390625 9.8125 28.859375 9.109375 
Q 32.328125 8.40625 37.15625 7.03125 
Q 42 5.671875 45.21875 5 
Q 48.4375 4.34375 52 4.296875 
Q 53.078125 4.296875 53.75 5.265625 
Q 54.4375 6.25 55.09375 7.984375 
Q 55.765625 9.71875 56.203125 10.296875 
Q 57.71875 11.96875 59.90625 13.1875 
Q 62.109375 14.40625 64.3125 14.703125 
L 64.890625 14.703125 
Q 65.1875 14.703125 65.375 14.5 
Q 65.578125 14.3125 65.578125 14.015625 
Q 65.578125 14.015625 65.484375 13.71875 
Q 64.5 9.8125 60.890625 6.03125 
Q 57.28125 2.25 52.65625 0.015625 
Q 48.046875 -2.203125 44.1875 -2.203125 
L 43.609375 -2.203125 
Q 40.140625 -2.203125 36.8125 -1.5625 
Q 33.5 -0.921875 28.65625 0.4375 
Q 23.828125 1.8125 20.375 2.53125 
Q 16.9375 3.265625 13.484375 3.328125 
Q 9.03125 -1.5625 4.296875 -2.203125 
z
" id="Cmsy10-76"/>
     </defs>
     <use transform="translate(0 0.597135)" xlink:href="#Cmsy10-76"/>
     <use transform="translate(73.360625 104.202344)scale(0.7)" xlink:href="#Cmex10-173"/>
     <use transform="translate(106.412383 38.861198)scale(0.7)" xlink:href="#Cmr10-49"/>
     <use transform="translate(141.412383 104.202344)scale(0.7)" xlink:href="#Cmex10-174"/>
    </g>
   </g>
   <g id="patch_11">
    <path d="M 76.791842 56.626179 
Q 76.791842 71.25828 76.791842 87.008416 
" style="fill:none;stroke:#000000;stroke-linecap:round;"/>
    <path d="M 74.791842 60.626179 
L 76.791842 56.626179 
L 78.791842 60.626179 
" style="fill:none;stroke:#000000;stroke-linecap:round;"/>
   </g>
   <g id="patch_12">
    <path d="M 79.75589 84.837766 
Q 88.08025 72.113262 80.195371 58.45315 
" style="fill:none;stroke:#ff0000;stroke-linecap:round;"/>
    <path d="M 83.619384 82.585341 
L 79.75589 84.837766 
L 80.272047 80.395516 
" style="fill:none;stroke:#ff0000;stroke-linecap:round;"/>
   </g>
   <g id="patch_13">
    <path d="M 79.757484 144.838835 
Q 88.104538 132.083451 80.19743 118.392541 
" style="fill:none;stroke:#ff0000;stroke-linecap:round;"/>
    <path d="M 83.621286 142.586939 
L 79.757484 144.838835 
L 80.274249 140.396656 
" style="fill:none;stroke:#ff0000;stroke-linecap:round;"/>
   </g>
   <g id="text_6">
    <g id="patch_14">
     <path d="M 120.773684 170.980676 
L 150.283684 170.980676 
L 150.283684 149.010676 
L 120.773684 149.010676 
z
" style="fill:#ffffff;stroke:#000000;stroke-linejoin:miter;"/>
    </g>
    <!-- $a^{\langle 2 \rangle}$ -->
    <g transform="translate(124.673684 164.377082)scale(0.13 -0.13)">
     <defs>
      <path d="M 4.984375 0 
L 4.984375 2.6875 
Q 4.984375 2.9375 5.171875 3.21875 
L 20.703125 20.40625 
Q 24.21875 24.21875 26.40625 26.796875 
Q 28.609375 29.390625 30.75 32.765625 
Q 32.90625 36.140625 34.15625 39.625 
Q 35.40625 43.109375 35.40625 47.015625 
Q 35.40625 51.125 33.890625 54.859375 
Q 32.375 58.59375 29.375 60.84375 
Q 26.375 63.09375 22.125 63.09375 
Q 17.78125 63.09375 14.3125 60.46875 
Q 10.84375 57.859375 9.421875 53.71875 
Q 9.8125 53.8125 10.5 53.8125 
Q 12.75 53.8125 14.328125 52.296875 
Q 15.921875 50.78125 15.921875 48.390625 
Q 15.921875 46.09375 14.328125 44.5 
Q 12.75 42.921875 10.5 42.921875 
Q 8.15625 42.921875 6.5625 44.546875 
Q 4.984375 46.1875 4.984375 48.390625 
Q 4.984375 52.15625 6.390625 55.4375 
Q 7.8125 58.734375 10.46875 61.296875 
Q 13.140625 63.875 16.484375 65.234375 
Q 19.828125 66.609375 23.578125 66.609375 
Q 29.296875 66.609375 34.21875 64.1875 
Q 39.15625 61.765625 42.03125 57.34375 
Q 44.921875 52.9375 44.921875 47.015625 
Q 44.921875 42.671875 43.015625 38.765625 
Q 41.109375 34.859375 38.125 31.65625 
Q 35.15625 28.46875 30.515625 24.40625 
Q 25.875 20.359375 24.421875 19 
L 13.09375 8.109375 
L 22.703125 8.109375 
Q 29.78125 8.109375 34.546875 8.21875 
Q 39.3125 8.34375 39.59375 8.59375 
Q 40.765625 9.859375 42 17.828125 
L 44.921875 17.828125 
L 42.09375 0 
z
" id="Cmr10-50"/>
     </defs>
     <use transform="translate(0 0.597135)" xlink:href="#Cmmi10-97"/>
     <use transform="translate(59.086484 104.202344)scale(0.7)" xlink:href="#Cmex10-173"/>
     <use transform="translate(92.138242 38.861198)scale(0.7)" xlink:href="#Cmr10-50"/>
     <use transform="translate(127.138242 104.202344)scale(0.7)" xlink:href="#Cmex10-174"/>
    </g>
   </g>
   <g id="patch_15">
    <path d="M 117.654154 159.995676 
Q 106.158199 159.995676 93.544209 159.995676 
" style="fill:none;stroke:#000000;stroke-linecap:round;"/>
    <path d="M 113.654154 157.995676 
L 117.654154 159.995676 
L 113.654154 161.995676 
" style="fill:none;stroke:#000000;stroke-linecap:round;"/>
   </g>
   <g id="patch_16">
    <path d="M 94.052083 172.835765 
Q 106.159923 181.464966 119.178229 172.187365 
" style="fill:none;stroke:#ff0000;stroke-linecap:round;"/>
    <path d="M 96.148705 176.785977 
L 94.052083 172.835765 
L 98.470226 173.528595 
" style="fill:none;stroke:#ff0000;stroke-linecap:round;"/>
   </g>
   <g id="text_7">
    <g id="patch_17">
     <path d="M 120.513684 229.748243 
L 150.543684 229.748243 
L 150.543684 207.778243 
L 120.513684 207.778243 
z
" style="fill:#ffffff;"/>
    </g>
    <!-- $x^{\langle 2 \rangle}$ -->
    <g transform="translate(124.413684 223.144649)scale(0.13 -0.13)">
     <use transform="translate(0 0.597135)" xlink:href="#Cmmi10-120"/>
     <use transform="translate(63.383359 104.202344)scale(0.7)" xlink:href="#Cmex10-173"/>
     <use transform="translate(96.435117 38.861198)scale(0.7)" xlink:href="#Cmr10-50"/>
     <use transform="translate(131.435117 104.202344)scale(0.7)" xlink:href="#Cmex10-174"/>
    </g>
   </g>
   <g id="patch_18">
    <path d="M 135.528684 205.779352 
Q 135.528684 189.380391 135.528684 174.099464 
" style="fill:none;stroke:#000000;stroke-linecap:round;"/>
    <path d="M 133.528684 178.099464 
L 135.528684 174.099464 
L 137.528684 178.099464 
" style="fill:none;stroke:#000000;stroke-linecap:round;"/>
   </g>
   <g id="text_8">
    <g id="patch_19">
     <path d="M 121.033684 113.448108 
L 150.023684 113.448108 
L 150.023684 89.008108 
L 121.033684 89.008108 
z
" style="fill:#ffffff;stroke:#000000;stroke-linejoin:miter;"/>
    </g>
    <!-- $y^{\langle 2 \rangle}$ -->
    <g transform="translate(124.933684 106.818108)scale(0.13 -0.13)">
     <use transform="translate(0 0.597135)" xlink:href="#Cmmi10-121"/>
     <use transform="translate(55.326719 104.202344)scale(0.7)" xlink:href="#Cmex10-173"/>
     <use transform="translate(88.378477 38.861198)scale(0.7)" xlink:href="#Cmr10-50"/>
     <use transform="translate(123.378477 104.202344)scale(0.7)" xlink:href="#Cmex10-174"/>
    </g>
   </g>
   <g id="patch_20">
    <path d="M 135.528684 116.567405 
Q 135.528684 131.228346 135.528684 147.007321 
" style="fill:none;stroke:#000000;stroke-linecap:round;"/>
    <path d="M 133.528684 120.567405 
L 135.528684 116.567405 
L 137.528684 120.567405 
" style="fill:none;stroke:#000000;stroke-linecap:round;"/>
   </g>
   <g id="text_9">
    <g id="patch_21">
     <path d="M 119.863684 53.510541 
L 151.193684 53.510541 
L 151.193684 31.410541 
L 119.863684 31.410541 
z
" style="fill:#ffffff;stroke:#000000;stroke-linejoin:miter;"/>
    </g>
    <!-- $\mathcal{L}^{\langle 2 \rangle}$ -->
    <g transform="translate(123.763684 46.906947)scale(0.13 -0.13)">
     <use transform="translate(0 0.597135)" xlink:href="#Cmsy10-76"/>
     <use transform="translate(73.360625 104.202344)scale(0.7)" xlink:href="#Cmex10-173"/>
     <use transform="translate(106.412383 38.861198)scale(0.7)" xlink:href="#Cmr10-50"/>
     <use transform="translate(141.412383 104.202344)scale(0.7)" xlink:href="#Cmex10-174"/>
    </g>
   </g>
   <g id="patch_22">
    <path d="M 135.528684 56.626179 
Q 135.528684 71.25828 135.528684 87.008416 
" style="fill:none;stroke:#000000;stroke-linecap:round;"/>
    <path d="M 133.528684 60.626179 
L 135.528684 56.626179 
L 137.528684 60.626179 
" style="fill:none;stroke:#000000;stroke-linecap:round;"/>
   </g>
   <g id="patch_23">
    <path d="M 138.492732 84.837766 
Q 146.817092 72.113262 138.932213 58.45315 
" style="fill:none;stroke:#ff0000;stroke-linecap:round;"/>
    <path d="M 142.356226 82.585341 
L 138.492732 84.837766 
L 139.008889 80.395516 
" style="fill:none;stroke:#ff0000;stroke-linecap:round;"/>
   </g>
   <g id="patch_24">
    <path d="M 138.494326 144.838835 
Q 146.84138 132.083451 138.934272 118.392541 
" style="fill:none;stroke:#ff0000;stroke-linecap:round;"/>
    <path d="M 142.358128 142.586939 
L 138.494326 144.838835 
L 139.011091 140.396656 
" style="fill:none;stroke:#ff0000;stroke-linecap:round;"/>
   </g>
   <g id="text_10">
    <g id="patch_25">
     <path d="M 179.510526 170.980676 
L 209.020526 170.980676 
L 209.020526 149.010676 
L 179.510526 149.010676 
z
" style="fill:#ffffff;stroke:#000000;stroke-linejoin:miter;"/>
    </g>
    <!-- $a^{\langle 3 \rangle}$ -->
    <g transform="translate(183.410526 164.377082)scale(0.13 -0.13)">
     <defs>
      <path d="M 9.515625 7.71875 
Q 11.859375 4.296875 15.8125 2.640625 
Q 19.78125 0.984375 24.3125 0.984375 
Q 30.125 0.984375 32.5625 5.9375 
Q 35.015625 10.890625 35.015625 17.1875 
Q 35.015625 20.015625 34.5 22.84375 
Q 33.984375 25.6875 32.765625 28.125 
Q 31.546875 30.5625 29.421875 32.03125 
Q 27.296875 33.5 24.21875 33.5 
L 17.578125 33.5 
Q 16.703125 33.5 16.703125 34.421875 
L 16.703125 35.296875 
Q 16.703125 36.078125 17.578125 36.078125 
L 23.09375 36.53125 
Q 26.609375 36.53125 28.921875 39.15625 
Q 31.25 41.796875 32.328125 45.578125 
Q 33.40625 49.359375 33.40625 52.78125 
Q 33.40625 57.5625 31.15625 60.640625 
Q 28.90625 63.71875 24.3125 63.71875 
Q 20.515625 63.71875 17.046875 62.28125 
Q 13.578125 60.84375 11.53125 57.90625 
Q 11.71875 57.953125 11.859375 57.984375 
Q 12.015625 58.015625 12.203125 58.015625 
Q 14.453125 58.015625 15.96875 56.453125 
Q 17.484375 54.890625 17.484375 52.6875 
Q 17.484375 50.53125 15.96875 48.96875 
Q 14.453125 47.40625 12.203125 47.40625 
Q 10.015625 47.40625 8.453125 48.96875 
Q 6.890625 50.53125 6.890625 52.6875 
Q 6.890625 56.984375 9.46875 60.15625 
Q 12.0625 63.328125 16.140625 64.96875 
Q 20.21875 66.609375 24.3125 66.609375 
Q 27.34375 66.609375 30.703125 65.703125 
Q 34.078125 64.796875 36.8125 63.109375 
Q 39.546875 61.421875 41.28125 58.78125 
Q 43.015625 56.15625 43.015625 52.78125 
Q 43.015625 48.578125 41.140625 45.015625 
Q 39.265625 41.453125 35.984375 38.859375 
Q 32.71875 36.28125 28.8125 35.015625 
Q 33.15625 34.1875 37.0625 31.734375 
Q 40.96875 29.296875 43.328125 25.484375 
Q 45.703125 21.6875 45.703125 17.28125 
Q 45.703125 11.765625 42.671875 7.296875 
Q 39.65625 2.828125 34.71875 0.3125 
Q 29.78125 -2.203125 24.3125 -2.203125 
Q 19.625 -2.203125 14.90625 -0.40625 
Q 10.203125 1.375 7.203125 4.9375 
Q 4.203125 8.5 4.203125 13.484375 
Q 4.203125 15.96875 5.859375 17.625 
Q 7.515625 19.28125 10.015625 19.28125 
Q 11.625 19.28125 12.96875 18.53125 
Q 14.3125 17.78125 15.0625 16.40625 
Q 15.828125 15.046875 15.828125 13.484375 
Q 15.828125 11.03125 14.109375 9.375 
Q 12.40625 7.71875 10.015625 7.71875 
z
" id="Cmr10-51"/>
     </defs>
     <use transform="translate(0 0.597135)" xlink:href="#Cmmi10-97"/>
     <use transform="translate(59.086484 104.202344)scale(0.7)" xlink:href="#Cmex10-173"/>
     <use transform="translate(92.138242 38.861198)scale(0.7)" xlink:href="#Cmr10-51"/>
     <use transform="translate(127.138242 104.202344)scale(0.7)" xlink:href="#Cmex10-174"/>
    </g>
   </g>
   <g id="patch_26">
    <path d="M 176.390996 159.995676 
Q 164.895041 159.995676 152.281051 159.995676 
" style="fill:none;stroke:#000000;stroke-linecap:round;"/>
    <path d="M 172.390996 157.995676 
L 176.390996 159.995676 
L 172.390996 161.995676 
" style="fill:none;stroke:#000000;stroke-linecap:round;"/>
   </g>
   <g id="patch_27">
    <path d="M 152.788925 172.835765 
Q 164.896765 181.464966 177.915071 172.187365 
" style="fill:none;stroke:#ff0000;stroke-linecap:round;"/>
    <path d="M 154.885547 176.785977 
L 152.788925 172.835765 
L 157.207068 173.528595 
" style="fill:none;stroke:#ff0000;stroke-linecap:round;"/>
   </g>
   <g id="text_11">
    <g id="patch_28">
     <path d="M 179.250526 229.748243 
L 209.280526 229.748243 
L 209.280526 207.778243 
L 179.250526 207.778243 
z
" style="fill:#ffffff;"/>
    </g>
    <!-- $x^{\langle 3 \rangle}$ -->
    <g transform="translate(183.150526 223.144649)scale(0.13 -0.13)">
     <use transform="translate(0 0.597135)" xlink:href="#Cmmi10-120"/>
     <use transform="translate(63.383359 104.202344)scale(0.7)" xlink:href="#Cmex10-173"/>
     <use transform="translate(96.435117 38.861198)scale(0.7)" xlink:href="#Cmr10-51"/>
     <use transform="translate(131.435117 104.202344)scale(0.7)" xlink:href="#Cmex10-174"/>
    </g>
   </g>
   <g id="patch_29">
    <path d="M 194.265526 205.779352 
Q 194.265526 189.380391 194.265526 174.099464 
" style="fill:none;stroke:#000000;stroke-linecap:round;"/>
    <path d="M 192.265526 178.099464 
L 194.265526 174.099464 
L 196.265526 178.099464 
" style="fill:none;stroke:#000000;stroke-linecap:round;"/>
   </g>
   <g id="text_12">
    <g id="patch_30">
     <path d="M 179.770526 113.448108 
L 208.760526 113.448108 
L 208.760526 89.008108 
L 179.770526 89.008108 
z
" style="fill:#ffffff;stroke:#000000;stroke-linejoin:miter;"/>
    </g>
    <!-- $y^{\langle 3 \rangle}$ -->
    <g transform="translate(183.670526 106.818108)scale(0.13 -0.13)">
     <use transform="translate(0 0.597135)" xlink:href="#Cmmi10-121"/>
     <use transform="translate(55.326719 104.202344)scale(0.7)" xlink:href="#Cmex10-173"/>
     <use transform="translate(88.378477 38.861198)scale(0.7)" xlink:href="#Cmr10-51"/>
     <use transform="translate(123.378477 104.202344)scale(0.7)" xlink:href="#Cmex10-174"/>
    </g>
   </g>
   <g id="patch_31">
    <path d="M 194.265526 116.567405 
Q 194.265526 131.228346 194.265526 147.007321 
" style="fill:none;stroke:#000000;stroke-linecap:round;"/>
    <path d="M 192.265526 120.567405 
L 194.265526 116.567405 
L 196.265526 120.567405 
" style="fill:none;stroke:#000000;stroke-linecap:round;"/>
   </g>
   <g id="text_13">
    <g id="patch_32">
     <path d="M 178.600526 53.510541 
L 209.930526 53.510541 
L 209.930526 31.410541 
L 178.600526 31.410541 
z
" style="fill:#ffffff;stroke:#000000;stroke-linejoin:miter;"/>
    </g>
    <!-- $\mathcal{L}^{\langle 3 \rangle}$ -->
    <g transform="translate(182.500526 46.906947)scale(0.13 -0.13)">
     <use transform="translate(0 0.597135)" xlink:href="#Cmsy10-76"/>
     <use transform="translate(73.360625 104.202344)scale(0.7)" xlink:href="#Cmex10-173"/>
     <use transform="translate(106.412383 38.861198)scale(0.7)" xlink:href="#Cmr10-51"/>
     <use transform="translate(141.412383 104.202344)scale(0.7)" xlink:href="#Cmex10-174"/>
    </g>
   </g>
   <g id="patch_33">
    <path d="M 194.265526 56.626179 
Q 194.265526 71.25828 194.265526 87.008416 
" style="fill:none;stroke:#000000;stroke-linecap:round;"/>
    <path d="M 192.265526 60.626179 
L 194.265526 56.626179 
L 196.265526 60.626179 
" style="fill:none;stroke:#000000;stroke-linecap:round;"/>
   </g>
   <g id="patch_34">
    <path d="M 197.229574 84.837766 
Q 205.553934 72.113262 197.669055 58.45315 
" style="fill:none;stroke:#ff0000;stroke-linecap:round;"/>
    <path d="M 201.093068 82.585341 
L 197.229574 84.837766 
L 197.745731 80.395516 
" style="fill:none;stroke:#ff0000;stroke-linecap:round;"/>
   </g>
   <g id="patch_35">
    <path d="M 197.231169 144.838835 
Q 205.578222 132.083451 197.671114 118.392541 
" style="fill:none;stroke:#ff0000;stroke-linecap:round;"/>
    <path d="M 201.09497 142.586939 
L 197.231169 144.838835 
L 197.747933 140.396656 
" style="fill:none;stroke:#ff0000;stroke-linecap:round;"/>
   </g>
   <g id="text_14">
    <g id="patch_36">
     <path d="M 243.057368 170.186457 
L 262.947368 170.186457 
L 262.947368 149.804894 
L 243.057368 149.804894 
z
" style="fill:#ffffff;"/>
    </g>
    <!-- $\cdots$ -->
    <g transform="translate(246.957368 163.582863)scale(0.13 -0.13)">
     <defs>
      <path d="M 81.796875 25.296875 
Q 81.796875 22.703125 80.046875 20.796875 
Q 78.296875 18.90625 75.5 18.90625 
Q 72.59375 18.90625 70.84375 20.65625 
Q 69.09375 22.40625 69.09375 25.296875 
Q 69.09375 28 71.046875 29.796875 
Q 73 31.59375 75.5 31.59375 
Q 78 31.59375 79.890625 29.796875 
Q 81.796875 28 81.796875 25.296875 
z
M 52.59375 25.296875 
Q 52.59375 22.703125 50.84375 20.796875 
Q 49.09375 18.90625 46.296875 18.90625 
Q 43.40625 18.90625 41.65625 20.65625 
Q 39.90625 22.40625 39.90625 25.296875 
Q 39.90625 28 41.84375 29.796875 
Q 43.796875 31.59375 46.296875 31.59375 
Q 48.796875 31.59375 50.6875 29.796875 
Q 52.59375 28 52.59375 25.296875 
z
M 23.5 25.296875 
Q 23.5 22.703125 21.75 20.796875 
Q 20 18.90625 17.203125 18.90625 
Q 14.296875 18.90625 12.546875 20.65625 
Q 10.796875 22.40625 10.796875 25.296875 
Q 10.796875 28 12.75 29.796875 
Q 14.703125 31.59375 17.203125 31.59375 
Q 19.703125 31.59375 21.59375 29.796875 
Q 23.5 28 23.5 25.296875 
z
" id="STIXGeneral-Regular-8943"/>
     </defs>
     <use transform="translate(0 0.40625)" xlink:href="#STIXGeneral-Regular-8943"/>
    </g>
   </g>
   <g id="patch_37">
    <path d="M 239.940833 159.995676 
Q 226.03894 159.995676 211.019012 159.995676 
" style="fill:none;stroke:#000000;stroke-linecap:round;"/>
    <path d="M 235.940833 157.995676 
L 239.940833 159.995676 
L 235.940833 161.995676 
" style="fill:none;stroke:#000000;stroke-linecap:round;"/>
   </g>
   <g id="patch_38">
    <path d="M 211.558165 172.790756 
Q 226.328825 182.986597 241.497318 171.434877 
" style="fill:none;stroke:#ff0000;stroke-linecap:round;"/>
    <path d="M 213.713901 176.709021 
L 211.558165 172.790756 
L 215.986219 173.417127 
" style="fill:none;stroke:#ff0000;stroke-linecap:round;"/>
   </g>
   <g id="text_15">
    <g id="patch_39">
     <path d="M 294.514211 170.980676 
L 328.964211 170.980676 
L 328.964211 149.010676 
L 294.514211 149.010676 
z
" style="fill:#ffffff;stroke:#000000;stroke-linejoin:miter;"/>
    </g>
    <!-- $a^{\langle T_x \rangle}$ -->
    <g transform="translate(298.414211 164.377082)scale(0.13 -0.13)">
     <defs>
      <path d="M 4.59375 1.3125 
Q 4.640625 1.5625 4.8125 2.1875 
Q 4.984375 2.828125 5.25 3.171875 
Q 5.515625 3.515625 6 3.515625 
Q 14.59375 3.515625 17.390625 4 
Q 20.0625 4.6875 20.609375 6.890625 
L 34.28125 61.8125 
Q 34.71875 63.03125 34.71875 64.015625 
Q 34.71875 64.796875 31.203125 64.796875 
L 25.390625 64.796875 
Q 18.703125 64.796875 15.0625 62.734375 
Q 11.421875 60.6875 9.71875 57.3125 
Q 8.015625 53.953125 5.328125 46.296875 
Q 4.984375 45.40625 4.296875 45.40625 
L 3.421875 45.40625 
Q 2.390625 45.40625 2.390625 46.6875 
L 9.515625 67.390625 
Q 9.71875 68.3125 10.5 68.3125 
L 69.578125 68.3125 
Q 70.609375 68.3125 70.609375 67 
L 67.28125 46.296875 
Q 67.28125 46 66.9375 45.703125 
Q 66.609375 45.40625 66.3125 45.40625 
L 65.375 45.40625 
Q 64.40625 45.40625 64.40625 46.6875 
Q 65.484375 53.765625 65.484375 56.6875 
Q 65.484375 60.203125 64.015625 62 
Q 62.546875 63.8125 60.203125 64.296875 
Q 57.859375 64.796875 54.109375 64.796875 
L 48.1875 64.796875 
Q 45.515625 64.796875 44.578125 64.296875 
Q 43.65625 63.8125 43.015625 61.375 
L 29.296875 6.5 
Q 29.25 6.296875 29.21875 6.09375 
Q 29.203125 5.90625 29.109375 5.609375 
Q 29.109375 4.34375 30.609375 4 
Q 33.203125 3.515625 41.703125 3.515625 
Q 42.671875 3.515625 42.671875 2.203125 
Q 42.328125 0.78125 42.125 0.390625 
Q 41.9375 0 41.015625 0 
L 5.609375 0 
Q 4.59375 0 4.59375 1.3125 
z
" id="Cmmi10-84"/>
     </defs>
     <use transform="translate(0 0.597135)" xlink:href="#Cmmi10-97"/>
     <use transform="translate(59.086484 104.202344)scale(0.7)" xlink:href="#Cmex10-173"/>
     <use transform="translate(92.138242 38.861198)scale(0.7)" xlink:href="#Cmmi10-84"/>
     <use transform="translate(133.017148 26.956823)scale(0.49)" xlink:href="#Cmmi10-120"/>
     <use transform="translate(165.450527 104.202344)scale(0.7)" xlink:href="#Cmex10-174"/>
    </g>
   </g>
   <g id="patch_40">
    <path d="M 291.396275 159.995676 
Q 278.732405 159.995676 264.9505 159.995676 
" style="fill:none;stroke:#000000;stroke-linecap:round;"/>
    <path d="M 287.396275 157.995676 
L 291.396275 159.995676 
L 287.396275 161.995676 
" style="fill:none;stroke:#000000;stroke-linecap:round;"/>
   </g>
   <g id="patch_41">
    <path d="M 265.399295 172.110963 
Q 278.443388 182.001235 292.892077 172.14979 
" style="fill:none;stroke:#ff0000;stroke-linecap:round;"/>
    <path d="M 267.378311 176.121387 
L 265.399295 172.110963 
L 269.795043 172.934004 
" style="fill:none;stroke:#ff0000;stroke-linecap:round;"/>
   </g>
   <g id="text_16">
    <g id="patch_42">
     <path d="M 294.189211 229.748243 
L 329.289211 229.748243 
L 329.289211 207.778243 
L 294.189211 207.778243 
z
" style="fill:#ffffff;"/>
    </g>
    <!-- $x^{\langle T_x \rangle}$ -->
    <g transform="translate(298.089211 223.144649)scale(0.13 -0.13)">
     <use transform="translate(0 0.597135)" xlink:href="#Cmmi10-120"/>
     <use transform="translate(63.383359 104.202344)scale(0.7)" xlink:href="#Cmex10-173"/>
     <use transform="translate(96.435117 38.861198)scale(0.7)" xlink:href="#Cmmi10-84"/>
     <use transform="translate(137.314023 26.956823)scale(0.49)" xlink:href="#Cmmi10-120"/>
     <use transform="translate(169.747402 104.202344)scale(0.7)" xlink:href="#Cmex10-174"/>
    </g>
   </g>
   <g id="patch_43">
    <path d="M 311.739211 205.779352 
Q 311.739211 189.380391 311.739211 174.099464 
" style="fill:none;stroke:#000000;stroke-linecap:round;"/>
    <path d="M 309.739211 178.099464 
L 311.739211 174.099464 
L 313.739211 178.099464 
" style="fill:none;stroke:#000000;stroke-linecap:round;"/>
   </g>
   <g id="text_17">
    <g id="patch_44">
     <path d="M 294.969211 113.448108 
L 328.509211 113.448108 
L 328.509211 89.008108 
L 294.969211 89.008108 
z
" style="fill:#ffffff;stroke:#000000;stroke-linejoin:miter;"/>
    </g>
    <!-- $y^{\langle T_y \rangle}$ -->
    <g transform="translate(298.869211 106.818108)scale(0.13 -0.13)">
     <use transform="translate(0 0.597135)" xlink:href="#Cmmi10-121"/>
     <use transform="translate(55.326719 104.202344)scale(0.7)" xlink:href="#Cmex10-173"/>
     <use transform="translate(88.378477 38.861198)scale(0.7)" xlink:href="#Cmmi10-84"/>
     <use transform="translate(129.257383 26.956823)scale(0.49)" xlink:href="#Cmmi10-121"/>
     <use transform="translate(157.743008 104.202344)scale(0.7)" xlink:href="#Cmex10-174"/>
    </g>
   </g>
   <g id="patch_45">
    <path d="M 311.739211 116.567405 
Q 311.739211 131.228346 311.739211 147.007321 
" style="fill:none;stroke:#000000;stroke-linecap:round;"/>
    <path d="M 309.739211 120.567405 
L 311.739211 116.567405 
L 313.739211 120.567405 
" style="fill:none;stroke:#000000;stroke-linecap:round;"/>
   </g>
   <g id="text_18">
    <g id="patch_46">
     <path d="M 293.799211 53.510541 
L 329.679211 53.510541 
L 329.679211 31.410541 
L 293.799211 31.410541 
z
" style="fill:#ffffff;stroke:#000000;stroke-linejoin:miter;"/>
    </g>
    <!-- $\mathcal{L}^{\langle T_y \rangle}$ -->
    <g transform="translate(297.699211 46.906947)scale(0.13 -0.13)">
     <use transform="translate(0 0.597135)" xlink:href="#Cmsy10-76"/>
     <use transform="translate(73.360625 104.202344)scale(0.7)" xlink:href="#Cmex10-173"/>
     <use transform="translate(106.412383 38.861198)scale(0.7)" xlink:href="#Cmmi10-84"/>
     <use transform="translate(147.291289 26.956823)scale(0.49)" xlink:href="#Cmmi10-121"/>
     <use transform="translate(175.776914 104.202344)scale(0.7)" xlink:href="#Cmex10-174"/>
    </g>
   </g>
   <g id="patch_47">
    <path d="M 311.739211 56.626179 
Q 311.739211 71.25828 311.739211 87.008416 
" style="fill:none;stroke:#000000;stroke-linecap:round;"/>
    <path d="M 309.739211 60.626179 
L 311.739211 56.626179 
L 313.739211 60.626179 
" style="fill:none;stroke:#000000;stroke-linecap:round;"/>
   </g>
   <g id="patch_48">
    <path d="M 314.703259 84.837766 
Q 323.027619 72.113262 315.142739 58.45315 
" style="fill:none;stroke:#ff0000;stroke-linecap:round;"/>
    <path d="M 318.566752 82.585341 
L 314.703259 84.837766 
L 315.219415 80.395516 
" style="fill:none;stroke:#ff0000;stroke-linecap:round;"/>
   </g>
   <g id="patch_49">
    <path d="M 314.704853 144.838835 
Q 323.051907 132.083451 315.144798 118.392541 
" style="fill:none;stroke:#ff0000;stroke-linecap:round;"/>
    <path d="M 318.568655 142.586939 
L 314.704853 144.838835 
L 315.221617 140.396656 
" style="fill:none;stroke:#ff0000;stroke-linecap:round;"/>
   </g>
   <g id="text_19">
    <g id="patch_50">
     <path d="M 334.657632 20.915819 
L 347.557632 20.915819 
L 347.557632 5.237694 
L 334.657632 5.237694 
z
" style="fill:#ffffff;stroke:#000000;stroke-linejoin:miter;"/>
    </g>
    <!-- $\mathcal{L}$ -->
    <g transform="translate(337.657632 15.836132)scale(0.1 -0.1)">
     <use transform="translate(0 0.484375)" xlink:href="#Cmsy10-76"/>
    </g>
   </g>
   <g id="patch_51">
    <path d="M 331.536742 13.076757 
L 78.791842 13.076757 
Q 76.791842 13.076757 76.791842 15.076757 
L 76.791842 29.412683 
" style="fill:none;stroke:#000000;stroke-linecap:round;"/>
    <path d="M 327.536742 11.076757 
L 331.536742 13.076757 
L 327.536742 15.076757 
" style="fill:none;stroke:#000000;stroke-linecap:round;"/>
   </g>
   <g id="patch_52">
    <path d="M 95.547144 30.969166 
Q 213.041918 14.250578 332.658823 20.804668 
" style="fill:none;stroke:#ff0000;stroke-linecap:round;"/>
    <path d="M 99.789001 32.385729 
L 95.547144 30.969166 
L 99.225508 28.425618 
" style="fill:none;stroke:#ff0000;stroke-linecap:round;"/>
   </g>
   <g id="patch_53">
    <path d="M 331.539311 13.076757 
L 137.528684 13.076757 
Q 135.528684 13.076757 135.528684 15.076757 
L 135.528684 29.412683 
" style="fill:none;stroke:#000000;stroke-linecap:round;"/>
    <path d="M 327.539311 11.076757 
L 331.539311 13.076757 
L 327.539311 15.076757 
" style="fill:none;stroke:#000000;stroke-linecap:round;"/>
   </g>
   <g id="patch_54">
    <path d="M 154.271943 30.928437 
Q 242.411814 17.186368 332.660915 20.832996 
" style="fill:none;stroke:#ff0000;stroke-linecap:round;"/>
    <path d="M 158.532296 32.288359 
L 154.271943 30.928437 
L 157.916092 28.336107 
" style="fill:none;stroke:#ff0000;stroke-linecap:round;"/>
   </g>
   <g id="patch_55">
    <path d="M 331.541933 13.076757 
L 196.265526 13.076757 
Q 194.265526 13.076757 194.265526 15.076757 
L 194.265526 29.412683 
" style="fill:none;stroke:#000000;stroke-linecap:round;"/>
    <path d="M 327.541933 11.076757 
L 331.541933 13.076757 
L 327.541933 15.076757 
" style="fill:none;stroke:#000000;stroke-linecap:round;"/>
   </g>
   <g id="patch_56">
    <path d="M 212.997102 30.847849 
Q 271.78654 20.121842 332.659669 20.887543 
" style="fill:none;stroke:#ff0000;stroke-linecap:round;"/>
    <path d="M 217.291115 32.09743 
L 212.997102 30.847849 
L 216.573174 28.162387 
" style="fill:none;stroke:#ff0000;stroke-linecap:round;"/>
   </g>
   <g id="patch_57">
    <path d="M 331.540193 13.076757 
L 313.739211 13.076757 
Q 311.739211 13.076757 311.739211 15.076757 
L 311.739211 29.412683 
" style="fill:none;stroke:#000000;stroke-linecap:round;"/>
    <path d="M 327.540193 11.076757 
L 331.540193 13.076757 
L 327.540193 15.076757 
" style="fill:none;stroke:#000000;stroke-linecap:round;"/>
   </g>
   <g id="patch_58">
    <path d="M 330.796411 28.499172 
Q 331.792309 25.98651 333.652433 22.649022 
" style="fill:none;stroke:#ff0000;stroke-linecap:round;"/>
    <path d="M 334.129555 25.517536 
L 330.796411 28.499172 
L 330.410989 24.043675 
" style="fill:none;stroke:#ff0000;stroke-linecap:round;"/>
   </g>
  </g>
 </g>
</svg>
