<?xml version="1.0" encoding="utf-8" standalone="no"?>
<!DOCTYPE svg PUBLIC "-//W3C//DTD SVG 1.1//EN"
  "http://www.w3.org/Graphics/SVG/1.1/DTD/svg11.dtd">
<svg height="258.333187pt" version="1.1" viewBox="0 0 598.552972 258.333187" width="598.552972pt" xmlns="http://www.w3.org/2000/svg" xmlns:xlink="http://www.w3.org/1999/xlink">
 <metadata>
  <rdf:RDF xmlns:cc="http://creativecommons.org/ns#" xmlns:dc="http://purl.org/dc/elements/1.1/" xmlns:rdf="http://www.w3.org/1999/02/22-rdf-syntax-ns#">
   <cc:Work>
    <dc:type rdf:resource="http://purl.org/dc/dcmitype/StillImage"/>
    <dc:date>2021-09-29T07:52:42.986486</dc:date>
    <dc:format>image/svg+xml</dc:format>
    <dc:creator>
     <cc:Agent>
      <dc:title>Matplotlib v3.4.3, https://matplotlib.org/</dc:title>
     </cc:Agent>
    </dc:creator>
   </cc:Work>
  </rdf:RDF>
 </metadata>
 <defs>
  <style type="text/css">*{stroke-linecap:butt;stroke-linejoin:round;}</style>
 </defs>
 <g id="figure_1">
  <g id="patch_1">
   <path d="M 0 258.333187 
L 598.552972 258.333187 
L 598.552972 0 
L 0 0 
z
" style="fill:none;"/>
  </g>
  <g id="axes_1">
   <g id="patch_2">
    <path clip-path="url(#p101a17fe9c)" d="M 80.870028 203.991733 
C 83.560634 203.991733 86.141402 202.922744 88.043948 201.020198 
C 89.946494 199.117652 91.015483 196.536884 91.015483 193.846278 
C 91.015483 191.155672 89.946494 188.574904 88.043948 186.672359 
C 86.141402 184.769813 83.560634 183.700824 80.870028 183.700824 
C 78.179422 183.700824 75.598654 184.769813 73.696109 186.672359 
C 71.793563 188.574904 70.724574 191.155672 70.724574 193.846278 
C 70.724574 196.536884 71.793563 199.117652 73.696109 201.020198 
C 75.598654 202.922744 78.179422 203.991733 80.870028 203.991733 
z
" style="fill:none;stroke:#000000;stroke-linejoin:miter;"/>
   </g>
   <g id="patch_3">
    <path clip-path="url(#p101a17fe9c)" d="M 80.870028 172.287187 
C 83.560634 172.287187 86.141402 171.218198 88.043948 169.315653 
C 89.946494 167.413107 91.015483 164.832339 91.015483 162.141733 
C 91.015483 159.451127 89.946494 156.870359 88.043948 154.967813 
C 86.141402 153.065268 83.560634 151.996278 80.870028 151.996278 
C 78.179422 151.996278 75.598654 153.065268 73.696109 154.967813 
C 71.793563 156.870359 70.724574 159.451127 70.724574 162.141733 
C 70.724574 164.832339 71.793563 167.413107 73.696109 169.315653 
C 75.598654 171.218198 78.179422 172.287187 80.870028 172.287187 
z
" style="fill:none;stroke:#000000;stroke-linejoin:miter;"/>
   </g>
   <g id="patch_4">
    <path clip-path="url(#p101a17fe9c)" d="M 80.870028 140.582642 
C 83.560634 140.582642 86.141402 139.513653 88.043948 137.611107 
C 89.946494 135.708561 91.015483 133.127793 91.015483 130.437187 
C 91.015483 127.746582 89.946494 125.165814 88.043948 123.263268 
C 86.141402 121.360722 83.560634 120.291733 80.870028 120.291733 
C 78.179422 120.291733 75.598654 121.360722 73.696109 123.263268 
C 71.793563 125.165814 70.724574 127.746582 70.724574 130.437187 
C 70.724574 133.127793 71.793563 135.708561 73.696109 137.611107 
C 75.598654 139.513653 78.179422 140.582642 80.870028 140.582642 
z
" style="fill:none;stroke:#000000;stroke-linejoin:miter;"/>
   </g>
   <g id="patch_5">
    <path clip-path="url(#p101a17fe9c)" d="M 80.870028 108.878097 
C 83.560634 108.878097 86.141402 107.809107 88.043948 105.906562 
C 89.946494 104.004016 91.015483 101.423248 91.015483 98.732642 
C 91.015483 96.042036 89.946494 93.461268 88.043948 91.558722 
C 86.141402 89.656177 83.560634 88.587187 80.870028 88.587187 
C 78.179422 88.587187 75.598654 89.656177 73.696109 91.558722 
C 71.793563 93.461268 70.724574 96.042036 70.724574 98.732642 
C 70.724574 101.423248 71.793563 104.004016 73.696109 105.906562 
C 75.598654 107.809107 78.179422 108.878097 80.870028 108.878097 
z
" style="fill:none;stroke:#000000;stroke-linejoin:miter;"/>
   </g>
   <g id="patch_6">
    <path clip-path="url(#p101a17fe9c)" d="M 80.870028 77.173551 
C 83.560634 77.173551 86.141402 76.104562 88.043948 74.202016 
C 89.946494 72.299471 91.015483 69.718703 91.015483 67.028097 
C 91.015483 64.337491 89.946494 61.756723 88.043948 59.854177 
C 86.141402 57.951631 83.560634 56.882642 80.870028 56.882642 
C 78.179422 56.882642 75.598654 57.951631 73.696109 59.854177 
C 71.793563 61.756723 70.724574 64.337491 70.724574 67.028097 
C 70.724574 69.718703 71.793563 72.299471 73.696109 74.202016 
C 75.598654 76.104562 78.179422 77.173551 80.870028 77.173551 
z
" style="fill:none;stroke:#000000;stroke-linejoin:miter;"/>
   </g>
   <g id="patch_7">
    <path clip-path="url(#p101a17fe9c)" d="M 68.18821 206.528097 
L 93.551847 206.528097 
L 93.551847 54.346278 
L 68.18821 54.346278 
z
" style="fill:none;stroke:#000000;stroke-linejoin:miter;"/>
   </g>
   <g id="patch_8">
    <path clip-path="url(#p101a17fe9c)" d="M 131.597301 203.991733 
C 134.287907 203.991733 136.868675 202.922744 138.771221 201.020198 
C 140.673767 199.117652 141.742756 196.536884 141.742756 193.846278 
C 141.742756 191.155672 140.673767 188.574904 138.771221 186.672359 
C 136.868675 184.769813 134.287907 183.700824 131.597301 183.700824 
C 128.906695 183.700824 126.325927 184.769813 124.423381 186.672359 
C 122.520836 188.574904 121.451847 191.155672 121.451847 193.846278 
C 121.451847 196.536884 122.520836 199.117652 124.423381 201.020198 
C 126.325927 202.922744 128.906695 203.991733 131.597301 203.991733 
z
" style="fill:none;stroke:#000000;stroke-linejoin:miter;"/>
   </g>
   <g id="patch_9">
    <path clip-path="url(#p101a17fe9c)" d="M 131.597301 172.287187 
C 134.287907 172.287187 136.868675 171.218198 138.771221 169.315653 
C 140.673767 167.413107 141.742756 164.832339 141.742756 162.141733 
C 141.742756 159.451127 140.673767 156.870359 138.771221 154.967813 
C 136.868675 153.065268 134.287907 151.996278 131.597301 151.996278 
C 128.906695 151.996278 126.325927 153.065268 124.423381 154.967813 
C 122.520836 156.870359 121.451847 159.451127 121.451847 162.141733 
C 121.451847 164.832339 122.520836 167.413107 124.423381 169.315653 
C 126.325927 171.218198 128.906695 172.287187 131.597301 172.287187 
z
" style="fill:none;stroke:#000000;stroke-linejoin:miter;"/>
   </g>
   <g id="patch_10">
    <path clip-path="url(#p101a17fe9c)" d="M 131.597301 140.582642 
C 134.287907 140.582642 136.868675 139.513653 138.771221 137.611107 
C 140.673767 135.708561 141.742756 133.127793 141.742756 130.437187 
C 141.742756 127.746582 140.673767 125.165814 138.771221 123.263268 
C 136.868675 121.360722 134.287907 120.291733 131.597301 120.291733 
C 128.906695 120.291733 126.325927 121.360722 124.423381 123.263268 
C 122.520836 125.165814 121.451847 127.746582 121.451847 130.437187 
C 121.451847 133.127793 122.520836 135.708561 124.423381 137.611107 
C 126.325927 139.513653 128.906695 140.582642 131.597301 140.582642 
z
" style="fill:none;stroke:#000000;stroke-linejoin:miter;"/>
   </g>
   <g id="patch_11">
    <path clip-path="url(#p101a17fe9c)" d="M 131.597301 108.878097 
C 134.287907 108.878097 136.868675 107.809107 138.771221 105.906562 
C 140.673767 104.004016 141.742756 101.423248 141.742756 98.732642 
C 141.742756 96.042036 140.673767 93.461268 138.771221 91.558722 
C 136.868675 89.656177 134.287907 88.587187 131.597301 88.587187 
C 128.906695 88.587187 126.325927 89.656177 124.423381 91.558722 
C 122.520836 93.461268 121.451847 96.042036 121.451847 98.732642 
C 121.451847 101.423248 122.520836 104.004016 124.423381 105.906562 
C 126.325927 107.809107 128.906695 108.878097 131.597301 108.878097 
z
" style="fill:none;stroke:#000000;stroke-linejoin:miter;"/>
   </g>
   <g id="patch_12">
    <path clip-path="url(#p101a17fe9c)" d="M 131.597301 77.173551 
C 134.287907 77.173551 136.868675 76.104562 138.771221 74.202016 
C 140.673767 72.299471 141.742756 69.718703 141.742756 67.028097 
C 141.742756 64.337491 140.673767 61.756723 138.771221 59.854177 
C 136.868675 57.951631 134.287907 56.882642 131.597301 56.882642 
C 128.906695 56.882642 126.325927 57.951631 124.423381 59.854177 
C 122.520836 61.756723 121.451847 64.337491 121.451847 67.028097 
C 121.451847 69.718703 122.520836 72.299471 124.423381 74.202016 
C 126.325927 76.104562 128.906695 77.173551 131.597301 77.173551 
z
" style="fill:none;stroke:#000000;stroke-linejoin:miter;"/>
   </g>
   <g id="patch_13">
    <path clip-path="url(#p101a17fe9c)" d="M 118.915483 206.528097 
L 144.279119 206.528097 
L 144.279119 54.346278 
L 118.915483 54.346278 
z
" style="fill:none;stroke:#000000;stroke-linejoin:miter;"/>
   </g>
   <g id="patch_14">
    <path clip-path="url(#p101a17fe9c)" d="M 182.324574 203.991733 
C 185.01518 203.991733 187.595948 202.922744 189.498494 201.020198 
C 191.401039 199.117652 192.470028 196.536884 192.470028 193.846278 
C 192.470028 191.155672 191.401039 188.574904 189.498494 186.672359 
C 187.595948 184.769813 185.01518 183.700824 182.324574 183.700824 
C 179.633968 183.700824 177.0532 184.769813 175.150654 186.672359 
C 173.248108 188.574904 172.179119 191.155672 172.179119 193.846278 
C 172.179119 196.536884 173.248108 199.117652 175.150654 201.020198 
C 177.0532 202.922744 179.633968 203.991733 182.324574 203.991733 
z
" style="fill:none;stroke:#000000;stroke-linejoin:miter;"/>
   </g>
   <g id="patch_15">
    <path clip-path="url(#p101a17fe9c)" d="M 182.324574 172.287187 
C 185.01518 172.287187 187.595948 171.218198 189.498494 169.315653 
C 191.401039 167.413107 192.470028 164.832339 192.470028 162.141733 
C 192.470028 159.451127 191.401039 156.870359 189.498494 154.967813 
C 187.595948 153.065268 185.01518 151.996278 182.324574 151.996278 
C 179.633968 151.996278 177.0532 153.065268 175.150654 154.967813 
C 173.248108 156.870359 172.179119 159.451127 172.179119 162.141733 
C 172.179119 164.832339 173.248108 167.413107 175.150654 169.315653 
C 177.0532 171.218198 179.633968 172.287187 182.324574 172.287187 
z
" style="fill:none;stroke:#000000;stroke-linejoin:miter;"/>
   </g>
   <g id="patch_16">
    <path clip-path="url(#p101a17fe9c)" d="M 182.324574 140.582642 
C 185.01518 140.582642 187.595948 139.513653 189.498494 137.611107 
C 191.401039 135.708561 192.470028 133.127793 192.470028 130.437187 
C 192.470028 127.746582 191.401039 125.165814 189.498494 123.263268 
C 187.595948 121.360722 185.01518 120.291733 182.324574 120.291733 
C 179.633968 120.291733 177.0532 121.360722 175.150654 123.263268 
C 173.248108 125.165814 172.179119 127.746582 172.179119 130.437187 
C 172.179119 133.127793 173.248108 135.708561 175.150654 137.611107 
C 177.0532 139.513653 179.633968 140.582642 182.324574 140.582642 
z
" style="fill:none;stroke:#000000;stroke-linejoin:miter;"/>
   </g>
   <g id="patch_17">
    <path clip-path="url(#p101a17fe9c)" d="M 182.324574 108.878097 
C 185.01518 108.878097 187.595948 107.809107 189.498494 105.906562 
C 191.401039 104.004016 192.470028 101.423248 192.470028 98.732642 
C 192.470028 96.042036 191.401039 93.461268 189.498494 91.558722 
C 187.595948 89.656177 185.01518 88.587187 182.324574 88.587187 
C 179.633968 88.587187 177.0532 89.656177 175.150654 91.558722 
C 173.248108 93.461268 172.179119 96.042036 172.179119 98.732642 
C 172.179119 101.423248 173.248108 104.004016 175.150654 105.906562 
C 177.0532 107.809107 179.633968 108.878097 182.324574 108.878097 
z
" style="fill:none;stroke:#000000;stroke-linejoin:miter;"/>
   </g>
   <g id="patch_18">
    <path clip-path="url(#p101a17fe9c)" d="M 182.324574 77.173551 
C 185.01518 77.173551 187.595948 76.104562 189.498494 74.202016 
C 191.401039 72.299471 192.470028 69.718703 192.470028 67.028097 
C 192.470028 64.337491 191.401039 61.756723 189.498494 59.854177 
C 187.595948 57.951631 185.01518 56.882642 182.324574 56.882642 
C 179.633968 56.882642 177.0532 57.951631 175.150654 59.854177 
C 173.248108 61.756723 172.179119 64.337491 172.179119 67.028097 
C 172.179119 69.718703 173.248108 72.299471 175.150654 74.202016 
C 177.0532 76.104562 179.633968 77.173551 182.324574 77.173551 
z
" style="fill:none;stroke:#000000;stroke-linejoin:miter;"/>
   </g>
   <g id="patch_19">
    <path clip-path="url(#p101a17fe9c)" d="M 169.642756 206.528097 
L 195.006392 206.528097 
L 195.006392 54.346278 
L 169.642756 54.346278 
z
" style="fill:none;stroke:#000000;stroke-linejoin:miter;"/>
   </g>
   <g id="patch_20">
    <path clip-path="url(#p101a17fe9c)" d="M 283.779119 203.991733 
C 286.469725 203.991733 289.050493 202.922744 290.953039 201.020198 
C 292.855585 199.117652 293.924574 196.536884 293.924574 193.846278 
C 293.924574 191.155672 292.855585 188.574904 290.953039 186.672359 
C 289.050493 184.769813 286.469725 183.700824 283.779119 183.700824 
C 281.088513 183.700824 278.507745 184.769813 276.6052 186.672359 
C 274.702654 188.574904 273.633665 191.155672 273.633665 193.846278 
C 273.633665 196.536884 274.702654 199.117652 276.6052 201.020198 
C 278.507745 202.922744 281.088513 203.991733 283.779119 203.991733 
z
" style="fill:none;stroke:#000000;stroke-linejoin:miter;"/>
   </g>
   <g id="patch_21">
    <path clip-path="url(#p101a17fe9c)" d="M 283.779119 172.287187 
C 286.469725 172.287187 289.050493 171.218198 290.953039 169.315653 
C 292.855585 167.413107 293.924574 164.832339 293.924574 162.141733 
C 293.924574 159.451127 292.855585 156.870359 290.953039 154.967813 
C 289.050493 153.065268 286.469725 151.996278 283.779119 151.996278 
C 281.088513 151.996278 278.507745 153.065268 276.6052 154.967813 
C 274.702654 156.870359 273.633665 159.451127 273.633665 162.141733 
C 273.633665 164.832339 274.702654 167.413107 276.6052 169.315653 
C 278.507745 171.218198 281.088513 172.287187 283.779119 172.287187 
z
" style="fill:none;stroke:#000000;stroke-linejoin:miter;"/>
   </g>
   <g id="patch_22">
    <path clip-path="url(#p101a17fe9c)" d="M 283.779119 140.582642 
C 286.469725 140.582642 289.050493 139.513653 290.953039 137.611107 
C 292.855585 135.708561 293.924574 133.127793 293.924574 130.437187 
C 293.924574 127.746582 292.855585 125.165814 290.953039 123.263268 
C 289.050493 121.360722 286.469725 120.291733 283.779119 120.291733 
C 281.088513 120.291733 278.507745 121.360722 276.6052 123.263268 
C 274.702654 125.165814 273.633665 127.746582 273.633665 130.437187 
C 273.633665 133.127793 274.702654 135.708561 276.6052 137.611107 
C 278.507745 139.513653 281.088513 140.582642 283.779119 140.582642 
z
" style="fill:none;stroke:#000000;stroke-linejoin:miter;"/>
   </g>
   <g id="patch_23">
    <path clip-path="url(#p101a17fe9c)" d="M 283.779119 108.878097 
C 286.469725 108.878097 289.050493 107.809107 290.953039 105.906562 
C 292.855585 104.004016 293.924574 101.423248 293.924574 98.732642 
C 293.924574 96.042036 292.855585 93.461268 290.953039 91.558722 
C 289.050493 89.656177 286.469725 88.587187 283.779119 88.587187 
C 281.088513 88.587187 278.507745 89.656177 276.6052 91.558722 
C 274.702654 93.461268 273.633665 96.042036 273.633665 98.732642 
C 273.633665 101.423248 274.702654 104.004016 276.6052 105.906562 
C 278.507745 107.809107 281.088513 108.878097 283.779119 108.878097 
z
" style="fill:none;stroke:#000000;stroke-linejoin:miter;"/>
   </g>
   <g id="patch_24">
    <path clip-path="url(#p101a17fe9c)" d="M 283.779119 77.173551 
C 286.469725 77.173551 289.050493 76.104562 290.953039 74.202016 
C 292.855585 72.299471 293.924574 69.718703 293.924574 67.028097 
C 293.924574 64.337491 292.855585 61.756723 290.953039 59.854177 
C 289.050493 57.951631 286.469725 56.882642 283.779119 56.882642 
C 281.088513 56.882642 278.507745 57.951631 276.6052 59.854177 
C 274.702654 61.756723 273.633665 64.337491 273.633665 67.028097 
C 273.633665 69.718703 274.702654 72.299471 276.6052 74.202016 
C 278.507745 76.104562 281.088513 77.173551 283.779119 77.173551 
z
" style="fill:none;stroke:#000000;stroke-linejoin:miter;"/>
   </g>
   <g id="patch_25">
    <path clip-path="url(#p101a17fe9c)" d="M 271.097301 206.528097 
L 296.460938 206.528097 
L 296.460938 54.346278 
L 271.097301 54.346278 
z
" style="fill:none;stroke:#000000;stroke-linejoin:miter;"/>
   </g>
   <g id="text_1">
    <!-- $\cdots$ -->
    <g transform="translate(227.471847 133.748437)scale(0.12 -0.12)">
     <defs>
      <path d="M 5235 1619 
Q 5235 1453 5123 1331 
Q 5011 1210 4832 1210 
Q 4646 1210 4534 1322 
Q 4422 1434 4422 1619 
Q 4422 1792 4547 1907 
Q 4672 2022 4832 2022 
Q 4992 2022 5113 1907 
Q 5235 1792 5235 1619 
z
M 3366 1619 
Q 3366 1453 3254 1331 
Q 3142 1210 2963 1210 
Q 2778 1210 2666 1322 
Q 2554 1434 2554 1619 
Q 2554 1792 2678 1907 
Q 2803 2022 2963 2022 
Q 3123 2022 3244 1907 
Q 3366 1792 3366 1619 
z
M 1504 1619 
Q 1504 1453 1392 1331 
Q 1280 1210 1101 1210 
Q 915 1210 803 1322 
Q 691 1434 691 1619 
Q 691 1792 816 1907 
Q 941 2022 1101 2022 
Q 1261 2022 1382 1907 
Q 1504 1792 1504 1619 
z
" id="STIXGeneral-Regular-22ef" transform="scale(0.015625)"/>
     </defs>
     <use transform="translate(0 0.40625)" xlink:href="#STIXGeneral-Regular-22ef"/>
    </g>
   </g>
   <g id="text_2">
    <!-- A -->
    <g transform="translate(7.2 25.863111)scale(0.15 -0.15)">
     <defs>
      <path d="M 2188 4044 
L 1331 1722 
L 3047 1722 
L 2188 4044 
z
M 1831 4666 
L 2547 4666 
L 4325 0 
L 3669 0 
L 3244 1197 
L 1141 1197 
L 716 0 
L 50 0 
L 1831 4666 
z
" id="DejaVuSans-41" transform="scale(0.015625)"/>
     </defs>
     <use xlink:href="#DejaVuSans-41"/>
    </g>
   </g>
  </g>
  <g id="axes_2">
   <g id="patch_26">
    <path clip-path="url(#p7015026ddc)" d="M 548.469119 209.259187 
C 551.352407 209.259187 554.117992 208.113645 556.156784 206.074852 
C 558.195577 204.03606 559.341119 201.270476 559.341119 198.387187 
C 559.341119 195.503899 558.195577 192.738315 556.156784 190.699523 
C 554.117992 188.66073 551.352407 187.515187 548.469119 187.515187 
C 545.585831 187.515187 542.820247 188.66073 540.781454 190.699523 
C 538.742662 192.738315 537.597119 195.503899 537.597119 198.387187 
C 537.597119 201.270476 538.742662 204.03606 540.781454 206.074852 
C 542.820247 208.113645 545.585831 209.259187 548.469119 209.259187 
z
" style="fill:none;stroke:#000000;stroke-linejoin:miter;"/>
   </g>
   <g id="patch_27">
    <path clip-path="url(#p7015026ddc)" d="M 548.469119 175.284187 
C 551.352407 175.284187 554.117992 174.138645 556.156784 172.099852 
C 558.195577 170.06106 559.341119 167.295476 559.341119 164.412187 
C 559.341119 161.528899 558.195577 158.763315 556.156784 156.724523 
C 554.117992 154.68573 551.352407 153.540187 548.469119 153.540187 
C 545.585831 153.540187 542.820247 154.68573 540.781454 156.724523 
C 538.742662 158.763315 537.597119 161.528899 537.597119 164.412187 
C 537.597119 167.295476 538.742662 170.06106 540.781454 172.099852 
C 542.820247 174.138645 545.585831 175.284187 548.469119 175.284187 
z
" style="fill:none;stroke:#000000;stroke-linejoin:miter;"/>
   </g>
   <g id="patch_28">
    <path clip-path="url(#p7015026ddc)" d="M 548.469119 141.309187 
C 551.352407 141.309187 554.117992 140.163645 556.156784 138.124852 
C 558.195577 136.08606 559.341119 133.320476 559.341119 130.437187 
C 559.341119 127.553899 558.195577 124.788315 556.156784 122.749523 
C 554.117992 120.71073 551.352407 119.565187 548.469119 119.565187 
C 545.585831 119.565187 542.820247 120.71073 540.781454 122.749523 
C 538.742662 124.788315 537.597119 127.553899 537.597119 130.437187 
C 537.597119 133.320476 538.742662 136.08606 540.781454 138.124852 
C 542.820247 140.163645 545.585831 141.309187 548.469119 141.309187 
z
" style="fill:none;stroke:#000000;stroke-linejoin:miter;"/>
   </g>
   <g id="patch_29">
    <path clip-path="url(#p7015026ddc)" d="M 548.469119 107.334187 
C 551.352407 107.334187 554.117992 106.188645 556.156784 104.149852 
C 558.195577 102.11106 559.341119 99.345476 559.341119 96.462187 
C 559.341119 93.578899 558.195577 90.813315 556.156784 88.774523 
C 554.117992 86.73573 551.352407 85.590187 548.469119 85.590187 
C 545.585831 85.590187 542.820247 86.73573 540.781454 88.774523 
C 538.742662 90.813315 537.597119 93.578899 537.597119 96.462187 
C 537.597119 99.345476 538.742662 102.11106 540.781454 104.149852 
C 542.820247 106.188645 545.585831 107.334187 548.469119 107.334187 
z
" style="fill:none;stroke:#000000;stroke-linejoin:miter;"/>
   </g>
   <g id="patch_30">
    <path clip-path="url(#p7015026ddc)" d="M 548.469119 73.359187 
C 551.352407 73.359187 554.117992 72.213645 556.156784 70.174852 
C 558.195577 68.13606 559.341119 65.370476 559.341119 62.487187 
C 559.341119 59.603899 558.195577 56.838315 556.156784 54.799523 
C 554.117992 52.76073 551.352407 51.615187 548.469119 51.615187 
C 545.585831 51.615187 542.820247 52.76073 540.781454 54.799523 
C 538.742662 56.838315 537.597119 59.603899 537.597119 62.487187 
C 537.597119 65.370476 538.742662 68.13606 540.781454 70.174852 
C 542.820247 72.213645 545.585831 73.359187 548.469119 73.359187 
z
" style="fill:none;stroke:#000000;stroke-linejoin:miter;"/>
   </g>
   <g id="patch_31">
    <path clip-path="url(#p7015026ddc)" d="M 534.879119 211.977187 
L 562.059119 211.977187 
L 562.059119 48.897187 
L 534.879119 48.897187 
z
" style="fill:none;stroke:#000000;stroke-linejoin:miter;"/>
   </g>
   <g id="patch_32">
    <path d="M 80.870028 226.420962 
Q 80.870028 217.472572 80.870028 209.642216 
" style="fill:none;stroke:#000000;stroke-linecap:round;"/>
    <path d="M 78.470028 214.442216 
L 80.870028 209.642216 
L 83.270028 214.442216 
" style="fill:none;stroke:#000000;stroke-linecap:round;"/>
   </g>
   <g id="text_3">
    <!-- $\hat{x}^{\langle 1 \rangle}$ -->
    <g transform="translate(70.670028 241.008835)scale(0.12 -0.12)">
     <defs>
      <path d="M 863 3444 
L 738 3578 
L 1600 4441 
L 2456 3578 
L 2328 3444 
L 1600 4084 
L 863 3444 
z
" id="Cmr10-5e" transform="scale(0.015625)"/>
      <path d="M 500 184 
Q 613 97 819 97 
Q 1019 97 1172 289 
Q 1325 481 1381 709 
L 1672 1844 
Q 1741 2153 1741 2266 
Q 1741 2425 1652 2544 
Q 1563 2663 1403 2663 
Q 1200 2663 1022 2536 
Q 844 2409 722 2214 
Q 600 2019 550 1819 
Q 538 1778 500 1778 
L 422 1778 
Q 372 1778 372 1838 
L 372 1856 
Q 434 2094 584 2320 
Q 734 2547 951 2687 
Q 1169 2828 1416 2828 
Q 1650 2828 1839 2703 
Q 2028 2578 2106 2363 
Q 2216 2559 2386 2693 
Q 2556 2828 2759 2828 
Q 2897 2828 3040 2779 
Q 3184 2731 3275 2631 
Q 3366 2531 3366 2381 
Q 3366 2219 3261 2101 
Q 3156 1984 2994 1984 
Q 2891 1984 2822 2050 
Q 2753 2116 2753 2216 
Q 2753 2350 2845 2451 
Q 2938 2553 3066 2572 
Q 2950 2663 2747 2663 
Q 2541 2663 2389 2472 
Q 2238 2281 2175 2047 
L 1894 916 
Q 1825 659 1825 494 
Q 1825 331 1917 214 
Q 2009 97 2163 97 
Q 2463 97 2698 361 
Q 2934 625 3009 941 
Q 3022 978 3059 978 
L 3138 978 
Q 3163 978 3178 961 
Q 3194 944 3194 922 
Q 3194 916 3188 903 
Q 3097 522 2806 225 
Q 2516 -72 2150 -72 
Q 1916 -72 1727 54 
Q 1538 181 1459 397 
Q 1359 209 1182 68 
Q 1006 -72 806 -72 
Q 669 -72 523 -23 
Q 378 25 287 125 
Q 197 225 197 378 
Q 197 528 301 651 
Q 406 775 563 775 
Q 669 775 741 711 
Q 813 647 813 544 
Q 813 409 723 309 
Q 634 209 500 184 
z
" id="Cmmi10-78" transform="scale(0.015625)"/>
      <path d="M 2272 -7347 
L 641 -3634 
Q 628 -3616 628 -3584 
Q 628 -3553 641 -3541 
L 2272 178 
Q 2303 256 2388 256 
Q 2434 256 2475 215 
Q 2516 175 2516 128 
Q 2516 97 2509 84 
L 897 -3584 
L 2509 -7250 
Q 2516 -7263 2516 -7297 
Q 2516 -7344 2475 -7384 
Q 2434 -7425 2388 -7425 
Q 2306 -7425 2272 -7347 
z
" id="Cmex10-ad" transform="scale(0.015625)"/>
      <path d="M 594 0 
L 594 225 
Q 1394 225 1394 428 
L 1394 3788 
Q 1063 3628 556 3628 
L 556 3853 
Q 1341 3853 1741 4263 
L 1831 4263 
Q 1853 4263 1873 4245 
Q 1894 4228 1894 4206 
L 1894 428 
Q 1894 225 2694 225 
L 2694 0 
L 594 0 
z
" id="Cmr10-31" transform="scale(0.015625)"/>
      <path d="M 500 -7297 
Q 500 -7263 513 -7250 
L 2119 -3584 
L 513 84 
Q 500 97 500 128 
Q 500 175 537 215 
Q 575 256 628 256 
Q 703 256 750 178 
L 2381 -3541 
Q 2388 -3553 2388 -3584 
Q 2388 -3616 2381 -3634 
L 750 -7347 
Q 700 -7425 628 -7425 
Q 575 -7425 537 -7384 
Q 500 -7344 500 -7297 
z
" id="Cmex10-ae" transform="scale(0.015625)"/>
     </defs>
     <use transform="translate(10.73877 3.472135)" xlink:href="#Cmr10-5e"/>
     <use transform="translate(0 0.597135)" xlink:href="#Cmmi10-78"/>
     <use transform="translate(61.544219 104.202344)scale(0.7)" xlink:href="#Cmex10-ad"/>
     <use transform="translate(94.595977 38.861198)scale(0.7)" xlink:href="#Cmr10-31"/>
     <use transform="translate(129.595977 104.202344)scale(0.7)" xlink:href="#Cmex10-ae"/>
    </g>
   </g>
   <g id="patch_33">
    <path d="M 80.870028 36.705761 
Q 80.870028 43.966333 80.870028 52.344939 
" style="fill:none;stroke:#000000;stroke-linecap:round;"/>
    <path d="M 78.470028 41.505761 
L 80.870028 36.705761 
L 83.270028 41.505761 
" style="fill:none;stroke:#000000;stroke-linecap:round;"/>
   </g>
   <g id="text_4">
    <!-- $\hat{y}^{\langle 1 \rangle}$ -->
    <g transform="translate(71.210028 29.069915)scale(0.12 -0.12)">
     <defs>
      <path d="M 538 -916 
Q 672 -1147 1006 -1147 
Q 1309 -1147 1531 -934 
Q 1753 -722 1889 -420 
Q 2025 -119 2100 197 
Q 1816 -72 1484 -72 
Q 1231 -72 1053 15 
Q 875 103 776 276 
Q 678 450 678 697 
Q 678 906 734 1126 
Q 791 1347 892 1617 
Q 994 1888 1069 2088 
Q 1153 2322 1153 2472 
Q 1153 2663 1013 2663 
Q 759 2663 595 2402 
Q 431 2141 353 1819 
Q 341 1778 300 1778 
L 225 1778 
Q 172 1778 172 1838 
L 172 1856 
Q 275 2238 487 2533 
Q 700 2828 1025 2828 
Q 1253 2828 1411 2678 
Q 1569 2528 1569 2297 
Q 1569 2178 1516 2047 
Q 1488 1969 1388 1706 
Q 1288 1444 1234 1272 
Q 1181 1100 1147 934 
Q 1113 769 1113 603 
Q 1113 391 1203 244 
Q 1294 97 1491 97 
Q 1888 97 2203 581 
L 2688 2553 
Q 2709 2638 2787 2698 
Q 2866 2759 2956 2759 
Q 3034 2759 3092 2709 
Q 3150 2659 3150 2578 
Q 3150 2541 3144 2528 
L 2509 -19 
Q 2425 -347 2200 -647 
Q 1975 -947 1658 -1130 
Q 1341 -1313 997 -1313 
Q 831 -1313 668 -1248 
Q 506 -1184 406 -1056 
Q 306 -928 306 -756 
Q 306 -581 409 -453 
Q 513 -325 684 -325 
Q 788 -325 858 -389 
Q 928 -453 928 -556 
Q 928 -703 818 -812 
Q 709 -922 563 -922 
Q 556 -919 550 -917 
Q 544 -916 538 -916 
z
" id="Cmmi10-79" transform="scale(0.015625)"/>
     </defs>
     <use transform="translate(5.724609 3.472135)" xlink:href="#Cmr10-5e"/>
     <use transform="translate(0 0.597135)" xlink:href="#Cmmi10-79"/>
     <use transform="translate(53.487578 104.202344)scale(0.7)" xlink:href="#Cmex10-ad"/>
     <use transform="translate(86.539336 38.861198)scale(0.7)" xlink:href="#Cmr10-31"/>
     <use transform="translate(121.539336 104.202344)scale(0.7)" xlink:href="#Cmex10-ae"/>
    </g>
   </g>
   <g id="text_5">
    <!-- $W_{{ax}}$ -->
    <g transform="translate(93.551847 215.646222)scale(0.12 -0.12)">
     <defs>
      <path d="M 1141 -72 
L 844 4006 
Q 822 4100 703 4123 
Q 584 4147 409 4147 
Q 347 4147 347 4231 
Q 369 4313 381 4342 
Q 394 4372 453 4372 
L 1978 4372 
Q 2041 4372 2041 4288 
Q 2016 4147 1959 4147 
Q 1447 4147 1416 3969 
L 1644 738 
L 3244 3525 
L 3213 4006 
Q 3191 4100 3072 4123 
Q 2953 4147 2778 4147 
Q 2713 4147 2713 4231 
Q 2734 4313 2746 4342 
Q 2759 4372 2822 4372 
L 4347 4372 
Q 4409 4372 4409 4288 
Q 4406 4272 4397 4234 
Q 4388 4197 4372 4172 
Q 4356 4147 4325 4147 
Q 3809 4147 3781 3969 
L 3781 3922 
L 4013 738 
L 5753 3775 
Q 5791 3844 5791 3909 
Q 5791 4041 5662 4094 
Q 5534 4147 5375 4147 
Q 5313 4147 5313 4231 
Q 5325 4281 5333 4309 
Q 5341 4338 5361 4355 
Q 5381 4372 5422 4372 
L 6644 4372 
Q 6706 4372 6706 4288 
Q 6703 4272 6693 4233 
Q 6684 4194 6667 4170 
Q 6650 4147 6625 4147 
Q 6169 4147 5931 3731 
Q 5913 3713 5913 3713 
L 3744 -72 
Q 3709 -141 3634 -141 
L 3584 -141 
Q 3506 -141 3506 -72 
L 3263 3225 
L 1381 -72 
Q 1334 -141 1269 -141 
L 1216 -141 
Q 1141 -141 1141 -72 
z
" id="Cmmi10-57" transform="scale(0.015625)"/>
      <path d="M 1113 -72 
Q 709 -72 476 233 
Q 244 538 244 953 
Q 244 1363 456 1803 
Q 669 2244 1030 2536 
Q 1391 2828 1806 2828 
Q 1997 2828 2147 2725 
Q 2297 2622 2381 2444 
Q 2453 2700 2663 2700 
Q 2744 2700 2798 2651 
Q 2853 2603 2853 2522 
Q 2853 2503 2851 2493 
Q 2850 2484 2847 2472 
L 2400 684 
Q 2356 494 2356 372 
Q 2356 97 2541 97 
Q 2741 97 2845 351 
Q 2950 606 3022 941 
Q 3034 978 3072 978 
L 3150 978 
Q 3175 978 3190 956 
Q 3206 934 3206 916 
Q 3094 469 2961 198 
Q 2828 -72 2528 -72 
Q 2313 -72 2147 54 
Q 1981 181 1941 391 
Q 1528 -72 1113 -72 
z
M 1119 97 
Q 1350 97 1567 270 
Q 1784 444 1941 678 
Q 1947 684 1947 697 
L 2291 2088 
L 2297 2106 
Q 2259 2334 2132 2498 
Q 2006 2663 1791 2663 
Q 1575 2663 1389 2486 
Q 1203 2309 1075 2069 
Q 950 1813 836 1366 
Q 722 919 722 672 
Q 722 450 817 273 
Q 913 97 1119 97 
z
" id="Cmmi10-61" transform="scale(0.015625)"/>
     </defs>
     <use transform="translate(0 0.6875)" xlink:href="#Cmmi10-57"/>
     <use transform="translate(94.384766 -16.31875)scale(0.7)" xlink:href="#Cmmi10-61"/>
     <use transform="translate(131.333008 -16.31875)scale(0.7)" xlink:href="#Cmmi10-78"/>
    </g>
   </g>
   <g id="text_6">
    <!-- $W_{{ya}}$ -->
    <g transform="translate(93.551847 50.506278)scale(0.12 -0.12)">
     <use transform="translate(0 0.6875)" xlink:href="#Cmmi10-57"/>
     <use transform="translate(94.384766 -16.31875)scale(0.7)" xlink:href="#Cmmi10-79"/>
     <use transform="translate(128.701172 -16.31875)scale(0.7)" xlink:href="#Cmmi10-61"/>
    </g>
   </g>
   <g id="patch_34">
    <path d="M 65.073161 130.437187 
Q 55.507641 130.437187 44.824086 130.437187 
" style="fill:none;stroke:#000000;stroke-linecap:round;"/>
    <path d="M 60.273161 128.037187 
L 65.073161 130.437187 
L 60.273161 132.837187 
" style="fill:none;stroke:#000000;stroke-linecap:round;"/>
   </g>
   <g id="text_7">
    <!-- $a^{\langle 0 \rangle}$ -->
    <g transform="translate(45.033161 125.541562)scale(0.12 -0.12)">
     <defs>
      <path d="M 1600 -141 
Q 816 -141 533 504 
Q 250 1150 250 2041 
Q 250 2597 351 3087 
Q 453 3578 754 3920 
Q 1056 4263 1600 4263 
Q 2022 4263 2290 4056 
Q 2559 3850 2700 3523 
Q 2841 3197 2892 2823 
Q 2944 2450 2944 2041 
Q 2944 1491 2842 1011 
Q 2741 531 2444 195 
Q 2147 -141 1600 -141 
z
M 1600 25 
Q 1956 25 2131 390 
Q 2306 756 2347 1200 
Q 2388 1644 2388 2144 
Q 2388 2625 2347 3031 
Q 2306 3438 2132 3767 
Q 1959 4097 1600 4097 
Q 1238 4097 1063 3765 
Q 888 3434 847 3029 
Q 806 2625 806 2144 
Q 806 1788 823 1472 
Q 841 1156 916 820 
Q 991 484 1158 254 
Q 1325 25 1600 25 
z
" id="Cmr10-30" transform="scale(0.015625)"/>
     </defs>
     <use transform="translate(0 0.597135)" xlink:href="#Cmmi10-61"/>
     <use transform="translate(59.086484 104.202344)scale(0.7)" xlink:href="#Cmex10-ad"/>
     <use transform="translate(92.138242 38.861198)scale(0.7)" xlink:href="#Cmr10-30"/>
     <use transform="translate(127.138242 104.202344)scale(0.7)" xlink:href="#Cmex10-ae"/>
    </g>
   </g>
   <g id="text_8">
    <!-- $W_{{aa}}$ -->
    <g transform="translate(44.448624 146.755312)scale(0.12 -0.12)">
     <use transform="translate(0 0.6875)" xlink:href="#Cmmi10-57"/>
     <use transform="translate(94.384766 -16.31875)scale(0.7)" xlink:href="#Cmmi10-61"/>
     <use transform="translate(131.333008 -16.31875)scale(0.7)" xlink:href="#Cmmi10-61"/>
    </g>
   </g>
   <g id="patch_35">
    <path d="M 131.597301 226.420962 
Q 131.597301 217.472572 131.597301 209.642216 
" style="fill:none;stroke:#000000;stroke-linecap:round;"/>
    <path d="M 129.197301 214.442216 
L 131.597301 209.642216 
L 133.997301 214.442216 
" style="fill:none;stroke:#000000;stroke-linecap:round;"/>
   </g>
   <g id="text_9">
    <!-- $\hat{x}^{\langle 2 \rangle}$ -->
    <g transform="translate(121.397301 241.008835)scale(0.12 -0.12)">
     <defs>
      <path d="M 319 0 
L 319 172 
Q 319 188 331 206 
L 1325 1306 
Q 1550 1550 1690 1715 
Q 1831 1881 1968 2097 
Q 2106 2313 2186 2536 
Q 2266 2759 2266 3009 
Q 2266 3272 2169 3511 
Q 2072 3750 1880 3894 
Q 1688 4038 1416 4038 
Q 1138 4038 916 3870 
Q 694 3703 603 3438 
Q 628 3444 672 3444 
Q 816 3444 917 3347 
Q 1019 3250 1019 3097 
Q 1019 2950 917 2848 
Q 816 2747 672 2747 
Q 522 2747 420 2851 
Q 319 2956 319 3097 
Q 319 3338 409 3548 
Q 500 3759 670 3923 
Q 841 4088 1055 4175 
Q 1269 4263 1509 4263 
Q 1875 4263 2190 4108 
Q 2506 3953 2690 3670 
Q 2875 3388 2875 3009 
Q 2875 2731 2753 2481 
Q 2631 2231 2440 2026 
Q 2250 1822 1953 1562 
Q 1656 1303 1563 1216 
L 838 519 
L 1453 519 
Q 1906 519 2211 526 
Q 2516 534 2534 550 
Q 2609 631 2688 1141 
L 2875 1141 
L 2694 0 
L 319 0 
z
" id="Cmr10-32" transform="scale(0.015625)"/>
     </defs>
     <use transform="translate(10.73877 3.472135)" xlink:href="#Cmr10-5e"/>
     <use transform="translate(0 0.597135)" xlink:href="#Cmmi10-78"/>
     <use transform="translate(61.544219 104.202344)scale(0.7)" xlink:href="#Cmex10-ad"/>
     <use transform="translate(94.595977 38.861198)scale(0.7)" xlink:href="#Cmr10-32"/>
     <use transform="translate(129.595977 104.202344)scale(0.7)" xlink:href="#Cmex10-ae"/>
    </g>
   </g>
   <g id="patch_36">
    <path d="M 131.597301 36.705761 
Q 131.597301 43.966333 131.597301 52.344939 
" style="fill:none;stroke:#000000;stroke-linecap:round;"/>
    <path d="M 129.197301 41.505761 
L 131.597301 36.705761 
L 133.997301 41.505761 
" style="fill:none;stroke:#000000;stroke-linecap:round;"/>
   </g>
   <g id="text_10">
    <!-- $\hat{y}^{\langle 2 \rangle}$ -->
    <g transform="translate(121.937301 29.069915)scale(0.12 -0.12)">
     <use transform="translate(5.724609 3.472135)" xlink:href="#Cmr10-5e"/>
     <use transform="translate(0 0.597135)" xlink:href="#Cmmi10-79"/>
     <use transform="translate(53.487578 104.202344)scale(0.7)" xlink:href="#Cmex10-ad"/>
     <use transform="translate(86.539336 38.861198)scale(0.7)" xlink:href="#Cmr10-32"/>
     <use transform="translate(121.539336 104.202344)scale(0.7)" xlink:href="#Cmex10-ae"/>
    </g>
   </g>
   <g id="text_11">
    <!-- $W_{{ax}}$ -->
    <g transform="translate(144.279119 215.646222)scale(0.12 -0.12)">
     <use transform="translate(0 0.6875)" xlink:href="#Cmmi10-57"/>
     <use transform="translate(94.384766 -16.31875)scale(0.7)" xlink:href="#Cmmi10-61"/>
     <use transform="translate(131.333008 -16.31875)scale(0.7)" xlink:href="#Cmmi10-78"/>
    </g>
   </g>
   <g id="text_12">
    <!-- $W_{{ya}}$ -->
    <g transform="translate(144.279119 50.506278)scale(0.12 -0.12)">
     <use transform="translate(0 0.6875)" xlink:href="#Cmmi10-57"/>
     <use transform="translate(94.384766 -16.31875)scale(0.7)" xlink:href="#Cmmi10-79"/>
     <use transform="translate(128.701172 -16.31875)scale(0.7)" xlink:href="#Cmmi10-61"/>
    </g>
   </g>
   <g id="patch_37">
    <path d="M 115.800434 130.437187 
Q 106.234913 130.437187 95.551359 130.437187 
" style="fill:none;stroke:#000000;stroke-linecap:round;"/>
    <path d="M 111.000434 128.037187 
L 115.800434 130.437187 
L 111.000434 132.837187 
" style="fill:none;stroke:#000000;stroke-linecap:round;"/>
   </g>
   <g id="text_13">
    <!-- $a^{\langle 1 \rangle}$ -->
    <g transform="translate(95.760434 125.541562)scale(0.12 -0.12)">
     <use transform="translate(0 0.597135)" xlink:href="#Cmmi10-61"/>
     <use transform="translate(59.086484 104.202344)scale(0.7)" xlink:href="#Cmex10-ad"/>
     <use transform="translate(92.138242 38.861198)scale(0.7)" xlink:href="#Cmr10-31"/>
     <use transform="translate(127.138242 104.202344)scale(0.7)" xlink:href="#Cmex10-ae"/>
    </g>
   </g>
   <g id="text_14">
    <!-- $W_{{aa}}$ -->
    <g transform="translate(95.175896 146.755312)scale(0.12 -0.12)">
     <use transform="translate(0 0.6875)" xlink:href="#Cmmi10-57"/>
     <use transform="translate(94.384766 -16.31875)scale(0.7)" xlink:href="#Cmmi10-61"/>
     <use transform="translate(131.333008 -16.31875)scale(0.7)" xlink:href="#Cmmi10-61"/>
    </g>
   </g>
   <g id="patch_38">
    <path d="M 182.324574 226.420962 
Q 182.324574 217.472572 182.324574 209.642216 
" style="fill:none;stroke:#000000;stroke-linecap:round;"/>
    <path d="M 179.924574 214.442216 
L 182.324574 209.642216 
L 184.724574 214.442216 
" style="fill:none;stroke:#000000;stroke-linecap:round;"/>
   </g>
   <g id="text_15">
    <!-- $\hat{x}^{\langle 3 \rangle}$ -->
    <g transform="translate(172.124574 241.008835)scale(0.12 -0.12)">
     <defs>
      <path d="M 609 494 
Q 759 275 1012 169 
Q 1266 63 1556 63 
Q 1928 63 2084 380 
Q 2241 697 2241 1100 
Q 2241 1281 2208 1462 
Q 2175 1644 2097 1800 
Q 2019 1956 1883 2050 
Q 1747 2144 1550 2144 
L 1125 2144 
Q 1069 2144 1069 2203 
L 1069 2259 
Q 1069 2309 1125 2309 
L 1478 2338 
Q 1703 2338 1851 2506 
Q 2000 2675 2069 2917 
Q 2138 3159 2138 3378 
Q 2138 3684 1994 3881 
Q 1850 4078 1556 4078 
Q 1313 4078 1091 3986 
Q 869 3894 738 3706 
Q 750 3709 759 3711 
Q 769 3713 781 3713 
Q 925 3713 1022 3613 
Q 1119 3513 1119 3372 
Q 1119 3234 1022 3134 
Q 925 3034 781 3034 
Q 641 3034 541 3134 
Q 441 3234 441 3372 
Q 441 3647 606 3850 
Q 772 4053 1033 4158 
Q 1294 4263 1556 4263 
Q 1750 4263 1965 4205 
Q 2181 4147 2356 4039 
Q 2531 3931 2642 3762 
Q 2753 3594 2753 3378 
Q 2753 3109 2633 2881 
Q 2513 2653 2303 2487 
Q 2094 2322 1844 2241 
Q 2122 2188 2372 2031 
Q 2622 1875 2773 1631 
Q 2925 1388 2925 1106 
Q 2925 753 2731 467 
Q 2538 181 2222 20 
Q 1906 -141 1556 -141 
Q 1256 -141 954 -26 
Q 653 88 461 316 
Q 269 544 269 863 
Q 269 1022 375 1128 
Q 481 1234 641 1234 
Q 744 1234 830 1186 
Q 916 1138 964 1050 
Q 1013 963 1013 863 
Q 1013 706 903 600 
Q 794 494 641 494 
L 609 494 
z
" id="Cmr10-33" transform="scale(0.015625)"/>
     </defs>
     <use transform="translate(10.73877 3.472135)" xlink:href="#Cmr10-5e"/>
     <use transform="translate(0 0.597135)" xlink:href="#Cmmi10-78"/>
     <use transform="translate(61.544219 104.202344)scale(0.7)" xlink:href="#Cmex10-ad"/>
     <use transform="translate(94.595977 38.861198)scale(0.7)" xlink:href="#Cmr10-33"/>
     <use transform="translate(129.595977 104.202344)scale(0.7)" xlink:href="#Cmex10-ae"/>
    </g>
   </g>
   <g id="patch_39">
    <path d="M 182.324574 36.705761 
Q 182.324574 43.966333 182.324574 52.344939 
" style="fill:none;stroke:#000000;stroke-linecap:round;"/>
    <path d="M 179.924574 41.505761 
L 182.324574 36.705761 
L 184.724574 41.505761 
" style="fill:none;stroke:#000000;stroke-linecap:round;"/>
   </g>
   <g id="text_16">
    <!-- $\hat{y}^{\langle 3 \rangle}$ -->
    <g transform="translate(172.664574 29.069915)scale(0.12 -0.12)">
     <use transform="translate(5.724609 3.472135)" xlink:href="#Cmr10-5e"/>
     <use transform="translate(0 0.597135)" xlink:href="#Cmmi10-79"/>
     <use transform="translate(53.487578 104.202344)scale(0.7)" xlink:href="#Cmex10-ad"/>
     <use transform="translate(86.539336 38.861198)scale(0.7)" xlink:href="#Cmr10-33"/>
     <use transform="translate(121.539336 104.202344)scale(0.7)" xlink:href="#Cmex10-ae"/>
    </g>
   </g>
   <g id="text_17">
    <!-- $W_{{ax}}$ -->
    <g transform="translate(195.006392 215.646222)scale(0.12 -0.12)">
     <use transform="translate(0 0.6875)" xlink:href="#Cmmi10-57"/>
     <use transform="translate(94.384766 -16.31875)scale(0.7)" xlink:href="#Cmmi10-61"/>
     <use transform="translate(131.333008 -16.31875)scale(0.7)" xlink:href="#Cmmi10-78"/>
    </g>
   </g>
   <g id="text_18">
    <!-- $W_{{ya}}$ -->
    <g transform="translate(195.006392 50.506278)scale(0.12 -0.12)">
     <use transform="translate(0 0.6875)" xlink:href="#Cmmi10-57"/>
     <use transform="translate(94.384766 -16.31875)scale(0.7)" xlink:href="#Cmmi10-79"/>
     <use transform="translate(128.701172 -16.31875)scale(0.7)" xlink:href="#Cmmi10-61"/>
    </g>
   </g>
   <g id="patch_40">
    <path d="M 166.527707 130.437187 
Q 156.962186 130.437187 146.278631 130.437187 
" style="fill:none;stroke:#000000;stroke-linecap:round;"/>
    <path d="M 161.727707 128.037187 
L 166.527707 130.437187 
L 161.727707 132.837187 
" style="fill:none;stroke:#000000;stroke-linecap:round;"/>
   </g>
   <g id="text_19">
    <!-- $a^{\langle 2 \rangle}$ -->
    <g transform="translate(146.487707 125.541562)scale(0.12 -0.12)">
     <use transform="translate(0 0.597135)" xlink:href="#Cmmi10-61"/>
     <use transform="translate(59.086484 104.202344)scale(0.7)" xlink:href="#Cmex10-ad"/>
     <use transform="translate(92.138242 38.861198)scale(0.7)" xlink:href="#Cmr10-32"/>
     <use transform="translate(127.138242 104.202344)scale(0.7)" xlink:href="#Cmex10-ae"/>
    </g>
   </g>
   <g id="text_20">
    <!-- $W_{{aa}}$ -->
    <g transform="translate(145.903169 146.755312)scale(0.12 -0.12)">
     <use transform="translate(0 0.6875)" xlink:href="#Cmmi10-57"/>
     <use transform="translate(94.384766 -16.31875)scale(0.7)" xlink:href="#Cmmi10-61"/>
     <use transform="translate(131.333008 -16.31875)scale(0.7)" xlink:href="#Cmmi10-61"/>
    </g>
   </g>
   <g id="patch_41">
    <path d="M 217.25498 130.437187 
Q 207.689459 130.437187 197.005904 130.437187 
" style="fill:none;stroke:#000000;stroke-linecap:round;"/>
    <path d="M 212.45498 128.037187 
L 217.25498 130.437187 
L 212.45498 132.837187 
" style="fill:none;stroke:#000000;stroke-linecap:round;"/>
   </g>
   <g id="text_21">
    <!-- $a^{\langle 3 \rangle}$ -->
    <g transform="translate(197.21498 125.541562)scale(0.12 -0.12)">
     <use transform="translate(0 0.597135)" xlink:href="#Cmmi10-61"/>
     <use transform="translate(59.086484 104.202344)scale(0.7)" xlink:href="#Cmex10-ad"/>
     <use transform="translate(92.138242 38.861198)scale(0.7)" xlink:href="#Cmr10-33"/>
     <use transform="translate(127.138242 104.202344)scale(0.7)" xlink:href="#Cmex10-ae"/>
    </g>
   </g>
   <g id="text_22">
    <!-- $W_{{aa}}$ -->
    <g transform="translate(196.630442 146.755312)scale(0.12 -0.12)">
     <use transform="translate(0 0.6875)" xlink:href="#Cmmi10-57"/>
     <use transform="translate(94.384766 -16.31875)scale(0.7)" xlink:href="#Cmmi10-61"/>
     <use transform="translate(131.333008 -16.31875)scale(0.7)" xlink:href="#Cmmi10-61"/>
    </g>
   </g>
   <g id="patch_42">
    <path d="M 283.779119 226.420962 
Q 283.779119 217.472572 283.779119 209.642216 
" style="fill:none;stroke:#000000;stroke-linecap:round;"/>
    <path d="M 281.379119 214.442216 
L 283.779119 209.642216 
L 286.179119 214.442216 
" style="fill:none;stroke:#000000;stroke-linecap:round;"/>
   </g>
   <g id="text_23">
    <!-- $\hat{x}^{\langle T_x \rangle}$ -->
    <g transform="translate(271.299119 241.008835)scale(0.12 -0.12)">
     <defs>
      <path d="M 294 84 
Q 297 100 308 140 
Q 319 181 336 203 
Q 353 225 384 225 
Q 934 225 1113 256 
Q 1284 300 1319 441 
L 2194 3956 
Q 2222 4034 2222 4097 
Q 2222 4147 1997 4147 
L 1625 4147 
Q 1197 4147 964 4015 
Q 731 3884 622 3668 
Q 513 3453 341 2963 
Q 319 2906 275 2906 
L 219 2906 
Q 153 2906 153 2988 
L 609 4313 
Q 622 4372 672 4372 
L 4453 4372 
Q 4519 4372 4519 4288 
L 4306 2963 
Q 4306 2944 4284 2925 
Q 4263 2906 4244 2906 
L 4184 2906 
Q 4122 2906 4122 2988 
Q 4191 3441 4191 3628 
Q 4191 3853 4097 3968 
Q 4003 4084 3853 4115 
Q 3703 4147 3463 4147 
L 3084 4147 
Q 2913 4147 2853 4115 
Q 2794 4084 2753 3928 
L 1875 416 
Q 1872 403 1870 390 
Q 1869 378 1863 359 
Q 1863 278 1959 256 
Q 2125 225 2669 225 
Q 2731 225 2731 141 
Q 2709 50 2696 25 
Q 2684 0 2625 0 
L 359 0 
Q 294 0 294 84 
z
" id="Cmmi10-54" transform="scale(0.015625)"/>
     </defs>
     <use transform="translate(10.73877 3.472135)" xlink:href="#Cmr10-5e"/>
     <use transform="translate(0 0.597135)" xlink:href="#Cmmi10-78"/>
     <use transform="translate(61.544219 104.202344)scale(0.7)" xlink:href="#Cmex10-ad"/>
     <use transform="translate(94.595977 38.861198)scale(0.7)" xlink:href="#Cmmi10-54"/>
     <use transform="translate(135.474883 26.956823)scale(0.49)" xlink:href="#Cmmi10-78"/>
     <use transform="translate(167.908262 104.202344)scale(0.7)" xlink:href="#Cmex10-ae"/>
    </g>
   </g>
   <g id="patch_43">
    <path d="M 283.779119 36.705761 
Q 283.779119 43.966333 283.779119 52.344939 
" style="fill:none;stroke:#000000;stroke-linecap:round;"/>
    <path d="M 281.379119 41.505761 
L 283.779119 36.705761 
L 286.179119 41.505761 
" style="fill:none;stroke:#000000;stroke-linecap:round;"/>
   </g>
   <g id="text_24">
    <!-- $\hat{y}^{\langle T_y \rangle}$ -->
    <g transform="translate(272.019119 29.069915)scale(0.12 -0.12)">
     <use transform="translate(5.724609 3.472135)" xlink:href="#Cmr10-5e"/>
     <use transform="translate(0 0.597135)" xlink:href="#Cmmi10-79"/>
     <use transform="translate(53.487578 104.202344)scale(0.7)" xlink:href="#Cmex10-ad"/>
     <use transform="translate(86.539336 38.861198)scale(0.7)" xlink:href="#Cmmi10-54"/>
     <use transform="translate(127.418242 26.956823)scale(0.49)" xlink:href="#Cmmi10-79"/>
     <use transform="translate(155.903867 104.202344)scale(0.7)" xlink:href="#Cmex10-ae"/>
    </g>
   </g>
   <g id="text_25">
    <!-- $W_{{ax}}$ -->
    <g transform="translate(296.460938 215.646222)scale(0.12 -0.12)">
     <use transform="translate(0 0.6875)" xlink:href="#Cmmi10-57"/>
     <use transform="translate(94.384766 -16.31875)scale(0.7)" xlink:href="#Cmmi10-61"/>
     <use transform="translate(131.333008 -16.31875)scale(0.7)" xlink:href="#Cmmi10-78"/>
    </g>
   </g>
   <g id="text_26">
    <!-- $W_{{ya}}$ -->
    <g transform="translate(296.460938 50.506278)scale(0.12 -0.12)">
     <use transform="translate(0 0.6875)" xlink:href="#Cmmi10-57"/>
     <use transform="translate(94.384766 -16.31875)scale(0.7)" xlink:href="#Cmmi10-79"/>
     <use transform="translate(128.701172 -16.31875)scale(0.7)" xlink:href="#Cmmi10-61"/>
    </g>
   </g>
   <g id="patch_44">
    <path d="M 267.982252 130.437187 
Q 258.416732 130.437187 247.733177 130.437187 
" style="fill:none;stroke:#000000;stroke-linecap:round;"/>
    <path d="M 263.182252 128.037187 
L 267.982252 130.437187 
L 263.182252 132.837187 
" style="fill:none;stroke:#000000;stroke-linecap:round;"/>
   </g>
   <g id="text_27">
    <!-- $a^{\langle T_x-1 \rangle}$ -->
    <g transform="translate(229.702252 125.541562)scale(0.12 -0.12)">
     <defs>
      <path d="M 653 1472 
Q 600 1472 565 1512 
Q 531 1553 531 1600 
Q 531 1647 565 1687 
Q 600 1728 653 1728 
L 4325 1728 
Q 4375 1728 4408 1687 
Q 4441 1647 4441 1600 
Q 4441 1553 4408 1512 
Q 4375 1472 4325 1472 
L 653 1472 
z
" id="Cmsy10-a1" transform="scale(0.015625)"/>
     </defs>
     <use transform="translate(0 0.597135)" xlink:href="#Cmmi10-61"/>
     <use transform="translate(59.086484 104.202344)scale(0.7)" xlink:href="#Cmex10-ad"/>
     <use transform="translate(92.138242 38.861198)scale(0.7)" xlink:href="#Cmmi10-54"/>
     <use transform="translate(133.017148 26.956823)scale(0.49)" xlink:href="#Cmmi10-78"/>
     <use transform="translate(177.741543 38.861198)scale(0.7)" xlink:href="#Cmsy10-a1"/>
     <use transform="translate(244.412441 38.861198)scale(0.7)" xlink:href="#Cmr10-31"/>
     <use transform="translate(279.412441 104.202344)scale(0.7)" xlink:href="#Cmex10-ae"/>
    </g>
   </g>
   <g id="text_28">
    <!-- $W_{{aa}}$ -->
    <g transform="translate(247.357715 146.755312)scale(0.12 -0.12)">
     <use transform="translate(0 0.6875)" xlink:href="#Cmmi10-57"/>
     <use transform="translate(94.384766 -16.31875)scale(0.7)" xlink:href="#Cmmi10-61"/>
     <use transform="translate(131.333008 -16.31875)scale(0.7)" xlink:href="#Cmmi10-61"/>
    </g>
   </g>
   <g id="patch_45">
    <path d="M 548.469119 234.051569 
Q 548.469119 224.015432 548.469119 215.097329 
" style="fill:none;stroke:#000000;stroke-linecap:round;"/>
    <path d="M 546.069119 219.897329 
L 548.469119 215.097329 
L 550.869119 219.897329 
" style="fill:none;stroke:#000000;stroke-linecap:round;"/>
   </g>
   <g id="text_29">
    <!-- $\hat{x}^{\langle t \rangle}$ -->
    <g transform="translate(538.869119 248.637562)scale(0.12 -0.12)">
     <defs>
      <path d="M 397 519 
Q 397 613 416 697 
L 878 2534 
L 206 2534 
Q 141 2534 141 2619 
Q 166 2759 225 2759 
L 934 2759 
L 1191 3803 
Q 1216 3888 1291 3947 
Q 1366 4006 1459 4006 
Q 1541 4006 1595 3957 
Q 1650 3909 1650 3828 
Q 1650 3809 1648 3798 
Q 1647 3788 1644 3775 
L 1388 2759 
L 2047 2759 
Q 2113 2759 2113 2675 
Q 2109 2659 2100 2621 
Q 2091 2584 2075 2559 
Q 2059 2534 2028 2534 
L 1331 2534 
L 872 684 
Q 825 503 825 372 
Q 825 97 1013 97 
Q 1294 97 1511 361 
Q 1728 625 1844 941 
Q 1869 978 1894 978 
L 1972 978 
Q 1997 978 2012 961 
Q 2028 944 2028 922 
Q 2028 909 2022 903 
Q 1881 516 1612 222 
Q 1344 -72 997 -72 
Q 744 -72 570 93 
Q 397 259 397 519 
z
" id="Cmmi10-74" transform="scale(0.015625)"/>
     </defs>
     <use transform="translate(10.73877 3.472135)" xlink:href="#Cmr10-5e"/>
     <use transform="translate(0 0.597135)" xlink:href="#Cmmi10-78"/>
     <use transform="translate(61.544219 104.202344)scale(0.7)" xlink:href="#Cmex10-ad"/>
     <use transform="translate(94.595977 38.861198)scale(0.7)" xlink:href="#Cmmi10-74"/>
     <use transform="translate(119.854766 104.202344)scale(0.7)" xlink:href="#Cmex10-ae"/>
    </g>
   </g>
   <g id="patch_46">
    <path d="M 548.469119 29.080072 
Q 548.469119 37.429111 548.469119 46.896184 
" style="fill:none;stroke:#000000;stroke-linecap:round;"/>
    <path d="M 546.069119 33.880072 
L 548.469119 29.080072 
L 550.869119 33.880072 
" style="fill:none;stroke:#000000;stroke-linecap:round;"/>
   </g>
   <g id="text_30">
    <!-- $\hat{y}^{\langle t \rangle}$ -->
    <g transform="translate(539.349119 21.441187)scale(0.12 -0.12)">
     <use transform="translate(5.724609 3.472135)" xlink:href="#Cmr10-5e"/>
     <use transform="translate(0 0.597135)" xlink:href="#Cmmi10-79"/>
     <use transform="translate(53.487578 104.202344)scale(0.7)" xlink:href="#Cmex10-ad"/>
     <use transform="translate(86.539336 38.861198)scale(0.7)" xlink:href="#Cmmi10-74"/>
     <use transform="translate(111.798125 104.202344)scale(0.7)" xlink:href="#Cmex10-ae"/>
    </g>
   </g>
   <g id="patch_47">
    <path d="M 563.971131 113.551628 
Q 580.852972 108.865323 580.852972 128.288785 
L 580.852972 132.58559 
Q 580.852972 152.009052 565.048428 147.621799 
" style="fill:none;stroke:#000000;stroke-linecap:round;"/>
    <path d="M 568.367722 150.618845 
L 565.048428 147.621799 
L 569.437641 146.764591 
" style="fill:none;stroke:#000000;stroke-linecap:round;"/>
   </g>
   <g id="text_31">
    <g id="patch_48">
     <path d="M 576.085784 136.468852 
L 585.620159 136.468852 
L 585.620159 126.790727 
L 576.085784 126.790727 
z
" style="stroke:#000000;stroke-linejoin:miter;"/>
    </g>
    <!--     -->
    <g transform="translate(576.085784 134.389164)scale(0.1 -0.1)">
     <defs>
      <path id="DejaVuSans-20" transform="scale(0.015625)"/>
     </defs>
     <use xlink:href="#DejaVuSans-20"/>
     <use x="31.787109" xlink:href="#DejaVuSans-20"/>
     <use x="63.574219" xlink:href="#DejaVuSans-20"/>
    </g>
   </g>
   <g id="text_32">
    <!-- $W_{{aa}}$ -->
    <g transform="translate(570.352972 159.73697)scale(0.12 -0.12)">
     <use transform="translate(0 0.6875)" xlink:href="#Cmmi10-57"/>
     <use transform="translate(94.384766 -16.31875)scale(0.7)" xlink:href="#Cmmi10-61"/>
     <use transform="translate(131.333008 -16.31875)scale(0.7)" xlink:href="#Cmmi10-61"/>
    </g>
   </g>
   <g id="text_33">
    <!-- $W_{{ax}}$ -->
    <g transform="translate(562.059119 221.095312)scale(0.12 -0.12)">
     <use transform="translate(0 0.6875)" xlink:href="#Cmmi10-57"/>
     <use transform="translate(94.384766 -16.31875)scale(0.7)" xlink:href="#Cmmi10-61"/>
     <use transform="translate(131.333008 -16.31875)scale(0.7)" xlink:href="#Cmmi10-78"/>
    </g>
   </g>
   <g id="text_34">
    <!-- $W_{{ya}}$ -->
    <g transform="translate(562.059119 45.057187)scale(0.12 -0.12)">
     <use transform="translate(0 0.6875)" xlink:href="#Cmmi10-57"/>
     <use transform="translate(94.384766 -16.31875)scale(0.7)" xlink:href="#Cmmi10-79"/>
     <use transform="translate(128.701172 -16.31875)scale(0.7)" xlink:href="#Cmmi10-61"/>
    </g>
   </g>
   <g id="text_35">
    <!-- B -->
    <g transform="translate(470.227713 18.597656)scale(0.15 -0.15)">
     <defs>
      <path d="M 1259 2228 
L 1259 519 
L 2272 519 
Q 2781 519 3026 730 
Q 3272 941 3272 1375 
Q 3272 1813 3026 2020 
Q 2781 2228 2272 2228 
L 1259 2228 
z
M 1259 4147 
L 1259 2741 
L 2194 2741 
Q 2656 2741 2882 2914 
Q 3109 3088 3109 3444 
Q 3109 3797 2882 3972 
Q 2656 4147 2194 4147 
L 1259 4147 
z
M 628 4666 
L 2241 4666 
Q 2963 4666 3353 4366 
Q 3744 4066 3744 3513 
Q 3744 3084 3544 2831 
Q 3344 2578 2956 2516 
Q 3422 2416 3680 2098 
Q 3938 1781 3938 1306 
Q 3938 681 3513 340 
Q 3088 0 2303 0 
L 628 0 
L 628 4666 
z
" id="DejaVuSans-42" transform="scale(0.015625)"/>
     </defs>
     <use xlink:href="#DejaVuSans-42"/>
    </g>
   </g>
  </g>
 </g>
 <defs>
  <clipPath id="p101a17fe9c">
   <rect height="202.909091" width="304.363636" x="17.460938" y="28.982642"/>
  </clipPath>
  <clipPath id="p7015026ddc">
   <rect height="217.44" width="108.72" x="480.519119" y="21.717187"/>
  </clipPath>
 </defs>
</svg>
