<?xml version="1.0" encoding="UTF-8" standalone="no"?>
<!DOCTYPE svg PUBLIC "-//W3C//DTD SVG 1.1//EN"
 "http://www.w3.org/Graphics/SVG/1.1/DTD/svg11.dtd">
<!-- Generated by graphviz version 2.43.0 (0)
 -->
<!-- Title: %3 Pages: 1 -->
<svg width="675pt" height="175pt"
 viewBox="0.00 0.00 675.00 175.00" xmlns="http://www.w3.org/2000/svg" xmlns:xlink="http://www.w3.org/1999/xlink">
<g id="graph0" class="graph" transform="scale(1 1) rotate(0) translate(4 171)">
<title>%3</title>
<polygon fill="white" stroke="transparent" points="-4,4 -4,-171 671,-171 671,4 -4,4"/>
<!-- x -->
<g id="node1" class="node">
<title>x</title>
<text text-anchor="middle" x="27" y="-123.8" font-family="Times,serif" font-size="9.00">x</text>
</g>
<!-- z -->
<g id="node4" class="node">
<title>z</title>
<polygon fill="none" stroke="black" points="187,-90 91,-90 91,-54 187,-54 187,-90"/>
<text text-anchor="middle" x="139" y="-69.8" font-family="Times,serif" font-size="9.00">z[1] = W[1] x + b[1]</text>
</g>
<!-- x&#45;&gt;z -->
<g id="edge1" class="edge">
<title>x&#45;&gt;z</title>
<path fill="none" stroke="black" d="M54.07,-113.2C66.74,-106.98 82.28,-99.36 96.52,-92.36"/>
<polygon fill="black" stroke="black" points="97.58,-93.79 101.3,-90.02 96.04,-90.65 97.58,-93.79"/>
</g>
<!-- w -->
<g id="node2" class="node">
<title>w</title>
<text text-anchor="middle" x="27" y="-69.8" font-family="Times,serif" font-size="9.00">W[1]</text>
</g>
<!-- w&#45;&gt;z -->
<g id="edge2" class="edge">
<title>w&#45;&gt;z</title>
<path fill="none" stroke="black" d="M54.07,-72C63.54,-72 74.62,-72 85.57,-72"/>
<polygon fill="black" stroke="black" points="85.58,-73.75 90.58,-72 85.58,-70.25 85.58,-73.75"/>
</g>
<!-- b -->
<g id="node3" class="node">
<title>b</title>
<text text-anchor="middle" x="27" y="-15.8" font-family="Times,serif" font-size="9.00">b[1]</text>
</g>
<!-- b&#45;&gt;z -->
<g id="edge3" class="edge">
<title>b&#45;&gt;z</title>
<path fill="none" stroke="black" d="M54.07,-30.8C66.74,-37.02 82.28,-44.64 96.52,-51.64"/>
<polygon fill="black" stroke="black" points="96.04,-53.35 101.3,-53.98 97.58,-50.21 96.04,-53.35"/>
</g>
<!-- a -->
<g id="node10" class="node">
<title>a</title>
<polygon fill="none" stroke="black" points="288,-90 224,-90 224,-54 288,-54 288,-90"/>
<text text-anchor="middle" x="256" y="-69.8" font-family="Times,serif" font-size="9.00">a[1] = g(z[1])</text>
</g>
<!-- z&#45;&gt;a -->
<g id="edge4" class="edge">
<title>z&#45;&gt;a</title>
<path fill="none" stroke="black" d="M187.11,-72C197.67,-72 208.72,-72 218.76,-72"/>
<polygon fill="black" stroke="black" points="218.91,-73.75 223.91,-72 218.91,-70.25 218.91,-73.75"/>
</g>
<!-- h -->
<g id="node5" class="node">
<title>h</title>
<polygon fill="none" stroke="black" points="427,-117 325,-117 325,-81 427,-81 427,-117"/>
<text text-anchor="middle" x="376" y="-96.8" font-family="Times,serif" font-size="9.00">z[2] = W2 a[1] + b[2]</text>
</g>
<!-- y -->
<g id="node6" class="node">
<title>y</title>
<polygon fill="none" stroke="black" points="552,-167 488,-167 488,-131 552,-131 552,-167"/>
<text text-anchor="middle" x="520" y="-146.8" font-family="Times,serif" font-size="9.00">a[2] = g(z[2])</text>
</g>
<!-- h&#45;&gt;y -->
<g id="edge6" class="edge">
<title>h&#45;&gt;y</title>
<path fill="none" stroke="black" d="M425.6,-117.05C432.11,-119.41 438.71,-121.78 445,-124 457.42,-128.38 471.06,-133.03 483.22,-137.12"/>
<polygon fill="black" stroke="black" points="482.68,-138.79 487.97,-138.72 483.79,-135.47 482.68,-138.79"/>
</g>
<!-- j -->
<g id="node8" class="node">
<title>j</title>
<text text-anchor="middle" x="520" y="-92.8" font-family="Times,serif" font-size="9.00">W[2]</text>
</g>
<!-- h&#45;&gt;j -->
<g id="edge12" class="edge">
<title>h:s&#45;&gt;j:s</title>
<path fill="none" stroke="red" d="M376,-80C376,-17.73 512.23,-12.24 519.68,-70.9"/>
<polygon fill="red" stroke="red" points="517.94,-71.12 520,-76 521.44,-70.9 517.94,-71.12"/>
<text text-anchor="middle" x="457.5" y="-33.8" font-family="Times,serif" font-size="9.00" fill="red">dz[2]</text>
</g>
<!-- h&#45;&gt;j -->
<g id="edge13" class="edge">
<title>h&#45;&gt;j</title>
<path fill="none" stroke="red" d="M427.06,-97.59C447.18,-97.02 469.76,-96.39 487.51,-95.89"/>
<polygon fill="red" stroke="red" points="487.9,-97.63 492.85,-95.74 487.81,-94.13 487.9,-97.63"/>
<text text-anchor="middle" x="457.5" y="-99.8" font-family="Times,serif" font-size="9.00" fill="red">dz[2]</text>
</g>
<!-- y&#45;&gt;h -->
<g id="edge11" class="edge">
<title>y:s&#45;&gt;h:s</title>
<path fill="none" stroke="red" d="M520,-130C520,-115.34 499.25,-131.4 488,-122 473.05,-109.49 486.25,-92.77 470,-82 454.07,-71.43 446.11,-81.41 427,-81 406.46,-80.56 381.26,-61.48 376.72,-74.78"/>
<polygon fill="red" stroke="red" points="374.95,-74.81 376,-80 378.42,-75.29 374.95,-74.81"/>
<text text-anchor="middle" x="457.5" y="-84.8" font-family="Times,serif" font-size="9.00" fill="red">dz[2]</text>
</g>
<!-- l -->
<g id="node7" class="node">
<title>l</title>
<polygon fill="none" stroke="black" points="667,-166 613,-166 613,-130 667,-130 667,-166"/>
<text text-anchor="middle" x="640" y="-145.8" font-family="Times,serif" font-size="9.00">L(a[2], y)</text>
</g>
<!-- y&#45;&gt;l -->
<g id="edge7" class="edge">
<title>y&#45;&gt;l</title>
<path fill="none" stroke="black" d="M552,-148.74C569.21,-148.59 590.54,-148.41 607.78,-148.26"/>
<polygon fill="black" stroke="black" points="608.01,-150.01 612.99,-148.22 607.98,-146.51 608.01,-150.01"/>
</g>
<!-- l&#45;&gt;y -->
<g id="edge10" class="edge">
<title>l:s&#45;&gt;y:s</title>
<path fill="none" stroke="red" d="M640,-129C640,-123.11 546.48,-123.2 524.56,-127.89"/>
<polygon fill="red" stroke="red" points="523.8,-126.31 520,-130 525.27,-129.49 523.8,-126.31"/>
<text text-anchor="middle" x="582.5" y="-126.8" font-family="Times,serif" font-size="9.00" fill="red">da[2]</text>
</g>
<!-- j&#45;&gt;h -->
<g id="edge8" class="edge">
<title>j&#45;&gt;h</title>
<path fill="none" stroke="black" d="M492.88,-104.56C485.58,-106.8 477.57,-108.87 470,-110 457.9,-111.81 444.88,-111.61 432.52,-110.42"/>
<polygon fill="black" stroke="black" points="432.43,-108.65 427.27,-109.85 432.05,-112.12 432.43,-108.65"/>
</g>
<!-- k -->
<g id="node9" class="node">
<title>k</title>
<text text-anchor="middle" x="256" y="-123.8" font-family="Times,serif" font-size="9.00">b[2]</text>
</g>
<!-- k&#45;&gt;h -->
<g id="edge9" class="edge">
<title>k&#45;&gt;h</title>
<path fill="none" stroke="black" d="M283.19,-120.01C293.98,-117.54 306.91,-114.58 319.62,-111.67"/>
<polygon fill="black" stroke="black" points="320.18,-113.34 324.67,-110.52 319.4,-109.93 320.18,-113.34"/>
</g>
<!-- a&#45;&gt;h -->
<g id="edge5" class="edge">
<title>a&#45;&gt;h</title>
<path fill="none" stroke="black" d="M288,-79.09C297.71,-81.32 308.74,-83.84 319.61,-86.33"/>
<polygon fill="black" stroke="black" points="319.32,-88.05 324.58,-87.46 320.1,-84.64 319.32,-88.05"/>
</g>
</g>
</svg>
