<?xml version="1.0" encoding="utf-8" standalone="no"?>
<!DOCTYPE svg PUBLIC "-//W3C//DTD SVG 1.1//EN"
  "http://www.w3.org/Graphics/SVG/1.1/DTD/svg11.dtd">
<!-- Created with matplotlib (https://matplotlib.org/) -->
<svg height="382.200277pt" version="1.1" viewBox="0 0 422.325 382.200277" width="422.325pt" xmlns="http://www.w3.org/2000/svg" xmlns:xlink="http://www.w3.org/1999/xlink">
 <metadata>
  <rdf:RDF xmlns:cc="http://creativecommons.org/ns#" xmlns:dc="http://purl.org/dc/elements/1.1/" xmlns:rdf="http://www.w3.org/1999/02/22-rdf-syntax-ns#">
   <cc:Work>
    <dc:type rdf:resource="http://purl.org/dc/dcmitype/StillImage"/>
    <dc:date>2021-05-16T23:35:01.933296</dc:date>
    <dc:format>image/svg+xml</dc:format>
    <dc:creator>
     <cc:Agent>
      <dc:title>Matplotlib v3.3.4, https://matplotlib.org/</dc:title>
     </cc:Agent>
    </dc:creator>
   </cc:Work>
  </rdf:RDF>
 </metadata>
 <defs>
  <style type="text/css">*{stroke-linecap:butt;stroke-linejoin:round;}</style>
 </defs>
 <g id="figure_1">
  <g id="patch_1">
   <path d="M 0 382.200277 
L 422.325 382.200277 
L 422.325 0 
L 0 0 
z
" style="fill:none;"/>
  </g>
  <g id="axes_1">
   <g id="text_1">
    <g id="patch_2">
     <path d="M 82.617656 144.954997 
L 102.812344 144.954997 
L 102.812344 51.787653 
L 82.617656 51.787653 
z
" style="fill:#ffffff;stroke:#000000;stroke-linejoin:miter;"/>
    </g>
    <!--  -->
    <g transform="translate(92.715 65.565622)scale(0.13 -0.13)"/>
    <!--  -->
    <g transform="translate(92.715 80.122778)scale(0.13 -0.13)"/>
    <!--  -->
    <g transform="translate(92.715 94.679934)scale(0.13 -0.13)"/>
    <!--  -->
    <g transform="translate(92.715 109.23709)scale(0.13 -0.13)"/>
    <!--  -->
    <g transform="translate(92.715 123.794247)scale(0.13 -0.13)"/>
    <!--     -->
    <g transform="translate(86.517656 138.351403)scale(0.13 -0.13)">
     <defs>
      <path id="DejaVuSans-32"/>
     </defs>
     <use xlink:href="#DejaVuSans-32"/>
     <use x="31.787109" xlink:href="#DejaVuSans-32"/>
     <use x="63.574219" xlink:href="#DejaVuSans-32"/>
    </g>
   </g>
   <g id="text_2">
    <g id="patch_3">
     <path d="M 85.045 178.392146 
L 100.385 178.392146 
L 100.385 158.010583 
L 85.045 158.010583 
z
" style="fill:#ffffff;"/>
    </g>
    <!-- $x$ -->
    <g transform="translate(88.945 171.788552)scale(0.13 -0.13)">
     <defs>
      <path d="M 7.8125 2.875 
Q 9.578125 1.515625 12.796875 1.515625 
Q 15.921875 1.515625 18.3125 4.515625 
Q 20.703125 7.515625 21.578125 11.078125 
L 26.125 28.8125 
Q 27.203125 33.640625 27.203125 35.40625 
Q 27.203125 37.890625 25.8125 39.75 
Q 24.421875 41.609375 21.921875 41.609375 
Q 18.75 41.609375 15.96875 39.625 
Q 13.1875 37.640625 11.28125 34.59375 
Q 9.375 31.546875 8.59375 28.421875 
Q 8.40625 27.78125 7.8125 27.78125 
L 6.59375 27.78125 
Q 5.8125 27.78125 5.8125 28.71875 
L 5.8125 29 
Q 6.78125 32.71875 9.125 36.25 
Q 11.46875 39.796875 14.859375 41.984375 
Q 18.265625 44.1875 22.125 44.1875 
Q 25.78125 44.1875 28.734375 42.234375 
Q 31.6875 40.28125 32.90625 36.921875 
Q 34.625 39.984375 37.28125 42.078125 
Q 39.9375 44.1875 43.109375 44.1875 
Q 45.265625 44.1875 47.5 43.421875 
Q 49.75 42.671875 51.171875 41.109375 
Q 52.59375 39.546875 52.59375 37.203125 
Q 52.59375 34.671875 50.953125 32.828125 
Q 49.3125 31 46.78125 31 
Q 45.171875 31 44.09375 32.03125 
Q 43.015625 33.0625 43.015625 34.625 
Q 43.015625 36.71875 44.453125 38.296875 
Q 45.90625 39.890625 47.90625 40.1875 
Q 46.09375 41.609375 42.921875 41.609375 
Q 39.703125 41.609375 37.328125 38.625 
Q 34.96875 35.640625 33.984375 31.984375 
L 29.59375 14.3125 
Q 28.515625 10.296875 28.515625 7.71875 
Q 28.515625 5.171875 29.953125 3.34375 
Q 31.390625 1.515625 33.796875 1.515625 
Q 38.484375 1.515625 42.15625 5.640625 
Q 45.84375 9.765625 47.015625 14.703125 
Q 47.21875 15.28125 47.796875 15.28125 
L 49.03125 15.28125 
Q 49.421875 15.28125 49.65625 15.015625 
Q 49.90625 14.75 49.90625 14.40625 
Q 49.90625 14.3125 49.8125 14.109375 
Q 48.390625 8.15625 43.84375 3.515625 
Q 39.3125 -1.125 33.59375 -1.125 
Q 29.9375 -1.125 26.984375 0.84375 
Q 24.03125 2.828125 22.796875 6.203125 
Q 21.234375 3.265625 18.46875 1.0625 
Q 15.71875 -1.125 12.59375 -1.125 
Q 10.453125 -1.125 8.171875 -0.359375 
Q 5.90625 0.390625 4.484375 1.953125 
Q 3.078125 3.515625 3.078125 5.90625 
Q 3.078125 8.25 4.703125 10.171875 
Q 6.34375 12.109375 8.796875 12.109375 
Q 10.453125 12.109375 11.578125 11.109375 
Q 12.703125 10.109375 12.703125 8.5 
Q 12.703125 6.390625 11.296875 4.828125 
Q 9.90625 3.265625 7.8125 2.875 
z
" id="Cmmi10-120"/>
     </defs>
     <use transform="translate(0 0.8125)" xlink:href="#Cmmi10-120"/>
    </g>
   </g>
   <g id="patch_4">
    <path d="M 92.715 156.012084 
Q 92.715 151.483699 92.715 148.073348 
" style="fill:none;stroke:#000000;stroke-linecap:round;"/>
    <path d="M 90.715 152.073348 
L 92.715 148.073348 
L 94.715 152.073348 
" style="fill:none;stroke:#000000;stroke-linecap:round;"/>
   </g>
   <g id="text_3">
    <g id="patch_5">
     <path d="M 85.565 38.732066 
L 99.865 38.732066 
L 99.865 18.350504 
L 85.565 18.350504 
z
" style="fill:#ffffff;"/>
    </g>
    <!-- $y$ -->
    <g transform="translate(89.465 32.102066)scale(0.13 -0.13)">
     <defs>
      <path d="M 8.40625 -14.3125 
Q 10.5 -17.921875 15.71875 -17.921875 
Q 20.453125 -17.921875 23.921875 -14.59375 
Q 27.390625 -11.28125 29.515625 -6.5625 
Q 31.640625 -1.859375 32.8125 3.078125 
Q 28.375 -1.125 23.1875 -1.125 
Q 19.234375 -1.125 16.453125 0.234375 
Q 13.671875 1.609375 12.125 4.3125 
Q 10.59375 7.03125 10.59375 10.890625 
Q 10.59375 14.15625 11.46875 17.59375 
Q 12.359375 21.046875 13.9375 25.265625 
Q 15.53125 29.5 16.703125 32.625 
Q 18.015625 36.28125 18.015625 38.625 
Q 18.015625 41.609375 15.828125 41.609375 
Q 11.859375 41.609375 9.296875 37.53125 
Q 6.734375 33.453125 5.515625 28.421875 
Q 5.328125 27.78125 4.6875 27.78125 
L 3.515625 27.78125 
Q 2.6875 27.78125 2.6875 28.71875 
L 2.6875 29 
Q 4.296875 34.96875 7.609375 39.578125 
Q 10.9375 44.1875 16.015625 44.1875 
Q 19.578125 44.1875 22.046875 41.84375 
Q 24.515625 39.5 24.515625 35.890625 
Q 24.515625 34.03125 23.6875 31.984375 
Q 23.25 30.765625 21.6875 26.65625 
Q 20.125 22.5625 19.28125 19.875 
Q 18.453125 17.1875 17.921875 14.59375 
Q 17.390625 12.015625 17.390625 9.421875 
Q 17.390625 6.109375 18.796875 3.8125 
Q 20.21875 1.515625 23.296875 1.515625 
Q 29.5 1.515625 34.421875 9.078125 
L 42 39.890625 
Q 42.328125 41.21875 43.546875 42.15625 
Q 44.78125 43.109375 46.1875 43.109375 
Q 47.40625 43.109375 48.3125 42.328125 
Q 49.21875 41.546875 49.21875 40.28125 
Q 49.21875 39.703125 49.125 39.5 
L 39.203125 -0.296875 
Q 37.890625 -5.421875 34.375 -10.109375 
Q 30.859375 -14.796875 25.90625 -17.65625 
Q 20.953125 -20.515625 15.578125 -20.515625 
Q 12.984375 -20.515625 10.4375 -19.5 
Q 7.90625 -18.5 6.34375 -16.5 
Q 4.78125 -14.5 4.78125 -11.8125 
Q 4.78125 -9.078125 6.390625 -7.078125 
Q 8.015625 -5.078125 10.6875 -5.078125 
Q 12.3125 -5.078125 13.40625 -6.078125 
Q 14.5 -7.078125 14.5 -8.6875 
Q 14.5 -10.984375 12.78125 -12.6875 
Q 11.078125 -14.40625 8.796875 -14.40625 
Q 8.6875 -14.359375 8.59375 -14.328125 
Q 8.5 -14.3125 8.40625 -14.3125 
z
" id="Cmmi10-121"/>
     </defs>
     <use transform="translate(0 0.8125)" xlink:href="#Cmmi10-121"/>
    </g>
   </g>
   <g id="patch_6">
    <path d="M 92.715 41.8486 
Q 92.715 45.25895 92.715 49.787335 
" style="fill:none;stroke:#000000;stroke-linecap:round;"/>
    <path d="M 90.715 45.8486 
L 92.715 41.8486 
L 94.715 45.8486 
" style="fill:none;stroke:#000000;stroke-linecap:round;"/>
   </g>
   <g id="text_4">
    <!-- One to One -->
    <g transform="translate(61.298828 15.558281)scale(0.11 -0.11)">
     <defs>
      <path d="M 39.40625 66.21875 
Q 28.65625 66.21875 22.328125 58.203125 
Q 16.015625 50.203125 16.015625 36.375 
Q 16.015625 22.609375 22.328125 14.59375 
Q 28.65625 6.59375 39.40625 6.59375 
Q 50.140625 6.59375 56.421875 14.59375 
Q 62.703125 22.609375 62.703125 36.375 
Q 62.703125 50.203125 56.421875 58.203125 
Q 50.140625 66.21875 39.40625 66.21875 
z
M 39.40625 74.21875 
Q 54.734375 74.21875 63.90625 63.9375 
Q 73.09375 53.65625 73.09375 36.375 
Q 73.09375 19.140625 63.90625 8.859375 
Q 54.734375 -1.421875 39.40625 -1.421875 
Q 24.03125 -1.421875 14.8125 8.828125 
Q 5.609375 19.09375 5.609375 36.375 
Q 5.609375 53.65625 14.8125 63.9375 
Q 24.03125 74.21875 39.40625 74.21875 
z
" id="DejaVuSans-79"/>
      <path d="M 54.890625 33.015625 
L 54.890625 0 
L 45.90625 0 
L 45.90625 32.71875 
Q 45.90625 40.484375 42.875 44.328125 
Q 39.84375 48.1875 33.796875 48.1875 
Q 26.515625 48.1875 22.3125 43.546875 
Q 18.109375 38.921875 18.109375 30.90625 
L 18.109375 0 
L 9.078125 0 
L 9.078125 54.6875 
L 18.109375 54.6875 
L 18.109375 46.1875 
Q 21.34375 51.125 25.703125 53.5625 
Q 30.078125 56 35.796875 56 
Q 45.21875 56 50.046875 50.171875 
Q 54.890625 44.34375 54.890625 33.015625 
z
" id="DejaVuSans-110"/>
      <path d="M 56.203125 29.59375 
L 56.203125 25.203125 
L 14.890625 25.203125 
Q 15.484375 15.921875 20.484375 11.0625 
Q 25.484375 6.203125 34.421875 6.203125 
Q 39.59375 6.203125 44.453125 7.46875 
Q 49.3125 8.734375 54.109375 11.28125 
L 54.109375 2.78125 
Q 49.265625 0.734375 44.1875 -0.34375 
Q 39.109375 -1.421875 33.890625 -1.421875 
Q 20.796875 -1.421875 13.15625 6.1875 
Q 5.515625 13.8125 5.515625 26.8125 
Q 5.515625 40.234375 12.765625 48.109375 
Q 20.015625 56 32.328125 56 
Q 43.359375 56 49.78125 48.890625 
Q 56.203125 41.796875 56.203125 29.59375 
z
M 47.21875 32.234375 
Q 47.125 39.59375 43.09375 43.984375 
Q 39.0625 48.390625 32.421875 48.390625 
Q 24.90625 48.390625 20.390625 44.140625 
Q 15.875 39.890625 15.1875 32.171875 
z
" id="DejaVuSans-101"/>
      <path d="M 18.3125 70.21875 
L 18.3125 54.6875 
L 36.8125 54.6875 
L 36.8125 47.703125 
L 18.3125 47.703125 
L 18.3125 18.015625 
Q 18.3125 11.328125 20.140625 9.421875 
Q 21.96875 7.515625 27.59375 7.515625 
L 36.8125 7.515625 
L 36.8125 0 
L 27.59375 0 
Q 17.1875 0 13.234375 3.875 
Q 9.28125 7.765625 9.28125 18.015625 
L 9.28125 47.703125 
L 2.6875 47.703125 
L 2.6875 54.6875 
L 9.28125 54.6875 
L 9.28125 70.21875 
z
" id="DejaVuSans-116"/>
      <path d="M 30.609375 48.390625 
Q 23.390625 48.390625 19.1875 42.75 
Q 14.984375 37.109375 14.984375 27.296875 
Q 14.984375 17.484375 19.15625 11.84375 
Q 23.34375 6.203125 30.609375 6.203125 
Q 37.796875 6.203125 41.984375 11.859375 
Q 46.1875 17.53125 46.1875 27.296875 
Q 46.1875 37.015625 41.984375 42.703125 
Q 37.796875 48.390625 30.609375 48.390625 
z
M 30.609375 56 
Q 42.328125 56 49.015625 48.375 
Q 55.71875 40.765625 55.71875 27.296875 
Q 55.71875 13.875 49.015625 6.21875 
Q 42.328125 -1.421875 30.609375 -1.421875 
Q 18.84375 -1.421875 12.171875 6.21875 
Q 5.515625 13.875 5.515625 27.296875 
Q 5.515625 40.765625 12.171875 48.375 
Q 18.84375 56 30.609375 56 
z
" id="DejaVuSans-111"/>
     </defs>
     <use xlink:href="#DejaVuSans-79"/>
     <use x="78.710938" xlink:href="#DejaVuSans-110"/>
     <use x="142.089844" xlink:href="#DejaVuSans-101"/>
     <use x="203.613281" xlink:href="#DejaVuSans-32"/>
     <use x="235.400391" xlink:href="#DejaVuSans-116"/>
     <use x="274.609375" xlink:href="#DejaVuSans-111"/>
     <use x="335.791016" xlink:href="#DejaVuSans-32"/>
     <use x="367.578125" xlink:href="#DejaVuSans-79"/>
     <use x="446.289062" xlink:href="#DejaVuSans-110"/>
     <use x="509.667969" xlink:href="#DejaVuSans-101"/>
    </g>
   </g>
  </g>
  <g id="axes_2">
   <g id="text_5">
    <g id="patch_7">
     <path d="M 242.577656 144.954997 
L 262.772344 144.954997 
L 262.772344 51.787653 
L 242.577656 51.787653 
z
" style="fill:#ffffff;stroke:#000000;stroke-linejoin:miter;"/>
    </g>
    <!--  -->
    <g transform="translate(252.675 65.565622)scale(0.13 -0.13)"/>
    <!--  -->
    <g transform="translate(252.675 80.122778)scale(0.13 -0.13)"/>
    <!--  -->
    <g transform="translate(252.675 94.679934)scale(0.13 -0.13)"/>
    <!--  -->
    <g transform="translate(252.675 109.23709)scale(0.13 -0.13)"/>
    <!--  -->
    <g transform="translate(252.675 123.794247)scale(0.13 -0.13)"/>
    <!--     -->
    <g transform="translate(246.477656 138.351403)scale(0.13 -0.13)">
     <use xlink:href="#DejaVuSans-32"/>
     <use x="31.787109" xlink:href="#DejaVuSans-32"/>
     <use x="63.574219" xlink:href="#DejaVuSans-32"/>
    </g>
   </g>
   <g id="text_6">
    <g id="patch_8">
     <path d="M 237.66 179.186364 
L 267.69 179.186364 
L 267.69 157.216364 
L 237.66 157.216364 
z
" style="fill:#ffffff;"/>
    </g>
    <!-- $x^{\langle 1 \rangle}$ -->
    <g transform="translate(241.56 172.582771)scale(0.13 -0.13)">
     <defs>
      <path d="M 35.5 -114.796875 
L 10.015625 -56.78125 
Q 9.8125 -56.5 9.8125 -56 
Q 9.8125 -55.515625 10.015625 -55.328125 
L 35.5 2.78125 
Q 35.984375 4 37.3125 4 
Q 38.03125 4 38.671875 3.359375 
Q 39.3125 2.734375 39.3125 2 
Q 39.3125 1.515625 39.203125 1.3125 
L 14.015625 -56 
L 39.203125 -113.28125 
Q 39.3125 -113.484375 39.3125 -114.015625 
Q 39.3125 -114.75 38.671875 -115.375 
Q 38.03125 -116.015625 37.3125 -116.015625 
Q 36.03125 -116.015625 35.5 -114.796875 
z
" id="Cmex10-173"/>
      <path d="M 9.28125 0 
L 9.28125 3.515625 
Q 21.78125 3.515625 21.78125 6.6875 
L 21.78125 59.1875 
Q 16.609375 56.6875 8.6875 56.6875 
L 8.6875 60.203125 
Q 20.953125 60.203125 27.203125 66.609375 
L 28.609375 66.609375 
Q 28.953125 66.609375 29.265625 66.328125 
Q 29.59375 66.0625 29.59375 65.71875 
L 29.59375 6.6875 
Q 29.59375 3.515625 42.09375 3.515625 
L 42.09375 0 
z
" id="Cmr10-49"/>
      <path d="M 7.8125 -114.015625 
Q 7.8125 -113.484375 8.015625 -113.28125 
L 33.109375 -56 
L 8.015625 1.3125 
Q 7.8125 1.515625 7.8125 2 
Q 7.8125 2.734375 8.390625 3.359375 
Q 8.984375 4 9.8125 4 
Q 10.984375 4 11.71875 2.78125 
L 37.203125 -55.328125 
Q 37.3125 -55.515625 37.3125 -56 
Q 37.3125 -56.5 37.203125 -56.78125 
L 11.71875 -114.796875 
Q 10.9375 -116.015625 9.8125 -116.015625 
Q 8.984375 -116.015625 8.390625 -115.375 
Q 7.8125 -114.75 7.8125 -114.015625 
z
" id="Cmex10-174"/>
     </defs>
     <use transform="translate(0 0.597135)" xlink:href="#Cmmi10-120"/>
     <use transform="translate(63.383359 104.202344)scale(0.7)" xlink:href="#Cmex10-173"/>
     <use transform="translate(96.435117 38.861198)scale(0.7)" xlink:href="#Cmr10-49"/>
     <use transform="translate(131.435117 104.202344)scale(0.7)" xlink:href="#Cmex10-174"/>
    </g>
   </g>
   <g id="patch_9">
    <path d="M 252.675 155.213714 
Q 252.675 151.084931 252.675 148.074182 
" style="fill:none;stroke:#000000;stroke-linecap:round;"/>
    <path d="M 250.675 152.074182 
L 252.675 148.074182 
L 254.675 152.074182 
" style="fill:none;stroke:#000000;stroke-linecap:round;"/>
   </g>
   <g id="text_7">
    <g id="patch_10">
     <path d="M 238.18 40.761285 
L 267.17 40.761285 
L 267.17 16.321285 
L 238.18 16.321285 
z
" style="fill:#ffffff;"/>
    </g>
    <!-- $y^{\langle 1 \rangle}$ -->
    <g transform="translate(242.08 34.131285)scale(0.13 -0.13)">
     <use transform="translate(0 0.597135)" xlink:href="#Cmmi10-121"/>
     <use transform="translate(55.326719 104.202344)scale(0.7)" xlink:href="#Cmex10-173"/>
     <use transform="translate(88.378477 38.861198)scale(0.7)" xlink:href="#Cmr10-49"/>
     <use transform="translate(123.378477 104.202344)scale(0.7)" xlink:href="#Cmex10-174"/>
    </g>
   </g>
   <g id="patch_11">
    <path d="M 252.675 43.879464 
Q 252.675 46.27628 252.675 49.79113 
" style="fill:none;stroke:#000000;stroke-linecap:round;"/>
    <path d="M 250.675 47.879464 
L 252.675 43.879464 
L 254.675 47.879464 
" style="fill:none;stroke:#000000;stroke-linecap:round;"/>
   </g>
   <g id="text_8">
    <g id="patch_12">
     <path d="M 279.777656 144.954997 
L 299.972344 144.954997 
L 299.972344 51.787653 
L 279.777656 51.787653 
z
" style="fill:#ffffff;stroke:#000000;stroke-linejoin:miter;"/>
    </g>
    <!--  -->
    <g transform="translate(289.875 65.565622)scale(0.13 -0.13)"/>
    <!--  -->
    <g transform="translate(289.875 80.122778)scale(0.13 -0.13)"/>
    <!--  -->
    <g transform="translate(289.875 94.679934)scale(0.13 -0.13)"/>
    <!--  -->
    <g transform="translate(289.875 109.23709)scale(0.13 -0.13)"/>
    <!--  -->
    <g transform="translate(289.875 123.794247)scale(0.13 -0.13)"/>
    <!--     -->
    <g transform="translate(283.677656 138.351403)scale(0.13 -0.13)">
     <use xlink:href="#DejaVuSans-32"/>
     <use x="31.787109" xlink:href="#DejaVuSans-32"/>
     <use x="63.574219" xlink:href="#DejaVuSans-32"/>
    </g>
   </g>
   <g id="patch_13">
    <path d="M 276.662661 98.371325 
Q 271.274999 98.371325 264.769304 98.371325 
" style="fill:none;stroke:#000000;stroke-linecap:round;"/>
    <path d="M 272.662661 96.371325 
L 276.662661 98.371325 
L 272.662661 100.371325 
" style="fill:none;stroke:#000000;stroke-linecap:round;"/>
   </g>
   <g id="text_9">
    <g id="patch_14">
     <path d="M 274.86 179.186364 
L 304.89 179.186364 
L 304.89 157.216364 
L 274.86 157.216364 
z
" style="fill:#ffffff;"/>
    </g>
    <!-- $x^{\langle 2 \rangle}$ -->
    <g transform="translate(278.76 172.582771)scale(0.13 -0.13)">
     <defs>
      <path d="M 4.984375 0 
L 4.984375 2.6875 
Q 4.984375 2.9375 5.171875 3.21875 
L 20.703125 20.40625 
Q 24.21875 24.21875 26.40625 26.796875 
Q 28.609375 29.390625 30.75 32.765625 
Q 32.90625 36.140625 34.15625 39.625 
Q 35.40625 43.109375 35.40625 47.015625 
Q 35.40625 51.125 33.890625 54.859375 
Q 32.375 58.59375 29.375 60.84375 
Q 26.375 63.09375 22.125 63.09375 
Q 17.78125 63.09375 14.3125 60.46875 
Q 10.84375 57.859375 9.421875 53.71875 
Q 9.8125 53.8125 10.5 53.8125 
Q 12.75 53.8125 14.328125 52.296875 
Q 15.921875 50.78125 15.921875 48.390625 
Q 15.921875 46.09375 14.328125 44.5 
Q 12.75 42.921875 10.5 42.921875 
Q 8.15625 42.921875 6.5625 44.546875 
Q 4.984375 46.1875 4.984375 48.390625 
Q 4.984375 52.15625 6.390625 55.4375 
Q 7.8125 58.734375 10.46875 61.296875 
Q 13.140625 63.875 16.484375 65.234375 
Q 19.828125 66.609375 23.578125 66.609375 
Q 29.296875 66.609375 34.21875 64.1875 
Q 39.15625 61.765625 42.03125 57.34375 
Q 44.921875 52.9375 44.921875 47.015625 
Q 44.921875 42.671875 43.015625 38.765625 
Q 41.109375 34.859375 38.125 31.65625 
Q 35.15625 28.46875 30.515625 24.40625 
Q 25.875 20.359375 24.421875 19 
L 13.09375 8.109375 
L 22.703125 8.109375 
Q 29.78125 8.109375 34.546875 8.21875 
Q 39.3125 8.34375 39.59375 8.59375 
Q 40.765625 9.859375 42 17.828125 
L 44.921875 17.828125 
L 42.09375 0 
z
" id="Cmr10-50"/>
     </defs>
     <use transform="translate(0 0.597135)" xlink:href="#Cmmi10-120"/>
     <use transform="translate(63.383359 104.202344)scale(0.7)" xlink:href="#Cmex10-173"/>
     <use transform="translate(96.435117 38.861198)scale(0.7)" xlink:href="#Cmr10-50"/>
     <use transform="translate(131.435117 104.202344)scale(0.7)" xlink:href="#Cmex10-174"/>
    </g>
   </g>
   <g id="patch_15">
    <path d="M 289.875 155.213714 
Q 289.875 151.084931 289.875 148.074182 
" style="fill:none;stroke:#000000;stroke-linecap:round;"/>
    <path d="M 287.875 152.074182 
L 289.875 148.074182 
L 291.875 152.074182 
" style="fill:none;stroke:#000000;stroke-linecap:round;"/>
   </g>
   <g id="text_10">
    <g id="patch_16">
     <path d="M 275.38 40.761285 
L 304.37 40.761285 
L 304.37 16.321285 
L 275.38 16.321285 
z
" style="fill:#ffffff;"/>
    </g>
    <!-- $y^{\langle 2 \rangle}$ -->
    <g transform="translate(279.28 34.131285)scale(0.13 -0.13)">
     <use transform="translate(0 0.597135)" xlink:href="#Cmmi10-121"/>
     <use transform="translate(55.326719 104.202344)scale(0.7)" xlink:href="#Cmex10-173"/>
     <use transform="translate(88.378477 38.861198)scale(0.7)" xlink:href="#Cmr10-50"/>
     <use transform="translate(123.378477 104.202344)scale(0.7)" xlink:href="#Cmex10-174"/>
    </g>
   </g>
   <g id="patch_17">
    <path d="M 289.875 43.879464 
Q 289.875 46.27628 289.875 49.79113 
" style="fill:none;stroke:#000000;stroke-linecap:round;"/>
    <path d="M 287.875 47.879464 
L 289.875 43.879464 
L 291.875 47.879464 
" style="fill:none;stroke:#000000;stroke-linecap:round;"/>
   </g>
   <g id="text_11">
    <g id="patch_18">
     <path d="M 316.977656 144.954997 
L 337.172344 144.954997 
L 337.172344 51.787653 
L 316.977656 51.787653 
z
" style="fill:#ffffff;stroke:#000000;stroke-linejoin:miter;"/>
    </g>
    <!--  -->
    <g transform="translate(327.075 65.565622)scale(0.13 -0.13)"/>
    <!--  -->
    <g transform="translate(327.075 80.122778)scale(0.13 -0.13)"/>
    <!--  -->
    <g transform="translate(327.075 94.679934)scale(0.13 -0.13)"/>
    <!--  -->
    <g transform="translate(327.075 109.23709)scale(0.13 -0.13)"/>
    <!--  -->
    <g transform="translate(327.075 123.794247)scale(0.13 -0.13)"/>
    <!--     -->
    <g transform="translate(320.877656 138.351403)scale(0.13 -0.13)">
     <use xlink:href="#DejaVuSans-32"/>
     <use x="31.787109" xlink:href="#DejaVuSans-32"/>
     <use x="63.574219" xlink:href="#DejaVuSans-32"/>
    </g>
   </g>
   <g id="patch_19">
    <path d="M 313.862661 98.371325 
Q 308.474999 98.371325 301.969304 98.371325 
" style="fill:none;stroke:#000000;stroke-linecap:round;"/>
    <path d="M 309.862661 96.371325 
L 313.862661 98.371325 
L 309.862661 100.371325 
" style="fill:none;stroke:#000000;stroke-linecap:round;"/>
   </g>
   <g id="text_12">
    <g id="patch_20">
     <path d="M 312.06 179.186364 
L 342.09 179.186364 
L 342.09 157.216364 
L 312.06 157.216364 
z
" style="fill:#ffffff;"/>
    </g>
    <!-- $x^{\langle 3 \rangle}$ -->
    <g transform="translate(315.96 172.582771)scale(0.13 -0.13)">
     <defs>
      <path d="M 9.515625 7.71875 
Q 11.859375 4.296875 15.8125 2.640625 
Q 19.78125 0.984375 24.3125 0.984375 
Q 30.125 0.984375 32.5625 5.9375 
Q 35.015625 10.890625 35.015625 17.1875 
Q 35.015625 20.015625 34.5 22.84375 
Q 33.984375 25.6875 32.765625 28.125 
Q 31.546875 30.5625 29.421875 32.03125 
Q 27.296875 33.5 24.21875 33.5 
L 17.578125 33.5 
Q 16.703125 33.5 16.703125 34.421875 
L 16.703125 35.296875 
Q 16.703125 36.078125 17.578125 36.078125 
L 23.09375 36.53125 
Q 26.609375 36.53125 28.921875 39.15625 
Q 31.25 41.796875 32.328125 45.578125 
Q 33.40625 49.359375 33.40625 52.78125 
Q 33.40625 57.5625 31.15625 60.640625 
Q 28.90625 63.71875 24.3125 63.71875 
Q 20.515625 63.71875 17.046875 62.28125 
Q 13.578125 60.84375 11.53125 57.90625 
Q 11.71875 57.953125 11.859375 57.984375 
Q 12.015625 58.015625 12.203125 58.015625 
Q 14.453125 58.015625 15.96875 56.453125 
Q 17.484375 54.890625 17.484375 52.6875 
Q 17.484375 50.53125 15.96875 48.96875 
Q 14.453125 47.40625 12.203125 47.40625 
Q 10.015625 47.40625 8.453125 48.96875 
Q 6.890625 50.53125 6.890625 52.6875 
Q 6.890625 56.984375 9.46875 60.15625 
Q 12.0625 63.328125 16.140625 64.96875 
Q 20.21875 66.609375 24.3125 66.609375 
Q 27.34375 66.609375 30.703125 65.703125 
Q 34.078125 64.796875 36.8125 63.109375 
Q 39.546875 61.421875 41.28125 58.78125 
Q 43.015625 56.15625 43.015625 52.78125 
Q 43.015625 48.578125 41.140625 45.015625 
Q 39.265625 41.453125 35.984375 38.859375 
Q 32.71875 36.28125 28.8125 35.015625 
Q 33.15625 34.1875 37.0625 31.734375 
Q 40.96875 29.296875 43.328125 25.484375 
Q 45.703125 21.6875 45.703125 17.28125 
Q 45.703125 11.765625 42.671875 7.296875 
Q 39.65625 2.828125 34.71875 0.3125 
Q 29.78125 -2.203125 24.3125 -2.203125 
Q 19.625 -2.203125 14.90625 -0.40625 
Q 10.203125 1.375 7.203125 4.9375 
Q 4.203125 8.5 4.203125 13.484375 
Q 4.203125 15.96875 5.859375 17.625 
Q 7.515625 19.28125 10.015625 19.28125 
Q 11.625 19.28125 12.96875 18.53125 
Q 14.3125 17.78125 15.0625 16.40625 
Q 15.828125 15.046875 15.828125 13.484375 
Q 15.828125 11.03125 14.109375 9.375 
Q 12.40625 7.71875 10.015625 7.71875 
z
" id="Cmr10-51"/>
     </defs>
     <use transform="translate(0 0.597135)" xlink:href="#Cmmi10-120"/>
     <use transform="translate(63.383359 104.202344)scale(0.7)" xlink:href="#Cmex10-173"/>
     <use transform="translate(96.435117 38.861198)scale(0.7)" xlink:href="#Cmr10-51"/>
     <use transform="translate(131.435117 104.202344)scale(0.7)" xlink:href="#Cmex10-174"/>
    </g>
   </g>
   <g id="patch_21">
    <path d="M 327.075 155.213714 
Q 327.075 151.084931 327.075 148.074182 
" style="fill:none;stroke:#000000;stroke-linecap:round;"/>
    <path d="M 325.075 152.074182 
L 327.075 148.074182 
L 329.075 152.074182 
" style="fill:none;stroke:#000000;stroke-linecap:round;"/>
   </g>
   <g id="text_13">
    <g id="patch_22">
     <path d="M 312.58 40.761285 
L 341.57 40.761285 
L 341.57 16.321285 
L 312.58 16.321285 
z
" style="fill:#ffffff;"/>
    </g>
    <!-- $y^{\langle 3 \rangle}$ -->
    <g transform="translate(316.48 34.131285)scale(0.13 -0.13)">
     <use transform="translate(0 0.597135)" xlink:href="#Cmmi10-121"/>
     <use transform="translate(55.326719 104.202344)scale(0.7)" xlink:href="#Cmex10-173"/>
     <use transform="translate(88.378477 38.861198)scale(0.7)" xlink:href="#Cmr10-51"/>
     <use transform="translate(123.378477 104.202344)scale(0.7)" xlink:href="#Cmex10-174"/>
    </g>
   </g>
   <g id="patch_23">
    <path d="M 327.075 43.879464 
Q 327.075 46.27628 327.075 49.79113 
" style="fill:none;stroke:#000000;stroke-linecap:round;"/>
    <path d="M 325.075 47.879464 
L 327.075 43.879464 
L 329.075 47.879464 
" style="fill:none;stroke:#000000;stroke-linecap:round;"/>
   </g>
   <g id="text_14">
    <g id="patch_24">
     <path d="M 354.33 108.562106 
L 374.22 108.562106 
L 374.22 88.180543 
L 354.33 88.180543 
z
" style="fill:#ffffff;"/>
    </g>
    <!-- $\cdots$ -->
    <g transform="translate(358.23 101.958512)scale(0.13 -0.13)">
     <defs>
      <path d="M 81.796875 25.296875 
Q 81.796875 22.703125 80.046875 20.796875 
Q 78.296875 18.90625 75.5 18.90625 
Q 72.59375 18.90625 70.84375 20.65625 
Q 69.09375 22.40625 69.09375 25.296875 
Q 69.09375 28 71.046875 29.796875 
Q 73 31.59375 75.5 31.59375 
Q 78 31.59375 79.890625 29.796875 
Q 81.796875 28 81.796875 25.296875 
z
M 52.59375 25.296875 
Q 52.59375 22.703125 50.84375 20.796875 
Q 49.09375 18.90625 46.296875 18.90625 
Q 43.40625 18.90625 41.65625 20.65625 
Q 39.90625 22.40625 39.90625 25.296875 
Q 39.90625 28 41.84375 29.796875 
Q 43.796875 31.59375 46.296875 31.59375 
Q 48.796875 31.59375 50.6875 29.796875 
Q 52.59375 28 52.59375 25.296875 
z
M 23.5 25.296875 
Q 23.5 22.703125 21.75 20.796875 
Q 20 18.90625 17.203125 18.90625 
Q 14.296875 18.90625 12.546875 20.65625 
Q 10.796875 22.40625 10.796875 25.296875 
Q 10.796875 28 12.75 29.796875 
Q 14.703125 31.59375 17.203125 31.59375 
Q 19.703125 31.59375 21.59375 29.796875 
Q 23.5 28 23.5 25.296875 
z
" id="STIXGeneral-Regular-8943"/>
     </defs>
     <use transform="translate(0 0.40625)" xlink:href="#STIXGeneral-Regular-8943"/>
    </g>
   </g>
   <g id="patch_25">
    <path d="M 351.21387 98.371325 
Q 345.753262 98.371325 339.17462 98.371325 
" style="fill:none;stroke:#000000;stroke-linecap:round;"/>
    <path d="M 347.21387 96.371325 
L 351.21387 98.371325 
L 347.21387 100.371325 
" style="fill:none;stroke:#000000;stroke-linecap:round;"/>
   </g>
   <g id="text_15">
    <g id="patch_26">
     <path d="M 391.377656 144.954997 
L 411.572344 144.954997 
L 411.572344 51.787653 
L 391.377656 51.787653 
z
" style="fill:#ffffff;stroke:#000000;stroke-linejoin:miter;"/>
    </g>
    <!--  -->
    <g transform="translate(401.475 65.565622)scale(0.13 -0.13)"/>
    <!--  -->
    <g transform="translate(401.475 80.122778)scale(0.13 -0.13)"/>
    <!--  -->
    <g transform="translate(401.475 94.679934)scale(0.13 -0.13)"/>
    <!--  -->
    <g transform="translate(401.475 109.23709)scale(0.13 -0.13)"/>
    <!--  -->
    <g transform="translate(401.475 123.794247)scale(0.13 -0.13)"/>
    <!--     -->
    <g transform="translate(395.277656 138.351403)scale(0.13 -0.13)">
     <use xlink:href="#DejaVuSans-32"/>
     <use x="31.787109" xlink:href="#DejaVuSans-32"/>
     <use x="63.574219" xlink:href="#DejaVuSans-32"/>
    </g>
   </g>
   <g id="patch_27">
    <path d="M 388.261526 98.371325 
Q 382.800918 98.371325 376.222276 98.371325 
" style="fill:none;stroke:#000000;stroke-linecap:round;"/>
    <path d="M 384.261526 96.371325 
L 388.261526 98.371325 
L 384.261526 100.371325 
" style="fill:none;stroke:#000000;stroke-linecap:round;"/>
   </g>
   <g id="text_16">
    <g id="patch_28">
     <path d="M 383.925 179.186364 
L 419.025 179.186364 
L 419.025 157.216364 
L 383.925 157.216364 
z
" style="fill:#ffffff;"/>
    </g>
    <!-- $x^{\langle T_x \rangle}$ -->
    <g transform="translate(387.825 172.582771)scale(0.13 -0.13)">
     <defs>
      <path d="M 4.59375 1.3125 
Q 4.640625 1.5625 4.8125 2.1875 
Q 4.984375 2.828125 5.25 3.171875 
Q 5.515625 3.515625 6 3.515625 
Q 14.59375 3.515625 17.390625 4 
Q 20.0625 4.6875 20.609375 6.890625 
L 34.28125 61.8125 
Q 34.71875 63.03125 34.71875 64.015625 
Q 34.71875 64.796875 31.203125 64.796875 
L 25.390625 64.796875 
Q 18.703125 64.796875 15.0625 62.734375 
Q 11.421875 60.6875 9.71875 57.3125 
Q 8.015625 53.953125 5.328125 46.296875 
Q 4.984375 45.40625 4.296875 45.40625 
L 3.421875 45.40625 
Q 2.390625 45.40625 2.390625 46.6875 
L 9.515625 67.390625 
Q 9.71875 68.3125 10.5 68.3125 
L 69.578125 68.3125 
Q 70.609375 68.3125 70.609375 67 
L 67.28125 46.296875 
Q 67.28125 46 66.9375 45.703125 
Q 66.609375 45.40625 66.3125 45.40625 
L 65.375 45.40625 
Q 64.40625 45.40625 64.40625 46.6875 
Q 65.484375 53.765625 65.484375 56.6875 
Q 65.484375 60.203125 64.015625 62 
Q 62.546875 63.8125 60.203125 64.296875 
Q 57.859375 64.796875 54.109375 64.796875 
L 48.1875 64.796875 
Q 45.515625 64.796875 44.578125 64.296875 
Q 43.65625 63.8125 43.015625 61.375 
L 29.296875 6.5 
Q 29.25 6.296875 29.21875 6.09375 
Q 29.203125 5.90625 29.109375 5.609375 
Q 29.109375 4.34375 30.609375 4 
Q 33.203125 3.515625 41.703125 3.515625 
Q 42.671875 3.515625 42.671875 2.203125 
Q 42.328125 0.78125 42.125 0.390625 
Q 41.9375 0 41.015625 0 
L 5.609375 0 
Q 4.59375 0 4.59375 1.3125 
z
" id="Cmmi10-84"/>
     </defs>
     <use transform="translate(0 0.597135)" xlink:href="#Cmmi10-120"/>
     <use transform="translate(63.383359 104.202344)scale(0.7)" xlink:href="#Cmex10-173"/>
     <use transform="translate(96.435117 38.861198)scale(0.7)" xlink:href="#Cmmi10-84"/>
     <use transform="translate(137.314023 26.956823)scale(0.49)" xlink:href="#Cmmi10-120"/>
     <use transform="translate(169.747402 104.202344)scale(0.7)" xlink:href="#Cmex10-174"/>
    </g>
   </g>
   <g id="patch_29">
    <path d="M 401.475 155.213714 
Q 401.475 151.084931 401.475 148.074182 
" style="fill:none;stroke:#000000;stroke-linecap:round;"/>
    <path d="M 399.475 152.074182 
L 401.475 148.074182 
L 403.475 152.074182 
" style="fill:none;stroke:#000000;stroke-linecap:round;"/>
   </g>
   <g id="text_17">
    <g id="patch_30">
     <path d="M 384.705 40.761285 
L 418.245 40.761285 
L 418.245 16.321285 
L 384.705 16.321285 
z
" style="fill:#ffffff;"/>
    </g>
    <!-- $y^{\langle T_y \rangle}$ -->
    <g transform="translate(388.605 34.131285)scale(0.13 -0.13)">
     <use transform="translate(0 0.597135)" xlink:href="#Cmmi10-121"/>
     <use transform="translate(55.326719 104.202344)scale(0.7)" xlink:href="#Cmex10-173"/>
     <use transform="translate(88.378477 38.861198)scale(0.7)" xlink:href="#Cmmi10-84"/>
     <use transform="translate(129.257383 26.956823)scale(0.49)" xlink:href="#Cmmi10-121"/>
     <use transform="translate(157.743008 104.202344)scale(0.7)" xlink:href="#Cmex10-174"/>
    </g>
   </g>
   <g id="patch_31">
    <path d="M 401.475 43.879464 
Q 401.475 46.27628 401.475 49.79113 
" style="fill:none;stroke:#000000;stroke-linecap:round;"/>
    <path d="M 399.475 47.879464 
L 401.475 43.879464 
L 403.475 47.879464 
" style="fill:none;stroke:#000000;stroke-linecap:round;"/>
   </g>
   <g id="text_18">
    <!-- Many to Many -->
    <g transform="translate(288.343828 15.558281)scale(0.11 -0.11)">
     <defs>
      <path d="M 9.8125 72.90625 
L 24.515625 72.90625 
L 43.109375 23.296875 
L 61.8125 72.90625 
L 76.515625 72.90625 
L 76.515625 0 
L 66.890625 0 
L 66.890625 64.015625 
L 48.09375 14.015625 
L 38.1875 14.015625 
L 19.390625 64.015625 
L 19.390625 0 
L 9.8125 0 
z
" id="DejaVuSans-77"/>
      <path d="M 34.28125 27.484375 
Q 23.390625 27.484375 19.1875 25 
Q 14.984375 22.515625 14.984375 16.5 
Q 14.984375 11.71875 18.140625 8.90625 
Q 21.296875 6.109375 26.703125 6.109375 
Q 34.1875 6.109375 38.703125 11.40625 
Q 43.21875 16.703125 43.21875 25.484375 
L 43.21875 27.484375 
z
M 52.203125 31.203125 
L 52.203125 0 
L 43.21875 0 
L 43.21875 8.296875 
Q 40.140625 3.328125 35.546875 0.953125 
Q 30.953125 -1.421875 24.3125 -1.421875 
Q 15.921875 -1.421875 10.953125 3.296875 
Q 6 8.015625 6 15.921875 
Q 6 25.140625 12.171875 29.828125 
Q 18.359375 34.515625 30.609375 34.515625 
L 43.21875 34.515625 
L 43.21875 35.40625 
Q 43.21875 41.609375 39.140625 45 
Q 35.0625 48.390625 27.6875 48.390625 
Q 23 48.390625 18.546875 47.265625 
Q 14.109375 46.140625 10.015625 43.890625 
L 10.015625 52.203125 
Q 14.9375 54.109375 19.578125 55.046875 
Q 24.21875 56 28.609375 56 
Q 40.484375 56 46.34375 49.84375 
Q 52.203125 43.703125 52.203125 31.203125 
z
" id="DejaVuSans-97"/>
      <path d="M 32.171875 -5.078125 
Q 28.375 -14.84375 24.75 -17.8125 
Q 21.140625 -20.796875 15.09375 -20.796875 
L 7.90625 -20.796875 
L 7.90625 -13.28125 
L 13.1875 -13.28125 
Q 16.890625 -13.28125 18.9375 -11.515625 
Q 21 -9.765625 23.484375 -3.21875 
L 25.09375 0.875 
L 2.984375 54.6875 
L 12.5 54.6875 
L 29.59375 11.921875 
L 46.6875 54.6875 
L 56.203125 54.6875 
z
" id="DejaVuSans-121"/>
     </defs>
     <use xlink:href="#DejaVuSans-77"/>
     <use x="86.279297" xlink:href="#DejaVuSans-97"/>
     <use x="147.558594" xlink:href="#DejaVuSans-110"/>
     <use x="210.9375" xlink:href="#DejaVuSans-121"/>
     <use x="270.117188" xlink:href="#DejaVuSans-32"/>
     <use x="301.904297" xlink:href="#DejaVuSans-116"/>
     <use x="341.113281" xlink:href="#DejaVuSans-111"/>
     <use x="402.294922" xlink:href="#DejaVuSans-32"/>
     <use x="434.082031" xlink:href="#DejaVuSans-77"/>
     <use x="520.361328" xlink:href="#DejaVuSans-97"/>
     <use x="581.640625" xlink:href="#DejaVuSans-110"/>
     <use x="645.019531" xlink:href="#DejaVuSans-121"/>
    </g>
   </g>
  </g>
  <g id="axes_3">
   <g id="text_19">
    <g id="patch_32">
     <path d="M 8.217656 344.66891 
L 28.412344 344.66891 
L 28.412344 251.501566 
L 8.217656 251.501566 
z
" style="fill:#ffffff;stroke:#000000;stroke-linejoin:miter;"/>
    </g>
    <!--  -->
    <g transform="translate(18.315 265.279535)scale(0.13 -0.13)"/>
    <!--  -->
    <g transform="translate(18.315 279.836691)scale(0.13 -0.13)"/>
    <!--  -->
    <g transform="translate(18.315 294.393847)scale(0.13 -0.13)"/>
    <!--  -->
    <g transform="translate(18.315 308.951003)scale(0.13 -0.13)"/>
    <!--  -->
    <g transform="translate(18.315 323.50816)scale(0.13 -0.13)"/>
    <!--     -->
    <g transform="translate(12.117656 338.065316)scale(0.13 -0.13)">
     <use xlink:href="#DejaVuSans-32"/>
     <use x="31.787109" xlink:href="#DejaVuSans-32"/>
     <use x="63.574219" xlink:href="#DejaVuSans-32"/>
    </g>
   </g>
   <g id="text_20">
    <g id="patch_33">
     <path d="M 3.3 378.900277 
L 33.33 378.900277 
L 33.33 356.930277 
L 3.3 356.930277 
z
" style="fill:#ffffff;"/>
    </g>
    <!-- $x^{\langle 1 \rangle}$ -->
    <g transform="translate(7.2 372.296684)scale(0.13 -0.13)">
     <use transform="translate(0 0.597135)" xlink:href="#Cmmi10-120"/>
     <use transform="translate(63.383359 104.202344)scale(0.7)" xlink:href="#Cmex10-173"/>
     <use transform="translate(96.435117 38.861198)scale(0.7)" xlink:href="#Cmr10-49"/>
     <use transform="translate(131.435117 104.202344)scale(0.7)" xlink:href="#Cmex10-174"/>
    </g>
   </g>
   <g id="patch_34">
    <path d="M 18.315 354.927627 
Q 18.315 350.798844 18.315 347.788095 
" style="fill:none;stroke:#000000;stroke-linecap:round;"/>
    <path d="M 16.315 351.788095 
L 18.315 347.788095 
L 20.315 351.788095 
" style="fill:none;stroke:#000000;stroke-linecap:round;"/>
   </g>
   <g id="text_21">
    <g id="patch_35">
     <path d="M 45.417656 344.66891 
L 65.612344 344.66891 
L 65.612344 251.501566 
L 45.417656 251.501566 
z
" style="fill:#ffffff;stroke:#000000;stroke-linejoin:miter;"/>
    </g>
    <!--  -->
    <g transform="translate(55.515 265.279535)scale(0.13 -0.13)"/>
    <!--  -->
    <g transform="translate(55.515 279.836691)scale(0.13 -0.13)"/>
    <!--  -->
    <g transform="translate(55.515 294.393847)scale(0.13 -0.13)"/>
    <!--  -->
    <g transform="translate(55.515 308.951003)scale(0.13 -0.13)"/>
    <!--  -->
    <g transform="translate(55.515 323.50816)scale(0.13 -0.13)"/>
    <!--     -->
    <g transform="translate(49.317656 338.065316)scale(0.13 -0.13)">
     <use xlink:href="#DejaVuSans-32"/>
     <use x="31.787109" xlink:href="#DejaVuSans-32"/>
     <use x="63.574219" xlink:href="#DejaVuSans-32"/>
    </g>
   </g>
   <g id="patch_36">
    <path d="M 42.302661 298.085238 
Q 36.914999 298.085238 30.409304 298.085238 
" style="fill:none;stroke:#000000;stroke-linecap:round;"/>
    <path d="M 38.302661 296.085238 
L 42.302661 298.085238 
L 38.302661 300.085238 
" style="fill:none;stroke:#000000;stroke-linecap:round;"/>
   </g>
   <g id="text_22">
    <g id="patch_37">
     <path d="M 40.5 378.900277 
L 70.53 378.900277 
L 70.53 356.930277 
L 40.5 356.930277 
z
" style="fill:#ffffff;"/>
    </g>
    <!-- $x^{\langle 2 \rangle}$ -->
    <g transform="translate(44.4 372.296684)scale(0.13 -0.13)">
     <use transform="translate(0 0.597135)" xlink:href="#Cmmi10-120"/>
     <use transform="translate(63.383359 104.202344)scale(0.7)" xlink:href="#Cmex10-173"/>
     <use transform="translate(96.435117 38.861198)scale(0.7)" xlink:href="#Cmr10-50"/>
     <use transform="translate(131.435117 104.202344)scale(0.7)" xlink:href="#Cmex10-174"/>
    </g>
   </g>
   <g id="patch_38">
    <path d="M 55.515 354.927627 
Q 55.515 350.798844 55.515 347.788095 
" style="fill:none;stroke:#000000;stroke-linecap:round;"/>
    <path d="M 53.515 351.788095 
L 55.515 347.788095 
L 57.515 351.788095 
" style="fill:none;stroke:#000000;stroke-linecap:round;"/>
   </g>
   <g id="text_23">
    <g id="patch_39">
     <path d="M 82.617656 344.66891 
L 102.812344 344.66891 
L 102.812344 251.501566 
L 82.617656 251.501566 
z
" style="fill:#ffffff;stroke:#000000;stroke-linejoin:miter;"/>
    </g>
    <!--  -->
    <g transform="translate(92.715 265.279535)scale(0.13 -0.13)"/>
    <!--  -->
    <g transform="translate(92.715 279.836691)scale(0.13 -0.13)"/>
    <!--  -->
    <g transform="translate(92.715 294.393847)scale(0.13 -0.13)"/>
    <!--  -->
    <g transform="translate(92.715 308.951003)scale(0.13 -0.13)"/>
    <!--  -->
    <g transform="translate(92.715 323.50816)scale(0.13 -0.13)"/>
    <!--     -->
    <g transform="translate(86.517656 338.065316)scale(0.13 -0.13)">
     <use xlink:href="#DejaVuSans-32"/>
     <use x="31.787109" xlink:href="#DejaVuSans-32"/>
     <use x="63.574219" xlink:href="#DejaVuSans-32"/>
    </g>
   </g>
   <g id="patch_40">
    <path d="M 79.502661 298.085238 
Q 74.114999 298.085238 67.609304 298.085238 
" style="fill:none;stroke:#000000;stroke-linecap:round;"/>
    <path d="M 75.502661 296.085238 
L 79.502661 298.085238 
L 75.502661 300.085238 
" style="fill:none;stroke:#000000;stroke-linecap:round;"/>
   </g>
   <g id="text_24">
    <g id="patch_41">
     <path d="M 77.7 378.900277 
L 107.73 378.900277 
L 107.73 356.930277 
L 77.7 356.930277 
z
" style="fill:#ffffff;"/>
    </g>
    <!-- $x^{\langle 3 \rangle}$ -->
    <g transform="translate(81.6 372.296684)scale(0.13 -0.13)">
     <use transform="translate(0 0.597135)" xlink:href="#Cmmi10-120"/>
     <use transform="translate(63.383359 104.202344)scale(0.7)" xlink:href="#Cmex10-173"/>
     <use transform="translate(96.435117 38.861198)scale(0.7)" xlink:href="#Cmr10-51"/>
     <use transform="translate(131.435117 104.202344)scale(0.7)" xlink:href="#Cmex10-174"/>
    </g>
   </g>
   <g id="patch_42">
    <path d="M 92.715 354.927627 
Q 92.715 350.798844 92.715 347.788095 
" style="fill:none;stroke:#000000;stroke-linecap:round;"/>
    <path d="M 90.715 351.788095 
L 92.715 347.788095 
L 94.715 351.788095 
" style="fill:none;stroke:#000000;stroke-linecap:round;"/>
   </g>
   <g id="text_25">
    <g id="patch_43">
     <path d="M 119.97 308.276019 
L 139.86 308.276019 
L 139.86 287.894457 
L 119.97 287.894457 
z
" style="fill:#ffffff;"/>
    </g>
    <!-- $\cdots$ -->
    <g transform="translate(123.87 301.672425)scale(0.13 -0.13)">
     <use transform="translate(0 0.40625)" xlink:href="#STIXGeneral-Regular-8943"/>
    </g>
   </g>
   <g id="patch_44">
    <path d="M 116.85387 298.085238 
Q 111.393262 298.085238 104.81462 298.085238 
" style="fill:none;stroke:#000000;stroke-linecap:round;"/>
    <path d="M 112.85387 296.085238 
L 116.85387 298.085238 
L 112.85387 300.085238 
" style="fill:none;stroke:#000000;stroke-linecap:round;"/>
   </g>
   <g id="text_26">
    <g id="patch_45">
     <path d="M 157.017656 344.66891 
L 177.212344 344.66891 
L 177.212344 251.501566 
L 157.017656 251.501566 
z
" style="fill:#ffffff;stroke:#000000;stroke-linejoin:miter;"/>
    </g>
    <!--  -->
    <g transform="translate(167.115 265.279535)scale(0.13 -0.13)"/>
    <!--  -->
    <g transform="translate(167.115 279.836691)scale(0.13 -0.13)"/>
    <!--  -->
    <g transform="translate(167.115 294.393847)scale(0.13 -0.13)"/>
    <!--  -->
    <g transform="translate(167.115 308.951003)scale(0.13 -0.13)"/>
    <!--  -->
    <g transform="translate(167.115 323.50816)scale(0.13 -0.13)"/>
    <!--     -->
    <g transform="translate(160.917656 338.065316)scale(0.13 -0.13)">
     <use xlink:href="#DejaVuSans-32"/>
     <use x="31.787109" xlink:href="#DejaVuSans-32"/>
     <use x="63.574219" xlink:href="#DejaVuSans-32"/>
    </g>
   </g>
   <g id="patch_46">
    <path d="M 153.901526 298.085238 
Q 148.440918 298.085238 141.862276 298.085238 
" style="fill:none;stroke:#000000;stroke-linecap:round;"/>
    <path d="M 149.901526 296.085238 
L 153.901526 298.085238 
L 149.901526 300.085238 
" style="fill:none;stroke:#000000;stroke-linecap:round;"/>
   </g>
   <g id="text_27">
    <g id="patch_47">
     <path d="M 149.565 378.900277 
L 184.665 378.900277 
L 184.665 356.930277 
L 149.565 356.930277 
z
" style="fill:#ffffff;"/>
    </g>
    <!-- $x^{\langle T_x \rangle}$ -->
    <g transform="translate(153.465 372.296684)scale(0.13 -0.13)">
     <use transform="translate(0 0.597135)" xlink:href="#Cmmi10-120"/>
     <use transform="translate(63.383359 104.202344)scale(0.7)" xlink:href="#Cmex10-173"/>
     <use transform="translate(96.435117 38.861198)scale(0.7)" xlink:href="#Cmmi10-84"/>
     <use transform="translate(137.314023 26.956823)scale(0.49)" xlink:href="#Cmmi10-120"/>
     <use transform="translate(169.747402 104.202344)scale(0.7)" xlink:href="#Cmex10-174"/>
    </g>
   </g>
   <g id="patch_48">
    <path d="M 167.115 354.927627 
Q 167.115 350.798844 167.115 347.788095 
" style="fill:none;stroke:#000000;stroke-linecap:round;"/>
    <path d="M 165.115 351.788095 
L 167.115 347.788095 
L 169.115 351.788095 
" style="fill:none;stroke:#000000;stroke-linecap:round;"/>
   </g>
   <g id="text_28">
    <g id="patch_49">
     <path d="M 159.965 238.445979 
L 174.265 238.445979 
L 174.265 218.064417 
L 159.965 218.064417 
z
" style="fill:#ffffff;"/>
    </g>
    <!-- $\hat{y}$ -->
    <g transform="translate(163.865 231.815979)scale(0.13 -0.13)">
     <defs>
      <path d="M 13.484375 53.8125 
L 11.53125 55.90625 
L 25 69.390625 
L 38.375 55.90625 
L 36.375 53.8125 
L 25 63.8125 
z
" id="Cmr10-94"/>
     </defs>
     <use transform="translate(5.724609 3.609375)" xlink:href="#Cmr10-94"/>
     <use transform="translate(0 0.734375)" xlink:href="#Cmmi10-121"/>
    </g>
   </g>
   <g id="patch_50">
    <path d="M 167.115 241.562513 
Q 167.115 244.972863 167.115 249.501248 
" style="fill:none;stroke:#000000;stroke-linecap:round;"/>
    <path d="M 165.115 245.562513 
L 167.115 241.562513 
L 169.115 245.562513 
" style="fill:none;stroke:#000000;stroke-linecap:round;"/>
   </g>
   <g id="text_29">
    <!-- Many to One -->
    <g transform="translate(57.641328 215.272194)scale(0.11 -0.11)">
     <use xlink:href="#DejaVuSans-77"/>
     <use x="86.279297" xlink:href="#DejaVuSans-97"/>
     <use x="147.558594" xlink:href="#DejaVuSans-110"/>
     <use x="210.9375" xlink:href="#DejaVuSans-121"/>
     <use x="270.117188" xlink:href="#DejaVuSans-32"/>
     <use x="301.904297" xlink:href="#DejaVuSans-116"/>
     <use x="341.113281" xlink:href="#DejaVuSans-111"/>
     <use x="402.294922" xlink:href="#DejaVuSans-32"/>
     <use x="434.082031" xlink:href="#DejaVuSans-79"/>
     <use x="512.792969" xlink:href="#DejaVuSans-110"/>
     <use x="576.171875" xlink:href="#DejaVuSans-101"/>
    </g>
   </g>
  </g>
  <g id="axes_4">
   <g id="text_30">
    <g id="patch_51">
     <path d="M 242.577656 344.66891 
L 262.772344 344.66891 
L 262.772344 251.501566 
L 242.577656 251.501566 
z
" style="fill:#ffffff;stroke:#000000;stroke-linejoin:miter;"/>
    </g>
    <!--  -->
    <g transform="translate(252.675 265.279535)scale(0.13 -0.13)"/>
    <!--  -->
    <g transform="translate(252.675 279.836691)scale(0.13 -0.13)"/>
    <!--  -->
    <g transform="translate(252.675 294.393847)scale(0.13 -0.13)"/>
    <!--  -->
    <g transform="translate(252.675 308.951003)scale(0.13 -0.13)"/>
    <!--  -->
    <g transform="translate(252.675 323.50816)scale(0.13 -0.13)"/>
    <!--     -->
    <g transform="translate(246.477656 338.065316)scale(0.13 -0.13)">
     <use xlink:href="#DejaVuSans-32"/>
     <use x="31.787109" xlink:href="#DejaVuSans-32"/>
     <use x="63.574219" xlink:href="#DejaVuSans-32"/>
    </g>
   </g>
   <g id="text_31">
    <g id="patch_52">
     <path d="M 245.005 378.106059 
L 260.345 378.106059 
L 260.345 357.724496 
L 245.005 357.724496 
z
" style="fill:#ffffff;"/>
    </g>
    <!-- $x$ -->
    <g transform="translate(248.905 371.502465)scale(0.13 -0.13)">
     <use transform="translate(0 0.8125)" xlink:href="#Cmmi10-120"/>
    </g>
   </g>
   <g id="patch_53">
    <path d="M 252.675 355.725997 
Q 252.675 351.197612 252.675 347.787261 
" style="fill:none;stroke:#000000;stroke-linecap:round;"/>
    <path d="M 250.675 351.787261 
L 252.675 347.787261 
L 254.675 351.787261 
" style="fill:none;stroke:#000000;stroke-linecap:round;"/>
   </g>
   <g id="text_32">
    <g id="patch_54">
     <path d="M 235.905 240.475198 
L 269.445 240.475198 
L 269.445 216.035198 
L 235.905 216.035198 
z
" style="fill:#ffffff;"/>
    </g>
    <!-- $y^{\langle T_y \rangle}$ -->
    <g transform="translate(239.805 233.845198)scale(0.13 -0.13)">
     <use transform="translate(0 0.597135)" xlink:href="#Cmmi10-121"/>
     <use transform="translate(55.326719 104.202344)scale(0.7)" xlink:href="#Cmex10-173"/>
     <use transform="translate(88.378477 38.861198)scale(0.7)" xlink:href="#Cmmi10-84"/>
     <use transform="translate(129.257383 26.956823)scale(0.49)" xlink:href="#Cmmi10-121"/>
     <use transform="translate(157.743008 104.202344)scale(0.7)" xlink:href="#Cmex10-174"/>
    </g>
   </g>
   <g id="patch_55">
    <path d="M 252.675 243.593377 
Q 252.675 245.990193 252.675 249.505043 
" style="fill:none;stroke:#000000;stroke-linecap:round;"/>
    <path d="M 250.675 247.593377 
L 252.675 243.593377 
L 254.675 247.593377 
" style="fill:none;stroke:#000000;stroke-linecap:round;"/>
   </g>
   <g id="text_33">
    <g id="patch_56">
     <path d="M 279.777656 344.66891 
L 299.972344 344.66891 
L 299.972344 251.501566 
L 279.777656 251.501566 
z
" style="fill:#ffffff;stroke:#000000;stroke-linejoin:miter;"/>
    </g>
    <!--  -->
    <g transform="translate(289.875 265.279535)scale(0.13 -0.13)"/>
    <!--  -->
    <g transform="translate(289.875 279.836691)scale(0.13 -0.13)"/>
    <!--  -->
    <g transform="translate(289.875 294.393847)scale(0.13 -0.13)"/>
    <!--  -->
    <g transform="translate(289.875 308.951003)scale(0.13 -0.13)"/>
    <!--  -->
    <g transform="translate(289.875 323.50816)scale(0.13 -0.13)"/>
    <!--     -->
    <g transform="translate(283.677656 338.065316)scale(0.13 -0.13)">
     <use xlink:href="#DejaVuSans-32"/>
     <use x="31.787109" xlink:href="#DejaVuSans-32"/>
     <use x="63.574219" xlink:href="#DejaVuSans-32"/>
    </g>
   </g>
   <g id="patch_57">
    <path d="M 276.662661 298.085238 
Q 271.274999 298.085238 264.769304 298.085238 
" style="fill:none;stroke:#000000;stroke-linecap:round;"/>
    <path d="M 272.662661 296.085238 
L 276.662661 298.085238 
L 272.662661 300.085238 
" style="fill:none;stroke:#000000;stroke-linecap:round;"/>
   </g>
   <g id="text_34">
    <g id="patch_58">
     <path d="M 273.105 240.475198 
L 306.645 240.475198 
L 306.645 216.035198 
L 273.105 216.035198 
z
" style="fill:#ffffff;"/>
    </g>
    <!-- $y^{\langle T_y \rangle}$ -->
    <g transform="translate(277.005 233.845198)scale(0.13 -0.13)">
     <use transform="translate(0 0.597135)" xlink:href="#Cmmi10-121"/>
     <use transform="translate(55.326719 104.202344)scale(0.7)" xlink:href="#Cmex10-173"/>
     <use transform="translate(88.378477 38.861198)scale(0.7)" xlink:href="#Cmmi10-84"/>
     <use transform="translate(129.257383 26.956823)scale(0.49)" xlink:href="#Cmmi10-121"/>
     <use transform="translate(157.743008 104.202344)scale(0.7)" xlink:href="#Cmex10-174"/>
    </g>
   </g>
   <g id="patch_59">
    <path d="M 289.875 243.593377 
Q 289.875 245.990193 289.875 249.505043 
" style="fill:none;stroke:#000000;stroke-linecap:round;"/>
    <path d="M 287.875 247.593377 
L 289.875 243.593377 
L 291.875 247.593377 
" style="fill:none;stroke:#000000;stroke-linecap:round;"/>
   </g>
   <g id="text_35">
    <g id="patch_60">
     <path d="M 316.977656 344.66891 
L 337.172344 344.66891 
L 337.172344 251.501566 
L 316.977656 251.501566 
z
" style="fill:#ffffff;stroke:#000000;stroke-linejoin:miter;"/>
    </g>
    <!--  -->
    <g transform="translate(327.075 265.279535)scale(0.13 -0.13)"/>
    <!--  -->
    <g transform="translate(327.075 279.836691)scale(0.13 -0.13)"/>
    <!--  -->
    <g transform="translate(327.075 294.393847)scale(0.13 -0.13)"/>
    <!--  -->
    <g transform="translate(327.075 308.951003)scale(0.13 -0.13)"/>
    <!--  -->
    <g transform="translate(327.075 323.50816)scale(0.13 -0.13)"/>
    <!--     -->
    <g transform="translate(320.877656 338.065316)scale(0.13 -0.13)">
     <use xlink:href="#DejaVuSans-32"/>
     <use x="31.787109" xlink:href="#DejaVuSans-32"/>
     <use x="63.574219" xlink:href="#DejaVuSans-32"/>
    </g>
   </g>
   <g id="patch_61">
    <path d="M 313.862661 298.085238 
Q 308.474999 298.085238 301.969304 298.085238 
" style="fill:none;stroke:#000000;stroke-linecap:round;"/>
    <path d="M 309.862661 296.085238 
L 313.862661 298.085238 
L 309.862661 300.085238 
" style="fill:none;stroke:#000000;stroke-linecap:round;"/>
   </g>
   <g id="text_36">
    <g id="patch_62">
     <path d="M 310.305 240.475198 
L 343.845 240.475198 
L 343.845 216.035198 
L 310.305 216.035198 
z
" style="fill:#ffffff;"/>
    </g>
    <!-- $y^{\langle T_y \rangle}$ -->
    <g transform="translate(314.205 233.845198)scale(0.13 -0.13)">
     <use transform="translate(0 0.597135)" xlink:href="#Cmmi10-121"/>
     <use transform="translate(55.326719 104.202344)scale(0.7)" xlink:href="#Cmex10-173"/>
     <use transform="translate(88.378477 38.861198)scale(0.7)" xlink:href="#Cmmi10-84"/>
     <use transform="translate(129.257383 26.956823)scale(0.49)" xlink:href="#Cmmi10-121"/>
     <use transform="translate(157.743008 104.202344)scale(0.7)" xlink:href="#Cmex10-174"/>
    </g>
   </g>
   <g id="patch_63">
    <path d="M 327.075 243.593377 
Q 327.075 245.990193 327.075 249.505043 
" style="fill:none;stroke:#000000;stroke-linecap:round;"/>
    <path d="M 325.075 247.593377 
L 327.075 243.593377 
L 329.075 247.593377 
" style="fill:none;stroke:#000000;stroke-linecap:round;"/>
   </g>
   <g id="text_37">
    <g id="patch_64">
     <path d="M 354.33 308.276019 
L 374.22 308.276019 
L 374.22 287.894457 
L 354.33 287.894457 
z
" style="fill:#ffffff;"/>
    </g>
    <!-- $\cdots$ -->
    <g transform="translate(358.23 301.672425)scale(0.13 -0.13)">
     <use transform="translate(0 0.40625)" xlink:href="#STIXGeneral-Regular-8943"/>
    </g>
   </g>
   <g id="patch_65">
    <path d="M 351.21387 298.085238 
Q 345.753262 298.085238 339.17462 298.085238 
" style="fill:none;stroke:#000000;stroke-linecap:round;"/>
    <path d="M 347.21387 296.085238 
L 351.21387 298.085238 
L 347.21387 300.085238 
" style="fill:none;stroke:#000000;stroke-linecap:round;"/>
   </g>
   <g id="text_38">
    <g id="patch_66">
     <path d="M 391.377656 344.66891 
L 411.572344 344.66891 
L 411.572344 251.501566 
L 391.377656 251.501566 
z
" style="fill:#ffffff;stroke:#000000;stroke-linejoin:miter;"/>
    </g>
    <!--  -->
    <g transform="translate(401.475 265.279535)scale(0.13 -0.13)"/>
    <!--  -->
    <g transform="translate(401.475 279.836691)scale(0.13 -0.13)"/>
    <!--  -->
    <g transform="translate(401.475 294.393847)scale(0.13 -0.13)"/>
    <!--  -->
    <g transform="translate(401.475 308.951003)scale(0.13 -0.13)"/>
    <!--  -->
    <g transform="translate(401.475 323.50816)scale(0.13 -0.13)"/>
    <!--     -->
    <g transform="translate(395.277656 338.065316)scale(0.13 -0.13)">
     <use xlink:href="#DejaVuSans-32"/>
     <use x="31.787109" xlink:href="#DejaVuSans-32"/>
     <use x="63.574219" xlink:href="#DejaVuSans-32"/>
    </g>
   </g>
   <g id="patch_67">
    <path d="M 388.261526 298.085238 
Q 382.800918 298.085238 376.222276 298.085238 
" style="fill:none;stroke:#000000;stroke-linecap:round;"/>
    <path d="M 384.261526 296.085238 
L 388.261526 298.085238 
L 384.261526 300.085238 
" style="fill:none;stroke:#000000;stroke-linecap:round;"/>
   </g>
   <g id="text_39">
    <g id="patch_68">
     <path d="M 384.705 240.475198 
L 418.245 240.475198 
L 418.245 216.035198 
L 384.705 216.035198 
z
" style="fill:#ffffff;"/>
    </g>
    <!-- $y^{\langle T_y \rangle}$ -->
    <g transform="translate(388.605 233.845198)scale(0.13 -0.13)">
     <use transform="translate(0 0.597135)" xlink:href="#Cmmi10-121"/>
     <use transform="translate(55.326719 104.202344)scale(0.7)" xlink:href="#Cmex10-173"/>
     <use transform="translate(88.378477 38.861198)scale(0.7)" xlink:href="#Cmmi10-84"/>
     <use transform="translate(129.257383 26.956823)scale(0.49)" xlink:href="#Cmmi10-121"/>
     <use transform="translate(157.743008 104.202344)scale(0.7)" xlink:href="#Cmex10-174"/>
    </g>
   </g>
   <g id="patch_69">
    <path d="M 401.475 243.593377 
Q 401.475 245.990193 401.475 249.505043 
" style="fill:none;stroke:#000000;stroke-linecap:round;"/>
    <path d="M 399.475 247.593377 
L 401.475 243.593377 
L 403.475 247.593377 
" style="fill:none;stroke:#000000;stroke-linecap:round;"/>
   </g>
   <g id="text_40">
    <!-- One to Many -->
    <g transform="translate(292.001328 215.272194)scale(0.11 -0.11)">
     <use xlink:href="#DejaVuSans-79"/>
     <use x="78.710938" xlink:href="#DejaVuSans-110"/>
     <use x="142.089844" xlink:href="#DejaVuSans-101"/>
     <use x="203.613281" xlink:href="#DejaVuSans-32"/>
     <use x="235.400391" xlink:href="#DejaVuSans-116"/>
     <use x="274.609375" xlink:href="#DejaVuSans-111"/>
     <use x="335.791016" xlink:href="#DejaVuSans-32"/>
     <use x="367.578125" xlink:href="#DejaVuSans-77"/>
     <use x="453.857422" xlink:href="#DejaVuSans-97"/>
     <use x="515.136719" xlink:href="#DejaVuSans-110"/>
     <use x="578.515625" xlink:href="#DejaVuSans-121"/>
    </g>
   </g>
  </g>
 </g>
</svg>
