<?xml version="1.0" encoding="utf-8" standalone="no"?>
<!DOCTYPE svg PUBLIC "-//W3C//DTD SVG 1.1//EN"
  "http://www.w3.org/Graphics/SVG/1.1/DTD/svg11.dtd">
<!-- Created with matplotlib (https://matplotlib.org/) -->
<svg height="236.890714pt" version="1.1" viewBox="0 0 473.082857 236.890714" width="473.082857pt" xmlns="http://www.w3.org/2000/svg" xmlns:xlink="http://www.w3.org/1999/xlink">
 <metadata>
  <rdf:RDF xmlns:cc="http://creativecommons.org/ns#" xmlns:dc="http://purl.org/dc/elements/1.1/" xmlns:rdf="http://www.w3.org/1999/02/22-rdf-syntax-ns#">
   <cc:Work>
    <dc:type rdf:resource="http://purl.org/dc/dcmitype/StillImage"/>
    <dc:date>2021-05-31T22:51:26.485627</dc:date>
    <dc:format>image/svg+xml</dc:format>
    <dc:creator>
     <cc:Agent>
      <dc:title>Matplotlib v3.3.4, https://matplotlib.org/</dc:title>
     </cc:Agent>
    </dc:creator>
   </cc:Work>
  </rdf:RDF>
 </metadata>
 <defs>
  <style type="text/css">*{stroke-linecap:butt;stroke-linejoin:round;}</style>
 </defs>
 <g id="figure_1">
  <g id="patch_1">
   <path d="M 0 236.890714 
L 473.082857 236.890714 
L 473.082857 0 
L 0 0 
z
" style="fill:none;"/>
  </g>
  <g id="axes_1">
   <g id="text_1">
    <g id="patch_2">
     <path d="M 3.3 181.819286 
L 44.64 181.819286 
L 44.64 159.849286 
L 3.3 159.849286 
z
" style="fill:#ffffff;"/>
    </g>
    <!-- $a^{\;[1]\langle 0 \rangle} $ -->
    <g transform="translate(7.2 175.215692)scale(0.13 -0.13)">
     <defs>
      <path d="M 17.390625 -1.125 
Q 11.078125 -1.125 7.4375 3.640625 
Q 3.8125 8.40625 3.8125 14.890625 
Q 3.8125 21.296875 7.125 28.171875 
Q 10.453125 35.0625 16.09375 39.625 
Q 21.734375 44.1875 28.21875 44.1875 
Q 31.203125 44.1875 33.546875 42.578125 
Q 35.890625 40.96875 37.203125 38.1875 
Q 38.328125 42.1875 41.609375 42.1875 
Q 42.875 42.1875 43.71875 41.421875 
Q 44.578125 40.671875 44.578125 39.40625 
Q 44.578125 39.109375 44.546875 38.953125 
Q 44.53125 38.8125 44.484375 38.625 
L 37.5 10.6875 
Q 36.8125 7.71875 36.8125 5.8125 
Q 36.8125 1.515625 39.703125 1.515625 
Q 42.828125 1.515625 44.453125 5.484375 
Q 46.09375 9.46875 47.21875 14.703125 
Q 47.40625 15.28125 48 15.28125 
L 49.21875 15.28125 
Q 49.609375 15.28125 49.84375 14.9375 
Q 50.09375 14.59375 50.09375 14.3125 
Q 48.34375 7.328125 46.265625 3.09375 
Q 44.1875 -1.125 39.5 -1.125 
Q 36.140625 -1.125 33.546875 0.84375 
Q 30.953125 2.828125 30.328125 6.109375 
Q 23.875 -1.125 17.390625 -1.125 
z
M 17.484375 1.515625 
Q 21.09375 1.515625 24.484375 4.21875 
Q 27.875 6.9375 30.328125 10.59375 
Q 30.421875 10.6875 30.421875 10.890625 
L 35.796875 32.625 
L 35.890625 32.90625 
Q 35.296875 36.46875 33.3125 39.03125 
Q 31.34375 41.609375 27.984375 41.609375 
Q 24.609375 41.609375 21.703125 38.84375 
Q 18.796875 36.078125 16.796875 32.328125 
Q 14.84375 28.328125 13.0625 21.34375 
Q 11.28125 14.359375 11.28125 10.5 
Q 11.28125 7.03125 12.765625 4.265625 
Q 14.265625 1.515625 17.484375 1.515625 
z
" id="Cmmi10-97"/>
      <path d="M 11.8125 -25 
L 11.8125 75 
L 25.484375 75 
L 25.484375 71 
L 15.828125 71 
L 15.828125 -21 
L 25.484375 -21 
L 25.484375 -25 
z
" id="Cmr10-91"/>
      <path d="M 9.28125 0 
L 9.28125 3.515625 
Q 21.78125 3.515625 21.78125 6.6875 
L 21.78125 59.1875 
Q 16.609375 56.6875 8.6875 56.6875 
L 8.6875 60.203125 
Q 20.953125 60.203125 27.203125 66.609375 
L 28.609375 66.609375 
Q 28.953125 66.609375 29.265625 66.328125 
Q 29.59375 66.0625 29.59375 65.71875 
L 29.59375 6.6875 
Q 29.59375 3.515625 42.09375 3.515625 
L 42.09375 0 
z
" id="Cmr10-49"/>
      <path d="M 2.203125 -25 
L 2.203125 -21 
L 11.921875 -21 
L 11.921875 71 
L 2.203125 71 
L 2.203125 75 
L 15.921875 75 
L 15.921875 -25 
z
" id="Cmr10-93"/>
      <path d="M 35.5 -114.796875 
L 10.015625 -56.78125 
Q 9.8125 -56.5 9.8125 -56 
Q 9.8125 -55.515625 10.015625 -55.328125 
L 35.5 2.78125 
Q 35.984375 4 37.3125 4 
Q 38.03125 4 38.671875 3.359375 
Q 39.3125 2.734375 39.3125 2 
Q 39.3125 1.515625 39.203125 1.3125 
L 14.015625 -56 
L 39.203125 -113.28125 
Q 39.3125 -113.484375 39.3125 -114.015625 
Q 39.3125 -114.75 38.671875 -115.375 
Q 38.03125 -116.015625 37.3125 -116.015625 
Q 36.03125 -116.015625 35.5 -114.796875 
z
" id="Cmex10-173"/>
      <path d="M 25 -2.203125 
Q 12.75 -2.203125 8.328125 7.875 
Q 3.90625 17.96875 3.90625 31.890625 
Q 3.90625 40.578125 5.484375 48.234375 
Q 7.078125 55.90625 11.78125 61.25 
Q 16.5 66.609375 25 66.609375 
Q 31.59375 66.609375 35.78125 63.375 
Q 39.984375 60.15625 42.1875 55.046875 
Q 44.390625 49.953125 45.1875 44.109375 
Q 46 38.28125 46 31.890625 
Q 46 23.296875 44.40625 15.796875 
Q 42.828125 8.296875 38.1875 3.046875 
Q 33.546875 -2.203125 25 -2.203125 
z
M 25 0.390625 
Q 30.5625 0.390625 33.296875 6.09375 
Q 36.03125 11.8125 36.671875 18.75 
Q 37.3125 25.6875 37.3125 33.5 
Q 37.3125 41.015625 36.671875 47.359375 
Q 36.03125 53.71875 33.3125 58.859375 
Q 30.609375 64.015625 25 64.015625 
Q 19.34375 64.015625 16.609375 58.828125 
Q 13.875 53.65625 13.234375 47.328125 
Q 12.59375 41.015625 12.59375 33.5 
Q 12.59375 27.9375 12.859375 23 
Q 13.140625 18.0625 14.3125 12.8125 
Q 15.484375 7.5625 18.09375 3.96875 
Q 20.703125 0.390625 25 0.390625 
z
" id="Cmr10-48"/>
      <path d="M 7.8125 -114.015625 
Q 7.8125 -113.484375 8.015625 -113.28125 
L 33.109375 -56 
L 8.015625 1.3125 
Q 7.8125 1.515625 7.8125 2 
Q 7.8125 2.734375 8.390625 3.359375 
Q 8.984375 4 9.8125 4 
Q 10.984375 4 11.71875 2.78125 
L 37.203125 -55.328125 
Q 37.3125 -55.515625 37.3125 -56 
Q 37.3125 -56.5 37.203125 -56.78125 
L 11.71875 -114.796875 
Q 10.9375 -116.015625 9.8125 -116.015625 
Q 8.984375 -116.015625 8.390625 -115.375 
Q 7.8125 -114.75 7.8125 -114.015625 
z
" id="Cmex10-174"/>
     </defs>
     <use transform="translate(0 0.597135)" xlink:href="#Cmmi10-97"/>
     <use transform="translate(76.157476 38.861198)scale(0.7)" xlink:href="#Cmr10-91"/>
     <use transform="translate(95.537359 38.861198)scale(0.7)" xlink:href="#Cmr10-49"/>
     <use transform="translate(130.537359 38.861198)scale(0.7)" xlink:href="#Cmr10-93"/>
     <use transform="translate(149.917242 104.202344)scale(0.7)" xlink:href="#Cmex10-173"/>
     <use transform="translate(182.968999 38.861198)scale(0.7)" xlink:href="#Cmr10-48"/>
     <use transform="translate(217.968999 104.202344)scale(0.7)" xlink:href="#Cmex10-174"/>
    </g>
   </g>
   <g id="text_2">
    <g id="patch_3">
     <path d="M 109.585714 181.819286 
L 150.925714 181.819286 
L 150.925714 159.849286 
L 109.585714 159.849286 
z
" style="fill:#ffffff;stroke:#000000;stroke-linejoin:miter;"/>
    </g>
    <!-- $a^{\;[1]\langle 1 \rangle} $ -->
    <g transform="translate(113.485714 175.215692)scale(0.13 -0.13)">
     <use transform="translate(0 0.597135)" xlink:href="#Cmmi10-97"/>
     <use transform="translate(76.157476 38.861198)scale(0.7)" xlink:href="#Cmr10-91"/>
     <use transform="translate(95.537359 38.861198)scale(0.7)" xlink:href="#Cmr10-49"/>
     <use transform="translate(130.537359 38.861198)scale(0.7)" xlink:href="#Cmr10-93"/>
     <use transform="translate(149.917242 104.202344)scale(0.7)" xlink:href="#Cmex10-173"/>
     <use transform="translate(182.968999 38.861198)scale(0.7)" xlink:href="#Cmr10-49"/>
     <use transform="translate(217.968999 104.202344)scale(0.7)" xlink:href="#Cmex10-174"/>
    </g>
   </g>
   <g id="patch_4">
    <path d="M 106.465875 170.834286 
Q 77.112741 170.834286 46.641573 170.834286 
" style="fill:none;stroke:#000000;stroke-linecap:round;"/>
    <path d="M 101.265875 168.234286 
L 106.465875 170.834286 
L 101.265875 173.434286 
" style="fill:none;stroke:#000000;stroke-linecap:round;"/>
   </g>
   <g id="text_3">
    <g id="patch_5">
     <path d="M 115.240714 233.590714 
L 145.270714 233.590714 
L 145.270714 211.620714 
L 115.240714 211.620714 
z
" style="fill:#ffffff;"/>
    </g>
    <!-- $x^{\langle 1 \rangle} $ -->
    <g transform="translate(119.140714 226.987121)scale(0.13 -0.13)">
     <defs>
      <path d="M 7.8125 2.875 
Q 9.578125 1.515625 12.796875 1.515625 
Q 15.921875 1.515625 18.3125 4.515625 
Q 20.703125 7.515625 21.578125 11.078125 
L 26.125 28.8125 
Q 27.203125 33.640625 27.203125 35.40625 
Q 27.203125 37.890625 25.8125 39.75 
Q 24.421875 41.609375 21.921875 41.609375 
Q 18.75 41.609375 15.96875 39.625 
Q 13.1875 37.640625 11.28125 34.59375 
Q 9.375 31.546875 8.59375 28.421875 
Q 8.40625 27.78125 7.8125 27.78125 
L 6.59375 27.78125 
Q 5.8125 27.78125 5.8125 28.71875 
L 5.8125 29 
Q 6.78125 32.71875 9.125 36.25 
Q 11.46875 39.796875 14.859375 41.984375 
Q 18.265625 44.1875 22.125 44.1875 
Q 25.78125 44.1875 28.734375 42.234375 
Q 31.6875 40.28125 32.90625 36.921875 
Q 34.625 39.984375 37.28125 42.078125 
Q 39.9375 44.1875 43.109375 44.1875 
Q 45.265625 44.1875 47.5 43.421875 
Q 49.75 42.671875 51.171875 41.109375 
Q 52.59375 39.546875 52.59375 37.203125 
Q 52.59375 34.671875 50.953125 32.828125 
Q 49.3125 31 46.78125 31 
Q 45.171875 31 44.09375 32.03125 
Q 43.015625 33.0625 43.015625 34.625 
Q 43.015625 36.71875 44.453125 38.296875 
Q 45.90625 39.890625 47.90625 40.1875 
Q 46.09375 41.609375 42.921875 41.609375 
Q 39.703125 41.609375 37.328125 38.625 
Q 34.96875 35.640625 33.984375 31.984375 
L 29.59375 14.3125 
Q 28.515625 10.296875 28.515625 7.71875 
Q 28.515625 5.171875 29.953125 3.34375 
Q 31.390625 1.515625 33.796875 1.515625 
Q 38.484375 1.515625 42.15625 5.640625 
Q 45.84375 9.765625 47.015625 14.703125 
Q 47.21875 15.28125 47.796875 15.28125 
L 49.03125 15.28125 
Q 49.421875 15.28125 49.65625 15.015625 
Q 49.90625 14.75 49.90625 14.40625 
Q 49.90625 14.3125 49.8125 14.109375 
Q 48.390625 8.15625 43.84375 3.515625 
Q 39.3125 -1.125 33.59375 -1.125 
Q 29.9375 -1.125 26.984375 0.84375 
Q 24.03125 2.828125 22.796875 6.203125 
Q 21.234375 3.265625 18.46875 1.0625 
Q 15.71875 -1.125 12.59375 -1.125 
Q 10.453125 -1.125 8.171875 -0.359375 
Q 5.90625 0.390625 4.484375 1.953125 
Q 3.078125 3.515625 3.078125 5.90625 
Q 3.078125 8.25 4.703125 10.171875 
Q 6.34375 12.109375 8.796875 12.109375 
Q 10.453125 12.109375 11.578125 11.109375 
Q 12.703125 10.109375 12.703125 8.5 
Q 12.703125 6.390625 11.296875 4.828125 
Q 9.90625 3.265625 7.8125 2.875 
z
" id="Cmmi10-120"/>
     </defs>
     <use transform="translate(0 0.597135)" xlink:href="#Cmmi10-120"/>
     <use transform="translate(63.383359 104.202344)scale(0.7)" xlink:href="#Cmex10-173"/>
     <use transform="translate(96.435117 38.861198)scale(0.7)" xlink:href="#Cmr10-49"/>
     <use transform="translate(131.435117 104.202344)scale(0.7)" xlink:href="#Cmex10-174"/>
    </g>
   </g>
   <g id="patch_6">
    <path d="M 130.255714 209.623524 
Q 130.255714 196.720959 130.255714 184.936428 
" style="fill:none;stroke:#000000;stroke-linecap:round;"/>
    <path d="M 127.655714 190.136428 
L 130.255714 184.936428 
L 132.855714 190.136428 
" style="fill:none;stroke:#000000;stroke-linecap:round;"/>
   </g>
   <g id="text_4">
    <g id="patch_7">
     <path d="M 215.871429 181.819286 
L 257.211429 181.819286 
L 257.211429 159.849286 
L 215.871429 159.849286 
z
" style="fill:#ffffff;stroke:#000000;stroke-linejoin:miter;"/>
    </g>
    <!-- $a^{\;[1]\langle 2 \rangle} $ -->
    <g transform="translate(219.771429 175.215692)scale(0.13 -0.13)">
     <defs>
      <path d="M 4.984375 0 
L 4.984375 2.6875 
Q 4.984375 2.9375 5.171875 3.21875 
L 20.703125 20.40625 
Q 24.21875 24.21875 26.40625 26.796875 
Q 28.609375 29.390625 30.75 32.765625 
Q 32.90625 36.140625 34.15625 39.625 
Q 35.40625 43.109375 35.40625 47.015625 
Q 35.40625 51.125 33.890625 54.859375 
Q 32.375 58.59375 29.375 60.84375 
Q 26.375 63.09375 22.125 63.09375 
Q 17.78125 63.09375 14.3125 60.46875 
Q 10.84375 57.859375 9.421875 53.71875 
Q 9.8125 53.8125 10.5 53.8125 
Q 12.75 53.8125 14.328125 52.296875 
Q 15.921875 50.78125 15.921875 48.390625 
Q 15.921875 46.09375 14.328125 44.5 
Q 12.75 42.921875 10.5 42.921875 
Q 8.15625 42.921875 6.5625 44.546875 
Q 4.984375 46.1875 4.984375 48.390625 
Q 4.984375 52.15625 6.390625 55.4375 
Q 7.8125 58.734375 10.46875 61.296875 
Q 13.140625 63.875 16.484375 65.234375 
Q 19.828125 66.609375 23.578125 66.609375 
Q 29.296875 66.609375 34.21875 64.1875 
Q 39.15625 61.765625 42.03125 57.34375 
Q 44.921875 52.9375 44.921875 47.015625 
Q 44.921875 42.671875 43.015625 38.765625 
Q 41.109375 34.859375 38.125 31.65625 
Q 35.15625 28.46875 30.515625 24.40625 
Q 25.875 20.359375 24.421875 19 
L 13.09375 8.109375 
L 22.703125 8.109375 
Q 29.78125 8.109375 34.546875 8.21875 
Q 39.3125 8.34375 39.59375 8.59375 
Q 40.765625 9.859375 42 17.828125 
L 44.921875 17.828125 
L 42.09375 0 
z
" id="Cmr10-50"/>
     </defs>
     <use transform="translate(0 0.597135)" xlink:href="#Cmmi10-97"/>
     <use transform="translate(76.157476 38.861198)scale(0.7)" xlink:href="#Cmr10-91"/>
     <use transform="translate(95.537359 38.861198)scale(0.7)" xlink:href="#Cmr10-49"/>
     <use transform="translate(130.537359 38.861198)scale(0.7)" xlink:href="#Cmr10-93"/>
     <use transform="translate(149.917242 104.202344)scale(0.7)" xlink:href="#Cmex10-173"/>
     <use transform="translate(182.968999 38.861198)scale(0.7)" xlink:href="#Cmr10-50"/>
     <use transform="translate(217.968999 104.202344)scale(0.7)" xlink:href="#Cmex10-174"/>
    </g>
   </g>
   <g id="patch_8">
    <path d="M 212.751589 170.834286 
Q 183.398455 170.834286 152.927288 170.834286 
" style="fill:none;stroke:#000000;stroke-linecap:round;"/>
    <path d="M 207.551589 168.234286 
L 212.751589 170.834286 
L 207.551589 173.434286 
" style="fill:none;stroke:#000000;stroke-linecap:round;"/>
   </g>
   <g id="text_5">
    <g id="patch_9">
     <path d="M 221.526429 233.590714 
L 251.556429 233.590714 
L 251.556429 211.620714 
L 221.526429 211.620714 
z
" style="fill:#ffffff;"/>
    </g>
    <!-- $x^{\langle 2 \rangle} $ -->
    <g transform="translate(225.426429 226.987121)scale(0.13 -0.13)">
     <use transform="translate(0 0.597135)" xlink:href="#Cmmi10-120"/>
     <use transform="translate(63.383359 104.202344)scale(0.7)" xlink:href="#Cmex10-173"/>
     <use transform="translate(96.435117 38.861198)scale(0.7)" xlink:href="#Cmr10-50"/>
     <use transform="translate(131.435117 104.202344)scale(0.7)" xlink:href="#Cmex10-174"/>
    </g>
   </g>
   <g id="patch_10">
    <path d="M 236.541429 209.623524 
Q 236.541429 196.720959 236.541429 184.936428 
" style="fill:none;stroke:#000000;stroke-linecap:round;"/>
    <path d="M 233.941429 190.136428 
L 236.541429 184.936428 
L 239.141429 190.136428 
" style="fill:none;stroke:#000000;stroke-linecap:round;"/>
   </g>
   <g id="text_6">
    <g id="patch_11">
     <path d="M 322.157143 181.819286 
L 363.497143 181.819286 
L 363.497143 159.849286 
L 322.157143 159.849286 
z
" style="fill:#ffffff;stroke:#000000;stroke-linejoin:miter;"/>
    </g>
    <!-- $a^{\;[1]\langle 3 \rangle} $ -->
    <g transform="translate(326.057143 175.215692)scale(0.13 -0.13)">
     <defs>
      <path d="M 9.515625 7.71875 
Q 11.859375 4.296875 15.8125 2.640625 
Q 19.78125 0.984375 24.3125 0.984375 
Q 30.125 0.984375 32.5625 5.9375 
Q 35.015625 10.890625 35.015625 17.1875 
Q 35.015625 20.015625 34.5 22.84375 
Q 33.984375 25.6875 32.765625 28.125 
Q 31.546875 30.5625 29.421875 32.03125 
Q 27.296875 33.5 24.21875 33.5 
L 17.578125 33.5 
Q 16.703125 33.5 16.703125 34.421875 
L 16.703125 35.296875 
Q 16.703125 36.078125 17.578125 36.078125 
L 23.09375 36.53125 
Q 26.609375 36.53125 28.921875 39.15625 
Q 31.25 41.796875 32.328125 45.578125 
Q 33.40625 49.359375 33.40625 52.78125 
Q 33.40625 57.5625 31.15625 60.640625 
Q 28.90625 63.71875 24.3125 63.71875 
Q 20.515625 63.71875 17.046875 62.28125 
Q 13.578125 60.84375 11.53125 57.90625 
Q 11.71875 57.953125 11.859375 57.984375 
Q 12.015625 58.015625 12.203125 58.015625 
Q 14.453125 58.015625 15.96875 56.453125 
Q 17.484375 54.890625 17.484375 52.6875 
Q 17.484375 50.53125 15.96875 48.96875 
Q 14.453125 47.40625 12.203125 47.40625 
Q 10.015625 47.40625 8.453125 48.96875 
Q 6.890625 50.53125 6.890625 52.6875 
Q 6.890625 56.984375 9.46875 60.15625 
Q 12.0625 63.328125 16.140625 64.96875 
Q 20.21875 66.609375 24.3125 66.609375 
Q 27.34375 66.609375 30.703125 65.703125 
Q 34.078125 64.796875 36.8125 63.109375 
Q 39.546875 61.421875 41.28125 58.78125 
Q 43.015625 56.15625 43.015625 52.78125 
Q 43.015625 48.578125 41.140625 45.015625 
Q 39.265625 41.453125 35.984375 38.859375 
Q 32.71875 36.28125 28.8125 35.015625 
Q 33.15625 34.1875 37.0625 31.734375 
Q 40.96875 29.296875 43.328125 25.484375 
Q 45.703125 21.6875 45.703125 17.28125 
Q 45.703125 11.765625 42.671875 7.296875 
Q 39.65625 2.828125 34.71875 0.3125 
Q 29.78125 -2.203125 24.3125 -2.203125 
Q 19.625 -2.203125 14.90625 -0.40625 
Q 10.203125 1.375 7.203125 4.9375 
Q 4.203125 8.5 4.203125 13.484375 
Q 4.203125 15.96875 5.859375 17.625 
Q 7.515625 19.28125 10.015625 19.28125 
Q 11.625 19.28125 12.96875 18.53125 
Q 14.3125 17.78125 15.0625 16.40625 
Q 15.828125 15.046875 15.828125 13.484375 
Q 15.828125 11.03125 14.109375 9.375 
Q 12.40625 7.71875 10.015625 7.71875 
z
" id="Cmr10-51"/>
     </defs>
     <use transform="translate(0 0.597135)" xlink:href="#Cmmi10-97"/>
     <use transform="translate(76.157476 38.861198)scale(0.7)" xlink:href="#Cmr10-91"/>
     <use transform="translate(95.537359 38.861198)scale(0.7)" xlink:href="#Cmr10-49"/>
     <use transform="translate(130.537359 38.861198)scale(0.7)" xlink:href="#Cmr10-93"/>
     <use transform="translate(149.917242 104.202344)scale(0.7)" xlink:href="#Cmex10-173"/>
     <use transform="translate(182.968999 38.861198)scale(0.7)" xlink:href="#Cmr10-51"/>
     <use transform="translate(217.968999 104.202344)scale(0.7)" xlink:href="#Cmex10-174"/>
    </g>
   </g>
   <g id="patch_12">
    <path d="M 319.037303 170.834286 
Q 289.684169 170.834286 259.213002 170.834286 
" style="fill:none;stroke:#000000;stroke-linecap:round;"/>
    <path d="M 313.837303 168.234286 
L 319.037303 170.834286 
L 313.837303 173.434286 
" style="fill:none;stroke:#000000;stroke-linecap:round;"/>
   </g>
   <g id="text_7">
    <g id="patch_13">
     <path d="M 327.812143 233.590714 
L 357.842143 233.590714 
L 357.842143 211.620714 
L 327.812143 211.620714 
z
" style="fill:#ffffff;"/>
    </g>
    <!-- $x^{\langle 3 \rangle} $ -->
    <g transform="translate(331.712143 226.987121)scale(0.13 -0.13)">
     <use transform="translate(0 0.597135)" xlink:href="#Cmmi10-120"/>
     <use transform="translate(63.383359 104.202344)scale(0.7)" xlink:href="#Cmex10-173"/>
     <use transform="translate(96.435117 38.861198)scale(0.7)" xlink:href="#Cmr10-51"/>
     <use transform="translate(131.435117 104.202344)scale(0.7)" xlink:href="#Cmex10-174"/>
    </g>
   </g>
   <g id="patch_14">
    <path d="M 342.827143 209.623524 
Q 342.827143 196.720959 342.827143 184.936428 
" style="fill:none;stroke:#000000;stroke-linecap:round;"/>
    <path d="M 340.227143 190.136428 
L 342.827143 184.936428 
L 345.427143 190.136428 
" style="fill:none;stroke:#000000;stroke-linecap:round;"/>
   </g>
   <g id="text_8">
    <g id="patch_15">
     <path d="M 428.442857 181.819286 
L 469.782857 181.819286 
L 469.782857 159.849286 
L 428.442857 159.849286 
z
" style="fill:#ffffff;stroke:#000000;stroke-linejoin:miter;"/>
    </g>
    <!-- $a^{\;[1]\langle 4 \rangle} $ -->
    <g transform="translate(432.342857 175.215692)scale(0.13 -0.13)">
     <defs>
      <path d="M 2.78125 16.5 
L 2.78125 20.015625 
L 33.6875 66.109375 
Q 34.03125 66.609375 34.71875 66.609375 
L 36.1875 66.609375 
Q 37.3125 66.609375 37.3125 65.484375 
L 37.3125 20.015625 
L 47.125 20.015625 
L 47.125 16.5 
L 37.3125 16.5 
L 37.3125 6.6875 
Q 37.3125 4.640625 40.234375 4.078125 
Q 43.171875 3.515625 47.015625 3.515625 
L 47.015625 0 
L 19.484375 0 
L 19.484375 3.515625 
Q 23.34375 3.515625 26.265625 4.078125 
Q 29.203125 4.640625 29.203125 6.6875 
L 29.203125 16.5 
z
M 6.109375 20.015625 
L 29.78125 20.015625 
L 29.78125 55.421875 
z
" id="Cmr10-52"/>
     </defs>
     <use transform="translate(0 0.597135)" xlink:href="#Cmmi10-97"/>
     <use transform="translate(76.157476 38.861198)scale(0.7)" xlink:href="#Cmr10-91"/>
     <use transform="translate(95.537359 38.861198)scale(0.7)" xlink:href="#Cmr10-49"/>
     <use transform="translate(130.537359 38.861198)scale(0.7)" xlink:href="#Cmr10-93"/>
     <use transform="translate(149.917242 104.202344)scale(0.7)" xlink:href="#Cmex10-173"/>
     <use transform="translate(182.968999 38.861198)scale(0.7)" xlink:href="#Cmr10-52"/>
     <use transform="translate(217.968999 104.202344)scale(0.7)" xlink:href="#Cmex10-174"/>
    </g>
   </g>
   <g id="patch_16">
    <path d="M 425.323017 170.834286 
Q 395.969884 170.834286 365.498716 170.834286 
" style="fill:none;stroke:#000000;stroke-linecap:round;"/>
    <path d="M 420.123017 168.234286 
L 425.323017 170.834286 
L 420.123017 173.434286 
" style="fill:none;stroke:#000000;stroke-linecap:round;"/>
   </g>
   <g id="text_9">
    <g id="patch_17">
     <path d="M 434.097857 233.590714 
L 464.127857 233.590714 
L 464.127857 211.620714 
L 434.097857 211.620714 
z
" style="fill:#ffffff;"/>
    </g>
    <!-- $x^{\langle 4 \rangle} $ -->
    <g transform="translate(437.997857 226.987121)scale(0.13 -0.13)">
     <use transform="translate(0 0.597135)" xlink:href="#Cmmi10-120"/>
     <use transform="translate(63.383359 104.202344)scale(0.7)" xlink:href="#Cmex10-173"/>
     <use transform="translate(96.435117 38.861198)scale(0.7)" xlink:href="#Cmr10-52"/>
     <use transform="translate(131.435117 104.202344)scale(0.7)" xlink:href="#Cmex10-174"/>
    </g>
   </g>
   <g id="patch_18">
    <path d="M 449.112857 209.623524 
Q 449.112857 196.720959 449.112857 184.936428 
" style="fill:none;stroke:#000000;stroke-linecap:round;"/>
    <path d="M 446.512857 190.136428 
L 449.112857 184.936428 
L 451.712857 190.136428 
" style="fill:none;stroke:#000000;stroke-linecap:round;"/>
   </g>
   <g id="text_10">
    <g id="patch_19">
     <path d="M 3.3 130.047857 
L 44.64 130.047857 
L 44.64 108.077857 
L 3.3 108.077857 
z
" style="fill:#ffffff;"/>
    </g>
    <!-- $a^{\;[2]\langle 0 \rangle} $ -->
    <g transform="translate(7.2 123.444263)scale(0.13 -0.13)">
     <use transform="translate(0 0.597135)" xlink:href="#Cmmi10-97"/>
     <use transform="translate(76.157476 38.861198)scale(0.7)" xlink:href="#Cmr10-91"/>
     <use transform="translate(95.537359 38.861198)scale(0.7)" xlink:href="#Cmr10-50"/>
     <use transform="translate(130.537359 38.861198)scale(0.7)" xlink:href="#Cmr10-93"/>
     <use transform="translate(149.917242 104.202344)scale(0.7)" xlink:href="#Cmex10-173"/>
     <use transform="translate(182.968999 38.861198)scale(0.7)" xlink:href="#Cmr10-48"/>
     <use transform="translate(217.968999 104.202344)scale(0.7)" xlink:href="#Cmex10-174"/>
    </g>
   </g>
   <g id="text_11">
    <g id="patch_20">
     <path d="M 109.585714 130.047857 
L 150.925714 130.047857 
L 150.925714 108.077857 
L 109.585714 108.077857 
z
" style="fill:#ffffff;stroke:#000000;stroke-linejoin:miter;"/>
    </g>
    <!-- $a^{\;[2]\langle 1 \rangle} $ -->
    <g transform="translate(113.485714 123.444263)scale(0.13 -0.13)">
     <use transform="translate(0 0.597135)" xlink:href="#Cmmi10-97"/>
     <use transform="translate(76.157476 38.861198)scale(0.7)" xlink:href="#Cmr10-91"/>
     <use transform="translate(95.537359 38.861198)scale(0.7)" xlink:href="#Cmr10-50"/>
     <use transform="translate(130.537359 38.861198)scale(0.7)" xlink:href="#Cmr10-93"/>
     <use transform="translate(149.917242 104.202344)scale(0.7)" xlink:href="#Cmex10-173"/>
     <use transform="translate(182.968999 38.861198)scale(0.7)" xlink:href="#Cmr10-49"/>
     <use transform="translate(217.968999 104.202344)scale(0.7)" xlink:href="#Cmex10-174"/>
    </g>
   </g>
   <g id="patch_21">
    <path d="M 106.465875 119.062857 
Q 77.112741 119.062857 46.641573 119.062857 
" style="fill:none;stroke:#000000;stroke-linecap:round;"/>
    <path d="M 101.265875 116.462857 
L 106.465875 119.062857 
L 101.265875 121.662857 
" style="fill:none;stroke:#000000;stroke-linecap:round;"/>
   </g>
   <g id="patch_22">
    <path d="M 130.255714 133.163082 
Q 130.255714 144.947612 130.255714 157.850177 
" style="fill:none;stroke:#000000;stroke-linecap:round;"/>
    <path d="M 127.655714 138.363082 
L 130.255714 133.163082 
L 132.855714 138.363082 
" style="fill:none;stroke:#000000;stroke-linecap:round;"/>
   </g>
   <g id="text_12">
    <g id="patch_23">
     <path d="M 215.871429 130.047857 
L 257.211429 130.047857 
L 257.211429 108.077857 
L 215.871429 108.077857 
z
" style="fill:#ffffff;stroke:#000000;stroke-linejoin:miter;"/>
    </g>
    <!-- $a^{\;[2]\langle 2 \rangle} $ -->
    <g transform="translate(219.771429 123.444263)scale(0.13 -0.13)">
     <use transform="translate(0 0.597135)" xlink:href="#Cmmi10-97"/>
     <use transform="translate(76.157476 38.861198)scale(0.7)" xlink:href="#Cmr10-91"/>
     <use transform="translate(95.537359 38.861198)scale(0.7)" xlink:href="#Cmr10-50"/>
     <use transform="translate(130.537359 38.861198)scale(0.7)" xlink:href="#Cmr10-93"/>
     <use transform="translate(149.917242 104.202344)scale(0.7)" xlink:href="#Cmex10-173"/>
     <use transform="translate(182.968999 38.861198)scale(0.7)" xlink:href="#Cmr10-50"/>
     <use transform="translate(217.968999 104.202344)scale(0.7)" xlink:href="#Cmex10-174"/>
    </g>
   </g>
   <g id="patch_24">
    <path d="M 212.751589 119.062857 
Q 183.398455 119.062857 152.927288 119.062857 
" style="fill:none;stroke:#000000;stroke-linecap:round;"/>
    <path d="M 207.551589 116.462857 
L 212.751589 119.062857 
L 207.551589 121.662857 
" style="fill:none;stroke:#000000;stroke-linecap:round;"/>
   </g>
   <g id="patch_25">
    <path d="M 236.541429 133.163082 
Q 236.541429 144.947612 236.541429 157.850177 
" style="fill:none;stroke:#000000;stroke-linecap:round;"/>
    <path d="M 233.941429 138.363082 
L 236.541429 133.163082 
L 239.141429 138.363082 
" style="fill:none;stroke:#000000;stroke-linecap:round;"/>
   </g>
   <g id="text_13">
    <g id="patch_26">
     <path d="M 322.157143 130.047857 
L 363.497143 130.047857 
L 363.497143 108.077857 
L 322.157143 108.077857 
z
" style="fill:#ffffff;stroke:#000000;stroke-linejoin:miter;"/>
    </g>
    <!-- $a^{\;[2]\langle 3 \rangle} $ -->
    <g transform="translate(326.057143 123.444263)scale(0.13 -0.13)">
     <use transform="translate(0 0.597135)" xlink:href="#Cmmi10-97"/>
     <use transform="translate(76.157476 38.861198)scale(0.7)" xlink:href="#Cmr10-91"/>
     <use transform="translate(95.537359 38.861198)scale(0.7)" xlink:href="#Cmr10-50"/>
     <use transform="translate(130.537359 38.861198)scale(0.7)" xlink:href="#Cmr10-93"/>
     <use transform="translate(149.917242 104.202344)scale(0.7)" xlink:href="#Cmex10-173"/>
     <use transform="translate(182.968999 38.861198)scale(0.7)" xlink:href="#Cmr10-51"/>
     <use transform="translate(217.968999 104.202344)scale(0.7)" xlink:href="#Cmex10-174"/>
    </g>
   </g>
   <g id="patch_27">
    <path d="M 319.037303 119.062857 
Q 289.684169 119.062857 259.213002 119.062857 
" style="fill:none;stroke:#000000;stroke-linecap:round;"/>
    <path d="M 313.837303 116.462857 
L 319.037303 119.062857 
L 313.837303 121.662857 
" style="fill:none;stroke:#000000;stroke-linecap:round;"/>
   </g>
   <g id="patch_28">
    <path d="M 342.827143 133.163082 
Q 342.827143 144.947612 342.827143 157.850177 
" style="fill:none;stroke:#000000;stroke-linecap:round;"/>
    <path d="M 340.227143 138.363082 
L 342.827143 133.163082 
L 345.427143 138.363082 
" style="fill:none;stroke:#000000;stroke-linecap:round;"/>
   </g>
   <g id="text_14">
    <g id="patch_29">
     <path d="M 428.442857 130.047857 
L 469.782857 130.047857 
L 469.782857 108.077857 
L 428.442857 108.077857 
z
" style="fill:#ffffff;stroke:#000000;stroke-linejoin:miter;"/>
    </g>
    <!-- $a^{\;[2]\langle 4 \rangle} $ -->
    <g transform="translate(432.342857 123.444263)scale(0.13 -0.13)">
     <use transform="translate(0 0.597135)" xlink:href="#Cmmi10-97"/>
     <use transform="translate(76.157476 38.861198)scale(0.7)" xlink:href="#Cmr10-91"/>
     <use transform="translate(95.537359 38.861198)scale(0.7)" xlink:href="#Cmr10-50"/>
     <use transform="translate(130.537359 38.861198)scale(0.7)" xlink:href="#Cmr10-93"/>
     <use transform="translate(149.917242 104.202344)scale(0.7)" xlink:href="#Cmex10-173"/>
     <use transform="translate(182.968999 38.861198)scale(0.7)" xlink:href="#Cmr10-52"/>
     <use transform="translate(217.968999 104.202344)scale(0.7)" xlink:href="#Cmex10-174"/>
    </g>
   </g>
   <g id="patch_30">
    <path d="M 425.323017 119.062857 
Q 395.969884 119.062857 365.498716 119.062857 
" style="fill:none;stroke:#000000;stroke-linecap:round;"/>
    <path d="M 420.123017 116.462857 
L 425.323017 119.062857 
L 420.123017 121.662857 
" style="fill:none;stroke:#000000;stroke-linecap:round;"/>
   </g>
   <g id="patch_31">
    <path d="M 449.112857 133.163082 
Q 449.112857 144.947612 449.112857 157.850177 
" style="fill:none;stroke:#000000;stroke-linecap:round;"/>
    <path d="M 446.512857 138.363082 
L 449.112857 133.163082 
L 451.712857 138.363082 
" style="fill:none;stroke:#000000;stroke-linecap:round;"/>
   </g>
   <g id="text_15">
    <g id="patch_32">
     <path d="M 3.3 78.276429 
L 44.64 78.276429 
L 44.64 56.306429 
L 3.3 56.306429 
z
" style="fill:#ffffff;"/>
    </g>
    <!-- $a^{\;[3]\langle 0 \rangle} $ -->
    <g transform="translate(7.2 71.672835)scale(0.13 -0.13)">
     <use transform="translate(0 0.597135)" xlink:href="#Cmmi10-97"/>
     <use transform="translate(76.157476 38.861198)scale(0.7)" xlink:href="#Cmr10-91"/>
     <use transform="translate(95.537359 38.861198)scale(0.7)" xlink:href="#Cmr10-51"/>
     <use transform="translate(130.537359 38.861198)scale(0.7)" xlink:href="#Cmr10-93"/>
     <use transform="translate(149.917242 104.202344)scale(0.7)" xlink:href="#Cmex10-173"/>
     <use transform="translate(182.968999 38.861198)scale(0.7)" xlink:href="#Cmr10-48"/>
     <use transform="translate(217.968999 104.202344)scale(0.7)" xlink:href="#Cmex10-174"/>
    </g>
   </g>
   <g id="text_16">
    <g id="patch_33">
     <path d="M 109.585714 78.276429 
L 150.925714 78.276429 
L 150.925714 56.306429 
L 109.585714 56.306429 
z
" style="fill:#ffffff;stroke:#000000;stroke-linejoin:miter;"/>
    </g>
    <!-- $a^{\;[3]\langle 1 \rangle} $ -->
    <g transform="translate(113.485714 71.672835)scale(0.13 -0.13)">
     <use transform="translate(0 0.597135)" xlink:href="#Cmmi10-97"/>
     <use transform="translate(76.157476 38.861198)scale(0.7)" xlink:href="#Cmr10-91"/>
     <use transform="translate(95.537359 38.861198)scale(0.7)" xlink:href="#Cmr10-51"/>
     <use transform="translate(130.537359 38.861198)scale(0.7)" xlink:href="#Cmr10-93"/>
     <use transform="translate(149.917242 104.202344)scale(0.7)" xlink:href="#Cmex10-173"/>
     <use transform="translate(182.968999 38.861198)scale(0.7)" xlink:href="#Cmr10-49"/>
     <use transform="translate(217.968999 104.202344)scale(0.7)" xlink:href="#Cmex10-174"/>
    </g>
   </g>
   <g id="patch_34">
    <path d="M 106.465875 67.291429 
Q 77.112741 67.291429 46.641573 67.291429 
" style="fill:none;stroke:#000000;stroke-linecap:round;"/>
    <path d="M 101.265875 64.691429 
L 106.465875 67.291429 
L 101.265875 69.891429 
" style="fill:none;stroke:#000000;stroke-linecap:round;"/>
   </g>
   <g id="text_17">
    <g id="patch_35">
     <path d="M 115.890714 27.74 
L 144.620714 27.74 
L 144.620714 3.3 
L 115.890714 3.3 
z
" style="fill:#ffffff;"/>
    </g>
    <!-- $\hat{y}^{\langle 1 \rangle} $ -->
    <g transform="translate(119.790714 21.11)scale(0.13 -0.13)">
     <defs>
      <path d="M 13.484375 53.8125 
L 11.53125 55.90625 
L 25 69.390625 
L 38.375 55.90625 
L 36.375 53.8125 
L 25 63.8125 
z
" id="Cmr10-94"/>
      <path d="M 8.40625 -14.3125 
Q 10.5 -17.921875 15.71875 -17.921875 
Q 20.453125 -17.921875 23.921875 -14.59375 
Q 27.390625 -11.28125 29.515625 -6.5625 
Q 31.640625 -1.859375 32.8125 3.078125 
Q 28.375 -1.125 23.1875 -1.125 
Q 19.234375 -1.125 16.453125 0.234375 
Q 13.671875 1.609375 12.125 4.3125 
Q 10.59375 7.03125 10.59375 10.890625 
Q 10.59375 14.15625 11.46875 17.59375 
Q 12.359375 21.046875 13.9375 25.265625 
Q 15.53125 29.5 16.703125 32.625 
Q 18.015625 36.28125 18.015625 38.625 
Q 18.015625 41.609375 15.828125 41.609375 
Q 11.859375 41.609375 9.296875 37.53125 
Q 6.734375 33.453125 5.515625 28.421875 
Q 5.328125 27.78125 4.6875 27.78125 
L 3.515625 27.78125 
Q 2.6875 27.78125 2.6875 28.71875 
L 2.6875 29 
Q 4.296875 34.96875 7.609375 39.578125 
Q 10.9375 44.1875 16.015625 44.1875 
Q 19.578125 44.1875 22.046875 41.84375 
Q 24.515625 39.5 24.515625 35.890625 
Q 24.515625 34.03125 23.6875 31.984375 
Q 23.25 30.765625 21.6875 26.65625 
Q 20.125 22.5625 19.28125 19.875 
Q 18.453125 17.1875 17.921875 14.59375 
Q 17.390625 12.015625 17.390625 9.421875 
Q 17.390625 6.109375 18.796875 3.8125 
Q 20.21875 1.515625 23.296875 1.515625 
Q 29.5 1.515625 34.421875 9.078125 
L 42 39.890625 
Q 42.328125 41.21875 43.546875 42.15625 
Q 44.78125 43.109375 46.1875 43.109375 
Q 47.40625 43.109375 48.3125 42.328125 
Q 49.21875 41.546875 49.21875 40.28125 
Q 49.21875 39.703125 49.125 39.5 
L 39.203125 -0.296875 
Q 37.890625 -5.421875 34.375 -10.109375 
Q 30.859375 -14.796875 25.90625 -17.65625 
Q 20.953125 -20.515625 15.578125 -20.515625 
Q 12.984375 -20.515625 10.4375 -19.5 
Q 7.90625 -18.5 6.34375 -16.5 
Q 4.78125 -14.5 4.78125 -11.8125 
Q 4.78125 -9.078125 6.390625 -7.078125 
Q 8.015625 -5.078125 10.6875 -5.078125 
Q 12.3125 -5.078125 13.40625 -6.078125 
Q 14.5 -7.078125 14.5 -8.6875 
Q 14.5 -10.984375 12.78125 -12.6875 
Q 11.078125 -14.40625 8.796875 -14.40625 
Q 8.6875 -14.359375 8.59375 -14.328125 
Q 8.5 -14.3125 8.40625 -14.3125 
z
" id="Cmmi10-121"/>
     </defs>
     <use transform="translate(5.724609 3.472135)" xlink:href="#Cmr10-94"/>
     <use transform="translate(0 0.597135)" xlink:href="#Cmmi10-121"/>
     <use transform="translate(53.487578 104.202344)scale(0.7)" xlink:href="#Cmex10-173"/>
     <use transform="translate(86.539336 38.861198)scale(0.7)" xlink:href="#Cmr10-49"/>
     <use transform="translate(121.539336 104.202344)scale(0.7)" xlink:href="#Cmex10-174"/>
    </g>
   </g>
   <g id="patch_36">
    <path d="M 130.255714 30.85615 
Q 130.255714 42.021744 130.255714 54.305373 
" style="fill:none;stroke:#000000;stroke-linecap:round;"/>
    <path d="M 127.655714 36.05615 
L 130.255714 30.85615 
L 132.855714 36.05615 
" style="fill:none;stroke:#000000;stroke-linecap:round;"/>
   </g>
   <g id="patch_37">
    <path d="M 130.255714 81.391653 
Q 130.255714 93.176184 130.255714 106.078749 
" style="fill:none;stroke:#000000;stroke-linecap:round;"/>
    <path d="M 127.655714 86.591653 
L 130.255714 81.391653 
L 132.855714 86.591653 
" style="fill:none;stroke:#000000;stroke-linecap:round;"/>
   </g>
   <g id="text_18">
    <g id="patch_38">
     <path d="M 215.871429 78.276429 
L 257.211429 78.276429 
L 257.211429 56.306429 
L 215.871429 56.306429 
z
" style="fill:#ffffff;stroke:#000000;stroke-linejoin:miter;"/>
    </g>
    <!-- $a^{\;[3]\langle 2 \rangle} $ -->
    <g transform="translate(219.771429 71.672835)scale(0.13 -0.13)">
     <use transform="translate(0 0.597135)" xlink:href="#Cmmi10-97"/>
     <use transform="translate(76.157476 38.861198)scale(0.7)" xlink:href="#Cmr10-91"/>
     <use transform="translate(95.537359 38.861198)scale(0.7)" xlink:href="#Cmr10-51"/>
     <use transform="translate(130.537359 38.861198)scale(0.7)" xlink:href="#Cmr10-93"/>
     <use transform="translate(149.917242 104.202344)scale(0.7)" xlink:href="#Cmex10-173"/>
     <use transform="translate(182.968999 38.861198)scale(0.7)" xlink:href="#Cmr10-50"/>
     <use transform="translate(217.968999 104.202344)scale(0.7)" xlink:href="#Cmex10-174"/>
    </g>
   </g>
   <g id="patch_39">
    <path d="M 212.751589 67.291429 
Q 183.398455 67.291429 152.927288 67.291429 
" style="fill:none;stroke:#000000;stroke-linecap:round;"/>
    <path d="M 207.551589 64.691429 
L 212.751589 67.291429 
L 207.551589 69.891429 
" style="fill:none;stroke:#000000;stroke-linecap:round;"/>
   </g>
   <g id="text_19">
    <g id="patch_40">
     <path d="M 222.176429 27.74 
L 250.906429 27.74 
L 250.906429 3.3 
L 222.176429 3.3 
z
" style="fill:#ffffff;"/>
    </g>
    <!-- $\hat{y}^{\langle 2 \rangle} $ -->
    <g transform="translate(226.076429 21.11)scale(0.13 -0.13)">
     <use transform="translate(5.724609 3.472135)" xlink:href="#Cmr10-94"/>
     <use transform="translate(0 0.597135)" xlink:href="#Cmmi10-121"/>
     <use transform="translate(53.487578 104.202344)scale(0.7)" xlink:href="#Cmex10-173"/>
     <use transform="translate(86.539336 38.861198)scale(0.7)" xlink:href="#Cmr10-50"/>
     <use transform="translate(121.539336 104.202344)scale(0.7)" xlink:href="#Cmex10-174"/>
    </g>
   </g>
   <g id="patch_41">
    <path d="M 236.541429 30.85615 
Q 236.541429 42.021744 236.541429 54.305373 
" style="fill:none;stroke:#000000;stroke-linecap:round;"/>
    <path d="M 233.941429 36.05615 
L 236.541429 30.85615 
L 239.141429 36.05615 
" style="fill:none;stroke:#000000;stroke-linecap:round;"/>
   </g>
   <g id="patch_42">
    <path d="M 236.541429 81.391653 
Q 236.541429 93.176184 236.541429 106.078749 
" style="fill:none;stroke:#000000;stroke-linecap:round;"/>
    <path d="M 233.941429 86.591653 
L 236.541429 81.391653 
L 239.141429 86.591653 
" style="fill:none;stroke:#000000;stroke-linecap:round;"/>
   </g>
   <g id="text_20">
    <g id="patch_43">
     <path d="M 322.157143 78.276429 
L 363.497143 78.276429 
L 363.497143 56.306429 
L 322.157143 56.306429 
z
" style="fill:#ffffff;stroke:#000000;stroke-linejoin:miter;"/>
    </g>
    <!-- $a^{\;[3]\langle 3 \rangle} $ -->
    <g transform="translate(326.057143 71.672835)scale(0.13 -0.13)">
     <use transform="translate(0 0.597135)" xlink:href="#Cmmi10-97"/>
     <use transform="translate(76.157476 38.861198)scale(0.7)" xlink:href="#Cmr10-91"/>
     <use transform="translate(95.537359 38.861198)scale(0.7)" xlink:href="#Cmr10-51"/>
     <use transform="translate(130.537359 38.861198)scale(0.7)" xlink:href="#Cmr10-93"/>
     <use transform="translate(149.917242 104.202344)scale(0.7)" xlink:href="#Cmex10-173"/>
     <use transform="translate(182.968999 38.861198)scale(0.7)" xlink:href="#Cmr10-51"/>
     <use transform="translate(217.968999 104.202344)scale(0.7)" xlink:href="#Cmex10-174"/>
    </g>
   </g>
   <g id="patch_44">
    <path d="M 319.037303 67.291429 
Q 289.684169 67.291429 259.213002 67.291429 
" style="fill:none;stroke:#000000;stroke-linecap:round;"/>
    <path d="M 313.837303 64.691429 
L 319.037303 67.291429 
L 313.837303 69.891429 
" style="fill:none;stroke:#000000;stroke-linecap:round;"/>
   </g>
   <g id="text_21">
    <g id="patch_45">
     <path d="M 328.462143 27.74 
L 357.192143 27.74 
L 357.192143 3.3 
L 328.462143 3.3 
z
" style="fill:#ffffff;"/>
    </g>
    <!-- $\hat{y}^{\langle 3 \rangle} $ -->
    <g transform="translate(332.362143 21.11)scale(0.13 -0.13)">
     <use transform="translate(5.724609 3.472135)" xlink:href="#Cmr10-94"/>
     <use transform="translate(0 0.597135)" xlink:href="#Cmmi10-121"/>
     <use transform="translate(53.487578 104.202344)scale(0.7)" xlink:href="#Cmex10-173"/>
     <use transform="translate(86.539336 38.861198)scale(0.7)" xlink:href="#Cmr10-51"/>
     <use transform="translate(121.539336 104.202344)scale(0.7)" xlink:href="#Cmex10-174"/>
    </g>
   </g>
   <g id="patch_46">
    <path d="M 342.827143 30.85615 
Q 342.827143 42.021744 342.827143 54.305373 
" style="fill:none;stroke:#000000;stroke-linecap:round;"/>
    <path d="M 340.227143 36.05615 
L 342.827143 30.85615 
L 345.427143 36.05615 
" style="fill:none;stroke:#000000;stroke-linecap:round;"/>
   </g>
   <g id="patch_47">
    <path d="M 342.827143 81.391653 
Q 342.827143 93.176184 342.827143 106.078749 
" style="fill:none;stroke:#000000;stroke-linecap:round;"/>
    <path d="M 340.227143 86.591653 
L 342.827143 81.391653 
L 345.427143 86.591653 
" style="fill:none;stroke:#000000;stroke-linecap:round;"/>
   </g>
   <g id="text_22">
    <g id="patch_48">
     <path d="M 428.442857 78.276429 
L 469.782857 78.276429 
L 469.782857 56.306429 
L 428.442857 56.306429 
z
" style="fill:#ffffff;stroke:#000000;stroke-linejoin:miter;"/>
    </g>
    <!-- $a^{\;[3]\langle 4 \rangle} $ -->
    <g transform="translate(432.342857 71.672835)scale(0.13 -0.13)">
     <use transform="translate(0 0.597135)" xlink:href="#Cmmi10-97"/>
     <use transform="translate(76.157476 38.861198)scale(0.7)" xlink:href="#Cmr10-91"/>
     <use transform="translate(95.537359 38.861198)scale(0.7)" xlink:href="#Cmr10-51"/>
     <use transform="translate(130.537359 38.861198)scale(0.7)" xlink:href="#Cmr10-93"/>
     <use transform="translate(149.917242 104.202344)scale(0.7)" xlink:href="#Cmex10-173"/>
     <use transform="translate(182.968999 38.861198)scale(0.7)" xlink:href="#Cmr10-52"/>
     <use transform="translate(217.968999 104.202344)scale(0.7)" xlink:href="#Cmex10-174"/>
    </g>
   </g>
   <g id="patch_49">
    <path d="M 425.323017 67.291429 
Q 395.969884 67.291429 365.498716 67.291429 
" style="fill:none;stroke:#000000;stroke-linecap:round;"/>
    <path d="M 420.123017 64.691429 
L 425.323017 67.291429 
L 420.123017 69.891429 
" style="fill:none;stroke:#000000;stroke-linecap:round;"/>
   </g>
   <g id="text_23">
    <g id="patch_50">
     <path d="M 434.747857 27.74 
L 463.477857 27.74 
L 463.477857 3.3 
L 434.747857 3.3 
z
" style="fill:#ffffff;"/>
    </g>
    <!-- $\hat{y}^{\langle 4 \rangle} $ -->
    <g transform="translate(438.647857 21.11)scale(0.13 -0.13)">
     <use transform="translate(5.724609 3.472135)" xlink:href="#Cmr10-94"/>
     <use transform="translate(0 0.597135)" xlink:href="#Cmmi10-121"/>
     <use transform="translate(53.487578 104.202344)scale(0.7)" xlink:href="#Cmex10-173"/>
     <use transform="translate(86.539336 38.861198)scale(0.7)" xlink:href="#Cmr10-52"/>
     <use transform="translate(121.539336 104.202344)scale(0.7)" xlink:href="#Cmex10-174"/>
    </g>
   </g>
   <g id="patch_51">
    <path d="M 449.112857 30.85615 
Q 449.112857 42.021744 449.112857 54.305373 
" style="fill:none;stroke:#000000;stroke-linecap:round;"/>
    <path d="M 446.512857 36.05615 
L 449.112857 30.85615 
L 451.712857 36.05615 
" style="fill:none;stroke:#000000;stroke-linecap:round;"/>
   </g>
   <g id="patch_52">
    <path d="M 449.112857 81.391653 
Q 449.112857 93.176184 449.112857 106.078749 
" style="fill:none;stroke:#000000;stroke-linecap:round;"/>
    <path d="M 446.512857 86.591653 
L 449.112857 81.391653 
L 451.712857 86.591653 
" style="fill:none;stroke:#000000;stroke-linecap:round;"/>
   </g>
  </g>
 </g>
</svg>
