<?xml version="1.0" encoding="utf-8" standalone="no"?>
<!DOCTYPE svg PUBLIC "-//W3C//DTD SVG 1.1//EN"
  "http://www.w3.org/Graphics/SVG/1.1/DTD/svg11.dtd">
<!-- Created with matplotlib (https://matplotlib.org/) -->
<svg height="236.890714pt" version="1.1" viewBox="0 0 470.529856 236.890714" width="470.529856pt" xmlns="http://www.w3.org/2000/svg" xmlns:xlink="http://www.w3.org/1999/xlink">
 <metadata>
  <rdf:RDF xmlns:cc="http://creativecommons.org/ns#" xmlns:dc="http://purl.org/dc/elements/1.1/" xmlns:rdf="http://www.w3.org/1999/02/22-rdf-syntax-ns#">
   <cc:Work>
    <dc:type rdf:resource="http://purl.org/dc/dcmitype/StillImage"/>
    <dc:date>2021-05-19T23:38:18.624101</dc:date>
    <dc:format>image/svg+xml</dc:format>
    <dc:creator>
     <cc:Agent>
      <dc:title>Matplotlib v3.3.4, https://matplotlib.org/</dc:title>
     </cc:Agent>
    </dc:creator>
   </cc:Work>
  </rdf:RDF>
 </metadata>
 <defs>
  <style type="text/css">*{stroke-linecap:butt;stroke-linejoin:round;}</style>
 </defs>
 <g id="figure_1">
  <g id="patch_1">
   <path d="M 0 236.890714 
L 470.529856 236.890714 
L 470.529856 0 
L 0 0 
z
" style="fill:none;"/>
  </g>
  <g id="axes_1">
   <g id="patch_2">
    <path clip-path="url(#p208df3d61e)" d="M 70.930702 187.012857 
L 163.162107 187.012857 
L 163.162107 119.062857 
L 70.930702 119.062857 
z
" style="fill:#ffffff;stroke:#000000;stroke-linejoin:miter;"/>
   </g>
   <g id="text_1">
    <g id="patch_3">
     <path d="M 3.3 164.022857 
L 46.33 164.022857 
L 46.33 142.052857 
L 3.3 142.052857 
z
" style="fill:#ffffff;"/>
    </g>
    <!-- $a^{\langle t-1 \rangle}$ -->
    <g transform="translate(7.2 157.419263)scale(0.13 -0.13)">
     <defs>
      <path d="M 17.390625 -1.125 
Q 11.078125 -1.125 7.4375 3.640625 
Q 3.8125 8.40625 3.8125 14.890625 
Q 3.8125 21.296875 7.125 28.171875 
Q 10.453125 35.0625 16.09375 39.625 
Q 21.734375 44.1875 28.21875 44.1875 
Q 31.203125 44.1875 33.546875 42.578125 
Q 35.890625 40.96875 37.203125 38.1875 
Q 38.328125 42.1875 41.609375 42.1875 
Q 42.875 42.1875 43.71875 41.421875 
Q 44.578125 40.671875 44.578125 39.40625 
Q 44.578125 39.109375 44.546875 38.953125 
Q 44.53125 38.8125 44.484375 38.625 
L 37.5 10.6875 
Q 36.8125 7.71875 36.8125 5.8125 
Q 36.8125 1.515625 39.703125 1.515625 
Q 42.828125 1.515625 44.453125 5.484375 
Q 46.09375 9.46875 47.21875 14.703125 
Q 47.40625 15.28125 48 15.28125 
L 49.21875 15.28125 
Q 49.609375 15.28125 49.84375 14.9375 
Q 50.09375 14.59375 50.09375 14.3125 
Q 48.34375 7.328125 46.265625 3.09375 
Q 44.1875 -1.125 39.5 -1.125 
Q 36.140625 -1.125 33.546875 0.84375 
Q 30.953125 2.828125 30.328125 6.109375 
Q 23.875 -1.125 17.390625 -1.125 
z
M 17.484375 1.515625 
Q 21.09375 1.515625 24.484375 4.21875 
Q 27.875 6.9375 30.328125 10.59375 
Q 30.421875 10.6875 30.421875 10.890625 
L 35.796875 32.625 
L 35.890625 32.90625 
Q 35.296875 36.46875 33.3125 39.03125 
Q 31.34375 41.609375 27.984375 41.609375 
Q 24.609375 41.609375 21.703125 38.84375 
Q 18.796875 36.078125 16.796875 32.328125 
Q 14.84375 28.328125 13.0625 21.34375 
Q 11.28125 14.359375 11.28125 10.5 
Q 11.28125 7.03125 12.765625 4.265625 
Q 14.265625 1.515625 17.484375 1.515625 
z
" id="Cmmi10-97"/>
      <path d="M 35.5 -114.796875 
L 10.015625 -56.78125 
Q 9.8125 -56.5 9.8125 -56 
Q 9.8125 -55.515625 10.015625 -55.328125 
L 35.5 2.78125 
Q 35.984375 4 37.3125 4 
Q 38.03125 4 38.671875 3.359375 
Q 39.3125 2.734375 39.3125 2 
Q 39.3125 1.515625 39.203125 1.3125 
L 14.015625 -56 
L 39.203125 -113.28125 
Q 39.3125 -113.484375 39.3125 -114.015625 
Q 39.3125 -114.75 38.671875 -115.375 
Q 38.03125 -116.015625 37.3125 -116.015625 
Q 36.03125 -116.015625 35.5 -114.796875 
z
" id="Cmex10-173"/>
      <path d="M 6.203125 8.109375 
Q 6.203125 9.578125 6.5 10.890625 
L 13.71875 39.59375 
L 3.21875 39.59375 
Q 2.203125 39.59375 2.203125 40.921875 
Q 2.59375 43.109375 3.515625 43.109375 
L 14.59375 43.109375 
L 18.609375 59.421875 
Q 19 60.75 20.171875 61.671875 
Q 21.34375 62.59375 22.796875 62.59375 
Q 24.078125 62.59375 24.921875 61.828125 
Q 25.78125 61.078125 25.78125 59.8125 
Q 25.78125 59.515625 25.75 59.34375 
Q 25.734375 59.1875 25.6875 58.984375 
L 21.6875 43.109375 
L 31.984375 43.109375 
Q 33.015625 43.109375 33.015625 41.796875 
Q 32.953125 41.546875 32.8125 40.953125 
Q 32.671875 40.375 32.421875 39.984375 
Q 32.171875 39.59375 31.6875 39.59375 
L 20.796875 39.59375 
L 13.625 10.6875 
Q 12.890625 7.859375 12.890625 5.8125 
Q 12.890625 1.515625 15.828125 1.515625 
Q 20.21875 1.515625 23.609375 5.640625 
Q 27 9.765625 28.8125 14.703125 
Q 29.203125 15.28125 29.59375 15.28125 
L 30.8125 15.28125 
Q 31.203125 15.28125 31.4375 15.015625 
Q 31.6875 14.75 31.6875 14.40625 
Q 31.6875 14.203125 31.59375 14.109375 
Q 29.390625 8.0625 25.1875 3.46875 
Q 21 -1.125 15.578125 -1.125 
Q 11.625 -1.125 8.90625 1.453125 
Q 6.203125 4.046875 6.203125 8.109375 
z
" id="Cmmi10-116"/>
      <path d="M 10.203125 23 
Q 9.375 23 8.828125 23.625 
Q 8.296875 24.265625 8.296875 25 
Q 8.296875 25.734375 8.828125 26.359375 
Q 9.375 27 10.203125 27 
L 67.578125 27 
Q 68.359375 27 68.875 26.359375 
Q 69.390625 25.734375 69.390625 25 
Q 69.390625 24.265625 68.875 23.625 
Q 68.359375 23 67.578125 23 
z
" id="Cmsy10-161"/>
      <path d="M 9.28125 0 
L 9.28125 3.515625 
Q 21.78125 3.515625 21.78125 6.6875 
L 21.78125 59.1875 
Q 16.609375 56.6875 8.6875 56.6875 
L 8.6875 60.203125 
Q 20.953125 60.203125 27.203125 66.609375 
L 28.609375 66.609375 
Q 28.953125 66.609375 29.265625 66.328125 
Q 29.59375 66.0625 29.59375 65.71875 
L 29.59375 6.6875 
Q 29.59375 3.515625 42.09375 3.515625 
L 42.09375 0 
z
" id="Cmr10-49"/>
      <path d="M 7.8125 -114.015625 
Q 7.8125 -113.484375 8.015625 -113.28125 
L 33.109375 -56 
L 8.015625 1.3125 
Q 7.8125 1.515625 7.8125 2 
Q 7.8125 2.734375 8.390625 3.359375 
Q 8.984375 4 9.8125 4 
Q 10.984375 4 11.71875 2.78125 
L 37.203125 -55.328125 
Q 37.3125 -55.515625 37.3125 -56 
Q 37.3125 -56.5 37.203125 -56.78125 
L 11.71875 -114.796875 
Q 10.9375 -116.015625 9.8125 -116.015625 
Q 8.984375 -116.015625 8.390625 -115.375 
Q 7.8125 -114.75 7.8125 -114.015625 
z
" id="Cmex10-174"/>
     </defs>
     <use transform="translate(0 0.597135)" xlink:href="#Cmmi10-97"/>
     <use transform="translate(59.086484 104.202344)scale(0.7)" xlink:href="#Cmex10-173"/>
     <use transform="translate(92.138242 38.861198)scale(0.7)" xlink:href="#Cmmi10-116"/>
     <use transform="translate(129.688047 38.861198)scale(0.7)" xlink:href="#Cmsy10-161"/>
     <use transform="translate(196.358945 38.861198)scale(0.7)" xlink:href="#Cmr10-49"/>
     <use transform="translate(231.358945 104.202344)scale(0.7)" xlink:href="#Cmex10-174"/>
    </g>
   </g>
   <g id="text_2">
    <g id="patch_4">
     <path d="M 100.146405 163.228638 
L 133.946405 163.228638 
L 133.946405 142.847076 
L 100.146405 142.847076 
z
" style="fill:#ffffff;stroke:#000000;stroke-linejoin:miter;"/>
    </g>
    <!-- $\tanh$ -->
    <g transform="translate(104.046405 156.625045)scale(0.13 -0.13)">
     <defs>
      <path d="M 10.203125 12.015625 
L 10.203125 39.59375 
L 1.90625 39.59375 
L 1.90625 42.1875 
Q 8.453125 42.1875 11.515625 48.28125 
Q 14.59375 54.390625 14.59375 61.53125 
L 17.484375 61.53125 
L 17.484375 43.109375 
L 31.59375 43.109375 
L 31.59375 39.59375 
L 17.484375 39.59375 
L 17.484375 12.203125 
Q 17.484375 8.0625 18.875 4.9375 
Q 20.265625 1.8125 23.875 1.8125 
Q 27.296875 1.8125 28.8125 5.109375 
Q 30.328125 8.40625 30.328125 12.203125 
L 30.328125 18.109375 
L 33.203125 18.109375 
L 33.203125 12.015625 
Q 33.203125 8.890625 32.046875 5.828125 
Q 30.90625 2.78125 28.65625 0.828125 
Q 26.421875 -1.125 23.1875 -1.125 
Q 17.1875 -1.125 13.6875 2.46875 
Q 10.203125 6.0625 10.203125 12.015625 
z
" id="Cmr10-116"/>
      <path d="M 4 9.8125 
Q 4 15.765625 8.6875 19.5 
Q 13.375 23.25 19.9375 24.78125 
Q 26.515625 26.3125 32.421875 26.3125 
L 32.421875 30.421875 
Q 32.421875 33.296875 31.15625 36 
Q 29.890625 38.71875 27.484375 40.453125 
Q 25.09375 42.1875 22.21875 42.1875 
Q 15.578125 42.1875 12.109375 39.203125 
Q 14.015625 39.203125 15.25 37.765625 
Q 16.5 36.328125 16.5 34.421875 
Q 16.5 32.421875 15.078125 31 
Q 13.671875 29.59375 11.71875 29.59375 
Q 9.71875 29.59375 8.296875 31 
Q 6.890625 32.421875 6.890625 34.421875 
Q 6.890625 39.703125 11.671875 42.265625 
Q 16.453125 44.828125 22.21875 44.828125 
Q 26.265625 44.828125 30.359375 43.09375 
Q 34.46875 41.359375 37.078125 38.125 
Q 39.703125 34.90625 39.703125 30.609375 
L 39.703125 8.109375 
Q 39.703125 6.15625 40.53125 4.515625 
Q 41.359375 2.875 43.109375 2.875 
Q 44.78125 2.875 45.578125 4.53125 
Q 46.390625 6.203125 46.390625 8.109375 
L 46.390625 14.5 
L 49.3125 14.5 
L 49.3125 8.109375 
Q 49.3125 5.859375 48.140625 3.828125 
Q 46.96875 1.8125 44.984375 0.609375 
Q 43.015625 -0.59375 40.71875 -0.59375 
Q 37.796875 -0.59375 35.671875 1.671875 
Q 33.546875 3.953125 33.296875 7.078125 
Q 31.453125 3.328125 27.828125 1.09375 
Q 24.21875 -1.125 20.125 -1.125 
Q 16.3125 -1.125 12.625 0 
Q 8.9375 1.125 6.46875 3.53125 
Q 4 5.953125 4 9.8125 
z
M 12.109375 9.8125 
Q 12.109375 6.296875 14.6875 3.90625 
Q 17.28125 1.515625 20.796875 1.515625 
Q 24.03125 1.515625 26.65625 3.125 
Q 29.296875 4.734375 30.859375 7.515625 
Q 32.421875 10.296875 32.421875 13.375 
L 32.421875 23.78125 
Q 27.875 23.78125 23.109375 22.28125 
Q 18.359375 20.796875 15.234375 17.625 
Q 12.109375 14.453125 12.109375 9.8125 
z
" id="Cmr10-97"/>
      <path d="M 2.984375 0 
L 2.984375 3.515625 
Q 6.390625 3.515625 8.59375 4.046875 
Q 10.796875 4.59375 10.796875 6.6875 
L 10.796875 33.984375 
Q 10.796875 36.671875 9.984375 37.859375 
Q 9.1875 39.0625 7.671875 39.328125 
Q 6.15625 39.59375 2.984375 39.59375 
L 2.984375 43.109375 
L 17.484375 44.1875 
L 17.484375 34.421875 
Q 19.484375 38.71875 23.40625 41.453125 
Q 27.34375 44.1875 31.984375 44.1875 
Q 38.921875 44.1875 42.40625 40.859375 
Q 45.90625 37.546875 45.90625 30.71875 
L 45.90625 6.6875 
Q 45.90625 4.59375 48.09375 4.046875 
Q 50.296875 3.515625 53.71875 3.515625 
L 53.71875 0 
L 30.8125 0 
L 30.8125 3.515625 
Q 34.234375 3.515625 36.421875 4.046875 
Q 38.625 4.59375 38.625 6.6875 
L 38.625 30.421875 
Q 38.625 35.296875 37.203125 38.453125 
Q 35.796875 41.609375 31.390625 41.609375 
Q 25.59375 41.609375 21.84375 36.96875 
Q 18.109375 32.328125 18.109375 26.421875 
L 18.109375 6.6875 
Q 18.109375 4.59375 20.3125 4.046875 
Q 22.515625 3.515625 25.875 3.515625 
L 25.875 0 
z
" id="Cmr10-110"/>
      <path d="M 2.984375 0 
L 2.984375 3.515625 
Q 6.390625 3.515625 8.59375 4.046875 
Q 10.796875 4.59375 10.796875 6.6875 
L 10.796875 59.1875 
Q 10.796875 61.859375 9.984375 63.0625 
Q 9.1875 64.265625 7.671875 64.53125 
Q 6.15625 64.796875 2.984375 64.796875 
L 2.984375 68.3125 
L 17.828125 69.390625 
L 17.828125 35.015625 
Q 19.921875 39.15625 23.671875 41.671875 
Q 27.4375 44.1875 31.984375 44.1875 
Q 38.921875 44.1875 42.40625 40.859375 
Q 45.90625 37.546875 45.90625 30.71875 
L 45.90625 6.6875 
Q 45.90625 4.59375 48.09375 4.046875 
Q 50.296875 3.515625 53.71875 3.515625 
L 53.71875 0 
L 30.8125 0 
L 30.8125 3.515625 
Q 34.234375 3.515625 36.421875 4.046875 
Q 38.625 4.59375 38.625 6.6875 
L 38.625 30.421875 
Q 38.625 35.296875 37.203125 38.453125 
Q 35.796875 41.609375 31.390625 41.609375 
Q 25.59375 41.609375 21.84375 36.96875 
Q 18.109375 32.328125 18.109375 26.421875 
L 18.109375 6.6875 
Q 18.109375 4.59375 20.3125 4.046875 
Q 22.515625 3.515625 25.875 3.515625 
L 25.875 0 
z
" id="Cmr10-104"/>
     </defs>
     <use transform="translate(0 0.609375)" xlink:href="#Cmr10-116"/>
     <use transform="translate(38.818359 0.609375)" xlink:href="#Cmr10-97"/>
     <use transform="translate(88.818359 0.609375)" xlink:href="#Cmr10-110"/>
     <use transform="translate(144.335938 0.609375)" xlink:href="#Cmr10-104"/>
    </g>
   </g>
   <g id="patch_5">
    <path d="M 97.027993 153.037857 
Q 73.238976 153.037857 48.331925 153.037857 
" style="fill:none;stroke:#000000;stroke-linecap:round;"/>
    <path d="M 93.027993 151.037857 
L 97.027993 153.037857 
L 93.027993 155.037857 
" style="fill:none;stroke:#000000;stroke-linecap:round;"/>
   </g>
   <g id="text_3">
    <g id="patch_6">
     <path d="M 102.616405 231.972857 
L 131.476405 231.972857 
L 131.476405 210.002857 
L 102.616405 210.002857 
z
" style="fill:#ffffff;"/>
    </g>
    <!-- $x^{\langle t \rangle}$ -->
    <g transform="translate(106.516405 225.369263)scale(0.13 -0.13)">
     <defs>
      <path d="M 7.8125 2.875 
Q 9.578125 1.515625 12.796875 1.515625 
Q 15.921875 1.515625 18.3125 4.515625 
Q 20.703125 7.515625 21.578125 11.078125 
L 26.125 28.8125 
Q 27.203125 33.640625 27.203125 35.40625 
Q 27.203125 37.890625 25.8125 39.75 
Q 24.421875 41.609375 21.921875 41.609375 
Q 18.75 41.609375 15.96875 39.625 
Q 13.1875 37.640625 11.28125 34.59375 
Q 9.375 31.546875 8.59375 28.421875 
Q 8.40625 27.78125 7.8125 27.78125 
L 6.59375 27.78125 
Q 5.8125 27.78125 5.8125 28.71875 
L 5.8125 29 
Q 6.78125 32.71875 9.125 36.25 
Q 11.46875 39.796875 14.859375 41.984375 
Q 18.265625 44.1875 22.125 44.1875 
Q 25.78125 44.1875 28.734375 42.234375 
Q 31.6875 40.28125 32.90625 36.921875 
Q 34.625 39.984375 37.28125 42.078125 
Q 39.9375 44.1875 43.109375 44.1875 
Q 45.265625 44.1875 47.5 43.421875 
Q 49.75 42.671875 51.171875 41.109375 
Q 52.59375 39.546875 52.59375 37.203125 
Q 52.59375 34.671875 50.953125 32.828125 
Q 49.3125 31 46.78125 31 
Q 45.171875 31 44.09375 32.03125 
Q 43.015625 33.0625 43.015625 34.625 
Q 43.015625 36.71875 44.453125 38.296875 
Q 45.90625 39.890625 47.90625 40.1875 
Q 46.09375 41.609375 42.921875 41.609375 
Q 39.703125 41.609375 37.328125 38.625 
Q 34.96875 35.640625 33.984375 31.984375 
L 29.59375 14.3125 
Q 28.515625 10.296875 28.515625 7.71875 
Q 28.515625 5.171875 29.953125 3.34375 
Q 31.390625 1.515625 33.796875 1.515625 
Q 38.484375 1.515625 42.15625 5.640625 
Q 45.84375 9.765625 47.015625 14.703125 
Q 47.21875 15.28125 47.796875 15.28125 
L 49.03125 15.28125 
Q 49.421875 15.28125 49.65625 15.015625 
Q 49.90625 14.75 49.90625 14.40625 
Q 49.90625 14.3125 49.8125 14.109375 
Q 48.390625 8.15625 43.84375 3.515625 
Q 39.3125 -1.125 33.59375 -1.125 
Q 29.9375 -1.125 26.984375 0.84375 
Q 24.03125 2.828125 22.796875 6.203125 
Q 21.234375 3.265625 18.46875 1.0625 
Q 15.71875 -1.125 12.59375 -1.125 
Q 10.453125 -1.125 8.171875 -0.359375 
Q 5.90625 0.390625 4.484375 1.953125 
Q 3.078125 3.515625 3.078125 5.90625 
Q 3.078125 8.25 4.703125 10.171875 
Q 6.34375 12.109375 8.796875 12.109375 
Q 10.453125 12.109375 11.578125 11.109375 
Q 12.703125 10.109375 12.703125 8.5 
Q 12.703125 6.390625 11.296875 4.828125 
Q 9.90625 3.265625 7.8125 2.875 
z
" id="Cmmi10-120"/>
     </defs>
     <use transform="translate(0 0.597135)" xlink:href="#Cmmi10-120"/>
     <use transform="translate(63.383359 104.202344)scale(0.7)" xlink:href="#Cmex10-173"/>
     <use transform="translate(96.435117 38.861198)scale(0.7)" xlink:href="#Cmmi10-116"/>
     <use transform="translate(121.693906 104.202344)scale(0.7)" xlink:href="#Cmex10-174"/>
    </g>
   </g>
   <g id="patch_7">
    <path d="M 117.046405 208.001592 
Q 117.046405 186.613926 117.046405 166.344294 
" style="fill:none;stroke:#000000;stroke-linecap:round;"/>
    <path d="M 115.046405 170.344294 
L 117.046405 166.344294 
L 119.046405 170.344294 
" style="fill:none;stroke:#000000;stroke-linecap:round;"/>
   </g>
   <g id="text_4">
    <g id="patch_8">
     <path d="M 195.17281 164.022857 
L 223.38281 164.022857 
L 223.38281 142.052857 
L 195.17281 142.052857 
z
" style="fill:#ffffff;"/>
    </g>
    <!-- $a^{\langle t \rangle}$ -->
    <g transform="translate(199.07281 157.419263)scale(0.13 -0.13)">
     <use transform="translate(0 0.597135)" xlink:href="#Cmmi10-97"/>
     <use transform="translate(59.086484 104.202344)scale(0.7)" xlink:href="#Cmex10-173"/>
     <use transform="translate(92.138242 38.861198)scale(0.7)" xlink:href="#Cmmi10-116"/>
     <use transform="translate(117.397031 104.202344)scale(0.7)" xlink:href="#Cmex10-174"/>
    </g>
   </g>
   <g id="patch_9">
    <path d="M 192.055501 153.037857 
Q 164.5595 153.037857 135.945465 153.037857 
" style="fill:none;stroke:#000000;stroke-linecap:round;"/>
    <path d="M 188.055501 151.037857 
L 192.055501 153.037857 
L 188.055501 155.037857 
" style="fill:none;stroke:#000000;stroke-linecap:round;"/>
   </g>
   <g id="text_5">
    <g id="patch_10">
     <path d="M 136.837107 95.278638 
L 189.487107 95.278638 
L 189.487107 74.897076 
L 136.837107 74.897076 
z
" style="fill:#ffffff;stroke:#000000;stroke-linejoin:miter;"/>
    </g>
    <!-- $\mathrm{softmax}$ -->
    <g transform="translate(140.737107 88.675045)scale(0.13 -0.13)">
     <defs>
      <path d="M 3.328125 -0.296875 
L 3.328125 16.015625 
Q 3.328125 16.796875 4.203125 16.796875 
L 5.421875 16.796875 
Q 6 16.796875 6.203125 16.015625 
Q 8.984375 1.515625 19.671875 1.515625 
Q 24.421875 1.515625 27.609375 3.65625 
Q 30.8125 5.8125 30.8125 10.296875 
Q 30.8125 13.53125 28.3125 15.796875 
Q 25.828125 18.0625 22.40625 18.890625 
L 15.71875 20.21875 
Q 12.359375 20.953125 9.59375 22.453125 
Q 6.84375 23.96875 5.078125 26.484375 
Q 3.328125 29 3.328125 32.328125 
Q 3.328125 36.71875 5.640625 39.515625 
Q 7.953125 42.328125 11.65625 43.578125 
Q 15.375 44.828125 19.671875 44.828125 
Q 24.8125 44.828125 28.609375 42.09375 
L 31.5 44.578125 
Q 31.5 44.828125 31.984375 44.828125 
L 32.71875 44.828125 
Q 33.015625 44.828125 33.25 44.546875 
Q 33.5 44.28125 33.5 44 
L 33.5 30.90625 
Q 33.5 29.984375 32.71875 29.984375 
L 31.5 29.984375 
Q 30.609375 29.984375 30.609375 30.90625 
Q 30.609375 36.140625 27.703125 39.3125 
Q 24.8125 42.484375 19.578125 42.484375 
Q 15.09375 42.484375 11.796875 40.8125 
Q 8.5 39.15625 8.5 35.109375 
Q 8.5 32.328125 10.859375 30.546875 
Q 13.234375 28.765625 16.40625 27.984375 
L 23.1875 26.703125 
Q 26.609375 25.921875 29.5625 24.0625 
Q 32.515625 22.21875 34.25 19.375 
Q 35.984375 16.546875 35.984375 12.984375 
Q 35.984375 9.375 34.734375 6.703125 
Q 33.5 4.046875 31.265625 2.28125 
Q 29.046875 0.53125 26.015625 -0.296875 
Q 23 -1.125 19.671875 -1.125 
Q 13.421875 -1.125 8.984375 3.078125 
L 5.328125 -0.875 
Q 5.328125 -1.125 4.78125 -1.125 
L 4.203125 -1.125 
Q 3.328125 -1.125 3.328125 -0.296875 
z
" id="Cmr10-115"/>
      <path d="M 25 -1.125 
Q 19 -1.125 13.859375 1.921875 
Q 8.734375 4.984375 5.75 10.109375 
Q 2.78125 15.234375 2.78125 21.296875 
Q 2.78125 25.875 4.421875 30.125 
Q 6.0625 34.375 9.109375 37.71875 
Q 12.15625 41.0625 16.203125 42.9375 
Q 20.265625 44.828125 25 44.828125 
Q 31.15625 44.828125 36.203125 41.578125 
Q 41.265625 38.328125 44.1875 32.875 
Q 47.125 27.4375 47.125 21.296875 
Q 47.125 15.28125 44.140625 10.125 
Q 41.15625 4.984375 36.046875 1.921875 
Q 30.953125 -1.125 25 -1.125 
z
M 25 1.8125 
Q 33.015625 1.8125 35.6875 7.609375 
Q 38.375 13.421875 38.375 22.40625 
Q 38.375 27.4375 37.84375 30.734375 
Q 37.3125 34.03125 35.5 36.71875 
Q 34.375 38.375 32.640625 39.625 
Q 30.90625 40.875 28.96875 41.53125 
Q 27.046875 42.1875 25 42.1875 
Q 21.875 42.1875 19.0625 40.765625 
Q 16.265625 39.359375 14.40625 36.71875 
Q 12.546875 33.890625 12.03125 30.484375 
Q 11.53125 27.09375 11.53125 22.40625 
Q 11.53125 16.796875 12.5 12.328125 
Q 13.484375 7.859375 16.4375 4.828125 
Q 19.390625 1.8125 25 1.8125 
z
" id="Cmr10-111"/>
      <path d="M 3.21875 0 
L 3.21875 3.515625 
Q 6.59375 3.515625 8.78125 4.046875 
Q 10.984375 4.59375 10.984375 6.6875 
L 10.984375 39.59375 
L 3.328125 39.59375 
L 3.328125 43.109375 
L 10.984375 43.109375 
L 10.984375 55.078125 
Q 10.984375 58.296875 12.328125 61.109375 
Q 13.671875 63.921875 15.9375 66.015625 
Q 18.21875 68.109375 21.171875 69.3125 
Q 24.125 70.515625 27.296875 70.515625 
Q 30.671875 70.515625 33.375 68.5 
Q 36.078125 66.5 36.078125 63.1875 
Q 36.078125 61.28125 34.78125 59.984375 
Q 33.5 58.6875 31.59375 58.6875 
Q 29.6875 58.6875 28.34375 59.984375 
Q 27 61.28125 27 63.1875 
Q 27 66.3125 29.6875 67.390625 
Q 28.078125 67.921875 26.8125 67.921875 
Q 23.875 67.921875 21.796875 65.84375 
Q 19.734375 63.765625 18.703125 60.78125 
Q 17.671875 57.8125 17.671875 54.890625 
L 17.671875 43.109375 
L 29.203125 43.109375 
L 29.203125 39.59375 
L 18.015625 39.59375 
L 18.015625 6.6875 
Q 18.015625 4.640625 20.9375 4.078125 
Q 23.875 3.515625 27.6875 3.515625 
L 27.6875 0 
z
" id="Cmr10-102"/>
      <path d="M 2.984375 0 
L 2.984375 3.515625 
Q 6.390625 3.515625 8.59375 4.046875 
Q 10.796875 4.59375 10.796875 6.6875 
L 10.796875 33.984375 
Q 10.796875 36.671875 9.984375 37.859375 
Q 9.1875 39.0625 7.671875 39.328125 
Q 6.15625 39.59375 2.984375 39.59375 
L 2.984375 43.109375 
L 17.484375 44.1875 
L 17.484375 34.421875 
Q 19.484375 38.71875 23.40625 41.453125 
Q 27.34375 44.1875 31.984375 44.1875 
Q 43.5 44.1875 45.515625 34.8125 
Q 47.515625 39.015625 51.359375 41.59375 
Q 55.21875 44.1875 59.8125 44.1875 
Q 64.359375 44.1875 67.453125 42.71875 
Q 70.5625 41.265625 72.125 38.25 
Q 73.6875 35.25 73.6875 30.71875 
L 73.6875 6.6875 
Q 73.6875 4.59375 75.90625 4.046875 
Q 78.125 3.515625 81.5 3.515625 
L 81.5 0 
L 58.59375 0 
L 58.59375 3.515625 
Q 62.015625 3.515625 64.203125 4.046875 
Q 66.40625 4.59375 66.40625 6.6875 
L 66.40625 30.421875 
Q 66.40625 35.453125 64.984375 38.53125 
Q 63.578125 41.609375 59.1875 41.609375 
Q 53.421875 41.609375 49.65625 36.96875 
Q 45.90625 32.328125 45.90625 26.421875 
L 45.90625 6.6875 
Q 45.90625 4.59375 48.09375 4.046875 
Q 50.296875 3.515625 53.71875 3.515625 
L 53.71875 0 
L 30.8125 0 
L 30.8125 3.515625 
Q 34.234375 3.515625 36.421875 4.046875 
Q 38.625 4.59375 38.625 6.6875 
L 38.625 30.421875 
Q 38.625 35.296875 37.203125 38.453125 
Q 35.796875 41.609375 31.390625 41.609375 
Q 25.59375 41.609375 21.84375 36.96875 
Q 18.109375 32.328125 18.109375 26.421875 
L 18.109375 6.6875 
Q 18.109375 4.59375 20.3125 4.046875 
Q 22.515625 3.515625 25.875 3.515625 
L 25.875 0 
z
" id="Cmr10-109"/>
      <path d="M 1.21875 0 
L 1.21875 3.515625 
Q 5.03125 3.515625 8.390625 5 
Q 11.765625 6.5 14.109375 9.421875 
L 23.1875 21 
L 11.375 36.375 
Q 9.625 38.578125 7.546875 39.078125 
Q 5.46875 39.59375 1.703125 39.59375 
L 1.703125 43.109375 
L 22.515625 43.109375 
L 22.515625 39.59375 
Q 21.1875 39.59375 20.03125 39 
Q 18.890625 38.421875 18.890625 37.3125 
Q 18.890625 36.921875 19.1875 36.375 
L 27.203125 25.984375 
L 33.203125 33.6875 
Q 34.421875 35.15625 34.421875 36.625 
Q 34.421875 37.84375 33.609375 38.71875 
Q 32.8125 39.59375 31.5 39.59375 
L 31.5 43.109375 
L 49.90625 43.109375 
L 49.90625 39.59375 
Q 46.046875 39.59375 42.65625 38.109375 
Q 39.265625 36.625 36.921875 33.6875 
L 29 23.578125 
L 41.796875 6.6875 
Q 43.703125 4.5 45.75 4 
Q 47.796875 3.515625 51.609375 3.515625 
L 51.609375 0 
L 30.8125 0 
L 30.8125 3.515625 
Q 32.03125 3.515625 33.15625 4.09375 
Q 34.28125 4.6875 34.28125 5.8125 
Q 34.28125 6.25 33.984375 6.6875 
L 25 18.609375 
L 17.828125 9.421875 
Q 16.703125 8.15625 16.703125 6.5 
Q 16.703125 5.28125 17.53125 4.390625 
Q 18.359375 3.515625 19.484375 3.515625 
L 19.484375 0 
z
" id="Cmr10-120"/>
     </defs>
     <use transform="translate(0 0.484375)" xlink:href="#Cmr10-115"/>
     <use transform="translate(39.404297 0.484375)" xlink:href="#Cmr10-111"/>
     <use transform="translate(89.404297 0.484375)" xlink:href="#Cmr10-102"/>
     <use transform="translate(119.921875 0.484375)" xlink:href="#Cmr10-116"/>
     <use transform="translate(158.740234 0.484375)" xlink:href="#Cmr10-109"/>
     <use transform="translate(242.041016 0.484375)" xlink:href="#Cmr10-97"/>
     <use transform="translate(292.041016 0.484375)" xlink:href="#Cmr10-120"/>
    </g>
   </g>
   <g id="patch_11">
    <path d="M 163.336482 98.391026 
Q 164.982329 132.467823 135.625439 151.952302 
" style="fill:none;stroke:#000000;stroke-linecap:round;"/>
    <path d="M 161.531779 102.482852 
L 163.336482 98.391026 
L 165.527121 102.289885 
" style="fill:none;stroke:#000000;stroke-linecap:round;"/>
   </g>
   <g id="text_6">
    <g id="patch_12">
     <path d="M 149.382107 29.357857 
L 176.942107 29.357857 
L 176.942107 4.917857 
L 149.382107 4.917857 
z
" style="fill:#ffffff;"/>
    </g>
    <!-- $\hat{y}^{\langle t \rangle}$ -->
    <g transform="translate(153.282107 22.727857)scale(0.13 -0.13)">
     <defs>
      <path d="M 13.484375 53.8125 
L 11.53125 55.90625 
L 25 69.390625 
L 38.375 55.90625 
L 36.375 53.8125 
L 25 63.8125 
z
" id="Cmr10-94"/>
      <path d="M 8.40625 -14.3125 
Q 10.5 -17.921875 15.71875 -17.921875 
Q 20.453125 -17.921875 23.921875 -14.59375 
Q 27.390625 -11.28125 29.515625 -6.5625 
Q 31.640625 -1.859375 32.8125 3.078125 
Q 28.375 -1.125 23.1875 -1.125 
Q 19.234375 -1.125 16.453125 0.234375 
Q 13.671875 1.609375 12.125 4.3125 
Q 10.59375 7.03125 10.59375 10.890625 
Q 10.59375 14.15625 11.46875 17.59375 
Q 12.359375 21.046875 13.9375 25.265625 
Q 15.53125 29.5 16.703125 32.625 
Q 18.015625 36.28125 18.015625 38.625 
Q 18.015625 41.609375 15.828125 41.609375 
Q 11.859375 41.609375 9.296875 37.53125 
Q 6.734375 33.453125 5.515625 28.421875 
Q 5.328125 27.78125 4.6875 27.78125 
L 3.515625 27.78125 
Q 2.6875 27.78125 2.6875 28.71875 
L 2.6875 29 
Q 4.296875 34.96875 7.609375 39.578125 
Q 10.9375 44.1875 16.015625 44.1875 
Q 19.578125 44.1875 22.046875 41.84375 
Q 24.515625 39.5 24.515625 35.890625 
Q 24.515625 34.03125 23.6875 31.984375 
Q 23.25 30.765625 21.6875 26.65625 
Q 20.125 22.5625 19.28125 19.875 
Q 18.453125 17.1875 17.921875 14.59375 
Q 17.390625 12.015625 17.390625 9.421875 
Q 17.390625 6.109375 18.796875 3.8125 
Q 20.21875 1.515625 23.296875 1.515625 
Q 29.5 1.515625 34.421875 9.078125 
L 42 39.890625 
Q 42.328125 41.21875 43.546875 42.15625 
Q 44.78125 43.109375 46.1875 43.109375 
Q 47.40625 43.109375 48.3125 42.328125 
Q 49.21875 41.546875 49.21875 40.28125 
Q 49.21875 39.703125 49.125 39.5 
L 39.203125 -0.296875 
Q 37.890625 -5.421875 34.375 -10.109375 
Q 30.859375 -14.796875 25.90625 -17.65625 
Q 20.953125 -20.515625 15.578125 -20.515625 
Q 12.984375 -20.515625 10.4375 -19.5 
Q 7.90625 -18.5 6.34375 -16.5 
Q 4.78125 -14.5 4.78125 -11.8125 
Q 4.78125 -9.078125 6.390625 -7.078125 
Q 8.015625 -5.078125 10.6875 -5.078125 
Q 12.3125 -5.078125 13.40625 -6.078125 
Q 14.5 -7.078125 14.5 -8.6875 
Q 14.5 -10.984375 12.78125 -12.6875 
Q 11.078125 -14.40625 8.796875 -14.40625 
Q 8.6875 -14.359375 8.59375 -14.328125 
Q 8.5 -14.3125 8.40625 -14.3125 
z
" id="Cmmi10-121"/>
     </defs>
     <use transform="translate(5.724609 3.472135)" xlink:href="#Cmr10-94"/>
     <use transform="translate(0 0.597135)" xlink:href="#Cmmi10-121"/>
     <use transform="translate(53.487578 104.202344)scale(0.7)" xlink:href="#Cmex10-173"/>
     <use transform="translate(86.539336 38.861198)scale(0.7)" xlink:href="#Cmmi10-116"/>
     <use transform="translate(111.798125 104.202344)scale(0.7)" xlink:href="#Cmex10-174"/>
    </g>
   </g>
   <g id="patch_13">
    <path d="M 163.162107 32.474347 
Q 163.162107 52.126139 163.162107 72.895965 
" style="fill:none;stroke:#000000;stroke-linecap:round;"/>
    <path d="M 161.162107 36.474347 
L 163.162107 32.474347 
L 165.162107 36.474347 
" style="fill:none;stroke:#000000;stroke-linecap:round;"/>
   </g>
  </g>
  <g id="axes_2">
   <g id="text_7">
    <g id="patch_14">
     <path d="M 246.434772 181.819286 
L 288.294772 181.819286 
L 288.294772 159.849286 
L 246.434772 159.849286 
z
" style="fill:#ffffff;"/>
    </g>
    <!-- $c^{\langle t-1 \rangle}$ -->
    <g transform="translate(250.334772 175.215692)scale(0.13 -0.13)">
     <defs>
      <path d="M 11.71875 11.921875 
Q 11.71875 7.5625 13.9375 4.53125 
Q 16.15625 1.515625 20.3125 1.515625 
Q 26.265625 1.515625 31.75 4.25 
Q 37.25 6.984375 40.71875 11.8125 
Q 41.015625 12.109375 41.5 12.109375 
Q 42 12.109375 42.5 11.546875 
Q 43.015625 10.984375 43.015625 10.5 
Q 43.015625 10.109375 42.828125 9.90625 
Q 39.15625 4.78125 32.953125 1.828125 
Q 26.765625 -1.125 20.125 -1.125 
Q 15.328125 -1.125 11.671875 1.140625 
Q 8.015625 3.421875 6 7.21875 
Q 4 11.03125 4 15.828125 
Q 4 22.5625 7.765625 29.203125 
Q 11.53125 35.84375 17.78125 40.015625 
Q 24.03125 44.1875 30.90625 44.1875 
Q 35.40625 44.1875 38.984375 42.015625 
Q 42.578125 39.84375 42.578125 35.59375 
Q 42.578125 32.859375 40.984375 30.921875 
Q 39.40625 29 36.71875 29 
Q 35.109375 29 34 30 
Q 32.90625 31 32.90625 32.625 
Q 32.90625 34.96875 34.609375 36.625 
Q 36.328125 38.28125 38.625 38.28125 
L 38.8125 38.28125 
Q 37.640625 39.984375 35.421875 40.796875 
Q 33.203125 41.609375 30.8125 41.609375 
Q 24.953125 41.609375 20.546875 36.59375 
Q 16.15625 31.59375 13.9375 24.625 
Q 11.71875 17.671875 11.71875 11.921875 
z
" id="Cmmi10-99"/>
     </defs>
     <use transform="translate(0 0.597135)" xlink:href="#Cmmi10-99"/>
     <use transform="translate(49.516172 104.202344)scale(0.7)" xlink:href="#Cmex10-173"/>
     <use transform="translate(82.56793 38.861198)scale(0.7)" xlink:href="#Cmmi10-116"/>
     <use transform="translate(120.117734 38.861198)scale(0.7)" xlink:href="#Cmsy10-161"/>
     <use transform="translate(186.788633 38.861198)scale(0.7)" xlink:href="#Cmr10-49"/>
     <use transform="translate(221.788633 104.202344)scale(0.7)" xlink:href="#Cmex10-174"/>
    </g>
   </g>
   <g id="text_8">
    <g id="patch_15">
     <path d="M 333.284809 181.025067 
L 367.084809 181.025067 
L 367.084809 160.643504 
L 333.284809 160.643504 
z
" style="fill:#ffffff;stroke:#000000;stroke-linejoin:miter;"/>
    </g>
    <!-- $\tanh$ -->
    <g transform="translate(337.184809 174.421473)scale(0.13 -0.13)">
     <use transform="translate(0 0.609375)" xlink:href="#Cmr10-116"/>
     <use transform="translate(38.818359 0.609375)" xlink:href="#Cmr10-97"/>
     <use transform="translate(88.818359 0.609375)" xlink:href="#Cmr10-110"/>
     <use transform="translate(144.335938 0.609375)" xlink:href="#Cmr10-104"/>
    </g>
   </g>
   <g id="patch_16">
    <path d="M 330.16496 170.834286 
Q 310.78986 170.834286 290.296726 170.834286 
" style="fill:none;stroke:#000000;stroke-linecap:round;"/>
    <path d="M 326.16496 168.834286 
L 330.16496 170.834286 
L 326.16496 172.834286 
" style="fill:none;stroke:#000000;stroke-linecap:round;"/>
   </g>
   <g id="text_9">
    <g id="patch_17">
     <path d="M 335.754809 233.590714 
L 364.614809 233.590714 
L 364.614809 211.620714 
L 335.754809 211.620714 
z
" style="fill:#ffffff;"/>
    </g>
    <!-- $x^{\langle t \rangle}$ -->
    <g transform="translate(339.654809 226.987121)scale(0.13 -0.13)">
     <use transform="translate(0 0.597135)" xlink:href="#Cmmi10-120"/>
     <use transform="translate(63.383359 104.202344)scale(0.7)" xlink:href="#Cmex10-173"/>
     <use transform="translate(96.435117 38.861198)scale(0.7)" xlink:href="#Cmmi10-116"/>
     <use transform="translate(121.693906 104.202344)scale(0.7)" xlink:href="#Cmex10-174"/>
    </g>
   </g>
   <g id="patch_18">
    <path d="M 350.184809 209.622585 
Q 350.184809 196.323971 350.184809 184.143391 
" style="fill:none;stroke:#000000;stroke-linecap:round;"/>
    <path d="M 348.184809 188.143391 
L 350.184809 184.143391 
L 352.184809 188.143391 
" style="fill:none;stroke:#000000;stroke-linecap:round;"/>
   </g>
   <g id="text_10">
    <g id="patch_19">
     <path d="M 383.924828 181.025067 
L 399.264828 181.025067 
L 399.264828 160.643504 
L 383.924828 160.643504 
z
" style="fill:#ffffff;stroke:#000000;stroke-linejoin:miter;"/>
    </g>
    <!-- $\sigma$ -->
    <g transform="translate(387.824828 174.421473)scale(0.13 -0.13)">
     <defs>
      <path d="M 18.703125 -1.125 
Q 14.265625 -1.125 10.8125 1 
Q 7.375 3.125 5.484375 6.734375 
Q 3.609375 10.359375 3.609375 14.703125 
Q 3.609375 19.34375 5.703125 24.46875 
Q 7.8125 29.59375 11.453125 33.84375 
Q 15.09375 38.09375 19.671875 40.59375 
Q 24.265625 43.109375 29.109375 43.109375 
L 54.296875 43.109375 
Q 55.328125 43.109375 56.046875 42.421875 
Q 56.78125 41.75 56.78125 40.578125 
Q 56.78125 39.109375 55.734375 38.015625 
Q 54.6875 36.921875 53.21875 36.921875 
L 41.015625 36.921875 
Q 43.890625 32.625 43.890625 26.515625 
Q 43.890625 21.484375 41.9375 16.59375 
Q 39.984375 11.71875 36.515625 7.6875 
Q 33.0625 3.65625 28.4375 1.265625 
Q 23.828125 -1.125 18.703125 -1.125 
z
M 18.796875 1.515625 
Q 24.265625 1.515625 28.484375 5.78125 
Q 32.71875 10.0625 34.953125 16.234375 
Q 37.203125 22.40625 37.203125 27.6875 
Q 37.203125 31.984375 34.828125 34.453125 
Q 32.46875 36.921875 28.21875 36.921875 
Q 22.40625 36.921875 18.328125 33.015625 
Q 14.265625 29.109375 12.234375 23.1875 
Q 10.203125 17.28125 10.203125 11.8125 
Q 10.203125 7.515625 12.46875 4.515625 
Q 14.75 1.515625 18.796875 1.515625 
z
" id="Cmmi10-190"/>
     </defs>
     <use transform="translate(0 0.890625)" xlink:href="#Cmmi10-190"/>
    </g>
   </g>
   <g id="text_11">
    <g id="patch_20">
     <path d="M 362.309819 129.253638 
L 379.469819 129.253638 
L 379.469819 108.872076 
L 362.309819 108.872076 
z
" style="fill:#ffffff;stroke:#000000;stroke-linejoin:miter;"/>
    </g>
    <!-- $C$ -->
    <g transform="translate(366.209819 122.650045)scale(0.13 -0.13)">
     <defs>
      <path d="M 14.59375 21.578125 
Q 14.59375 15.578125 16.90625 11.015625 
Q 19.234375 6.453125 23.65625 3.875 
Q 28.078125 1.3125 34.078125 1.3125 
Q 40.375 1.3125 46.203125 4.53125 
Q 52.046875 7.765625 56.171875 13.15625 
Q 60.296875 18.5625 61.8125 24.609375 
Q 62.015625 25.203125 62.59375 25.203125 
L 63.8125 25.203125 
Q 64.203125 25.203125 64.453125 24.921875 
Q 64.703125 24.65625 64.703125 24.3125 
Q 64.703125 24.21875 64.59375 24.03125 
Q 62.890625 17.09375 57.984375 11.015625 
Q 53.078125 4.9375 46.234375 1.359375 
Q 39.40625 -2.203125 32.171875 -2.203125 
Q 24.359375 -2.203125 18.15625 1.3125 
Q 11.96875 4.828125 8.515625 11.078125 
Q 5.078125 17.328125 5.078125 25.203125 
Q 5.078125 33.59375 8.828125 41.8125 
Q 12.59375 50.046875 18.9375 56.46875 
Q 25.296875 62.890625 33.421875 66.703125 
Q 41.546875 70.515625 49.90625 70.515625 
Q 53.21875 70.515625 56.25 69.5 
Q 59.28125 68.5 61.859375 66.453125 
Q 64.453125 64.40625 66.109375 61.71875 
L 74.03125 70.3125 
Q 74.03125 70.515625 74.515625 70.515625 
L 75.09375 70.515625 
Q 75.484375 70.515625 75.734375 70.171875 
Q 75.984375 69.828125 75.984375 69.484375 
L 69.1875 42.484375 
Q 69.1875 41.796875 68.40625 41.796875 
L 66.609375 41.796875 
Q 65.828125 41.796875 65.828125 42.921875 
Q 66.21875 45.125 66.21875 48.1875 
Q 66.21875 53.078125 64.546875 57.390625 
Q 62.890625 61.71875 59.390625 64.359375 
Q 55.90625 67 50.875 67 
Q 42.71875 67 35.9375 62.890625 
Q 29.15625 58.796875 24.4375 52.125 
Q 19.734375 45.453125 17.15625 37.328125 
Q 14.59375 29.203125 14.59375 21.578125 
z
" id="Cmmi10-67"/>
     </defs>
     <use transform="translate(0 0.484375)" xlink:href="#Cmmi10-67"/>
    </g>
   </g>
   <g id="patch_21">
    <path d="M 380.593484 132.162643 
Q 385.532867 144.949979 390.875105 158.780247 
" style="fill:none;stroke:#000000;stroke-linecap:round;"/>
    <path d="M 380.169128 136.6146 
L 380.593484 132.162643 
L 383.900436 135.173302 
" style="fill:none;stroke:#000000;stroke-linecap:round;"/>
   </g>
   <g id="text_12">
    <!-- $\Gamma_u$ -->
    <g transform="translate(388.73391 148.23082)scale(0.1 -0.1)">
     <defs>
      <path d="M 3.078125 0 
L 3.078125 3.515625 
Q 13.375 3.515625 13.375 6.6875 
L 13.375 61.625 
Q 13.375 64.796875 3.078125 64.796875 
L 3.078125 68.3125 
L 55.421875 68.3125 
L 58.203125 45.40625 
L 55.328125 45.40625 
Q 54.59375 51.765625 53.640625 55.21875 
Q 52.6875 58.6875 50.734375 60.8125 
Q 48.78125 62.9375 45.265625 63.859375 
Q 41.75 64.796875 35.5 64.796875 
L 27.78125 64.796875 
Q 25.984375 64.796875 24.96875 64.640625 
Q 23.96875 64.5 23.328125 63.796875 
Q 22.703125 63.09375 22.703125 61.625 
L 22.703125 6.6875 
Q 22.703125 3.515625 35.5 3.515625 
L 35.5 0 
z
" id="Cmr10-161"/>
      <path d="M 10.59375 10.890625 
Q 10.59375 14.15625 11.46875 17.59375 
Q 12.359375 21.046875 13.9375 25.265625 
Q 15.53125 29.5 16.703125 32.625 
Q 18.015625 36.28125 18.015625 38.625 
Q 18.015625 41.609375 15.828125 41.609375 
Q 11.859375 41.609375 9.296875 37.53125 
Q 6.734375 33.453125 5.515625 28.421875 
Q 5.328125 27.78125 4.6875 27.78125 
L 3.515625 27.78125 
Q 2.6875 27.78125 2.6875 28.71875 
L 2.6875 29 
Q 4.296875 34.96875 7.609375 39.578125 
Q 10.9375 44.1875 16.015625 44.1875 
Q 19.578125 44.1875 22.046875 41.84375 
Q 24.515625 39.5 24.515625 35.890625 
Q 24.515625 34.03125 23.6875 31.984375 
Q 23.25 30.765625 21.6875 26.65625 
Q 20.125 22.5625 19.28125 19.875 
Q 18.453125 17.1875 17.921875 14.59375 
Q 17.390625 12.015625 17.390625 9.421875 
Q 17.390625 6.109375 18.796875 3.8125 
Q 20.21875 1.515625 23.390625 1.515625 
Q 29.78125 1.515625 34.625 9.421875 
Q 34.71875 9.8125 34.78125 10.171875 
Q 34.859375 10.546875 34.90625 10.890625 
L 42.09375 39.890625 
Q 42.4375 41.21875 43.65625 42.15625 
Q 44.875 43.109375 46.296875 43.109375 
Q 47.515625 43.109375 48.40625 42.328125 
Q 49.3125 41.546875 49.3125 40.28125 
Q 49.3125 39.703125 49.21875 39.5 
L 42 10.6875 
Q 41.3125 7.71875 41.3125 5.8125 
Q 41.3125 1.515625 44.1875 1.515625 
Q 47.40625 1.515625 49 5.484375 
Q 50.59375 9.46875 51.703125 14.703125 
Q 51.90625 15.28125 52.484375 15.28125 
L 53.71875 15.28125 
Q 54.109375 15.28125 54.34375 14.9375 
Q 54.59375 14.59375 54.59375 14.3125 
Q 53.515625 10.015625 52.515625 6.9375 
Q 51.515625 3.859375 49.359375 1.359375 
Q 47.21875 -1.125 44 -1.125 
Q 40.828125 -1.125 38.3125 0.609375 
Q 35.796875 2.34375 34.90625 5.328125 
Q 32.625 2.390625 29.59375 0.625 
Q 26.5625 -1.125 23.1875 -1.125 
Q 17.4375 -1.125 14.015625 2.015625 
Q 10.59375 5.171875 10.59375 10.890625 
z
" id="Cmmi10-117"/>
     </defs>
     <use transform="translate(0 0.6875)" xlink:href="#Cmr10-161"/>
     <use transform="translate(66.964141 -16.31875)scale(0.7)" xlink:href="#Cmmi10-117"/>
    </g>
   </g>
   <g id="patch_22">
    <path d="M 361.186153 132.162643 
Q 356.24677 144.949979 350.904532 158.780247 
" style="fill:none;stroke:#000000;stroke-linecap:round;"/>
    <path d="M 356.887116 136.0765 
L 361.186153 132.162643 
L 361.737816 137.950187 
" style="fill:none;stroke:#000000;stroke-linecap:round;"/>
   </g>
   <g id="text_13">
    <!-- $\tilde{c}^{\langle t \rangle}$ -->
    <g transform="translate(334.091189 149.852852)scale(0.13 -0.13)">
     <defs>
      <path d="M 8.296875 58.890625 
L 11.1875 62.3125 
Q 15.09375 66.796875 19 66.796875 
Q 20.90625 66.796875 23.171875 65.671875 
Q 25.4375 64.546875 27.703125 63.421875 
Q 29.984375 62.3125 31.890625 62.3125 
Q 35.890625 62.3125 39.59375 66.796875 
L 41.609375 65.09375 
L 38.71875 61.71875 
Q 34.765625 57.171875 30.90625 57.171875 
Q 29 57.171875 26.734375 58.3125 
Q 24.46875 59.46875 22.1875 60.59375 
Q 19.921875 61.71875 18.015625 61.71875 
Q 14.015625 61.71875 10.296875 57.171875 
z
" id="Cmr10-126"/>
     </defs>
     <use transform="translate(2.506348 0.11276)" xlink:href="#Cmr10-126"/>
     <use transform="translate(0 0.597135)" xlink:href="#Cmmi10-99"/>
     <use transform="translate(47.677031 104.202344)scale(0.7)" xlink:href="#Cmex10-173"/>
     <use transform="translate(80.728789 38.861198)scale(0.7)" xlink:href="#Cmmi10-116"/>
     <use transform="translate(105.987578 104.202344)scale(0.7)" xlink:href="#Cmex10-174"/>
    </g>
   </g>
   <g id="text_14">
    <g id="patch_23">
     <path d="M 440.189856 130.047857 
L 467.229856 130.047857 
L 467.229856 108.077857 
L 440.189856 108.077857 
z
" style="fill:#ffffff;"/>
    </g>
    <!-- $c^{\langle t \rangle}$ -->
    <g transform="translate(444.089856 123.444263)scale(0.13 -0.13)">
     <use transform="translate(0 0.597135)" xlink:href="#Cmmi10-99"/>
     <use transform="translate(49.516172 104.202344)scale(0.7)" xlink:href="#Cmex10-173"/>
     <use transform="translate(82.56793 38.861198)scale(0.7)" xlink:href="#Cmmi10-116"/>
     <use transform="translate(107.826719 104.202344)scale(0.7)" xlink:href="#Cmex10-174"/>
    </g>
   </g>
   <g id="patch_24">
    <path d="M 437.074257 119.062857 
Q 409.832821 119.062857 381.47335 119.062857 
" style="fill:none;stroke:#000000;stroke-linecap:round;"/>
    <path d="M 433.074257 117.062857 
L 437.074257 119.062857 
L 433.074257 121.062857 
" style="fill:none;stroke:#000000;stroke-linecap:round;"/>
   </g>
   <g id="text_15">
    <g id="patch_25">
     <path d="M 385.974837 77.48221 
L 438.624837 77.48221 
L 438.624837 57.100647 
L 385.974837 57.100647 
z
" style="fill:#ffffff;stroke:#000000;stroke-linejoin:miter;"/>
    </g>
    <!-- $\mathrm{softmax}}$ -->
    <g transform="translate(389.874837 70.878616)scale(0.13 -0.13)">
     <use transform="translate(0 0.484375)" xlink:href="#Cmr10-115"/>
     <use transform="translate(39.404297 0.484375)" xlink:href="#Cmr10-111"/>
     <use transform="translate(89.404297 0.484375)" xlink:href="#Cmr10-102"/>
     <use transform="translate(119.921875 0.484375)" xlink:href="#Cmr10-116"/>
     <use transform="translate(158.740234 0.484375)" xlink:href="#Cmr10-109"/>
     <use transform="translate(242.041016 0.484375)" xlink:href="#Cmr10-97"/>
     <use transform="translate(292.041016 0.484375)" xlink:href="#Cmr10-120"/>
    </g>
   </g>
   <g id="patch_26">
    <path d="M 411.840808 80.566431 
Q 407.570947 107.499433 381.329705 118.327384 
" style="fill:none;stroke:#000000;stroke-linecap:round;"/>
    <path d="M 409.239154 84.20393 
L 411.840808 80.566431 
L 413.189814 84.830253 
" style="fill:none;stroke:#000000;stroke-linecap:round;"/>
   </g>
   <g id="text_16">
    <g id="patch_27">
     <path d="M 398.389837 27.74 
L 426.209837 27.74 
L 426.209837 3.3 
L 398.389837 3.3 
z
" style="fill:#ffffff;"/>
    </g>
    <!-- $y^{\langle t \rangle}$ -->
    <g transform="translate(402.289837 21.11)scale(0.13 -0.13)">
     <use transform="translate(0 0.597135)" xlink:href="#Cmmi10-121"/>
     <use transform="translate(55.326719 104.202344)scale(0.7)" xlink:href="#Cmex10-173"/>
     <use transform="translate(88.378477 38.861198)scale(0.7)" xlink:href="#Cmmi10-116"/>
     <use transform="translate(113.637266 104.202344)scale(0.7)" xlink:href="#Cmex10-174"/>
    </g>
   </g>
   <g id="patch_28">
    <path d="M 412.299837 30.861525 
Q 412.299837 42.42189 412.299837 55.100289 
" style="fill:none;stroke:#000000;stroke-linecap:round;"/>
    <path d="M 410.299837 34.861525 
L 412.299837 30.861525 
L 414.299837 34.861525 
" style="fill:none;stroke:#000000;stroke-linecap:round;"/>
   </g>
  </g>
 </g>
 <defs>
  <clipPath id="p208df3d61e">
   <rect height="217.44" width="202.909091" x="15.59186" y="10.342857"/>
  </clipPath>
 </defs>
</svg>
