<?xml version="1.0" encoding="utf-8" standalone="no"?>
<!DOCTYPE svg PUBLIC "-//W3C//DTD SVG 1.1//EN"
  "http://www.w3.org/Graphics/SVG/1.1/DTD/svg11.dtd">
<!-- Created with matplotlib (https://matplotlib.org/) -->
<svg height="231.84pt" version="1.1" viewBox="0 0 460.8 231.84" width="460.8pt" xmlns="http://www.w3.org/2000/svg" xmlns:xlink="http://www.w3.org/1999/xlink">
 <metadata>
  <rdf:RDF xmlns:cc="http://creativecommons.org/ns#" xmlns:dc="http://purl.org/dc/elements/1.1/" xmlns:rdf="http://www.w3.org/1999/02/22-rdf-syntax-ns#">
   <cc:Work>
    <dc:type rdf:resource="http://purl.org/dc/dcmitype/StillImage"/>
    <dc:date>2021-05-24T20:26:09.304640</dc:date>
    <dc:format>image/svg+xml</dc:format>
    <dc:creator>
     <cc:Agent>
      <dc:title>Matplotlib v3.3.4, https://matplotlib.org/</dc:title>
     </cc:Agent>
    </dc:creator>
   </cc:Work>
  </rdf:RDF>
 </metadata>
 <defs>
  <style type="text/css">*{stroke-linecap:butt;stroke-linejoin:round;}</style>
 </defs>
 <g id="figure_1">
  <g id="patch_1">
   <path d="M 0 231.84 
L 460.8 231.84 
L 460.8 0 
L 0 0 
z
" style="fill:none;"/>
  </g>
  <g id="axes_1">
   <g id="text_1">
    <g id="patch_2">
     <path d="M 29.385 225.741364 
L 59.415 225.741364 
L 59.415 203.771364 
L 29.385 203.771364 
z
" style="fill:#ffffff;"/>
    </g>
    <!-- $x^{\langle 1 \rangle} $ -->
    <g transform="translate(33.285 219.13777)scale(0.13 -0.13)">
     <defs>
      <path d="M 7.8125 2.875 
Q 9.578125 1.515625 12.796875 1.515625 
Q 15.921875 1.515625 18.3125 4.515625 
Q 20.703125 7.515625 21.578125 11.078125 
L 26.125 28.8125 
Q 27.203125 33.640625 27.203125 35.40625 
Q 27.203125 37.890625 25.8125 39.75 
Q 24.421875 41.609375 21.921875 41.609375 
Q 18.75 41.609375 15.96875 39.625 
Q 13.1875 37.640625 11.28125 34.59375 
Q 9.375 31.546875 8.59375 28.421875 
Q 8.40625 27.78125 7.8125 27.78125 
L 6.59375 27.78125 
Q 5.8125 27.78125 5.8125 28.71875 
L 5.8125 29 
Q 6.78125 32.71875 9.125 36.25 
Q 11.46875 39.796875 14.859375 41.984375 
Q 18.265625 44.1875 22.125 44.1875 
Q 25.78125 44.1875 28.734375 42.234375 
Q 31.6875 40.28125 32.90625 36.921875 
Q 34.625 39.984375 37.28125 42.078125 
Q 39.9375 44.1875 43.109375 44.1875 
Q 45.265625 44.1875 47.5 43.421875 
Q 49.75 42.671875 51.171875 41.109375 
Q 52.59375 39.546875 52.59375 37.203125 
Q 52.59375 34.671875 50.953125 32.828125 
Q 49.3125 31 46.78125 31 
Q 45.171875 31 44.09375 32.03125 
Q 43.015625 33.0625 43.015625 34.625 
Q 43.015625 36.71875 44.453125 38.296875 
Q 45.90625 39.890625 47.90625 40.1875 
Q 46.09375 41.609375 42.921875 41.609375 
Q 39.703125 41.609375 37.328125 38.625 
Q 34.96875 35.640625 33.984375 31.984375 
L 29.59375 14.3125 
Q 28.515625 10.296875 28.515625 7.71875 
Q 28.515625 5.171875 29.953125 3.34375 
Q 31.390625 1.515625 33.796875 1.515625 
Q 38.484375 1.515625 42.15625 5.640625 
Q 45.84375 9.765625 47.015625 14.703125 
Q 47.21875 15.28125 47.796875 15.28125 
L 49.03125 15.28125 
Q 49.421875 15.28125 49.65625 15.015625 
Q 49.90625 14.75 49.90625 14.40625 
Q 49.90625 14.3125 49.8125 14.109375 
Q 48.390625 8.15625 43.84375 3.515625 
Q 39.3125 -1.125 33.59375 -1.125 
Q 29.9375 -1.125 26.984375 0.84375 
Q 24.03125 2.828125 22.796875 6.203125 
Q 21.234375 3.265625 18.46875 1.0625 
Q 15.71875 -1.125 12.59375 -1.125 
Q 10.453125 -1.125 8.171875 -0.359375 
Q 5.90625 0.390625 4.484375 1.953125 
Q 3.078125 3.515625 3.078125 5.90625 
Q 3.078125 8.25 4.703125 10.171875 
Q 6.34375 12.109375 8.796875 12.109375 
Q 10.453125 12.109375 11.578125 11.109375 
Q 12.703125 10.109375 12.703125 8.5 
Q 12.703125 6.390625 11.296875 4.828125 
Q 9.90625 3.265625 7.8125 2.875 
z
" id="Cmmi10-120"/>
      <path d="M 35.5 -114.796875 
L 10.015625 -56.78125 
Q 9.8125 -56.5 9.8125 -56 
Q 9.8125 -55.515625 10.015625 -55.328125 
L 35.5 2.78125 
Q 35.984375 4 37.3125 4 
Q 38.03125 4 38.671875 3.359375 
Q 39.3125 2.734375 39.3125 2 
Q 39.3125 1.515625 39.203125 1.3125 
L 14.015625 -56 
L 39.203125 -113.28125 
Q 39.3125 -113.484375 39.3125 -114.015625 
Q 39.3125 -114.75 38.671875 -115.375 
Q 38.03125 -116.015625 37.3125 -116.015625 
Q 36.03125 -116.015625 35.5 -114.796875 
z
" id="Cmex10-173"/>
      <path d="M 9.28125 0 
L 9.28125 3.515625 
Q 21.78125 3.515625 21.78125 6.6875 
L 21.78125 59.1875 
Q 16.609375 56.6875 8.6875 56.6875 
L 8.6875 60.203125 
Q 20.953125 60.203125 27.203125 66.609375 
L 28.609375 66.609375 
Q 28.953125 66.609375 29.265625 66.328125 
Q 29.59375 66.0625 29.59375 65.71875 
L 29.59375 6.6875 
Q 29.59375 3.515625 42.09375 3.515625 
L 42.09375 0 
z
" id="Cmr10-49"/>
      <path d="M 7.8125 -114.015625 
Q 7.8125 -113.484375 8.015625 -113.28125 
L 33.109375 -56 
L 8.015625 1.3125 
Q 7.8125 1.515625 7.8125 2 
Q 7.8125 2.734375 8.390625 3.359375 
Q 8.984375 4 9.8125 4 
Q 10.984375 4 11.71875 2.78125 
L 37.203125 -55.328125 
Q 37.3125 -55.515625 37.3125 -56 
Q 37.3125 -56.5 37.203125 -56.78125 
L 11.71875 -114.796875 
Q 10.9375 -116.015625 9.8125 -116.015625 
Q 8.984375 -116.015625 8.390625 -115.375 
Q 7.8125 -114.75 7.8125 -114.015625 
z
" id="Cmex10-174"/>
     </defs>
     <use transform="translate(0 0.597135)" xlink:href="#Cmmi10-120"/>
     <use transform="translate(63.383359 104.202344)scale(0.7)" xlink:href="#Cmex10-173"/>
     <use transform="translate(96.435117 38.861198)scale(0.7)" xlink:href="#Cmr10-49"/>
     <use transform="translate(131.435117 104.202344)scale(0.7)" xlink:href="#Cmex10-174"/>
    </g>
   </g>
   <g id="text_2">
    <g id="patch_3">
     <path d="M 3.87 127.035 
L 35.33 127.035 
L 35.33 104.805 
L 3.87 104.805 
z
" style="fill:#ffffff;stroke:#000000;stroke-linejoin:miter;"/>
    </g>
    <!-- $\overrightarrow{a}^{\;\langle 1 \rangle} $ -->
    <g transform="translate(7.77 120.431406)scale(0.13 -0.13)">
     <defs>
      <path d="M 7.515625 23 
Q 6.6875 23 6.140625 23.625 
Q 5.609375 24.265625 5.609375 25 
Q 5.609375 25.734375 6.140625 26.359375 
Q 6.6875 27 7.515625 27 
L 83.40625 27 
Q 79.59375 29.734375 76.65625 33.328125 
Q 73.734375 36.921875 71.78125 41.046875 
Q 69.828125 45.171875 69 49.8125 
Q 69 51.125 70.015625 51.125 
L 72.015625 51.125 
Q 72.359375 51.125 72.625 50.828125 
Q 72.90625 50.53125 73 50.203125 
Q 73.828125 45.90625 75.609375 42.21875 
Q 77.390625 38.53125 80.078125 35.34375 
Q 82.765625 32.171875 86.078125 29.875 
Q 89.40625 27.59375 93.609375 26.125 
Q 94.28125 25.6875 94.28125 25 
Q 94.28125 24.21875 93.609375 24.03125 
Q 88.375 22.21875 84.03125 18.625 
Q 79.6875 15.046875 76.859375 10.1875 
Q 74.03125 5.328125 73 -0.203125 
Q 72.90625 -0.53125 72.609375 -0.828125 
Q 72.3125 -1.125 72.015625 -1.125 
L 70.015625 -1.125 
Q 69 -1.125 69 0.203125 
Q 70.265625 7.03125 74.0625 13.0625 
Q 77.875 19.09375 83.40625 23 
z
" id="Cmsy10-33"/>
      <path d="M 17.390625 -1.125 
Q 11.078125 -1.125 7.4375 3.640625 
Q 3.8125 8.40625 3.8125 14.890625 
Q 3.8125 21.296875 7.125 28.171875 
Q 10.453125 35.0625 16.09375 39.625 
Q 21.734375 44.1875 28.21875 44.1875 
Q 31.203125 44.1875 33.546875 42.578125 
Q 35.890625 40.96875 37.203125 38.1875 
Q 38.328125 42.1875 41.609375 42.1875 
Q 42.875 42.1875 43.71875 41.421875 
Q 44.578125 40.671875 44.578125 39.40625 
Q 44.578125 39.109375 44.546875 38.953125 
Q 44.53125 38.8125 44.484375 38.625 
L 37.5 10.6875 
Q 36.8125 7.71875 36.8125 5.8125 
Q 36.8125 1.515625 39.703125 1.515625 
Q 42.828125 1.515625 44.453125 5.484375 
Q 46.09375 9.46875 47.21875 14.703125 
Q 47.40625 15.28125 48 15.28125 
L 49.21875 15.28125 
Q 49.609375 15.28125 49.84375 14.9375 
Q 50.09375 14.59375 50.09375 14.3125 
Q 48.34375 7.328125 46.265625 3.09375 
Q 44.1875 -1.125 39.5 -1.125 
Q 36.140625 -1.125 33.546875 0.84375 
Q 30.953125 2.828125 30.328125 6.109375 
Q 23.875 -1.125 17.390625 -1.125 
z
M 17.484375 1.515625 
Q 21.09375 1.515625 24.484375 4.21875 
Q 27.875 6.9375 30.328125 10.59375 
Q 30.421875 10.6875 30.421875 10.890625 
L 35.796875 32.625 
L 35.890625 32.90625 
Q 35.296875 36.46875 33.3125 39.03125 
Q 31.34375 41.609375 27.984375 41.609375 
Q 24.609375 41.609375 21.703125 38.84375 
Q 18.796875 36.078125 16.796875 32.328125 
Q 14.84375 28.328125 13.0625 21.34375 
Q 11.28125 14.359375 11.28125 10.5 
Q 11.28125 7.03125 12.765625 4.265625 
Q 14.265625 1.515625 17.484375 1.515625 
z
" id="Cmmi10-97"/>
     </defs>
     <use transform="translate(-17.413574 57.875)" xlink:href="#Cmsy10-33"/>
     <use transform="translate(0 0.0625)" xlink:href="#Cmmi10-97"/>
     <use transform="translate(74.318335 103.667708)scale(0.7)" xlink:href="#Cmex10-173"/>
     <use transform="translate(107.370093 38.326562)scale(0.7)" xlink:href="#Cmr10-49"/>
     <use transform="translate(142.370093 103.667708)scale(0.7)" xlink:href="#Cmex10-174"/>
    </g>
   </g>
   <g id="patch_4">
    <path d="M 20.559886 130.005086 
Q 32.000272 165.404022 43.784479 201.866813 
" style="fill:none;stroke:#000000;stroke-linecap:round;"/>
    <path d="M 19.685 135.752658 
L 20.559886 130.005086 
L 24.633012 134.153537 
" style="fill:none;stroke:#000000;stroke-linecap:round;"/>
   </g>
   <g id="text_3">
    <g id="patch_5">
     <path d="M 30.035 29.303636 
L 58.765 29.303636 
L 58.765 4.863636 
L 30.035 4.863636 
z
" style="fill:#ffffff;"/>
    </g>
    <!-- $\hat{y}^{\langle 1 \rangle} $ -->
    <g transform="translate(33.935 22.673636)scale(0.13 -0.13)">
     <defs>
      <path d="M 13.484375 53.8125 
L 11.53125 55.90625 
L 25 69.390625 
L 38.375 55.90625 
L 36.375 53.8125 
L 25 63.8125 
z
" id="Cmr10-94"/>
      <path d="M 8.40625 -14.3125 
Q 10.5 -17.921875 15.71875 -17.921875 
Q 20.453125 -17.921875 23.921875 -14.59375 
Q 27.390625 -11.28125 29.515625 -6.5625 
Q 31.640625 -1.859375 32.8125 3.078125 
Q 28.375 -1.125 23.1875 -1.125 
Q 19.234375 -1.125 16.453125 0.234375 
Q 13.671875 1.609375 12.125 4.3125 
Q 10.59375 7.03125 10.59375 10.890625 
Q 10.59375 14.15625 11.46875 17.59375 
Q 12.359375 21.046875 13.9375 25.265625 
Q 15.53125 29.5 16.703125 32.625 
Q 18.015625 36.28125 18.015625 38.625 
Q 18.015625 41.609375 15.828125 41.609375 
Q 11.859375 41.609375 9.296875 37.53125 
Q 6.734375 33.453125 5.515625 28.421875 
Q 5.328125 27.78125 4.6875 27.78125 
L 3.515625 27.78125 
Q 2.6875 27.78125 2.6875 28.71875 
L 2.6875 29 
Q 4.296875 34.96875 7.609375 39.578125 
Q 10.9375 44.1875 16.015625 44.1875 
Q 19.578125 44.1875 22.046875 41.84375 
Q 24.515625 39.5 24.515625 35.890625 
Q 24.515625 34.03125 23.6875 31.984375 
Q 23.25 30.765625 21.6875 26.65625 
Q 20.125 22.5625 19.28125 19.875 
Q 18.453125 17.1875 17.921875 14.59375 
Q 17.390625 12.015625 17.390625 9.421875 
Q 17.390625 6.109375 18.796875 3.8125 
Q 20.21875 1.515625 23.296875 1.515625 
Q 29.5 1.515625 34.421875 9.078125 
L 42 39.890625 
Q 42.328125 41.21875 43.546875 42.15625 
Q 44.78125 43.109375 46.1875 43.109375 
Q 47.40625 43.109375 48.3125 42.328125 
Q 49.21875 41.546875 49.21875 40.28125 
Q 49.21875 39.703125 49.125 39.5 
L 39.203125 -0.296875 
Q 37.890625 -5.421875 34.375 -10.109375 
Q 30.859375 -14.796875 25.90625 -17.65625 
Q 20.953125 -20.515625 15.578125 -20.515625 
Q 12.984375 -20.515625 10.4375 -19.5 
Q 7.90625 -18.5 6.34375 -16.5 
Q 4.78125 -14.5 4.78125 -11.8125 
Q 4.78125 -9.078125 6.390625 -7.078125 
Q 8.015625 -5.078125 10.6875 -5.078125 
Q 12.3125 -5.078125 13.40625 -6.078125 
Q 14.5 -7.078125 14.5 -8.6875 
Q 14.5 -10.984375 12.78125 -12.6875 
Q 11.078125 -14.40625 8.796875 -14.40625 
Q 8.6875 -14.359375 8.59375 -14.328125 
Q 8.5 -14.3125 8.40625 -14.3125 
z
" id="Cmmi10-121"/>
     </defs>
     <use transform="translate(5.724609 3.472135)" xlink:href="#Cmr10-94"/>
     <use transform="translate(0 0.597135)" xlink:href="#Cmmi10-121"/>
     <use transform="translate(53.487578 104.202344)scale(0.7)" xlink:href="#Cmex10-173"/>
     <use transform="translate(86.539336 38.861198)scale(0.7)" xlink:href="#Cmr10-49"/>
     <use transform="translate(121.539336 104.202344)scale(0.7)" xlink:href="#Cmex10-174"/>
    </g>
   </g>
   <g id="patch_6">
    <path d="M 43.425952 32.269038 
Q 31.999498 67.055845 20.224143 102.904852 
" style="fill:none;stroke:#000000;stroke-linecap:round;"/>
    <path d="M 39.333047 36.397976 
L 43.425952 32.269038 
L 44.273359 38.020725 
" style="fill:none;stroke:#000000;stroke-linecap:round;"/>
   </g>
   <g id="text_4">
    <g id="patch_7">
     <path d="M 53.47 127.035 
L 84.93 127.035 
L 84.93 104.805 
L 53.47 104.805 
z
" style="fill:#ffffff;stroke:#00ff00;stroke-linejoin:miter;"/>
    </g>
    <!-- $\overleftarrow{a}^{\;\langle 1 \rangle} $ -->
    <g transform="translate(57.37 120.431406)scale(0.13 -0.13)">
     <defs>
      <path d="M 26.90625 -0.203125 
Q 26.171875 3.90625 24.390625 7.71875 
Q 22.609375 11.53125 19.921875 14.703125 
Q 17.234375 17.875 13.8125 20.265625 
Q 10.40625 22.65625 6.390625 24.03125 
Q 5.609375 24.171875 5.609375 25 
Q 5.609375 25.734375 6.390625 26.125 
Q 10.453125 27.546875 13.84375 29.859375 
Q 17.234375 32.171875 19.921875 35.34375 
Q 22.609375 38.53125 24.390625 42.328125 
Q 26.171875 46.140625 26.90625 50.203125 
Q 27.15625 51.125 27.875 51.125 
L 29.890625 51.125 
Q 30.90625 51.125 30.90625 49.8125 
Q 29.78125 43.171875 26 37.15625 
Q 22.21875 31.15625 16.5 27 
L 92.390625 27 
Q 93.21875 27 93.75 26.359375 
Q 94.28125 25.734375 94.28125 25 
Q 94.28125 24.265625 93.75 23.625 
Q 93.21875 23 92.390625 23 
L 16.5 23 
Q 22.125 19 25.953125 12.921875 
Q 29.78125 6.84375 30.90625 0.203125 
Q 30.90625 -1.125 29.890625 -1.125 
L 27.875 -1.125 
Q 27.15625 -1.125 26.90625 -0.203125 
z
" id="Cmsy10-195"/>
     </defs>
     <use transform="translate(-17.413574 57.875)" xlink:href="#Cmsy10-195"/>
     <use transform="translate(0 0.0625)" xlink:href="#Cmmi10-97"/>
     <use transform="translate(74.318335 103.667708)scale(0.7)" xlink:href="#Cmex10-173"/>
     <use transform="translate(107.370093 38.326562)scale(0.7)" xlink:href="#Cmr10-49"/>
     <use transform="translate(142.370093 103.667708)scale(0.7)" xlink:href="#Cmex10-174"/>
    </g>
   </g>
   <g id="patch_8">
    <path d="M 68.240114 130.005086 
Q 56.799728 165.404022 45.015521 201.866813 
" style="fill:none;stroke:#00ff00;stroke-linecap:round;"/>
    <path d="M 64.166988 134.153537 
L 68.240114 130.005086 
L 69.115 135.752658 
" style="fill:none;stroke:#00ff00;stroke-linecap:round;"/>
   </g>
   <g id="patch_9">
    <path d="M 45.374048 32.269038 
Q 56.800502 67.055845 68.575857 102.904852 
" style="fill:none;stroke:#00ff00;stroke-linecap:round;"/>
    <path d="M 44.526641 38.020725 
L 45.374048 32.269038 
L 49.466953 36.397976 
" style="fill:none;stroke:#00ff00;stroke-linecap:round;"/>
   </g>
   <g id="text_5">
    <g id="patch_10">
     <path d="M 153.385 225.741364 
L 183.415 225.741364 
L 183.415 203.771364 
L 153.385 203.771364 
z
" style="fill:#ffffff;"/>
    </g>
    <!-- $x^{\langle 2 \rangle} $ -->
    <g transform="translate(157.285 219.13777)scale(0.13 -0.13)">
     <defs>
      <path d="M 4.984375 0 
L 4.984375 2.6875 
Q 4.984375 2.9375 5.171875 3.21875 
L 20.703125 20.40625 
Q 24.21875 24.21875 26.40625 26.796875 
Q 28.609375 29.390625 30.75 32.765625 
Q 32.90625 36.140625 34.15625 39.625 
Q 35.40625 43.109375 35.40625 47.015625 
Q 35.40625 51.125 33.890625 54.859375 
Q 32.375 58.59375 29.375 60.84375 
Q 26.375 63.09375 22.125 63.09375 
Q 17.78125 63.09375 14.3125 60.46875 
Q 10.84375 57.859375 9.421875 53.71875 
Q 9.8125 53.8125 10.5 53.8125 
Q 12.75 53.8125 14.328125 52.296875 
Q 15.921875 50.78125 15.921875 48.390625 
Q 15.921875 46.09375 14.328125 44.5 
Q 12.75 42.921875 10.5 42.921875 
Q 8.15625 42.921875 6.5625 44.546875 
Q 4.984375 46.1875 4.984375 48.390625 
Q 4.984375 52.15625 6.390625 55.4375 
Q 7.8125 58.734375 10.46875 61.296875 
Q 13.140625 63.875 16.484375 65.234375 
Q 19.828125 66.609375 23.578125 66.609375 
Q 29.296875 66.609375 34.21875 64.1875 
Q 39.15625 61.765625 42.03125 57.34375 
Q 44.921875 52.9375 44.921875 47.015625 
Q 44.921875 42.671875 43.015625 38.765625 
Q 41.109375 34.859375 38.125 31.65625 
Q 35.15625 28.46875 30.515625 24.40625 
Q 25.875 20.359375 24.421875 19 
L 13.09375 8.109375 
L 22.703125 8.109375 
Q 29.78125 8.109375 34.546875 8.21875 
Q 39.3125 8.34375 39.59375 8.59375 
Q 40.765625 9.859375 42 17.828125 
L 44.921875 17.828125 
L 42.09375 0 
z
" id="Cmr10-50"/>
     </defs>
     <use transform="translate(0 0.597135)" xlink:href="#Cmmi10-120"/>
     <use transform="translate(63.383359 104.202344)scale(0.7)" xlink:href="#Cmex10-173"/>
     <use transform="translate(96.435117 38.861198)scale(0.7)" xlink:href="#Cmr10-50"/>
     <use transform="translate(131.435117 104.202344)scale(0.7)" xlink:href="#Cmex10-174"/>
    </g>
   </g>
   <g id="text_6">
    <g id="patch_11">
     <path d="M 127.87 127.035 
L 159.33 127.035 
L 159.33 104.805 
L 127.87 104.805 
z
" style="fill:#ffffff;stroke:#000000;stroke-linejoin:miter;"/>
    </g>
    <!-- $\overrightarrow{a}^{\;\langle 2 \rangle} $ -->
    <g transform="translate(131.77 120.431406)scale(0.13 -0.13)">
     <use transform="translate(-17.413574 57.875)" xlink:href="#Cmsy10-33"/>
     <use transform="translate(0 0.0625)" xlink:href="#Cmmi10-97"/>
     <use transform="translate(74.318335 103.667708)scale(0.7)" xlink:href="#Cmex10-173"/>
     <use transform="translate(107.370093 38.326562)scale(0.7)" xlink:href="#Cmr10-50"/>
     <use transform="translate(142.370093 103.667708)scale(0.7)" xlink:href="#Cmex10-174"/>
    </g>
   </g>
   <g id="patch_12">
    <path d="M 144.559886 130.005086 
Q 156.000272 165.404022 167.784479 201.866813 
" style="fill:none;stroke:#000000;stroke-linecap:round;"/>
    <path d="M 143.685 135.752658 
L 144.559886 130.005086 
L 148.633012 134.153537 
" style="fill:none;stroke:#000000;stroke-linecap:round;"/>
   </g>
   <g id="text_7">
    <g id="patch_13">
     <path d="M 154.035 29.303636 
L 182.765 29.303636 
L 182.765 4.863636 
L 154.035 4.863636 
z
" style="fill:#ffffff;"/>
    </g>
    <!-- $\hat{y}^{\langle 2 \rangle} $ -->
    <g transform="translate(157.935 22.673636)scale(0.13 -0.13)">
     <use transform="translate(5.724609 3.472135)" xlink:href="#Cmr10-94"/>
     <use transform="translate(0 0.597135)" xlink:href="#Cmmi10-121"/>
     <use transform="translate(53.487578 104.202344)scale(0.7)" xlink:href="#Cmex10-173"/>
     <use transform="translate(86.539336 38.861198)scale(0.7)" xlink:href="#Cmr10-50"/>
     <use transform="translate(121.539336 104.202344)scale(0.7)" xlink:href="#Cmex10-174"/>
    </g>
   </g>
   <g id="patch_14">
    <path d="M 167.425952 32.269038 
Q 155.999498 67.055845 144.224143 102.904852 
" style="fill:none;stroke:#000000;stroke-linecap:round;"/>
    <path d="M 163.333047 36.397976 
L 167.425952 32.269038 
L 168.273359 38.020725 
" style="fill:none;stroke:#000000;stroke-linecap:round;"/>
   </g>
   <g id="text_8">
    <g id="patch_15">
     <path d="M 177.47 127.035 
L 208.93 127.035 
L 208.93 104.805 
L 177.47 104.805 
z
" style="fill:#ffffff;stroke:#00ff00;stroke-linejoin:miter;"/>
    </g>
    <!-- $\overleftarrow{a}^{\;\langle 2 \rangle} $ -->
    <g transform="translate(181.37 120.431406)scale(0.13 -0.13)">
     <use transform="translate(-17.413574 57.875)" xlink:href="#Cmsy10-195"/>
     <use transform="translate(0 0.0625)" xlink:href="#Cmmi10-97"/>
     <use transform="translate(74.318335 103.667708)scale(0.7)" xlink:href="#Cmex10-173"/>
     <use transform="translate(107.370093 38.326562)scale(0.7)" xlink:href="#Cmr10-50"/>
     <use transform="translate(142.370093 103.667708)scale(0.7)" xlink:href="#Cmex10-174"/>
    </g>
   </g>
   <g id="patch_16">
    <path d="M 192.240114 130.005086 
Q 180.799728 165.404022 169.015521 201.866813 
" style="fill:none;stroke:#00ff00;stroke-linecap:round;"/>
    <path d="M 188.166988 134.153537 
L 192.240114 130.005086 
L 193.115 135.752658 
" style="fill:none;stroke:#00ff00;stroke-linecap:round;"/>
   </g>
   <g id="patch_17">
    <path d="M 169.374048 32.269038 
Q 180.800502 67.055845 192.575857 102.904852 
" style="fill:none;stroke:#00ff00;stroke-linecap:round;"/>
    <path d="M 168.526641 38.020725 
L 169.374048 32.269038 
L 173.466953 36.397976 
" style="fill:none;stroke:#00ff00;stroke-linecap:round;"/>
   </g>
   <g id="patch_18">
    <path d="M 125.06901 103.441408 
Q 81.60201 82.550241 37.127321 103.923793 
" style="fill:none;stroke:#000000;stroke-linecap:round;"/>
    <path d="M 121.50851 98.845449 
L 125.06901 103.441408 
L 119.255942 103.532232 
" style="fill:none;stroke:#000000;stroke-linecap:round;"/>
   </g>
   <g id="patch_19">
    <path d="M 87.73099 128.398592 
Q 131.19799 149.289759 175.672679 127.916207 
" style="fill:none;stroke:#00ff00;stroke-linecap:round;"/>
    <path d="M 91.29149 132.994551 
L 87.73099 128.398592 
L 93.544058 128.307768 
" style="fill:none;stroke:#00ff00;stroke-linecap:round;"/>
   </g>
   <g id="text_9">
    <g id="patch_20">
     <path d="M 277.385 225.741364 
L 307.415 225.741364 
L 307.415 203.771364 
L 277.385 203.771364 
z
" style="fill:#ffffff;"/>
    </g>
    <!-- $x^{\langle 3 \rangle} $ -->
    <g transform="translate(281.285 219.13777)scale(0.13 -0.13)">
     <defs>
      <path d="M 9.515625 7.71875 
Q 11.859375 4.296875 15.8125 2.640625 
Q 19.78125 0.984375 24.3125 0.984375 
Q 30.125 0.984375 32.5625 5.9375 
Q 35.015625 10.890625 35.015625 17.1875 
Q 35.015625 20.015625 34.5 22.84375 
Q 33.984375 25.6875 32.765625 28.125 
Q 31.546875 30.5625 29.421875 32.03125 
Q 27.296875 33.5 24.21875 33.5 
L 17.578125 33.5 
Q 16.703125 33.5 16.703125 34.421875 
L 16.703125 35.296875 
Q 16.703125 36.078125 17.578125 36.078125 
L 23.09375 36.53125 
Q 26.609375 36.53125 28.921875 39.15625 
Q 31.25 41.796875 32.328125 45.578125 
Q 33.40625 49.359375 33.40625 52.78125 
Q 33.40625 57.5625 31.15625 60.640625 
Q 28.90625 63.71875 24.3125 63.71875 
Q 20.515625 63.71875 17.046875 62.28125 
Q 13.578125 60.84375 11.53125 57.90625 
Q 11.71875 57.953125 11.859375 57.984375 
Q 12.015625 58.015625 12.203125 58.015625 
Q 14.453125 58.015625 15.96875 56.453125 
Q 17.484375 54.890625 17.484375 52.6875 
Q 17.484375 50.53125 15.96875 48.96875 
Q 14.453125 47.40625 12.203125 47.40625 
Q 10.015625 47.40625 8.453125 48.96875 
Q 6.890625 50.53125 6.890625 52.6875 
Q 6.890625 56.984375 9.46875 60.15625 
Q 12.0625 63.328125 16.140625 64.96875 
Q 20.21875 66.609375 24.3125 66.609375 
Q 27.34375 66.609375 30.703125 65.703125 
Q 34.078125 64.796875 36.8125 63.109375 
Q 39.546875 61.421875 41.28125 58.78125 
Q 43.015625 56.15625 43.015625 52.78125 
Q 43.015625 48.578125 41.140625 45.015625 
Q 39.265625 41.453125 35.984375 38.859375 
Q 32.71875 36.28125 28.8125 35.015625 
Q 33.15625 34.1875 37.0625 31.734375 
Q 40.96875 29.296875 43.328125 25.484375 
Q 45.703125 21.6875 45.703125 17.28125 
Q 45.703125 11.765625 42.671875 7.296875 
Q 39.65625 2.828125 34.71875 0.3125 
Q 29.78125 -2.203125 24.3125 -2.203125 
Q 19.625 -2.203125 14.90625 -0.40625 
Q 10.203125 1.375 7.203125 4.9375 
Q 4.203125 8.5 4.203125 13.484375 
Q 4.203125 15.96875 5.859375 17.625 
Q 7.515625 19.28125 10.015625 19.28125 
Q 11.625 19.28125 12.96875 18.53125 
Q 14.3125 17.78125 15.0625 16.40625 
Q 15.828125 15.046875 15.828125 13.484375 
Q 15.828125 11.03125 14.109375 9.375 
Q 12.40625 7.71875 10.015625 7.71875 
z
" id="Cmr10-51"/>
     </defs>
     <use transform="translate(0 0.597135)" xlink:href="#Cmmi10-120"/>
     <use transform="translate(63.383359 104.202344)scale(0.7)" xlink:href="#Cmex10-173"/>
     <use transform="translate(96.435117 38.861198)scale(0.7)" xlink:href="#Cmr10-51"/>
     <use transform="translate(131.435117 104.202344)scale(0.7)" xlink:href="#Cmex10-174"/>
    </g>
   </g>
   <g id="text_10">
    <g id="patch_21">
     <path d="M 251.87 127.035 
L 283.33 127.035 
L 283.33 104.805 
L 251.87 104.805 
z
" style="fill:#ffffff;stroke:#000000;stroke-linejoin:miter;"/>
    </g>
    <!-- $\overrightarrow{a}^{\;\langle 3 \rangle} $ -->
    <g transform="translate(255.77 120.431406)scale(0.13 -0.13)">
     <use transform="translate(-17.413574 57.875)" xlink:href="#Cmsy10-33"/>
     <use transform="translate(0 0.0625)" xlink:href="#Cmmi10-97"/>
     <use transform="translate(74.318335 103.667708)scale(0.7)" xlink:href="#Cmex10-173"/>
     <use transform="translate(107.370093 38.326562)scale(0.7)" xlink:href="#Cmr10-51"/>
     <use transform="translate(142.370093 103.667708)scale(0.7)" xlink:href="#Cmex10-174"/>
    </g>
   </g>
   <g id="patch_22">
    <path d="M 268.559886 130.005086 
Q 280.000272 165.404022 291.784479 201.866813 
" style="fill:none;stroke:#000000;stroke-linecap:round;"/>
    <path d="M 267.685 135.752658 
L 268.559886 130.005086 
L 272.633012 134.153537 
" style="fill:none;stroke:#000000;stroke-linecap:round;"/>
   </g>
   <g id="text_11">
    <g id="patch_23">
     <path d="M 278.035 29.303636 
L 306.765 29.303636 
L 306.765 4.863636 
L 278.035 4.863636 
z
" style="fill:#ffffff;"/>
    </g>
    <!-- $\hat{y}^{\langle 3 \rangle} $ -->
    <g transform="translate(281.935 22.673636)scale(0.13 -0.13)">
     <use transform="translate(5.724609 3.472135)" xlink:href="#Cmr10-94"/>
     <use transform="translate(0 0.597135)" xlink:href="#Cmmi10-121"/>
     <use transform="translate(53.487578 104.202344)scale(0.7)" xlink:href="#Cmex10-173"/>
     <use transform="translate(86.539336 38.861198)scale(0.7)" xlink:href="#Cmr10-51"/>
     <use transform="translate(121.539336 104.202344)scale(0.7)" xlink:href="#Cmex10-174"/>
    </g>
   </g>
   <g id="patch_24">
    <path d="M 291.425952 32.269038 
Q 279.999498 67.055845 268.224143 102.904852 
" style="fill:none;stroke:#000000;stroke-linecap:round;"/>
    <path d="M 287.333047 36.397976 
L 291.425952 32.269038 
L 292.273359 38.020725 
" style="fill:none;stroke:#000000;stroke-linecap:round;"/>
   </g>
   <g id="text_12">
    <g id="patch_25">
     <path d="M 301.47 127.035 
L 332.93 127.035 
L 332.93 104.805 
L 301.47 104.805 
z
" style="fill:#ffffff;stroke:#00ff00;stroke-linejoin:miter;"/>
    </g>
    <!-- $\overleftarrow{a}^{\;\langle 3 \rangle} $ -->
    <g transform="translate(305.37 120.431406)scale(0.13 -0.13)">
     <use transform="translate(-17.413574 57.875)" xlink:href="#Cmsy10-195"/>
     <use transform="translate(0 0.0625)" xlink:href="#Cmmi10-97"/>
     <use transform="translate(74.318335 103.667708)scale(0.7)" xlink:href="#Cmex10-173"/>
     <use transform="translate(107.370093 38.326562)scale(0.7)" xlink:href="#Cmr10-51"/>
     <use transform="translate(142.370093 103.667708)scale(0.7)" xlink:href="#Cmex10-174"/>
    </g>
   </g>
   <g id="patch_26">
    <path d="M 316.240114 130.005086 
Q 304.799728 165.404022 293.015521 201.866813 
" style="fill:none;stroke:#00ff00;stroke-linecap:round;"/>
    <path d="M 312.166988 134.153537 
L 316.240114 130.005086 
L 317.115 135.752658 
" style="fill:none;stroke:#00ff00;stroke-linecap:round;"/>
   </g>
   <g id="patch_27">
    <path d="M 293.374048 32.269038 
Q 304.800502 67.055845 316.575857 102.904852 
" style="fill:none;stroke:#00ff00;stroke-linecap:round;"/>
    <path d="M 292.526641 38.020725 
L 293.374048 32.269038 
L 297.466953 36.397976 
" style="fill:none;stroke:#00ff00;stroke-linecap:round;"/>
   </g>
   <g id="patch_28">
    <path d="M 249.06901 103.441408 
Q 205.60201 82.550241 161.127321 103.923793 
" style="fill:none;stroke:#000000;stroke-linecap:round;"/>
    <path d="M 245.50851 98.845449 
L 249.06901 103.441408 
L 243.255942 103.532232 
" style="fill:none;stroke:#000000;stroke-linecap:round;"/>
   </g>
   <g id="patch_29">
    <path d="M 211.73099 128.398592 
Q 255.19799 149.289759 299.672679 127.916207 
" style="fill:none;stroke:#00ff00;stroke-linecap:round;"/>
    <path d="M 215.29149 132.994551 
L 211.73099 128.398592 
L 217.544058 128.307768 
" style="fill:none;stroke:#00ff00;stroke-linecap:round;"/>
   </g>
   <g id="text_13">
    <g id="patch_30">
     <path d="M 401.385 225.741364 
L 431.415 225.741364 
L 431.415 203.771364 
L 401.385 203.771364 
z
" style="fill:#ffffff;"/>
    </g>
    <!-- $x^{\langle 4 \rangle} $ -->
    <g transform="translate(405.285 219.13777)scale(0.13 -0.13)">
     <defs>
      <path d="M 2.78125 16.5 
L 2.78125 20.015625 
L 33.6875 66.109375 
Q 34.03125 66.609375 34.71875 66.609375 
L 36.1875 66.609375 
Q 37.3125 66.609375 37.3125 65.484375 
L 37.3125 20.015625 
L 47.125 20.015625 
L 47.125 16.5 
L 37.3125 16.5 
L 37.3125 6.6875 
Q 37.3125 4.640625 40.234375 4.078125 
Q 43.171875 3.515625 47.015625 3.515625 
L 47.015625 0 
L 19.484375 0 
L 19.484375 3.515625 
Q 23.34375 3.515625 26.265625 4.078125 
Q 29.203125 4.640625 29.203125 6.6875 
L 29.203125 16.5 
z
M 6.109375 20.015625 
L 29.78125 20.015625 
L 29.78125 55.421875 
z
" id="Cmr10-52"/>
     </defs>
     <use transform="translate(0 0.597135)" xlink:href="#Cmmi10-120"/>
     <use transform="translate(63.383359 104.202344)scale(0.7)" xlink:href="#Cmex10-173"/>
     <use transform="translate(96.435117 38.861198)scale(0.7)" xlink:href="#Cmr10-52"/>
     <use transform="translate(131.435117 104.202344)scale(0.7)" xlink:href="#Cmex10-174"/>
    </g>
   </g>
   <g id="text_14">
    <g id="patch_31">
     <path d="M 375.87 127.035 
L 407.33 127.035 
L 407.33 104.805 
L 375.87 104.805 
z
" style="fill:#ffffff;stroke:#000000;stroke-linejoin:miter;"/>
    </g>
    <!-- $\overrightarrow{a}^{\;\langle 4 \rangle} $ -->
    <g transform="translate(379.77 120.431406)scale(0.13 -0.13)">
     <use transform="translate(-17.413574 57.875)" xlink:href="#Cmsy10-33"/>
     <use transform="translate(0 0.0625)" xlink:href="#Cmmi10-97"/>
     <use transform="translate(74.318335 103.667708)scale(0.7)" xlink:href="#Cmex10-173"/>
     <use transform="translate(107.370093 38.326562)scale(0.7)" xlink:href="#Cmr10-52"/>
     <use transform="translate(142.370093 103.667708)scale(0.7)" xlink:href="#Cmex10-174"/>
    </g>
   </g>
   <g id="patch_32">
    <path d="M 392.559886 130.005086 
Q 404.000272 165.404022 415.784479 201.866813 
" style="fill:none;stroke:#000000;stroke-linecap:round;"/>
    <path d="M 391.685 135.752658 
L 392.559886 130.005086 
L 396.633012 134.153537 
" style="fill:none;stroke:#000000;stroke-linecap:round;"/>
   </g>
   <g id="text_15">
    <g id="patch_33">
     <path d="M 402.035 29.303636 
L 430.765 29.303636 
L 430.765 4.863636 
L 402.035 4.863636 
z
" style="fill:#ffffff;"/>
    </g>
    <!-- $\hat{y}^{\langle 4 \rangle} $ -->
    <g transform="translate(405.935 22.673636)scale(0.13 -0.13)">
     <use transform="translate(5.724609 3.472135)" xlink:href="#Cmr10-94"/>
     <use transform="translate(0 0.597135)" xlink:href="#Cmmi10-121"/>
     <use transform="translate(53.487578 104.202344)scale(0.7)" xlink:href="#Cmex10-173"/>
     <use transform="translate(86.539336 38.861198)scale(0.7)" xlink:href="#Cmr10-52"/>
     <use transform="translate(121.539336 104.202344)scale(0.7)" xlink:href="#Cmex10-174"/>
    </g>
   </g>
   <g id="patch_34">
    <path d="M 415.425952 32.269038 
Q 403.999498 67.055845 392.224143 102.904852 
" style="fill:none;stroke:#000000;stroke-linecap:round;"/>
    <path d="M 411.333047 36.397976 
L 415.425952 32.269038 
L 416.273359 38.020725 
" style="fill:none;stroke:#000000;stroke-linecap:round;"/>
   </g>
   <g id="text_16">
    <g id="patch_35">
     <path d="M 425.47 127.035 
L 456.93 127.035 
L 456.93 104.805 
L 425.47 104.805 
z
" style="fill:#ffffff;stroke:#00ff00;stroke-linejoin:miter;"/>
    </g>
    <!-- $\overleftarrow{a}^{\;\langle 4 \rangle} $ -->
    <g transform="translate(429.37 120.431406)scale(0.13 -0.13)">
     <use transform="translate(-17.413574 57.875)" xlink:href="#Cmsy10-195"/>
     <use transform="translate(0 0.0625)" xlink:href="#Cmmi10-97"/>
     <use transform="translate(74.318335 103.667708)scale(0.7)" xlink:href="#Cmex10-173"/>
     <use transform="translate(107.370093 38.326562)scale(0.7)" xlink:href="#Cmr10-52"/>
     <use transform="translate(142.370093 103.667708)scale(0.7)" xlink:href="#Cmex10-174"/>
    </g>
   </g>
   <g id="patch_36">
    <path d="M 440.240114 130.005086 
Q 428.799728 165.404022 417.015521 201.866813 
" style="fill:none;stroke:#00ff00;stroke-linecap:round;"/>
    <path d="M 436.166988 134.153537 
L 440.240114 130.005086 
L 441.115 135.752658 
" style="fill:none;stroke:#00ff00;stroke-linecap:round;"/>
   </g>
   <g id="patch_37">
    <path d="M 417.374048 32.269038 
Q 428.800502 67.055845 440.575857 102.904852 
" style="fill:none;stroke:#00ff00;stroke-linecap:round;"/>
    <path d="M 416.526641 38.020725 
L 417.374048 32.269038 
L 421.466953 36.397976 
" style="fill:none;stroke:#00ff00;stroke-linecap:round;"/>
   </g>
   <g id="patch_38">
    <path d="M 373.06901 103.441408 
Q 329.60201 82.550241 285.127321 103.923793 
" style="fill:none;stroke:#000000;stroke-linecap:round;"/>
    <path d="M 369.50851 98.845449 
L 373.06901 103.441408 
L 367.255942 103.532232 
" style="fill:none;stroke:#000000;stroke-linecap:round;"/>
   </g>
   <g id="patch_39">
    <path d="M 335.73099 128.398592 
Q 379.19799 149.289759 423.672679 127.916207 
" style="fill:none;stroke:#00ff00;stroke-linecap:round;"/>
    <path d="M 339.29149 132.994551 
L 335.73099 128.398592 
L 341.544058 128.307768 
" style="fill:none;stroke:#00ff00;stroke-linecap:round;"/>
   </g>
  </g>
 </g>
</svg>
