<?xml version="1.0" encoding="utf-8" standalone="no"?>
<!DOCTYPE svg PUBLIC "-//W3C//DTD SVG 1.1//EN"
  "http://www.w3.org/Graphics/SVG/1.1/DTD/svg11.dtd">
<!-- Created with matplotlib (https://matplotlib.org/) -->
<svg height="340.56pt" version="1.1" viewBox="0 0 685.309805 340.56" width="685.309805pt" xmlns="http://www.w3.org/2000/svg" xmlns:xlink="http://www.w3.org/1999/xlink">
 <metadata>
  <rdf:RDF xmlns:cc="http://creativecommons.org/ns#" xmlns:dc="http://purl.org/dc/elements/1.1/" xmlns:rdf="http://www.w3.org/1999/02/22-rdf-syntax-ns#">
   <cc:Work>
    <dc:type rdf:resource="http://purl.org/dc/dcmitype/StillImage"/>
    <dc:date>2021-05-24T19:36:02.005138</dc:date>
    <dc:format>image/svg+xml</dc:format>
    <dc:creator>
     <cc:Agent>
      <dc:title>Matplotlib v3.3.4, https://matplotlib.org/</dc:title>
     </cc:Agent>
    </dc:creator>
   </cc:Work>
  </rdf:RDF>
 </metadata>
 <defs>
  <style type="text/css">*{stroke-linecap:butt;stroke-linejoin:round;}</style>
 </defs>
 <g id="figure_1">
  <g id="patch_1">
   <path d="M 0 340.56 
L 685.309805 340.56 
L 685.309805 0 
L 0 0 
z
" style="fill:none;"/>
  </g>
  <g id="axes_1">
   <g id="patch_2">
    <path clip-path="url(#p1f7bdfa3c1)" d="M 51.990325 280.941429 
L 269.392922 280.941429 
L 269.392922 117.861429 
L 51.990325 117.861429 
z
" style="fill:#808080;opacity:0.2;"/>
   </g>
   <g id="text_1">
    <g id="patch_3">
     <path d="M 3.885 146.319286 
L 45.745 146.319286 
L 45.745 124.349286 
L 3.885 124.349286 
z
" style="fill:#ffffff;"/>
    </g>
    <!-- $c^{\langle t-1 \rangle}$ -->
    <g transform="translate(7.785 139.715692)scale(0.13 -0.13)">
     <defs>
      <path d="M 11.71875 11.921875 
Q 11.71875 7.5625 13.9375 4.53125 
Q 16.15625 1.515625 20.3125 1.515625 
Q 26.265625 1.515625 31.75 4.25 
Q 37.25 6.984375 40.71875 11.8125 
Q 41.015625 12.109375 41.5 12.109375 
Q 42 12.109375 42.5 11.546875 
Q 43.015625 10.984375 43.015625 10.5 
Q 43.015625 10.109375 42.828125 9.90625 
Q 39.15625 4.78125 32.953125 1.828125 
Q 26.765625 -1.125 20.125 -1.125 
Q 15.328125 -1.125 11.671875 1.140625 
Q 8.015625 3.421875 6 7.21875 
Q 4 11.03125 4 15.828125 
Q 4 22.5625 7.765625 29.203125 
Q 11.53125 35.84375 17.78125 40.015625 
Q 24.03125 44.1875 30.90625 44.1875 
Q 35.40625 44.1875 38.984375 42.015625 
Q 42.578125 39.84375 42.578125 35.59375 
Q 42.578125 32.859375 40.984375 30.921875 
Q 39.40625 29 36.71875 29 
Q 35.109375 29 34 30 
Q 32.90625 31 32.90625 32.625 
Q 32.90625 34.96875 34.609375 36.625 
Q 36.328125 38.28125 38.625 38.28125 
L 38.8125 38.28125 
Q 37.640625 39.984375 35.421875 40.796875 
Q 33.203125 41.609375 30.8125 41.609375 
Q 24.953125 41.609375 20.546875 36.59375 
Q 16.15625 31.59375 13.9375 24.625 
Q 11.71875 17.671875 11.71875 11.921875 
z
" id="Cmmi10-99"/>
      <path d="M 35.5 -114.796875 
L 10.015625 -56.78125 
Q 9.8125 -56.5 9.8125 -56 
Q 9.8125 -55.515625 10.015625 -55.328125 
L 35.5 2.78125 
Q 35.984375 4 37.3125 4 
Q 38.03125 4 38.671875 3.359375 
Q 39.3125 2.734375 39.3125 2 
Q 39.3125 1.515625 39.203125 1.3125 
L 14.015625 -56 
L 39.203125 -113.28125 
Q 39.3125 -113.484375 39.3125 -114.015625 
Q 39.3125 -114.75 38.671875 -115.375 
Q 38.03125 -116.015625 37.3125 -116.015625 
Q 36.03125 -116.015625 35.5 -114.796875 
z
" id="Cmex10-173"/>
      <path d="M 6.203125 8.109375 
Q 6.203125 9.578125 6.5 10.890625 
L 13.71875 39.59375 
L 3.21875 39.59375 
Q 2.203125 39.59375 2.203125 40.921875 
Q 2.59375 43.109375 3.515625 43.109375 
L 14.59375 43.109375 
L 18.609375 59.421875 
Q 19 60.75 20.171875 61.671875 
Q 21.34375 62.59375 22.796875 62.59375 
Q 24.078125 62.59375 24.921875 61.828125 
Q 25.78125 61.078125 25.78125 59.8125 
Q 25.78125 59.515625 25.75 59.34375 
Q 25.734375 59.1875 25.6875 58.984375 
L 21.6875 43.109375 
L 31.984375 43.109375 
Q 33.015625 43.109375 33.015625 41.796875 
Q 32.953125 41.546875 32.8125 40.953125 
Q 32.671875 40.375 32.421875 39.984375 
Q 32.171875 39.59375 31.6875 39.59375 
L 20.796875 39.59375 
L 13.625 10.6875 
Q 12.890625 7.859375 12.890625 5.8125 
Q 12.890625 1.515625 15.828125 1.515625 
Q 20.21875 1.515625 23.609375 5.640625 
Q 27 9.765625 28.8125 14.703125 
Q 29.203125 15.28125 29.59375 15.28125 
L 30.8125 15.28125 
Q 31.203125 15.28125 31.4375 15.015625 
Q 31.6875 14.75 31.6875 14.40625 
Q 31.6875 14.203125 31.59375 14.109375 
Q 29.390625 8.0625 25.1875 3.46875 
Q 21 -1.125 15.578125 -1.125 
Q 11.625 -1.125 8.90625 1.453125 
Q 6.203125 4.046875 6.203125 8.109375 
z
" id="Cmmi10-116"/>
      <path d="M 10.203125 23 
Q 9.375 23 8.828125 23.625 
Q 8.296875 24.265625 8.296875 25 
Q 8.296875 25.734375 8.828125 26.359375 
Q 9.375 27 10.203125 27 
L 67.578125 27 
Q 68.359375 27 68.875 26.359375 
Q 69.390625 25.734375 69.390625 25 
Q 69.390625 24.265625 68.875 23.625 
Q 68.359375 23 67.578125 23 
z
" id="Cmsy10-161"/>
      <path d="M 9.28125 0 
L 9.28125 3.515625 
Q 21.78125 3.515625 21.78125 6.6875 
L 21.78125 59.1875 
Q 16.609375 56.6875 8.6875 56.6875 
L 8.6875 60.203125 
Q 20.953125 60.203125 27.203125 66.609375 
L 28.609375 66.609375 
Q 28.953125 66.609375 29.265625 66.328125 
Q 29.59375 66.0625 29.59375 65.71875 
L 29.59375 6.6875 
Q 29.59375 3.515625 42.09375 3.515625 
L 42.09375 0 
z
" id="Cmr10-49"/>
      <path d="M 7.8125 -114.015625 
Q 7.8125 -113.484375 8.015625 -113.28125 
L 33.109375 -56 
L 8.015625 1.3125 
Q 7.8125 1.515625 7.8125 2 
Q 7.8125 2.734375 8.390625 3.359375 
Q 8.984375 4 9.8125 4 
Q 10.984375 4 11.71875 2.78125 
L 37.203125 -55.328125 
Q 37.3125 -55.515625 37.3125 -56 
Q 37.3125 -56.5 37.203125 -56.78125 
L 11.71875 -114.796875 
Q 10.9375 -116.015625 9.8125 -116.015625 
Q 8.984375 -116.015625 8.390625 -115.375 
Q 7.8125 -114.75 7.8125 -114.015625 
z
" id="Cmex10-174"/>
     </defs>
     <use transform="translate(0 0.597135)" xlink:href="#Cmmi10-99"/>
     <use transform="translate(49.516172 104.202344)scale(0.7)" xlink:href="#Cmex10-173"/>
     <use transform="translate(82.56793 38.861198)scale(0.7)" xlink:href="#Cmmi10-116"/>
     <use transform="translate(120.117734 38.861198)scale(0.7)" xlink:href="#Cmsy10-161"/>
     <use transform="translate(186.788633 38.861198)scale(0.7)" xlink:href="#Cmr10-49"/>
     <use transform="translate(221.788633 104.202344)scale(0.7)" xlink:href="#Cmex10-174"/>
    </g>
   </g>
   <g id="text_2">
    <g id="patch_4">
     <path d="M 3.3 216.210714 
L 46.33 216.210714 
L 46.33 194.240714 
L 3.3 194.240714 
z
" style="fill:#ffffff;"/>
    </g>
    <!-- $a^{\langle t-1 \rangle}$ -->
    <g transform="translate(7.2 209.607121)scale(0.13 -0.13)">
     <defs>
      <path d="M 17.390625 -1.125 
Q 11.078125 -1.125 7.4375 3.640625 
Q 3.8125 8.40625 3.8125 14.890625 
Q 3.8125 21.296875 7.125 28.171875 
Q 10.453125 35.0625 16.09375 39.625 
Q 21.734375 44.1875 28.21875 44.1875 
Q 31.203125 44.1875 33.546875 42.578125 
Q 35.890625 40.96875 37.203125 38.1875 
Q 38.328125 42.1875 41.609375 42.1875 
Q 42.875 42.1875 43.71875 41.421875 
Q 44.578125 40.671875 44.578125 39.40625 
Q 44.578125 39.109375 44.546875 38.953125 
Q 44.53125 38.8125 44.484375 38.625 
L 37.5 10.6875 
Q 36.8125 7.71875 36.8125 5.8125 
Q 36.8125 1.515625 39.703125 1.515625 
Q 42.828125 1.515625 44.453125 5.484375 
Q 46.09375 9.46875 47.21875 14.703125 
Q 47.40625 15.28125 48 15.28125 
L 49.21875 15.28125 
Q 49.609375 15.28125 49.84375 14.9375 
Q 50.09375 14.59375 50.09375 14.3125 
Q 48.34375 7.328125 46.265625 3.09375 
Q 44.1875 -1.125 39.5 -1.125 
Q 36.140625 -1.125 33.546875 0.84375 
Q 30.953125 2.828125 30.328125 6.109375 
Q 23.875 -1.125 17.390625 -1.125 
z
M 17.484375 1.515625 
Q 21.09375 1.515625 24.484375 4.21875 
Q 27.875 6.9375 30.328125 10.59375 
Q 30.421875 10.6875 30.421875 10.890625 
L 35.796875 32.625 
L 35.890625 32.90625 
Q 35.296875 36.46875 33.3125 39.03125 
Q 31.34375 41.609375 27.984375 41.609375 
Q 24.609375 41.609375 21.703125 38.84375 
Q 18.796875 36.078125 16.796875 32.328125 
Q 14.84375 28.328125 13.0625 21.34375 
Q 11.28125 14.359375 11.28125 10.5 
Q 11.28125 7.03125 12.765625 4.265625 
Q 14.265625 1.515625 17.484375 1.515625 
z
" id="Cmmi10-97"/>
     </defs>
     <use transform="translate(0 0.597135)" xlink:href="#Cmmi10-97"/>
     <use transform="translate(59.086484 104.202344)scale(0.7)" xlink:href="#Cmex10-173"/>
     <use transform="translate(92.138242 38.861198)scale(0.7)" xlink:href="#Cmmi10-116"/>
     <use transform="translate(129.688047 38.861198)scale(0.7)" xlink:href="#Cmsy10-161"/>
     <use transform="translate(196.358945 38.861198)scale(0.7)" xlink:href="#Cmr10-49"/>
     <use transform="translate(231.358945 104.202344)scale(0.7)" xlink:href="#Cmex10-174"/>
    </g>
   </g>
   <g id="text_3">
    <g id="patch_5">
     <path d="M 68.245649 262.285 
L 90.085649 262.285 
L 90.085649 241.355 
L 68.245649 241.355 
z
" style="fill:#ffffff;stroke:#000000;stroke-linejoin:miter;"/>
    </g>
    <!-- $\Gamma_f$ -->
    <g transform="translate(72.145649 254.225)scale(0.13 -0.13)">
     <defs>
      <path d="M 3.078125 0 
L 3.078125 3.515625 
Q 13.375 3.515625 13.375 6.6875 
L 13.375 61.625 
Q 13.375 64.796875 3.078125 64.796875 
L 3.078125 68.3125 
L 55.421875 68.3125 
L 58.203125 45.40625 
L 55.328125 45.40625 
Q 54.59375 51.765625 53.640625 55.21875 
Q 52.6875 58.6875 50.734375 60.8125 
Q 48.78125 62.9375 45.265625 63.859375 
Q 41.75 64.796875 35.5 64.796875 
L 27.78125 64.796875 
Q 25.984375 64.796875 24.96875 64.640625 
Q 23.96875 64.5 23.328125 63.796875 
Q 22.703125 63.09375 22.703125 61.625 
L 22.703125 6.6875 
Q 22.703125 3.515625 35.5 3.515625 
L 35.5 0 
z
" id="Cmr10-161"/>
      <path d="M 9.71875 -16.5 
Q 11.578125 -17.921875 14.203125 -17.921875 
Q 17.78125 -17.921875 20.015625 -10.015625 
Q 20.953125 -6.203125 25.09375 15.09375 
L 29.6875 39.59375 
L 21.09375 39.59375 
Q 20.125 39.59375 20.125 40.921875 
Q 20.515625 43.109375 21.390625 43.109375 
L 30.328125 43.109375 
L 31.5 49.609375 
Q 32.078125 52.640625 32.5625 54.8125 
Q 33.0625 56.984375 33.625 58.828125 
Q 34.1875 60.6875 35.296875 62.984375 
Q 37.015625 66.265625 39.921875 68.390625 
Q 42.828125 70.515625 46.1875 70.515625 
Q 48.390625 70.515625 50.46875 69.703125 
Q 52.546875 68.890625 53.859375 67.28125 
Q 55.171875 65.671875 55.171875 63.484375 
Q 55.171875 60.9375 53.484375 59.046875 
Q 51.8125 57.171875 49.421875 57.171875 
Q 47.796875 57.171875 46.65625 58.171875 
Q 45.515625 59.1875 45.515625 60.796875 
Q 45.515625 62.984375 47 64.625 
Q 48.484375 66.265625 50.6875 66.5 
Q 48.828125 67.921875 46.09375 67.921875 
Q 44.578125 67.921875 43.234375 66.5 
Q 41.890625 65.09375 41.5 63.484375 
Q 40.875 60.9375 38.71875 49.703125 
L 37.5 43.109375 
L 47.796875 43.109375 
Q 48.78125 43.109375 48.78125 41.796875 
Q 48.734375 41.546875 48.578125 40.9375 
Q 48.4375 40.328125 48.171875 39.953125 
Q 47.90625 39.59375 47.515625 39.59375 
L 36.8125 39.59375 
L 32.171875 15.1875 
Q 31.296875 9.859375 30.140625 4.359375 
Q 29 -1.125 26.921875 -6.90625 
Q 24.859375 -12.703125 21.625 -16.609375 
Q 18.40625 -20.515625 14.015625 -20.515625 
Q 10.640625 -20.515625 7.984375 -18.578125 
Q 5.328125 -16.65625 5.328125 -13.484375 
Q 5.328125 -10.9375 6.953125 -9.046875 
Q 8.59375 -7.171875 11.078125 -7.171875 
Q 12.75 -7.171875 13.859375 -8.171875 
Q 14.984375 -9.1875 14.984375 -10.796875 
Q 14.984375 -12.9375 13.390625 -14.71875 
Q 11.8125 -16.5 9.71875 -16.5 
z
" id="Cmmi10-102"/>
     </defs>
     <use transform="translate(0 0.6875)" xlink:href="#Cmr10-161"/>
     <use transform="translate(66.964141 -16.31875)scale(0.7)" xlink:href="#Cmmi10-102"/>
    </g>
   </g>
   <g id="patch_6">
    <path d="M 79.165649 265.404384 
L 79.165649 272.972785 
L 24.815 272.972785 
L 24.815 218.20972 
" style="fill:none;stroke:#000000;stroke-linecap:round;"/>
    <path d="M 76.565649 270.604384 
L 79.165649 265.404384 
L 81.765649 270.604384 
" style="fill:none;stroke:#000000;stroke-linecap:round;"/>
   </g>
   <g id="text_4">
    <g id="patch_7">
     <path d="M 122.206299 262.010781 
L 144.826299 262.010781 
L 144.826299 241.629219 
L 122.206299 241.629219 
z
" style="fill:#ffffff;stroke:#000000;stroke-linejoin:miter;"/>
    </g>
    <!-- $\Gamma_u$ -->
    <g transform="translate(126.106299 255.407187)scale(0.13 -0.13)">
     <defs>
      <path d="M 10.59375 10.890625 
Q 10.59375 14.15625 11.46875 17.59375 
Q 12.359375 21.046875 13.9375 25.265625 
Q 15.53125 29.5 16.703125 32.625 
Q 18.015625 36.28125 18.015625 38.625 
Q 18.015625 41.609375 15.828125 41.609375 
Q 11.859375 41.609375 9.296875 37.53125 
Q 6.734375 33.453125 5.515625 28.421875 
Q 5.328125 27.78125 4.6875 27.78125 
L 3.515625 27.78125 
Q 2.6875 27.78125 2.6875 28.71875 
L 2.6875 29 
Q 4.296875 34.96875 7.609375 39.578125 
Q 10.9375 44.1875 16.015625 44.1875 
Q 19.578125 44.1875 22.046875 41.84375 
Q 24.515625 39.5 24.515625 35.890625 
Q 24.515625 34.03125 23.6875 31.984375 
Q 23.25 30.765625 21.6875 26.65625 
Q 20.125 22.5625 19.28125 19.875 
Q 18.453125 17.1875 17.921875 14.59375 
Q 17.390625 12.015625 17.390625 9.421875 
Q 17.390625 6.109375 18.796875 3.8125 
Q 20.21875 1.515625 23.390625 1.515625 
Q 29.78125 1.515625 34.625 9.421875 
Q 34.71875 9.8125 34.78125 10.171875 
Q 34.859375 10.546875 34.90625 10.890625 
L 42.09375 39.890625 
Q 42.4375 41.21875 43.65625 42.15625 
Q 44.875 43.109375 46.296875 43.109375 
Q 47.515625 43.109375 48.40625 42.328125 
Q 49.3125 41.546875 49.3125 40.28125 
Q 49.3125 39.703125 49.21875 39.5 
L 42 10.6875 
Q 41.3125 7.71875 41.3125 5.8125 
Q 41.3125 1.515625 44.1875 1.515625 
Q 47.40625 1.515625 49 5.484375 
Q 50.59375 9.46875 51.703125 14.703125 
Q 51.90625 15.28125 52.484375 15.28125 
L 53.71875 15.28125 
Q 54.109375 15.28125 54.34375 14.9375 
Q 54.59375 14.59375 54.59375 14.3125 
Q 53.515625 10.015625 52.515625 6.9375 
Q 51.515625 3.859375 49.359375 1.359375 
Q 47.21875 -1.125 44 -1.125 
Q 40.828125 -1.125 38.3125 0.609375 
Q 35.796875 2.34375 34.90625 5.328125 
Q 32.625 2.390625 29.59375 0.625 
Q 26.5625 -1.125 23.1875 -1.125 
Q 17.4375 -1.125 14.015625 2.015625 
Q 10.59375 5.171875 10.59375 10.890625 
z
" id="Cmmi10-117"/>
     </defs>
     <use transform="translate(0 0.6875)" xlink:href="#Cmr10-161"/>
     <use transform="translate(66.964141 -16.31875)scale(0.7)" xlink:href="#Cmmi10-117"/>
    </g>
   </g>
   <g id="patch_8">
    <path d="M 133.516299 265.128509 
L 133.516299 272.606831 
L 79.165649 272.606831 
L 79.165649 264.283343 
" style="fill:none;stroke:#000000;stroke-linecap:round;"/>
    <path d="M 130.916299 270.328509 
L 133.516299 265.128509 
L 136.116299 270.328509 
" style="fill:none;stroke:#000000;stroke-linecap:round;"/>
   </g>
   <g id="text_5">
    <g id="patch_9">
     <path d="M 170.966948 262.010781 
L 204.766948 262.010781 
L 204.766948 241.629219 
L 170.966948 241.629219 
z
" style="fill:#ffffff;stroke:#000000;stroke-linejoin:miter;"/>
    </g>
    <!-- $\tanh$ -->
    <g transform="translate(174.866948 255.407187)scale(0.13 -0.13)">
     <defs>
      <path d="M 10.203125 12.015625 
L 10.203125 39.59375 
L 1.90625 39.59375 
L 1.90625 42.1875 
Q 8.453125 42.1875 11.515625 48.28125 
Q 14.59375 54.390625 14.59375 61.53125 
L 17.484375 61.53125 
L 17.484375 43.109375 
L 31.59375 43.109375 
L 31.59375 39.59375 
L 17.484375 39.59375 
L 17.484375 12.203125 
Q 17.484375 8.0625 18.875 4.9375 
Q 20.265625 1.8125 23.875 1.8125 
Q 27.296875 1.8125 28.8125 5.109375 
Q 30.328125 8.40625 30.328125 12.203125 
L 30.328125 18.109375 
L 33.203125 18.109375 
L 33.203125 12.015625 
Q 33.203125 8.890625 32.046875 5.828125 
Q 30.90625 2.78125 28.65625 0.828125 
Q 26.421875 -1.125 23.1875 -1.125 
Q 17.1875 -1.125 13.6875 2.46875 
Q 10.203125 6.0625 10.203125 12.015625 
z
" id="Cmr10-116"/>
      <path d="M 4 9.8125 
Q 4 15.765625 8.6875 19.5 
Q 13.375 23.25 19.9375 24.78125 
Q 26.515625 26.3125 32.421875 26.3125 
L 32.421875 30.421875 
Q 32.421875 33.296875 31.15625 36 
Q 29.890625 38.71875 27.484375 40.453125 
Q 25.09375 42.1875 22.21875 42.1875 
Q 15.578125 42.1875 12.109375 39.203125 
Q 14.015625 39.203125 15.25 37.765625 
Q 16.5 36.328125 16.5 34.421875 
Q 16.5 32.421875 15.078125 31 
Q 13.671875 29.59375 11.71875 29.59375 
Q 9.71875 29.59375 8.296875 31 
Q 6.890625 32.421875 6.890625 34.421875 
Q 6.890625 39.703125 11.671875 42.265625 
Q 16.453125 44.828125 22.21875 44.828125 
Q 26.265625 44.828125 30.359375 43.09375 
Q 34.46875 41.359375 37.078125 38.125 
Q 39.703125 34.90625 39.703125 30.609375 
L 39.703125 8.109375 
Q 39.703125 6.15625 40.53125 4.515625 
Q 41.359375 2.875 43.109375 2.875 
Q 44.78125 2.875 45.578125 4.53125 
Q 46.390625 6.203125 46.390625 8.109375 
L 46.390625 14.5 
L 49.3125 14.5 
L 49.3125 8.109375 
Q 49.3125 5.859375 48.140625 3.828125 
Q 46.96875 1.8125 44.984375 0.609375 
Q 43.015625 -0.59375 40.71875 -0.59375 
Q 37.796875 -0.59375 35.671875 1.671875 
Q 33.546875 3.953125 33.296875 7.078125 
Q 31.453125 3.328125 27.828125 1.09375 
Q 24.21875 -1.125 20.125 -1.125 
Q 16.3125 -1.125 12.625 0 
Q 8.9375 1.125 6.46875 3.53125 
Q 4 5.953125 4 9.8125 
z
M 12.109375 9.8125 
Q 12.109375 6.296875 14.6875 3.90625 
Q 17.28125 1.515625 20.796875 1.515625 
Q 24.03125 1.515625 26.65625 3.125 
Q 29.296875 4.734375 30.859375 7.515625 
Q 32.421875 10.296875 32.421875 13.375 
L 32.421875 23.78125 
Q 27.875 23.78125 23.109375 22.28125 
Q 18.359375 20.796875 15.234375 17.625 
Q 12.109375 14.453125 12.109375 9.8125 
z
" id="Cmr10-97"/>
      <path d="M 2.984375 0 
L 2.984375 3.515625 
Q 6.390625 3.515625 8.59375 4.046875 
Q 10.796875 4.59375 10.796875 6.6875 
L 10.796875 33.984375 
Q 10.796875 36.671875 9.984375 37.859375 
Q 9.1875 39.0625 7.671875 39.328125 
Q 6.15625 39.59375 2.984375 39.59375 
L 2.984375 43.109375 
L 17.484375 44.1875 
L 17.484375 34.421875 
Q 19.484375 38.71875 23.40625 41.453125 
Q 27.34375 44.1875 31.984375 44.1875 
Q 38.921875 44.1875 42.40625 40.859375 
Q 45.90625 37.546875 45.90625 30.71875 
L 45.90625 6.6875 
Q 45.90625 4.59375 48.09375 4.046875 
Q 50.296875 3.515625 53.71875 3.515625 
L 53.71875 0 
L 30.8125 0 
L 30.8125 3.515625 
Q 34.234375 3.515625 36.421875 4.046875 
Q 38.625 4.59375 38.625 6.6875 
L 38.625 30.421875 
Q 38.625 35.296875 37.203125 38.453125 
Q 35.796875 41.609375 31.390625 41.609375 
Q 25.59375 41.609375 21.84375 36.96875 
Q 18.109375 32.328125 18.109375 26.421875 
L 18.109375 6.6875 
Q 18.109375 4.59375 20.3125 4.046875 
Q 22.515625 3.515625 25.875 3.515625 
L 25.875 0 
z
" id="Cmr10-110"/>
      <path d="M 2.984375 0 
L 2.984375 3.515625 
Q 6.390625 3.515625 8.59375 4.046875 
Q 10.796875 4.59375 10.796875 6.6875 
L 10.796875 59.1875 
Q 10.796875 61.859375 9.984375 63.0625 
Q 9.1875 64.265625 7.671875 64.53125 
Q 6.15625 64.796875 2.984375 64.796875 
L 2.984375 68.3125 
L 17.828125 69.390625 
L 17.828125 35.015625 
Q 19.921875 39.15625 23.671875 41.671875 
Q 27.4375 44.1875 31.984375 44.1875 
Q 38.921875 44.1875 42.40625 40.859375 
Q 45.90625 37.546875 45.90625 30.71875 
L 45.90625 6.6875 
Q 45.90625 4.59375 48.09375 4.046875 
Q 50.296875 3.515625 53.71875 3.515625 
L 53.71875 0 
L 30.8125 0 
L 30.8125 3.515625 
Q 34.234375 3.515625 36.421875 4.046875 
Q 38.625 4.59375 38.625 6.6875 
L 38.625 30.421875 
Q 38.625 35.296875 37.203125 38.453125 
Q 35.796875 41.609375 31.390625 41.609375 
Q 25.59375 41.609375 21.84375 36.96875 
Q 18.109375 32.328125 18.109375 26.421875 
L 18.109375 6.6875 
Q 18.109375 4.59375 20.3125 4.046875 
Q 22.515625 3.515625 25.875 3.515625 
L 25.875 0 
z
" id="Cmr10-104"/>
     </defs>
     <use transform="translate(0 0.609375)" xlink:href="#Cmr10-116"/>
     <use transform="translate(38.818359 0.609375)" xlink:href="#Cmr10-97"/>
     <use transform="translate(88.818359 0.609375)" xlink:href="#Cmr10-110"/>
     <use transform="translate(144.335938 0.609375)" xlink:href="#Cmr10-104"/>
    </g>
   </g>
   <g id="patch_10">
    <path d="M 187.866948 265.127157 
L 187.866948 272.880911 
L 133.516299 272.880911 
L 133.516299 264.009123 
" style="fill:none;stroke:#000000;stroke-linecap:round;"/>
    <path d="M 185.266948 270.327157 
L 187.866948 265.127157 
L 190.466948 270.327157 
" style="fill:none;stroke:#000000;stroke-linecap:round;"/>
   </g>
   <g id="text_6">
    <g id="patch_11">
     <path d="M 231.297597 262.010781 
L 253.137597 262.010781 
L 253.137597 241.629219 
L 231.297597 241.629219 
z
" style="fill:#ffffff;stroke:#000000;stroke-linejoin:miter;"/>
    </g>
    <!-- $\Gamma_o$ -->
    <g transform="translate(235.197597 255.407187)scale(0.13 -0.13)">
     <defs>
      <path d="M 20.125 -1.125 
Q 15.375 -1.125 11.6875 1.125 
Q 8.015625 3.375 6 7.171875 
Q 4 10.984375 4 15.828125 
Q 4 22.609375 7.78125 29.25 
Q 11.578125 35.890625 17.84375 40.03125 
Q 24.125 44.1875 31 44.1875 
Q 34.71875 44.1875 37.625 42.921875 
Q 40.53125 41.65625 42.671875 39.359375 
Q 44.828125 37.0625 45.96875 33.984375 
Q 47.125 30.90625 47.125 27.296875 
Q 47.125 22.078125 44.921875 17.015625 
Q 42.71875 11.96875 38.890625 7.84375 
Q 35.0625 3.71875 30.125 1.296875 
Q 25.203125 -1.125 20.125 -1.125 
z
M 20.3125 1.515625 
Q 24.75 1.515625 28.4375 4.53125 
Q 32.125 7.5625 34.484375 12.171875 
Q 36.859375 16.796875 38.125 21.921875 
Q 39.40625 27.046875 39.40625 31.203125 
Q 39.40625 35.546875 37.234375 38.578125 
Q 35.0625 41.609375 30.8125 41.609375 
Q 24.953125 41.609375 20.546875 36.59375 
Q 16.15625 31.59375 13.9375 24.625 
Q 11.71875 17.671875 11.71875 11.921875 
Q 11.71875 7.5625 13.9375 4.53125 
Q 16.15625 1.515625 20.3125 1.515625 
z
" id="Cmmi10-111"/>
     </defs>
     <use transform="translate(0 0.6875)" xlink:href="#Cmr10-161"/>
     <use transform="translate(66.964141 -16.31875)scale(0.7)" xlink:href="#Cmmi10-111"/>
    </g>
   </g>
   <g id="patch_12">
    <path d="M 242.217597 265.127157 
L 242.217597 272.880911 
L 187.866948 272.880911 
L 187.866948 264.009123 
" style="fill:none;stroke:#000000;stroke-linecap:round;"/>
    <path d="M 239.617597 270.327157 
L 242.217597 265.127157 
L 244.817597 270.327157 
" style="fill:none;stroke:#000000;stroke-linecap:round;"/>
   </g>
   <g id="text_7">
    <g id="patch_13">
     <path d="M 242.217597 215.416496 
C 244.920224 215.416496 247.512522 214.342731 249.423568 212.431685 
C 251.334614 210.520639 252.408379 207.928341 252.408379 205.225714 
C 252.408379 202.523088 251.334614 199.930789 249.423568 198.019744 
C 247.512522 196.108698 244.920224 195.034933 242.217597 195.034933 
C 239.514971 195.034933 236.922673 196.108698 235.011627 198.019744 
C 233.100581 199.930789 232.026816 202.523088 232.026816 205.225714 
C 232.026816 207.928341 233.100581 210.520639 235.011627 212.431685 
C 236.922673 214.342731 239.514971 215.416496 242.217597 215.416496 
z
" style="fill:#ffffff;stroke:#000000;stroke-linejoin:miter;"/>
    </g>
    <!-- $*$ -->
    <g transform="translate(238.967597 208.812902)scale(0.13 -0.13)">
     <defs>
      <path d="M 9.421875 12.703125 
Q 8.296875 12.703125 7.390625 13.640625 
Q 6.5 14.59375 6.5 15.71875 
Q 6.5 17.4375 7.90625 18.109375 
L 22.3125 25 
L 7.90625 31.78125 
Q 6.5 32.375 6.5 34.1875 
Q 6.5 35.296875 7.390625 36.25 
Q 8.296875 37.203125 9.421875 37.203125 
Q 10.15625 37.203125 10.796875 36.71875 
L 23.578125 27.390625 
L 22.125 43.703125 
Q 22.125 44.921875 22.953125 45.703125 
Q 23.78125 46.484375 25 46.484375 
Q 26.171875 46.484375 26.96875 45.75 
Q 27.78125 45.015625 27.78125 43.890625 
L 27.78125 43.703125 
L 26.3125 27.390625 
L 39.109375 36.71875 
Q 39.75 37.203125 40.484375 37.203125 
Q 41.703125 37.203125 42.546875 36.25 
Q 43.40625 35.296875 43.40625 34.1875 
Q 43.40625 32.375 42 31.78125 
L 27.59375 25 
L 42 18.109375 
Q 43.40625 17.4375 43.40625 15.71875 
Q 43.40625 14.59375 42.546875 13.640625 
Q 41.703125 12.703125 40.484375 12.703125 
Q 39.75 12.703125 39.109375 13.1875 
L 26.3125 22.515625 
L 27.78125 6.296875 
L 27.78125 6 
Q 27.78125 4.890625 26.921875 4.15625 
Q 26.078125 3.421875 25 3.421875 
Q 23.828125 3.421875 22.96875 4.21875 
Q 22.125 5.03125 22.125 6.203125 
L 23.578125 22.515625 
L 10.796875 13.1875 
Q 10.15625 12.703125 9.421875 12.703125 
z
" id="Cmsy10-164"/>
     </defs>
     <use transform="translate(0 0.515625)" xlink:href="#Cmsy10-164"/>
    </g>
   </g>
   <g id="patch_14">
    <path d="M 242.217597 218.534402 
Q 242.217597 228.522299 242.217597 239.62823 
" style="fill:none;stroke:#000000;stroke-linecap:round;"/>
    <path d="M 239.617597 223.734402 
L 242.217597 218.534402 
L 244.817597 223.734402 
" style="fill:none;stroke:#000000;stroke-linecap:round;"/>
   </g>
   <g id="text_8">
    <g id="patch_15">
     <path d="M 225.317597 168.82221 
L 259.117597 168.82221 
L 259.117597 148.440647 
L 225.317597 148.440647 
z
" style="fill:#ffffff;stroke:#000000;stroke-linejoin:miter;"/>
    </g>
    <!-- $\tanh$ -->
    <g transform="translate(229.217597 162.218616)scale(0.13 -0.13)">
     <use transform="translate(0 0.609375)" xlink:href="#Cmr10-116"/>
     <use transform="translate(38.818359 0.609375)" xlink:href="#Cmr10-97"/>
     <use transform="translate(88.818359 0.609375)" xlink:href="#Cmr10-110"/>
     <use transform="translate(144.335938 0.609375)" xlink:href="#Cmr10-104"/>
    </g>
   </g>
   <g id="patch_16">
    <path d="M 242.217597 170.822082 
Q 242.217597 181.928013 242.217597 191.91591 
" style="fill:none;stroke:#000000;stroke-linecap:round;"/>
    <path d="M 244.817597 186.71591 
L 242.217597 191.91591 
L 239.617597 186.71591 
" style="fill:none;stroke:#000000;stroke-linecap:round;"/>
   </g>
   <g id="text_9">
    <g id="patch_17">
     <path d="M 282.463247 216.210714 
L 310.673247 216.210714 
L 310.673247 194.240714 
L 282.463247 194.240714 
z
" style="fill:#ffffff;"/>
    </g>
    <!-- $a^{\langle t \rangle}$ -->
    <g transform="translate(286.363247 209.607121)scale(0.13 -0.13)">
     <use transform="translate(0 0.597135)" xlink:href="#Cmmi10-97"/>
     <use transform="translate(59.086484 104.202344)scale(0.7)" xlink:href="#Cmex10-173"/>
     <use transform="translate(92.138242 38.861198)scale(0.7)" xlink:href="#Cmmi10-116"/>
     <use transform="translate(117.397031 104.202344)scale(0.7)" xlink:href="#Cmex10-174"/>
    </g>
   </g>
   <g id="patch_18">
    <path d="M 279.345713 205.225714 
Q 267.434371 205.225714 254.404995 205.225714 
" style="fill:none;stroke:#000000;stroke-linecap:round;"/>
    <path d="M 274.145713 202.625714 
L 279.345713 205.225714 
L 274.145713 207.825714 
" style="fill:none;stroke:#000000;stroke-linecap:round;"/>
   </g>
   <g id="text_10">
    <g id="patch_19">
     <path d="M 79.165649 145.525067 
C 81.868276 145.525067 84.460574 144.451302 86.37162 142.540256 
C 88.282666 140.629211 89.356431 138.036912 89.356431 135.334286 
C 89.356431 132.631659 88.282666 130.039361 86.37162 128.128315 
C 84.460574 126.217269 81.868276 125.143504 79.165649 125.143504 
C 76.463023 125.143504 73.870725 126.217269 71.959679 128.128315 
C 70.048633 130.039361 68.974868 132.631659 68.974868 135.334286 
C 68.974868 138.036912 70.048633 140.629211 71.959679 142.540256 
C 73.870725 144.451302 76.463023 145.525067 79.165649 145.525067 
z
" style="fill:#ffffff;stroke:#000000;stroke-linejoin:miter;"/>
    </g>
    <!-- $*$ -->
    <g transform="translate(75.915649 138.921473)scale(0.13 -0.13)">
     <use transform="translate(0 0.515625)" xlink:href="#Cmsy10-164"/>
    </g>
   </g>
   <g id="patch_20">
    <path d="M 65.857682 135.334286 
Q 57.359435 135.334286 47.743155 135.334286 
" style="fill:none;stroke:#000000;stroke-linecap:round;"/>
    <path d="M 60.657682 132.734286 
L 65.857682 135.334286 
L 60.657682 137.934286 
" style="fill:none;stroke:#000000;stroke-linecap:round;"/>
   </g>
   <g id="patch_21">
    <path d="M 79.165649 148.640533 
Q 79.165649 193.437942 79.165649 239.353385 
" style="fill:none;stroke:#000000;stroke-linecap:round;"/>
    <path d="M 76.565649 153.840533 
L 79.165649 148.640533 
L 81.765649 153.840533 
" style="fill:none;stroke:#000000;stroke-linecap:round;"/>
   </g>
   <g id="text_11">
    <g id="patch_22">
     <path d="M 133.516299 215.416496 
C 136.218925 215.416496 138.811224 214.342731 140.722269 212.431685 
C 142.633315 210.520639 143.70708 207.928341 143.70708 205.225714 
C 143.70708 202.523088 142.633315 199.930789 140.722269 198.019744 
C 138.811224 196.108698 136.218925 195.034933 133.516299 195.034933 
C 130.813672 195.034933 128.221374 196.108698 126.310328 198.019744 
C 124.399282 199.930789 123.325517 202.523088 123.325517 205.225714 
C 123.325517 207.928341 124.399282 210.520639 126.310328 212.431685 
C 128.221374 214.342731 130.813672 215.416496 133.516299 215.416496 
z
" style="fill:#ffffff;stroke:#000000;stroke-linejoin:miter;"/>
    </g>
    <!-- $*$ -->
    <g transform="translate(130.266299 208.812902)scale(0.13 -0.13)">
     <use transform="translate(0 0.515625)" xlink:href="#Cmsy10-164"/>
    </g>
   </g>
   <g id="patch_23">
    <path d="M 133.516299 218.534402 
Q 133.516299 228.522299 133.516299 239.62823 
" style="fill:none;stroke:#000000;stroke-linecap:round;"/>
    <path d="M 130.916299 223.734402 
L 133.516299 218.534402 
L 136.116299 223.734402 
" style="fill:none;stroke:#000000;stroke-linecap:round;"/>
   </g>
   <g id="text_12">
    <g id="patch_24">
     <path d="M 133.516299 145.525067 
C 136.218925 145.525067 138.811224 144.451302 140.722269 142.540256 
C 142.633315 140.629211 143.70708 138.036912 143.70708 135.334286 
C 143.70708 132.631659 142.633315 130.039361 140.722269 128.128315 
C 138.811224 126.217269 136.218925 125.143504 133.516299 125.143504 
C 130.813672 125.143504 128.221374 126.217269 126.310328 128.128315 
C 124.399282 130.039361 123.325517 132.631659 123.325517 135.334286 
C 123.325517 138.036912 124.399282 140.629211 126.310328 142.540256 
C 128.221374 144.451302 130.813672 145.525067 133.516299 145.525067 
z
" style="fill:#ffffff;stroke:#000000;stroke-linejoin:miter;"/>
    </g>
    <!-- $+$ -->
    <g transform="translate(128.446299 138.921473)scale(0.13 -0.13)">
     <defs>
      <path d="M 7.515625 23 
Q 6.6875 23 6.140625 23.625 
Q 5.609375 24.265625 5.609375 25 
Q 5.609375 25.734375 6.140625 26.359375 
Q 6.6875 27 7.515625 27 
L 36.921875 27 
L 36.921875 56.5 
Q 36.921875 57.28125 37.5 57.78125 
Q 38.09375 58.296875 38.921875 58.296875 
Q 39.65625 58.296875 40.28125 57.78125 
Q 40.921875 57.28125 40.921875 56.5 
L 40.921875 27 
L 70.3125 27 
Q 71.046875 27 71.578125 26.359375 
Q 72.125 25.734375 72.125 25 
Q 72.125 24.265625 71.578125 23.625 
Q 71.046875 23 70.3125 23 
L 40.921875 23 
L 40.921875 -6.5 
Q 40.921875 -7.28125 40.28125 -7.78125 
Q 39.65625 -8.296875 38.921875 -8.296875 
Q 38.09375 -8.296875 37.5 -7.78125 
Q 36.921875 -7.28125 36.921875 -6.5 
L 36.921875 23 
z
" id="Cmr10-43"/>
     </defs>
     <use transform="translate(0 0.703125)" xlink:href="#Cmr10-43"/>
    </g>
   </g>
   <g id="patch_25">
    <path d="M 133.516299 148.640539 
Q 133.516299 170.279694 133.516299 193.036882 
" style="fill:none;stroke:#000000;stroke-linecap:round;"/>
    <path d="M 130.916299 153.840539 
L 133.516299 148.640539 
L 136.116299 153.840539 
" style="fill:none;stroke:#000000;stroke-linecap:round;"/>
   </g>
   <g id="patch_26">
    <path d="M 120.204667 135.334286 
Q 106.340463 135.334286 91.358225 135.334286 
" style="fill:none;stroke:#000000;stroke-linecap:round;"/>
    <path d="M 115.004667 132.734286 
L 120.204667 135.334286 
L 115.004667 137.934286 
" style="fill:none;stroke:#000000;stroke-linecap:round;"/>
   </g>
   <g id="patch_27">
    <path d="M 146.827725 205.225714 
L 187.866948 205.225714 
L 187.866948 239.625071 
" style="fill:none;stroke:#000000;stroke-linecap:round;"/>
    <path d="M 152.027725 207.825714 
L 146.827725 205.225714 
L 152.027725 202.625714 
" style="fill:none;stroke:#000000;stroke-linecap:round;"/>
   </g>
   <g id="patch_28">
    <path d="M 242.217597 145.322741 
L 242.217597 135.334286 
L 145.706271 135.334286 
" style="fill:none;stroke:#000000;stroke-linecap:round;"/>
    <path d="M 244.817597 140.122741 
L 242.217597 145.322741 
L 239.617597 140.122741 
" style="fill:none;stroke:#000000;stroke-linecap:round;"/>
   </g>
   <g id="text_13">
    <g id="patch_29">
     <path d="M 283.048247 146.319286 
L 310.088247 146.319286 
L 310.088247 124.349286 
L 283.048247 124.349286 
z
" style="fill:#ffffff;"/>
    </g>
    <!-- $c^{\langle t \rangle}$ -->
    <g transform="translate(286.948247 139.715692)scale(0.13 -0.13)">
     <use transform="translate(0 0.597135)" xlink:href="#Cmmi10-99"/>
     <use transform="translate(49.516172 104.202344)scale(0.7)" xlink:href="#Cmex10-173"/>
     <use transform="translate(82.56793 38.861198)scale(0.7)" xlink:href="#Cmmi10-116"/>
     <use transform="translate(107.826719 104.202344)scale(0.7)" xlink:href="#Cmex10-174"/>
    </g>
   </g>
   <g id="patch_30">
    <path d="M 279.927354 135.334286 
Q 213.375843 135.334286 145.706298 135.334286 
" style="fill:none;stroke:#000000;stroke-linecap:round;"/>
    <path d="M 274.727354 132.734286 
L 279.927354 135.334286 
L 274.727354 137.934286 
" style="fill:none;stroke:#000000;stroke-linecap:round;"/>
   </g>
   <g id="text_14">
    <g id="patch_31">
     <path d="M 237.632857 98.930781 
L 290.282857 98.930781 
L 290.282857 78.549219 
L 237.632857 78.549219 
z
" style="fill:#ffffff;stroke:#000000;stroke-linejoin:miter;"/>
    </g>
    <!-- $\mathrm{softmax}$ -->
    <g transform="translate(241.532857 92.327187)scale(0.13 -0.13)">
     <defs>
      <path d="M 3.328125 -0.296875 
L 3.328125 16.015625 
Q 3.328125 16.796875 4.203125 16.796875 
L 5.421875 16.796875 
Q 6 16.796875 6.203125 16.015625 
Q 8.984375 1.515625 19.671875 1.515625 
Q 24.421875 1.515625 27.609375 3.65625 
Q 30.8125 5.8125 30.8125 10.296875 
Q 30.8125 13.53125 28.3125 15.796875 
Q 25.828125 18.0625 22.40625 18.890625 
L 15.71875 20.21875 
Q 12.359375 20.953125 9.59375 22.453125 
Q 6.84375 23.96875 5.078125 26.484375 
Q 3.328125 29 3.328125 32.328125 
Q 3.328125 36.71875 5.640625 39.515625 
Q 7.953125 42.328125 11.65625 43.578125 
Q 15.375 44.828125 19.671875 44.828125 
Q 24.8125 44.828125 28.609375 42.09375 
L 31.5 44.578125 
Q 31.5 44.828125 31.984375 44.828125 
L 32.71875 44.828125 
Q 33.015625 44.828125 33.25 44.546875 
Q 33.5 44.28125 33.5 44 
L 33.5 30.90625 
Q 33.5 29.984375 32.71875 29.984375 
L 31.5 29.984375 
Q 30.609375 29.984375 30.609375 30.90625 
Q 30.609375 36.140625 27.703125 39.3125 
Q 24.8125 42.484375 19.578125 42.484375 
Q 15.09375 42.484375 11.796875 40.8125 
Q 8.5 39.15625 8.5 35.109375 
Q 8.5 32.328125 10.859375 30.546875 
Q 13.234375 28.765625 16.40625 27.984375 
L 23.1875 26.703125 
Q 26.609375 25.921875 29.5625 24.0625 
Q 32.515625 22.21875 34.25 19.375 
Q 35.984375 16.546875 35.984375 12.984375 
Q 35.984375 9.375 34.734375 6.703125 
Q 33.5 4.046875 31.265625 2.28125 
Q 29.046875 0.53125 26.015625 -0.296875 
Q 23 -1.125 19.671875 -1.125 
Q 13.421875 -1.125 8.984375 3.078125 
L 5.328125 -0.875 
Q 5.328125 -1.125 4.78125 -1.125 
L 4.203125 -1.125 
Q 3.328125 -1.125 3.328125 -0.296875 
z
" id="Cmr10-115"/>
      <path d="M 25 -1.125 
Q 19 -1.125 13.859375 1.921875 
Q 8.734375 4.984375 5.75 10.109375 
Q 2.78125 15.234375 2.78125 21.296875 
Q 2.78125 25.875 4.421875 30.125 
Q 6.0625 34.375 9.109375 37.71875 
Q 12.15625 41.0625 16.203125 42.9375 
Q 20.265625 44.828125 25 44.828125 
Q 31.15625 44.828125 36.203125 41.578125 
Q 41.265625 38.328125 44.1875 32.875 
Q 47.125 27.4375 47.125 21.296875 
Q 47.125 15.28125 44.140625 10.125 
Q 41.15625 4.984375 36.046875 1.921875 
Q 30.953125 -1.125 25 -1.125 
z
M 25 1.8125 
Q 33.015625 1.8125 35.6875 7.609375 
Q 38.375 13.421875 38.375 22.40625 
Q 38.375 27.4375 37.84375 30.734375 
Q 37.3125 34.03125 35.5 36.71875 
Q 34.375 38.375 32.640625 39.625 
Q 30.90625 40.875 28.96875 41.53125 
Q 27.046875 42.1875 25 42.1875 
Q 21.875 42.1875 19.0625 40.765625 
Q 16.265625 39.359375 14.40625 36.71875 
Q 12.546875 33.890625 12.03125 30.484375 
Q 11.53125 27.09375 11.53125 22.40625 
Q 11.53125 16.796875 12.5 12.328125 
Q 13.484375 7.859375 16.4375 4.828125 
Q 19.390625 1.8125 25 1.8125 
z
" id="Cmr10-111"/>
      <path d="M 3.21875 0 
L 3.21875 3.515625 
Q 6.59375 3.515625 8.78125 4.046875 
Q 10.984375 4.59375 10.984375 6.6875 
L 10.984375 39.59375 
L 3.328125 39.59375 
L 3.328125 43.109375 
L 10.984375 43.109375 
L 10.984375 55.078125 
Q 10.984375 58.296875 12.328125 61.109375 
Q 13.671875 63.921875 15.9375 66.015625 
Q 18.21875 68.109375 21.171875 69.3125 
Q 24.125 70.515625 27.296875 70.515625 
Q 30.671875 70.515625 33.375 68.5 
Q 36.078125 66.5 36.078125 63.1875 
Q 36.078125 61.28125 34.78125 59.984375 
Q 33.5 58.6875 31.59375 58.6875 
Q 29.6875 58.6875 28.34375 59.984375 
Q 27 61.28125 27 63.1875 
Q 27 66.3125 29.6875 67.390625 
Q 28.078125 67.921875 26.8125 67.921875 
Q 23.875 67.921875 21.796875 65.84375 
Q 19.734375 63.765625 18.703125 60.78125 
Q 17.671875 57.8125 17.671875 54.890625 
L 17.671875 43.109375 
L 29.203125 43.109375 
L 29.203125 39.59375 
L 18.015625 39.59375 
L 18.015625 6.6875 
Q 18.015625 4.640625 20.9375 4.078125 
Q 23.875 3.515625 27.6875 3.515625 
L 27.6875 0 
z
" id="Cmr10-102"/>
      <path d="M 2.984375 0 
L 2.984375 3.515625 
Q 6.390625 3.515625 8.59375 4.046875 
Q 10.796875 4.59375 10.796875 6.6875 
L 10.796875 33.984375 
Q 10.796875 36.671875 9.984375 37.859375 
Q 9.1875 39.0625 7.671875 39.328125 
Q 6.15625 39.59375 2.984375 39.59375 
L 2.984375 43.109375 
L 17.484375 44.1875 
L 17.484375 34.421875 
Q 19.484375 38.71875 23.40625 41.453125 
Q 27.34375 44.1875 31.984375 44.1875 
Q 43.5 44.1875 45.515625 34.8125 
Q 47.515625 39.015625 51.359375 41.59375 
Q 55.21875 44.1875 59.8125 44.1875 
Q 64.359375 44.1875 67.453125 42.71875 
Q 70.5625 41.265625 72.125 38.25 
Q 73.6875 35.25 73.6875 30.71875 
L 73.6875 6.6875 
Q 73.6875 4.59375 75.90625 4.046875 
Q 78.125 3.515625 81.5 3.515625 
L 81.5 0 
L 58.59375 0 
L 58.59375 3.515625 
Q 62.015625 3.515625 64.203125 4.046875 
Q 66.40625 4.59375 66.40625 6.6875 
L 66.40625 30.421875 
Q 66.40625 35.453125 64.984375 38.53125 
Q 63.578125 41.609375 59.1875 41.609375 
Q 53.421875 41.609375 49.65625 36.96875 
Q 45.90625 32.328125 45.90625 26.421875 
L 45.90625 6.6875 
Q 45.90625 4.59375 48.09375 4.046875 
Q 50.296875 3.515625 53.71875 3.515625 
L 53.71875 0 
L 30.8125 0 
L 30.8125 3.515625 
Q 34.234375 3.515625 36.421875 4.046875 
Q 38.625 4.59375 38.625 6.6875 
L 38.625 30.421875 
Q 38.625 35.296875 37.203125 38.453125 
Q 35.796875 41.609375 31.390625 41.609375 
Q 25.59375 41.609375 21.84375 36.96875 
Q 18.109375 32.328125 18.109375 26.421875 
L 18.109375 6.6875 
Q 18.109375 4.59375 20.3125 4.046875 
Q 22.515625 3.515625 25.875 3.515625 
L 25.875 0 
z
" id="Cmr10-109"/>
      <path d="M 1.21875 0 
L 1.21875 3.515625 
Q 5.03125 3.515625 8.390625 5 
Q 11.765625 6.5 14.109375 9.421875 
L 23.1875 21 
L 11.375 36.375 
Q 9.625 38.578125 7.546875 39.078125 
Q 5.46875 39.59375 1.703125 39.59375 
L 1.703125 43.109375 
L 22.515625 43.109375 
L 22.515625 39.59375 
Q 21.1875 39.59375 20.03125 39 
Q 18.890625 38.421875 18.890625 37.3125 
Q 18.890625 36.921875 19.1875 36.375 
L 27.203125 25.984375 
L 33.203125 33.6875 
Q 34.421875 35.15625 34.421875 36.625 
Q 34.421875 37.84375 33.609375 38.71875 
Q 32.8125 39.59375 31.5 39.59375 
L 31.5 43.109375 
L 49.90625 43.109375 
L 49.90625 39.59375 
Q 46.046875 39.59375 42.65625 38.109375 
Q 39.265625 36.625 36.921875 33.6875 
L 29 23.578125 
L 41.796875 6.6875 
Q 43.703125 4.5 45.75 4 
Q 47.796875 3.515625 51.609375 3.515625 
L 51.609375 0 
L 30.8125 0 
L 30.8125 3.515625 
Q 32.03125 3.515625 33.15625 4.09375 
Q 34.28125 4.6875 34.28125 5.8125 
Q 34.28125 6.25 33.984375 6.6875 
L 25 18.609375 
L 17.828125 9.421875 
Q 16.703125 8.15625 16.703125 6.5 
Q 16.703125 5.28125 17.53125 4.390625 
Q 18.359375 3.515625 19.484375 3.515625 
L 19.484375 0 
z
" id="Cmr10-120"/>
     </defs>
     <use transform="translate(0 0.484375)" xlink:href="#Cmr10-115"/>
     <use transform="translate(39.404297 0.484375)" xlink:href="#Cmr10-111"/>
     <use transform="translate(89.404297 0.484375)" xlink:href="#Cmr10-102"/>
     <use transform="translate(119.921875 0.484375)" xlink:href="#Cmr10-116"/>
     <use transform="translate(158.740234 0.484375)" xlink:href="#Cmr10-109"/>
     <use transform="translate(242.041016 0.484375)" xlink:href="#Cmr10-97"/>
     <use transform="translate(292.041016 0.484375)" xlink:href="#Cmr10-120"/>
    </g>
   </g>
   <g id="patch_32">
    <path d="M 263.957857 102.050279 
L 263.957857 205.225714 
L 254.407544 205.225714 
" style="fill:none;stroke:#000000;stroke-linecap:round;"/>
    <path d="M 261.357857 107.250279 
L 263.957857 102.050279 
L 266.557857 107.250279 
" style="fill:none;stroke:#000000;stroke-linecap:round;"/>
   </g>
   <g id="text_15">
    <g id="patch_33">
     <path d="M 250.047857 54.365714 
L 277.867857 54.365714 
L 277.867857 29.925714 
L 250.047857 29.925714 
z
" style="fill:#ffffff;"/>
    </g>
    <!-- $y^{\langle t \rangle}$ -->
    <g transform="translate(253.947857 47.735714)scale(0.13 -0.13)">
     <defs>
      <path d="M 8.40625 -14.3125 
Q 10.5 -17.921875 15.71875 -17.921875 
Q 20.453125 -17.921875 23.921875 -14.59375 
Q 27.390625 -11.28125 29.515625 -6.5625 
Q 31.640625 -1.859375 32.8125 3.078125 
Q 28.375 -1.125 23.1875 -1.125 
Q 19.234375 -1.125 16.453125 0.234375 
Q 13.671875 1.609375 12.125 4.3125 
Q 10.59375 7.03125 10.59375 10.890625 
Q 10.59375 14.15625 11.46875 17.59375 
Q 12.359375 21.046875 13.9375 25.265625 
Q 15.53125 29.5 16.703125 32.625 
Q 18.015625 36.28125 18.015625 38.625 
Q 18.015625 41.609375 15.828125 41.609375 
Q 11.859375 41.609375 9.296875 37.53125 
Q 6.734375 33.453125 5.515625 28.421875 
Q 5.328125 27.78125 4.6875 27.78125 
L 3.515625 27.78125 
Q 2.6875 27.78125 2.6875 28.71875 
L 2.6875 29 
Q 4.296875 34.96875 7.609375 39.578125 
Q 10.9375 44.1875 16.015625 44.1875 
Q 19.578125 44.1875 22.046875 41.84375 
Q 24.515625 39.5 24.515625 35.890625 
Q 24.515625 34.03125 23.6875 31.984375 
Q 23.25 30.765625 21.6875 26.65625 
Q 20.125 22.5625 19.28125 19.875 
Q 18.453125 17.1875 17.921875 14.59375 
Q 17.390625 12.015625 17.390625 9.421875 
Q 17.390625 6.109375 18.796875 3.8125 
Q 20.21875 1.515625 23.296875 1.515625 
Q 29.5 1.515625 34.421875 9.078125 
L 42 39.890625 
Q 42.328125 41.21875 43.546875 42.15625 
Q 44.78125 43.109375 46.1875 43.109375 
Q 47.40625 43.109375 48.3125 42.328125 
Q 49.21875 41.546875 49.21875 40.28125 
Q 49.21875 39.703125 49.125 39.5 
L 39.203125 -0.296875 
Q 37.890625 -5.421875 34.375 -10.109375 
Q 30.859375 -14.796875 25.90625 -17.65625 
Q 20.953125 -20.515625 15.578125 -20.515625 
Q 12.984375 -20.515625 10.4375 -19.5 
Q 7.90625 -18.5 6.34375 -16.5 
Q 4.78125 -14.5 4.78125 -11.8125 
Q 4.78125 -9.078125 6.390625 -7.078125 
Q 8.015625 -5.078125 10.6875 -5.078125 
Q 12.3125 -5.078125 13.40625 -6.078125 
Q 14.5 -7.078125 14.5 -8.6875 
Q 14.5 -10.984375 12.78125 -12.6875 
Q 11.078125 -14.40625 8.796875 -14.40625 
Q 8.6875 -14.359375 8.59375 -14.328125 
Q 8.5 -14.3125 8.40625 -14.3125 
z
" id="Cmmi10-121"/>
     </defs>
     <use transform="translate(0 0.597135)" xlink:href="#Cmmi10-121"/>
     <use transform="translate(55.326719 104.202344)scale(0.7)" xlink:href="#Cmex10-173"/>
     <use transform="translate(88.378477 38.861198)scale(0.7)" xlink:href="#Cmmi10-116"/>
     <use transform="translate(113.637266 104.202344)scale(0.7)" xlink:href="#Cmex10-174"/>
    </g>
   </g>
   <g id="patch_34">
    <path d="M 263.957857 57.482312 
Q 263.957857 66.456097 263.957857 76.547916 
" style="fill:none;stroke:#000000;stroke-linecap:round;"/>
    <path d="M 261.357857 62.682312 
L 263.957857 57.482312 
L 266.557857 62.682312 
" style="fill:none;stroke:#000000;stroke-linecap:round;"/>
   </g>
   <g id="text_16">
    <g id="patch_35">
     <path d="M 38.647338 309.399286 
L 67.507338 309.399286 
L 67.507338 287.429286 
L 38.647338 287.429286 
z
" style="fill:#ffffff;"/>
    </g>
    <!-- $x^{\langle t \rangle}$ -->
    <g transform="translate(42.547338 302.795692)scale(0.13 -0.13)">
     <defs>
      <path d="M 7.8125 2.875 
Q 9.578125 1.515625 12.796875 1.515625 
Q 15.921875 1.515625 18.3125 4.515625 
Q 20.703125 7.515625 21.578125 11.078125 
L 26.125 28.8125 
Q 27.203125 33.640625 27.203125 35.40625 
Q 27.203125 37.890625 25.8125 39.75 
Q 24.421875 41.609375 21.921875 41.609375 
Q 18.75 41.609375 15.96875 39.625 
Q 13.1875 37.640625 11.28125 34.59375 
Q 9.375 31.546875 8.59375 28.421875 
Q 8.40625 27.78125 7.8125 27.78125 
L 6.59375 27.78125 
Q 5.8125 27.78125 5.8125 28.71875 
L 5.8125 29 
Q 6.78125 32.71875 9.125 36.25 
Q 11.46875 39.796875 14.859375 41.984375 
Q 18.265625 44.1875 22.125 44.1875 
Q 25.78125 44.1875 28.734375 42.234375 
Q 31.6875 40.28125 32.90625 36.921875 
Q 34.625 39.984375 37.28125 42.078125 
Q 39.9375 44.1875 43.109375 44.1875 
Q 45.265625 44.1875 47.5 43.421875 
Q 49.75 42.671875 51.171875 41.109375 
Q 52.59375 39.546875 52.59375 37.203125 
Q 52.59375 34.671875 50.953125 32.828125 
Q 49.3125 31 46.78125 31 
Q 45.171875 31 44.09375 32.03125 
Q 43.015625 33.0625 43.015625 34.625 
Q 43.015625 36.71875 44.453125 38.296875 
Q 45.90625 39.890625 47.90625 40.1875 
Q 46.09375 41.609375 42.921875 41.609375 
Q 39.703125 41.609375 37.328125 38.625 
Q 34.96875 35.640625 33.984375 31.984375 
L 29.59375 14.3125 
Q 28.515625 10.296875 28.515625 7.71875 
Q 28.515625 5.171875 29.953125 3.34375 
Q 31.390625 1.515625 33.796875 1.515625 
Q 38.484375 1.515625 42.15625 5.640625 
Q 45.84375 9.765625 47.015625 14.703125 
Q 47.21875 15.28125 47.796875 15.28125 
L 49.03125 15.28125 
Q 49.421875 15.28125 49.65625 15.015625 
Q 49.90625 14.75 49.90625 14.40625 
Q 49.90625 14.3125 49.8125 14.109375 
Q 48.390625 8.15625 43.84375 3.515625 
Q 39.3125 -1.125 33.59375 -1.125 
Q 29.9375 -1.125 26.984375 0.84375 
Q 24.03125 2.828125 22.796875 6.203125 
Q 21.234375 3.265625 18.46875 1.0625 
Q 15.71875 -1.125 12.59375 -1.125 
Q 10.453125 -1.125 8.171875 -0.359375 
Q 5.90625 0.390625 4.484375 1.953125 
Q 3.078125 3.515625 3.078125 5.90625 
Q 3.078125 8.25 4.703125 10.171875 
Q 6.34375 12.109375 8.796875 12.109375 
Q 10.453125 12.109375 11.578125 11.109375 
Q 12.703125 10.109375 12.703125 8.5 
Q 12.703125 6.390625 11.296875 4.828125 
Q 9.90625 3.265625 7.8125 2.875 
z
" id="Cmmi10-120"/>
     </defs>
     <use transform="translate(0 0.597135)" xlink:href="#Cmmi10-120"/>
     <use transform="translate(63.383359 104.202344)scale(0.7)" xlink:href="#Cmex10-173"/>
     <use transform="translate(96.435117 38.861198)scale(0.7)" xlink:href="#Cmmi10-116"/>
     <use transform="translate(121.693906 104.202344)scale(0.7)" xlink:href="#Cmex10-174"/>
    </g>
   </g>
   <g id="patch_36">
    <path d="M 53.260841 274.973965 
Q 53.183807 280.202706 53.106772 285.431447 
" style="fill:none;stroke:#000000;stroke-linecap:round;"/>
   </g>
  </g>
  <g id="axes_2">
   <g id="patch_37">
    <path clip-path="url(#p3ccc1cb7b4)" d="M 417.226688 280.941429 
L 634.629286 280.941429 
L 634.629286 117.861429 
L 417.226688 117.861429 
z
" style="fill:#808080;opacity:0.2;"/>
   </g>
   <g id="text_17">
    <g id="patch_38">
     <path d="M 369.121364 146.319286 
L 410.981364 146.319286 
L 410.981364 124.349286 
L 369.121364 124.349286 
z
" style="fill:#ffffff;"/>
    </g>
    <!-- $c^{\langle t-1 \rangle}$ -->
    <g transform="translate(373.021364 139.715692)scale(0.13 -0.13)">
     <use transform="translate(0 0.597135)" xlink:href="#Cmmi10-99"/>
     <use transform="translate(49.516172 104.202344)scale(0.7)" xlink:href="#Cmex10-173"/>
     <use transform="translate(82.56793 38.861198)scale(0.7)" xlink:href="#Cmmi10-116"/>
     <use transform="translate(120.117734 38.861198)scale(0.7)" xlink:href="#Cmsy10-161"/>
     <use transform="translate(186.788633 38.861198)scale(0.7)" xlink:href="#Cmr10-49"/>
     <use transform="translate(221.788633 104.202344)scale(0.7)" xlink:href="#Cmex10-174"/>
    </g>
   </g>
   <g id="text_18">
    <g id="patch_39">
     <path d="M 368.536364 216.210714 
L 411.566364 216.210714 
L 411.566364 194.240714 
L 368.536364 194.240714 
z
" style="fill:#ffffff;"/>
    </g>
    <!-- $a^{\langle t-1 \rangle}$ -->
    <g transform="translate(372.436364 209.607121)scale(0.13 -0.13)">
     <use transform="translate(0 0.597135)" xlink:href="#Cmmi10-97"/>
     <use transform="translate(59.086484 104.202344)scale(0.7)" xlink:href="#Cmex10-173"/>
     <use transform="translate(92.138242 38.861198)scale(0.7)" xlink:href="#Cmmi10-116"/>
     <use transform="translate(129.688047 38.861198)scale(0.7)" xlink:href="#Cmsy10-161"/>
     <use transform="translate(196.358945 38.861198)scale(0.7)" xlink:href="#Cmr10-49"/>
     <use transform="translate(231.358945 104.202344)scale(0.7)" xlink:href="#Cmex10-174"/>
    </g>
   </g>
   <g id="text_19">
    <g id="patch_40">
     <path d="M 433.482013 262.285 
L 455.322013 262.285 
L 455.322013 241.355 
L 433.482013 241.355 
z
" style="fill:#ffffff;stroke:#000000;stroke-linejoin:miter;"/>
    </g>
    <!-- $\Gamma_f$ -->
    <g transform="translate(437.382013 254.225)scale(0.13 -0.13)">
     <use transform="translate(0 0.6875)" xlink:href="#Cmr10-161"/>
     <use transform="translate(66.964141 -16.31875)scale(0.7)" xlink:href="#Cmmi10-102"/>
    </g>
   </g>
   <g id="patch_41">
    <path d="M 444.402013 265.404384 
L 444.402013 272.972785 
L 390.051364 272.972785 
L 390.051364 218.20972 
" style="fill:none;stroke:#000000;stroke-linecap:round;"/>
    <path d="M 441.802013 270.604384 
L 444.402013 265.404384 
L 447.002013 270.604384 
" style="fill:none;stroke:#000000;stroke-linecap:round;"/>
   </g>
   <g id="text_20">
    <g id="patch_42">
     <path d="M 487.442662 262.010781 
L 510.062662 262.010781 
L 510.062662 241.629219 
L 487.442662 241.629219 
z
" style="fill:#ffffff;stroke:#000000;stroke-linejoin:miter;"/>
    </g>
    <!-- $\Gamma_u$ -->
    <g transform="translate(491.342662 255.407187)scale(0.13 -0.13)">
     <use transform="translate(0 0.6875)" xlink:href="#Cmr10-161"/>
     <use transform="translate(66.964141 -16.31875)scale(0.7)" xlink:href="#Cmmi10-117"/>
    </g>
   </g>
   <g id="patch_43">
    <path d="M 498.752662 265.128509 
L 498.752662 272.606831 
L 444.402013 272.606831 
L 444.402013 264.283343 
" style="fill:none;stroke:#000000;stroke-linecap:round;"/>
    <path d="M 496.152662 270.328509 
L 498.752662 265.128509 
L 501.352662 270.328509 
" style="fill:none;stroke:#000000;stroke-linecap:round;"/>
   </g>
   <g id="text_21">
    <g id="patch_44">
     <path d="M 536.203312 262.010781 
L 570.003312 262.010781 
L 570.003312 241.629219 
L 536.203312 241.629219 
z
" style="fill:#ffffff;stroke:#000000;stroke-linejoin:miter;"/>
    </g>
    <!-- $\tanh$ -->
    <g transform="translate(540.103312 255.407187)scale(0.13 -0.13)">
     <use transform="translate(0 0.609375)" xlink:href="#Cmr10-116"/>
     <use transform="translate(38.818359 0.609375)" xlink:href="#Cmr10-97"/>
     <use transform="translate(88.818359 0.609375)" xlink:href="#Cmr10-110"/>
     <use transform="translate(144.335938 0.609375)" xlink:href="#Cmr10-104"/>
    </g>
   </g>
   <g id="patch_45">
    <path d="M 553.103312 265.127157 
L 553.103312 272.880911 
L 498.752662 272.880911 
L 498.752662 264.009123 
" style="fill:none;stroke:#000000;stroke-linecap:round;"/>
    <path d="M 550.503312 270.327157 
L 553.103312 265.127157 
L 555.703312 270.327157 
" style="fill:none;stroke:#000000;stroke-linecap:round;"/>
   </g>
   <g id="text_22">
    <g id="patch_46">
     <path d="M 596.533961 262.010781 
L 618.373961 262.010781 
L 618.373961 241.629219 
L 596.533961 241.629219 
z
" style="fill:#ffffff;stroke:#000000;stroke-linejoin:miter;"/>
    </g>
    <!-- $\Gamma_o$ -->
    <g transform="translate(600.433961 255.407187)scale(0.13 -0.13)">
     <use transform="translate(0 0.6875)" xlink:href="#Cmr10-161"/>
     <use transform="translate(66.964141 -16.31875)scale(0.7)" xlink:href="#Cmmi10-111"/>
    </g>
   </g>
   <g id="patch_47">
    <path d="M 607.453961 265.127157 
L 607.453961 272.880911 
L 553.103312 272.880911 
L 553.103312 264.009123 
" style="fill:none;stroke:#000000;stroke-linecap:round;"/>
    <path d="M 604.853961 270.327157 
L 607.453961 265.127157 
L 610.053961 270.327157 
" style="fill:none;stroke:#000000;stroke-linecap:round;"/>
   </g>
   <g id="text_23">
    <g id="patch_48">
     <path d="M 607.453961 215.416496 
C 610.156588 215.416496 612.748886 214.342731 614.659932 212.431685 
C 616.570977 210.520639 617.644742 207.928341 617.644742 205.225714 
C 617.644742 202.523088 616.570977 199.930789 614.659932 198.019744 
C 612.748886 196.108698 610.156588 195.034933 607.453961 195.034933 
C 604.751334 195.034933 602.159036 196.108698 600.247991 198.019744 
C 598.336945 199.930789 597.26318 202.523088 597.26318 205.225714 
C 597.26318 207.928341 598.336945 210.520639 600.247991 212.431685 
C 602.159036 214.342731 604.751334 215.416496 607.453961 215.416496 
z
" style="fill:#ffffff;stroke:#000000;stroke-linejoin:miter;"/>
    </g>
    <!-- $*$ -->
    <g transform="translate(604.203961 208.812902)scale(0.13 -0.13)">
     <use transform="translate(0 0.515625)" xlink:href="#Cmsy10-164"/>
    </g>
   </g>
   <g id="patch_49">
    <path d="M 607.453961 218.534402 
Q 607.453961 228.522299 607.453961 239.62823 
" style="fill:none;stroke:#000000;stroke-linecap:round;"/>
    <path d="M 604.853961 223.734402 
L 607.453961 218.534402 
L 610.053961 223.734402 
" style="fill:none;stroke:#000000;stroke-linecap:round;"/>
   </g>
   <g id="text_24">
    <g id="patch_50">
     <path d="M 590.553961 168.82221 
L 624.353961 168.82221 
L 624.353961 148.440647 
L 590.553961 148.440647 
z
" style="fill:#ffffff;stroke:#000000;stroke-linejoin:miter;"/>
    </g>
    <!-- $\tanh$ -->
    <g transform="translate(594.453961 162.218616)scale(0.13 -0.13)">
     <use transform="translate(0 0.609375)" xlink:href="#Cmr10-116"/>
     <use transform="translate(38.818359 0.609375)" xlink:href="#Cmr10-97"/>
     <use transform="translate(88.818359 0.609375)" xlink:href="#Cmr10-110"/>
     <use transform="translate(144.335938 0.609375)" xlink:href="#Cmr10-104"/>
    </g>
   </g>
   <g id="patch_51">
    <path d="M 607.453961 170.822082 
Q 607.453961 181.928013 607.453961 191.91591 
" style="fill:none;stroke:#000000;stroke-linecap:round;"/>
    <path d="M 610.053961 186.71591 
L 607.453961 191.91591 
L 604.853961 186.71591 
" style="fill:none;stroke:#000000;stroke-linecap:round;"/>
   </g>
   <g id="text_25">
    <g id="patch_52">
     <path d="M 647.69961 216.210714 
L 675.90961 216.210714 
L 675.90961 194.240714 
L 647.69961 194.240714 
z
" style="fill:#ffffff;"/>
    </g>
    <!-- $a^{\langle t \rangle}$ -->
    <g transform="translate(651.59961 209.607121)scale(0.13 -0.13)">
     <use transform="translate(0 0.597135)" xlink:href="#Cmmi10-97"/>
     <use transform="translate(59.086484 104.202344)scale(0.7)" xlink:href="#Cmex10-173"/>
     <use transform="translate(92.138242 38.861198)scale(0.7)" xlink:href="#Cmmi10-116"/>
     <use transform="translate(117.397031 104.202344)scale(0.7)" xlink:href="#Cmex10-174"/>
    </g>
   </g>
   <g id="patch_53">
    <path d="M 644.582077 205.225714 
Q 632.670734 205.225714 619.641358 205.225714 
" style="fill:none;stroke:#000000;stroke-linecap:round;"/>
    <path d="M 639.382077 202.625714 
L 644.582077 205.225714 
L 639.382077 207.825714 
" style="fill:none;stroke:#000000;stroke-linecap:round;"/>
   </g>
   <g id="text_26">
    <g id="patch_54">
     <path d="M 444.402013 145.525067 
C 447.10464 145.525067 449.696938 144.451302 451.607984 142.540256 
C 453.519029 140.629211 454.592794 138.036912 454.592794 135.334286 
C 454.592794 132.631659 453.519029 130.039361 451.607984 128.128315 
C 449.696938 126.217269 447.10464 125.143504 444.402013 125.143504 
C 441.699386 125.143504 439.107088 126.217269 437.196042 128.128315 
C 435.284997 130.039361 434.211232 132.631659 434.211232 135.334286 
C 434.211232 138.036912 435.284997 140.629211 437.196042 142.540256 
C 439.107088 144.451302 441.699386 145.525067 444.402013 145.525067 
z
" style="fill:#ffffff;stroke:#000000;stroke-linejoin:miter;"/>
    </g>
    <!-- $*$ -->
    <g transform="translate(441.152013 138.921473)scale(0.13 -0.13)">
     <use transform="translate(0 0.515625)" xlink:href="#Cmsy10-164"/>
    </g>
   </g>
   <g id="patch_55">
    <path d="M 431.094045 135.334286 
Q 422.595799 135.334286 412.979518 135.334286 
" style="fill:none;stroke:#000000;stroke-linecap:round;"/>
    <path d="M 425.894045 132.734286 
L 431.094045 135.334286 
L 425.894045 137.934286 
" style="fill:none;stroke:#000000;stroke-linecap:round;"/>
   </g>
   <g id="patch_56">
    <path d="M 444.402013 148.640533 
Q 444.402013 193.437942 444.402013 239.353385 
" style="fill:none;stroke:#000000;stroke-linecap:round;"/>
    <path d="M 441.802013 153.840533 
L 444.402013 148.640533 
L 447.002013 153.840533 
" style="fill:none;stroke:#000000;stroke-linecap:round;"/>
   </g>
   <g id="text_27">
    <g id="patch_57">
     <path d="M 498.752662 215.416496 
C 501.455289 215.416496 504.047587 214.342731 505.958633 212.431685 
C 507.869679 210.520639 508.943444 207.928341 508.943444 205.225714 
C 508.943444 202.523088 507.869679 199.930789 505.958633 198.019744 
C 504.047587 196.108698 501.455289 195.034933 498.752662 195.034933 
C 496.050036 195.034933 493.457738 196.108698 491.546692 198.019744 
C 489.635646 199.930789 488.561881 202.523088 488.561881 205.225714 
C 488.561881 207.928341 489.635646 210.520639 491.546692 212.431685 
C 493.457738 214.342731 496.050036 215.416496 498.752662 215.416496 
z
" style="fill:#ffffff;stroke:#000000;stroke-linejoin:miter;"/>
    </g>
    <!-- $*$ -->
    <g transform="translate(495.502662 208.812902)scale(0.13 -0.13)">
     <use transform="translate(0 0.515625)" xlink:href="#Cmsy10-164"/>
    </g>
   </g>
   <g id="patch_58">
    <path d="M 498.752662 218.534402 
Q 498.752662 228.522299 498.752662 239.62823 
" style="fill:none;stroke:#000000;stroke-linecap:round;"/>
    <path d="M 496.152662 223.734402 
L 498.752662 218.534402 
L 501.352662 223.734402 
" style="fill:none;stroke:#000000;stroke-linecap:round;"/>
   </g>
   <g id="text_28">
    <g id="patch_59">
     <path d="M 498.752662 145.525067 
C 501.455289 145.525067 504.047587 144.451302 505.958633 142.540256 
C 507.869679 140.629211 508.943444 138.036912 508.943444 135.334286 
C 508.943444 132.631659 507.869679 130.039361 505.958633 128.128315 
C 504.047587 126.217269 501.455289 125.143504 498.752662 125.143504 
C 496.050036 125.143504 493.457738 126.217269 491.546692 128.128315 
C 489.635646 130.039361 488.561881 132.631659 488.561881 135.334286 
C 488.561881 138.036912 489.635646 140.629211 491.546692 142.540256 
C 493.457738 144.451302 496.050036 145.525067 498.752662 145.525067 
z
" style="fill:#ffffff;stroke:#000000;stroke-linejoin:miter;"/>
    </g>
    <!-- $+$ -->
    <g transform="translate(493.682662 138.921473)scale(0.13 -0.13)">
     <use transform="translate(0 0.703125)" xlink:href="#Cmr10-43"/>
    </g>
   </g>
   <g id="patch_60">
    <path d="M 498.752662 148.640539 
Q 498.752662 170.279694 498.752662 193.036882 
" style="fill:none;stroke:#000000;stroke-linecap:round;"/>
    <path d="M 496.152662 153.840539 
L 498.752662 148.640539 
L 501.352662 153.840539 
" style="fill:none;stroke:#000000;stroke-linecap:round;"/>
   </g>
   <g id="patch_61">
    <path d="M 485.441031 135.334286 
Q 471.576827 135.334286 456.594588 135.334286 
" style="fill:none;stroke:#000000;stroke-linecap:round;"/>
    <path d="M 480.241031 132.734286 
L 485.441031 135.334286 
L 480.241031 137.934286 
" style="fill:none;stroke:#000000;stroke-linecap:round;"/>
   </g>
   <g id="patch_62">
    <path d="M 512.064089 205.225714 
L 553.103312 205.225714 
L 553.103312 239.625071 
" style="fill:none;stroke:#000000;stroke-linecap:round;"/>
    <path d="M 517.264089 207.825714 
L 512.064089 205.225714 
L 517.264089 202.625714 
" style="fill:none;stroke:#000000;stroke-linecap:round;"/>
   </g>
   <g id="patch_63">
    <path d="M 607.453961 145.322741 
L 607.453961 135.334286 
L 510.942635 135.334286 
" style="fill:none;stroke:#000000;stroke-linecap:round;"/>
    <path d="M 610.053961 140.122741 
L 607.453961 145.322741 
L 604.853961 140.122741 
" style="fill:none;stroke:#000000;stroke-linecap:round;"/>
   </g>
   <g id="text_29">
    <g id="patch_64">
     <path d="M 648.28461 146.319286 
L 675.32461 146.319286 
L 675.32461 124.349286 
L 648.28461 124.349286 
z
" style="fill:#ffffff;"/>
    </g>
    <!-- $c^{\langle t \rangle}$ -->
    <g transform="translate(652.18461 139.715692)scale(0.13 -0.13)">
     <use transform="translate(0 0.597135)" xlink:href="#Cmmi10-99"/>
     <use transform="translate(49.516172 104.202344)scale(0.7)" xlink:href="#Cmex10-173"/>
     <use transform="translate(82.56793 38.861198)scale(0.7)" xlink:href="#Cmmi10-116"/>
     <use transform="translate(107.826719 104.202344)scale(0.7)" xlink:href="#Cmex10-174"/>
    </g>
   </g>
   <g id="patch_65">
    <path d="M 645.163717 135.334286 
Q 578.612206 135.334286 510.942662 135.334286 
" style="fill:none;stroke:#000000;stroke-linecap:round;"/>
    <path d="M 639.963717 132.734286 
L 645.163717 135.334286 
L 639.963717 137.934286 
" style="fill:none;stroke:#000000;stroke-linecap:round;"/>
   </g>
   <g id="text_30">
    <g id="patch_66">
     <path d="M 602.869221 98.930781 
L 655.519221 98.930781 
L 655.519221 78.549219 
L 602.869221 78.549219 
z
" style="fill:#ffffff;stroke:#000000;stroke-linejoin:miter;"/>
    </g>
    <!-- $\mathrm{softmax}$ -->
    <g transform="translate(606.769221 92.327187)scale(0.13 -0.13)">
     <use transform="translate(0 0.484375)" xlink:href="#Cmr10-115"/>
     <use transform="translate(39.404297 0.484375)" xlink:href="#Cmr10-111"/>
     <use transform="translate(89.404297 0.484375)" xlink:href="#Cmr10-102"/>
     <use transform="translate(119.921875 0.484375)" xlink:href="#Cmr10-116"/>
     <use transform="translate(158.740234 0.484375)" xlink:href="#Cmr10-109"/>
     <use transform="translate(242.041016 0.484375)" xlink:href="#Cmr10-97"/>
     <use transform="translate(292.041016 0.484375)" xlink:href="#Cmr10-120"/>
    </g>
   </g>
   <g id="patch_67">
    <path d="M 629.194221 102.050279 
L 629.194221 205.225714 
L 619.643907 205.225714 
" style="fill:none;stroke:#000000;stroke-linecap:round;"/>
    <path d="M 626.594221 107.250279 
L 629.194221 102.050279 
L 631.794221 107.250279 
" style="fill:none;stroke:#000000;stroke-linecap:round;"/>
   </g>
   <g id="text_31">
    <g id="patch_68">
     <path d="M 615.284221 54.365714 
L 643.104221 54.365714 
L 643.104221 29.925714 
L 615.284221 29.925714 
z
" style="fill:#ffffff;"/>
    </g>
    <!-- $y^{\langle t \rangle}$ -->
    <g transform="translate(619.184221 47.735714)scale(0.13 -0.13)">
     <use transform="translate(0 0.597135)" xlink:href="#Cmmi10-121"/>
     <use transform="translate(55.326719 104.202344)scale(0.7)" xlink:href="#Cmex10-173"/>
     <use transform="translate(88.378477 38.861198)scale(0.7)" xlink:href="#Cmmi10-116"/>
     <use transform="translate(113.637266 104.202344)scale(0.7)" xlink:href="#Cmex10-174"/>
    </g>
   </g>
   <g id="patch_69">
    <path d="M 629.194221 57.482312 
Q 629.194221 66.456097 629.194221 76.547916 
" style="fill:none;stroke:#000000;stroke-linecap:round;"/>
    <path d="M 626.594221 62.682312 
L 629.194221 57.482312 
L 631.794221 62.682312 
" style="fill:none;stroke:#000000;stroke-linecap:round;"/>
   </g>
   <g id="text_32">
    <g id="patch_70">
     <path d="M 403.883701 309.399286 
L 432.743701 309.399286 
L 432.743701 287.429286 
L 403.883701 287.429286 
z
" style="fill:#ffffff;"/>
    </g>
    <!-- $x^{\langle t \rangle}$ -->
    <g transform="translate(407.783701 302.795692)scale(0.13 -0.13)">
     <use transform="translate(0 0.597135)" xlink:href="#Cmmi10-120"/>
     <use transform="translate(63.383359 104.202344)scale(0.7)" xlink:href="#Cmex10-173"/>
     <use transform="translate(96.435117 38.861198)scale(0.7)" xlink:href="#Cmmi10-116"/>
     <use transform="translate(121.693906 104.202344)scale(0.7)" xlink:href="#Cmex10-174"/>
    </g>
   </g>
   <g id="patch_71">
    <path d="M 418.497205 274.973965 
Q 418.42017 280.202706 418.343135 285.431447 
" style="fill:none;stroke:#000000;stroke-linecap:round;"/>
   </g>
   <g id="patch_72">
    <path d="M 365.415865 205.225714 
Q 339.60425 205.225714 312.674602 205.225714 
" style="fill:none;stroke:#000000;stroke-linecap:round;"/>
    <path d="M 360.215865 202.625714 
L 365.415865 205.225714 
L 360.215865 207.825714 
" style="fill:none;stroke:#000000;stroke-linecap:round;"/>
   </g>
   <g id="patch_73">
    <path d="M 366.003612 135.334286 
Q 339.605746 135.334286 312.089846 135.334286 
" style="fill:none;stroke:#000000;stroke-linecap:round;"/>
    <path d="M 360.803612 132.734286 
L 366.003612 135.334286 
L 360.803612 137.934286 
" style="fill:none;stroke:#000000;stroke-linecap:round;"/>
   </g>
  </g>
 </g>
 <defs>
  <clipPath id="p1f7bdfa3c1">
   <rect height="326.16" width="304.363636" x="8.509805" y="7.2"/>
  </clipPath>
  <clipPath id="p3ccc1cb7b4">
   <rect height="326.16" width="304.363636" x="373.746169" y="7.2"/>
  </clipPath>
 </defs>
</svg>
