<?xml version="1.0" encoding="utf-8" standalone="no"?>
<!DOCTYPE svg PUBLIC "-//W3C//DTD SVG 1.1//EN"
  "http://www.w3.org/Graphics/SVG/1.1/DTD/svg11.dtd">
<svg height="340.648125pt" version="1.1" viewBox="0 0 710.163182 340.648125" width="710.163182pt" xmlns="http://www.w3.org/2000/svg" xmlns:xlink="http://www.w3.org/1999/xlink">
 <metadata>
  <rdf:RDF xmlns:cc="http://creativecommons.org/ns#" xmlns:dc="http://purl.org/dc/elements/1.1/" xmlns:rdf="http://www.w3.org/1999/02/22-rdf-syntax-ns#">
   <cc:Work>
    <dc:type rdf:resource="http://purl.org/dc/dcmitype/StillImage"/>
    <dc:date>2021-09-27T21:32:47.454263</dc:date>
    <dc:format>image/svg+xml</dc:format>
    <dc:creator>
     <cc:Agent>
      <dc:title>Matplotlib v3.4.3, https://matplotlib.org/</dc:title>
     </cc:Agent>
    </dc:creator>
   </cc:Work>
  </rdf:RDF>
 </metadata>
 <defs>
  <style type="text/css">*{stroke-linecap:butt;stroke-linejoin:round;}</style>
 </defs>
 <g id="figure_1">
  <g id="patch_1">
   <path d="M 0 340.648125 
L 710.163182 340.648125 
L 710.163182 0 
L 0 0 
z
" style="fill:none;"/>
  </g>
  <g id="axes_1">
   <g id="patch_2">
    <path d="M 33.363182 319.77 
L 337.726818 319.77 
L 337.726818 47.97 
L 33.363182 47.97 
z
" style="fill:#ffffff;"/>
   </g>
   <g id="PathCollection_1">
    <defs>
     <path d="M -3 3 
L 3 -3 
M -3 -3 
L 3 3 
" id="m2e16ae0781" style="stroke:#d62728;stroke-opacity:0.8;stroke-width:1.5;"/>
    </defs>
    <g clip-path="url(#pbc744a6248)">
     <use style="fill:#d62728;fill-opacity:0.8;stroke:#d62728;stroke-opacity:0.8;stroke-width:1.5;" x="73.903913" xlink:href="#m2e16ae0781" y="307.415455"/>
     <use style="fill:#d62728;fill-opacity:0.8;stroke:#d62728;stroke-opacity:0.8;stroke-width:1.5;" x="97.711289" xlink:href="#m2e16ae0781" y="223.445007"/>
     <use style="fill:#d62728;fill-opacity:0.8;stroke:#d62728;stroke-opacity:0.8;stroke-width:1.5;" x="141.512379" xlink:href="#m2e16ae0781" y="152.816868"/>
     <use style="fill:#d62728;fill-opacity:0.8;stroke:#d62728;stroke-opacity:0.8;stroke-width:1.5;" x="203.163752" xlink:href="#m2e16ae0781" y="101.450125"/>
     <use style="fill:#d62728;fill-opacity:0.8;stroke:#d62728;stroke-opacity:0.8;stroke-width:1.5;" x="285.868433" xlink:href="#m2e16ae0781" y="60.324545"/>
    </g>
   </g>
   <g id="matplotlib.axis_1">
    <g id="text_1">
     <!-- x -->
     <g transform="translate(182.585625 331.368437)scale(0.1 -0.1)">
      <defs>
       <path d="M 3513 3500 
L 2247 1797 
L 3578 0 
L 2900 0 
L 1881 1375 
L 863 0 
L 184 0 
L 1544 1831 
L 300 3500 
L 978 3500 
L 1906 2253 
L 2834 3500 
L 3513 3500 
z
" id="DejaVuSans-78" transform="scale(0.015625)"/>
      </defs>
      <use xlink:href="#DejaVuSans-78"/>
     </g>
    </g>
   </g>
   <g id="matplotlib.axis_2">
    <g id="text_2">
     <!-- y -->
     <g transform="translate(27.283494 186.829375)rotate(-90)scale(0.1 -0.1)">
      <defs>
       <path d="M 2059 -325 
Q 1816 -950 1584 -1140 
Q 1353 -1331 966 -1331 
L 506 -1331 
L 506 -850 
L 844 -850 
Q 1081 -850 1212 -737 
Q 1344 -625 1503 -206 
L 1606 56 
L 191 3500 
L 800 3500 
L 1894 763 
L 2988 3500 
L 3597 3500 
L 2059 -325 
z
" id="DejaVuSans-79" transform="scale(0.015625)"/>
      </defs>
      <use xlink:href="#DejaVuSans-79"/>
     </g>
    </g>
   </g>
   <g id="line2d_1">
    <path clip-path="url(#pbc744a6248)" d="M 73.903913 293.13435 
L 76.044968 288.059961 
L 78.186024 283.041983 
L 80.32708 278.080415 
L 82.468136 273.175259 
L 84.609191 268.326513 
L 86.750247 263.534177 
L 88.891303 258.798253 
L 91.032359 254.118739 
L 93.173414 249.495636 
L 95.31447 244.928943 
L 97.455526 240.418662 
L 99.596582 235.964791 
L 101.737637 231.56733 
L 103.878693 227.226281 
L 106.019749 222.941642 
L 108.160805 218.713414 
L 110.301861 214.541596 
L 112.442916 210.42619 
L 114.583972 206.367194 
L 116.725028 202.364609 
L 118.866084 198.418434 
L 121.007139 194.52867 
L 123.148195 190.695317 
L 125.289251 186.918375 
L 127.430307 183.197843 
L 129.571362 179.533722 
L 131.712418 175.926012 
L 133.853474 172.374713 
L 135.99453 168.879824 
L 138.135585 165.441346 
L 140.276641 162.059279 
L 142.417697 158.733622 
L 144.558753 155.464376 
L 146.699808 152.251541 
L 148.840864 149.095116 
L 150.98192 145.995103 
L 153.122976 142.9515 
L 155.264031 139.964308 
L 157.405087 137.033526 
L 159.546143 134.159155 
L 161.687199 131.341195 
L 163.828254 128.579646 
L 165.96931 125.874507 
L 168.110366 123.225779 
L 170.251422 120.633462 
L 172.392477 118.097555 
L 174.533533 115.61806 
L 176.674589 113.194974 
L 178.815645 110.8283 
L 180.9567 108.518037 
L 183.097756 106.264184 
L 185.238812 104.066741 
L 187.379868 101.92571 
L 189.520923 99.841089 
L 191.661979 97.812879 
L 193.803035 95.84108 
L 195.944091 93.925691 
L 198.085147 92.066713 
L 200.226202 90.264146 
L 202.367258 88.51799 
L 204.508314 86.828244 
L 206.64937 85.194909 
L 208.790425 83.617985 
L 210.931481 82.097471 
L 213.072537 80.633369 
L 215.213593 79.225676 
L 217.354648 77.874395 
L 219.495704 76.579524 
L 221.63676 75.341065 
L 223.777816 74.159015 
L 225.918871 73.033377 
L 228.059927 71.964149 
L 230.200983 70.951332 
L 232.342039 69.994926 
L 234.483094 69.09493 
L 236.62415 68.251345 
L 238.765206 67.464171 
L 240.906262 66.733407 
L 243.047317 66.059055 
L 245.188373 65.441113 
L 247.329429 64.879581 
L 249.470485 64.374461 
L 251.61154 63.925751 
L 253.752596 63.533452 
L 255.893652 63.197563 
L 258.034708 62.918086 
L 260.175763 62.695019 
L 262.316819 62.528363 
L 264.457875 62.418117 
L 266.598931 62.364282 
L 268.739986 62.366858 
L 270.881042 62.425845 
L 273.022098 62.541242 
L 275.163154 62.71305 
L 277.30421 62.941269 
L 279.445265 63.225898 
L 281.586321 63.566939 
L 283.727377 63.96439 
L 285.868433 64.418251 
" style="fill:none;stroke:#1f77b4;stroke-linecap:square;stroke-width:2.25;"/>
   </g>
   <g id="patch_3">
    <path d="M 33.363182 319.77 
L 33.363182 47.97 
" style="fill:none;stroke:#000000;stroke-linecap:square;stroke-linejoin:miter;stroke-width:0.8;"/>
   </g>
   <g id="patch_4">
    <path d="M 337.726818 319.77 
L 337.726818 47.97 
" style="fill:none;stroke:#000000;stroke-linecap:square;stroke-linejoin:miter;stroke-width:0.8;"/>
   </g>
   <g id="patch_5">
    <path d="M 33.363182 319.77 
L 337.726818 319.77 
" style="fill:none;stroke:#000000;stroke-linecap:square;stroke-linejoin:miter;stroke-width:0.8;"/>
   </g>
   <g id="patch_6">
    <path d="M 33.363182 47.97 
L 337.726818 47.97 
" style="fill:none;stroke:#000000;stroke-linecap:square;stroke-linejoin:miter;stroke-width:0.8;"/>
   </g>
   <g id="text_3">
    <!-- A -->
    <g transform="translate(7.2 19.3575)scale(0.16 -0.16)">
     <defs>
      <path d="M 2188 4044 
L 1331 1722 
L 3047 1722 
L 2188 4044 
z
M 1831 4666 
L 2547 4666 
L 4325 0 
L 3669 0 
L 3244 1197 
L 1141 1197 
L 716 0 
L 50 0 
L 1831 4666 
z
" id="DejaVuSans-41" transform="scale(0.015625)"/>
     </defs>
     <use xlink:href="#DejaVuSans-41"/>
    </g>
   </g>
   <g id="text_4">
    <!-- $\theta_0+\theta_1x+\theta_2x^2$ -->
    <g transform="translate(146.365 41.97)scale(0.12 -0.12)">
     <defs>
      <path d="M 1031 -72 
Q 741 -72 566 140 
Q 391 353 323 653 
Q 256 953 256 1247 
L 256 1253 
Q 256 1572 317 1915 
Q 378 2259 493 2601 
Q 609 2944 744 3213 
Q 838 3400 986 3631 
Q 1134 3863 1317 4064 
Q 1500 4266 1711 4389 
Q 1922 4513 2138 4513 
L 2144 4513 
Q 2375 4513 2529 4384 
Q 2684 4256 2770 4056 
Q 2856 3856 2890 3628 
Q 2925 3400 2925 3194 
Q 2925 2709 2794 2204 
Q 2663 1700 2431 1228 
Q 2344 1050 2189 809 
Q 2034 569 1861 378 
Q 1688 188 1472 58 
Q 1256 -72 1038 -72 
L 1031 -72 
z
M 1044 97 
Q 1256 97 1451 323 
Q 1647 550 1794 873 
Q 1941 1197 2052 1536 
Q 2163 1875 2216 2113 
L 909 2113 
Q 809 1709 753 1417 
Q 697 1125 697 844 
Q 697 97 1044 97 
z
M 959 2338 
L 2272 2338 
Q 2341 2619 2381 2808 
Q 2422 2997 2450 3206 
Q 2478 3416 2478 3597 
Q 2478 4347 2138 4347 
Q 1731 4347 1436 3692 
Q 1141 3038 959 2338 
z
" id="Cmmi10-b5" transform="scale(0.015625)"/>
      <path d="M 1600 -141 
Q 816 -141 533 504 
Q 250 1150 250 2041 
Q 250 2597 351 3087 
Q 453 3578 754 3920 
Q 1056 4263 1600 4263 
Q 2022 4263 2290 4056 
Q 2559 3850 2700 3523 
Q 2841 3197 2892 2823 
Q 2944 2450 2944 2041 
Q 2944 1491 2842 1011 
Q 2741 531 2444 195 
Q 2147 -141 1600 -141 
z
M 1600 25 
Q 1956 25 2131 390 
Q 2306 756 2347 1200 
Q 2388 1644 2388 2144 
Q 2388 2625 2347 3031 
Q 2306 3438 2132 3767 
Q 1959 4097 1600 4097 
Q 1238 4097 1063 3765 
Q 888 3434 847 3029 
Q 806 2625 806 2144 
Q 806 1788 823 1472 
Q 841 1156 916 820 
Q 991 484 1158 254 
Q 1325 25 1600 25 
z
" id="Cmr10-30" transform="scale(0.015625)"/>
      <path d="M 481 1472 
Q 428 1472 393 1512 
Q 359 1553 359 1600 
Q 359 1647 393 1687 
Q 428 1728 481 1728 
L 2363 1728 
L 2363 3616 
Q 2363 3666 2400 3698 
Q 2438 3731 2491 3731 
Q 2538 3731 2578 3698 
Q 2619 3666 2619 3616 
L 2619 1728 
L 4500 1728 
Q 4547 1728 4581 1687 
Q 4616 1647 4616 1600 
Q 4616 1553 4581 1512 
Q 4547 1472 4500 1472 
L 2619 1472 
L 2619 -416 
Q 2619 -466 2578 -498 
Q 2538 -531 2491 -531 
Q 2438 -531 2400 -498 
Q 2363 -466 2363 -416 
L 2363 1472 
L 481 1472 
z
" id="Cmr10-2b" transform="scale(0.015625)"/>
      <path d="M 594 0 
L 594 225 
Q 1394 225 1394 428 
L 1394 3788 
Q 1063 3628 556 3628 
L 556 3853 
Q 1341 3853 1741 4263 
L 1831 4263 
Q 1853 4263 1873 4245 
Q 1894 4228 1894 4206 
L 1894 428 
Q 1894 225 2694 225 
L 2694 0 
L 594 0 
z
" id="Cmr10-31" transform="scale(0.015625)"/>
      <path d="M 500 184 
Q 613 97 819 97 
Q 1019 97 1172 289 
Q 1325 481 1381 709 
L 1672 1844 
Q 1741 2153 1741 2266 
Q 1741 2425 1652 2544 
Q 1563 2663 1403 2663 
Q 1200 2663 1022 2536 
Q 844 2409 722 2214 
Q 600 2019 550 1819 
Q 538 1778 500 1778 
L 422 1778 
Q 372 1778 372 1838 
L 372 1856 
Q 434 2094 584 2320 
Q 734 2547 951 2687 
Q 1169 2828 1416 2828 
Q 1650 2828 1839 2703 
Q 2028 2578 2106 2363 
Q 2216 2559 2386 2693 
Q 2556 2828 2759 2828 
Q 2897 2828 3040 2779 
Q 3184 2731 3275 2631 
Q 3366 2531 3366 2381 
Q 3366 2219 3261 2101 
Q 3156 1984 2994 1984 
Q 2891 1984 2822 2050 
Q 2753 2116 2753 2216 
Q 2753 2350 2845 2451 
Q 2938 2553 3066 2572 
Q 2950 2663 2747 2663 
Q 2541 2663 2389 2472 
Q 2238 2281 2175 2047 
L 1894 916 
Q 1825 659 1825 494 
Q 1825 331 1917 214 
Q 2009 97 2163 97 
Q 2463 97 2698 361 
Q 2934 625 3009 941 
Q 3022 978 3059 978 
L 3138 978 
Q 3163 978 3178 961 
Q 3194 944 3194 922 
Q 3194 916 3188 903 
Q 3097 522 2806 225 
Q 2516 -72 2150 -72 
Q 1916 -72 1727 54 
Q 1538 181 1459 397 
Q 1359 209 1182 68 
Q 1006 -72 806 -72 
Q 669 -72 523 -23 
Q 378 25 287 125 
Q 197 225 197 378 
Q 197 528 301 651 
Q 406 775 563 775 
Q 669 775 741 711 
Q 813 647 813 544 
Q 813 409 723 309 
Q 634 209 500 184 
z
" id="Cmmi10-78" transform="scale(0.015625)"/>
      <path d="M 319 0 
L 319 172 
Q 319 188 331 206 
L 1325 1306 
Q 1550 1550 1690 1715 
Q 1831 1881 1968 2097 
Q 2106 2313 2186 2536 
Q 2266 2759 2266 3009 
Q 2266 3272 2169 3511 
Q 2072 3750 1880 3894 
Q 1688 4038 1416 4038 
Q 1138 4038 916 3870 
Q 694 3703 603 3438 
Q 628 3444 672 3444 
Q 816 3444 917 3347 
Q 1019 3250 1019 3097 
Q 1019 2950 917 2848 
Q 816 2747 672 2747 
Q 522 2747 420 2851 
Q 319 2956 319 3097 
Q 319 3338 409 3548 
Q 500 3759 670 3923 
Q 841 4088 1055 4175 
Q 1269 4263 1509 4263 
Q 1875 4263 2190 4108 
Q 2506 3953 2690 3670 
Q 2875 3388 2875 3009 
Q 2875 2731 2753 2481 
Q 2631 2231 2440 2026 
Q 2250 1822 1953 1562 
Q 1656 1303 1563 1216 
L 838 519 
L 1453 519 
Q 1906 519 2211 526 
Q 2516 534 2534 550 
Q 2609 631 2688 1141 
L 2875 1141 
L 2694 0 
L 319 0 
z
" id="Cmr10-32" transform="scale(0.015625)"/>
     </defs>
     <use transform="translate(0 0.109375)" xlink:href="#Cmmi10-b5"/>
     <use transform="translate(46.923828 -16.896875)scale(0.7)" xlink:href="#Cmr10-30"/>
     <use transform="translate(105.859766 0.109375)" xlink:href="#Cmr10-2b"/>
     <use transform="translate(201.103906 0.109375)" xlink:href="#Cmmi10-b5"/>
     <use transform="translate(248.027734 -16.896875)scale(0.7)" xlink:href="#Cmr10-31"/>
     <use transform="translate(289.405078 0.109375)" xlink:href="#Cmmi10-78"/>
     <use transform="translate(364.04375 0.109375)" xlink:href="#Cmr10-2b"/>
     <use transform="translate(459.287891 0.109375)" xlink:href="#Cmmi10-b5"/>
     <use transform="translate(506.211719 -16.896875)scale(0.7)" xlink:href="#Cmr10-32"/>
     <use transform="translate(547.589062 0.109375)" xlink:href="#Cmmi10-78"/>
     <use transform="translate(610.972422 38.373438)scale(0.7)" xlink:href="#Cmr10-32"/>
    </g>
   </g>
  </g>
  <g id="axes_2">
   <g id="patch_7">
    <path d="M 398.599545 319.77 
L 702.963182 319.77 
L 702.963182 47.97 
L 398.599545 47.97 
z
" style="fill:#ffffff;"/>
   </g>
   <g id="PathCollection_2">
    <g clip-path="url(#pcb92ae44c9)">
     <use style="fill:#d62728;fill-opacity:0.8;stroke:#d62728;stroke-opacity:0.8;stroke-width:1.5;" x="439.140276" xlink:href="#m2e16ae0781" y="307.415455"/>
     <use style="fill:#d62728;fill-opacity:0.8;stroke:#d62728;stroke-opacity:0.8;stroke-width:1.5;" x="462.947653" xlink:href="#m2e16ae0781" y="225.389585"/>
     <use style="fill:#d62728;fill-opacity:0.8;stroke:#d62728;stroke-opacity:0.8;stroke-width:1.5;" x="506.748743" xlink:href="#m2e16ae0781" y="156.397044"/>
     <use style="fill:#d62728;fill-opacity:0.8;stroke:#d62728;stroke-opacity:0.8;stroke-width:1.5;" x="568.400116" xlink:href="#m2e16ae0781" y="106.219846"/>
     <use style="fill:#d62728;fill-opacity:0.8;stroke:#d62728;stroke-opacity:0.8;stroke-width:1.5;" x="651.104796" xlink:href="#m2e16ae0781" y="66.046648"/>
    </g>
   </g>
   <g id="matplotlib.axis_3">
    <g id="text_5">
     <!-- x -->
     <g transform="translate(547.821989 331.368437)scale(0.1 -0.1)">
      <use xlink:href="#DejaVuSans-78"/>
     </g>
    </g>
   </g>
   <g id="matplotlib.axis_4">
    <g id="text_6">
     <!-- y -->
     <g transform="translate(392.519858 186.829375)rotate(-90)scale(0.1 -0.1)">
      <use xlink:href="#DejaVuSans-79"/>
     </g>
    </g>
   </g>
   <g id="line2d_2">
    <path clip-path="url(#pcb92ae44c9)" d="M 439.140276 307.415455 
L 441.281332 298.034874 
L 443.422388 289.099846 
L 445.563444 280.593441 
L 447.704499 272.499045 
L 449.845555 264.800355 
L 451.986611 257.481386 
L 454.127667 250.526461 
L 456.268722 243.920223 
L 458.409778 237.647624 
L 460.550834 231.693933 
L 462.69189 226.04473 
L 464.832945 220.685911 
L 466.974001 215.603684 
L 469.115057 210.784573 
L 471.256113 206.215414 
L 473.397168 201.883357 
L 475.538224 197.775867 
L 477.67928 193.880721 
L 479.820336 190.186011 
L 481.961391 186.680142 
L 484.102447 183.351835 
L 486.243503 180.190121 
L 488.384559 177.184348 
L 490.525614 174.324177 
L 492.66667 171.599581 
L 494.807726 169.000849 
L 496.948782 166.518583 
L 499.089837 164.143699 
L 501.230893 161.867427 
L 503.371949 159.681309 
L 505.513005 157.577203 
L 507.65406 155.54728 
L 509.795116 153.584025 
L 511.936172 151.680236 
L 514.077228 149.829025 
L 516.218284 148.023818 
L 518.359339 146.258357 
L 520.500395 144.526693 
L 522.641451 142.823195 
L 524.782507 141.142543 
L 526.923562 139.479734 
L 529.064618 137.830075 
L 531.205674 136.189189 
L 533.34673 134.553014 
L 535.487785 132.917798 
L 537.628841 131.280106 
L 539.769897 129.636816 
L 541.910953 127.985119 
L 544.052008 126.32252 
L 546.193064 124.64684 
L 548.33412 122.95621 
L 550.475176 121.249077 
L 552.616231 119.524202 
L 554.757287 117.780659 
L 556.898343 116.017837 
L 559.039399 114.235437 
L 561.180454 112.433474 
L 563.32151 110.612279 
L 565.462566 108.772494 
L 567.603622 106.915077 
L 569.744677 105.041298 
L 571.885733 103.152742 
L 574.026789 101.251307 
L 576.167845 99.339206 
L 578.3089 97.418964 
L 580.449956 95.493421 
L 582.591012 93.565731 
L 584.732068 91.639361 
L 586.873123 89.718093 
L 589.014179 87.80602 
L 591.155235 85.907552 
L 593.296291 84.027411 
L 595.437347 82.170634 
L 597.578402 80.342571 
L 599.719458 78.548885 
L 601.860514 76.795554 
L 604.00157 75.088869 
L 606.142625 73.435436 
L 608.283681 71.842174 
L 610.424737 70.316316 
L 612.565793 68.865407 
L 614.706848 67.497309 
L 616.847904 66.220196 
L 618.98896 65.042555 
L 621.130016 63.973189 
L 623.271071 63.021212 
L 625.412127 62.196055 
L 627.553183 61.507459 
L 629.694239 60.965483 
L 631.835294 60.580497 
L 633.97635 60.363185 
L 636.117406 60.324545 
L 638.258462 60.475891 
L 640.399517 60.828846 
L 642.540573 61.395351 
L 644.681629 62.18766 
L 646.822685 63.21834 
L 648.96374 64.500271 
L 651.104796 66.046648 
" style="fill:none;stroke:#1f77b4;stroke-linecap:square;stroke-width:2.25;"/>
   </g>
   <g id="patch_8">
    <path d="M 398.599545 319.77 
L 398.599545 47.97 
" style="fill:none;stroke:#000000;stroke-linecap:square;stroke-linejoin:miter;stroke-width:0.8;"/>
   </g>
   <g id="patch_9">
    <path d="M 702.963182 319.77 
L 702.963182 47.97 
" style="fill:none;stroke:#000000;stroke-linecap:square;stroke-linejoin:miter;stroke-width:0.8;"/>
   </g>
   <g id="patch_10">
    <path d="M 398.599545 319.77 
L 702.963182 319.77 
" style="fill:none;stroke:#000000;stroke-linecap:square;stroke-linejoin:miter;stroke-width:0.8;"/>
   </g>
   <g id="patch_11">
    <path d="M 398.599545 47.97 
L 702.963182 47.97 
" style="fill:none;stroke:#000000;stroke-linecap:square;stroke-linejoin:miter;stroke-width:0.8;"/>
   </g>
   <g id="text_7">
    <!-- B -->
    <g transform="translate(372.403864 19.3575)scale(0.16 -0.16)">
     <defs>
      <path d="M 1259 2228 
L 1259 519 
L 2272 519 
Q 2781 519 3026 730 
Q 3272 941 3272 1375 
Q 3272 1813 3026 2020 
Q 2781 2228 2272 2228 
L 1259 2228 
z
M 1259 4147 
L 1259 2741 
L 2194 2741 
Q 2656 2741 2882 2914 
Q 3109 3088 3109 3444 
Q 3109 3797 2882 3972 
Q 2656 4147 2194 4147 
L 1259 4147 
z
M 628 4666 
L 2241 4666 
Q 2963 4666 3353 4366 
Q 3744 4066 3744 3513 
Q 3744 3084 3544 2831 
Q 3344 2578 2956 2516 
Q 3422 2416 3680 2098 
Q 3938 1781 3938 1306 
Q 3938 681 3513 340 
Q 3088 0 2303 0 
L 628 0 
L 628 4666 
z
" id="DejaVuSans-42" transform="scale(0.015625)"/>
     </defs>
     <use xlink:href="#DejaVuSans-42"/>
    </g>
   </g>
   <g id="text_8">
    <!-- $\theta_0+\theta_1x+\theta_2x^2+\theta_3x^3+\theta_4x^4$ -->
    <g transform="translate(474.881364 41.97)scale(0.12 -0.12)">
     <defs>
      <path d="M 609 494 
Q 759 275 1012 169 
Q 1266 63 1556 63 
Q 1928 63 2084 380 
Q 2241 697 2241 1100 
Q 2241 1281 2208 1462 
Q 2175 1644 2097 1800 
Q 2019 1956 1883 2050 
Q 1747 2144 1550 2144 
L 1125 2144 
Q 1069 2144 1069 2203 
L 1069 2259 
Q 1069 2309 1125 2309 
L 1478 2338 
Q 1703 2338 1851 2506 
Q 2000 2675 2069 2917 
Q 2138 3159 2138 3378 
Q 2138 3684 1994 3881 
Q 1850 4078 1556 4078 
Q 1313 4078 1091 3986 
Q 869 3894 738 3706 
Q 750 3709 759 3711 
Q 769 3713 781 3713 
Q 925 3713 1022 3613 
Q 1119 3513 1119 3372 
Q 1119 3234 1022 3134 
Q 925 3034 781 3034 
Q 641 3034 541 3134 
Q 441 3234 441 3372 
Q 441 3647 606 3850 
Q 772 4053 1033 4158 
Q 1294 4263 1556 4263 
Q 1750 4263 1965 4205 
Q 2181 4147 2356 4039 
Q 2531 3931 2642 3762 
Q 2753 3594 2753 3378 
Q 2753 3109 2633 2881 
Q 2513 2653 2303 2487 
Q 2094 2322 1844 2241 
Q 2122 2188 2372 2031 
Q 2622 1875 2773 1631 
Q 2925 1388 2925 1106 
Q 2925 753 2731 467 
Q 2538 181 2222 20 
Q 1906 -141 1556 -141 
Q 1256 -141 954 -26 
Q 653 88 461 316 
Q 269 544 269 863 
Q 269 1022 375 1128 
Q 481 1234 641 1234 
Q 744 1234 830 1186 
Q 916 1138 964 1050 
Q 1013 963 1013 863 
Q 1013 706 903 600 
Q 794 494 641 494 
L 609 494 
z
" id="Cmr10-33" transform="scale(0.015625)"/>
      <path d="M 178 1056 
L 178 1281 
L 2156 4231 
Q 2178 4263 2222 4263 
L 2316 4263 
Q 2388 4263 2388 4191 
L 2388 1281 
L 3016 1281 
L 3016 1056 
L 2388 1056 
L 2388 428 
Q 2388 297 2575 261 
Q 2763 225 3009 225 
L 3009 0 
L 1247 0 
L 1247 225 
Q 1494 225 1681 261 
Q 1869 297 1869 428 
L 1869 1056 
L 178 1056 
z
M 391 1281 
L 1906 1281 
L 1906 3547 
L 391 1281 
z
" id="Cmr10-34" transform="scale(0.015625)"/>
     </defs>
     <use transform="translate(0 0.109375)" xlink:href="#Cmmi10-b5"/>
     <use transform="translate(46.923828 -16.896875)scale(0.7)" xlink:href="#Cmr10-30"/>
     <use transform="translate(105.859766 0.109375)" xlink:href="#Cmr10-2b"/>
     <use transform="translate(201.103906 0.109375)" xlink:href="#Cmmi10-b5"/>
     <use transform="translate(248.027734 -16.896875)scale(0.7)" xlink:href="#Cmr10-31"/>
     <use transform="translate(289.405078 0.109375)" xlink:href="#Cmmi10-78"/>
     <use transform="translate(364.04375 0.109375)" xlink:href="#Cmr10-2b"/>
     <use transform="translate(459.287891 0.109375)" xlink:href="#Cmmi10-b5"/>
     <use transform="translate(506.211719 -16.896875)scale(0.7)" xlink:href="#Cmr10-32"/>
     <use transform="translate(547.589062 0.109375)" xlink:href="#Cmmi10-78"/>
     <use transform="translate(610.972422 38.373438)scale(0.7)" xlink:href="#Cmr10-32"/>
     <use transform="translate(669.908359 0.109375)" xlink:href="#Cmr10-2b"/>
     <use transform="translate(765.1525 0.109375)" xlink:href="#Cmmi10-b5"/>
     <use transform="translate(812.076328 -16.896875)scale(0.7)" xlink:href="#Cmr10-33"/>
     <use transform="translate(853.453672 0.109375)" xlink:href="#Cmmi10-78"/>
     <use transform="translate(916.837031 38.373438)scale(0.7)" xlink:href="#Cmr10-33"/>
     <use transform="translate(975.772969 0.109375)" xlink:href="#Cmr10-2b"/>
     <use transform="translate(1071.017109 0.109375)" xlink:href="#Cmmi10-b5"/>
     <use transform="translate(1117.940938 -16.896875)scale(0.7)" xlink:href="#Cmr10-34"/>
     <use transform="translate(1159.318281 0.109375)" xlink:href="#Cmmi10-78"/>
     <use transform="translate(1222.701641 38.373438)scale(0.7)" xlink:href="#Cmr10-34"/>
    </g>
   </g>
  </g>
 </g>
 <defs>
  <clipPath id="pbc744a6248">
   <rect height="271.8" width="304.363636" x="33.363182" y="47.97"/>
  </clipPath>
  <clipPath id="pcb92ae44c9">
   <rect height="271.8" width="304.363636" x="398.599545" y="47.97"/>
  </clipPath>
 </defs>
</svg>
