<?xml version="1.0" encoding="utf-8" standalone="no"?>
<!DOCTYPE svg PUBLIC "-//W3C//DTD SVG 1.1//EN"
  "http://www.w3.org/Graphics/SVG/1.1/DTD/svg11.dtd">
<svg height="215.620125pt" version="1.1" viewBox="0 0 704.792059 215.620125" width="704.792059pt" xmlns="http://www.w3.org/2000/svg" xmlns:xlink="http://www.w3.org/1999/xlink">
 <metadata>
  <rdf:RDF xmlns:cc="http://creativecommons.org/ns#" xmlns:dc="http://purl.org/dc/elements/1.1/" xmlns:rdf="http://www.w3.org/1999/02/22-rdf-syntax-ns#">
   <cc:Work>
    <dc:type rdf:resource="http://purl.org/dc/dcmitype/StillImage"/>
    <dc:date>2021-09-27T21:32:37.943705</dc:date>
    <dc:format>image/svg+xml</dc:format>
    <dc:creator>
     <cc:Agent>
      <dc:title>Matplotlib v3.4.3, https://matplotlib.org/</dc:title>
     </cc:Agent>
    </dc:creator>
   </cc:Work>
  </rdf:RDF>
 </metadata>
 <defs>
  <style type="text/css">*{stroke-linecap:butt;stroke-linejoin:round;}</style>
 </defs>
 <g id="figure_1">
  <g id="patch_1">
   <path d="M 0 215.620125 
L 704.792059 215.620125 
L 704.792059 0 
L 0 0 
z
" style="fill:none;"/>
  </g>
  <g id="axes_1">
   <g id="patch_2">
    <path d="M 27.992059 194.742 
L 224.933235 194.742 
L 224.933235 31.662 
L 27.992059 31.662 
z
" style="fill:#ffffff;"/>
   </g>
   <g id="PathCollection_1">
    <defs>
     <path d="M -3 3 
L 3 -3 
M -3 -3 
L 3 3 
" id="m2938240603" style="stroke:#d62728;stroke-opacity:0.8;stroke-width:1.5;"/>
    </defs>
    <g clip-path="url(#p076d76308c)">
     <use style="fill:#d62728;fill-opacity:0.8;stroke:#d62728;stroke-opacity:0.8;stroke-width:1.5;" x="54.224296" xlink:href="#m2938240603" y="187.329273"/>
     <use style="fill:#d62728;fill-opacity:0.8;stroke:#d62728;stroke-opacity:0.8;stroke-width:1.5;" x="69.629069" xlink:href="#m2938240603" y="141.802516"/>
     <use style="fill:#d62728;fill-opacity:0.8;stroke:#d62728;stroke-opacity:0.8;stroke-width:1.5;" x="97.970951" xlink:href="#m2938240603" y="103.509638"/>
     <use style="fill:#d62728;fill-opacity:0.8;stroke:#d62728;stroke-opacity:0.8;stroke-width:1.5;" x="137.863016" xlink:href="#m2938240603" y="75.659826"/>
     <use style="fill:#d62728;fill-opacity:0.8;stroke:#d62728;stroke-opacity:0.8;stroke-width:1.5;" x="191.377809" xlink:href="#m2938240603" y="53.362526"/>
    </g>
   </g>
   <g id="matplotlib.axis_1">
    <g id="text_1">
     <!-- x -->
     <g transform="translate(123.503272 206.340437)scale(0.1 -0.1)">
      <defs>
       <path d="M 3513 3500 
L 2247 1797 
L 3578 0 
L 2900 0 
L 1881 1375 
L 863 0 
L 184 0 
L 1544 1831 
L 300 3500 
L 978 3500 
L 1906 2253 
L 2834 3500 
L 3513 3500 
z
" id="DejaVuSans-78" transform="scale(0.015625)"/>
      </defs>
      <use xlink:href="#DejaVuSans-78"/>
     </g>
    </g>
   </g>
   <g id="matplotlib.axis_2">
    <g id="text_2">
     <!-- y -->
     <g transform="translate(21.912371 116.161375)rotate(-90)scale(0.1 -0.1)">
      <defs>
       <path d="M 2059 -325 
Q 1816 -950 1584 -1140 
Q 1353 -1331 966 -1331 
L 506 -1331 
L 506 -850 
L 844 -850 
Q 1081 -850 1212 -737 
Q 1344 -625 1503 -206 
L 1606 56 
L 191 3500 
L 800 3500 
L 1894 763 
L 2988 3500 
L 3597 3500 
L 2059 -325 
z
" id="DejaVuSans-79" transform="scale(0.015625)"/>
      </defs>
      <use xlink:href="#DejaVuSans-79"/>
     </g>
    </g>
   </g>
   <g id="line2d_1">
    <path clip-path="url(#p076d76308c)" d="M 54.224296 162.867287 
L 55.609685 161.616857 
L 56.995074 160.366427 
L 58.380463 159.115997 
L 59.765852 157.865567 
L 61.151242 156.615137 
L 62.536631 155.364707 
L 63.92202 154.114277 
L 65.307409 152.863848 
L 66.692798 151.613418 
L 68.078187 150.362988 
L 69.463576 149.112558 
L 70.848965 147.862128 
L 72.234354 146.611698 
L 73.619743 145.361268 
L 75.005132 144.110838 
L 76.390521 142.860408 
L 77.77591 141.609979 
L 79.161299 140.359549 
L 80.546688 139.109119 
L 81.932077 137.858689 
L 83.317466 136.608259 
L 84.702855 135.357829 
L 86.088244 134.107399 
L 87.473633 132.856969 
L 88.859022 131.606539 
L 90.244411 130.356109 
L 91.6298 129.10568 
L 93.015189 127.85525 
L 94.400578 126.60482 
L 95.785967 125.35439 
L 97.171356 124.10396 
L 98.556745 122.85353 
L 99.942134 121.6031 
L 101.327523 120.35267 
L 102.712912 119.10224 
L 104.098301 117.851811 
L 105.48369 116.601381 
L 106.869079 115.350951 
L 108.254468 114.100521 
L 109.639857 112.850091 
L 111.025246 111.599661 
L 112.410635 110.349231 
L 113.796024 109.098801 
L 115.181413 107.848371 
L 116.566802 106.597942 
L 117.952191 105.347512 
L 119.33758 104.097082 
L 120.722969 102.846652 
L 122.108358 101.596222 
L 123.493747 100.345792 
L 124.879136 99.095362 
L 126.264525 97.844932 
L 127.649914 96.594502 
L 129.035303 95.344072 
L 130.420692 94.093643 
L 131.806081 92.843213 
L 133.19147 91.592783 
L 134.57686 90.342353 
L 135.962249 89.091923 
L 137.347638 87.841493 
L 138.733027 86.591063 
L 140.118416 85.340633 
L 141.503805 84.090203 
L 142.889194 82.839774 
L 144.274583 81.589344 
L 145.659972 80.338914 
L 147.045361 79.088484 
L 148.43075 77.838054 
L 149.816139 76.587624 
L 151.201528 75.337194 
L 152.586917 74.086764 
L 153.972306 72.836334 
L 155.357695 71.585905 
L 156.743084 70.335475 
L 158.128473 69.085045 
L 159.513862 67.834615 
L 160.899251 66.584185 
L 162.28464 65.333755 
L 163.670029 64.083325 
L 165.055418 62.832895 
L 166.440807 61.582465 
L 167.826196 60.332035 
L 169.211585 59.081606 
L 170.596974 57.831176 
L 171.982363 56.580746 
L 173.367752 55.330316 
L 174.753141 54.079886 
L 176.13853 52.829456 
L 177.523919 51.579026 
L 178.909308 50.328596 
L 180.294697 49.078166 
L 181.680086 47.827737 
L 183.065475 46.577307 
L 184.450864 45.326877 
L 185.836253 44.076447 
L 187.221642 42.826017 
L 188.607031 41.575587 
L 189.99242 40.325157 
L 191.377809 39.074727 
" style="fill:none;stroke:#1f77b4;stroke-linecap:square;stroke-width:2.25;"/>
   </g>
   <g id="patch_3">
    <path d="M 27.992059 194.742 
L 27.992059 31.662 
" style="fill:none;stroke:#000000;stroke-linecap:square;stroke-linejoin:miter;stroke-width:0.8;"/>
   </g>
   <g id="patch_4">
    <path d="M 224.933235 194.742 
L 224.933235 31.662 
" style="fill:none;stroke:#000000;stroke-linecap:square;stroke-linejoin:miter;stroke-width:0.8;"/>
   </g>
   <g id="patch_5">
    <path d="M 27.992059 194.742 
L 224.933235 194.742 
" style="fill:none;stroke:#000000;stroke-linecap:square;stroke-linejoin:miter;stroke-width:0.8;"/>
   </g>
   <g id="patch_6">
    <path d="M 27.992059 31.662 
L 224.933235 31.662 
" style="fill:none;stroke:#000000;stroke-linecap:square;stroke-linejoin:miter;stroke-width:0.8;"/>
   </g>
   <g id="text_3">
    <!-- A -->
    <g transform="translate(7.2 19.3575)scale(0.16 -0.16)">
     <defs>
      <path d="M 2188 4044 
L 1331 1722 
L 3047 1722 
L 2188 4044 
z
M 1831 4666 
L 2547 4666 
L 4325 0 
L 3669 0 
L 3244 1197 
L 1141 1197 
L 716 0 
L 50 0 
L 1831 4666 
z
" id="DejaVuSans-41" transform="scale(0.015625)"/>
     </defs>
     <use xlink:href="#DejaVuSans-41"/>
    </g>
   </g>
   <g id="text_4">
    <!-- $\theta_0+\theta_1x$ -->
    <g transform="translate(105.642647 25.662)scale(0.12 -0.12)">
     <defs>
      <path d="M 1031 -72 
Q 741 -72 566 140 
Q 391 353 323 653 
Q 256 953 256 1247 
L 256 1253 
Q 256 1572 317 1915 
Q 378 2259 493 2601 
Q 609 2944 744 3213 
Q 838 3400 986 3631 
Q 1134 3863 1317 4064 
Q 1500 4266 1711 4389 
Q 1922 4513 2138 4513 
L 2144 4513 
Q 2375 4513 2529 4384 
Q 2684 4256 2770 4056 
Q 2856 3856 2890 3628 
Q 2925 3400 2925 3194 
Q 2925 2709 2794 2204 
Q 2663 1700 2431 1228 
Q 2344 1050 2189 809 
Q 2034 569 1861 378 
Q 1688 188 1472 58 
Q 1256 -72 1038 -72 
L 1031 -72 
z
M 1044 97 
Q 1256 97 1451 323 
Q 1647 550 1794 873 
Q 1941 1197 2052 1536 
Q 2163 1875 2216 2113 
L 909 2113 
Q 809 1709 753 1417 
Q 697 1125 697 844 
Q 697 97 1044 97 
z
M 959 2338 
L 2272 2338 
Q 2341 2619 2381 2808 
Q 2422 2997 2450 3206 
Q 2478 3416 2478 3597 
Q 2478 4347 2138 4347 
Q 1731 4347 1436 3692 
Q 1141 3038 959 2338 
z
" id="Cmmi10-b5" transform="scale(0.015625)"/>
      <path d="M 1600 -141 
Q 816 -141 533 504 
Q 250 1150 250 2041 
Q 250 2597 351 3087 
Q 453 3578 754 3920 
Q 1056 4263 1600 4263 
Q 2022 4263 2290 4056 
Q 2559 3850 2700 3523 
Q 2841 3197 2892 2823 
Q 2944 2450 2944 2041 
Q 2944 1491 2842 1011 
Q 2741 531 2444 195 
Q 2147 -141 1600 -141 
z
M 1600 25 
Q 1956 25 2131 390 
Q 2306 756 2347 1200 
Q 2388 1644 2388 2144 
Q 2388 2625 2347 3031 
Q 2306 3438 2132 3767 
Q 1959 4097 1600 4097 
Q 1238 4097 1063 3765 
Q 888 3434 847 3029 
Q 806 2625 806 2144 
Q 806 1788 823 1472 
Q 841 1156 916 820 
Q 991 484 1158 254 
Q 1325 25 1600 25 
z
" id="Cmr10-30" transform="scale(0.015625)"/>
      <path d="M 481 1472 
Q 428 1472 393 1512 
Q 359 1553 359 1600 
Q 359 1647 393 1687 
Q 428 1728 481 1728 
L 2363 1728 
L 2363 3616 
Q 2363 3666 2400 3698 
Q 2438 3731 2491 3731 
Q 2538 3731 2578 3698 
Q 2619 3666 2619 3616 
L 2619 1728 
L 4500 1728 
Q 4547 1728 4581 1687 
Q 4616 1647 4616 1600 
Q 4616 1553 4581 1512 
Q 4547 1472 4500 1472 
L 2619 1472 
L 2619 -416 
Q 2619 -466 2578 -498 
Q 2538 -531 2491 -531 
Q 2438 -531 2400 -498 
Q 2363 -466 2363 -416 
L 2363 1472 
L 481 1472 
z
" id="Cmr10-2b" transform="scale(0.015625)"/>
      <path d="M 594 0 
L 594 225 
Q 1394 225 1394 428 
L 1394 3788 
Q 1063 3628 556 3628 
L 556 3853 
Q 1341 3853 1741 4263 
L 1831 4263 
Q 1853 4263 1873 4245 
Q 1894 4228 1894 4206 
L 1894 428 
Q 1894 225 2694 225 
L 2694 0 
L 594 0 
z
" id="Cmr10-31" transform="scale(0.015625)"/>
      <path d="M 500 184 
Q 613 97 819 97 
Q 1019 97 1172 289 
Q 1325 481 1381 709 
L 1672 1844 
Q 1741 2153 1741 2266 
Q 1741 2425 1652 2544 
Q 1563 2663 1403 2663 
Q 1200 2663 1022 2536 
Q 844 2409 722 2214 
Q 600 2019 550 1819 
Q 538 1778 500 1778 
L 422 1778 
Q 372 1778 372 1838 
L 372 1856 
Q 434 2094 584 2320 
Q 734 2547 951 2687 
Q 1169 2828 1416 2828 
Q 1650 2828 1839 2703 
Q 2028 2578 2106 2363 
Q 2216 2559 2386 2693 
Q 2556 2828 2759 2828 
Q 2897 2828 3040 2779 
Q 3184 2731 3275 2631 
Q 3366 2531 3366 2381 
Q 3366 2219 3261 2101 
Q 3156 1984 2994 1984 
Q 2891 1984 2822 2050 
Q 2753 2116 2753 2216 
Q 2753 2350 2845 2451 
Q 2938 2553 3066 2572 
Q 2950 2663 2747 2663 
Q 2541 2663 2389 2472 
Q 2238 2281 2175 2047 
L 1894 916 
Q 1825 659 1825 494 
Q 1825 331 1917 214 
Q 2009 97 2163 97 
Q 2463 97 2698 361 
Q 2934 625 3009 941 
Q 3022 978 3059 978 
L 3138 978 
Q 3163 978 3178 961 
Q 3194 944 3194 922 
Q 3194 916 3188 903 
Q 3097 522 2806 225 
Q 2516 -72 2150 -72 
Q 1916 -72 1727 54 
Q 1538 181 1459 397 
Q 1359 209 1182 68 
Q 1006 -72 806 -72 
Q 669 -72 523 -23 
Q 378 25 287 125 
Q 197 225 197 378 
Q 197 528 301 651 
Q 406 775 563 775 
Q 669 775 741 711 
Q 813 647 813 544 
Q 813 409 723 309 
Q 634 209 500 184 
z
" id="Cmmi10-78" transform="scale(0.015625)"/>
     </defs>
     <use transform="translate(0 0.484375)" xlink:href="#Cmmi10-b5"/>
     <use transform="translate(46.923828 -16.521875)scale(0.7)" xlink:href="#Cmr10-30"/>
     <use transform="translate(105.859766 0.484375)" xlink:href="#Cmr10-2b"/>
     <use transform="translate(201.103906 0.484375)" xlink:href="#Cmmi10-b5"/>
     <use transform="translate(248.027734 -16.521875)scale(0.7)" xlink:href="#Cmr10-31"/>
     <use transform="translate(289.405078 0.484375)" xlink:href="#Cmmi10-78"/>
    </g>
   </g>
  </g>
  <g id="axes_2">
   <g id="patch_7">
    <path d="M 264.321471 194.742 
L 461.262647 194.742 
L 461.262647 31.662 
L 264.321471 31.662 
z
" style="fill:#ffffff;"/>
   </g>
   <g id="PathCollection_2">
    <g clip-path="url(#p8b9ae0b58b)">
     <use style="fill:#d62728;fill-opacity:0.8;stroke:#d62728;stroke-opacity:0.8;stroke-width:1.5;" x="290.553708" xlink:href="#m2938240603" y="187.329273"/>
     <use style="fill:#d62728;fill-opacity:0.8;stroke:#d62728;stroke-opacity:0.8;stroke-width:1.5;" x="305.958481" xlink:href="#m2938240603" y="141.802516"/>
     <use style="fill:#d62728;fill-opacity:0.8;stroke:#d62728;stroke-opacity:0.8;stroke-width:1.5;" x="334.300363" xlink:href="#m2938240603" y="103.509638"/>
     <use style="fill:#d62728;fill-opacity:0.8;stroke:#d62728;stroke-opacity:0.8;stroke-width:1.5;" x="374.192428" xlink:href="#m2938240603" y="75.659826"/>
     <use style="fill:#d62728;fill-opacity:0.8;stroke:#d62728;stroke-opacity:0.8;stroke-width:1.5;" x="427.707221" xlink:href="#m2938240603" y="53.362526"/>
    </g>
   </g>
   <g id="matplotlib.axis_3">
    <g id="text_5">
     <!-- x -->
     <g transform="translate(359.832684 206.340437)scale(0.1 -0.1)">
      <use xlink:href="#DejaVuSans-78"/>
     </g>
    </g>
   </g>
   <g id="matplotlib.axis_4">
    <g id="text_6">
     <!-- y -->
     <g transform="translate(258.241783 116.161375)rotate(-90)scale(0.1 -0.1)">
      <use xlink:href="#DejaVuSans-79"/>
     </g>
    </g>
   </g>
   <g id="line2d_2">
    <path clip-path="url(#p8b9ae0b58b)" d="M 290.553708 179.586401 
L 291.939097 176.83519 
L 293.324486 174.114563 
L 294.709875 171.42452 
L 296.095264 168.765062 
L 297.480653 166.136189 
L 298.866042 163.5379 
L 300.251431 160.970195 
L 301.63682 158.433076 
L 303.022209 155.92654 
L 304.407598 153.45059 
L 305.792987 151.005223 
L 307.178376 148.590442 
L 308.563765 146.206244 
L 309.949154 143.852632 
L 311.334543 141.529604 
L 312.719932 139.23716 
L 314.105322 136.975301 
L 315.490711 134.744027 
L 316.8761 132.543337 
L 318.261489 130.373231 
L 319.646878 128.23371 
L 321.032267 126.124774 
L 322.417656 124.046422 
L 323.803045 121.998655 
L 325.188434 119.981472 
L 326.573823 117.994874 
L 327.959212 116.03886 
L 329.344601 114.113431 
L 330.72999 112.218586 
L 332.115379 110.354326 
L 333.500768 108.520651 
L 334.886157 106.71756 
L 336.271546 104.945053 
L 337.656935 103.203131 
L 339.042324 101.491794 
L 340.427713 99.811041 
L 341.813102 98.160873 
L 343.198491 96.541289 
L 344.58388 94.95229 
L 345.969269 93.393875 
L 347.354658 91.866045 
L 348.740047 90.368799 
L 350.125436 88.902138 
L 351.510825 87.466062 
L 352.896214 86.06057 
L 354.281603 84.685662 
L 355.666992 83.341339 
L 357.052381 82.027601 
L 358.43777 80.744447 
L 359.823159 79.491877 
L 361.208548 78.269893 
L 362.593937 77.078492 
L 363.979326 75.917677 
L 365.364715 74.787445 
L 366.750104 73.687799 
L 368.135493 72.618737 
L 369.520882 71.580259 
L 370.906271 70.572366 
L 372.29166 69.595057 
L 373.677049 68.648333 
L 375.062438 67.732194 
L 376.447827 66.846639 
L 377.833216 65.991669 
L 379.218605 65.167283 
L 380.603994 64.373481 
L 381.989383 63.610265 
L 383.374772 62.877632 
L 384.760161 62.175585 
L 386.14555 61.504121 
L 387.53094 60.863243 
L 388.916329 60.252949 
L 390.301718 59.673239 
L 391.687107 59.124114 
L 393.072496 58.605573 
L 394.457885 58.117618 
L 395.843274 57.660246 
L 397.228663 57.233459 
L 398.614052 56.837257 
L 399.999441 56.471639 
L 401.38483 56.136606 
L 402.770219 55.832157 
L 404.155608 55.558293 
L 405.540997 55.315013 
L 406.926386 55.102318 
L 408.311775 54.920207 
L 409.697164 54.768681 
L 411.082553 54.64774 
L 412.467942 54.557383 
L 413.853331 54.49761 
L 415.23872 54.468422 
L 416.624109 54.469819 
L 418.009498 54.5018 
L 419.394887 54.564366 
L 420.780276 54.657516 
L 422.165665 54.781251 
L 423.551054 54.93557 
L 424.936443 55.120474 
L 426.321832 55.335962 
L 427.707221 55.582035 
" style="fill:none;stroke:#1f77b4;stroke-linecap:square;stroke-width:2.25;"/>
   </g>
   <g id="patch_8">
    <path d="M 264.321471 194.742 
L 264.321471 31.662 
" style="fill:none;stroke:#000000;stroke-linecap:square;stroke-linejoin:miter;stroke-width:0.8;"/>
   </g>
   <g id="patch_9">
    <path d="M 461.262647 194.742 
L 461.262647 31.662 
" style="fill:none;stroke:#000000;stroke-linecap:square;stroke-linejoin:miter;stroke-width:0.8;"/>
   </g>
   <g id="patch_10">
    <path d="M 264.321471 194.742 
L 461.262647 194.742 
" style="fill:none;stroke:#000000;stroke-linecap:square;stroke-linejoin:miter;stroke-width:0.8;"/>
   </g>
   <g id="patch_11">
    <path d="M 264.321471 31.662 
L 461.262647 31.662 
" style="fill:none;stroke:#000000;stroke-linecap:square;stroke-linejoin:miter;stroke-width:0.8;"/>
   </g>
   <g id="text_7">
    <!-- B -->
    <g transform="translate(243.496912 19.3575)scale(0.16 -0.16)">
     <defs>
      <path d="M 1259 2228 
L 1259 519 
L 2272 519 
Q 2781 519 3026 730 
Q 3272 941 3272 1375 
Q 3272 1813 3026 2020 
Q 2781 2228 2272 2228 
L 1259 2228 
z
M 1259 4147 
L 1259 2741 
L 2194 2741 
Q 2656 2741 2882 2914 
Q 3109 3088 3109 3444 
Q 3109 3797 2882 3972 
Q 2656 4147 2194 4147 
L 1259 4147 
z
M 628 4666 
L 2241 4666 
Q 2963 4666 3353 4366 
Q 3744 4066 3744 3513 
Q 3744 3084 3544 2831 
Q 3344 2578 2956 2516 
Q 3422 2416 3680 2098 
Q 3938 1781 3938 1306 
Q 3938 681 3513 340 
Q 3088 0 2303 0 
L 628 0 
L 628 4666 
z
" id="DejaVuSans-42" transform="scale(0.015625)"/>
     </defs>
     <use xlink:href="#DejaVuSans-42"/>
    </g>
   </g>
   <g id="text_8">
    <!-- $\theta_0+\theta_1x+\theta_2x^2$ -->
    <g transform="translate(323.612059 25.662)scale(0.12 -0.12)">
     <defs>
      <path d="M 319 0 
L 319 172 
Q 319 188 331 206 
L 1325 1306 
Q 1550 1550 1690 1715 
Q 1831 1881 1968 2097 
Q 2106 2313 2186 2536 
Q 2266 2759 2266 3009 
Q 2266 3272 2169 3511 
Q 2072 3750 1880 3894 
Q 1688 4038 1416 4038 
Q 1138 4038 916 3870 
Q 694 3703 603 3438 
Q 628 3444 672 3444 
Q 816 3444 917 3347 
Q 1019 3250 1019 3097 
Q 1019 2950 917 2848 
Q 816 2747 672 2747 
Q 522 2747 420 2851 
Q 319 2956 319 3097 
Q 319 3338 409 3548 
Q 500 3759 670 3923 
Q 841 4088 1055 4175 
Q 1269 4263 1509 4263 
Q 1875 4263 2190 4108 
Q 2506 3953 2690 3670 
Q 2875 3388 2875 3009 
Q 2875 2731 2753 2481 
Q 2631 2231 2440 2026 
Q 2250 1822 1953 1562 
Q 1656 1303 1563 1216 
L 838 519 
L 1453 519 
Q 1906 519 2211 526 
Q 2516 534 2534 550 
Q 2609 631 2688 1141 
L 2875 1141 
L 2694 0 
L 319 0 
z
" id="Cmr10-32" transform="scale(0.015625)"/>
     </defs>
     <use transform="translate(0 0.109375)" xlink:href="#Cmmi10-b5"/>
     <use transform="translate(46.923828 -16.896875)scale(0.7)" xlink:href="#Cmr10-30"/>
     <use transform="translate(105.859766 0.109375)" xlink:href="#Cmr10-2b"/>
     <use transform="translate(201.103906 0.109375)" xlink:href="#Cmmi10-b5"/>
     <use transform="translate(248.027734 -16.896875)scale(0.7)" xlink:href="#Cmr10-31"/>
     <use transform="translate(289.405078 0.109375)" xlink:href="#Cmmi10-78"/>
     <use transform="translate(364.04375 0.109375)" xlink:href="#Cmr10-2b"/>
     <use transform="translate(459.287891 0.109375)" xlink:href="#Cmmi10-b5"/>
     <use transform="translate(506.211719 -16.896875)scale(0.7)" xlink:href="#Cmr10-32"/>
     <use transform="translate(547.589062 0.109375)" xlink:href="#Cmmi10-78"/>
     <use transform="translate(610.972422 38.373438)scale(0.7)" xlink:href="#Cmr10-32"/>
    </g>
   </g>
  </g>
  <g id="axes_3">
   <g id="patch_12">
    <path d="M 500.650882 194.742 
L 697.592059 194.742 
L 697.592059 31.662 
L 500.650882 31.662 
z
" style="fill:#ffffff;"/>
   </g>
   <g id="PathCollection_3">
    <g clip-path="url(#p49c0a986ba)">
     <use style="fill:#d62728;fill-opacity:0.8;stroke:#d62728;stroke-opacity:0.8;stroke-width:1.5;" x="526.88312" xlink:href="#m2938240603" y="187.329273"/>
     <use style="fill:#d62728;fill-opacity:0.8;stroke:#d62728;stroke-opacity:0.8;stroke-width:1.5;" x="542.287893" xlink:href="#m2938240603" y="141.802516"/>
     <use style="fill:#d62728;fill-opacity:0.8;stroke:#d62728;stroke-opacity:0.8;stroke-width:1.5;" x="570.629775" xlink:href="#m2938240603" y="103.509638"/>
     <use style="fill:#d62728;fill-opacity:0.8;stroke:#d62728;stroke-opacity:0.8;stroke-width:1.5;" x="610.52184" xlink:href="#m2938240603" y="75.659826"/>
     <use style="fill:#d62728;fill-opacity:0.8;stroke:#d62728;stroke-opacity:0.8;stroke-width:1.5;" x="664.036633" xlink:href="#m2938240603" y="53.362526"/>
    </g>
   </g>
   <g id="matplotlib.axis_5">
    <g id="text_9">
     <!-- x -->
     <g transform="translate(596.162096 206.340437)scale(0.1 -0.1)">
      <use xlink:href="#DejaVuSans-78"/>
     </g>
    </g>
   </g>
   <g id="matplotlib.axis_6">
    <g id="text_10">
     <!-- y -->
     <g transform="translate(494.571195 116.161375)rotate(-90)scale(0.1 -0.1)">
      <use xlink:href="#DejaVuSans-79"/>
     </g>
    </g>
   </g>
   <g id="line2d_3">
    <path clip-path="url(#p49c0a986ba)" d="M 526.88312 187.329273 
L 528.268509 182.122776 
L 529.653898 177.163574 
L 531.039287 172.442271 
L 532.424676 167.949644 
L 533.810065 163.676646 
L 535.195454 159.614404 
L 536.580843 155.754218 
L 537.966232 152.087562 
L 539.351621 148.606087 
L 540.73701 145.301614 
L 542.122399 142.166141 
L 543.507788 139.191839 
L 544.893177 136.371055 
L 546.278566 133.696307 
L 547.663955 131.16029 
L 549.049344 128.755872 
L 550.434733 126.476095 
L 551.820122 124.314175 
L 553.205511 122.263503 
L 554.5909 120.317643 
L 555.976289 118.470335 
L 557.361678 116.715492 
L 558.747067 115.0472 
L 560.132456 113.459721 
L 561.517845 111.947491 
L 562.903234 110.505119 
L 564.288623 109.127388 
L 565.674012 107.809258 
L 567.059401 106.545861 
L 568.444791 105.332501 
L 569.83018 104.164661 
L 571.215569 103.037994 
L 572.600958 101.94833 
L 573.986347 100.891671 
L 575.371736 99.864195 
L 576.757125 98.862253 
L 578.142514 97.88237 
L 579.527903 96.921246 
L 580.913292 95.975755 
L 582.298681 95.042944 
L 583.68407 94.120036 
L 585.069459 93.204427 
L 586.454848 92.293688 
L 587.840237 91.385562 
L 589.225626 90.47797 
L 590.611015 89.569003 
L 591.996404 88.656929 
L 593.381793 87.740188 
L 594.767182 86.817398 
L 596.152571 85.887346 
L 597.53796 84.948997 
L 598.923349 84.001488 
L 600.308738 83.044132 
L 601.694127 82.076415 
L 603.079516 81.097997 
L 604.464905 80.108713 
L 605.850294 79.108571 
L 607.235683 78.097755 
L 608.621072 77.07662 
L 610.006461 76.045699 
L 611.39185 75.005697 
L 612.777239 73.957493 
L 614.162628 72.902141 
L 615.548017 71.840869 
L 616.933406 70.775079 
L 618.318795 69.706346 
L 619.704184 68.636422 
L 621.089573 67.56723 
L 622.474962 66.50087 
L 623.860351 65.439614 
L 625.24574 64.385908 
L 626.631129 63.342375 
L 628.016518 62.31181 
L 629.401907 61.297181 
L 630.787296 60.301633 
L 632.172685 59.328483 
L 633.558074 58.381223 
L 634.943463 57.463519 
L 636.328852 56.579212 
L 637.714241 55.732316 
L 639.09963 54.92702 
L 640.485019 54.167685 
L 641.870409 53.45885 
L 643.255798 52.805225 
L 644.641187 52.211695 
L 646.026576 51.68332 
L 647.411965 51.225334 
L 648.797354 50.843143 
L 650.182743 50.542331 
L 651.568132 50.328652 
L 652.953521 50.208038 
L 654.33891 50.186592 
L 655.724299 50.270592 
L 657.109688 50.466493 
L 658.495077 50.78092 
L 659.880466 51.220675 
L 661.265855 51.792732 
L 662.651244 52.504241 
L 664.036633 53.362526 
" style="fill:none;stroke:#1f77b4;stroke-linecap:square;stroke-width:2.25;"/>
   </g>
   <g id="patch_13">
    <path d="M 500.650882 194.742 
L 500.650882 31.662 
" style="fill:none;stroke:#000000;stroke-linecap:square;stroke-linejoin:miter;stroke-width:0.8;"/>
   </g>
   <g id="patch_14">
    <path d="M 697.592059 194.742 
L 697.592059 31.662 
" style="fill:none;stroke:#000000;stroke-linecap:square;stroke-linejoin:miter;stroke-width:0.8;"/>
   </g>
   <g id="patch_15">
    <path d="M 500.650882 194.742 
L 697.592059 194.742 
" style="fill:none;stroke:#000000;stroke-linecap:square;stroke-linejoin:miter;stroke-width:0.8;"/>
   </g>
   <g id="patch_16">
    <path d="M 500.650882 31.662 
L 697.592059 31.662 
" style="fill:none;stroke:#000000;stroke-linecap:square;stroke-linejoin:miter;stroke-width:0.8;"/>
   </g>
   <g id="text_11">
    <!-- C -->
    <g transform="translate(479.631324 19.3575)scale(0.16 -0.16)">
     <defs>
      <path d="M 4122 4306 
L 4122 3641 
Q 3803 3938 3442 4084 
Q 3081 4231 2675 4231 
Q 1875 4231 1450 3742 
Q 1025 3253 1025 2328 
Q 1025 1406 1450 917 
Q 1875 428 2675 428 
Q 3081 428 3442 575 
Q 3803 722 4122 1019 
L 4122 359 
Q 3791 134 3420 21 
Q 3050 -91 2638 -91 
Q 1578 -91 968 557 
Q 359 1206 359 2328 
Q 359 3453 968 4101 
Q 1578 4750 2638 4750 
Q 3056 4750 3426 4639 
Q 3797 4528 4122 4306 
z
" id="DejaVuSans-43" transform="scale(0.015625)"/>
     </defs>
     <use xlink:href="#DejaVuSans-43"/>
    </g>
   </g>
   <g id="text_12">
    <!-- $\theta_0+\theta_1x+\theta_2x^2+\theta_3x^3+\theta_4x^4$ -->
    <g transform="translate(523.221471 25.662)scale(0.12 -0.12)">
     <defs>
      <path d="M 609 494 
Q 759 275 1012 169 
Q 1266 63 1556 63 
Q 1928 63 2084 380 
Q 2241 697 2241 1100 
Q 2241 1281 2208 1462 
Q 2175 1644 2097 1800 
Q 2019 1956 1883 2050 
Q 1747 2144 1550 2144 
L 1125 2144 
Q 1069 2144 1069 2203 
L 1069 2259 
Q 1069 2309 1125 2309 
L 1478 2338 
Q 1703 2338 1851 2506 
Q 2000 2675 2069 2917 
Q 2138 3159 2138 3378 
Q 2138 3684 1994 3881 
Q 1850 4078 1556 4078 
Q 1313 4078 1091 3986 
Q 869 3894 738 3706 
Q 750 3709 759 3711 
Q 769 3713 781 3713 
Q 925 3713 1022 3613 
Q 1119 3513 1119 3372 
Q 1119 3234 1022 3134 
Q 925 3034 781 3034 
Q 641 3034 541 3134 
Q 441 3234 441 3372 
Q 441 3647 606 3850 
Q 772 4053 1033 4158 
Q 1294 4263 1556 4263 
Q 1750 4263 1965 4205 
Q 2181 4147 2356 4039 
Q 2531 3931 2642 3762 
Q 2753 3594 2753 3378 
Q 2753 3109 2633 2881 
Q 2513 2653 2303 2487 
Q 2094 2322 1844 2241 
Q 2122 2188 2372 2031 
Q 2622 1875 2773 1631 
Q 2925 1388 2925 1106 
Q 2925 753 2731 467 
Q 2538 181 2222 20 
Q 1906 -141 1556 -141 
Q 1256 -141 954 -26 
Q 653 88 461 316 
Q 269 544 269 863 
Q 269 1022 375 1128 
Q 481 1234 641 1234 
Q 744 1234 830 1186 
Q 916 1138 964 1050 
Q 1013 963 1013 863 
Q 1013 706 903 600 
Q 794 494 641 494 
L 609 494 
z
" id="Cmr10-33" transform="scale(0.015625)"/>
      <path d="M 178 1056 
L 178 1281 
L 2156 4231 
Q 2178 4263 2222 4263 
L 2316 4263 
Q 2388 4263 2388 4191 
L 2388 1281 
L 3016 1281 
L 3016 1056 
L 2388 1056 
L 2388 428 
Q 2388 297 2575 261 
Q 2763 225 3009 225 
L 3009 0 
L 1247 0 
L 1247 225 
Q 1494 225 1681 261 
Q 1869 297 1869 428 
L 1869 1056 
L 178 1056 
z
M 391 1281 
L 1906 1281 
L 1906 3547 
L 391 1281 
z
" id="Cmr10-34" transform="scale(0.015625)"/>
     </defs>
     <use transform="translate(0 0.109375)" xlink:href="#Cmmi10-b5"/>
     <use transform="translate(46.923828 -16.896875)scale(0.7)" xlink:href="#Cmr10-30"/>
     <use transform="translate(105.859766 0.109375)" xlink:href="#Cmr10-2b"/>
     <use transform="translate(201.103906 0.109375)" xlink:href="#Cmmi10-b5"/>
     <use transform="translate(248.027734 -16.896875)scale(0.7)" xlink:href="#Cmr10-31"/>
     <use transform="translate(289.405078 0.109375)" xlink:href="#Cmmi10-78"/>
     <use transform="translate(364.04375 0.109375)" xlink:href="#Cmr10-2b"/>
     <use transform="translate(459.287891 0.109375)" xlink:href="#Cmmi10-b5"/>
     <use transform="translate(506.211719 -16.896875)scale(0.7)" xlink:href="#Cmr10-32"/>
     <use transform="translate(547.589062 0.109375)" xlink:href="#Cmmi10-78"/>
     <use transform="translate(610.972422 38.373438)scale(0.7)" xlink:href="#Cmr10-32"/>
     <use transform="translate(669.908359 0.109375)" xlink:href="#Cmr10-2b"/>
     <use transform="translate(765.1525 0.109375)" xlink:href="#Cmmi10-b5"/>
     <use transform="translate(812.076328 -16.896875)scale(0.7)" xlink:href="#Cmr10-33"/>
     <use transform="translate(853.453672 0.109375)" xlink:href="#Cmmi10-78"/>
     <use transform="translate(916.837031 38.373438)scale(0.7)" xlink:href="#Cmr10-33"/>
     <use transform="translate(975.772969 0.109375)" xlink:href="#Cmr10-2b"/>
     <use transform="translate(1071.017109 0.109375)" xlink:href="#Cmmi10-b5"/>
     <use transform="translate(1117.940938 -16.896875)scale(0.7)" xlink:href="#Cmr10-34"/>
     <use transform="translate(1159.318281 0.109375)" xlink:href="#Cmmi10-78"/>
     <use transform="translate(1222.701641 38.373438)scale(0.7)" xlink:href="#Cmr10-34"/>
    </g>
   </g>
  </g>
 </g>
 <defs>
  <clipPath id="p076d76308c">
   <rect height="163.08" width="196.941176" x="27.992059" y="31.662"/>
  </clipPath>
  <clipPath id="p8b9ae0b58b">
   <rect height="163.08" width="196.941176" x="264.321471" y="31.662"/>
  </clipPath>
  <clipPath id="p49c0a986ba">
   <rect height="163.08" width="196.941176" x="500.650882" y="31.662"/>
  </clipPath>
 </defs>
</svg>
