<?xml version="1.0" encoding="utf-8" standalone="no"?>
<!DOCTYPE svg PUBLIC "-//W3C//DTD SVG 1.1//EN"
  "http://www.w3.org/Graphics/SVG/1.1/DTD/svg11.dtd">
<!-- Created with matplotlib (https://matplotlib.org/) -->
<svg height="215.620125pt" version="1.1" viewBox="0 0 704.792059 215.620125" width="704.792059pt" xmlns="http://www.w3.org/2000/svg" xmlns:xlink="http://www.w3.org/1999/xlink">
 <metadata>
  <rdf:RDF xmlns:cc="http://creativecommons.org/ns#" xmlns:dc="http://purl.org/dc/elements/1.1/" xmlns:rdf="http://www.w3.org/1999/02/22-rdf-syntax-ns#">
   <cc:Work>
    <dc:type rdf:resource="http://purl.org/dc/dcmitype/StillImage"/>
    <dc:date>2021-06-13T11:06:35.293990</dc:date>
    <dc:format>image/svg+xml</dc:format>
    <dc:creator>
     <cc:Agent>
      <dc:title>Matplotlib v3.3.4, https://matplotlib.org/</dc:title>
     </cc:Agent>
    </dc:creator>
   </cc:Work>
  </rdf:RDF>
 </metadata>
 <defs>
  <style type="text/css">*{stroke-linecap:butt;stroke-linejoin:round;}</style>
 </defs>
 <g id="figure_1">
  <g id="patch_1">
   <path d="M 0 215.620125 
L 704.792059 215.620125 
L 704.792059 0 
L 0 0 
z
" style="fill:none;"/>
  </g>
  <g id="axes_1">
   <g id="patch_2">
    <path d="M 27.992059 194.742 
L 224.933235 194.742 
L 224.933235 31.662 
L 27.992059 31.662 
z
" style="fill:#ffffff;"/>
   </g>
   <g id="PathCollection_1">
    <defs>
     <path d="M -3 3 
L 3 -3 
M -3 -3 
L 3 3 
" id="m6b3b66df6e" style="stroke:#d62728;stroke-opacity:0.8;stroke-width:1.5;"/>
    </defs>
    <g clip-path="url(#p473d414ac4)">
     <use style="fill:#d62728;fill-opacity:0.8;stroke:#d62728;stroke-opacity:0.8;stroke-width:1.5;" x="45.659721" xlink:href="#m6b3b66df6e" y="187.329273"/>
     <use style="fill:#d62728;fill-opacity:0.8;stroke:#d62728;stroke-opacity:0.8;stroke-width:1.5;" x="71.502759" xlink:href="#m6b3b66df6e" y="128.848934"/>
     <use style="fill:#d62728;fill-opacity:0.8;stroke:#d62728;stroke-opacity:0.8;stroke-width:1.5;" x="87.820034" xlink:href="#m6b3b66df6e" y="119.617562"/>
     <use style="fill:#d62728;fill-opacity:0.8;stroke:#d62728;stroke-opacity:0.8;stroke-width:1.5;" x="130.356017" xlink:href="#m6b3b66df6e" y="102.848493"/>
     <use style="fill:#d62728;fill-opacity:0.8;stroke:#d62728;stroke-opacity:0.8;stroke-width:1.5;" x="193.094494" xlink:href="#m6b3b66df6e" y="88.238795"/>
    </g>
   </g>
   <g id="matplotlib.axis_1">
    <g id="text_1">
     <!-- x -->
     <g transform="translate(123.503272 206.340437)scale(0.1 -0.1)">
      <defs>
       <path d="M 54.890625 54.6875 
L 35.109375 28.078125 
L 55.90625 0 
L 45.3125 0 
L 29.390625 21.484375 
L 13.484375 0 
L 2.875 0 
L 24.125 28.609375 
L 4.6875 54.6875 
L 15.28125 54.6875 
L 29.78125 35.203125 
L 44.28125 54.6875 
z
" id="DejaVuSans-120"/>
      </defs>
      <use xlink:href="#DejaVuSans-120"/>
     </g>
    </g>
   </g>
   <g id="matplotlib.axis_2">
    <g id="text_2">
     <!-- y -->
     <g transform="translate(21.912371 116.161375)rotate(-90)scale(0.1 -0.1)">
      <defs>
       <path d="M 32.171875 -5.078125 
Q 28.375 -14.84375 24.75 -17.8125 
Q 21.140625 -20.796875 15.09375 -20.796875 
L 7.90625 -20.796875 
L 7.90625 -13.28125 
L 13.1875 -13.28125 
Q 16.890625 -13.28125 18.9375 -11.515625 
Q 21 -9.765625 23.484375 -3.21875 
L 25.09375 0.875 
L 2.984375 54.6875 
L 12.5 54.6875 
L 29.59375 11.921875 
L 46.6875 54.6875 
L 56.203125 54.6875 
z
" id="DejaVuSans-121"/>
      </defs>
      <use xlink:href="#DejaVuSans-121"/>
     </g>
    </g>
   </g>
   <g id="line2d_1">
    <path clip-path="url(#p473d414ac4)" d="M 45.659721 159.289972 
L 47.148961 158.448597 
L 48.638201 157.607222 
L 50.127441 156.765847 
L 51.616681 155.924471 
L 53.105921 155.083096 
L 54.595162 154.241721 
L 56.084402 153.400345 
L 57.573642 152.55897 
L 59.062882 151.717595 
L 60.552122 150.876219 
L 62.041362 150.034844 
L 63.530602 149.193469 
L 65.019842 148.352093 
L 66.509083 147.510718 
L 67.998323 146.669343 
L 69.487563 145.827967 
L 70.976803 144.986592 
L 72.466043 144.145217 
L 73.955283 143.303841 
L 75.444523 142.462466 
L 76.933764 141.621091 
L 78.423004 140.779715 
L 79.912244 139.93834 
L 81.401484 139.096965 
L 82.890724 138.25559 
L 84.379964 137.414214 
L 85.869204 136.572839 
L 87.358444 135.731464 
L 88.847685 134.890088 
L 90.336925 134.048713 
L 91.826165 133.207338 
L 93.315405 132.365962 
L 94.804645 131.524587 
L 96.293885 130.683212 
L 97.783125 129.841836 
L 99.272365 129.000461 
L 100.761606 128.159086 
L 102.250846 127.31771 
L 103.740086 126.476335 
L 105.229326 125.63496 
L 106.718566 124.793584 
L 108.207806 123.952209 
L 109.697046 123.110834 
L 111.186287 122.269458 
L 112.675527 121.428083 
L 114.164767 120.586708 
L 115.654007 119.745333 
L 117.143247 118.903957 
L 118.632487 118.062582 
L 120.121727 117.221207 
L 121.610967 116.379831 
L 123.100208 115.538456 
L 124.589448 114.697081 
L 126.078688 113.855705 
L 127.567928 113.01433 
L 129.057168 112.172955 
L 130.546408 111.331579 
L 132.035648 110.490204 
L 133.524889 109.648829 
L 135.014129 108.807453 
L 136.503369 107.966078 
L 137.992609 107.124703 
L 139.481849 106.283327 
L 140.971089 105.441952 
L 142.460329 104.600577 
L 143.949569 103.759201 
L 145.43881 102.917826 
L 146.92805 102.076451 
L 148.41729 101.235075 
L 149.90653 100.3937 
L 151.39577 99.552325 
L 152.88501 98.71095 
L 154.37425 97.869574 
L 155.86349 97.028199 
L 157.352731 96.186824 
L 158.841971 95.345448 
L 160.331211 94.504073 
L 161.820451 93.662698 
L 163.309691 92.821322 
L 164.798931 91.979947 
L 166.288171 91.138572 
L 167.777412 90.297196 
L 169.266652 89.455821 
L 170.755892 88.614446 
L 172.245132 87.77307 
L 173.734372 86.931695 
L 175.223612 86.09032 
L 176.712852 85.248944 
L 178.202092 84.407569 
L 179.691333 83.566194 
L 181.180573 82.724818 
L 182.669813 81.883443 
L 184.159053 81.042068 
L 185.648293 80.200693 
L 187.137533 79.359317 
L 188.626773 78.517942 
L 190.116014 77.676567 
L 191.605254 76.835191 
L 193.094494 75.993816 
" style="fill:none;stroke:#1f77b4;stroke-linecap:square;stroke-width:2.25;"/>
   </g>
   <g id="patch_3">
    <path d="M 27.992059 194.742 
L 27.992059 31.662 
" style="fill:none;stroke:#000000;stroke-linecap:square;stroke-linejoin:miter;stroke-width:0.8;"/>
   </g>
   <g id="patch_4">
    <path d="M 224.933235 194.742 
L 224.933235 31.662 
" style="fill:none;stroke:#000000;stroke-linecap:square;stroke-linejoin:miter;stroke-width:0.8;"/>
   </g>
   <g id="patch_5">
    <path d="M 27.992059 194.742 
L 224.933235 194.742 
" style="fill:none;stroke:#000000;stroke-linecap:square;stroke-linejoin:miter;stroke-width:0.8;"/>
   </g>
   <g id="patch_6">
    <path d="M 27.992059 31.662 
L 224.933235 31.662 
" style="fill:none;stroke:#000000;stroke-linecap:square;stroke-linejoin:miter;stroke-width:0.8;"/>
   </g>
   <g id="text_3">
    <!-- A -->
    <g transform="translate(7.2 19.3575)scale(0.16 -0.16)">
     <defs>
      <path d="M 34.1875 63.1875 
L 20.796875 26.90625 
L 47.609375 26.90625 
z
M 28.609375 72.90625 
L 39.796875 72.90625 
L 67.578125 0 
L 57.328125 0 
L 50.6875 18.703125 
L 17.828125 18.703125 
L 11.1875 0 
L 0.78125 0 
z
" id="DejaVuSans-65"/>
     </defs>
     <use xlink:href="#DejaVuSans-65"/>
    </g>
   </g>
   <g id="text_4">
    <!-- $\theta_0+\theta_1x$ -->
    <g transform="translate(105.642647 25.662)scale(0.12 -0.12)">
     <defs>
      <path d="M 16.109375 -1.125 
Q 11.578125 -1.125 8.84375 2.1875 
Q 6.109375 5.515625 5.046875 10.203125 
Q 4 14.890625 4 19.484375 
L 4 19.578125 
Q 4 24.5625 4.953125 29.921875 
Q 5.90625 35.296875 7.703125 40.640625 
Q 9.515625 46 11.625 50.203125 
Q 13.09375 53.125 15.40625 56.734375 
Q 17.71875 60.359375 20.578125 63.5 
Q 23.4375 66.65625 26.734375 68.578125 
Q 30.03125 70.515625 33.40625 70.515625 
L 33.5 70.515625 
Q 37.109375 70.515625 39.515625 68.5 
Q 41.9375 66.5 43.28125 63.375 
Q 44.625 60.25 45.15625 56.6875 
Q 45.703125 53.125 45.703125 49.90625 
Q 45.703125 42.328125 43.65625 34.4375 
Q 41.609375 26.5625 37.984375 19.1875 
Q 36.625 16.40625 34.203125 12.640625 
Q 31.78125 8.890625 29.078125 5.90625 
Q 26.375 2.9375 23 0.90625 
Q 19.625 -1.125 16.21875 -1.125 
z
M 16.3125 1.515625 
Q 19.625 1.515625 22.671875 5.046875 
Q 25.734375 8.59375 28.03125 13.640625 
Q 30.328125 18.703125 32.0625 24 
Q 33.796875 29.296875 34.625 33.015625 
L 14.203125 33.015625 
Q 12.640625 26.703125 11.765625 22.140625 
Q 10.890625 17.578125 10.890625 13.1875 
Q 10.890625 1.515625 16.3125 1.515625 
z
M 14.984375 36.53125 
L 35.5 36.53125 
Q 36.578125 40.921875 37.203125 43.875 
Q 37.84375 46.828125 38.28125 50.09375 
Q 38.71875 53.375 38.71875 56.203125 
Q 38.71875 67.921875 33.40625 67.921875 
Q 27.046875 67.921875 22.4375 57.6875 
Q 17.828125 47.46875 14.984375 36.53125 
z
" id="Cmmi10-181"/>
      <path d="M 25 -2.203125 
Q 12.75 -2.203125 8.328125 7.875 
Q 3.90625 17.96875 3.90625 31.890625 
Q 3.90625 40.578125 5.484375 48.234375 
Q 7.078125 55.90625 11.78125 61.25 
Q 16.5 66.609375 25 66.609375 
Q 31.59375 66.609375 35.78125 63.375 
Q 39.984375 60.15625 42.1875 55.046875 
Q 44.390625 49.953125 45.1875 44.109375 
Q 46 38.28125 46 31.890625 
Q 46 23.296875 44.40625 15.796875 
Q 42.828125 8.296875 38.1875 3.046875 
Q 33.546875 -2.203125 25 -2.203125 
z
M 25 0.390625 
Q 30.5625 0.390625 33.296875 6.09375 
Q 36.03125 11.8125 36.671875 18.75 
Q 37.3125 25.6875 37.3125 33.5 
Q 37.3125 41.015625 36.671875 47.359375 
Q 36.03125 53.71875 33.3125 58.859375 
Q 30.609375 64.015625 25 64.015625 
Q 19.34375 64.015625 16.609375 58.828125 
Q 13.875 53.65625 13.234375 47.328125 
Q 12.59375 41.015625 12.59375 33.5 
Q 12.59375 27.9375 12.859375 23 
Q 13.140625 18.0625 14.3125 12.8125 
Q 15.484375 7.5625 18.09375 3.96875 
Q 20.703125 0.390625 25 0.390625 
z
" id="Cmr10-48"/>
      <path d="M 7.515625 23 
Q 6.6875 23 6.140625 23.625 
Q 5.609375 24.265625 5.609375 25 
Q 5.609375 25.734375 6.140625 26.359375 
Q 6.6875 27 7.515625 27 
L 36.921875 27 
L 36.921875 56.5 
Q 36.921875 57.28125 37.5 57.78125 
Q 38.09375 58.296875 38.921875 58.296875 
Q 39.65625 58.296875 40.28125 57.78125 
Q 40.921875 57.28125 40.921875 56.5 
L 40.921875 27 
L 70.3125 27 
Q 71.046875 27 71.578125 26.359375 
Q 72.125 25.734375 72.125 25 
Q 72.125 24.265625 71.578125 23.625 
Q 71.046875 23 70.3125 23 
L 40.921875 23 
L 40.921875 -6.5 
Q 40.921875 -7.28125 40.28125 -7.78125 
Q 39.65625 -8.296875 38.921875 -8.296875 
Q 38.09375 -8.296875 37.5 -7.78125 
Q 36.921875 -7.28125 36.921875 -6.5 
L 36.921875 23 
z
" id="Cmr10-43"/>
      <path d="M 9.28125 0 
L 9.28125 3.515625 
Q 21.78125 3.515625 21.78125 6.6875 
L 21.78125 59.1875 
Q 16.609375 56.6875 8.6875 56.6875 
L 8.6875 60.203125 
Q 20.953125 60.203125 27.203125 66.609375 
L 28.609375 66.609375 
Q 28.953125 66.609375 29.265625 66.328125 
Q 29.59375 66.0625 29.59375 65.71875 
L 29.59375 6.6875 
Q 29.59375 3.515625 42.09375 3.515625 
L 42.09375 0 
z
" id="Cmr10-49"/>
      <path d="M 7.8125 2.875 
Q 9.578125 1.515625 12.796875 1.515625 
Q 15.921875 1.515625 18.3125 4.515625 
Q 20.703125 7.515625 21.578125 11.078125 
L 26.125 28.8125 
Q 27.203125 33.640625 27.203125 35.40625 
Q 27.203125 37.890625 25.8125 39.75 
Q 24.421875 41.609375 21.921875 41.609375 
Q 18.75 41.609375 15.96875 39.625 
Q 13.1875 37.640625 11.28125 34.59375 
Q 9.375 31.546875 8.59375 28.421875 
Q 8.40625 27.78125 7.8125 27.78125 
L 6.59375 27.78125 
Q 5.8125 27.78125 5.8125 28.71875 
L 5.8125 29 
Q 6.78125 32.71875 9.125 36.25 
Q 11.46875 39.796875 14.859375 41.984375 
Q 18.265625 44.1875 22.125 44.1875 
Q 25.78125 44.1875 28.734375 42.234375 
Q 31.6875 40.28125 32.90625 36.921875 
Q 34.625 39.984375 37.28125 42.078125 
Q 39.9375 44.1875 43.109375 44.1875 
Q 45.265625 44.1875 47.5 43.421875 
Q 49.75 42.671875 51.171875 41.109375 
Q 52.59375 39.546875 52.59375 37.203125 
Q 52.59375 34.671875 50.953125 32.828125 
Q 49.3125 31 46.78125 31 
Q 45.171875 31 44.09375 32.03125 
Q 43.015625 33.0625 43.015625 34.625 
Q 43.015625 36.71875 44.453125 38.296875 
Q 45.90625 39.890625 47.90625 40.1875 
Q 46.09375 41.609375 42.921875 41.609375 
Q 39.703125 41.609375 37.328125 38.625 
Q 34.96875 35.640625 33.984375 31.984375 
L 29.59375 14.3125 
Q 28.515625 10.296875 28.515625 7.71875 
Q 28.515625 5.171875 29.953125 3.34375 
Q 31.390625 1.515625 33.796875 1.515625 
Q 38.484375 1.515625 42.15625 5.640625 
Q 45.84375 9.765625 47.015625 14.703125 
Q 47.21875 15.28125 47.796875 15.28125 
L 49.03125 15.28125 
Q 49.421875 15.28125 49.65625 15.015625 
Q 49.90625 14.75 49.90625 14.40625 
Q 49.90625 14.3125 49.8125 14.109375 
Q 48.390625 8.15625 43.84375 3.515625 
Q 39.3125 -1.125 33.59375 -1.125 
Q 29.9375 -1.125 26.984375 0.84375 
Q 24.03125 2.828125 22.796875 6.203125 
Q 21.234375 3.265625 18.46875 1.0625 
Q 15.71875 -1.125 12.59375 -1.125 
Q 10.453125 -1.125 8.171875 -0.359375 
Q 5.90625 0.390625 4.484375 1.953125 
Q 3.078125 3.515625 3.078125 5.90625 
Q 3.078125 8.25 4.703125 10.171875 
Q 6.34375 12.109375 8.796875 12.109375 
Q 10.453125 12.109375 11.578125 11.109375 
Q 12.703125 10.109375 12.703125 8.5 
Q 12.703125 6.390625 11.296875 4.828125 
Q 9.90625 3.265625 7.8125 2.875 
z
" id="Cmmi10-120"/>
     </defs>
     <use transform="translate(0 0.484375)" xlink:href="#Cmmi10-181"/>
     <use transform="translate(46.923828 -16.521875)scale(0.7)" xlink:href="#Cmr10-48"/>
     <use transform="translate(105.859766 0.484375)" xlink:href="#Cmr10-43"/>
     <use transform="translate(201.103906 0.484375)" xlink:href="#Cmmi10-181"/>
     <use transform="translate(248.027734 -16.521875)scale(0.7)" xlink:href="#Cmr10-49"/>
     <use transform="translate(289.405078 0.484375)" xlink:href="#Cmmi10-120"/>
    </g>
   </g>
  </g>
  <g id="axes_2">
   <g id="patch_7">
    <path d="M 264.321471 194.742 
L 461.262647 194.742 
L 461.262647 31.662 
L 264.321471 31.662 
z
" style="fill:#ffffff;"/>
   </g>
   <g id="PathCollection_2">
    <g clip-path="url(#pc57194198d)">
     <use style="fill:#d62728;fill-opacity:0.8;stroke:#d62728;stroke-opacity:0.8;stroke-width:1.5;" x="281.989133" xlink:href="#m6b3b66df6e" y="187.329273"/>
     <use style="fill:#d62728;fill-opacity:0.8;stroke:#d62728;stroke-opacity:0.8;stroke-width:1.5;" x="307.83217" xlink:href="#m6b3b66df6e" y="128.848934"/>
     <use style="fill:#d62728;fill-opacity:0.8;stroke:#d62728;stroke-opacity:0.8;stroke-width:1.5;" x="324.149445" xlink:href="#m6b3b66df6e" y="119.617562"/>
     <use style="fill:#d62728;fill-opacity:0.8;stroke:#d62728;stroke-opacity:0.8;stroke-width:1.5;" x="366.685428" xlink:href="#m6b3b66df6e" y="102.848493"/>
     <use style="fill:#d62728;fill-opacity:0.8;stroke:#d62728;stroke-opacity:0.8;stroke-width:1.5;" x="429.423906" xlink:href="#m6b3b66df6e" y="88.238795"/>
    </g>
   </g>
   <g id="matplotlib.axis_3">
    <g id="text_5">
     <!-- x -->
     <g transform="translate(359.832684 206.340437)scale(0.1 -0.1)">
      <use xlink:href="#DejaVuSans-120"/>
     </g>
    </g>
   </g>
   <g id="matplotlib.axis_4">
    <g id="text_6">
     <!-- y -->
     <g transform="translate(258.241783 116.161375)rotate(-90)scale(0.1 -0.1)">
      <use xlink:href="#DejaVuSans-121"/>
     </g>
    </g>
   </g>
   <g id="line2d_2">
    <path clip-path="url(#pc57194198d)" d="M 281.989133 178.573257 
L 283.478373 176.208154 
L 284.967613 173.873284 
L 286.456853 171.568647 
L 287.946093 169.294242 
L 289.435333 167.05007 
L 290.924573 164.83613 
L 292.413813 162.652423 
L 293.903054 160.498949 
L 295.392294 158.375707 
L 296.881534 156.282698 
L 298.370774 154.219922 
L 299.860014 152.187378 
L 301.349254 150.185067 
L 302.838494 148.212988 
L 304.327734 146.271142 
L 305.816975 144.359529 
L 307.306215 142.478148 
L 308.795455 140.627 
L 310.284695 138.806085 
L 311.773935 137.015402 
L 313.263175 135.254952 
L 314.752415 133.524734 
L 316.241656 131.824749 
L 317.730896 130.154997 
L 319.220136 128.515477 
L 320.709376 126.90619 
L 322.198616 125.327136 
L 323.687856 123.778314 
L 325.177096 122.259725 
L 326.666336 120.771369 
L 328.155577 119.313245 
L 329.644817 117.885353 
L 331.134057 116.487695 
L 332.623297 115.120269 
L 334.112537 113.783075 
L 335.601777 112.476115 
L 337.091017 111.199387 
L 338.580258 109.952891 
L 340.069498 108.736628 
L 341.558738 107.550598 
L 343.047978 106.3948 
L 344.537218 105.269235 
L 346.026458 104.173903 
L 347.515698 103.108803 
L 349.004938 102.073936 
L 350.494179 101.069302 
L 351.983419 100.0949 
L 353.472659 99.150731 
L 354.961899 98.236794 
L 356.451139 97.35309 
L 357.940379 96.499619 
L 359.429619 95.67638 
L 360.918859 94.883374 
L 362.4081 94.120601 
L 363.89734 93.38806 
L 365.38658 92.685752 
L 366.87582 92.013676 
L 368.36506 91.371833 
L 369.8543 90.760223 
L 371.34354 90.178846 
L 372.832781 89.6277 
L 374.322021 89.106788 
L 375.811261 88.616108 
L 377.300501 88.155661 
L 378.789741 87.725447 
L 380.278981 87.325465 
L 381.768221 86.955716 
L 383.257461 86.616199 
L 384.746702 86.306915 
L 386.235942 86.027864 
L 387.725182 85.779045 
L 389.214422 85.560459 
L 390.703662 85.372105 
L 392.192902 85.213984 
L 393.682142 85.086096 
L 395.171383 84.988441 
L 396.660623 84.921018 
L 398.149863 84.883827 
L 399.639103 84.876869 
L 401.128343 84.900144 
L 402.617583 84.953652 
L 404.106823 85.037392 
L 405.596063 85.151365 
L 407.085304 85.29557 
L 408.574544 85.470008 
L 410.063784 85.674679 
L 411.553024 85.909582 
L 413.042264 86.174718 
L 414.531504 86.470087 
L 416.020744 86.795688 
L 417.509984 87.151522 
L 418.999225 87.537588 
L 420.488465 87.953887 
L 421.977705 88.400419 
L 423.466945 88.877184 
L 424.956185 89.384181 
L 426.445425 89.92141 
L 427.934665 90.488872 
L 429.423906 91.086567 
" style="fill:none;stroke:#1f77b4;stroke-linecap:square;stroke-width:2.25;"/>
   </g>
   <g id="patch_8">
    <path d="M 264.321471 194.742 
L 264.321471 31.662 
" style="fill:none;stroke:#000000;stroke-linecap:square;stroke-linejoin:miter;stroke-width:0.8;"/>
   </g>
   <g id="patch_9">
    <path d="M 461.262647 194.742 
L 461.262647 31.662 
" style="fill:none;stroke:#000000;stroke-linecap:square;stroke-linejoin:miter;stroke-width:0.8;"/>
   </g>
   <g id="patch_10">
    <path d="M 264.321471 194.742 
L 461.262647 194.742 
" style="fill:none;stroke:#000000;stroke-linecap:square;stroke-linejoin:miter;stroke-width:0.8;"/>
   </g>
   <g id="patch_11">
    <path d="M 264.321471 31.662 
L 461.262647 31.662 
" style="fill:none;stroke:#000000;stroke-linecap:square;stroke-linejoin:miter;stroke-width:0.8;"/>
   </g>
   <g id="text_7">
    <!-- B -->
    <g transform="translate(243.496912 19.3575)scale(0.16 -0.16)">
     <defs>
      <path d="M 19.671875 34.8125 
L 19.671875 8.109375 
L 35.5 8.109375 
Q 43.453125 8.109375 47.28125 11.40625 
Q 51.125 14.703125 51.125 21.484375 
Q 51.125 28.328125 47.28125 31.5625 
Q 43.453125 34.8125 35.5 34.8125 
z
M 19.671875 64.796875 
L 19.671875 42.828125 
L 34.28125 42.828125 
Q 41.5 42.828125 45.03125 45.53125 
Q 48.578125 48.25 48.578125 53.8125 
Q 48.578125 59.328125 45.03125 62.0625 
Q 41.5 64.796875 34.28125 64.796875 
z
M 9.8125 72.90625 
L 35.015625 72.90625 
Q 46.296875 72.90625 52.390625 68.21875 
Q 58.5 63.53125 58.5 54.890625 
Q 58.5 48.1875 55.375 44.234375 
Q 52.25 40.28125 46.1875 39.3125 
Q 53.46875 37.75 57.5 32.78125 
Q 61.53125 27.828125 61.53125 20.40625 
Q 61.53125 10.640625 54.890625 5.3125 
Q 48.25 0 35.984375 0 
L 9.8125 0 
z
" id="DejaVuSans-66"/>
     </defs>
     <use xlink:href="#DejaVuSans-66"/>
    </g>
   </g>
   <g id="text_8">
    <!-- $\theta_0+\theta_1x+\theta_2x^2$ -->
    <g transform="translate(323.612059 25.662)scale(0.12 -0.12)">
     <defs>
      <path d="M 4.984375 0 
L 4.984375 2.6875 
Q 4.984375 2.9375 5.171875 3.21875 
L 20.703125 20.40625 
Q 24.21875 24.21875 26.40625 26.796875 
Q 28.609375 29.390625 30.75 32.765625 
Q 32.90625 36.140625 34.15625 39.625 
Q 35.40625 43.109375 35.40625 47.015625 
Q 35.40625 51.125 33.890625 54.859375 
Q 32.375 58.59375 29.375 60.84375 
Q 26.375 63.09375 22.125 63.09375 
Q 17.78125 63.09375 14.3125 60.46875 
Q 10.84375 57.859375 9.421875 53.71875 
Q 9.8125 53.8125 10.5 53.8125 
Q 12.75 53.8125 14.328125 52.296875 
Q 15.921875 50.78125 15.921875 48.390625 
Q 15.921875 46.09375 14.328125 44.5 
Q 12.75 42.921875 10.5 42.921875 
Q 8.15625 42.921875 6.5625 44.546875 
Q 4.984375 46.1875 4.984375 48.390625 
Q 4.984375 52.15625 6.390625 55.4375 
Q 7.8125 58.734375 10.46875 61.296875 
Q 13.140625 63.875 16.484375 65.234375 
Q 19.828125 66.609375 23.578125 66.609375 
Q 29.296875 66.609375 34.21875 64.1875 
Q 39.15625 61.765625 42.03125 57.34375 
Q 44.921875 52.9375 44.921875 47.015625 
Q 44.921875 42.671875 43.015625 38.765625 
Q 41.109375 34.859375 38.125 31.65625 
Q 35.15625 28.46875 30.515625 24.40625 
Q 25.875 20.359375 24.421875 19 
L 13.09375 8.109375 
L 22.703125 8.109375 
Q 29.78125 8.109375 34.546875 8.21875 
Q 39.3125 8.34375 39.59375 8.59375 
Q 40.765625 9.859375 42 17.828125 
L 44.921875 17.828125 
L 42.09375 0 
z
" id="Cmr10-50"/>
     </defs>
     <use transform="translate(0 0.109375)" xlink:href="#Cmmi10-181"/>
     <use transform="translate(46.923828 -16.896875)scale(0.7)" xlink:href="#Cmr10-48"/>
     <use transform="translate(105.859766 0.109375)" xlink:href="#Cmr10-43"/>
     <use transform="translate(201.103906 0.109375)" xlink:href="#Cmmi10-181"/>
     <use transform="translate(248.027734 -16.896875)scale(0.7)" xlink:href="#Cmr10-49"/>
     <use transform="translate(289.405078 0.109375)" xlink:href="#Cmmi10-120"/>
     <use transform="translate(364.04375 0.109375)" xlink:href="#Cmr10-43"/>
     <use transform="translate(459.287891 0.109375)" xlink:href="#Cmmi10-181"/>
     <use transform="translate(506.211719 -16.896875)scale(0.7)" xlink:href="#Cmr10-50"/>
     <use transform="translate(547.589062 0.109375)" xlink:href="#Cmmi10-120"/>
     <use transform="translate(610.972422 38.373438)scale(0.7)" xlink:href="#Cmr10-50"/>
    </g>
   </g>
  </g>
  <g id="axes_3">
   <g id="patch_12">
    <path d="M 500.650882 194.742 
L 697.592059 194.742 
L 697.592059 31.662 
L 500.650882 31.662 
z
" style="fill:#ffffff;"/>
   </g>
   <g id="PathCollection_3">
    <g clip-path="url(#p2da4a19ca5)">
     <use style="fill:#d62728;fill-opacity:0.8;stroke:#d62728;stroke-opacity:0.8;stroke-width:1.5;" x="518.318544" xlink:href="#m6b3b66df6e" y="187.329273"/>
     <use style="fill:#d62728;fill-opacity:0.8;stroke:#d62728;stroke-opacity:0.8;stroke-width:1.5;" x="544.161582" xlink:href="#m6b3b66df6e" y="128.848934"/>
     <use style="fill:#d62728;fill-opacity:0.8;stroke:#d62728;stroke-opacity:0.8;stroke-width:1.5;" x="560.478857" xlink:href="#m6b3b66df6e" y="119.617562"/>
     <use style="fill:#d62728;fill-opacity:0.8;stroke:#d62728;stroke-opacity:0.8;stroke-width:1.5;" x="603.01484" xlink:href="#m6b3b66df6e" y="102.848493"/>
     <use style="fill:#d62728;fill-opacity:0.8;stroke:#d62728;stroke-opacity:0.8;stroke-width:1.5;" x="665.753317" xlink:href="#m6b3b66df6e" y="88.238795"/>
    </g>
   </g>
   <g id="matplotlib.axis_5">
    <g id="text_9">
     <!-- x -->
     <g transform="translate(596.162096 206.340437)scale(0.1 -0.1)">
      <use xlink:href="#DejaVuSans-120"/>
     </g>
    </g>
   </g>
   <g id="matplotlib.axis_6">
    <g id="text_10">
     <!-- y -->
     <g transform="translate(494.571195 116.161375)rotate(-90)scale(0.1 -0.1)">
      <use xlink:href="#DejaVuSans-121"/>
     </g>
    </g>
   </g>
   <g id="line2d_3">
    <path clip-path="url(#p2da4a19ca5)" d="M 518.318544 187.329273 
L 519.807784 181.917954 
L 521.297025 176.789902 
L 522.786265 171.939328 
L 524.275505 167.360221 
L 525.764745 163.046343 
L 527.253985 158.991235 
L 528.743225 155.188219 
L 530.232465 151.630401 
L 531.721705 148.310679 
L 533.210946 145.221745 
L 534.700186 142.356091 
L 536.189426 139.706014 
L 537.678666 137.263628 
L 539.167906 135.020865 
L 540.657146 132.969487 
L 542.146386 131.101095 
L 543.635627 129.407136 
L 545.124867 127.878912 
L 546.614107 126.507595 
L 548.103347 125.284236 
L 549.592587 124.199774 
L 551.081827 123.245051 
L 552.571067 122.410825 
L 554.060307 121.687784 
L 555.549548 121.066558 
L 557.038788 120.537733 
L 558.528028 120.091872 
L 560.017268 119.719524 
L 561.506508 119.411245 
L 562.995748 119.157613 
L 564.484988 118.949248 
L 565.974228 118.776828 
L 567.463469 118.631108 
L 568.952709 118.502941 
L 570.441949 118.3833 
L 571.931189 118.263293 
L 573.420429 118.134188 
L 574.909669 117.987438 
L 576.398909 117.814697 
L 577.88815 117.607848 
L 579.37739 117.359026 
L 580.86663 117.060639 
L 582.35587 116.7054 
L 583.84511 116.286344 
L 585.33435 115.796863 
L 586.82359 115.230724 
L 588.31283 114.582104 
L 589.802071 113.845614 
L 591.291311 113.016329 
L 592.780551 112.089816 
L 594.269791 111.062165 
L 595.759031 109.930019 
L 597.248271 108.690605 
L 598.737511 107.341767 
L 600.226752 105.881995 
L 601.715992 104.310463 
L 603.205232 102.627056 
L 604.694472 100.83241 
L 606.183712 98.927944 
L 607.672952 96.915893 
L 609.162192 94.799351 
L 610.651432 92.582299 
L 612.140673 90.269648 
L 613.629913 87.867273 
L 615.119153 85.382055 
L 616.608393 82.821918 
L 618.097633 80.195867 
L 619.586873 77.51403 
L 621.076113 74.787699 
L 622.565353 72.029371 
L 624.054594 69.252789 
L 625.543834 66.472986 
L 627.033074 63.706326 
L 628.522314 60.97055 
L 630.011554 58.28482 
L 631.500794 55.669763 
L 632.990034 53.147517 
L 634.479275 50.741778 
L 635.968515 48.477844 
L 637.457755 46.382667 
L 638.946995 44.484896 
L 640.436235 42.814931 
L 641.925475 41.404966 
L 643.414715 40.289043 
L 644.903955 39.503104 
L 646.393196 39.085036 
L 647.882436 39.074727 
L 649.371676 39.514119 
L 650.860916 40.447258 
L 652.350156 41.920347 
L 653.839396 43.981805 
L 655.328636 46.682316 
L 656.817877 50.074886 
L 658.307117 54.214901 
L 659.796357 59.160182 
L 661.285597 64.97104 
L 662.774837 71.710337 
L 664.264077 79.443543 
L 665.753317 88.238795 
" style="fill:none;stroke:#1f77b4;stroke-linecap:square;stroke-width:2.25;"/>
   </g>
   <g id="patch_13">
    <path d="M 500.650882 194.742 
L 500.650882 31.662 
" style="fill:none;stroke:#000000;stroke-linecap:square;stroke-linejoin:miter;stroke-width:0.8;"/>
   </g>
   <g id="patch_14">
    <path d="M 697.592059 194.742 
L 697.592059 31.662 
" style="fill:none;stroke:#000000;stroke-linecap:square;stroke-linejoin:miter;stroke-width:0.8;"/>
   </g>
   <g id="patch_15">
    <path d="M 500.650882 194.742 
L 697.592059 194.742 
" style="fill:none;stroke:#000000;stroke-linecap:square;stroke-linejoin:miter;stroke-width:0.8;"/>
   </g>
   <g id="patch_16">
    <path d="M 500.650882 31.662 
L 697.592059 31.662 
" style="fill:none;stroke:#000000;stroke-linecap:square;stroke-linejoin:miter;stroke-width:0.8;"/>
   </g>
   <g id="text_11">
    <!-- C -->
    <g transform="translate(479.631324 19.3575)scale(0.16 -0.16)">
     <defs>
      <path d="M 64.40625 67.28125 
L 64.40625 56.890625 
Q 59.421875 61.53125 53.78125 63.8125 
Q 48.140625 66.109375 41.796875 66.109375 
Q 29.296875 66.109375 22.65625 58.46875 
Q 16.015625 50.828125 16.015625 36.375 
Q 16.015625 21.96875 22.65625 14.328125 
Q 29.296875 6.6875 41.796875 6.6875 
Q 48.140625 6.6875 53.78125 8.984375 
Q 59.421875 11.28125 64.40625 15.921875 
L 64.40625 5.609375 
Q 59.234375 2.09375 53.4375 0.328125 
Q 47.65625 -1.421875 41.21875 -1.421875 
Q 24.65625 -1.421875 15.125 8.703125 
Q 5.609375 18.84375 5.609375 36.375 
Q 5.609375 53.953125 15.125 64.078125 
Q 24.65625 74.21875 41.21875 74.21875 
Q 47.75 74.21875 53.53125 72.484375 
Q 59.328125 70.75 64.40625 67.28125 
z
" id="DejaVuSans-67"/>
     </defs>
     <use xlink:href="#DejaVuSans-67"/>
    </g>
   </g>
   <g id="text_12">
    <!-- $\theta_0+\theta_1x+\theta_2x^2+\theta_3x^3+\theta_4x^4$ -->
    <g transform="translate(523.221471 25.662)scale(0.12 -0.12)">
     <defs>
      <path d="M 9.515625 7.71875 
Q 11.859375 4.296875 15.8125 2.640625 
Q 19.78125 0.984375 24.3125 0.984375 
Q 30.125 0.984375 32.5625 5.9375 
Q 35.015625 10.890625 35.015625 17.1875 
Q 35.015625 20.015625 34.5 22.84375 
Q 33.984375 25.6875 32.765625 28.125 
Q 31.546875 30.5625 29.421875 32.03125 
Q 27.296875 33.5 24.21875 33.5 
L 17.578125 33.5 
Q 16.703125 33.5 16.703125 34.421875 
L 16.703125 35.296875 
Q 16.703125 36.078125 17.578125 36.078125 
L 23.09375 36.53125 
Q 26.609375 36.53125 28.921875 39.15625 
Q 31.25 41.796875 32.328125 45.578125 
Q 33.40625 49.359375 33.40625 52.78125 
Q 33.40625 57.5625 31.15625 60.640625 
Q 28.90625 63.71875 24.3125 63.71875 
Q 20.515625 63.71875 17.046875 62.28125 
Q 13.578125 60.84375 11.53125 57.90625 
Q 11.71875 57.953125 11.859375 57.984375 
Q 12.015625 58.015625 12.203125 58.015625 
Q 14.453125 58.015625 15.96875 56.453125 
Q 17.484375 54.890625 17.484375 52.6875 
Q 17.484375 50.53125 15.96875 48.96875 
Q 14.453125 47.40625 12.203125 47.40625 
Q 10.015625 47.40625 8.453125 48.96875 
Q 6.890625 50.53125 6.890625 52.6875 
Q 6.890625 56.984375 9.46875 60.15625 
Q 12.0625 63.328125 16.140625 64.96875 
Q 20.21875 66.609375 24.3125 66.609375 
Q 27.34375 66.609375 30.703125 65.703125 
Q 34.078125 64.796875 36.8125 63.109375 
Q 39.546875 61.421875 41.28125 58.78125 
Q 43.015625 56.15625 43.015625 52.78125 
Q 43.015625 48.578125 41.140625 45.015625 
Q 39.265625 41.453125 35.984375 38.859375 
Q 32.71875 36.28125 28.8125 35.015625 
Q 33.15625 34.1875 37.0625 31.734375 
Q 40.96875 29.296875 43.328125 25.484375 
Q 45.703125 21.6875 45.703125 17.28125 
Q 45.703125 11.765625 42.671875 7.296875 
Q 39.65625 2.828125 34.71875 0.3125 
Q 29.78125 -2.203125 24.3125 -2.203125 
Q 19.625 -2.203125 14.90625 -0.40625 
Q 10.203125 1.375 7.203125 4.9375 
Q 4.203125 8.5 4.203125 13.484375 
Q 4.203125 15.96875 5.859375 17.625 
Q 7.515625 19.28125 10.015625 19.28125 
Q 11.625 19.28125 12.96875 18.53125 
Q 14.3125 17.78125 15.0625 16.40625 
Q 15.828125 15.046875 15.828125 13.484375 
Q 15.828125 11.03125 14.109375 9.375 
Q 12.40625 7.71875 10.015625 7.71875 
z
" id="Cmr10-51"/>
      <path d="M 2.78125 16.5 
L 2.78125 20.015625 
L 33.6875 66.109375 
Q 34.03125 66.609375 34.71875 66.609375 
L 36.1875 66.609375 
Q 37.3125 66.609375 37.3125 65.484375 
L 37.3125 20.015625 
L 47.125 20.015625 
L 47.125 16.5 
L 37.3125 16.5 
L 37.3125 6.6875 
Q 37.3125 4.640625 40.234375 4.078125 
Q 43.171875 3.515625 47.015625 3.515625 
L 47.015625 0 
L 19.484375 0 
L 19.484375 3.515625 
Q 23.34375 3.515625 26.265625 4.078125 
Q 29.203125 4.640625 29.203125 6.6875 
L 29.203125 16.5 
z
M 6.109375 20.015625 
L 29.78125 20.015625 
L 29.78125 55.421875 
z
" id="Cmr10-52"/>
     </defs>
     <use transform="translate(0 0.109375)" xlink:href="#Cmmi10-181"/>
     <use transform="translate(46.923828 -16.896875)scale(0.7)" xlink:href="#Cmr10-48"/>
     <use transform="translate(105.859766 0.109375)" xlink:href="#Cmr10-43"/>
     <use transform="translate(201.103906 0.109375)" xlink:href="#Cmmi10-181"/>
     <use transform="translate(248.027734 -16.896875)scale(0.7)" xlink:href="#Cmr10-49"/>
     <use transform="translate(289.405078 0.109375)" xlink:href="#Cmmi10-120"/>
     <use transform="translate(364.04375 0.109375)" xlink:href="#Cmr10-43"/>
     <use transform="translate(459.287891 0.109375)" xlink:href="#Cmmi10-181"/>
     <use transform="translate(506.211719 -16.896875)scale(0.7)" xlink:href="#Cmr10-50"/>
     <use transform="translate(547.589062 0.109375)" xlink:href="#Cmmi10-120"/>
     <use transform="translate(610.972422 38.373438)scale(0.7)" xlink:href="#Cmr10-50"/>
     <use transform="translate(669.908359 0.109375)" xlink:href="#Cmr10-43"/>
     <use transform="translate(765.1525 0.109375)" xlink:href="#Cmmi10-181"/>
     <use transform="translate(812.076328 -16.896875)scale(0.7)" xlink:href="#Cmr10-51"/>
     <use transform="translate(853.453672 0.109375)" xlink:href="#Cmmi10-120"/>
     <use transform="translate(916.837031 38.373438)scale(0.7)" xlink:href="#Cmr10-51"/>
     <use transform="translate(975.772969 0.109375)" xlink:href="#Cmr10-43"/>
     <use transform="translate(1071.017109 0.109375)" xlink:href="#Cmmi10-181"/>
     <use transform="translate(1117.940938 -16.896875)scale(0.7)" xlink:href="#Cmr10-52"/>
     <use transform="translate(1159.318281 0.109375)" xlink:href="#Cmmi10-120"/>
     <use transform="translate(1222.701641 38.373438)scale(0.7)" xlink:href="#Cmr10-52"/>
    </g>
   </g>
  </g>
 </g>
 <defs>
  <clipPath id="p473d414ac4">
   <rect height="163.08" width="196.941176" x="27.992059" y="31.662"/>
  </clipPath>
  <clipPath id="pc57194198d">
   <rect height="163.08" width="196.941176" x="264.321471" y="31.662"/>
  </clipPath>
  <clipPath id="p2da4a19ca5">
   <rect height="163.08" width="196.941176" x="500.650882" y="31.662"/>
  </clipPath>
 </defs>
</svg>
