<?xml version="1.0" encoding="utf-8" standalone="no"?>
<!DOCTYPE svg PUBLIC "-//W3C//DTD SVG 1.1//EN"
  "http://www.w3.org/Graphics/SVG/1.1/DTD/svg11.dtd">
<!-- Created with matplotlib (https://matplotlib.org/) -->
<svg height="233.699706pt" version="1.1" viewBox="0 0 394.078571 233.699706" width="394.078571pt" xmlns="http://www.w3.org/2000/svg" xmlns:xlink="http://www.w3.org/1999/xlink">
 <metadata>
  <rdf:RDF xmlns:cc="http://creativecommons.org/ns#" xmlns:dc="http://purl.org/dc/elements/1.1/" xmlns:rdf="http://www.w3.org/1999/02/22-rdf-syntax-ns#">
   <cc:Work>
    <dc:type rdf:resource="http://purl.org/dc/dcmitype/StillImage"/>
    <dc:date>2021-09-27T19:40:49.639454</dc:date>
    <dc:format>image/svg+xml</dc:format>
    <dc:creator>
     <cc:Agent>
      <dc:title>Matplotlib v3.3.4, https://matplotlib.org/</dc:title>
     </cc:Agent>
    </dc:creator>
   </cc:Work>
  </rdf:RDF>
 </metadata>
 <defs>
  <style type="text/css">*{stroke-linecap:butt;stroke-linejoin:round;}</style>
 </defs>
 <g id="figure_1">
  <g id="patch_1">
   <path d="M 0 233.699706 
L 394.078571 233.699706 
L 394.078571 0 
L 0 0 
z
" style="fill:none;"/>
  </g>
  <g id="axes_1">
   <g id="text_1">
    <g id="patch_2">
     <path d="M 10.05 193.951075 
L 110.05 193.951075 
L 110.05 50.679513 
L 10.05 50.679513 
z
" style="fill:#dcdcdc;"/>
    </g>
    <!--  -->
    <g transform="translate(60.05 108.27795)scale(0.1 -0.1)"/>
    <!--  -->
    <g transform="translate(60.05 119.475763)scale(0.1 -0.1)"/>
    <!--  -->
    <g transform="translate(60.05 130.673575)scale(0.1 -0.1)"/>
    <!--  -->
    <g transform="translate(60.05 141.871388)scale(0.1 -0.1)"/>
   </g>
   <g id="text_2">
    <g id="patch_3">
     <path d="M 246.014732 210.747794 
L 352.370982 210.747794 
L 352.370982 33.882794 
L 246.014732 33.882794 
z
" style="fill:#dcdcdc;"/>
    </g>
    <!--    -->
    <g transform="translate(296.014732 91.481232)scale(0.1 -0.1)">
     <defs>
      <path id="DejaVuSans-32"/>
     </defs>
     <use xlink:href="#DejaVuSans-32"/>
     <use x="31.787109" xlink:href="#DejaVuSans-32"/>
    </g>
    <!--  -->
    <g transform="translate(299.192857 102.679044)scale(0.1 -0.1)"/>
    <!--  -->
    <g transform="translate(299.192857 113.876857)scale(0.1 -0.1)"/>
    <!--  -->
    <g transform="translate(299.192857 125.074669)scale(0.1 -0.1)"/>
    <!--  -->
    <g transform="translate(299.192857 136.272482)scale(0.1 -0.1)"/>
    <!--  -->
    <g transform="translate(299.192857 147.470294)scale(0.1 -0.1)"/>
    <!--  -->
    <g transform="translate(299.192857 158.668107)scale(0.1 -0.1)"/>
   </g>
   <g id="text_3">
    <g id="patch_4">
     <path d="M 35.932857 163.892557 
L 93.732857 163.892557 
Q 96.732857 163.892557 96.732857 160.892557 
L 96.732857 140.016619 
Q 96.732857 137.016619 93.732857 137.016619 
L 35.932857 137.016619 
Q 32.932857 137.016619 32.932857 140.016619 
L 32.932857 160.892557 
Q 32.932857 163.892557 35.932857 163.892557 
z
" style="fill:#ffffff;stroke:#2ca02c;stroke-linejoin:miter;"/>
    </g>
    <!-- $\mathrm{Multi-Head}$ -->
    <g transform="translate(35.932857 147.615057)scale(0.1 -0.1)">
     <defs>
      <path d="M 3.515625 0 
L 3.515625 3.515625 
Q 13.8125 3.515625 13.8125 9.421875 
L 13.8125 61.625 
Q 13.8125 64.796875 3.515625 64.796875 
L 3.515625 68.3125 
L 22.40625 68.3125 
Q 23.640625 68.3125 24.03125 67.1875 
L 45.796875 10.59375 
L 67.578125 67.1875 
Q 67.96875 68.3125 69.1875 68.3125 
L 88.09375 68.3125 
L 88.09375 64.796875 
Q 77.78125 64.796875 77.78125 61.625 
L 77.78125 6.6875 
Q 77.78125 3.515625 88.09375 3.515625 
L 88.09375 0 
L 58.984375 0 
L 58.984375 3.515625 
Q 69.28125 3.515625 69.28125 6.6875 
L 69.28125 64.890625 
L 44.671875 1.125 
Q 44.234375 0 43.015625 0 
Q 41.75 0 41.3125 1.125 
L 17 64.109375 
L 17 9.421875 
Q 17 3.515625 27.296875 3.515625 
L 27.296875 0 
z
" id="Cmr10-77"/>
      <path d="M 10.796875 11.921875 
L 10.796875 33.984375 
Q 10.796875 36.671875 9.984375 37.859375 
Q 9.1875 39.0625 7.671875 39.328125 
Q 6.15625 39.59375 2.984375 39.59375 
L 2.984375 43.109375 
L 18.109375 44.1875 
L 18.109375 11.921875 
Q 18.109375 8.015625 18.671875 5.828125 
Q 19.234375 3.65625 21.0625 2.578125 
Q 22.90625 1.515625 26.90625 1.515625 
Q 32.28125 1.515625 35.453125 6 
Q 38.625 10.5 38.625 16.21875 
L 38.625 33.984375 
Q 38.625 36.671875 37.796875 37.859375 
Q 36.96875 39.0625 35.46875 39.328125 
Q 33.984375 39.59375 30.8125 39.59375 
L 30.8125 43.109375 
L 45.90625 44.1875 
L 45.90625 9.078125 
Q 45.90625 6.453125 46.703125 5.25 
Q 47.515625 4.046875 49.015625 3.78125 
Q 50.53125 3.515625 53.71875 3.515625 
L 53.71875 0 
L 38.921875 -1.125 
L 38.921875 7.328125 
Q 37.0625 3.5625 33.734375 1.21875 
Q 30.421875 -1.125 26.421875 -1.125 
Q 19.234375 -1.125 15.015625 1.921875 
Q 10.796875 4.984375 10.796875 11.921875 
z
" id="Cmr10-117"/>
      <path d="M 3.078125 0 
L 3.078125 3.515625 
Q 6.5 3.515625 8.6875 4.046875 
Q 10.890625 4.59375 10.890625 6.6875 
L 10.890625 59.1875 
Q 10.890625 61.859375 10.078125 63.0625 
Q 9.28125 64.265625 7.765625 64.53125 
Q 6.25 64.796875 3.078125 64.796875 
L 3.078125 68.3125 
L 17.921875 69.390625 
L 17.921875 6.6875 
Q 17.921875 4.59375 20.109375 4.046875 
Q 22.3125 3.515625 25.6875 3.515625 
L 25.6875 0 
z
" id="Cmr10-108"/>
      <path d="M 10.203125 12.015625 
L 10.203125 39.59375 
L 1.90625 39.59375 
L 1.90625 42.1875 
Q 8.453125 42.1875 11.515625 48.28125 
Q 14.59375 54.390625 14.59375 61.53125 
L 17.484375 61.53125 
L 17.484375 43.109375 
L 31.59375 43.109375 
L 31.59375 39.59375 
L 17.484375 39.59375 
L 17.484375 12.203125 
Q 17.484375 8.0625 18.875 4.9375 
Q 20.265625 1.8125 23.875 1.8125 
Q 27.296875 1.8125 28.8125 5.109375 
Q 30.328125 8.40625 30.328125 12.203125 
L 30.328125 18.109375 
L 33.203125 18.109375 
L 33.203125 12.015625 
Q 33.203125 8.890625 32.046875 5.828125 
Q 30.90625 2.78125 28.65625 0.828125 
Q 26.421875 -1.125 23.1875 -1.125 
Q 17.1875 -1.125 13.6875 2.46875 
Q 10.203125 6.0625 10.203125 12.015625 
z
" id="Cmr10-116"/>
      <path d="M 3.078125 0 
L 3.078125 3.515625 
Q 6.5 3.515625 8.6875 4.046875 
Q 10.890625 4.59375 10.890625 6.6875 
L 10.890625 33.984375 
Q 10.890625 37.84375 9.390625 38.71875 
Q 7.90625 39.59375 3.515625 39.59375 
L 3.515625 43.109375 
L 17.921875 44.1875 
L 17.921875 6.6875 
Q 17.921875 4.59375 19.828125 4.046875 
Q 21.734375 3.515625 24.90625 3.515625 
L 24.90625 0 
z
M 7.328125 61.375 
Q 7.328125 63.578125 8.984375 65.234375 
Q 10.640625 66.890625 12.796875 66.890625 
Q 14.203125 66.890625 15.515625 66.15625 
Q 16.84375 65.4375 17.578125 64.109375 
Q 18.3125 62.796875 18.3125 61.375 
Q 18.3125 59.234375 16.640625 57.5625 
Q 14.984375 55.90625 12.796875 55.90625 
Q 10.640625 55.90625 8.984375 57.5625 
Q 7.328125 59.234375 7.328125 61.375 
z
" id="Cmr10-105"/>
      <path d="M 10.203125 23 
Q 9.375 23 8.828125 23.625 
Q 8.296875 24.265625 8.296875 25 
Q 8.296875 25.734375 8.828125 26.359375 
Q 9.375 27 10.203125 27 
L 67.578125 27 
Q 68.359375 27 68.875 26.359375 
Q 69.390625 25.734375 69.390625 25 
Q 69.390625 24.265625 68.875 23.625 
Q 68.359375 23 67.578125 23 
z
" id="Cmsy10-161"/>
      <path d="M 3.078125 0 
L 3.078125 3.515625 
Q 13.375 3.515625 13.375 6.6875 
L 13.375 61.625 
Q 13.375 64.796875 3.078125 64.796875 
L 3.078125 68.3125 
L 33.015625 68.3125 
L 33.015625 64.796875 
Q 22.703125 64.796875 22.703125 61.625 
L 22.703125 37.3125 
L 52.203125 37.3125 
L 52.203125 61.625 
Q 52.203125 64.796875 41.890625 64.796875 
L 41.890625 68.3125 
L 71.78125 68.3125 
L 71.78125 64.796875 
Q 61.53125 64.796875 61.53125 61.625 
L 61.53125 6.6875 
Q 61.53125 3.515625 71.78125 3.515625 
L 71.78125 0 
L 41.890625 0 
L 41.890625 3.515625 
Q 52.203125 3.515625 52.203125 6.6875 
L 52.203125 33.796875 
L 22.703125 33.796875 
L 22.703125 6.6875 
Q 22.703125 3.515625 33.015625 3.515625 
L 33.015625 0 
z
" id="Cmr10-72"/>
      <path d="M 24.90625 -1.125 
Q 18.796875 -1.125 13.6875 2.078125 
Q 8.59375 5.28125 5.6875 10.625 
Q 2.78125 15.96875 2.78125 21.921875 
Q 2.78125 27.78125 5.4375 33.046875 
Q 8.109375 38.328125 12.859375 41.578125 
Q 17.625 44.828125 23.484375 44.828125 
Q 28.078125 44.828125 31.46875 43.28125 
Q 34.859375 41.75 37.0625 39.015625 
Q 39.265625 36.28125 40.375 32.5625 
Q 41.5 28.859375 41.5 24.421875 
Q 41.5 23.09375 40.484375 23.09375 
L 11.53125 23.09375 
L 11.53125 22.015625 
Q 11.53125 13.71875 14.875 7.765625 
Q 18.21875 1.8125 25.78125 1.8125 
Q 28.859375 1.8125 31.46875 3.171875 
Q 34.078125 4.546875 36 6.984375 
Q 37.9375 9.421875 38.625 12.203125 
Q 38.71875 12.546875 38.984375 12.8125 
Q 39.265625 13.09375 39.59375 13.09375 
L 40.484375 13.09375 
Q 41.5 13.09375 41.5 11.8125 
Q 40.09375 6.15625 35.40625 2.515625 
Q 30.71875 -1.125 24.90625 -1.125 
z
M 11.625 25.59375 
L 34.421875 25.59375 
Q 34.421875 29.34375 33.375 33.203125 
Q 32.328125 37.0625 29.875 39.625 
Q 27.4375 42.1875 23.484375 42.1875 
Q 17.828125 42.1875 14.71875 36.890625 
Q 11.625 31.59375 11.625 25.59375 
z
" id="Cmr10-101"/>
      <path d="M 4 9.8125 
Q 4 15.765625 8.6875 19.5 
Q 13.375 23.25 19.9375 24.78125 
Q 26.515625 26.3125 32.421875 26.3125 
L 32.421875 30.421875 
Q 32.421875 33.296875 31.15625 36 
Q 29.890625 38.71875 27.484375 40.453125 
Q 25.09375 42.1875 22.21875 42.1875 
Q 15.578125 42.1875 12.109375 39.203125 
Q 14.015625 39.203125 15.25 37.765625 
Q 16.5 36.328125 16.5 34.421875 
Q 16.5 32.421875 15.078125 31 
Q 13.671875 29.59375 11.71875 29.59375 
Q 9.71875 29.59375 8.296875 31 
Q 6.890625 32.421875 6.890625 34.421875 
Q 6.890625 39.703125 11.671875 42.265625 
Q 16.453125 44.828125 22.21875 44.828125 
Q 26.265625 44.828125 30.359375 43.09375 
Q 34.46875 41.359375 37.078125 38.125 
Q 39.703125 34.90625 39.703125 30.609375 
L 39.703125 8.109375 
Q 39.703125 6.15625 40.53125 4.515625 
Q 41.359375 2.875 43.109375 2.875 
Q 44.78125 2.875 45.578125 4.53125 
Q 46.390625 6.203125 46.390625 8.109375 
L 46.390625 14.5 
L 49.3125 14.5 
L 49.3125 8.109375 
Q 49.3125 5.859375 48.140625 3.828125 
Q 46.96875 1.8125 44.984375 0.609375 
Q 43.015625 -0.59375 40.71875 -0.59375 
Q 37.796875 -0.59375 35.671875 1.671875 
Q 33.546875 3.953125 33.296875 7.078125 
Q 31.453125 3.328125 27.828125 1.09375 
Q 24.21875 -1.125 20.125 -1.125 
Q 16.3125 -1.125 12.625 0 
Q 8.9375 1.125 6.46875 3.53125 
Q 4 5.953125 4 9.8125 
z
M 12.109375 9.8125 
Q 12.109375 6.296875 14.6875 3.90625 
Q 17.28125 1.515625 20.796875 1.515625 
Q 24.03125 1.515625 26.65625 3.125 
Q 29.296875 4.734375 30.859375 7.515625 
Q 32.421875 10.296875 32.421875 13.375 
L 32.421875 23.78125 
Q 27.875 23.78125 23.109375 22.28125 
Q 18.359375 20.796875 15.234375 17.625 
Q 12.109375 14.453125 12.109375 9.8125 
z
" id="Cmr10-97"/>
      <path d="M 24.421875 -1.125 
Q 18.5 -1.125 13.609375 2.078125 
Q 8.734375 5.28125 6.03125 10.5 
Q 3.328125 15.71875 3.328125 21.578125 
Q 3.328125 27.640625 6.28125 32.828125 
Q 9.234375 38.03125 14.3125 41.109375 
Q 19.390625 44.1875 25.484375 44.1875 
Q 29.15625 44.1875 32.421875 42.640625 
Q 35.6875 41.109375 38.09375 38.375 
L 38.09375 59.1875 
Q 38.09375 61.859375 37.28125 63.0625 
Q 36.46875 64.265625 34.984375 64.53125 
Q 33.5 64.796875 30.328125 64.796875 
L 30.328125 68.3125 
L 45.125 69.390625 
L 45.125 9.078125 
Q 45.125 6.453125 45.921875 5.25 
Q 46.734375 4.046875 48.21875 3.78125 
Q 49.703125 3.515625 52.875 3.515625 
L 52.875 0 
L 37.796875 -1.125 
L 37.796875 5.171875 
Q 35.203125 2.203125 31.640625 0.53125 
Q 28.078125 -1.125 24.421875 -1.125 
z
M 14.203125 8.6875 
Q 15.921875 5.421875 18.765625 3.46875 
Q 21.625 1.515625 25 1.515625 
Q 29.15625 1.515625 32.609375 3.90625 
Q 36.078125 6.296875 37.796875 10.109375 
L 37.796875 34.078125 
Q 36.625 36.28125 34.84375 38.015625 
Q 33.0625 39.75 30.828125 40.671875 
Q 28.609375 41.609375 26.125 41.609375 
Q 20.90625 41.609375 17.71875 38.640625 
Q 14.546875 35.6875 13.28125 31.09375 
Q 12.015625 26.515625 12.015625 21.484375 
Q 12.015625 17.484375 12.421875 14.5 
Q 12.84375 11.53125 14.203125 8.6875 
z
" id="Cmr10-100"/>
     </defs>
     <use transform="translate(0 0.609375)" xlink:href="#Cmr10-77"/>
     <use transform="translate(91.601562 0.609375)" xlink:href="#Cmr10-117"/>
     <use transform="translate(147.119141 0.609375)" xlink:href="#Cmr10-108"/>
     <use transform="translate(174.804688 0.609375)" xlink:href="#Cmr10-116"/>
     <use transform="translate(213.623047 0.609375)" xlink:href="#Cmr10-105"/>
     <use transform="translate(257.96875 0.609375)" xlink:href="#Cmsy10-161"/>
     <use transform="translate(352.314453 0.609375)" xlink:href="#Cmr10-72"/>
     <use transform="translate(427.314453 0.609375)" xlink:href="#Cmr10-101"/>
     <use transform="translate(471.699219 0.609375)" xlink:href="#Cmr10-97"/>
     <use transform="translate(521.699219 0.609375)" xlink:href="#Cmr10-100"/>
    </g>
    <!-- $\mathrm{Attention}$ -->
    <g transform="translate(43.582857 158.812869)scale(0.1 -0.1)">
     <defs>
      <path d="M 3.21875 0 
L 3.21875 3.515625 
Q 12.15625 3.515625 14.203125 9.421875 
L 35.203125 70.515625 
Q 35.5 71.578125 36.8125 71.578125 
L 38.09375 71.578125 
Q 39.40625 71.578125 39.703125 70.515625 
L 61.625 6.6875 
Q 62.546875 4.59375 65.15625 4.046875 
Q 67.78125 3.515625 71.6875 3.515625 
L 71.6875 0 
L 43.796875 0 
L 43.796875 3.515625 
Q 52.09375 3.515625 52.09375 6.203125 
L 52.09375 6.6875 
L 46.6875 22.3125 
L 22.40625 22.3125 
L 17.921875 9.421875 
Q 17.828125 9.078125 17.828125 8.40625 
Q 17.828125 5.90625 20.1875 4.703125 
Q 22.5625 3.515625 25.296875 3.515625 
L 25.296875 0 
z
M 23.578125 25.78125 
L 45.515625 25.78125 
L 34.515625 57.71875 
z
" id="Cmr10-65"/>
      <path d="M 2.984375 0 
L 2.984375 3.515625 
Q 6.390625 3.515625 8.59375 4.046875 
Q 10.796875 4.59375 10.796875 6.6875 
L 10.796875 33.984375 
Q 10.796875 36.671875 9.984375 37.859375 
Q 9.1875 39.0625 7.671875 39.328125 
Q 6.15625 39.59375 2.984375 39.59375 
L 2.984375 43.109375 
L 17.484375 44.1875 
L 17.484375 34.421875 
Q 19.484375 38.71875 23.40625 41.453125 
Q 27.34375 44.1875 31.984375 44.1875 
Q 38.921875 44.1875 42.40625 40.859375 
Q 45.90625 37.546875 45.90625 30.71875 
L 45.90625 6.6875 
Q 45.90625 4.59375 48.09375 4.046875 
Q 50.296875 3.515625 53.71875 3.515625 
L 53.71875 0 
L 30.8125 0 
L 30.8125 3.515625 
Q 34.234375 3.515625 36.421875 4.046875 
Q 38.625 4.59375 38.625 6.6875 
L 38.625 30.421875 
Q 38.625 35.296875 37.203125 38.453125 
Q 35.796875 41.609375 31.390625 41.609375 
Q 25.59375 41.609375 21.84375 36.96875 
Q 18.109375 32.328125 18.109375 26.421875 
L 18.109375 6.6875 
Q 18.109375 4.59375 20.3125 4.046875 
Q 22.515625 3.515625 25.875 3.515625 
L 25.875 0 
z
" id="Cmr10-110"/>
      <path d="M 25 -1.125 
Q 19 -1.125 13.859375 1.921875 
Q 8.734375 4.984375 5.75 10.109375 
Q 2.78125 15.234375 2.78125 21.296875 
Q 2.78125 25.875 4.421875 30.125 
Q 6.0625 34.375 9.109375 37.71875 
Q 12.15625 41.0625 16.203125 42.9375 
Q 20.265625 44.828125 25 44.828125 
Q 31.15625 44.828125 36.203125 41.578125 
Q 41.265625 38.328125 44.1875 32.875 
Q 47.125 27.4375 47.125 21.296875 
Q 47.125 15.28125 44.140625 10.125 
Q 41.15625 4.984375 36.046875 1.921875 
Q 30.953125 -1.125 25 -1.125 
z
M 25 1.8125 
Q 33.015625 1.8125 35.6875 7.609375 
Q 38.375 13.421875 38.375 22.40625 
Q 38.375 27.4375 37.84375 30.734375 
Q 37.3125 34.03125 35.5 36.71875 
Q 34.375 38.375 32.640625 39.625 
Q 30.90625 40.875 28.96875 41.53125 
Q 27.046875 42.1875 25 42.1875 
Q 21.875 42.1875 19.0625 40.765625 
Q 16.265625 39.359375 14.40625 36.71875 
Q 12.546875 33.890625 12.03125 30.484375 
Q 11.53125 27.09375 11.53125 22.40625 
Q 11.53125 16.796875 12.5 12.328125 
Q 13.484375 7.859375 16.4375 4.828125 
Q 19.390625 1.8125 25 1.8125 
z
" id="Cmr10-111"/>
     </defs>
     <use transform="translate(0 0.421875)" xlink:href="#Cmr10-65"/>
     <use transform="translate(75 0.421875)" xlink:href="#Cmr10-116"/>
     <use transform="translate(113.818359 0.421875)" xlink:href="#Cmr10-116"/>
     <use transform="translate(152.636719 0.421875)" xlink:href="#Cmr10-101"/>
     <use transform="translate(197.021484 0.421875)" xlink:href="#Cmr10-110"/>
     <use transform="translate(252.539062 0.421875)" xlink:href="#Cmr10-116"/>
     <use transform="translate(291.357422 0.421875)" xlink:href="#Cmr10-105"/>
     <use transform="translate(319.042969 0.421875)" xlink:href="#Cmr10-111"/>
     <use transform="translate(369.042969 0.421875)" xlink:href="#Cmr10-110"/>
    </g>
   </g>
   <g id="text_4">
    <g id="patch_5">
     <path d="M 275.075714 131.916086 
L 332.875714 131.916086 
Q 335.875714 131.916086 335.875714 128.916086 
L 335.875714 108.040149 
Q 335.875714 105.040149 332.875714 105.040149 
L 275.075714 105.040149 
Q 272.075714 105.040149 272.075714 108.040149 
L 272.075714 128.916086 
Q 272.075714 131.916086 275.075714 131.916086 
z
" style="fill:#ffffff;stroke:#2ca02c;stroke-linejoin:miter;"/>
    </g>
    <!-- $\mathrm{Multi-Head}$ -->
    <g transform="translate(275.075714 115.638586)scale(0.1 -0.1)">
     <use transform="translate(0 0.609375)" xlink:href="#Cmr10-77"/>
     <use transform="translate(91.601562 0.609375)" xlink:href="#Cmr10-117"/>
     <use transform="translate(147.119141 0.609375)" xlink:href="#Cmr10-108"/>
     <use transform="translate(174.804688 0.609375)" xlink:href="#Cmr10-116"/>
     <use transform="translate(213.623047 0.609375)" xlink:href="#Cmr10-105"/>
     <use transform="translate(257.96875 0.609375)" xlink:href="#Cmsy10-161"/>
     <use transform="translate(352.314453 0.609375)" xlink:href="#Cmr10-72"/>
     <use transform="translate(427.314453 0.609375)" xlink:href="#Cmr10-101"/>
     <use transform="translate(471.699219 0.609375)" xlink:href="#Cmr10-97"/>
     <use transform="translate(521.699219 0.609375)" xlink:href="#Cmr10-100"/>
    </g>
    <!-- $\mathrm{Attention}$ -->
    <g transform="translate(282.725714 126.836399)scale(0.1 -0.1)">
     <use transform="translate(0 0.421875)" xlink:href="#Cmr10-65"/>
     <use transform="translate(75 0.421875)" xlink:href="#Cmr10-116"/>
     <use transform="translate(113.818359 0.421875)" xlink:href="#Cmr10-116"/>
     <use transform="translate(152.636719 0.421875)" xlink:href="#Cmr10-101"/>
     <use transform="translate(197.021484 0.421875)" xlink:href="#Cmr10-110"/>
     <use transform="translate(252.539062 0.421875)" xlink:href="#Cmr10-116"/>
     <use transform="translate(291.357422 0.421875)" xlink:href="#Cmr10-105"/>
     <use transform="translate(319.042969 0.421875)" xlink:href="#Cmr10-111"/>
     <use transform="translate(369.042969 0.421875)" xlink:href="#Cmr10-110"/>
    </g>
   </g>
   <g id="text_5">
    <g id="patch_6">
     <path d="M 275.075714 195.869028 
L 332.875714 195.869028 
Q 335.875714 195.869028 335.875714 192.869028 
L 335.875714 171.99309 
Q 335.875714 168.99309 332.875714 168.99309 
L 275.075714 168.99309 
Q 272.075714 168.99309 272.075714 171.99309 
L 272.075714 192.869028 
Q 272.075714 195.869028 275.075714 195.869028 
z
" style="fill:#ffffff;stroke:#2ca02c;stroke-linejoin:miter;"/>
    </g>
    <!-- $\mathrm{Multi-Head}$ -->
    <g transform="translate(275.075714 179.591528)scale(0.1 -0.1)">
     <use transform="translate(0 0.609375)" xlink:href="#Cmr10-77"/>
     <use transform="translate(91.601562 0.609375)" xlink:href="#Cmr10-117"/>
     <use transform="translate(147.119141 0.609375)" xlink:href="#Cmr10-108"/>
     <use transform="translate(174.804688 0.609375)" xlink:href="#Cmr10-116"/>
     <use transform="translate(213.623047 0.609375)" xlink:href="#Cmr10-105"/>
     <use transform="translate(257.96875 0.609375)" xlink:href="#Cmsy10-161"/>
     <use transform="translate(352.314453 0.609375)" xlink:href="#Cmr10-72"/>
     <use transform="translate(427.314453 0.609375)" xlink:href="#Cmr10-101"/>
     <use transform="translate(471.699219 0.609375)" xlink:href="#Cmr10-97"/>
     <use transform="translate(521.699219 0.609375)" xlink:href="#Cmr10-100"/>
    </g>
    <!-- $\mathrm{Attention}$ -->
    <g transform="translate(282.725714 190.78934)scale(0.1 -0.1)">
     <use transform="translate(0 0.421875)" xlink:href="#Cmr10-65"/>
     <use transform="translate(75 0.421875)" xlink:href="#Cmr10-116"/>
     <use transform="translate(113.818359 0.421875)" xlink:href="#Cmr10-116"/>
     <use transform="translate(152.636719 0.421875)" xlink:href="#Cmr10-101"/>
     <use transform="translate(197.021484 0.421875)" xlink:href="#Cmr10-110"/>
     <use transform="translate(252.539062 0.421875)" xlink:href="#Cmr10-116"/>
     <use transform="translate(291.357422 0.421875)" xlink:href="#Cmr10-105"/>
     <use transform="translate(319.042969 0.421875)" xlink:href="#Cmr10-111"/>
     <use transform="translate(369.042969 0.421875)" xlink:href="#Cmr10-110"/>
    </g>
   </g>
   <g id="text_6">
    <g id="patch_7">
     <path d="M 33.541429 165.811145 
L 91.341429 165.811145 
Q 94.341429 165.811145 94.341429 162.811145 
L 94.341429 141.935208 
Q 94.341429 138.935208 91.341429 138.935208 
L 33.541429 138.935208 
Q 30.541429 138.935208 30.541429 141.935208 
L 30.541429 162.811145 
Q 30.541429 165.811145 33.541429 165.811145 
z
" style="fill:#ffffff;stroke:#d62728;stroke-linejoin:miter;"/>
    </g>
    <!-- $\mathrm{Multi-Head}$ -->
    <g transform="translate(33.541429 149.533645)scale(0.1 -0.1)">
     <use transform="translate(0 0.609375)" xlink:href="#Cmr10-77"/>
     <use transform="translate(91.601562 0.609375)" xlink:href="#Cmr10-117"/>
     <use transform="translate(147.119141 0.609375)" xlink:href="#Cmr10-108"/>
     <use transform="translate(174.804688 0.609375)" xlink:href="#Cmr10-116"/>
     <use transform="translate(213.623047 0.609375)" xlink:href="#Cmr10-105"/>
     <use transform="translate(257.96875 0.609375)" xlink:href="#Cmsy10-161"/>
     <use transform="translate(352.314453 0.609375)" xlink:href="#Cmr10-72"/>
     <use transform="translate(427.314453 0.609375)" xlink:href="#Cmr10-101"/>
     <use transform="translate(471.699219 0.609375)" xlink:href="#Cmr10-97"/>
     <use transform="translate(521.699219 0.609375)" xlink:href="#Cmr10-100"/>
    </g>
    <!-- $\mathrm{Attention}$ -->
    <g transform="translate(41.191429 160.731458)scale(0.1 -0.1)">
     <use transform="translate(0 0.421875)" xlink:href="#Cmr10-65"/>
     <use transform="translate(75 0.421875)" xlink:href="#Cmr10-116"/>
     <use transform="translate(113.818359 0.421875)" xlink:href="#Cmr10-116"/>
     <use transform="translate(152.636719 0.421875)" xlink:href="#Cmr10-101"/>
     <use transform="translate(197.021484 0.421875)" xlink:href="#Cmr10-110"/>
     <use transform="translate(252.539062 0.421875)" xlink:href="#Cmr10-116"/>
     <use transform="translate(291.357422 0.421875)" xlink:href="#Cmr10-105"/>
     <use transform="translate(319.042969 0.421875)" xlink:href="#Cmr10-111"/>
     <use transform="translate(369.042969 0.421875)" xlink:href="#Cmr10-110"/>
    </g>
   </g>
   <g id="text_7">
    <g id="patch_8">
     <path d="M 272.684286 133.834675 
L 330.484286 133.834675 
Q 333.484286 133.834675 333.484286 130.834675 
L 333.484286 109.958737 
Q 333.484286 106.958737 330.484286 106.958737 
L 272.684286 106.958737 
Q 269.684286 106.958737 269.684286 109.958737 
L 269.684286 130.834675 
Q 269.684286 133.834675 272.684286 133.834675 
z
" style="fill:#ffffff;stroke:#d62728;stroke-linejoin:miter;"/>
    </g>
    <!-- $\mathrm{Multi-Head}$ -->
    <g transform="translate(272.684286 117.557175)scale(0.1 -0.1)">
     <use transform="translate(0 0.609375)" xlink:href="#Cmr10-77"/>
     <use transform="translate(91.601562 0.609375)" xlink:href="#Cmr10-117"/>
     <use transform="translate(147.119141 0.609375)" xlink:href="#Cmr10-108"/>
     <use transform="translate(174.804688 0.609375)" xlink:href="#Cmr10-116"/>
     <use transform="translate(213.623047 0.609375)" xlink:href="#Cmr10-105"/>
     <use transform="translate(257.96875 0.609375)" xlink:href="#Cmsy10-161"/>
     <use transform="translate(352.314453 0.609375)" xlink:href="#Cmr10-72"/>
     <use transform="translate(427.314453 0.609375)" xlink:href="#Cmr10-101"/>
     <use transform="translate(471.699219 0.609375)" xlink:href="#Cmr10-97"/>
     <use transform="translate(521.699219 0.609375)" xlink:href="#Cmr10-100"/>
    </g>
    <!-- $\mathrm{Attention}$ -->
    <g transform="translate(280.334286 128.754987)scale(0.1 -0.1)">
     <use transform="translate(0 0.421875)" xlink:href="#Cmr10-65"/>
     <use transform="translate(75 0.421875)" xlink:href="#Cmr10-116"/>
     <use transform="translate(113.818359 0.421875)" xlink:href="#Cmr10-116"/>
     <use transform="translate(152.636719 0.421875)" xlink:href="#Cmr10-101"/>
     <use transform="translate(197.021484 0.421875)" xlink:href="#Cmr10-110"/>
     <use transform="translate(252.539062 0.421875)" xlink:href="#Cmr10-116"/>
     <use transform="translate(291.357422 0.421875)" xlink:href="#Cmr10-105"/>
     <use transform="translate(319.042969 0.421875)" xlink:href="#Cmr10-111"/>
     <use transform="translate(369.042969 0.421875)" xlink:href="#Cmr10-110"/>
    </g>
   </g>
   <g id="text_8">
    <g id="patch_9">
     <path d="M 272.684286 197.787616 
L 330.484286 197.787616 
Q 333.484286 197.787616 333.484286 194.787616 
L 333.484286 173.911678 
Q 333.484286 170.911678 330.484286 170.911678 
L 272.684286 170.911678 
Q 269.684286 170.911678 269.684286 173.911678 
L 269.684286 194.787616 
Q 269.684286 197.787616 272.684286 197.787616 
z
" style="fill:#ffffff;stroke:#d62728;stroke-linejoin:miter;"/>
    </g>
    <!-- $\mathrm{Multi-Head}$ -->
    <g transform="translate(272.684286 181.510116)scale(0.1 -0.1)">
     <use transform="translate(0 0.609375)" xlink:href="#Cmr10-77"/>
     <use transform="translate(91.601562 0.609375)" xlink:href="#Cmr10-117"/>
     <use transform="translate(147.119141 0.609375)" xlink:href="#Cmr10-108"/>
     <use transform="translate(174.804688 0.609375)" xlink:href="#Cmr10-116"/>
     <use transform="translate(213.623047 0.609375)" xlink:href="#Cmr10-105"/>
     <use transform="translate(257.96875 0.609375)" xlink:href="#Cmsy10-161"/>
     <use transform="translate(352.314453 0.609375)" xlink:href="#Cmr10-72"/>
     <use transform="translate(427.314453 0.609375)" xlink:href="#Cmr10-101"/>
     <use transform="translate(471.699219 0.609375)" xlink:href="#Cmr10-97"/>
     <use transform="translate(521.699219 0.609375)" xlink:href="#Cmr10-100"/>
    </g>
    <!-- $\mathrm{Attention}$ -->
    <g transform="translate(280.334286 192.707928)scale(0.1 -0.1)">
     <use transform="translate(0 0.421875)" xlink:href="#Cmr10-65"/>
     <use transform="translate(75 0.421875)" xlink:href="#Cmr10-116"/>
     <use transform="translate(113.818359 0.421875)" xlink:href="#Cmr10-116"/>
     <use transform="translate(152.636719 0.421875)" xlink:href="#Cmr10-101"/>
     <use transform="translate(197.021484 0.421875)" xlink:href="#Cmr10-110"/>
     <use transform="translate(252.539062 0.421875)" xlink:href="#Cmr10-116"/>
     <use transform="translate(291.357422 0.421875)" xlink:href="#Cmr10-105"/>
     <use transform="translate(319.042969 0.421875)" xlink:href="#Cmr10-111"/>
     <use transform="translate(369.042969 0.421875)" xlink:href="#Cmr10-110"/>
    </g>
   </g>
   <g id="text_9">
    <g id="patch_10">
     <path d="M 22.935 230.399706 
L 97.165 230.399706 
Q 101.065 230.399706 101.065 226.499706 
L 101.065 209.989706 
Q 101.065 206.089706 97.165 206.089706 
L 22.935 206.089706 
Q 19.035 206.089706 19.035 209.989706 
L 19.035 226.499706 
Q 19.035 230.399706 22.935 230.399706 
z
" style="fill:#ffffff;"/>
    </g>
    <!-- $x^{\langle 1 \rangle}, \dots , x^{\langle T_x \rangle}$ -->
    <g transform="translate(22.935 223.796112)scale(0.13 -0.13)">
     <defs>
      <path d="M 7.8125 2.875 
Q 9.578125 1.515625 12.796875 1.515625 
Q 15.921875 1.515625 18.3125 4.515625 
Q 20.703125 7.515625 21.578125 11.078125 
L 26.125 28.8125 
Q 27.203125 33.640625 27.203125 35.40625 
Q 27.203125 37.890625 25.8125 39.75 
Q 24.421875 41.609375 21.921875 41.609375 
Q 18.75 41.609375 15.96875 39.625 
Q 13.1875 37.640625 11.28125 34.59375 
Q 9.375 31.546875 8.59375 28.421875 
Q 8.40625 27.78125 7.8125 27.78125 
L 6.59375 27.78125 
Q 5.8125 27.78125 5.8125 28.71875 
L 5.8125 29 
Q 6.78125 32.71875 9.125 36.25 
Q 11.46875 39.796875 14.859375 41.984375 
Q 18.265625 44.1875 22.125 44.1875 
Q 25.78125 44.1875 28.734375 42.234375 
Q 31.6875 40.28125 32.90625 36.921875 
Q 34.625 39.984375 37.28125 42.078125 
Q 39.9375 44.1875 43.109375 44.1875 
Q 45.265625 44.1875 47.5 43.421875 
Q 49.75 42.671875 51.171875 41.109375 
Q 52.59375 39.546875 52.59375 37.203125 
Q 52.59375 34.671875 50.953125 32.828125 
Q 49.3125 31 46.78125 31 
Q 45.171875 31 44.09375 32.03125 
Q 43.015625 33.0625 43.015625 34.625 
Q 43.015625 36.71875 44.453125 38.296875 
Q 45.90625 39.890625 47.90625 40.1875 
Q 46.09375 41.609375 42.921875 41.609375 
Q 39.703125 41.609375 37.328125 38.625 
Q 34.96875 35.640625 33.984375 31.984375 
L 29.59375 14.3125 
Q 28.515625 10.296875 28.515625 7.71875 
Q 28.515625 5.171875 29.953125 3.34375 
Q 31.390625 1.515625 33.796875 1.515625 
Q 38.484375 1.515625 42.15625 5.640625 
Q 45.84375 9.765625 47.015625 14.703125 
Q 47.21875 15.28125 47.796875 15.28125 
L 49.03125 15.28125 
Q 49.421875 15.28125 49.65625 15.015625 
Q 49.90625 14.75 49.90625 14.40625 
Q 49.90625 14.3125 49.8125 14.109375 
Q 48.390625 8.15625 43.84375 3.515625 
Q 39.3125 -1.125 33.59375 -1.125 
Q 29.9375 -1.125 26.984375 0.84375 
Q 24.03125 2.828125 22.796875 6.203125 
Q 21.234375 3.265625 18.46875 1.0625 
Q 15.71875 -1.125 12.59375 -1.125 
Q 10.453125 -1.125 8.171875 -0.359375 
Q 5.90625 0.390625 4.484375 1.953125 
Q 3.078125 3.515625 3.078125 5.90625 
Q 3.078125 8.25 4.703125 10.171875 
Q 6.34375 12.109375 8.796875 12.109375 
Q 10.453125 12.109375 11.578125 11.109375 
Q 12.703125 10.109375 12.703125 8.5 
Q 12.703125 6.390625 11.296875 4.828125 
Q 9.90625 3.265625 7.8125 2.875 
z
" id="Cmmi10-120"/>
      <path d="M 35.5 -114.796875 
L 10.015625 -56.78125 
Q 9.8125 -56.5 9.8125 -56 
Q 9.8125 -55.515625 10.015625 -55.328125 
L 35.5 2.78125 
Q 35.984375 4 37.3125 4 
Q 38.03125 4 38.671875 3.359375 
Q 39.3125 2.734375 39.3125 2 
Q 39.3125 1.515625 39.203125 1.3125 
L 14.015625 -56 
L 39.203125 -113.28125 
Q 39.3125 -113.484375 39.3125 -114.015625 
Q 39.3125 -114.75 38.671875 -115.375 
Q 38.03125 -116.015625 37.3125 -116.015625 
Q 36.03125 -116.015625 35.5 -114.796875 
z
" id="Cmex10-173"/>
      <path d="M 9.28125 0 
L 9.28125 3.515625 
Q 21.78125 3.515625 21.78125 6.6875 
L 21.78125 59.1875 
Q 16.609375 56.6875 8.6875 56.6875 
L 8.6875 60.203125 
Q 20.953125 60.203125 27.203125 66.609375 
L 28.609375 66.609375 
Q 28.953125 66.609375 29.265625 66.328125 
Q 29.59375 66.0625 29.59375 65.71875 
L 29.59375 6.6875 
Q 29.59375 3.515625 42.09375 3.515625 
L 42.09375 0 
z
" id="Cmr10-49"/>
      <path d="M 7.8125 -114.015625 
Q 7.8125 -113.484375 8.015625 -113.28125 
L 33.109375 -56 
L 8.015625 1.3125 
Q 7.8125 1.515625 7.8125 2 
Q 7.8125 2.734375 8.390625 3.359375 
Q 8.984375 4 9.8125 4 
Q 10.984375 4 11.71875 2.78125 
L 37.203125 -55.328125 
Q 37.3125 -55.515625 37.3125 -56 
Q 37.3125 -56.5 37.203125 -56.78125 
L 11.71875 -114.796875 
Q 10.9375 -116.015625 9.8125 -116.015625 
Q 8.984375 -116.015625 8.390625 -115.375 
Q 7.8125 -114.75 7.8125 -114.015625 
z
" id="Cmex10-174"/>
      <path d="M 9.90625 -18.015625 
Q 9.90625 -17.578125 10.296875 -17.1875 
Q 13.921875 -13.71875 15.921875 -9.171875 
Q 17.921875 -4.640625 17.921875 0.390625 
L 17.921875 1.609375 
Q 16.3125 0 13.921875 0 
Q 11.625 0 10.015625 1.609375 
Q 8.40625 3.21875 8.40625 5.515625 
Q 8.40625 7.859375 10.015625 9.421875 
Q 11.625 10.984375 13.921875 10.984375 
Q 17.484375 10.984375 19 7.6875 
Q 20.515625 4.390625 20.515625 0.390625 
Q 20.515625 -5.171875 18.28125 -10.171875 
Q 16.0625 -15.1875 12.015625 -19.1875 
Q 11.625 -19.390625 11.375 -19.390625 
Q 10.890625 -19.390625 10.390625 -18.9375 
Q 9.90625 -18.5 9.90625 -18.015625 
z
" id="Cmmi10-59"/>
      <path d="M 88.796875 4.296875 
Q 88.796875 2.09375 87.140625 0.5 
Q 85.5 -1.09375 83.203125 -1.09375 
Q 80.90625 -1.09375 79.296875 0.5 
Q 77.703125 2.09375 77.703125 4.390625 
Q 77.703125 6.703125 79.34375 8.34375 
Q 81 10 83.296875 10 
Q 85.5 10 87.140625 8.296875 
Q 88.796875 6.59375 88.796875 4.296875 
z
M 55.5 4.296875 
Q 55.5 2.09375 53.84375 0.5 
Q 52.203125 -1.09375 49.890625 -1.09375 
Q 47.59375 -1.09375 46 0.5 
Q 44.40625 2.09375 44.40625 4.390625 
Q 44.40625 6.703125 46.046875 8.34375 
Q 47.703125 10 50 10 
Q 52.203125 10 53.84375 8.296875 
Q 55.5 6.59375 55.5 4.296875 
z
M 22.203125 4.296875 
Q 22.203125 2.09375 20.546875 0.5 
Q 18.90625 -1.09375 16.59375 -1.09375 
Q 14.296875 -1.09375 12.6875 0.5 
Q 11.09375 2.09375 11.09375 4.390625 
Q 11.09375 6.703125 12.75 8.34375 
Q 14.40625 10 16.703125 10 
Q 18.90625 10 20.546875 8.296875 
Q 22.203125 6.59375 22.203125 4.296875 
z
" id="STIXGeneral-Regular-8230"/>
      <path d="M 4.59375 1.3125 
Q 4.640625 1.5625 4.8125 2.1875 
Q 4.984375 2.828125 5.25 3.171875 
Q 5.515625 3.515625 6 3.515625 
Q 14.59375 3.515625 17.390625 4 
Q 20.0625 4.6875 20.609375 6.890625 
L 34.28125 61.8125 
Q 34.71875 63.03125 34.71875 64.015625 
Q 34.71875 64.796875 31.203125 64.796875 
L 25.390625 64.796875 
Q 18.703125 64.796875 15.0625 62.734375 
Q 11.421875 60.6875 9.71875 57.3125 
Q 8.015625 53.953125 5.328125 46.296875 
Q 4.984375 45.40625 4.296875 45.40625 
L 3.421875 45.40625 
Q 2.390625 45.40625 2.390625 46.6875 
L 9.515625 67.390625 
Q 9.71875 68.3125 10.5 68.3125 
L 69.578125 68.3125 
Q 70.609375 68.3125 70.609375 67 
L 67.28125 46.296875 
Q 67.28125 46 66.9375 45.703125 
Q 66.609375 45.40625 66.3125 45.40625 
L 65.375 45.40625 
Q 64.40625 45.40625 64.40625 46.6875 
Q 65.484375 53.765625 65.484375 56.6875 
Q 65.484375 60.203125 64.015625 62 
Q 62.546875 63.8125 60.203125 64.296875 
Q 57.859375 64.796875 54.109375 64.796875 
L 48.1875 64.796875 
Q 45.515625 64.796875 44.578125 64.296875 
Q 43.65625 63.8125 43.015625 61.375 
L 29.296875 6.5 
Q 29.25 6.296875 29.21875 6.09375 
Q 29.203125 5.90625 29.109375 5.609375 
Q 29.109375 4.34375 30.609375 4 
Q 33.203125 3.515625 41.703125 3.515625 
Q 42.671875 3.515625 42.671875 2.203125 
Q 42.328125 0.78125 42.125 0.390625 
Q 41.9375 0 41.015625 0 
L 5.609375 0 
Q 4.59375 0 4.59375 1.3125 
z
" id="Cmmi10-84"/>
     </defs>
     <use transform="translate(0 0.597135)" xlink:href="#Cmmi10-120"/>
     <use transform="translate(63.383359 104.202344)scale(0.7)" xlink:href="#Cmex10-173"/>
     <use transform="translate(96.435117 38.861198)scale(0.7)" xlink:href="#Cmr10-49"/>
     <use transform="translate(131.435117 104.202344)scale(0.7)" xlink:href="#Cmex10-174"/>
     <use transform="translate(170.864219 0.597135)" xlink:href="#Cmmi10-59"/>
     <use transform="translate(216.108359 0.597135)" xlink:href="#STIXGeneral-Regular-8230"/>
     <use transform="translate(316.108344 0.597135)" xlink:href="#Cmmi10-59"/>
     <use transform="translate(361.352485 0.597135)" xlink:href="#Cmmi10-120"/>
     <use transform="translate(424.735844 104.202344)scale(0.7)" xlink:href="#Cmex10-173"/>
     <use transform="translate(457.787602 38.861198)scale(0.7)" xlink:href="#Cmmi10-84"/>
     <use transform="translate(498.666508 26.956823)scale(0.49)" xlink:href="#Cmmi10-120"/>
     <use transform="translate(531.099887 104.202344)scale(0.7)" xlink:href="#Cmex10-174"/>
    </g>
   </g>
   <g id="text_10">
    <g id="patch_11">
     <path d="M 31.15 167.729733 
L 88.95 167.729733 
Q 91.95 167.729733 91.95 164.729733 
L 91.95 143.853796 
Q 91.95 140.853796 88.95 140.853796 
L 31.15 140.853796 
Q 28.15 140.853796 28.15 143.853796 
L 28.15 164.729733 
Q 28.15 167.729733 31.15 167.729733 
z
" style="fill:#ffffff;stroke:#1f77b4;stroke-linejoin:miter;"/>
    </g>
    <!-- $\mathrm{Multi-Head}$ -->
    <g transform="translate(31.15 151.452233)scale(0.1 -0.1)">
     <use transform="translate(0 0.609375)" xlink:href="#Cmr10-77"/>
     <use transform="translate(91.601562 0.609375)" xlink:href="#Cmr10-117"/>
     <use transform="translate(147.119141 0.609375)" xlink:href="#Cmr10-108"/>
     <use transform="translate(174.804688 0.609375)" xlink:href="#Cmr10-116"/>
     <use transform="translate(213.623047 0.609375)" xlink:href="#Cmr10-105"/>
     <use transform="translate(257.96875 0.609375)" xlink:href="#Cmsy10-161"/>
     <use transform="translate(352.314453 0.609375)" xlink:href="#Cmr10-72"/>
     <use transform="translate(427.314453 0.609375)" xlink:href="#Cmr10-101"/>
     <use transform="translate(471.699219 0.609375)" xlink:href="#Cmr10-97"/>
     <use transform="translate(521.699219 0.609375)" xlink:href="#Cmr10-100"/>
    </g>
    <!-- $\mathrm{Attention}$ -->
    <g transform="translate(38.8 162.650046)scale(0.1 -0.1)">
     <use transform="translate(0 0.421875)" xlink:href="#Cmr10-65"/>
     <use transform="translate(75 0.421875)" xlink:href="#Cmr10-116"/>
     <use transform="translate(113.818359 0.421875)" xlink:href="#Cmr10-116"/>
     <use transform="translate(152.636719 0.421875)" xlink:href="#Cmr10-101"/>
     <use transform="translate(197.021484 0.421875)" xlink:href="#Cmr10-110"/>
     <use transform="translate(252.539062 0.421875)" xlink:href="#Cmr10-116"/>
     <use transform="translate(291.357422 0.421875)" xlink:href="#Cmr10-105"/>
     <use transform="translate(319.042969 0.421875)" xlink:href="#Cmr10-111"/>
     <use transform="translate(369.042969 0.421875)" xlink:href="#Cmr10-110"/>
    </g>
   </g>
   <g id="patch_12">
    <path d="M 60.05 170.847244 
Q 60.05 186.908568 60.05 204.087926 
" style="fill:none;stroke:#000000;stroke-linecap:round;"/>
    <path d="M 58.05 174.847244 
L 60.05 170.847244 
L 62.05 174.847244 
" style="fill:none;stroke:#000000;stroke-linecap:round;"/>
   </g>
   <g id="text_11">
    <!-- $Q, K, V$ -->
    <g transform="translate(62.4 190.22696)scale(0.1 -0.1)">
     <defs>
      <path d="M 30.421875 -2.203125 
Q 22.90625 -2.203125 17.09375 1.234375 
Q 11.28125 4.6875 8.125 10.8125 
Q 4.984375 16.9375 4.984375 24.421875 
Q 4.984375 35.296875 11.15625 46.09375 
Q 17.328125 56.890625 27.4375 63.703125 
Q 37.546875 70.515625 48.578125 70.515625 
Q 54.296875 70.515625 59.03125 68.453125 
Q 63.765625 66.40625 67.03125 62.765625 
Q 70.3125 59.125 72.09375 54.234375 
Q 73.875 49.359375 73.875 43.609375 
Q 73.875 36.96875 71.578125 30.25 
Q 69.28125 23.53125 65.171875 17.75 
Q 61.078125 11.96875 55.609375 7.5625 
Q 50.140625 3.171875 43.890625 0.59375 
Q 44.53125 -4 45.84375 -6.640625 
Q 47.171875 -9.28125 50.875 -9.28125 
Q 54.78125 -9.28125 58.21875 -6.4375 
Q 61.671875 -3.609375 62.59375 0.203125 
Q 62.796875 1.125 63.71875 1.125 
Q 64.796875 1.125 64.796875 -0.203125 
Q 64.0625 -3.421875 62.625 -6.71875 
Q 61.1875 -10.015625 59.15625 -12.859375 
Q 57.125 -15.71875 54.34375 -17.546875 
Q 51.5625 -19.390625 48.1875 -19.390625 
Q 39.796875 -19.390625 39.796875 -8.59375 
Q 39.796875 -7.953125 40.03125 -5.1875 
Q 40.28125 -2.4375 40.28125 -0.6875 
Q 35.453125 -2.203125 30.421875 -2.203125 
z
M 26.703125 4.6875 
Q 26.703125 0.6875 31.109375 0.6875 
Q 35.546875 0.6875 40.484375 2.875 
L 40.484375 3.8125 
Q 40.484375 7.859375 39.203125 10.125 
Q 37.9375 12.40625 34.28125 12.40625 
Q 32.46875 12.40625 30.6875 11.296875 
Q 28.90625 10.203125 27.796875 8.421875 
Q 26.703125 6.640625 26.703125 4.6875 
z
M 24.125 4.5 
Q 24.125 7.125 25.578125 9.5625 
Q 27.046875 12.015625 29.390625 13.5 
Q 31.734375 14.984375 34.421875 14.984375 
Q 38.765625 14.984375 40.734375 12.046875 
Q 42.71875 9.125 43.40625 4.390625 
Q 49.8125 8.203125 54.6875 15.28125 
Q 59.578125 22.359375 62.140625 30.828125 
Q 64.703125 39.3125 64.703125 46.921875 
Q 64.703125 52.4375 62.859375 57.125 
Q 61.03125 61.8125 57.25 64.6875 
Q 53.46875 67.578125 47.90625 67.578125 
Q 42.53125 67.578125 37.546875 64.9375 
Q 32.5625 62.3125 28.328125 57.90625 
Q 24.21875 53.65625 20.96875 47.375 
Q 17.71875 41.109375 15.953125 34.265625 
Q 14.203125 27.4375 14.203125 21.1875 
Q 14.203125 14.796875 16.6875 9.5625 
Q 19.1875 4.34375 24.515625 2 
Q 24.125 3.03125 24.125 4.5 
z
" id="Cmmi10-81"/>
      <path d="M 4.6875 0 
Q 3.71875 0 3.71875 1.3125 
Q 3.765625 1.5625 3.90625 2.171875 
Q 4.046875 2.78125 4.3125 3.140625 
Q 4.59375 3.515625 4.984375 3.515625 
Q 11.078125 3.515625 13.484375 4.203125 
Q 14.796875 4.640625 15.375 6.890625 
L 29.109375 61.8125 
Q 29.296875 62.796875 29.296875 63.1875 
Q 29.296875 64.265625 28.078125 64.40625 
Q 26.21875 64.796875 20.90625 64.796875 
Q 19.921875 64.796875 19.921875 66.109375 
Q 20.265625 67.390625 20.453125 67.84375 
Q 20.65625 68.3125 21.578125 68.3125 
L 48.484375 68.3125 
Q 49.515625 68.3125 49.515625 67 
Q 49.46875 66.75 49.3125 66.15625 
Q 49.171875 65.578125 48.921875 65.1875 
Q 48.6875 64.796875 48.1875 64.796875 
Q 42.09375 64.796875 39.703125 64.109375 
Q 38.375 63.625 37.796875 61.375 
L 29.6875 29 
L 68.890625 59.28125 
Q 69 59.46875 70.140625 60.609375 
Q 71.296875 61.765625 71.296875 62.890625 
Q 71.296875 64.796875 67.921875 64.796875 
Q 66.890625 64.796875 66.890625 66.109375 
Q 67.09375 66.890625 67.203125 67.328125 
Q 67.328125 67.78125 67.640625 68.046875 
Q 67.96875 68.3125 68.609375 68.3125 
L 87.984375 68.3125 
Q 88.53125 68.3125 88.765625 67.921875 
Q 89.015625 67.53125 89.015625 67 
Q 88.96875 66.75 88.796875 66.109375 
Q 88.625 65.484375 88.359375 65.140625 
Q 88.09375 64.796875 87.59375 64.796875 
Q 80.28125 64.796875 71.578125 58.015625 
Q 71.53125 57.953125 71.4375 57.921875 
Q 71.34375 57.90625 71.234375 57.875 
Q 71.140625 57.859375 71.09375 57.8125 
L 50.484375 41.796875 
L 65.484375 6.6875 
Q 66.84375 4.5 68.40625 4 
Q 69.96875 3.515625 73.1875 3.515625 
Q 74.21875 3.515625 74.21875 2.203125 
Q 73.921875 1.03125 73.625 0.515625 
Q 73.34375 0 72.515625 0 
L 49.3125 0 
Q 48.390625 0 48.390625 1.3125 
Q 48.53125 2.34375 48.71875 2.921875 
Q 48.921875 3.515625 49.703125 3.515625 
Q 52.25 3.515625 54.03125 4.03125 
Q 55.8125 4.546875 55.8125 6.390625 
Q 55.8125 7.078125 55.71875 7.421875 
L 43.3125 36.28125 
L 28.71875 25 
L 24.125 6.5 
Q 23.875 5.28125 23.875 5.078125 
Q 23.875 4.046875 25.09375 3.90625 
Q 27 3.515625 32.328125 3.515625 
Q 33.296875 3.515625 33.296875 2.203125 
Q 32.953125 0.78125 32.75 0.390625 
Q 32.5625 0 31.59375 0 
z
" id="Cmmi10-75"/>
      <path d="M 22.015625 -1.125 
L 14.015625 62.59375 
Q 13.28125 64.796875 6.5 64.796875 
Q 5.515625 64.796875 5.515625 66.109375 
Q 5.71875 67.1875 6 67.75 
Q 6.296875 68.3125 7.171875 68.3125 
L 31.59375 68.3125 
Q 32.125 68.3125 32.375 67.921875 
Q 32.625 67.53125 32.625 67 
Q 32.234375 64.796875 31.296875 64.796875 
Q 23.484375 64.796875 23 62.109375 
L 29.59375 9.8125 
L 60.40625 58.984375 
Q 61.28125 60.640625 61.28125 61.625 
Q 61.28125 63.375 59.6875 64.078125 
Q 58.109375 64.796875 56 64.796875 
Q 54.984375 64.796875 54.984375 66.109375 
Q 55.171875 66.890625 55.3125 67.328125 
Q 55.46875 67.78125 55.765625 68.046875 
Q 56.0625 68.3125 56.6875 68.3125 
L 75.984375 68.3125 
Q 76.90625 68.3125 76.90625 67 
Q 76.515625 64.796875 75.59375 64.796875 
Q 68.0625 64.796875 63.8125 58.203125 
Q 63.625 58.015625 63.484375 58.015625 
L 26.609375 -1.125 
Q 25.875 -2.203125 24.703125 -2.203125 
L 23.296875 -2.203125 
Q 22.171875 -2.203125 22.015625 -1.125 
z
" id="Cmmi10-86"/>
     </defs>
     <use transform="translate(0 0.484375)" xlink:href="#Cmmi10-81"/>
     <use transform="translate(79.003906 0.484375)" xlink:href="#Cmmi10-59"/>
     <use transform="translate(124.248047 0.484375)" xlink:href="#Cmmi10-75"/>
     <use transform="translate(209.160156 0.484375)" xlink:href="#Cmmi10-59"/>
     <use transform="translate(254.404297 0.484375)" xlink:href="#Cmmi10-86"/>
    </g>
   </g>
   <g id="text_12">
    <g id="patch_13">
     <path d="M 25.45 103.776792 
L 94.65 103.776792 
Q 97.65 103.776792 97.65 100.776792 
L 97.65 79.900855 
Q 97.65 76.900855 94.65 76.900855 
L 25.45 76.900855 
Q 22.45 76.900855 22.45 79.900855 
L 22.45 100.776792 
Q 22.45 103.776792 25.45 103.776792 
z
" style="fill:#ffffff;stroke:#000000;stroke-linejoin:miter;"/>
    </g>
    <!-- $\mathrm{Feed \ Forward}$ -->
    <g transform="translate(29.6 87.499292)scale(0.1 -0.1)">
     <defs>
      <path d="M 3.078125 0 
L 3.078125 3.515625 
Q 13.375 3.515625 13.375 6.6875 
L 13.375 61.625 
Q 13.375 64.796875 3.078125 64.796875 
L 3.078125 68.3125 
L 58.203125 68.3125 
L 60.984375 45.40625 
L 58.109375 45.40625 
Q 57.421875 51.703125 56.265625 55.34375 
Q 55.125 58.984375 52.921875 61.0625 
Q 50.734375 63.140625 47.046875 63.96875 
Q 43.359375 64.796875 36.921875 64.796875 
L 27.78125 64.796875 
Q 25.984375 64.796875 24.96875 64.640625 
Q 23.96875 64.5 23.328125 63.796875 
Q 22.703125 63.09375 22.703125 61.625 
L 22.703125 35.890625 
L 29.78125 35.890625 
Q 34.90625 35.890625 37.296875 36.796875 
Q 39.703125 37.703125 40.59375 40.09375 
Q 41.5 42.484375 41.5 47.609375 
L 44.390625 47.609375 
L 44.390625 20.703125 
L 41.5 20.703125 
Q 41.5 25.828125 40.59375 28.21875 
Q 39.703125 30.609375 37.296875 31.515625 
Q 34.90625 32.421875 29.78125 32.421875 
L 22.703125 32.421875 
L 22.703125 6.6875 
Q 22.703125 3.515625 35.5 3.515625 
L 35.5 0 
z
" id="Cmr10-70"/>
      <path d="M 2.59375 0 
L 2.59375 3.515625 
Q 6 3.515625 8.203125 4.046875 
Q 10.40625 4.59375 10.40625 6.6875 
L 10.40625 33.984375 
Q 10.40625 36.671875 9.59375 37.859375 
Q 8.796875 39.0625 7.28125 39.328125 
Q 5.765625 39.59375 2.59375 39.59375 
L 2.59375 43.109375 
L 16.890625 44.1875 
L 16.890625 34.421875 
Q 18.5 38.765625 21.484375 41.46875 
Q 24.46875 44.1875 28.71875 44.1875 
Q 31.6875 44.1875 34.03125 42.421875 
Q 36.375 40.671875 36.375 37.796875 
Q 36.375 35.984375 35.078125 34.640625 
Q 33.796875 33.296875 31.890625 33.296875 
Q 30.03125 33.296875 28.703125 34.609375 
Q 27.390625 35.9375 27.390625 37.796875 
Q 27.390625 40.484375 29.296875 41.609375 
L 28.71875 41.609375 
Q 24.65625 41.609375 22.09375 38.671875 
Q 19.53125 35.75 18.453125 31.390625 
Q 17.390625 27.046875 17.390625 23.09375 
L 17.390625 6.6875 
Q 17.390625 3.515625 27.09375 3.515625 
L 27.09375 0 
z
" id="Cmr10-114"/>
      <path d="M 22.125 0 
L 9.1875 36.375 
Q 8.296875 38.578125 6.640625 39.078125 
Q 4.984375 39.59375 1.8125 39.59375 
L 1.8125 43.109375 
L 22.40625 43.109375 
L 22.40625 39.59375 
Q 16.5 39.59375 16.5 37.109375 
Q 16.546875 36.96875 16.578125 36.8125 
Q 16.609375 36.671875 16.609375 36.375 
L 26.21875 9.421875 
L 34.515625 32.90625 
L 33.203125 36.375 
Q 32.421875 38.578125 30.703125 39.078125 
Q 29 39.59375 25.875 39.59375 
L 25.875 43.109375 
L 45.609375 43.109375 
L 45.609375 39.59375 
Q 39.703125 39.59375 39.703125 37.109375 
Q 39.703125 36.71875 39.796875 36.375 
L 49.8125 8.203125 
L 58.890625 33.6875 
Q 59.078125 34.46875 59.078125 35.109375 
Q 59.078125 37.203125 57.296875 38.390625 
Q 55.515625 39.59375 53.328125 39.59375 
L 53.328125 43.109375 
L 70.3125 43.109375 
L 70.3125 39.59375 
Q 67.28125 39.59375 65.109375 38 
Q 62.9375 36.421875 61.921875 33.6875 
L 50 0 
Q 49.65625 -1.125 48.484375 -1.125 
L 47.703125 -1.125 
Q 46.53125 -1.125 46.1875 0 
L 36.078125 28.515625 
L 25.984375 0 
Q 25.484375 -1.125 24.421875 -1.125 
L 23.6875 -1.125 
Q 22.46875 -1.125 22.125 0 
z
" id="Cmr10-119"/>
     </defs>
     <use transform="translate(0 0.609375)" xlink:href="#Cmr10-70"/>
     <use transform="translate(65.185547 0.609375)" xlink:href="#Cmr10-101"/>
     <use transform="translate(109.570312 0.609375)" xlink:href="#Cmr10-101"/>
     <use transform="translate(153.955078 0.609375)" xlink:href="#Cmr10-100"/>
     <use transform="translate(237.239306 0.609375)" xlink:href="#Cmr10-70"/>
     <use transform="translate(302.424853 0.609375)" xlink:href="#Cmr10-111"/>
     <use transform="translate(352.424853 0.609375)" xlink:href="#Cmr10-114"/>
     <use transform="translate(391.536181 0.609375)" xlink:href="#Cmr10-119"/>
     <use transform="translate(463.752978 0.609375)" xlink:href="#Cmr10-97"/>
     <use transform="translate(513.752978 0.609375)" xlink:href="#Cmr10-114"/>
     <use transform="translate(552.864306 0.609375)" xlink:href="#Cmr10-100"/>
    </g>
    <!-- $\mathrm{Neural\ Network}$ -->
    <g transform="translate(25.45 98.697105)scale(0.1 -0.1)">
     <defs>
      <path d="M 3.078125 0 
L 3.078125 3.515625 
Q 13.375 3.515625 13.375 9.421875 
L 13.375 64.203125 
Q 10.109375 64.796875 3.078125 64.796875 
L 3.078125 68.3125 
L 22.21875 68.3125 
Q 22.703125 68.3125 22.90625 67.921875 
L 58.296875 15.828125 
L 58.296875 58.890625 
Q 58.296875 64.796875 48 64.796875 
L 48 68.3125 
L 71.78125 68.3125 
L 71.78125 64.796875 
Q 61.53125 64.796875 61.53125 58.890625 
L 61.53125 0.875 
Q 61.53125 0.59375 61.140625 0.296875 
Q 60.75 0 60.5 0 
L 59.28125 0 
Q 58.796875 0 58.59375 0.390625 
L 16.609375 62.203125 
L 16.609375 9.421875 
Q 16.609375 3.515625 26.90625 3.515625 
L 26.90625 0 
z
" id="Cmr10-78"/>
      <path d="M 2.59375 0 
L 2.59375 3.515625 
Q 6 3.515625 8.203125 4.046875 
Q 10.40625 4.59375 10.40625 6.6875 
L 10.40625 59.1875 
Q 10.40625 61.859375 9.59375 63.0625 
Q 8.796875 64.265625 7.28125 64.53125 
Q 5.765625 64.796875 2.59375 64.796875 
L 2.59375 68.3125 
L 17.390625 69.390625 
L 17.390625 21.921875 
L 30.8125 33.6875 
Q 32.8125 35.59375 32.8125 37.203125 
Q 32.8125 38.375 31.984375 38.984375 
Q 31.15625 39.59375 29.984375 39.59375 
L 29.984375 43.109375 
L 48.78125 43.109375 
L 48.78125 39.59375 
Q 42 39.59375 35.203125 33.6875 
L 28.078125 27.484375 
L 40.828125 9.421875 
Q 43.453125 5.671875 45.234375 4.59375 
Q 47.015625 3.515625 51.125 3.515625 
L 51.125 0 
L 31.203125 0 
L 31.203125 3.515625 
Q 34.625 3.515625 34.625 5.609375 
Q 34.625 7.125 32.8125 9.421875 
L 23.1875 23.09375 
L 17.09375 17.828125 
L 17.09375 6.6875 
Q 17.09375 4.59375 19.3125 4.046875 
Q 21.53125 3.515625 24.90625 3.515625 
L 24.90625 0 
z
" id="Cmr10-107"/>
     </defs>
     <use transform="translate(0 0.609375)" xlink:href="#Cmr10-78"/>
     <use transform="translate(75 0.609375)" xlink:href="#Cmr10-101"/>
     <use transform="translate(119.384766 0.609375)" xlink:href="#Cmr10-117"/>
     <use transform="translate(174.902344 0.609375)" xlink:href="#Cmr10-114"/>
     <use transform="translate(214.013672 0.609375)" xlink:href="#Cmr10-97"/>
     <use transform="translate(264.013672 0.609375)" xlink:href="#Cmr10-108"/>
     <use transform="translate(319.465868 0.609375)" xlink:href="#Cmr10-78"/>
     <use transform="translate(394.465868 0.609375)" xlink:href="#Cmr10-101"/>
     <use transform="translate(438.850634 0.609375)" xlink:href="#Cmr10-116"/>
     <use transform="translate(477.668993 0.609375)" xlink:href="#Cmr10-119"/>
     <use transform="translate(549.88579 0.609375)" xlink:href="#Cmr10-111"/>
     <use transform="translate(599.88579 0.609375)" xlink:href="#Cmr10-114"/>
     <use transform="translate(638.997118 0.609375)" xlink:href="#Cmr10-107"/>
    </g>
   </g>
   <g id="patch_14">
    <path d="M 60.05 106.890793 
Q 60.05 122.313348 60.05 138.853937 
" style="fill:none;stroke:#000000;stroke-linecap:round;"/>
    <path d="M 58.05 110.890793 
L 60.05 106.890793 
L 62.05 110.890793 
" style="fill:none;stroke:#000000;stroke-linecap:round;"/>
   </g>
   <g id="patch_15">
    <path d="M 60.05 26.385882 
Q 60.05 50.642874 60.05 74.899865 
" style="fill:none;stroke:#000000;stroke-linecap:round;"/>
   </g>
   <g id="patch_16">
    <path d="M 219.478571 26.385882 
Q 139.764286 26.385882 60.05 26.385882 
" style="fill:none;stroke:#000000;stroke-linecap:round;"/>
   </g>
   <g id="text_13">
    <g id="patch_17">
     <path d="M 270.292857 135.753263 
L 328.092857 135.753263 
Q 331.092857 135.753263 331.092857 132.753263 
L 331.092857 111.877325 
Q 331.092857 108.877325 328.092857 108.877325 
L 270.292857 108.877325 
Q 267.292857 108.877325 267.292857 111.877325 
L 267.292857 132.753263 
Q 267.292857 135.753263 270.292857 135.753263 
z
" style="fill:#ffffff;stroke:#1f77b4;stroke-linejoin:miter;"/>
    </g>
    <!-- $\mathrm{Multi-Head}$ -->
    <g transform="translate(270.292857 119.475763)scale(0.1 -0.1)">
     <use transform="translate(0 0.609375)" xlink:href="#Cmr10-77"/>
     <use transform="translate(91.601562 0.609375)" xlink:href="#Cmr10-117"/>
     <use transform="translate(147.119141 0.609375)" xlink:href="#Cmr10-108"/>
     <use transform="translate(174.804688 0.609375)" xlink:href="#Cmr10-116"/>
     <use transform="translate(213.623047 0.609375)" xlink:href="#Cmr10-105"/>
     <use transform="translate(257.96875 0.609375)" xlink:href="#Cmsy10-161"/>
     <use transform="translate(352.314453 0.609375)" xlink:href="#Cmr10-72"/>
     <use transform="translate(427.314453 0.609375)" xlink:href="#Cmr10-101"/>
     <use transform="translate(471.699219 0.609375)" xlink:href="#Cmr10-97"/>
     <use transform="translate(521.699219 0.609375)" xlink:href="#Cmr10-100"/>
    </g>
    <!-- $\mathrm{Attention}$ -->
    <g transform="translate(277.942857 130.673575)scale(0.1 -0.1)">
     <use transform="translate(0 0.421875)" xlink:href="#Cmr10-65"/>
     <use transform="translate(75 0.421875)" xlink:href="#Cmr10-116"/>
     <use transform="translate(113.818359 0.421875)" xlink:href="#Cmr10-116"/>
     <use transform="translate(152.636719 0.421875)" xlink:href="#Cmr10-101"/>
     <use transform="translate(197.021484 0.421875)" xlink:href="#Cmr10-110"/>
     <use transform="translate(252.539062 0.421875)" xlink:href="#Cmr10-116"/>
     <use transform="translate(291.357422 0.421875)" xlink:href="#Cmr10-105"/>
     <use transform="translate(319.042969 0.421875)" xlink:href="#Cmr10-111"/>
     <use transform="translate(369.042969 0.421875)" xlink:href="#Cmr10-110"/>
    </g>
   </g>
   <g id="patch_18">
    <path d="M 288.602057 138.870754 
L 288.602057 161.629337 
L 219.478571 161.629337 
L 219.478571 26.385882 
" style="fill:none;stroke:#000000;stroke-linecap:round;"/>
    <path d="M 286.602057 142.870754 
L 288.602057 138.870754 
L 290.602057 142.870754 
" style="fill:none;stroke:#000000;stroke-linecap:round;"/>
   </g>
   <g id="text_14">
    <!-- $K, V$ -->
    <g transform="translate(263.371186 157.626539)scale(0.1 -0.1)">
     <use transform="translate(0 0.6875)" xlink:href="#Cmmi10-75"/>
     <use transform="translate(84.912109 0.6875)" xlink:href="#Cmmi10-59"/>
     <use transform="translate(130.15625 0.6875)" xlink:href="#Cmmi10-86"/>
    </g>
   </g>
   <g id="text_15">
    <g id="patch_19">
     <path d="M 270.292857 199.706204 
L 328.092857 199.706204 
Q 331.092857 199.706204 331.092857 196.706204 
L 331.092857 175.830267 
Q 331.092857 172.830267 328.092857 172.830267 
L 270.292857 172.830267 
Q 267.292857 172.830267 267.292857 175.830267 
L 267.292857 196.706204 
Q 267.292857 199.706204 270.292857 199.706204 
z
" style="fill:#ffffff;stroke:#1f77b4;stroke-linejoin:miter;"/>
    </g>
    <!-- $\mathrm{Multi-Head}$ -->
    <g transform="translate(270.292857 183.428704)scale(0.1 -0.1)">
     <use transform="translate(0 0.609375)" xlink:href="#Cmr10-77"/>
     <use transform="translate(91.601562 0.609375)" xlink:href="#Cmr10-117"/>
     <use transform="translate(147.119141 0.609375)" xlink:href="#Cmr10-108"/>
     <use transform="translate(174.804688 0.609375)" xlink:href="#Cmr10-116"/>
     <use transform="translate(213.623047 0.609375)" xlink:href="#Cmr10-105"/>
     <use transform="translate(257.96875 0.609375)" xlink:href="#Cmsy10-161"/>
     <use transform="translate(352.314453 0.609375)" xlink:href="#Cmr10-72"/>
     <use transform="translate(427.314453 0.609375)" xlink:href="#Cmr10-101"/>
     <use transform="translate(471.699219 0.609375)" xlink:href="#Cmr10-97"/>
     <use transform="translate(521.699219 0.609375)" xlink:href="#Cmr10-100"/>
    </g>
    <!-- $\mathrm{Attention}$ -->
    <g transform="translate(277.942857 194.626517)scale(0.1 -0.1)">
     <use transform="translate(0 0.421875)" xlink:href="#Cmr10-65"/>
     <use transform="translate(75 0.421875)" xlink:href="#Cmr10-116"/>
     <use transform="translate(113.818359 0.421875)" xlink:href="#Cmr10-116"/>
     <use transform="translate(152.636719 0.421875)" xlink:href="#Cmr10-101"/>
     <use transform="translate(197.021484 0.421875)" xlink:href="#Cmr10-110"/>
     <use transform="translate(252.539062 0.421875)" xlink:href="#Cmr10-116"/>
     <use transform="translate(291.357422 0.421875)" xlink:href="#Cmr10-105"/>
     <use transform="translate(319.042969 0.421875)" xlink:href="#Cmr10-111"/>
     <use transform="translate(369.042969 0.421875)" xlink:href="#Cmr10-110"/>
    </g>
   </g>
   <g id="patch_20">
    <path d="M 299.192857 170.8343 
Q 299.192857 154.293711 299.192857 138.871156 
" style="fill:none;stroke:#000000;stroke-linecap:round;"/>
    <path d="M 297.192857 142.871156 
L 299.192857 138.871156 
L 301.192857 142.871156 
" style="fill:none;stroke:#000000;stroke-linecap:round;"/>
   </g>
   <g id="text_16">
    <!-- $Q$ -->
    <g transform="translate(301.192857 157.612103)scale(0.1 -0.1)">
     <use transform="translate(0 0.484375)" xlink:href="#Cmmi10-81"/>
    </g>
   </g>
   <g id="text_17">
    <g id="patch_21">
     <path d="M 264.592857 71.800322 
L 333.792857 71.800322 
Q 336.792857 71.800322 336.792857 68.800322 
L 336.792857 47.924384 
Q 336.792857 44.924384 333.792857 44.924384 
L 264.592857 44.924384 
Q 261.592857 44.924384 261.592857 47.924384 
L 261.592857 68.800322 
Q 261.592857 71.800322 264.592857 71.800322 
z
" style="fill:#ffffff;stroke:#000000;stroke-linejoin:miter;"/>
    </g>
    <!-- $\mathrm{Feed \ Forward}$ -->
    <g transform="translate(268.742857 55.522822)scale(0.1 -0.1)">
     <use transform="translate(0 0.609375)" xlink:href="#Cmr10-70"/>
     <use transform="translate(65.185547 0.609375)" xlink:href="#Cmr10-101"/>
     <use transform="translate(109.570312 0.609375)" xlink:href="#Cmr10-101"/>
     <use transform="translate(153.955078 0.609375)" xlink:href="#Cmr10-100"/>
     <use transform="translate(237.239306 0.609375)" xlink:href="#Cmr10-70"/>
     <use transform="translate(302.424853 0.609375)" xlink:href="#Cmr10-111"/>
     <use transform="translate(352.424853 0.609375)" xlink:href="#Cmr10-114"/>
     <use transform="translate(391.536181 0.609375)" xlink:href="#Cmr10-119"/>
     <use transform="translate(463.752978 0.609375)" xlink:href="#Cmr10-97"/>
     <use transform="translate(513.752978 0.609375)" xlink:href="#Cmr10-114"/>
     <use transform="translate(552.864306 0.609375)" xlink:href="#Cmr10-100"/>
    </g>
    <!-- $\mathrm{Neural\ Network}$ -->
    <g transform="translate(264.592857 66.720634)scale(0.1 -0.1)">
     <use transform="translate(0 0.609375)" xlink:href="#Cmr10-78"/>
     <use transform="translate(75 0.609375)" xlink:href="#Cmr10-101"/>
     <use transform="translate(119.384766 0.609375)" xlink:href="#Cmr10-117"/>
     <use transform="translate(174.902344 0.609375)" xlink:href="#Cmr10-114"/>
     <use transform="translate(214.013672 0.609375)" xlink:href="#Cmr10-97"/>
     <use transform="translate(264.013672 0.609375)" xlink:href="#Cmr10-108"/>
     <use transform="translate(319.465868 0.609375)" xlink:href="#Cmr10-78"/>
     <use transform="translate(394.465868 0.609375)" xlink:href="#Cmr10-101"/>
     <use transform="translate(438.850634 0.609375)" xlink:href="#Cmr10-116"/>
     <use transform="translate(477.668993 0.609375)" xlink:href="#Cmr10-119"/>
     <use transform="translate(549.88579 0.609375)" xlink:href="#Cmr10-111"/>
     <use transform="translate(599.88579 0.609375)" xlink:href="#Cmr10-114"/>
     <use transform="translate(638.997118 0.609375)" xlink:href="#Cmr10-107"/>
    </g>
   </g>
   <g id="patch_22">
    <path d="M 299.192857 74.914322 
Q 299.192857 90.336877 299.192857 106.877466 
" style="fill:none;stroke:#000000;stroke-linecap:round;"/>
    <path d="M 297.192857 78.914322 
L 299.192857 74.914322 
L 301.192857 78.914322 
" style="fill:none;stroke:#000000;stroke-linecap:round;"/>
   </g>
   <g id="text_18">
    <g id="patch_23">
     <path d="M 294.092857 21.434357 
L 304.292857 21.434357 
Q 307.292857 21.434357 307.292857 18.434357 
L 307.292857 8.756232 
Q 307.292857 5.756232 304.292857 5.756232 
L 294.092857 5.756232 
Q 291.092857 5.756232 291.092857 8.756232 
L 291.092857 18.434357 
Q 291.092857 21.434357 294.092857 21.434357 
z
" style="fill:#ffffff;"/>
    </g>
    <!-- $\hat{y}_n$ -->
    <g transform="translate(294.092857 16.334357)scale(0.1 -0.1)">
     <defs>
      <path d="M 13.484375 53.8125 
L 11.53125 55.90625 
L 25 69.390625 
L 38.375 55.90625 
L 36.375 53.8125 
L 25 63.8125 
z
" id="Cmr10-94"/>
      <path d="M 8.40625 -14.3125 
Q 10.5 -17.921875 15.71875 -17.921875 
Q 20.453125 -17.921875 23.921875 -14.59375 
Q 27.390625 -11.28125 29.515625 -6.5625 
Q 31.640625 -1.859375 32.8125 3.078125 
Q 28.375 -1.125 23.1875 -1.125 
Q 19.234375 -1.125 16.453125 0.234375 
Q 13.671875 1.609375 12.125 4.3125 
Q 10.59375 7.03125 10.59375 10.890625 
Q 10.59375 14.15625 11.46875 17.59375 
Q 12.359375 21.046875 13.9375 25.265625 
Q 15.53125 29.5 16.703125 32.625 
Q 18.015625 36.28125 18.015625 38.625 
Q 18.015625 41.609375 15.828125 41.609375 
Q 11.859375 41.609375 9.296875 37.53125 
Q 6.734375 33.453125 5.515625 28.421875 
Q 5.328125 27.78125 4.6875 27.78125 
L 3.515625 27.78125 
Q 2.6875 27.78125 2.6875 28.71875 
L 2.6875 29 
Q 4.296875 34.96875 7.609375 39.578125 
Q 10.9375 44.1875 16.015625 44.1875 
Q 19.578125 44.1875 22.046875 41.84375 
Q 24.515625 39.5 24.515625 35.890625 
Q 24.515625 34.03125 23.6875 31.984375 
Q 23.25 30.765625 21.6875 26.65625 
Q 20.125 22.5625 19.28125 19.875 
Q 18.453125 17.1875 17.921875 14.59375 
Q 17.390625 12.015625 17.390625 9.421875 
Q 17.390625 6.109375 18.796875 3.8125 
Q 20.21875 1.515625 23.296875 1.515625 
Q 29.5 1.515625 34.421875 9.078125 
L 42 39.890625 
Q 42.328125 41.21875 43.546875 42.15625 
Q 44.78125 43.109375 46.1875 43.109375 
Q 47.40625 43.109375 48.3125 42.328125 
Q 49.21875 41.546875 49.21875 40.28125 
Q 49.21875 39.703125 49.125 39.5 
L 39.203125 -0.296875 
Q 37.890625 -5.421875 34.375 -10.109375 
Q 30.859375 -14.796875 25.90625 -17.65625 
Q 20.953125 -20.515625 15.578125 -20.515625 
Q 12.984375 -20.515625 10.4375 -19.5 
Q 7.90625 -18.5 6.34375 -16.5 
Q 4.78125 -14.5 4.78125 -11.8125 
Q 4.78125 -9.078125 6.390625 -7.078125 
Q 8.015625 -5.078125 10.6875 -5.078125 
Q 12.3125 -5.078125 13.40625 -6.078125 
Q 14.5 -7.078125 14.5 -8.6875 
Q 14.5 -10.984375 12.78125 -12.6875 
Q 11.078125 -14.40625 8.796875 -14.40625 
Q 8.6875 -14.359375 8.59375 -14.328125 
Q 8.5 -14.3125 8.40625 -14.3125 
z
" id="Cmmi10-121"/>
      <path d="M 7.71875 1.703125 
Q 7.71875 2.296875 7.8125 2.59375 
L 15.28125 32.421875 
Q 16.015625 35.203125 16.015625 37.3125 
Q 16.015625 41.609375 13.09375 41.609375 
Q 9.96875 41.609375 8.453125 37.859375 
Q 6.9375 34.125 5.515625 28.421875 
Q 5.515625 28.125 5.21875 27.953125 
Q 4.9375 27.78125 4.6875 27.78125 
L 3.515625 27.78125 
Q 3.171875 27.78125 2.921875 28.140625 
Q 2.6875 28.515625 2.6875 28.8125 
Q 3.765625 33.15625 4.765625 36.171875 
Q 5.765625 39.203125 7.890625 41.6875 
Q 10.015625 44.1875 13.1875 44.1875 
Q 16.9375 44.1875 19.8125 41.8125 
Q 22.703125 39.453125 22.703125 35.796875 
Q 25.6875 39.703125 29.6875 41.9375 
Q 33.6875 44.1875 38.1875 44.1875 
Q 41.75 44.1875 44.328125 42.96875 
Q 46.921875 41.75 48.359375 39.28125 
Q 49.8125 36.8125 49.8125 33.40625 
Q 49.8125 29.296875 47.96875 23.484375 
Q 46.140625 17.671875 43.40625 10.5 
Q 42 7.234375 42 4.5 
Q 42 1.515625 44.28125 1.515625 
Q 48.1875 1.515625 50.796875 5.703125 
Q 53.421875 9.90625 54.5 14.703125 
Q 54.6875 15.28125 55.328125 15.28125 
L 56.5 15.28125 
Q 56.890625 15.28125 57.15625 15.03125 
Q 57.421875 14.796875 57.421875 14.40625 
Q 57.421875 14.3125 57.328125 14.109375 
Q 55.953125 8.453125 52.5625 3.65625 
Q 49.171875 -1.125 44.09375 -1.125 
Q 40.578125 -1.125 38.078125 1.296875 
Q 35.59375 3.71875 35.59375 7.171875 
Q 35.59375 9.03125 36.375 11.078125 
Q 37.640625 14.359375 39.28125 18.890625 
Q 40.921875 23.4375 41.96875 27.578125 
Q 43.015625 31.734375 43.015625 34.90625 
Q 43.015625 37.703125 41.859375 39.65625 
Q 40.71875 41.609375 37.984375 41.609375 
Q 34.328125 41.609375 31.25 39.984375 
Q 28.171875 38.375 25.875 35.71875 
Q 23.578125 33.0625 21.6875 29.390625 
L 14.890625 2.203125 
Q 14.546875 0.828125 13.34375 -0.140625 
Q 12.15625 -1.125 10.6875 -1.125 
Q 9.46875 -1.125 8.59375 -0.34375 
Q 7.71875 0.4375 7.71875 1.703125 
z
" id="Cmmi10-110"/>
     </defs>
     <use transform="translate(5.724609 3.609375)" xlink:href="#Cmr10-94"/>
     <use transform="translate(0 0.734375)" xlink:href="#Cmmi10-121"/>
     <use transform="translate(53.487578 -16.271875)scale(0.7)" xlink:href="#Cmmi10-110"/>
    </g>
   </g>
   <g id="patch_24">
    <path d="M 299.192857 24.550993 
Q 299.192857 33.17782 299.192857 42.92268 
" style="fill:none;stroke:#000000;stroke-linecap:round;"/>
    <path d="M 297.192857 28.550993 
L 299.192857 24.550993 
L 301.192857 28.550993 
" style="fill:none;stroke:#000000;stroke-linecap:round;"/>
   </g>
   <g id="patch_25">
    <path d="M 378.907143 13.595294 
Q 344.098771 13.595294 309.290399 13.595294 
" style="fill:none;stroke:#000000;stroke-linecap:round;"/>
   </g>
   <g id="patch_26">
    <path d="M 299.192857 200.824238 
L 299.192857 219.952596 
L 378.907143 219.952596 
L 378.907143 13.595294 
" style="fill:none;stroke:#000000;stroke-linecap:round;"/>
    <path d="M 297.192857 204.824238 
L 299.192857 200.824238 
L 301.192857 204.824238 
" style="fill:none;stroke:#000000;stroke-linecap:round;"/>
   </g>
   <g id="text_19">
    <!-- $\mathrm{Encoder}$ -->
    <g transform="translate(7.2 49.140741)scale(0.1 -0.1)">
     <defs>
      <path d="M 3.078125 0 
L 3.078125 3.515625 
Q 13.375 3.515625 13.375 6.6875 
L 13.375 61.625 
Q 13.375 64.796875 3.078125 64.796875 
L 3.078125 68.3125 
L 59.625 68.3125 
L 62.40625 45.40625 
L 59.515625 45.40625 
Q 58.453125 54.046875 56.515625 57.953125 
Q 54.59375 61.859375 50.34375 63.328125 
Q 46.09375 64.796875 37.59375 64.796875 
L 27.78125 64.796875 
Q 25.984375 64.796875 24.96875 64.640625 
Q 23.96875 64.5 23.328125 63.796875 
Q 22.703125 63.09375 22.703125 61.625 
L 22.703125 37.203125 
L 30.078125 37.203125 
Q 35.15625 37.203125 37.671875 38.0625 
Q 40.1875 38.921875 41.140625 41.328125 
Q 42.09375 43.75 42.09375 48.875 
L 45.015625 48.875 
L 45.015625 22.015625 
L 42.09375 22.015625 
Q 42.09375 27.09375 41.140625 29.53125 
Q 40.1875 31.984375 37.671875 32.828125 
Q 35.15625 33.6875 30.078125 33.6875 
L 22.703125 33.6875 
L 22.703125 6.6875 
Q 22.703125 4.546875 23.921875 4.03125 
Q 25.140625 3.515625 27.78125 3.515625 
L 38.375 3.515625 
Q 45.3125 3.515625 49.578125 4.609375 
Q 53.859375 5.71875 56.21875 8.28125 
Q 58.59375 10.84375 59.890625 14.921875 
Q 61.1875 19 62.3125 26.21875 
L 65.1875 26.21875 
L 60.984375 0 
z
" id="Cmr10-69"/>
      <path d="M 24.90625 -1.125 
Q 18.84375 -1.125 13.90625 2.015625 
Q 8.984375 5.171875 6.15625 10.421875 
Q 3.328125 15.671875 3.328125 21.578125 
Q 3.328125 27.484375 6.125 32.90625 
Q 8.9375 38.328125 13.890625 41.578125 
Q 18.84375 44.828125 24.90625 44.828125 
Q 30.765625 44.828125 35.5625 42.53125 
Q 40.375 40.234375 40.375 35.015625 
Q 40.375 33.0625 38.984375 31.609375 
Q 37.59375 30.171875 35.59375 30.171875 
Q 33.59375 30.171875 32.203125 31.609375 
Q 30.8125 33.0625 30.8125 35.015625 
Q 30.8125 36.765625 31.9375 38.0625 
Q 33.0625 39.359375 34.71875 39.703125 
Q 31.25 41.890625 25 41.890625 
Q 20.21875 41.890625 17.28125 38.71875 
Q 14.359375 35.546875 13.1875 30.859375 
Q 12.015625 26.171875 12.015625 21.578125 
Q 12.015625 16.75 13.453125 12.234375 
Q 14.890625 7.71875 18.09375 4.765625 
Q 21.296875 1.8125 26.125 1.8125 
Q 30.859375 1.8125 34.171875 4.71875 
Q 37.5 7.625 38.71875 12.3125 
Q 38.71875 12.890625 39.5 12.890625 
L 40.71875 12.890625 
Q 41.015625 12.890625 41.25 12.625 
Q 41.5 12.359375 41.5 12.015625 
L 41.5 11.71875 
Q 39.984375 5.8125 35.484375 2.34375 
Q 31 -1.125 24.90625 -1.125 
z
" id="Cmr10-99"/>
     </defs>
     <use transform="translate(0 0.609375)" xlink:href="#Cmr10-69"/>
     <use transform="translate(68.017578 0.609375)" xlink:href="#Cmr10-110"/>
     <use transform="translate(123.535156 0.609375)" xlink:href="#Cmr10-99"/>
     <use transform="translate(167.919922 0.609375)" xlink:href="#Cmr10-111"/>
     <use transform="translate(217.919922 0.609375)" xlink:href="#Cmr10-100"/>
     <use transform="translate(273.4375 0.609375)" xlink:href="#Cmr10-101"/>
     <use transform="translate(317.822266 0.609375)" xlink:href="#Cmr10-114"/>
    </g>
   </g>
   <g id="text_20">
    <!-- $\mathrm{Decoder}$ -->
    <g transform="translate(244.21817 31.336219)scale(0.1 -0.1)">
     <defs>
      <path d="M 3.328125 0 
L 3.328125 3.515625 
Q 13.625 3.515625 13.625 6.6875 
L 13.625 61.625 
Q 13.625 64.796875 3.328125 64.796875 
L 3.328125 68.3125 
L 40.1875 68.3125 
Q 47.015625 68.3125 52.671875 65.359375 
Q 58.34375 62.40625 62.34375 57.46875 
Q 66.359375 52.546875 68.53125 46.296875 
Q 70.703125 40.046875 70.703125 33.5 
Q 70.703125 27.15625 68.5 21.171875 
Q 66.3125 15.1875 62.1875 10.375 
Q 58.0625 5.5625 52.421875 2.78125 
Q 46.78125 0 40.1875 0 
z
M 22.609375 6.6875 
Q 22.609375 4.546875 23.828125 4.03125 
Q 25.046875 3.515625 27.6875 3.515625 
L 37.59375 3.515625 
Q 42.71875 3.515625 47.328125 5.734375 
Q 51.953125 7.953125 54.984375 11.921875 
Q 58.15625 16.109375 59.21875 21.3125 
Q 60.296875 26.515625 60.296875 33.5 
Q 60.296875 40.765625 59.21875 46.234375 
Q 58.15625 51.703125 54.984375 56 
Q 52 60.25 47.40625 62.515625 
Q 42.828125 64.796875 37.59375 64.796875 
L 27.6875 64.796875 
Q 25.875 64.796875 24.875 64.640625 
Q 23.875 64.5 23.234375 63.796875 
Q 22.609375 63.09375 22.609375 61.625 
z
" id="Cmr10-68"/>
     </defs>
     <use transform="translate(0 0.609375)" xlink:href="#Cmr10-68"/>
     <use transform="translate(76.318359 0.609375)" xlink:href="#Cmr10-101"/>
     <use transform="translate(120.703125 0.609375)" xlink:href="#Cmr10-99"/>
     <use transform="translate(165.087891 0.609375)" xlink:href="#Cmr10-111"/>
     <use transform="translate(215.087891 0.609375)" xlink:href="#Cmr10-100"/>
     <use transform="translate(270.605469 0.609375)" xlink:href="#Cmr10-101"/>
     <use transform="translate(314.990234 0.609375)" xlink:href="#Cmr10-114"/>
    </g>
   </g>
  </g>
 </g>
</svg>
