<?xml version="1.0" encoding="utf-8" standalone="no"?>
<!DOCTYPE svg PUBLIC "-//W3C//DTD SVG 1.1//EN"
  "http://www.w3.org/Graphics/SVG/1.1/DTD/svg11.dtd">
<!-- Created with matplotlib (https://matplotlib.org/) -->
<svg height="289.136154pt" version="1.1" viewBox="0 0 515.332857 289.136154" width="515.332857pt" xmlns="http://www.w3.org/2000/svg" xmlns:xlink="http://www.w3.org/1999/xlink">
 <metadata>
  <rdf:RDF xmlns:cc="http://creativecommons.org/ns#" xmlns:dc="http://purl.org/dc/elements/1.1/" xmlns:rdf="http://www.w3.org/1999/02/22-rdf-syntax-ns#">
   <cc:Work>
    <dc:type rdf:resource="http://purl.org/dc/dcmitype/StillImage"/>
    <dc:date>2021-06-08T22:49:46.068051</dc:date>
    <dc:format>image/svg+xml</dc:format>
    <dc:creator>
     <cc:Agent>
      <dc:title>Matplotlib v3.3.4, https://matplotlib.org/</dc:title>
     </cc:Agent>
    </dc:creator>
   </cc:Work>
  </rdf:RDF>
 </metadata>
 <defs>
  <style type="text/css">*{stroke-linecap:butt;stroke-linejoin:round;}</style>
 </defs>
 <g id="figure_1">
  <g id="patch_1">
   <path d="M 0 289.136154 
L 515.332857 289.136154 
L 515.332857 0 
L 0 0 
z
" style="fill:none;"/>
  </g>
  <g id="axes_1">
   <g id="text_1">
    <g id="patch_2">
     <path d="M 28.975 265.578462 
L 61.215 265.578462 
L 61.215 243.608462 
L 28.975 243.608462 
z
" style="fill:#ffffff;"/>
    </g>
    <!-- $x^{ \; \langle 1 \rangle}$ -->
    <g transform="translate(32.875 258.974868)scale(0.13 -0.13)">
     <defs>
      <path d="M 7.8125 2.875 
Q 9.578125 1.515625 12.796875 1.515625 
Q 15.921875 1.515625 18.3125 4.515625 
Q 20.703125 7.515625 21.578125 11.078125 
L 26.125 28.8125 
Q 27.203125 33.640625 27.203125 35.40625 
Q 27.203125 37.890625 25.8125 39.75 
Q 24.421875 41.609375 21.921875 41.609375 
Q 18.75 41.609375 15.96875 39.625 
Q 13.1875 37.640625 11.28125 34.59375 
Q 9.375 31.546875 8.59375 28.421875 
Q 8.40625 27.78125 7.8125 27.78125 
L 6.59375 27.78125 
Q 5.8125 27.78125 5.8125 28.71875 
L 5.8125 29 
Q 6.78125 32.71875 9.125 36.25 
Q 11.46875 39.796875 14.859375 41.984375 
Q 18.265625 44.1875 22.125 44.1875 
Q 25.78125 44.1875 28.734375 42.234375 
Q 31.6875 40.28125 32.90625 36.921875 
Q 34.625 39.984375 37.28125 42.078125 
Q 39.9375 44.1875 43.109375 44.1875 
Q 45.265625 44.1875 47.5 43.421875 
Q 49.75 42.671875 51.171875 41.109375 
Q 52.59375 39.546875 52.59375 37.203125 
Q 52.59375 34.671875 50.953125 32.828125 
Q 49.3125 31 46.78125 31 
Q 45.171875 31 44.09375 32.03125 
Q 43.015625 33.0625 43.015625 34.625 
Q 43.015625 36.71875 44.453125 38.296875 
Q 45.90625 39.890625 47.90625 40.1875 
Q 46.09375 41.609375 42.921875 41.609375 
Q 39.703125 41.609375 37.328125 38.625 
Q 34.96875 35.640625 33.984375 31.984375 
L 29.59375 14.3125 
Q 28.515625 10.296875 28.515625 7.71875 
Q 28.515625 5.171875 29.953125 3.34375 
Q 31.390625 1.515625 33.796875 1.515625 
Q 38.484375 1.515625 42.15625 5.640625 
Q 45.84375 9.765625 47.015625 14.703125 
Q 47.21875 15.28125 47.796875 15.28125 
L 49.03125 15.28125 
Q 49.421875 15.28125 49.65625 15.015625 
Q 49.90625 14.75 49.90625 14.40625 
Q 49.90625 14.3125 49.8125 14.109375 
Q 48.390625 8.15625 43.84375 3.515625 
Q 39.3125 -1.125 33.59375 -1.125 
Q 29.9375 -1.125 26.984375 0.84375 
Q 24.03125 2.828125 22.796875 6.203125 
Q 21.234375 3.265625 18.46875 1.0625 
Q 15.71875 -1.125 12.59375 -1.125 
Q 10.453125 -1.125 8.171875 -0.359375 
Q 5.90625 0.390625 4.484375 1.953125 
Q 3.078125 3.515625 3.078125 5.90625 
Q 3.078125 8.25 4.703125 10.171875 
Q 6.34375 12.109375 8.796875 12.109375 
Q 10.453125 12.109375 11.578125 11.109375 
Q 12.703125 10.109375 12.703125 8.5 
Q 12.703125 6.390625 11.296875 4.828125 
Q 9.90625 3.265625 7.8125 2.875 
z
" id="Cmmi10-120"/>
      <path d="M 35.5 -114.796875 
L 10.015625 -56.78125 
Q 9.8125 -56.5 9.8125 -56 
Q 9.8125 -55.515625 10.015625 -55.328125 
L 35.5 2.78125 
Q 35.984375 4 37.3125 4 
Q 38.03125 4 38.671875 3.359375 
Q 39.3125 2.734375 39.3125 2 
Q 39.3125 1.515625 39.203125 1.3125 
L 14.015625 -56 
L 39.203125 -113.28125 
Q 39.3125 -113.484375 39.3125 -114.015625 
Q 39.3125 -114.75 38.671875 -115.375 
Q 38.03125 -116.015625 37.3125 -116.015625 
Q 36.03125 -116.015625 35.5 -114.796875 
z
" id="Cmex10-173"/>
      <path d="M 9.28125 0 
L 9.28125 3.515625 
Q 21.78125 3.515625 21.78125 6.6875 
L 21.78125 59.1875 
Q 16.609375 56.6875 8.6875 56.6875 
L 8.6875 60.203125 
Q 20.953125 60.203125 27.203125 66.609375 
L 28.609375 66.609375 
Q 28.953125 66.609375 29.265625 66.328125 
Q 29.59375 66.0625 29.59375 65.71875 
L 29.59375 6.6875 
Q 29.59375 3.515625 42.09375 3.515625 
L 42.09375 0 
z
" id="Cmr10-49"/>
      <path d="M 7.8125 -114.015625 
Q 7.8125 -113.484375 8.015625 -113.28125 
L 33.109375 -56 
L 8.015625 1.3125 
Q 7.8125 1.515625 7.8125 2 
Q 7.8125 2.734375 8.390625 3.359375 
Q 8.984375 4 9.8125 4 
Q 10.984375 4 11.71875 2.78125 
L 37.203125 -55.328125 
Q 37.3125 -55.515625 37.3125 -56 
Q 37.3125 -56.5 37.203125 -56.78125 
L 11.71875 -114.796875 
Q 10.9375 -116.015625 9.8125 -116.015625 
Q 8.984375 -116.015625 8.390625 -115.375 
Q 7.8125 -114.75 7.8125 -114.015625 
z
" id="Cmex10-174"/>
     </defs>
     <use transform="translate(0 0.597135)" xlink:href="#Cmmi10-120"/>
     <use transform="translate(80.454351 104.202344)scale(0.7)" xlink:href="#Cmex10-173"/>
     <use transform="translate(113.506109 38.861198)scale(0.7)" xlink:href="#Cmr10-49"/>
     <use transform="translate(148.506109 104.202344)scale(0.7)" xlink:href="#Cmex10-174"/>
    </g>
   </g>
   <g id="text_2">
    <g id="patch_3">
     <path d="M 28.065 285.691935 
L 62.125 285.691935 
L 62.125 265.310373 
L 28.065 265.310373 
z
" style="fill:#ffffff;"/>
    </g>
    <!-- $\mathrm{Jane}$ -->
    <g transform="translate(31.965 279.088341)scale(0.13 -0.13)">
     <defs>
      <path d="M 9.078125 5.609375 
Q 10.890625 3.078125 13.765625 1.734375 
Q 16.65625 0.390625 19.921875 0.390625 
Q 23.140625 0.390625 25.359375 2.609375 
Q 27.59375 4.828125 28.6875 8.125 
Q 29.78125 11.421875 29.78125 14.5 
L 29.78125 61.625 
Q 29.78125 64.796875 16.40625 64.796875 
L 16.40625 68.3125 
L 46.484375 68.3125 
L 46.484375 64.796875 
Q 43.109375 64.796875 40.953125 64.25 
Q 38.8125 63.71875 38.8125 61.625 
L 38.8125 14.109375 
Q 38.8125 9.328125 36.046875 5.609375 
Q 33.296875 1.90625 28.921875 -0.140625 
Q 24.5625 -2.203125 19.921875 -2.203125 
Q 15.875 -2.203125 12.15625 -0.5625 
Q 8.453125 1.078125 6.078125 4.171875 
Q 3.71875 7.28125 3.71875 11.375 
Q 3.71875 13.875 5.375 15.53125 
Q 7.03125 17.1875 9.515625 17.1875 
Q 11.140625 17.1875 12.453125 16.421875 
Q 13.765625 15.671875 14.515625 14.296875 
Q 15.28125 12.9375 15.28125 11.375 
Q 15.28125 8.9375 13.625 7.265625 
Q 11.96875 5.609375 9.515625 5.609375 
z
" id="Cmr10-74"/>
      <path d="M 4 9.8125 
Q 4 15.765625 8.6875 19.5 
Q 13.375 23.25 19.9375 24.78125 
Q 26.515625 26.3125 32.421875 26.3125 
L 32.421875 30.421875 
Q 32.421875 33.296875 31.15625 36 
Q 29.890625 38.71875 27.484375 40.453125 
Q 25.09375 42.1875 22.21875 42.1875 
Q 15.578125 42.1875 12.109375 39.203125 
Q 14.015625 39.203125 15.25 37.765625 
Q 16.5 36.328125 16.5 34.421875 
Q 16.5 32.421875 15.078125 31 
Q 13.671875 29.59375 11.71875 29.59375 
Q 9.71875 29.59375 8.296875 31 
Q 6.890625 32.421875 6.890625 34.421875 
Q 6.890625 39.703125 11.671875 42.265625 
Q 16.453125 44.828125 22.21875 44.828125 
Q 26.265625 44.828125 30.359375 43.09375 
Q 34.46875 41.359375 37.078125 38.125 
Q 39.703125 34.90625 39.703125 30.609375 
L 39.703125 8.109375 
Q 39.703125 6.15625 40.53125 4.515625 
Q 41.359375 2.875 43.109375 2.875 
Q 44.78125 2.875 45.578125 4.53125 
Q 46.390625 6.203125 46.390625 8.109375 
L 46.390625 14.5 
L 49.3125 14.5 
L 49.3125 8.109375 
Q 49.3125 5.859375 48.140625 3.828125 
Q 46.96875 1.8125 44.984375 0.609375 
Q 43.015625 -0.59375 40.71875 -0.59375 
Q 37.796875 -0.59375 35.671875 1.671875 
Q 33.546875 3.953125 33.296875 7.078125 
Q 31.453125 3.328125 27.828125 1.09375 
Q 24.21875 -1.125 20.125 -1.125 
Q 16.3125 -1.125 12.625 0 
Q 8.9375 1.125 6.46875 3.53125 
Q 4 5.953125 4 9.8125 
z
M 12.109375 9.8125 
Q 12.109375 6.296875 14.6875 3.90625 
Q 17.28125 1.515625 20.796875 1.515625 
Q 24.03125 1.515625 26.65625 3.125 
Q 29.296875 4.734375 30.859375 7.515625 
Q 32.421875 10.296875 32.421875 13.375 
L 32.421875 23.78125 
Q 27.875 23.78125 23.109375 22.28125 
Q 18.359375 20.796875 15.234375 17.625 
Q 12.109375 14.453125 12.109375 9.8125 
z
" id="Cmr10-97"/>
      <path d="M 2.984375 0 
L 2.984375 3.515625 
Q 6.390625 3.515625 8.59375 4.046875 
Q 10.796875 4.59375 10.796875 6.6875 
L 10.796875 33.984375 
Q 10.796875 36.671875 9.984375 37.859375 
Q 9.1875 39.0625 7.671875 39.328125 
Q 6.15625 39.59375 2.984375 39.59375 
L 2.984375 43.109375 
L 17.484375 44.1875 
L 17.484375 34.421875 
Q 19.484375 38.71875 23.40625 41.453125 
Q 27.34375 44.1875 31.984375 44.1875 
Q 38.921875 44.1875 42.40625 40.859375 
Q 45.90625 37.546875 45.90625 30.71875 
L 45.90625 6.6875 
Q 45.90625 4.59375 48.09375 4.046875 
Q 50.296875 3.515625 53.71875 3.515625 
L 53.71875 0 
L 30.8125 0 
L 30.8125 3.515625 
Q 34.234375 3.515625 36.421875 4.046875 
Q 38.625 4.59375 38.625 6.6875 
L 38.625 30.421875 
Q 38.625 35.296875 37.203125 38.453125 
Q 35.796875 41.609375 31.390625 41.609375 
Q 25.59375 41.609375 21.84375 36.96875 
Q 18.109375 32.328125 18.109375 26.421875 
L 18.109375 6.6875 
Q 18.109375 4.59375 20.3125 4.046875 
Q 22.515625 3.515625 25.875 3.515625 
L 25.875 0 
z
" id="Cmr10-110"/>
      <path d="M 24.90625 -1.125 
Q 18.796875 -1.125 13.6875 2.078125 
Q 8.59375 5.28125 5.6875 10.625 
Q 2.78125 15.96875 2.78125 21.921875 
Q 2.78125 27.78125 5.4375 33.046875 
Q 8.109375 38.328125 12.859375 41.578125 
Q 17.625 44.828125 23.484375 44.828125 
Q 28.078125 44.828125 31.46875 43.28125 
Q 34.859375 41.75 37.0625 39.015625 
Q 39.265625 36.28125 40.375 32.5625 
Q 41.5 28.859375 41.5 24.421875 
Q 41.5 23.09375 40.484375 23.09375 
L 11.53125 23.09375 
L 11.53125 22.015625 
Q 11.53125 13.71875 14.875 7.765625 
Q 18.21875 1.8125 25.78125 1.8125 
Q 28.859375 1.8125 31.46875 3.171875 
Q 34.078125 4.546875 36 6.984375 
Q 37.9375 9.421875 38.625 12.203125 
Q 38.71875 12.546875 38.984375 12.8125 
Q 39.265625 13.09375 39.59375 13.09375 
L 40.484375 13.09375 
Q 41.5 13.09375 41.5 11.8125 
Q 40.09375 6.15625 35.40625 2.515625 
Q 30.71875 -1.125 24.90625 -1.125 
z
M 11.625 25.59375 
L 34.421875 25.59375 
Q 34.421875 29.34375 33.375 33.203125 
Q 32.328125 37.0625 29.875 39.625 
Q 27.4375 42.1875 23.484375 42.1875 
Q 17.828125 42.1875 14.71875 36.890625 
Q 11.625 31.59375 11.625 25.59375 
z
" id="Cmr10-101"/>
     </defs>
     <use transform="translate(0 0.6875)" xlink:href="#Cmr10-74"/>
     <use transform="translate(51.318359 0.6875)" xlink:href="#Cmr10-97"/>
     <use transform="translate(101.318359 0.6875)" xlink:href="#Cmr10-110"/>
     <use transform="translate(156.835938 0.6875)" xlink:href="#Cmr10-101"/>
    </g>
   </g>
   <g id="text_3">
    <g id="patch_4">
     <path d="M 3.3 214.479231 
L 86.89 214.479231 
L 86.89 190.169231 
L 3.3 190.169231 
z
" style="fill:#ffffff;"/>
    </g>
    <!-- $q^{\langle 1 \rangle}, k^{\langle 1 \rangle},v^{\langle 1 \rangle}$ -->
    <g transform="translate(7.2 207.875637)scale(0.13 -0.13)">
     <defs>
      <path d="M 14.703125 -18.109375 
Q 15.046875 -15.921875 16.015625 -15.921875 
Q 19.625 -15.921875 21.703125 -15.328125 
Q 23.78125 -14.75 24.421875 -12.5 
L 28.71875 4.5 
Q 23 -1.125 17.28125 -1.125 
Q 10.984375 -1.125 7.390625 3.640625 
Q 3.8125 8.40625 3.8125 14.890625 
Q 3.8125 21.296875 7.109375 28.171875 
Q 10.40625 35.0625 16.046875 39.625 
Q 21.6875 44.1875 28.21875 44.1875 
Q 31.25 44.1875 33.6875 42.375 
Q 36.140625 40.578125 37.40625 37.59375 
Q 37.984375 38.765625 40.640625 41.46875 
Q 43.3125 44.1875 44.390625 44.1875 
Q 45.515625 44.1875 45.515625 42.921875 
L 31.5 -12.890625 
Q 31.25 -14.359375 31.203125 -14.59375 
Q 31.203125 -15.921875 37.796875 -15.921875 
Q 38.28125 -15.921875 38.546875 -16.3125 
Q 38.8125 -16.703125 38.8125 -17.1875 
Q 38.484375 -18.5 38.25 -18.9375 
Q 38.03125 -19.390625 37.109375 -19.390625 
L 15.71875 -19.390625 
Q 14.703125 -19.390625 14.703125 -18.109375 
z
M 17.484375 1.515625 
Q 21 1.515625 24.34375 4.171875 
Q 27.6875 6.84375 30.171875 10.5 
L 35.796875 33.015625 
Q 35.203125 36.53125 33.21875 39.0625 
Q 31.25 41.609375 27.984375 41.609375 
Q 24.609375 41.609375 21.703125 38.84375 
Q 18.796875 36.078125 16.796875 32.328125 
Q 14.84375 28.328125 13.0625 21.34375 
Q 11.28125 14.359375 11.28125 10.5 
Q 11.28125 7.03125 12.765625 4.265625 
Q 14.265625 1.515625 17.484375 1.515625 
z
" id="Cmmi10-113"/>
      <path d="M 9.90625 -18.015625 
Q 9.90625 -17.578125 10.296875 -17.1875 
Q 13.921875 -13.71875 15.921875 -9.171875 
Q 17.921875 -4.640625 17.921875 0.390625 
L 17.921875 1.609375 
Q 16.3125 0 13.921875 0 
Q 11.625 0 10.015625 1.609375 
Q 8.40625 3.21875 8.40625 5.515625 
Q 8.40625 7.859375 10.015625 9.421875 
Q 11.625 10.984375 13.921875 10.984375 
Q 17.484375 10.984375 19 7.6875 
Q 20.515625 4.390625 20.515625 0.390625 
Q 20.515625 -5.171875 18.28125 -10.171875 
Q 16.0625 -15.1875 12.015625 -19.1875 
Q 11.625 -19.390625 11.375 -19.390625 
Q 10.890625 -19.390625 10.390625 -18.9375 
Q 9.90625 -18.5 9.90625 -18.015625 
z
" id="Cmmi10-59"/>
      <path d="M 5.328125 1.8125 
Q 5.328125 2.390625 5.421875 2.6875 
L 19.921875 60.5 
Q 20.3125 62.203125 20.40625 63.1875 
Q 20.40625 64.796875 13.921875 64.796875 
Q 12.890625 64.796875 12.890625 66.109375 
Q 12.9375 66.359375 13.109375 66.984375 
Q 13.28125 67.625 13.546875 67.96875 
Q 13.8125 68.3125 14.3125 68.3125 
L 27.78125 69.390625 
L 28.078125 69.390625 
Q 28.078125 69.28125 28.421875 69.109375 
Q 28.765625 68.953125 28.8125 68.890625 
Q 29 68.40625 29 68.109375 
L 18.5 26.3125 
Q 22.125 27.828125 27.609375 33.515625 
Q 33.109375 39.203125 36.203125 41.6875 
Q 39.3125 44.1875 44 44.1875 
Q 46.78125 44.1875 48.734375 42.28125 
Q 50.6875 40.375 50.6875 37.59375 
Q 50.6875 35.84375 49.953125 34.34375 
Q 49.21875 32.859375 47.890625 31.921875 
Q 46.578125 31 44.828125 31 
Q 43.21875 31 42.109375 32 
Q 41.015625 33.015625 41.015625 34.625 
Q 41.015625 37.015625 42.703125 38.640625 
Q 44.390625 40.28125 46.78125 40.28125 
Q 45.796875 41.609375 43.796875 41.609375 
Q 40.828125 41.609375 38.0625 39.890625 
Q 35.296875 38.1875 32.09375 34.984375 
Q 28.90625 31.78125 26.265625 29.125 
Q 23.640625 26.46875 21.390625 25.09375 
Q 27.296875 24.421875 31.640625 22 
Q 35.984375 19.578125 35.984375 14.59375 
Q 35.984375 13.578125 35.59375 12.015625 
Q 34.71875 8.25 34.71875 6 
Q 34.71875 1.515625 37.796875 1.515625 
Q 41.40625 1.515625 43.28125 5.46875 
Q 45.171875 9.421875 46.390625 14.703125 
Q 46.578125 15.28125 47.21875 15.28125 
L 48.390625 15.28125 
Q 48.78125 15.28125 49.046875 15.03125 
Q 49.3125 14.796875 49.3125 14.40625 
Q 49.3125 14.3125 49.21875 14.109375 
Q 45.453125 -1.125 37.59375 -1.125 
Q 34.765625 -1.125 32.59375 0.1875 
Q 30.421875 1.515625 29.25 3.78125 
Q 28.078125 6.0625 28.078125 8.890625 
Q 28.078125 10.5 28.515625 12.203125 
Q 28.8125 13.375 28.8125 14.40625 
Q 28.8125 18.265625 25.390625 20.265625 
Q 21.96875 22.265625 17.578125 22.703125 
L 12.5 2.296875 
Q 12.109375 0.78125 10.984375 -0.171875 
Q 9.859375 -1.125 8.40625 -1.125 
Q 7.125 -1.125 6.21875 -0.265625 
Q 5.328125 0.59375 5.328125 1.8125 
z
" id="Cmmi10-107"/>
      <path d="M 10.6875 11.28125 
Q 10.6875 13.53125 11.21875 16.203125 
Q 11.765625 18.890625 12.296875 20.625 
Q 12.84375 22.359375 14.75 27.390625 
Q 16.65625 32.421875 16.703125 32.625 
Q 18.015625 36.28125 18.015625 38.625 
Q 18.015625 41.609375 15.828125 41.609375 
Q 11.859375 41.609375 9.296875 37.53125 
Q 6.734375 33.453125 5.515625 28.421875 
Q 5.328125 27.78125 4.6875 27.78125 
L 3.515625 27.78125 
Q 2.6875 27.78125 2.6875 28.71875 
L 2.6875 29 
Q 4.296875 34.96875 7.609375 39.578125 
Q 10.9375 44.1875 16.015625 44.1875 
Q 19.578125 44.1875 22.046875 41.84375 
Q 24.515625 39.5 24.515625 35.890625 
Q 24.515625 34.03125 23.6875 31.984375 
Q 21.734375 26.90625 20.609375 23.84375 
Q 19.484375 20.796875 18.53125 17.015625 
Q 17.578125 13.234375 17.578125 10.015625 
Q 17.578125 6.25 19.3125 3.875 
Q 21.046875 1.515625 24.703125 1.515625 
Q 31.640625 1.515625 37.203125 12.203125 
Q 38.96875 15.671875 40.53125 20.359375 
Q 42.09375 25.046875 42.09375 27.984375 
Q 42.09375 31 41.109375 32.6875 
Q 40.140625 34.375 38.578125 36.203125 
Q 37.015625 38.03125 37.015625 39.109375 
Q 37.015625 41.0625 38.625 42.671875 
Q 40.234375 44.28125 42.1875 44.28125 
Q 44.578125 44.28125 45.625 42.078125 
Q 46.6875 39.890625 46.6875 37.109375 
Q 46.6875 33.796875 45.734375 29.203125 
Q 44.78125 24.609375 43.09375 19.671875 
Q 41.40625 14.75 39.984375 11.921875 
Q 33.40625 -1.125 24.609375 -1.125 
Q 18.3125 -1.125 14.5 2.015625 
Q 10.6875 5.171875 10.6875 11.28125 
z
" id="Cmmi10-118"/>
     </defs>
     <use transform="translate(0 0.597135)" xlink:href="#Cmmi10-113"/>
     <use transform="translate(50.883359 104.202344)scale(0.7)" xlink:href="#Cmex10-173"/>
     <use transform="translate(83.935117 38.861198)scale(0.7)" xlink:href="#Cmr10-49"/>
     <use transform="translate(118.935117 104.202344)scale(0.7)" xlink:href="#Cmex10-174"/>
     <use transform="translate(158.364219 0.597135)" xlink:href="#Cmmi10-59"/>
     <use transform="translate(203.608359 0.597135)" xlink:href="#Cmmi10-107"/>
     <use transform="translate(267.20625 104.202344)scale(0.7)" xlink:href="#Cmex10-173"/>
     <use transform="translate(300.258008 38.861198)scale(0.7)" xlink:href="#Cmr10-49"/>
     <use transform="translate(335.258008 104.202344)scale(0.7)" xlink:href="#Cmex10-174"/>
     <use transform="translate(374.687109 0.597135)" xlink:href="#Cmmi10-59"/>
     <use transform="translate(419.93125 0.597135)" xlink:href="#Cmmi10-118"/>
     <use transform="translate(474.642891 104.202344)scale(0.7)" xlink:href="#Cmex10-173"/>
     <use transform="translate(507.694648 38.861198)scale(0.7)" xlink:href="#Cmr10-49"/>
     <use transform="translate(542.694648 104.202344)scale(0.7)" xlink:href="#Cmex10-174"/>
    </g>
   </g>
   <g id="patch_5">
    <path d="M 45.095 217.599188 
Q 45.095 229.046409 45.095 241.611664 
" style="fill:none;stroke:#000000;stroke-linecap:round;"/>
    <path d="M 42.495 222.799188 
L 45.095 217.599188 
L 47.695 222.799188 
" style="fill:none;stroke:#000000;stroke-linecap:round;"/>
   </g>
   <g id="text_4">
    <g id="patch_6">
     <path d="M 52.899286 162.21 
L 122.319286 162.21 
L 122.319286 137.9 
L 52.899286 137.9 
z
" style="fill:#ffffff;stroke:#000000;stroke-linejoin:miter;"/>
    </g>
    <!-- $\left \langle q^{\langle 3 \rangle}, k^{\langle 1 \rangle} \right \rangle$ -->
    <g transform="translate(56.799286 155.606406)scale(0.13 -0.13)">
     <defs>
      <path d="M 9.515625 7.71875 
Q 11.859375 4.296875 15.8125 2.640625 
Q 19.78125 0.984375 24.3125 0.984375 
Q 30.125 0.984375 32.5625 5.9375 
Q 35.015625 10.890625 35.015625 17.1875 
Q 35.015625 20.015625 34.5 22.84375 
Q 33.984375 25.6875 32.765625 28.125 
Q 31.546875 30.5625 29.421875 32.03125 
Q 27.296875 33.5 24.21875 33.5 
L 17.578125 33.5 
Q 16.703125 33.5 16.703125 34.421875 
L 16.703125 35.296875 
Q 16.703125 36.078125 17.578125 36.078125 
L 23.09375 36.53125 
Q 26.609375 36.53125 28.921875 39.15625 
Q 31.25 41.796875 32.328125 45.578125 
Q 33.40625 49.359375 33.40625 52.78125 
Q 33.40625 57.5625 31.15625 60.640625 
Q 28.90625 63.71875 24.3125 63.71875 
Q 20.515625 63.71875 17.046875 62.28125 
Q 13.578125 60.84375 11.53125 57.90625 
Q 11.71875 57.953125 11.859375 57.984375 
Q 12.015625 58.015625 12.203125 58.015625 
Q 14.453125 58.015625 15.96875 56.453125 
Q 17.484375 54.890625 17.484375 52.6875 
Q 17.484375 50.53125 15.96875 48.96875 
Q 14.453125 47.40625 12.203125 47.40625 
Q 10.015625 47.40625 8.453125 48.96875 
Q 6.890625 50.53125 6.890625 52.6875 
Q 6.890625 56.984375 9.46875 60.15625 
Q 12.0625 63.328125 16.140625 64.96875 
Q 20.21875 66.609375 24.3125 66.609375 
Q 27.34375 66.609375 30.703125 65.703125 
Q 34.078125 64.796875 36.8125 63.109375 
Q 39.546875 61.421875 41.28125 58.78125 
Q 43.015625 56.15625 43.015625 52.78125 
Q 43.015625 48.578125 41.140625 45.015625 
Q 39.265625 41.453125 35.984375 38.859375 
Q 32.71875 36.28125 28.8125 35.015625 
Q 33.15625 34.1875 37.0625 31.734375 
Q 40.96875 29.296875 43.328125 25.484375 
Q 45.703125 21.6875 45.703125 17.28125 
Q 45.703125 11.765625 42.671875 7.296875 
Q 39.65625 2.828125 34.71875 0.3125 
Q 29.78125 -2.203125 24.3125 -2.203125 
Q 19.625 -2.203125 14.90625 -0.40625 
Q 10.203125 1.375 7.203125 4.9375 
Q 4.203125 8.5 4.203125 13.484375 
Q 4.203125 15.96875 5.859375 17.625 
Q 7.515625 19.28125 10.015625 19.28125 
Q 11.625 19.28125 12.96875 18.53125 
Q 14.3125 17.78125 15.0625 16.40625 
Q 15.828125 15.046875 15.828125 13.484375 
Q 15.828125 11.03125 14.109375 9.375 
Q 12.40625 7.71875 10.015625 7.71875 
z
" id="Cmr10-51"/>
     </defs>
     <use transform="translate(0 102.796875)scale(1.048143)" xlink:href="#Cmex10-173"/>
     <use transform="translate(49.489105 0.59375)" xlink:href="#Cmmi10-113"/>
     <use transform="translate(100.372465 104.198958)scale(0.7)" xlink:href="#Cmex10-173"/>
     <use transform="translate(133.424222 38.857812)scale(0.7)" xlink:href="#Cmr10-51"/>
     <use transform="translate(168.424222 104.198958)scale(0.7)" xlink:href="#Cmex10-174"/>
     <use transform="translate(207.853324 0.59375)" xlink:href="#Cmmi10-59"/>
     <use transform="translate(253.097465 0.59375)" xlink:href="#Cmmi10-107"/>
     <use transform="translate(316.695355 104.198958)scale(0.7)" xlink:href="#Cmex10-173"/>
     <use transform="translate(349.747113 38.857812)scale(0.7)" xlink:href="#Cmr10-49"/>
     <use transform="translate(384.747113 104.198958)scale(0.7)" xlink:href="#Cmex10-174"/>
     <use transform="translate(424.176215 102.796875)scale(1.048143)" xlink:href="#Cmex10-174"/>
    </g>
   </g>
   <g id="patch_7">
    <path d="M 85.006654 163.921603 
Q 66.354305 176.188194 46.767822 189.06911 
" style="fill:none;stroke:#000000;stroke-linecap:round;"/>
    <path d="M 79.233362 164.606511 
L 85.006654 163.921603 
L 82.090605 168.951181 
" style="fill:none;stroke:#000000;stroke-linecap:round;"/>
   </g>
   <g id="text_5">
    <g id="patch_8">
     <path d="M 87.609286 107.97655 
C 90.311912 107.97655 92.904211 106.902785 94.815256 104.99174 
C 96.726302 103.080694 97.800067 100.488396 97.800067 97.785769 
C 97.800067 95.083142 96.726302 92.490844 94.815256 90.579799 
C 92.904211 88.668753 90.311912 87.594988 87.609286 87.594988 
C 84.906659 87.594988 82.314361 88.668753 80.403315 90.579799 
C 78.492269 92.490844 77.418504 95.083142 77.418504 97.785769 
C 77.418504 100.488396 78.492269 103.080694 80.403315 104.99174 
C 82.314361 106.902785 84.906659 107.97655 87.609286 107.97655 
z
" style="fill:#ffffff;stroke:#000000;stroke-linejoin:miter;"/>
    </g>
    <!-- $\times$ -->
    <g transform="translate(82.539286 101.372957)scale(0.13 -0.13)">
     <defs>
      <path d="M 14.703125 2.875 
Q 14.703125 3.65625 15.1875 4.296875 
L 35.984375 25 
L 15.1875 45.796875 
Q 14.703125 46.296875 14.703125 47.125 
Q 14.703125 47.859375 15.28125 48.484375 
Q 15.875 49.125 16.703125 49.125 
Q 17.390625 49.125 18.21875 48.484375 
L 38.921875 27.78125 
L 59.515625 48.484375 
Q 60.359375 49.125 60.984375 49.125 
Q 61.8125 49.125 62.390625 48.53125 
Q 62.984375 47.953125 62.984375 47.125 
Q 62.984375 46.296875 62.5 45.796875 
L 41.703125 25 
L 62.5 4.296875 
Q 62.984375 3.65625 62.984375 2.875 
Q 62.984375 2.046875 62.390625 1.453125 
Q 61.8125 0.875 60.984375 0.875 
Q 60.25 0.875 59.515625 1.609375 
L 38.921875 22.21875 
L 18.21875 1.609375 
Q 17.484375 0.875 16.703125 0.875 
Q 15.875 0.875 15.28125 1.515625 
Q 14.703125 2.15625 14.703125 2.875 
z
" id="Cmsy10-163"/>
     </defs>
     <use transform="translate(0 0.875)" xlink:href="#Cmsy10-163"/>
    </g>
   </g>
   <g id="text_6">
    <!-- $v^{ \; \langle 1 \rangle}$ -->
    <g transform="translate(58.227723 95.041613)scale(0.1 -0.1)">
     <use transform="translate(0 0.597135)" xlink:href="#Cmmi10-118"/>
     <use transform="translate(71.782632 104.202344)scale(0.7)" xlink:href="#Cmex10-173"/>
     <use transform="translate(104.83439 38.861198)scale(0.7)" xlink:href="#Cmr10-49"/>
     <use transform="translate(139.83439 104.202344)scale(0.7)" xlink:href="#Cmex10-174"/>
    </g>
   </g>
   <g id="patch_9">
    <path d="M 87.609286 111.092647 
Q 87.609286 122.936806 87.609286 135.898999 
" style="fill:none;stroke:#000000;stroke-linecap:round;"/>
    <path d="M 85.009286 116.292647 
L 87.609286 111.092647 
L 90.209286 116.292647 
" style="fill:none;stroke:#000000;stroke-linecap:round;"/>
   </g>
   <g id="text_7">
    <g id="patch_10">
     <path d="M 135.260714 265.578462 
L 167.500714 265.578462 
L 167.500714 243.608462 
L 135.260714 243.608462 
z
" style="fill:#ffffff;"/>
    </g>
    <!-- $x^{ \; \langle 2 \rangle}$ -->
    <g transform="translate(139.160714 258.974868)scale(0.13 -0.13)">
     <defs>
      <path d="M 4.984375 0 
L 4.984375 2.6875 
Q 4.984375 2.9375 5.171875 3.21875 
L 20.703125 20.40625 
Q 24.21875 24.21875 26.40625 26.796875 
Q 28.609375 29.390625 30.75 32.765625 
Q 32.90625 36.140625 34.15625 39.625 
Q 35.40625 43.109375 35.40625 47.015625 
Q 35.40625 51.125 33.890625 54.859375 
Q 32.375 58.59375 29.375 60.84375 
Q 26.375 63.09375 22.125 63.09375 
Q 17.78125 63.09375 14.3125 60.46875 
Q 10.84375 57.859375 9.421875 53.71875 
Q 9.8125 53.8125 10.5 53.8125 
Q 12.75 53.8125 14.328125 52.296875 
Q 15.921875 50.78125 15.921875 48.390625 
Q 15.921875 46.09375 14.328125 44.5 
Q 12.75 42.921875 10.5 42.921875 
Q 8.15625 42.921875 6.5625 44.546875 
Q 4.984375 46.1875 4.984375 48.390625 
Q 4.984375 52.15625 6.390625 55.4375 
Q 7.8125 58.734375 10.46875 61.296875 
Q 13.140625 63.875 16.484375 65.234375 
Q 19.828125 66.609375 23.578125 66.609375 
Q 29.296875 66.609375 34.21875 64.1875 
Q 39.15625 61.765625 42.03125 57.34375 
Q 44.921875 52.9375 44.921875 47.015625 
Q 44.921875 42.671875 43.015625 38.765625 
Q 41.109375 34.859375 38.125 31.65625 
Q 35.15625 28.46875 30.515625 24.40625 
Q 25.875 20.359375 24.421875 19 
L 13.09375 8.109375 
L 22.703125 8.109375 
Q 29.78125 8.109375 34.546875 8.21875 
Q 39.3125 8.34375 39.59375 8.59375 
Q 40.765625 9.859375 42 17.828125 
L 44.921875 17.828125 
L 42.09375 0 
z
" id="Cmr10-50"/>
     </defs>
     <use transform="translate(0 0.597135)" xlink:href="#Cmmi10-120"/>
     <use transform="translate(80.454351 104.202344)scale(0.7)" xlink:href="#Cmex10-173"/>
     <use transform="translate(113.506109 38.861198)scale(0.7)" xlink:href="#Cmr10-50"/>
     <use transform="translate(148.506109 104.202344)scale(0.7)" xlink:href="#Cmex10-174"/>
    </g>
   </g>
   <g id="text_8">
    <g id="patch_11">
     <path d="M 132.465714 285.691935 
L 170.295714 285.691935 
L 170.295714 265.310373 
L 132.465714 265.310373 
z
" style="fill:#ffffff;"/>
    </g>
    <!-- $\mathrm{visite}$ -->
    <g transform="translate(136.365714 279.088341)scale(0.13 -0.13)">
     <defs>
      <path d="M 24.421875 0 
L 9.8125 36.71875 
Q 8.890625 38.578125 6.953125 39.078125 
Q 5.03125 39.59375 1.90625 39.59375 
L 1.90625 43.109375 
L 22.90625 43.109375 
L 22.90625 39.59375 
Q 17.28125 39.59375 17.28125 37.203125 
Q 17.28125 36.8125 17.390625 36.625 
L 28.609375 8.40625 
L 38.71875 33.890625 
Q 39.015625 34.671875 39.015625 35.5 
Q 39.015625 37.40625 37.578125 38.5 
Q 36.140625 39.59375 34.1875 39.59375 
L 34.1875 43.109375 
L 50.78125 43.109375 
L 50.78125 39.59375 
Q 47.703125 39.59375 45.375 38.171875 
Q 43.0625 36.765625 41.796875 33.984375 
L 28.328125 0 
Q 27.9375 -1.125 26.703125 -1.125 
L 25.984375 -1.125 
Q 24.75 -1.125 24.421875 0 
z
" id="Cmr10-118"/>
      <path d="M 3.078125 0 
L 3.078125 3.515625 
Q 6.5 3.515625 8.6875 4.046875 
Q 10.890625 4.59375 10.890625 6.6875 
L 10.890625 33.984375 
Q 10.890625 37.84375 9.390625 38.71875 
Q 7.90625 39.59375 3.515625 39.59375 
L 3.515625 43.109375 
L 17.921875 44.1875 
L 17.921875 6.6875 
Q 17.921875 4.59375 19.828125 4.046875 
Q 21.734375 3.515625 24.90625 3.515625 
L 24.90625 0 
z
M 7.328125 61.375 
Q 7.328125 63.578125 8.984375 65.234375 
Q 10.640625 66.890625 12.796875 66.890625 
Q 14.203125 66.890625 15.515625 66.15625 
Q 16.84375 65.4375 17.578125 64.109375 
Q 18.3125 62.796875 18.3125 61.375 
Q 18.3125 59.234375 16.640625 57.5625 
Q 14.984375 55.90625 12.796875 55.90625 
Q 10.640625 55.90625 8.984375 57.5625 
Q 7.328125 59.234375 7.328125 61.375 
z
" id="Cmr10-105"/>
      <path d="M 3.328125 -0.296875 
L 3.328125 16.015625 
Q 3.328125 16.796875 4.203125 16.796875 
L 5.421875 16.796875 
Q 6 16.796875 6.203125 16.015625 
Q 8.984375 1.515625 19.671875 1.515625 
Q 24.421875 1.515625 27.609375 3.65625 
Q 30.8125 5.8125 30.8125 10.296875 
Q 30.8125 13.53125 28.3125 15.796875 
Q 25.828125 18.0625 22.40625 18.890625 
L 15.71875 20.21875 
Q 12.359375 20.953125 9.59375 22.453125 
Q 6.84375 23.96875 5.078125 26.484375 
Q 3.328125 29 3.328125 32.328125 
Q 3.328125 36.71875 5.640625 39.515625 
Q 7.953125 42.328125 11.65625 43.578125 
Q 15.375 44.828125 19.671875 44.828125 
Q 24.8125 44.828125 28.609375 42.09375 
L 31.5 44.578125 
Q 31.5 44.828125 31.984375 44.828125 
L 32.71875 44.828125 
Q 33.015625 44.828125 33.25 44.546875 
Q 33.5 44.28125 33.5 44 
L 33.5 30.90625 
Q 33.5 29.984375 32.71875 29.984375 
L 31.5 29.984375 
Q 30.609375 29.984375 30.609375 30.90625 
Q 30.609375 36.140625 27.703125 39.3125 
Q 24.8125 42.484375 19.578125 42.484375 
Q 15.09375 42.484375 11.796875 40.8125 
Q 8.5 39.15625 8.5 35.109375 
Q 8.5 32.328125 10.859375 30.546875 
Q 13.234375 28.765625 16.40625 27.984375 
L 23.1875 26.703125 
Q 26.609375 25.921875 29.5625 24.0625 
Q 32.515625 22.21875 34.25 19.375 
Q 35.984375 16.546875 35.984375 12.984375 
Q 35.984375 9.375 34.734375 6.703125 
Q 33.5 4.046875 31.265625 2.28125 
Q 29.046875 0.53125 26.015625 -0.296875 
Q 23 -1.125 19.671875 -1.125 
Q 13.421875 -1.125 8.984375 3.078125 
L 5.328125 -0.875 
Q 5.328125 -1.125 4.78125 -1.125 
L 4.203125 -1.125 
Q 3.328125 -1.125 3.328125 -0.296875 
z
" id="Cmr10-115"/>
      <path d="M 10.203125 12.015625 
L 10.203125 39.59375 
L 1.90625 39.59375 
L 1.90625 42.1875 
Q 8.453125 42.1875 11.515625 48.28125 
Q 14.59375 54.390625 14.59375 61.53125 
L 17.484375 61.53125 
L 17.484375 43.109375 
L 31.59375 43.109375 
L 31.59375 39.59375 
L 17.484375 39.59375 
L 17.484375 12.203125 
Q 17.484375 8.0625 18.875 4.9375 
Q 20.265625 1.8125 23.875 1.8125 
Q 27.296875 1.8125 28.8125 5.109375 
Q 30.328125 8.40625 30.328125 12.203125 
L 30.328125 18.109375 
L 33.203125 18.109375 
L 33.203125 12.015625 
Q 33.203125 8.890625 32.046875 5.828125 
Q 30.90625 2.78125 28.65625 0.828125 
Q 26.421875 -1.125 23.1875 -1.125 
Q 17.1875 -1.125 13.6875 2.46875 
Q 10.203125 6.0625 10.203125 12.015625 
z
" id="Cmr10-116"/>
     </defs>
     <use transform="translate(0 0.109375)" xlink:href="#Cmr10-118"/>
     <use transform="translate(52.685547 0.109375)" xlink:href="#Cmr10-105"/>
     <use transform="translate(80.371094 0.109375)" xlink:href="#Cmr10-115"/>
     <use transform="translate(119.775391 0.109375)" xlink:href="#Cmr10-105"/>
     <use transform="translate(147.460938 0.109375)" xlink:href="#Cmr10-116"/>
     <use transform="translate(186.279297 0.109375)" xlink:href="#Cmr10-101"/>
    </g>
   </g>
   <g id="text_9">
    <g id="patch_12">
     <path d="M 109.585714 214.479231 
L 193.175714 214.479231 
L 193.175714 190.169231 
L 109.585714 190.169231 
z
" style="fill:#ffffff;"/>
    </g>
    <!-- $q^{\langle 2 \rangle}, k^{\langle 2 \rangle},v^{\langle 2 \rangle}$ -->
    <g transform="translate(113.485714 207.875637)scale(0.13 -0.13)">
     <use transform="translate(0 0.597135)" xlink:href="#Cmmi10-113"/>
     <use transform="translate(50.883359 104.202344)scale(0.7)" xlink:href="#Cmex10-173"/>
     <use transform="translate(83.935117 38.861198)scale(0.7)" xlink:href="#Cmr10-50"/>
     <use transform="translate(118.935117 104.202344)scale(0.7)" xlink:href="#Cmex10-174"/>
     <use transform="translate(158.364219 0.597135)" xlink:href="#Cmmi10-59"/>
     <use transform="translate(203.608359 0.597135)" xlink:href="#Cmmi10-107"/>
     <use transform="translate(267.20625 104.202344)scale(0.7)" xlink:href="#Cmex10-173"/>
     <use transform="translate(300.258008 38.861198)scale(0.7)" xlink:href="#Cmr10-50"/>
     <use transform="translate(335.258008 104.202344)scale(0.7)" xlink:href="#Cmex10-174"/>
     <use transform="translate(374.687109 0.597135)" xlink:href="#Cmmi10-59"/>
     <use transform="translate(419.93125 0.597135)" xlink:href="#Cmmi10-118"/>
     <use transform="translate(474.642891 104.202344)scale(0.7)" xlink:href="#Cmex10-173"/>
     <use transform="translate(507.694648 38.861198)scale(0.7)" xlink:href="#Cmr10-50"/>
     <use transform="translate(542.694648 104.202344)scale(0.7)" xlink:href="#Cmex10-174"/>
    </g>
   </g>
   <g id="patch_13">
    <path d="M 151.380714 217.599188 
Q 151.380714 229.046409 151.380714 241.611664 
" style="fill:none;stroke:#000000;stroke-linecap:round;"/>
    <path d="M 148.780714 222.799188 
L 151.380714 217.599188 
L 153.980714 222.799188 
" style="fill:none;stroke:#000000;stroke-linecap:round;"/>
   </g>
   <g id="text_10">
    <g id="patch_14">
     <path d="M 137.927857 162.21 
L 207.347857 162.21 
L 207.347857 137.9 
L 137.927857 137.9 
z
" style="fill:#ffffff;stroke:#000000;stroke-linejoin:miter;"/>
    </g>
    <!-- $\left \langle q^{\langle 3 \rangle}, k^{\langle 2 \rangle} \right \rangle$ -->
    <g transform="translate(141.827857 155.606406)scale(0.13 -0.13)">
     <use transform="translate(0 102.796875)scale(1.048143)" xlink:href="#Cmex10-173"/>
     <use transform="translate(49.489105 0.59375)" xlink:href="#Cmmi10-113"/>
     <use transform="translate(100.372465 104.198958)scale(0.7)" xlink:href="#Cmex10-173"/>
     <use transform="translate(133.424222 38.857812)scale(0.7)" xlink:href="#Cmr10-51"/>
     <use transform="translate(168.424222 104.198958)scale(0.7)" xlink:href="#Cmex10-174"/>
     <use transform="translate(207.853324 0.59375)" xlink:href="#Cmmi10-59"/>
     <use transform="translate(253.097465 0.59375)" xlink:href="#Cmmi10-107"/>
     <use transform="translate(316.695355 104.198958)scale(0.7)" xlink:href="#Cmex10-173"/>
     <use transform="translate(349.747113 38.857812)scale(0.7)" xlink:href="#Cmr10-50"/>
     <use transform="translate(384.747113 104.198958)scale(0.7)" xlink:href="#Cmex10-174"/>
     <use transform="translate(424.176215 102.796875)scale(1.048143)" xlink:href="#Cmex10-174"/>
    </g>
   </g>
   <g id="patch_15">
    <path d="M 170.749387 164.693879 
Q 162.009002 176.189988 152.59195 188.576109 
" style="fill:none;stroke:#000000;stroke-linecap:round;"/>
    <path d="M 165.53246 167.259745 
L 170.749387 164.693879 
L 169.671923 170.406941 
" style="fill:none;stroke:#000000;stroke-linecap:round;"/>
   </g>
   <g id="text_11">
    <g id="patch_16">
     <path d="M 172.637857 107.97655 
C 175.340484 107.97655 177.932782 106.902785 179.843828 104.99174 
C 181.754873 103.080694 182.828638 100.488396 182.828638 97.785769 
C 182.828638 95.083142 181.754873 92.490844 179.843828 90.579799 
C 177.932782 88.668753 175.340484 87.594988 172.637857 87.594988 
C 169.93523 87.594988 167.342932 88.668753 165.431887 90.579799 
C 163.520841 92.490844 162.447076 95.083142 162.447076 97.785769 
C 162.447076 100.488396 163.520841 103.080694 165.431887 104.99174 
C 167.342932 106.902785 169.93523 107.97655 172.637857 107.97655 
z
" style="fill:#ffffff;stroke:#000000;stroke-linejoin:miter;"/>
    </g>
    <!-- $\times$ -->
    <g transform="translate(167.567857 101.372957)scale(0.13 -0.13)">
     <use transform="translate(0 0.875)" xlink:href="#Cmsy10-163"/>
    </g>
   </g>
   <g id="text_12">
    <!-- $v^{ \; \langle 2 \rangle}$ -->
    <g transform="translate(143.256295 95.041613)scale(0.1 -0.1)">
     <use transform="translate(0 0.597135)" xlink:href="#Cmmi10-118"/>
     <use transform="translate(71.782632 104.202344)scale(0.7)" xlink:href="#Cmex10-173"/>
     <use transform="translate(104.83439 38.861198)scale(0.7)" xlink:href="#Cmr10-50"/>
     <use transform="translate(139.83439 104.202344)scale(0.7)" xlink:href="#Cmex10-174"/>
    </g>
   </g>
   <g id="patch_17">
    <path d="M 172.637857 111.092647 
Q 172.637857 122.936806 172.637857 135.898999 
" style="fill:none;stroke:#000000;stroke-linecap:round;"/>
    <path d="M 170.037857 116.292647 
L 172.637857 111.092647 
L 175.237857 116.292647 
" style="fill:none;stroke:#000000;stroke-linecap:round;"/>
   </g>
   <g id="text_13">
    <g id="patch_18">
     <path d="M 241.546429 265.578462 
L 273.786429 265.578462 
L 273.786429 243.608462 
L 241.546429 243.608462 
z
" style="fill:#ffffff;"/>
    </g>
    <!-- $x^{ \; \langle 3 \rangle}$ -->
    <g transform="translate(245.446429 258.974868)scale(0.13 -0.13)">
     <use transform="translate(0 0.597135)" xlink:href="#Cmmi10-120"/>
     <use transform="translate(80.454351 104.202344)scale(0.7)" xlink:href="#Cmex10-173"/>
     <use transform="translate(113.506109 38.861198)scale(0.7)" xlink:href="#Cmr10-51"/>
     <use transform="translate(148.506109 104.202344)scale(0.7)" xlink:href="#Cmex10-174"/>
    </g>
   </g>
   <g id="text_14">
    <g id="patch_19">
     <path d="M 228.871429 285.836154 
L 286.461429 285.836154 
L 286.461429 265.166154 
L 228.871429 265.166154 
z
" style="fill:#ffffff;"/>
    </g>
    <!-- $\mathrm{l'Afrique}$ -->
    <g transform="translate(232.771429 279.23256)scale(0.13 -0.13)">
     <defs>
      <path d="M 3.078125 0 
L 3.078125 3.515625 
Q 6.5 3.515625 8.6875 4.046875 
Q 10.890625 4.59375 10.890625 6.6875 
L 10.890625 59.1875 
Q 10.890625 61.859375 10.078125 63.0625 
Q 9.28125 64.265625 7.765625 64.53125 
Q 6.25 64.796875 3.078125 64.796875 
L 3.078125 68.3125 
L 17.921875 69.390625 
L 17.921875 6.6875 
Q 17.921875 4.59375 20.109375 4.046875 
Q 22.3125 3.515625 25.6875 3.515625 
L 25.6875 0 
z
" id="Cmr10-108"/>
      <path d="M 3.515625 5.421875 
Q 2.875 5.609375 2.875 6.390625 
L 15.09375 51.8125 
Q 15.671875 53.65625 17.078125 54.78125 
Q 18.5 55.90625 20.3125 55.90625 
Q 22.65625 55.90625 24.4375 54.359375 
Q 26.21875 52.828125 26.21875 50.484375 
Q 26.21875 49.46875 25.6875 48.1875 
L 7.625 4.984375 
Q 7.28125 4.296875 6.6875 4.296875 
Q 6.15625 4.296875 5 4.78125 
Q 3.859375 5.28125 3.515625 5.421875 
z
" id="Cmsy10-48"/>
      <path d="M 3.21875 0 
L 3.21875 3.515625 
Q 12.15625 3.515625 14.203125 9.421875 
L 35.203125 70.515625 
Q 35.5 71.578125 36.8125 71.578125 
L 38.09375 71.578125 
Q 39.40625 71.578125 39.703125 70.515625 
L 61.625 6.6875 
Q 62.546875 4.59375 65.15625 4.046875 
Q 67.78125 3.515625 71.6875 3.515625 
L 71.6875 0 
L 43.796875 0 
L 43.796875 3.515625 
Q 52.09375 3.515625 52.09375 6.203125 
L 52.09375 6.6875 
L 46.6875 22.3125 
L 22.40625 22.3125 
L 17.921875 9.421875 
Q 17.828125 9.078125 17.828125 8.40625 
Q 17.828125 5.90625 20.1875 4.703125 
Q 22.5625 3.515625 25.296875 3.515625 
L 25.296875 0 
z
M 23.578125 25.78125 
L 45.515625 25.78125 
L 34.515625 57.71875 
z
" id="Cmr10-65"/>
      <path d="M 3.21875 0 
L 3.21875 3.515625 
Q 6.59375 3.515625 8.78125 4.046875 
Q 10.984375 4.59375 10.984375 6.6875 
L 10.984375 39.59375 
L 3.328125 39.59375 
L 3.328125 43.109375 
L 10.984375 43.109375 
L 10.984375 55.078125 
Q 10.984375 58.296875 12.328125 61.109375 
Q 13.671875 63.921875 15.9375 66.015625 
Q 18.21875 68.109375 21.171875 69.3125 
Q 24.125 70.515625 27.296875 70.515625 
Q 30.671875 70.515625 33.375 68.5 
Q 36.078125 66.5 36.078125 63.1875 
Q 36.078125 61.28125 34.78125 59.984375 
Q 33.5 58.6875 31.59375 58.6875 
Q 29.6875 58.6875 28.34375 59.984375 
Q 27 61.28125 27 63.1875 
Q 27 66.3125 29.6875 67.390625 
Q 28.078125 67.921875 26.8125 67.921875 
Q 23.875 67.921875 21.796875 65.84375 
Q 19.734375 63.765625 18.703125 60.78125 
Q 17.671875 57.8125 17.671875 54.890625 
L 17.671875 43.109375 
L 29.203125 43.109375 
L 29.203125 39.59375 
L 18.015625 39.59375 
L 18.015625 6.6875 
Q 18.015625 4.640625 20.9375 4.078125 
Q 23.875 3.515625 27.6875 3.515625 
L 27.6875 0 
z
" id="Cmr10-102"/>
      <path d="M 2.59375 0 
L 2.59375 3.515625 
Q 6 3.515625 8.203125 4.046875 
Q 10.40625 4.59375 10.40625 6.6875 
L 10.40625 33.984375 
Q 10.40625 36.671875 9.59375 37.859375 
Q 8.796875 39.0625 7.28125 39.328125 
Q 5.765625 39.59375 2.59375 39.59375 
L 2.59375 43.109375 
L 16.890625 44.1875 
L 16.890625 34.421875 
Q 18.5 38.765625 21.484375 41.46875 
Q 24.46875 44.1875 28.71875 44.1875 
Q 31.6875 44.1875 34.03125 42.421875 
Q 36.375 40.671875 36.375 37.796875 
Q 36.375 35.984375 35.078125 34.640625 
Q 33.796875 33.296875 31.890625 33.296875 
Q 30.03125 33.296875 28.703125 34.609375 
Q 27.390625 35.9375 27.390625 37.796875 
Q 27.390625 40.484375 29.296875 41.609375 
L 28.71875 41.609375 
Q 24.65625 41.609375 22.09375 38.671875 
Q 19.53125 35.75 18.453125 31.390625 
Q 17.390625 27.046875 17.390625 23.09375 
L 17.390625 6.6875 
Q 17.390625 3.515625 27.09375 3.515625 
L 27.09375 0 
z
" id="Cmr10-114"/>
      <path d="M 29.984375 -19.390625 
L 29.984375 -15.921875 
Q 33.40625 -15.921875 35.59375 -15.328125 
Q 37.796875 -14.75 37.796875 -12.703125 
L 37.796875 5.8125 
Q 35.453125 2.6875 31.890625 0.78125 
Q 28.328125 -1.125 24.421875 -1.125 
Q 19.921875 -1.125 16.0625 0.734375 
Q 12.203125 2.59375 9.34375 5.765625 
Q 6.5 8.9375 4.90625 13.109375 
Q 3.328125 17.28125 3.328125 21.578125 
Q 3.328125 27.546875 6.25 32.78125 
Q 9.1875 38.03125 14.28125 41.109375 
Q 19.390625 44.1875 25.296875 44.1875 
Q 29.546875 44.1875 33.15625 41.796875 
Q 36.765625 39.40625 38.921875 35.40625 
L 42.484375 44.1875 
L 45.125 44.1875 
L 45.125 -12.703125 
Q 45.125 -14.75 47.3125 -15.328125 
Q 49.515625 -15.921875 52.875 -15.921875 
L 52.875 -19.390625 
z
M 25 1.515625 
Q 29.4375 1.515625 32.921875 4.46875 
Q 36.421875 7.421875 38.09375 11.921875 
L 38.09375 29.5 
Q 37.0625 34.28125 33.828125 37.796875 
Q 30.609375 41.3125 26.125 41.3125 
Q 22.703125 41.3125 20.015625 39.5 
Q 17.328125 37.703125 15.546875 34.671875 
Q 13.765625 31.640625 12.890625 28.125 
Q 12.015625 24.609375 12.015625 21.484375 
Q 12.015625 17.484375 13.421875 12.765625 
Q 14.84375 8.0625 17.765625 4.78125 
Q 20.703125 1.515625 25 1.515625 
z
" id="Cmr10-113"/>
      <path d="M 10.796875 11.921875 
L 10.796875 33.984375 
Q 10.796875 36.671875 9.984375 37.859375 
Q 9.1875 39.0625 7.671875 39.328125 
Q 6.15625 39.59375 2.984375 39.59375 
L 2.984375 43.109375 
L 18.109375 44.1875 
L 18.109375 11.921875 
Q 18.109375 8.015625 18.671875 5.828125 
Q 19.234375 3.65625 21.0625 2.578125 
Q 22.90625 1.515625 26.90625 1.515625 
Q 32.28125 1.515625 35.453125 6 
Q 38.625 10.5 38.625 16.21875 
L 38.625 33.984375 
Q 38.625 36.671875 37.796875 37.859375 
Q 36.96875 39.0625 35.46875 39.328125 
Q 33.984375 39.59375 30.8125 39.59375 
L 30.8125 43.109375 
L 45.90625 44.1875 
L 45.90625 9.078125 
Q 45.90625 6.453125 46.703125 5.25 
Q 47.515625 4.046875 49.015625 3.78125 
Q 50.53125 3.515625 53.71875 3.515625 
L 53.71875 0 
L 38.921875 -1.125 
L 38.921875 7.328125 
Q 37.0625 3.5625 33.734375 1.21875 
Q 30.421875 -1.125 26.421875 -1.125 
Q 19.234375 -1.125 15.015625 1.921875 
Q 10.796875 4.984375 10.796875 11.921875 
z
" id="Cmr10-117"/>
     </defs>
     <use transform="translate(0 0.715625)" xlink:href="#Cmr10-108"/>
     <use transform="translate(32.253047 39.865625)scale(0.7)" xlink:href="#Cmsy10-48"/>
     <use transform="translate(58.021211 0.715625)" xlink:href="#Cmr10-65"/>
     <use transform="translate(133.021211 0.715625)" xlink:href="#Cmr10-102"/>
     <use transform="translate(163.538789 0.715625)" xlink:href="#Cmr10-114"/>
     <use transform="translate(202.650117 0.715625)" xlink:href="#Cmr10-105"/>
     <use transform="translate(230.335664 0.715625)" xlink:href="#Cmr10-113"/>
     <use transform="translate(283.021211 0.715625)" xlink:href="#Cmr10-117"/>
     <use transform="translate(338.538789 0.715625)" xlink:href="#Cmr10-101"/>
    </g>
   </g>
   <g id="text_15">
    <g id="patch_20">
     <path d="M 215.871429 214.479231 
L 299.461429 214.479231 
L 299.461429 190.169231 
L 215.871429 190.169231 
z
" style="fill:#ffffff;"/>
    </g>
    <!-- $q^{\langle 3 \rangle}, k^{\langle 3 \rangle},v^{\langle 3 \rangle}$ -->
    <g transform="translate(219.771429 207.875637)scale(0.13 -0.13)">
     <use transform="translate(0 0.597135)" xlink:href="#Cmmi10-113"/>
     <use transform="translate(50.883359 104.202344)scale(0.7)" xlink:href="#Cmex10-173"/>
     <use transform="translate(83.935117 38.861198)scale(0.7)" xlink:href="#Cmr10-51"/>
     <use transform="translate(118.935117 104.202344)scale(0.7)" xlink:href="#Cmex10-174"/>
     <use transform="translate(158.364219 0.597135)" xlink:href="#Cmmi10-59"/>
     <use transform="translate(203.608359 0.597135)" xlink:href="#Cmmi10-107"/>
     <use transform="translate(267.20625 104.202344)scale(0.7)" xlink:href="#Cmex10-173"/>
     <use transform="translate(300.258008 38.861198)scale(0.7)" xlink:href="#Cmr10-51"/>
     <use transform="translate(335.258008 104.202344)scale(0.7)" xlink:href="#Cmex10-174"/>
     <use transform="translate(374.687109 0.597135)" xlink:href="#Cmmi10-59"/>
     <use transform="translate(419.93125 0.597135)" xlink:href="#Cmmi10-118"/>
     <use transform="translate(474.642891 104.202344)scale(0.7)" xlink:href="#Cmex10-173"/>
     <use transform="translate(507.694648 38.861198)scale(0.7)" xlink:href="#Cmr10-51"/>
     <use transform="translate(542.694648 104.202344)scale(0.7)" xlink:href="#Cmex10-174"/>
    </g>
   </g>
   <g id="patch_21">
    <path d="M 257.666429 217.599188 
Q 257.666429 229.046409 257.666429 241.611664 
" style="fill:none;stroke:#000000;stroke-linecap:round;"/>
    <path d="M 255.066429 222.799188 
L 257.666429 217.599188 
L 260.266429 222.799188 
" style="fill:none;stroke:#000000;stroke-linecap:round;"/>
   </g>
   <g id="text_16">
    <g id="patch_22">
     <path d="M 222.956429 162.21 
L 292.376429 162.21 
L 292.376429 137.9 
L 222.956429 137.9 
z
" style="fill:#ffffff;stroke:#000000;stroke-linejoin:miter;"/>
    </g>
    <!-- $\left \langle q^{\langle 3 \rangle}, k^{\langle 3 \rangle} \right \rangle$ -->
    <g transform="translate(226.856429 155.606406)scale(0.13 -0.13)">
     <use transform="translate(0 102.796875)scale(1.048143)" xlink:href="#Cmex10-173"/>
     <use transform="translate(49.489105 0.59375)" xlink:href="#Cmmi10-113"/>
     <use transform="translate(100.372465 104.198958)scale(0.7)" xlink:href="#Cmex10-173"/>
     <use transform="translate(133.424222 38.857812)scale(0.7)" xlink:href="#Cmr10-51"/>
     <use transform="translate(168.424222 104.198958)scale(0.7)" xlink:href="#Cmex10-174"/>
     <use transform="translate(207.853324 0.59375)" xlink:href="#Cmmi10-59"/>
     <use transform="translate(253.097465 0.59375)" xlink:href="#Cmmi10-107"/>
     <use transform="translate(316.695355 104.198958)scale(0.7)" xlink:href="#Cmex10-173"/>
     <use transform="translate(349.747113 38.857812)scale(0.7)" xlink:href="#Cmr10-51"/>
     <use transform="translate(384.747113 104.198958)scale(0.7)" xlink:href="#Cmex10-174"/>
     <use transform="translate(424.176215 102.796875)scale(1.048143)" xlink:href="#Cmex10-174"/>
    </g>
   </g>
   <g id="patch_23">
    <path d="M 257.666429 165.324634 
Q 257.666429 176.188012 257.666429 188.169424 
" style="fill:none;stroke:#000000;stroke-linecap:round;"/>
    <path d="M 255.066429 170.524634 
L 257.666429 165.324634 
L 260.266429 170.524634 
" style="fill:none;stroke:#000000;stroke-linecap:round;"/>
   </g>
   <g id="text_17">
    <g id="patch_24">
     <path d="M 257.666429 107.97655 
C 260.369055 107.97655 262.961353 106.902785 264.872399 104.99174 
C 266.783445 103.080694 267.85721 100.488396 267.85721 97.785769 
C 267.85721 95.083142 266.783445 92.490844 264.872399 90.579799 
C 262.961353 88.668753 260.369055 87.594988 257.666429 87.594988 
C 254.963802 87.594988 252.371504 88.668753 250.460458 90.579799 
C 248.549412 92.490844 247.475647 95.083142 247.475647 97.785769 
C 247.475647 100.488396 248.549412 103.080694 250.460458 104.99174 
C 252.371504 106.902785 254.963802 107.97655 257.666429 107.97655 
z
" style="fill:#ffffff;stroke:#000000;stroke-linejoin:miter;"/>
    </g>
    <!-- $\times$ -->
    <g transform="translate(252.596429 101.372957)scale(0.13 -0.13)">
     <use transform="translate(0 0.875)" xlink:href="#Cmsy10-163"/>
    </g>
   </g>
   <g id="text_18">
    <!-- $v^{ \; \langle 3 \rangle}$ -->
    <g transform="translate(228.284866 95.041613)scale(0.1 -0.1)">
     <use transform="translate(0 0.597135)" xlink:href="#Cmmi10-118"/>
     <use transform="translate(71.782632 104.202344)scale(0.7)" xlink:href="#Cmex10-173"/>
     <use transform="translate(104.83439 38.861198)scale(0.7)" xlink:href="#Cmr10-51"/>
     <use transform="translate(139.83439 104.202344)scale(0.7)" xlink:href="#Cmex10-174"/>
    </g>
   </g>
   <g id="patch_25">
    <path d="M 257.666429 111.092647 
Q 257.666429 122.936806 257.666429 135.898999 
" style="fill:none;stroke:#000000;stroke-linecap:round;"/>
    <path d="M 255.066429 116.292647 
L 257.666429 111.092647 
L 260.266429 116.292647 
" style="fill:none;stroke:#000000;stroke-linecap:round;"/>
   </g>
   <g id="text_19">
    <g id="patch_26">
     <path d="M 347.832143 265.578462 
L 380.072143 265.578462 
L 380.072143 243.608462 
L 347.832143 243.608462 
z
" style="fill:#ffffff;"/>
    </g>
    <!-- $x^{ \; \langle 4 \rangle}$ -->
    <g transform="translate(351.732143 258.974868)scale(0.13 -0.13)">
     <defs>
      <path d="M 2.78125 16.5 
L 2.78125 20.015625 
L 33.6875 66.109375 
Q 34.03125 66.609375 34.71875 66.609375 
L 36.1875 66.609375 
Q 37.3125 66.609375 37.3125 65.484375 
L 37.3125 20.015625 
L 47.125 20.015625 
L 47.125 16.5 
L 37.3125 16.5 
L 37.3125 6.6875 
Q 37.3125 4.640625 40.234375 4.078125 
Q 43.171875 3.515625 47.015625 3.515625 
L 47.015625 0 
L 19.484375 0 
L 19.484375 3.515625 
Q 23.34375 3.515625 26.265625 4.078125 
Q 29.203125 4.640625 29.203125 6.6875 
L 29.203125 16.5 
z
M 6.109375 20.015625 
L 29.78125 20.015625 
L 29.78125 55.421875 
z
" id="Cmr10-52"/>
     </defs>
     <use transform="translate(0 0.597135)" xlink:href="#Cmmi10-120"/>
     <use transform="translate(80.454351 104.202344)scale(0.7)" xlink:href="#Cmex10-173"/>
     <use transform="translate(113.506109 38.861198)scale(0.7)" xlink:href="#Cmr10-52"/>
     <use transform="translate(148.506109 104.202344)scale(0.7)" xlink:href="#Cmex10-174"/>
    </g>
   </g>
   <g id="text_20">
    <g id="patch_27">
     <path d="M 353.552143 285.691935 
L 374.352143 285.691935 
L 374.352143 265.310373 
L 353.552143 265.310373 
z
" style="fill:#ffffff;"/>
    </g>
    <!-- $\mathrm{en}$ -->
    <g transform="translate(357.452143 279.088341)scale(0.13 -0.13)">
     <use transform="translate(0 0.171875)" xlink:href="#Cmr10-101"/>
     <use transform="translate(44.384766 0.171875)" xlink:href="#Cmr10-110"/>
    </g>
   </g>
   <g id="text_21">
    <g id="patch_28">
     <path d="M 322.157143 214.479231 
L 405.747143 214.479231 
L 405.747143 190.169231 
L 322.157143 190.169231 
z
" style="fill:#ffffff;"/>
    </g>
    <!-- $q^{\langle 4 \rangle}, k^{\langle 4 \rangle},v^{\langle 4 \rangle}$ -->
    <g transform="translate(326.057143 207.875637)scale(0.13 -0.13)">
     <use transform="translate(0 0.597135)" xlink:href="#Cmmi10-113"/>
     <use transform="translate(50.883359 104.202344)scale(0.7)" xlink:href="#Cmex10-173"/>
     <use transform="translate(83.935117 38.861198)scale(0.7)" xlink:href="#Cmr10-52"/>
     <use transform="translate(118.935117 104.202344)scale(0.7)" xlink:href="#Cmex10-174"/>
     <use transform="translate(158.364219 0.597135)" xlink:href="#Cmmi10-59"/>
     <use transform="translate(203.608359 0.597135)" xlink:href="#Cmmi10-107"/>
     <use transform="translate(267.20625 104.202344)scale(0.7)" xlink:href="#Cmex10-173"/>
     <use transform="translate(300.258008 38.861198)scale(0.7)" xlink:href="#Cmr10-52"/>
     <use transform="translate(335.258008 104.202344)scale(0.7)" xlink:href="#Cmex10-174"/>
     <use transform="translate(374.687109 0.597135)" xlink:href="#Cmmi10-59"/>
     <use transform="translate(419.93125 0.597135)" xlink:href="#Cmmi10-118"/>
     <use transform="translate(474.642891 104.202344)scale(0.7)" xlink:href="#Cmex10-173"/>
     <use transform="translate(507.694648 38.861198)scale(0.7)" xlink:href="#Cmr10-52"/>
     <use transform="translate(542.694648 104.202344)scale(0.7)" xlink:href="#Cmex10-174"/>
    </g>
   </g>
   <g id="patch_29">
    <path d="M 363.952143 217.599188 
Q 363.952143 229.046409 363.952143 241.611664 
" style="fill:none;stroke:#000000;stroke-linecap:round;"/>
    <path d="M 361.352143 222.799188 
L 363.952143 217.599188 
L 366.552143 222.799188 
" style="fill:none;stroke:#000000;stroke-linecap:round;"/>
   </g>
   <g id="text_22">
    <g id="patch_30">
     <path d="M 307.985 162.21 
L 377.405 162.21 
L 377.405 137.9 
L 307.985 137.9 
z
" style="fill:#ffffff;stroke:#000000;stroke-linejoin:miter;"/>
    </g>
    <!-- $\left \langle q^{\langle 3 \rangle}, k^{\langle 4 \rangle} \right \rangle$ -->
    <g transform="translate(311.885 155.606406)scale(0.13 -0.13)">
     <use transform="translate(0 102.796875)scale(1.048143)" xlink:href="#Cmex10-173"/>
     <use transform="translate(49.489105 0.59375)" xlink:href="#Cmmi10-113"/>
     <use transform="translate(100.372465 104.198958)scale(0.7)" xlink:href="#Cmex10-173"/>
     <use transform="translate(133.424222 38.857812)scale(0.7)" xlink:href="#Cmr10-51"/>
     <use transform="translate(168.424222 104.198958)scale(0.7)" xlink:href="#Cmex10-174"/>
     <use transform="translate(207.853324 0.59375)" xlink:href="#Cmmi10-59"/>
     <use transform="translate(253.097465 0.59375)" xlink:href="#Cmmi10-107"/>
     <use transform="translate(316.695355 104.198958)scale(0.7)" xlink:href="#Cmex10-173"/>
     <use transform="translate(349.747113 38.857812)scale(0.7)" xlink:href="#Cmr10-52"/>
     <use transform="translate(384.747113 104.198958)scale(0.7)" xlink:href="#Cmex10-174"/>
     <use transform="translate(424.176215 102.796875)scale(1.048143)" xlink:href="#Cmex10-174"/>
    </g>
   </g>
   <g id="patch_31">
    <path d="M 344.58347 164.693879 
Q 353.323855 176.189988 362.740907 188.576109 
" style="fill:none;stroke:#000000;stroke-linecap:round;"/>
    <path d="M 345.660934 170.406941 
L 344.58347 164.693879 
L 349.800398 167.259745 
" style="fill:none;stroke:#000000;stroke-linecap:round;"/>
   </g>
   <g id="text_23">
    <g id="patch_32">
     <path d="M 342.695 107.97655 
C 345.397627 107.97655 347.989925 106.902785 349.900971 104.99174 
C 351.812016 103.080694 352.885781 100.488396 352.885781 97.785769 
C 352.885781 95.083142 351.812016 92.490844 349.900971 90.579799 
C 347.989925 88.668753 345.397627 87.594988 342.695 87.594988 
C 339.992373 87.594988 337.400075 88.668753 335.489029 90.579799 
C 333.577984 92.490844 332.504219 95.083142 332.504219 97.785769 
C 332.504219 100.488396 333.577984 103.080694 335.489029 104.99174 
C 337.400075 106.902785 339.992373 107.97655 342.695 107.97655 
z
" style="fill:#ffffff;stroke:#000000;stroke-linejoin:miter;"/>
    </g>
    <!-- $\times$ -->
    <g transform="translate(337.625 101.372957)scale(0.13 -0.13)">
     <use transform="translate(0 0.875)" xlink:href="#Cmsy10-163"/>
    </g>
   </g>
   <g id="text_24">
    <!-- $v^{ \; \langle 4 \rangle}$ -->
    <g transform="translate(354.076563 95.041613)scale(0.1 -0.1)">
     <use transform="translate(0 0.597135)" xlink:href="#Cmmi10-118"/>
     <use transform="translate(71.782632 104.202344)scale(0.7)" xlink:href="#Cmex10-173"/>
     <use transform="translate(104.83439 38.861198)scale(0.7)" xlink:href="#Cmr10-52"/>
     <use transform="translate(139.83439 104.202344)scale(0.7)" xlink:href="#Cmex10-174"/>
    </g>
   </g>
   <g id="patch_33">
    <path d="M 342.695 111.092647 
Q 342.695 122.936806 342.695 135.898999 
" style="fill:none;stroke:#000000;stroke-linecap:round;"/>
    <path d="M 340.095 116.292647 
L 342.695 111.092647 
L 345.295 116.292647 
" style="fill:none;stroke:#000000;stroke-linecap:round;"/>
   </g>
   <g id="text_25">
    <g id="patch_34">
     <path d="M 454.117857 265.578462 
L 486.357857 265.578462 
L 486.357857 243.608462 
L 454.117857 243.608462 
z
" style="fill:#ffffff;"/>
    </g>
    <!-- $x^{ \; \langle 5 \rangle}$ -->
    <g transform="translate(458.017857 258.974868)scale(0.13 -0.13)">
     <defs>
      <path d="M 8.6875 11.375 
Q 9.71875 8.453125 11.84375 6.046875 
Q 13.96875 3.65625 16.875 2.3125 
Q 19.78125 0.984375 22.90625 0.984375 
Q 30.125 0.984375 32.859375 6.59375 
Q 35.59375 12.203125 35.59375 20.21875 
Q 35.59375 23.6875 35.46875 26.046875 
Q 35.359375 28.421875 34.8125 30.609375 
Q 33.890625 34.125 31.5625 36.765625 
Q 29.25 39.40625 25.875 39.40625 
Q 22.515625 39.40625 20.09375 38.375 
Q 17.671875 37.359375 16.15625 35.984375 
Q 14.65625 34.625 13.484375 33.109375 
Q 12.3125 31.59375 12.015625 31.5 
L 10.890625 31.5 
Q 10.640625 31.5 10.265625 31.8125 
Q 9.90625 32.125 9.90625 32.421875 
L 9.90625 65.828125 
Q 9.90625 66.0625 10.21875 66.328125 
Q 10.546875 66.609375 10.890625 66.609375 
L 11.1875 66.609375 
Q 17.921875 63.375 25.484375 63.375 
Q 32.90625 63.375 39.796875 66.609375 
L 40.09375 66.609375 
Q 40.4375 66.609375 40.71875 66.359375 
Q 41.015625 66.109375 41.015625 65.828125 
L 41.015625 64.890625 
Q 41.015625 64.40625 40.828125 64.40625 
Q 37.40625 59.859375 32.25 57.3125 
Q 27.09375 54.78125 21.578125 54.78125 
Q 17.578125 54.78125 13.375 55.90625 
L 13.375 37.015625 
Q 16.703125 39.703125 19.3125 40.84375 
Q 21.921875 42 25.984375 42 
Q 31.5 42 35.859375 38.8125 
Q 40.234375 35.640625 42.578125 30.53125 
Q 44.921875 25.4375 44.921875 20.125 
Q 44.921875 14.109375 41.96875 8.984375 
Q 39.015625 3.859375 33.9375 0.828125 
Q 28.859375 -2.203125 22.90625 -2.203125 
Q 17.96875 -2.203125 13.84375 0.328125 
Q 9.71875 2.875 7.34375 7.171875 
Q 4.984375 11.46875 4.984375 16.3125 
Q 4.984375 18.5625 6.4375 19.96875 
Q 7.90625 21.390625 10.109375 21.390625 
Q 12.3125 21.390625 13.796875 19.9375 
Q 15.28125 18.5 15.28125 16.3125 
Q 15.28125 14.15625 13.796875 12.671875 
Q 12.3125 11.1875 10.109375 11.1875 
Q 9.765625 11.1875 9.328125 11.25 
Q 8.890625 11.328125 8.6875 11.375 
z
" id="Cmr10-53"/>
     </defs>
     <use transform="translate(0 0.597135)" xlink:href="#Cmmi10-120"/>
     <use transform="translate(80.454351 104.202344)scale(0.7)" xlink:href="#Cmex10-173"/>
     <use transform="translate(113.506109 38.861198)scale(0.7)" xlink:href="#Cmr10-53"/>
     <use transform="translate(148.506109 104.202344)scale(0.7)" xlink:href="#Cmex10-174"/>
    </g>
   </g>
   <g id="text_26">
    <g id="patch_35">
     <path d="M 437.412857 285.691935 
L 503.062857 285.691935 
L 503.062857 265.310373 
L 437.412857 265.310373 
z
" style="fill:#ffffff;"/>
    </g>
    <!-- $\mathrm{septembre}$ -->
    <g transform="translate(441.312857 279.088341)scale(0.13 -0.13)">
     <defs>
      <path d="M 2.59375 -19.390625 
L 2.59375 -15.921875 
Q 6 -15.921875 8.203125 -15.328125 
Q 10.40625 -14.75 10.40625 -12.703125 
L 10.40625 35.5 
Q 10.40625 38.234375 8.453125 38.90625 
Q 6.5 39.59375 2.59375 39.59375 
L 2.59375 43.109375 
L 17.390625 44.1875 
L 17.390625 37.984375 
Q 20.125 41.015625 23.75 42.59375 
Q 27.390625 44.1875 31.5 44.1875 
Q 37.40625 44.1875 42.140625 40.984375 
Q 46.875 37.796875 49.53125 32.59375 
Q 52.203125 27.390625 52.203125 21.578125 
Q 52.203125 15.53125 49.25 10.296875 
Q 46.296875 5.078125 41.1875 1.96875 
Q 36.078125 -1.125 29.984375 -1.125 
Q 22.703125 -1.125 17.671875 4.78125 
L 17.671875 -12.703125 
Q 17.671875 -14.75 19.890625 -15.328125 
Q 22.125 -15.921875 25.484375 -15.921875 
L 25.484375 -19.390625 
z
M 17.671875 9.71875 
Q 19.4375 6.15625 22.5625 3.828125 
Q 25.6875 1.515625 29.390625 1.515625 
Q 32.859375 1.515625 35.515625 3.359375 
Q 38.1875 5.21875 39.984375 8.34375 
Q 41.796875 11.46875 42.640625 14.90625 
Q 43.5 18.359375 43.5 21.578125 
Q 43.5 25.59375 42.0625 30.25 
Q 40.625 34.90625 37.671875 38.109375 
Q 34.71875 41.3125 30.515625 41.3125 
Q 26.46875 41.3125 23.0625 39.234375 
Q 19.671875 37.15625 17.671875 33.59375 
z
" id="Cmr10-112"/>
      <path d="M 2.984375 0 
L 2.984375 3.515625 
Q 6.390625 3.515625 8.59375 4.046875 
Q 10.796875 4.59375 10.796875 6.6875 
L 10.796875 33.984375 
Q 10.796875 36.671875 9.984375 37.859375 
Q 9.1875 39.0625 7.671875 39.328125 
Q 6.15625 39.59375 2.984375 39.59375 
L 2.984375 43.109375 
L 17.484375 44.1875 
L 17.484375 34.421875 
Q 19.484375 38.71875 23.40625 41.453125 
Q 27.34375 44.1875 31.984375 44.1875 
Q 43.5 44.1875 45.515625 34.8125 
Q 47.515625 39.015625 51.359375 41.59375 
Q 55.21875 44.1875 59.8125 44.1875 
Q 64.359375 44.1875 67.453125 42.71875 
Q 70.5625 41.265625 72.125 38.25 
Q 73.6875 35.25 73.6875 30.71875 
L 73.6875 6.6875 
Q 73.6875 4.59375 75.90625 4.046875 
Q 78.125 3.515625 81.5 3.515625 
L 81.5 0 
L 58.59375 0 
L 58.59375 3.515625 
Q 62.015625 3.515625 64.203125 4.046875 
Q 66.40625 4.59375 66.40625 6.6875 
L 66.40625 30.421875 
Q 66.40625 35.453125 64.984375 38.53125 
Q 63.578125 41.609375 59.1875 41.609375 
Q 53.421875 41.609375 49.65625 36.96875 
Q 45.90625 32.328125 45.90625 26.421875 
L 45.90625 6.6875 
Q 45.90625 4.59375 48.09375 4.046875 
Q 50.296875 3.515625 53.71875 3.515625 
L 53.71875 0 
L 30.8125 0 
L 30.8125 3.515625 
Q 34.234375 3.515625 36.421875 4.046875 
Q 38.625 4.59375 38.625 6.6875 
L 38.625 30.421875 
Q 38.625 35.296875 37.203125 38.453125 
Q 35.796875 41.609375 31.390625 41.609375 
Q 25.59375 41.609375 21.84375 36.96875 
Q 18.109375 32.328125 18.109375 26.421875 
L 18.109375 6.6875 
Q 18.109375 4.59375 20.3125 4.046875 
Q 22.515625 3.515625 25.875 3.515625 
L 25.875 0 
z
" id="Cmr10-109"/>
      <path d="M 10.40625 0 
L 10.40625 59.1875 
Q 10.40625 61.859375 9.59375 63.0625 
Q 8.796875 64.265625 7.28125 64.53125 
Q 5.765625 64.796875 2.59375 64.796875 
L 2.59375 68.3125 
L 17.390625 69.390625 
L 17.390625 38.09375 
Q 19.046875 39.9375 21.265625 41.328125 
Q 23.484375 42.71875 26.015625 43.453125 
Q 28.5625 44.1875 31.203125 44.1875 
Q 35.6875 44.1875 39.515625 42.375 
Q 43.359375 40.578125 46.1875 37.40625 
Q 49.03125 34.234375 50.609375 30.109375 
Q 52.203125 25.984375 52.203125 21.578125 
Q 52.203125 15.53125 49.25 10.296875 
Q 46.296875 5.078125 41.1875 1.96875 
Q 36.078125 -1.125 29.984375 -1.125 
Q 26.171875 -1.125 22.609375 0.828125 
Q 19.046875 2.78125 16.703125 6 
L 13.28125 0 
z
M 17.671875 9.8125 
Q 19.34375 6.15625 22.46875 3.828125 
Q 25.59375 1.515625 29.390625 1.515625 
Q 34.578125 1.515625 37.765625 4.484375 
Q 40.96875 7.46875 42.234375 12 
Q 43.5 16.546875 43.5 21.578125 
Q 43.5 30.03125 41.3125 34.421875 
Q 40.328125 36.375 38.640625 38.03125 
Q 36.96875 39.703125 34.890625 40.65625 
Q 32.8125 41.609375 30.515625 41.609375 
Q 26.515625 41.609375 23.09375 39.484375 
Q 19.671875 37.359375 17.671875 33.796875 
z
" id="Cmr10-98"/>
     </defs>
     <use transform="translate(0 0.609375)" xlink:href="#Cmr10-115"/>
     <use transform="translate(39.404297 0.609375)" xlink:href="#Cmr10-101"/>
     <use transform="translate(83.789062 0.609375)" xlink:href="#Cmr10-112"/>
     <use transform="translate(139.306641 0.609375)" xlink:href="#Cmr10-116"/>
     <use transform="translate(178.125 0.609375)" xlink:href="#Cmr10-101"/>
     <use transform="translate(222.509766 0.609375)" xlink:href="#Cmr10-109"/>
     <use transform="translate(305.810547 0.609375)" xlink:href="#Cmr10-98"/>
     <use transform="translate(361.328125 0.609375)" xlink:href="#Cmr10-114"/>
     <use transform="translate(400.439453 0.609375)" xlink:href="#Cmr10-101"/>
    </g>
   </g>
   <g id="text_27">
    <g id="patch_36">
     <path d="M 428.442857 214.479231 
L 512.032857 214.479231 
L 512.032857 190.169231 
L 428.442857 190.169231 
z
" style="fill:#ffffff;"/>
    </g>
    <!-- $q^{\langle 5 \rangle}, k^{\langle 5 \rangle},v^{\langle 5 \rangle}$ -->
    <g transform="translate(432.342857 207.875637)scale(0.13 -0.13)">
     <use transform="translate(0 0.597135)" xlink:href="#Cmmi10-113"/>
     <use transform="translate(50.883359 104.202344)scale(0.7)" xlink:href="#Cmex10-173"/>
     <use transform="translate(83.935117 38.861198)scale(0.7)" xlink:href="#Cmr10-53"/>
     <use transform="translate(118.935117 104.202344)scale(0.7)" xlink:href="#Cmex10-174"/>
     <use transform="translate(158.364219 0.597135)" xlink:href="#Cmmi10-59"/>
     <use transform="translate(203.608359 0.597135)" xlink:href="#Cmmi10-107"/>
     <use transform="translate(267.20625 104.202344)scale(0.7)" xlink:href="#Cmex10-173"/>
     <use transform="translate(300.258008 38.861198)scale(0.7)" xlink:href="#Cmr10-53"/>
     <use transform="translate(335.258008 104.202344)scale(0.7)" xlink:href="#Cmex10-174"/>
     <use transform="translate(374.687109 0.597135)" xlink:href="#Cmmi10-59"/>
     <use transform="translate(419.93125 0.597135)" xlink:href="#Cmmi10-118"/>
     <use transform="translate(474.642891 104.202344)scale(0.7)" xlink:href="#Cmex10-173"/>
     <use transform="translate(507.694648 38.861198)scale(0.7)" xlink:href="#Cmr10-53"/>
     <use transform="translate(542.694648 104.202344)scale(0.7)" xlink:href="#Cmex10-174"/>
    </g>
   </g>
   <g id="patch_37">
    <path d="M 470.237857 217.599188 
Q 470.237857 229.046409 470.237857 241.611664 
" style="fill:none;stroke:#000000;stroke-linecap:round;"/>
    <path d="M 467.637857 222.799188 
L 470.237857 217.599188 
L 472.837857 222.799188 
" style="fill:none;stroke:#000000;stroke-linecap:round;"/>
   </g>
   <g id="text_28">
    <g id="patch_38">
     <path d="M 393.013571 162.21 
L 462.433571 162.21 
L 462.433571 137.9 
L 393.013571 137.9 
z
" style="fill:#ffffff;stroke:#000000;stroke-linejoin:miter;"/>
    </g>
    <!-- $\left \langle q^{\langle 3 \rangle}, k^{\langle 5 \rangle} \right \rangle$ -->
    <g transform="translate(396.913571 155.606406)scale(0.13 -0.13)">
     <use transform="translate(0 102.796875)scale(1.048143)" xlink:href="#Cmex10-173"/>
     <use transform="translate(49.489105 0.59375)" xlink:href="#Cmmi10-113"/>
     <use transform="translate(100.372465 104.198958)scale(0.7)" xlink:href="#Cmex10-173"/>
     <use transform="translate(133.424222 38.857812)scale(0.7)" xlink:href="#Cmr10-51"/>
     <use transform="translate(168.424222 104.198958)scale(0.7)" xlink:href="#Cmex10-174"/>
     <use transform="translate(207.853324 0.59375)" xlink:href="#Cmmi10-59"/>
     <use transform="translate(253.097465 0.59375)" xlink:href="#Cmmi10-107"/>
     <use transform="translate(316.695355 104.198958)scale(0.7)" xlink:href="#Cmex10-173"/>
     <use transform="translate(349.747113 38.857812)scale(0.7)" xlink:href="#Cmr10-53"/>
     <use transform="translate(384.747113 104.198958)scale(0.7)" xlink:href="#Cmex10-174"/>
     <use transform="translate(424.176215 102.796875)scale(1.048143)" xlink:href="#Cmex10-174"/>
    </g>
   </g>
   <g id="patch_39">
    <path d="M 430.326203 163.921603 
Q 448.978553 176.188194 468.565035 189.06911 
" style="fill:none;stroke:#000000;stroke-linecap:round;"/>
    <path d="M 433.242252 168.951181 
L 430.326203 163.921603 
L 436.099495 164.606511 
" style="fill:none;stroke:#000000;stroke-linecap:round;"/>
   </g>
   <g id="text_29">
    <g id="patch_40">
     <path d="M 427.723571 107.97655 
C 430.426198 107.97655 433.018496 106.902785 434.929542 104.99174 
C 436.840588 103.080694 437.914353 100.488396 437.914353 97.785769 
C 437.914353 95.083142 436.840588 92.490844 434.929542 90.579799 
C 433.018496 88.668753 430.426198 87.594988 427.723571 87.594988 
C 425.020945 87.594988 422.428647 88.668753 420.517601 90.579799 
C 418.606555 92.490844 417.53279 95.083142 417.53279 97.785769 
C 417.53279 100.488396 418.606555 103.080694 420.517601 104.99174 
C 422.428647 106.902785 425.020945 107.97655 427.723571 107.97655 
z
" style="fill:#ffffff;stroke:#000000;stroke-linejoin:miter;"/>
    </g>
    <!-- $\times$ -->
    <g transform="translate(422.653571 101.372957)scale(0.13 -0.13)">
     <use transform="translate(0 0.875)" xlink:href="#Cmsy10-163"/>
    </g>
   </g>
   <g id="text_30">
    <!-- $v^{ \; \langle 5 \rangle}$ -->
    <g transform="translate(439.105134 95.041613)scale(0.1 -0.1)">
     <use transform="translate(0 0.597135)" xlink:href="#Cmmi10-118"/>
     <use transform="translate(71.782632 104.202344)scale(0.7)" xlink:href="#Cmex10-173"/>
     <use transform="translate(104.83439 38.861198)scale(0.7)" xlink:href="#Cmr10-53"/>
     <use transform="translate(139.83439 104.202344)scale(0.7)" xlink:href="#Cmex10-174"/>
    </g>
   </g>
   <g id="patch_41">
    <path d="M 427.723571 111.092647 
Q 427.723571 122.936806 427.723571 135.898999 
" style="fill:none;stroke:#000000;stroke-linecap:round;"/>
    <path d="M 425.123571 116.292647 
L 427.723571 111.092647 
L 430.323571 116.292647 
" style="fill:none;stroke:#000000;stroke-linecap:round;"/>
   </g>
   <g id="text_31">
    <g id="patch_42">
     <path d="M 257.666429 66.161166 
C 260.369055 66.161166 262.961353 65.087401 264.872399 63.176355 
C 266.783445 61.265309 267.85721 58.673011 267.85721 55.970385 
C 267.85721 53.267758 266.783445 50.67546 264.872399 48.764414 
C 262.961353 46.853368 260.369055 45.779603 257.666429 45.779603 
C 254.963802 45.779603 252.371504 46.853368 250.460458 48.764414 
C 248.549412 50.67546 247.475647 53.267758 247.475647 55.970385 
C 247.475647 58.673011 248.549412 61.265309 250.460458 63.176355 
C 252.371504 65.087401 254.963802 66.161166 257.666429 66.161166 
z
" style="fill:#ffffff;stroke:#000000;stroke-linejoin:miter;"/>
    </g>
    <!-- $+$ -->
    <g transform="translate(252.596429 59.557572)scale(0.13 -0.13)">
     <defs>
      <path d="M 7.515625 23 
Q 6.6875 23 6.140625 23.625 
Q 5.609375 24.265625 5.609375 25 
Q 5.609375 25.734375 6.140625 26.359375 
Q 6.6875 27 7.515625 27 
L 36.921875 27 
L 36.921875 56.5 
Q 36.921875 57.28125 37.5 57.78125 
Q 38.09375 58.296875 38.921875 58.296875 
Q 39.65625 58.296875 40.28125 57.78125 
Q 40.921875 57.28125 40.921875 56.5 
L 40.921875 27 
L 70.3125 27 
Q 71.046875 27 71.578125 26.359375 
Q 72.125 25.734375 72.125 25 
Q 72.125 24.265625 71.578125 23.625 
Q 71.046875 23 70.3125 23 
L 40.921875 23 
L 40.921875 -6.5 
Q 40.921875 -7.28125 40.28125 -7.78125 
Q 39.65625 -8.296875 38.921875 -8.296875 
Q 38.09375 -8.296875 37.5 -7.78125 
Q 36.921875 -7.28125 36.921875 -6.5 
L 36.921875 23 
z
" id="Cmr10-43"/>
     </defs>
     <use transform="translate(0 0.703125)" xlink:href="#Cmr10-43"/>
    </g>
   </g>
   <g id="patch_43">
    <path d="M 257.666429 69.280771 
Q 257.666429 76.880208 257.666429 85.597679 
" style="fill:none;stroke:#000000;stroke-linecap:round;"/>
    <path d="M 255.066429 74.480771 
L 257.666429 69.280771 
L 260.266429 74.480771 
" style="fill:none;stroke:#000000;stroke-linecap:round;"/>
   </g>
   <g id="text_32">
    <g id="patch_44">
     <path d="M 239.986429 25.01 
L 275.346429 25.01 
L 275.346429 3.3 
L 239.986429 3.3 
z
" style="fill:#ffffff;"/>
    </g>
    <!-- $A^{ \; \langle 3 \rangle}$ -->
    <g transform="translate(243.886429 18.406406)scale(0.13 -0.13)">
     <defs>
      <path d="M 4.5 0 
Q 3.515625 0 3.515625 1.3125 
Q 3.90625 3.515625 4.78125 3.515625 
Q 8.84375 3.515625 11.796875 5.125 
Q 14.75 6.734375 16.890625 10.109375 
Q 17.09375 10.296875 17.09375 10.296875 
L 52.78125 70.515625 
Q 53.5625 71.578125 54.6875 71.578125 
L 56 71.578125 
Q 56.296875 71.578125 56.59375 71.453125 
Q 56.890625 71.34375 57.109375 71.0625 
Q 57.328125 70.796875 57.328125 70.515625 
L 63.375 5.90625 
Q 63.375 5.46875 63.8125 4.59375 
Q 64.796875 3.515625 71.296875 3.515625 
Q 72.3125 3.515625 72.3125 2.203125 
Q 71.96875 0.875 71.75 0.4375 
Q 71.53125 0 70.609375 0 
L 45.609375 0 
Q 44.671875 0 44.671875 1.3125 
Q 45.21875 3.515625 46 3.515625 
Q 53.90625 3.515625 54.390625 6.203125 
L 52.875 22.703125 
L 28.21875 22.703125 
L 20.21875 9.28125 
Q 19.484375 8.203125 19.484375 6.78125 
Q 19.484375 5.03125 21.171875 4.265625 
Q 22.859375 3.515625 24.90625 3.515625 
Q 25.875 3.515625 25.875 2.203125 
Q 25.53125 0.78125 25.328125 0.390625 
Q 25.140625 0 24.21875 0 
z
M 30.171875 26.21875 
L 52.484375 26.21875 
L 49.515625 58.59375 
z
" id="Cmmi10-65"/>
     </defs>
     <use transform="translate(0 0.597135)" xlink:href="#Cmmi10-65"/>
     <use transform="translate(104.126304 104.202344)scale(0.7)" xlink:href="#Cmex10-173"/>
     <use transform="translate(137.178062 38.861198)scale(0.7)" xlink:href="#Cmr10-51"/>
     <use transform="translate(172.178062 104.202344)scale(0.7)" xlink:href="#Cmex10-174"/>
    </g>
   </g>
   <g id="patch_45">
    <path d="M 257.666429 28.128427 
Q 257.666429 35.39376 257.666429 43.777127 
" style="fill:none;stroke:#000000;stroke-linecap:round;"/>
    <path d="M 255.066429 33.328427 
L 257.666429 28.128427 
L 260.266429 33.328427 
" style="fill:none;stroke:#000000;stroke-linecap:round;"/>
   </g>
   <g id="patch_46">
    <path d="M 90.687202 162.716043 
Q 172.639063 176.189814 255.694148 189.844966 
" style="fill:none;stroke:#000000;stroke-linecap:round;"/>
    <path d="M 95.39651 166.12521 
L 90.687202 162.716043 
L 96.24012 160.994096 
" style="fill:none;stroke:#000000;stroke-linecap:round;"/>
   </g>
   <g id="patch_47">
    <path d="M 244.391074 66.602883 
Q 172.638312 76.878012 99.778806 87.311629 
" style="fill:none;stroke:#000000;stroke-linecap:round;"/>
    <path d="M 238.87502 64.766268 
L 244.391074 66.602883 
L 239.61215 69.913757 
" style="fill:none;stroke:#000000;stroke-linecap:round;"/>
   </g>
   <g id="patch_48">
    <path d="M 74.622711 99.166854 
Q 16.388341 128.280387 44.242096 188.364629 
" style="fill:none;stroke:#000000;stroke-linecap:round;"/>
    <path d="M 68.808934 99.166563 
L 74.622711 99.166854 
L 71.134211 103.817701 
" style="fill:none;stroke:#000000;stroke-linecap:round;"/>
   </g>
   <g id="patch_49">
    <path d="M 175.601983 163.184669 
Q 215.153122 176.189937 255.76635 189.544444 
" style="fill:none;stroke:#000000;stroke-linecap:round;"/>
    <path d="M 179.729625 167.27888 
L 175.601983 163.184669 
L 181.353938 162.339082 
" style="fill:none;stroke:#000000;stroke-linecap:round;"/>
   </g>
   <g id="patch_50">
    <path d="M 244.51652 67.142269 
Q 215.151093 76.878425 184.72444 86.966432 
" style="fill:none;stroke:#000000;stroke-linecap:round;"/>
    <path d="M 238.762501 66.310844 
L 244.51652 67.142269 
L 240.398969 71.246629 
" style="fill:none;stroke:#000000;stroke-linecap:round;"/>
   </g>
   <g id="patch_51">
    <path d="M 160.018842 99.736131 
Q 112.113382 138.610658 150.158506 188.589456 
" style="fill:none;stroke:#000000;stroke-linecap:round;"/>
    <path d="M 154.342738 100.993842 
L 160.018842 99.736131 
L 157.619348 105.031641 
" style="fill:none;stroke:#000000;stroke-linecap:round;"/>
   </g>
   <g id="patch_52">
    <path d="M 244.989826 99.668465 
Q 175.753885 152.451183 255.845553 189.341388 
" style="fill:none;stroke:#000000;stroke-linecap:round;"/>
    <path d="M 239.278181 100.753413 
L 244.989826 99.668465 
L 242.430797 104.88875 
" style="fill:none;stroke:#000000;stroke-linecap:round;"/>
   </g>
   <g id="patch_53">
    <path d="M 339.730874 163.184669 
Q 300.179735 176.189937 259.566507 189.544444 
" style="fill:none;stroke:#000000;stroke-linecap:round;"/>
    <path d="M 333.978919 162.339082 
L 339.730874 163.184669 
L 335.603232 167.27888 
" style="fill:none;stroke:#000000;stroke-linecap:round;"/>
   </g>
   <g id="patch_54">
    <path d="M 270.816337 67.142269 
Q 300.181764 76.878425 330.608417 86.966432 
" style="fill:none;stroke:#000000;stroke-linecap:round;"/>
    <path d="M 274.933888 71.246629 
L 270.816337 67.142269 
L 276.570356 66.310844 
" style="fill:none;stroke:#000000;stroke-linecap:round;"/>
   </g>
   <g id="patch_55">
    <path d="M 355.314015 99.736131 
Q 403.219475 138.610658 365.174351 188.589456 
" style="fill:none;stroke:#000000;stroke-linecap:round;"/>
    <path d="M 357.713509 105.031641 
L 355.314015 99.736131 
L 360.990119 100.993842 
" style="fill:none;stroke:#000000;stroke-linecap:round;"/>
   </g>
   <g id="patch_56">
    <path d="M 424.645655 162.716043 
Q 342.693794 176.189814 259.63871 189.844966 
" style="fill:none;stroke:#000000;stroke-linecap:round;"/>
    <path d="M 419.092737 160.994096 
L 424.645655 162.716043 
L 419.936348 166.12521 
" style="fill:none;stroke:#000000;stroke-linecap:round;"/>
   </g>
   <g id="patch_57">
    <path d="M 270.941783 66.602883 
Q 342.694545 76.878012 415.554051 87.311629 
" style="fill:none;stroke:#000000;stroke-linecap:round;"/>
    <path d="M 275.720707 69.913757 
L 270.941783 66.602883 
L 276.457837 64.766268 
" style="fill:none;stroke:#000000;stroke-linecap:round;"/>
   </g>
   <g id="patch_58">
    <path d="M 440.710146 99.166854 
Q 498.944516 128.280387 471.090762 188.364629 
" style="fill:none;stroke:#000000;stroke-linecap:round;"/>
    <path d="M 444.198646 103.817701 
L 440.710146 99.166854 
L 446.523923 99.166563 
" style="fill:none;stroke:#000000;stroke-linecap:round;"/>
   </g>
  </g>
 </g>
</svg>
