<?xml version="1.0" encoding="utf-8" standalone="no"?>
<!DOCTYPE svg PUBLIC "-//W3C//DTD SVG 1.1//EN"
  "http://www.w3.org/Graphics/SVG/1.1/DTD/svg11.dtd">
<!-- Created with matplotlib (https://matplotlib.org/) -->
<svg height="343.94694pt" version="1.1" viewBox="0 0 396.303259 343.94694" width="396.303259pt" xmlns="http://www.w3.org/2000/svg" xmlns:xlink="http://www.w3.org/1999/xlink">
 <metadata>
  <rdf:RDF xmlns:cc="http://creativecommons.org/ns#" xmlns:dc="http://purl.org/dc/elements/1.1/" xmlns:rdf="http://www.w3.org/1999/02/22-rdf-syntax-ns#">
   <cc:Work>
    <dc:type rdf:resource="http://purl.org/dc/dcmitype/StillImage"/>
    <dc:date>2021-06-09T23:14:41.713304</dc:date>
    <dc:format>image/svg+xml</dc:format>
    <dc:creator>
     <cc:Agent>
      <dc:title>Matplotlib v3.3.4, https://matplotlib.org/</dc:title>
     </cc:Agent>
    </dc:creator>
   </cc:Work>
  </rdf:RDF>
 </metadata>
 <defs>
  <style type="text/css">*{stroke-linecap:butt;stroke-linejoin:round;}</style>
 </defs>
 <g id="figure_1">
  <g id="patch_1">
   <path d="M 0 343.94694 
L 396.303259 343.94694 
L 396.303259 0 
L 0 0 
z
" style="fill:none;"/>
  </g>
  <g id="axes_1">
   <g id="text_1">
    <g id="patch_2">
     <path d="M 9.096562 284.025135 
L 115.452812 284.025135 
L 115.452812 129.55576 
L 9.096562 129.55576 
z
" style="fill:#dcdcdc;"/>
    </g>
    <!--    -->
    <g transform="translate(59.096562 187.154198)scale(0.1 -0.1)">
     <defs>
      <path id="DejaVuSans-32"/>
     </defs>
     <use xlink:href="#DejaVuSans-32"/>
     <use x="31.787109" xlink:href="#DejaVuSans-32"/>
    </g>
    <!--  -->
    <g transform="translate(62.274687 198.35201)scale(0.1 -0.1)"/>
    <!--  -->
    <g transform="translate(62.274687 209.549823)scale(0.1 -0.1)"/>
    <!--  -->
    <g transform="translate(62.274687 220.747635)scale(0.1 -0.1)"/>
    <!--  -->
    <g transform="translate(62.274687 231.945448)scale(0.1 -0.1)"/>
   </g>
   <g id="text_2">
    <g id="patch_3">
     <path d="M 246.650357 305.448424 
L 356.184732 305.448424 
L 356.184732 83.792174 
L 246.650357 83.792174 
z
" style="fill:#dcdcdc;"/>
    </g>
    <!--     -->
    <g transform="translate(296.650357 141.390611)scale(0.1 -0.1)">
     <use xlink:href="#DejaVuSans-32"/>
     <use x="31.787109" xlink:href="#DejaVuSans-32"/>
     <use x="63.574219" xlink:href="#DejaVuSans-32"/>
    </g>
    <!--  -->
    <g transform="translate(301.417545 152.588424)scale(0.1 -0.1)"/>
    <!--  -->
    <g transform="translate(301.417545 163.786236)scale(0.1 -0.1)"/>
    <!--  -->
    <g transform="translate(301.417545 174.984049)scale(0.1 -0.1)"/>
    <!--  -->
    <g transform="translate(301.417545 186.181861)scale(0.1 -0.1)"/>
    <!--  -->
    <g transform="translate(301.417545 197.379674)scale(0.1 -0.1)"/>
    <!--  -->
    <g transform="translate(301.417545 208.577486)scale(0.1 -0.1)"/>
    <!--  -->
    <g transform="translate(301.417545 219.775299)scale(0.1 -0.1)"/>
    <!--  -->
    <g transform="translate(301.417545 230.973111)scale(0.1 -0.1)"/>
    <!--  -->
    <g transform="translate(301.417545 242.170924)scale(0.1 -0.1)"/>
    <!--  -->
    <g transform="translate(301.417545 253.368736)scale(0.1 -0.1)"/>
   </g>
   <g id="text_3">
    <g id="patch_4">
     <path d="M 38.157545 256.252058 
L 95.957545 256.252058 
Q 98.957545 256.252058 98.957545 253.252058 
L 98.957545 232.376121 
Q 98.957545 229.376121 95.957545 229.376121 
L 38.157545 229.376121 
Q 35.157545 229.376121 35.157545 232.376121 
L 35.157545 253.252058 
Q 35.157545 256.252058 38.157545 256.252058 
z
" style="fill:#ffffff;stroke:#2ca02c;stroke-linejoin:miter;"/>
    </g>
    <!-- $\mathrm{Multi-Head}$ -->
    <g transform="translate(38.157545 239.974558)scale(0.1 -0.1)">
     <defs>
      <path d="M 3.515625 0 
L 3.515625 3.515625 
Q 13.8125 3.515625 13.8125 9.421875 
L 13.8125 61.625 
Q 13.8125 64.796875 3.515625 64.796875 
L 3.515625 68.3125 
L 22.40625 68.3125 
Q 23.640625 68.3125 24.03125 67.1875 
L 45.796875 10.59375 
L 67.578125 67.1875 
Q 67.96875 68.3125 69.1875 68.3125 
L 88.09375 68.3125 
L 88.09375 64.796875 
Q 77.78125 64.796875 77.78125 61.625 
L 77.78125 6.6875 
Q 77.78125 3.515625 88.09375 3.515625 
L 88.09375 0 
L 58.984375 0 
L 58.984375 3.515625 
Q 69.28125 3.515625 69.28125 6.6875 
L 69.28125 64.890625 
L 44.671875 1.125 
Q 44.234375 0 43.015625 0 
Q 41.75 0 41.3125 1.125 
L 17 64.109375 
L 17 9.421875 
Q 17 3.515625 27.296875 3.515625 
L 27.296875 0 
z
" id="Cmr10-77"/>
      <path d="M 10.796875 11.921875 
L 10.796875 33.984375 
Q 10.796875 36.671875 9.984375 37.859375 
Q 9.1875 39.0625 7.671875 39.328125 
Q 6.15625 39.59375 2.984375 39.59375 
L 2.984375 43.109375 
L 18.109375 44.1875 
L 18.109375 11.921875 
Q 18.109375 8.015625 18.671875 5.828125 
Q 19.234375 3.65625 21.0625 2.578125 
Q 22.90625 1.515625 26.90625 1.515625 
Q 32.28125 1.515625 35.453125 6 
Q 38.625 10.5 38.625 16.21875 
L 38.625 33.984375 
Q 38.625 36.671875 37.796875 37.859375 
Q 36.96875 39.0625 35.46875 39.328125 
Q 33.984375 39.59375 30.8125 39.59375 
L 30.8125 43.109375 
L 45.90625 44.1875 
L 45.90625 9.078125 
Q 45.90625 6.453125 46.703125 5.25 
Q 47.515625 4.046875 49.015625 3.78125 
Q 50.53125 3.515625 53.71875 3.515625 
L 53.71875 0 
L 38.921875 -1.125 
L 38.921875 7.328125 
Q 37.0625 3.5625 33.734375 1.21875 
Q 30.421875 -1.125 26.421875 -1.125 
Q 19.234375 -1.125 15.015625 1.921875 
Q 10.796875 4.984375 10.796875 11.921875 
z
" id="Cmr10-117"/>
      <path d="M 3.078125 0 
L 3.078125 3.515625 
Q 6.5 3.515625 8.6875 4.046875 
Q 10.890625 4.59375 10.890625 6.6875 
L 10.890625 59.1875 
Q 10.890625 61.859375 10.078125 63.0625 
Q 9.28125 64.265625 7.765625 64.53125 
Q 6.25 64.796875 3.078125 64.796875 
L 3.078125 68.3125 
L 17.921875 69.390625 
L 17.921875 6.6875 
Q 17.921875 4.59375 20.109375 4.046875 
Q 22.3125 3.515625 25.6875 3.515625 
L 25.6875 0 
z
" id="Cmr10-108"/>
      <path d="M 10.203125 12.015625 
L 10.203125 39.59375 
L 1.90625 39.59375 
L 1.90625 42.1875 
Q 8.453125 42.1875 11.515625 48.28125 
Q 14.59375 54.390625 14.59375 61.53125 
L 17.484375 61.53125 
L 17.484375 43.109375 
L 31.59375 43.109375 
L 31.59375 39.59375 
L 17.484375 39.59375 
L 17.484375 12.203125 
Q 17.484375 8.0625 18.875 4.9375 
Q 20.265625 1.8125 23.875 1.8125 
Q 27.296875 1.8125 28.8125 5.109375 
Q 30.328125 8.40625 30.328125 12.203125 
L 30.328125 18.109375 
L 33.203125 18.109375 
L 33.203125 12.015625 
Q 33.203125 8.890625 32.046875 5.828125 
Q 30.90625 2.78125 28.65625 0.828125 
Q 26.421875 -1.125 23.1875 -1.125 
Q 17.1875 -1.125 13.6875 2.46875 
Q 10.203125 6.0625 10.203125 12.015625 
z
" id="Cmr10-116"/>
      <path d="M 3.078125 0 
L 3.078125 3.515625 
Q 6.5 3.515625 8.6875 4.046875 
Q 10.890625 4.59375 10.890625 6.6875 
L 10.890625 33.984375 
Q 10.890625 37.84375 9.390625 38.71875 
Q 7.90625 39.59375 3.515625 39.59375 
L 3.515625 43.109375 
L 17.921875 44.1875 
L 17.921875 6.6875 
Q 17.921875 4.59375 19.828125 4.046875 
Q 21.734375 3.515625 24.90625 3.515625 
L 24.90625 0 
z
M 7.328125 61.375 
Q 7.328125 63.578125 8.984375 65.234375 
Q 10.640625 66.890625 12.796875 66.890625 
Q 14.203125 66.890625 15.515625 66.15625 
Q 16.84375 65.4375 17.578125 64.109375 
Q 18.3125 62.796875 18.3125 61.375 
Q 18.3125 59.234375 16.640625 57.5625 
Q 14.984375 55.90625 12.796875 55.90625 
Q 10.640625 55.90625 8.984375 57.5625 
Q 7.328125 59.234375 7.328125 61.375 
z
" id="Cmr10-105"/>
      <path d="M 10.203125 23 
Q 9.375 23 8.828125 23.625 
Q 8.296875 24.265625 8.296875 25 
Q 8.296875 25.734375 8.828125 26.359375 
Q 9.375 27 10.203125 27 
L 67.578125 27 
Q 68.359375 27 68.875 26.359375 
Q 69.390625 25.734375 69.390625 25 
Q 69.390625 24.265625 68.875 23.625 
Q 68.359375 23 67.578125 23 
z
" id="Cmsy10-161"/>
      <path d="M 3.078125 0 
L 3.078125 3.515625 
Q 13.375 3.515625 13.375 6.6875 
L 13.375 61.625 
Q 13.375 64.796875 3.078125 64.796875 
L 3.078125 68.3125 
L 33.015625 68.3125 
L 33.015625 64.796875 
Q 22.703125 64.796875 22.703125 61.625 
L 22.703125 37.3125 
L 52.203125 37.3125 
L 52.203125 61.625 
Q 52.203125 64.796875 41.890625 64.796875 
L 41.890625 68.3125 
L 71.78125 68.3125 
L 71.78125 64.796875 
Q 61.53125 64.796875 61.53125 61.625 
L 61.53125 6.6875 
Q 61.53125 3.515625 71.78125 3.515625 
L 71.78125 0 
L 41.890625 0 
L 41.890625 3.515625 
Q 52.203125 3.515625 52.203125 6.6875 
L 52.203125 33.796875 
L 22.703125 33.796875 
L 22.703125 6.6875 
Q 22.703125 3.515625 33.015625 3.515625 
L 33.015625 0 
z
" id="Cmr10-72"/>
      <path d="M 24.90625 -1.125 
Q 18.796875 -1.125 13.6875 2.078125 
Q 8.59375 5.28125 5.6875 10.625 
Q 2.78125 15.96875 2.78125 21.921875 
Q 2.78125 27.78125 5.4375 33.046875 
Q 8.109375 38.328125 12.859375 41.578125 
Q 17.625 44.828125 23.484375 44.828125 
Q 28.078125 44.828125 31.46875 43.28125 
Q 34.859375 41.75 37.0625 39.015625 
Q 39.265625 36.28125 40.375 32.5625 
Q 41.5 28.859375 41.5 24.421875 
Q 41.5 23.09375 40.484375 23.09375 
L 11.53125 23.09375 
L 11.53125 22.015625 
Q 11.53125 13.71875 14.875 7.765625 
Q 18.21875 1.8125 25.78125 1.8125 
Q 28.859375 1.8125 31.46875 3.171875 
Q 34.078125 4.546875 36 6.984375 
Q 37.9375 9.421875 38.625 12.203125 
Q 38.71875 12.546875 38.984375 12.8125 
Q 39.265625 13.09375 39.59375 13.09375 
L 40.484375 13.09375 
Q 41.5 13.09375 41.5 11.8125 
Q 40.09375 6.15625 35.40625 2.515625 
Q 30.71875 -1.125 24.90625 -1.125 
z
M 11.625 25.59375 
L 34.421875 25.59375 
Q 34.421875 29.34375 33.375 33.203125 
Q 32.328125 37.0625 29.875 39.625 
Q 27.4375 42.1875 23.484375 42.1875 
Q 17.828125 42.1875 14.71875 36.890625 
Q 11.625 31.59375 11.625 25.59375 
z
" id="Cmr10-101"/>
      <path d="M 4 9.8125 
Q 4 15.765625 8.6875 19.5 
Q 13.375 23.25 19.9375 24.78125 
Q 26.515625 26.3125 32.421875 26.3125 
L 32.421875 30.421875 
Q 32.421875 33.296875 31.15625 36 
Q 29.890625 38.71875 27.484375 40.453125 
Q 25.09375 42.1875 22.21875 42.1875 
Q 15.578125 42.1875 12.109375 39.203125 
Q 14.015625 39.203125 15.25 37.765625 
Q 16.5 36.328125 16.5 34.421875 
Q 16.5 32.421875 15.078125 31 
Q 13.671875 29.59375 11.71875 29.59375 
Q 9.71875 29.59375 8.296875 31 
Q 6.890625 32.421875 6.890625 34.421875 
Q 6.890625 39.703125 11.671875 42.265625 
Q 16.453125 44.828125 22.21875 44.828125 
Q 26.265625 44.828125 30.359375 43.09375 
Q 34.46875 41.359375 37.078125 38.125 
Q 39.703125 34.90625 39.703125 30.609375 
L 39.703125 8.109375 
Q 39.703125 6.15625 40.53125 4.515625 
Q 41.359375 2.875 43.109375 2.875 
Q 44.78125 2.875 45.578125 4.53125 
Q 46.390625 6.203125 46.390625 8.109375 
L 46.390625 14.5 
L 49.3125 14.5 
L 49.3125 8.109375 
Q 49.3125 5.859375 48.140625 3.828125 
Q 46.96875 1.8125 44.984375 0.609375 
Q 43.015625 -0.59375 40.71875 -0.59375 
Q 37.796875 -0.59375 35.671875 1.671875 
Q 33.546875 3.953125 33.296875 7.078125 
Q 31.453125 3.328125 27.828125 1.09375 
Q 24.21875 -1.125 20.125 -1.125 
Q 16.3125 -1.125 12.625 0 
Q 8.9375 1.125 6.46875 3.53125 
Q 4 5.953125 4 9.8125 
z
M 12.109375 9.8125 
Q 12.109375 6.296875 14.6875 3.90625 
Q 17.28125 1.515625 20.796875 1.515625 
Q 24.03125 1.515625 26.65625 3.125 
Q 29.296875 4.734375 30.859375 7.515625 
Q 32.421875 10.296875 32.421875 13.375 
L 32.421875 23.78125 
Q 27.875 23.78125 23.109375 22.28125 
Q 18.359375 20.796875 15.234375 17.625 
Q 12.109375 14.453125 12.109375 9.8125 
z
" id="Cmr10-97"/>
      <path d="M 24.421875 -1.125 
Q 18.5 -1.125 13.609375 2.078125 
Q 8.734375 5.28125 6.03125 10.5 
Q 3.328125 15.71875 3.328125 21.578125 
Q 3.328125 27.640625 6.28125 32.828125 
Q 9.234375 38.03125 14.3125 41.109375 
Q 19.390625 44.1875 25.484375 44.1875 
Q 29.15625 44.1875 32.421875 42.640625 
Q 35.6875 41.109375 38.09375 38.375 
L 38.09375 59.1875 
Q 38.09375 61.859375 37.28125 63.0625 
Q 36.46875 64.265625 34.984375 64.53125 
Q 33.5 64.796875 30.328125 64.796875 
L 30.328125 68.3125 
L 45.125 69.390625 
L 45.125 9.078125 
Q 45.125 6.453125 45.921875 5.25 
Q 46.734375 4.046875 48.21875 3.78125 
Q 49.703125 3.515625 52.875 3.515625 
L 52.875 0 
L 37.796875 -1.125 
L 37.796875 5.171875 
Q 35.203125 2.203125 31.640625 0.53125 
Q 28.078125 -1.125 24.421875 -1.125 
z
M 14.203125 8.6875 
Q 15.921875 5.421875 18.765625 3.46875 
Q 21.625 1.515625 25 1.515625 
Q 29.15625 1.515625 32.609375 3.90625 
Q 36.078125 6.296875 37.796875 10.109375 
L 37.796875 34.078125 
Q 36.625 36.28125 34.84375 38.015625 
Q 33.0625 39.75 30.828125 40.671875 
Q 28.609375 41.609375 26.125 41.609375 
Q 20.90625 41.609375 17.71875 38.640625 
Q 14.546875 35.6875 13.28125 31.09375 
Q 12.015625 26.515625 12.015625 21.484375 
Q 12.015625 17.484375 12.421875 14.5 
Q 12.84375 11.53125 14.203125 8.6875 
z
" id="Cmr10-100"/>
     </defs>
     <use transform="translate(0 0.609375)" xlink:href="#Cmr10-77"/>
     <use transform="translate(91.601562 0.609375)" xlink:href="#Cmr10-117"/>
     <use transform="translate(147.119141 0.609375)" xlink:href="#Cmr10-108"/>
     <use transform="translate(174.804688 0.609375)" xlink:href="#Cmr10-116"/>
     <use transform="translate(213.623047 0.609375)" xlink:href="#Cmr10-105"/>
     <use transform="translate(257.96875 0.609375)" xlink:href="#Cmsy10-161"/>
     <use transform="translate(352.314453 0.609375)" xlink:href="#Cmr10-72"/>
     <use transform="translate(427.314453 0.609375)" xlink:href="#Cmr10-101"/>
     <use transform="translate(471.699219 0.609375)" xlink:href="#Cmr10-97"/>
     <use transform="translate(521.699219 0.609375)" xlink:href="#Cmr10-100"/>
    </g>
    <!-- $\mathrm{Attention}$ -->
    <g transform="translate(45.807545 251.172371)scale(0.1 -0.1)">
     <defs>
      <path d="M 3.21875 0 
L 3.21875 3.515625 
Q 12.15625 3.515625 14.203125 9.421875 
L 35.203125 70.515625 
Q 35.5 71.578125 36.8125 71.578125 
L 38.09375 71.578125 
Q 39.40625 71.578125 39.703125 70.515625 
L 61.625 6.6875 
Q 62.546875 4.59375 65.15625 4.046875 
Q 67.78125 3.515625 71.6875 3.515625 
L 71.6875 0 
L 43.796875 0 
L 43.796875 3.515625 
Q 52.09375 3.515625 52.09375 6.203125 
L 52.09375 6.6875 
L 46.6875 22.3125 
L 22.40625 22.3125 
L 17.921875 9.421875 
Q 17.828125 9.078125 17.828125 8.40625 
Q 17.828125 5.90625 20.1875 4.703125 
Q 22.5625 3.515625 25.296875 3.515625 
L 25.296875 0 
z
M 23.578125 25.78125 
L 45.515625 25.78125 
L 34.515625 57.71875 
z
" id="Cmr10-65"/>
      <path d="M 2.984375 0 
L 2.984375 3.515625 
Q 6.390625 3.515625 8.59375 4.046875 
Q 10.796875 4.59375 10.796875 6.6875 
L 10.796875 33.984375 
Q 10.796875 36.671875 9.984375 37.859375 
Q 9.1875 39.0625 7.671875 39.328125 
Q 6.15625 39.59375 2.984375 39.59375 
L 2.984375 43.109375 
L 17.484375 44.1875 
L 17.484375 34.421875 
Q 19.484375 38.71875 23.40625 41.453125 
Q 27.34375 44.1875 31.984375 44.1875 
Q 38.921875 44.1875 42.40625 40.859375 
Q 45.90625 37.546875 45.90625 30.71875 
L 45.90625 6.6875 
Q 45.90625 4.59375 48.09375 4.046875 
Q 50.296875 3.515625 53.71875 3.515625 
L 53.71875 0 
L 30.8125 0 
L 30.8125 3.515625 
Q 34.234375 3.515625 36.421875 4.046875 
Q 38.625 4.59375 38.625 6.6875 
L 38.625 30.421875 
Q 38.625 35.296875 37.203125 38.453125 
Q 35.796875 41.609375 31.390625 41.609375 
Q 25.59375 41.609375 21.84375 36.96875 
Q 18.109375 32.328125 18.109375 26.421875 
L 18.109375 6.6875 
Q 18.109375 4.59375 20.3125 4.046875 
Q 22.515625 3.515625 25.875 3.515625 
L 25.875 0 
z
" id="Cmr10-110"/>
      <path d="M 25 -1.125 
Q 19 -1.125 13.859375 1.921875 
Q 8.734375 4.984375 5.75 10.109375 
Q 2.78125 15.234375 2.78125 21.296875 
Q 2.78125 25.875 4.421875 30.125 
Q 6.0625 34.375 9.109375 37.71875 
Q 12.15625 41.0625 16.203125 42.9375 
Q 20.265625 44.828125 25 44.828125 
Q 31.15625 44.828125 36.203125 41.578125 
Q 41.265625 38.328125 44.1875 32.875 
Q 47.125 27.4375 47.125 21.296875 
Q 47.125 15.28125 44.140625 10.125 
Q 41.15625 4.984375 36.046875 1.921875 
Q 30.953125 -1.125 25 -1.125 
z
M 25 1.8125 
Q 33.015625 1.8125 35.6875 7.609375 
Q 38.375 13.421875 38.375 22.40625 
Q 38.375 27.4375 37.84375 30.734375 
Q 37.3125 34.03125 35.5 36.71875 
Q 34.375 38.375 32.640625 39.625 
Q 30.90625 40.875 28.96875 41.53125 
Q 27.046875 42.1875 25 42.1875 
Q 21.875 42.1875 19.0625 40.765625 
Q 16.265625 39.359375 14.40625 36.71875 
Q 12.546875 33.890625 12.03125 30.484375 
Q 11.53125 27.09375 11.53125 22.40625 
Q 11.53125 16.796875 12.5 12.328125 
Q 13.484375 7.859375 16.4375 4.828125 
Q 19.390625 1.8125 25 1.8125 
z
" id="Cmr10-111"/>
     </defs>
     <use transform="translate(0 0.421875)" xlink:href="#Cmr10-65"/>
     <use transform="translate(75 0.421875)" xlink:href="#Cmr10-116"/>
     <use transform="translate(113.818359 0.421875)" xlink:href="#Cmr10-116"/>
     <use transform="translate(152.636719 0.421875)" xlink:href="#Cmr10-101"/>
     <use transform="translate(197.021484 0.421875)" xlink:href="#Cmr10-110"/>
     <use transform="translate(252.539062 0.421875)" xlink:href="#Cmr10-116"/>
     <use transform="translate(291.357422 0.421875)" xlink:href="#Cmr10-105"/>
     <use transform="translate(319.042969 0.421875)" xlink:href="#Cmr10-111"/>
     <use transform="translate(369.042969 0.421875)" xlink:href="#Cmr10-110"/>
    </g>
   </g>
   <g id="text_4">
    <g id="patch_5">
     <path d="M 277.300402 207.571461 
L 335.100402 207.571461 
Q 338.100402 207.571461 338.100402 204.571461 
L 338.100402 183.695524 
Q 338.100402 180.695524 335.100402 180.695524 
L 277.300402 180.695524 
Q 274.300402 180.695524 274.300402 183.695524 
L 274.300402 204.571461 
Q 274.300402 207.571461 277.300402 207.571461 
z
" style="fill:#ffffff;stroke:#2ca02c;stroke-linejoin:miter;"/>
    </g>
    <!-- $\mathrm{Multi-Head}$ -->
    <g transform="translate(277.300402 191.293961)scale(0.1 -0.1)">
     <use transform="translate(0 0.609375)" xlink:href="#Cmr10-77"/>
     <use transform="translate(91.601562 0.609375)" xlink:href="#Cmr10-117"/>
     <use transform="translate(147.119141 0.609375)" xlink:href="#Cmr10-108"/>
     <use transform="translate(174.804688 0.609375)" xlink:href="#Cmr10-116"/>
     <use transform="translate(213.623047 0.609375)" xlink:href="#Cmr10-105"/>
     <use transform="translate(257.96875 0.609375)" xlink:href="#Cmsy10-161"/>
     <use transform="translate(352.314453 0.609375)" xlink:href="#Cmr10-72"/>
     <use transform="translate(427.314453 0.609375)" xlink:href="#Cmr10-101"/>
     <use transform="translate(471.699219 0.609375)" xlink:href="#Cmr10-97"/>
     <use transform="translate(521.699219 0.609375)" xlink:href="#Cmr10-100"/>
    </g>
    <!-- $\mathrm{Attention}$ -->
    <g transform="translate(284.950402 202.491774)scale(0.1 -0.1)">
     <use transform="translate(0 0.421875)" xlink:href="#Cmr10-65"/>
     <use transform="translate(75 0.421875)" xlink:href="#Cmr10-116"/>
     <use transform="translate(113.818359 0.421875)" xlink:href="#Cmr10-116"/>
     <use transform="translate(152.636719 0.421875)" xlink:href="#Cmr10-101"/>
     <use transform="translate(197.021484 0.421875)" xlink:href="#Cmr10-110"/>
     <use transform="translate(252.539062 0.421875)" xlink:href="#Cmr10-116"/>
     <use transform="translate(291.357422 0.421875)" xlink:href="#Cmr10-105"/>
     <use transform="translate(319.042969 0.421875)" xlink:href="#Cmr10-111"/>
     <use transform="translate(369.042969 0.421875)" xlink:href="#Cmr10-110"/>
    </g>
   </g>
   <g id="text_5">
    <g id="patch_6">
     <path d="M 277.300402 280.592357 
L 335.100402 280.592357 
Q 338.100402 280.592357 338.100402 277.592357 
L 338.100402 256.716419 
Q 338.100402 253.716419 335.100402 253.716419 
L 277.300402 253.716419 
Q 274.300402 253.716419 274.300402 256.716419 
L 274.300402 277.592357 
Q 274.300402 280.592357 277.300402 280.592357 
z
" style="fill:#ffffff;stroke:#2ca02c;stroke-linejoin:miter;"/>
    </g>
    <!-- $\mathrm{Multi-Head}$ -->
    <g transform="translate(277.300402 264.314857)scale(0.1 -0.1)">
     <use transform="translate(0 0.609375)" xlink:href="#Cmr10-77"/>
     <use transform="translate(91.601562 0.609375)" xlink:href="#Cmr10-117"/>
     <use transform="translate(147.119141 0.609375)" xlink:href="#Cmr10-108"/>
     <use transform="translate(174.804688 0.609375)" xlink:href="#Cmr10-116"/>
     <use transform="translate(213.623047 0.609375)" xlink:href="#Cmr10-105"/>
     <use transform="translate(257.96875 0.609375)" xlink:href="#Cmsy10-161"/>
     <use transform="translate(352.314453 0.609375)" xlink:href="#Cmr10-72"/>
     <use transform="translate(427.314453 0.609375)" xlink:href="#Cmr10-101"/>
     <use transform="translate(471.699219 0.609375)" xlink:href="#Cmr10-97"/>
     <use transform="translate(521.699219 0.609375)" xlink:href="#Cmr10-100"/>
    </g>
    <!-- $\mathrm{Attention}$ -->
    <g transform="translate(284.950402 275.512669)scale(0.1 -0.1)">
     <use transform="translate(0 0.421875)" xlink:href="#Cmr10-65"/>
     <use transform="translate(75 0.421875)" xlink:href="#Cmr10-116"/>
     <use transform="translate(113.818359 0.421875)" xlink:href="#Cmr10-116"/>
     <use transform="translate(152.636719 0.421875)" xlink:href="#Cmr10-101"/>
     <use transform="translate(197.021484 0.421875)" xlink:href="#Cmr10-110"/>
     <use transform="translate(252.539062 0.421875)" xlink:href="#Cmr10-116"/>
     <use transform="translate(291.357422 0.421875)" xlink:href="#Cmr10-105"/>
     <use transform="translate(319.042969 0.421875)" xlink:href="#Cmr10-111"/>
     <use transform="translate(369.042969 0.421875)" xlink:href="#Cmr10-110"/>
    </g>
   </g>
   <g id="text_6">
    <g id="patch_7">
     <path d="M 35.766116 257.712476 
L 93.566116 257.712476 
Q 96.566116 257.712476 96.566116 254.712476 
L 96.566116 233.836539 
Q 96.566116 230.836539 93.566116 230.836539 
L 35.766116 230.836539 
Q 32.766116 230.836539 32.766116 233.836539 
L 32.766116 254.712476 
Q 32.766116 257.712476 35.766116 257.712476 
z
" style="fill:#ffffff;stroke:#d62728;stroke-linejoin:miter;"/>
    </g>
    <!-- $\mathrm{Multi-Head}$ -->
    <g transform="translate(35.766116 241.434976)scale(0.1 -0.1)">
     <use transform="translate(0 0.609375)" xlink:href="#Cmr10-77"/>
     <use transform="translate(91.601562 0.609375)" xlink:href="#Cmr10-117"/>
     <use transform="translate(147.119141 0.609375)" xlink:href="#Cmr10-108"/>
     <use transform="translate(174.804688 0.609375)" xlink:href="#Cmr10-116"/>
     <use transform="translate(213.623047 0.609375)" xlink:href="#Cmr10-105"/>
     <use transform="translate(257.96875 0.609375)" xlink:href="#Cmsy10-161"/>
     <use transform="translate(352.314453 0.609375)" xlink:href="#Cmr10-72"/>
     <use transform="translate(427.314453 0.609375)" xlink:href="#Cmr10-101"/>
     <use transform="translate(471.699219 0.609375)" xlink:href="#Cmr10-97"/>
     <use transform="translate(521.699219 0.609375)" xlink:href="#Cmr10-100"/>
    </g>
    <!-- $\mathrm{Attention}$ -->
    <g transform="translate(43.416116 252.632789)scale(0.1 -0.1)">
     <use transform="translate(0 0.421875)" xlink:href="#Cmr10-65"/>
     <use transform="translate(75 0.421875)" xlink:href="#Cmr10-116"/>
     <use transform="translate(113.818359 0.421875)" xlink:href="#Cmr10-116"/>
     <use transform="translate(152.636719 0.421875)" xlink:href="#Cmr10-101"/>
     <use transform="translate(197.021484 0.421875)" xlink:href="#Cmr10-110"/>
     <use transform="translate(252.539062 0.421875)" xlink:href="#Cmr10-116"/>
     <use transform="translate(291.357422 0.421875)" xlink:href="#Cmr10-105"/>
     <use transform="translate(319.042969 0.421875)" xlink:href="#Cmr10-111"/>
     <use transform="translate(369.042969 0.421875)" xlink:href="#Cmr10-110"/>
    </g>
   </g>
   <g id="text_7">
    <g id="patch_8">
     <path d="M 274.908973 209.031879 
L 332.708973 209.031879 
Q 335.708973 209.031879 335.708973 206.031879 
L 335.708973 185.155942 
Q 335.708973 182.155942 332.708973 182.155942 
L 274.908973 182.155942 
Q 271.908973 182.155942 271.908973 185.155942 
L 271.908973 206.031879 
Q 271.908973 209.031879 274.908973 209.031879 
z
" style="fill:#ffffff;stroke:#d62728;stroke-linejoin:miter;"/>
    </g>
    <!-- $\mathrm{Multi-Head}$ -->
    <g transform="translate(274.908973 192.754379)scale(0.1 -0.1)">
     <use transform="translate(0 0.609375)" xlink:href="#Cmr10-77"/>
     <use transform="translate(91.601562 0.609375)" xlink:href="#Cmr10-117"/>
     <use transform="translate(147.119141 0.609375)" xlink:href="#Cmr10-108"/>
     <use transform="translate(174.804688 0.609375)" xlink:href="#Cmr10-116"/>
     <use transform="translate(213.623047 0.609375)" xlink:href="#Cmr10-105"/>
     <use transform="translate(257.96875 0.609375)" xlink:href="#Cmsy10-161"/>
     <use transform="translate(352.314453 0.609375)" xlink:href="#Cmr10-72"/>
     <use transform="translate(427.314453 0.609375)" xlink:href="#Cmr10-101"/>
     <use transform="translate(471.699219 0.609375)" xlink:href="#Cmr10-97"/>
     <use transform="translate(521.699219 0.609375)" xlink:href="#Cmr10-100"/>
    </g>
    <!-- $\mathrm{Attention}$ -->
    <g transform="translate(282.558973 203.952192)scale(0.1 -0.1)">
     <use transform="translate(0 0.421875)" xlink:href="#Cmr10-65"/>
     <use transform="translate(75 0.421875)" xlink:href="#Cmr10-116"/>
     <use transform="translate(113.818359 0.421875)" xlink:href="#Cmr10-116"/>
     <use transform="translate(152.636719 0.421875)" xlink:href="#Cmr10-101"/>
     <use transform="translate(197.021484 0.421875)" xlink:href="#Cmr10-110"/>
     <use transform="translate(252.539062 0.421875)" xlink:href="#Cmr10-116"/>
     <use transform="translate(291.357422 0.421875)" xlink:href="#Cmr10-105"/>
     <use transform="translate(319.042969 0.421875)" xlink:href="#Cmr10-111"/>
     <use transform="translate(369.042969 0.421875)" xlink:href="#Cmr10-110"/>
    </g>
   </g>
   <g id="text_8">
    <g id="patch_9">
     <path d="M 274.908973 282.052775 
L 332.708973 282.052775 
Q 335.708973 282.052775 335.708973 279.052775 
L 335.708973 258.176837 
Q 335.708973 255.176837 332.708973 255.176837 
L 274.908973 255.176837 
Q 271.908973 255.176837 271.908973 258.176837 
L 271.908973 279.052775 
Q 271.908973 282.052775 274.908973 282.052775 
z
" style="fill:#ffffff;stroke:#d62728;stroke-linejoin:miter;"/>
    </g>
    <!-- $\mathrm{Multi-Head}$ -->
    <g transform="translate(274.908973 265.775275)scale(0.1 -0.1)">
     <use transform="translate(0 0.609375)" xlink:href="#Cmr10-77"/>
     <use transform="translate(91.601562 0.609375)" xlink:href="#Cmr10-117"/>
     <use transform="translate(147.119141 0.609375)" xlink:href="#Cmr10-108"/>
     <use transform="translate(174.804688 0.609375)" xlink:href="#Cmr10-116"/>
     <use transform="translate(213.623047 0.609375)" xlink:href="#Cmr10-105"/>
     <use transform="translate(257.96875 0.609375)" xlink:href="#Cmsy10-161"/>
     <use transform="translate(352.314453 0.609375)" xlink:href="#Cmr10-72"/>
     <use transform="translate(427.314453 0.609375)" xlink:href="#Cmr10-101"/>
     <use transform="translate(471.699219 0.609375)" xlink:href="#Cmr10-97"/>
     <use transform="translate(521.699219 0.609375)" xlink:href="#Cmr10-100"/>
    </g>
    <!-- $\mathrm{Attention}$ -->
    <g transform="translate(282.558973 276.973087)scale(0.1 -0.1)">
     <use transform="translate(0 0.421875)" xlink:href="#Cmr10-65"/>
     <use transform="translate(75 0.421875)" xlink:href="#Cmr10-116"/>
     <use transform="translate(113.818359 0.421875)" xlink:href="#Cmr10-116"/>
     <use transform="translate(152.636719 0.421875)" xlink:href="#Cmr10-101"/>
     <use transform="translate(197.021484 0.421875)" xlink:href="#Cmr10-110"/>
     <use transform="translate(252.539062 0.421875)" xlink:href="#Cmr10-116"/>
     <use transform="translate(291.357422 0.421875)" xlink:href="#Cmr10-105"/>
     <use transform="translate(319.042969 0.421875)" xlink:href="#Cmr10-111"/>
     <use transform="translate(369.042969 0.421875)" xlink:href="#Cmr10-110"/>
    </g>
   </g>
   <g id="text_9">
    <g id="patch_10">
     <path d="M 25.159687 340.64694 
L 99.389687 340.64694 
Q 103.289687 340.64694 103.289687 336.74694 
L 103.289687 320.23694 
Q 103.289687 316.33694 99.389687 316.33694 
L 25.159687 316.33694 
Q 21.259687 316.33694 21.259687 320.23694 
L 21.259687 336.74694 
Q 21.259687 340.64694 25.159687 340.64694 
z
" style="fill:#ffffff;"/>
    </g>
    <!-- $x^{\langle 1 \rangle}, \dots , x^{\langle T_x \rangle}$ -->
    <g transform="translate(25.159687 334.043347)scale(0.13 -0.13)">
     <defs>
      <path d="M 7.8125 2.875 
Q 9.578125 1.515625 12.796875 1.515625 
Q 15.921875 1.515625 18.3125 4.515625 
Q 20.703125 7.515625 21.578125 11.078125 
L 26.125 28.8125 
Q 27.203125 33.640625 27.203125 35.40625 
Q 27.203125 37.890625 25.8125 39.75 
Q 24.421875 41.609375 21.921875 41.609375 
Q 18.75 41.609375 15.96875 39.625 
Q 13.1875 37.640625 11.28125 34.59375 
Q 9.375 31.546875 8.59375 28.421875 
Q 8.40625 27.78125 7.8125 27.78125 
L 6.59375 27.78125 
Q 5.8125 27.78125 5.8125 28.71875 
L 5.8125 29 
Q 6.78125 32.71875 9.125 36.25 
Q 11.46875 39.796875 14.859375 41.984375 
Q 18.265625 44.1875 22.125 44.1875 
Q 25.78125 44.1875 28.734375 42.234375 
Q 31.6875 40.28125 32.90625 36.921875 
Q 34.625 39.984375 37.28125 42.078125 
Q 39.9375 44.1875 43.109375 44.1875 
Q 45.265625 44.1875 47.5 43.421875 
Q 49.75 42.671875 51.171875 41.109375 
Q 52.59375 39.546875 52.59375 37.203125 
Q 52.59375 34.671875 50.953125 32.828125 
Q 49.3125 31 46.78125 31 
Q 45.171875 31 44.09375 32.03125 
Q 43.015625 33.0625 43.015625 34.625 
Q 43.015625 36.71875 44.453125 38.296875 
Q 45.90625 39.890625 47.90625 40.1875 
Q 46.09375 41.609375 42.921875 41.609375 
Q 39.703125 41.609375 37.328125 38.625 
Q 34.96875 35.640625 33.984375 31.984375 
L 29.59375 14.3125 
Q 28.515625 10.296875 28.515625 7.71875 
Q 28.515625 5.171875 29.953125 3.34375 
Q 31.390625 1.515625 33.796875 1.515625 
Q 38.484375 1.515625 42.15625 5.640625 
Q 45.84375 9.765625 47.015625 14.703125 
Q 47.21875 15.28125 47.796875 15.28125 
L 49.03125 15.28125 
Q 49.421875 15.28125 49.65625 15.015625 
Q 49.90625 14.75 49.90625 14.40625 
Q 49.90625 14.3125 49.8125 14.109375 
Q 48.390625 8.15625 43.84375 3.515625 
Q 39.3125 -1.125 33.59375 -1.125 
Q 29.9375 -1.125 26.984375 0.84375 
Q 24.03125 2.828125 22.796875 6.203125 
Q 21.234375 3.265625 18.46875 1.0625 
Q 15.71875 -1.125 12.59375 -1.125 
Q 10.453125 -1.125 8.171875 -0.359375 
Q 5.90625 0.390625 4.484375 1.953125 
Q 3.078125 3.515625 3.078125 5.90625 
Q 3.078125 8.25 4.703125 10.171875 
Q 6.34375 12.109375 8.796875 12.109375 
Q 10.453125 12.109375 11.578125 11.109375 
Q 12.703125 10.109375 12.703125 8.5 
Q 12.703125 6.390625 11.296875 4.828125 
Q 9.90625 3.265625 7.8125 2.875 
z
" id="Cmmi10-120"/>
      <path d="M 35.5 -114.796875 
L 10.015625 -56.78125 
Q 9.8125 -56.5 9.8125 -56 
Q 9.8125 -55.515625 10.015625 -55.328125 
L 35.5 2.78125 
Q 35.984375 4 37.3125 4 
Q 38.03125 4 38.671875 3.359375 
Q 39.3125 2.734375 39.3125 2 
Q 39.3125 1.515625 39.203125 1.3125 
L 14.015625 -56 
L 39.203125 -113.28125 
Q 39.3125 -113.484375 39.3125 -114.015625 
Q 39.3125 -114.75 38.671875 -115.375 
Q 38.03125 -116.015625 37.3125 -116.015625 
Q 36.03125 -116.015625 35.5 -114.796875 
z
" id="Cmex10-173"/>
      <path d="M 9.28125 0 
L 9.28125 3.515625 
Q 21.78125 3.515625 21.78125 6.6875 
L 21.78125 59.1875 
Q 16.609375 56.6875 8.6875 56.6875 
L 8.6875 60.203125 
Q 20.953125 60.203125 27.203125 66.609375 
L 28.609375 66.609375 
Q 28.953125 66.609375 29.265625 66.328125 
Q 29.59375 66.0625 29.59375 65.71875 
L 29.59375 6.6875 
Q 29.59375 3.515625 42.09375 3.515625 
L 42.09375 0 
z
" id="Cmr10-49"/>
      <path d="M 7.8125 -114.015625 
Q 7.8125 -113.484375 8.015625 -113.28125 
L 33.109375 -56 
L 8.015625 1.3125 
Q 7.8125 1.515625 7.8125 2 
Q 7.8125 2.734375 8.390625 3.359375 
Q 8.984375 4 9.8125 4 
Q 10.984375 4 11.71875 2.78125 
L 37.203125 -55.328125 
Q 37.3125 -55.515625 37.3125 -56 
Q 37.3125 -56.5 37.203125 -56.78125 
L 11.71875 -114.796875 
Q 10.9375 -116.015625 9.8125 -116.015625 
Q 8.984375 -116.015625 8.390625 -115.375 
Q 7.8125 -114.75 7.8125 -114.015625 
z
" id="Cmex10-174"/>
      <path d="M 9.90625 -18.015625 
Q 9.90625 -17.578125 10.296875 -17.1875 
Q 13.921875 -13.71875 15.921875 -9.171875 
Q 17.921875 -4.640625 17.921875 0.390625 
L 17.921875 1.609375 
Q 16.3125 0 13.921875 0 
Q 11.625 0 10.015625 1.609375 
Q 8.40625 3.21875 8.40625 5.515625 
Q 8.40625 7.859375 10.015625 9.421875 
Q 11.625 10.984375 13.921875 10.984375 
Q 17.484375 10.984375 19 7.6875 
Q 20.515625 4.390625 20.515625 0.390625 
Q 20.515625 -5.171875 18.28125 -10.171875 
Q 16.0625 -15.1875 12.015625 -19.1875 
Q 11.625 -19.390625 11.375 -19.390625 
Q 10.890625 -19.390625 10.390625 -18.9375 
Q 9.90625 -18.5 9.90625 -18.015625 
z
" id="Cmmi10-59"/>
      <path d="M 88.796875 4.296875 
Q 88.796875 2.09375 87.140625 0.5 
Q 85.5 -1.09375 83.203125 -1.09375 
Q 80.90625 -1.09375 79.296875 0.5 
Q 77.703125 2.09375 77.703125 4.390625 
Q 77.703125 6.703125 79.34375 8.34375 
Q 81 10 83.296875 10 
Q 85.5 10 87.140625 8.296875 
Q 88.796875 6.59375 88.796875 4.296875 
z
M 55.5 4.296875 
Q 55.5 2.09375 53.84375 0.5 
Q 52.203125 -1.09375 49.890625 -1.09375 
Q 47.59375 -1.09375 46 0.5 
Q 44.40625 2.09375 44.40625 4.390625 
Q 44.40625 6.703125 46.046875 8.34375 
Q 47.703125 10 50 10 
Q 52.203125 10 53.84375 8.296875 
Q 55.5 6.59375 55.5 4.296875 
z
M 22.203125 4.296875 
Q 22.203125 2.09375 20.546875 0.5 
Q 18.90625 -1.09375 16.59375 -1.09375 
Q 14.296875 -1.09375 12.6875 0.5 
Q 11.09375 2.09375 11.09375 4.390625 
Q 11.09375 6.703125 12.75 8.34375 
Q 14.40625 10 16.703125 10 
Q 18.90625 10 20.546875 8.296875 
Q 22.203125 6.59375 22.203125 4.296875 
z
" id="STIXGeneral-Regular-8230"/>
      <path d="M 4.59375 1.3125 
Q 4.640625 1.5625 4.8125 2.1875 
Q 4.984375 2.828125 5.25 3.171875 
Q 5.515625 3.515625 6 3.515625 
Q 14.59375 3.515625 17.390625 4 
Q 20.0625 4.6875 20.609375 6.890625 
L 34.28125 61.8125 
Q 34.71875 63.03125 34.71875 64.015625 
Q 34.71875 64.796875 31.203125 64.796875 
L 25.390625 64.796875 
Q 18.703125 64.796875 15.0625 62.734375 
Q 11.421875 60.6875 9.71875 57.3125 
Q 8.015625 53.953125 5.328125 46.296875 
Q 4.984375 45.40625 4.296875 45.40625 
L 3.421875 45.40625 
Q 2.390625 45.40625 2.390625 46.6875 
L 9.515625 67.390625 
Q 9.71875 68.3125 10.5 68.3125 
L 69.578125 68.3125 
Q 70.609375 68.3125 70.609375 67 
L 67.28125 46.296875 
Q 67.28125 46 66.9375 45.703125 
Q 66.609375 45.40625 66.3125 45.40625 
L 65.375 45.40625 
Q 64.40625 45.40625 64.40625 46.6875 
Q 65.484375 53.765625 65.484375 56.6875 
Q 65.484375 60.203125 64.015625 62 
Q 62.546875 63.8125 60.203125 64.296875 
Q 57.859375 64.796875 54.109375 64.796875 
L 48.1875 64.796875 
Q 45.515625 64.796875 44.578125 64.296875 
Q 43.65625 63.8125 43.015625 61.375 
L 29.296875 6.5 
Q 29.25 6.296875 29.21875 6.09375 
Q 29.203125 5.90625 29.109375 5.609375 
Q 29.109375 4.34375 30.609375 4 
Q 33.203125 3.515625 41.703125 3.515625 
Q 42.671875 3.515625 42.671875 2.203125 
Q 42.328125 0.78125 42.125 0.390625 
Q 41.9375 0 41.015625 0 
L 5.609375 0 
Q 4.59375 0 4.59375 1.3125 
z
" id="Cmmi10-84"/>
     </defs>
     <use transform="translate(0 0.597135)" xlink:href="#Cmmi10-120"/>
     <use transform="translate(63.383359 104.202344)scale(0.7)" xlink:href="#Cmex10-173"/>
     <use transform="translate(96.435117 38.861198)scale(0.7)" xlink:href="#Cmr10-49"/>
     <use transform="translate(131.435117 104.202344)scale(0.7)" xlink:href="#Cmex10-174"/>
     <use transform="translate(170.864219 0.597135)" xlink:href="#Cmmi10-59"/>
     <use transform="translate(216.108359 0.597135)" xlink:href="#STIXGeneral-Regular-8230"/>
     <use transform="translate(316.108344 0.597135)" xlink:href="#Cmmi10-59"/>
     <use transform="translate(361.352485 0.597135)" xlink:href="#Cmmi10-120"/>
     <use transform="translate(424.735844 104.202344)scale(0.7)" xlink:href="#Cmex10-173"/>
     <use transform="translate(457.787602 38.861198)scale(0.7)" xlink:href="#Cmmi10-84"/>
     <use transform="translate(498.666508 26.956823)scale(0.49)" xlink:href="#Cmmi10-120"/>
     <use transform="translate(531.099887 104.202344)scale(0.7)" xlink:href="#Cmex10-174"/>
    </g>
   </g>
   <g id="text_10">
    <g id="patch_11">
     <path d="M 62.274687 302.254585 
C 64.353631 302.254585 66.347707 301.428612 67.817742 299.958577 
C 69.287777 298.488541 70.11375 296.494466 70.11375 294.415522 
C 70.11375 292.336579 69.287777 290.342503 67.817742 288.872468 
C 66.347707 287.402433 64.353631 286.57646 62.274687 286.57646 
C 60.195744 286.57646 58.201668 287.402433 56.731633 288.872468 
C 55.261598 290.342503 54.435625 292.336579 54.435625 294.415522 
C 54.435625 296.494466 55.261598 298.488541 56.731633 299.958577 
C 58.201668 301.428612 60.195744 302.254585 62.274687 302.254585 
z
" style="fill:#ffffff;stroke:#000000;stroke-linejoin:miter;"/>
    </g>
    <!-- $+$ -->
    <g transform="translate(58.374688 297.174897)scale(0.1 -0.1)">
     <defs>
      <path d="M 7.515625 23 
Q 6.6875 23 6.140625 23.625 
Q 5.609375 24.265625 5.609375 25 
Q 5.609375 25.734375 6.140625 26.359375 
Q 6.6875 27 7.515625 27 
L 36.921875 27 
L 36.921875 56.5 
Q 36.921875 57.28125 37.5 57.78125 
Q 38.09375 58.296875 38.921875 58.296875 
Q 39.65625 58.296875 40.28125 57.78125 
Q 40.921875 57.28125 40.921875 56.5 
L 40.921875 27 
L 70.3125 27 
Q 71.046875 27 71.578125 26.359375 
Q 72.125 25.734375 72.125 25 
Q 72.125 24.265625 71.578125 23.625 
Q 71.046875 23 70.3125 23 
L 40.921875 23 
L 40.921875 -6.5 
Q 40.921875 -7.28125 40.28125 -7.78125 
Q 39.65625 -8.296875 38.921875 -8.296875 
Q 38.09375 -8.296875 37.5 -7.78125 
Q 36.921875 -7.28125 36.921875 -6.5 
L 36.921875 23 
z
" id="Cmr10-43"/>
     </defs>
     <use transform="translate(0 0.703125)" xlink:href="#Cmr10-43"/>
    </g>
   </g>
   <g id="patch_12">
    <path d="M 62.274687 305.37014 
Q 62.274687 309.295813 62.274687 314.33952 
" style="fill:none;stroke:#000000;stroke-linecap:round;"/>
    <path d="M 60.274687 309.37014 
L 62.274687 305.37014 
L 64.274687 309.37014 
" style="fill:none;stroke:#000000;stroke-linecap:round;"/>
   </g>
   <g id="text_11">
    <g id="patch_13">
     <path d="M 33.374687 259.172894 
L 91.174688 259.172894 
Q 94.174688 259.172894 94.174688 256.172894 
L 94.174688 235.296957 
Q 94.174688 232.296957 91.174688 232.296957 
L 33.374687 232.296957 
Q 30.374687 232.296957 30.374687 235.296957 
L 30.374687 256.172894 
Q 30.374687 259.172894 33.374687 259.172894 
z
" style="fill:#ffffff;stroke:#1f77b4;stroke-linejoin:miter;"/>
    </g>
    <!-- $\mathrm{Multi-Head}$ -->
    <g transform="translate(33.374687 242.895394)scale(0.1 -0.1)">
     <use transform="translate(0 0.609375)" xlink:href="#Cmr10-77"/>
     <use transform="translate(91.601562 0.609375)" xlink:href="#Cmr10-117"/>
     <use transform="translate(147.119141 0.609375)" xlink:href="#Cmr10-108"/>
     <use transform="translate(174.804688 0.609375)" xlink:href="#Cmr10-116"/>
     <use transform="translate(213.623047 0.609375)" xlink:href="#Cmr10-105"/>
     <use transform="translate(257.96875 0.609375)" xlink:href="#Cmsy10-161"/>
     <use transform="translate(352.314453 0.609375)" xlink:href="#Cmr10-72"/>
     <use transform="translate(427.314453 0.609375)" xlink:href="#Cmr10-101"/>
     <use transform="translate(471.699219 0.609375)" xlink:href="#Cmr10-97"/>
     <use transform="translate(521.699219 0.609375)" xlink:href="#Cmr10-100"/>
    </g>
    <!-- $\mathrm{Attention}$ -->
    <g transform="translate(41.024687 254.093207)scale(0.1 -0.1)">
     <use transform="translate(0 0.421875)" xlink:href="#Cmr10-65"/>
     <use transform="translate(75 0.421875)" xlink:href="#Cmr10-116"/>
     <use transform="translate(113.818359 0.421875)" xlink:href="#Cmr10-116"/>
     <use transform="translate(152.636719 0.421875)" xlink:href="#Cmr10-101"/>
     <use transform="translate(197.021484 0.421875)" xlink:href="#Cmr10-110"/>
     <use transform="translate(252.539062 0.421875)" xlink:href="#Cmr10-116"/>
     <use transform="translate(291.357422 0.421875)" xlink:href="#Cmr10-105"/>
     <use transform="translate(319.042969 0.421875)" xlink:href="#Cmr10-111"/>
     <use transform="translate(369.042969 0.421875)" xlink:href="#Cmr10-110"/>
    </g>
   </g>
   <g id="patch_14">
    <path d="M 62.274687 262.28799 
Q 62.274687 272.873013 62.274687 284.57607 
" style="fill:none;stroke:#000000;stroke-linecap:round;"/>
    <path d="M 60.274687 266.28799 
L 62.274687 262.28799 
L 64.274687 266.28799 
" style="fill:none;stroke:#000000;stroke-linecap:round;"/>
   </g>
   <g id="text_12">
    <!-- $Q, K, V$ -->
    <g transform="translate(64.624687 276.191405)scale(0.1 -0.1)">
     <defs>
      <path d="M 30.421875 -2.203125 
Q 22.90625 -2.203125 17.09375 1.234375 
Q 11.28125 4.6875 8.125 10.8125 
Q 4.984375 16.9375 4.984375 24.421875 
Q 4.984375 35.296875 11.15625 46.09375 
Q 17.328125 56.890625 27.4375 63.703125 
Q 37.546875 70.515625 48.578125 70.515625 
Q 54.296875 70.515625 59.03125 68.453125 
Q 63.765625 66.40625 67.03125 62.765625 
Q 70.3125 59.125 72.09375 54.234375 
Q 73.875 49.359375 73.875 43.609375 
Q 73.875 36.96875 71.578125 30.25 
Q 69.28125 23.53125 65.171875 17.75 
Q 61.078125 11.96875 55.609375 7.5625 
Q 50.140625 3.171875 43.890625 0.59375 
Q 44.53125 -4 45.84375 -6.640625 
Q 47.171875 -9.28125 50.875 -9.28125 
Q 54.78125 -9.28125 58.21875 -6.4375 
Q 61.671875 -3.609375 62.59375 0.203125 
Q 62.796875 1.125 63.71875 1.125 
Q 64.796875 1.125 64.796875 -0.203125 
Q 64.0625 -3.421875 62.625 -6.71875 
Q 61.1875 -10.015625 59.15625 -12.859375 
Q 57.125 -15.71875 54.34375 -17.546875 
Q 51.5625 -19.390625 48.1875 -19.390625 
Q 39.796875 -19.390625 39.796875 -8.59375 
Q 39.796875 -7.953125 40.03125 -5.1875 
Q 40.28125 -2.4375 40.28125 -0.6875 
Q 35.453125 -2.203125 30.421875 -2.203125 
z
M 26.703125 4.6875 
Q 26.703125 0.6875 31.109375 0.6875 
Q 35.546875 0.6875 40.484375 2.875 
L 40.484375 3.8125 
Q 40.484375 7.859375 39.203125 10.125 
Q 37.9375 12.40625 34.28125 12.40625 
Q 32.46875 12.40625 30.6875 11.296875 
Q 28.90625 10.203125 27.796875 8.421875 
Q 26.703125 6.640625 26.703125 4.6875 
z
M 24.125 4.5 
Q 24.125 7.125 25.578125 9.5625 
Q 27.046875 12.015625 29.390625 13.5 
Q 31.734375 14.984375 34.421875 14.984375 
Q 38.765625 14.984375 40.734375 12.046875 
Q 42.71875 9.125 43.40625 4.390625 
Q 49.8125 8.203125 54.6875 15.28125 
Q 59.578125 22.359375 62.140625 30.828125 
Q 64.703125 39.3125 64.703125 46.921875 
Q 64.703125 52.4375 62.859375 57.125 
Q 61.03125 61.8125 57.25 64.6875 
Q 53.46875 67.578125 47.90625 67.578125 
Q 42.53125 67.578125 37.546875 64.9375 
Q 32.5625 62.3125 28.328125 57.90625 
Q 24.21875 53.65625 20.96875 47.375 
Q 17.71875 41.109375 15.953125 34.265625 
Q 14.203125 27.4375 14.203125 21.1875 
Q 14.203125 14.796875 16.6875 9.5625 
Q 19.1875 4.34375 24.515625 2 
Q 24.125 3.03125 24.125 4.5 
z
" id="Cmmi10-81"/>
      <path d="M 4.6875 0 
Q 3.71875 0 3.71875 1.3125 
Q 3.765625 1.5625 3.90625 2.171875 
Q 4.046875 2.78125 4.3125 3.140625 
Q 4.59375 3.515625 4.984375 3.515625 
Q 11.078125 3.515625 13.484375 4.203125 
Q 14.796875 4.640625 15.375 6.890625 
L 29.109375 61.8125 
Q 29.296875 62.796875 29.296875 63.1875 
Q 29.296875 64.265625 28.078125 64.40625 
Q 26.21875 64.796875 20.90625 64.796875 
Q 19.921875 64.796875 19.921875 66.109375 
Q 20.265625 67.390625 20.453125 67.84375 
Q 20.65625 68.3125 21.578125 68.3125 
L 48.484375 68.3125 
Q 49.515625 68.3125 49.515625 67 
Q 49.46875 66.75 49.3125 66.15625 
Q 49.171875 65.578125 48.921875 65.1875 
Q 48.6875 64.796875 48.1875 64.796875 
Q 42.09375 64.796875 39.703125 64.109375 
Q 38.375 63.625 37.796875 61.375 
L 29.6875 29 
L 68.890625 59.28125 
Q 69 59.46875 70.140625 60.609375 
Q 71.296875 61.765625 71.296875 62.890625 
Q 71.296875 64.796875 67.921875 64.796875 
Q 66.890625 64.796875 66.890625 66.109375 
Q 67.09375 66.890625 67.203125 67.328125 
Q 67.328125 67.78125 67.640625 68.046875 
Q 67.96875 68.3125 68.609375 68.3125 
L 87.984375 68.3125 
Q 88.53125 68.3125 88.765625 67.921875 
Q 89.015625 67.53125 89.015625 67 
Q 88.96875 66.75 88.796875 66.109375 
Q 88.625 65.484375 88.359375 65.140625 
Q 88.09375 64.796875 87.59375 64.796875 
Q 80.28125 64.796875 71.578125 58.015625 
Q 71.53125 57.953125 71.4375 57.921875 
Q 71.34375 57.90625 71.234375 57.875 
Q 71.140625 57.859375 71.09375 57.8125 
L 50.484375 41.796875 
L 65.484375 6.6875 
Q 66.84375 4.5 68.40625 4 
Q 69.96875 3.515625 73.1875 3.515625 
Q 74.21875 3.515625 74.21875 2.203125 
Q 73.921875 1.03125 73.625 0.515625 
Q 73.34375 0 72.515625 0 
L 49.3125 0 
Q 48.390625 0 48.390625 1.3125 
Q 48.53125 2.34375 48.71875 2.921875 
Q 48.921875 3.515625 49.703125 3.515625 
Q 52.25 3.515625 54.03125 4.03125 
Q 55.8125 4.546875 55.8125 6.390625 
Q 55.8125 7.078125 55.71875 7.421875 
L 43.3125 36.28125 
L 28.71875 25 
L 24.125 6.5 
Q 23.875 5.28125 23.875 5.078125 
Q 23.875 4.046875 25.09375 3.90625 
Q 27 3.515625 32.328125 3.515625 
Q 33.296875 3.515625 33.296875 2.203125 
Q 32.953125 0.78125 32.75 0.390625 
Q 32.5625 0 31.59375 0 
z
" id="Cmmi10-75"/>
      <path d="M 22.015625 -1.125 
L 14.015625 62.59375 
Q 13.28125 64.796875 6.5 64.796875 
Q 5.515625 64.796875 5.515625 66.109375 
Q 5.71875 67.1875 6 67.75 
Q 6.296875 68.3125 7.171875 68.3125 
L 31.59375 68.3125 
Q 32.125 68.3125 32.375 67.921875 
Q 32.625 67.53125 32.625 67 
Q 32.234375 64.796875 31.296875 64.796875 
Q 23.484375 64.796875 23 62.109375 
L 29.59375 9.8125 
L 60.40625 58.984375 
Q 61.28125 60.640625 61.28125 61.625 
Q 61.28125 63.375 59.6875 64.078125 
Q 58.109375 64.796875 56 64.796875 
Q 54.984375 64.796875 54.984375 66.109375 
Q 55.171875 66.890625 55.3125 67.328125 
Q 55.46875 67.78125 55.765625 68.046875 
Q 56.0625 68.3125 56.6875 68.3125 
L 75.984375 68.3125 
Q 76.90625 68.3125 76.90625 67 
Q 76.515625 64.796875 75.59375 64.796875 
Q 68.0625 64.796875 63.8125 58.203125 
Q 63.625 58.015625 63.484375 58.015625 
L 26.609375 -1.125 
Q 25.875 -2.203125 24.703125 -2.203125 
L 23.296875 -2.203125 
Q 22.171875 -2.203125 22.015625 -1.125 
z
" id="Cmmi10-86"/>
     </defs>
     <use transform="translate(0 0.484375)" xlink:href="#Cmmi10-81"/>
     <use transform="translate(79.003906 0.484375)" xlink:href="#Cmmi10-59"/>
     <use transform="translate(124.248047 0.484375)" xlink:href="#Cmmi10-75"/>
     <use transform="translate(209.160156 0.484375)" xlink:href="#Cmmi10-59"/>
     <use transform="translate(254.404297 0.484375)" xlink:href="#Cmmi10-86"/>
    </g>
   </g>
   <g id="text_13">
    <g id="patch_15">
     <path d="M 33.924687 229.233689 
L 90.624687 229.233689 
Q 93.624687 229.233689 93.624687 226.233689 
L 93.624687 216.555564 
Q 93.624687 213.555564 90.624687 213.555564 
L 33.924687 213.555564 
Q 30.924687 213.555564 30.924687 216.555564 
L 30.924687 226.233689 
Q 30.924687 229.233689 33.924687 229.233689 
z
" style="fill:#ffffff;stroke:#ffa500;stroke-linejoin:miter;"/>
    </g>
    <!-- $\mathrm{Add \ &amp; \ Norm}$ -->
    <g transform="translate(33.924687 224.154002)scale(0.1 -0.1)">
     <defs>
      <path d="M 4.203125 12.984375 
Q 4.203125 18.609375 8.203125 22.609375 
L 20.125 35.015625 
Q 18.21875 39.984375 17.15625 45.234375 
Q 16.109375 50.484375 16.109375 55.609375 
Q 16.109375 59.578125 17.84375 63.25 
Q 19.578125 66.9375 22.78125 69.25 
Q 25.984375 71.578125 30.171875 71.578125 
Q 34.765625 71.578125 36.890625 67.375 
Q 39.015625 63.1875 39.015625 58.109375 
Q 39.015625 53.65625 35.625 48.921875 
Q 32.234375 44.1875 26.703125 38.1875 
Q 28.125 34.71875 29.734375 31.640625 
Q 31.34375 28.5625 33.421875 25.28125 
Q 35.5 22.015625 37.96875 18.640625 
Q 40.4375 15.28125 42.921875 12.109375 
Q 45.90625 15.625 48.125 19.0625 
Q 50.34375 22.515625 54.390625 29.296875 
L 56.890625 33.6875 
Q 57.421875 34.28125 57.421875 35.40625 
Q 57.421875 37.75 55.265625 38.671875 
Q 53.125 39.59375 50.390625 39.59375 
L 50.390625 43.109375 
L 72.703125 43.109375 
L 72.703125 39.59375 
Q 63.671875 39.59375 60.203125 33.6875 
L 56.984375 28.21875 
Q 53.65625 22.46875 50.890625 18.1875 
Q 48.140625 13.921875 44.828125 10.015625 
Q 48.09375 6.25 51.390625 3.78125 
Q 54.6875 1.3125 58.296875 1.3125 
Q 61.1875 1.3125 63.703125 2.78125 
Q 66.21875 4.25 67.703125 6.71875 
Q 69.1875 9.1875 69.1875 12.109375 
L 72.125 12.109375 
Q 72.125 8.40625 70.265625 5.078125 
Q 68.40625 1.765625 65.234375 -0.21875 
Q 62.0625 -2.203125 58.296875 -2.203125 
Q 48.640625 -2.203125 40.375 5.421875 
Q 32.03125 -2.203125 22.21875 -2.203125 
Q 17.828125 -2.203125 13.625 -0.34375 
Q 9.421875 1.515625 6.8125 5 
Q 4.203125 8.5 4.203125 12.984375 
z
M 23.09375 1.3125 
Q 31.296875 1.3125 38.1875 7.421875 
Q 33.25 12.546875 28.65625 19.28125 
Q 24.078125 26.03125 21.1875 32.421875 
L 17.1875 28.328125 
Q 12.890625 23.828125 12.890625 16.109375 
Q 12.890625 12.75 13.96875 9.34375 
Q 15.046875 5.953125 17.359375 3.625 
Q 19.671875 1.3125 23.09375 1.3125 
z
M 25.6875 40.921875 
Q 30.21875 45.953125 33.140625 50.140625 
Q 36.078125 54.34375 36.078125 58.203125 
Q 36.078125 60.59375 35.59375 62.984375 
Q 35.109375 65.375 33.765625 67.1875 
Q 32.421875 69 30.171875 69 
Q 27.640625 69 25.953125 67.265625 
Q 24.265625 65.53125 23.484375 63.015625 
Q 22.703125 60.5 22.703125 58.109375 
Q 22.703125 49.46875 25.6875 40.921875 
z
" id="Cmr10-38"/>
      <path d="M 3.078125 0 
L 3.078125 3.515625 
Q 13.375 3.515625 13.375 9.421875 
L 13.375 64.203125 
Q 10.109375 64.796875 3.078125 64.796875 
L 3.078125 68.3125 
L 22.21875 68.3125 
Q 22.703125 68.3125 22.90625 67.921875 
L 58.296875 15.828125 
L 58.296875 58.890625 
Q 58.296875 64.796875 48 64.796875 
L 48 68.3125 
L 71.78125 68.3125 
L 71.78125 64.796875 
Q 61.53125 64.796875 61.53125 58.890625 
L 61.53125 0.875 
Q 61.53125 0.59375 61.140625 0.296875 
Q 60.75 0 60.5 0 
L 59.28125 0 
Q 58.796875 0 58.59375 0.390625 
L 16.609375 62.203125 
L 16.609375 9.421875 
Q 16.609375 3.515625 26.90625 3.515625 
L 26.90625 0 
z
" id="Cmr10-78"/>
      <path d="M 2.59375 0 
L 2.59375 3.515625 
Q 6 3.515625 8.203125 4.046875 
Q 10.40625 4.59375 10.40625 6.6875 
L 10.40625 33.984375 
Q 10.40625 36.671875 9.59375 37.859375 
Q 8.796875 39.0625 7.28125 39.328125 
Q 5.765625 39.59375 2.59375 39.59375 
L 2.59375 43.109375 
L 16.890625 44.1875 
L 16.890625 34.421875 
Q 18.5 38.765625 21.484375 41.46875 
Q 24.46875 44.1875 28.71875 44.1875 
Q 31.6875 44.1875 34.03125 42.421875 
Q 36.375 40.671875 36.375 37.796875 
Q 36.375 35.984375 35.078125 34.640625 
Q 33.796875 33.296875 31.890625 33.296875 
Q 30.03125 33.296875 28.703125 34.609375 
Q 27.390625 35.9375 27.390625 37.796875 
Q 27.390625 40.484375 29.296875 41.609375 
L 28.71875 41.609375 
Q 24.65625 41.609375 22.09375 38.671875 
Q 19.53125 35.75 18.453125 31.390625 
Q 17.390625 27.046875 17.390625 23.09375 
L 17.390625 6.6875 
Q 17.390625 3.515625 27.09375 3.515625 
L 27.09375 0 
z
" id="Cmr10-114"/>
      <path d="M 2.984375 0 
L 2.984375 3.515625 
Q 6.390625 3.515625 8.59375 4.046875 
Q 10.796875 4.59375 10.796875 6.6875 
L 10.796875 33.984375 
Q 10.796875 36.671875 9.984375 37.859375 
Q 9.1875 39.0625 7.671875 39.328125 
Q 6.15625 39.59375 2.984375 39.59375 
L 2.984375 43.109375 
L 17.484375 44.1875 
L 17.484375 34.421875 
Q 19.484375 38.71875 23.40625 41.453125 
Q 27.34375 44.1875 31.984375 44.1875 
Q 43.5 44.1875 45.515625 34.8125 
Q 47.515625 39.015625 51.359375 41.59375 
Q 55.21875 44.1875 59.8125 44.1875 
Q 64.359375 44.1875 67.453125 42.71875 
Q 70.5625 41.265625 72.125 38.25 
Q 73.6875 35.25 73.6875 30.71875 
L 73.6875 6.6875 
Q 73.6875 4.59375 75.90625 4.046875 
Q 78.125 3.515625 81.5 3.515625 
L 81.5 0 
L 58.59375 0 
L 58.59375 3.515625 
Q 62.015625 3.515625 64.203125 4.046875 
Q 66.40625 4.59375 66.40625 6.6875 
L 66.40625 30.421875 
Q 66.40625 35.453125 64.984375 38.53125 
Q 63.578125 41.609375 59.1875 41.609375 
Q 53.421875 41.609375 49.65625 36.96875 
Q 45.90625 32.328125 45.90625 26.421875 
L 45.90625 6.6875 
Q 45.90625 4.59375 48.09375 4.046875 
Q 50.296875 3.515625 53.71875 3.515625 
L 53.71875 0 
L 30.8125 0 
L 30.8125 3.515625 
Q 34.234375 3.515625 36.421875 4.046875 
Q 38.625 4.59375 38.625 6.6875 
L 38.625 30.421875 
Q 38.625 35.296875 37.203125 38.453125 
Q 35.796875 41.609375 31.390625 41.609375 
Q 25.59375 41.609375 21.84375 36.96875 
Q 18.109375 32.328125 18.109375 26.421875 
L 18.109375 6.6875 
Q 18.109375 4.59375 20.3125 4.046875 
Q 22.515625 3.515625 25.875 3.515625 
L 25.875 0 
z
" id="Cmr10-109"/>
     </defs>
     <use transform="translate(0 0.421875)" xlink:href="#Cmr10-65"/>
     <use transform="translate(75 0.421875)" xlink:href="#Cmr10-100"/>
     <use transform="translate(130.517578 0.421875)" xlink:href="#Cmr10-100"/>
     <use transform="translate(213.801806 0.421875)" xlink:href="#Cmr10-38"/>
     <use transform="translate(319.254002 0.421875)" xlink:href="#Cmr10-78"/>
     <use transform="translate(394.254002 0.421875)" xlink:href="#Cmr10-111"/>
     <use transform="translate(444.254002 0.421875)" xlink:href="#Cmr10-114"/>
     <use transform="translate(483.36533 0.421875)" xlink:href="#Cmr10-109"/>
    </g>
   </g>
   <g id="patch_16">
    <path d="M 62.274687 231.234984 
Q 62.274687 231.76597 62.274687 232.296957 
" style="fill:none;stroke:#000000;stroke-linecap:round;"/>
   </g>
   <g id="text_14">
    <g id="patch_17">
     <path d="M 27.674687 186.151999 
L 96.874687 186.151999 
Q 99.874687 186.151999 99.874687 183.151999 
L 99.874687 162.276061 
Q 99.874687 159.276061 96.874687 159.276061 
L 27.674687 159.276061 
Q 24.674687 159.276061 24.674687 162.276061 
L 24.674687 183.151999 
Q 24.674687 186.151999 27.674687 186.151999 
z
" style="fill:#ffffff;stroke:#000000;stroke-linejoin:miter;"/>
    </g>
    <!-- $\mathrm{Feed \ Forward}$ -->
    <g transform="translate(31.824687 169.874499)scale(0.1 -0.1)">
     <defs>
      <path d="M 3.078125 0 
L 3.078125 3.515625 
Q 13.375 3.515625 13.375 6.6875 
L 13.375 61.625 
Q 13.375 64.796875 3.078125 64.796875 
L 3.078125 68.3125 
L 58.203125 68.3125 
L 60.984375 45.40625 
L 58.109375 45.40625 
Q 57.421875 51.703125 56.265625 55.34375 
Q 55.125 58.984375 52.921875 61.0625 
Q 50.734375 63.140625 47.046875 63.96875 
Q 43.359375 64.796875 36.921875 64.796875 
L 27.78125 64.796875 
Q 25.984375 64.796875 24.96875 64.640625 
Q 23.96875 64.5 23.328125 63.796875 
Q 22.703125 63.09375 22.703125 61.625 
L 22.703125 35.890625 
L 29.78125 35.890625 
Q 34.90625 35.890625 37.296875 36.796875 
Q 39.703125 37.703125 40.59375 40.09375 
Q 41.5 42.484375 41.5 47.609375 
L 44.390625 47.609375 
L 44.390625 20.703125 
L 41.5 20.703125 
Q 41.5 25.828125 40.59375 28.21875 
Q 39.703125 30.609375 37.296875 31.515625 
Q 34.90625 32.421875 29.78125 32.421875 
L 22.703125 32.421875 
L 22.703125 6.6875 
Q 22.703125 3.515625 35.5 3.515625 
L 35.5 0 
z
" id="Cmr10-70"/>
      <path d="M 22.125 0 
L 9.1875 36.375 
Q 8.296875 38.578125 6.640625 39.078125 
Q 4.984375 39.59375 1.8125 39.59375 
L 1.8125 43.109375 
L 22.40625 43.109375 
L 22.40625 39.59375 
Q 16.5 39.59375 16.5 37.109375 
Q 16.546875 36.96875 16.578125 36.8125 
Q 16.609375 36.671875 16.609375 36.375 
L 26.21875 9.421875 
L 34.515625 32.90625 
L 33.203125 36.375 
Q 32.421875 38.578125 30.703125 39.078125 
Q 29 39.59375 25.875 39.59375 
L 25.875 43.109375 
L 45.609375 43.109375 
L 45.609375 39.59375 
Q 39.703125 39.59375 39.703125 37.109375 
Q 39.703125 36.71875 39.796875 36.375 
L 49.8125 8.203125 
L 58.890625 33.6875 
Q 59.078125 34.46875 59.078125 35.109375 
Q 59.078125 37.203125 57.296875 38.390625 
Q 55.515625 39.59375 53.328125 39.59375 
L 53.328125 43.109375 
L 70.3125 43.109375 
L 70.3125 39.59375 
Q 67.28125 39.59375 65.109375 38 
Q 62.9375 36.421875 61.921875 33.6875 
L 50 0 
Q 49.65625 -1.125 48.484375 -1.125 
L 47.703125 -1.125 
Q 46.53125 -1.125 46.1875 0 
L 36.078125 28.515625 
L 25.984375 0 
Q 25.484375 -1.125 24.421875 -1.125 
L 23.6875 -1.125 
Q 22.46875 -1.125 22.125 0 
z
" id="Cmr10-119"/>
     </defs>
     <use transform="translate(0 0.609375)" xlink:href="#Cmr10-70"/>
     <use transform="translate(65.185547 0.609375)" xlink:href="#Cmr10-101"/>
     <use transform="translate(109.570312 0.609375)" xlink:href="#Cmr10-101"/>
     <use transform="translate(153.955078 0.609375)" xlink:href="#Cmr10-100"/>
     <use transform="translate(237.239306 0.609375)" xlink:href="#Cmr10-70"/>
     <use transform="translate(302.424853 0.609375)" xlink:href="#Cmr10-111"/>
     <use transform="translate(352.424853 0.609375)" xlink:href="#Cmr10-114"/>
     <use transform="translate(391.536181 0.609375)" xlink:href="#Cmr10-119"/>
     <use transform="translate(463.752978 0.609375)" xlink:href="#Cmr10-97"/>
     <use transform="translate(513.752978 0.609375)" xlink:href="#Cmr10-114"/>
     <use transform="translate(552.864306 0.609375)" xlink:href="#Cmr10-100"/>
    </g>
    <!-- $\mathrm{Neural\ Network}$ -->
    <g transform="translate(27.674687 181.072311)scale(0.1 -0.1)">
     <defs>
      <path d="M 2.59375 0 
L 2.59375 3.515625 
Q 6 3.515625 8.203125 4.046875 
Q 10.40625 4.59375 10.40625 6.6875 
L 10.40625 59.1875 
Q 10.40625 61.859375 9.59375 63.0625 
Q 8.796875 64.265625 7.28125 64.53125 
Q 5.765625 64.796875 2.59375 64.796875 
L 2.59375 68.3125 
L 17.390625 69.390625 
L 17.390625 21.921875 
L 30.8125 33.6875 
Q 32.8125 35.59375 32.8125 37.203125 
Q 32.8125 38.375 31.984375 38.984375 
Q 31.15625 39.59375 29.984375 39.59375 
L 29.984375 43.109375 
L 48.78125 43.109375 
L 48.78125 39.59375 
Q 42 39.59375 35.203125 33.6875 
L 28.078125 27.484375 
L 40.828125 9.421875 
Q 43.453125 5.671875 45.234375 4.59375 
Q 47.015625 3.515625 51.125 3.515625 
L 51.125 0 
L 31.203125 0 
L 31.203125 3.515625 
Q 34.625 3.515625 34.625 5.609375 
Q 34.625 7.125 32.8125 9.421875 
L 23.1875 23.09375 
L 17.09375 17.828125 
L 17.09375 6.6875 
Q 17.09375 4.59375 19.3125 4.046875 
Q 21.53125 3.515625 24.90625 3.515625 
L 24.90625 0 
z
" id="Cmr10-107"/>
     </defs>
     <use transform="translate(0 0.609375)" xlink:href="#Cmr10-78"/>
     <use transform="translate(75 0.609375)" xlink:href="#Cmr10-101"/>
     <use transform="translate(119.384766 0.609375)" xlink:href="#Cmr10-117"/>
     <use transform="translate(174.902344 0.609375)" xlink:href="#Cmr10-114"/>
     <use transform="translate(214.013672 0.609375)" xlink:href="#Cmr10-97"/>
     <use transform="translate(264.013672 0.609375)" xlink:href="#Cmr10-108"/>
     <use transform="translate(319.465868 0.609375)" xlink:href="#Cmr10-78"/>
     <use transform="translate(394.465868 0.609375)" xlink:href="#Cmr10-101"/>
     <use transform="translate(438.850634 0.609375)" xlink:href="#Cmr10-116"/>
     <use transform="translate(477.668993 0.609375)" xlink:href="#Cmr10-119"/>
     <use transform="translate(549.88579 0.609375)" xlink:href="#Cmr10-111"/>
     <use transform="translate(599.88579 0.609375)" xlink:href="#Cmr10-114"/>
     <use transform="translate(638.997118 0.609375)" xlink:href="#Cmr10-107"/>
    </g>
   </g>
   <g id="patch_18">
    <path d="M 62.274687 189.267094 
Q 62.274687 199.852117 62.274687 211.555174 
" style="fill:none;stroke:#000000;stroke-linecap:round;"/>
    <path d="M 60.274687 193.267094 
L 62.274687 189.267094 
L 64.274687 193.267094 
" style="fill:none;stroke:#000000;stroke-linecap:round;"/>
   </g>
   <g id="text_15">
    <g id="patch_19">
     <path d="M 33.924687 156.212794 
L 90.624687 156.212794 
Q 93.624687 156.212794 93.624687 153.212794 
L 93.624687 143.534669 
Q 93.624687 140.534669 90.624687 140.534669 
L 33.924687 140.534669 
Q 30.924687 140.534669 30.924687 143.534669 
L 30.924687 153.212794 
Q 30.924687 156.212794 33.924687 156.212794 
z
" style="fill:#ffffff;stroke:#ffa500;stroke-linejoin:miter;"/>
    </g>
    <!-- $\mathrm{Add \ &amp; \ Norm}$ -->
    <g transform="translate(33.924687 151.133106)scale(0.1 -0.1)">
     <use transform="translate(0 0.421875)" xlink:href="#Cmr10-65"/>
     <use transform="translate(75 0.421875)" xlink:href="#Cmr10-100"/>
     <use transform="translate(130.517578 0.421875)" xlink:href="#Cmr10-100"/>
     <use transform="translate(213.801806 0.421875)" xlink:href="#Cmr10-38"/>
     <use transform="translate(319.254002 0.421875)" xlink:href="#Cmr10-78"/>
     <use transform="translate(394.254002 0.421875)" xlink:href="#Cmr10-111"/>
     <use transform="translate(444.254002 0.421875)" xlink:href="#Cmr10-114"/>
     <use transform="translate(483.36533 0.421875)" xlink:href="#Cmr10-109"/>
    </g>
   </g>
   <g id="patch_20">
    <path d="M 62.274687 158.214089 
Q 62.274687 158.745075 62.274687 159.276061 
" style="fill:none;stroke:#000000;stroke-linecap:round;"/>
   </g>
   <g id="patch_21">
    <path d="M 62.274687 124.033433 
Q 62.274687 131.282938 62.274687 138.532444 
" style="fill:none;stroke:#000000;stroke-linecap:round;"/>
   </g>
   <g id="patch_22">
    <path d="M 221.703259 124.033433 
Q 141.988973 124.033433 62.274687 124.033433 
" style="fill:none;stroke:#000000;stroke-linecap:round;"/>
   </g>
   <g id="text_16">
    <g id="patch_23">
     <path d="M 272.517545 210.492297 
L 330.317545 210.492297 
Q 333.317545 210.492297 333.317545 207.492297 
L 333.317545 186.61636 
Q 333.317545 183.61636 330.317545 183.61636 
L 272.517545 183.61636 
Q 269.517545 183.61636 269.517545 186.61636 
L 269.517545 207.492297 
Q 269.517545 210.492297 272.517545 210.492297 
z
" style="fill:#ffffff;stroke:#1f77b4;stroke-linejoin:miter;"/>
    </g>
    <!-- $\mathrm{Multi-Head}$ -->
    <g transform="translate(272.517545 194.214797)scale(0.1 -0.1)">
     <use transform="translate(0 0.609375)" xlink:href="#Cmr10-77"/>
     <use transform="translate(91.601562 0.609375)" xlink:href="#Cmr10-117"/>
     <use transform="translate(147.119141 0.609375)" xlink:href="#Cmr10-108"/>
     <use transform="translate(174.804688 0.609375)" xlink:href="#Cmr10-116"/>
     <use transform="translate(213.623047 0.609375)" xlink:href="#Cmr10-105"/>
     <use transform="translate(257.96875 0.609375)" xlink:href="#Cmsy10-161"/>
     <use transform="translate(352.314453 0.609375)" xlink:href="#Cmr10-72"/>
     <use transform="translate(427.314453 0.609375)" xlink:href="#Cmr10-101"/>
     <use transform="translate(471.699219 0.609375)" xlink:href="#Cmr10-97"/>
     <use transform="translate(521.699219 0.609375)" xlink:href="#Cmr10-100"/>
    </g>
    <!-- $\mathrm{Attention}$ -->
    <g transform="translate(280.167545 205.41261)scale(0.1 -0.1)">
     <use transform="translate(0 0.421875)" xlink:href="#Cmr10-65"/>
     <use transform="translate(75 0.421875)" xlink:href="#Cmr10-116"/>
     <use transform="translate(113.818359 0.421875)" xlink:href="#Cmr10-116"/>
     <use transform="translate(152.636719 0.421875)" xlink:href="#Cmr10-101"/>
     <use transform="translate(197.021484 0.421875)" xlink:href="#Cmr10-110"/>
     <use transform="translate(252.539062 0.421875)" xlink:href="#Cmr10-116"/>
     <use transform="translate(291.357422 0.421875)" xlink:href="#Cmr10-105"/>
     <use transform="translate(319.042969 0.421875)" xlink:href="#Cmr10-111"/>
     <use transform="translate(369.042969 0.421875)" xlink:href="#Cmr10-110"/>
    </g>
   </g>
   <g id="patch_24">
    <path d="M 290.826745 213.612879 
L 290.826745 232.631124 
L 221.703259 232.631124 
L 221.703259 124.033433 
" style="fill:none;stroke:#000000;stroke-linecap:round;"/>
    <path d="M 288.826745 217.612879 
L 290.826745 213.612879 
L 292.826745 217.612879 
" style="fill:none;stroke:#000000;stroke-linecap:round;"/>
   </g>
   <g id="text_17">
    <!-- $K, V$ -->
    <g transform="translate(265.595873 229.960615)scale(0.1 -0.1)">
     <use transform="translate(0 0.6875)" xlink:href="#Cmmi10-75"/>
     <use transform="translate(84.912109 0.6875)" xlink:href="#Cmmi10-59"/>
     <use transform="translate(130.15625 0.6875)" xlink:href="#Cmmi10-86"/>
    </g>
   </g>
   <g id="text_18">
    <g id="patch_25">
     <path d="M 273.067545 253.573988 
L 329.767545 253.573988 
Q 332.767545 253.573988 332.767545 250.573988 
L 332.767545 240.895863 
Q 332.767545 237.895863 329.767545 237.895863 
L 273.067545 237.895863 
Q 270.067545 237.895863 270.067545 240.895863 
L 270.067545 250.573988 
Q 270.067545 253.573988 273.067545 253.573988 
z
" style="fill:#ffffff;stroke:#ffa500;stroke-linejoin:miter;"/>
    </g>
    <!-- $\mathrm{Add \ &amp; \ Norm}$ -->
    <g transform="translate(273.067545 248.4943)scale(0.1 -0.1)">
     <use transform="translate(0 0.421875)" xlink:href="#Cmr10-65"/>
     <use transform="translate(75 0.421875)" xlink:href="#Cmr10-100"/>
     <use transform="translate(130.517578 0.421875)" xlink:href="#Cmr10-100"/>
     <use transform="translate(213.801806 0.421875)" xlink:href="#Cmr10-38"/>
     <use transform="translate(319.254002 0.421875)" xlink:href="#Cmr10-78"/>
     <use transform="translate(394.254002 0.421875)" xlink:href="#Cmr10-111"/>
     <use transform="translate(444.254002 0.421875)" xlink:href="#Cmr10-114"/>
     <use transform="translate(483.36533 0.421875)" xlink:href="#Cmr10-109"/>
    </g>
   </g>
   <g id="patch_26">
    <path d="M 301.417545 235.898801 
Q 301.417545 224.195744 301.417545 213.610721 
" style="fill:none;stroke:#000000;stroke-linecap:round;"/>
    <path d="M 299.417545 217.610721 
L 301.417545 213.610721 
L 303.417545 217.610721 
" style="fill:none;stroke:#000000;stroke-linecap:round;"/>
   </g>
   <g id="text_19">
    <!-- $Q$ -->
    <g transform="translate(303.417545 227.514136)scale(0.1 -0.1)">
     <use transform="translate(0 0.484375)" xlink:href="#Cmmi10-81"/>
    </g>
   </g>
   <g id="text_20">
    <g id="patch_27">
     <path d="M 272.517545 283.513193 
L 330.317545 283.513193 
Q 333.317545 283.513193 333.317545 280.513193 
L 333.317545 259.637255 
Q 333.317545 256.637255 330.317545 256.637255 
L 272.517545 256.637255 
Q 269.517545 256.637255 269.517545 259.637255 
L 269.517545 280.513193 
Q 269.517545 283.513193 272.517545 283.513193 
z
" style="fill:#ffffff;stroke:#1f77b4;stroke-linejoin:miter;"/>
    </g>
    <!-- $\mathrm{Multi-Head}$ -->
    <g transform="translate(272.517545 267.235693)scale(0.1 -0.1)">
     <use transform="translate(0 0.609375)" xlink:href="#Cmr10-77"/>
     <use transform="translate(91.601562 0.609375)" xlink:href="#Cmr10-117"/>
     <use transform="translate(147.119141 0.609375)" xlink:href="#Cmr10-108"/>
     <use transform="translate(174.804688 0.609375)" xlink:href="#Cmr10-116"/>
     <use transform="translate(213.623047 0.609375)" xlink:href="#Cmr10-105"/>
     <use transform="translate(257.96875 0.609375)" xlink:href="#Cmsy10-161"/>
     <use transform="translate(352.314453 0.609375)" xlink:href="#Cmr10-72"/>
     <use transform="translate(427.314453 0.609375)" xlink:href="#Cmr10-101"/>
     <use transform="translate(471.699219 0.609375)" xlink:href="#Cmr10-97"/>
     <use transform="translate(521.699219 0.609375)" xlink:href="#Cmr10-100"/>
    </g>
    <!-- $\mathrm{Attention}$ -->
    <g transform="translate(280.167545 278.433505)scale(0.1 -0.1)">
     <use transform="translate(0 0.421875)" xlink:href="#Cmr10-65"/>
     <use transform="translate(75 0.421875)" xlink:href="#Cmr10-116"/>
     <use transform="translate(113.818359 0.421875)" xlink:href="#Cmr10-116"/>
     <use transform="translate(152.636719 0.421875)" xlink:href="#Cmr10-101"/>
     <use transform="translate(197.021484 0.421875)" xlink:href="#Cmr10-110"/>
     <use transform="translate(252.539062 0.421875)" xlink:href="#Cmr10-116"/>
     <use transform="translate(291.357422 0.421875)" xlink:href="#Cmr10-105"/>
     <use transform="translate(319.042969 0.421875)" xlink:href="#Cmr10-111"/>
     <use transform="translate(369.042969 0.421875)" xlink:href="#Cmr10-110"/>
    </g>
   </g>
   <g id="patch_28">
    <path d="M 301.417545 254.63596 
Q 301.417545 254.104974 301.417545 253.573988 
" style="fill:none;stroke:#000000;stroke-linecap:round;"/>
   </g>
   <g id="text_21">
    <g id="patch_29">
     <path d="M 273.067545 180.553092 
L 329.767545 180.553092 
Q 332.767545 180.553092 332.767545 177.553092 
L 332.767545 167.874967 
Q 332.767545 164.874967 329.767545 164.874967 
L 273.067545 164.874967 
Q 270.067545 164.874967 270.067545 167.874967 
L 270.067545 177.553092 
Q 270.067545 180.553092 273.067545 180.553092 
z
" style="fill:#ffffff;stroke:#ffa500;stroke-linejoin:miter;"/>
    </g>
    <!-- $\mathrm{Add \ &amp; \ Norm}$ -->
    <g transform="translate(273.067545 175.473405)scale(0.1 -0.1)">
     <use transform="translate(0 0.421875)" xlink:href="#Cmr10-65"/>
     <use transform="translate(75 0.421875)" xlink:href="#Cmr10-100"/>
     <use transform="translate(130.517578 0.421875)" xlink:href="#Cmr10-100"/>
     <use transform="translate(213.801806 0.421875)" xlink:href="#Cmr10-38"/>
     <use transform="translate(319.254002 0.421875)" xlink:href="#Cmr10-78"/>
     <use transform="translate(394.254002 0.421875)" xlink:href="#Cmr10-111"/>
     <use transform="translate(444.254002 0.421875)" xlink:href="#Cmr10-114"/>
     <use transform="translate(483.36533 0.421875)" xlink:href="#Cmr10-109"/>
    </g>
   </g>
   <g id="patch_30">
    <path d="M 301.417545 182.554387 
Q 301.417545 183.085373 301.417545 183.61636 
" style="fill:none;stroke:#000000;stroke-linecap:round;"/>
   </g>
   <g id="text_22">
    <g id="patch_31">
     <path d="M 266.817545 137.471402 
L 336.017545 137.471402 
Q 339.017545 137.471402 339.017545 134.471402 
L 339.017545 113.595464 
Q 339.017545 110.595464 336.017545 110.595464 
L 266.817545 110.595464 
Q 263.817545 110.595464 263.817545 113.595464 
L 263.817545 134.471402 
Q 263.817545 137.471402 266.817545 137.471402 
z
" style="fill:#ffffff;stroke:#000000;stroke-linejoin:miter;"/>
    </g>
    <!-- $\mathrm{Feed \ Forward}$ -->
    <g transform="translate(270.967545 121.193902)scale(0.1 -0.1)">
     <use transform="translate(0 0.609375)" xlink:href="#Cmr10-70"/>
     <use transform="translate(65.185547 0.609375)" xlink:href="#Cmr10-101"/>
     <use transform="translate(109.570312 0.609375)" xlink:href="#Cmr10-101"/>
     <use transform="translate(153.955078 0.609375)" xlink:href="#Cmr10-100"/>
     <use transform="translate(237.239306 0.609375)" xlink:href="#Cmr10-70"/>
     <use transform="translate(302.424853 0.609375)" xlink:href="#Cmr10-111"/>
     <use transform="translate(352.424853 0.609375)" xlink:href="#Cmr10-114"/>
     <use transform="translate(391.536181 0.609375)" xlink:href="#Cmr10-119"/>
     <use transform="translate(463.752978 0.609375)" xlink:href="#Cmr10-97"/>
     <use transform="translate(513.752978 0.609375)" xlink:href="#Cmr10-114"/>
     <use transform="translate(552.864306 0.609375)" xlink:href="#Cmr10-100"/>
    </g>
    <!-- $\mathrm{Neural\ Network}$ -->
    <g transform="translate(266.817545 132.391714)scale(0.1 -0.1)">
     <use transform="translate(0 0.609375)" xlink:href="#Cmr10-78"/>
     <use transform="translate(75 0.609375)" xlink:href="#Cmr10-101"/>
     <use transform="translate(119.384766 0.609375)" xlink:href="#Cmr10-117"/>
     <use transform="translate(174.902344 0.609375)" xlink:href="#Cmr10-114"/>
     <use transform="translate(214.013672 0.609375)" xlink:href="#Cmr10-97"/>
     <use transform="translate(264.013672 0.609375)" xlink:href="#Cmr10-108"/>
     <use transform="translate(319.465868 0.609375)" xlink:href="#Cmr10-78"/>
     <use transform="translate(394.465868 0.609375)" xlink:href="#Cmr10-101"/>
     <use transform="translate(438.850634 0.609375)" xlink:href="#Cmr10-116"/>
     <use transform="translate(477.668993 0.609375)" xlink:href="#Cmr10-119"/>
     <use transform="translate(549.88579 0.609375)" xlink:href="#Cmr10-111"/>
     <use transform="translate(599.88579 0.609375)" xlink:href="#Cmr10-114"/>
     <use transform="translate(638.997118 0.609375)" xlink:href="#Cmr10-107"/>
    </g>
   </g>
   <g id="patch_32">
    <path d="M 301.417545 140.586497 
Q 301.417545 151.17152 301.417545 162.874577 
" style="fill:none;stroke:#000000;stroke-linecap:round;"/>
    <path d="M 299.417545 144.586497 
L 301.417545 140.586497 
L 303.417545 144.586497 
" style="fill:none;stroke:#000000;stroke-linecap:round;"/>
   </g>
   <g id="text_23">
    <g id="patch_33">
     <path d="M 273.067545 107.532197 
L 329.767545 107.532197 
Q 332.767545 107.532197 332.767545 104.532197 
L 332.767545 94.854072 
Q 332.767545 91.854072 329.767545 91.854072 
L 273.067545 91.854072 
Q 270.067545 91.854072 270.067545 94.854072 
L 270.067545 104.532197 
Q 270.067545 107.532197 273.067545 107.532197 
z
" style="fill:#ffffff;stroke:#ffa500;stroke-linejoin:miter;"/>
    </g>
    <!-- $\mathrm{Add \ &amp; \ Norm}$ -->
    <g transform="translate(273.067545 102.452509)scale(0.1 -0.1)">
     <use transform="translate(0 0.421875)" xlink:href="#Cmr10-65"/>
     <use transform="translate(75 0.421875)" xlink:href="#Cmr10-100"/>
     <use transform="translate(130.517578 0.421875)" xlink:href="#Cmr10-100"/>
     <use transform="translate(213.801806 0.421875)" xlink:href="#Cmr10-38"/>
     <use transform="translate(319.254002 0.421875)" xlink:href="#Cmr10-78"/>
     <use transform="translate(394.254002 0.421875)" xlink:href="#Cmr10-111"/>
     <use transform="translate(444.254002 0.421875)" xlink:href="#Cmr10-114"/>
     <use transform="translate(483.36533 0.421875)" xlink:href="#Cmr10-109"/>
    </g>
   </g>
   <g id="patch_34">
    <path d="M 301.417545 109.533492 
Q 301.417545 110.064478 301.417545 110.595464 
" style="fill:none;stroke:#000000;stroke-linecap:round;"/>
   </g>
   <g id="text_24">
    <g id="patch_35">
     <path d="M 266.767545 68.587719 
L 336.067545 68.587719 
Q 339.067545 68.587719 339.067545 65.587719 
L 339.067545 55.909594 
Q 339.067545 52.909594 336.067545 52.909594 
L 266.767545 52.909594 
Q 263.767545 52.909594 263.767545 55.909594 
L 263.767545 65.587719 
Q 263.767545 68.587719 266.767545 68.587719 
z
" style="fill:#ffffff;stroke:#000000;stroke-linejoin:miter;"/>
    </g>
    <!--       $\mathrm{Linear}$        -->
    <g transform="translate(266.767545 63.508032)scale(0.1 -0.1)">
     <defs>
      <path d="M 3.078125 0 
L 3.078125 3.515625 
Q 13.375 3.515625 13.375 6.6875 
L 13.375 61.625 
Q 13.375 64.796875 3.078125 64.796875 
L 3.078125 68.3125 
L 35.5 68.3125 
L 35.5 64.796875 
Q 22.703125 64.796875 22.703125 61.625 
L 22.703125 6.6875 
Q 22.703125 4.546875 23.921875 4.03125 
Q 25.140625 3.515625 27.78125 3.515625 
L 35.5 3.515625 
Q 42.96875 3.515625 47.015625 6.25 
Q 51.078125 8.984375 52.75 13.6875 
Q 54.4375 18.40625 55.328125 26.21875 
L 58.203125 26.21875 
L 55.421875 0 
z
" id="Cmr10-76"/>
     </defs>
     <use transform="translate(0 0.6875)" xlink:href="#DejaVuSans-32"/>
     <use transform="translate(31.787109 0.6875)" xlink:href="#DejaVuSans-32"/>
     <use transform="translate(63.574219 0.6875)" xlink:href="#DejaVuSans-32"/>
     <use transform="translate(95.361328 0.6875)" xlink:href="#DejaVuSans-32"/>
     <use transform="translate(127.148438 0.6875)" xlink:href="#DejaVuSans-32"/>
     <use transform="translate(158.935547 0.6875)" xlink:href="#DejaVuSans-32"/>
     <use transform="translate(190.722656 0.6875)" xlink:href="#Cmr10-76"/>
     <use transform="translate(253.222656 0.6875)" xlink:href="#Cmr10-105"/>
     <use transform="translate(280.908203 0.6875)" xlink:href="#Cmr10-110"/>
     <use transform="translate(336.425781 0.6875)" xlink:href="#Cmr10-101"/>
     <use transform="translate(380.810547 0.6875)" xlink:href="#Cmr10-97"/>
     <use transform="translate(430.810547 0.6875)" xlink:href="#Cmr10-114"/>
     <use transform="translate(469.921875 0.6875)" xlink:href="#DejaVuSans-32"/>
     <use transform="translate(501.708984 0.6875)" xlink:href="#DejaVuSans-32"/>
     <use transform="translate(533.496094 0.6875)" xlink:href="#DejaVuSans-32"/>
     <use transform="translate(565.283203 0.6875)" xlink:href="#DejaVuSans-32"/>
     <use transform="translate(597.070312 0.6875)" xlink:href="#DejaVuSans-32"/>
     <use transform="translate(628.857422 0.6875)" xlink:href="#DejaVuSans-32"/>
     <use transform="translate(660.644531 0.6875)" xlink:href="#DejaVuSans-32"/>
    </g>
   </g>
   <g id="patch_36">
    <path d="M 301.417545 71.708046 
Q 301.417545 80.221395 301.417545 89.852779 
" style="fill:none;stroke:#000000;stroke-linecap:round;"/>
    <path d="M 299.417545 75.708046 
L 301.417545 71.708046 
L 303.417545 75.708046 
" style="fill:none;stroke:#000000;stroke-linecap:round;"/>
   </g>
   <g id="text_25">
    <g id="patch_37">
     <path d="M 267.467545 49.11548 
L 335.367545 49.11548 
Q 338.367545 49.11548 338.367545 46.11548 
L 338.367545 36.437355 
Q 338.367545 33.437355 335.367545 33.437355 
L 267.467545 33.437355 
Q 264.467545 33.437355 264.467545 36.437355 
L 264.467545 46.11548 
Q 264.467545 49.11548 267.467545 49.11548 
z
" style="fill:#ffffff;stroke:#000000;stroke-linejoin:miter;"/>
    </g>
    <!--      $\mathrm{Softmax}$      -->
    <g transform="translate(267.467545 44.035793)scale(0.1 -0.1)">
     <defs>
      <path d="M 5.609375 -1.421875 
L 5.609375 21.921875 
Q 5.609375 22.703125 6.5 22.703125 
L 7.71875 22.703125 
Q 8.015625 22.703125 8.25 22.453125 
Q 8.5 22.21875 8.5 21.921875 
Q 8.5 12.109375 14.578125 6.703125 
Q 20.65625 1.3125 30.515625 1.3125 
Q 33.984375 1.3125 36.90625 3.3125 
Q 39.84375 5.328125 41.46875 8.5625 
Q 43.109375 11.8125 43.109375 15.28125 
Q 43.109375 18.3125 41.890625 21.171875 
Q 40.671875 24.03125 38.375 26.125 
Q 36.078125 28.21875 33.203125 28.90625 
L 20.21875 32.078125 
Q 13.765625 33.796875 9.6875 39.09375 
Q 5.609375 44.390625 5.609375 50.984375 
Q 5.609375 56.15625 8.25 60.6875 
Q 10.890625 65.234375 15.359375 67.875 
Q 19.828125 70.515625 25 70.515625 
Q 35.015625 70.515625 40.921875 63.71875 
L 45.015625 70.21875 
Q 45.3125 70.515625 45.703125 70.515625 
L 46.390625 70.515625 
Q 46.6875 70.515625 46.953125 70.28125 
Q 47.21875 70.0625 47.21875 69.671875 
L 47.21875 46.484375 
Q 47.21875 45.609375 46.390625 45.609375 
L 45.21875 45.609375 
Q 44.28125 45.609375 44.28125 46.484375 
Q 44.28125 49.03125 43.421875 52.046875 
Q 42.578125 55.078125 41.0625 57.859375 
Q 39.546875 60.640625 37.796875 62.40625 
Q 32.953125 67.28125 25 67.28125 
Q 21.578125 67.28125 18.703125 65.546875 
Q 15.828125 63.8125 14.109375 60.828125 
Q 12.40625 57.859375 12.40625 54.59375 
Q 12.40625 50.296875 15.0625 46.796875 
Q 17.71875 43.3125 22.015625 42.1875 
L 35.015625 39.015625 
Q 38.234375 38.234375 41.09375 36.203125 
Q 43.953125 34.1875 45.84375 31.5 
Q 47.75 28.8125 48.828125 25.515625 
Q 49.90625 22.21875 49.90625 18.703125 
Q 49.90625 13.28125 47.40625 8.46875 
Q 44.921875 3.65625 40.40625 0.71875 
Q 35.890625 -2.203125 30.515625 -2.203125 
Q 27.203125 -2.203125 23.734375 -1.46875 
Q 20.265625 -0.734375 17.328125 0.78125 
Q 14.40625 2.296875 12.015625 4.6875 
L 7.8125 -1.90625 
Q 7.515625 -2.203125 7.078125 -2.203125 
L 6.5 -2.203125 
Q 5.609375 -2.203125 5.609375 -1.421875 
z
" id="Cmr10-83"/>
      <path d="M 3.21875 0 
L 3.21875 3.515625 
Q 6.59375 3.515625 8.78125 4.046875 
Q 10.984375 4.59375 10.984375 6.6875 
L 10.984375 39.59375 
L 3.328125 39.59375 
L 3.328125 43.109375 
L 10.984375 43.109375 
L 10.984375 55.078125 
Q 10.984375 58.296875 12.328125 61.109375 
Q 13.671875 63.921875 15.9375 66.015625 
Q 18.21875 68.109375 21.171875 69.3125 
Q 24.125 70.515625 27.296875 70.515625 
Q 30.671875 70.515625 33.375 68.5 
Q 36.078125 66.5 36.078125 63.1875 
Q 36.078125 61.28125 34.78125 59.984375 
Q 33.5 58.6875 31.59375 58.6875 
Q 29.6875 58.6875 28.34375 59.984375 
Q 27 61.28125 27 63.1875 
Q 27 66.3125 29.6875 67.390625 
Q 28.078125 67.921875 26.8125 67.921875 
Q 23.875 67.921875 21.796875 65.84375 
Q 19.734375 63.765625 18.703125 60.78125 
Q 17.671875 57.8125 17.671875 54.890625 
L 17.671875 43.109375 
L 29.203125 43.109375 
L 29.203125 39.59375 
L 18.015625 39.59375 
L 18.015625 6.6875 
Q 18.015625 4.640625 20.9375 4.078125 
Q 23.875 3.515625 27.6875 3.515625 
L 27.6875 0 
z
" id="Cmr10-102"/>
      <path d="M 1.21875 0 
L 1.21875 3.515625 
Q 5.03125 3.515625 8.390625 5 
Q 11.765625 6.5 14.109375 9.421875 
L 23.1875 21 
L 11.375 36.375 
Q 9.625 38.578125 7.546875 39.078125 
Q 5.46875 39.59375 1.703125 39.59375 
L 1.703125 43.109375 
L 22.515625 43.109375 
L 22.515625 39.59375 
Q 21.1875 39.59375 20.03125 39 
Q 18.890625 38.421875 18.890625 37.3125 
Q 18.890625 36.921875 19.1875 36.375 
L 27.203125 25.984375 
L 33.203125 33.6875 
Q 34.421875 35.15625 34.421875 36.625 
Q 34.421875 37.84375 33.609375 38.71875 
Q 32.8125 39.59375 31.5 39.59375 
L 31.5 43.109375 
L 49.90625 43.109375 
L 49.90625 39.59375 
Q 46.046875 39.59375 42.65625 38.109375 
Q 39.265625 36.625 36.921875 33.6875 
L 29 23.578125 
L 41.796875 6.6875 
Q 43.703125 4.5 45.75 4 
Q 47.796875 3.515625 51.609375 3.515625 
L 51.609375 0 
L 30.8125 0 
L 30.8125 3.515625 
Q 32.03125 3.515625 33.15625 4.09375 
Q 34.28125 4.6875 34.28125 5.8125 
Q 34.28125 6.25 33.984375 6.6875 
L 25 18.609375 
L 17.828125 9.421875 
Q 16.703125 8.15625 16.703125 6.5 
Q 16.703125 5.28125 17.53125 4.390625 
Q 18.359375 3.515625 19.484375 3.515625 
L 19.484375 0 
z
" id="Cmr10-120"/>
     </defs>
     <use transform="translate(0 0.484375)" xlink:href="#DejaVuSans-32"/>
     <use transform="translate(31.787109 0.484375)" xlink:href="#DejaVuSans-32"/>
     <use transform="translate(63.574219 0.484375)" xlink:href="#DejaVuSans-32"/>
     <use transform="translate(95.361328 0.484375)" xlink:href="#DejaVuSans-32"/>
     <use transform="translate(127.148438 0.484375)" xlink:href="#DejaVuSans-32"/>
     <use transform="translate(158.935547 0.484375)" xlink:href="#Cmr10-83"/>
     <use transform="translate(214.453125 0.484375)" xlink:href="#Cmr10-111"/>
     <use transform="translate(264.453125 0.484375)" xlink:href="#Cmr10-102"/>
     <use transform="translate(294.970703 0.484375)" xlink:href="#Cmr10-116"/>
     <use transform="translate(333.789062 0.484375)" xlink:href="#Cmr10-109"/>
     <use transform="translate(417.089844 0.484375)" xlink:href="#Cmr10-97"/>
     <use transform="translate(467.089844 0.484375)" xlink:href="#Cmr10-120"/>
     <use transform="translate(519.775391 0.484375)" xlink:href="#DejaVuSans-32"/>
     <use transform="translate(551.5625 0.484375)" xlink:href="#DejaVuSans-32"/>
     <use transform="translate(583.349609 0.484375)" xlink:href="#DejaVuSans-32"/>
     <use transform="translate(615.136719 0.484375)" xlink:href="#DejaVuSans-32"/>
     <use transform="translate(646.923828 0.484375)" xlink:href="#DejaVuSans-32"/>
    </g>
   </g>
   <g id="patch_38">
    <path d="M 301.417545 51.112577 
Q 301.417545 52.011086 301.417545 52.909594 
" style="fill:none;stroke:#000000;stroke-linecap:round;"/>
   </g>
   <g id="text_26">
    <g id="patch_39">
     <path d="M 296.317545 19.907122 
L 306.517545 19.907122 
Q 309.517545 19.907122 309.517545 16.907122 
L 309.517545 7.228997 
Q 309.517545 4.228997 306.517545 4.228997 
L 296.317545 4.228997 
Q 293.317545 4.228997 293.317545 7.228997 
L 293.317545 16.907122 
Q 293.317545 19.907122 296.317545 19.907122 
z
" style="fill:#ffffff;"/>
    </g>
    <!-- $\hat{y}_n$ -->
    <g transform="translate(296.317545 14.807122)scale(0.1 -0.1)">
     <defs>
      <path d="M 13.484375 53.8125 
L 11.53125 55.90625 
L 25 69.390625 
L 38.375 55.90625 
L 36.375 53.8125 
L 25 63.8125 
z
" id="Cmr10-94"/>
      <path d="M 8.40625 -14.3125 
Q 10.5 -17.921875 15.71875 -17.921875 
Q 20.453125 -17.921875 23.921875 -14.59375 
Q 27.390625 -11.28125 29.515625 -6.5625 
Q 31.640625 -1.859375 32.8125 3.078125 
Q 28.375 -1.125 23.1875 -1.125 
Q 19.234375 -1.125 16.453125 0.234375 
Q 13.671875 1.609375 12.125 4.3125 
Q 10.59375 7.03125 10.59375 10.890625 
Q 10.59375 14.15625 11.46875 17.59375 
Q 12.359375 21.046875 13.9375 25.265625 
Q 15.53125 29.5 16.703125 32.625 
Q 18.015625 36.28125 18.015625 38.625 
Q 18.015625 41.609375 15.828125 41.609375 
Q 11.859375 41.609375 9.296875 37.53125 
Q 6.734375 33.453125 5.515625 28.421875 
Q 5.328125 27.78125 4.6875 27.78125 
L 3.515625 27.78125 
Q 2.6875 27.78125 2.6875 28.71875 
L 2.6875 29 
Q 4.296875 34.96875 7.609375 39.578125 
Q 10.9375 44.1875 16.015625 44.1875 
Q 19.578125 44.1875 22.046875 41.84375 
Q 24.515625 39.5 24.515625 35.890625 
Q 24.515625 34.03125 23.6875 31.984375 
Q 23.25 30.765625 21.6875 26.65625 
Q 20.125 22.5625 19.28125 19.875 
Q 18.453125 17.1875 17.921875 14.59375 
Q 17.390625 12.015625 17.390625 9.421875 
Q 17.390625 6.109375 18.796875 3.8125 
Q 20.21875 1.515625 23.296875 1.515625 
Q 29.5 1.515625 34.421875 9.078125 
L 42 39.890625 
Q 42.328125 41.21875 43.546875 42.15625 
Q 44.78125 43.109375 46.1875 43.109375 
Q 47.40625 43.109375 48.3125 42.328125 
Q 49.21875 41.546875 49.21875 40.28125 
Q 49.21875 39.703125 49.125 39.5 
L 39.203125 -0.296875 
Q 37.890625 -5.421875 34.375 -10.109375 
Q 30.859375 -14.796875 25.90625 -17.65625 
Q 20.953125 -20.515625 15.578125 -20.515625 
Q 12.984375 -20.515625 10.4375 -19.5 
Q 7.90625 -18.5 6.34375 -16.5 
Q 4.78125 -14.5 4.78125 -11.8125 
Q 4.78125 -9.078125 6.390625 -7.078125 
Q 8.015625 -5.078125 10.6875 -5.078125 
Q 12.3125 -5.078125 13.40625 -6.078125 
Q 14.5 -7.078125 14.5 -8.6875 
Q 14.5 -10.984375 12.78125 -12.6875 
Q 11.078125 -14.40625 8.796875 -14.40625 
Q 8.6875 -14.359375 8.59375 -14.328125 
Q 8.5 -14.3125 8.40625 -14.3125 
z
" id="Cmmi10-121"/>
      <path d="M 7.71875 1.703125 
Q 7.71875 2.296875 7.8125 2.59375 
L 15.28125 32.421875 
Q 16.015625 35.203125 16.015625 37.3125 
Q 16.015625 41.609375 13.09375 41.609375 
Q 9.96875 41.609375 8.453125 37.859375 
Q 6.9375 34.125 5.515625 28.421875 
Q 5.515625 28.125 5.21875 27.953125 
Q 4.9375 27.78125 4.6875 27.78125 
L 3.515625 27.78125 
Q 3.171875 27.78125 2.921875 28.140625 
Q 2.6875 28.515625 2.6875 28.8125 
Q 3.765625 33.15625 4.765625 36.171875 
Q 5.765625 39.203125 7.890625 41.6875 
Q 10.015625 44.1875 13.1875 44.1875 
Q 16.9375 44.1875 19.8125 41.8125 
Q 22.703125 39.453125 22.703125 35.796875 
Q 25.6875 39.703125 29.6875 41.9375 
Q 33.6875 44.1875 38.1875 44.1875 
Q 41.75 44.1875 44.328125 42.96875 
Q 46.921875 41.75 48.359375 39.28125 
Q 49.8125 36.8125 49.8125 33.40625 
Q 49.8125 29.296875 47.96875 23.484375 
Q 46.140625 17.671875 43.40625 10.5 
Q 42 7.234375 42 4.5 
Q 42 1.515625 44.28125 1.515625 
Q 48.1875 1.515625 50.796875 5.703125 
Q 53.421875 9.90625 54.5 14.703125 
Q 54.6875 15.28125 55.328125 15.28125 
L 56.5 15.28125 
Q 56.890625 15.28125 57.15625 15.03125 
Q 57.421875 14.796875 57.421875 14.40625 
Q 57.421875 14.3125 57.328125 14.109375 
Q 55.953125 8.453125 52.5625 3.65625 
Q 49.171875 -1.125 44.09375 -1.125 
Q 40.578125 -1.125 38.078125 1.296875 
Q 35.59375 3.71875 35.59375 7.171875 
Q 35.59375 9.03125 36.375 11.078125 
Q 37.640625 14.359375 39.28125 18.890625 
Q 40.921875 23.4375 41.96875 27.578125 
Q 43.015625 31.734375 43.015625 34.90625 
Q 43.015625 37.703125 41.859375 39.65625 
Q 40.71875 41.609375 37.984375 41.609375 
Q 34.328125 41.609375 31.25 39.984375 
Q 28.171875 38.375 25.875 35.71875 
Q 23.578125 33.0625 21.6875 29.390625 
L 14.890625 2.203125 
Q 14.546875 0.828125 13.34375 -0.140625 
Q 12.15625 -1.125 10.6875 -1.125 
Q 9.46875 -1.125 8.59375 -0.34375 
Q 7.71875 0.4375 7.71875 1.703125 
z
" id="Cmmi10-110"/>
     </defs>
     <use transform="translate(5.724609 3.609375)" xlink:href="#Cmr10-94"/>
     <use transform="translate(0 0.734375)" xlink:href="#Cmmi10-121"/>
     <use transform="translate(53.487578 -16.271875)scale(0.7)" xlink:href="#Cmmi10-110"/>
    </g>
   </g>
   <g id="patch_40">
    <path d="M 301.417545 23.02364 
Q 301.417545 26.670617 301.417545 31.435628 
" style="fill:none;stroke:#000000;stroke-linecap:round;"/>
    <path d="M 299.417545 27.02364 
L 301.417545 23.02364 
L 303.417545 27.02364 
" style="fill:none;stroke:#000000;stroke-linecap:round;"/>
   </g>
   <g id="patch_41">
    <path d="M 381.13183 12.06806 
Q 346.323459 12.06806 311.515087 12.06806 
" style="fill:none;stroke:#000000;stroke-linecap:round;"/>
   </g>
   <g id="text_27">
    <g id="patch_42">
     <path d="M 301.417545 326.594883 
C 303.496488 326.594883 305.490564 325.76891 306.960599 324.298875 
C 308.430634 322.82884 309.256607 320.834765 309.256607 318.755821 
C 309.256607 316.676877 308.430634 314.682802 306.960599 313.212767 
C 305.490564 311.742731 303.496488 310.916758 301.417545 310.916758 
C 299.338601 310.916758 297.344526 311.742731 295.87449 313.212767 
C 294.404455 314.682802 293.578482 316.676877 293.578482 318.755821 
C 293.578482 320.834765 294.404455 322.82884 295.87449 324.298875 
C 297.344526 325.76891 299.338601 326.594883 301.417545 326.594883 
z
" style="fill:#ffffff;stroke:#000000;stroke-linejoin:miter;"/>
    </g>
    <!-- $+$ -->
    <g transform="translate(297.517545 321.515196)scale(0.1 -0.1)">
     <use transform="translate(0 0.703125)" xlink:href="#Cmr10-43"/>
    </g>
   </g>
   <g id="patch_43">
    <path d="M 301.417545 308.919697 
Q 301.417545 297.21664 301.417545 286.631617 
" style="fill:none;stroke:#000000;stroke-linecap:round;"/>
    <path d="M 299.417545 290.631617 
L 301.417545 286.631617 
L 303.417545 290.631617 
" style="fill:none;stroke:#000000;stroke-linecap:round;"/>
   </g>
   <g id="text_28">
    <g id="patch_44">
     <path d="M 167.496116 302.254585 
L 196.196116 302.254585 
Q 199.196116 302.254585 199.196116 299.254585 
L 199.196116 289.57646 
Q 199.196116 286.57646 196.196116 286.57646 
L 167.496116 286.57646 
Q 164.496116 286.57646 164.496116 289.57646 
L 164.496116 299.254585 
Q 164.496116 302.254585 167.496116 302.254585 
z
" style="fill:#ffffff;stroke:#000000;stroke-linejoin:miter;"/>
    </g>
    <!--    $P$     -->
    <g transform="translate(167.496116 297.174897)scale(0.1 -0.1)">
     <defs>
      <path d="M 4.890625 0 
Q 3.90625 0 3.90625 1.3125 
Q 3.953125 1.5625 4.09375 2.171875 
Q 4.25 2.78125 4.515625 3.140625 
Q 4.78125 3.515625 5.171875 3.515625 
Q 11.28125 3.515625 13.71875 4.203125 
Q 14.984375 4.640625 15.578125 6.890625 
L 29.296875 61.8125 
Q 29.5 62.796875 29.5 63.1875 
Q 29.5 64.265625 28.328125 64.40625 
Q 26.421875 64.796875 21.09375 64.796875 
Q 20.125 64.796875 20.125 66.109375 
Q 20.171875 66.359375 20.3125 66.96875 
Q 20.453125 67.578125 20.71875 67.9375 
Q 21 68.3125 21.390625 68.3125 
L 55.90625 68.3125 
Q 60.640625 68.3125 65.078125 66.625 
Q 69.53125 64.9375 72.359375 61.46875 
Q 75.203125 58.015625 75.203125 53.078125 
Q 75.203125 46.734375 70.734375 41.75 
Q 66.265625 36.765625 59.59375 33.984375 
Q 52.9375 31.203125 46.6875 31.203125 
L 30.421875 31.203125 
L 24.3125 6.5 
Q 24.125 5.515625 24.125 5.078125 
Q 24.125 4.6875 24.234375 4.421875 
Q 24.359375 4.15625 24.578125 4.078125 
Q 24.8125 4 25.296875 3.90625 
Q 27.203125 3.515625 32.515625 3.515625 
Q 33.5 3.515625 33.5 2.203125 
Q 33.15625 0.78125 32.953125 0.390625 
Q 32.765625 0 31.78125 0 
z
M 30.90625 34.1875 
L 44.921875 34.1875 
Q 54.640625 34.1875 59.71875 39.40625 
Q 62.3125 42 63.9375 46.875 
Q 65.578125 51.765625 65.578125 55.71875 
Q 65.578125 60.640625 61.8125 62.71875 
Q 58.0625 64.796875 52.484375 64.796875 
L 42.921875 64.796875 
Q 40.1875 64.796875 39.296875 64.328125 
Q 38.421875 63.875 37.703125 61.375 
z
" id="Cmmi10-80"/>
     </defs>
     <use transform="translate(0 0.6875)" xlink:href="#DejaVuSans-32"/>
     <use transform="translate(31.787109 0.6875)" xlink:href="#DejaVuSans-32"/>
     <use transform="translate(63.574219 0.6875)" xlink:href="#DejaVuSans-32"/>
     <use transform="translate(95.361328 0.6875)" xlink:href="#Cmmi10-80"/>
     <use transform="translate(159.570312 0.6875)" xlink:href="#DejaVuSans-32"/>
     <use transform="translate(191.357422 0.6875)" xlink:href="#DejaVuSans-32"/>
     <use transform="translate(223.144531 0.6875)" xlink:href="#DejaVuSans-32"/>
     <use transform="translate(254.931641 0.6875)" xlink:href="#DejaVuSans-32"/>
    </g>
   </g>
   <g id="patch_45">
    <path d="M 162.494293 294.415522 
Q 117.303439 294.415522 73.230618 294.415522 
" style="fill:none;stroke:#000000;stroke-linecap:round;"/>
    <path d="M 77.230618 296.415522 
L 73.230618 294.415522 
L 77.230618 292.415522 
" style="fill:none;stroke:#000000;stroke-linecap:round;"/>
   </g>
   <g id="patch_46">
    <path d="M 290.457379 318.755821 
L 225.349194 318.755821 
L 225.349194 294.415522 
L 201.197823 294.415522 
" style="fill:none;stroke:#000000;stroke-linecap:round;"/>
    <path d="M 286.457379 316.755821 
L 290.457379 318.755821 
L 286.457379 320.755821 
" style="fill:none;stroke:#000000;stroke-linecap:round;"/>
   </g>
   <g id="patch_47">
    <path d="M 301.417545 327.712917 
L 301.417545 336.329016 
L 381.13183 336.329016 
L 381.13183 12.06806 
" style="fill:none;stroke:#000000;stroke-linecap:round;"/>
    <path d="M 299.417545 331.712917 
L 301.417545 327.712917 
L 303.417545 331.712917 
" style="fill:none;stroke:#000000;stroke-linecap:round;"/>
   </g>
   <g id="text_29">
    <!-- $\mathrm{Encoder}$ -->
    <g transform="translate(7.2 127.681054)scale(0.1 -0.1)">
     <defs>
      <path d="M 3.078125 0 
L 3.078125 3.515625 
Q 13.375 3.515625 13.375 6.6875 
L 13.375 61.625 
Q 13.375 64.796875 3.078125 64.796875 
L 3.078125 68.3125 
L 59.625 68.3125 
L 62.40625 45.40625 
L 59.515625 45.40625 
Q 58.453125 54.046875 56.515625 57.953125 
Q 54.59375 61.859375 50.34375 63.328125 
Q 46.09375 64.796875 37.59375 64.796875 
L 27.78125 64.796875 
Q 25.984375 64.796875 24.96875 64.640625 
Q 23.96875 64.5 23.328125 63.796875 
Q 22.703125 63.09375 22.703125 61.625 
L 22.703125 37.203125 
L 30.078125 37.203125 
Q 35.15625 37.203125 37.671875 38.0625 
Q 40.1875 38.921875 41.140625 41.328125 
Q 42.09375 43.75 42.09375 48.875 
L 45.015625 48.875 
L 45.015625 22.015625 
L 42.09375 22.015625 
Q 42.09375 27.09375 41.140625 29.53125 
Q 40.1875 31.984375 37.671875 32.828125 
Q 35.15625 33.6875 30.078125 33.6875 
L 22.703125 33.6875 
L 22.703125 6.6875 
Q 22.703125 4.546875 23.921875 4.03125 
Q 25.140625 3.515625 27.78125 3.515625 
L 38.375 3.515625 
Q 45.3125 3.515625 49.578125 4.609375 
Q 53.859375 5.71875 56.21875 8.28125 
Q 58.59375 10.84375 59.890625 14.921875 
Q 61.1875 19 62.3125 26.21875 
L 65.1875 26.21875 
L 60.984375 0 
z
" id="Cmr10-69"/>
      <path d="M 24.90625 -1.125 
Q 18.84375 -1.125 13.90625 2.015625 
Q 8.984375 5.171875 6.15625 10.421875 
Q 3.328125 15.671875 3.328125 21.578125 
Q 3.328125 27.484375 6.125 32.90625 
Q 8.9375 38.328125 13.890625 41.578125 
Q 18.84375 44.828125 24.90625 44.828125 
Q 30.765625 44.828125 35.5625 42.53125 
Q 40.375 40.234375 40.375 35.015625 
Q 40.375 33.0625 38.984375 31.609375 
Q 37.59375 30.171875 35.59375 30.171875 
Q 33.59375 30.171875 32.203125 31.609375 
Q 30.8125 33.0625 30.8125 35.015625 
Q 30.8125 36.765625 31.9375 38.0625 
Q 33.0625 39.359375 34.71875 39.703125 
Q 31.25 41.890625 25 41.890625 
Q 20.21875 41.890625 17.28125 38.71875 
Q 14.359375 35.546875 13.1875 30.859375 
Q 12.015625 26.171875 12.015625 21.578125 
Q 12.015625 16.75 13.453125 12.234375 
Q 14.890625 7.71875 18.09375 4.765625 
Q 21.296875 1.8125 26.125 1.8125 
Q 30.859375 1.8125 34.171875 4.71875 
Q 37.5 7.625 38.71875 12.3125 
Q 38.71875 12.890625 39.5 12.890625 
L 40.71875 12.890625 
Q 41.015625 12.890625 41.25 12.625 
Q 41.5 12.359375 41.5 12.015625 
L 41.5 11.71875 
Q 39.984375 5.8125 35.484375 2.34375 
Q 31 -1.125 24.90625 -1.125 
z
" id="Cmr10-99"/>
     </defs>
     <use transform="translate(0 0.609375)" xlink:href="#Cmr10-69"/>
     <use transform="translate(68.017578 0.609375)" xlink:href="#Cmr10-110"/>
     <use transform="translate(123.535156 0.609375)" xlink:href="#Cmr10-99"/>
     <use transform="translate(167.919922 0.609375)" xlink:href="#Cmr10-111"/>
     <use transform="translate(217.919922 0.609375)" xlink:href="#Cmr10-100"/>
     <use transform="translate(273.4375 0.609375)" xlink:href="#Cmr10-101"/>
     <use transform="translate(317.822266 0.609375)" xlink:href="#Cmr10-114"/>
    </g>
   </g>
   <g id="text_30">
    <!-- $\mathrm{Decoder}$ -->
    <g transform="translate(245.330513 79.901861)scale(0.1 -0.1)">
     <defs>
      <path d="M 3.328125 0 
L 3.328125 3.515625 
Q 13.625 3.515625 13.625 6.6875 
L 13.625 61.625 
Q 13.625 64.796875 3.328125 64.796875 
L 3.328125 68.3125 
L 40.1875 68.3125 
Q 47.015625 68.3125 52.671875 65.359375 
Q 58.34375 62.40625 62.34375 57.46875 
Q 66.359375 52.546875 68.53125 46.296875 
Q 70.703125 40.046875 70.703125 33.5 
Q 70.703125 27.15625 68.5 21.171875 
Q 66.3125 15.1875 62.1875 10.375 
Q 58.0625 5.5625 52.421875 2.78125 
Q 46.78125 0 40.1875 0 
z
M 22.609375 6.6875 
Q 22.609375 4.546875 23.828125 4.03125 
Q 25.046875 3.515625 27.6875 3.515625 
L 37.59375 3.515625 
Q 42.71875 3.515625 47.328125 5.734375 
Q 51.953125 7.953125 54.984375 11.921875 
Q 58.15625 16.109375 59.21875 21.3125 
Q 60.296875 26.515625 60.296875 33.5 
Q 60.296875 40.765625 59.21875 46.234375 
Q 58.15625 51.703125 54.984375 56 
Q 52 60.25 47.40625 62.515625 
Q 42.828125 64.796875 37.59375 64.796875 
L 27.6875 64.796875 
Q 25.875 64.796875 24.875 64.640625 
Q 23.875 64.5 23.234375 63.796875 
Q 22.609375 63.09375 22.609375 61.625 
z
" id="Cmr10-68"/>
     </defs>
     <use transform="translate(0 0.609375)" xlink:href="#Cmr10-68"/>
     <use transform="translate(76.318359 0.609375)" xlink:href="#Cmr10-101"/>
     <use transform="translate(120.703125 0.609375)" xlink:href="#Cmr10-99"/>
     <use transform="translate(165.087891 0.609375)" xlink:href="#Cmr10-111"/>
     <use transform="translate(215.087891 0.609375)" xlink:href="#Cmr10-100"/>
     <use transform="translate(270.605469 0.609375)" xlink:href="#Cmr10-101"/>
     <use transform="translate(314.990234 0.609375)" xlink:href="#Cmr10-114"/>
    </g>
   </g>
   <g id="patch_48">
    <path d="M 27.805679 221.394627 
L 13.523434 221.394627 
L 13.523434 273.43203 
L 58.274405 273.43203 
" style="fill:none;stroke:#000000;stroke-linecap:round;"/>
    <path d="M 23.805679 219.394627 
L 27.805679 221.394627 
L 23.805679 223.394627 
" style="fill:none;stroke:#000000;stroke-linecap:round;"/>
   </g>
   <g id="patch_49">
    <path d="M 27.805679 148.373731 
L 13.523434 148.373731 
L 13.523434 200.411134 
L 58.274405 200.411134 
" style="fill:none;stroke:#000000;stroke-linecap:round;"/>
    <path d="M 23.805679 146.373731 
L 27.805679 148.373731 
L 23.805679 150.373731 
" style="fill:none;stroke:#000000;stroke-linecap:round;"/>
   </g>
   <g id="patch_50">
    <path d="M 335.88394 245.734925 
L 344.716871 245.734925 
L 344.716871 297.775657 
L 305.416468 297.775657 
" style="fill:none;stroke:#000000;stroke-linecap:round;"/>
    <path d="M 339.88394 247.734925 
L 335.88394 245.734925 
L 339.88394 243.734925 
" style="fill:none;stroke:#000000;stroke-linecap:round;"/>
   </g>
   <g id="patch_51">
    <path d="M 335.882734 172.71403 
L 345.898122 172.71403 
L 345.898122 231.441185 
L 305.4166 231.441185 
" style="fill:none;stroke:#000000;stroke-linecap:round;"/>
    <path d="M 339.882734 174.71403 
L 335.882734 172.71403 
L 339.882734 170.71403 
" style="fill:none;stroke:#000000;stroke-linecap:round;"/>
   </g>
   <g id="patch_52">
    <path d="M 335.883843 99.693134 
L 344.716292 99.693134 
L 344.716292 151.730537 
L 305.41644 151.730537 
" style="fill:none;stroke:#000000;stroke-linecap:round;"/>
    <path d="M 339.883843 101.693134 
L 335.883843 99.693134 
L 339.883843 97.693134 
" style="fill:none;stroke:#000000;stroke-linecap:round;"/>
   </g>
  </g>
 </g>
</svg>
