<?xml version="1.0" encoding="utf-8" standalone="no"?>
<!DOCTYPE svg PUBLIC "-//W3C//DTD SVG 1.1//EN"
  "http://www.w3.org/Graphics/SVG/1.1/DTD/svg11.dtd">
<!-- Created with matplotlib (https://matplotlib.org/) -->
<svg height="263.638125pt" version="1.1" viewBox="0 0 452.342188 263.638125" width="452.342188pt" xmlns="http://www.w3.org/2000/svg" xmlns:xlink="http://www.w3.org/1999/xlink">
 <metadata>
  <rdf:RDF xmlns:cc="http://creativecommons.org/ns#" xmlns:dc="http://purl.org/dc/elements/1.1/" xmlns:rdf="http://www.w3.org/1999/02/22-rdf-syntax-ns#">
   <cc:Work>
    <dc:type rdf:resource="http://purl.org/dc/dcmitype/StillImage"/>
    <dc:date>2021-09-27T19:40:50.104533</dc:date>
    <dc:format>image/svg+xml</dc:format>
    <dc:creator>
     <cc:Agent>
      <dc:title>Matplotlib v3.3.4, https://matplotlib.org/</dc:title>
     </cc:Agent>
    </dc:creator>
   </cc:Work>
  </rdf:RDF>
 </metadata>
 <defs>
  <style type="text/css">*{stroke-linecap:butt;stroke-linejoin:round;}</style>
 </defs>
 <g id="figure_1">
  <g id="patch_1">
   <path d="M 0 263.638125 
L 452.342188 263.638125 
L 452.342188 0 
L 0 0 
z
" style="fill:none;"/>
  </g>
  <g id="axes_1">
   <g id="patch_2">
    <path d="M 28.942188 69.589565 
L 363.742188 69.589565 
L 363.742188 22.32 
L 28.942188 22.32 
z
" style="fill:#ffffff;"/>
   </g>
   <g id="matplotlib.axis_1">
    <g id="xtick_1">
     <g id="line2d_1">
      <defs>
       <path d="M 0 0 
L 0 3.5 
" id="m7140293c59" style="stroke:#000000;stroke-width:0.8;"/>
      </defs>
      <g>
       <use style="stroke:#000000;stroke-width:0.8;" x="44.160369" xlink:href="#m7140293c59" y="69.589565"/>
      </g>
     </g>
    </g>
    <g id="xtick_2">
     <g id="line2d_2">
      <g>
       <use style="stroke:#000000;stroke-width:0.8;" x="105.033097" xlink:href="#m7140293c59" y="69.589565"/>
      </g>
     </g>
    </g>
    <g id="xtick_3">
     <g id="line2d_3">
      <g>
       <use style="stroke:#000000;stroke-width:0.8;" x="165.905824" xlink:href="#m7140293c59" y="69.589565"/>
      </g>
     </g>
    </g>
    <g id="xtick_4">
     <g id="line2d_4">
      <g>
       <use style="stroke:#000000;stroke-width:0.8;" x="226.778551" xlink:href="#m7140293c59" y="69.589565"/>
      </g>
     </g>
    </g>
    <g id="xtick_5">
     <g id="line2d_5">
      <g>
       <use style="stroke:#000000;stroke-width:0.8;" x="287.651278" xlink:href="#m7140293c59" y="69.589565"/>
      </g>
     </g>
    </g>
    <g id="xtick_6">
     <g id="line2d_6">
      <g>
       <use style="stroke:#000000;stroke-width:0.8;" x="348.524006" xlink:href="#m7140293c59" y="69.589565"/>
      </g>
     </g>
    </g>
   </g>
   <g id="matplotlib.axis_2">
    <g id="ytick_1">
     <g id="line2d_7">
      <defs>
       <path d="M 0 0 
L -3.5 0 
" id="mf150a95eb3" style="stroke:#000000;stroke-width:0.8;"/>
      </defs>
      <g>
       <use style="stroke:#000000;stroke-width:0.8;" x="28.942188" xlink:href="#mf150a95eb3" y="67.465313"/>
      </g>
     </g>
     <g id="text_1">
      <!-- −1 -->
      <g transform="translate(7.2 71.264532)scale(0.1 -0.1)">
       <defs>
        <path d="M 10.59375 35.5 
L 73.1875 35.5 
L 73.1875 27.203125 
L 10.59375 27.203125 
z
" id="DejaVuSans-8722"/>
        <path d="M 12.40625 8.296875 
L 28.515625 8.296875 
L 28.515625 63.921875 
L 10.984375 60.40625 
L 10.984375 69.390625 
L 28.421875 72.90625 
L 38.28125 72.90625 
L 38.28125 8.296875 
L 54.390625 8.296875 
L 54.390625 0 
L 12.40625 0 
z
" id="DejaVuSans-49"/>
       </defs>
       <use xlink:href="#DejaVuSans-8722"/>
       <use x="83.789062" xlink:href="#DejaVuSans-49"/>
      </g>
     </g>
    </g>
    <g id="ytick_2">
     <g id="line2d_8">
      <g>
       <use style="stroke:#000000;stroke-width:0.8;" x="28.942188" xlink:href="#mf150a95eb3" y="45.954783"/>
      </g>
     </g>
     <g id="text_2">
      <!-- 0 -->
      <g transform="translate(15.579688 49.754001)scale(0.1 -0.1)">
       <defs>
        <path d="M 31.78125 66.40625 
Q 24.171875 66.40625 20.328125 58.90625 
Q 16.5 51.421875 16.5 36.375 
Q 16.5 21.390625 20.328125 13.890625 
Q 24.171875 6.390625 31.78125 6.390625 
Q 39.453125 6.390625 43.28125 13.890625 
Q 47.125 21.390625 47.125 36.375 
Q 47.125 51.421875 43.28125 58.90625 
Q 39.453125 66.40625 31.78125 66.40625 
z
M 31.78125 74.21875 
Q 44.046875 74.21875 50.515625 64.515625 
Q 56.984375 54.828125 56.984375 36.375 
Q 56.984375 17.96875 50.515625 8.265625 
Q 44.046875 -1.421875 31.78125 -1.421875 
Q 19.53125 -1.421875 13.0625 8.265625 
Q 6.59375 17.96875 6.59375 36.375 
Q 6.59375 54.828125 13.0625 64.515625 
Q 19.53125 74.21875 31.78125 74.21875 
z
" id="DejaVuSans-48"/>
       </defs>
       <use xlink:href="#DejaVuSans-48"/>
      </g>
     </g>
    </g>
    <g id="ytick_3">
     <g id="line2d_9">
      <g>
       <use style="stroke:#000000;stroke-width:0.8;" x="28.942188" xlink:href="#mf150a95eb3" y="24.444252"/>
      </g>
     </g>
     <g id="text_3">
      <!-- 1 -->
      <g transform="translate(15.579688 28.243471)scale(0.1 -0.1)">
       <use xlink:href="#DejaVuSans-49"/>
      </g>
     </g>
    </g>
   </g>
   <g id="line2d_10">
    <path clip-path="url(#p831f061439)" d="M 44.160369 45.954783 
L 47.234749 41.883888 
L 50.30913 37.960126 
L 53.38351 34.325312 
L 56.45789 31.110817 
L 59.53227 28.432822 
L 62.60665 26.388116 
L 65.68103 25.050601 
L 68.755411 24.468617 
L 71.829791 24.663199 
L 74.904171 25.627314 
L 77.978551 27.326117 
L 81.052931 29.698209 
L 84.127311 32.657855 
L 87.201692 36.098087 
L 90.276072 39.894566 
L 93.350452 43.910077 
L 96.424832 47.999488 
L 99.499212 52.014999 
L 102.573592 55.811478 
L 105.647973 59.25171 
L 108.722353 62.211357 
L 111.796733 64.583448 
L 114.871113 66.282251 
L 117.945493 67.246367 
L 121.019873 67.440949 
L 124.094254 66.858965 
L 127.168634 65.521449 
L 130.243014 63.476743 
L 133.317394 60.798748 
L 136.391774 57.584253 
L 139.466154 53.949439 
L 142.540535 50.025677 
L 145.614915 45.954783 
L 148.689295 41.883888 
L 151.763675 37.960126 
L 154.838055 34.325312 
L 157.912435 31.110817 
L 160.986816 28.432822 
L 164.061196 26.388116 
L 167.135576 25.050601 
L 170.209956 24.468617 
L 173.284336 24.663199 
L 176.358716 25.627314 
L 179.433097 27.326117 
L 182.507477 29.698209 
L 185.581857 32.657855 
L 188.656237 36.098087 
L 191.730617 39.894566 
L 194.804997 43.910077 
L 197.879378 47.999488 
L 200.953758 52.014999 
L 204.028138 55.811478 
L 207.102518 59.25171 
L 210.176898 62.211357 
L 213.251278 64.583448 
L 216.325659 66.282251 
L 219.400039 67.246367 
L 222.474419 67.440949 
L 225.548799 66.858965 
L 228.623179 65.521449 
L 231.697559 63.476743 
L 234.77194 60.798748 
L 237.84632 57.584253 
L 240.9207 53.949439 
L 243.99508 50.025677 
L 247.06946 45.954783 
L 250.14384 41.883888 
L 253.218221 37.960126 
L 256.292601 34.325312 
L 259.366981 31.110817 
L 262.441361 28.432822 
L 265.515741 26.388116 
L 268.590121 25.050601 
L 271.664502 24.468617 
L 274.738882 24.663199 
L 277.813262 25.627314 
L 280.887642 27.326117 
L 283.962022 29.698209 
L 287.036402 32.657855 
L 290.110783 36.098087 
L 293.185163 39.894566 
L 296.259543 43.910077 
L 299.333923 47.999488 
L 302.408303 52.014999 
L 305.482683 55.811478 
L 308.557064 59.25171 
L 311.631444 62.211357 
L 314.705824 64.583448 
L 317.780204 66.282251 
L 320.854584 67.246367 
L 323.928964 67.440949 
L 327.003345 66.858965 
L 330.077725 65.521449 
L 333.152105 63.476743 
L 336.226485 60.798748 
L 339.300865 57.584253 
L 342.375245 53.949439 
L 345.449626 50.025677 
L 348.524006 45.954783 
" style="fill:none;stroke:#1f77b4;stroke-linecap:square;stroke-width:1.5;"/>
   </g>
   <g id="line2d_11">
    <defs>
     <path d="M 0 3 
C 0.795609 3 1.55874 2.683901 2.12132 2.12132 
C 2.683901 1.55874 3 0.795609 3 0 
C 3 -0.795609 2.683901 -1.55874 2.12132 -2.12132 
C 1.55874 -2.683901 0.795609 -3 0 -3 
C -0.795609 -3 -1.55874 -2.683901 -2.12132 -2.12132 
C -2.683901 -1.55874 -3 -0.795609 -3 0 
C -3 0.795609 -2.683901 1.55874 -2.12132 2.12132 
C -1.55874 2.683901 -0.795609 3 0 3 
z
" id="m0e21051183" style="stroke:#ff7f0e;"/>
    </defs>
    <g clip-path="url(#p831f061439)">
     <use style="fill:#ff7f0e;stroke:#ff7f0e;" x="105.033097" xlink:href="#m0e21051183" y="58.598355"/>
    </g>
   </g>
   <g id="line2d_12">
    <defs>
     <path d="M 0 3 
C 0.795609 3 1.55874 2.683901 2.12132 2.12132 
C 2.683901 1.55874 3 0.795609 3 0 
C 3 -0.795609 2.683901 -1.55874 2.12132 -2.12132 
C 1.55874 -2.683901 0.795609 -3 0 -3 
C -0.795609 -3 -1.55874 -2.683901 -2.12132 -2.12132 
C -2.683901 -1.55874 -3 -0.795609 -3 0 
C -3 0.795609 -2.683901 1.55874 -2.12132 2.12132 
C -1.55874 2.683901 -0.795609 3 0 3 
z
" id="m3a77baec84" style="stroke:#2ca02c;"/>
    </defs>
    <g clip-path="url(#p831f061439)">
     <use style="fill:#2ca02c;stroke:#2ca02c;" x="226.778551" xlink:href="#m3a77baec84" y="66.412512"/>
    </g>
   </g>
   <g id="patch_3">
    <path d="M 28.942188 69.589565 
L 28.942188 22.32 
" style="fill:none;stroke:#000000;stroke-linecap:square;stroke-linejoin:miter;stroke-width:0.8;"/>
   </g>
   <g id="patch_4">
    <path d="M 363.742188 69.589565 
L 363.742188 22.32 
" style="fill:none;stroke:#000000;stroke-linecap:square;stroke-linejoin:miter;stroke-width:0.8;"/>
   </g>
   <g id="patch_5">
    <path d="M 28.942188 69.589565 
L 363.742188 69.589565 
" style="fill:none;stroke:#000000;stroke-linecap:square;stroke-linejoin:miter;stroke-width:0.8;"/>
   </g>
   <g id="patch_6">
    <path d="M 28.942188 22.32 
L 363.742188 22.32 
" style="fill:none;stroke:#000000;stroke-linecap:square;stroke-linejoin:miter;stroke-width:0.8;"/>
   </g>
   <g id="text_4">
    <!-- Positional embedding ($d=4$) -->
    <g transform="translate(112.102188 16.32)scale(0.12 -0.12)">
     <defs>
      <path d="M 19.671875 64.796875 
L 19.671875 37.40625 
L 32.078125 37.40625 
Q 38.96875 37.40625 42.71875 40.96875 
Q 46.484375 44.53125 46.484375 51.125 
Q 46.484375 57.671875 42.71875 61.234375 
Q 38.96875 64.796875 32.078125 64.796875 
z
M 9.8125 72.90625 
L 32.078125 72.90625 
Q 44.34375 72.90625 50.609375 67.359375 
Q 56.890625 61.8125 56.890625 51.125 
Q 56.890625 40.328125 50.609375 34.8125 
Q 44.34375 29.296875 32.078125 29.296875 
L 19.671875 29.296875 
L 19.671875 0 
L 9.8125 0 
z
" id="DejaVuSans-80"/>
      <path d="M 30.609375 48.390625 
Q 23.390625 48.390625 19.1875 42.75 
Q 14.984375 37.109375 14.984375 27.296875 
Q 14.984375 17.484375 19.15625 11.84375 
Q 23.34375 6.203125 30.609375 6.203125 
Q 37.796875 6.203125 41.984375 11.859375 
Q 46.1875 17.53125 46.1875 27.296875 
Q 46.1875 37.015625 41.984375 42.703125 
Q 37.796875 48.390625 30.609375 48.390625 
z
M 30.609375 56 
Q 42.328125 56 49.015625 48.375 
Q 55.71875 40.765625 55.71875 27.296875 
Q 55.71875 13.875 49.015625 6.21875 
Q 42.328125 -1.421875 30.609375 -1.421875 
Q 18.84375 -1.421875 12.171875 6.21875 
Q 5.515625 13.875 5.515625 27.296875 
Q 5.515625 40.765625 12.171875 48.375 
Q 18.84375 56 30.609375 56 
z
" id="DejaVuSans-111"/>
      <path d="M 44.28125 53.078125 
L 44.28125 44.578125 
Q 40.484375 46.53125 36.375 47.5 
Q 32.28125 48.484375 27.875 48.484375 
Q 21.1875 48.484375 17.84375 46.4375 
Q 14.5 44.390625 14.5 40.28125 
Q 14.5 37.15625 16.890625 35.375 
Q 19.28125 33.59375 26.515625 31.984375 
L 29.59375 31.296875 
Q 39.15625 29.25 43.1875 25.515625 
Q 47.21875 21.78125 47.21875 15.09375 
Q 47.21875 7.46875 41.1875 3.015625 
Q 35.15625 -1.421875 24.609375 -1.421875 
Q 20.21875 -1.421875 15.453125 -0.5625 
Q 10.6875 0.296875 5.421875 2 
L 5.421875 11.28125 
Q 10.40625 8.6875 15.234375 7.390625 
Q 20.0625 6.109375 24.8125 6.109375 
Q 31.15625 6.109375 34.5625 8.28125 
Q 37.984375 10.453125 37.984375 14.40625 
Q 37.984375 18.0625 35.515625 20.015625 
Q 33.0625 21.96875 24.703125 23.78125 
L 21.578125 24.515625 
Q 13.234375 26.265625 9.515625 29.90625 
Q 5.8125 33.546875 5.8125 39.890625 
Q 5.8125 47.609375 11.28125 51.796875 
Q 16.75 56 26.8125 56 
Q 31.78125 56 36.171875 55.265625 
Q 40.578125 54.546875 44.28125 53.078125 
z
" id="DejaVuSans-115"/>
      <path d="M 9.421875 54.6875 
L 18.40625 54.6875 
L 18.40625 0 
L 9.421875 0 
z
M 9.421875 75.984375 
L 18.40625 75.984375 
L 18.40625 64.59375 
L 9.421875 64.59375 
z
" id="DejaVuSans-105"/>
      <path d="M 18.3125 70.21875 
L 18.3125 54.6875 
L 36.8125 54.6875 
L 36.8125 47.703125 
L 18.3125 47.703125 
L 18.3125 18.015625 
Q 18.3125 11.328125 20.140625 9.421875 
Q 21.96875 7.515625 27.59375 7.515625 
L 36.8125 7.515625 
L 36.8125 0 
L 27.59375 0 
Q 17.1875 0 13.234375 3.875 
Q 9.28125 7.765625 9.28125 18.015625 
L 9.28125 47.703125 
L 2.6875 47.703125 
L 2.6875 54.6875 
L 9.28125 54.6875 
L 9.28125 70.21875 
z
" id="DejaVuSans-116"/>
      <path d="M 54.890625 33.015625 
L 54.890625 0 
L 45.90625 0 
L 45.90625 32.71875 
Q 45.90625 40.484375 42.875 44.328125 
Q 39.84375 48.1875 33.796875 48.1875 
Q 26.515625 48.1875 22.3125 43.546875 
Q 18.109375 38.921875 18.109375 30.90625 
L 18.109375 0 
L 9.078125 0 
L 9.078125 54.6875 
L 18.109375 54.6875 
L 18.109375 46.1875 
Q 21.34375 51.125 25.703125 53.5625 
Q 30.078125 56 35.796875 56 
Q 45.21875 56 50.046875 50.171875 
Q 54.890625 44.34375 54.890625 33.015625 
z
" id="DejaVuSans-110"/>
      <path d="M 34.28125 27.484375 
Q 23.390625 27.484375 19.1875 25 
Q 14.984375 22.515625 14.984375 16.5 
Q 14.984375 11.71875 18.140625 8.90625 
Q 21.296875 6.109375 26.703125 6.109375 
Q 34.1875 6.109375 38.703125 11.40625 
Q 43.21875 16.703125 43.21875 25.484375 
L 43.21875 27.484375 
z
M 52.203125 31.203125 
L 52.203125 0 
L 43.21875 0 
L 43.21875 8.296875 
Q 40.140625 3.328125 35.546875 0.953125 
Q 30.953125 -1.421875 24.3125 -1.421875 
Q 15.921875 -1.421875 10.953125 3.296875 
Q 6 8.015625 6 15.921875 
Q 6 25.140625 12.171875 29.828125 
Q 18.359375 34.515625 30.609375 34.515625 
L 43.21875 34.515625 
L 43.21875 35.40625 
Q 43.21875 41.609375 39.140625 45 
Q 35.0625 48.390625 27.6875 48.390625 
Q 23 48.390625 18.546875 47.265625 
Q 14.109375 46.140625 10.015625 43.890625 
L 10.015625 52.203125 
Q 14.9375 54.109375 19.578125 55.046875 
Q 24.21875 56 28.609375 56 
Q 40.484375 56 46.34375 49.84375 
Q 52.203125 43.703125 52.203125 31.203125 
z
" id="DejaVuSans-97"/>
      <path d="M 9.421875 75.984375 
L 18.40625 75.984375 
L 18.40625 0 
L 9.421875 0 
z
" id="DejaVuSans-108"/>
      <path id="DejaVuSans-32"/>
      <path d="M 56.203125 29.59375 
L 56.203125 25.203125 
L 14.890625 25.203125 
Q 15.484375 15.921875 20.484375 11.0625 
Q 25.484375 6.203125 34.421875 6.203125 
Q 39.59375 6.203125 44.453125 7.46875 
Q 49.3125 8.734375 54.109375 11.28125 
L 54.109375 2.78125 
Q 49.265625 0.734375 44.1875 -0.34375 
Q 39.109375 -1.421875 33.890625 -1.421875 
Q 20.796875 -1.421875 13.15625 6.1875 
Q 5.515625 13.8125 5.515625 26.8125 
Q 5.515625 40.234375 12.765625 48.109375 
Q 20.015625 56 32.328125 56 
Q 43.359375 56 49.78125 48.890625 
Q 56.203125 41.796875 56.203125 29.59375 
z
M 47.21875 32.234375 
Q 47.125 39.59375 43.09375 43.984375 
Q 39.0625 48.390625 32.421875 48.390625 
Q 24.90625 48.390625 20.390625 44.140625 
Q 15.875 39.890625 15.1875 32.171875 
z
" id="DejaVuSans-101"/>
      <path d="M 52 44.1875 
Q 55.375 50.25 60.0625 53.125 
Q 64.75 56 71.09375 56 
Q 79.640625 56 84.28125 50.015625 
Q 88.921875 44.046875 88.921875 33.015625 
L 88.921875 0 
L 79.890625 0 
L 79.890625 32.71875 
Q 79.890625 40.578125 77.09375 44.375 
Q 74.3125 48.1875 68.609375 48.1875 
Q 61.625 48.1875 57.5625 43.546875 
Q 53.515625 38.921875 53.515625 30.90625 
L 53.515625 0 
L 44.484375 0 
L 44.484375 32.71875 
Q 44.484375 40.625 41.703125 44.40625 
Q 38.921875 48.1875 33.109375 48.1875 
Q 26.21875 48.1875 22.15625 43.53125 
Q 18.109375 38.875 18.109375 30.90625 
L 18.109375 0 
L 9.078125 0 
L 9.078125 54.6875 
L 18.109375 54.6875 
L 18.109375 46.1875 
Q 21.1875 51.21875 25.484375 53.609375 
Q 29.78125 56 35.6875 56 
Q 41.65625 56 45.828125 52.96875 
Q 50 49.953125 52 44.1875 
z
" id="DejaVuSans-109"/>
      <path d="M 48.6875 27.296875 
Q 48.6875 37.203125 44.609375 42.84375 
Q 40.53125 48.484375 33.40625 48.484375 
Q 26.265625 48.484375 22.1875 42.84375 
Q 18.109375 37.203125 18.109375 27.296875 
Q 18.109375 17.390625 22.1875 11.75 
Q 26.265625 6.109375 33.40625 6.109375 
Q 40.53125 6.109375 44.609375 11.75 
Q 48.6875 17.390625 48.6875 27.296875 
z
M 18.109375 46.390625 
Q 20.953125 51.265625 25.265625 53.625 
Q 29.59375 56 35.59375 56 
Q 45.5625 56 51.78125 48.09375 
Q 58.015625 40.1875 58.015625 27.296875 
Q 58.015625 14.40625 51.78125 6.484375 
Q 45.5625 -1.421875 35.59375 -1.421875 
Q 29.59375 -1.421875 25.265625 0.953125 
Q 20.953125 3.328125 18.109375 8.203125 
L 18.109375 0 
L 9.078125 0 
L 9.078125 75.984375 
L 18.109375 75.984375 
z
" id="DejaVuSans-98"/>
      <path d="M 45.40625 46.390625 
L 45.40625 75.984375 
L 54.390625 75.984375 
L 54.390625 0 
L 45.40625 0 
L 45.40625 8.203125 
Q 42.578125 3.328125 38.25 0.953125 
Q 33.9375 -1.421875 27.875 -1.421875 
Q 17.96875 -1.421875 11.734375 6.484375 
Q 5.515625 14.40625 5.515625 27.296875 
Q 5.515625 40.1875 11.734375 48.09375 
Q 17.96875 56 27.875 56 
Q 33.9375 56 38.25 53.625 
Q 42.578125 51.265625 45.40625 46.390625 
z
M 14.796875 27.296875 
Q 14.796875 17.390625 18.875 11.75 
Q 22.953125 6.109375 30.078125 6.109375 
Q 37.203125 6.109375 41.296875 11.75 
Q 45.40625 17.390625 45.40625 27.296875 
Q 45.40625 37.203125 41.296875 42.84375 
Q 37.203125 48.484375 30.078125 48.484375 
Q 22.953125 48.484375 18.875 42.84375 
Q 14.796875 37.203125 14.796875 27.296875 
z
" id="DejaVuSans-100"/>
      <path d="M 45.40625 27.984375 
Q 45.40625 37.75 41.375 43.109375 
Q 37.359375 48.484375 30.078125 48.484375 
Q 22.859375 48.484375 18.828125 43.109375 
Q 14.796875 37.75 14.796875 27.984375 
Q 14.796875 18.265625 18.828125 12.890625 
Q 22.859375 7.515625 30.078125 7.515625 
Q 37.359375 7.515625 41.375 12.890625 
Q 45.40625 18.265625 45.40625 27.984375 
z
M 54.390625 6.78125 
Q 54.390625 -7.171875 48.1875 -13.984375 
Q 42 -20.796875 29.203125 -20.796875 
Q 24.46875 -20.796875 20.265625 -20.09375 
Q 16.0625 -19.390625 12.109375 -17.921875 
L 12.109375 -9.1875 
Q 16.0625 -11.328125 19.921875 -12.34375 
Q 23.78125 -13.375 27.78125 -13.375 
Q 36.625 -13.375 41.015625 -8.765625 
Q 45.40625 -4.15625 45.40625 5.171875 
L 45.40625 9.625 
Q 42.625 4.78125 38.28125 2.390625 
Q 33.9375 0 27.875 0 
Q 17.828125 0 11.671875 7.65625 
Q 5.515625 15.328125 5.515625 27.984375 
Q 5.515625 40.671875 11.671875 48.328125 
Q 17.828125 56 27.875 56 
Q 33.9375 56 38.28125 53.609375 
Q 42.625 51.21875 45.40625 46.390625 
L 45.40625 54.6875 
L 54.390625 54.6875 
z
" id="DejaVuSans-103"/>
      <path d="M 31 75.875 
Q 24.46875 64.65625 21.28125 53.65625 
Q 18.109375 42.671875 18.109375 31.390625 
Q 18.109375 20.125 21.3125 9.0625 
Q 24.515625 -2 31 -13.1875 
L 23.1875 -13.1875 
Q 15.875 -1.703125 12.234375 9.375 
Q 8.59375 20.453125 8.59375 31.390625 
Q 8.59375 42.28125 12.203125 53.3125 
Q 15.828125 64.359375 23.1875 75.875 
z
" id="DejaVuSans-40"/>
      <path d="M 17.390625 -1.125 
Q 11.078125 -1.125 7.4375 3.640625 
Q 3.8125 8.40625 3.8125 14.890625 
Q 3.8125 21.296875 7.125 28.171875 
Q 10.453125 35.0625 16.09375 39.625 
Q 21.734375 44.1875 28.21875 44.1875 
Q 31.15625 44.1875 33.515625 42.546875 
Q 35.890625 40.921875 37.203125 38.1875 
L 42.828125 60.5 
Q 43.21875 62.203125 43.3125 63.1875 
Q 43.3125 64.796875 36.8125 64.796875 
Q 35.796875 64.796875 35.796875 66.109375 
Q 35.84375 66.359375 36.015625 66.984375 
Q 36.1875 67.625 36.453125 67.96875 
Q 36.71875 68.3125 37.203125 68.3125 
L 50.6875 69.390625 
Q 51.90625 69.390625 51.90625 68.109375 
L 37.5 10.59375 
Q 36.8125 8.9375 36.8125 5.8125 
Q 36.8125 1.515625 39.703125 1.515625 
Q 42.828125 1.515625 44.453125 5.484375 
Q 46.09375 9.46875 47.21875 14.703125 
Q 47.40625 15.28125 48 15.28125 
L 49.21875 15.28125 
Q 49.609375 15.28125 49.84375 14.9375 
Q 50.09375 14.59375 50.09375 14.3125 
Q 48.34375 7.328125 46.265625 3.09375 
Q 44.1875 -1.125 39.5 -1.125 
Q 36.140625 -1.125 33.546875 0.84375 
Q 30.953125 2.828125 30.328125 6.109375 
Q 23.875 -1.125 17.390625 -1.125 
z
M 17.484375 1.515625 
Q 21.09375 1.515625 24.484375 4.21875 
Q 27.875 6.9375 30.328125 10.59375 
Q 30.421875 10.6875 30.421875 10.984375 
L 35.890625 33.015625 
Q 35.296875 36.53125 33.296875 39.0625 
Q 31.296875 41.609375 27.984375 41.609375 
Q 24.609375 41.609375 21.703125 38.84375 
Q 18.796875 36.078125 16.796875 32.328125 
Q 14.84375 28.328125 13.0625 21.34375 
Q 11.28125 14.359375 11.28125 10.5 
Q 11.28125 7.03125 12.765625 4.265625 
Q 14.265625 1.515625 17.484375 1.515625 
z
" id="Cmmi10-100"/>
      <path d="M 7.515625 13.28125 
Q 6.6875 13.28125 6.140625 13.90625 
Q 5.609375 14.546875 5.609375 15.28125 
Q 5.609375 16.109375 6.140625 16.6875 
Q 6.6875 17.28125 7.515625 17.28125 
L 70.3125 17.28125 
Q 71.046875 17.28125 71.578125 16.6875 
Q 72.125 16.109375 72.125 15.28125 
Q 72.125 14.546875 71.578125 13.90625 
Q 71.046875 13.28125 70.3125 13.28125 
z
M 7.515625 32.71875 
Q 6.6875 32.71875 6.140625 33.296875 
Q 5.609375 33.890625 5.609375 34.71875 
Q 5.609375 35.453125 6.140625 36.078125 
Q 6.6875 36.71875 7.515625 36.71875 
L 70.3125 36.71875 
Q 71.046875 36.71875 71.578125 36.078125 
Q 72.125 35.453125 72.125 34.71875 
Q 72.125 33.890625 71.578125 33.296875 
Q 71.046875 32.71875 70.3125 32.71875 
z
" id="Cmr10-61"/>
      <path d="M 2.78125 16.5 
L 2.78125 20.015625 
L 33.6875 66.109375 
Q 34.03125 66.609375 34.71875 66.609375 
L 36.1875 66.609375 
Q 37.3125 66.609375 37.3125 65.484375 
L 37.3125 20.015625 
L 47.125 20.015625 
L 47.125 16.5 
L 37.3125 16.5 
L 37.3125 6.6875 
Q 37.3125 4.640625 40.234375 4.078125 
Q 43.171875 3.515625 47.015625 3.515625 
L 47.015625 0 
L 19.484375 0 
L 19.484375 3.515625 
Q 23.34375 3.515625 26.265625 4.078125 
Q 29.203125 4.640625 29.203125 6.6875 
L 29.203125 16.5 
z
M 6.109375 20.015625 
L 29.78125 20.015625 
L 29.78125 55.421875 
z
" id="Cmr10-52"/>
      <path d="M 8.015625 75.875 
L 15.828125 75.875 
Q 23.140625 64.359375 26.78125 53.3125 
Q 30.421875 42.28125 30.421875 31.390625 
Q 30.421875 20.453125 26.78125 9.375 
Q 23.140625 -1.703125 15.828125 -13.1875 
L 8.015625 -13.1875 
Q 14.5 -2 17.703125 9.0625 
Q 20.90625 20.125 20.90625 31.390625 
Q 20.90625 42.671875 17.703125 53.65625 
Q 14.5 64.65625 8.015625 75.875 
z
" id="DejaVuSans-41"/>
     </defs>
     <use transform="translate(0 0.015625)" xlink:href="#DejaVuSans-80"/>
     <use transform="translate(60.302734 0.015625)" xlink:href="#DejaVuSans-111"/>
     <use transform="translate(121.484375 0.015625)" xlink:href="#DejaVuSans-115"/>
     <use transform="translate(173.583984 0.015625)" xlink:href="#DejaVuSans-105"/>
     <use transform="translate(201.367188 0.015625)" xlink:href="#DejaVuSans-116"/>
     <use transform="translate(240.576172 0.015625)" xlink:href="#DejaVuSans-105"/>
     <use transform="translate(268.359375 0.015625)" xlink:href="#DejaVuSans-111"/>
     <use transform="translate(329.541016 0.015625)" xlink:href="#DejaVuSans-110"/>
     <use transform="translate(392.919922 0.015625)" xlink:href="#DejaVuSans-97"/>
     <use transform="translate(454.199219 0.015625)" xlink:href="#DejaVuSans-108"/>
     <use transform="translate(481.982422 0.015625)" xlink:href="#DejaVuSans-32"/>
     <use transform="translate(513.769531 0.015625)" xlink:href="#DejaVuSans-101"/>
     <use transform="translate(575.292969 0.015625)" xlink:href="#DejaVuSans-109"/>
     <use transform="translate(672.705078 0.015625)" xlink:href="#DejaVuSans-98"/>
     <use transform="translate(736.181641 0.015625)" xlink:href="#DejaVuSans-101"/>
     <use transform="translate(797.705078 0.015625)" xlink:href="#DejaVuSans-100"/>
     <use transform="translate(861.181641 0.015625)" xlink:href="#DejaVuSans-100"/>
     <use transform="translate(924.658203 0.015625)" xlink:href="#DejaVuSans-105"/>
     <use transform="translate(952.441406 0.015625)" xlink:href="#DejaVuSans-110"/>
     <use transform="translate(1015.820312 0.015625)" xlink:href="#DejaVuSans-103"/>
     <use transform="translate(1079.296875 0.015625)" xlink:href="#DejaVuSans-32"/>
     <use transform="translate(1111.083984 0.015625)" xlink:href="#DejaVuSans-40"/>
     <use transform="translate(1150.097656 0.015625)" xlink:href="#Cmmi10-100"/>
     <use transform="translate(1219.658203 0.015625)" xlink:href="#Cmr10-61"/>
     <use transform="translate(1314.902344 0.015625)" xlink:href="#Cmr10-52"/>
     <use transform="translate(1364.902344 0.015625)" xlink:href="#DejaVuSans-41"/>
    </g>
   </g>
  </g>
  <g id="axes_2">
   <g id="patch_7">
    <path d="M 28.942188 126.313043 
L 363.742188 126.313043 
L 363.742188 79.043478 
L 28.942188 79.043478 
z
" style="fill:#ffffff;"/>
   </g>
   <g id="matplotlib.axis_3">
    <g id="xtick_7">
     <g id="line2d_13">
      <g>
       <use style="stroke:#000000;stroke-width:0.8;" x="44.160369" xlink:href="#m7140293c59" y="126.313043"/>
      </g>
     </g>
    </g>
    <g id="xtick_8">
     <g id="line2d_14">
      <g>
       <use style="stroke:#000000;stroke-width:0.8;" x="105.033097" xlink:href="#m7140293c59" y="126.313043"/>
      </g>
     </g>
    </g>
    <g id="xtick_9">
     <g id="line2d_15">
      <g>
       <use style="stroke:#000000;stroke-width:0.8;" x="165.905824" xlink:href="#m7140293c59" y="126.313043"/>
      </g>
     </g>
    </g>
    <g id="xtick_10">
     <g id="line2d_16">
      <g>
       <use style="stroke:#000000;stroke-width:0.8;" x="226.778551" xlink:href="#m7140293c59" y="126.313043"/>
      </g>
     </g>
    </g>
    <g id="xtick_11">
     <g id="line2d_17">
      <g>
       <use style="stroke:#000000;stroke-width:0.8;" x="287.651278" xlink:href="#m7140293c59" y="126.313043"/>
      </g>
     </g>
    </g>
    <g id="xtick_12">
     <g id="line2d_18">
      <g>
       <use style="stroke:#000000;stroke-width:0.8;" x="348.524006" xlink:href="#m7140293c59" y="126.313043"/>
      </g>
     </g>
    </g>
   </g>
   <g id="matplotlib.axis_4">
    <g id="ytick_4">
     <g id="line2d_19">
      <g>
       <use style="stroke:#000000;stroke-width:0.8;" x="28.942188" xlink:href="#mf150a95eb3" y="124.261939"/>
      </g>
     </g>
     <g id="text_5">
      <!-- −1 -->
      <g transform="translate(7.2 128.061157)scale(0.1 -0.1)">
       <use xlink:href="#DejaVuSans-8722"/>
       <use x="83.789062" xlink:href="#DejaVuSans-49"/>
      </g>
     </g>
    </g>
    <g id="ytick_5">
     <g id="line2d_20">
      <g>
       <use style="stroke:#000000;stroke-width:0.8;" x="28.942188" xlink:href="#mf150a95eb3" y="102.727017"/>
      </g>
     </g>
     <g id="text_6">
      <!-- 0 -->
      <g transform="translate(15.579688 106.526236)scale(0.1 -0.1)">
       <use xlink:href="#DejaVuSans-48"/>
      </g>
     </g>
    </g>
    <g id="ytick_6">
     <g id="line2d_21">
      <g>
       <use style="stroke:#000000;stroke-width:0.8;" x="28.942188" xlink:href="#mf150a95eb3" y="81.192095"/>
      </g>
     </g>
     <g id="text_7">
      <!-- 1 -->
      <g transform="translate(15.579688 84.991314)scale(0.1 -0.1)">
       <use xlink:href="#DejaVuSans-49"/>
      </g>
     </g>
    </g>
   </g>
   <g id="line2d_22">
    <path clip-path="url(#pfbfa0f08a7)" d="M 44.160369 81.192095 
L 47.234749 81.581259 
L 50.30913 82.734686 
L 53.38351 84.610688 
L 56.45789 87.141461 
L 59.53227 90.235537 
L 62.60665 93.781087 
L 65.68103 97.649967 
L 68.755411 101.702344 
L 71.829791 105.791756 
L 74.904171 109.7704 
L 77.978551 113.494478 
L 81.052931 116.829392 
L 84.127311 119.654609 
L 87.201692 121.868019 
L 90.276072 123.389623 
L 93.350452 124.164427 
L 96.424832 124.164427 
L 99.499212 123.389623 
L 102.573592 121.868019 
L 105.647973 119.654609 
L 108.722353 116.829392 
L 111.796733 113.494478 
L 114.871113 109.7704 
L 117.945493 105.791756 
L 121.019873 101.702344 
L 124.094254 97.649967 
L 127.168634 93.781087 
L 130.243014 90.235537 
L 133.317394 87.141461 
L 136.391774 84.610688 
L 139.466154 82.734686 
L 142.540535 81.581259 
L 145.614915 81.192095 
L 148.689295 81.581259 
L 151.763675 82.734686 
L 154.838055 84.610688 
L 157.912435 87.141461 
L 160.986816 90.235537 
L 164.061196 93.781087 
L 167.135576 97.649967 
L 170.209956 101.702344 
L 173.284336 105.791756 
L 176.358716 109.7704 
L 179.433097 113.494478 
L 182.507477 116.829392 
L 185.581857 119.654609 
L 188.656237 121.868019 
L 191.730617 123.389623 
L 194.804997 124.164427 
L 197.879378 124.164427 
L 200.953758 123.389623 
L 204.028138 121.868019 
L 207.102518 119.654609 
L 210.176898 116.829392 
L 213.251278 113.494478 
L 216.325659 109.7704 
L 219.400039 105.791756 
L 222.474419 101.702344 
L 225.548799 97.649967 
L 228.623179 93.781087 
L 231.697559 90.235537 
L 234.77194 87.141461 
L 237.84632 84.610688 
L 240.9207 82.734686 
L 243.99508 81.581259 
L 247.06946 81.192095 
L 250.14384 81.581259 
L 253.218221 82.734686 
L 256.292601 84.610688 
L 259.366981 87.141461 
L 262.441361 90.235537 
L 265.515741 93.781087 
L 268.590121 97.649967 
L 271.664502 101.702344 
L 274.738882 105.791756 
L 277.813262 109.7704 
L 280.887642 113.494478 
L 283.962022 116.829392 
L 287.036402 119.654609 
L 290.110783 121.868019 
L 293.185163 123.389623 
L 296.259543 124.164427 
L 299.333923 124.164427 
L 302.408303 123.389623 
L 305.482683 121.868019 
L 308.557064 119.654609 
L 311.631444 116.829392 
L 314.705824 113.494478 
L 317.780204 109.7704 
L 320.854584 105.791756 
L 323.928964 101.702344 
L 327.003345 97.649967 
L 330.077725 93.781087 
L 333.152105 90.235537 
L 336.226485 87.141461 
L 339.300865 84.610688 
L 342.375245 82.734686 
L 345.449626 81.581259 
L 348.524006 81.192095 
" style="fill:none;stroke:#1f77b4;stroke-linecap:square;stroke-width:1.5;"/>
   </g>
   <g id="line2d_23">
    <g clip-path="url(#pfbfa0f08a7)">
     <use style="fill:#ff7f0e;stroke:#ff7f0e;" x="105.033097" xlink:href="#m0e21051183" y="120.149135"/>
    </g>
   </g>
   <g id="line2d_24">
    <g clip-path="url(#pfbfa0f08a7)">
     <use style="fill:#2ca02c;stroke:#2ca02c;" x="226.778551" xlink:href="#m3a77baec84" y="96.07236"/>
    </g>
   </g>
   <g id="patch_8">
    <path d="M 28.942188 126.313043 
L 28.942188 79.043478 
" style="fill:none;stroke:#000000;stroke-linecap:square;stroke-linejoin:miter;stroke-width:0.8;"/>
   </g>
   <g id="patch_9">
    <path d="M 363.742188 126.313043 
L 363.742188 79.043478 
" style="fill:none;stroke:#000000;stroke-linecap:square;stroke-linejoin:miter;stroke-width:0.8;"/>
   </g>
   <g id="patch_10">
    <path d="M 28.942188 126.313043 
L 363.742188 126.313043 
" style="fill:none;stroke:#000000;stroke-linecap:square;stroke-linejoin:miter;stroke-width:0.8;"/>
   </g>
   <g id="patch_11">
    <path d="M 28.942188 79.043478 
L 363.742188 79.043478 
" style="fill:none;stroke:#000000;stroke-linecap:square;stroke-linejoin:miter;stroke-width:0.8;"/>
   </g>
  </g>
  <g id="axes_3">
   <g id="patch_12">
    <path d="M 28.942188 183.036522 
L 363.742188 183.036522 
L 363.742188 135.766957 
L 28.942188 135.766957 
z
" style="fill:#ffffff;"/>
   </g>
   <g id="matplotlib.axis_5">
    <g id="xtick_13">
     <g id="line2d_25">
      <g>
       <use style="stroke:#000000;stroke-width:0.8;" x="44.160369" xlink:href="#m7140293c59" y="183.036522"/>
      </g>
     </g>
    </g>
    <g id="xtick_14">
     <g id="line2d_26">
      <g>
       <use style="stroke:#000000;stroke-width:0.8;" x="105.033097" xlink:href="#m7140293c59" y="183.036522"/>
      </g>
     </g>
    </g>
    <g id="xtick_15">
     <g id="line2d_27">
      <g>
       <use style="stroke:#000000;stroke-width:0.8;" x="165.905824" xlink:href="#m7140293c59" y="183.036522"/>
      </g>
     </g>
    </g>
    <g id="xtick_16">
     <g id="line2d_28">
      <g>
       <use style="stroke:#000000;stroke-width:0.8;" x="226.778551" xlink:href="#m7140293c59" y="183.036522"/>
      </g>
     </g>
    </g>
    <g id="xtick_17">
     <g id="line2d_29">
      <g>
       <use style="stroke:#000000;stroke-width:0.8;" x="287.651278" xlink:href="#m7140293c59" y="183.036522"/>
      </g>
     </g>
    </g>
    <g id="xtick_18">
     <g id="line2d_30">
      <g>
       <use style="stroke:#000000;stroke-width:0.8;" x="348.524006" xlink:href="#m7140293c59" y="183.036522"/>
      </g>
     </g>
    </g>
   </g>
   <g id="matplotlib.axis_6">
    <g id="ytick_7">
     <g id="line2d_31">
      <g>
       <use style="stroke:#000000;stroke-width:0.8;" x="28.942188" xlink:href="#mf150a95eb3" y="180.89061"/>
      </g>
     </g>
     <g id="text_8">
      <!-- −1 -->
      <g transform="translate(7.2 184.689829)scale(0.1 -0.1)">
       <use xlink:href="#DejaVuSans-8722"/>
       <use x="83.789062" xlink:href="#DejaVuSans-49"/>
      </g>
     </g>
    </g>
    <g id="ytick_8">
     <g id="line2d_32">
      <g>
       <use style="stroke:#000000;stroke-width:0.8;" x="28.942188" xlink:href="#mf150a95eb3" y="159.401739"/>
      </g>
     </g>
     <g id="text_9">
      <!-- 0 -->
      <g transform="translate(15.579688 163.200958)scale(0.1 -0.1)">
       <use xlink:href="#DejaVuSans-48"/>
      </g>
     </g>
    </g>
    <g id="ytick_9">
     <g id="line2d_33">
      <g>
       <use style="stroke:#000000;stroke-width:0.8;" x="28.942188" xlink:href="#mf150a95eb3" y="137.912868"/>
      </g>
     </g>
     <g id="text_10">
      <!-- 1 -->
      <g transform="translate(15.579688 141.712087)scale(0.1 -0.1)">
       <use xlink:href="#DejaVuSans-49"/>
      </g>
     </g>
    </g>
   </g>
   <g id="line2d_34">
    <path clip-path="url(#p762db1a3c1)" d="M 44.160369 159.401739 
L 47.234749 156.68141 
L 50.30913 154.004852 
L 53.38351 151.415133 
L 56.45789 148.95392 
L 59.53227 146.660817 
L 62.60665 144.57272 
L 65.68103 142.723228 
L 68.755411 141.142099 
L 71.829791 139.854775 
L 74.904171 138.881968 
L 77.978551 138.239333 
L 81.052931 137.937208 
L 84.127311 137.980456 
L 87.201692 138.36838 
L 90.276072 139.094739 
L 93.350452 140.147845 
L 96.424832 141.510753 
L 99.499212 143.161534 
L 102.573592 145.073626 
L 105.647973 147.216263 
L 108.722353 149.554969 
L 111.796733 152.052112 
L 114.871113 154.667515 
L 117.945493 157.359092 
L 121.019873 160.083537 
L 124.094254 162.797011 
L 127.168634 165.455854 
L 130.243014 168.017284 
L 133.317394 170.440086 
L 136.391774 172.685278 
L 139.466154 174.716732 
L 142.540535 176.501763 
L 145.614915 178.011647 
L 148.689295 179.222091 
L 151.763675 180.113619 
L 154.838055 180.671884 
L 157.912435 180.887905 
L 160.986816 180.758206 
L 164.061196 180.284872 
L 167.135576 179.475522 
L 170.209956 178.343177 
L 173.284336 176.906057 
L 176.358716 175.187285 
L 179.433097 173.214519 
L 182.507477 171.0195 
L 185.581857 168.637546 
L 188.656237 166.106986 
L 191.730617 163.468535 
L 194.804997 160.764648 
L 197.879378 158.038831 
L 200.953758 155.334944 
L 204.028138 152.696493 
L 207.102518 150.165932 
L 210.176898 147.783978 
L 213.251278 145.588959 
L 216.325659 143.616193 
L 219.400039 141.897422 
L 222.474419 140.460302 
L 225.548799 139.327956 
L 228.623179 138.518606 
L 231.697559 138.045273 
L 234.77194 137.915573 
L 237.84632 138.131594 
L 240.9207 138.689859 
L 243.99508 139.581387 
L 247.06946 140.791831 
L 250.14384 142.301716 
L 253.218221 144.086746 
L 256.292601 146.118201 
L 259.366981 148.363392 
L 262.441361 150.786195 
L 265.515741 153.347625 
L 268.590121 156.006468 
L 271.664502 158.719942 
L 274.738882 161.444386 
L 277.813262 164.135964 
L 280.887642 166.751366 
L 283.962022 169.24851 
L 287.036402 171.587215 
L 290.110783 173.729852 
L 293.185163 175.641944 
L 296.259543 177.292725 
L 299.333923 178.655634 
L 302.408303 179.70874 
L 305.482683 180.435098 
L 308.557064 180.823023 
L 311.631444 180.86627 
L 314.705824 180.564146 
L 317.780204 179.92151 
L 320.854584 178.948704 
L 323.928964 177.661379 
L 327.003345 176.08025 
L 330.077725 174.230758 
L 333.152105 172.142661 
L 336.226485 169.849558 
L 339.300865 167.388346 
L 342.375245 164.798626 
L 345.449626 162.122068 
L 348.524006 159.401739 
" style="fill:none;stroke:#1f77b4;stroke-linecap:square;stroke-width:1.5;"/>
   </g>
   <g id="line2d_35">
    <g clip-path="url(#p762db1a3c1)">
     <use style="fill:#ff7f0e;stroke:#ff7f0e;" x="105.033097" xlink:href="#m0e21051183" y="146.770898"/>
    </g>
   </g>
   <g id="line2d_36">
    <g clip-path="url(#p762db1a3c1)">
     <use style="fill:#2ca02c;stroke:#2ca02c;" x="226.778551" xlink:href="#m3a77baec84" y="138.964608"/>
    </g>
   </g>
   <g id="patch_13">
    <path d="M 28.942188 183.036522 
L 28.942188 135.766957 
" style="fill:none;stroke:#000000;stroke-linecap:square;stroke-linejoin:miter;stroke-width:0.8;"/>
   </g>
   <g id="patch_14">
    <path d="M 363.742188 183.036522 
L 363.742188 135.766957 
" style="fill:none;stroke:#000000;stroke-linecap:square;stroke-linejoin:miter;stroke-width:0.8;"/>
   </g>
   <g id="patch_15">
    <path d="M 28.942188 183.036522 
L 363.742188 183.036522 
" style="fill:none;stroke:#000000;stroke-linecap:square;stroke-linejoin:miter;stroke-width:0.8;"/>
   </g>
   <g id="patch_16">
    <path d="M 28.942188 135.766957 
L 363.742188 135.766957 
" style="fill:none;stroke:#000000;stroke-linecap:square;stroke-linejoin:miter;stroke-width:0.8;"/>
   </g>
  </g>
  <g id="axes_4">
   <g id="patch_17">
    <path d="M 28.942188 239.76 
L 363.742188 239.76 
L 363.742188 192.490435 
L 28.942188 192.490435 
z
" style="fill:#ffffff;"/>
   </g>
   <g id="matplotlib.axis_7">
    <g id="xtick_19">
     <g id="line2d_37">
      <g>
       <use style="stroke:#000000;stroke-width:0.8;" x="44.160369" xlink:href="#m7140293c59" y="239.76"/>
      </g>
     </g>
     <g id="text_11">
      <!-- 0 -->
      <g transform="translate(40.979119 254.358438)scale(0.1 -0.1)">
       <use xlink:href="#DejaVuSans-48"/>
      </g>
     </g>
    </g>
    <g id="xtick_20">
     <g id="line2d_38">
      <g>
       <use style="stroke:#000000;stroke-width:0.8;" x="105.033097" xlink:href="#m7140293c59" y="239.76"/>
      </g>
     </g>
     <g id="text_12">
      <!-- 1 -->
      <g transform="translate(101.851847 254.358438)scale(0.1 -0.1)">
       <use xlink:href="#DejaVuSans-49"/>
      </g>
     </g>
    </g>
    <g id="xtick_21">
     <g id="line2d_39">
      <g>
       <use style="stroke:#000000;stroke-width:0.8;" x="165.905824" xlink:href="#m7140293c59" y="239.76"/>
      </g>
     </g>
     <g id="text_13">
      <!-- 2 -->
      <g transform="translate(162.724574 254.358438)scale(0.1 -0.1)">
       <defs>
        <path d="M 19.1875 8.296875 
L 53.609375 8.296875 
L 53.609375 0 
L 7.328125 0 
L 7.328125 8.296875 
Q 12.9375 14.109375 22.625 23.890625 
Q 32.328125 33.6875 34.8125 36.53125 
Q 39.546875 41.84375 41.421875 45.53125 
Q 43.3125 49.21875 43.3125 52.78125 
Q 43.3125 58.59375 39.234375 62.25 
Q 35.15625 65.921875 28.609375 65.921875 
Q 23.96875 65.921875 18.8125 64.3125 
Q 13.671875 62.703125 7.8125 59.421875 
L 7.8125 69.390625 
Q 13.765625 71.78125 18.9375 73 
Q 24.125 74.21875 28.421875 74.21875 
Q 39.75 74.21875 46.484375 68.546875 
Q 53.21875 62.890625 53.21875 53.421875 
Q 53.21875 48.921875 51.53125 44.890625 
Q 49.859375 40.875 45.40625 35.40625 
Q 44.1875 33.984375 37.640625 27.21875 
Q 31.109375 20.453125 19.1875 8.296875 
z
" id="DejaVuSans-50"/>
       </defs>
       <use xlink:href="#DejaVuSans-50"/>
      </g>
     </g>
    </g>
    <g id="xtick_22">
     <g id="line2d_40">
      <g>
       <use style="stroke:#000000;stroke-width:0.8;" x="226.778551" xlink:href="#m7140293c59" y="239.76"/>
      </g>
     </g>
     <g id="text_14">
      <!-- 3 -->
      <g transform="translate(223.597301 254.358438)scale(0.1 -0.1)">
       <defs>
        <path d="M 40.578125 39.3125 
Q 47.65625 37.796875 51.625 33 
Q 55.609375 28.21875 55.609375 21.1875 
Q 55.609375 10.40625 48.1875 4.484375 
Q 40.765625 -1.421875 27.09375 -1.421875 
Q 22.515625 -1.421875 17.65625 -0.515625 
Q 12.796875 0.390625 7.625 2.203125 
L 7.625 11.71875 
Q 11.71875 9.328125 16.59375 8.109375 
Q 21.484375 6.890625 26.8125 6.890625 
Q 36.078125 6.890625 40.9375 10.546875 
Q 45.796875 14.203125 45.796875 21.1875 
Q 45.796875 27.640625 41.28125 31.265625 
Q 36.765625 34.90625 28.71875 34.90625 
L 20.21875 34.90625 
L 20.21875 43.015625 
L 29.109375 43.015625 
Q 36.375 43.015625 40.234375 45.921875 
Q 44.09375 48.828125 44.09375 54.296875 
Q 44.09375 59.90625 40.109375 62.90625 
Q 36.140625 65.921875 28.71875 65.921875 
Q 24.65625 65.921875 20.015625 65.03125 
Q 15.375 64.15625 9.8125 62.3125 
L 9.8125 71.09375 
Q 15.4375 72.65625 20.34375 73.4375 
Q 25.25 74.21875 29.59375 74.21875 
Q 40.828125 74.21875 47.359375 69.109375 
Q 53.90625 64.015625 53.90625 55.328125 
Q 53.90625 49.265625 50.4375 45.09375 
Q 46.96875 40.921875 40.578125 39.3125 
z
" id="DejaVuSans-51"/>
       </defs>
       <use xlink:href="#DejaVuSans-51"/>
      </g>
     </g>
    </g>
    <g id="xtick_23">
     <g id="line2d_41">
      <g>
       <use style="stroke:#000000;stroke-width:0.8;" x="287.651278" xlink:href="#m7140293c59" y="239.76"/>
      </g>
     </g>
     <g id="text_15">
      <!-- 4 -->
      <g transform="translate(284.470028 254.358438)scale(0.1 -0.1)">
       <defs>
        <path d="M 37.796875 64.3125 
L 12.890625 25.390625 
L 37.796875 25.390625 
z
M 35.203125 72.90625 
L 47.609375 72.90625 
L 47.609375 25.390625 
L 58.015625 25.390625 
L 58.015625 17.1875 
L 47.609375 17.1875 
L 47.609375 0 
L 37.796875 0 
L 37.796875 17.1875 
L 4.890625 17.1875 
L 4.890625 26.703125 
z
" id="DejaVuSans-52"/>
       </defs>
       <use xlink:href="#DejaVuSans-52"/>
      </g>
     </g>
    </g>
    <g id="xtick_24">
     <g id="line2d_42">
      <g>
       <use style="stroke:#000000;stroke-width:0.8;" x="348.524006" xlink:href="#m7140293c59" y="239.76"/>
      </g>
     </g>
     <g id="text_16">
      <!-- 5 -->
      <g transform="translate(345.342756 254.358438)scale(0.1 -0.1)">
       <defs>
        <path d="M 10.796875 72.90625 
L 49.515625 72.90625 
L 49.515625 64.59375 
L 19.828125 64.59375 
L 19.828125 46.734375 
Q 21.96875 47.46875 24.109375 47.828125 
Q 26.265625 48.1875 28.421875 48.1875 
Q 40.625 48.1875 47.75 41.5 
Q 54.890625 34.8125 54.890625 23.390625 
Q 54.890625 11.625 47.5625 5.09375 
Q 40.234375 -1.421875 26.90625 -1.421875 
Q 22.3125 -1.421875 17.546875 -0.640625 
Q 12.796875 0.140625 7.71875 1.703125 
L 7.71875 11.625 
Q 12.109375 9.234375 16.796875 8.0625 
Q 21.484375 6.890625 26.703125 6.890625 
Q 35.15625 6.890625 40.078125 11.328125 
Q 45.015625 15.765625 45.015625 23.390625 
Q 45.015625 31 40.078125 35.4375 
Q 35.15625 39.890625 26.703125 39.890625 
Q 22.75 39.890625 18.8125 39.015625 
Q 14.890625 38.140625 10.796875 36.28125 
z
" id="DejaVuSans-53"/>
       </defs>
       <use xlink:href="#DejaVuSans-53"/>
      </g>
     </g>
    </g>
   </g>
   <g id="matplotlib.axis_8">
    <g id="ytick_10">
     <g id="line2d_43">
      <g>
       <use style="stroke:#000000;stroke-width:0.8;" x="28.942188" xlink:href="#mf150a95eb3" y="237.622203"/>
      </g>
     </g>
     <g id="text_17">
      <!-- −1 -->
      <g transform="translate(7.2 241.421422)scale(0.1 -0.1)">
       <use xlink:href="#DejaVuSans-8722"/>
       <use x="83.789062" xlink:href="#DejaVuSans-49"/>
      </g>
     </g>
    </g>
    <g id="ytick_11">
     <g id="line2d_44">
      <g>
       <use style="stroke:#000000;stroke-width:0.8;" x="28.942188" xlink:href="#mf150a95eb3" y="216.130627"/>
      </g>
     </g>
     <g id="text_18">
      <!-- 0 -->
      <g transform="translate(15.579688 219.929846)scale(0.1 -0.1)">
       <use xlink:href="#DejaVuSans-48"/>
      </g>
     </g>
    </g>
    <g id="ytick_12">
     <g id="line2d_45">
      <g>
       <use style="stroke:#000000;stroke-width:0.8;" x="28.942188" xlink:href="#mf150a95eb3" y="194.639051"/>
      </g>
     </g>
     <g id="text_19">
      <!-- 1 -->
      <g transform="translate(15.579688 198.43827)scale(0.1 -0.1)">
       <use xlink:href="#DejaVuSans-49"/>
      </g>
     </g>
    </g>
   </g>
   <g id="line2d_46">
    <path clip-path="url(#pe0e2dce082)" d="M 44.160369 194.639051 
L 47.234749 194.811955 
L 50.30913 195.327884 
L 53.38351 196.178537 
L 56.45789 197.350227 
L 59.53227 198.8241 
L 62.60665 200.576442 
L 65.68103 202.579057 
L 68.755411 204.799721 
L 71.829791 207.202704 
L 74.904171 209.749341 
L 77.978551 212.398654 
L 81.052931 215.108017 
L 84.127311 217.833834 
L 87.201692 220.532246 
L 90.276072 223.159833 
L 93.350452 225.674319 
L 96.424832 228.035243 
L 99.499212 230.204617 
L 102.573592 232.147535 
L 105.647973 233.832735 
L 108.722353 235.233102 
L 111.796733 236.326103 
L 114.871113 237.094151 
L 117.945493 237.524888 
L 121.019873 237.611383 
L 124.094254 237.352245 
L 127.168634 236.751644 
L 130.243014 235.819242 
L 133.317394 234.570043 
L 136.391774 233.024147 
L 139.466154 231.206428 
L 142.540535 229.146134 
L 145.614915 226.876415 
L 148.689295 224.433793 
L 151.763675 221.85757 
L 154.838055 219.189198 
L 157.912435 216.471612 
L 160.986816 213.74854 
L 164.061196 211.063796 
L 167.135576 208.46058 
L 170.209956 205.980778 
L 173.284336 203.66429 
L 176.358716 201.548391 
L 179.433097 199.667125 
L 182.507477 198.050763 
L 185.581857 196.725313 
L 188.656237 195.712102 
L 191.730617 195.027432 
L 194.804997 194.682321 
L 197.879378 194.682321 
L 200.953758 195.027432 
L 204.028138 195.712102 
L 207.102518 196.725313 
L 210.176898 198.050763 
L 213.251278 199.667125 
L 216.325659 201.548391 
L 219.400039 203.66429 
L 222.474419 205.980778 
L 225.548799 208.46058 
L 228.623179 211.063796 
L 231.697559 213.74854 
L 234.77194 216.471612 
L 237.84632 219.189198 
L 240.9207 221.85757 
L 243.99508 224.433793 
L 247.06946 226.876415 
L 250.14384 229.146134 
L 253.218221 231.206428 
L 256.292601 233.024147 
L 259.366981 234.570043 
L 262.441361 235.819242 
L 265.515741 236.751644 
L 268.590121 237.352245 
L 271.664502 237.611383 
L 274.738882 237.524888 
L 277.813262 237.094151 
L 280.887642 236.326103 
L 283.962022 235.233102 
L 287.036402 233.832735 
L 290.110783 232.147535 
L 293.185163 230.204617 
L 296.259543 228.035243 
L 299.333923 225.674319 
L 302.408303 223.159833 
L 305.482683 220.532246 
L 308.557064 217.833834 
L 311.631444 215.108017 
L 314.705824 212.398654 
L 317.780204 209.749341 
L 320.854584 207.202704 
L 323.928964 204.799721 
L 327.003345 202.579057 
L 330.077725 200.576442 
L 333.152105 198.8241 
L 336.226485 197.350227 
L 339.300865 196.178537 
L 342.375245 195.327884 
L 345.449626 194.811955 
L 348.524006 194.639051 
" style="fill:none;stroke:#1f77b4;stroke-linecap:square;stroke-width:1.5;"/>
   </g>
   <g id="line2d_47">
    <g clip-path="url(#pe0e2dce082)">
     <use style="fill:#ff7f0e;stroke:#ff7f0e;" x="105.033097" xlink:href="#m0e21051183" y="233.517678"/>
    </g>
   </g>
   <g id="line2d_48">
    <g clip-path="url(#pe0e2dce082)">
     <use style="fill:#2ca02c;stroke:#2ca02c;" x="226.778551" xlink:href="#m3a77baec84" y="209.489365"/>
    </g>
   </g>
   <g id="patch_18">
    <path d="M 28.942188 239.76 
L 28.942188 192.490435 
" style="fill:none;stroke:#000000;stroke-linecap:square;stroke-linejoin:miter;stroke-width:0.8;"/>
   </g>
   <g id="patch_19">
    <path d="M 363.742188 239.76 
L 363.742188 192.490435 
" style="fill:none;stroke:#000000;stroke-linecap:square;stroke-linejoin:miter;stroke-width:0.8;"/>
   </g>
   <g id="patch_20">
    <path d="M 28.942188 239.76 
L 363.742188 239.76 
" style="fill:none;stroke:#000000;stroke-linecap:square;stroke-linejoin:miter;stroke-width:0.8;"/>
   </g>
   <g id="patch_21">
    <path d="M 28.942188 192.490435 
L 363.742188 192.490435 
" style="fill:none;stroke:#000000;stroke-linecap:square;stroke-linejoin:miter;stroke-width:0.8;"/>
   </g>
  </g>
  <g id="legend_1">
   <g id="patch_22">
    <path d="M 394.642188 160.76 
L 443.142188 160.76 
Q 445.142188 160.76 445.142188 158.76 
L 445.142188 124.36 
Q 445.142188 122.36 443.142188 122.36 
L 394.642188 122.36 
Q 392.642188 122.36 392.642188 124.36 
L 392.642188 158.76 
Q 392.642188 160.76 394.642188 160.76 
z
" style="fill:#ffffff;opacity:0.8;stroke:#cccccc;stroke-linejoin:miter;"/>
   </g>
   <g id="line2d_49"/>
   <g id="line2d_50">
    <g>
     <use style="fill:#ff7f0e;stroke:#ff7f0e;" x="406.642188" xlink:href="#m0e21051183" y="133.480313"/>
    </g>
   </g>
   <g id="text_20">
    <!-- $p^{\langle 1 \rangle}$ -->
    <g transform="translate(424.642188 136.980313)scale(0.1 -0.1)">
     <defs>
      <path d="M -2.484375 -19.390625 
Q -3.421875 -19.390625 -3.421875 -18.109375 
Q -3.078125 -15.921875 -2.09375 -15.921875 
Q 1.03125 -15.921875 2.265625 -15.359375 
Q 3.515625 -14.796875 4.203125 -12.5 
L 15.484375 32.515625 
Q 16.21875 34.375 16.21875 37.3125 
Q 16.21875 41.609375 13.28125 41.609375 
Q 10.15625 41.609375 8.640625 37.859375 
Q 7.125 34.125 5.71875 28.421875 
Q 5.71875 27.78125 4.890625 27.78125 
L 3.71875 27.78125 
Q 3.46875 27.78125 3.171875 28.140625 
Q 2.875 28.515625 2.875 28.8125 
Q 3.953125 33.15625 4.953125 36.171875 
Q 5.953125 39.203125 8.078125 41.6875 
Q 10.203125 44.1875 13.375 44.1875 
Q 16.796875 44.1875 19.375 42.25 
Q 21.96875 40.328125 22.703125 37.015625 
Q 25.4375 40.1875 28.75 42.1875 
Q 32.078125 44.1875 35.59375 44.1875 
Q 39.796875 44.1875 42.890625 41.9375 
Q 46 39.703125 47.5625 36.0625 
Q 49.125 32.421875 49.125 28.21875 
Q 49.125 21.78125 45.828125 14.890625 
Q 42.53125 8.015625 36.890625 3.4375 
Q 31.25 -1.125 24.8125 -1.125 
Q 21.875 -1.125 19.5 0.53125 
Q 17.140625 2.203125 15.828125 4.890625 
L 11.28125 -12.890625 
Q 11.03125 -14.359375 10.984375 -14.59375 
Q 10.984375 -15.921875 17.578125 -15.921875 
Q 18.609375 -15.921875 18.609375 -17.1875 
Q 18.265625 -18.5 18.046875 -18.9375 
Q 17.828125 -19.390625 16.890625 -19.390625 
z
M 24.90625 1.515625 
Q 28.375 1.515625 31.34375 4.375 
Q 34.328125 7.234375 36.1875 10.796875 
Q 37.546875 13.484375 38.734375 17.359375 
Q 39.9375 21.234375 40.8125 25.625 
Q 41.703125 30.03125 41.703125 32.625 
Q 41.703125 34.90625 41.09375 36.90625 
Q 40.484375 38.921875 39.09375 40.265625 
Q 37.703125 41.609375 35.40625 41.609375 
Q 31.734375 41.609375 28.484375 38.984375 
Q 25.25 36.375 22.609375 32.515625 
L 22.609375 32.171875 
L 17.09375 10.109375 
Q 17.78125 6.546875 19.734375 4.03125 
Q 21.6875 1.515625 24.90625 1.515625 
z
" id="Cmmi10-112"/>
      <path d="M 35.5 -114.796875 
L 10.015625 -56.78125 
Q 9.8125 -56.5 9.8125 -56 
Q 9.8125 -55.515625 10.015625 -55.328125 
L 35.5 2.78125 
Q 35.984375 4 37.3125 4 
Q 38.03125 4 38.671875 3.359375 
Q 39.3125 2.734375 39.3125 2 
Q 39.3125 1.515625 39.203125 1.3125 
L 14.015625 -56 
L 39.203125 -113.28125 
Q 39.3125 -113.484375 39.3125 -114.015625 
Q 39.3125 -114.75 38.671875 -115.375 
Q 38.03125 -116.015625 37.3125 -116.015625 
Q 36.03125 -116.015625 35.5 -114.796875 
z
" id="Cmex10-173"/>
      <path d="M 9.28125 0 
L 9.28125 3.515625 
Q 21.78125 3.515625 21.78125 6.6875 
L 21.78125 59.1875 
Q 16.609375 56.6875 8.6875 56.6875 
L 8.6875 60.203125 
Q 20.953125 60.203125 27.203125 66.609375 
L 28.609375 66.609375 
Q 28.953125 66.609375 29.265625 66.328125 
Q 29.59375 66.0625 29.59375 65.71875 
L 29.59375 6.6875 
Q 29.59375 3.515625 42.09375 3.515625 
L 42.09375 0 
z
" id="Cmr10-49"/>
      <path d="M 7.8125 -114.015625 
Q 7.8125 -113.484375 8.015625 -113.28125 
L 33.109375 -56 
L 8.015625 1.3125 
Q 7.8125 1.515625 7.8125 2 
Q 7.8125 2.734375 8.390625 3.359375 
Q 8.984375 4 9.8125 4 
Q 10.984375 4 11.71875 2.78125 
L 37.203125 -55.328125 
Q 37.3125 -55.515625 37.3125 -56 
Q 37.3125 -56.5 37.203125 -56.78125 
L 11.71875 -114.796875 
Q 10.9375 -116.015625 9.8125 -116.015625 
Q 8.984375 -116.015625 8.390625 -115.375 
Q 7.8125 -114.75 7.8125 -114.015625 
z
" id="Cmex10-174"/>
     </defs>
     <use transform="translate(0 0.597135)" xlink:href="#Cmmi10-112"/>
     <use transform="translate(56.59625 104.202344)scale(0.7)" xlink:href="#Cmex10-173"/>
     <use transform="translate(89.648008 38.861198)scale(0.7)" xlink:href="#Cmr10-49"/>
     <use transform="translate(124.648008 104.202344)scale(0.7)" xlink:href="#Cmex10-174"/>
    </g>
   </g>
   <g id="line2d_51"/>
   <g id="line2d_52">
    <g>
     <use style="fill:#2ca02c;stroke:#2ca02c;" x="406.642188" xlink:href="#m3a77baec84" y="151.180313"/>
    </g>
   </g>
   <g id="text_21">
    <!-- $p^{\langle 3 \rangle}$ -->
    <g transform="translate(424.642188 154.680313)scale(0.1 -0.1)">
     <defs>
      <path d="M 9.515625 7.71875 
Q 11.859375 4.296875 15.8125 2.640625 
Q 19.78125 0.984375 24.3125 0.984375 
Q 30.125 0.984375 32.5625 5.9375 
Q 35.015625 10.890625 35.015625 17.1875 
Q 35.015625 20.015625 34.5 22.84375 
Q 33.984375 25.6875 32.765625 28.125 
Q 31.546875 30.5625 29.421875 32.03125 
Q 27.296875 33.5 24.21875 33.5 
L 17.578125 33.5 
Q 16.703125 33.5 16.703125 34.421875 
L 16.703125 35.296875 
Q 16.703125 36.078125 17.578125 36.078125 
L 23.09375 36.53125 
Q 26.609375 36.53125 28.921875 39.15625 
Q 31.25 41.796875 32.328125 45.578125 
Q 33.40625 49.359375 33.40625 52.78125 
Q 33.40625 57.5625 31.15625 60.640625 
Q 28.90625 63.71875 24.3125 63.71875 
Q 20.515625 63.71875 17.046875 62.28125 
Q 13.578125 60.84375 11.53125 57.90625 
Q 11.71875 57.953125 11.859375 57.984375 
Q 12.015625 58.015625 12.203125 58.015625 
Q 14.453125 58.015625 15.96875 56.453125 
Q 17.484375 54.890625 17.484375 52.6875 
Q 17.484375 50.53125 15.96875 48.96875 
Q 14.453125 47.40625 12.203125 47.40625 
Q 10.015625 47.40625 8.453125 48.96875 
Q 6.890625 50.53125 6.890625 52.6875 
Q 6.890625 56.984375 9.46875 60.15625 
Q 12.0625 63.328125 16.140625 64.96875 
Q 20.21875 66.609375 24.3125 66.609375 
Q 27.34375 66.609375 30.703125 65.703125 
Q 34.078125 64.796875 36.8125 63.109375 
Q 39.546875 61.421875 41.28125 58.78125 
Q 43.015625 56.15625 43.015625 52.78125 
Q 43.015625 48.578125 41.140625 45.015625 
Q 39.265625 41.453125 35.984375 38.859375 
Q 32.71875 36.28125 28.8125 35.015625 
Q 33.15625 34.1875 37.0625 31.734375 
Q 40.96875 29.296875 43.328125 25.484375 
Q 45.703125 21.6875 45.703125 17.28125 
Q 45.703125 11.765625 42.671875 7.296875 
Q 39.65625 2.828125 34.71875 0.3125 
Q 29.78125 -2.203125 24.3125 -2.203125 
Q 19.625 -2.203125 14.90625 -0.40625 
Q 10.203125 1.375 7.203125 4.9375 
Q 4.203125 8.5 4.203125 13.484375 
Q 4.203125 15.96875 5.859375 17.625 
Q 7.515625 19.28125 10.015625 19.28125 
Q 11.625 19.28125 12.96875 18.53125 
Q 14.3125 17.78125 15.0625 16.40625 
Q 15.828125 15.046875 15.828125 13.484375 
Q 15.828125 11.03125 14.109375 9.375 
Q 12.40625 7.71875 10.015625 7.71875 
z
" id="Cmr10-51"/>
     </defs>
     <use transform="translate(0 0.597135)" xlink:href="#Cmmi10-112"/>
     <use transform="translate(56.59625 104.202344)scale(0.7)" xlink:href="#Cmex10-173"/>
     <use transform="translate(89.648008 38.861198)scale(0.7)" xlink:href="#Cmr10-51"/>
     <use transform="translate(124.648008 104.202344)scale(0.7)" xlink:href="#Cmex10-174"/>
    </g>
   </g>
  </g>
 </g>
 <defs>
  <clipPath id="p831f061439">
   <rect height="47.269565" width="334.8" x="28.942188" y="22.32"/>
  </clipPath>
  <clipPath id="pfbfa0f08a7">
   <rect height="47.269565" width="334.8" x="28.942188" y="79.043478"/>
  </clipPath>
  <clipPath id="p762db1a3c1">
   <rect height="47.269565" width="334.8" x="28.942188" y="135.766957"/>
  </clipPath>
  <clipPath id="pe0e2dce082">
   <rect height="47.269565" width="334.8" x="28.942188" y="192.490435"/>
  </clipPath>
 </defs>
</svg>
