<?xml version="1.0" encoding="utf-8" standalone="no"?>
<!DOCTYPE svg PUBLIC "-//W3C//DTD SVG 1.1//EN"
  "http://www.w3.org/Graphics/SVG/1.1/DTD/svg11.dtd">
<svg height="277.314375pt" version="1.1" viewBox="0 0 601.560937 277.314375" width="601.560937pt" xmlns="http://www.w3.org/2000/svg" xmlns:xlink="http://www.w3.org/1999/xlink">
 <metadata>
  <rdf:RDF xmlns:cc="http://creativecommons.org/ns#" xmlns:dc="http://purl.org/dc/elements/1.1/" xmlns:rdf="http://www.w3.org/1999/02/22-rdf-syntax-ns#">
   <cc:Work>
    <dc:type rdf:resource="http://purl.org/dc/dcmitype/StillImage"/>
    <dc:date>2021-09-27T21:16:12.305958</dc:date>
    <dc:format>image/svg+xml</dc:format>
    <dc:creator>
     <cc:Agent>
      <dc:title>Matplotlib v3.4.3, https://matplotlib.org/</dc:title>
     </cc:Agent>
    </dc:creator>
   </cc:Work>
  </rdf:RDF>
 </metadata>
 <defs>
  <style type="text/css">*{stroke-linecap:butt;stroke-linejoin:round;}</style>
 </defs>
 <g id="figure_1">
  <g id="patch_1">
   <path d="M 0 277.314375 
L 601.560937 277.314375 
L 601.560937 0 
L 0 0 
z
" style="fill:none;"/>
  </g>
  <g id="axes_1">
   <g id="patch_2">
    <path d="M 52.160938 239.758125 
L 386.960938 239.758125 
L 386.960938 22.318125 
L 52.160938 22.318125 
z
" style="fill:#ffffff;"/>
   </g>
   <g id="matplotlib.axis_1">
    <g id="xtick_1">
     <g id="line2d_1">
      <defs>
       <path d="M 0 0 
L 0 3.5 
" id="m812d335399" style="stroke:#000000;stroke-width:0.8;"/>
      </defs>
      <g>
       <use style="stroke:#000000;stroke-width:0.8;" x="52.160938" xlink:href="#m812d335399" y="239.758125"/>
      </g>
     </g>
     <g id="text_1">
      <!-- −1000 -->
      <g transform="translate(35.246094 254.356562)scale(0.1 -0.1)">
       <defs>
        <path d="M 678 2272 
L 4684 2272 
L 4684 1741 
L 678 1741 
L 678 2272 
z
" id="DejaVuSans-2212" transform="scale(0.015625)"/>
        <path d="M 794 531 
L 1825 531 
L 1825 4091 
L 703 3866 
L 703 4441 
L 1819 4666 
L 2450 4666 
L 2450 531 
L 3481 531 
L 3481 0 
L 794 0 
L 794 531 
z
" id="DejaVuSans-31" transform="scale(0.015625)"/>
        <path d="M 2034 4250 
Q 1547 4250 1301 3770 
Q 1056 3291 1056 2328 
Q 1056 1369 1301 889 
Q 1547 409 2034 409 
Q 2525 409 2770 889 
Q 3016 1369 3016 2328 
Q 3016 3291 2770 3770 
Q 2525 4250 2034 4250 
z
M 2034 4750 
Q 2819 4750 3233 4129 
Q 3647 3509 3647 2328 
Q 3647 1150 3233 529 
Q 2819 -91 2034 -91 
Q 1250 -91 836 529 
Q 422 1150 422 2328 
Q 422 3509 836 4129 
Q 1250 4750 2034 4750 
z
" id="DejaVuSans-30" transform="scale(0.015625)"/>
       </defs>
       <use xlink:href="#DejaVuSans-2212"/>
       <use x="83.789062" xlink:href="#DejaVuSans-31"/>
       <use x="147.412109" xlink:href="#DejaVuSans-30"/>
       <use x="211.035156" xlink:href="#DejaVuSans-30"/>
       <use x="274.658203" xlink:href="#DejaVuSans-30"/>
      </g>
     </g>
    </g>
    <g id="xtick_2">
     <g id="line2d_2">
      <g>
       <use style="stroke:#000000;stroke-width:0.8;" x="107.960938" xlink:href="#m812d335399" y="239.758125"/>
      </g>
     </g>
     <g id="text_2">
      <!-- −500 -->
      <g transform="translate(94.227344 254.356562)scale(0.1 -0.1)">
       <defs>
        <path d="M 691 4666 
L 3169 4666 
L 3169 4134 
L 1269 4134 
L 1269 2991 
Q 1406 3038 1543 3061 
Q 1681 3084 1819 3084 
Q 2600 3084 3056 2656 
Q 3513 2228 3513 1497 
Q 3513 744 3044 326 
Q 2575 -91 1722 -91 
Q 1428 -91 1123 -41 
Q 819 9 494 109 
L 494 744 
Q 775 591 1075 516 
Q 1375 441 1709 441 
Q 2250 441 2565 725 
Q 2881 1009 2881 1497 
Q 2881 1984 2565 2268 
Q 2250 2553 1709 2553 
Q 1456 2553 1204 2497 
Q 953 2441 691 2322 
L 691 4666 
z
" id="DejaVuSans-35" transform="scale(0.015625)"/>
       </defs>
       <use xlink:href="#DejaVuSans-2212"/>
       <use x="83.789062" xlink:href="#DejaVuSans-35"/>
       <use x="147.412109" xlink:href="#DejaVuSans-30"/>
       <use x="211.035156" xlink:href="#DejaVuSans-30"/>
      </g>
     </g>
    </g>
    <g id="xtick_3">
     <g id="line2d_3">
      <g>
       <use style="stroke:#000000;stroke-width:0.8;" x="163.760938" xlink:href="#m812d335399" y="239.758125"/>
      </g>
     </g>
     <g id="text_3">
      <!-- 0 -->
      <g transform="translate(160.579688 254.356562)scale(0.1 -0.1)">
       <use xlink:href="#DejaVuSans-30"/>
      </g>
     </g>
    </g>
    <g id="xtick_4">
     <g id="line2d_4">
      <g>
       <use style="stroke:#000000;stroke-width:0.8;" x="219.560938" xlink:href="#m812d335399" y="239.758125"/>
      </g>
     </g>
     <g id="text_4">
      <!-- 500 -->
      <g transform="translate(210.017188 254.356562)scale(0.1 -0.1)">
       <use xlink:href="#DejaVuSans-35"/>
       <use x="63.623047" xlink:href="#DejaVuSans-30"/>
       <use x="127.246094" xlink:href="#DejaVuSans-30"/>
      </g>
     </g>
    </g>
    <g id="xtick_5">
     <g id="line2d_5">
      <g>
       <use style="stroke:#000000;stroke-width:0.8;" x="275.360938" xlink:href="#m812d335399" y="239.758125"/>
      </g>
     </g>
     <g id="text_5">
      <!-- 1000 -->
      <g transform="translate(262.635938 254.356562)scale(0.1 -0.1)">
       <use xlink:href="#DejaVuSans-31"/>
       <use x="63.623047" xlink:href="#DejaVuSans-30"/>
       <use x="127.246094" xlink:href="#DejaVuSans-30"/>
       <use x="190.869141" xlink:href="#DejaVuSans-30"/>
      </g>
     </g>
    </g>
    <g id="xtick_6">
     <g id="line2d_6">
      <g>
       <use style="stroke:#000000;stroke-width:0.8;" x="331.160938" xlink:href="#m812d335399" y="239.758125"/>
      </g>
     </g>
     <g id="text_6">
      <!-- 1500 -->
      <g transform="translate(318.435938 254.356562)scale(0.1 -0.1)">
       <use xlink:href="#DejaVuSans-31"/>
       <use x="63.623047" xlink:href="#DejaVuSans-35"/>
       <use x="127.246094" xlink:href="#DejaVuSans-30"/>
       <use x="190.869141" xlink:href="#DejaVuSans-30"/>
      </g>
     </g>
    </g>
    <g id="xtick_7">
     <g id="line2d_7">
      <g>
       <use style="stroke:#000000;stroke-width:0.8;" x="386.960938" xlink:href="#m812d335399" y="239.758125"/>
      </g>
     </g>
     <g id="text_7">
      <!-- 2000 -->
      <g transform="translate(374.235937 254.356562)scale(0.1 -0.1)">
       <defs>
        <path d="M 1228 531 
L 3431 531 
L 3431 0 
L 469 0 
L 469 531 
Q 828 903 1448 1529 
Q 2069 2156 2228 2338 
Q 2531 2678 2651 2914 
Q 2772 3150 2772 3378 
Q 2772 3750 2511 3984 
Q 2250 4219 1831 4219 
Q 1534 4219 1204 4116 
Q 875 4013 500 3803 
L 500 4441 
Q 881 4594 1212 4672 
Q 1544 4750 1819 4750 
Q 2544 4750 2975 4387 
Q 3406 4025 3406 3419 
Q 3406 3131 3298 2873 
Q 3191 2616 2906 2266 
Q 2828 2175 2409 1742 
Q 1991 1309 1228 531 
z
" id="DejaVuSans-32" transform="scale(0.015625)"/>
       </defs>
       <use xlink:href="#DejaVuSans-32"/>
       <use x="63.623047" xlink:href="#DejaVuSans-30"/>
       <use x="127.246094" xlink:href="#DejaVuSans-30"/>
       <use x="190.869141" xlink:href="#DejaVuSans-30"/>
      </g>
     </g>
    </g>
    <g id="text_8">
     <!-- $\theta_0$ -->
     <g transform="translate(215.110938 268.034687)scale(0.1 -0.1)">
      <defs>
       <path d="M 1031 -72 
Q 741 -72 566 140 
Q 391 353 323 653 
Q 256 953 256 1247 
L 256 1253 
Q 256 1572 317 1915 
Q 378 2259 493 2601 
Q 609 2944 744 3213 
Q 838 3400 986 3631 
Q 1134 3863 1317 4064 
Q 1500 4266 1711 4389 
Q 1922 4513 2138 4513 
L 2144 4513 
Q 2375 4513 2529 4384 
Q 2684 4256 2770 4056 
Q 2856 3856 2890 3628 
Q 2925 3400 2925 3194 
Q 2925 2709 2794 2204 
Q 2663 1700 2431 1228 
Q 2344 1050 2189 809 
Q 2034 569 1861 378 
Q 1688 188 1472 58 
Q 1256 -72 1038 -72 
L 1031 -72 
z
M 1044 97 
Q 1256 97 1451 323 
Q 1647 550 1794 873 
Q 1941 1197 2052 1536 
Q 2163 1875 2216 2113 
L 909 2113 
Q 809 1709 753 1417 
Q 697 1125 697 844 
Q 697 97 1044 97 
z
M 959 2338 
L 2272 2338 
Q 2341 2619 2381 2808 
Q 2422 2997 2450 3206 
Q 2478 3416 2478 3597 
Q 2478 4347 2138 4347 
Q 1731 4347 1436 3692 
Q 1141 3038 959 2338 
z
" id="Cmmi10-b5" transform="scale(0.015625)"/>
       <path d="M 1600 -141 
Q 816 -141 533 504 
Q 250 1150 250 2041 
Q 250 2597 351 3087 
Q 453 3578 754 3920 
Q 1056 4263 1600 4263 
Q 2022 4263 2290 4056 
Q 2559 3850 2700 3523 
Q 2841 3197 2892 2823 
Q 2944 2450 2944 2041 
Q 2944 1491 2842 1011 
Q 2741 531 2444 195 
Q 2147 -141 1600 -141 
z
M 1600 25 
Q 1956 25 2131 390 
Q 2306 756 2347 1200 
Q 2388 1644 2388 2144 
Q 2388 2625 2347 3031 
Q 2306 3438 2132 3767 
Q 1959 4097 1600 4097 
Q 1238 4097 1063 3765 
Q 888 3434 847 3029 
Q 806 2625 806 2144 
Q 806 1788 823 1472 
Q 841 1156 916 820 
Q 991 484 1158 254 
Q 1325 25 1600 25 
z
" id="Cmr10-30" transform="scale(0.015625)"/>
      </defs>
      <use transform="translate(0 0.484375)" xlink:href="#Cmmi10-b5"/>
      <use transform="translate(46.923828 -16.521875)scale(0.7)" xlink:href="#Cmr10-30"/>
     </g>
    </g>
   </g>
   <g id="matplotlib.axis_2">
    <g id="ytick_1">
     <g id="line2d_8">
      <defs>
       <path d="M 0 0 
L -3.5 0 
" id="m11f42445de" style="stroke:#000000;stroke-width:0.8;"/>
      </defs>
      <g>
       <use style="stroke:#000000;stroke-width:0.8;" x="52.160938" xlink:href="#m11f42445de" y="218.014125"/>
      </g>
     </g>
     <g id="text_9">
      <!-- −0.4 -->
      <g transform="translate(20.878125 221.813344)scale(0.1 -0.1)">
       <defs>
        <path d="M 684 794 
L 1344 794 
L 1344 0 
L 684 0 
L 684 794 
z
" id="DejaVuSans-2e" transform="scale(0.015625)"/>
        <path d="M 2419 4116 
L 825 1625 
L 2419 1625 
L 2419 4116 
z
M 2253 4666 
L 3047 4666 
L 3047 1625 
L 3713 1625 
L 3713 1100 
L 3047 1100 
L 3047 0 
L 2419 0 
L 2419 1100 
L 313 1100 
L 313 1709 
L 2253 4666 
z
" id="DejaVuSans-34" transform="scale(0.015625)"/>
       </defs>
       <use xlink:href="#DejaVuSans-2212"/>
       <use x="83.789062" xlink:href="#DejaVuSans-30"/>
       <use x="147.412109" xlink:href="#DejaVuSans-2e"/>
       <use x="179.199219" xlink:href="#DejaVuSans-34"/>
      </g>
     </g>
    </g>
    <g id="ytick_2">
     <g id="line2d_9">
      <g>
       <use style="stroke:#000000;stroke-width:0.8;" x="52.160938" xlink:href="#m11f42445de" y="174.526125"/>
      </g>
     </g>
     <g id="text_10">
      <!-- −0.2 -->
      <g transform="translate(20.878125 178.325344)scale(0.1 -0.1)">
       <use xlink:href="#DejaVuSans-2212"/>
       <use x="83.789062" xlink:href="#DejaVuSans-30"/>
       <use x="147.412109" xlink:href="#DejaVuSans-2e"/>
       <use x="179.199219" xlink:href="#DejaVuSans-32"/>
      </g>
     </g>
    </g>
    <g id="ytick_3">
     <g id="line2d_10">
      <g>
       <use style="stroke:#000000;stroke-width:0.8;" x="52.160938" xlink:href="#m11f42445de" y="131.038125"/>
      </g>
     </g>
     <g id="text_11">
      <!-- 0.0 -->
      <g transform="translate(29.257812 134.837344)scale(0.1 -0.1)">
       <use xlink:href="#DejaVuSans-30"/>
       <use x="63.623047" xlink:href="#DejaVuSans-2e"/>
       <use x="95.410156" xlink:href="#DejaVuSans-30"/>
      </g>
     </g>
    </g>
    <g id="ytick_4">
     <g id="line2d_11">
      <g>
       <use style="stroke:#000000;stroke-width:0.8;" x="52.160938" xlink:href="#m11f42445de" y="87.550125"/>
      </g>
     </g>
     <g id="text_12">
      <!-- 0.2 -->
      <g transform="translate(29.257812 91.349344)scale(0.1 -0.1)">
       <use xlink:href="#DejaVuSans-30"/>
       <use x="63.623047" xlink:href="#DejaVuSans-2e"/>
       <use x="95.410156" xlink:href="#DejaVuSans-32"/>
      </g>
     </g>
    </g>
    <g id="ytick_5">
     <g id="line2d_12">
      <g>
       <use style="stroke:#000000;stroke-width:0.8;" x="52.160938" xlink:href="#m11f42445de" y="44.062125"/>
      </g>
     </g>
     <g id="text_13">
      <!-- 0.4 -->
      <g transform="translate(29.257812 47.861344)scale(0.1 -0.1)">
       <use xlink:href="#DejaVuSans-30"/>
       <use x="63.623047" xlink:href="#DejaVuSans-2e"/>
       <use x="95.410156" xlink:href="#DejaVuSans-34"/>
      </g>
     </g>
    </g>
    <g id="text_14">
     <!-- $\theta_1$ -->
     <g transform="translate(14.798438 135.488125)rotate(-90)scale(0.1 -0.1)">
      <defs>
       <path d="M 594 0 
L 594 225 
Q 1394 225 1394 428 
L 1394 3788 
Q 1063 3628 556 3628 
L 556 3853 
Q 1341 3853 1741 4263 
L 1831 4263 
Q 1853 4263 1873 4245 
Q 1894 4228 1894 4206 
L 1894 428 
Q 1894 225 2694 225 
L 2694 0 
L 594 0 
z
" id="Cmr10-31" transform="scale(0.015625)"/>
      </defs>
      <use transform="translate(0 0.484375)" xlink:href="#Cmmi10-b5"/>
      <use transform="translate(46.923828 -16.521875)scale(0.7)" xlink:href="#Cmr10-31"/>
     </g>
    </g>
   </g>
   <g id="LineCollection_1"/>
   <g id="LineCollection_2"/>
   <g id="LineCollection_3"/>
   <g id="LineCollection_4"/>
   <g id="LineCollection_5"/>
   <g id="LineCollection_6"/>
   <g id="LineCollection_7"/>
   <g id="LineCollection_8"/>
   <g id="LineCollection_9"/>
   <g id="LineCollection_10">
    <path clip-path="url(#pb9b094b09f)" d="M 177.28821 107.986709 
L 177.27497 107.976307 
L 173.906392 105.865593 
L 173.812481 105.779943 
L 171.574477 103.58358 
L 170.524574 102.9026 
L 169.253515 101.387216 
L 167.142756 99.571073 
L 166.839245 99.190852 
L 166.005127 96.994489 
L 167.142756 96.377873 
L 167.891012 96.994489 
L 170.524574 98.635124 
L 171.09928 99.190852 
L 173.906392 101.372805 
L 173.920067 101.387216 
L 175.444539 103.58358 
L 177.28821 105.291693 
L 177.62759 105.779943 
L 177.324233 107.976307 
L 177.28821 107.986709 
" style="fill:none;stroke:#440154;stroke-width:1.5;"/>
   </g>
   <g id="LineCollection_11">
    <path clip-path="url(#pb9b094b09f)" d="M 187.433665 119.262322 
L 186.919042 118.958125 
L 184.051847 117.459701 
L 183.034386 116.761761 
L 180.670028 115.308325 
L 179.693927 114.565398 
L 177.28821 112.906622 
L 176.634315 112.369034 
L 173.906392 110.319167 
L 173.738518 110.17267 
L 171.190368 107.976307 
L 170.524574 107.450907 
L 168.748781 105.779943 
L 167.142756 104.41567 
L 166.299317 103.58358 
L 163.89335 101.387216 
L 163.760938 101.265063 
L 161.875442 99.190852 
L 160.379119 97.728918 
L 159.731887 96.994489 
L 157.804296 94.798125 
L 156.997301 93.902083 
L 156.015299 92.601761 
L 154.338879 90.405398 
L 153.615483 89.399217 
L 152.924635 88.209034 
L 152.050173 86.01267 
L 152.617192 83.816307 
L 153.615483 83.527742 
L 154.268365 83.816307 
L 156.997301 84.844794 
L 158.995282 86.01267 
L 160.379119 86.71771 
L 162.538991 88.209034 
L 163.760938 88.956751 
L 165.636691 90.405398 
L 167.142756 91.449711 
L 168.51848 92.601761 
L 170.524574 94.125983 
L 171.279402 94.798125 
L 173.906392 96.938919 
L 173.965857 96.994489 
L 176.249413 99.190852 
L 177.28821 100.092266 
L 178.561481 101.387216 
L 180.670028 103.326323 
L 180.913961 103.58358 
L 182.90111 105.779943 
L 184.051847 106.944 
L 184.922509 107.976307 
L 186.824714 110.17267 
L 187.433665 110.890307 
L 188.472429 112.369034 
L 190.003776 114.565398 
L 190.815483 115.844007 
L 191.2769 116.761761 
L 191.640307 118.958125 
L 190.815483 119.951134 
L 187.433665 119.262322 
" style="fill:none;stroke:#440256;stroke-width:1.5;"/>
   </g>
   <g id="LineCollection_12">
    <path clip-path="url(#pb9b094b09f)" d="M 197.579119 130.2655 
L 196.95713 129.939943 
L 194.197301 128.612658 
L 192.737514 127.74358 
L 190.815483 126.685208 
L 189.082004 125.547216 
L 187.433665 124.540678 
L 185.755666 123.350852 
L 184.051847 122.221574 
L 182.63812 121.154489 
L 180.670028 119.759987 
L 179.661307 118.958125 
L 177.28821 117.180594 
L 176.783849 116.761761 
L 174.00577 114.565398 
L 173.906392 114.488675 
L 171.459223 112.369034 
L 170.524574 111.610154 
L 168.927695 110.17267 
L 167.142756 108.660552 
L 166.407165 107.976307 
L 163.938653 105.779943 
L 163.760938 105.622413 
L 161.686375 103.58358 
L 160.379119 102.381037 
L 159.395226 101.387216 
L 157.100052 99.190852 
L 156.997301 99.090569 
L 155.060258 96.994489 
L 153.615483 95.540543 
L 152.943633 94.798125 
L 150.943876 92.601761 
L 150.233665 91.830657 
L 149.049714 90.405398 
L 147.126282 88.209034 
L 146.851847 87.878626 
L 145.470578 86.01267 
L 143.732381 83.816307 
L 143.470028 83.44936 
L 142.321751 81.619943 
L 140.967965 79.42358 
L 140.08821 77.857834 
L 139.783168 77.227216 
L 139.197854 75.030852 
L 139.513281 72.834489 
L 140.08821 72.331736 
L 143.470028 72.470199 
L 144.339024 72.834489 
L 146.851847 73.787368 
L 149.272395 75.030852 
L 150.233665 75.481659 
L 153.183405 77.227216 
L 153.615483 77.462417 
L 156.599125 79.42358 
L 156.997301 79.665887 
L 159.737452 81.619943 
L 160.379119 82.045927 
L 162.704817 83.816307 
L 163.760938 84.568318 
L 165.559374 86.01267 
L 167.142756 87.207146 
L 168.33559 88.209034 
L 170.524574 89.942428 
L 171.055188 90.405398 
L 173.673344 92.601761 
L 173.906392 92.793154 
L 176.099044 94.798125 
L 177.28821 95.818109 
L 178.532922 96.994489 
L 180.670028 98.896392 
L 180.972903 99.190852 
L 183.223554 101.387216 
L 184.051847 102.162144 
L 185.430685 103.58358 
L 187.433665 105.51766 
L 187.682302 105.779943 
L 189.708722 107.976307 
L 190.815483 109.115162 
L 191.748146 110.17267 
L 193.745689 112.369034 
L 194.197301 112.874475 
L 195.554147 114.565398 
L 197.448785 116.761761 
L 197.579119 116.925687 
L 199.011631 118.958125 
L 200.670559 121.154489 
L 200.960938 121.589389 
L 201.986397 123.350852 
L 203.161749 125.547216 
L 204.203967 127.74358 
L 204.342756 128.783002 
L 204.465071 129.939943 
L 204.342756 130.254851 
L 200.960938 131.28938 
L 197.579119 130.2655 
" style="fill:none;stroke:#450457;stroke-width:1.5;"/>
   </g>
   <g id="LineCollection_13">
    <path clip-path="url(#pb9b094b09f)" d="M 211.106392 143.993211 
L 207.724574 142.598754 
L 204.312585 140.921761 
L 200.504625 138.725398 
L 196.958778 136.529034 
L 190.815483 132.445557 
L 180.670028 124.912065 
L 170.524574 116.653134 
L 160.379119 107.635076 
L 149.437361 96.994489 
L 143.470028 90.76299 
L 139.256601 86.01267 
L 135.57058 81.619943 
L 133.324574 78.854126 
L 129.013188 72.834489 
L 126.287731 68.441761 
L 125.285826 66.245398 
L 124.451045 64.049034 
L 123.977054 61.85267 
L 124.545097 59.656307 
L 126.560938 58.501208 
L 129.942756 58.843571 
L 133.324574 59.92715 
L 137.447924 61.85267 
L 141.472071 64.049034 
L 145.143998 66.245398 
L 148.571251 68.441761 
L 151.821637 70.638125 
L 154.940026 72.834489 
L 160.379119 76.816816 
L 170.524574 84.943611 
L 181.760054 94.798125 
L 184.195746 96.994489 
L 194.197301 106.770835 
L 201.534662 114.565398 
L 207.724574 121.733494 
L 212.321653 127.74358 
L 214.48821 130.796621 
L 216.618999 134.33267 
L 217.897224 136.529034 
L 218.738085 138.725398 
L 219.307562 140.921761 
L 219.265981 143.118125 
L 217.870028 144.892885 
L 214.48821 144.981108 
L 211.106392 143.993211 
L 211.106392 143.993211 
" style="fill:none;stroke:#450559;stroke-width:1.5;"/>
   </g>
   <g id="LineCollection_14">
    <path clip-path="url(#pb9b094b09f)" d="M 228.015483 161.447758 
L 224.633665 160.170172 
L 220.943245 158.49267 
L 216.769427 156.296307 
L 212.899449 154.099943 
L 209.258693 151.90358 
L 205.795124 149.707216 
L 200.960938 146.514994 
L 190.113728 138.725398 
L 184.051847 134.109668 
L 173.478363 125.547216 
L 165.793651 118.958125 
L 160.379119 114.19349 
L 149.016955 103.58358 
L 143.470028 98.173174 
L 133.324574 87.693793 
L 124.02026 77.227216 
L 120.365405 72.834489 
L 116.906732 68.441761 
L 115.287417 66.245398 
L 112.170477 61.85267 
L 109.328476 57.459943 
L 106.950305 53.067216 
L 105.92841 50.870852 
L 105.189353 48.674489 
L 104.695724 46.478125 
L 104.652858 44.281761 
L 105.583731 42.085398 
L 106.270028 41.497316 
L 109.651847 40.889928 
L 113.033665 41.421025 
L 116.415483 42.460154 
L 120.716167 44.281761 
L 125.150335 46.478125 
L 126.560938 47.193362 
L 133.324574 51.097404 
L 140.08821 55.430068 
L 146.851847 60.107183 
L 156.997301 67.633958 
L 168.955647 77.227216 
L 174.208761 81.619943 
L 184.192785 90.405398 
L 194.197301 99.753626 
L 204.677721 110.17267 
L 212.89762 118.958125 
L 216.821279 123.350852 
L 220.594283 127.74358 
L 224.191206 132.136307 
L 227.580556 136.529034 
L 229.158084 138.725398 
L 232.191254 143.118125 
L 234.932179 147.510852 
L 237.107964 151.90358 
L 238.160938 154.430076 
L 238.654353 156.296307 
L 238.886958 158.49267 
L 238.489483 160.689034 
L 238.160938 161.212486 
L 234.779119 162.738508 
L 231.397301 162.389085 
L 228.015483 161.447758 
L 228.015483 161.447758 
" style="fill:none;stroke:#460a5d;stroke-width:1.5;"/>
   </g>
   <g id="LineCollection_15">
    <path clip-path="url(#pb9b094b09f)" d="M 101.132871 22.318125 
L 102.88821 23.105184 
L 109.651847 26.555948 
L 119.797301 32.503377 
L 129.942756 39.089121 
L 140.481365 46.478125 
L 146.851847 51.175374 
L 157.804383 59.656307 
L 163.760938 64.430112 
L 177.28821 75.790439 
L 191.257554 88.209034 
L 200.960938 97.263399 
L 214.48821 110.573649 
L 224.639613 121.154489 
L 234.779119 132.420324 
L 243.680933 143.118125 
L 247.118531 147.510852 
L 250.396175 151.90358 
L 252.002757 154.099943 
L 256.383387 160.689034 
L 259.038228 165.081761 
L 261.833665 170.517993 
L 262.340231 171.670852 
L 263.161853 173.867216 
L 263.844097 176.06358 
L 264.315977 178.259943 
L 264.448441 180.456307 
L 263.979747 182.65267 
L 262.285908 184.849034 
L 261.833665 185.146677 
L 258.451847 185.862383 
L 255.070028 185.604318 
L 251.622574 184.849034 
L 248.306392 183.748584 
L 244.924574 182.453516 
L 240.557506 180.456307 
L 236.183813 178.259943 
L 232.098048 176.06358 
L 231.397301 175.687949 
L 224.57493 171.670852 
L 217.666701 167.278125 
L 211.106392 162.880537 
L 201.869802 156.296307 
L 197.579119 153.138705 
L 184.611201 143.118125 
L 180.670028 139.950137 
L 167.142756 128.64527 
L 153.615483 116.697223 
L 139.637215 103.58358 
L 129.942756 94.00791 
L 119.797301 83.486089 
L 109.651847 72.293834 
L 100.873133 61.85267 
L 97.388863 57.459943 
L 94.058141 53.067216 
L 92.423134 50.870852 
L 87.940552 44.281761 
L 85.20513 39.889034 
L 82.597301 35.182652 
L 80.797527 31.10358 
L 79.974786 28.907216 
L 79.215483 26.139965 
L 78.967916 24.514489 
L 78.995568 22.318125 
L 78.995568 22.318125 
" style="fill:none;stroke:#471365;stroke-width:1.5;"/>
   </g>
   <g id="LineCollection_16">
    <path clip-path="url(#pb9b094b09f)" d="M 123.663915 22.318125 
L 133.324574 29.301002 
L 146.851847 39.555635 
L 161.042565 50.870852 
L 170.524574 58.719012 
L 184.409722 70.638125 
L 194.288147 79.42358 
L 208.537999 92.601761 
L 217.870028 101.527367 
L 231.397301 115.006666 
L 243.566465 127.74358 
L 249.632908 134.33267 
L 255.5417 140.921761 
L 263.096648 149.707216 
L 268.597301 156.329168 
L 277.096647 167.278125 
L 280.315984 171.670852 
L 283.401834 176.06358 
L 286.341171 180.456307 
L 289.119218 184.849034 
L 292.842207 191.438125 
L 295.651847 197.305243 
L 295.960365 198.027216 
L 297.489549 202.419943 
L 298.072759 204.616307 
L 298.473707 206.81267 
L 298.612977 209.009034 
L 298.357176 211.205398 
L 297.46369 213.401761 
L 295.651847 215.411357 
L 295.307032 215.598125 
L 292.270028 216.614349 
L 288.88821 216.779545 
L 285.506392 216.398194 
L 281.841433 215.598125 
L 278.742756 214.673291 
L 275.096449 213.401761 
L 268.597301 210.688736 
L 261.833665 207.428652 
L 252.594543 202.419943 
L 248.306392 199.947586 
L 241.538065 195.830852 
L 234.679944 191.438125 
L 224.894438 184.849034 
L 221.251847 182.311078 
L 209.583278 173.867216 
L 200.800007 167.278125 
L 189.579906 158.49267 
L 180.670028 151.30513 
L 167.142756 139.968484 
L 153.154082 127.74358 
L 143.442005 118.958125 
L 129.432895 105.779943 
L 119.797301 96.376318 
L 106.270028 82.617675 
L 95.065468 70.638125 
L 89.11541 64.049034 
L 79.215483 52.55774 
L 70.76058 42.085398 
L 67.382696 37.69267 
L 64.123151 33.299943 
L 60.992996 28.907216 
L 58.004702 24.514489 
L 56.577346 22.318125 
L 56.577346 22.318125 
" style="fill:none;stroke:#482071;stroke-width:1.5;"/>
   </g>
   <g id="LineCollection_17">
    <path clip-path="url(#pb9b094b09f)" d="M 283.537497 239.758125 
L 278.742756 237.030761 
L 268.597301 230.941949 
L 258.286986 224.38358 
L 248.306392 217.74074 
L 238.160938 210.705485 
L 224.633665 200.944476 
L 209.121059 189.241761 
L 200.642674 182.65267 
L 187.433665 172.081288 
L 170.524574 158.052766 
L 153.615483 143.475611 
L 138.482254 129.939943 
L 128.912999 121.154489 
L 119.538175 112.369034 
L 105.873502 99.190852 
L 92.647445 86.01267 
L 79.215483 72.123019 
L 65.591322 57.459943 
L 53.911307 44.281761 
L 52.160938 42.280042 
L 52.160938 42.280042 
" style="fill:none;stroke:#453882;stroke-width:1.5;"/>
    <path clip-path="url(#pb9b094b09f)" d="M 144.543316 22.318125 
L 153.615483 29.564655 
L 168.807824 42.085398 
L 177.28821 49.248711 
L 194.292725 64.049034 
L 208.886742 77.227216 
L 218.377592 86.01267 
L 231.397301 98.392716 
L 245.615162 112.369034 
L 256.427016 123.350852 
L 264.865608 132.136307 
L 271.979119 139.734468 
L 283.028098 151.90358 
L 290.726944 160.689034 
L 296.34987 167.278125 
L 303.595315 176.06358 
L 309.179119 183.060638 
L 317.185804 193.634489 
L 322.706392 201.33932 
L 327.84334 209.009034 
L 330.624295 213.401761 
L 333.273175 217.794489 
L 336.900318 224.38358 
L 339.615483 229.952652 
L 340.975947 233.169034 
L 342.607864 237.561761 
L 343.272715 239.758125 
L 343.272715 239.758125 
" style="fill:none;stroke:#453882;stroke-width:1.5;"/>
   </g>
   <g id="LineCollection_18">
    <path clip-path="url(#pb9b094b09f)" d="M 248.102014 239.758125 
L 234.779119 229.890034 
L 217.870028 216.968908 
L 200.960938 203.617477 
L 183.316509 189.241761 
L 170.182065 178.259943 
L 154.80815 165.081761 
L 143.470028 155.159564 
L 125.160131 138.725398 
L 113.033665 127.58288 
L 94.60339 110.17267 
L 83.260475 99.190852 
L 72.451847 88.514271 
L 58.924574 74.83058 
L 52.160938 67.842427 
L 52.160938 67.842427 
" style="fill:none;stroke:#355f8d;stroke-width:1.5;"/>
    <path clip-path="url(#pb9b094b09f)" d="M 169.68782 22.318125 
L 180.670028 31.630816 
L 197.769888 46.478125 
L 214.978921 61.85267 
L 229.347905 75.030852 
L 241.078121 86.01267 
L 251.68821 96.144813 
L 268.597301 112.688643 
L 285.67028 129.939943 
L 300.382704 145.314489 
L 309.179119 154.734602 
L 322.706392 169.640174 
L 336.233665 185.133337 
L 347.040693 198.027216 
L 356.524574 209.794044 
L 364.400596 219.990852 
L 370.921069 228.776307 
L 377.163058 237.561761 
L 378.659203 239.758125 
L 378.659203 239.758125 
" style="fill:none;stroke:#355f8d;stroke-width:1.5;"/>
   </g>
   <g id="LineCollection_19">
    <path clip-path="url(#pb9b094b09f)" d="M 211.22128 239.758125 
L 211.106392 239.666518 
L 208.495965 237.561761 
L 207.724574 236.943712 
L 205.776245 235.365398 
L 204.342756 234.211411 
L 203.061937 233.169034 
L 200.960938 231.469792 
L 200.352869 230.97267 
L 197.651165 228.776307 
L 197.579119 228.717817 
L 194.974263 226.579943 
L 194.197301 225.946267 
L 192.301798 224.38358 
L 190.815483 223.165867 
L 189.633629 222.187216 
L 187.433665 220.376782 
L 186.96962 219.990852 
L 184.317937 217.794489 
L 184.051847 217.574647 
L 181.684884 215.598125 
L 180.670028 214.755965 
L 179.055255 213.401761 
L 177.28821 211.929053 
L 176.428942 211.205398 
L 173.906392 209.094065 
L 173.805844 209.009034 
L 171.206696 206.81267 
L 170.524574 206.239396 
L 168.613366 204.616307 
L 167.142756 203.375159 
L 166.022573 202.419943 
L 163.760938 200.50329 
L 163.43424 200.22358 
L 160.862919 198.027216 
L 160.379119 197.615469 
L 158.303763 195.830852 
L 156.997301 194.714414 
L 155.746423 193.634489 
L 153.615483 191.806167 
L 153.190844 191.438125 
L 150.649418 189.241761 
L 150.233665 188.883483 
L 148.122417 187.045398 
L 146.851847 185.946127 
L 145.596565 184.849034 
L 143.470028 183.002014 
L 143.071829 182.65267 
L 140.562224 180.456307 
L 140.08821 180.042734 
L 138.065459 178.259943 
L 136.706392 177.0696 
L 135.569228 176.06358 
L 133.324574 174.090139 
L 133.073517 173.867216 
L 130.597528 171.670852 
L 129.942756 171.09251 
L 128.129175 169.474489 
L 126.560938 168.08413 
L 125.660791 167.278125 
L 123.192778 165.081761 
L 123.179119 165.069594 
L 120.751673 162.885398 
L 119.797301 162.032093 
L 118.31 160.689034 
L 116.415483 158.989006 
L 115.867773 158.49267 
L 113.436726 156.296307 
L 113.033665 155.932843 
L 111.021147 154.099943 
L 109.651847 152.860759 
L 108.604504 151.90358 
L 106.270028 149.783513 
L 106.186829 149.707216 
L 103.794236 147.510852 
L 102.88821 146.683884 
L 101.402572 145.314489 
L 99.506392 143.577778 
L 99.009392 143.118125 
L 96.629271 140.921761 
L 96.124574 140.457115 
L 94.261981 138.725398 
L 92.742756 137.321971 
L 91.892704 136.529034 
L 89.526255 134.33267 
L 89.360938 134.179143 
L 87.182735 132.136307 
L 85.979119 131.014787 
L 84.836767 129.939943 
L 82.597301 127.846353 
L 82.488421 127.74358 
L 80.164838 125.547216 
L 79.215483 124.654872 
L 77.841585 123.350852 
L 75.833665 121.457402 
L 75.51552 121.154489 
L 73.208293 118.958125 
L 72.451847 118.240827 
L 70.907163 116.761761 
L 69.070028 115.014163 
L 68.602795 114.565398 
L 66.313103 112.369034 
L 65.68821 111.771202 
L 64.033503 110.17267 
L 62.306392 108.515193 
L 61.750252 107.976307 
L 59.479274 105.779943 
L 58.924574 105.244494 
L 57.22061 103.58358 
L 55.542756 101.958994 
L 54.957893 101.387216 
L 52.706807 99.190852 
L 52.160938 98.659147 
" style="fill:none;stroke:#1e9b8a;stroke-width:1.5;"/>
    <path clip-path="url(#pb9b094b09f)" d="M 201.949899 22.318125 
L 214.48821 33.366973 
L 234.779119 51.624123 
L 255.398195 70.638125 
L 271.979119 86.284906 
L 292.270028 105.891577 
L 312.064358 125.547216 
L 322.892583 136.529034 
L 339.851208 154.099943 
L 356.524574 171.851865 
L 373.433665 190.41235 
L 386.960938 205.717608 
L 386.960938 205.717608 
" style="fill:none;stroke:#1e9b8a;stroke-width:1.5;"/>
   </g>
   <g id="LineCollection_20">
    <path clip-path="url(#pb9b094b09f)" d="M 165.890976 239.758125 
L 163.760938 237.95514 
L 163.299714 237.561761 
L 160.7179 235.365398 
L 160.379119 235.077738 
L 158.148333 233.169034 
L 156.997301 232.188719 
L 155.580273 230.97267 
L 153.615483 229.294271 
L 153.013684 228.776307 
L 150.453447 226.579943 
L 150.233665 226.391595 
L 147.908228 224.38358 
L 146.851847 223.475597 
L 145.364139 222.187216 
L 143.470028 220.554408 
L 142.821153 219.990852 
L 140.283582 217.794489 
L 140.08821 217.625518 
L 137.761636 215.598125 
L 136.706392 214.682822 
L 135.240465 213.401761 
L 133.324574 211.735173 
L 132.720051 211.205398 
L 130.206179 209.009034 
L 129.942756 208.779121 
L 127.706472 206.81267 
L 126.560938 205.810014 
L 125.207206 204.616307 
L 123.179119 202.836189 
L 122.70837 202.419943 
L 120.219178 200.22358 
L 119.797301 199.852016 
L 117.740715 198.027216 
L 116.415483 196.856788 
L 115.262376 195.830852 
L 113.033665 193.857074 
L 112.78416 193.634489 
L 110.320579 191.438125 
L 109.651847 190.843816 
L 107.862399 189.241761 
L 106.270028 187.822758 
L 105.404048 187.045398 
L 102.946801 184.849034 
L 102.88821 184.796636 
L 100.50844 182.65267 
L 99.506392 181.754126 
L 98.069619 180.456307 
L 96.124574 178.707534 
L 95.630348 178.259943 
L 93.200501 176.06358 
L 92.742756 175.650528 
L 90.780875 173.867216 
L 89.360938 172.582552 
L 88.360522 171.670852 
L 85.979119 169.510725 
L 85.939458 169.474489 
L 83.53782 167.278125 
L 82.597301 166.421835 
L 81.136055 165.081761 
L 79.215483 163.328697 
L 78.733312 162.885398 
L 76.340454 160.689034 
L 75.833665 160.224699 
L 73.956948 158.49267 
L 72.451847 157.110152 
L 71.572201 156.296307 
L 69.18878 154.099943 
L 69.070028 153.990444 
L 66.823202 151.90358 
L 65.68821 150.854391 
L 64.456126 149.707216 
L 62.306392 147.715075 
L 62.087584 147.510852 
L 59.734821 145.314489 
L 58.924574 144.560697 
L 57.385091 143.118125 
L 55.542756 141.399964 
L 55.033648 140.921761 
L 52.691806 138.725398 
L 52.160938 138.228335 
" style="fill:none;stroke:#fde725;stroke-width:1.5;"/>
    <path clip-path="url(#pb9b094b09f)" d="M 244.477046 22.318125 
L 244.924574 22.719872 
L 246.909093 24.514489 
L 248.306392 25.772184 
L 249.34169 26.710852 
L 251.68821 28.828483 
L 251.774825 28.907216 
L 254.189596 31.10358 
L 255.070028 31.90104 
L 256.603282 33.299943 
L 258.451847 34.978651 
L 259.017777 35.496307 
L 261.424282 37.69267 
L 261.833665 38.065824 
L 263.819388 39.889034 
L 265.215483 41.164846 
L 266.215572 42.085398 
L 268.597301 44.26745 
L 268.61281 44.281761 
L 270.990009 46.478125 
L 271.979119 47.387757 
L 273.368207 48.674489 
L 275.360938 50.511693 
L 275.747717 50.870852 
L 278.11514 53.067216 
L 278.742756 53.648089 
L 280.475681 55.26358 
L 282.124574 56.793451 
L 282.837785 57.459943 
L 285.194781 59.656307 
L 285.506392 59.946565 
L 287.53799 61.85267 
L 288.88821 63.113446 
L 289.883011 64.049034 
L 292.228929 66.245398 
L 292.270028 66.283928 
L 294.555134 68.441761 
L 295.651847 69.47242 
L 296.883394 70.638125 
L 299.033665 72.663714 
L 299.213664 72.834489 
L 301.527111 75.030852 
L 302.415483 75.871133 
L 303.838931 77.227216 
L 305.797301 79.083936 
L 306.152997 79.42358 
L 308.453917 81.619943 
L 309.179119 82.310364 
L 310.749622 83.816307 
L 312.560938 85.544761 
L 313.047799 86.01267 
L 315.335552 88.209034 
L 315.942756 88.790914 
L 317.615463 90.405398 
L 319.324574 92.046986 
L 319.89807 92.601761 
L 322.172013 94.798125 
L 322.706392 95.313604 
L 324.436452 96.994489 
L 326.08821 98.59143 
L 326.703808 99.190852 
L 328.963299 101.387216 
L 329.470028 101.879278 
L 331.212589 103.58358 
L 332.851847 105.178936 
L 333.46501 105.779943 
L 335.709407 107.976307 
L 336.233665 108.488802 
L 337.94387 110.17267 
L 339.615483 111.810365 
L 340.181675 112.369034 
L 342.410335 114.565398 
L 342.997301 115.143066 
L 344.630294 116.761761 
L 346.379119 118.486606 
L 346.853801 118.958125 
L 349.066081 121.154489 
L 349.760938 121.842984 
L 351.271859 123.350852 
L 353.142756 125.208568 
L 353.481386 125.547216 
L 355.676644 127.74358 
L 356.524574 128.589494 
L 357.868563 129.939943 
L 359.906392 131.977187 
L 360.064428 132.136307 
L 362.242022 134.33267 
L 363.28821 135.383563 
L 364.420404 136.529034 
L 366.601463 138.725398 
L 366.670028 138.794607 
L 368.762211 140.921761 
L 370.051847 142.22618 
L 370.927379 143.118125 
L 373.089541 145.314489 
L 373.433665 145.664284 
L 375.237211 147.510852 
L 376.815483 149.118366 
L 377.389488 149.707216 
L 379.532101 151.90358 
L 380.197301 152.584525 
L 381.667019 154.099943 
L 383.579119 156.061169 
L 383.806728 156.296307 
L 385.929139 158.49267 
L 386.960938 159.556414 
" style="fill:none;stroke:#fde725;stroke-width:1.5;"/>
   </g>
   <g id="line2d_13">
    <defs>
     <path d="M 0 3 
C 0.795609 3 1.55874 2.683901 2.12132 2.12132 
C 2.683901 1.55874 3 0.795609 3 0 
C 3 -0.795609 2.683901 -1.55874 2.12132 -2.12132 
C 1.55874 -2.683901 0.795609 -3 0 -3 
C -0.795609 -3 -1.55874 -2.683901 -2.12132 -2.12132 
C -2.683901 -1.55874 -3 -0.795609 -3 0 
C -3 0.795609 -2.683901 1.55874 -2.12132 2.12132 
C -1.55874 2.683901 -0.795609 3 0 3 
z
" id="mcd59ecbfdb" style="stroke:#1f77b4;"/>
    </defs>
    <g clip-path="url(#pb9b094b09f)">
     <use style="fill:#1f77b4;stroke:#1f77b4;" x="253.040938" xlink:href="#mcd59ecbfdb" y="163.654125"/>
    </g>
   </g>
   <g id="line2d_14">
    <defs>
     <path d="M 0 3 
C 0.795609 3 1.55874 2.683901 2.12132 2.12132 
C 2.683901 1.55874 3 0.795609 3 0 
C 3 -0.795609 2.683901 -1.55874 2.12132 -2.12132 
C 1.55874 -2.683901 0.795609 -3 0 -3 
C -0.795609 -3 -1.55874 -2.683901 -2.12132 -2.12132 
C -2.683901 -1.55874 -3 -0.795609 -3 0 
C -3 0.795609 -2.683901 1.55874 -2.12132 2.12132 
C -1.55874 2.683901 -0.795609 3 0 3 
z
" id="m8956027391" style="stroke:#ff7f0e;"/>
    </defs>
    <g clip-path="url(#pb9b094b09f)">
     <use style="fill:#ff7f0e;stroke:#ff7f0e;" x="169.340938" xlink:href="#m8956027391" y="117.991725"/>
    </g>
   </g>
   <g id="line2d_15">
    <defs>
     <path d="M 0 3 
C 0.795609 3 1.55874 2.683901 2.12132 2.12132 
C 2.683901 1.55874 3 0.795609 3 0 
C 3 -0.795609 2.683901 -1.55874 2.12132 -2.12132 
C 1.55874 -2.683901 0.795609 -3 0 -3 
C -0.795609 -3 -1.55874 -2.683901 -2.12132 -2.12132 
C -2.683901 -1.55874 -3 -0.795609 -3 0 
C -3 0.795609 -2.683901 1.55874 -2.12132 2.12132 
C -1.55874 2.683901 -0.795609 3 0 3 
z
" id="m637698c692" style="stroke:#2ca02c;"/>
    </defs>
    <g clip-path="url(#pb9b094b09f)">
     <use style="fill:#2ca02c;stroke:#2ca02c;" x="203.936937" xlink:href="#m637698c692" y="131.038125"/>
    </g>
   </g>
   <g id="patch_3">
    <path d="M 52.160938 239.758125 
L 52.160938 22.318125 
" style="fill:none;stroke:#000000;stroke-linecap:square;stroke-linejoin:miter;stroke-width:0.8;"/>
   </g>
   <g id="patch_4">
    <path d="M 386.960938 239.758125 
L 386.960938 22.318125 
" style="fill:none;stroke:#000000;stroke-linecap:square;stroke-linejoin:miter;stroke-width:0.8;"/>
   </g>
   <g id="patch_5">
    <path d="M 52.160938 239.758125 
L 386.960938 239.758125 
" style="fill:none;stroke:#000000;stroke-linecap:square;stroke-linejoin:miter;stroke-width:0.8;"/>
   </g>
   <g id="patch_6">
    <path d="M 52.160938 22.318125 
L 386.960938 22.318125 
" style="fill:none;stroke:#000000;stroke-linecap:square;stroke-linejoin:miter;stroke-width:0.8;"/>
   </g>
   <g id="text_15">
    <!-- Cost function -->
    <g transform="translate(179.80625 16.318125)scale(0.12 -0.12)">
     <defs>
      <path d="M 4122 4306 
L 4122 3641 
Q 3803 3938 3442 4084 
Q 3081 4231 2675 4231 
Q 1875 4231 1450 3742 
Q 1025 3253 1025 2328 
Q 1025 1406 1450 917 
Q 1875 428 2675 428 
Q 3081 428 3442 575 
Q 3803 722 4122 1019 
L 4122 359 
Q 3791 134 3420 21 
Q 3050 -91 2638 -91 
Q 1578 -91 968 557 
Q 359 1206 359 2328 
Q 359 3453 968 4101 
Q 1578 4750 2638 4750 
Q 3056 4750 3426 4639 
Q 3797 4528 4122 4306 
z
" id="DejaVuSans-43" transform="scale(0.015625)"/>
      <path d="M 1959 3097 
Q 1497 3097 1228 2736 
Q 959 2375 959 1747 
Q 959 1119 1226 758 
Q 1494 397 1959 397 
Q 2419 397 2687 759 
Q 2956 1122 2956 1747 
Q 2956 2369 2687 2733 
Q 2419 3097 1959 3097 
z
M 1959 3584 
Q 2709 3584 3137 3096 
Q 3566 2609 3566 1747 
Q 3566 888 3137 398 
Q 2709 -91 1959 -91 
Q 1206 -91 779 398 
Q 353 888 353 1747 
Q 353 2609 779 3096 
Q 1206 3584 1959 3584 
z
" id="DejaVuSans-6f" transform="scale(0.015625)"/>
      <path d="M 2834 3397 
L 2834 2853 
Q 2591 2978 2328 3040 
Q 2066 3103 1784 3103 
Q 1356 3103 1142 2972 
Q 928 2841 928 2578 
Q 928 2378 1081 2264 
Q 1234 2150 1697 2047 
L 1894 2003 
Q 2506 1872 2764 1633 
Q 3022 1394 3022 966 
Q 3022 478 2636 193 
Q 2250 -91 1575 -91 
Q 1294 -91 989 -36 
Q 684 19 347 128 
L 347 722 
Q 666 556 975 473 
Q 1284 391 1588 391 
Q 1994 391 2212 530 
Q 2431 669 2431 922 
Q 2431 1156 2273 1281 
Q 2116 1406 1581 1522 
L 1381 1569 
Q 847 1681 609 1914 
Q 372 2147 372 2553 
Q 372 3047 722 3315 
Q 1072 3584 1716 3584 
Q 2034 3584 2315 3537 
Q 2597 3491 2834 3397 
z
" id="DejaVuSans-73" transform="scale(0.015625)"/>
      <path d="M 1172 4494 
L 1172 3500 
L 2356 3500 
L 2356 3053 
L 1172 3053 
L 1172 1153 
Q 1172 725 1289 603 
Q 1406 481 1766 481 
L 2356 481 
L 2356 0 
L 1766 0 
Q 1100 0 847 248 
Q 594 497 594 1153 
L 594 3053 
L 172 3053 
L 172 3500 
L 594 3500 
L 594 4494 
L 1172 4494 
z
" id="DejaVuSans-74" transform="scale(0.015625)"/>
      <path id="DejaVuSans-20" transform="scale(0.015625)"/>
      <path d="M 2375 4863 
L 2375 4384 
L 1825 4384 
Q 1516 4384 1395 4259 
Q 1275 4134 1275 3809 
L 1275 3500 
L 2222 3500 
L 2222 3053 
L 1275 3053 
L 1275 0 
L 697 0 
L 697 3053 
L 147 3053 
L 147 3500 
L 697 3500 
L 697 3744 
Q 697 4328 969 4595 
Q 1241 4863 1831 4863 
L 2375 4863 
z
" id="DejaVuSans-66" transform="scale(0.015625)"/>
      <path d="M 544 1381 
L 544 3500 
L 1119 3500 
L 1119 1403 
Q 1119 906 1312 657 
Q 1506 409 1894 409 
Q 2359 409 2629 706 
Q 2900 1003 2900 1516 
L 2900 3500 
L 3475 3500 
L 3475 0 
L 2900 0 
L 2900 538 
Q 2691 219 2414 64 
Q 2138 -91 1772 -91 
Q 1169 -91 856 284 
Q 544 659 544 1381 
z
M 1991 3584 
L 1991 3584 
z
" id="DejaVuSans-75" transform="scale(0.015625)"/>
      <path d="M 3513 2113 
L 3513 0 
L 2938 0 
L 2938 2094 
Q 2938 2591 2744 2837 
Q 2550 3084 2163 3084 
Q 1697 3084 1428 2787 
Q 1159 2491 1159 1978 
L 1159 0 
L 581 0 
L 581 3500 
L 1159 3500 
L 1159 2956 
Q 1366 3272 1645 3428 
Q 1925 3584 2291 3584 
Q 2894 3584 3203 3211 
Q 3513 2838 3513 2113 
z
" id="DejaVuSans-6e" transform="scale(0.015625)"/>
      <path d="M 3122 3366 
L 3122 2828 
Q 2878 2963 2633 3030 
Q 2388 3097 2138 3097 
Q 1578 3097 1268 2742 
Q 959 2388 959 1747 
Q 959 1106 1268 751 
Q 1578 397 2138 397 
Q 2388 397 2633 464 
Q 2878 531 3122 666 
L 3122 134 
Q 2881 22 2623 -34 
Q 2366 -91 2075 -91 
Q 1284 -91 818 406 
Q 353 903 353 1747 
Q 353 2603 823 3093 
Q 1294 3584 2113 3584 
Q 2378 3584 2631 3529 
Q 2884 3475 3122 3366 
z
" id="DejaVuSans-63" transform="scale(0.015625)"/>
      <path d="M 603 3500 
L 1178 3500 
L 1178 0 
L 603 0 
L 603 3500 
z
M 603 4863 
L 1178 4863 
L 1178 4134 
L 603 4134 
L 603 4863 
z
" id="DejaVuSans-69" transform="scale(0.015625)"/>
     </defs>
     <use xlink:href="#DejaVuSans-43"/>
     <use x="69.824219" xlink:href="#DejaVuSans-6f"/>
     <use x="131.005859" xlink:href="#DejaVuSans-73"/>
     <use x="183.105469" xlink:href="#DejaVuSans-74"/>
     <use x="222.314453" xlink:href="#DejaVuSans-20"/>
     <use x="254.101562" xlink:href="#DejaVuSans-66"/>
     <use x="289.306641" xlink:href="#DejaVuSans-75"/>
     <use x="352.685547" xlink:href="#DejaVuSans-6e"/>
     <use x="416.064453" xlink:href="#DejaVuSans-63"/>
     <use x="471.044922" xlink:href="#DejaVuSans-74"/>
     <use x="510.253906" xlink:href="#DejaVuSans-69"/>
     <use x="538.037109" xlink:href="#DejaVuSans-6f"/>
     <use x="599.21875" xlink:href="#DejaVuSans-6e"/>
    </g>
   </g>
   <g id="legend_1">
    <g id="patch_7">
     <path d="M 393.960938 75.613437 
L 592.360937 75.613437 
Q 594.360937 75.613437 594.360937 73.613437 
L 594.360937 29.318125 
Q 594.360937 27.318125 592.360937 27.318125 
L 393.960938 27.318125 
Q 391.960938 27.318125 391.960938 29.318125 
L 391.960938 73.613437 
Q 391.960938 75.613437 393.960938 75.613437 
z
" style="fill:#ffffff;opacity:0.8;stroke:#cccccc;stroke-linejoin:miter;"/>
    </g>
    <g id="line2d_16"/>
    <g id="line2d_17">
     <g>
      <use style="fill:#1f77b4;stroke:#1f77b4;" x="405.960938" xlink:href="#mcd59ecbfdb" y="35.416562"/>
     </g>
    </g>
    <g id="text_16">
     <!-- $\theta_0=50; \quad \theta_1=0.06; \quad J(\theta_0, \theta_1)=39795$ -->
     <g transform="translate(423.960938 38.916562)scale(0.1 -0.1)">
      <defs>
       <path d="M 481 850 
Q 428 850 393 890 
Q 359 931 359 978 
Q 359 1031 393 1068 
Q 428 1106 481 1106 
L 4500 1106 
Q 4547 1106 4581 1068 
Q 4616 1031 4616 978 
Q 4616 931 4581 890 
Q 4547 850 4500 850 
L 481 850 
z
M 481 2094 
Q 428 2094 393 2131 
Q 359 2169 359 2222 
Q 359 2269 393 2309 
Q 428 2350 481 2350 
L 4500 2350 
Q 4547 2350 4581 2309 
Q 4616 2269 4616 2222 
Q 4616 2169 4581 2131 
Q 4547 2094 4500 2094 
L 481 2094 
z
" id="Cmr10-3d" transform="scale(0.015625)"/>
       <path d="M 556 728 
Q 622 541 758 387 
Q 894 234 1080 148 
Q 1266 63 1466 63 
Q 1928 63 2103 422 
Q 2278 781 2278 1294 
Q 2278 1516 2270 1667 
Q 2263 1819 2228 1959 
Q 2169 2184 2020 2353 
Q 1872 2522 1656 2522 
Q 1441 2522 1286 2456 
Q 1131 2391 1034 2303 
Q 938 2216 863 2119 
Q 788 2022 769 2016 
L 697 2016 
Q 681 2016 657 2036 
Q 634 2056 634 2075 
L 634 4213 
Q 634 4228 654 4245 
Q 675 4263 697 4263 
L 716 4263 
Q 1147 4056 1631 4056 
Q 2106 4056 2547 4263 
L 2566 4263 
Q 2588 4263 2606 4247 
Q 2625 4231 2625 4213 
L 2625 4153 
Q 2625 4122 2613 4122 
Q 2394 3831 2064 3668 
Q 1734 3506 1381 3506 
Q 1125 3506 856 3578 
L 856 2369 
Q 1069 2541 1236 2614 
Q 1403 2688 1663 2688 
Q 2016 2688 2295 2484 
Q 2575 2281 2725 1954 
Q 2875 1628 2875 1288 
Q 2875 903 2686 575 
Q 2497 247 2172 53 
Q 1847 -141 1466 -141 
Q 1150 -141 886 21 
Q 622 184 470 459 
Q 319 734 319 1044 
Q 319 1188 412 1278 
Q 506 1369 647 1369 
Q 788 1369 883 1276 
Q 978 1184 978 1044 
Q 978 906 883 811 
Q 788 716 647 716 
Q 625 716 597 720 
Q 569 725 556 728 
z
" id="Cmr10-35" transform="scale(0.015625)"/>
       <path d="M 634 -1153 
Q 634 -1125 647 -1113 
Q 1094 -628 1094 25 
L 1094 56 
Q 1000 0 891 0 
Q 744 0 641 103 
Q 538 206 538 353 
Q 538 503 641 603 
Q 744 703 891 703 
Q 1113 703 1186 498 
Q 1259 294 1259 25 
Q 1259 -200 1204 -419 
Q 1150 -638 1039 -847 
Q 928 -1056 775 -1222 
Q 756 -1241 728 -1241 
Q 697 -1241 665 -1212 
Q 634 -1184 634 -1153 
z
M 538 2406 
Q 538 2497 584 2578 
Q 631 2659 714 2709 
Q 797 2759 891 2759 
Q 981 2759 1064 2709 
Q 1147 2659 1194 2578 
Q 1241 2497 1241 2406 
Q 1241 2263 1139 2158 
Q 1038 2053 891 2053 
Q 747 2053 642 2158 
Q 538 2263 538 2406 
z
" id="Cmr10-3b" transform="scale(0.015625)"/>
       <path d="M 538 353 
Q 538 497 644 600 
Q 750 703 891 703 
Q 978 703 1062 656 
Q 1147 609 1194 525 
Q 1241 441 1241 353 
Q 1241 213 1137 106 
Q 1034 0 891 0 
Q 750 0 644 106 
Q 538 213 538 353 
z
" id="Cmmi10-3a" transform="scale(0.015625)"/>
       <path d="M 1600 -141 
Q 1203 -141 937 70 
Q 672 281 526 617 
Q 381 953 325 1322 
Q 269 1691 269 2069 
Q 269 2575 466 3084 
Q 663 3594 1045 3928 
Q 1428 4263 1953 4263 
Q 2172 4263 2361 4180 
Q 2550 4097 2658 3936 
Q 2766 3775 2766 3547 
Q 2766 3416 2677 3327 
Q 2588 3238 2456 3238 
Q 2331 3238 2240 3328 
Q 2150 3419 2150 3547 
Q 2150 3672 2240 3762 
Q 2331 3853 2456 3853 
L 2491 3853 
Q 2409 3969 2261 4023 
Q 2113 4078 1953 4078 
Q 1759 4078 1595 3993 
Q 1431 3909 1300 3765 
Q 1169 3622 1081 3448 
Q 994 3275 945 3053 
Q 897 2831 884 2637 
Q 872 2444 872 2150 
Q 984 2413 1190 2580 
Q 1397 2747 1656 2747 
Q 1941 2747 2175 2631 
Q 2409 2516 2578 2311 
Q 2747 2106 2836 1843 
Q 2925 1581 2925 1313 
Q 2925 938 2758 598 
Q 2591 259 2287 59 
Q 1984 -141 1600 -141 
z
M 1600 63 
Q 1847 63 1997 175 
Q 2147 288 2217 473 
Q 2288 659 2305 848 
Q 2322 1038 2322 1313 
Q 2322 1675 2287 1931 
Q 2253 2188 2100 2383 
Q 1947 2578 1631 2578 
Q 1372 2578 1205 2403 
Q 1038 2228 961 1961 
Q 884 1694 884 1447 
Q 884 1363 891 1319 
Q 891 1309 889 1303 
Q 888 1297 884 1288 
Q 884 1013 940 731 
Q 997 450 1156 256 
Q 1316 63 1600 63 
z
" id="Cmr10-36" transform="scale(0.015625)"/>
       <path d="M 697 384 
Q 759 206 928 115 
Q 1097 25 1294 25 
Q 1494 25 1680 164 
Q 1866 303 1995 512 
Q 2125 722 2175 928 
L 2931 3956 
Q 2938 3981 2939 3993 
Q 2941 4006 2944 4019 
Q 2944 4088 2894 4103 
Q 2725 4147 2209 4147 
Q 2144 4147 2144 4231 
Q 2156 4281 2164 4309 
Q 2172 4338 2192 4355 
Q 2213 4372 2253 4372 
L 3988 4372 
Q 4050 4372 4050 4288 
Q 4025 4147 3969 4147 
Q 3744 4147 3628 4112 
Q 3513 4078 3469 3928 
L 2713 903 
Q 2641 606 2420 367 
Q 2200 128 1897 -6 
Q 1594 -141 1288 -141 
Q 950 -141 695 46 
Q 441 234 441 556 
Q 441 769 556 922 
Q 672 1075 884 1075 
Q 1006 1075 1089 1000 
Q 1172 925 1172 806 
Q 1172 634 1044 506 
Q 916 378 744 378 
Q 709 378 697 384 
z
" id="Cmmi10-4a" transform="scale(0.015625)"/>
       <path d="M 1984 -1588 
Q 1628 -1306 1370 -942 
Q 1113 -578 948 -165 
Q 784 247 703 697 
Q 622 1147 622 1600 
Q 622 2059 703 2509 
Q 784 2959 951 3375 
Q 1119 3791 1378 4153 
Q 1638 4516 1984 4788 
Q 1984 4800 2016 4800 
L 2075 4800 
Q 2094 4800 2109 4783 
Q 2125 4766 2125 4744 
Q 2125 4716 2113 4703 
Q 1800 4397 1592 4047 
Q 1384 3697 1257 3301 
Q 1131 2906 1075 2482 
Q 1019 2059 1019 1600 
Q 1019 -434 2106 -1491 
Q 2125 -1509 2125 -1544 
Q 2125 -1559 2108 -1579 
Q 2091 -1600 2075 -1600 
L 2016 -1600 
Q 1984 -1600 1984 -1588 
z
" id="Cmr10-28" transform="scale(0.015625)"/>
       <path d="M 634 -1153 
Q 634 -1125 659 -1100 
Q 891 -878 1019 -587 
Q 1147 -297 1147 25 
L 1147 103 
Q 1044 0 891 0 
Q 744 0 641 103 
Q 538 206 538 353 
Q 538 503 641 603 
Q 744 703 891 703 
Q 1119 703 1216 492 
Q 1313 281 1313 25 
Q 1313 -331 1170 -651 
Q 1028 -972 769 -1228 
Q 744 -1241 728 -1241 
Q 697 -1241 665 -1212 
Q 634 -1184 634 -1153 
z
" id="Cmmi10-3b" transform="scale(0.015625)"/>
       <path d="M 416 -1600 
Q 359 -1600 359 -1544 
Q 359 -1516 372 -1503 
Q 1466 -434 1466 1600 
Q 1466 3634 384 4691 
Q 359 4706 359 4744 
Q 359 4766 376 4783 
Q 394 4800 416 4800 
L 475 4800 
Q 494 4800 506 4788 
Q 966 4425 1272 3906 
Q 1578 3388 1720 2800 
Q 1863 2213 1863 1600 
Q 1863 1147 1786 708 
Q 1709 269 1542 -157 
Q 1375 -584 1119 -945 
Q 863 -1306 506 -1588 
Q 494 -1600 475 -1600 
L 416 -1600 
z
" id="Cmr10-29" transform="scale(0.015625)"/>
       <path d="M 609 494 
Q 759 275 1012 169 
Q 1266 63 1556 63 
Q 1928 63 2084 380 
Q 2241 697 2241 1100 
Q 2241 1281 2208 1462 
Q 2175 1644 2097 1800 
Q 2019 1956 1883 2050 
Q 1747 2144 1550 2144 
L 1125 2144 
Q 1069 2144 1069 2203 
L 1069 2259 
Q 1069 2309 1125 2309 
L 1478 2338 
Q 1703 2338 1851 2506 
Q 2000 2675 2069 2917 
Q 2138 3159 2138 3378 
Q 2138 3684 1994 3881 
Q 1850 4078 1556 4078 
Q 1313 4078 1091 3986 
Q 869 3894 738 3706 
Q 750 3709 759 3711 
Q 769 3713 781 3713 
Q 925 3713 1022 3613 
Q 1119 3513 1119 3372 
Q 1119 3234 1022 3134 
Q 925 3034 781 3034 
Q 641 3034 541 3134 
Q 441 3234 441 3372 
Q 441 3647 606 3850 
Q 772 4053 1033 4158 
Q 1294 4263 1556 4263 
Q 1750 4263 1965 4205 
Q 2181 4147 2356 4039 
Q 2531 3931 2642 3762 
Q 2753 3594 2753 3378 
Q 2753 3109 2633 2881 
Q 2513 2653 2303 2487 
Q 2094 2322 1844 2241 
Q 2122 2188 2372 2031 
Q 2622 1875 2773 1631 
Q 2925 1388 2925 1106 
Q 2925 753 2731 467 
Q 2538 181 2222 20 
Q 1906 -141 1556 -141 
Q 1256 -141 954 -26 
Q 653 88 461 316 
Q 269 544 269 863 
Q 269 1022 375 1128 
Q 481 1234 641 1234 
Q 744 1234 830 1186 
Q 916 1138 964 1050 
Q 1013 963 1013 863 
Q 1013 706 903 600 
Q 794 494 641 494 
L 609 494 
z
" id="Cmr10-33" transform="scale(0.015625)"/>
       <path d="M 722 269 
Q 897 63 1331 63 
Q 1575 63 1786 228 
Q 1997 394 2113 634 
Q 2247 906 2284 1214 
Q 2322 1522 2322 1978 
Q 2213 1719 2008 1553 
Q 1803 1388 1538 1388 
Q 1166 1388 873 1589 
Q 581 1791 425 2120 
Q 269 2450 269 2822 
Q 269 3206 444 3539 
Q 619 3872 928 4067 
Q 1238 4263 1631 4263 
Q 2019 4263 2280 4052 
Q 2541 3841 2678 3508 
Q 2816 3175 2870 2803 
Q 2925 2431 2925 2069 
Q 2925 1575 2744 1061 
Q 2563 547 2202 203 
Q 1841 -141 1331 -141 
Q 953 -141 690 37 
Q 428 216 428 575 
Q 428 706 517 795 
Q 606 884 738 884 
Q 866 884 955 795 
Q 1044 706 1044 575 
Q 1044 450 953 359 
Q 863 269 738 269 
L 722 269 
z
M 1563 1556 
Q 1825 1556 1992 1732 
Q 2159 1909 2234 2171 
Q 2309 2434 2309 2694 
L 2309 2816 
L 2309 2841 
Q 2309 3322 2168 3700 
Q 2028 4078 1631 4078 
Q 1378 4078 1220 3967 
Q 1063 3856 988 3672 
Q 913 3488 892 3278 
Q 872 3069 872 2822 
Q 872 2459 906 2203 
Q 941 1947 1094 1751 
Q 1247 1556 1563 1556 
z
" id="Cmr10-39" transform="scale(0.015625)"/>
       <path d="M 1113 166 
Q 1113 522 1175 862 
Q 1238 1203 1358 1536 
Q 1478 1869 1648 2189 
Q 1819 2509 2022 2791 
L 2606 3603 
L 1875 3603 
Q 738 3603 703 3572 
Q 619 3469 544 2981 
L 359 2981 
L 569 4325 
L 756 4325 
L 756 4306 
Q 756 4191 1147 4156 
Q 1538 4122 1913 4122 
L 3103 4122 
L 3103 3956 
Q 3103 3950 3101 3947 
Q 3100 3944 3097 3938 
L 2216 2700 
Q 1891 2219 1809 1631 
Q 1728 1044 1728 166 
Q 1728 41 1637 -50 
Q 1547 -141 1422 -141 
Q 1294 -141 1203 -50 
Q 1113 41 1113 166 
z
" id="Cmr10-37" transform="scale(0.015625)"/>
      </defs>
      <use xlink:href="#Cmmi10-b5"/>
      <use transform="translate(46.923828 -17.00625)scale(0.7)" xlink:href="#Cmr10-30"/>
      <use transform="translate(105.859766 0)" xlink:href="#Cmr10-3d"/>
      <use transform="translate(201.103906 0)" xlink:href="#Cmr10-35"/>
      <use transform="translate(251.103906 0)" xlink:href="#Cmr10-30"/>
      <use transform="translate(301.103906 0)" xlink:href="#Cmr10-3b"/>
      <use transform="translate(434.141016 0)" xlink:href="#Cmmi10-b5"/>
      <use transform="translate(481.064844 -17.00625)scale(0.7)" xlink:href="#Cmr10-31"/>
      <use transform="translate(540.000781 0)" xlink:href="#Cmr10-3d"/>
      <use transform="translate(635.244922 0)" xlink:href="#Cmr10-30"/>
      <use transform="translate(685.244922 0)" xlink:href="#Cmmi10-3a"/>
      <use transform="translate(712.930469 0)" xlink:href="#Cmr10-30"/>
      <use transform="translate(762.930469 0)" xlink:href="#Cmr10-36"/>
      <use transform="translate(812.930469 0)" xlink:href="#Cmr10-3b"/>
      <use transform="translate(945.967578 0)" xlink:href="#Cmmi10-4a"/>
      <use transform="translate(1001.3875 0)" xlink:href="#Cmr10-28"/>
      <use transform="translate(1040.205859 0)" xlink:href="#Cmmi10-b5"/>
      <use transform="translate(1087.129688 -17.00625)scale(0.7)" xlink:href="#Cmr10-30"/>
      <use transform="translate(1128.507031 0)" xlink:href="#Cmmi10-3b"/>
      <use transform="translate(1173.751172 0)" xlink:href="#Cmmi10-b5"/>
      <use transform="translate(1220.675 -17.00625)scale(0.7)" xlink:href="#Cmr10-31"/>
      <use transform="translate(1262.052344 0)" xlink:href="#Cmr10-29"/>
      <use transform="translate(1318.429297 0)" xlink:href="#Cmr10-3d"/>
      <use transform="translate(1413.673437 0)" xlink:href="#Cmr10-33"/>
      <use transform="translate(1463.673437 0)" xlink:href="#Cmr10-39"/>
      <use transform="translate(1513.673437 0)" xlink:href="#Cmr10-37"/>
      <use transform="translate(1563.673437 0)" xlink:href="#Cmr10-39"/>
      <use transform="translate(1613.673437 0)" xlink:href="#Cmr10-35"/>
     </g>
    </g>
    <g id="line2d_18"/>
    <g id="line2d_19">
     <g>
      <use style="fill:#ff7f0e;stroke:#ff7f0e;" x="405.960938" xlink:href="#m8956027391" y="50.515"/>
     </g>
    </g>
    <g id="text_17">
     <!-- $\theta_0=50; \quad \theta_1=0.06; \quad J(\theta_0, \theta_1)=18287$ -->
     <g transform="translate(423.960938 54.015)scale(0.1 -0.1)">
      <defs>
       <path d="M 269 972 
Q 269 1356 522 1651 
Q 775 1947 1172 2144 
L 934 2297 
Q 716 2441 578 2680 
Q 441 2919 441 3181 
Q 441 3488 602 3734 
Q 763 3981 1030 4122 
Q 1297 4263 1600 4263 
Q 1884 4263 2148 4147 
Q 2413 4031 2583 3815 
Q 2753 3600 2753 3303 
Q 2753 3088 2651 2903 
Q 2550 2719 2373 2572 
Q 2197 2425 1997 2322 
L 2363 2088 
Q 2616 1922 2770 1653 
Q 2925 1384 2925 1088 
Q 2925 741 2739 456 
Q 2553 172 2247 15 
Q 1941 -141 1600 -141 
Q 1269 -141 961 -6 
Q 653 128 461 383 
Q 269 638 269 972 
z
M 616 972 
Q 616 719 755 509 
Q 894 300 1122 181 
Q 1350 63 1600 63 
Q 1972 63 2275 280 
Q 2578 497 2578 856 
Q 2578 978 2529 1098 
Q 2481 1219 2395 1317 
Q 2309 1416 2203 1478 
L 1344 2034 
Q 1144 1928 976 1765 
Q 809 1603 712 1400 
Q 616 1197 616 972 
z
M 1056 2925 
L 1831 2425 
Q 2100 2581 2272 2803 
Q 2444 3025 2444 3303 
Q 2444 3519 2323 3698 
Q 2203 3878 2009 3978 
Q 1816 4078 1594 4078 
Q 1400 4078 1203 4003 
Q 1006 3928 878 3779 
Q 750 3631 750 3431 
Q 750 3131 1056 2925 
z
" id="Cmr10-38" transform="scale(0.015625)"/>
       <path d="M 319 0 
L 319 172 
Q 319 188 331 206 
L 1325 1306 
Q 1550 1550 1690 1715 
Q 1831 1881 1968 2097 
Q 2106 2313 2186 2536 
Q 2266 2759 2266 3009 
Q 2266 3272 2169 3511 
Q 2072 3750 1880 3894 
Q 1688 4038 1416 4038 
Q 1138 4038 916 3870 
Q 694 3703 603 3438 
Q 628 3444 672 3444 
Q 816 3444 917 3347 
Q 1019 3250 1019 3097 
Q 1019 2950 917 2848 
Q 816 2747 672 2747 
Q 522 2747 420 2851 
Q 319 2956 319 3097 
Q 319 3338 409 3548 
Q 500 3759 670 3923 
Q 841 4088 1055 4175 
Q 1269 4263 1509 4263 
Q 1875 4263 2190 4108 
Q 2506 3953 2690 3670 
Q 2875 3388 2875 3009 
Q 2875 2731 2753 2481 
Q 2631 2231 2440 2026 
Q 2250 1822 1953 1562 
Q 1656 1303 1563 1216 
L 838 519 
L 1453 519 
Q 1906 519 2211 526 
Q 2516 534 2534 550 
Q 2609 631 2688 1141 
L 2875 1141 
L 2694 0 
L 319 0 
z
" id="Cmr10-32" transform="scale(0.015625)"/>
      </defs>
      <use xlink:href="#Cmmi10-b5"/>
      <use transform="translate(46.923828 -17.00625)scale(0.7)" xlink:href="#Cmr10-30"/>
      <use transform="translate(105.859766 0)" xlink:href="#Cmr10-3d"/>
      <use transform="translate(201.103906 0)" xlink:href="#Cmr10-35"/>
      <use transform="translate(251.103906 0)" xlink:href="#Cmr10-30"/>
      <use transform="translate(301.103906 0)" xlink:href="#Cmr10-3b"/>
      <use transform="translate(434.141016 0)" xlink:href="#Cmmi10-b5"/>
      <use transform="translate(481.064844 -17.00625)scale(0.7)" xlink:href="#Cmr10-31"/>
      <use transform="translate(540.000781 0)" xlink:href="#Cmr10-3d"/>
      <use transform="translate(635.244922 0)" xlink:href="#Cmr10-30"/>
      <use transform="translate(685.244922 0)" xlink:href="#Cmmi10-3a"/>
      <use transform="translate(712.930469 0)" xlink:href="#Cmr10-30"/>
      <use transform="translate(762.930469 0)" xlink:href="#Cmr10-36"/>
      <use transform="translate(812.930469 0)" xlink:href="#Cmr10-3b"/>
      <use transform="translate(945.967578 0)" xlink:href="#Cmmi10-4a"/>
      <use transform="translate(1001.3875 0)" xlink:href="#Cmr10-28"/>
      <use transform="translate(1040.205859 0)" xlink:href="#Cmmi10-b5"/>
      <use transform="translate(1087.129688 -17.00625)scale(0.7)" xlink:href="#Cmr10-30"/>
      <use transform="translate(1128.507031 0)" xlink:href="#Cmmi10-3b"/>
      <use transform="translate(1173.751172 0)" xlink:href="#Cmmi10-b5"/>
      <use transform="translate(1220.675 -17.00625)scale(0.7)" xlink:href="#Cmr10-31"/>
      <use transform="translate(1262.052344 0)" xlink:href="#Cmr10-29"/>
      <use transform="translate(1318.429297 0)" xlink:href="#Cmr10-3d"/>
      <use transform="translate(1413.673437 0)" xlink:href="#Cmr10-31"/>
      <use transform="translate(1463.673437 0)" xlink:href="#Cmr10-38"/>
      <use transform="translate(1513.673437 0)" xlink:href="#Cmr10-32"/>
      <use transform="translate(1563.673437 0)" xlink:href="#Cmr10-38"/>
      <use transform="translate(1613.673437 0)" xlink:href="#Cmr10-37"/>
     </g>
    </g>
    <g id="line2d_20"/>
    <g id="line2d_21">
     <g>
      <use style="fill:#2ca02c;stroke:#2ca02c;" x="405.960938" xlink:href="#m637698c692" y="65.613437"/>
     </g>
    </g>
    <g id="text_18">
     <!-- $\theta_0=50; \quad \theta_1=0.06; \quad J(\theta_0, \theta_1)=7842$ -->
     <g transform="translate(423.960938 69.113437)scale(0.1 -0.1)">
      <defs>
       <path d="M 178 1056 
L 178 1281 
L 2156 4231 
Q 2178 4263 2222 4263 
L 2316 4263 
Q 2388 4263 2388 4191 
L 2388 1281 
L 3016 1281 
L 3016 1056 
L 2388 1056 
L 2388 428 
Q 2388 297 2575 261 
Q 2763 225 3009 225 
L 3009 0 
L 1247 0 
L 1247 225 
Q 1494 225 1681 261 
Q 1869 297 1869 428 
L 1869 1056 
L 178 1056 
z
M 391 1281 
L 1906 1281 
L 1906 3547 
L 391 1281 
z
" id="Cmr10-34" transform="scale(0.015625)"/>
      </defs>
      <use xlink:href="#Cmmi10-b5"/>
      <use transform="translate(46.923828 -17.00625)scale(0.7)" xlink:href="#Cmr10-30"/>
      <use transform="translate(105.859766 0)" xlink:href="#Cmr10-3d"/>
      <use transform="translate(201.103906 0)" xlink:href="#Cmr10-35"/>
      <use transform="translate(251.103906 0)" xlink:href="#Cmr10-30"/>
      <use transform="translate(301.103906 0)" xlink:href="#Cmr10-3b"/>
      <use transform="translate(434.141016 0)" xlink:href="#Cmmi10-b5"/>
      <use transform="translate(481.064844 -17.00625)scale(0.7)" xlink:href="#Cmr10-31"/>
      <use transform="translate(540.000781 0)" xlink:href="#Cmr10-3d"/>
      <use transform="translate(635.244922 0)" xlink:href="#Cmr10-30"/>
      <use transform="translate(685.244922 0)" xlink:href="#Cmmi10-3a"/>
      <use transform="translate(712.930469 0)" xlink:href="#Cmr10-30"/>
      <use transform="translate(762.930469 0)" xlink:href="#Cmr10-36"/>
      <use transform="translate(812.930469 0)" xlink:href="#Cmr10-3b"/>
      <use transform="translate(945.967578 0)" xlink:href="#Cmmi10-4a"/>
      <use transform="translate(1001.3875 0)" xlink:href="#Cmr10-28"/>
      <use transform="translate(1040.205859 0)" xlink:href="#Cmmi10-b5"/>
      <use transform="translate(1087.129688 -17.00625)scale(0.7)" xlink:href="#Cmr10-30"/>
      <use transform="translate(1128.507031 0)" xlink:href="#Cmmi10-3b"/>
      <use transform="translate(1173.751172 0)" xlink:href="#Cmmi10-b5"/>
      <use transform="translate(1220.675 -17.00625)scale(0.7)" xlink:href="#Cmr10-31"/>
      <use transform="translate(1262.052344 0)" xlink:href="#Cmr10-29"/>
      <use transform="translate(1318.429297 0)" xlink:href="#Cmr10-3d"/>
      <use transform="translate(1413.673437 0)" xlink:href="#Cmr10-37"/>
      <use transform="translate(1463.673437 0)" xlink:href="#Cmr10-38"/>
      <use transform="translate(1513.673437 0)" xlink:href="#Cmr10-34"/>
      <use transform="translate(1563.673437 0)" xlink:href="#Cmr10-32"/>
     </g>
    </g>
   </g>
  </g>
 </g>
 <defs>
  <clipPath id="pb9b094b09f">
   <rect height="217.44" width="334.8" x="52.160938" y="22.318125"/>
  </clipPath>
 </defs>
</svg>
