<?xml version="1.0" standalone="no"?>
<!DOCTYPE svg PUBLIC "-//W3C//DTD SVG 20010904//EN"
 "http://www.w3.org/TR/2001/REC-SVG-20010904/DTD/svg10.dtd">
<svg version="1.0" xmlns="http://www.w3.org/2000/svg"
 width="260.000000pt" height="260.000000pt" viewBox="0 0 260.000000 260.000000"
 preserveAspectRatio="xMidYMid meet">
<metadata>
Created by potrace 1.11, written by Peter Selinger 2001-2013
</metadata>
<g transform="translate(0.000000,260.000000) scale(0.100000,-0.100000)"
fill="#000000" stroke="none">
<path d="M0 1300 c0 -1012 1 -1070 18 -1071 108 -6 382 -2 383 6 5 43 3 173
-2 185 -6 12 -27 15 -108 14 l-101 -1 0 864 c0 683 3 863 13 864 6 0 52 1 102
1 50 1 92 4 95 9 3 4 5 49 4 101 l0 93 -202 3 -202 2 0 -1070z"/>
<path d="M2199 2360 c-3 -16 -5 -187 -2 -195 2 -6 45 -10 108 -10 l105 1 -2
-865 -3 -864 -102 1 c-72 1 -102 -2 -105 -11 -2 -6 -3 -52 -3 -102 l1 -90 202
-3 202 -2 0 1070 c0 1011 -1 1070 -18 1071 -63 4 -382 3 -383 -1z"/>
<path d="M684 726 c-70 -31 -115 -99 -116 -175 -1 -197 266 -259 355 -82 43
88 18 180 -65 237 -51 35 -122 43 -174 20z"/>
<path d="M1185 721 c-53 -24 -83 -59 -99 -112 -48 -159 110 -300 254 -227 67
35 103 86 108 157 10 144 -132 243 -263 182z"/>
<path d="M1715 733 c-105 -29 -162 -158 -116 -258 67 -144 266 -148 338 -7 58
116 -21 258 -148 267 -30 2 -63 1 -74 -2z"/>
</g>
</svg>
