<?xml version="1.0" standalone="no"?>
<!DOCTYPE svg PUBLIC "-//W3C//DTD SVG 20010904//EN"
 "http://www.w3.org/TR/2001/REC-SVG-20010904/DTD/svg10.dtd">
<svg version="1.0" xmlns="http://www.w3.org/2000/svg"
 width="235.000000pt" height="235.000000pt" viewBox="0 0 235.000000 235.000000"
 preserveAspectRatio="xMidYMid meet">
<metadata>
Created by potrace 1.11, written by Peter Selinger 2001-2013
</metadata>
<g transform="translate(0.000000,235.000000) scale(0.100000,-0.100000)"
fill="#000000" stroke="none">
<path d="M1050 2329 c-299 -32 -608 -206 -795 -449 -237 -308 -303 -727 -174
-1098 200 -571 832 -902 1407 -736 552 160 903 667 851 1229 -27 286 -139 524
-341 722 -254 249 -600 370 -948 332z m259 -674 c87 -21 153 -59 222 -127 103
-103 149 -214 149 -357 0 -140 -48 -258 -141 -352 -196 -195 -509 -200 -706
-11 -102 98 -154 219 -155 355 0 182 96 354 249 444 100 58 254 78 382 48z"/>
</g>
</svg>
