<?xml version="1.0" encoding="utf-8" standalone="no"?>
<!DOCTYPE svg PUBLIC "-//W3C//DTD SVG 1.1//EN"
  "http://www.w3.org/Graphics/SVG/1.1/DTD/svg11.dtd">
<!-- Created with matplotlib (https://matplotlib.org/) -->
<svg height="310.368569pt" version="1.1" viewBox="0 0 703.694118 310.368569" width="703.694118pt" xmlns="http://www.w3.org/2000/svg" xmlns:xlink="http://www.w3.org/1999/xlink">
 <metadata>
  <rdf:RDF xmlns:cc="http://creativecommons.org/ns#" xmlns:dc="http://purl.org/dc/elements/1.1/" xmlns:rdf="http://www.w3.org/1999/02/22-rdf-syntax-ns#">
   <cc:Work>
    <dc:type rdf:resource="http://purl.org/dc/dcmitype/StillImage"/>
    <dc:date>2021-05-03T19:53:18.010769</dc:date>
    <dc:format>image/svg+xml</dc:format>
    <dc:creator>
     <cc:Agent>
      <dc:title>Matplotlib v3.3.4, https://matplotlib.org/</dc:title>
     </cc:Agent>
    </dc:creator>
   </cc:Work>
  </rdf:RDF>
 </metadata>
 <defs>
  <style type="text/css">*{stroke-linecap:butt;stroke-linejoin:round;}</style>
 </defs>
 <g id="figure_1">
  <g id="axes_1">
   <g id="table_1">
    <g id="patch_1">
     <path d="M 7.2 39.806155 
L 36.741176 39.806155 
L 36.741176 7.2 
L 7.2 7.2 
z
" style="fill:#e0ffff;stroke:#000000;stroke-dasharray:3.7,1.6;stroke-dashoffset:0;stroke-linejoin:miter;"/>
    </g>
    <g id="text_1">
     <!--   -->
     <g transform="translate(19.904807 27.090265)scale(0.13 -0.13)">
      <defs>
       <path id="DejaVuSans-32"/>
      </defs>
      <use xlink:href="#DejaVuSans-32"/>
     </g>
    </g>
    <g id="patch_2">
     <path d="M 36.741176 39.806155 
L 66.282353 39.806155 
L 66.282353 7.2 
L 36.741176 7.2 
z
" style="fill:#e0ffff;stroke:#000000;stroke-dasharray:3.7,1.6;stroke-dashoffset:0;stroke-linejoin:miter;"/>
    </g>
    <g id="text_2">
     <!--   -->
     <g transform="translate(49.445983 27.090265)scale(0.13 -0.13)">
      <use xlink:href="#DejaVuSans-32"/>
     </g>
    </g>
    <g id="patch_3">
     <path d="M 66.282353 39.806155 
L 95.823529 39.806155 
L 95.823529 7.2 
L 66.282353 7.2 
z
" style="fill:#e0ffff;stroke:#000000;stroke-dasharray:3.7,1.6;stroke-dashoffset:0;stroke-linejoin:miter;"/>
    </g>
    <g id="text_3">
     <!--   -->
     <g transform="translate(78.98716 27.090265)scale(0.13 -0.13)">
      <use xlink:href="#DejaVuSans-32"/>
     </g>
    </g>
    <g id="patch_4">
     <path d="M 95.823529 39.806155 
L 125.364706 39.806155 
L 125.364706 7.2 
L 95.823529 7.2 
z
" style="fill:#e0ffff;stroke:#000000;stroke-dasharray:3.7,1.6;stroke-dashoffset:0;stroke-linejoin:miter;"/>
    </g>
    <g id="text_4">
     <!--   -->
     <g transform="translate(108.528336 27.090265)scale(0.13 -0.13)">
      <use xlink:href="#DejaVuSans-32"/>
     </g>
    </g>
    <g id="patch_5">
     <path d="M 125.364706 39.806155 
L 154.905882 39.806155 
L 154.905882 7.2 
L 125.364706 7.2 
z
" style="fill:#e0ffff;stroke:#000000;stroke-dasharray:3.7,1.6;stroke-dashoffset:0;stroke-linejoin:miter;"/>
    </g>
    <g id="text_5">
     <!--   -->
     <g transform="translate(138.069513 27.090265)scale(0.13 -0.13)">
      <use xlink:href="#DejaVuSans-32"/>
     </g>
    </g>
    <g id="patch_6">
     <path d="M 154.905882 39.806155 
L 184.447059 39.806155 
L 184.447059 7.2 
L 154.905882 7.2 
z
" style="fill:#e0ffff;stroke:#000000;stroke-dasharray:3.7,1.6;stroke-dashoffset:0;stroke-linejoin:miter;"/>
    </g>
    <g id="text_6">
     <!--   -->
     <g transform="translate(167.610689 27.090265)scale(0.13 -0.13)">
      <use xlink:href="#DejaVuSans-32"/>
     </g>
    </g>
    <g id="patch_7">
     <path d="M 184.447059 39.806155 
L 213.988235 39.806155 
L 213.988235 7.2 
L 184.447059 7.2 
z
" style="fill:#e0ffff;stroke:#000000;stroke-dasharray:3.7,1.6;stroke-dashoffset:0;stroke-linejoin:miter;"/>
    </g>
    <g id="text_7">
     <!--   -->
     <g transform="translate(197.151866 27.090265)scale(0.13 -0.13)">
      <use xlink:href="#DejaVuSans-32"/>
     </g>
    </g>
    <g id="patch_8">
     <path d="M 213.988235 39.806155 
L 243.529412 39.806155 
L 243.529412 7.2 
L 213.988235 7.2 
z
" style="fill:#e0ffff;stroke:#000000;stroke-dasharray:3.7,1.6;stroke-dashoffset:0;stroke-linejoin:miter;"/>
    </g>
    <g id="text_8">
     <!--   -->
     <g transform="translate(226.693042 27.090265)scale(0.13 -0.13)">
      <use xlink:href="#DejaVuSans-32"/>
     </g>
    </g>
    <g id="patch_9">
     <path d="M 7.2 72.41231 
L 36.741176 72.41231 
L 36.741176 39.806155 
L 7.2 39.806155 
z
" style="fill:#e0ffff;stroke:#000000;stroke-dasharray:3.7,1.6;stroke-dashoffset:0;stroke-linejoin:miter;"/>
    </g>
    <g id="text_9">
     <!--   -->
     <g transform="translate(19.904807 59.69642)scale(0.13 -0.13)">
      <use xlink:href="#DejaVuSans-32"/>
     </g>
    </g>
    <g id="patch_10">
     <path d="M 36.741176 72.41231 
L 66.282353 72.41231 
L 66.282353 39.806155 
L 36.741176 39.806155 
z
" style="fill:#ffffff;stroke:#000000;stroke-linejoin:miter;"/>
    </g>
    <g id="text_10">
     <!--   -->
     <g transform="translate(49.445983 59.69642)scale(0.13 -0.13)">
      <use xlink:href="#DejaVuSans-32"/>
     </g>
    </g>
    <g id="patch_11">
     <path d="M 66.282353 72.41231 
L 95.823529 72.41231 
L 95.823529 39.806155 
L 66.282353 39.806155 
z
" style="fill:#ffffff;stroke:#000000;stroke-linejoin:miter;"/>
    </g>
    <g id="text_11">
     <!--   -->
     <g transform="translate(78.98716 59.69642)scale(0.13 -0.13)">
      <use xlink:href="#DejaVuSans-32"/>
     </g>
    </g>
    <g id="patch_12">
     <path d="M 95.823529 72.41231 
L 125.364706 72.41231 
L 125.364706 39.806155 
L 95.823529 39.806155 
z
" style="fill:#ffffff;stroke:#000000;stroke-linejoin:miter;"/>
    </g>
    <g id="text_12">
     <!--   -->
     <g transform="translate(108.528336 59.69642)scale(0.13 -0.13)">
      <use xlink:href="#DejaVuSans-32"/>
     </g>
    </g>
    <g id="patch_13">
     <path d="M 125.364706 72.41231 
L 154.905882 72.41231 
L 154.905882 39.806155 
L 125.364706 39.806155 
z
" style="fill:#ffffff;stroke:#000000;stroke-linejoin:miter;"/>
    </g>
    <g id="text_13">
     <!--   -->
     <g transform="translate(138.069513 59.69642)scale(0.13 -0.13)">
      <use xlink:href="#DejaVuSans-32"/>
     </g>
    </g>
    <g id="patch_14">
     <path d="M 154.905882 72.41231 
L 184.447059 72.41231 
L 184.447059 39.806155 
L 154.905882 39.806155 
z
" style="fill:#ffffff;stroke:#000000;stroke-linejoin:miter;"/>
    </g>
    <g id="text_14">
     <!--   -->
     <g transform="translate(167.610689 59.69642)scale(0.13 -0.13)">
      <use xlink:href="#DejaVuSans-32"/>
     </g>
    </g>
    <g id="patch_15">
     <path d="M 184.447059 72.41231 
L 213.988235 72.41231 
L 213.988235 39.806155 
L 184.447059 39.806155 
z
" style="fill:#ffffff;stroke:#000000;stroke-linejoin:miter;"/>
    </g>
    <g id="text_15">
     <!--   -->
     <g transform="translate(197.151866 59.69642)scale(0.13 -0.13)">
      <use xlink:href="#DejaVuSans-32"/>
     </g>
    </g>
    <g id="patch_16">
     <path d="M 213.988235 72.41231 
L 243.529412 72.41231 
L 243.529412 39.806155 
L 213.988235 39.806155 
z
" style="fill:#e0ffff;stroke:#000000;stroke-dasharray:3.7,1.6;stroke-dashoffset:0;stroke-linejoin:miter;"/>
    </g>
    <g id="text_16">
     <!--   -->
     <g transform="translate(226.693042 59.69642)scale(0.13 -0.13)">
      <use xlink:href="#DejaVuSans-32"/>
     </g>
    </g>
    <g id="patch_17">
     <path d="M 7.2 105.018465 
L 36.741176 105.018465 
L 36.741176 72.41231 
L 7.2 72.41231 
z
" style="fill:#e0ffff;stroke:#000000;stroke-dasharray:3.7,1.6;stroke-dashoffset:0;stroke-linejoin:miter;"/>
    </g>
    <g id="text_17">
     <!--   -->
     <g transform="translate(19.904807 92.302575)scale(0.13 -0.13)">
      <use xlink:href="#DejaVuSans-32"/>
     </g>
    </g>
    <g id="patch_18">
     <path d="M 36.741176 105.018465 
L 66.282353 105.018465 
L 66.282353 72.41231 
L 36.741176 72.41231 
z
" style="fill:#ffffff;stroke:#000000;stroke-linejoin:miter;"/>
    </g>
    <g id="text_18">
     <!--   -->
     <g transform="translate(49.445983 92.302575)scale(0.13 -0.13)">
      <use xlink:href="#DejaVuSans-32"/>
     </g>
    </g>
    <g id="patch_19">
     <path d="M 66.282353 105.018465 
L 95.823529 105.018465 
L 95.823529 72.41231 
L 66.282353 72.41231 
z
" style="fill:#ffffff;stroke:#000000;stroke-linejoin:miter;"/>
    </g>
    <g id="text_19">
     <!--   -->
     <g transform="translate(78.98716 92.302575)scale(0.13 -0.13)">
      <use xlink:href="#DejaVuSans-32"/>
     </g>
    </g>
    <g id="patch_20">
     <path d="M 95.823529 105.018465 
L 125.364706 105.018465 
L 125.364706 72.41231 
L 95.823529 72.41231 
z
" style="fill:#ffffff;stroke:#000000;stroke-linejoin:miter;"/>
    </g>
    <g id="text_20">
     <!--   -->
     <g transform="translate(108.528336 92.302575)scale(0.13 -0.13)">
      <use xlink:href="#DejaVuSans-32"/>
     </g>
    </g>
    <g id="patch_21">
     <path d="M 125.364706 105.018465 
L 154.905882 105.018465 
L 154.905882 72.41231 
L 125.364706 72.41231 
z
" style="fill:#ffffff;stroke:#000000;stroke-linejoin:miter;"/>
    </g>
    <g id="text_21">
     <!--   -->
     <g transform="translate(138.069513 92.302575)scale(0.13 -0.13)">
      <use xlink:href="#DejaVuSans-32"/>
     </g>
    </g>
    <g id="patch_22">
     <path d="M 154.905882 105.018465 
L 184.447059 105.018465 
L 184.447059 72.41231 
L 154.905882 72.41231 
z
" style="fill:#ffffff;stroke:#000000;stroke-linejoin:miter;"/>
    </g>
    <g id="text_22">
     <!--   -->
     <g transform="translate(167.610689 92.302575)scale(0.13 -0.13)">
      <use xlink:href="#DejaVuSans-32"/>
     </g>
    </g>
    <g id="patch_23">
     <path d="M 184.447059 105.018465 
L 213.988235 105.018465 
L 213.988235 72.41231 
L 184.447059 72.41231 
z
" style="fill:#ffffff;stroke:#000000;stroke-linejoin:miter;"/>
    </g>
    <g id="text_23">
     <!--   -->
     <g transform="translate(197.151866 92.302575)scale(0.13 -0.13)">
      <use xlink:href="#DejaVuSans-32"/>
     </g>
    </g>
    <g id="patch_24">
     <path d="M 213.988235 105.018465 
L 243.529412 105.018465 
L 243.529412 72.41231 
L 213.988235 72.41231 
z
" style="fill:#e0ffff;stroke:#000000;stroke-dasharray:3.7,1.6;stroke-dashoffset:0;stroke-linejoin:miter;"/>
    </g>
    <g id="text_24">
     <!--   -->
     <g transform="translate(226.693042 92.302575)scale(0.13 -0.13)">
      <use xlink:href="#DejaVuSans-32"/>
     </g>
    </g>
    <g id="patch_25">
     <path d="M 7.2 137.62462 
L 36.741176 137.62462 
L 36.741176 105.018465 
L 7.2 105.018465 
z
" style="fill:#e0ffff;stroke:#000000;stroke-dasharray:3.7,1.6;stroke-dashoffset:0;stroke-linejoin:miter;"/>
    </g>
    <g id="text_25">
     <!--   -->
     <g transform="translate(19.904807 124.90873)scale(0.13 -0.13)">
      <use xlink:href="#DejaVuSans-32"/>
     </g>
    </g>
    <g id="patch_26">
     <path d="M 36.741176 137.62462 
L 66.282353 137.62462 
L 66.282353 105.018465 
L 36.741176 105.018465 
z
" style="fill:#ffffff;stroke:#000000;stroke-linejoin:miter;"/>
    </g>
    <g id="text_26">
     <!--   -->
     <g transform="translate(49.445983 124.90873)scale(0.13 -0.13)">
      <use xlink:href="#DejaVuSans-32"/>
     </g>
    </g>
    <g id="patch_27">
     <path d="M 66.282353 137.62462 
L 95.823529 137.62462 
L 95.823529 105.018465 
L 66.282353 105.018465 
z
" style="fill:#ffffff;stroke:#000000;stroke-linejoin:miter;"/>
    </g>
    <g id="text_27">
     <!--   -->
     <g transform="translate(78.98716 124.90873)scale(0.13 -0.13)">
      <use xlink:href="#DejaVuSans-32"/>
     </g>
    </g>
    <g id="patch_28">
     <path d="M 95.823529 137.62462 
L 125.364706 137.62462 
L 125.364706 105.018465 
L 95.823529 105.018465 
z
" style="fill:#ffffff;stroke:#000000;stroke-linejoin:miter;"/>
    </g>
    <g id="text_28">
     <!--   -->
     <g transform="translate(108.528336 124.90873)scale(0.13 -0.13)">
      <use xlink:href="#DejaVuSans-32"/>
     </g>
    </g>
    <g id="patch_29">
     <path d="M 125.364706 137.62462 
L 154.905882 137.62462 
L 154.905882 105.018465 
L 125.364706 105.018465 
z
" style="fill:#ffffff;stroke:#000000;stroke-linejoin:miter;"/>
    </g>
    <g id="text_29">
     <!--   -->
     <g transform="translate(138.069513 124.90873)scale(0.13 -0.13)">
      <use xlink:href="#DejaVuSans-32"/>
     </g>
    </g>
    <g id="patch_30">
     <path d="M 154.905882 137.62462 
L 184.447059 137.62462 
L 184.447059 105.018465 
L 154.905882 105.018465 
z
" style="fill:#ffffff;stroke:#000000;stroke-linejoin:miter;"/>
    </g>
    <g id="text_30">
     <!--   -->
     <g transform="translate(167.610689 124.90873)scale(0.13 -0.13)">
      <use xlink:href="#DejaVuSans-32"/>
     </g>
    </g>
    <g id="patch_31">
     <path d="M 184.447059 137.62462 
L 213.988235 137.62462 
L 213.988235 105.018465 
L 184.447059 105.018465 
z
" style="fill:#ffffff;stroke:#000000;stroke-linejoin:miter;"/>
    </g>
    <g id="text_31">
     <!--   -->
     <g transform="translate(197.151866 124.90873)scale(0.13 -0.13)">
      <use xlink:href="#DejaVuSans-32"/>
     </g>
    </g>
    <g id="patch_32">
     <path d="M 213.988235 137.62462 
L 243.529412 137.62462 
L 243.529412 105.018465 
L 213.988235 105.018465 
z
" style="fill:#e0ffff;stroke:#000000;stroke-dasharray:3.7,1.6;stroke-dashoffset:0;stroke-linejoin:miter;"/>
    </g>
    <g id="text_32">
     <!--   -->
     <g transform="translate(226.693042 124.90873)scale(0.13 -0.13)">
      <use xlink:href="#DejaVuSans-32"/>
     </g>
    </g>
    <g id="patch_33">
     <path d="M 7.2 170.230775 
L 36.741176 170.230775 
L 36.741176 137.62462 
L 7.2 137.62462 
z
" style="fill:#e0ffff;stroke:#000000;stroke-dasharray:3.7,1.6;stroke-dashoffset:0;stroke-linejoin:miter;"/>
    </g>
    <g id="text_33">
     <!--   -->
     <g transform="translate(19.904807 157.514885)scale(0.13 -0.13)">
      <use xlink:href="#DejaVuSans-32"/>
     </g>
    </g>
    <g id="patch_34">
     <path d="M 36.741176 170.230775 
L 66.282353 170.230775 
L 66.282353 137.62462 
L 36.741176 137.62462 
z
" style="fill:#ffffff;stroke:#000000;stroke-linejoin:miter;"/>
    </g>
    <g id="text_34">
     <!--   -->
     <g transform="translate(49.445983 157.514885)scale(0.13 -0.13)">
      <use xlink:href="#DejaVuSans-32"/>
     </g>
    </g>
    <g id="patch_35">
     <path d="M 66.282353 170.230775 
L 95.823529 170.230775 
L 95.823529 137.62462 
L 66.282353 137.62462 
z
" style="fill:#ffffff;stroke:#000000;stroke-linejoin:miter;"/>
    </g>
    <g id="text_35">
     <!--   -->
     <g transform="translate(78.98716 157.514885)scale(0.13 -0.13)">
      <use xlink:href="#DejaVuSans-32"/>
     </g>
    </g>
    <g id="patch_36">
     <path d="M 95.823529 170.230775 
L 125.364706 170.230775 
L 125.364706 137.62462 
L 95.823529 137.62462 
z
" style="fill:#ffffff;stroke:#000000;stroke-linejoin:miter;"/>
    </g>
    <g id="text_36">
     <!--   -->
     <g transform="translate(108.528336 157.514885)scale(0.13 -0.13)">
      <use xlink:href="#DejaVuSans-32"/>
     </g>
    </g>
    <g id="patch_37">
     <path d="M 125.364706 170.230775 
L 154.905882 170.230775 
L 154.905882 137.62462 
L 125.364706 137.62462 
z
" style="fill:#ffffff;stroke:#000000;stroke-linejoin:miter;"/>
    </g>
    <g id="text_37">
     <!--   -->
     <g transform="translate(138.069513 157.514885)scale(0.13 -0.13)">
      <use xlink:href="#DejaVuSans-32"/>
     </g>
    </g>
    <g id="patch_38">
     <path d="M 154.905882 170.230775 
L 184.447059 170.230775 
L 184.447059 137.62462 
L 154.905882 137.62462 
z
" style="fill:#ffffff;stroke:#000000;stroke-linejoin:miter;"/>
    </g>
    <g id="text_38">
     <!--   -->
     <g transform="translate(167.610689 157.514885)scale(0.13 -0.13)">
      <use xlink:href="#DejaVuSans-32"/>
     </g>
    </g>
    <g id="patch_39">
     <path d="M 184.447059 170.230775 
L 213.988235 170.230775 
L 213.988235 137.62462 
L 184.447059 137.62462 
z
" style="fill:#ffffff;stroke:#000000;stroke-linejoin:miter;"/>
    </g>
    <g id="text_39">
     <!--   -->
     <g transform="translate(197.151866 157.514885)scale(0.13 -0.13)">
      <use xlink:href="#DejaVuSans-32"/>
     </g>
    </g>
    <g id="patch_40">
     <path d="M 213.988235 170.230775 
L 243.529412 170.230775 
L 243.529412 137.62462 
L 213.988235 137.62462 
z
" style="fill:#e0ffff;stroke:#000000;stroke-dasharray:3.7,1.6;stroke-dashoffset:0;stroke-linejoin:miter;"/>
    </g>
    <g id="text_40">
     <!--   -->
     <g transform="translate(226.693042 157.514885)scale(0.13 -0.13)">
      <use xlink:href="#DejaVuSans-32"/>
     </g>
    </g>
    <g id="patch_41">
     <path d="M 7.2 202.83693 
L 36.741176 202.83693 
L 36.741176 170.230775 
L 7.2 170.230775 
z
" style="fill:#e0ffff;stroke:#000000;stroke-dasharray:3.7,1.6;stroke-dashoffset:0;stroke-linejoin:miter;"/>
    </g>
    <g id="text_41">
     <!--   -->
     <g transform="translate(19.904807 190.12104)scale(0.13 -0.13)">
      <use xlink:href="#DejaVuSans-32"/>
     </g>
    </g>
    <g id="patch_42">
     <path d="M 36.741176 202.83693 
L 66.282353 202.83693 
L 66.282353 170.230775 
L 36.741176 170.230775 
z
" style="fill:#ffffff;stroke:#000000;stroke-linejoin:miter;"/>
    </g>
    <g id="text_42">
     <!--   -->
     <g transform="translate(49.445983 190.12104)scale(0.13 -0.13)">
      <use xlink:href="#DejaVuSans-32"/>
     </g>
    </g>
    <g id="patch_43">
     <path d="M 66.282353 202.83693 
L 95.823529 202.83693 
L 95.823529 170.230775 
L 66.282353 170.230775 
z
" style="fill:#ffffff;stroke:#000000;stroke-linejoin:miter;"/>
    </g>
    <g id="text_43">
     <!--   -->
     <g transform="translate(78.98716 190.12104)scale(0.13 -0.13)">
      <use xlink:href="#DejaVuSans-32"/>
     </g>
    </g>
    <g id="patch_44">
     <path d="M 95.823529 202.83693 
L 125.364706 202.83693 
L 125.364706 170.230775 
L 95.823529 170.230775 
z
" style="fill:#ffffff;stroke:#000000;stroke-linejoin:miter;"/>
    </g>
    <g id="text_44">
     <!--   -->
     <g transform="translate(108.528336 190.12104)scale(0.13 -0.13)">
      <use xlink:href="#DejaVuSans-32"/>
     </g>
    </g>
    <g id="patch_45">
     <path d="M 125.364706 202.83693 
L 154.905882 202.83693 
L 154.905882 170.230775 
L 125.364706 170.230775 
z
" style="fill:#ffffff;stroke:#000000;stroke-linejoin:miter;"/>
    </g>
    <g id="text_45">
     <!--   -->
     <g transform="translate(138.069513 190.12104)scale(0.13 -0.13)">
      <use xlink:href="#DejaVuSans-32"/>
     </g>
    </g>
    <g id="patch_46">
     <path d="M 154.905882 202.83693 
L 184.447059 202.83693 
L 184.447059 170.230775 
L 154.905882 170.230775 
z
" style="fill:#ffffff;stroke:#000000;stroke-linejoin:miter;"/>
    </g>
    <g id="text_46">
     <!--   -->
     <g transform="translate(167.610689 190.12104)scale(0.13 -0.13)">
      <use xlink:href="#DejaVuSans-32"/>
     </g>
    </g>
    <g id="patch_47">
     <path d="M 184.447059 202.83693 
L 213.988235 202.83693 
L 213.988235 170.230775 
L 184.447059 170.230775 
z
" style="fill:#ffffff;stroke:#000000;stroke-linejoin:miter;"/>
    </g>
    <g id="text_47">
     <!--   -->
     <g transform="translate(197.151866 190.12104)scale(0.13 -0.13)">
      <use xlink:href="#DejaVuSans-32"/>
     </g>
    </g>
    <g id="patch_48">
     <path d="M 213.988235 202.83693 
L 243.529412 202.83693 
L 243.529412 170.230775 
L 213.988235 170.230775 
z
" style="fill:#e0ffff;stroke:#000000;stroke-dasharray:3.7,1.6;stroke-dashoffset:0;stroke-linejoin:miter;"/>
    </g>
    <g id="text_48">
     <!--   -->
     <g transform="translate(226.693042 190.12104)scale(0.13 -0.13)">
      <use xlink:href="#DejaVuSans-32"/>
     </g>
    </g>
    <g id="patch_49">
     <path d="M 7.2 235.443085 
L 36.741176 235.443085 
L 36.741176 202.83693 
L 7.2 202.83693 
z
" style="fill:#e0ffff;stroke:#000000;stroke-dasharray:3.7,1.6;stroke-dashoffset:0;stroke-linejoin:miter;"/>
    </g>
    <g id="text_49">
     <!--   -->
     <g transform="translate(19.904807 222.727195)scale(0.13 -0.13)">
      <use xlink:href="#DejaVuSans-32"/>
     </g>
    </g>
    <g id="patch_50">
     <path d="M 36.741176 235.443085 
L 66.282353 235.443085 
L 66.282353 202.83693 
L 36.741176 202.83693 
z
" style="fill:#ffffff;stroke:#000000;stroke-linejoin:miter;"/>
    </g>
    <g id="text_50">
     <!--   -->
     <g transform="translate(49.445983 222.727195)scale(0.13 -0.13)">
      <use xlink:href="#DejaVuSans-32"/>
     </g>
    </g>
    <g id="patch_51">
     <path d="M 66.282353 235.443085 
L 95.823529 235.443085 
L 95.823529 202.83693 
L 66.282353 202.83693 
z
" style="fill:#ffffff;stroke:#000000;stroke-linejoin:miter;"/>
    </g>
    <g id="text_51">
     <!--   -->
     <g transform="translate(78.98716 222.727195)scale(0.13 -0.13)">
      <use xlink:href="#DejaVuSans-32"/>
     </g>
    </g>
    <g id="patch_52">
     <path d="M 95.823529 235.443085 
L 125.364706 235.443085 
L 125.364706 202.83693 
L 95.823529 202.83693 
z
" style="fill:#ffffff;stroke:#000000;stroke-linejoin:miter;"/>
    </g>
    <g id="text_52">
     <!--   -->
     <g transform="translate(108.528336 222.727195)scale(0.13 -0.13)">
      <use xlink:href="#DejaVuSans-32"/>
     </g>
    </g>
    <g id="patch_53">
     <path d="M 125.364706 235.443085 
L 154.905882 235.443085 
L 154.905882 202.83693 
L 125.364706 202.83693 
z
" style="fill:#ffffff;stroke:#000000;stroke-linejoin:miter;"/>
    </g>
    <g id="text_53">
     <!--   -->
     <g transform="translate(138.069513 222.727195)scale(0.13 -0.13)">
      <use xlink:href="#DejaVuSans-32"/>
     </g>
    </g>
    <g id="patch_54">
     <path d="M 154.905882 235.443085 
L 184.447059 235.443085 
L 184.447059 202.83693 
L 154.905882 202.83693 
z
" style="fill:#ffffff;stroke:#000000;stroke-linejoin:miter;"/>
    </g>
    <g id="text_54">
     <!--   -->
     <g transform="translate(167.610689 222.727195)scale(0.13 -0.13)">
      <use xlink:href="#DejaVuSans-32"/>
     </g>
    </g>
    <g id="patch_55">
     <path d="M 184.447059 235.443085 
L 213.988235 235.443085 
L 213.988235 202.83693 
L 184.447059 202.83693 
z
" style="fill:#ffffff;stroke:#000000;stroke-linejoin:miter;"/>
    </g>
    <g id="text_55">
     <!--   -->
     <g transform="translate(197.151866 222.727195)scale(0.13 -0.13)">
      <use xlink:href="#DejaVuSans-32"/>
     </g>
    </g>
    <g id="patch_56">
     <path d="M 213.988235 235.443085 
L 243.529412 235.443085 
L 243.529412 202.83693 
L 213.988235 202.83693 
z
" style="fill:#e0ffff;stroke:#000000;stroke-dasharray:3.7,1.6;stroke-dashoffset:0;stroke-linejoin:miter;"/>
    </g>
    <g id="text_56">
     <!--   -->
     <g transform="translate(226.693042 222.727195)scale(0.13 -0.13)">
      <use xlink:href="#DejaVuSans-32"/>
     </g>
    </g>
    <g id="patch_57">
     <path d="M 7.2 268.04924 
L 36.741176 268.04924 
L 36.741176 235.443085 
L 7.2 235.443085 
z
" style="fill:#e0ffff;stroke:#000000;stroke-dasharray:3.7,1.6;stroke-dashoffset:0;stroke-linejoin:miter;"/>
    </g>
    <g id="text_57">
     <!--   -->
     <g transform="translate(19.904807 255.33335)scale(0.13 -0.13)">
      <use xlink:href="#DejaVuSans-32"/>
     </g>
    </g>
    <g id="patch_58">
     <path d="M 36.741176 268.04924 
L 66.282353 268.04924 
L 66.282353 235.443085 
L 36.741176 235.443085 
z
" style="fill:#e0ffff;stroke:#000000;stroke-dasharray:3.7,1.6;stroke-dashoffset:0;stroke-linejoin:miter;"/>
    </g>
    <g id="text_58">
     <!--   -->
     <g transform="translate(49.445983 255.33335)scale(0.13 -0.13)">
      <use xlink:href="#DejaVuSans-32"/>
     </g>
    </g>
    <g id="patch_59">
     <path d="M 66.282353 268.04924 
L 95.823529 268.04924 
L 95.823529 235.443085 
L 66.282353 235.443085 
z
" style="fill:#e0ffff;stroke:#000000;stroke-dasharray:3.7,1.6;stroke-dashoffset:0;stroke-linejoin:miter;"/>
    </g>
    <g id="text_59">
     <!--   -->
     <g transform="translate(78.98716 255.33335)scale(0.13 -0.13)">
      <use xlink:href="#DejaVuSans-32"/>
     </g>
    </g>
    <g id="patch_60">
     <path d="M 95.823529 268.04924 
L 125.364706 268.04924 
L 125.364706 235.443085 
L 95.823529 235.443085 
z
" style="fill:#e0ffff;stroke:#000000;stroke-dasharray:3.7,1.6;stroke-dashoffset:0;stroke-linejoin:miter;"/>
    </g>
    <g id="text_60">
     <!--   -->
     <g transform="translate(108.528336 255.33335)scale(0.13 -0.13)">
      <use xlink:href="#DejaVuSans-32"/>
     </g>
    </g>
    <g id="patch_61">
     <path d="M 125.364706 268.04924 
L 154.905882 268.04924 
L 154.905882 235.443085 
L 125.364706 235.443085 
z
" style="fill:#e0ffff;stroke:#000000;stroke-dasharray:3.7,1.6;stroke-dashoffset:0;stroke-linejoin:miter;"/>
    </g>
    <g id="text_61">
     <!--   -->
     <g transform="translate(138.069513 255.33335)scale(0.13 -0.13)">
      <use xlink:href="#DejaVuSans-32"/>
     </g>
    </g>
    <g id="patch_62">
     <path d="M 154.905882 268.04924 
L 184.447059 268.04924 
L 184.447059 235.443085 
L 154.905882 235.443085 
z
" style="fill:#e0ffff;stroke:#000000;stroke-dasharray:3.7,1.6;stroke-dashoffset:0;stroke-linejoin:miter;"/>
    </g>
    <g id="text_62">
     <!--   -->
     <g transform="translate(167.610689 255.33335)scale(0.13 -0.13)">
      <use xlink:href="#DejaVuSans-32"/>
     </g>
    </g>
    <g id="patch_63">
     <path d="M 184.447059 268.04924 
L 213.988235 268.04924 
L 213.988235 235.443085 
L 184.447059 235.443085 
z
" style="fill:#e0ffff;stroke:#000000;stroke-dasharray:3.7,1.6;stroke-dashoffset:0;stroke-linejoin:miter;"/>
    </g>
    <g id="text_63">
     <!--   -->
     <g transform="translate(197.151866 255.33335)scale(0.13 -0.13)">
      <use xlink:href="#DejaVuSans-32"/>
     </g>
    </g>
    <g id="patch_64">
     <path d="M 213.988235 268.04924 
L 243.529412 268.04924 
L 243.529412 235.443085 
L 213.988235 235.443085 
z
" style="fill:#e0ffff;stroke:#000000;stroke-dasharray:3.7,1.6;stroke-dashoffset:0;stroke-linejoin:miter;"/>
    </g>
    <g id="text_64">
     <!--   -->
     <g transform="translate(226.693042 255.33335)scale(0.13 -0.13)">
      <use xlink:href="#DejaVuSans-32"/>
     </g>
    </g>
   </g>
   <g id="text_65">
    <!-- $8\times 8 $ -->
    <g transform="translate(111.519706 285.361412)scale(0.13 -0.13)">
     <defs>
      <path d="M 4.203125 15.1875 
Q 4.203125 21.1875 8.15625 25.796875 
Q 12.109375 30.421875 18.3125 33.5 
L 14.59375 35.890625 
Q 11.1875 38.140625 9.03125 41.875 
Q 6.890625 45.609375 6.890625 49.703125 
Q 6.890625 54.5 9.40625 58.34375 
Q 11.921875 62.203125 16.09375 64.40625 
Q 20.265625 66.609375 25 66.609375 
Q 29.4375 66.609375 33.5625 64.796875 
Q 37.703125 62.984375 40.359375 59.609375 
Q 43.015625 56.25 43.015625 51.609375 
Q 43.015625 48.25 41.421875 45.359375 
Q 39.84375 42.484375 37.078125 40.1875 
Q 34.328125 37.890625 31.203125 36.28125 
L 36.921875 32.625 
Q 40.875 30.03125 43.28125 25.828125 
Q 45.703125 21.625 45.703125 17 
Q 45.703125 11.578125 42.796875 7.125 
Q 39.890625 2.6875 35.109375 0.234375 
Q 30.328125 -2.203125 25 -2.203125 
Q 19.828125 -2.203125 15.015625 -0.09375 
Q 10.203125 2 7.203125 5.984375 
Q 4.203125 9.96875 4.203125 15.1875 
z
M 9.625 15.1875 
Q 9.625 11.234375 11.796875 7.953125 
Q 13.96875 4.6875 17.53125 2.828125 
Q 21.09375 0.984375 25 0.984375 
Q 30.8125 0.984375 35.546875 4.375 
Q 40.28125 7.765625 40.28125 13.375 
Q 40.28125 15.28125 39.515625 17.15625 
Q 38.765625 19.046875 37.421875 20.578125 
Q 36.078125 22.125 34.421875 23.09375 
L 21 31.78125 
Q 17.875 30.125 15.25 27.578125 
Q 12.640625 25.046875 11.125 21.875 
Q 9.625 18.703125 9.625 15.1875 
z
M 16.5 45.703125 
L 28.609375 37.890625 
Q 32.8125 40.328125 35.5 43.796875 
Q 38.1875 47.265625 38.1875 51.609375 
Q 38.1875 54.984375 36.296875 57.78125 
Q 34.421875 60.59375 31.390625 62.15625 
Q 28.375 63.71875 24.90625 63.71875 
Q 21.875 63.71875 18.796875 62.546875 
Q 15.71875 61.375 13.71875 59.046875 
Q 11.71875 56.734375 11.71875 53.609375 
Q 11.71875 48.921875 16.5 45.703125 
z
" id="Cmr10-56"/>
      <path d="M 14.703125 2.875 
Q 14.703125 3.65625 15.1875 4.296875 
L 35.984375 25 
L 15.1875 45.796875 
Q 14.703125 46.296875 14.703125 47.125 
Q 14.703125 47.859375 15.28125 48.484375 
Q 15.875 49.125 16.703125 49.125 
Q 17.390625 49.125 18.21875 48.484375 
L 38.921875 27.78125 
L 59.515625 48.484375 
Q 60.359375 49.125 60.984375 49.125 
Q 61.8125 49.125 62.390625 48.53125 
Q 62.984375 47.953125 62.984375 47.125 
Q 62.984375 46.296875 62.5 45.796875 
L 41.703125 25 
L 62.5 4.296875 
Q 62.984375 3.65625 62.984375 2.875 
Q 62.984375 2.046875 62.390625 1.453125 
Q 61.8125 0.875 60.984375 0.875 
Q 60.25 0.875 59.515625 1.609375 
L 38.921875 22.21875 
L 18.21875 1.609375 
Q 17.484375 0.875 16.703125 0.875 
Q 15.875 0.875 15.28125 1.515625 
Q 14.703125 2.15625 14.703125 2.875 
z
" id="Cmsy10-163"/>
     </defs>
     <use transform="translate(0 0.390625)" xlink:href="#Cmr10-56"/>
     <use transform="translate(67.558594 0.390625)" xlink:href="#Cmsy10-163"/>
     <use transform="translate(162.802734 0.390625)" xlink:href="#Cmr10-56"/>
    </g>
    <!--  $(n+2p) \times (n+2p)$ -->
    <g transform="translate(70.309706 299.918569)scale(0.13 -0.13)">
     <defs>
      <path d="M 31 -24.8125 
Q 25.4375 -20.40625 21.40625 -14.71875 
Q 17.390625 -9.03125 14.8125 -2.578125 
Q 12.25 3.859375 10.984375 10.890625 
Q 9.71875 17.921875 9.71875 25 
Q 9.71875 32.171875 10.984375 39.203125 
Q 12.25 46.234375 14.859375 52.734375 
Q 17.484375 59.234375 21.53125 64.890625 
Q 25.59375 70.5625 31 74.8125 
Q 31 75 31.5 75 
L 32.421875 75 
Q 32.71875 75 32.953125 74.734375 
Q 33.203125 74.46875 33.203125 74.125 
Q 33.203125 73.6875 33.015625 73.484375 
Q 28.125 68.703125 24.875 63.234375 
Q 21.625 57.765625 19.640625 51.578125 
Q 17.671875 45.40625 16.796875 38.78125 
Q 15.921875 32.171875 15.921875 25 
Q 15.921875 -6.78125 32.90625 -23.296875 
Q 33.203125 -23.578125 33.203125 -24.125 
Q 33.203125 -24.359375 32.9375 -24.671875 
Q 32.671875 -25 32.421875 -25 
L 31.5 -25 
Q 31 -25 31 -24.8125 
z
" id="Cmr10-40"/>
      <path d="M 7.71875 1.703125 
Q 7.71875 2.296875 7.8125 2.59375 
L 15.28125 32.421875 
Q 16.015625 35.203125 16.015625 37.3125 
Q 16.015625 41.609375 13.09375 41.609375 
Q 9.96875 41.609375 8.453125 37.859375 
Q 6.9375 34.125 5.515625 28.421875 
Q 5.515625 28.125 5.21875 27.953125 
Q 4.9375 27.78125 4.6875 27.78125 
L 3.515625 27.78125 
Q 3.171875 27.78125 2.921875 28.140625 
Q 2.6875 28.515625 2.6875 28.8125 
Q 3.765625 33.15625 4.765625 36.171875 
Q 5.765625 39.203125 7.890625 41.6875 
Q 10.015625 44.1875 13.1875 44.1875 
Q 16.9375 44.1875 19.8125 41.8125 
Q 22.703125 39.453125 22.703125 35.796875 
Q 25.6875 39.703125 29.6875 41.9375 
Q 33.6875 44.1875 38.1875 44.1875 
Q 41.75 44.1875 44.328125 42.96875 
Q 46.921875 41.75 48.359375 39.28125 
Q 49.8125 36.8125 49.8125 33.40625 
Q 49.8125 29.296875 47.96875 23.484375 
Q 46.140625 17.671875 43.40625 10.5 
Q 42 7.234375 42 4.5 
Q 42 1.515625 44.28125 1.515625 
Q 48.1875 1.515625 50.796875 5.703125 
Q 53.421875 9.90625 54.5 14.703125 
Q 54.6875 15.28125 55.328125 15.28125 
L 56.5 15.28125 
Q 56.890625 15.28125 57.15625 15.03125 
Q 57.421875 14.796875 57.421875 14.40625 
Q 57.421875 14.3125 57.328125 14.109375 
Q 55.953125 8.453125 52.5625 3.65625 
Q 49.171875 -1.125 44.09375 -1.125 
Q 40.578125 -1.125 38.078125 1.296875 
Q 35.59375 3.71875 35.59375 7.171875 
Q 35.59375 9.03125 36.375 11.078125 
Q 37.640625 14.359375 39.28125 18.890625 
Q 40.921875 23.4375 41.96875 27.578125 
Q 43.015625 31.734375 43.015625 34.90625 
Q 43.015625 37.703125 41.859375 39.65625 
Q 40.71875 41.609375 37.984375 41.609375 
Q 34.328125 41.609375 31.25 39.984375 
Q 28.171875 38.375 25.875 35.71875 
Q 23.578125 33.0625 21.6875 29.390625 
L 14.890625 2.203125 
Q 14.546875 0.828125 13.34375 -0.140625 
Q 12.15625 -1.125 10.6875 -1.125 
Q 9.46875 -1.125 8.59375 -0.34375 
Q 7.71875 0.4375 7.71875 1.703125 
z
" id="Cmmi10-110"/>
      <path d="M 7.515625 23 
Q 6.6875 23 6.140625 23.625 
Q 5.609375 24.265625 5.609375 25 
Q 5.609375 25.734375 6.140625 26.359375 
Q 6.6875 27 7.515625 27 
L 36.921875 27 
L 36.921875 56.5 
Q 36.921875 57.28125 37.5 57.78125 
Q 38.09375 58.296875 38.921875 58.296875 
Q 39.65625 58.296875 40.28125 57.78125 
Q 40.921875 57.28125 40.921875 56.5 
L 40.921875 27 
L 70.3125 27 
Q 71.046875 27 71.578125 26.359375 
Q 72.125 25.734375 72.125 25 
Q 72.125 24.265625 71.578125 23.625 
Q 71.046875 23 70.3125 23 
L 40.921875 23 
L 40.921875 -6.5 
Q 40.921875 -7.28125 40.28125 -7.78125 
Q 39.65625 -8.296875 38.921875 -8.296875 
Q 38.09375 -8.296875 37.5 -7.78125 
Q 36.921875 -7.28125 36.921875 -6.5 
L 36.921875 23 
z
" id="Cmr10-43"/>
      <path d="M 4.984375 0 
L 4.984375 2.6875 
Q 4.984375 2.9375 5.171875 3.21875 
L 20.703125 20.40625 
Q 24.21875 24.21875 26.40625 26.796875 
Q 28.609375 29.390625 30.75 32.765625 
Q 32.90625 36.140625 34.15625 39.625 
Q 35.40625 43.109375 35.40625 47.015625 
Q 35.40625 51.125 33.890625 54.859375 
Q 32.375 58.59375 29.375 60.84375 
Q 26.375 63.09375 22.125 63.09375 
Q 17.78125 63.09375 14.3125 60.46875 
Q 10.84375 57.859375 9.421875 53.71875 
Q 9.8125 53.8125 10.5 53.8125 
Q 12.75 53.8125 14.328125 52.296875 
Q 15.921875 50.78125 15.921875 48.390625 
Q 15.921875 46.09375 14.328125 44.5 
Q 12.75 42.921875 10.5 42.921875 
Q 8.15625 42.921875 6.5625 44.546875 
Q 4.984375 46.1875 4.984375 48.390625 
Q 4.984375 52.15625 6.390625 55.4375 
Q 7.8125 58.734375 10.46875 61.296875 
Q 13.140625 63.875 16.484375 65.234375 
Q 19.828125 66.609375 23.578125 66.609375 
Q 29.296875 66.609375 34.21875 64.1875 
Q 39.15625 61.765625 42.03125 57.34375 
Q 44.921875 52.9375 44.921875 47.015625 
Q 44.921875 42.671875 43.015625 38.765625 
Q 41.109375 34.859375 38.125 31.65625 
Q 35.15625 28.46875 30.515625 24.40625 
Q 25.875 20.359375 24.421875 19 
L 13.09375 8.109375 
L 22.703125 8.109375 
Q 29.78125 8.109375 34.546875 8.21875 
Q 39.3125 8.34375 39.59375 8.59375 
Q 40.765625 9.859375 42 17.828125 
L 44.921875 17.828125 
L 42.09375 0 
z
" id="Cmr10-50"/>
      <path d="M -2.484375 -19.390625 
Q -3.421875 -19.390625 -3.421875 -18.109375 
Q -3.078125 -15.921875 -2.09375 -15.921875 
Q 1.03125 -15.921875 2.265625 -15.359375 
Q 3.515625 -14.796875 4.203125 -12.5 
L 15.484375 32.515625 
Q 16.21875 34.375 16.21875 37.3125 
Q 16.21875 41.609375 13.28125 41.609375 
Q 10.15625 41.609375 8.640625 37.859375 
Q 7.125 34.125 5.71875 28.421875 
Q 5.71875 27.78125 4.890625 27.78125 
L 3.71875 27.78125 
Q 3.46875 27.78125 3.171875 28.140625 
Q 2.875 28.515625 2.875 28.8125 
Q 3.953125 33.15625 4.953125 36.171875 
Q 5.953125 39.203125 8.078125 41.6875 
Q 10.203125 44.1875 13.375 44.1875 
Q 16.796875 44.1875 19.375 42.25 
Q 21.96875 40.328125 22.703125 37.015625 
Q 25.4375 40.1875 28.75 42.1875 
Q 32.078125 44.1875 35.59375 44.1875 
Q 39.796875 44.1875 42.890625 41.9375 
Q 46 39.703125 47.5625 36.0625 
Q 49.125 32.421875 49.125 28.21875 
Q 49.125 21.78125 45.828125 14.890625 
Q 42.53125 8.015625 36.890625 3.4375 
Q 31.25 -1.125 24.8125 -1.125 
Q 21.875 -1.125 19.5 0.53125 
Q 17.140625 2.203125 15.828125 4.890625 
L 11.28125 -12.890625 
Q 11.03125 -14.359375 10.984375 -14.59375 
Q 10.984375 -15.921875 17.578125 -15.921875 
Q 18.609375 -15.921875 18.609375 -17.1875 
Q 18.265625 -18.5 18.046875 -18.9375 
Q 17.828125 -19.390625 16.890625 -19.390625 
z
M 24.90625 1.515625 
Q 28.375 1.515625 31.34375 4.375 
Q 34.328125 7.234375 36.1875 10.796875 
Q 37.546875 13.484375 38.734375 17.359375 
Q 39.9375 21.234375 40.8125 25.625 
Q 41.703125 30.03125 41.703125 32.625 
Q 41.703125 34.90625 41.09375 36.90625 
Q 40.484375 38.921875 39.09375 40.265625 
Q 37.703125 41.609375 35.40625 41.609375 
Q 31.734375 41.609375 28.484375 38.984375 
Q 25.25 36.375 22.609375 32.515625 
L 22.609375 32.171875 
L 17.09375 10.109375 
Q 17.78125 6.546875 19.734375 4.03125 
Q 21.6875 1.515625 24.90625 1.515625 
z
" id="Cmmi10-112"/>
      <path d="M 6.5 -25 
Q 5.609375 -25 5.609375 -24.125 
Q 5.609375 -23.6875 5.8125 -23.484375 
Q 22.90625 -6.78125 22.90625 25 
Q 22.90625 56.78125 6 73.296875 
Q 5.609375 73.53125 5.609375 74.125 
Q 5.609375 74.46875 5.875 74.734375 
Q 6.15625 75 6.5 75 
L 7.421875 75 
Q 7.71875 75 7.90625 74.8125 
Q 15.09375 69.140625 19.875 61.03125 
Q 24.65625 52.9375 26.875 43.75 
Q 29.109375 34.578125 29.109375 25 
Q 29.109375 17.921875 27.90625 11.0625 
Q 26.703125 4.203125 24.09375 -2.453125 
Q 21.484375 -9.125 17.484375 -14.765625 
Q 13.484375 -20.40625 7.90625 -24.8125 
Q 7.71875 -25 7.421875 -25 
z
" id="Cmr10-41"/>
     </defs>
     <use xlink:href="#DejaVuSans-32"/>
     <use transform="translate(31.787109 0)" xlink:href="#Cmr10-40"/>
     <use transform="translate(70.605469 0)" xlink:href="#Cmmi10-110"/>
     <use transform="translate(148.173828 0)" xlink:href="#Cmr10-43"/>
     <use transform="translate(243.417969 0)" xlink:href="#Cmr10-50"/>
     <use transform="translate(293.417969 0)" xlink:href="#Cmmi10-112"/>
     <use transform="translate(343.710938 0)" xlink:href="#Cmr10-41"/>
     <use transform="translate(400.087891 0)" xlink:href="#Cmsy10-163"/>
     <use transform="translate(495.332031 0)" xlink:href="#Cmr10-40"/>
     <use transform="translate(534.150391 0)" xlink:href="#Cmmi10-110"/>
     <use transform="translate(611.71875 0)" xlink:href="#Cmr10-43"/>
     <use transform="translate(706.962891 0)" xlink:href="#Cmr10-50"/>
     <use transform="translate(756.962891 0)" xlink:href="#Cmmi10-112"/>
     <use transform="translate(807.255859 0)" xlink:href="#Cmr10-41"/>
    </g>
   </g>
  </g>
  <g id="axes_2">
   <g id="table_2">
    <g id="patch_65">
     <path d="M 317.382353 121.321543 
L 346.923529 121.321543 
L 346.923529 88.715388 
L 317.382353 88.715388 
z
" style="fill:#ffffff;stroke:#000000;stroke-linejoin:miter;"/>
    </g>
    <g id="text_66">
     <!--   -->
     <g transform="translate(330.08716 108.605653)scale(0.13 -0.13)">
      <use xlink:href="#DejaVuSans-32"/>
     </g>
    </g>
    <g id="patch_66">
     <path d="M 346.923529 121.321543 
L 376.464706 121.321543 
L 376.464706 88.715388 
L 346.923529 88.715388 
z
" style="fill:#ffffff;stroke:#000000;stroke-linejoin:miter;"/>
    </g>
    <g id="text_67">
     <!--   -->
     <g transform="translate(359.628336 108.605653)scale(0.13 -0.13)">
      <use xlink:href="#DejaVuSans-32"/>
     </g>
    </g>
    <g id="patch_67">
     <path d="M 376.464706 121.321543 
L 406.005882 121.321543 
L 406.005882 88.715388 
L 376.464706 88.715388 
z
" style="fill:#ffffff;stroke:#000000;stroke-linejoin:miter;"/>
    </g>
    <g id="text_68">
     <!--   -->
     <g transform="translate(389.169513 108.605653)scale(0.13 -0.13)">
      <use xlink:href="#DejaVuSans-32"/>
     </g>
    </g>
    <g id="patch_68">
     <path d="M 317.382353 153.927698 
L 346.923529 153.927698 
L 346.923529 121.321543 
L 317.382353 121.321543 
z
" style="fill:#ffffff;stroke:#000000;stroke-linejoin:miter;"/>
    </g>
    <g id="text_69">
     <!--   -->
     <g transform="translate(330.08716 141.211808)scale(0.13 -0.13)">
      <use xlink:href="#DejaVuSans-32"/>
     </g>
    </g>
    <g id="patch_69">
     <path d="M 346.923529 153.927698 
L 376.464706 153.927698 
L 376.464706 121.321543 
L 346.923529 121.321543 
z
" style="fill:#ffffff;stroke:#000000;stroke-linejoin:miter;"/>
    </g>
    <g id="text_70">
     <!--   -->
     <g transform="translate(359.628336 141.211808)scale(0.13 -0.13)">
      <use xlink:href="#DejaVuSans-32"/>
     </g>
    </g>
    <g id="patch_70">
     <path d="M 376.464706 153.927698 
L 406.005882 153.927698 
L 406.005882 121.321543 
L 376.464706 121.321543 
z
" style="fill:#ffffff;stroke:#000000;stroke-linejoin:miter;"/>
    </g>
    <g id="text_71">
     <!--   -->
     <g transform="translate(389.169513 141.211808)scale(0.13 -0.13)">
      <use xlink:href="#DejaVuSans-32"/>
     </g>
    </g>
    <g id="patch_71">
     <path d="M 317.382353 186.533853 
L 346.923529 186.533853 
L 346.923529 153.927698 
L 317.382353 153.927698 
z
" style="fill:#ffffff;stroke:#000000;stroke-linejoin:miter;"/>
    </g>
    <g id="text_72">
     <!--   -->
     <g transform="translate(330.08716 173.817963)scale(0.13 -0.13)">
      <use xlink:href="#DejaVuSans-32"/>
     </g>
    </g>
    <g id="patch_72">
     <path d="M 346.923529 186.533853 
L 376.464706 186.533853 
L 376.464706 153.927698 
L 346.923529 153.927698 
z
" style="fill:#ffffff;stroke:#000000;stroke-linejoin:miter;"/>
    </g>
    <g id="text_73">
     <!--   -->
     <g transform="translate(359.628336 173.817963)scale(0.13 -0.13)">
      <use xlink:href="#DejaVuSans-32"/>
     </g>
    </g>
    <g id="patch_73">
     <path d="M 376.464706 186.533853 
L 406.005882 186.533853 
L 406.005882 153.927698 
L 376.464706 153.927698 
z
" style="fill:#ffffff;stroke:#000000;stroke-linejoin:miter;"/>
    </g>
    <g id="text_74">
     <!--   -->
     <g transform="translate(389.169513 173.817963)scale(0.13 -0.13)">
      <use xlink:href="#DejaVuSans-32"/>
     </g>
    </g>
   </g>
   <g id="text_75">
    <!-- * -->
    <g transform="translate(273.070588 141.763683)scale(0.15 -0.15)">
     <defs>
      <path d="M 47.015625 60.890625 
L 29.5 51.421875 
L 47.015625 41.890625 
L 44.1875 37.109375 
L 27.78125 47.015625 
L 27.78125 28.609375 
L 22.21875 28.609375 
L 22.21875 47.015625 
L 5.8125 37.109375 
L 2.984375 41.890625 
L 20.515625 51.421875 
L 2.984375 60.890625 
L 5.8125 65.71875 
L 22.21875 55.8125 
L 22.21875 74.21875 
L 27.78125 74.21875 
L 27.78125 55.8125 
L 44.1875 65.71875 
z
" id="DejaVuSans-42"/>
     </defs>
     <use xlink:href="#DejaVuSans-42"/>
    </g>
   </g>
   <g id="text_76">
    <!-- $3\times 3$ -->
    <g transform="translate(347.849118 285.361412)scale(0.13 -0.13)">
     <defs>
      <path d="M 9.515625 7.71875 
Q 11.859375 4.296875 15.8125 2.640625 
Q 19.78125 0.984375 24.3125 0.984375 
Q 30.125 0.984375 32.5625 5.9375 
Q 35.015625 10.890625 35.015625 17.1875 
Q 35.015625 20.015625 34.5 22.84375 
Q 33.984375 25.6875 32.765625 28.125 
Q 31.546875 30.5625 29.421875 32.03125 
Q 27.296875 33.5 24.21875 33.5 
L 17.578125 33.5 
Q 16.703125 33.5 16.703125 34.421875 
L 16.703125 35.296875 
Q 16.703125 36.078125 17.578125 36.078125 
L 23.09375 36.53125 
Q 26.609375 36.53125 28.921875 39.15625 
Q 31.25 41.796875 32.328125 45.578125 
Q 33.40625 49.359375 33.40625 52.78125 
Q 33.40625 57.5625 31.15625 60.640625 
Q 28.90625 63.71875 24.3125 63.71875 
Q 20.515625 63.71875 17.046875 62.28125 
Q 13.578125 60.84375 11.53125 57.90625 
Q 11.71875 57.953125 11.859375 57.984375 
Q 12.015625 58.015625 12.203125 58.015625 
Q 14.453125 58.015625 15.96875 56.453125 
Q 17.484375 54.890625 17.484375 52.6875 
Q 17.484375 50.53125 15.96875 48.96875 
Q 14.453125 47.40625 12.203125 47.40625 
Q 10.015625 47.40625 8.453125 48.96875 
Q 6.890625 50.53125 6.890625 52.6875 
Q 6.890625 56.984375 9.46875 60.15625 
Q 12.0625 63.328125 16.140625 64.96875 
Q 20.21875 66.609375 24.3125 66.609375 
Q 27.34375 66.609375 30.703125 65.703125 
Q 34.078125 64.796875 36.8125 63.109375 
Q 39.546875 61.421875 41.28125 58.78125 
Q 43.015625 56.15625 43.015625 52.78125 
Q 43.015625 48.578125 41.140625 45.015625 
Q 39.265625 41.453125 35.984375 38.859375 
Q 32.71875 36.28125 28.8125 35.015625 
Q 33.15625 34.1875 37.0625 31.734375 
Q 40.96875 29.296875 43.328125 25.484375 
Q 45.703125 21.6875 45.703125 17.28125 
Q 45.703125 11.765625 42.671875 7.296875 
Q 39.65625 2.828125 34.71875 0.3125 
Q 29.78125 -2.203125 24.3125 -2.203125 
Q 19.625 -2.203125 14.90625 -0.40625 
Q 10.203125 1.375 7.203125 4.9375 
Q 4.203125 8.5 4.203125 13.484375 
Q 4.203125 15.96875 5.859375 17.625 
Q 7.515625 19.28125 10.015625 19.28125 
Q 11.625 19.28125 12.96875 18.53125 
Q 14.3125 17.78125 15.0625 16.40625 
Q 15.828125 15.046875 15.828125 13.484375 
Q 15.828125 11.03125 14.109375 9.375 
Q 12.40625 7.71875 10.015625 7.71875 
z
" id="Cmr10-51"/>
     </defs>
     <use transform="translate(0 0.390625)" xlink:href="#Cmr10-51"/>
     <use transform="translate(67.558594 0.390625)" xlink:href="#Cmsy10-163"/>
     <use transform="translate(162.802734 0.390625)" xlink:href="#Cmr10-51"/>
    </g>
    <!--  $f \times f$ -->
    <g transform="translate(345.899118 299.918569)scale(0.13 -0.13)">
     <defs>
      <path d="M 9.71875 -16.5 
Q 11.578125 -17.921875 14.203125 -17.921875 
Q 17.78125 -17.921875 20.015625 -10.015625 
Q 20.953125 -6.203125 25.09375 15.09375 
L 29.6875 39.59375 
L 21.09375 39.59375 
Q 20.125 39.59375 20.125 40.921875 
Q 20.515625 43.109375 21.390625 43.109375 
L 30.328125 43.109375 
L 31.5 49.609375 
Q 32.078125 52.640625 32.5625 54.8125 
Q 33.0625 56.984375 33.625 58.828125 
Q 34.1875 60.6875 35.296875 62.984375 
Q 37.015625 66.265625 39.921875 68.390625 
Q 42.828125 70.515625 46.1875 70.515625 
Q 48.390625 70.515625 50.46875 69.703125 
Q 52.546875 68.890625 53.859375 67.28125 
Q 55.171875 65.671875 55.171875 63.484375 
Q 55.171875 60.9375 53.484375 59.046875 
Q 51.8125 57.171875 49.421875 57.171875 
Q 47.796875 57.171875 46.65625 58.171875 
Q 45.515625 59.1875 45.515625 60.796875 
Q 45.515625 62.984375 47 64.625 
Q 48.484375 66.265625 50.6875 66.5 
Q 48.828125 67.921875 46.09375 67.921875 
Q 44.578125 67.921875 43.234375 66.5 
Q 41.890625 65.09375 41.5 63.484375 
Q 40.875 60.9375 38.71875 49.703125 
L 37.5 43.109375 
L 47.796875 43.109375 
Q 48.78125 43.109375 48.78125 41.796875 
Q 48.734375 41.546875 48.578125 40.9375 
Q 48.4375 40.328125 48.171875 39.953125 
Q 47.90625 39.59375 47.515625 39.59375 
L 36.8125 39.59375 
L 32.171875 15.1875 
Q 31.296875 9.859375 30.140625 4.359375 
Q 29 -1.125 26.921875 -6.90625 
Q 24.859375 -12.703125 21.625 -16.609375 
Q 18.40625 -20.515625 14.015625 -20.515625 
Q 10.640625 -20.515625 7.984375 -18.578125 
Q 5.328125 -16.65625 5.328125 -13.484375 
Q 5.328125 -10.9375 6.953125 -9.046875 
Q 8.59375 -7.171875 11.078125 -7.171875 
Q 12.75 -7.171875 13.859375 -8.171875 
Q 14.984375 -9.1875 14.984375 -10.796875 
Q 14.984375 -12.9375 13.390625 -14.71875 
Q 11.8125 -16.5 9.71875 -16.5 
z
" id="Cmmi10-102"/>
     </defs>
     <use transform="translate(0 0.484375)" xlink:href="#DejaVuSans-32"/>
     <use transform="translate(31.787109 0.484375)" xlink:href="#Cmmi10-102"/>
     <use transform="translate(98.222656 0.484375)" xlink:href="#Cmsy10-163"/>
     <use transform="translate(193.466797 0.484375)" xlink:href="#Cmmi10-102"/>
    </g>
   </g>
  </g>
  <g id="axes_3">
   <g id="table_3">
    <g id="patch_74">
     <path d="M 509.4 72.41231 
L 538.941176 72.41231 
L 538.941176 39.806155 
L 509.4 39.806155 
z
" style="fill:#ffffff;stroke:#000000;stroke-linejoin:miter;"/>
    </g>
    <g id="text_77">
     <!--   -->
     <g transform="translate(522.104807 59.69642)scale(0.13 -0.13)">
      <use xlink:href="#DejaVuSans-32"/>
     </g>
    </g>
    <g id="patch_75">
     <path d="M 538.941176 72.41231 
L 568.482353 72.41231 
L 568.482353 39.806155 
L 538.941176 39.806155 
z
" style="fill:#ffffff;stroke:#000000;stroke-linejoin:miter;"/>
    </g>
    <g id="text_78">
     <!--   -->
     <g transform="translate(551.645983 59.69642)scale(0.13 -0.13)">
      <use xlink:href="#DejaVuSans-32"/>
     </g>
    </g>
    <g id="patch_76">
     <path d="M 568.482353 72.41231 
L 598.023529 72.41231 
L 598.023529 39.806155 
L 568.482353 39.806155 
z
" style="fill:#ffffff;stroke:#000000;stroke-linejoin:miter;"/>
    </g>
    <g id="text_79">
     <!--   -->
     <g transform="translate(581.18716 59.69642)scale(0.13 -0.13)">
      <use xlink:href="#DejaVuSans-32"/>
     </g>
    </g>
    <g id="patch_77">
     <path d="M 598.023529 72.41231 
L 627.564706 72.41231 
L 627.564706 39.806155 
L 598.023529 39.806155 
z
" style="fill:#ffffff;stroke:#000000;stroke-linejoin:miter;"/>
    </g>
    <g id="text_80">
     <!--   -->
     <g transform="translate(610.728336 59.69642)scale(0.13 -0.13)">
      <use xlink:href="#DejaVuSans-32"/>
     </g>
    </g>
    <g id="patch_78">
     <path d="M 627.564706 72.41231 
L 657.105882 72.41231 
L 657.105882 39.806155 
L 627.564706 39.806155 
z
" style="fill:#ffffff;stroke:#000000;stroke-linejoin:miter;"/>
    </g>
    <g id="text_81">
     <!--   -->
     <g transform="translate(640.269513 59.69642)scale(0.13 -0.13)">
      <use xlink:href="#DejaVuSans-32"/>
     </g>
    </g>
    <g id="patch_79">
     <path d="M 657.105882 72.41231 
L 686.647059 72.41231 
L 686.647059 39.806155 
L 657.105882 39.806155 
z
" style="fill:#ffffff;stroke:#000000;stroke-linejoin:miter;"/>
    </g>
    <g id="text_82">
     <!--   -->
     <g transform="translate(669.810689 59.69642)scale(0.13 -0.13)">
      <use xlink:href="#DejaVuSans-32"/>
     </g>
    </g>
    <g id="patch_80">
     <path d="M 509.4 105.018465 
L 538.941176 105.018465 
L 538.941176 72.41231 
L 509.4 72.41231 
z
" style="fill:#ffffff;stroke:#000000;stroke-linejoin:miter;"/>
    </g>
    <g id="text_83">
     <!--   -->
     <g transform="translate(522.104807 92.302575)scale(0.13 -0.13)">
      <use xlink:href="#DejaVuSans-32"/>
     </g>
    </g>
    <g id="patch_81">
     <path d="M 538.941176 105.018465 
L 568.482353 105.018465 
L 568.482353 72.41231 
L 538.941176 72.41231 
z
" style="fill:#ffffff;stroke:#000000;stroke-linejoin:miter;"/>
    </g>
    <g id="text_84">
     <!--   -->
     <g transform="translate(551.645983 92.302575)scale(0.13 -0.13)">
      <use xlink:href="#DejaVuSans-32"/>
     </g>
    </g>
    <g id="patch_82">
     <path d="M 568.482353 105.018465 
L 598.023529 105.018465 
L 598.023529 72.41231 
L 568.482353 72.41231 
z
" style="fill:#ffffff;stroke:#000000;stroke-linejoin:miter;"/>
    </g>
    <g id="text_85">
     <!--   -->
     <g transform="translate(581.18716 92.302575)scale(0.13 -0.13)">
      <use xlink:href="#DejaVuSans-32"/>
     </g>
    </g>
    <g id="patch_83">
     <path d="M 598.023529 105.018465 
L 627.564706 105.018465 
L 627.564706 72.41231 
L 598.023529 72.41231 
z
" style="fill:#ffffff;stroke:#000000;stroke-linejoin:miter;"/>
    </g>
    <g id="text_86">
     <!--   -->
     <g transform="translate(610.728336 92.302575)scale(0.13 -0.13)">
      <use xlink:href="#DejaVuSans-32"/>
     </g>
    </g>
    <g id="patch_84">
     <path d="M 627.564706 105.018465 
L 657.105882 105.018465 
L 657.105882 72.41231 
L 627.564706 72.41231 
z
" style="fill:#ffffff;stroke:#000000;stroke-linejoin:miter;"/>
    </g>
    <g id="text_87">
     <!--   -->
     <g transform="translate(640.269513 92.302575)scale(0.13 -0.13)">
      <use xlink:href="#DejaVuSans-32"/>
     </g>
    </g>
    <g id="patch_85">
     <path d="M 657.105882 105.018465 
L 686.647059 105.018465 
L 686.647059 72.41231 
L 657.105882 72.41231 
z
" style="fill:#ffffff;stroke:#000000;stroke-linejoin:miter;"/>
    </g>
    <g id="text_88">
     <!--   -->
     <g transform="translate(669.810689 92.302575)scale(0.13 -0.13)">
      <use xlink:href="#DejaVuSans-32"/>
     </g>
    </g>
    <g id="patch_86">
     <path d="M 509.4 137.62462 
L 538.941176 137.62462 
L 538.941176 105.018465 
L 509.4 105.018465 
z
" style="fill:#ffffff;stroke:#000000;stroke-linejoin:miter;"/>
    </g>
    <g id="text_89">
     <!--   -->
     <g transform="translate(522.104807 124.90873)scale(0.13 -0.13)">
      <use xlink:href="#DejaVuSans-32"/>
     </g>
    </g>
    <g id="patch_87">
     <path d="M 538.941176 137.62462 
L 568.482353 137.62462 
L 568.482353 105.018465 
L 538.941176 105.018465 
z
" style="fill:#ffffff;stroke:#000000;stroke-linejoin:miter;"/>
    </g>
    <g id="text_90">
     <!--   -->
     <g transform="translate(551.645983 124.90873)scale(0.13 -0.13)">
      <use xlink:href="#DejaVuSans-32"/>
     </g>
    </g>
    <g id="patch_88">
     <path d="M 568.482353 137.62462 
L 598.023529 137.62462 
L 598.023529 105.018465 
L 568.482353 105.018465 
z
" style="fill:#ffffff;stroke:#000000;stroke-linejoin:miter;"/>
    </g>
    <g id="text_91">
     <!--   -->
     <g transform="translate(581.18716 124.90873)scale(0.13 -0.13)">
      <use xlink:href="#DejaVuSans-32"/>
     </g>
    </g>
    <g id="patch_89">
     <path d="M 598.023529 137.62462 
L 627.564706 137.62462 
L 627.564706 105.018465 
L 598.023529 105.018465 
z
" style="fill:#ffffff;stroke:#000000;stroke-linejoin:miter;"/>
    </g>
    <g id="text_92">
     <!--   -->
     <g transform="translate(610.728336 124.90873)scale(0.13 -0.13)">
      <use xlink:href="#DejaVuSans-32"/>
     </g>
    </g>
    <g id="patch_90">
     <path d="M 627.564706 137.62462 
L 657.105882 137.62462 
L 657.105882 105.018465 
L 627.564706 105.018465 
z
" style="fill:#ffffff;stroke:#000000;stroke-linejoin:miter;"/>
    </g>
    <g id="text_93">
     <!--   -->
     <g transform="translate(640.269513 124.90873)scale(0.13 -0.13)">
      <use xlink:href="#DejaVuSans-32"/>
     </g>
    </g>
    <g id="patch_91">
     <path d="M 657.105882 137.62462 
L 686.647059 137.62462 
L 686.647059 105.018465 
L 657.105882 105.018465 
z
" style="fill:#ffffff;stroke:#000000;stroke-linejoin:miter;"/>
    </g>
    <g id="text_94">
     <!--   -->
     <g transform="translate(669.810689 124.90873)scale(0.13 -0.13)">
      <use xlink:href="#DejaVuSans-32"/>
     </g>
    </g>
    <g id="patch_92">
     <path d="M 509.4 170.230775 
L 538.941176 170.230775 
L 538.941176 137.62462 
L 509.4 137.62462 
z
" style="fill:#ffffff;stroke:#000000;stroke-linejoin:miter;"/>
    </g>
    <g id="text_95">
     <!--   -->
     <g transform="translate(522.104807 157.514885)scale(0.13 -0.13)">
      <use xlink:href="#DejaVuSans-32"/>
     </g>
    </g>
    <g id="patch_93">
     <path d="M 538.941176 170.230775 
L 568.482353 170.230775 
L 568.482353 137.62462 
L 538.941176 137.62462 
z
" style="fill:#ffffff;stroke:#000000;stroke-linejoin:miter;"/>
    </g>
    <g id="text_96">
     <!--   -->
     <g transform="translate(551.645983 157.514885)scale(0.13 -0.13)">
      <use xlink:href="#DejaVuSans-32"/>
     </g>
    </g>
    <g id="patch_94">
     <path d="M 568.482353 170.230775 
L 598.023529 170.230775 
L 598.023529 137.62462 
L 568.482353 137.62462 
z
" style="fill:#ffffff;stroke:#000000;stroke-linejoin:miter;"/>
    </g>
    <g id="text_97">
     <!--   -->
     <g transform="translate(581.18716 157.514885)scale(0.13 -0.13)">
      <use xlink:href="#DejaVuSans-32"/>
     </g>
    </g>
    <g id="patch_95">
     <path d="M 598.023529 170.230775 
L 627.564706 170.230775 
L 627.564706 137.62462 
L 598.023529 137.62462 
z
" style="fill:#ffffff;stroke:#000000;stroke-linejoin:miter;"/>
    </g>
    <g id="text_98">
     <!--   -->
     <g transform="translate(610.728336 157.514885)scale(0.13 -0.13)">
      <use xlink:href="#DejaVuSans-32"/>
     </g>
    </g>
    <g id="patch_96">
     <path d="M 627.564706 170.230775 
L 657.105882 170.230775 
L 657.105882 137.62462 
L 627.564706 137.62462 
z
" style="fill:#ffffff;stroke:#000000;stroke-linejoin:miter;"/>
    </g>
    <g id="text_99">
     <!--   -->
     <g transform="translate(640.269513 157.514885)scale(0.13 -0.13)">
      <use xlink:href="#DejaVuSans-32"/>
     </g>
    </g>
    <g id="patch_97">
     <path d="M 657.105882 170.230775 
L 686.647059 170.230775 
L 686.647059 137.62462 
L 657.105882 137.62462 
z
" style="fill:#ffffff;stroke:#000000;stroke-linejoin:miter;"/>
    </g>
    <g id="text_100">
     <!--   -->
     <g transform="translate(669.810689 157.514885)scale(0.13 -0.13)">
      <use xlink:href="#DejaVuSans-32"/>
     </g>
    </g>
    <g id="patch_98">
     <path d="M 509.4 202.83693 
L 538.941176 202.83693 
L 538.941176 170.230775 
L 509.4 170.230775 
z
" style="fill:#ffffff;stroke:#000000;stroke-linejoin:miter;"/>
    </g>
    <g id="text_101">
     <!--   -->
     <g transform="translate(522.104807 190.12104)scale(0.13 -0.13)">
      <use xlink:href="#DejaVuSans-32"/>
     </g>
    </g>
    <g id="patch_99">
     <path d="M 538.941176 202.83693 
L 568.482353 202.83693 
L 568.482353 170.230775 
L 538.941176 170.230775 
z
" style="fill:#ffffff;stroke:#000000;stroke-linejoin:miter;"/>
    </g>
    <g id="text_102">
     <!--   -->
     <g transform="translate(551.645983 190.12104)scale(0.13 -0.13)">
      <use xlink:href="#DejaVuSans-32"/>
     </g>
    </g>
    <g id="patch_100">
     <path d="M 568.482353 202.83693 
L 598.023529 202.83693 
L 598.023529 170.230775 
L 568.482353 170.230775 
z
" style="fill:#ffffff;stroke:#000000;stroke-linejoin:miter;"/>
    </g>
    <g id="text_103">
     <!--   -->
     <g transform="translate(581.18716 190.12104)scale(0.13 -0.13)">
      <use xlink:href="#DejaVuSans-32"/>
     </g>
    </g>
    <g id="patch_101">
     <path d="M 598.023529 202.83693 
L 627.564706 202.83693 
L 627.564706 170.230775 
L 598.023529 170.230775 
z
" style="fill:#ffffff;stroke:#000000;stroke-linejoin:miter;"/>
    </g>
    <g id="text_104">
     <!--   -->
     <g transform="translate(610.728336 190.12104)scale(0.13 -0.13)">
      <use xlink:href="#DejaVuSans-32"/>
     </g>
    </g>
    <g id="patch_102">
     <path d="M 627.564706 202.83693 
L 657.105882 202.83693 
L 657.105882 170.230775 
L 627.564706 170.230775 
z
" style="fill:#ffffff;stroke:#000000;stroke-linejoin:miter;"/>
    </g>
    <g id="text_105">
     <!--   -->
     <g transform="translate(640.269513 190.12104)scale(0.13 -0.13)">
      <use xlink:href="#DejaVuSans-32"/>
     </g>
    </g>
    <g id="patch_103">
     <path d="M 657.105882 202.83693 
L 686.647059 202.83693 
L 686.647059 170.230775 
L 657.105882 170.230775 
z
" style="fill:#ffffff;stroke:#000000;stroke-linejoin:miter;"/>
    </g>
    <g id="text_106">
     <!--   -->
     <g transform="translate(669.810689 190.12104)scale(0.13 -0.13)">
      <use xlink:href="#DejaVuSans-32"/>
     </g>
    </g>
    <g id="patch_104">
     <path d="M 509.4 235.443085 
L 538.941176 235.443085 
L 538.941176 202.83693 
L 509.4 202.83693 
z
" style="fill:#ffffff;stroke:#000000;stroke-linejoin:miter;"/>
    </g>
    <g id="text_107">
     <!--   -->
     <g transform="translate(522.104807 222.727195)scale(0.13 -0.13)">
      <use xlink:href="#DejaVuSans-32"/>
     </g>
    </g>
    <g id="patch_105">
     <path d="M 538.941176 235.443085 
L 568.482353 235.443085 
L 568.482353 202.83693 
L 538.941176 202.83693 
z
" style="fill:#ffffff;stroke:#000000;stroke-linejoin:miter;"/>
    </g>
    <g id="text_108">
     <!--   -->
     <g transform="translate(551.645983 222.727195)scale(0.13 -0.13)">
      <use xlink:href="#DejaVuSans-32"/>
     </g>
    </g>
    <g id="patch_106">
     <path d="M 568.482353 235.443085 
L 598.023529 235.443085 
L 598.023529 202.83693 
L 568.482353 202.83693 
z
" style="fill:#ffffff;stroke:#000000;stroke-linejoin:miter;"/>
    </g>
    <g id="text_109">
     <!--   -->
     <g transform="translate(581.18716 222.727195)scale(0.13 -0.13)">
      <use xlink:href="#DejaVuSans-32"/>
     </g>
    </g>
    <g id="patch_107">
     <path d="M 598.023529 235.443085 
L 627.564706 235.443085 
L 627.564706 202.83693 
L 598.023529 202.83693 
z
" style="fill:#ffffff;stroke:#000000;stroke-linejoin:miter;"/>
    </g>
    <g id="text_110">
     <!--   -->
     <g transform="translate(610.728336 222.727195)scale(0.13 -0.13)">
      <use xlink:href="#DejaVuSans-32"/>
     </g>
    </g>
    <g id="patch_108">
     <path d="M 627.564706 235.443085 
L 657.105882 235.443085 
L 657.105882 202.83693 
L 627.564706 202.83693 
z
" style="fill:#ffffff;stroke:#000000;stroke-linejoin:miter;"/>
    </g>
    <g id="text_111">
     <!--   -->
     <g transform="translate(640.269513 222.727195)scale(0.13 -0.13)">
      <use xlink:href="#DejaVuSans-32"/>
     </g>
    </g>
    <g id="patch_109">
     <path d="M 657.105882 235.443085 
L 686.647059 235.443085 
L 686.647059 202.83693 
L 657.105882 202.83693 
z
" style="fill:#ffffff;stroke:#000000;stroke-linejoin:miter;"/>
    </g>
    <g id="text_112">
     <!--   -->
     <g transform="translate(669.810689 222.727195)scale(0.13 -0.13)">
      <use xlink:href="#DejaVuSans-32"/>
     </g>
    </g>
   </g>
   <g id="text_113">
    <!-- = -->
    <g transform="translate(460.164706 141.763683)scale(0.15 -0.15)">
     <defs>
      <path d="M 10.59375 45.40625 
L 73.1875 45.40625 
L 73.1875 37.203125 
L 10.59375 37.203125 
z
M 10.59375 25.484375 
L 73.1875 25.484375 
L 73.1875 17.1875 
L 10.59375 17.1875 
z
" id="DejaVuSans-61"/>
     </defs>
     <use xlink:href="#DejaVuSans-61"/>
    </g>
   </g>
   <g id="text_114">
    <!-- $6\times 6 $ -->
    <g transform="translate(584.178529 285.361412)scale(0.13 -0.13)">
     <defs>
      <path d="M 25 -2.203125 
Q 18.796875 -2.203125 14.640625 1.09375 
Q 10.5 4.390625 8.21875 9.640625 
Q 5.953125 14.890625 5.078125 20.65625 
Q 4.203125 26.421875 4.203125 32.328125 
Q 4.203125 40.234375 7.28125 48.1875 
Q 10.359375 56.15625 16.328125 61.375 
Q 22.3125 66.609375 30.515625 66.609375 
Q 33.9375 66.609375 36.890625 65.3125 
Q 39.84375 64.015625 41.53125 61.5 
Q 43.21875 58.984375 43.21875 55.421875 
Q 43.21875 53.375 41.828125 51.984375 
Q 40.4375 50.59375 38.375 50.59375 
Q 36.421875 50.59375 35 52 
Q 33.59375 53.421875 33.59375 55.421875 
Q 33.59375 57.375 35 58.78125 
Q 36.421875 60.203125 38.375 60.203125 
L 38.921875 60.203125 
Q 37.640625 62.015625 35.328125 62.859375 
Q 33.015625 63.71875 30.515625 63.71875 
Q 27.484375 63.71875 24.921875 62.390625 
Q 22.359375 61.078125 20.3125 58.828125 
Q 18.265625 56.59375 16.890625 53.875 
Q 15.53125 51.171875 14.765625 47.703125 
Q 14.015625 44.234375 13.8125 41.203125 
Q 13.625 38.1875 13.625 33.59375 
Q 15.375 37.703125 18.59375 40.3125 
Q 21.828125 42.921875 25.875 42.921875 
Q 30.328125 42.921875 33.984375 41.109375 
Q 37.640625 39.3125 40.28125 36.109375 
Q 42.921875 32.90625 44.3125 28.796875 
Q 45.703125 24.703125 45.703125 20.515625 
Q 45.703125 14.65625 43.09375 9.34375 
Q 40.484375 4.046875 35.734375 0.921875 
Q 31 -2.203125 25 -2.203125 
z
M 25 0.984375 
Q 28.859375 0.984375 31.203125 2.734375 
Q 33.546875 4.5 34.640625 7.390625 
Q 35.75 10.296875 36.015625 13.25 
Q 36.28125 16.21875 36.28125 20.515625 
Q 36.28125 26.171875 35.734375 30.171875 
Q 35.203125 34.1875 32.8125 37.234375 
Q 30.421875 40.28125 25.484375 40.28125 
Q 21.4375 40.28125 18.828125 37.546875 
Q 16.21875 34.8125 15.015625 30.640625 
Q 13.8125 26.46875 13.8125 22.609375 
Q 13.8125 21.296875 13.921875 20.609375 
Q 13.921875 20.453125 13.890625 20.359375 
Q 13.875 20.265625 13.8125 20.125 
Q 13.8125 15.828125 14.6875 11.421875 
Q 15.578125 7.03125 18.0625 4 
Q 20.5625 0.984375 25 0.984375 
z
" id="Cmr10-54"/>
     </defs>
     <use transform="translate(0 0.390625)" xlink:href="#Cmr10-54"/>
     <use transform="translate(67.558594 0.390625)" xlink:href="#Cmsy10-163"/>
     <use transform="translate(162.802734 0.390625)" xlink:href="#Cmr10-54"/>
    </g>
    <!--  $(n+2p-f+1) \times (n+2p-f+1)$ -->
    <g transform="translate(500.783529 299.918569)scale(0.13 -0.13)">
     <defs>
      <path d="M 10.203125 23 
Q 9.375 23 8.828125 23.625 
Q 8.296875 24.265625 8.296875 25 
Q 8.296875 25.734375 8.828125 26.359375 
Q 9.375 27 10.203125 27 
L 67.578125 27 
Q 68.359375 27 68.875 26.359375 
Q 69.390625 25.734375 69.390625 25 
Q 69.390625 24.265625 68.875 23.625 
Q 68.359375 23 67.578125 23 
z
" id="Cmsy10-161"/>
      <path d="M 9.28125 0 
L 9.28125 3.515625 
Q 21.78125 3.515625 21.78125 6.6875 
L 21.78125 59.1875 
Q 16.609375 56.6875 8.6875 56.6875 
L 8.6875 60.203125 
Q 20.953125 60.203125 27.203125 66.609375 
L 28.609375 66.609375 
Q 28.953125 66.609375 29.265625 66.328125 
Q 29.59375 66.0625 29.59375 65.71875 
L 29.59375 6.6875 
Q 29.59375 3.515625 42.09375 3.515625 
L 42.09375 0 
z
" id="Cmr10-49"/>
     </defs>
     <use xlink:href="#DejaVuSans-32"/>
     <use transform="translate(31.787109 0)" xlink:href="#Cmr10-40"/>
     <use transform="translate(70.605469 0)" xlink:href="#Cmmi10-110"/>
     <use transform="translate(148.173828 0)" xlink:href="#Cmr10-43"/>
     <use transform="translate(243.417969 0)" xlink:href="#Cmr10-50"/>
     <use transform="translate(293.417969 0)" xlink:href="#Cmmi10-112"/>
     <use transform="translate(361.269531 0)" xlink:href="#Cmsy10-161"/>
     <use transform="translate(456.513672 0)" xlink:href="#Cmmi10-102"/>
     <use transform="translate(522.949219 0)" xlink:href="#Cmr10-43"/>
     <use transform="translate(618.193359 0)" xlink:href="#Cmr10-49"/>
     <use transform="translate(668.193359 0)" xlink:href="#Cmr10-41"/>
     <use transform="translate(724.570312 0)" xlink:href="#Cmsy10-163"/>
     <use transform="translate(819.814453 0)" xlink:href="#Cmr10-40"/>
     <use transform="translate(858.632812 0)" xlink:href="#Cmmi10-110"/>
     <use transform="translate(936.201172 0)" xlink:href="#Cmr10-43"/>
     <use transform="translate(1031.445312 0)" xlink:href="#Cmr10-50"/>
     <use transform="translate(1081.445312 0)" xlink:href="#Cmmi10-112"/>
     <use transform="translate(1149.296875 0)" xlink:href="#Cmsy10-161"/>
     <use transform="translate(1244.541016 0)" xlink:href="#Cmmi10-102"/>
     <use transform="translate(1310.976562 0)" xlink:href="#Cmr10-43"/>
     <use transform="translate(1406.220703 0)" xlink:href="#Cmr10-49"/>
     <use transform="translate(1456.220703 0)" xlink:href="#Cmr10-41"/>
    </g>
   </g>
  </g>
 </g>
</svg>
