<?xml version="1.0" encoding="utf-8" standalone="no"?>
<!DOCTYPE svg PUBLIC "-//W3C//DTD SVG 1.1//EN"
  "http://www.w3.org/Graphics/SVG/1.1/DTD/svg11.dtd">
<!-- Created with matplotlib (https://matplotlib.org/) -->
<svg height="484.630884pt" version="1.1" viewBox="0 0 703.694118 484.630884" width="703.694118pt" xmlns="http://www.w3.org/2000/svg" xmlns:xlink="http://www.w3.org/1999/xlink">
 <metadata>
  <rdf:RDF xmlns:cc="http://creativecommons.org/ns#" xmlns:dc="http://purl.org/dc/elements/1.1/" xmlns:rdf="http://www.w3.org/1999/02/22-rdf-syntax-ns#">
   <cc:Work>
    <dc:type rdf:resource="http://purl.org/dc/dcmitype/StillImage"/>
    <dc:date>2021-04-14T08:39:39.249033</dc:date>
    <dc:format>image/svg+xml</dc:format>
    <dc:creator>
     <cc:Agent>
      <dc:title>Matplotlib v3.3.4, https://matplotlib.org/</dc:title>
     </cc:Agent>
    </dc:creator>
   </cc:Work>
  </rdf:RDF>
 </metadata>
 <defs>
  <style type="text/css">*{stroke-linecap:butt;stroke-linejoin:round;}</style>
 </defs>
 <g id="figure_1">
  <g id="axes_1">
   <g id="table_1">
    <g id="patch_1">
     <path d="M 36.741176 60.889759 
L 66.282353 60.889759 
L 66.282353 25.022988 
L 36.741176 25.022988 
z
" style="fill:#ffffff;stroke:#000000;stroke-linejoin:miter;"/>
    </g>
    <g id="text_1">
     <!-- 10 -->
     <g transform="translate(43.240515 46.543561)scale(0.13 -0.13)">
      <defs>
       <path d="M 12.40625 8.296875 
L 28.515625 8.296875 
L 28.515625 63.921875 
L 10.984375 60.40625 
L 10.984375 69.390625 
L 28.421875 72.90625 
L 38.28125 72.90625 
L 38.28125 8.296875 
L 54.390625 8.296875 
L 54.390625 0 
L 12.40625 0 
z
" id="DejaVuSans-49"/>
       <path d="M 31.78125 66.40625 
Q 24.171875 66.40625 20.328125 58.90625 
Q 16.5 51.421875 16.5 36.375 
Q 16.5 21.390625 20.328125 13.890625 
Q 24.171875 6.390625 31.78125 6.390625 
Q 39.453125 6.390625 43.28125 13.890625 
Q 47.125 21.390625 47.125 36.375 
Q 47.125 51.421875 43.28125 58.90625 
Q 39.453125 66.40625 31.78125 66.40625 
z
M 31.78125 74.21875 
Q 44.046875 74.21875 50.515625 64.515625 
Q 56.984375 54.828125 56.984375 36.375 
Q 56.984375 17.96875 50.515625 8.265625 
Q 44.046875 -1.421875 31.78125 -1.421875 
Q 19.53125 -1.421875 13.0625 8.265625 
Q 6.59375 17.96875 6.59375 36.375 
Q 6.59375 54.828125 13.0625 64.515625 
Q 19.53125 74.21875 31.78125 74.21875 
z
" id="DejaVuSans-48"/>
      </defs>
      <use xlink:href="#DejaVuSans-49"/>
      <use x="63.623047" xlink:href="#DejaVuSans-48"/>
     </g>
    </g>
    <g id="patch_2">
     <path d="M 66.282353 60.889759 
L 95.823529 60.889759 
L 95.823529 25.022988 
L 66.282353 25.022988 
z
" style="fill:#ffffff;stroke:#000000;stroke-linejoin:miter;"/>
    </g>
    <g id="text_2">
     <!-- 10 -->
     <g transform="translate(72.781691 46.543561)scale(0.13 -0.13)">
      <use xlink:href="#DejaVuSans-49"/>
      <use x="63.623047" xlink:href="#DejaVuSans-48"/>
     </g>
    </g>
    <g id="patch_3">
     <path d="M 95.823529 60.889759 
L 125.364706 60.889759 
L 125.364706 25.022988 
L 95.823529 25.022988 
z
" style="fill:#ffffff;stroke:#000000;stroke-linejoin:miter;"/>
    </g>
    <g id="text_3">
     <!-- 10 -->
     <g transform="translate(102.322868 46.543561)scale(0.13 -0.13)">
      <use xlink:href="#DejaVuSans-49"/>
      <use x="63.623047" xlink:href="#DejaVuSans-48"/>
     </g>
    </g>
    <g id="patch_4">
     <path d="M 125.364706 60.889759 
L 154.905882 60.889759 
L 154.905882 25.022988 
L 125.364706 25.022988 
z
" style="fill:#ffffff;stroke:#000000;stroke-linejoin:miter;"/>
    </g>
    <g id="text_4">
     <!-- 0 -->
     <g transform="translate(135.999669 46.543561)scale(0.13 -0.13)">
      <use xlink:href="#DejaVuSans-48"/>
     </g>
    </g>
    <g id="patch_5">
     <path d="M 154.905882 60.889759 
L 184.447059 60.889759 
L 184.447059 25.022988 
L 154.905882 25.022988 
z
" style="fill:#ffffff;stroke:#000000;stroke-linejoin:miter;"/>
    </g>
    <g id="text_5">
     <!-- 0 -->
     <g transform="translate(165.540846 46.543561)scale(0.13 -0.13)">
      <use xlink:href="#DejaVuSans-48"/>
     </g>
    </g>
    <g id="patch_6">
     <path d="M 184.447059 60.889759 
L 213.988235 60.889759 
L 213.988235 25.022988 
L 184.447059 25.022988 
z
" style="fill:#ffffff;stroke:#000000;stroke-linejoin:miter;"/>
    </g>
    <g id="text_6">
     <!-- 0 -->
     <g transform="translate(195.082022 46.543561)scale(0.13 -0.13)">
      <use xlink:href="#DejaVuSans-48"/>
     </g>
    </g>
    <g id="patch_7">
     <path d="M 36.741176 96.756529 
L 66.282353 96.756529 
L 66.282353 60.889759 
L 36.741176 60.889759 
z
" style="fill:#ffffff;stroke:#000000;stroke-linejoin:miter;"/>
    </g>
    <g id="text_7">
     <!-- 10 -->
     <g transform="translate(43.240515 82.410331)scale(0.13 -0.13)">
      <use xlink:href="#DejaVuSans-49"/>
      <use x="63.623047" xlink:href="#DejaVuSans-48"/>
     </g>
    </g>
    <g id="patch_8">
     <path d="M 66.282353 96.756529 
L 95.823529 96.756529 
L 95.823529 60.889759 
L 66.282353 60.889759 
z
" style="fill:#ffffff;stroke:#000000;stroke-linejoin:miter;"/>
    </g>
    <g id="text_8">
     <!-- 10 -->
     <g transform="translate(72.781691 82.410331)scale(0.13 -0.13)">
      <use xlink:href="#DejaVuSans-49"/>
      <use x="63.623047" xlink:href="#DejaVuSans-48"/>
     </g>
    </g>
    <g id="patch_9">
     <path d="M 95.823529 96.756529 
L 125.364706 96.756529 
L 125.364706 60.889759 
L 95.823529 60.889759 
z
" style="fill:#ffffff;stroke:#000000;stroke-linejoin:miter;"/>
    </g>
    <g id="text_9">
     <!-- 10 -->
     <g transform="translate(102.322868 82.410331)scale(0.13 -0.13)">
      <use xlink:href="#DejaVuSans-49"/>
      <use x="63.623047" xlink:href="#DejaVuSans-48"/>
     </g>
    </g>
    <g id="patch_10">
     <path d="M 125.364706 96.756529 
L 154.905882 96.756529 
L 154.905882 60.889759 
L 125.364706 60.889759 
z
" style="fill:#ffffff;stroke:#000000;stroke-linejoin:miter;"/>
    </g>
    <g id="text_10">
     <!-- 0 -->
     <g transform="translate(135.999669 82.410331)scale(0.13 -0.13)">
      <use xlink:href="#DejaVuSans-48"/>
     </g>
    </g>
    <g id="patch_11">
     <path d="M 154.905882 96.756529 
L 184.447059 96.756529 
L 184.447059 60.889759 
L 154.905882 60.889759 
z
" style="fill:#ffffff;stroke:#000000;stroke-linejoin:miter;"/>
    </g>
    <g id="text_11">
     <!-- 0 -->
     <g transform="translate(165.540846 82.410331)scale(0.13 -0.13)">
      <use xlink:href="#DejaVuSans-48"/>
     </g>
    </g>
    <g id="patch_12">
     <path d="M 184.447059 96.756529 
L 213.988235 96.756529 
L 213.988235 60.889759 
L 184.447059 60.889759 
z
" style="fill:#ffffff;stroke:#000000;stroke-linejoin:miter;"/>
    </g>
    <g id="text_12">
     <!-- 0 -->
     <g transform="translate(195.082022 82.410331)scale(0.13 -0.13)">
      <use xlink:href="#DejaVuSans-48"/>
     </g>
    </g>
    <g id="patch_13">
     <path d="M 36.741176 132.6233 
L 66.282353 132.6233 
L 66.282353 96.756529 
L 36.741176 96.756529 
z
" style="fill:#ffffff;stroke:#000000;stroke-linejoin:miter;"/>
    </g>
    <g id="text_13">
     <!-- 10 -->
     <g transform="translate(43.240515 118.277102)scale(0.13 -0.13)">
      <use xlink:href="#DejaVuSans-49"/>
      <use x="63.623047" xlink:href="#DejaVuSans-48"/>
     </g>
    </g>
    <g id="patch_14">
     <path d="M 66.282353 132.6233 
L 95.823529 132.6233 
L 95.823529 96.756529 
L 66.282353 96.756529 
z
" style="fill:#ffffff;stroke:#000000;stroke-linejoin:miter;"/>
    </g>
    <g id="text_14">
     <!-- 10 -->
     <g transform="translate(72.781691 118.277102)scale(0.13 -0.13)">
      <use xlink:href="#DejaVuSans-49"/>
      <use x="63.623047" xlink:href="#DejaVuSans-48"/>
     </g>
    </g>
    <g id="patch_15">
     <path d="M 95.823529 132.6233 
L 125.364706 132.6233 
L 125.364706 96.756529 
L 95.823529 96.756529 
z
" style="fill:#ffffff;stroke:#000000;stroke-linejoin:miter;"/>
    </g>
    <g id="text_15">
     <!-- 10 -->
     <g transform="translate(102.322868 118.277102)scale(0.13 -0.13)">
      <use xlink:href="#DejaVuSans-49"/>
      <use x="63.623047" xlink:href="#DejaVuSans-48"/>
     </g>
    </g>
    <g id="patch_16">
     <path d="M 125.364706 132.6233 
L 154.905882 132.6233 
L 154.905882 96.756529 
L 125.364706 96.756529 
z
" style="fill:#ffffff;stroke:#000000;stroke-linejoin:miter;"/>
    </g>
    <g id="text_16">
     <!-- 0 -->
     <g transform="translate(135.999669 118.277102)scale(0.13 -0.13)">
      <use xlink:href="#DejaVuSans-48"/>
     </g>
    </g>
    <g id="patch_17">
     <path d="M 154.905882 132.6233 
L 184.447059 132.6233 
L 184.447059 96.756529 
L 154.905882 96.756529 
z
" style="fill:#ffffff;stroke:#000000;stroke-linejoin:miter;"/>
    </g>
    <g id="text_17">
     <!-- 0 -->
     <g transform="translate(165.540846 118.277102)scale(0.13 -0.13)">
      <use xlink:href="#DejaVuSans-48"/>
     </g>
    </g>
    <g id="patch_18">
     <path d="M 184.447059 132.6233 
L 213.988235 132.6233 
L 213.988235 96.756529 
L 184.447059 96.756529 
z
" style="fill:#ffffff;stroke:#000000;stroke-linejoin:miter;"/>
    </g>
    <g id="text_18">
     <!-- 0 -->
     <g transform="translate(195.082022 118.277102)scale(0.13 -0.13)">
      <use xlink:href="#DejaVuSans-48"/>
     </g>
    </g>
    <g id="patch_19">
     <path d="M 36.741176 168.49007 
L 66.282353 168.49007 
L 66.282353 132.6233 
L 36.741176 132.6233 
z
" style="fill:#ffffff;stroke:#000000;stroke-linejoin:miter;"/>
    </g>
    <g id="text_19">
     <!-- 10 -->
     <g transform="translate(43.240515 154.143872)scale(0.13 -0.13)">
      <use xlink:href="#DejaVuSans-49"/>
      <use x="63.623047" xlink:href="#DejaVuSans-48"/>
     </g>
    </g>
    <g id="patch_20">
     <path d="M 66.282353 168.49007 
L 95.823529 168.49007 
L 95.823529 132.6233 
L 66.282353 132.6233 
z
" style="fill:#ffffff;stroke:#000000;stroke-linejoin:miter;"/>
    </g>
    <g id="text_20">
     <!-- 10 -->
     <g transform="translate(72.781691 154.143872)scale(0.13 -0.13)">
      <use xlink:href="#DejaVuSans-49"/>
      <use x="63.623047" xlink:href="#DejaVuSans-48"/>
     </g>
    </g>
    <g id="patch_21">
     <path d="M 95.823529 168.49007 
L 125.364706 168.49007 
L 125.364706 132.6233 
L 95.823529 132.6233 
z
" style="fill:#ffffff;stroke:#000000;stroke-linejoin:miter;"/>
    </g>
    <g id="text_21">
     <!-- 10 -->
     <g transform="translate(102.322868 154.143872)scale(0.13 -0.13)">
      <use xlink:href="#DejaVuSans-49"/>
      <use x="63.623047" xlink:href="#DejaVuSans-48"/>
     </g>
    </g>
    <g id="patch_22">
     <path d="M 125.364706 168.49007 
L 154.905882 168.49007 
L 154.905882 132.6233 
L 125.364706 132.6233 
z
" style="fill:#ffffff;stroke:#000000;stroke-linejoin:miter;"/>
    </g>
    <g id="text_22">
     <!-- 0 -->
     <g transform="translate(135.999669 154.143872)scale(0.13 -0.13)">
      <use xlink:href="#DejaVuSans-48"/>
     </g>
    </g>
    <g id="patch_23">
     <path d="M 154.905882 168.49007 
L 184.447059 168.49007 
L 184.447059 132.6233 
L 154.905882 132.6233 
z
" style="fill:#ffffff;stroke:#000000;stroke-linejoin:miter;"/>
    </g>
    <g id="text_23">
     <!-- 0 -->
     <g transform="translate(165.540846 154.143872)scale(0.13 -0.13)">
      <use xlink:href="#DejaVuSans-48"/>
     </g>
    </g>
    <g id="patch_24">
     <path d="M 184.447059 168.49007 
L 213.988235 168.49007 
L 213.988235 132.6233 
L 184.447059 132.6233 
z
" style="fill:#ffffff;stroke:#000000;stroke-linejoin:miter;"/>
    </g>
    <g id="text_24">
     <!-- 0 -->
     <g transform="translate(195.082022 154.143872)scale(0.13 -0.13)">
      <use xlink:href="#DejaVuSans-48"/>
     </g>
    </g>
    <g id="patch_25">
     <path d="M 36.741176 204.356841 
L 66.282353 204.356841 
L 66.282353 168.49007 
L 36.741176 168.49007 
z
" style="fill:#ffffff;stroke:#000000;stroke-linejoin:miter;"/>
    </g>
    <g id="text_25">
     <!-- 10 -->
     <g transform="translate(43.240515 190.010643)scale(0.13 -0.13)">
      <use xlink:href="#DejaVuSans-49"/>
      <use x="63.623047" xlink:href="#DejaVuSans-48"/>
     </g>
    </g>
    <g id="patch_26">
     <path d="M 66.282353 204.356841 
L 95.823529 204.356841 
L 95.823529 168.49007 
L 66.282353 168.49007 
z
" style="fill:#ffffff;stroke:#000000;stroke-linejoin:miter;"/>
    </g>
    <g id="text_26">
     <!-- 10 -->
     <g transform="translate(72.781691 190.010643)scale(0.13 -0.13)">
      <use xlink:href="#DejaVuSans-49"/>
      <use x="63.623047" xlink:href="#DejaVuSans-48"/>
     </g>
    </g>
    <g id="patch_27">
     <path d="M 95.823529 204.356841 
L 125.364706 204.356841 
L 125.364706 168.49007 
L 95.823529 168.49007 
z
" style="fill:#ffffff;stroke:#000000;stroke-linejoin:miter;"/>
    </g>
    <g id="text_27">
     <!-- 10 -->
     <g transform="translate(102.322868 190.010643)scale(0.13 -0.13)">
      <use xlink:href="#DejaVuSans-49"/>
      <use x="63.623047" xlink:href="#DejaVuSans-48"/>
     </g>
    </g>
    <g id="patch_28">
     <path d="M 125.364706 204.356841 
L 154.905882 204.356841 
L 154.905882 168.49007 
L 125.364706 168.49007 
z
" style="fill:#ffffff;stroke:#000000;stroke-linejoin:miter;"/>
    </g>
    <g id="text_28">
     <!-- 0 -->
     <g transform="translate(135.999669 190.010643)scale(0.13 -0.13)">
      <use xlink:href="#DejaVuSans-48"/>
     </g>
    </g>
    <g id="patch_29">
     <path d="M 154.905882 204.356841 
L 184.447059 204.356841 
L 184.447059 168.49007 
L 154.905882 168.49007 
z
" style="fill:#ffffff;stroke:#000000;stroke-linejoin:miter;"/>
    </g>
    <g id="text_29">
     <!-- 0 -->
     <g transform="translate(165.540846 190.010643)scale(0.13 -0.13)">
      <use xlink:href="#DejaVuSans-48"/>
     </g>
    </g>
    <g id="patch_30">
     <path d="M 184.447059 204.356841 
L 213.988235 204.356841 
L 213.988235 168.49007 
L 184.447059 168.49007 
z
" style="fill:#ffffff;stroke:#000000;stroke-linejoin:miter;"/>
    </g>
    <g id="text_30">
     <!-- 0 -->
     <g transform="translate(195.082022 190.010643)scale(0.13 -0.13)">
      <use xlink:href="#DejaVuSans-48"/>
     </g>
    </g>
    <g id="patch_31">
     <path d="M 36.741176 240.223611 
L 66.282353 240.223611 
L 66.282353 204.356841 
L 36.741176 204.356841 
z
" style="fill:#ffffff;stroke:#000000;stroke-linejoin:miter;"/>
    </g>
    <g id="text_31">
     <!-- 10 -->
     <g transform="translate(43.240515 225.877414)scale(0.13 -0.13)">
      <use xlink:href="#DejaVuSans-49"/>
      <use x="63.623047" xlink:href="#DejaVuSans-48"/>
     </g>
    </g>
    <g id="patch_32">
     <path d="M 66.282353 240.223611 
L 95.823529 240.223611 
L 95.823529 204.356841 
L 66.282353 204.356841 
z
" style="fill:#ffffff;stroke:#000000;stroke-linejoin:miter;"/>
    </g>
    <g id="text_32">
     <!-- 10 -->
     <g transform="translate(72.781691 225.877414)scale(0.13 -0.13)">
      <use xlink:href="#DejaVuSans-49"/>
      <use x="63.623047" xlink:href="#DejaVuSans-48"/>
     </g>
    </g>
    <g id="patch_33">
     <path d="M 95.823529 240.223611 
L 125.364706 240.223611 
L 125.364706 204.356841 
L 95.823529 204.356841 
z
" style="fill:#ffffff;stroke:#000000;stroke-linejoin:miter;"/>
    </g>
    <g id="text_33">
     <!-- 10 -->
     <g transform="translate(102.322868 225.877414)scale(0.13 -0.13)">
      <use xlink:href="#DejaVuSans-49"/>
      <use x="63.623047" xlink:href="#DejaVuSans-48"/>
     </g>
    </g>
    <g id="patch_34">
     <path d="M 125.364706 240.223611 
L 154.905882 240.223611 
L 154.905882 204.356841 
L 125.364706 204.356841 
z
" style="fill:#ffffff;stroke:#000000;stroke-linejoin:miter;"/>
    </g>
    <g id="text_34">
     <!-- 0 -->
     <g transform="translate(135.999669 225.877414)scale(0.13 -0.13)">
      <use xlink:href="#DejaVuSans-48"/>
     </g>
    </g>
    <g id="patch_35">
     <path d="M 154.905882 240.223611 
L 184.447059 240.223611 
L 184.447059 204.356841 
L 154.905882 204.356841 
z
" style="fill:#ffffff;stroke:#000000;stroke-linejoin:miter;"/>
    </g>
    <g id="text_35">
     <!-- 0 -->
     <g transform="translate(165.540846 225.877414)scale(0.13 -0.13)">
      <use xlink:href="#DejaVuSans-48"/>
     </g>
    </g>
    <g id="patch_36">
     <path d="M 184.447059 240.223611 
L 213.988235 240.223611 
L 213.988235 204.356841 
L 184.447059 204.356841 
z
" style="fill:#ffffff;stroke:#000000;stroke-linejoin:miter;"/>
    </g>
    <g id="text_36">
     <!-- 0 -->
     <g transform="translate(195.082022 225.877414)scale(0.13 -0.13)">
      <use xlink:href="#DejaVuSans-48"/>
     </g>
    </g>
   </g>
   <g id="text_37">
    <!-- A -->
    <g transform="translate(7.2 18.597656)scale(0.15 -0.15)">
     <defs>
      <path d="M 34.1875 63.1875 
L 20.796875 26.90625 
L 47.609375 26.90625 
z
M 28.609375 72.90625 
L 39.796875 72.90625 
L 67.578125 0 
L 57.328125 0 
L 50.6875 18.703125 
L 17.828125 18.703125 
L 11.1875 0 
L 0.78125 0 
z
" id="DejaVuSans-65"/>
     </defs>
     <use xlink:href="#DejaVuSans-65"/>
    </g>
   </g>
  </g>
  <g id="axes_2">
   <g id="table_2">
    <g id="patch_37">
     <path d="M 317.382353 114.689914 
L 346.923529 114.689914 
L 346.923529 78.823144 
L 317.382353 78.823144 
z
" style="fill:#ffffff;stroke:#000000;stroke-linejoin:miter;"/>
    </g>
    <g id="text_38">
     <!-- 1 -->
     <g transform="translate(328.017316 100.343717)scale(0.13 -0.13)">
      <use xlink:href="#DejaVuSans-49"/>
     </g>
    </g>
    <g id="patch_38">
     <path d="M 346.923529 114.689914 
L 376.464706 114.689914 
L 376.464706 78.823144 
L 346.923529 78.823144 
z
" style="fill:#ffffff;stroke:#000000;stroke-linejoin:miter;"/>
    </g>
    <g id="text_39">
     <!-- 0 -->
     <g transform="translate(357.558493 100.343717)scale(0.13 -0.13)">
      <use xlink:href="#DejaVuSans-48"/>
     </g>
    </g>
    <g id="patch_39">
     <path d="M 376.464706 114.689914 
L 406.005882 114.689914 
L 406.005882 78.823144 
L 376.464706 78.823144 
z
" style="fill:#ffffff;stroke:#000000;stroke-linejoin:miter;"/>
    </g>
    <g id="text_40">
     <!-- -1 -->
     <g transform="translate(384.754591 100.343717)scale(0.13 -0.13)">
      <defs>
       <path d="M 4.890625 31.390625 
L 31.203125 31.390625 
L 31.203125 23.390625 
L 4.890625 23.390625 
z
" id="DejaVuSans-45"/>
      </defs>
      <use xlink:href="#DejaVuSans-45"/>
      <use x="36.083984" xlink:href="#DejaVuSans-49"/>
     </g>
    </g>
    <g id="patch_40">
     <path d="M 317.382353 150.556685 
L 346.923529 150.556685 
L 346.923529 114.689914 
L 317.382353 114.689914 
z
" style="fill:#ffffff;stroke:#000000;stroke-linejoin:miter;"/>
    </g>
    <g id="text_41">
     <!-- 1 -->
     <g transform="translate(328.017316 136.210487)scale(0.13 -0.13)">
      <use xlink:href="#DejaVuSans-49"/>
     </g>
    </g>
    <g id="patch_41">
     <path d="M 346.923529 150.556685 
L 376.464706 150.556685 
L 376.464706 114.689914 
L 346.923529 114.689914 
z
" style="fill:#ffffff;stroke:#000000;stroke-linejoin:miter;"/>
    </g>
    <g id="text_42">
     <!-- 0 -->
     <g transform="translate(357.558493 136.210487)scale(0.13 -0.13)">
      <use xlink:href="#DejaVuSans-48"/>
     </g>
    </g>
    <g id="patch_42">
     <path d="M 376.464706 150.556685 
L 406.005882 150.556685 
L 406.005882 114.689914 
L 376.464706 114.689914 
z
" style="fill:#ffffff;stroke:#000000;stroke-linejoin:miter;"/>
    </g>
    <g id="text_43">
     <!-- -1 -->
     <g transform="translate(384.754591 136.210487)scale(0.13 -0.13)">
      <use xlink:href="#DejaVuSans-45"/>
      <use x="36.083984" xlink:href="#DejaVuSans-49"/>
     </g>
    </g>
    <g id="patch_43">
     <path d="M 317.382353 186.423455 
L 346.923529 186.423455 
L 346.923529 150.556685 
L 317.382353 150.556685 
z
" style="fill:#ffffff;stroke:#000000;stroke-linejoin:miter;"/>
    </g>
    <g id="text_44">
     <!-- 1 -->
     <g transform="translate(328.017316 172.077258)scale(0.13 -0.13)">
      <use xlink:href="#DejaVuSans-49"/>
     </g>
    </g>
    <g id="patch_44">
     <path d="M 346.923529 186.423455 
L 376.464706 186.423455 
L 376.464706 150.556685 
L 346.923529 150.556685 
z
" style="fill:#ffffff;stroke:#000000;stroke-linejoin:miter;"/>
    </g>
    <g id="text_45">
     <!-- 0 -->
     <g transform="translate(357.558493 172.077258)scale(0.13 -0.13)">
      <use xlink:href="#DejaVuSans-48"/>
     </g>
    </g>
    <g id="patch_45">
     <path d="M 376.464706 186.423455 
L 406.005882 186.423455 
L 406.005882 150.556685 
L 376.464706 150.556685 
z
" style="fill:#ffffff;stroke:#000000;stroke-linejoin:miter;"/>
    </g>
    <g id="text_46">
     <!-- -1 -->
     <g transform="translate(384.754591 172.077258)scale(0.13 -0.13)">
      <use xlink:href="#DejaVuSans-45"/>
      <use x="36.083984" xlink:href="#DejaVuSans-49"/>
     </g>
    </g>
   </g>
   <g id="text_47">
    <!-- * -->
    <g transform="translate(263.223529 136.762362)scale(0.15 -0.15)">
     <defs>
      <path d="M 47.015625 60.890625 
L 29.5 51.421875 
L 47.015625 41.890625 
L 44.1875 37.109375 
L 27.78125 47.015625 
L 27.78125 28.609375 
L 22.21875 28.609375 
L 22.21875 47.015625 
L 5.8125 37.109375 
L 2.984375 41.890625 
L 20.515625 51.421875 
L 2.984375 60.890625 
L 5.8125 65.71875 
L 22.21875 55.8125 
L 22.21875 74.21875 
L 27.78125 74.21875 
L 27.78125 55.8125 
L 44.1875 65.71875 
z
" id="DejaVuSans-42"/>
     </defs>
     <use xlink:href="#DejaVuSans-42"/>
    </g>
   </g>
  </g>
  <g id="axes_3">
   <g id="table_3">
    <g id="patch_46">
     <path d="M 538.941176 96.756529 
L 568.482353 96.756529 
L 568.482353 60.889759 
L 538.941176 60.889759 
z
" style="fill:#ffffff;stroke:#000000;stroke-linejoin:miter;"/>
    </g>
    <g id="text_48">
     <!-- 0 -->
     <g transform="translate(549.57614 82.410331)scale(0.13 -0.13)">
      <use xlink:href="#DejaVuSans-48"/>
     </g>
    </g>
    <g id="patch_47">
     <path d="M 568.482353 96.756529 
L 598.023529 96.756529 
L 598.023529 60.889759 
L 568.482353 60.889759 
z
" style="fill:#ffffff;stroke:#000000;stroke-linejoin:miter;"/>
    </g>
    <g id="text_49">
     <!-- 30 -->
     <g transform="translate(574.981691 82.410331)scale(0.13 -0.13)">
      <defs>
       <path d="M 40.578125 39.3125 
Q 47.65625 37.796875 51.625 33 
Q 55.609375 28.21875 55.609375 21.1875 
Q 55.609375 10.40625 48.1875 4.484375 
Q 40.765625 -1.421875 27.09375 -1.421875 
Q 22.515625 -1.421875 17.65625 -0.515625 
Q 12.796875 0.390625 7.625 2.203125 
L 7.625 11.71875 
Q 11.71875 9.328125 16.59375 8.109375 
Q 21.484375 6.890625 26.8125 6.890625 
Q 36.078125 6.890625 40.9375 10.546875 
Q 45.796875 14.203125 45.796875 21.1875 
Q 45.796875 27.640625 41.28125 31.265625 
Q 36.765625 34.90625 28.71875 34.90625 
L 20.21875 34.90625 
L 20.21875 43.015625 
L 29.109375 43.015625 
Q 36.375 43.015625 40.234375 45.921875 
Q 44.09375 48.828125 44.09375 54.296875 
Q 44.09375 59.90625 40.109375 62.90625 
Q 36.140625 65.921875 28.71875 65.921875 
Q 24.65625 65.921875 20.015625 65.03125 
Q 15.375 64.15625 9.8125 62.3125 
L 9.8125 71.09375 
Q 15.4375 72.65625 20.34375 73.4375 
Q 25.25 74.21875 29.59375 74.21875 
Q 40.828125 74.21875 47.359375 69.109375 
Q 53.90625 64.015625 53.90625 55.328125 
Q 53.90625 49.265625 50.4375 45.09375 
Q 46.96875 40.921875 40.578125 39.3125 
z
" id="DejaVuSans-51"/>
      </defs>
      <use xlink:href="#DejaVuSans-51"/>
      <use x="63.623047" xlink:href="#DejaVuSans-48"/>
     </g>
    </g>
    <g id="patch_48">
     <path d="M 598.023529 96.756529 
L 627.564706 96.756529 
L 627.564706 60.889759 
L 598.023529 60.889759 
z
" style="fill:#ffffff;stroke:#000000;stroke-linejoin:miter;"/>
    </g>
    <g id="text_50">
     <!-- 30 -->
     <g transform="translate(604.522868 82.410331)scale(0.13 -0.13)">
      <use xlink:href="#DejaVuSans-51"/>
      <use x="63.623047" xlink:href="#DejaVuSans-48"/>
     </g>
    </g>
    <g id="patch_49">
     <path d="M 627.564706 96.756529 
L 657.105882 96.756529 
L 657.105882 60.889759 
L 627.564706 60.889759 
z
" style="fill:#ffffff;stroke:#000000;stroke-linejoin:miter;"/>
    </g>
    <g id="text_51">
     <!-- 0 -->
     <g transform="translate(638.199669 82.410331)scale(0.13 -0.13)">
      <use xlink:href="#DejaVuSans-48"/>
     </g>
    </g>
    <g id="patch_50">
     <path d="M 538.941176 132.6233 
L 568.482353 132.6233 
L 568.482353 96.756529 
L 538.941176 96.756529 
z
" style="fill:#ffffff;stroke:#000000;stroke-linejoin:miter;"/>
    </g>
    <g id="text_52">
     <!-- 0 -->
     <g transform="translate(549.57614 118.277102)scale(0.13 -0.13)">
      <use xlink:href="#DejaVuSans-48"/>
     </g>
    </g>
    <g id="patch_51">
     <path d="M 568.482353 132.6233 
L 598.023529 132.6233 
L 598.023529 96.756529 
L 568.482353 96.756529 
z
" style="fill:#ffffff;stroke:#000000;stroke-linejoin:miter;"/>
    </g>
    <g id="text_53">
     <!-- 30 -->
     <g transform="translate(574.981691 118.277102)scale(0.13 -0.13)">
      <use xlink:href="#DejaVuSans-51"/>
      <use x="63.623047" xlink:href="#DejaVuSans-48"/>
     </g>
    </g>
    <g id="patch_52">
     <path d="M 598.023529 132.6233 
L 627.564706 132.6233 
L 627.564706 96.756529 
L 598.023529 96.756529 
z
" style="fill:#ffffff;stroke:#000000;stroke-linejoin:miter;"/>
    </g>
    <g id="text_54">
     <!-- 30 -->
     <g transform="translate(604.522868 118.277102)scale(0.13 -0.13)">
      <use xlink:href="#DejaVuSans-51"/>
      <use x="63.623047" xlink:href="#DejaVuSans-48"/>
     </g>
    </g>
    <g id="patch_53">
     <path d="M 627.564706 132.6233 
L 657.105882 132.6233 
L 657.105882 96.756529 
L 627.564706 96.756529 
z
" style="fill:#ffffff;stroke:#000000;stroke-linejoin:miter;"/>
    </g>
    <g id="text_55">
     <!-- 0 -->
     <g transform="translate(638.199669 118.277102)scale(0.13 -0.13)">
      <use xlink:href="#DejaVuSans-48"/>
     </g>
    </g>
    <g id="patch_54">
     <path d="M 538.941176 168.49007 
L 568.482353 168.49007 
L 568.482353 132.6233 
L 538.941176 132.6233 
z
" style="fill:#ffffff;stroke:#000000;stroke-linejoin:miter;"/>
    </g>
    <g id="text_56">
     <!-- 0 -->
     <g transform="translate(549.57614 154.143872)scale(0.13 -0.13)">
      <use xlink:href="#DejaVuSans-48"/>
     </g>
    </g>
    <g id="patch_55">
     <path d="M 568.482353 168.49007 
L 598.023529 168.49007 
L 598.023529 132.6233 
L 568.482353 132.6233 
z
" style="fill:#ffffff;stroke:#000000;stroke-linejoin:miter;"/>
    </g>
    <g id="text_57">
     <!-- 30 -->
     <g transform="translate(574.981691 154.143872)scale(0.13 -0.13)">
      <use xlink:href="#DejaVuSans-51"/>
      <use x="63.623047" xlink:href="#DejaVuSans-48"/>
     </g>
    </g>
    <g id="patch_56">
     <path d="M 598.023529 168.49007 
L 627.564706 168.49007 
L 627.564706 132.6233 
L 598.023529 132.6233 
z
" style="fill:#ffffff;stroke:#000000;stroke-linejoin:miter;"/>
    </g>
    <g id="text_58">
     <!-- 30 -->
     <g transform="translate(604.522868 154.143872)scale(0.13 -0.13)">
      <use xlink:href="#DejaVuSans-51"/>
      <use x="63.623047" xlink:href="#DejaVuSans-48"/>
     </g>
    </g>
    <g id="patch_57">
     <path d="M 627.564706 168.49007 
L 657.105882 168.49007 
L 657.105882 132.6233 
L 627.564706 132.6233 
z
" style="fill:#ffffff;stroke:#000000;stroke-linejoin:miter;"/>
    </g>
    <g id="text_59">
     <!-- 0 -->
     <g transform="translate(638.199669 154.143872)scale(0.13 -0.13)">
      <use xlink:href="#DejaVuSans-48"/>
     </g>
    </g>
    <g id="patch_58">
     <path d="M 538.941176 204.356841 
L 568.482353 204.356841 
L 568.482353 168.49007 
L 538.941176 168.49007 
z
" style="fill:#ffffff;stroke:#000000;stroke-linejoin:miter;"/>
    </g>
    <g id="text_60">
     <!-- 0 -->
     <g transform="translate(549.57614 190.010643)scale(0.13 -0.13)">
      <use xlink:href="#DejaVuSans-48"/>
     </g>
    </g>
    <g id="patch_59">
     <path d="M 568.482353 204.356841 
L 598.023529 204.356841 
L 598.023529 168.49007 
L 568.482353 168.49007 
z
" style="fill:#ffffff;stroke:#000000;stroke-linejoin:miter;"/>
    </g>
    <g id="text_61">
     <!-- 30 -->
     <g transform="translate(574.981691 190.010643)scale(0.13 -0.13)">
      <use xlink:href="#DejaVuSans-51"/>
      <use x="63.623047" xlink:href="#DejaVuSans-48"/>
     </g>
    </g>
    <g id="patch_60">
     <path d="M 598.023529 204.356841 
L 627.564706 204.356841 
L 627.564706 168.49007 
L 598.023529 168.49007 
z
" style="fill:#ffffff;stroke:#000000;stroke-linejoin:miter;"/>
    </g>
    <g id="text_62">
     <!-- 30 -->
     <g transform="translate(604.522868 190.010643)scale(0.13 -0.13)">
      <use xlink:href="#DejaVuSans-51"/>
      <use x="63.623047" xlink:href="#DejaVuSans-48"/>
     </g>
    </g>
    <g id="patch_61">
     <path d="M 627.564706 204.356841 
L 657.105882 204.356841 
L 657.105882 168.49007 
L 627.564706 168.49007 
z
" style="fill:#ffffff;stroke:#000000;stroke-linejoin:miter;"/>
    </g>
    <g id="text_63">
     <!-- 0 -->
     <g transform="translate(638.199669 190.010643)scale(0.13 -0.13)">
      <use xlink:href="#DejaVuSans-48"/>
     </g>
    </g>
   </g>
   <g id="text_64">
    <!-- = -->
    <g transform="translate(460.164706 136.762362)scale(0.15 -0.15)">
     <defs>
      <path d="M 10.59375 45.40625 
L 73.1875 45.40625 
L 73.1875 37.203125 
L 10.59375 37.203125 
z
M 10.59375 25.484375 
L 73.1875 25.484375 
L 73.1875 17.1875 
L 10.59375 17.1875 
z
" id="DejaVuSans-61"/>
     </defs>
     <use xlink:href="#DejaVuSans-61"/>
    </g>
   </g>
  </g>
  <g id="axes_4">
   <g id="table_4">
    <g id="patch_62">
     <path d="M 36.741176 298.097031 
L 66.282353 298.097031 
L 66.282353 262.230261 
L 36.741176 262.230261 
z
" style="fill:#ffffff;stroke:#000000;stroke-linejoin:miter;"/>
    </g>
    <g id="text_65">
     <!-- 0 -->
     <g transform="translate(47.37614 283.750833)scale(0.13 -0.13)">
      <use xlink:href="#DejaVuSans-48"/>
     </g>
    </g>
    <g id="patch_63">
     <path d="M 66.282353 298.097031 
L 95.823529 298.097031 
L 95.823529 262.230261 
L 66.282353 262.230261 
z
" style="fill:#ffffff;stroke:#000000;stroke-linejoin:miter;"/>
    </g>
    <g id="text_66">
     <!-- 0 -->
     <g transform="translate(76.917316 283.750833)scale(0.13 -0.13)">
      <use xlink:href="#DejaVuSans-48"/>
     </g>
    </g>
    <g id="patch_64">
     <path d="M 95.823529 298.097031 
L 125.364706 298.097031 
L 125.364706 262.230261 
L 95.823529 262.230261 
z
" style="fill:#ffffff;stroke:#000000;stroke-linejoin:miter;"/>
    </g>
    <g id="text_67">
     <!-- 0 -->
     <g transform="translate(106.458493 283.750833)scale(0.13 -0.13)">
      <use xlink:href="#DejaVuSans-48"/>
     </g>
    </g>
    <g id="patch_65">
     <path d="M 125.364706 298.097031 
L 154.905882 298.097031 
L 154.905882 262.230261 
L 125.364706 262.230261 
z
" style="fill:#ffffff;stroke:#000000;stroke-linejoin:miter;"/>
    </g>
    <g id="text_68">
     <!-- 10 -->
     <g transform="translate(131.864044 283.750833)scale(0.13 -0.13)">
      <use xlink:href="#DejaVuSans-49"/>
      <use x="63.623047" xlink:href="#DejaVuSans-48"/>
     </g>
    </g>
    <g id="patch_66">
     <path d="M 154.905882 298.097031 
L 184.447059 298.097031 
L 184.447059 262.230261 
L 154.905882 262.230261 
z
" style="fill:#ffffff;stroke:#000000;stroke-linejoin:miter;"/>
    </g>
    <g id="text_69">
     <!-- 10 -->
     <g transform="translate(161.405221 283.750833)scale(0.13 -0.13)">
      <use xlink:href="#DejaVuSans-49"/>
      <use x="63.623047" xlink:href="#DejaVuSans-48"/>
     </g>
    </g>
    <g id="patch_67">
     <path d="M 184.447059 298.097031 
L 213.988235 298.097031 
L 213.988235 262.230261 
L 184.447059 262.230261 
z
" style="fill:#ffffff;stroke:#000000;stroke-linejoin:miter;"/>
    </g>
    <g id="text_70">
     <!-- 10 -->
     <g transform="translate(190.946397 283.750833)scale(0.13 -0.13)">
      <use xlink:href="#DejaVuSans-49"/>
      <use x="63.623047" xlink:href="#DejaVuSans-48"/>
     </g>
    </g>
    <g id="patch_68">
     <path d="M 36.741176 333.963802 
L 66.282353 333.963802 
L 66.282353 298.097031 
L 36.741176 298.097031 
z
" style="fill:#ffffff;stroke:#000000;stroke-linejoin:miter;"/>
    </g>
    <g id="text_71">
     <!-- 0 -->
     <g transform="translate(47.37614 319.617604)scale(0.13 -0.13)">
      <use xlink:href="#DejaVuSans-48"/>
     </g>
    </g>
    <g id="patch_69">
     <path d="M 66.282353 333.963802 
L 95.823529 333.963802 
L 95.823529 298.097031 
L 66.282353 298.097031 
z
" style="fill:#ffffff;stroke:#000000;stroke-linejoin:miter;"/>
    </g>
    <g id="text_72">
     <!-- 0 -->
     <g transform="translate(76.917316 319.617604)scale(0.13 -0.13)">
      <use xlink:href="#DejaVuSans-48"/>
     </g>
    </g>
    <g id="patch_70">
     <path d="M 95.823529 333.963802 
L 125.364706 333.963802 
L 125.364706 298.097031 
L 95.823529 298.097031 
z
" style="fill:#ffffff;stroke:#000000;stroke-linejoin:miter;"/>
    </g>
    <g id="text_73">
     <!-- 0 -->
     <g transform="translate(106.458493 319.617604)scale(0.13 -0.13)">
      <use xlink:href="#DejaVuSans-48"/>
     </g>
    </g>
    <g id="patch_71">
     <path d="M 125.364706 333.963802 
L 154.905882 333.963802 
L 154.905882 298.097031 
L 125.364706 298.097031 
z
" style="fill:#ffffff;stroke:#000000;stroke-linejoin:miter;"/>
    </g>
    <g id="text_74">
     <!-- 10 -->
     <g transform="translate(131.864044 319.617604)scale(0.13 -0.13)">
      <use xlink:href="#DejaVuSans-49"/>
      <use x="63.623047" xlink:href="#DejaVuSans-48"/>
     </g>
    </g>
    <g id="patch_72">
     <path d="M 154.905882 333.963802 
L 184.447059 333.963802 
L 184.447059 298.097031 
L 154.905882 298.097031 
z
" style="fill:#ffffff;stroke:#000000;stroke-linejoin:miter;"/>
    </g>
    <g id="text_75">
     <!-- 10 -->
     <g transform="translate(161.405221 319.617604)scale(0.13 -0.13)">
      <use xlink:href="#DejaVuSans-49"/>
      <use x="63.623047" xlink:href="#DejaVuSans-48"/>
     </g>
    </g>
    <g id="patch_73">
     <path d="M 184.447059 333.963802 
L 213.988235 333.963802 
L 213.988235 298.097031 
L 184.447059 298.097031 
z
" style="fill:#ffffff;stroke:#000000;stroke-linejoin:miter;"/>
    </g>
    <g id="text_76">
     <!-- 10 -->
     <g transform="translate(190.946397 319.617604)scale(0.13 -0.13)">
      <use xlink:href="#DejaVuSans-49"/>
      <use x="63.623047" xlink:href="#DejaVuSans-48"/>
     </g>
    </g>
    <g id="patch_74">
     <path d="M 36.741176 369.830572 
L 66.282353 369.830572 
L 66.282353 333.963802 
L 36.741176 333.963802 
z
" style="fill:#ffffff;stroke:#000000;stroke-linejoin:miter;"/>
    </g>
    <g id="text_77">
     <!-- 0 -->
     <g transform="translate(47.37614 355.484375)scale(0.13 -0.13)">
      <use xlink:href="#DejaVuSans-48"/>
     </g>
    </g>
    <g id="patch_75">
     <path d="M 66.282353 369.830572 
L 95.823529 369.830572 
L 95.823529 333.963802 
L 66.282353 333.963802 
z
" style="fill:#ffffff;stroke:#000000;stroke-linejoin:miter;"/>
    </g>
    <g id="text_78">
     <!-- 0 -->
     <g transform="translate(76.917316 355.484375)scale(0.13 -0.13)">
      <use xlink:href="#DejaVuSans-48"/>
     </g>
    </g>
    <g id="patch_76">
     <path d="M 95.823529 369.830572 
L 125.364706 369.830572 
L 125.364706 333.963802 
L 95.823529 333.963802 
z
" style="fill:#ffffff;stroke:#000000;stroke-linejoin:miter;"/>
    </g>
    <g id="text_79">
     <!-- 0 -->
     <g transform="translate(106.458493 355.484375)scale(0.13 -0.13)">
      <use xlink:href="#DejaVuSans-48"/>
     </g>
    </g>
    <g id="patch_77">
     <path d="M 125.364706 369.830572 
L 154.905882 369.830572 
L 154.905882 333.963802 
L 125.364706 333.963802 
z
" style="fill:#ffffff;stroke:#000000;stroke-linejoin:miter;"/>
    </g>
    <g id="text_80">
     <!-- 10 -->
     <g transform="translate(131.864044 355.484375)scale(0.13 -0.13)">
      <use xlink:href="#DejaVuSans-49"/>
      <use x="63.623047" xlink:href="#DejaVuSans-48"/>
     </g>
    </g>
    <g id="patch_78">
     <path d="M 154.905882 369.830572 
L 184.447059 369.830572 
L 184.447059 333.963802 
L 154.905882 333.963802 
z
" style="fill:#ffffff;stroke:#000000;stroke-linejoin:miter;"/>
    </g>
    <g id="text_81">
     <!-- 10 -->
     <g transform="translate(161.405221 355.484375)scale(0.13 -0.13)">
      <use xlink:href="#DejaVuSans-49"/>
      <use x="63.623047" xlink:href="#DejaVuSans-48"/>
     </g>
    </g>
    <g id="patch_79">
     <path d="M 184.447059 369.830572 
L 213.988235 369.830572 
L 213.988235 333.963802 
L 184.447059 333.963802 
z
" style="fill:#ffffff;stroke:#000000;stroke-linejoin:miter;"/>
    </g>
    <g id="text_82">
     <!-- 10 -->
     <g transform="translate(190.946397 355.484375)scale(0.13 -0.13)">
      <use xlink:href="#DejaVuSans-49"/>
      <use x="63.623047" xlink:href="#DejaVuSans-48"/>
     </g>
    </g>
    <g id="patch_80">
     <path d="M 36.741176 405.697343 
L 66.282353 405.697343 
L 66.282353 369.830572 
L 36.741176 369.830572 
z
" style="fill:#ffffff;stroke:#000000;stroke-linejoin:miter;"/>
    </g>
    <g id="text_83">
     <!-- 0 -->
     <g transform="translate(47.37614 391.351145)scale(0.13 -0.13)">
      <use xlink:href="#DejaVuSans-48"/>
     </g>
    </g>
    <g id="patch_81">
     <path d="M 66.282353 405.697343 
L 95.823529 405.697343 
L 95.823529 369.830572 
L 66.282353 369.830572 
z
" style="fill:#ffffff;stroke:#000000;stroke-linejoin:miter;"/>
    </g>
    <g id="text_84">
     <!-- 0 -->
     <g transform="translate(76.917316 391.351145)scale(0.13 -0.13)">
      <use xlink:href="#DejaVuSans-48"/>
     </g>
    </g>
    <g id="patch_82">
     <path d="M 95.823529 405.697343 
L 125.364706 405.697343 
L 125.364706 369.830572 
L 95.823529 369.830572 
z
" style="fill:#ffffff;stroke:#000000;stroke-linejoin:miter;"/>
    </g>
    <g id="text_85">
     <!-- 0 -->
     <g transform="translate(106.458493 391.351145)scale(0.13 -0.13)">
      <use xlink:href="#DejaVuSans-48"/>
     </g>
    </g>
    <g id="patch_83">
     <path d="M 125.364706 405.697343 
L 154.905882 405.697343 
L 154.905882 369.830572 
L 125.364706 369.830572 
z
" style="fill:#ffffff;stroke:#000000;stroke-linejoin:miter;"/>
    </g>
    <g id="text_86">
     <!-- 10 -->
     <g transform="translate(131.864044 391.351145)scale(0.13 -0.13)">
      <use xlink:href="#DejaVuSans-49"/>
      <use x="63.623047" xlink:href="#DejaVuSans-48"/>
     </g>
    </g>
    <g id="patch_84">
     <path d="M 154.905882 405.697343 
L 184.447059 405.697343 
L 184.447059 369.830572 
L 154.905882 369.830572 
z
" style="fill:#ffffff;stroke:#000000;stroke-linejoin:miter;"/>
    </g>
    <g id="text_87">
     <!-- 10 -->
     <g transform="translate(161.405221 391.351145)scale(0.13 -0.13)">
      <use xlink:href="#DejaVuSans-49"/>
      <use x="63.623047" xlink:href="#DejaVuSans-48"/>
     </g>
    </g>
    <g id="patch_85">
     <path d="M 184.447059 405.697343 
L 213.988235 405.697343 
L 213.988235 369.830572 
L 184.447059 369.830572 
z
" style="fill:#ffffff;stroke:#000000;stroke-linejoin:miter;"/>
    </g>
    <g id="text_88">
     <!-- 10 -->
     <g transform="translate(190.946397 391.351145)scale(0.13 -0.13)">
      <use xlink:href="#DejaVuSans-49"/>
      <use x="63.623047" xlink:href="#DejaVuSans-48"/>
     </g>
    </g>
    <g id="patch_86">
     <path d="M 36.741176 441.564113 
L 66.282353 441.564113 
L 66.282353 405.697343 
L 36.741176 405.697343 
z
" style="fill:#ffffff;stroke:#000000;stroke-linejoin:miter;"/>
    </g>
    <g id="text_89">
     <!-- 0 -->
     <g transform="translate(47.37614 427.217916)scale(0.13 -0.13)">
      <use xlink:href="#DejaVuSans-48"/>
     </g>
    </g>
    <g id="patch_87">
     <path d="M 66.282353 441.564113 
L 95.823529 441.564113 
L 95.823529 405.697343 
L 66.282353 405.697343 
z
" style="fill:#ffffff;stroke:#000000;stroke-linejoin:miter;"/>
    </g>
    <g id="text_90">
     <!-- 0 -->
     <g transform="translate(76.917316 427.217916)scale(0.13 -0.13)">
      <use xlink:href="#DejaVuSans-48"/>
     </g>
    </g>
    <g id="patch_88">
     <path d="M 95.823529 441.564113 
L 125.364706 441.564113 
L 125.364706 405.697343 
L 95.823529 405.697343 
z
" style="fill:#ffffff;stroke:#000000;stroke-linejoin:miter;"/>
    </g>
    <g id="text_91">
     <!-- 0 -->
     <g transform="translate(106.458493 427.217916)scale(0.13 -0.13)">
      <use xlink:href="#DejaVuSans-48"/>
     </g>
    </g>
    <g id="patch_89">
     <path d="M 125.364706 441.564113 
L 154.905882 441.564113 
L 154.905882 405.697343 
L 125.364706 405.697343 
z
" style="fill:#ffffff;stroke:#000000;stroke-linejoin:miter;"/>
    </g>
    <g id="text_92">
     <!-- 10 -->
     <g transform="translate(131.864044 427.217916)scale(0.13 -0.13)">
      <use xlink:href="#DejaVuSans-49"/>
      <use x="63.623047" xlink:href="#DejaVuSans-48"/>
     </g>
    </g>
    <g id="patch_90">
     <path d="M 154.905882 441.564113 
L 184.447059 441.564113 
L 184.447059 405.697343 
L 154.905882 405.697343 
z
" style="fill:#ffffff;stroke:#000000;stroke-linejoin:miter;"/>
    </g>
    <g id="text_93">
     <!-- 10 -->
     <g transform="translate(161.405221 427.217916)scale(0.13 -0.13)">
      <use xlink:href="#DejaVuSans-49"/>
      <use x="63.623047" xlink:href="#DejaVuSans-48"/>
     </g>
    </g>
    <g id="patch_91">
     <path d="M 184.447059 441.564113 
L 213.988235 441.564113 
L 213.988235 405.697343 
L 184.447059 405.697343 
z
" style="fill:#ffffff;stroke:#000000;stroke-linejoin:miter;"/>
    </g>
    <g id="text_94">
     <!-- 10 -->
     <g transform="translate(190.946397 427.217916)scale(0.13 -0.13)">
      <use xlink:href="#DejaVuSans-49"/>
      <use x="63.623047" xlink:href="#DejaVuSans-48"/>
     </g>
    </g>
    <g id="patch_92">
     <path d="M 36.741176 477.430884 
L 66.282353 477.430884 
L 66.282353 441.564113 
L 36.741176 441.564113 
z
" style="fill:#ffffff;stroke:#000000;stroke-linejoin:miter;"/>
    </g>
    <g id="text_95">
     <!-- 0 -->
     <g transform="translate(47.37614 463.084686)scale(0.13 -0.13)">
      <use xlink:href="#DejaVuSans-48"/>
     </g>
    </g>
    <g id="patch_93">
     <path d="M 66.282353 477.430884 
L 95.823529 477.430884 
L 95.823529 441.564113 
L 66.282353 441.564113 
z
" style="fill:#ffffff;stroke:#000000;stroke-linejoin:miter;"/>
    </g>
    <g id="text_96">
     <!-- 0 -->
     <g transform="translate(76.917316 463.084686)scale(0.13 -0.13)">
      <use xlink:href="#DejaVuSans-48"/>
     </g>
    </g>
    <g id="patch_94">
     <path d="M 95.823529 477.430884 
L 125.364706 477.430884 
L 125.364706 441.564113 
L 95.823529 441.564113 
z
" style="fill:#ffffff;stroke:#000000;stroke-linejoin:miter;"/>
    </g>
    <g id="text_97">
     <!-- 0 -->
     <g transform="translate(106.458493 463.084686)scale(0.13 -0.13)">
      <use xlink:href="#DejaVuSans-48"/>
     </g>
    </g>
    <g id="patch_95">
     <path d="M 125.364706 477.430884 
L 154.905882 477.430884 
L 154.905882 441.564113 
L 125.364706 441.564113 
z
" style="fill:#ffffff;stroke:#000000;stroke-linejoin:miter;"/>
    </g>
    <g id="text_98">
     <!-- 10 -->
     <g transform="translate(131.864044 463.084686)scale(0.13 -0.13)">
      <use xlink:href="#DejaVuSans-49"/>
      <use x="63.623047" xlink:href="#DejaVuSans-48"/>
     </g>
    </g>
    <g id="patch_96">
     <path d="M 154.905882 477.430884 
L 184.447059 477.430884 
L 184.447059 441.564113 
L 154.905882 441.564113 
z
" style="fill:#ffffff;stroke:#000000;stroke-linejoin:miter;"/>
    </g>
    <g id="text_99">
     <!-- 10 -->
     <g transform="translate(161.405221 463.084686)scale(0.13 -0.13)">
      <use xlink:href="#DejaVuSans-49"/>
      <use x="63.623047" xlink:href="#DejaVuSans-48"/>
     </g>
    </g>
    <g id="patch_97">
     <path d="M 184.447059 477.430884 
L 213.988235 477.430884 
L 213.988235 441.564113 
L 184.447059 441.564113 
z
" style="fill:#ffffff;stroke:#000000;stroke-linejoin:miter;"/>
    </g>
    <g id="text_100">
     <!-- 10 -->
     <g transform="translate(190.946397 463.084686)scale(0.13 -0.13)">
      <use xlink:href="#DejaVuSans-49"/>
      <use x="63.623047" xlink:href="#DejaVuSans-48"/>
     </g>
    </g>
   </g>
   <g id="text_101">
    <!-- B -->
    <g transform="translate(7.2 255.804929)scale(0.15 -0.15)">
     <defs>
      <path d="M 19.671875 34.8125 
L 19.671875 8.109375 
L 35.5 8.109375 
Q 43.453125 8.109375 47.28125 11.40625 
Q 51.125 14.703125 51.125 21.484375 
Q 51.125 28.328125 47.28125 31.5625 
Q 43.453125 34.8125 35.5 34.8125 
z
M 19.671875 64.796875 
L 19.671875 42.828125 
L 34.28125 42.828125 
Q 41.5 42.828125 45.03125 45.53125 
Q 48.578125 48.25 48.578125 53.8125 
Q 48.578125 59.328125 45.03125 62.0625 
Q 41.5 64.796875 34.28125 64.796875 
z
M 9.8125 72.90625 
L 35.015625 72.90625 
Q 46.296875 72.90625 52.390625 68.21875 
Q 58.5 63.53125 58.5 54.890625 
Q 58.5 48.1875 55.375 44.234375 
Q 52.25 40.28125 46.1875 39.3125 
Q 53.46875 37.75 57.5 32.78125 
Q 61.53125 27.828125 61.53125 20.40625 
Q 61.53125 10.640625 54.890625 5.3125 
Q 48.25 0 35.984375 0 
L 9.8125 0 
z
" id="DejaVuSans-66"/>
     </defs>
     <use xlink:href="#DejaVuSans-66"/>
    </g>
   </g>
  </g>
  <g id="axes_5">
   <g id="table_5">
    <g id="patch_98">
     <path d="M 317.382353 351.897187 
L 346.923529 351.897187 
L 346.923529 316.030417 
L 317.382353 316.030417 
z
" style="fill:#ffffff;stroke:#000000;stroke-linejoin:miter;"/>
    </g>
    <g id="text_102">
     <!-- 1 -->
     <g transform="translate(328.017316 337.550989)scale(0.13 -0.13)">
      <use xlink:href="#DejaVuSans-49"/>
     </g>
    </g>
    <g id="patch_99">
     <path d="M 346.923529 351.897187 
L 376.464706 351.897187 
L 376.464706 316.030417 
L 346.923529 316.030417 
z
" style="fill:#ffffff;stroke:#000000;stroke-linejoin:miter;"/>
    </g>
    <g id="text_103">
     <!-- 0 -->
     <g transform="translate(357.558493 337.550989)scale(0.13 -0.13)">
      <use xlink:href="#DejaVuSans-48"/>
     </g>
    </g>
    <g id="patch_100">
     <path d="M 376.464706 351.897187 
L 406.005882 351.897187 
L 406.005882 316.030417 
L 376.464706 316.030417 
z
" style="fill:#ffffff;stroke:#000000;stroke-linejoin:miter;"/>
    </g>
    <g id="text_104">
     <!-- -1 -->
     <g transform="translate(384.754591 337.550989)scale(0.13 -0.13)">
      <use xlink:href="#DejaVuSans-45"/>
      <use x="36.083984" xlink:href="#DejaVuSans-49"/>
     </g>
    </g>
    <g id="patch_101">
     <path d="M 317.382353 387.763958 
L 346.923529 387.763958 
L 346.923529 351.897187 
L 317.382353 351.897187 
z
" style="fill:#ffffff;stroke:#000000;stroke-linejoin:miter;"/>
    </g>
    <g id="text_105">
     <!-- 1 -->
     <g transform="translate(328.017316 373.41776)scale(0.13 -0.13)">
      <use xlink:href="#DejaVuSans-49"/>
     </g>
    </g>
    <g id="patch_102">
     <path d="M 346.923529 387.763958 
L 376.464706 387.763958 
L 376.464706 351.897187 
L 346.923529 351.897187 
z
" style="fill:#ffffff;stroke:#000000;stroke-linejoin:miter;"/>
    </g>
    <g id="text_106">
     <!-- 0 -->
     <g transform="translate(357.558493 373.41776)scale(0.13 -0.13)">
      <use xlink:href="#DejaVuSans-48"/>
     </g>
    </g>
    <g id="patch_103">
     <path d="M 376.464706 387.763958 
L 406.005882 387.763958 
L 406.005882 351.897187 
L 376.464706 351.897187 
z
" style="fill:#ffffff;stroke:#000000;stroke-linejoin:miter;"/>
    </g>
    <g id="text_107">
     <!-- -1 -->
     <g transform="translate(384.754591 373.41776)scale(0.13 -0.13)">
      <use xlink:href="#DejaVuSans-45"/>
      <use x="36.083984" xlink:href="#DejaVuSans-49"/>
     </g>
    </g>
    <g id="patch_104">
     <path d="M 317.382353 423.630728 
L 346.923529 423.630728 
L 346.923529 387.763958 
L 317.382353 387.763958 
z
" style="fill:#ffffff;stroke:#000000;stroke-linejoin:miter;"/>
    </g>
    <g id="text_108">
     <!-- 1 -->
     <g transform="translate(328.017316 409.28453)scale(0.13 -0.13)">
      <use xlink:href="#DejaVuSans-49"/>
     </g>
    </g>
    <g id="patch_105">
     <path d="M 346.923529 423.630728 
L 376.464706 423.630728 
L 376.464706 387.763958 
L 346.923529 387.763958 
z
" style="fill:#ffffff;stroke:#000000;stroke-linejoin:miter;"/>
    </g>
    <g id="text_109">
     <!-- 0 -->
     <g transform="translate(357.558493 409.28453)scale(0.13 -0.13)">
      <use xlink:href="#DejaVuSans-48"/>
     </g>
    </g>
    <g id="patch_106">
     <path d="M 376.464706 423.630728 
L 406.005882 423.630728 
L 406.005882 387.763958 
L 376.464706 387.763958 
z
" style="fill:#ffffff;stroke:#000000;stroke-linejoin:miter;"/>
    </g>
    <g id="text_110">
     <!-- -1 -->
     <g transform="translate(384.754591 409.28453)scale(0.13 -0.13)">
      <use xlink:href="#DejaVuSans-45"/>
      <use x="36.083984" xlink:href="#DejaVuSans-49"/>
     </g>
    </g>
   </g>
   <g id="text_111">
    <!-- * -->
    <g transform="translate(263.223529 373.969635)scale(0.15 -0.15)">
     <use xlink:href="#DejaVuSans-42"/>
    </g>
   </g>
  </g>
  <g id="axes_6">
   <g id="table_6">
    <g id="patch_107">
     <path d="M 538.941176 333.963802 
L 568.482353 333.963802 
L 568.482353 298.097031 
L 538.941176 298.097031 
z
" style="fill:#ffffff;stroke:#000000;stroke-linejoin:miter;"/>
    </g>
    <g id="text_112">
     <!-- 0 -->
     <g transform="translate(549.57614 319.617604)scale(0.13 -0.13)">
      <use xlink:href="#DejaVuSans-48"/>
     </g>
    </g>
    <g id="patch_108">
     <path d="M 568.482353 333.963802 
L 598.023529 333.963802 
L 598.023529 298.097031 
L 568.482353 298.097031 
z
" style="fill:#ffffff;stroke:#000000;stroke-linejoin:miter;"/>
    </g>
    <g id="text_113">
     <!-- -30 -->
     <g transform="translate(572.636613 319.617604)scale(0.13 -0.13)">
      <use xlink:href="#DejaVuSans-45"/>
      <use x="36.083984" xlink:href="#DejaVuSans-51"/>
      <use x="99.707031" xlink:href="#DejaVuSans-48"/>
     </g>
    </g>
    <g id="patch_109">
     <path d="M 598.023529 333.963802 
L 627.564706 333.963802 
L 627.564706 298.097031 
L 598.023529 298.097031 
z
" style="fill:#ffffff;stroke:#000000;stroke-linejoin:miter;"/>
    </g>
    <g id="text_114">
     <!-- -30 -->
     <g transform="translate(602.17779 319.617604)scale(0.13 -0.13)">
      <use xlink:href="#DejaVuSans-45"/>
      <use x="36.083984" xlink:href="#DejaVuSans-51"/>
      <use x="99.707031" xlink:href="#DejaVuSans-48"/>
     </g>
    </g>
    <g id="patch_110">
     <path d="M 627.564706 333.963802 
L 657.105882 333.963802 
L 657.105882 298.097031 
L 627.564706 298.097031 
z
" style="fill:#ffffff;stroke:#000000;stroke-linejoin:miter;"/>
    </g>
    <g id="text_115">
     <!-- 0 -->
     <g transform="translate(638.199669 319.617604)scale(0.13 -0.13)">
      <use xlink:href="#DejaVuSans-48"/>
     </g>
    </g>
    <g id="patch_111">
     <path d="M 538.941176 369.830572 
L 568.482353 369.830572 
L 568.482353 333.963802 
L 538.941176 333.963802 
z
" style="fill:#ffffff;stroke:#000000;stroke-linejoin:miter;"/>
    </g>
    <g id="text_116">
     <!-- 0 -->
     <g transform="translate(549.57614 355.484375)scale(0.13 -0.13)">
      <use xlink:href="#DejaVuSans-48"/>
     </g>
    </g>
    <g id="patch_112">
     <path d="M 568.482353 369.830572 
L 598.023529 369.830572 
L 598.023529 333.963802 
L 568.482353 333.963802 
z
" style="fill:#ffffff;stroke:#000000;stroke-linejoin:miter;"/>
    </g>
    <g id="text_117">
     <!-- -30 -->
     <g transform="translate(572.636613 355.484375)scale(0.13 -0.13)">
      <use xlink:href="#DejaVuSans-45"/>
      <use x="36.083984" xlink:href="#DejaVuSans-51"/>
      <use x="99.707031" xlink:href="#DejaVuSans-48"/>
     </g>
    </g>
    <g id="patch_113">
     <path d="M 598.023529 369.830572 
L 627.564706 369.830572 
L 627.564706 333.963802 
L 598.023529 333.963802 
z
" style="fill:#ffffff;stroke:#000000;stroke-linejoin:miter;"/>
    </g>
    <g id="text_118">
     <!-- -30 -->
     <g transform="translate(602.17779 355.484375)scale(0.13 -0.13)">
      <use xlink:href="#DejaVuSans-45"/>
      <use x="36.083984" xlink:href="#DejaVuSans-51"/>
      <use x="99.707031" xlink:href="#DejaVuSans-48"/>
     </g>
    </g>
    <g id="patch_114">
     <path d="M 627.564706 369.830572 
L 657.105882 369.830572 
L 657.105882 333.963802 
L 627.564706 333.963802 
z
" style="fill:#ffffff;stroke:#000000;stroke-linejoin:miter;"/>
    </g>
    <g id="text_119">
     <!-- 0 -->
     <g transform="translate(638.199669 355.484375)scale(0.13 -0.13)">
      <use xlink:href="#DejaVuSans-48"/>
     </g>
    </g>
    <g id="patch_115">
     <path d="M 538.941176 405.697343 
L 568.482353 405.697343 
L 568.482353 369.830572 
L 538.941176 369.830572 
z
" style="fill:#ffffff;stroke:#000000;stroke-linejoin:miter;"/>
    </g>
    <g id="text_120">
     <!-- 0 -->
     <g transform="translate(549.57614 391.351145)scale(0.13 -0.13)">
      <use xlink:href="#DejaVuSans-48"/>
     </g>
    </g>
    <g id="patch_116">
     <path d="M 568.482353 405.697343 
L 598.023529 405.697343 
L 598.023529 369.830572 
L 568.482353 369.830572 
z
" style="fill:#ffffff;stroke:#000000;stroke-linejoin:miter;"/>
    </g>
    <g id="text_121">
     <!-- -30 -->
     <g transform="translate(572.636613 391.351145)scale(0.13 -0.13)">
      <use xlink:href="#DejaVuSans-45"/>
      <use x="36.083984" xlink:href="#DejaVuSans-51"/>
      <use x="99.707031" xlink:href="#DejaVuSans-48"/>
     </g>
    </g>
    <g id="patch_117">
     <path d="M 598.023529 405.697343 
L 627.564706 405.697343 
L 627.564706 369.830572 
L 598.023529 369.830572 
z
" style="fill:#ffffff;stroke:#000000;stroke-linejoin:miter;"/>
    </g>
    <g id="text_122">
     <!-- -30 -->
     <g transform="translate(602.17779 391.351145)scale(0.13 -0.13)">
      <use xlink:href="#DejaVuSans-45"/>
      <use x="36.083984" xlink:href="#DejaVuSans-51"/>
      <use x="99.707031" xlink:href="#DejaVuSans-48"/>
     </g>
    </g>
    <g id="patch_118">
     <path d="M 627.564706 405.697343 
L 657.105882 405.697343 
L 657.105882 369.830572 
L 627.564706 369.830572 
z
" style="fill:#ffffff;stroke:#000000;stroke-linejoin:miter;"/>
    </g>
    <g id="text_123">
     <!-- 0 -->
     <g transform="translate(638.199669 391.351145)scale(0.13 -0.13)">
      <use xlink:href="#DejaVuSans-48"/>
     </g>
    </g>
    <g id="patch_119">
     <path d="M 538.941176 441.564113 
L 568.482353 441.564113 
L 568.482353 405.697343 
L 538.941176 405.697343 
z
" style="fill:#ffffff;stroke:#000000;stroke-linejoin:miter;"/>
    </g>
    <g id="text_124">
     <!-- 0 -->
     <g transform="translate(549.57614 427.217916)scale(0.13 -0.13)">
      <use xlink:href="#DejaVuSans-48"/>
     </g>
    </g>
    <g id="patch_120">
     <path d="M 568.482353 441.564113 
L 598.023529 441.564113 
L 598.023529 405.697343 
L 568.482353 405.697343 
z
" style="fill:#ffffff;stroke:#000000;stroke-linejoin:miter;"/>
    </g>
    <g id="text_125">
     <!-- -30 -->
     <g transform="translate(572.636613 427.217916)scale(0.13 -0.13)">
      <use xlink:href="#DejaVuSans-45"/>
      <use x="36.083984" xlink:href="#DejaVuSans-51"/>
      <use x="99.707031" xlink:href="#DejaVuSans-48"/>
     </g>
    </g>
    <g id="patch_121">
     <path d="M 598.023529 441.564113 
L 627.564706 441.564113 
L 627.564706 405.697343 
L 598.023529 405.697343 
z
" style="fill:#ffffff;stroke:#000000;stroke-linejoin:miter;"/>
    </g>
    <g id="text_126">
     <!-- -30 -->
     <g transform="translate(602.17779 427.217916)scale(0.13 -0.13)">
      <use xlink:href="#DejaVuSans-45"/>
      <use x="36.083984" xlink:href="#DejaVuSans-51"/>
      <use x="99.707031" xlink:href="#DejaVuSans-48"/>
     </g>
    </g>
    <g id="patch_122">
     <path d="M 627.564706 441.564113 
L 657.105882 441.564113 
L 657.105882 405.697343 
L 627.564706 405.697343 
z
" style="fill:#ffffff;stroke:#000000;stroke-linejoin:miter;"/>
    </g>
    <g id="text_127">
     <!-- 0 -->
     <g transform="translate(638.199669 427.217916)scale(0.13 -0.13)">
      <use xlink:href="#DejaVuSans-48"/>
     </g>
    </g>
   </g>
   <g id="text_128">
    <!-- = -->
    <g transform="translate(460.164706 373.969635)scale(0.15 -0.15)">
     <use xlink:href="#DejaVuSans-61"/>
    </g>
   </g>
  </g>
 </g>
</svg>
