<?xml version="1.0" encoding="utf-8" standalone="no"?>
<!DOCTYPE svg PUBLIC "-//W3C//DTD SVG 1.1//EN"
  "http://www.w3.org/Graphics/SVG/1.1/DTD/svg11.dtd">
<!-- Created with matplotlib (https://matplotlib.org/) -->
<svg height="461.136491pt" version="1.1" viewBox="0 0 478.656 461.136491" width="478.656pt" xmlns="http://www.w3.org/2000/svg" xmlns:xlink="http://www.w3.org/1999/xlink">
 <metadata>
  <rdf:RDF xmlns:cc="http://creativecommons.org/ns#" xmlns:dc="http://purl.org/dc/elements/1.1/" xmlns:rdf="http://www.w3.org/1999/02/22-rdf-syntax-ns#">
   <cc:Work>
    <dc:type rdf:resource="http://purl.org/dc/dcmitype/StillImage"/>
    <dc:date>2021-04-27T08:35:29.310324</dc:date>
    <dc:format>image/svg+xml</dc:format>
    <dc:creator>
     <cc:Agent>
      <dc:title>Matplotlib v3.3.4, https://matplotlib.org/</dc:title>
     </cc:Agent>
    </dc:creator>
   </cc:Work>
  </rdf:RDF>
 </metadata>
 <defs>
  <style type="text/css">*{stroke-linecap:butt;stroke-linejoin:round;}</style>
 </defs>
 <g id="figure_1">
  <g id="patch_1">
   <path d="M 0 461.136491 
L 478.656 461.136491 
L 478.656 0 
L 0 0 
z
" style="fill:none;"/>
  </g>
  <g id="patch_2">
   <path d="M 27.674182 235.277812 
L 225.346909 235.277812 
L 225.346909 37.605085 
L 27.674182 37.605085 
z
" style="fill:#ffffff;"/>
  </g>
  <g id="axes_1">
   <g id="Poly3DCollection_1">
    <path clip-path="url(#p913691f641)" d="M 81.117177 192.251444 
L 78.422835 193.237681 
L 77.309016 61.571185 
L 80.066769 61.098718 
z
" style="fill:#0d324b;"/>
    <path clip-path="url(#p913691f641)" d="M 185.563969 207.761912 
L 78.422835 193.237681 
L 81.117177 192.251444 
L 187.964356 206.656968 
z
" style="fill:#113f60;"/>
    <path clip-path="url(#p913691f641)" d="M 81.117177 192.251444 
L 80.066769 61.098718 
L 189.325688 68.008042 
L 187.964356 206.656968 
z
" style="fill:#1b699f;"/>
    <path clip-path="url(#p913691f641)" d="M 189.325688 68.008042 
L 80.066769 61.098718 
L 77.309016 61.571185 
L 186.875362 68.538735 
z
" style="fill:#185b8a;"/>
    <path clip-path="url(#p913691f641)" d="M 189.325688 68.008042 
L 186.875362 68.538735 
L 185.563969 207.761912 
L 187.964356 206.656968 
z
" style="fill:#1b699f;"/>
   </g>
   <g id="text_1">
    <!-- $ 32 \times 32 \times 3$ -->
    <g transform="translate(95.570545 245.155781)scale(0.13 -0.13)">
     <defs>
      <path d="M 9.515625 7.71875 
Q 11.859375 4.296875 15.8125 2.640625 
Q 19.78125 0.984375 24.3125 0.984375 
Q 30.125 0.984375 32.5625 5.9375 
Q 35.015625 10.890625 35.015625 17.1875 
Q 35.015625 20.015625 34.5 22.84375 
Q 33.984375 25.6875 32.765625 28.125 
Q 31.546875 30.5625 29.421875 32.03125 
Q 27.296875 33.5 24.21875 33.5 
L 17.578125 33.5 
Q 16.703125 33.5 16.703125 34.421875 
L 16.703125 35.296875 
Q 16.703125 36.078125 17.578125 36.078125 
L 23.09375 36.53125 
Q 26.609375 36.53125 28.921875 39.15625 
Q 31.25 41.796875 32.328125 45.578125 
Q 33.40625 49.359375 33.40625 52.78125 
Q 33.40625 57.5625 31.15625 60.640625 
Q 28.90625 63.71875 24.3125 63.71875 
Q 20.515625 63.71875 17.046875 62.28125 
Q 13.578125 60.84375 11.53125 57.90625 
Q 11.71875 57.953125 11.859375 57.984375 
Q 12.015625 58.015625 12.203125 58.015625 
Q 14.453125 58.015625 15.96875 56.453125 
Q 17.484375 54.890625 17.484375 52.6875 
Q 17.484375 50.53125 15.96875 48.96875 
Q 14.453125 47.40625 12.203125 47.40625 
Q 10.015625 47.40625 8.453125 48.96875 
Q 6.890625 50.53125 6.890625 52.6875 
Q 6.890625 56.984375 9.46875 60.15625 
Q 12.0625 63.328125 16.140625 64.96875 
Q 20.21875 66.609375 24.3125 66.609375 
Q 27.34375 66.609375 30.703125 65.703125 
Q 34.078125 64.796875 36.8125 63.109375 
Q 39.546875 61.421875 41.28125 58.78125 
Q 43.015625 56.15625 43.015625 52.78125 
Q 43.015625 48.578125 41.140625 45.015625 
Q 39.265625 41.453125 35.984375 38.859375 
Q 32.71875 36.28125 28.8125 35.015625 
Q 33.15625 34.1875 37.0625 31.734375 
Q 40.96875 29.296875 43.328125 25.484375 
Q 45.703125 21.6875 45.703125 17.28125 
Q 45.703125 11.765625 42.671875 7.296875 
Q 39.65625 2.828125 34.71875 0.3125 
Q 29.78125 -2.203125 24.3125 -2.203125 
Q 19.625 -2.203125 14.90625 -0.40625 
Q 10.203125 1.375 7.203125 4.9375 
Q 4.203125 8.5 4.203125 13.484375 
Q 4.203125 15.96875 5.859375 17.625 
Q 7.515625 19.28125 10.015625 19.28125 
Q 11.625 19.28125 12.96875 18.53125 
Q 14.3125 17.78125 15.0625 16.40625 
Q 15.828125 15.046875 15.828125 13.484375 
Q 15.828125 11.03125 14.109375 9.375 
Q 12.40625 7.71875 10.015625 7.71875 
z
" id="Cmr10-51"/>
      <path d="M 4.984375 0 
L 4.984375 2.6875 
Q 4.984375 2.9375 5.171875 3.21875 
L 20.703125 20.40625 
Q 24.21875 24.21875 26.40625 26.796875 
Q 28.609375 29.390625 30.75 32.765625 
Q 32.90625 36.140625 34.15625 39.625 
Q 35.40625 43.109375 35.40625 47.015625 
Q 35.40625 51.125 33.890625 54.859375 
Q 32.375 58.59375 29.375 60.84375 
Q 26.375 63.09375 22.125 63.09375 
Q 17.78125 63.09375 14.3125 60.46875 
Q 10.84375 57.859375 9.421875 53.71875 
Q 9.8125 53.8125 10.5 53.8125 
Q 12.75 53.8125 14.328125 52.296875 
Q 15.921875 50.78125 15.921875 48.390625 
Q 15.921875 46.09375 14.328125 44.5 
Q 12.75 42.921875 10.5 42.921875 
Q 8.15625 42.921875 6.5625 44.546875 
Q 4.984375 46.1875 4.984375 48.390625 
Q 4.984375 52.15625 6.390625 55.4375 
Q 7.8125 58.734375 10.46875 61.296875 
Q 13.140625 63.875 16.484375 65.234375 
Q 19.828125 66.609375 23.578125 66.609375 
Q 29.296875 66.609375 34.21875 64.1875 
Q 39.15625 61.765625 42.03125 57.34375 
Q 44.921875 52.9375 44.921875 47.015625 
Q 44.921875 42.671875 43.015625 38.765625 
Q 41.109375 34.859375 38.125 31.65625 
Q 35.15625 28.46875 30.515625 24.40625 
Q 25.875 20.359375 24.421875 19 
L 13.09375 8.109375 
L 22.703125 8.109375 
Q 29.78125 8.109375 34.546875 8.21875 
Q 39.3125 8.34375 39.59375 8.59375 
Q 40.765625 9.859375 42 17.828125 
L 44.921875 17.828125 
L 42.09375 0 
z
" id="Cmr10-50"/>
      <path d="M 14.703125 2.875 
Q 14.703125 3.65625 15.1875 4.296875 
L 35.984375 25 
L 15.1875 45.796875 
Q 14.703125 46.296875 14.703125 47.125 
Q 14.703125 47.859375 15.28125 48.484375 
Q 15.875 49.125 16.703125 49.125 
Q 17.390625 49.125 18.21875 48.484375 
L 38.921875 27.78125 
L 59.515625 48.484375 
Q 60.359375 49.125 60.984375 49.125 
Q 61.8125 49.125 62.390625 48.53125 
Q 62.984375 47.953125 62.984375 47.125 
Q 62.984375 46.296875 62.5 45.796875 
L 41.703125 25 
L 62.5 4.296875 
Q 62.984375 3.65625 62.984375 2.875 
Q 62.984375 2.046875 62.390625 1.453125 
Q 61.8125 0.875 60.984375 0.875 
Q 60.25 0.875 59.515625 1.609375 
L 38.921875 22.21875 
L 18.21875 1.609375 
Q 17.484375 0.875 16.703125 0.875 
Q 15.875 0.875 15.28125 1.515625 
Q 14.703125 2.15625 14.703125 2.875 
z
" id="Cmsy10-163"/>
     </defs>
     <use transform="translate(0 0.390625)" xlink:href="#Cmr10-51"/>
     <use transform="translate(50 0.390625)" xlink:href="#Cmr10-50"/>
     <use transform="translate(117.558594 0.390625)" xlink:href="#Cmsy10-163"/>
     <use transform="translate(212.802734 0.390625)" xlink:href="#Cmr10-51"/>
     <use transform="translate(262.802734 0.390625)" xlink:href="#Cmr10-50"/>
     <use transform="translate(330.361328 0.390625)" xlink:href="#Cmsy10-163"/>
     <use transform="translate(425.605469 0.390625)" xlink:href="#Cmr10-51"/>
    </g>
    <!--  -->
    <g transform="translate(126.510545 259.712937)scale(0.13 -0.13)"/>
    <!-- $3072$ -->
    <g transform="translate(113.510545 274.270094)scale(0.13 -0.13)">
     <defs>
      <path d="M 25 -2.203125 
Q 12.75 -2.203125 8.328125 7.875 
Q 3.90625 17.96875 3.90625 31.890625 
Q 3.90625 40.578125 5.484375 48.234375 
Q 7.078125 55.90625 11.78125 61.25 
Q 16.5 66.609375 25 66.609375 
Q 31.59375 66.609375 35.78125 63.375 
Q 39.984375 60.15625 42.1875 55.046875 
Q 44.390625 49.953125 45.1875 44.109375 
Q 46 38.28125 46 31.890625 
Q 46 23.296875 44.40625 15.796875 
Q 42.828125 8.296875 38.1875 3.046875 
Q 33.546875 -2.203125 25 -2.203125 
z
M 25 0.390625 
Q 30.5625 0.390625 33.296875 6.09375 
Q 36.03125 11.8125 36.671875 18.75 
Q 37.3125 25.6875 37.3125 33.5 
Q 37.3125 41.015625 36.671875 47.359375 
Q 36.03125 53.71875 33.3125 58.859375 
Q 30.609375 64.015625 25 64.015625 
Q 19.34375 64.015625 16.609375 58.828125 
Q 13.875 53.65625 13.234375 47.328125 
Q 12.59375 41.015625 12.59375 33.5 
Q 12.59375 27.9375 12.859375 23 
Q 13.140625 18.0625 14.3125 12.8125 
Q 15.484375 7.5625 18.09375 3.96875 
Q 20.703125 0.390625 25 0.390625 
z
" id="Cmr10-48"/>
      <path d="M 17.390625 2.59375 
Q 17.390625 8.15625 18.359375 13.46875 
Q 19.34375 18.796875 21.21875 24 
Q 23.09375 29.203125 25.75 34.203125 
Q 28.421875 39.203125 31.59375 43.609375 
L 40.71875 56.296875 
L 29.296875 56.296875 
Q 11.53125 56.296875 10.984375 55.8125 
Q 9.671875 54.203125 8.5 46.578125 
L 5.609375 46.578125 
L 8.890625 67.578125 
L 11.8125 67.578125 
L 11.8125 67.28125 
Q 11.8125 65.484375 17.921875 64.9375 
Q 24.03125 64.40625 29.890625 64.40625 
L 48.484375 64.40625 
L 48.484375 61.8125 
Q 48.484375 61.71875 48.453125 61.671875 
Q 48.4375 61.625 48.390625 61.53125 
L 34.625 42.1875 
Q 29.546875 34.671875 28.265625 25.484375 
Q 27 16.3125 27 2.59375 
Q 27 0.640625 25.578125 -0.78125 
Q 24.171875 -2.203125 22.21875 -2.203125 
Q 20.21875 -2.203125 18.796875 -0.78125 
Q 17.390625 0.640625 17.390625 2.59375 
z
" id="Cmr10-55"/>
     </defs>
     <use transform="translate(0 0.421875)" xlink:href="#Cmr10-51"/>
     <use transform="translate(50 0.421875)" xlink:href="#Cmr10-48"/>
     <use transform="translate(100 0.421875)" xlink:href="#Cmr10-55"/>
     <use transform="translate(150 0.421875)" xlink:href="#Cmr10-50"/>
    </g>
   </g>
   <g id="text_2">
    <!-- A -->
    <g transform="translate(7.906909 17.837812)scale(0.14 -0.14)">
     <defs>
      <path d="M 34.1875 63.1875 
L 20.796875 26.90625 
L 47.609375 26.90625 
z
M 28.609375 72.90625 
L 39.796875 72.90625 
L 67.578125 0 
L 57.328125 0 
L 50.6875 18.703125 
L 17.828125 18.703125 
L 11.1875 0 
L 0.78125 0 
z
" id="DejaVuSans-65"/>
     </defs>
     <use xlink:href="#DejaVuSans-65"/>
    </g>
   </g>
   <g id="text_3">
    <!-- $x$ -->
    <g transform="translate(122.160545 31.605085)scale(0.15 -0.15)">
     <defs>
      <path d="M 7.8125 2.875 
Q 9.578125 1.515625 12.796875 1.515625 
Q 15.921875 1.515625 18.3125 4.515625 
Q 20.703125 7.515625 21.578125 11.078125 
L 26.125 28.8125 
Q 27.203125 33.640625 27.203125 35.40625 
Q 27.203125 37.890625 25.8125 39.75 
Q 24.421875 41.609375 21.921875 41.609375 
Q 18.75 41.609375 15.96875 39.625 
Q 13.1875 37.640625 11.28125 34.59375 
Q 9.375 31.546875 8.59375 28.421875 
Q 8.40625 27.78125 7.8125 27.78125 
L 6.59375 27.78125 
Q 5.8125 27.78125 5.8125 28.71875 
L 5.8125 29 
Q 6.78125 32.71875 9.125 36.25 
Q 11.46875 39.796875 14.859375 41.984375 
Q 18.265625 44.1875 22.125 44.1875 
Q 25.78125 44.1875 28.734375 42.234375 
Q 31.6875 40.28125 32.90625 36.921875 
Q 34.625 39.984375 37.28125 42.078125 
Q 39.9375 44.1875 43.109375 44.1875 
Q 45.265625 44.1875 47.5 43.421875 
Q 49.75 42.671875 51.171875 41.109375 
Q 52.59375 39.546875 52.59375 37.203125 
Q 52.59375 34.671875 50.953125 32.828125 
Q 49.3125 31 46.78125 31 
Q 45.171875 31 44.09375 32.03125 
Q 43.015625 33.0625 43.015625 34.625 
Q 43.015625 36.71875 44.453125 38.296875 
Q 45.90625 39.890625 47.90625 40.1875 
Q 46.09375 41.609375 42.921875 41.609375 
Q 39.703125 41.609375 37.328125 38.625 
Q 34.96875 35.640625 33.984375 31.984375 
L 29.59375 14.3125 
Q 28.515625 10.296875 28.515625 7.71875 
Q 28.515625 5.171875 29.953125 3.34375 
Q 31.390625 1.515625 33.796875 1.515625 
Q 38.484375 1.515625 42.15625 5.640625 
Q 45.84375 9.765625 47.015625 14.703125 
Q 47.21875 15.28125 47.796875 15.28125 
L 49.03125 15.28125 
Q 49.421875 15.28125 49.65625 15.015625 
Q 49.90625 14.75 49.90625 14.40625 
Q 49.90625 14.3125 49.8125 14.109375 
Q 48.390625 8.15625 43.84375 3.515625 
Q 39.3125 -1.125 33.59375 -1.125 
Q 29.9375 -1.125 26.984375 0.84375 
Q 24.03125 2.828125 22.796875 6.203125 
Q 21.234375 3.265625 18.46875 1.0625 
Q 15.71875 -1.125 12.59375 -1.125 
Q 10.453125 -1.125 8.171875 -0.359375 
Q 5.90625 0.390625 4.484375 1.953125 
Q 3.078125 3.515625 3.078125 5.90625 
Q 3.078125 8.25 4.703125 10.171875 
Q 6.34375 12.109375 8.796875 12.109375 
Q 10.453125 12.109375 11.578125 11.109375 
Q 12.703125 10.109375 12.703125 8.5 
Q 12.703125 6.390625 11.296875 4.828125 
Q 9.90625 3.265625 7.8125 2.875 
z
" id="Cmmi10-120"/>
     </defs>
     <use transform="translate(0 0.8125)" xlink:href="#Cmmi10-120"/>
    </g>
   </g>
   <g id="Poly3DCollection_2">
    <path clip-path="url(#p913691f641)" d="M 78.422835 193.237681 
L 75.706881 194.231828 
L 74.528655 62.047525 
L 77.309016 61.571185 
z
" style="fill:#124312;"/>
    <path clip-path="url(#p913691f641)" d="M 183.143195 208.876239 
L 75.706881 194.231828 
L 78.422835 193.237681 
L 185.563969 207.761912 
z
" style="fill:#175517;"/>
    <path clip-path="url(#p913691f641)" d="M 186.875362 68.538735 
L 77.309016 61.571185 
L 74.528655 62.047525 
L 184.403737 69.07404 
z
" style="fill:#227b22;"/>
    <path clip-path="url(#p913691f641)" d="M 186.875362 68.538735 
L 184.403737 69.07404 
L 183.143195 208.876239 
L 185.563969 207.761912 
z
" style="fill:#278d27;"/>
   </g>
   <g id="Poly3DCollection_3">
    <path clip-path="url(#p913691f641)" d="M 75.706881 194.231828 
L 72.969053 195.233982 
L 71.725406 62.527786 
L 74.528655 62.047525 
z
" style="fill:#591011;"/>
    <path clip-path="url(#p913691f641)" d="M 180.701772 210.000072 
L 72.969053 195.233982 
L 75.706881 194.231828 
L 183.143195 208.876239 
z
" style="fill:#721515;"/>
    <path clip-path="url(#p913691f641)" d="M 180.701772 210.000072 
L 181.910536 69.614018 
L 71.725406 62.527786 
L 72.969053 195.233982 
z
" style="fill:#591011;"/>
    <path clip-path="url(#p913691f641)" d="M 184.403737 69.07404 
L 74.528655 62.047525 
L 71.725406 62.527786 
L 181.910536 69.614018 
z
" style="fill:#a41e1f;"/>
    <path clip-path="url(#p913691f641)" d="M 184.403737 69.07404 
L 181.910536 69.614018 
L 180.701772 210.000072 
L 183.143195 208.876239 
z
" style="fill:#bd2223;"/>
   </g>
  </g>
  <g id="patch_3">
   <path d="M 271.165091 235.277812 
L 468.837818 235.277812 
L 468.837818 37.605085 
L 271.165091 37.605085 
z
" style="fill:#ffffff;"/>
  </g>
  <g id="axes_2">
   <g id="Poly3DCollection_4">
    <path clip-path="url(#pd3cca740d8)" d="M 340.895855 183.629323 
L 306.289448 196.156782 
L 304.892682 69.966122 
L 340.261305 63.617795 
z
" style="fill:#6a6a6a;stroke:#000000;stroke-width:0.1;"/>
    <path clip-path="url(#pd3cca740d8)" d="M 340.895855 183.629323 
L 340.261305 63.617795 
L 440.490462 70.03548 
L 439.092156 196.293504 
z
" style="fill:#e1e1e1;stroke:#000000;stroke-width:0.1;"/>
    <path clip-path="url(#pd3cca740d8)" d="M 407.996836 210.227005 
L 306.289448 196.156782 
L 340.895855 183.629323 
L 439.092156 196.293504 
z
" style="fill:#888888;stroke:#000000;stroke-width:0.1;"/>
    <path clip-path="url(#pd3cca740d8)" d="M 440.490462 70.03548 
L 340.261305 63.617795 
L 304.892682 69.966122 
L 408.782716 77.112179 
z
" style="fill:#c3c3c3;stroke:#000000;stroke-width:0.1;"/>
    <path clip-path="url(#pd3cca740d8)" d="M 407.996836 210.227005 
L 408.782716 77.112179 
L 304.892682 69.966122 
L 306.289448 196.156782 
z
" style="fill:#6a6a6a;stroke:#000000;stroke-width:0.1;"/>
    <path clip-path="url(#pd3cca740d8)" d="M 440.490462 70.03548 
L 408.782716 77.112179 
L 407.996836 210.227005 
L 439.092156 196.293504 
z
" style="fill:#e1e1e1;stroke:#000000;stroke-width:0.1;"/>
   </g>
   <g id="text_4">
    <!-- $ 28 \times 28 \times 8$ -->
    <g transform="translate(339.061455 245.155781)scale(0.13 -0.13)">
     <defs>
      <path d="M 4.203125 15.1875 
Q 4.203125 21.1875 8.15625 25.796875 
Q 12.109375 30.421875 18.3125 33.5 
L 14.59375 35.890625 
Q 11.1875 38.140625 9.03125 41.875 
Q 6.890625 45.609375 6.890625 49.703125 
Q 6.890625 54.5 9.40625 58.34375 
Q 11.921875 62.203125 16.09375 64.40625 
Q 20.265625 66.609375 25 66.609375 
Q 29.4375 66.609375 33.5625 64.796875 
Q 37.703125 62.984375 40.359375 59.609375 
Q 43.015625 56.25 43.015625 51.609375 
Q 43.015625 48.25 41.421875 45.359375 
Q 39.84375 42.484375 37.078125 40.1875 
Q 34.328125 37.890625 31.203125 36.28125 
L 36.921875 32.625 
Q 40.875 30.03125 43.28125 25.828125 
Q 45.703125 21.625 45.703125 17 
Q 45.703125 11.578125 42.796875 7.125 
Q 39.890625 2.6875 35.109375 0.234375 
Q 30.328125 -2.203125 25 -2.203125 
Q 19.828125 -2.203125 15.015625 -0.09375 
Q 10.203125 2 7.203125 5.984375 
Q 4.203125 9.96875 4.203125 15.1875 
z
M 9.625 15.1875 
Q 9.625 11.234375 11.796875 7.953125 
Q 13.96875 4.6875 17.53125 2.828125 
Q 21.09375 0.984375 25 0.984375 
Q 30.8125 0.984375 35.546875 4.375 
Q 40.28125 7.765625 40.28125 13.375 
Q 40.28125 15.28125 39.515625 17.15625 
Q 38.765625 19.046875 37.421875 20.578125 
Q 36.078125 22.125 34.421875 23.09375 
L 21 31.78125 
Q 17.875 30.125 15.25 27.578125 
Q 12.640625 25.046875 11.125 21.875 
Q 9.625 18.703125 9.625 15.1875 
z
M 16.5 45.703125 
L 28.609375 37.890625 
Q 32.8125 40.328125 35.5 43.796875 
Q 38.1875 47.265625 38.1875 51.609375 
Q 38.1875 54.984375 36.296875 57.78125 
Q 34.421875 60.59375 31.390625 62.15625 
Q 28.375 63.71875 24.90625 63.71875 
Q 21.875 63.71875 18.796875 62.546875 
Q 15.71875 61.375 13.71875 59.046875 
Q 11.71875 56.734375 11.71875 53.609375 
Q 11.71875 48.921875 16.5 45.703125 
z
" id="Cmr10-56"/>
     </defs>
     <use transform="translate(0 0.390625)" xlink:href="#Cmr10-50"/>
     <use transform="translate(50 0.390625)" xlink:href="#Cmr10-56"/>
     <use transform="translate(117.558594 0.390625)" xlink:href="#Cmsy10-163"/>
     <use transform="translate(212.802734 0.390625)" xlink:href="#Cmr10-50"/>
     <use transform="translate(262.802734 0.390625)" xlink:href="#Cmr10-56"/>
     <use transform="translate(330.361328 0.390625)" xlink:href="#Cmsy10-163"/>
     <use transform="translate(425.605469 0.390625)" xlink:href="#Cmr10-56"/>
    </g>
    <!--  -->
    <g transform="translate(370.001455 259.712937)scale(0.13 -0.13)"/>
    <!-- $4704$ -->
    <g transform="translate(357.001455 274.270094)scale(0.13 -0.13)">
     <defs>
      <path d="M 2.78125 16.5 
L 2.78125 20.015625 
L 33.6875 66.109375 
Q 34.03125 66.609375 34.71875 66.609375 
L 36.1875 66.609375 
Q 37.3125 66.609375 37.3125 65.484375 
L 37.3125 20.015625 
L 47.125 20.015625 
L 47.125 16.5 
L 37.3125 16.5 
L 37.3125 6.6875 
Q 37.3125 4.640625 40.234375 4.078125 
Q 43.171875 3.515625 47.015625 3.515625 
L 47.015625 0 
L 19.484375 0 
L 19.484375 3.515625 
Q 23.34375 3.515625 26.265625 4.078125 
Q 29.203125 4.640625 29.203125 6.6875 
L 29.203125 16.5 
z
M 6.109375 20.015625 
L 29.78125 20.015625 
L 29.78125 55.421875 
z
" id="Cmr10-52"/>
     </defs>
     <use transform="translate(0 0.421875)" xlink:href="#Cmr10-52"/>
     <use transform="translate(50 0.421875)" xlink:href="#Cmr10-55"/>
     <use transform="translate(100 0.421875)" xlink:href="#Cmr10-48"/>
     <use transform="translate(150 0.421875)" xlink:href="#Cmr10-52"/>
    </g>
   </g>
   <g id="text_5">
    <!-- CONV 1 -->
    <g transform="translate(348.707001 31.605085)scale(0.11 -0.11)">
     <defs>
      <path d="M 64.40625 67.28125 
L 64.40625 56.890625 
Q 59.421875 61.53125 53.78125 63.8125 
Q 48.140625 66.109375 41.796875 66.109375 
Q 29.296875 66.109375 22.65625 58.46875 
Q 16.015625 50.828125 16.015625 36.375 
Q 16.015625 21.96875 22.65625 14.328125 
Q 29.296875 6.6875 41.796875 6.6875 
Q 48.140625 6.6875 53.78125 8.984375 
Q 59.421875 11.28125 64.40625 15.921875 
L 64.40625 5.609375 
Q 59.234375 2.09375 53.4375 0.328125 
Q 47.65625 -1.421875 41.21875 -1.421875 
Q 24.65625 -1.421875 15.125 8.703125 
Q 5.609375 18.84375 5.609375 36.375 
Q 5.609375 53.953125 15.125 64.078125 
Q 24.65625 74.21875 41.21875 74.21875 
Q 47.75 74.21875 53.53125 72.484375 
Q 59.328125 70.75 64.40625 67.28125 
z
" id="DejaVuSans-67"/>
      <path d="M 39.40625 66.21875 
Q 28.65625 66.21875 22.328125 58.203125 
Q 16.015625 50.203125 16.015625 36.375 
Q 16.015625 22.609375 22.328125 14.59375 
Q 28.65625 6.59375 39.40625 6.59375 
Q 50.140625 6.59375 56.421875 14.59375 
Q 62.703125 22.609375 62.703125 36.375 
Q 62.703125 50.203125 56.421875 58.203125 
Q 50.140625 66.21875 39.40625 66.21875 
z
M 39.40625 74.21875 
Q 54.734375 74.21875 63.90625 63.9375 
Q 73.09375 53.65625 73.09375 36.375 
Q 73.09375 19.140625 63.90625 8.859375 
Q 54.734375 -1.421875 39.40625 -1.421875 
Q 24.03125 -1.421875 14.8125 8.828125 
Q 5.609375 19.09375 5.609375 36.375 
Q 5.609375 53.65625 14.8125 63.9375 
Q 24.03125 74.21875 39.40625 74.21875 
z
" id="DejaVuSans-79"/>
      <path d="M 9.8125 72.90625 
L 23.09375 72.90625 
L 55.421875 11.921875 
L 55.421875 72.90625 
L 64.984375 72.90625 
L 64.984375 0 
L 51.703125 0 
L 19.390625 60.984375 
L 19.390625 0 
L 9.8125 0 
z
" id="DejaVuSans-78"/>
      <path d="M 28.609375 0 
L 0.78125 72.90625 
L 11.078125 72.90625 
L 34.1875 11.53125 
L 57.328125 72.90625 
L 67.578125 72.90625 
L 39.796875 0 
z
" id="DejaVuSans-86"/>
      <path id="DejaVuSans-32"/>
      <path d="M 12.40625 8.296875 
L 28.515625 8.296875 
L 28.515625 63.921875 
L 10.984375 60.40625 
L 10.984375 69.390625 
L 28.421875 72.90625 
L 38.28125 72.90625 
L 38.28125 8.296875 
L 54.390625 8.296875 
L 54.390625 0 
L 12.40625 0 
z
" id="DejaVuSans-49"/>
     </defs>
     <use xlink:href="#DejaVuSans-67"/>
     <use x="69.824219" xlink:href="#DejaVuSans-79"/>
     <use x="148.535156" xlink:href="#DejaVuSans-78"/>
     <use x="223.339844" xlink:href="#DejaVuSans-86"/>
     <use x="291.748047" xlink:href="#DejaVuSans-32"/>
     <use x="323.535156" xlink:href="#DejaVuSans-49"/>
    </g>
   </g>
  </g>
  <g id="axes_3">
   <g id="line2d_1">
    <path clip-path="url(#p304066f749)" d="M 130.232978 309.418506 
L 371.096288 309.418506 
" style="fill:none;stroke:#000000;stroke-linecap:square;stroke-width:0.25;"/>
   </g>
   <g id="line2d_2">
    <path clip-path="url(#p304066f749)" d="M 130.232978 309.418506 
L 371.096288 341.533614 
" style="fill:none;stroke:#000000;stroke-linecap:square;stroke-width:0.25;"/>
   </g>
   <g id="line2d_3">
    <path clip-path="url(#p304066f749)" d="M 130.232978 309.418506 
L 371.096288 373.648722 
" style="fill:none;stroke:#000000;stroke-linecap:square;stroke-width:0.25;"/>
   </g>
   <g id="line2d_4">
    <path clip-path="url(#p304066f749)" d="M 130.232978 309.418506 
L 371.096288 405.76383 
" style="fill:none;stroke:#ffffff;stroke-linecap:square;stroke-width:0.25;"/>
   </g>
   <g id="line2d_5">
    <path clip-path="url(#p304066f749)" d="M 130.232978 309.418506 
L 371.096288 437.878937 
" style="fill:none;stroke:#000000;stroke-linecap:square;stroke-width:0.25;"/>
   </g>
   <g id="line2d_6">
    <path clip-path="url(#p304066f749)" d="M 130.232978 341.533614 
L 371.096288 309.418506 
" style="fill:none;stroke:#000000;stroke-linecap:square;stroke-width:0.25;"/>
   </g>
   <g id="line2d_7">
    <path clip-path="url(#p304066f749)" d="M 130.232978 341.533614 
L 371.096288 341.533614 
" style="fill:none;stroke:#000000;stroke-linecap:square;stroke-width:0.25;"/>
   </g>
   <g id="line2d_8">
    <path clip-path="url(#p304066f749)" d="M 130.232978 341.533614 
L 371.096288 373.648722 
" style="fill:none;stroke:#000000;stroke-linecap:square;stroke-width:0.25;"/>
   </g>
   <g id="line2d_9">
    <path clip-path="url(#p304066f749)" d="M 130.232978 341.533614 
L 371.096288 405.76383 
" style="fill:none;stroke:#ffffff;stroke-linecap:square;stroke-width:0.25;"/>
   </g>
   <g id="line2d_10">
    <path clip-path="url(#p304066f749)" d="M 130.232978 341.533614 
L 371.096288 437.878937 
" style="fill:none;stroke:#000000;stroke-linecap:square;stroke-width:0.25;"/>
   </g>
   <g id="line2d_11">
    <path clip-path="url(#p304066f749)" d="M 130.232978 373.648722 
L 371.096288 309.418506 
" style="fill:none;stroke:#000000;stroke-linecap:square;stroke-width:0.25;"/>
   </g>
   <g id="line2d_12">
    <path clip-path="url(#p304066f749)" d="M 130.232978 373.648722 
L 371.096288 341.533614 
" style="fill:none;stroke:#000000;stroke-linecap:square;stroke-width:0.25;"/>
   </g>
   <g id="line2d_13">
    <path clip-path="url(#p304066f749)" d="M 130.232978 373.648722 
L 371.096288 373.648722 
" style="fill:none;stroke:#000000;stroke-linecap:square;stroke-width:0.25;"/>
   </g>
   <g id="line2d_14">
    <path clip-path="url(#p304066f749)" d="M 130.232978 373.648722 
L 371.096288 405.76383 
" style="fill:none;stroke:#ffffff;stroke-linecap:square;stroke-width:0.25;"/>
   </g>
   <g id="line2d_15">
    <path clip-path="url(#p304066f749)" d="M 130.232978 373.648722 
L 371.096288 437.878937 
" style="fill:none;stroke:#000000;stroke-linecap:square;stroke-width:0.25;"/>
   </g>
   <g id="line2d_16">
    <path clip-path="url(#p304066f749)" d="M 130.232978 405.76383 
L 371.096288 309.418506 
" style="fill:none;stroke:#ffffff;stroke-linecap:square;stroke-width:0.25;"/>
   </g>
   <g id="line2d_17">
    <path clip-path="url(#p304066f749)" d="M 130.232978 405.76383 
L 371.096288 341.533614 
" style="fill:none;stroke:#ffffff;stroke-linecap:square;stroke-width:0.25;"/>
   </g>
   <g id="line2d_18">
    <path clip-path="url(#p304066f749)" d="M 130.232978 405.76383 
L 371.096288 373.648722 
" style="fill:none;stroke:#ffffff;stroke-linecap:square;stroke-width:0.25;"/>
   </g>
   <g id="line2d_19">
    <path clip-path="url(#p304066f749)" d="M 130.232978 405.76383 
L 371.096288 405.76383 
" style="fill:none;stroke:#ffffff;stroke-linecap:square;stroke-width:0.25;"/>
   </g>
   <g id="line2d_20">
    <path clip-path="url(#p304066f749)" d="M 130.232978 405.76383 
L 371.096288 437.878937 
" style="fill:none;stroke:#ffffff;stroke-linecap:square;stroke-width:0.25;"/>
   </g>
   <g id="line2d_21">
    <path clip-path="url(#p304066f749)" d="M 130.232978 437.878937 
L 371.096288 309.418506 
" style="fill:none;stroke:#000000;stroke-linecap:square;stroke-width:0.25;"/>
   </g>
   <g id="line2d_22">
    <path clip-path="url(#p304066f749)" d="M 130.232978 437.878937 
L 371.096288 341.533614 
" style="fill:none;stroke:#000000;stroke-linecap:square;stroke-width:0.25;"/>
   </g>
   <g id="line2d_23">
    <path clip-path="url(#p304066f749)" d="M 130.232978 437.878937 
L 371.096288 373.648722 
" style="fill:none;stroke:#000000;stroke-linecap:square;stroke-width:0.25;"/>
   </g>
   <g id="line2d_24">
    <path clip-path="url(#p304066f749)" d="M 130.232978 437.878937 
L 371.096288 405.76383 
" style="fill:none;stroke:#ffffff;stroke-linecap:square;stroke-width:0.25;"/>
   </g>
   <g id="line2d_25">
    <path clip-path="url(#p304066f749)" d="M 130.232978 437.878937 
L 371.096288 437.878937 
" style="fill:none;stroke:#000000;stroke-linecap:square;stroke-width:0.25;"/>
   </g>
   <g id="patch_4">
    <path d="M 287.81648 136.441449 
Q 248.258056 136.441449 207.581598 136.441449 
" style="fill:none;stroke:#000000;stroke-linecap:round;"/>
    <path d="M 283.81648 134.441449 
L 287.81648 136.441449 
L 283.81648 138.441449 
" style="fill:none;stroke:#000000;stroke-linecap:round;"/>
   </g>
   <g id="text_6">
    <!-- $8\times$ -->
    <g transform="translate(237.104039 152.319418)scale(0.13 -0.13)">
     <use transform="translate(0 0.390625)" xlink:href="#Cmr10-56"/>
     <use transform="translate(67.558594 0.390625)" xlink:href="#Cmsy10-163"/>
    </g>
    <!-- $f=5$ -->
    <g transform="translate(233.919039 166.876574)scale(0.13 -0.13)">
     <defs>
      <path d="M 9.71875 -16.5 
Q 11.578125 -17.921875 14.203125 -17.921875 
Q 17.78125 -17.921875 20.015625 -10.015625 
Q 20.953125 -6.203125 25.09375 15.09375 
L 29.6875 39.59375 
L 21.09375 39.59375 
Q 20.125 39.59375 20.125 40.921875 
Q 20.515625 43.109375 21.390625 43.109375 
L 30.328125 43.109375 
L 31.5 49.609375 
Q 32.078125 52.640625 32.5625 54.8125 
Q 33.0625 56.984375 33.625 58.828125 
Q 34.1875 60.6875 35.296875 62.984375 
Q 37.015625 66.265625 39.921875 68.390625 
Q 42.828125 70.515625 46.1875 70.515625 
Q 48.390625 70.515625 50.46875 69.703125 
Q 52.546875 68.890625 53.859375 67.28125 
Q 55.171875 65.671875 55.171875 63.484375 
Q 55.171875 60.9375 53.484375 59.046875 
Q 51.8125 57.171875 49.421875 57.171875 
Q 47.796875 57.171875 46.65625 58.171875 
Q 45.515625 59.1875 45.515625 60.796875 
Q 45.515625 62.984375 47 64.625 
Q 48.484375 66.265625 50.6875 66.5 
Q 48.828125 67.921875 46.09375 67.921875 
Q 44.578125 67.921875 43.234375 66.5 
Q 41.890625 65.09375 41.5 63.484375 
Q 40.875 60.9375 38.71875 49.703125 
L 37.5 43.109375 
L 47.796875 43.109375 
Q 48.78125 43.109375 48.78125 41.796875 
Q 48.734375 41.546875 48.578125 40.9375 
Q 48.4375 40.328125 48.171875 39.953125 
Q 47.90625 39.59375 47.515625 39.59375 
L 36.8125 39.59375 
L 32.171875 15.1875 
Q 31.296875 9.859375 30.140625 4.359375 
Q 29 -1.125 26.921875 -6.90625 
Q 24.859375 -12.703125 21.625 -16.609375 
Q 18.40625 -20.515625 14.015625 -20.515625 
Q 10.640625 -20.515625 7.984375 -18.578125 
Q 5.328125 -16.65625 5.328125 -13.484375 
Q 5.328125 -10.9375 6.953125 -9.046875 
Q 8.59375 -7.171875 11.078125 -7.171875 
Q 12.75 -7.171875 13.859375 -8.171875 
Q 14.984375 -9.1875 14.984375 -10.796875 
Q 14.984375 -12.9375 13.390625 -14.71875 
Q 11.8125 -16.5 9.71875 -16.5 
z
" id="Cmmi10-102"/>
      <path d="M 7.515625 13.28125 
Q 6.6875 13.28125 6.140625 13.90625 
Q 5.609375 14.546875 5.609375 15.28125 
Q 5.609375 16.109375 6.140625 16.6875 
Q 6.6875 17.28125 7.515625 17.28125 
L 70.3125 17.28125 
Q 71.046875 17.28125 71.578125 16.6875 
Q 72.125 16.109375 72.125 15.28125 
Q 72.125 14.546875 71.578125 13.90625 
Q 71.046875 13.28125 70.3125 13.28125 
z
M 7.515625 32.71875 
Q 6.6875 32.71875 6.140625 33.296875 
Q 5.609375 33.890625 5.609375 34.71875 
Q 5.609375 35.453125 6.140625 36.078125 
Q 6.6875 36.71875 7.515625 36.71875 
L 70.3125 36.71875 
Q 71.046875 36.71875 71.578125 36.078125 
Q 72.125 35.453125 72.125 34.71875 
Q 72.125 33.890625 71.578125 33.296875 
Q 71.046875 32.71875 70.3125 32.71875 
z
" id="Cmr10-61"/>
      <path d="M 8.6875 11.375 
Q 9.71875 8.453125 11.84375 6.046875 
Q 13.96875 3.65625 16.875 2.3125 
Q 19.78125 0.984375 22.90625 0.984375 
Q 30.125 0.984375 32.859375 6.59375 
Q 35.59375 12.203125 35.59375 20.21875 
Q 35.59375 23.6875 35.46875 26.046875 
Q 35.359375 28.421875 34.8125 30.609375 
Q 33.890625 34.125 31.5625 36.765625 
Q 29.25 39.40625 25.875 39.40625 
Q 22.515625 39.40625 20.09375 38.375 
Q 17.671875 37.359375 16.15625 35.984375 
Q 14.65625 34.625 13.484375 33.109375 
Q 12.3125 31.59375 12.015625 31.5 
L 10.890625 31.5 
Q 10.640625 31.5 10.265625 31.8125 
Q 9.90625 32.125 9.90625 32.421875 
L 9.90625 65.828125 
Q 9.90625 66.0625 10.21875 66.328125 
Q 10.546875 66.609375 10.890625 66.609375 
L 11.1875 66.609375 
Q 17.921875 63.375 25.484375 63.375 
Q 32.90625 63.375 39.796875 66.609375 
L 40.09375 66.609375 
Q 40.4375 66.609375 40.71875 66.359375 
Q 41.015625 66.109375 41.015625 65.828125 
L 41.015625 64.890625 
Q 41.015625 64.40625 40.828125 64.40625 
Q 37.40625 59.859375 32.25 57.3125 
Q 27.09375 54.78125 21.578125 54.78125 
Q 17.578125 54.78125 13.375 55.90625 
L 13.375 37.015625 
Q 16.703125 39.703125 19.3125 40.84375 
Q 21.921875 42 25.984375 42 
Q 31.5 42 35.859375 38.8125 
Q 40.234375 35.640625 42.578125 30.53125 
Q 44.921875 25.4375 44.921875 20.125 
Q 44.921875 14.109375 41.96875 8.984375 
Q 39.015625 3.859375 33.9375 0.828125 
Q 28.859375 -2.203125 22.90625 -2.203125 
Q 17.96875 -2.203125 13.84375 0.328125 
Q 9.71875 2.875 7.34375 7.171875 
Q 4.984375 11.46875 4.984375 16.3125 
Q 4.984375 18.5625 6.4375 19.96875 
Q 7.90625 21.390625 10.109375 21.390625 
Q 12.3125 21.390625 13.796875 19.9375 
Q 15.28125 18.5 15.28125 16.3125 
Q 15.28125 14.15625 13.796875 12.671875 
Q 12.3125 11.1875 10.109375 11.1875 
Q 9.765625 11.1875 9.328125 11.25 
Q 8.890625 11.328125 8.6875 11.375 
z
" id="Cmr10-53"/>
     </defs>
     <use transform="translate(0 0.484375)" xlink:href="#Cmmi10-102"/>
     <use transform="translate(66.435547 0.484375)" xlink:href="#Cmr10-61"/>
     <use transform="translate(161.679688 0.484375)" xlink:href="#Cmr10-53"/>
    </g>
    <!-- $s=1$ -->
    <g transform="translate(234.049039 181.460136)scale(0.13 -0.13)">
     <defs>
      <path d="M 8.6875 6.109375 
Q 11.375 1.515625 19.484375 1.515625 
Q 23 1.515625 26.171875 2.703125 
Q 29.34375 3.90625 31.421875 6.296875 
Q 33.5 8.6875 33.5 12.109375 
Q 33.5 14.703125 31.640625 16.359375 
Q 29.78125 18.015625 27.09375 18.609375 
L 21.6875 19.671875 
Q 17.96875 20.609375 15.578125 23.140625 
Q 13.1875 25.6875 13.1875 29.296875 
Q 13.1875 33.734375 15.59375 37.15625 
Q 18.015625 40.578125 21.96875 42.375 
Q 25.921875 44.1875 30.171875 44.1875 
Q 34.71875 44.1875 38.296875 42.015625 
Q 41.890625 39.84375 41.890625 35.59375 
Q 41.890625 33.296875 40.59375 31.53125 
Q 39.3125 29.78125 37.015625 29.78125 
Q 35.6875 29.78125 34.734375 30.640625 
Q 33.796875 31.5 33.796875 32.8125 
Q 33.796875 33.984375 34.453125 35.078125 
Q 35.109375 36.1875 36.203125 36.84375 
Q 37.3125 37.5 38.484375 37.5 
Q 37.59375 39.65625 35.171875 40.625 
Q 32.765625 41.609375 29.984375 41.609375 
Q 27.4375 41.609375 24.890625 40.578125 
Q 22.359375 39.546875 20.8125 37.5625 
Q 19.28125 35.59375 19.28125 32.90625 
Q 19.28125 31.109375 20.546875 29.734375 
Q 21.828125 28.375 23.6875 27.78125 
L 29.5 26.609375 
Q 32.28125 26.03125 34.59375 24.53125 
Q 36.921875 23.046875 38.25 20.765625 
Q 39.59375 18.5 39.59375 15.578125 
Q 39.59375 11.859375 37.515625 8.25 
Q 35.453125 4.640625 32.421875 2.484375 
Q 27.09375 -1.125 19.390625 -1.125 
Q 14.0625 -1.125 9.609375 1.3125 
Q 5.171875 3.765625 5.171875 8.59375 
Q 5.171875 11.328125 6.75 13.34375 
Q 8.34375 15.375 11.078125 15.375 
Q 12.703125 15.375 13.796875 14.390625 
Q 14.890625 13.421875 14.890625 11.8125 
Q 14.890625 9.515625 13.171875 7.8125 
Q 11.46875 6.109375 9.1875 6.109375 
z
" id="Cmmi10-115"/>
      <path d="M 9.28125 0 
L 9.28125 3.515625 
Q 21.78125 3.515625 21.78125 6.6875 
L 21.78125 59.1875 
Q 16.609375 56.6875 8.6875 56.6875 
L 8.6875 60.203125 
Q 20.953125 60.203125 27.203125 66.609375 
L 28.609375 66.609375 
Q 28.953125 66.609375 29.265625 66.328125 
Q 29.59375 66.0625 29.59375 65.71875 
L 29.59375 6.6875 
Q 29.59375 3.515625 42.09375 3.515625 
L 42.09375 0 
z
" id="Cmr10-49"/>
     </defs>
     <use transform="translate(0 0.390625)" xlink:href="#Cmmi10-115"/>
     <use transform="translate(64.335938 0.390625)" xlink:href="#Cmr10-61"/>
     <use transform="translate(159.580078 0.390625)" xlink:href="#Cmr10-49"/>
    </g>
   </g>
   <g id="text_7">
    <!-- B -->
    <g transform="translate(7.2 277.303398)scale(0.15 -0.15)">
     <defs>
      <path d="M 19.671875 34.8125 
L 19.671875 8.109375 
L 35.5 8.109375 
Q 43.453125 8.109375 47.28125 11.40625 
Q 51.125 14.703125 51.125 21.484375 
Q 51.125 28.328125 47.28125 31.5625 
Q 43.453125 34.8125 35.5 34.8125 
z
M 19.671875 64.796875 
L 19.671875 42.828125 
L 34.28125 42.828125 
Q 41.5 42.828125 45.03125 45.53125 
Q 48.578125 48.25 48.578125 53.8125 
Q 48.578125 59.328125 45.03125 62.0625 
Q 41.5 64.796875 34.28125 64.796875 
z
M 9.8125 72.90625 
L 35.015625 72.90625 
Q 46.296875 72.90625 52.390625 68.21875 
Q 58.5 63.53125 58.5 54.890625 
Q 58.5 48.1875 55.375 44.234375 
Q 52.25 40.28125 46.1875 39.3125 
Q 53.46875 37.75 57.5 32.78125 
Q 61.53125 27.828125 61.53125 20.40625 
Q 61.53125 10.640625 54.890625 5.3125 
Q 48.25 0 35.984375 0 
L 9.8125 0 
z
" id="DejaVuSans-66"/>
     </defs>
     <use xlink:href="#DejaVuSans-66"/>
    </g>
   </g>
   <g id="patch_5">
    <path clip-path="url(#p304066f749)" d="M 130.232978 323.067427 
C 133.852715 323.067427 137.324683 321.62929 139.884223 319.06975 
C 142.443763 316.51021 143.881899 313.038242 143.881899 309.418506 
C 143.881899 305.79877 142.443763 302.326801 139.884223 299.767261 
C 137.324683 297.207721 133.852715 295.769585 130.232978 295.769585 
C 126.613242 295.769585 123.141274 297.207721 120.581734 299.767261 
C 118.022194 302.326801 116.584058 305.79877 116.584058 309.418506 
C 116.584058 313.038242 118.022194 316.51021 120.581734 319.06975 
C 123.141274 321.62929 126.613242 323.067427 130.232978 323.067427 
z
" style="fill:#ffffff;stroke:#000000;stroke-linejoin:miter;"/>
   </g>
   <g id="patch_6">
    <path clip-path="url(#p304066f749)" d="M 130.232978 355.182535 
C 133.852715 355.182535 137.324683 353.744398 139.884223 351.184858 
C 142.443763 348.625318 143.881899 345.15335 143.881899 341.533614 
C 143.881899 337.913878 142.443763 334.441909 139.884223 331.882369 
C 137.324683 329.322829 133.852715 327.884693 130.232978 327.884693 
C 126.613242 327.884693 123.141274 329.322829 120.581734 331.882369 
C 118.022194 334.441909 116.584058 337.913878 116.584058 341.533614 
C 116.584058 345.15335 118.022194 348.625318 120.581734 351.184858 
C 123.141274 353.744398 126.613242 355.182535 130.232978 355.182535 
z
" style="fill:#ffffff;stroke:#000000;stroke-linejoin:miter;"/>
   </g>
   <g id="patch_7">
    <path clip-path="url(#p304066f749)" d="M 130.232978 387.297642 
C 133.852715 387.297642 137.324683 385.859506 139.884223 383.299966 
C 142.443763 380.740426 143.881899 377.268458 143.881899 373.648722 
C 143.881899 370.028985 142.443763 366.557017 139.884223 363.997477 
C 137.324683 361.437937 133.852715 359.999801 130.232978 359.999801 
C 126.613242 359.999801 123.141274 361.437937 120.581734 363.997477 
C 118.022194 366.557017 116.584058 370.028985 116.584058 373.648722 
C 116.584058 377.268458 118.022194 380.740426 120.581734 383.299966 
C 123.141274 385.859506 126.613242 387.297642 130.232978 387.297642 
z
" style="fill:#ffffff;stroke:#000000;stroke-linejoin:miter;"/>
   </g>
   <g id="patch_8">
    <path clip-path="url(#p304066f749)" d="M 130.232978 419.41275 
C 133.852715 419.41275 137.324683 417.974614 139.884223 415.415074 
C 142.443763 412.855534 143.881899 409.383566 143.881899 405.76383 
C 143.881899 402.144093 142.443763 398.672125 139.884223 396.112585 
C 137.324683 393.553045 133.852715 392.114909 130.232978 392.114909 
C 126.613242 392.114909 123.141274 393.553045 120.581734 396.112585 
C 118.022194 398.672125 116.584058 402.144093 116.584058 405.76383 
C 116.584058 409.383566 118.022194 412.855534 120.581734 415.415074 
C 123.141274 417.974614 126.613242 419.41275 130.232978 419.41275 
z
" style="fill:#ffffff;stroke:#ffffff;stroke-linejoin:miter;"/>
   </g>
   <g id="patch_9">
    <path clip-path="url(#p304066f749)" d="M 130.232978 451.527858 
C 133.852715 451.527858 137.324683 450.089722 139.884223 447.530182 
C 142.443763 444.970642 143.881899 441.498674 143.881899 437.878937 
C 143.881899 434.259201 142.443763 430.787233 139.884223 428.227693 
C 137.324683 425.668153 133.852715 424.230017 130.232978 424.230017 
C 126.613242 424.230017 123.141274 425.668153 120.581734 428.227693 
C 118.022194 430.787233 116.584058 434.259201 116.584058 437.878937 
C 116.584058 441.498674 118.022194 444.970642 120.581734 447.530182 
C 123.141274 450.089722 126.613242 451.527858 130.232978 451.527858 
z
" style="fill:#ffffff;stroke:#000000;stroke-linejoin:miter;"/>
   </g>
   <g id="patch_10">
    <path clip-path="url(#p304066f749)" d="M 371.096288 323.067427 
C 374.716024 323.067427 378.187992 321.62929 380.747532 319.06975 
C 383.307072 316.51021 384.745209 313.038242 384.745209 309.418506 
C 384.745209 305.79877 383.307072 302.326801 380.747532 299.767261 
C 378.187992 297.207721 374.716024 295.769585 371.096288 295.769585 
C 367.476552 295.769585 364.004583 297.207721 361.445043 299.767261 
C 358.885503 302.326801 357.447367 305.79877 357.447367 309.418506 
C 357.447367 313.038242 358.885503 316.51021 361.445043 319.06975 
C 364.004583 321.62929 367.476552 323.067427 371.096288 323.067427 
z
" style="fill:#ffffff;stroke:#000000;stroke-linejoin:miter;"/>
   </g>
   <g id="patch_11">
    <path clip-path="url(#p304066f749)" d="M 371.096288 355.182535 
C 374.716024 355.182535 378.187992 353.744398 380.747532 351.184858 
C 383.307072 348.625318 384.745209 345.15335 384.745209 341.533614 
C 384.745209 337.913878 383.307072 334.441909 380.747532 331.882369 
C 378.187992 329.322829 374.716024 327.884693 371.096288 327.884693 
C 367.476552 327.884693 364.004583 329.322829 361.445043 331.882369 
C 358.885503 334.441909 357.447367 337.913878 357.447367 341.533614 
C 357.447367 345.15335 358.885503 348.625318 361.445043 351.184858 
C 364.004583 353.744398 367.476552 355.182535 371.096288 355.182535 
z
" style="fill:#ffffff;stroke:#000000;stroke-linejoin:miter;"/>
   </g>
   <g id="patch_12">
    <path clip-path="url(#p304066f749)" d="M 371.096288 387.297642 
C 374.716024 387.297642 378.187992 385.859506 380.747532 383.299966 
C 383.307072 380.740426 384.745209 377.268458 384.745209 373.648722 
C 384.745209 370.028985 383.307072 366.557017 380.747532 363.997477 
C 378.187992 361.437937 374.716024 359.999801 371.096288 359.999801 
C 367.476552 359.999801 364.004583 361.437937 361.445043 363.997477 
C 358.885503 366.557017 357.447367 370.028985 357.447367 373.648722 
C 357.447367 377.268458 358.885503 380.740426 361.445043 383.299966 
C 364.004583 385.859506 367.476552 387.297642 371.096288 387.297642 
z
" style="fill:#ffffff;stroke:#000000;stroke-linejoin:miter;"/>
   </g>
   <g id="patch_13">
    <path clip-path="url(#p304066f749)" d="M 371.096288 419.41275 
C 374.716024 419.41275 378.187992 417.974614 380.747532 415.415074 
C 383.307072 412.855534 384.745209 409.383566 384.745209 405.76383 
C 384.745209 402.144093 383.307072 398.672125 380.747532 396.112585 
C 378.187992 393.553045 374.716024 392.114909 371.096288 392.114909 
C 367.476552 392.114909 364.004583 393.553045 361.445043 396.112585 
C 358.885503 398.672125 357.447367 402.144093 357.447367 405.76383 
C 357.447367 409.383566 358.885503 412.855534 361.445043 415.415074 
C 364.004583 417.974614 367.476552 419.41275 371.096288 419.41275 
z
" style="fill:#ffffff;stroke:#ffffff;stroke-linejoin:miter;"/>
   </g>
   <g id="patch_14">
    <path clip-path="url(#p304066f749)" d="M 371.096288 451.527858 
C 374.716024 451.527858 378.187992 450.089722 380.747532 447.530182 
C 383.307072 444.970642 384.745209 441.498674 384.745209 437.878937 
C 384.745209 434.259201 383.307072 430.787233 380.747532 428.227693 
C 378.187992 425.668153 374.716024 424.230017 371.096288 424.230017 
C 367.476552 424.230017 364.004583 425.668153 361.445043 428.227693 
C 358.885503 430.787233 357.447367 434.259201 357.447367 437.878937 
C 357.447367 441.498674 358.885503 444.970642 361.445043 447.530182 
C 364.004583 450.089722 367.476552 451.527858 371.096288 451.527858 
z
" style="fill:#ffffff;stroke:#000000;stroke-linejoin:miter;"/>
   </g>
   <g id="text_8">
    <!--   -->
    <g transform="translate(128.643916 312.177881)scale(0.1 -0.1)">
     <use xlink:href="#DejaVuSans-32"/>
    </g>
   </g>
   <g id="text_9">
    <!--   -->
    <g transform="translate(128.643916 344.292989)scale(0.1 -0.1)">
     <use xlink:href="#DejaVuSans-32"/>
    </g>
   </g>
   <g id="text_10">
    <!--   -->
    <g transform="translate(128.643916 376.408097)scale(0.1 -0.1)">
     <use xlink:href="#DejaVuSans-32"/>
    </g>
   </g>
   <g id="text_11">
    <!-- $\vdots$ -->
    <g transform="translate(127.632978 408.523205)scale(0.1 -0.1)">
     <defs>
      <path d="M 31.90625 54.296875 
Q 31.90625 51.703125 30.15625 49.796875 
Q 28.40625 47.90625 25.59375 47.90625 
Q 22.703125 47.90625 20.953125 49.65625 
Q 19.203125 51.40625 19.203125 54.296875 
Q 19.203125 57 21.140625 58.796875 
Q 23.09375 60.59375 25.59375 60.59375 
Q 28.09375 60.59375 30 58.796875 
Q 31.90625 57 31.90625 54.296875 
z
M 31.90625 25.203125 
Q 31.90625 22.59375 30.15625 20.6875 
Q 28.40625 18.796875 25.59375 18.796875 
Q 22.703125 18.796875 20.953125 20.546875 
Q 19.203125 22.296875 19.203125 25.203125 
Q 19.203125 27.90625 21.140625 29.703125 
Q 23.09375 31.5 25.59375 31.5 
Q 28.09375 31.5 30 29.703125 
Q 31.90625 27.90625 31.90625 25.203125 
z
M 31.90625 -4 
Q 31.90625 -6.59375 30.15625 -8.5 
Q 28.40625 -10.40625 25.59375 -10.40625 
Q 22.703125 -10.40625 20.953125 -8.65625 
Q 19.203125 -6.90625 19.203125 -4 
Q 19.203125 -1.296875 21.140625 0.5 
Q 23.09375 2.296875 25.59375 2.296875 
Q 28.09375 2.296875 30 0.5 
Q 31.90625 -1.296875 31.90625 -4 
z
" id="STIXGeneral-Regular-8942"/>
     </defs>
     <use transform="translate(0 0.40625)" xlink:href="#STIXGeneral-Regular-8942"/>
    </g>
   </g>
   <g id="text_12">
    <!--   -->
    <g transform="translate(128.643916 440.638312)scale(0.1 -0.1)">
     <use xlink:href="#DejaVuSans-32"/>
    </g>
   </g>
   <g id="text_13">
    <!--   -->
    <g transform="translate(369.507225 312.177881)scale(0.1 -0.1)">
     <use xlink:href="#DejaVuSans-32"/>
    </g>
   </g>
   <g id="text_14">
    <!--   -->
    <g transform="translate(369.507225 344.292989)scale(0.1 -0.1)">
     <use xlink:href="#DejaVuSans-32"/>
    </g>
   </g>
   <g id="text_15">
    <!--   -->
    <g transform="translate(369.507225 376.408097)scale(0.1 -0.1)">
     <use xlink:href="#DejaVuSans-32"/>
    </g>
   </g>
   <g id="text_16">
    <!-- $\vdots$ -->
    <g transform="translate(368.496288 408.523205)scale(0.1 -0.1)">
     <use transform="translate(0 0.40625)" xlink:href="#STIXGeneral-Regular-8942"/>
    </g>
   </g>
   <g id="text_17">
    <!--   -->
    <g transform="translate(369.507225 440.638312)scale(0.1 -0.1)">
     <use xlink:href="#DejaVuSans-32"/>
    </g>
   </g>
  </g>
 </g>
 <defs>
  <clipPath id="p913691f641">
   <rect height="197.672727" width="197.672727" x="27.674182" y="37.605085"/>
  </clipPath>
  <clipPath id="pd3cca740d8">
   <rect height="197.672727" width="197.672727" x="271.165091" y="37.605085"/>
  </clipPath>
  <clipPath id="p304066f749">
   <rect height="160.57554" width="446.4" x="25.056" y="293.360952"/>
  </clipPath>
 </defs>
</svg>
