<?xml version="1.0" encoding="utf-8" standalone="no"?>
<!DOCTYPE svg PUBLIC "-//W3C//DTD SVG 1.1//EN"
  "http://www.w3.org/Graphics/SVG/1.1/DTD/svg11.dtd">
<!-- Created with matplotlib (https://matplotlib.org/) -->
<svg height="278.961929pt" version="1.1" viewBox="0 0 688.923529 278.961929" width="688.923529pt" xmlns="http://www.w3.org/2000/svg" xmlns:xlink="http://www.w3.org/1999/xlink">
 <metadata>
  <rdf:RDF xmlns:cc="http://creativecommons.org/ns#" xmlns:dc="http://purl.org/dc/elements/1.1/" xmlns:rdf="http://www.w3.org/1999/02/22-rdf-syntax-ns#">
   <cc:Work>
    <dc:type rdf:resource="http://purl.org/dc/dcmitype/StillImage"/>
    <dc:date>2021-04-15T22:09:43.360618</dc:date>
    <dc:format>image/svg+xml</dc:format>
    <dc:creator>
     <cc:Agent>
      <dc:title>Matplotlib v3.3.4, https://matplotlib.org/</dc:title>
     </cc:Agent>
    </dc:creator>
   </cc:Work>
  </rdf:RDF>
 </metadata>
 <defs>
  <style type="text/css">*{stroke-linecap:butt;stroke-linejoin:round;}</style>
 </defs>
 <g id="figure_1">
  <g id="axes_1">
   <g id="table_1">
    <g id="patch_1">
     <path d="M 7.2 39.806155 
L 36.741176 39.806155 
L 36.741176 7.2 
L 7.2 7.2 
z
" style="fill:#e0ffff;stroke:#000000;stroke-linejoin:miter;"/>
    </g>
    <g id="text_1">
     <!--   -->
     <g transform="translate(19.904807 27.090265)scale(0.13 -0.13)">
      <defs>
       <path id="DejaVuSans-32"/>
      </defs>
      <use xlink:href="#DejaVuSans-32"/>
     </g>
    </g>
    <g id="patch_2">
     <path d="M 36.741176 39.806155 
L 66.282353 39.806155 
L 66.282353 7.2 
L 36.741176 7.2 
z
" style="fill:#e0ffff;stroke:#000000;stroke-linejoin:miter;"/>
    </g>
    <g id="text_2">
     <!--   -->
     <g transform="translate(49.445983 27.090265)scale(0.13 -0.13)">
      <use xlink:href="#DejaVuSans-32"/>
     </g>
    </g>
    <g id="patch_3">
     <path d="M 66.282353 39.806155 
L 95.823529 39.806155 
L 95.823529 7.2 
L 66.282353 7.2 
z
" style="fill:#e0ffff;stroke:#000000;stroke-linejoin:miter;"/>
    </g>
    <g id="text_3">
     <!--   -->
     <g transform="translate(78.98716 27.090265)scale(0.13 -0.13)">
      <use xlink:href="#DejaVuSans-32"/>
     </g>
    </g>
    <g id="patch_4">
     <path d="M 95.823529 39.806155 
L 125.364706 39.806155 
L 125.364706 7.2 
L 95.823529 7.2 
z
" style="fill:#ffffff;stroke:#000000;stroke-linejoin:miter;"/>
    </g>
    <g id="text_4">
     <!--   -->
     <g transform="translate(108.528336 27.090265)scale(0.13 -0.13)">
      <use xlink:href="#DejaVuSans-32"/>
     </g>
    </g>
    <g id="patch_5">
     <path d="M 125.364706 39.806155 
L 154.905882 39.806155 
L 154.905882 7.2 
L 125.364706 7.2 
z
" style="fill:#ffffff;stroke:#000000;stroke-linejoin:miter;"/>
    </g>
    <g id="text_5">
     <!--   -->
     <g transform="translate(138.069513 27.090265)scale(0.13 -0.13)">
      <use xlink:href="#DejaVuSans-32"/>
     </g>
    </g>
    <g id="patch_6">
     <path d="M 154.905882 39.806155 
L 184.447059 39.806155 
L 184.447059 7.2 
L 154.905882 7.2 
z
" style="fill:#ffffff;stroke:#000000;stroke-linejoin:miter;"/>
    </g>
    <g id="text_6">
     <!--   -->
     <g transform="translate(167.610689 27.090265)scale(0.13 -0.13)">
      <use xlink:href="#DejaVuSans-32"/>
     </g>
    </g>
    <g id="patch_7">
     <path d="M 184.447059 39.806155 
L 213.988235 39.806155 
L 213.988235 7.2 
L 184.447059 7.2 
z
" style="fill:#ffffff;stroke:#000000;stroke-linejoin:miter;"/>
    </g>
    <g id="text_7">
     <!--   -->
     <g transform="translate(197.151866 27.090265)scale(0.13 -0.13)">
      <use xlink:href="#DejaVuSans-32"/>
     </g>
    </g>
    <g id="patch_8">
     <path d="M 7.2 72.41231 
L 36.741176 72.41231 
L 36.741176 39.806155 
L 7.2 39.806155 
z
" style="fill:#e0ffff;stroke:#000000;stroke-linejoin:miter;"/>
    </g>
    <g id="text_8">
     <!--   -->
     <g transform="translate(19.904807 59.69642)scale(0.13 -0.13)">
      <use xlink:href="#DejaVuSans-32"/>
     </g>
    </g>
    <g id="patch_9">
     <path d="M 36.741176 72.41231 
L 66.282353 72.41231 
L 66.282353 39.806155 
L 36.741176 39.806155 
z
" style="fill:#e0ffff;stroke:#000000;stroke-linejoin:miter;"/>
    </g>
    <g id="text_9">
     <!--   -->
     <g transform="translate(49.445983 59.69642)scale(0.13 -0.13)">
      <use xlink:href="#DejaVuSans-32"/>
     </g>
    </g>
    <g id="patch_10">
     <path d="M 66.282353 72.41231 
L 95.823529 72.41231 
L 95.823529 39.806155 
L 66.282353 39.806155 
z
" style="fill:#e0ffff;stroke:#000000;stroke-linejoin:miter;"/>
    </g>
    <g id="text_10">
     <!--   -->
     <g transform="translate(78.98716 59.69642)scale(0.13 -0.13)">
      <use xlink:href="#DejaVuSans-32"/>
     </g>
    </g>
    <g id="patch_11">
     <path d="M 95.823529 72.41231 
L 125.364706 72.41231 
L 125.364706 39.806155 
L 95.823529 39.806155 
z
" style="fill:#ffffff;stroke:#000000;stroke-linejoin:miter;"/>
    </g>
    <g id="text_11">
     <!--   -->
     <g transform="translate(108.528336 59.69642)scale(0.13 -0.13)">
      <use xlink:href="#DejaVuSans-32"/>
     </g>
    </g>
    <g id="patch_12">
     <path d="M 125.364706 72.41231 
L 154.905882 72.41231 
L 154.905882 39.806155 
L 125.364706 39.806155 
z
" style="fill:#ffffff;stroke:#000000;stroke-linejoin:miter;"/>
    </g>
    <g id="text_12">
     <!--   -->
     <g transform="translate(138.069513 59.69642)scale(0.13 -0.13)">
      <use xlink:href="#DejaVuSans-32"/>
     </g>
    </g>
    <g id="patch_13">
     <path d="M 154.905882 72.41231 
L 184.447059 72.41231 
L 184.447059 39.806155 
L 154.905882 39.806155 
z
" style="fill:#ffffff;stroke:#000000;stroke-linejoin:miter;"/>
    </g>
    <g id="text_13">
     <!--   -->
     <g transform="translate(167.610689 59.69642)scale(0.13 -0.13)">
      <use xlink:href="#DejaVuSans-32"/>
     </g>
    </g>
    <g id="patch_14">
     <path d="M 184.447059 72.41231 
L 213.988235 72.41231 
L 213.988235 39.806155 
L 184.447059 39.806155 
z
" style="fill:#ffffff;stroke:#000000;stroke-linejoin:miter;"/>
    </g>
    <g id="text_14">
     <!--   -->
     <g transform="translate(197.151866 59.69642)scale(0.13 -0.13)">
      <use xlink:href="#DejaVuSans-32"/>
     </g>
    </g>
    <g id="patch_15">
     <path d="M 7.2 105.018465 
L 36.741176 105.018465 
L 36.741176 72.41231 
L 7.2 72.41231 
z
" style="fill:#e0ffff;stroke:#000000;stroke-linejoin:miter;"/>
    </g>
    <g id="text_15">
     <!--   -->
     <g transform="translate(19.904807 92.302575)scale(0.13 -0.13)">
      <use xlink:href="#DejaVuSans-32"/>
     </g>
    </g>
    <g id="patch_16">
     <path d="M 36.741176 105.018465 
L 66.282353 105.018465 
L 66.282353 72.41231 
L 36.741176 72.41231 
z
" style="fill:#e0ffff;stroke:#000000;stroke-linejoin:miter;"/>
    </g>
    <g id="text_16">
     <!--   -->
     <g transform="translate(49.445983 92.302575)scale(0.13 -0.13)">
      <use xlink:href="#DejaVuSans-32"/>
     </g>
    </g>
    <g id="patch_17">
     <path d="M 66.282353 105.018465 
L 95.823529 105.018465 
L 95.823529 72.41231 
L 66.282353 72.41231 
z
" style="fill:#e0ffff;stroke:#000000;stroke-linejoin:miter;"/>
    </g>
    <g id="text_17">
     <!--   -->
     <g transform="translate(78.98716 92.302575)scale(0.13 -0.13)">
      <use xlink:href="#DejaVuSans-32"/>
     </g>
    </g>
    <g id="patch_18">
     <path d="M 95.823529 105.018465 
L 125.364706 105.018465 
L 125.364706 72.41231 
L 95.823529 72.41231 
z
" style="fill:#ffffff;stroke:#000000;stroke-linejoin:miter;"/>
    </g>
    <g id="text_18">
     <!--   -->
     <g transform="translate(108.528336 92.302575)scale(0.13 -0.13)">
      <use xlink:href="#DejaVuSans-32"/>
     </g>
    </g>
    <g id="patch_19">
     <path d="M 125.364706 105.018465 
L 154.905882 105.018465 
L 154.905882 72.41231 
L 125.364706 72.41231 
z
" style="fill:#ffffff;stroke:#000000;stroke-linejoin:miter;"/>
    </g>
    <g id="text_19">
     <!--   -->
     <g transform="translate(138.069513 92.302575)scale(0.13 -0.13)">
      <use xlink:href="#DejaVuSans-32"/>
     </g>
    </g>
    <g id="patch_20">
     <path d="M 154.905882 105.018465 
L 184.447059 105.018465 
L 184.447059 72.41231 
L 154.905882 72.41231 
z
" style="fill:#ffffff;stroke:#000000;stroke-linejoin:miter;"/>
    </g>
    <g id="text_20">
     <!--   -->
     <g transform="translate(167.610689 92.302575)scale(0.13 -0.13)">
      <use xlink:href="#DejaVuSans-32"/>
     </g>
    </g>
    <g id="patch_21">
     <path d="M 184.447059 105.018465 
L 213.988235 105.018465 
L 213.988235 72.41231 
L 184.447059 72.41231 
z
" style="fill:#ffffff;stroke:#000000;stroke-linejoin:miter;"/>
    </g>
    <g id="text_21">
     <!--   -->
     <g transform="translate(197.151866 92.302575)scale(0.13 -0.13)">
      <use xlink:href="#DejaVuSans-32"/>
     </g>
    </g>
    <g id="patch_22">
     <path d="M 7.2 137.62462 
L 36.741176 137.62462 
L 36.741176 105.018465 
L 7.2 105.018465 
z
" style="fill:#ffffff;stroke:#000000;stroke-linejoin:miter;"/>
    </g>
    <g id="text_22">
     <!--   -->
     <g transform="translate(19.904807 124.90873)scale(0.13 -0.13)">
      <use xlink:href="#DejaVuSans-32"/>
     </g>
    </g>
    <g id="patch_23">
     <path d="M 36.741176 137.62462 
L 66.282353 137.62462 
L 66.282353 105.018465 
L 36.741176 105.018465 
z
" style="fill:#ffffff;stroke:#000000;stroke-linejoin:miter;"/>
    </g>
    <g id="text_23">
     <!--   -->
     <g transform="translate(49.445983 124.90873)scale(0.13 -0.13)">
      <use xlink:href="#DejaVuSans-32"/>
     </g>
    </g>
    <g id="patch_24">
     <path d="M 66.282353 137.62462 
L 95.823529 137.62462 
L 95.823529 105.018465 
L 66.282353 105.018465 
z
" style="fill:#ffffff;stroke:#000000;stroke-linejoin:miter;"/>
    </g>
    <g id="text_24">
     <!--   -->
     <g transform="translate(78.98716 124.90873)scale(0.13 -0.13)">
      <use xlink:href="#DejaVuSans-32"/>
     </g>
    </g>
    <g id="patch_25">
     <path d="M 95.823529 137.62462 
L 125.364706 137.62462 
L 125.364706 105.018465 
L 95.823529 105.018465 
z
" style="fill:#ffffff;stroke:#000000;stroke-linejoin:miter;"/>
    </g>
    <g id="text_25">
     <!--   -->
     <g transform="translate(108.528336 124.90873)scale(0.13 -0.13)">
      <use xlink:href="#DejaVuSans-32"/>
     </g>
    </g>
    <g id="patch_26">
     <path d="M 125.364706 137.62462 
L 154.905882 137.62462 
L 154.905882 105.018465 
L 125.364706 105.018465 
z
" style="fill:#ffffff;stroke:#000000;stroke-linejoin:miter;"/>
    </g>
    <g id="text_26">
     <!--   -->
     <g transform="translate(138.069513 124.90873)scale(0.13 -0.13)">
      <use xlink:href="#DejaVuSans-32"/>
     </g>
    </g>
    <g id="patch_27">
     <path d="M 154.905882 137.62462 
L 184.447059 137.62462 
L 184.447059 105.018465 
L 154.905882 105.018465 
z
" style="fill:#ffffff;stroke:#000000;stroke-linejoin:miter;"/>
    </g>
    <g id="text_27">
     <!--   -->
     <g transform="translate(167.610689 124.90873)scale(0.13 -0.13)">
      <use xlink:href="#DejaVuSans-32"/>
     </g>
    </g>
    <g id="patch_28">
     <path d="M 184.447059 137.62462 
L 213.988235 137.62462 
L 213.988235 105.018465 
L 184.447059 105.018465 
z
" style="fill:#ffffff;stroke:#000000;stroke-linejoin:miter;"/>
    </g>
    <g id="text_28">
     <!--   -->
     <g transform="translate(197.151866 124.90873)scale(0.13 -0.13)">
      <use xlink:href="#DejaVuSans-32"/>
     </g>
    </g>
    <g id="patch_29">
     <path d="M 7.2 170.230775 
L 36.741176 170.230775 
L 36.741176 137.62462 
L 7.2 137.62462 
z
" style="fill:#ffffff;stroke:#000000;stroke-linejoin:miter;"/>
    </g>
    <g id="text_29">
     <!--   -->
     <g transform="translate(19.904807 157.514885)scale(0.13 -0.13)">
      <use xlink:href="#DejaVuSans-32"/>
     </g>
    </g>
    <g id="patch_30">
     <path d="M 36.741176 170.230775 
L 66.282353 170.230775 
L 66.282353 137.62462 
L 36.741176 137.62462 
z
" style="fill:#ffffff;stroke:#000000;stroke-linejoin:miter;"/>
    </g>
    <g id="text_30">
     <!--   -->
     <g transform="translate(49.445983 157.514885)scale(0.13 -0.13)">
      <use xlink:href="#DejaVuSans-32"/>
     </g>
    </g>
    <g id="patch_31">
     <path d="M 66.282353 170.230775 
L 95.823529 170.230775 
L 95.823529 137.62462 
L 66.282353 137.62462 
z
" style="fill:#ffffff;stroke:#000000;stroke-linejoin:miter;"/>
    </g>
    <g id="text_31">
     <!--   -->
     <g transform="translate(78.98716 157.514885)scale(0.13 -0.13)">
      <use xlink:href="#DejaVuSans-32"/>
     </g>
    </g>
    <g id="patch_32">
     <path d="M 95.823529 170.230775 
L 125.364706 170.230775 
L 125.364706 137.62462 
L 95.823529 137.62462 
z
" style="fill:#ffffff;stroke:#000000;stroke-linejoin:miter;"/>
    </g>
    <g id="text_32">
     <!--   -->
     <g transform="translate(108.528336 157.514885)scale(0.13 -0.13)">
      <use xlink:href="#DejaVuSans-32"/>
     </g>
    </g>
    <g id="patch_33">
     <path d="M 125.364706 170.230775 
L 154.905882 170.230775 
L 154.905882 137.62462 
L 125.364706 137.62462 
z
" style="fill:#ffffff;stroke:#000000;stroke-linejoin:miter;"/>
    </g>
    <g id="text_33">
     <!--   -->
     <g transform="translate(138.069513 157.514885)scale(0.13 -0.13)">
      <use xlink:href="#DejaVuSans-32"/>
     </g>
    </g>
    <g id="patch_34">
     <path d="M 154.905882 170.230775 
L 184.447059 170.230775 
L 184.447059 137.62462 
L 154.905882 137.62462 
z
" style="fill:#ffffff;stroke:#000000;stroke-linejoin:miter;"/>
    </g>
    <g id="text_34">
     <!--   -->
     <g transform="translate(167.610689 157.514885)scale(0.13 -0.13)">
      <use xlink:href="#DejaVuSans-32"/>
     </g>
    </g>
    <g id="patch_35">
     <path d="M 184.447059 170.230775 
L 213.988235 170.230775 
L 213.988235 137.62462 
L 184.447059 137.62462 
z
" style="fill:#ffffff;stroke:#000000;stroke-linejoin:miter;"/>
    </g>
    <g id="text_35">
     <!--   -->
     <g transform="translate(197.151866 157.514885)scale(0.13 -0.13)">
      <use xlink:href="#DejaVuSans-32"/>
     </g>
    </g>
    <g id="patch_36">
     <path d="M 7.2 202.83693 
L 36.741176 202.83693 
L 36.741176 170.230775 
L 7.2 170.230775 
z
" style="fill:#ffffff;stroke:#000000;stroke-linejoin:miter;"/>
    </g>
    <g id="text_36">
     <!--   -->
     <g transform="translate(19.904807 190.12104)scale(0.13 -0.13)">
      <use xlink:href="#DejaVuSans-32"/>
     </g>
    </g>
    <g id="patch_37">
     <path d="M 36.741176 202.83693 
L 66.282353 202.83693 
L 66.282353 170.230775 
L 36.741176 170.230775 
z
" style="fill:#ffffff;stroke:#000000;stroke-linejoin:miter;"/>
    </g>
    <g id="text_37">
     <!--   -->
     <g transform="translate(49.445983 190.12104)scale(0.13 -0.13)">
      <use xlink:href="#DejaVuSans-32"/>
     </g>
    </g>
    <g id="patch_38">
     <path d="M 66.282353 202.83693 
L 95.823529 202.83693 
L 95.823529 170.230775 
L 66.282353 170.230775 
z
" style="fill:#ffffff;stroke:#000000;stroke-linejoin:miter;"/>
    </g>
    <g id="text_38">
     <!--   -->
     <g transform="translate(78.98716 190.12104)scale(0.13 -0.13)">
      <use xlink:href="#DejaVuSans-32"/>
     </g>
    </g>
    <g id="patch_39">
     <path d="M 95.823529 202.83693 
L 125.364706 202.83693 
L 125.364706 170.230775 
L 95.823529 170.230775 
z
" style="fill:#ffffff;stroke:#000000;stroke-linejoin:miter;"/>
    </g>
    <g id="text_39">
     <!--   -->
     <g transform="translate(108.528336 190.12104)scale(0.13 -0.13)">
      <use xlink:href="#DejaVuSans-32"/>
     </g>
    </g>
    <g id="patch_40">
     <path d="M 125.364706 202.83693 
L 154.905882 202.83693 
L 154.905882 170.230775 
L 125.364706 170.230775 
z
" style="fill:#ffffff;stroke:#000000;stroke-linejoin:miter;"/>
    </g>
    <g id="text_40">
     <!--   -->
     <g transform="translate(138.069513 190.12104)scale(0.13 -0.13)">
      <use xlink:href="#DejaVuSans-32"/>
     </g>
    </g>
    <g id="patch_41">
     <path d="M 154.905882 202.83693 
L 184.447059 202.83693 
L 184.447059 170.230775 
L 154.905882 170.230775 
z
" style="fill:#ffffff;stroke:#000000;stroke-linejoin:miter;"/>
    </g>
    <g id="text_41">
     <!--   -->
     <g transform="translate(167.610689 190.12104)scale(0.13 -0.13)">
      <use xlink:href="#DejaVuSans-32"/>
     </g>
    </g>
    <g id="patch_42">
     <path d="M 184.447059 202.83693 
L 213.988235 202.83693 
L 213.988235 170.230775 
L 184.447059 170.230775 
z
" style="fill:#ffffff;stroke:#000000;stroke-linejoin:miter;"/>
    </g>
    <g id="text_42">
     <!--   -->
     <g transform="translate(197.151866 190.12104)scale(0.13 -0.13)">
      <use xlink:href="#DejaVuSans-32"/>
     </g>
    </g>
    <g id="patch_43">
     <path d="M 7.2 235.443085 
L 36.741176 235.443085 
L 36.741176 202.83693 
L 7.2 202.83693 
z
" style="fill:#ffffff;stroke:#000000;stroke-linejoin:miter;"/>
    </g>
    <g id="text_43">
     <!--   -->
     <g transform="translate(19.904807 222.727195)scale(0.13 -0.13)">
      <use xlink:href="#DejaVuSans-32"/>
     </g>
    </g>
    <g id="patch_44">
     <path d="M 36.741176 235.443085 
L 66.282353 235.443085 
L 66.282353 202.83693 
L 36.741176 202.83693 
z
" style="fill:#ffffff;stroke:#000000;stroke-linejoin:miter;"/>
    </g>
    <g id="text_44">
     <!--   -->
     <g transform="translate(49.445983 222.727195)scale(0.13 -0.13)">
      <use xlink:href="#DejaVuSans-32"/>
     </g>
    </g>
    <g id="patch_45">
     <path d="M 66.282353 235.443085 
L 95.823529 235.443085 
L 95.823529 202.83693 
L 66.282353 202.83693 
z
" style="fill:#ffffff;stroke:#000000;stroke-linejoin:miter;"/>
    </g>
    <g id="text_45">
     <!--   -->
     <g transform="translate(78.98716 222.727195)scale(0.13 -0.13)">
      <use xlink:href="#DejaVuSans-32"/>
     </g>
    </g>
    <g id="patch_46">
     <path d="M 95.823529 235.443085 
L 125.364706 235.443085 
L 125.364706 202.83693 
L 95.823529 202.83693 
z
" style="fill:#ffffff;stroke:#000000;stroke-linejoin:miter;"/>
    </g>
    <g id="text_46">
     <!--   -->
     <g transform="translate(108.528336 222.727195)scale(0.13 -0.13)">
      <use xlink:href="#DejaVuSans-32"/>
     </g>
    </g>
    <g id="patch_47">
     <path d="M 125.364706 235.443085 
L 154.905882 235.443085 
L 154.905882 202.83693 
L 125.364706 202.83693 
z
" style="fill:#ffffff;stroke:#000000;stroke-linejoin:miter;"/>
    </g>
    <g id="text_47">
     <!--   -->
     <g transform="translate(138.069513 222.727195)scale(0.13 -0.13)">
      <use xlink:href="#DejaVuSans-32"/>
     </g>
    </g>
    <g id="patch_48">
     <path d="M 154.905882 235.443085 
L 184.447059 235.443085 
L 184.447059 202.83693 
L 154.905882 202.83693 
z
" style="fill:#ffffff;stroke:#000000;stroke-linejoin:miter;"/>
    </g>
    <g id="text_48">
     <!--   -->
     <g transform="translate(167.610689 222.727195)scale(0.13 -0.13)">
      <use xlink:href="#DejaVuSans-32"/>
     </g>
    </g>
    <g id="patch_49">
     <path d="M 184.447059 235.443085 
L 213.988235 235.443085 
L 213.988235 202.83693 
L 184.447059 202.83693 
z
" style="fill:#ffffff;stroke:#000000;stroke-linejoin:miter;"/>
    </g>
    <g id="text_49">
     <!--   -->
     <g transform="translate(197.151866 222.727195)scale(0.13 -0.13)">
      <use xlink:href="#DejaVuSans-32"/>
     </g>
    </g>
   </g>
   <g id="text_50">
    <!-- $7\times 7 $ -->
    <g transform="translate(96.749118 269.058335)scale(0.13 -0.13)">
     <defs>
      <path d="M 17.390625 2.59375 
Q 17.390625 8.15625 18.359375 13.46875 
Q 19.34375 18.796875 21.21875 24 
Q 23.09375 29.203125 25.75 34.203125 
Q 28.421875 39.203125 31.59375 43.609375 
L 40.71875 56.296875 
L 29.296875 56.296875 
Q 11.53125 56.296875 10.984375 55.8125 
Q 9.671875 54.203125 8.5 46.578125 
L 5.609375 46.578125 
L 8.890625 67.578125 
L 11.8125 67.578125 
L 11.8125 67.28125 
Q 11.8125 65.484375 17.921875 64.9375 
Q 24.03125 64.40625 29.890625 64.40625 
L 48.484375 64.40625 
L 48.484375 61.8125 
Q 48.484375 61.71875 48.453125 61.671875 
Q 48.4375 61.625 48.390625 61.53125 
L 34.625 42.1875 
Q 29.546875 34.671875 28.265625 25.484375 
Q 27 16.3125 27 2.59375 
Q 27 0.640625 25.578125 -0.78125 
Q 24.171875 -2.203125 22.21875 -2.203125 
Q 20.21875 -2.203125 18.796875 -0.78125 
Q 17.390625 0.640625 17.390625 2.59375 
z
" id="Cmr10-55"/>
      <path d="M 14.703125 2.875 
Q 14.703125 3.65625 15.1875 4.296875 
L 35.984375 25 
L 15.1875 45.796875 
Q 14.703125 46.296875 14.703125 47.125 
Q 14.703125 47.859375 15.28125 48.484375 
Q 15.875 49.125 16.703125 49.125 
Q 17.390625 49.125 18.21875 48.484375 
L 38.921875 27.78125 
L 59.515625 48.484375 
Q 60.359375 49.125 60.984375 49.125 
Q 61.8125 49.125 62.390625 48.53125 
Q 62.984375 47.953125 62.984375 47.125 
Q 62.984375 46.296875 62.5 45.796875 
L 41.703125 25 
L 62.5 4.296875 
Q 62.984375 3.65625 62.984375 2.875 
Q 62.984375 2.046875 62.390625 1.453125 
Q 61.8125 0.875 60.984375 0.875 
Q 60.25 0.875 59.515625 1.609375 
L 38.921875 22.21875 
L 18.21875 1.609375 
Q 17.484375 0.875 16.703125 0.875 
Q 15.875 0.875 15.28125 1.515625 
Q 14.703125 2.15625 14.703125 2.875 
z
" id="Cmsy10-163"/>
     </defs>
     <use transform="translate(0 0.421875)" xlink:href="#Cmr10-55"/>
     <use transform="translate(67.558594 0.421875)" xlink:href="#Cmsy10-163"/>
     <use transform="translate(162.802734 0.421875)" xlink:href="#Cmr10-55"/>
    </g>
   </g>
   <g id="patch_50">
    <path d="M 107.682832 54.994679 
Q 81.054957 45.015727 53.38015 55.385512 
" style="fill:none;stroke:#1e90ff;stroke-linecap:round;"/>
    <path d="M 104.639061 51.718178 
L 107.682832 54.994679 
L 103.235368 55.463796 
" style="fill:none;stroke:#1e90ff;stroke-linecap:round;"/>
   </g>
   <g id="patch_51">
    <path d="M 166.765185 54.994679 
Q 140.13731 45.015727 112.462503 55.385512 
" style="fill:none;stroke:#1e90ff;stroke-linecap:round;"/>
    <path d="M 163.721413 51.718178 
L 166.765185 54.994679 
L 162.317721 55.463796 
" style="fill:none;stroke:#1e90ff;stroke-linecap:round;"/>
   </g>
   <g id="patch_52">
    <path d="M 107.682832 120.206989 
Q 81.054957 110.228037 53.38015 120.597822 
" style="fill:none;stroke:#1e90ff;stroke-linecap:round;"/>
    <path d="M 104.639061 116.930489 
L 107.682832 120.206989 
L 103.235368 120.676106 
" style="fill:none;stroke:#1e90ff;stroke-linecap:round;"/>
   </g>
   <g id="patch_53">
    <path d="M 166.765185 120.206989 
Q 140.13731 110.228037 112.462503 120.597822 
" style="fill:none;stroke:#1e90ff;stroke-linecap:round;"/>
    <path d="M 163.721413 116.930489 
L 166.765185 120.206989 
L 162.317721 120.676106 
" style="fill:none;stroke:#1e90ff;stroke-linecap:round;"/>
   </g>
   <g id="patch_54">
    <path d="M 107.682832 185.419299 
Q 81.054957 175.440347 53.38015 185.810132 
" style="fill:none;stroke:#1e90ff;stroke-linecap:round;"/>
    <path d="M 104.639061 182.142799 
L 107.682832 185.419299 
L 103.235368 185.888416 
" style="fill:none;stroke:#1e90ff;stroke-linecap:round;"/>
   </g>
   <g id="patch_55">
    <path d="M 166.765185 185.419299 
Q 140.13731 175.440347 112.462503 185.810132 
" style="fill:none;stroke:#1e90ff;stroke-linecap:round;"/>
    <path d="M 163.721413 182.142799 
L 166.765185 185.419299 
L 162.317721 185.888416 
" style="fill:none;stroke:#1e90ff;stroke-linecap:round;"/>
   </g>
   <g id="patch_56">
    <path d="M 53.096242 118.640458 
Q 91.521263 54.158005 167.678192 56.048276 
" style="fill:none;stroke:#1e90ff;stroke-linecap:round;"/>
    <path d="M 56.86194 116.22809 
L 53.096242 118.640458 
L 53.425767 114.180479 
" style="fill:none;stroke:#1e90ff;stroke-linecap:round;"/>
   </g>
   <g id="patch_57">
    <path d="M 53.096242 183.852768 
Q 91.521263 119.370315 167.678192 121.260586 
" style="fill:none;stroke:#1e90ff;stroke-linecap:round;"/>
    <path d="M 56.86194 181.440401 
L 53.096242 183.852768 
L 53.425767 179.392789 
" style="fill:none;stroke:#1e90ff;stroke-linecap:round;"/>
   </g>
  </g>
  <g id="axes_2">
   <g id="table_2">
    <g id="patch_58">
     <path d="M 302.611765 105.018465 
L 332.152941 105.018465 
L 332.152941 72.41231 
L 302.611765 72.41231 
z
" style="fill:#e0ffff;stroke:#000000;stroke-linejoin:miter;"/>
    </g>
    <g id="text_51">
     <!--   -->
     <g transform="translate(315.316572 92.302575)scale(0.13 -0.13)">
      <use xlink:href="#DejaVuSans-32"/>
     </g>
    </g>
    <g id="patch_59">
     <path d="M 332.152941 105.018465 
L 361.694118 105.018465 
L 361.694118 72.41231 
L 332.152941 72.41231 
z
" style="fill:#e0ffff;stroke:#000000;stroke-linejoin:miter;"/>
    </g>
    <g id="text_52">
     <!--   -->
     <g transform="translate(344.857748 92.302575)scale(0.13 -0.13)">
      <use xlink:href="#DejaVuSans-32"/>
     </g>
    </g>
    <g id="patch_60">
     <path d="M 361.694118 105.018465 
L 391.235294 105.018465 
L 391.235294 72.41231 
L 361.694118 72.41231 
z
" style="fill:#e0ffff;stroke:#000000;stroke-linejoin:miter;"/>
    </g>
    <g id="text_53">
     <!--   -->
     <g transform="translate(374.398925 92.302575)scale(0.13 -0.13)">
      <use xlink:href="#DejaVuSans-32"/>
     </g>
    </g>
    <g id="patch_61">
     <path d="M 302.611765 137.62462 
L 332.152941 137.62462 
L 332.152941 105.018465 
L 302.611765 105.018465 
z
" style="fill:#e0ffff;stroke:#000000;stroke-linejoin:miter;"/>
    </g>
    <g id="text_54">
     <!--   -->
     <g transform="translate(315.316572 124.90873)scale(0.13 -0.13)">
      <use xlink:href="#DejaVuSans-32"/>
     </g>
    </g>
    <g id="patch_62">
     <path d="M 332.152941 137.62462 
L 361.694118 137.62462 
L 361.694118 105.018465 
L 332.152941 105.018465 
z
" style="fill:#e0ffff;stroke:#000000;stroke-linejoin:miter;"/>
    </g>
    <g id="text_55">
     <!--   -->
     <g transform="translate(344.857748 124.90873)scale(0.13 -0.13)">
      <use xlink:href="#DejaVuSans-32"/>
     </g>
    </g>
    <g id="patch_63">
     <path d="M 361.694118 137.62462 
L 391.235294 137.62462 
L 391.235294 105.018465 
L 361.694118 105.018465 
z
" style="fill:#e0ffff;stroke:#000000;stroke-linejoin:miter;"/>
    </g>
    <g id="text_56">
     <!--   -->
     <g transform="translate(374.398925 124.90873)scale(0.13 -0.13)">
      <use xlink:href="#DejaVuSans-32"/>
     </g>
    </g>
    <g id="patch_64">
     <path d="M 302.611765 170.230775 
L 332.152941 170.230775 
L 332.152941 137.62462 
L 302.611765 137.62462 
z
" style="fill:#e0ffff;stroke:#000000;stroke-linejoin:miter;"/>
    </g>
    <g id="text_57">
     <!--   -->
     <g transform="translate(315.316572 157.514885)scale(0.13 -0.13)">
      <use xlink:href="#DejaVuSans-32"/>
     </g>
    </g>
    <g id="patch_65">
     <path d="M 332.152941 170.230775 
L 361.694118 170.230775 
L 361.694118 137.62462 
L 332.152941 137.62462 
z
" style="fill:#e0ffff;stroke:#000000;stroke-linejoin:miter;"/>
    </g>
    <g id="text_58">
     <!--   -->
     <g transform="translate(344.857748 157.514885)scale(0.13 -0.13)">
      <use xlink:href="#DejaVuSans-32"/>
     </g>
    </g>
    <g id="patch_66">
     <path d="M 361.694118 170.230775 
L 391.235294 170.230775 
L 391.235294 137.62462 
L 361.694118 137.62462 
z
" style="fill:#e0ffff;stroke:#000000;stroke-linejoin:miter;"/>
    </g>
    <g id="text_59">
     <!--   -->
     <g transform="translate(374.398925 157.514885)scale(0.13 -0.13)">
      <use xlink:href="#DejaVuSans-32"/>
     </g>
    </g>
   </g>
   <g id="text_60">
    <!-- * -->
    <g transform="translate(258.3 125.460605)scale(0.15 -0.15)">
     <defs>
      <path d="M 47.015625 60.890625 
L 29.5 51.421875 
L 47.015625 41.890625 
L 44.1875 37.109375 
L 27.78125 47.015625 
L 27.78125 28.609375 
L 22.21875 28.609375 
L 22.21875 47.015625 
L 5.8125 37.109375 
L 2.984375 41.890625 
L 20.515625 51.421875 
L 2.984375 60.890625 
L 5.8125 65.71875 
L 22.21875 55.8125 
L 22.21875 74.21875 
L 27.78125 74.21875 
L 27.78125 55.8125 
L 44.1875 65.71875 
z
" id="DejaVuSans-42"/>
     </defs>
     <use xlink:href="#DejaVuSans-42"/>
    </g>
   </g>
   <g id="text_61">
    <!-- $3\times 3$ -->
    <g transform="translate(333.078529 269.058335)scale(0.13 -0.13)">
     <defs>
      <path d="M 9.515625 7.71875 
Q 11.859375 4.296875 15.8125 2.640625 
Q 19.78125 0.984375 24.3125 0.984375 
Q 30.125 0.984375 32.5625 5.9375 
Q 35.015625 10.890625 35.015625 17.1875 
Q 35.015625 20.015625 34.5 22.84375 
Q 33.984375 25.6875 32.765625 28.125 
Q 31.546875 30.5625 29.421875 32.03125 
Q 27.296875 33.5 24.21875 33.5 
L 17.578125 33.5 
Q 16.703125 33.5 16.703125 34.421875 
L 16.703125 35.296875 
Q 16.703125 36.078125 17.578125 36.078125 
L 23.09375 36.53125 
Q 26.609375 36.53125 28.921875 39.15625 
Q 31.25 41.796875 32.328125 45.578125 
Q 33.40625 49.359375 33.40625 52.78125 
Q 33.40625 57.5625 31.15625 60.640625 
Q 28.90625 63.71875 24.3125 63.71875 
Q 20.515625 63.71875 17.046875 62.28125 
Q 13.578125 60.84375 11.53125 57.90625 
Q 11.71875 57.953125 11.859375 57.984375 
Q 12.015625 58.015625 12.203125 58.015625 
Q 14.453125 58.015625 15.96875 56.453125 
Q 17.484375 54.890625 17.484375 52.6875 
Q 17.484375 50.53125 15.96875 48.96875 
Q 14.453125 47.40625 12.203125 47.40625 
Q 10.015625 47.40625 8.453125 48.96875 
Q 6.890625 50.53125 6.890625 52.6875 
Q 6.890625 56.984375 9.46875 60.15625 
Q 12.0625 63.328125 16.140625 64.96875 
Q 20.21875 66.609375 24.3125 66.609375 
Q 27.34375 66.609375 30.703125 65.703125 
Q 34.078125 64.796875 36.8125 63.109375 
Q 39.546875 61.421875 41.28125 58.78125 
Q 43.015625 56.15625 43.015625 52.78125 
Q 43.015625 48.578125 41.140625 45.015625 
Q 39.265625 41.453125 35.984375 38.859375 
Q 32.71875 36.28125 28.8125 35.015625 
Q 33.15625 34.1875 37.0625 31.734375 
Q 40.96875 29.296875 43.328125 25.484375 
Q 45.703125 21.6875 45.703125 17.28125 
Q 45.703125 11.765625 42.671875 7.296875 
Q 39.65625 2.828125 34.71875 0.3125 
Q 29.78125 -2.203125 24.3125 -2.203125 
Q 19.625 -2.203125 14.90625 -0.40625 
Q 10.203125 1.375 7.203125 4.9375 
Q 4.203125 8.5 4.203125 13.484375 
Q 4.203125 15.96875 5.859375 17.625 
Q 7.515625 19.28125 10.015625 19.28125 
Q 11.625 19.28125 12.96875 18.53125 
Q 14.3125 17.78125 15.0625 16.40625 
Q 15.828125 15.046875 15.828125 13.484375 
Q 15.828125 11.03125 14.109375 9.375 
Q 12.40625 7.71875 10.015625 7.71875 
z
" id="Cmr10-51"/>
     </defs>
     <use transform="translate(0 0.390625)" xlink:href="#Cmr10-51"/>
     <use transform="translate(67.558594 0.390625)" xlink:href="#Cmsy10-163"/>
     <use transform="translate(162.802734 0.390625)" xlink:href="#Cmr10-51"/>
    </g>
   </g>
  </g>
  <g id="axes_3">
   <g id="table_3">
    <g id="patch_67">
     <path d="M 538.941176 105.018465 
L 568.482353 105.018465 
L 568.482353 72.41231 
L 538.941176 72.41231 
z
" style="fill:#ffffff;stroke:#000000;stroke-linejoin:miter;"/>
    </g>
    <g id="text_62">
     <!--   -->
     <g transform="translate(551.645983 92.302575)scale(0.13 -0.13)">
      <use xlink:href="#DejaVuSans-32"/>
     </g>
    </g>
    <g id="patch_68">
     <path d="M 568.482353 105.018465 
L 598.023529 105.018465 
L 598.023529 72.41231 
L 568.482353 72.41231 
z
" style="fill:#ffffff;stroke:#000000;stroke-linejoin:miter;"/>
    </g>
    <g id="text_63">
     <!--   -->
     <g transform="translate(581.18716 92.302575)scale(0.13 -0.13)">
      <use xlink:href="#DejaVuSans-32"/>
     </g>
    </g>
    <g id="patch_69">
     <path d="M 598.023529 105.018465 
L 627.564706 105.018465 
L 627.564706 72.41231 
L 598.023529 72.41231 
z
" style="fill:#ffffff;stroke:#000000;stroke-linejoin:miter;"/>
    </g>
    <g id="text_64">
     <!--   -->
     <g transform="translate(610.728336 92.302575)scale(0.13 -0.13)">
      <use xlink:href="#DejaVuSans-32"/>
     </g>
    </g>
    <g id="patch_70">
     <path d="M 538.941176 137.62462 
L 568.482353 137.62462 
L 568.482353 105.018465 
L 538.941176 105.018465 
z
" style="fill:#ffffff;stroke:#000000;stroke-linejoin:miter;"/>
    </g>
    <g id="text_65">
     <!--   -->
     <g transform="translate(551.645983 124.90873)scale(0.13 -0.13)">
      <use xlink:href="#DejaVuSans-32"/>
     </g>
    </g>
    <g id="patch_71">
     <path d="M 568.482353 137.62462 
L 598.023529 137.62462 
L 598.023529 105.018465 
L 568.482353 105.018465 
z
" style="fill:#ffffff;stroke:#000000;stroke-linejoin:miter;"/>
    </g>
    <g id="text_66">
     <!--   -->
     <g transform="translate(581.18716 124.90873)scale(0.13 -0.13)">
      <use xlink:href="#DejaVuSans-32"/>
     </g>
    </g>
    <g id="patch_72">
     <path d="M 598.023529 137.62462 
L 627.564706 137.62462 
L 627.564706 105.018465 
L 598.023529 105.018465 
z
" style="fill:#ffffff;stroke:#000000;stroke-linejoin:miter;"/>
    </g>
    <g id="text_67">
     <!--   -->
     <g transform="translate(610.728336 124.90873)scale(0.13 -0.13)">
      <use xlink:href="#DejaVuSans-32"/>
     </g>
    </g>
    <g id="patch_73">
     <path d="M 538.941176 170.230775 
L 568.482353 170.230775 
L 568.482353 137.62462 
L 538.941176 137.62462 
z
" style="fill:#ffffff;stroke:#000000;stroke-linejoin:miter;"/>
    </g>
    <g id="text_68">
     <!--   -->
     <g transform="translate(551.645983 157.514885)scale(0.13 -0.13)">
      <use xlink:href="#DejaVuSans-32"/>
     </g>
    </g>
    <g id="patch_74">
     <path d="M 568.482353 170.230775 
L 598.023529 170.230775 
L 598.023529 137.62462 
L 568.482353 137.62462 
z
" style="fill:#ffffff;stroke:#000000;stroke-linejoin:miter;"/>
    </g>
    <g id="text_69">
     <!--   -->
     <g transform="translate(581.18716 157.514885)scale(0.13 -0.13)">
      <use xlink:href="#DejaVuSans-32"/>
     </g>
    </g>
    <g id="patch_75">
     <path d="M 598.023529 170.230775 
L 627.564706 170.230775 
L 627.564706 137.62462 
L 598.023529 137.62462 
z
" style="fill:#ffffff;stroke:#000000;stroke-linejoin:miter;"/>
    </g>
    <g id="text_70">
     <!--   -->
     <g transform="translate(610.728336 157.514885)scale(0.13 -0.13)">
      <use xlink:href="#DejaVuSans-32"/>
     </g>
    </g>
   </g>
   <g id="text_71">
    <!-- = -->
    <g transform="translate(445.394118 125.460605)scale(0.15 -0.15)">
     <defs>
      <path d="M 10.59375 45.40625 
L 73.1875 45.40625 
L 73.1875 37.203125 
L 10.59375 37.203125 
z
M 10.59375 25.484375 
L 73.1875 25.484375 
L 73.1875 17.1875 
L 10.59375 17.1875 
z
" id="DejaVuSans-61"/>
     </defs>
     <use xlink:href="#DejaVuSans-61"/>
    </g>
   </g>
   <g id="text_72">
    <!-- $3\times 3$ -->
    <g transform="translate(569.407941 269.058335)scale(0.13 -0.13)">
     <use transform="translate(0 0.390625)" xlink:href="#Cmr10-51"/>
     <use transform="translate(67.558594 0.390625)" xlink:href="#Cmsy10-163"/>
     <use transform="translate(162.802734 0.390625)" xlink:href="#Cmr10-51"/>
    </g>
   </g>
  </g>
 </g>
</svg>
