<?xml version="1.0" encoding="utf-8" standalone="no"?>
<!DOCTYPE svg PUBLIC "-//W3C//DTD SVG 1.1//EN"
  "http://www.w3.org/Graphics/SVG/1.1/DTD/svg11.dtd">
<!-- Created with matplotlib (https://matplotlib.org/) -->
<svg height="160.812243pt" version="1.1" viewBox="0 0 460.8 160.812243" width="460.8pt" xmlns="http://www.w3.org/2000/svg" xmlns:xlink="http://www.w3.org/1999/xlink">
 <metadata>
  <rdf:RDF xmlns:cc="http://creativecommons.org/ns#" xmlns:dc="http://purl.org/dc/elements/1.1/" xmlns:rdf="http://www.w3.org/1999/02/22-rdf-syntax-ns#">
   <cc:Work>
    <dc:type rdf:resource="http://purl.org/dc/dcmitype/StillImage"/>
    <dc:date>2021-05-03T19:53:21.788592</dc:date>
    <dc:format>image/svg+xml</dc:format>
    <dc:creator>
     <cc:Agent>
      <dc:title>Matplotlib v3.3.4, https://matplotlib.org/</dc:title>
     </cc:Agent>
    </dc:creator>
   </cc:Work>
  </rdf:RDF>
 </metadata>
 <defs>
  <style type="text/css">*{stroke-linecap:butt;stroke-linejoin:round;}</style>
 </defs>
 <g id="figure_1">
  <g id="axes_1">
   <g id="table_1">
    <g id="patch_1">
     <path d="M 33.458824 73.473559 
L 59.717647 73.473559 
L 59.717647 44.49031 
L 33.458824 44.49031 
z
" style="fill:#bfbf00;stroke:#000000;stroke-linejoin:miter;"/>
    </g>
    <g id="text_1">
     <!-- 1 -->
     <g transform="translate(42.45261 62.569122)scale(0.13 -0.13)">
      <defs>
       <path d="M 12.40625 8.296875 
L 28.515625 8.296875 
L 28.515625 63.921875 
L 10.984375 60.40625 
L 10.984375 69.390625 
L 28.421875 72.90625 
L 38.28125 72.90625 
L 38.28125 8.296875 
L 54.390625 8.296875 
L 54.390625 0 
L 12.40625 0 
z
" id="DejaVuSans-49"/>
      </defs>
      <use xlink:href="#DejaVuSans-49"/>
     </g>
    </g>
    <g id="patch_2">
     <path d="M 59.717647 73.473559 
L 85.976471 73.473559 
L 85.976471 44.49031 
L 59.717647 44.49031 
z
" style="fill:#bfbf00;stroke:#000000;stroke-linejoin:miter;"/>
    </g>
    <g id="text_2">
     <!-- 0 -->
     <g transform="translate(68.711434 62.569122)scale(0.13 -0.13)">
      <defs>
       <path d="M 31.78125 66.40625 
Q 24.171875 66.40625 20.328125 58.90625 
Q 16.5 51.421875 16.5 36.375 
Q 16.5 21.390625 20.328125 13.890625 
Q 24.171875 6.390625 31.78125 6.390625 
Q 39.453125 6.390625 43.28125 13.890625 
Q 47.125 21.390625 47.125 36.375 
Q 47.125 51.421875 43.28125 58.90625 
Q 39.453125 66.40625 31.78125 66.40625 
z
M 31.78125 74.21875 
Q 44.046875 74.21875 50.515625 64.515625 
Q 56.984375 54.828125 56.984375 36.375 
Q 56.984375 17.96875 50.515625 8.265625 
Q 44.046875 -1.421875 31.78125 -1.421875 
Q 19.53125 -1.421875 13.0625 8.265625 
Q 6.59375 17.96875 6.59375 36.375 
Q 6.59375 54.828125 13.0625 64.515625 
Q 19.53125 74.21875 31.78125 74.21875 
z
" id="DejaVuSans-48"/>
      </defs>
      <use xlink:href="#DejaVuSans-48"/>
     </g>
    </g>
    <g id="patch_3">
     <path d="M 85.976471 73.473559 
L 112.235294 73.473559 
L 112.235294 44.49031 
L 85.976471 44.49031 
z
" style="fill:#bfbf00;stroke:#000000;stroke-linejoin:miter;"/>
    </g>
    <g id="text_3">
     <!-- -1 -->
     <g transform="translate(92.625179 62.569122)scale(0.13 -0.13)">
      <defs>
       <path d="M 4.890625 31.390625 
L 31.203125 31.390625 
L 31.203125 23.390625 
L 4.890625 23.390625 
z
" id="DejaVuSans-45"/>
      </defs>
      <use xlink:href="#DejaVuSans-45"/>
      <use x="36.083984" xlink:href="#DejaVuSans-49"/>
     </g>
    </g>
    <g id="patch_4">
     <path d="M 33.458824 102.456808 
L 59.717647 102.456808 
L 59.717647 73.473559 
L 33.458824 73.473559 
z
" style="fill:#bfbf00;stroke:#000000;stroke-linejoin:miter;"/>
    </g>
    <g id="text_4">
     <!-- 1 -->
     <g transform="translate(42.45261 91.552371)scale(0.13 -0.13)">
      <use xlink:href="#DejaVuSans-49"/>
     </g>
    </g>
    <g id="patch_5">
     <path d="M 59.717647 102.456808 
L 85.976471 102.456808 
L 85.976471 73.473559 
L 59.717647 73.473559 
z
" style="fill:#bfbf00;stroke:#000000;stroke-linejoin:miter;"/>
    </g>
    <g id="text_5">
     <!-- 0 -->
     <g transform="translate(68.711434 91.552371)scale(0.13 -0.13)">
      <use xlink:href="#DejaVuSans-48"/>
     </g>
    </g>
    <g id="patch_6">
     <path d="M 85.976471 102.456808 
L 112.235294 102.456808 
L 112.235294 73.473559 
L 85.976471 73.473559 
z
" style="fill:#bfbf00;stroke:#000000;stroke-linejoin:miter;"/>
    </g>
    <g id="text_6">
     <!-- -1 -->
     <g transform="translate(92.625179 91.552371)scale(0.13 -0.13)">
      <use xlink:href="#DejaVuSans-45"/>
      <use x="36.083984" xlink:href="#DejaVuSans-49"/>
     </g>
    </g>
    <g id="patch_7">
     <path d="M 33.458824 131.440057 
L 59.717647 131.440057 
L 59.717647 102.456808 
L 33.458824 102.456808 
z
" style="fill:#bfbf00;stroke:#000000;stroke-linejoin:miter;"/>
    </g>
    <g id="text_7">
     <!-- 1 -->
     <g transform="translate(42.45261 120.53562)scale(0.13 -0.13)">
      <use xlink:href="#DejaVuSans-49"/>
     </g>
    </g>
    <g id="patch_8">
     <path d="M 59.717647 131.440057 
L 85.976471 131.440057 
L 85.976471 102.456808 
L 59.717647 102.456808 
z
" style="fill:#bfbf00;stroke:#000000;stroke-linejoin:miter;"/>
    </g>
    <g id="text_8">
     <!-- 0 -->
     <g transform="translate(68.711434 120.53562)scale(0.13 -0.13)">
      <use xlink:href="#DejaVuSans-48"/>
     </g>
    </g>
    <g id="patch_9">
     <path d="M 85.976471 131.440057 
L 112.235294 131.440057 
L 112.235294 102.456808 
L 85.976471 102.456808 
z
" style="fill:#bfbf00;stroke:#000000;stroke-linejoin:miter;"/>
    </g>
    <g id="text_9">
     <!-- -1 -->
     <g transform="translate(92.625179 120.53562)scale(0.13 -0.13)">
      <use xlink:href="#DejaVuSans-45"/>
      <use x="36.083984" xlink:href="#DejaVuSans-49"/>
     </g>
    </g>
   </g>
   <g id="text_10">
    <!-- R -->
    <g transform="translate(68.677996 16.318125)scale(0.12 -0.12)">
     <defs>
      <path d="M 44.390625 34.1875 
Q 47.5625 33.109375 50.5625 29.59375 
Q 53.5625 26.078125 56.59375 19.921875 
L 66.609375 0 
L 56 0 
L 46.6875 18.703125 
Q 43.0625 26.03125 39.671875 28.421875 
Q 36.28125 30.8125 30.421875 30.8125 
L 19.671875 30.8125 
L 19.671875 0 
L 9.8125 0 
L 9.8125 72.90625 
L 32.078125 72.90625 
Q 44.578125 72.90625 50.734375 67.671875 
Q 56.890625 62.453125 56.890625 51.90625 
Q 56.890625 45.015625 53.6875 40.46875 
Q 50.484375 35.9375 44.390625 34.1875 
z
M 19.671875 64.796875 
L 19.671875 38.921875 
L 32.078125 38.921875 
Q 39.203125 38.921875 42.84375 42.21875 
Q 46.484375 45.515625 46.484375 51.90625 
Q 46.484375 58.296875 42.84375 61.546875 
Q 39.203125 64.796875 32.078125 64.796875 
z
" id="DejaVuSans-82"/>
     </defs>
     <use xlink:href="#DejaVuSans-82"/>
    </g>
   </g>
  </g>
  <g id="axes_2">
   <g id="table_2">
    <g id="patch_10">
     <path d="M 191.011765 73.473559 
L 217.270588 73.473559 
L 217.270588 44.49031 
L 191.011765 44.49031 
z
" style="fill:#bfbf00;stroke:#000000;stroke-linejoin:miter;"/>
    </g>
    <g id="text_11">
     <!-- 0 -->
     <g transform="translate(200.005551 62.569122)scale(0.13 -0.13)">
      <use xlink:href="#DejaVuSans-48"/>
     </g>
    </g>
    <g id="patch_11">
     <path d="M 217.270588 73.473559 
L 243.529412 73.473559 
L 243.529412 44.49031 
L 217.270588 44.49031 
z
" style="fill:#bfbf00;stroke:#000000;stroke-linejoin:miter;"/>
    </g>
    <g id="text_12">
     <!-- 0 -->
     <g transform="translate(226.264375 62.569122)scale(0.13 -0.13)">
      <use xlink:href="#DejaVuSans-48"/>
     </g>
    </g>
    <g id="patch_12">
     <path d="M 243.529412 73.473559 
L 269.788235 73.473559 
L 269.788235 44.49031 
L 243.529412 44.49031 
z
" style="fill:#bfbf00;stroke:#000000;stroke-linejoin:miter;"/>
    </g>
    <g id="text_13">
     <!-- 0 -->
     <g transform="translate(252.523199 62.569122)scale(0.13 -0.13)">
      <use xlink:href="#DejaVuSans-48"/>
     </g>
    </g>
    <g id="patch_13">
     <path d="M 191.011765 102.456808 
L 217.270588 102.456808 
L 217.270588 73.473559 
L 191.011765 73.473559 
z
" style="fill:#bfbf00;stroke:#000000;stroke-linejoin:miter;"/>
    </g>
    <g id="text_14">
     <!-- 0 -->
     <g transform="translate(200.005551 91.552371)scale(0.13 -0.13)">
      <use xlink:href="#DejaVuSans-48"/>
     </g>
    </g>
    <g id="patch_14">
     <path d="M 217.270588 102.456808 
L 243.529412 102.456808 
L 243.529412 73.473559 
L 217.270588 73.473559 
z
" style="fill:#bfbf00;stroke:#000000;stroke-linejoin:miter;"/>
    </g>
    <g id="text_15">
     <!-- 0 -->
     <g transform="translate(226.264375 91.552371)scale(0.13 -0.13)">
      <use xlink:href="#DejaVuSans-48"/>
     </g>
    </g>
    <g id="patch_15">
     <path d="M 243.529412 102.456808 
L 269.788235 102.456808 
L 269.788235 73.473559 
L 243.529412 73.473559 
z
" style="fill:#bfbf00;stroke:#000000;stroke-linejoin:miter;"/>
    </g>
    <g id="text_16">
     <!-- 0 -->
     <g transform="translate(252.523199 91.552371)scale(0.13 -0.13)">
      <use xlink:href="#DejaVuSans-48"/>
     </g>
    </g>
    <g id="patch_16">
     <path d="M 191.011765 131.440057 
L 217.270588 131.440057 
L 217.270588 102.456808 
L 191.011765 102.456808 
z
" style="fill:#bfbf00;stroke:#000000;stroke-linejoin:miter;"/>
    </g>
    <g id="text_17">
     <!-- 0 -->
     <g transform="translate(200.005551 120.53562)scale(0.13 -0.13)">
      <use xlink:href="#DejaVuSans-48"/>
     </g>
    </g>
    <g id="patch_17">
     <path d="M 217.270588 131.440057 
L 243.529412 131.440057 
L 243.529412 102.456808 
L 217.270588 102.456808 
z
" style="fill:#bfbf00;stroke:#000000;stroke-linejoin:miter;"/>
    </g>
    <g id="text_18">
     <!-- 0 -->
     <g transform="translate(226.264375 120.53562)scale(0.13 -0.13)">
      <use xlink:href="#DejaVuSans-48"/>
     </g>
    </g>
    <g id="patch_18">
     <path d="M 243.529412 131.440057 
L 269.788235 131.440057 
L 269.788235 102.456808 
L 243.529412 102.456808 
z
" style="fill:#bfbf00;stroke:#000000;stroke-linejoin:miter;"/>
    </g>
    <g id="text_19">
     <!-- 0 -->
     <g transform="translate(252.523199 120.53562)scale(0.13 -0.13)">
      <use xlink:href="#DejaVuSans-48"/>
     </g>
    </g>
   </g>
   <g id="text_20">
    <!-- G -->
    <g transform="translate(225.750938 16.318125)scale(0.12 -0.12)">
     <defs>
      <path d="M 59.515625 10.40625 
L 59.515625 29.984375 
L 43.40625 29.984375 
L 43.40625 38.09375 
L 69.28125 38.09375 
L 69.28125 6.78125 
Q 63.578125 2.734375 56.6875 0.65625 
Q 49.8125 -1.421875 42 -1.421875 
Q 24.90625 -1.421875 15.25 8.5625 
Q 5.609375 18.5625 5.609375 36.375 
Q 5.609375 54.25 15.25 64.234375 
Q 24.90625 74.21875 42 74.21875 
Q 49.125 74.21875 55.546875 72.453125 
Q 61.96875 70.703125 67.390625 67.28125 
L 67.390625 56.78125 
Q 61.921875 61.421875 55.765625 63.765625 
Q 49.609375 66.109375 42.828125 66.109375 
Q 29.4375 66.109375 22.71875 58.640625 
Q 16.015625 51.171875 16.015625 36.375 
Q 16.015625 21.625 22.71875 14.15625 
Q 29.4375 6.6875 42.828125 6.6875 
Q 48.046875 6.6875 52.140625 7.59375 
Q 56.25 8.5 59.515625 10.40625 
z
" id="DejaVuSans-71"/>
     </defs>
     <use xlink:href="#DejaVuSans-71"/>
    </g>
   </g>
  </g>
  <g id="axes_3">
   <g id="table_3">
    <g id="patch_19">
     <path d="M 348.564706 73.473559 
L 374.823529 73.473559 
L 374.823529 44.49031 
L 348.564706 44.49031 
z
" style="fill:#bfbf00;stroke:#000000;stroke-linejoin:miter;"/>
    </g>
    <g id="text_21">
     <!-- 0 -->
     <g transform="translate(357.558493 62.569122)scale(0.13 -0.13)">
      <use xlink:href="#DejaVuSans-48"/>
     </g>
    </g>
    <g id="patch_20">
     <path d="M 374.823529 73.473559 
L 401.082353 73.473559 
L 401.082353 44.49031 
L 374.823529 44.49031 
z
" style="fill:#bfbf00;stroke:#000000;stroke-linejoin:miter;"/>
    </g>
    <g id="text_22">
     <!-- 0 -->
     <g transform="translate(383.817316 62.569122)scale(0.13 -0.13)">
      <use xlink:href="#DejaVuSans-48"/>
     </g>
    </g>
    <g id="patch_21">
     <path d="M 401.082353 73.473559 
L 427.341176 73.473559 
L 427.341176 44.49031 
L 401.082353 44.49031 
z
" style="fill:#bfbf00;stroke:#000000;stroke-linejoin:miter;"/>
    </g>
    <g id="text_23">
     <!-- 0 -->
     <g transform="translate(410.07614 62.569122)scale(0.13 -0.13)">
      <use xlink:href="#DejaVuSans-48"/>
     </g>
    </g>
    <g id="patch_22">
     <path d="M 348.564706 102.456808 
L 374.823529 102.456808 
L 374.823529 73.473559 
L 348.564706 73.473559 
z
" style="fill:#bfbf00;stroke:#000000;stroke-linejoin:miter;"/>
    </g>
    <g id="text_24">
     <!-- 0 -->
     <g transform="translate(357.558493 91.552371)scale(0.13 -0.13)">
      <use xlink:href="#DejaVuSans-48"/>
     </g>
    </g>
    <g id="patch_23">
     <path d="M 374.823529 102.456808 
L 401.082353 102.456808 
L 401.082353 73.473559 
L 374.823529 73.473559 
z
" style="fill:#bfbf00;stroke:#000000;stroke-linejoin:miter;"/>
    </g>
    <g id="text_25">
     <!-- 0 -->
     <g transform="translate(383.817316 91.552371)scale(0.13 -0.13)">
      <use xlink:href="#DejaVuSans-48"/>
     </g>
    </g>
    <g id="patch_24">
     <path d="M 401.082353 102.456808 
L 427.341176 102.456808 
L 427.341176 73.473559 
L 401.082353 73.473559 
z
" style="fill:#bfbf00;stroke:#000000;stroke-linejoin:miter;"/>
    </g>
    <g id="text_26">
     <!-- 0 -->
     <g transform="translate(410.07614 91.552371)scale(0.13 -0.13)">
      <use xlink:href="#DejaVuSans-48"/>
     </g>
    </g>
    <g id="patch_25">
     <path d="M 348.564706 131.440057 
L 374.823529 131.440057 
L 374.823529 102.456808 
L 348.564706 102.456808 
z
" style="fill:#bfbf00;stroke:#000000;stroke-linejoin:miter;"/>
    </g>
    <g id="text_27">
     <!-- 0 -->
     <g transform="translate(357.558493 120.53562)scale(0.13 -0.13)">
      <use xlink:href="#DejaVuSans-48"/>
     </g>
    </g>
    <g id="patch_26">
     <path d="M 374.823529 131.440057 
L 401.082353 131.440057 
L 401.082353 102.456808 
L 374.823529 102.456808 
z
" style="fill:#bfbf00;stroke:#000000;stroke-linejoin:miter;"/>
    </g>
    <g id="text_28">
     <!-- 0 -->
     <g transform="translate(383.817316 120.53562)scale(0.13 -0.13)">
      <use xlink:href="#DejaVuSans-48"/>
     </g>
    </g>
    <g id="patch_27">
     <path d="M 401.082353 131.440057 
L 427.341176 131.440057 
L 427.341176 102.456808 
L 401.082353 102.456808 
z
" style="fill:#bfbf00;stroke:#000000;stroke-linejoin:miter;"/>
    </g>
    <g id="text_29">
     <!-- 0 -->
     <g transform="translate(410.07614 120.53562)scale(0.13 -0.13)">
      <use xlink:href="#DejaVuSans-48"/>
     </g>
    </g>
   </g>
   <g id="text_30">
    <!-- B -->
    <g transform="translate(383.836379 16.318125)scale(0.12 -0.12)">
     <defs>
      <path d="M 19.671875 34.8125 
L 19.671875 8.109375 
L 35.5 8.109375 
Q 43.453125 8.109375 47.28125 11.40625 
Q 51.125 14.703125 51.125 21.484375 
Q 51.125 28.328125 47.28125 31.5625 
Q 43.453125 34.8125 35.5 34.8125 
z
M 19.671875 64.796875 
L 19.671875 42.828125 
L 34.28125 42.828125 
Q 41.5 42.828125 45.03125 45.53125 
Q 48.578125 48.25 48.578125 53.8125 
Q 48.578125 59.328125 45.03125 62.0625 
Q 41.5 64.796875 34.28125 64.796875 
z
M 9.8125 72.90625 
L 35.015625 72.90625 
Q 46.296875 72.90625 52.390625 68.21875 
Q 58.5 63.53125 58.5 54.890625 
Q 58.5 48.1875 55.375 44.234375 
Q 52.25 40.28125 46.1875 39.3125 
Q 53.46875 37.75 57.5 32.78125 
Q 61.53125 27.828125 61.53125 20.40625 
Q 61.53125 10.640625 54.890625 5.3125 
Q 48.25 0 35.984375 0 
L 9.8125 0 
z
" id="DejaVuSans-66"/>
     </defs>
     <use xlink:href="#DejaVuSans-66"/>
    </g>
   </g>
  </g>
 </g>
</svg>
