<?xml version="1.0" encoding="utf-8" standalone="no"?>
<!DOCTYPE svg PUBLIC "-//W3C//DTD SVG 1.1//EN"
  "http://www.w3.org/Graphics/SVG/1.1/DTD/svg11.dtd">
<!-- Created with matplotlib (https://matplotlib.org/) -->
<svg height="214.460708pt" version="1.1" viewBox="0 0 684 214.460708" width="684pt" xmlns="http://www.w3.org/2000/svg" xmlns:xlink="http://www.w3.org/1999/xlink">
 <metadata>
  <rdf:RDF xmlns:cc="http://creativecommons.org/ns#" xmlns:dc="http://purl.org/dc/elements/1.1/" xmlns:rdf="http://www.w3.org/1999/02/22-rdf-syntax-ns#">
   <cc:Work>
    <dc:type rdf:resource="http://purl.org/dc/dcmitype/StillImage"/>
    <dc:date>2021-05-12T19:11:55.606627</dc:date>
    <dc:format>image/svg+xml</dc:format>
    <dc:creator>
     <cc:Agent>
      <dc:title>Matplotlib v3.3.4, https://matplotlib.org/</dc:title>
     </cc:Agent>
    </dc:creator>
   </cc:Work>
  </rdf:RDF>
 </metadata>
 <defs>
  <style type="text/css">*{stroke-linecap:butt;stroke-linejoin:round;}</style>
 </defs>
 <g id="figure_1">
  <g id="patch_1">
   <path d="M 0 214.460708 
L 684 214.460708 
L 684 0 
L 0 0 
z
" style="fill:none;"/>
  </g>
  <g id="patch_2">
   <path d="M 479.858824 204.141176 
L 676.8 204.141176 
L 676.8 7.2 
L 479.858824 7.2 
z
" style="fill:#ffffff;"/>
  </g>
  <g id="axes_1">
   <g id="Poly3DCollection_1">
    <path clip-path="url(#pa85f30fbe9)" d="M 578.803093 158.395834 
L 578.795666 138.088855 
L 595.305481 140.055697 
L 595.256625 160.534627 
z
" style="fill:#e1e1e1;stroke:#000000;"/>
    <path clip-path="url(#pa85f30fbe9)" d="M 578.803093 158.395834 
L 569.197323 162.124347 
L 569.156671 141.517685 
L 578.795666 138.088855 
z
" style="fill:#6a6a6a;stroke:#000000;"/>
    <path clip-path="url(#pa85f30fbe9)" d="M 585.819648 164.32955 
L 569.197323 162.124347 
L 578.803093 158.395834 
L 595.256625 160.534627 
z
" style="fill:#888888;stroke:#000000;"/>
    <path clip-path="url(#pa85f30fbe9)" d="M 585.819648 164.32955 
L 585.836442 143.54581 
L 569.156671 141.517685 
L 569.197323 162.124347 
z
" style="fill:#6a6a6a;stroke:#000000;"/>
   </g>
   <g id="text_1">
    <!-- $ 4 \times 4$ -->
    <g transform="translate(582.048529 204.141176)scale(0.15 -0.15)">
     <defs>
      <path d="M 2.78125 16.5 
L 2.78125 20.015625 
L 33.6875 66.109375 
Q 34.03125 66.609375 34.71875 66.609375 
L 36.1875 66.609375 
Q 37.3125 66.609375 37.3125 65.484375 
L 37.3125 20.015625 
L 47.125 20.015625 
L 47.125 16.5 
L 37.3125 16.5 
L 37.3125 6.6875 
Q 37.3125 4.640625 40.234375 4.078125 
Q 43.171875 3.515625 47.015625 3.515625 
L 47.015625 0 
L 19.484375 0 
L 19.484375 3.515625 
Q 23.34375 3.515625 26.265625 4.078125 
Q 29.203125 4.640625 29.203125 6.6875 
L 29.203125 16.5 
z
M 6.109375 20.015625 
L 29.78125 20.015625 
L 29.78125 55.421875 
z
" id="Cmr10-52"/>
      <path d="M 14.703125 2.875 
Q 14.703125 3.65625 15.1875 4.296875 
L 35.984375 25 
L 15.1875 45.796875 
Q 14.703125 46.296875 14.703125 47.125 
Q 14.703125 47.859375 15.28125 48.484375 
Q 15.875 49.125 16.703125 49.125 
Q 17.390625 49.125 18.21875 48.484375 
L 38.921875 27.78125 
L 59.515625 48.484375 
Q 60.359375 49.125 60.984375 49.125 
Q 61.8125 49.125 62.390625 48.53125 
Q 62.984375 47.953125 62.984375 47.125 
Q 62.984375 46.296875 62.5 45.796875 
L 41.703125 25 
L 62.5 4.296875 
Q 62.984375 3.65625 62.984375 2.875 
Q 62.984375 2.046875 62.390625 1.453125 
Q 61.8125 0.875 60.984375 0.875 
Q 60.25 0.875 59.515625 1.609375 
L 38.921875 22.21875 
L 18.21875 1.609375 
Q 17.484375 0.875 16.703125 0.875 
Q 15.875 0.875 15.28125 1.515625 
Q 14.703125 2.15625 14.703125 2.875 
z
" id="Cmsy10-163"/>
     </defs>
     <use transform="translate(0 0.390625)" xlink:href="#Cmr10-52"/>
     <use transform="translate(67.558594 0.390625)" xlink:href="#Cmsy10-163"/>
     <use transform="translate(162.802734 0.390625)" xlink:href="#Cmr10-52"/>
    </g>
   </g>
   <g id="text_2">
    <!-- = -->
    <g transform="translate(469.384214 112.569026)scale(0.25 -0.25)">
     <defs>
      <path d="M 10.59375 45.40625 
L 73.1875 45.40625 
L 73.1875 37.203125 
L 10.59375 37.203125 
z
M 10.59375 25.484375 
L 73.1875 25.484375 
L 73.1875 17.1875 
L 10.59375 17.1875 
z
" id="DejaVuSans-61"/>
     </defs>
     <use xlink:href="#DejaVuSans-61"/>
    </g>
   </g>
   <g id="Poly3DCollection_2">
    <path clip-path="url(#pa85f30fbe9)" d="M 578.795666 138.088855 
L 578.788189 117.643534 
L 595.354672 119.436017 
L 595.305481 140.055697 
z
" style="fill:#e1e1e1;stroke:#000000;"/>
    <path clip-path="url(#pa85f30fbe9)" d="M 578.795666 138.088855 
L 569.156671 141.517685 
L 569.115739 120.768471 
L 578.788189 117.643534 
z
" style="fill:#6a6a6a;stroke:#000000;"/>
    <path clip-path="url(#pa85f30fbe9)" d="M 585.836442 143.54581 
L 585.853353 122.616999 
L 569.115739 120.768471 
L 569.156671 141.517685 
z
" style="fill:#6a6a6a;stroke:#000000;"/>
   </g>
   <g id="Poly3DCollection_3">
    <path clip-path="url(#pa85f30fbe9)" d="M 578.788189 117.643534 
L 578.780661 97.058453 
L 595.404203 98.674132 
L 595.354672 119.436017 
z
" style="fill:#e1e1e1;stroke:#000000;"/>
    <path clip-path="url(#pa85f30fbe9)" d="M 578.788189 117.643534 
L 569.115739 120.768471 
L 569.074522 99.875221 
L 578.780661 97.058453 
z
" style="fill:#6a6a6a;stroke:#000000;"/>
    <path clip-path="url(#pa85f30fbe9)" d="M 585.853353 122.616999 
L 585.870383 101.541595 
L 569.074522 99.875221 
L 569.115739 120.768471 
z
" style="fill:#6a6a6a;stroke:#000000;"/>
   </g>
   <g id="Poly3DCollection_4">
    <path clip-path="url(#pa85f30fbe9)" d="M 595.256625 160.534627 
L 595.305481 140.055697 
L 612.109399 142.057576 
L 612.002249 162.71139 
z
" style="fill:#e1e1e1;stroke:#000000;"/>
    <path clip-path="url(#pa85f30fbe9)" d="M 602.741669 166.574511 
L 585.819648 164.32955 
L 595.256625 160.534627 
L 612.002249 162.71139 
z
" style="fill:#888888;stroke:#000000;"/>
    <path clip-path="url(#pa85f30fbe9)" d="M 602.741669 166.574511 
L 602.817999 145.610629 
L 585.836442 143.54581 
L 585.819648 164.32955 
z
" style="fill:#6a6a6a;stroke:#000000;"/>
   </g>
   <g id="Poly3DCollection_5">
    <path clip-path="url(#pa85f30fbe9)" d="M 578.780661 97.058453 
L 578.773081 76.332173 
L 595.454077 77.768565 
L 595.404203 98.674132 
z
" style="fill:#e1e1e1;stroke:#000000;"/>
    <path clip-path="url(#pa85f30fbe9)" d="M 578.780661 97.058453 
L 569.074522 99.875221 
L 569.033018 78.83643 
L 578.773081 76.332173 
z
" style="fill:#6a6a6a;stroke:#000000;"/>
    <path clip-path="url(#pa85f30fbe9)" d="M 595.454077 77.768565 
L 578.773081 76.332173 
L 569.033018 78.83643 
L 585.887532 80.31805 
z
" style="fill:#c3c3c3;stroke:#000000;"/>
    <path clip-path="url(#pa85f30fbe9)" d="M 585.870383 101.541595 
L 585.887532 80.31805 
L 569.033018 78.83643 
L 569.074522 99.875221 
z
" style="fill:#6a6a6a;stroke:#000000;"/>
   </g>
   <g id="Poly3DCollection_6">
    <path clip-path="url(#pa85f30fbe9)" d="M 595.305481 140.055697 
L 595.354672 119.436017 
L 612.217292 121.260542 
L 612.109399 142.057576 
z
" style="fill:#e1e1e1;stroke:#000000;"/>
    <path clip-path="url(#pa85f30fbe9)" d="M 602.817999 145.610629 
L 602.894868 124.499091 
L 585.853353 122.616999 
L 585.836442 143.54581 
z
" style="fill:#6a6a6a;stroke:#000000;"/>
   </g>
   <g id="Poly3DCollection_7">
    <path clip-path="url(#pa85f30fbe9)" d="M 595.354672 119.436017 
L 595.404203 98.674132 
L 612.325936 100.318793 
L 612.217292 121.260542 
z
" style="fill:#e1e1e1;stroke:#000000;"/>
    <path clip-path="url(#pa85f30fbe9)" d="M 602.894868 124.499091 
L 602.972279 103.238332 
L 585.870383 101.541595 
L 585.853353 122.616999 
z
" style="fill:#6a6a6a;stroke:#000000;"/>
   </g>
   <g id="Poly3DCollection_8">
    <path clip-path="url(#pa85f30fbe9)" d="M 612.002249 162.71139 
L 612.109399 142.057576 
L 629.215351 144.095436 
L 629.047814 164.927142 
z
" style="fill:#e1e1e1;stroke:#000000;"/>
    <path clip-path="url(#pa85f30fbe9)" d="M 619.971565 168.860317 
L 602.741669 166.574511 
L 612.002249 162.71139 
L 629.047814 164.927142 
z
" style="fill:#888888;stroke:#000000;"/>
    <path clip-path="url(#pa85f30fbe9)" d="M 619.971565 168.860317 
L 620.10961 147.713149 
L 602.817999 145.610629 
L 602.741669 166.574511 
z
" style="fill:#6a6a6a;stroke:#000000;"/>
   </g>
   <g id="Poly3DCollection_9">
    <path clip-path="url(#pa85f30fbe9)" d="M 595.404203 98.674132 
L 595.454077 77.768565 
L 612.435339 79.230813 
L 612.325936 100.318793 
z
" style="fill:#e1e1e1;stroke:#000000;"/>
    <path clip-path="url(#pa85f30fbe9)" d="M 612.435339 79.230813 
L 595.454077 77.768565 
L 585.887532 80.31805 
L 603.05024 81.826763 
z
" style="fill:#c3c3c3;stroke:#000000;"/>
    <path clip-path="url(#pa85f30fbe9)" d="M 602.972279 103.238332 
L 603.05024 81.826763 
L 585.887532 80.31805 
L 585.870383 101.541595 
z
" style="fill:#6a6a6a;stroke:#000000;"/>
   </g>
   <g id="Poly3DCollection_10">
    <path clip-path="url(#pa85f30fbe9)" d="M 612.109399 142.057576 
L 612.217292 121.260542 
L 629.384061 123.117975 
L 629.215351 144.095436 
z
" style="fill:#e1e1e1;stroke:#000000;"/>
    <path clip-path="url(#pa85f30fbe9)" d="M 620.10961 147.713149 
L 620.248636 126.415669 
L 602.894868 124.499091 
L 602.817999 145.610629 
z
" style="fill:#6a6a6a;stroke:#000000;"/>
   </g>
   <g id="Poly3DCollection_11">
    <path clip-path="url(#pa85f30fbe9)" d="M 612.217292 121.260542 
L 612.325936 100.318793 
L 629.553956 101.993222 
L 629.384061 123.117975 
z
" style="fill:#e1e1e1;stroke:#000000;"/>
    <path clip-path="url(#pa85f30fbe9)" d="M 620.248636 126.415669 
L 620.388653 104.966269 
L 602.972279 103.238332 
L 602.894868 124.499091 
z
" style="fill:#6a6a6a;stroke:#000000;"/>
   </g>
   <g id="Poly3DCollection_12">
    <path clip-path="url(#pa85f30fbe9)" d="M 629.047814 164.927142 
L 629.215351 144.095436 
L 646.631554 146.170258 
L 646.401449 167.182939 
z
" style="fill:#e1e1e1;stroke:#000000;"/>
    <path clip-path="url(#pa85f30fbe9)" d="M 637.517816 171.188093 
L 619.971565 168.860317 
L 629.047814 164.927142 
L 646.401449 167.182939 
z
" style="fill:#888888;stroke:#000000;"/>
    <path clip-path="url(#pa85f30fbe9)" d="M 646.631554 146.170258 
L 637.719842 149.854411 
L 637.517816 171.188093 
L 646.401449 167.182939 
z
" style="fill:#e1e1e1;stroke:#000000;"/>
    <path clip-path="url(#pa85f30fbe9)" d="M 637.517816 171.188093 
L 637.719842 149.854411 
L 620.10961 147.713149 
L 619.971565 168.860317 
z
" style="fill:#6a6a6a;stroke:#000000;"/>
   </g>
   <g id="Poly3DCollection_13">
    <path clip-path="url(#pa85f30fbe9)" d="M 612.325936 100.318793 
L 612.435339 79.230813 
L 629.725048 80.719621 
L 629.553956 101.993222 
z
" style="fill:#e1e1e1;stroke:#000000;"/>
    <path clip-path="url(#pa85f30fbe9)" d="M 629.725048 80.719621 
L 612.435339 79.230813 
L 603.05024 81.826763 
L 620.529673 83.363319 
z
" style="fill:#c3c3c3;stroke:#000000;"/>
    <path clip-path="url(#pa85f30fbe9)" d="M 620.388653 104.966269 
L 620.529673 83.363319 
L 603.05024 81.826763 
L 602.972279 103.238332 
z
" style="fill:#6a6a6a;stroke:#000000;"/>
   </g>
   <g id="Poly3DCollection_14">
    <path clip-path="url(#pa85f30fbe9)" d="M 629.215351 144.095436 
L 629.384061 123.117975 
L 646.863283 125.009216 
L 646.631554 146.170258 
z
" style="fill:#e1e1e1;stroke:#000000;"/>
    <path clip-path="url(#pa85f30fbe9)" d="M 646.863283 125.009216 
L 637.923318 128.367689 
L 637.719842 149.854411 
L 646.631554 146.170258 
z
" style="fill:#e1e1e1;stroke:#000000;"/>
    <path clip-path="url(#pa85f30fbe9)" d="M 637.719842 149.854411 
L 637.923318 128.367689 
L 620.248636 126.415669 
L 620.10961 147.713149 
z
" style="fill:#6a6a6a;stroke:#000000;"/>
   </g>
   <g id="Poly3DCollection_15">
    <path clip-path="url(#pa85f30fbe9)" d="M 629.384061 123.117975 
L 629.553956 101.993222 
L 647.096654 103.698236 
L 646.863283 125.009216 
z
" style="fill:#e1e1e1;stroke:#000000;"/>
    <path clip-path="url(#pa85f30fbe9)" d="M 647.096654 103.698236 
L 638.128259 106.726276 
L 637.923318 128.367689 
L 646.863283 125.009216 
z
" style="fill:#e1e1e1;stroke:#000000;"/>
    <path clip-path="url(#pa85f30fbe9)" d="M 637.923318 128.367689 
L 638.128259 106.726276 
L 620.388653 104.966269 
L 620.248636 126.415669 
z
" style="fill:#6a6a6a;stroke:#000000;"/>
   </g>
   <g id="Poly3DCollection_16">
    <path clip-path="url(#pa85f30fbe9)" d="M 629.553956 101.993222 
L 629.725048 80.719621 
L 647.331684 82.23572 
L 647.096654 103.698236 
z
" style="fill:#e1e1e1;stroke:#000000;"/>
    <path clip-path="url(#pa85f30fbe9)" d="M 647.331684 82.23572 
L 629.725048 80.719621 
L 620.529673 83.363319 
L 638.33468 84.928494 
z
" style="fill:#c3c3c3;stroke:#000000;"/>
    <path clip-path="url(#pa85f30fbe9)" d="M 647.331684 82.23572 
L 638.33468 84.928494 
L 638.128259 106.726276 
L 647.096654 103.698236 
z
" style="fill:#e1e1e1;stroke:#000000;"/>
    <path clip-path="url(#pa85f30fbe9)" d="M 638.128259 106.726276 
L 638.33468 84.928494 
L 620.529673 83.363319 
L 620.388653 104.966269 
z
" style="fill:#6a6a6a;stroke:#000000;"/>
   </g>
  </g>
  <g id="patch_3">
   <path d="M 7.2 204.141176 
L 204.141176 204.141176 
L 204.141176 7.2 
L 7.2 7.2 
z
" style="fill:#ffffff;"/>
  </g>
  <g id="axes_2">
   <g id="Poly3DCollection_17">
    <path clip-path="url(#p01b8c88dbe)" d="M 73.969172 134.256666 
L 73.854143 114.151376 
L 89.851286 115.882256 
L 89.913478 136.156138 
z
" style="fill:#1b699f;stroke:#000000;"/>
    <path clip-path="url(#p01b8c88dbe)" d="M 73.969172 134.256666 
L 64.012052 137.567675 
L 63.861441 117.168575 
L 73.854143 114.151376 
z
" style="fill:#0d324b;stroke:#000000;"/>
   </g>
   <g id="text_3">
    <!-- $ 6 \times 6 \times 3$ -->
    <g transform="translate(77.470588 204.141176)scale(0.15 -0.15)">
     <defs>
      <path d="M 25 -2.203125 
Q 18.796875 -2.203125 14.640625 1.09375 
Q 10.5 4.390625 8.21875 9.640625 
Q 5.953125 14.890625 5.078125 20.65625 
Q 4.203125 26.421875 4.203125 32.328125 
Q 4.203125 40.234375 7.28125 48.1875 
Q 10.359375 56.15625 16.328125 61.375 
Q 22.3125 66.609375 30.515625 66.609375 
Q 33.9375 66.609375 36.890625 65.3125 
Q 39.84375 64.015625 41.53125 61.5 
Q 43.21875 58.984375 43.21875 55.421875 
Q 43.21875 53.375 41.828125 51.984375 
Q 40.4375 50.59375 38.375 50.59375 
Q 36.421875 50.59375 35 52 
Q 33.59375 53.421875 33.59375 55.421875 
Q 33.59375 57.375 35 58.78125 
Q 36.421875 60.203125 38.375 60.203125 
L 38.921875 60.203125 
Q 37.640625 62.015625 35.328125 62.859375 
Q 33.015625 63.71875 30.515625 63.71875 
Q 27.484375 63.71875 24.921875 62.390625 
Q 22.359375 61.078125 20.3125 58.828125 
Q 18.265625 56.59375 16.890625 53.875 
Q 15.53125 51.171875 14.765625 47.703125 
Q 14.015625 44.234375 13.8125 41.203125 
Q 13.625 38.1875 13.625 33.59375 
Q 15.375 37.703125 18.59375 40.3125 
Q 21.828125 42.921875 25.875 42.921875 
Q 30.328125 42.921875 33.984375 41.109375 
Q 37.640625 39.3125 40.28125 36.109375 
Q 42.921875 32.90625 44.3125 28.796875 
Q 45.703125 24.703125 45.703125 20.515625 
Q 45.703125 14.65625 43.09375 9.34375 
Q 40.484375 4.046875 35.734375 0.921875 
Q 31 -2.203125 25 -2.203125 
z
M 25 0.984375 
Q 28.859375 0.984375 31.203125 2.734375 
Q 33.546875 4.5 34.640625 7.390625 
Q 35.75 10.296875 36.015625 13.25 
Q 36.28125 16.21875 36.28125 20.515625 
Q 36.28125 26.171875 35.734375 30.171875 
Q 35.203125 34.1875 32.8125 37.234375 
Q 30.421875 40.28125 25.484375 40.28125 
Q 21.4375 40.28125 18.828125 37.546875 
Q 16.21875 34.8125 15.015625 30.640625 
Q 13.8125 26.46875 13.8125 22.609375 
Q 13.8125 21.296875 13.921875 20.609375 
Q 13.921875 20.453125 13.890625 20.359375 
Q 13.875 20.265625 13.8125 20.125 
Q 13.8125 15.828125 14.6875 11.421875 
Q 15.578125 7.03125 18.0625 4 
Q 20.5625 0.984375 25 0.984375 
z
" id="Cmr10-54"/>
      <path d="M 9.515625 7.71875 
Q 11.859375 4.296875 15.8125 2.640625 
Q 19.78125 0.984375 24.3125 0.984375 
Q 30.125 0.984375 32.5625 5.9375 
Q 35.015625 10.890625 35.015625 17.1875 
Q 35.015625 20.015625 34.5 22.84375 
Q 33.984375 25.6875 32.765625 28.125 
Q 31.546875 30.5625 29.421875 32.03125 
Q 27.296875 33.5 24.21875 33.5 
L 17.578125 33.5 
Q 16.703125 33.5 16.703125 34.421875 
L 16.703125 35.296875 
Q 16.703125 36.078125 17.578125 36.078125 
L 23.09375 36.53125 
Q 26.609375 36.53125 28.921875 39.15625 
Q 31.25 41.796875 32.328125 45.578125 
Q 33.40625 49.359375 33.40625 52.78125 
Q 33.40625 57.5625 31.15625 60.640625 
Q 28.90625 63.71875 24.3125 63.71875 
Q 20.515625 63.71875 17.046875 62.28125 
Q 13.578125 60.84375 11.53125 57.90625 
Q 11.71875 57.953125 11.859375 57.984375 
Q 12.015625 58.015625 12.203125 58.015625 
Q 14.453125 58.015625 15.96875 56.453125 
Q 17.484375 54.890625 17.484375 52.6875 
Q 17.484375 50.53125 15.96875 48.96875 
Q 14.453125 47.40625 12.203125 47.40625 
Q 10.015625 47.40625 8.453125 48.96875 
Q 6.890625 50.53125 6.890625 52.6875 
Q 6.890625 56.984375 9.46875 60.15625 
Q 12.0625 63.328125 16.140625 64.96875 
Q 20.21875 66.609375 24.3125 66.609375 
Q 27.34375 66.609375 30.703125 65.703125 
Q 34.078125 64.796875 36.8125 63.109375 
Q 39.546875 61.421875 41.28125 58.78125 
Q 43.015625 56.15625 43.015625 52.78125 
Q 43.015625 48.578125 41.140625 45.015625 
Q 39.265625 41.453125 35.984375 38.859375 
Q 32.71875 36.28125 28.8125 35.015625 
Q 33.15625 34.1875 37.0625 31.734375 
Q 40.96875 29.296875 43.328125 25.484375 
Q 45.703125 21.6875 45.703125 17.28125 
Q 45.703125 11.765625 42.671875 7.296875 
Q 39.65625 2.828125 34.71875 0.3125 
Q 29.78125 -2.203125 24.3125 -2.203125 
Q 19.625 -2.203125 14.90625 -0.40625 
Q 10.203125 1.375 7.203125 4.9375 
Q 4.203125 8.5 4.203125 13.484375 
Q 4.203125 15.96875 5.859375 17.625 
Q 7.515625 19.28125 10.015625 19.28125 
Q 11.625 19.28125 12.96875 18.53125 
Q 14.3125 17.78125 15.0625 16.40625 
Q 15.828125 15.046875 15.828125 13.484375 
Q 15.828125 11.03125 14.109375 9.375 
Q 12.40625 7.71875 10.015625 7.71875 
z
" id="Cmr10-51"/>
     </defs>
     <use transform="translate(0 0.390625)" xlink:href="#Cmr10-54"/>
     <use transform="translate(67.558594 0.390625)" xlink:href="#Cmsy10-163"/>
     <use transform="translate(162.802734 0.390625)" xlink:href="#Cmr10-54"/>
     <use transform="translate(230.361328 0.390625)" xlink:href="#Cmsy10-163"/>
     <use transform="translate(325.605469 0.390625)" xlink:href="#Cmr10-51"/>
    </g>
   </g>
   <g id="Poly3DCollection_18">
    <path clip-path="url(#p01b8c88dbe)" d="M 74.083436 154.228248 
L 73.969172 134.256666 
L 89.913478 136.156138 
L 89.975253 156.294024 
z
" style="fill:#1b699f;stroke:#000000;"/>
    <path clip-path="url(#p01b8c88dbe)" d="M 74.083436 154.228248 
L 64.161646 157.829068 
L 64.012052 137.567675 
L 73.969172 134.256666 
z
" style="fill:#0d324b;stroke:#000000;"/>
    <path clip-path="url(#p01b8c88dbe)" d="M 80.207979 159.957857 
L 64.161646 157.829068 
L 74.083436 154.228248 
L 89.975253 156.294024 
z
" style="fill:#113f60;stroke:#000000;"/>
   </g>
   <g id="Poly3DCollection_19">
    <defs>
     <path d="M 89.913478 -78.30457 
L 89.851286 -98.578451 
L 106.129365 -96.817174 
L 106.136843 -76.371853 
z
" id="m462d042f3d" style="stroke:#000000;"/>
    </defs>
    <g clip-path="url(#p01b8c88dbe)">
     <use style="fill:#1b699f;stroke:#000000;" x="0" xlink:href="#m462d042f3d" y="214.460708"/>
    </g>
   </g>
   <g id="Poly3DCollection_20">
    <path clip-path="url(#p01b8c88dbe)" d="M 73.854143 114.151376 
L 73.738342 93.911029 
L 89.788672 95.470996 
L 89.851286 115.882256 
z
" style="fill:#1b699f;stroke:#000000;"/>
    <path clip-path="url(#p01b8c88dbe)" d="M 73.854143 114.151376 
L 63.861441 117.168575 
L 63.709803 96.630358 
L 73.738342 93.911029 
z
" style="fill:#0d324b;stroke:#000000;"/>
   </g>
   <g id="Poly3DCollection_21">
    <defs>
     <path d="M 89.851286 -98.578451 
L 89.788672 -118.989711 
L 106.121837 -117.402255 
L 106.129365 -96.817174 
z
" id="m5efb450eb4" style="stroke:#000000;"/>
    </defs>
    <g clip-path="url(#p01b8c88dbe)">
     <use style="fill:#1b699f;stroke:#000000;" x="0" xlink:href="#m5efb450eb4" y="214.460708"/>
    </g>
   </g>
   <g id="Poly3DCollection_22">
    <path clip-path="url(#p01b8c88dbe)" d="M 73.738342 93.911029 
L 73.62176 73.534261 
L 89.725633 74.920957 
L 89.788672 95.470996 
z
" style="fill:#1b699f;stroke:#000000;"/>
    <path clip-path="url(#p01b8c88dbe)" d="M 73.738342 93.911029 
L 63.709803 96.630358 
L 63.557127 75.951597 
L 73.62176 73.534261 
z
" style="fill:#0d324b;stroke:#000000;"/>
   </g>
   <g id="Poly3DCollection_23">
    <defs>
     <path d="M 89.788672 -118.989711 
L 89.725633 -139.539751 
L 106.114257 -138.128535 
L 106.121837 -117.402255 
z
" id="m466243f609" style="stroke:#000000;"/>
    </defs>
    <g clip-path="url(#p01b8c88dbe)">
     <use style="fill:#1b699f;stroke:#000000;" x="0" xlink:href="#m466243f609" y="214.460708"/>
    </g>
   </g>
   <g id="Poly3DCollection_24">
    <path clip-path="url(#p01b8c88dbe)" d="M 73.62176 73.534261 
L 73.50439 53.019687 
L 89.662163 54.230718 
L 89.725633 74.920957 
z
" style="fill:#1b699f;stroke:#000000;"/>
    <path clip-path="url(#p01b8c88dbe)" d="M 73.62176 73.534261 
L 63.557127 75.951597 
L 63.403403 55.130845 
L 73.50439 53.019687 
z
" style="fill:#0d324b;stroke:#000000;"/>
   </g>
   <g id="Poly3DCollection_25">
    <path clip-path="url(#p01b8c88dbe)" d="M 89.975253 156.294024 
L 89.913478 136.156138 
L 106.136843 138.088855 
L 106.144269 158.395834 
z
" style="fill:#1b699f;stroke:#000000;"/>
    <path clip-path="url(#p01b8c88dbe)" d="M 96.538499 162.124347 
L 80.207979 159.957857 
L 89.975253 156.294024 
L 106.144269 158.395834 
z
" style="fill:#113f60;stroke:#000000;"/>
   </g>
   <g id="Poly3DCollection_26">
    <defs>
     <path d="M 106.136843 -76.371853 
L 106.129365 -96.817174 
L 122.695849 -95.024691 
L 122.646657 -74.405011 
z
" id="md27ee0b435" style="stroke:#000000;"/>
    </defs>
    <g clip-path="url(#p01b8c88dbe)">
     <use style="fill:#1b699f;stroke:#000000;" x="0" xlink:href="#md27ee0b435" y="214.460708"/>
    </g>
   </g>
   <g id="Poly3DCollection_27">
    <defs>
     <path d="M 89.725633 -139.539751 
L 89.662163 -160.229989 
L 106.106625 -158.997471 
L 106.114257 -138.128535 
z
" id="m5386f07866" style="stroke:#000000;"/>
    </defs>
    <g clip-path="url(#p01b8c88dbe)">
     <use style="fill:#1b699f;stroke:#000000;" x="0" xlink:href="#m5386f07866" y="214.460708"/>
    </g>
   </g>
   <g id="Poly3DCollection_28">
    <defs>
     <path d="M 106.129365 -96.817174 
L 106.121837 -117.402255 
L 122.74538 -115.786576 
L 122.695849 -95.024691 
z
" id="mb8f3e976b4" style="stroke:#000000;"/>
    </defs>
    <g clip-path="url(#p01b8c88dbe)">
     <use style="fill:#1b699f;stroke:#000000;" x="0" xlink:href="#mb8f3e976b4" y="214.460708"/>
    </g>
   </g>
   <g id="Poly3DCollection_29">
    <defs>
     <path d="M 64.012052 -76.893033 
L 53.749169 -73.480349 
L 53.560824 -94.181962 
L 63.861441 -97.292133 
z
" id="md19444686c" style="stroke:#000000;"/>
    </defs>
    <g clip-path="url(#p01b8c88dbe)">
     <use style="fill:#124312;stroke:#000000;" x="0" xlink:href="#md19444686c" y="214.460708"/>
    </g>
   </g>
   <g id="Poly3DCollection_30">
    <path clip-path="url(#p01b8c88dbe)" d="M 64.161646 157.829068 
L 53.936223 161.540083 
L 53.749169 140.980358 
L 64.012052 137.567675 
z
" style="fill:#124312;stroke:#000000;"/>
    <path clip-path="url(#p01b8c88dbe)" d="M 70.139136 163.734812 
L 53.936223 161.540083 
L 64.161646 157.829068 
L 80.207979 159.957857 
z
" style="fill:#175517;stroke:#000000;"/>
   </g>
   <g id="Poly3DCollection_31">
    <defs>
     <path d="M 106.121837 -117.402255 
L 106.114257 -138.128535 
L 122.795253 -136.692142 
L 122.74538 -115.786576 
z
" id="md4ab5ae002" style="stroke:#000000;"/>
    </defs>
    <g clip-path="url(#p01b8c88dbe)">
     <use style="fill:#1b699f;stroke:#000000;" x="0" xlink:href="#md4ab5ae002" y="214.460708"/>
    </g>
   </g>
   <g id="Poly3DCollection_32">
    <defs>
     <path d="M 63.861441 -97.292133 
L 53.560824 -94.181962 
L 53.371174 -115.026937 
L 63.709803 -117.83035 
z
" id="me6f7891eea" style="stroke:#000000;"/>
    </defs>
    <g clip-path="url(#p01b8c88dbe)">
     <use style="fill:#124312;stroke:#000000;" x="0" xlink:href="#me6f7891eea" y="214.460708"/>
    </g>
   </g>
   <g id="Poly3DCollection_33">
    <path clip-path="url(#p01b8c88dbe)" d="M 106.144269 158.395834 
L 106.136843 138.088855 
L 122.646657 140.055697 
L 122.597801 160.534627 
z
" style="fill:#1b699f;stroke:#000000;"/>
    <path clip-path="url(#p01b8c88dbe)" d="M 113.160824 164.32955 
L 96.538499 162.124347 
L 106.144269 158.395834 
L 122.597801 160.534627 
z
" style="fill:#113f60;stroke:#000000;"/>
   </g>
   <g id="Poly3DCollection_34">
    <defs>
     <path d="M 122.646657 -74.405011 
L 122.695849 -95.024691 
L 139.558469 -93.200166 
L 139.450576 -72.403132 
z
" id="me23d8a465e" style="stroke:#000000;"/>
    </defs>
    <g clip-path="url(#p01b8c88dbe)">
     <use style="fill:#1b699f;stroke:#000000;" x="0" xlink:href="#me23d8a465e" y="214.460708"/>
    </g>
   </g>
   <g id="Poly3DCollection_35">
    <defs>
     <path d="M 106.114257 -138.128535 
L 106.106625 -158.997471 
L 122.845473 -157.742887 
L 122.795253 -136.692142 
z
" id="m5ccc269a89" style="stroke:#000000;"/>
    </defs>
    <g clip-path="url(#p01b8c88dbe)">
     <use style="fill:#1b699f;stroke:#000000;" x="0" xlink:href="#m5ccc269a89" y="214.460708"/>
    </g>
   </g>
   <g id="Poly3DCollection_36">
    <defs>
     <path d="M 63.709803 -117.83035 
L 53.371174 -115.026937 
L 53.180207 -136.016768 
L 63.557127 -138.50911 
z
" id="mc8621bc223" style="stroke:#000000;"/>
    </defs>
    <g clip-path="url(#p01b8c88dbe)">
     <use style="fill:#124312;stroke:#000000;" x="0" xlink:href="#mc8621bc223" y="214.460708"/>
    </g>
   </g>
   <g id="Poly3DCollection_37">
    <path clip-path="url(#p01b8c88dbe)" d="M 73.50439 53.019687 
L 73.386223 32.365905 
L 89.59826 33.398841 
L 89.662163 54.230718 
z
" style="fill:#1b699f;stroke:#000000;"/>
    <path clip-path="url(#p01b8c88dbe)" d="M 73.50439 53.019687 
L 63.403403 55.130845 
L 63.248619 34.166634 
L 73.386223 32.365905 
z
" style="fill:#0d324b;stroke:#000000;"/>
    <path clip-path="url(#p01b8c88dbe)" d="M 89.59826 33.398841 
L 73.386223 32.365905 
L 63.248619 34.166634 
L 79.62143 35.231736 
z
" style="fill:#185b8a;stroke:#000000;"/>
   </g>
   <g id="Poly3DCollection_38">
    <defs>
     <path d="M 122.695849 -95.024691 
L 122.74538 -115.786576 
L 139.667113 -114.141915 
L 139.558469 -93.200166 
z
" id="mf7155ebee3" style="stroke:#000000;"/>
    </defs>
    <g clip-path="url(#p01b8c88dbe)">
     <use style="fill:#1b699f;stroke:#000000;" x="0" xlink:href="#mf7155ebee3" y="214.460708"/>
    </g>
   </g>
   <g id="Poly3DCollection_39">
    <defs>
     <path d="M 63.557127 -138.50911 
L 53.180207 -136.016768 
L 52.987908 -157.152971 
L 63.403403 -159.329863 
z
" id="m2f16449e36" style="stroke:#000000;"/>
    </defs>
    <g clip-path="url(#p01b8c88dbe)">
     <use style="fill:#124312;stroke:#000000;" x="0" xlink:href="#m2f16449e36" y="214.460708"/>
    </g>
   </g>
   <g id="Poly3DCollection_40">
    <defs>
     <path d="M 86.633479 -48.491692 
L 70.139136 -50.725896 
L 80.207979 -54.502851 
L 96.538499 -52.336361 
z
" id="m2988a89737" style="stroke:#000000;"/>
    </defs>
    <g clip-path="url(#p01b8c88dbe)">
     <use style="fill:#175517;stroke:#000000;" x="0" xlink:href="#m2988a89737" y="214.460708"/>
    </g>
   </g>
   <g id="Poly3DCollection_41">
    <defs>
     <path d="M 122.74538 -115.786576 
L 122.795253 -136.692142 
L 139.776515 -135.229895 
L 139.667113 -114.141915 
z
" id="mafaca79ce1" style="stroke:#000000;"/>
    </defs>
    <g clip-path="url(#p01b8c88dbe)">
     <use style="fill:#1b699f;stroke:#000000;" x="0" xlink:href="#mafaca79ce1" y="214.460708"/>
    </g>
   </g>
   <g id="Poly3DCollection_42">
    <path clip-path="url(#p01b8c88dbe)" d="M 122.597801 160.534627 
L 122.646657 140.055697 
L 139.450576 142.057576 
L 139.343426 162.71139 
z
" style="fill:#1b699f;stroke:#000000;"/>
    <path clip-path="url(#p01b8c88dbe)" d="M 130.082845 166.574511 
L 113.160824 164.32955 
L 122.597801 160.534627 
L 139.343426 162.71139 
z
" style="fill:#113f60;stroke:#000000;"/>
   </g>
   <g id="Poly3DCollection_43">
    <defs>
     <path d="M 139.450576 -72.403132 
L 139.558469 -93.200166 
L 156.725238 -91.342733 
L 156.556528 -70.365271 
z
" id="m14f34a668a" style="stroke:#000000;"/>
    </defs>
    <g clip-path="url(#p01b8c88dbe)">
     <use style="fill:#1b699f;stroke:#000000;" x="0" xlink:href="#m14f34a668a" y="214.460708"/>
    </g>
   </g>
   <g id="Poly3DCollection_44">
    <defs>
     <path d="M 122.795253 -136.692142 
L 122.845473 -157.742887 
L 139.886684 -156.465642 
L 139.776515 -135.229895 
z
" id="md100168985" style="stroke:#000000;"/>
    </defs>
    <g clip-path="url(#p01b8c88dbe)">
     <use style="fill:#1b699f;stroke:#000000;" x="0" xlink:href="#md100168985" y="214.460708"/>
    </g>
   </g>
   <g id="Poly3DCollection_45">
    <path clip-path="url(#p01b8c88dbe)" d="M 89.662163 54.230718 
L 89.59826 33.398841 
L 106.09894 34.450167 
L 106.106625 55.463237 
z
" style="fill:#1b699f;stroke:#000000;"/>
    <path clip-path="url(#p01b8c88dbe)" d="M 106.09894 34.450167 
L 89.59826 33.398841 
L 79.62143 35.231736 
L 96.290313 36.316099 
z
" style="fill:#185b8a;stroke:#000000;"/>
   </g>
   <g id="Poly3DCollection_46">
    <defs>
     <path d="M 139.558469 -93.200166 
L 139.667113 -114.141915 
L 156.895132 -112.467486 
L 156.725238 -91.342733 
z
" id="m60d53247fa" style="stroke:#000000;"/>
    </defs>
    <g clip-path="url(#p01b8c88dbe)">
     <use style="fill:#1b699f;stroke:#000000;" x="0" xlink:href="#m60d53247fa" y="214.460708"/>
    </g>
   </g>
   <g id="Poly3DCollection_47">
    <defs>
     <path d="M 103.427187 -46.216939 
L 86.633479 -48.491692 
L 96.538499 -52.336361 
L 113.160824 -50.131158 
z
" id="m0d2f496843" style="stroke:#000000;"/>
    </defs>
    <g clip-path="url(#p01b8c88dbe)">
     <use style="fill:#175517;stroke:#000000;" x="0" xlink:href="#m0d2f496843" y="214.460708"/>
    </g>
   </g>
   <g id="Poly3DCollection_48">
    <defs>
     <path d="M 139.667113 -114.141915 
L 139.776515 -135.229895 
L 157.066224 -133.741087 
L 156.895132 -112.467486 
z
" id="m0256a47ea6" style="stroke:#000000;"/>
    </defs>
    <g clip-path="url(#p01b8c88dbe)">
     <use style="fill:#1b699f;stroke:#000000;" x="0" xlink:href="#m0256a47ea6" y="214.460708"/>
    </g>
   </g>
   <g id="Poly3DCollection_49">
    <path clip-path="url(#p01b8c88dbe)" d="M 53.936223 161.540083 
L 43.39301 165.366431 
L 43.166218 144.499472 
L 53.749169 140.980358 
z
" style="fill:#591011;stroke:#000000;"/>
    <path clip-path="url(#p01b8c88dbe)" d="M 59.754537 167.630211 
L 43.39301 165.366431 
L 53.936223 161.540083 
L 70.139136 163.734812 
z
" style="fill:#721515;stroke:#000000;"/>
    <path clip-path="url(#p01b8c88dbe)" d="M 59.754537 167.630211 
L 59.583345 146.581662 
L 43.166218 144.499472 
L 43.39301 165.366431 
z
" style="fill:#591011;stroke:#000000;"/>
   </g>
   <g id="Poly3DCollection_50">
    <path clip-path="url(#p01b8c88dbe)" d="M 139.343426 162.71139 
L 139.450576 142.057576 
L 156.556528 144.095436 
L 156.38899 164.927142 
z
" style="fill:#1b699f;stroke:#000000;"/>
    <path clip-path="url(#p01b8c88dbe)" d="M 147.312741 168.860317 
L 130.082845 166.574511 
L 139.343426 162.71139 
L 156.38899 164.927142 
z
" style="fill:#113f60;stroke:#000000;"/>
   </g>
   <g id="Poly3DCollection_51">
    <path clip-path="url(#p01b8c88dbe)" d="M 63.403403 55.130845 
L 52.987908 57.307737 
L 52.794264 36.023626 
L 63.248619 34.166634 
z
" style="fill:#124312;stroke:#000000;"/>
    <path clip-path="url(#p01b8c88dbe)" d="M 79.62143 35.231736 
L 63.248619 34.166634 
L 52.794264 36.023626 
L 69.330035 37.122422 
z
" style="fill:#227b22;stroke:#000000;"/>
   </g>
   <g id="Poly3DCollection_52">
    <defs>
     <path d="M 139.776515 -135.229895 
L 139.886684 -156.465642 
L 157.238526 -155.165114 
L 157.066224 -133.741087 
z
" id="mc313096d93" style="stroke:#000000;"/>
    </defs>
    <g clip-path="url(#p01b8c88dbe)">
     <use style="fill:#1b699f;stroke:#000000;" x="0" xlink:href="#mc313096d93" y="214.460708"/>
    </g>
   </g>
   <g id="Poly3DCollection_53">
    <path clip-path="url(#p01b8c88dbe)" d="M 53.749169 140.980358 
L 43.166218 144.499472 
L 42.937837 123.486252 
L 53.560824 120.278745 
z
" style="fill:#591011;stroke:#000000;"/>
    <path clip-path="url(#p01b8c88dbe)" d="M 59.583345 146.581662 
L 59.410942 125.384232 
L 42.937837 123.486252 
L 43.166218 144.499472 
z
" style="fill:#591011;stroke:#000000;"/>
   </g>
   <g id="Poly3DCollection_54">
    <path clip-path="url(#p01b8c88dbe)" d="M 106.106625 55.463237 
L 106.09894 34.450167 
L 122.896043 35.52038 
L 122.845473 56.71782 
z
" style="fill:#1b699f;stroke:#000000;"/>
    <path clip-path="url(#p01b8c88dbe)" d="M 122.896043 35.52038 
L 106.09894 34.450167 
L 96.290313 36.316099 
L 113.263372 37.42025 
z
" style="fill:#185b8a;stroke:#000000;"/>
   </g>
   <g id="Poly3DCollection_55">
    <path clip-path="url(#p01b8c88dbe)" d="M 53.560824 120.278745 
L 42.937837 123.486252 
L 42.707849 102.325227 
L 53.371174 99.43377 
z
" style="fill:#591011;stroke:#000000;"/>
    <path clip-path="url(#p01b8c88dbe)" d="M 59.410942 125.384232 
L 59.237315 104.036339 
L 42.707849 102.325227 
L 42.937837 123.486252 
z
" style="fill:#591011;stroke:#000000;"/>
   </g>
   <g id="Poly3DCollection_56">
    <defs>
     <path d="M 120.528484 -43.900522 
L 103.427187 -46.216939 
L 113.160824 -50.131158 
L 130.082845 -47.886196 
z
" id="m4a4093a438" style="stroke:#000000;"/>
    </defs>
    <g clip-path="url(#p01b8c88dbe)">
     <use style="fill:#175517;stroke:#000000;" x="0" xlink:href="#m4a4093a438" y="214.460708"/>
    </g>
   </g>
   <g id="Poly3DCollection_57">
    <path clip-path="url(#p01b8c88dbe)" d="M 76.415003 169.935353 
L 59.754537 167.630211 
L 70.139136 163.734812 
L 86.633479 165.969015 
z
" style="fill:#721515;stroke:#000000;"/>
    <path clip-path="url(#p01b8c88dbe)" d="M 76.415003 169.935353 
L 76.301493 148.70203 
L 59.583345 146.581662 
L 59.754537 167.630211 
z
" style="fill:#591011;stroke:#000000;"/>
   </g>
   <g id="Poly3DCollection_58">
    <path clip-path="url(#p01b8c88dbe)" d="M 53.371174 99.43377 
L 42.707849 102.325227 
L 42.476238 81.014833 
L 53.180207 78.443939 
z
" style="fill:#591011;stroke:#000000;"/>
    <path clip-path="url(#p01b8c88dbe)" d="M 59.237315 104.036339 
L 59.062451 82.536372 
L 42.476238 81.014833 
L 42.707849 102.325227 
z
" style="fill:#591011;stroke:#000000;"/>
   </g>
   <g id="Poly3DCollection_59">
    <defs>
     <path d="M 96.290313 -178.144609 
L 79.62143 -179.228972 
L 69.330035 -177.338285 
L 86.169583 -176.219304 
z
" id="mdfd00f515b" style="stroke:#000000;"/>
    </defs>
    <g clip-path="url(#p01b8c88dbe)">
     <use style="fill:#227b22;stroke:#000000;" x="0" xlink:href="#mdfd00f515b" y="214.460708"/>
    </g>
   </g>
   <g id="Poly3DCollection_60">
    <defs>
     <path d="M 76.301493 -65.758678 
L 76.187173 -87.14357 
L 59.410942 -89.076475 
L 59.583345 -67.879046 
z
" id="m2b546008bf" style="stroke:#000000;"/>
    </defs>
    <g clip-path="url(#p01b8c88dbe)">
     <use style="fill:#591011;stroke:#000000;" x="0" xlink:href="#m2b546008bf" y="214.460708"/>
    </g>
   </g>
   <g id="Poly3DCollection_61">
    <path clip-path="url(#p01b8c88dbe)" d="M 122.845473 56.71782 
L 122.896043 35.52038 
L 139.997628 36.609992 
L 139.886684 57.995066 
z
" style="fill:#1b699f;stroke:#000000;"/>
    <path clip-path="url(#p01b8c88dbe)" d="M 139.997628 36.609992 
L 122.896043 35.52038 
L 113.263372 37.42025 
L 130.549009 38.544735 
z
" style="fill:#185b8a;stroke:#000000;"/>
   </g>
   <g id="Poly3DCollection_62">
    <path clip-path="url(#p01b8c88dbe)" d="M 156.38899 164.927142 
L 156.556528 144.095436 
L 173.97273 146.170258 
L 173.742626 167.182939 
z
" style="fill:#1b699f;stroke:#000000;"/>
    <path clip-path="url(#p01b8c88dbe)" d="M 164.858992 171.188093 
L 147.312741 168.860317 
L 156.38899 164.927142 
L 173.742626 167.182939 
z
" style="fill:#113f60;stroke:#000000;"/>
    <path clip-path="url(#p01b8c88dbe)" d="M 173.97273 146.170258 
L 165.061019 149.854411 
L 164.858992 171.188093 
L 173.742626 167.182939 
z
" style="fill:#1b699f;stroke:#000000;"/>
   </g>
   <g id="Poly3DCollection_63">
    <path clip-path="url(#p01b8c88dbe)" d="M 53.180207 78.443939 
L 42.476238 81.014833 
L 42.242986 59.553481 
L 52.987908 57.307737 
z
" style="fill:#591011;stroke:#000000;"/>
    <path clip-path="url(#p01b8c88dbe)" d="M 59.062451 82.536372 
L 58.886337 60.882703 
L 42.242986 59.553481 
L 42.476238 81.014833 
z
" style="fill:#591011;stroke:#000000;"/>
   </g>
   <g id="Poly3DCollection_64">
    <defs>
     <path d="M 76.187173 -87.14357 
L 76.072034 -108.681658 
L 59.237315 -110.424369 
L 59.410942 -89.076475 
z
" id="m893ceb6e58" style="stroke:#000000;"/>
    </defs>
    <g clip-path="url(#p01b8c88dbe)">
     <use style="fill:#591011;stroke:#000000;" x="0" xlink:href="#m893ceb6e58" y="214.460708"/>
    </g>
   </g>
   <g id="Poly3DCollection_65">
    <defs>
     <path d="M 137.945899 -41.541286 
L 120.528484 -43.900522 
L 130.082845 -47.886196 
L 147.312741 -45.60039 
z
" id="mf8dc2c5dba" style="stroke:#000000;"/>
    </defs>
    <g clip-path="url(#p01b8c88dbe)">
     <use style="fill:#175517;stroke:#000000;" x="0" xlink:href="#mf8dc2c5dba" y="214.460708"/>
    </g>
   </g>
   <g id="Poly3DCollection_66">
    <path clip-path="url(#p01b8c88dbe)" d="M 156.556528 144.095436 
L 156.725238 123.117975 
L 174.204459 125.009216 
L 173.97273 146.170258 
z
" style="fill:#1b699f;stroke:#000000;"/>
    <path clip-path="url(#p01b8c88dbe)" d="M 174.204459 125.009216 
L 165.264494 128.367689 
L 165.061019 149.854411 
L 173.97273 146.170258 
z
" style="fill:#1b699f;stroke:#000000;"/>
   </g>
   <g id="Poly3DCollection_67">
    <path clip-path="url(#p01b8c88dbe)" d="M 52.987908 57.307737 
L 42.242986 59.553481 
L 42.008076 37.939562 
L 52.794264 36.023626 
z
" style="fill:#591011;stroke:#000000;"/>
    <path clip-path="url(#p01b8c88dbe)" d="M 69.330035 37.122422 
L 52.794264 36.023626 
L 42.008076 37.939562 
L 58.70896 39.073676 
z
" style="fill:#a41e1f;stroke:#000000;"/>
    <path clip-path="url(#p01b8c88dbe)" d="M 58.886337 60.882703 
L 58.70896 39.073676 
L 42.008076 37.939562 
L 42.242986 59.553481 
z
" style="fill:#591011;stroke:#000000;"/>
   </g>
   <g id="Poly3DCollection_68">
    <path clip-path="url(#p01b8c88dbe)" d="M 93.382678 172.283 
L 76.415003 169.935353 
L 86.633479 165.969015 
L 103.427187 168.243769 
z
" style="fill:#721515;stroke:#000000;"/>
    <path clip-path="url(#p01b8c88dbe)" d="M 93.382678 172.283 
L 93.32902 150.861636 
L 76.301493 148.70203 
L 76.415003 169.935353 
z
" style="fill:#591011;stroke:#000000;"/>
   </g>
   <g id="Poly3DCollection_69">
    <defs>
     <path d="M 76.072034 -108.681658 
L 75.956067 -130.374596 
L 59.062451 -131.924335 
L 59.237315 -110.424369 
z
" id="m2dd83d93ca" style="stroke:#000000;"/>
    </defs>
    <g clip-path="url(#p01b8c88dbe)">
     <use style="fill:#591011;stroke:#000000;" x="0" xlink:href="#m2dd83d93ca" y="214.460708"/>
    </g>
   </g>
   <g id="Poly3DCollection_70">
    <defs>
     <path d="M 113.263372 -177.040458 
L 96.290313 -178.144609 
L 86.169583 -176.219304 
L 103.321355 -175.079575 
z
" id="m448c1c7989" style="stroke:#000000;"/>
    </defs>
    <g clip-path="url(#p01b8c88dbe)">
     <use style="fill:#227b22;stroke:#000000;" x="0" xlink:href="#m448c1c7989" y="214.460708"/>
    </g>
   </g>
   <g id="Poly3DCollection_71">
    <path clip-path="url(#p01b8c88dbe)" d="M 156.725238 123.117975 
L 156.895132 101.993222 
L 174.43783 103.698236 
L 174.204459 125.009216 
z
" style="fill:#1b699f;stroke:#000000;"/>
    <path clip-path="url(#p01b8c88dbe)" d="M 174.43783 103.698236 
L 165.469435 106.726276 
L 165.264494 128.367689 
L 174.204459 125.009216 
z
" style="fill:#1b699f;stroke:#000000;"/>
   </g>
   <g id="Poly3DCollection_72">
    <defs>
     <path d="M 93.32902 -63.599072 
L 93.274976 -85.174766 
L 76.187173 -87.14357 
L 76.301493 -65.758678 
z
" id="m5067472121" style="stroke:#000000;"/>
    </defs>
    <g clip-path="url(#p01b8c88dbe)">
     <use style="fill:#591011;stroke:#000000;" x="0" xlink:href="#m5067472121" y="214.460708"/>
    </g>
   </g>
   <g id="Poly3DCollection_73">
    <path clip-path="url(#p01b8c88dbe)" d="M 139.886684 57.995066 
L 139.997628 36.609992 
L 157.41205 37.719537 
L 157.238526 59.295593 
z
" style="fill:#1b699f;stroke:#000000;"/>
    <path clip-path="url(#p01b8c88dbe)" d="M 157.41205 37.719537 
L 139.997628 36.609992 
L 130.549009 38.544735 
L 148.15594 39.690121 
z
" style="fill:#185b8a;stroke:#000000;"/>
   </g>
   <g id="Poly3DCollection_74">
    <defs>
     <path d="M 75.956067 -130.374596 
L 75.839263 -152.224059 
L 58.886337 -153.578005 
L 59.062451 -131.924335 
z
" id="m539e5d5a50" style="stroke:#000000;"/>
    </defs>
    <g clip-path="url(#p01b8c88dbe)">
     <use style="fill:#591011;stroke:#000000;" x="0" xlink:href="#m539e5d5a50" y="214.460708"/>
    </g>
   </g>
   <g id="Poly3DCollection_75">
    <path clip-path="url(#p01b8c88dbe)" d="M 156.895132 101.993222 
L 157.066224 80.719621 
L 174.672861 82.23572 
L 174.43783 103.698236 
z
" style="fill:#1b699f;stroke:#000000;"/>
    <path clip-path="url(#p01b8c88dbe)" d="M 174.672861 82.23572 
L 165.675856 84.928494 
L 165.469435 106.726276 
L 174.43783 103.698236 
z
" style="fill:#1b699f;stroke:#000000;"/>
   </g>
   <g id="Poly3DCollection_76">
    <defs>
     <path d="M 93.274976 -85.174766 
L 93.220541 -106.906465 
L 76.072034 -108.681658 
L 76.187173 -87.14357 
z
" id="m41e9ac28c5" style="stroke:#000000;"/>
    </defs>
    <g clip-path="url(#p01b8c88dbe)">
     <use style="fill:#591011;stroke:#000000;" x="0" xlink:href="#m41e9ac28c5" y="214.460708"/>
    </g>
   </g>
   <g id="Poly3DCollection_77">
    <path clip-path="url(#p01b8c88dbe)" d="M 86.169583 38.241404 
L 69.330035 37.122422 
L 58.70896 39.073676 
L 75.721613 40.22896 
z
" style="fill:#a41e1f;stroke:#000000;"/>
    <path clip-path="url(#p01b8c88dbe)" d="M 75.839263 62.236649 
L 75.721613 40.22896 
L 58.70896 39.073676 
L 58.886337 60.882703 
z
" style="fill:#591011;stroke:#000000;"/>
   </g>
   <g id="Poly3DCollection_78">
    <path clip-path="url(#p01b8c88dbe)" d="M 110.666137 174.674339 
L 93.382678 172.283 
L 103.427187 168.243769 
L 120.528484 170.560186 
z
" style="fill:#721515;stroke:#000000;"/>
    <path clip-path="url(#p01b8c88dbe)" d="M 110.666137 174.674339 
L 110.674594 153.06158 
L 93.32902 150.861636 
L 93.382678 172.283 
z
" style="fill:#591011;stroke:#000000;"/>
   </g>
   <g id="Poly3DCollection_79">
    <path clip-path="url(#p01b8c88dbe)" d="M 157.066224 80.719621 
L 157.238526 59.295593 
L 174.909569 60.620045 
L 174.672861 82.23572 
z
" style="fill:#1b699f;stroke:#000000;"/>
    <path clip-path="url(#p01b8c88dbe)" d="M 174.909569 60.620045 
L 165.883775 62.972642 
L 165.675856 84.928494 
L 174.672861 82.23572 
z
" style="fill:#1b699f;stroke:#000000;"/>
   </g>
   <g id="Poly3DCollection_80">
    <defs>
     <path d="M 93.220541 -106.906465 
L 93.16571 -128.795866 
L 75.956067 -130.374596 
L 76.072034 -108.681658 
z
" id="m69b678d1ca" style="stroke:#000000;"/>
    </defs>
    <g clip-path="url(#p01b8c88dbe)">
     <use style="fill:#591011;stroke:#000000;" x="0" xlink:href="#m69b678d1ca" y="214.460708"/>
    </g>
   </g>
   <g id="Poly3DCollection_81">
    <defs>
     <path d="M 130.549009 -175.915973 
L 113.263372 -177.040458 
L 103.321355 -175.079575 
L 120.794116 -173.918517 
z
" id="m3e93c3f9a4" style="stroke:#000000;"/>
    </defs>
    <g clip-path="url(#p01b8c88dbe)">
     <use style="fill:#227b22;stroke:#000000;" x="0" xlink:href="#m3e93c3f9a4" y="214.460708"/>
    </g>
   </g>
   <g id="Poly3DCollection_82">
    <path clip-path="url(#p01b8c88dbe)" d="M 155.688278 175.322675 
L 137.945899 172.919422 
L 147.312741 168.860317 
L 164.858992 171.188093 
z
" style="fill:#175517;stroke:#000000;"/>
    <path clip-path="url(#p01b8c88dbe)" d="M 165.061019 149.854411 
L 155.860273 153.658052 
L 155.688278 175.322675 
L 164.858992 171.188093 
z
" style="fill:#278d27;stroke:#000000;"/>
   </g>
   <g id="Poly3DCollection_83">
    <defs>
     <path d="M 110.674594 -61.399127 
L 110.683111 -83.169055 
L 93.274976 -85.174766 
L 93.32902 -63.599072 
z
" id="mba26b7dfed" style="stroke:#000000;"/>
    </defs>
    <g clip-path="url(#p01b8c88dbe)">
     <use style="fill:#591011;stroke:#000000;" x="0" xlink:href="#mba26b7dfed" y="214.460708"/>
    </g>
   </g>
   <g id="Poly3DCollection_84">
    <path clip-path="url(#p01b8c88dbe)" d="M 157.238526 59.295593 
L 157.41205 37.719537 
L 175.147972 38.849566 
L 174.909569 60.620045 
z
" style="fill:#1b699f;stroke:#000000;"/>
    <path clip-path="url(#p01b8c88dbe)" d="M 175.147972 38.849566 
L 157.41205 37.719537 
L 148.15594 39.690121 
L 166.093206 40.856996 
z
" style="fill:#185b8a;stroke:#000000;"/>
    <path clip-path="url(#p01b8c88dbe)" d="M 175.147972 38.849566 
L 166.093206 40.856996 
L 165.883775 62.972642 
L 174.909569 60.620045 
z
" style="fill:#1b699f;stroke:#000000;"/>
   </g>
   <g id="Poly3DCollection_85">
    <defs>
     <path d="M 93.16571 -128.795866 
L 93.110481 -150.844693 
L 75.839263 -152.224059 
L 75.956067 -130.374596 
z
" id="m5d9bdae7e8" style="stroke:#000000;"/>
    </defs>
    <g clip-path="url(#p01b8c88dbe)">
     <use style="fill:#591011;stroke:#000000;" x="0" xlink:href="#m5d9bdae7e8" y="214.460708"/>
    </g>
   </g>
   <g id="Poly3DCollection_86">
    <defs>
     <path d="M 165.264494 -86.093019 
L 156.033522 -82.625223 
L 155.860273 -60.802656 
L 165.061019 -64.606297 
z
" id="mdbdd2e8cd3" style="stroke:#000000;"/>
    </defs>
    <g clip-path="url(#p01b8c88dbe)">
     <use style="fill:#278d27;stroke:#000000;" x="0" xlink:href="#mdbdd2e8cd3" y="214.460708"/>
    </g>
   </g>
   <g id="Poly3DCollection_87">
    <defs>
     <path d="M 110.683111 -83.169055 
L 110.691691 -105.097871 
L 93.220541 -106.906465 
L 93.274976 -85.174766 
z
" id="mc337b2fa1d" style="stroke:#000000;"/>
    </defs>
    <g clip-path="url(#p01b8c88dbe)">
     <use style="fill:#591011;stroke:#000000;" x="0" xlink:href="#mc337b2fa1d" y="214.460708"/>
    </g>
   </g>
   <g id="Poly3DCollection_88">
    <path clip-path="url(#p01b8c88dbe)" d="M 103.321355 39.381133 
L 86.169583 38.241404 
L 75.721613 40.22896 
L 93.054848 41.406015 
z
" style="fill:#a41e1f;stroke:#000000;"/>
    <path clip-path="url(#p01b8c88dbe)" d="M 93.110481 63.616015 
L 93.054848 41.406015 
L 75.721613 40.22896 
L 75.839263 62.236649 
z
" style="fill:#591011;stroke:#000000;"/>
   </g>
   <g id="Poly3DCollection_89">
    <path clip-path="url(#p01b8c88dbe)" d="M 128.274279 177.110601 
L 110.666137 174.674339 
L 120.528484 170.560186 
L 137.945899 172.919422 
z
" style="fill:#721515;stroke:#000000;"/>
    <path clip-path="url(#p01b8c88dbe)" d="M 128.274279 177.110601 
L 128.347208 155.303004 
L 110.674594 153.06158 
L 110.666137 174.674339 
z
" style="fill:#591011;stroke:#000000;"/>
   </g>
   <g id="Poly3DCollection_90">
    <defs>
     <path d="M 165.469435 -107.734432 
L 156.208039 -104.607465 
L 156.033522 -82.625223 
L 165.264494 -86.093019 
z
" id="mf9ec1d769c" style="stroke:#000000;"/>
    </defs>
    <g clip-path="url(#p01b8c88dbe)">
     <use style="fill:#278d27;stroke:#000000;" x="0" xlink:href="#mf9ec1d769c" y="214.460708"/>
    </g>
   </g>
   <g id="Poly3DCollection_91">
    <defs>
     <path d="M 110.691691 -105.097871 
L 110.700334 -127.187324 
L 93.16571 -128.795866 
L 93.220541 -106.906465 
z
" id="m28d7231747" style="stroke:#000000;"/>
    </defs>
    <g clip-path="url(#p01b8c88dbe)">
     <use style="fill:#591011;stroke:#000000;" x="0" xlink:href="#m28d7231747" y="214.460708"/>
    </g>
   </g>
   <g id="Poly3DCollection_92">
    <defs>
     <path d="M 148.15594 -174.770587 
L 130.549009 -175.915973 
L 120.794116 -173.918517 
L 138.596962 -172.735524 
z
" id="m0764ac9055" style="stroke:#000000;"/>
    </defs>
    <g clip-path="url(#p01b8c88dbe)">
     <use style="fill:#227b22;stroke:#000000;" x="0" xlink:href="#m0764ac9055" y="214.460708"/>
    </g>
   </g>
   <g id="Poly3DCollection_93">
    <defs>
     <path d="M 128.347208 -59.157704 
L 128.420672 -81.125388 
L 110.683111 -83.169055 
L 110.674594 -61.399127 
z
" id="mc6c931de7c" style="stroke:#000000;"/>
    </defs>
    <g clip-path="url(#p01b8c88dbe)">
     <use style="fill:#591011;stroke:#000000;" x="0" xlink:href="#mc6c931de7c" y="214.460708"/>
    </g>
   </g>
   <g id="Poly3DCollection_94">
    <defs>
     <path d="M 165.675856 -129.532214 
L 156.383837 -126.751143 
L 156.208039 -104.607465 
L 165.469435 -107.734432 
z
" id="mac711dc374" style="stroke:#000000;"/>
    </defs>
    <g clip-path="url(#p01b8c88dbe)">
     <use style="fill:#278d27;stroke:#000000;" x="0" xlink:href="#mac711dc374" y="214.460708"/>
    </g>
   </g>
   <g id="Poly3DCollection_95">
    <defs>
     <path d="M 110.700334 -127.187324 
L 110.709041 -149.439183 
L 93.110481 -150.844693 
L 93.16571 -128.795866 
z
" id="m4fad3aacbf" style="stroke:#000000;"/>
    </defs>
    <g clip-path="url(#p01b8c88dbe)">
     <use style="fill:#591011;stroke:#000000;" x="0" xlink:href="#m4fad3aacbf" y="214.460708"/>
    </g>
   </g>
   <g id="Poly3DCollection_96">
    <defs>
     <path d="M 128.420672 -81.125388 
L 128.494678 -103.254927 
L 110.691691 -105.097871 
L 110.683111 -83.169055 
z
" id="m1cc84d6672" style="stroke:#000000;"/>
    </defs>
    <g clip-path="url(#p01b8c88dbe)">
     <use style="fill:#591011;stroke:#000000;" x="0" xlink:href="#m1cc84d6672" y="214.460708"/>
    </g>
   </g>
   <g id="Poly3DCollection_97">
    <defs>
     <path d="M 165.883775 -151.488065 
L 156.560932 -149.058041 
L 156.383837 -126.751143 
L 165.675856 -129.532214 
z
" id="mf1b9fb677d" style="stroke:#000000;"/>
    </defs>
    <g clip-path="url(#p01b8c88dbe)">
     <use style="fill:#278d27;stroke:#000000;" x="0" xlink:href="#mf1b9fb677d" y="214.460708"/>
    </g>
   </g>
   <g id="Poly3DCollection_98">
    <path clip-path="url(#p01b8c88dbe)" d="M 120.794116 40.542191 
L 103.321355 39.381133 
L 93.054848 41.406015 
L 110.717811 42.605461 
z
" style="fill:#a41e1f;stroke:#000000;"/>
    <path clip-path="url(#p01b8c88dbe)" d="M 110.709041 65.021525 
L 110.717811 42.605461 
L 93.054848 41.406015 
L 93.110481 63.616015 
z
" style="fill:#591011;stroke:#000000;"/>
   </g>
   <g id="Poly3DCollection_99">
    <path clip-path="url(#p01b8c88dbe)" d="M 146.216339 179.593064 
L 128.274279 177.110601 
L 137.945899 172.919422 
L 155.688278 175.322675 
z
" style="fill:#721515;stroke:#000000;"/>
    <path clip-path="url(#p01b8c88dbe)" d="M 155.860273 153.658052 
L 146.356201 157.58709 
L 146.216339 179.593064 
L 155.688278 175.322675 
z
" style="fill:#bd2223;stroke:#000000;"/>
    <path clip-path="url(#p01b8c88dbe)" d="M 146.216339 179.593064 
L 146.356201 157.58709 
L 128.347208 155.303004 
L 128.274279 177.110601 
z
" style="fill:#591011;stroke:#000000;"/>
   </g>
   <g id="Poly3DCollection_100">
    <defs>
     <path d="M 128.494678 -103.254927 
L 128.569231 -125.548117 
L 110.700334 -127.187324 
L 110.691691 -105.097871 
z
" id="md837b467a1" style="stroke:#000000;"/>
    </defs>
    <g clip-path="url(#p01b8c88dbe)">
     <use style="fill:#591011;stroke:#000000;" x="0" xlink:href="#md837b467a1" y="214.460708"/>
    </g>
   </g>
   <g id="Poly3DCollection_101">
    <path clip-path="url(#p01b8c88dbe)" d="M 166.093206 40.856996 
L 148.15594 39.690121 
L 138.596962 41.725183 
L 156.739336 42.930737 
z
" style="fill:#227b22;stroke:#000000;"/>
    <path clip-path="url(#p01b8c88dbe)" d="M 166.093206 40.856996 
L 156.739336 42.930737 
L 156.560932 65.402667 
L 165.883775 62.972642 
z
" style="fill:#278d27;stroke:#000000;"/>
   </g>
   <g id="Poly3DCollection_102">
    <path clip-path="url(#p01b8c88dbe)" d="M 156.033522 131.835485 
L 146.497099 135.41803 
L 146.356201 157.58709 
L 155.860273 153.658052 
z
" style="fill:#bd2223;stroke:#000000;"/>
    <path clip-path="url(#p01b8c88dbe)" d="M 146.356201 157.58709 
L 146.497099 135.41803 
L 128.420672 133.33532 
L 128.347208 155.303004 
z
" style="fill:#591011;stroke:#000000;"/>
   </g>
   <g id="Poly3DCollection_103">
    <defs>
     <path d="M 128.569231 -125.548117 
L 128.644338 -148.00678 
L 110.709041 -149.439183 
L 110.700334 -127.187324 
z
" id="m1d3b887b09" style="stroke:#000000;"/>
    </defs>
    <g clip-path="url(#p01b8c88dbe)">
     <use style="fill:#591011;stroke:#000000;" x="0" xlink:href="#m1d3b887b09" y="214.460708"/>
    </g>
   </g>
   <g id="Poly3DCollection_104">
    <path clip-path="url(#p01b8c88dbe)" d="M 156.208039 109.853242 
L 146.639045 113.084065 
L 146.497099 135.41803 
L 156.033522 131.835485 
z
" style="fill:#bd2223;stroke:#000000;"/>
    <path clip-path="url(#p01b8c88dbe)" d="M 146.497099 135.41803 
L 146.639045 113.084065 
L 128.494678 111.205781 
L 128.420672 133.33532 
z
" style="fill:#591011;stroke:#000000;"/>
   </g>
   <g id="Poly3DCollection_105">
    <path clip-path="url(#p01b8c88dbe)" d="M 138.596962 41.725183 
L 120.794116 40.542191 
L 110.717811 42.605461 
L 128.720004 43.827942 
z
" style="fill:#a41e1f;stroke:#000000;"/>
    <path clip-path="url(#p01b8c88dbe)" d="M 128.644338 66.453928 
L 128.720004 43.827942 
L 110.717811 42.605461 
L 110.709041 65.021525 
z
" style="fill:#591011;stroke:#000000;"/>
   </g>
   <g id="Poly3DCollection_106">
    <path clip-path="url(#p01b8c88dbe)" d="M 156.383837 87.709565 
L 146.782052 90.583348 
L 146.639045 113.084065 
L 156.208039 109.853242 
z
" style="fill:#bd2223;stroke:#000000;"/>
    <path clip-path="url(#p01b8c88dbe)" d="M 146.639045 113.084065 
L 146.782052 90.583348 
L 128.569231 88.912591 
L 128.494678 111.205781 
z
" style="fill:#591011;stroke:#000000;"/>
   </g>
   <g id="Poly3DCollection_107">
    <path clip-path="url(#p01b8c88dbe)" d="M 156.560932 65.402667 
L 146.92613 67.914004 
L 146.782052 90.583348 
L 156.383837 87.709565 
z
" style="fill:#bd2223;stroke:#000000;"/>
    <path clip-path="url(#p01b8c88dbe)" d="M 146.782052 90.583348 
L 146.92613 67.914004 
L 128.644338 66.453928 
L 128.569231 88.912591 
z
" style="fill:#591011;stroke:#000000;"/>
   </g>
   <g id="Poly3DCollection_108">
    <path clip-path="url(#p01b8c88dbe)" d="M 156.739336 42.930737 
L 138.596962 41.725183 
L 128.720004 43.827942 
L 147.071291 45.07413 
z
" style="fill:#a41e1f;stroke:#000000;"/>
    <path clip-path="url(#p01b8c88dbe)" d="M 156.739336 42.930737 
L 147.071291 45.07413 
L 146.92613 67.914004 
L 156.560932 65.402667 
z
" style="fill:#bd2223;stroke:#000000;"/>
    <path clip-path="url(#p01b8c88dbe)" d="M 146.92613 67.914004 
L 147.071291 45.07413 
L 128.720004 43.827942 
L 128.644338 66.453928 
z
" style="fill:#591011;stroke:#000000;"/>
   </g>
  </g>
  <g id="patch_4">
   <path d="M 243.529412 204.141176 
L 440.470588 204.141176 
L 440.470588 7.2 
L 243.529412 7.2 
z
" style="fill:#ffffff;"/>
  </g>
  <g id="axes_3">
   <g id="Poly3DCollection_109">
    <path clip-path="url(#p7ff271ab61)" d="M 358.976069 140.055697 
L 359.025261 119.436017 
L 375.887881 121.260542 
L 375.779988 142.057576 
z
" style="fill:#a9a900;stroke:#000000;"/>
    <path clip-path="url(#p7ff271ab61)" d="M 358.976069 140.055697 
L 349.50703 143.54581 
L 349.523941 122.616999 
L 359.025261 119.436017 
z
" style="fill:#505000;stroke:#000000;"/>
   </g>
   <g id="text_4">
    <!-- $3 \times 3 \times 3$ -->
    <g transform="translate(333.494118 204.141176)scale(0.15 -0.15)">
     <use transform="translate(0 0.390625)" xlink:href="#Cmr10-51"/>
     <use transform="translate(67.558594 0.390625)" xlink:href="#Cmsy10-163"/>
     <use transform="translate(162.802734 0.390625)" xlink:href="#Cmr10-51"/>
     <use transform="translate(230.361328 0.390625)" xlink:href="#Cmsy10-163"/>
     <use transform="translate(325.605469 0.390625)" xlink:href="#Cmr10-51"/>
    </g>
   </g>
   <g id="text_5">
    <!-- * -->
    <g transform="translate(217.585294 112.569026)scale(0.25 -0.25)">
     <defs>
      <path d="M 47.015625 60.890625 
L 29.5 51.421875 
L 47.015625 41.890625 
L 44.1875 37.109375 
L 27.78125 47.015625 
L 27.78125 28.609375 
L 22.21875 28.609375 
L 22.21875 47.015625 
L 5.8125 37.109375 
L 2.984375 41.890625 
L 20.515625 51.421875 
L 2.984375 60.890625 
L 5.8125 65.71875 
L 22.21875 55.8125 
L 22.21875 74.21875 
L 27.78125 74.21875 
L 27.78125 55.8125 
L 44.1875 65.71875 
z
" id="DejaVuSans-42"/>
     </defs>
     <use xlink:href="#DejaVuSans-42"/>
    </g>
   </g>
   <g id="Poly3DCollection_110">
    <path clip-path="url(#p7ff271ab61)" d="M 358.927213 160.534627 
L 358.976069 140.055697 
L 375.779988 142.057576 
L 375.672837 162.71139 
z
" style="fill:#a9a900;stroke:#000000;"/>
    <path clip-path="url(#p7ff271ab61)" d="M 358.927213 160.534627 
L 349.490236 164.32955 
L 349.50703 143.54581 
L 358.976069 140.055697 
z
" style="fill:#505000;stroke:#000000;"/>
    <path clip-path="url(#p7ff271ab61)" d="M 366.412257 166.574511 
L 349.490236 164.32955 
L 358.927213 160.534627 
L 375.672837 162.71139 
z
" style="fill:#666600;stroke:#000000;"/>
   </g>
   <g id="Poly3DCollection_111">
    <defs>
     <path d="M 375.779988 -72.403132 
L 375.887881 -93.200166 
L 393.05465 -91.342733 
L 392.88594 -70.365271 
z
" id="m24a0a7501c" style="stroke:#000000;"/>
    </defs>
    <g clip-path="url(#p7ff271ab61)">
     <use style="fill:#a9a900;stroke:#000000;" x="0" xlink:href="#m24a0a7501c" y="214.460708"/>
    </g>
   </g>
   <g id="Poly3DCollection_112">
    <path clip-path="url(#p7ff271ab61)" d="M 375.672837 162.71139 
L 375.779988 142.057576 
L 392.88594 144.095436 
L 392.718402 164.927142 
z
" style="fill:#a9a900;stroke:#000000;"/>
    <path clip-path="url(#p7ff271ab61)" d="M 383.642153 168.860317 
L 366.412257 166.574511 
L 375.672837 162.71139 
L 392.718402 164.927142 
z
" style="fill:#666600;stroke:#000000;"/>
   </g>
   <g id="Poly3DCollection_113">
    <path clip-path="url(#p7ff271ab61)" d="M 359.025261 119.436017 
L 359.074791 98.674132 
L 375.996525 100.318793 
L 375.887881 121.260542 
z
" style="fill:#a9a900;stroke:#000000;"/>
    <path clip-path="url(#p7ff271ab61)" d="M 359.025261 119.436017 
L 349.523941 122.616999 
L 349.540971 101.541595 
L 359.074791 98.674132 
z
" style="fill:#505000;stroke:#000000;"/>
    <path clip-path="url(#p7ff271ab61)" d="M 375.996525 100.318793 
L 359.074791 98.674132 
L 349.540971 101.541595 
L 366.642868 103.238332 
z
" style="fill:#939300;stroke:#000000;"/>
   </g>
   <g id="Poly3DCollection_114">
    <defs>
     <path d="M 349.50703 -70.914898 
L 339.739272 -67.314683 
L 339.721822 -88.56202 
L 349.523941 -91.843708 
z
" id="meb1cd1cdb0" style="stroke:#000000;"/>
    </defs>
    <g clip-path="url(#p7ff271ab61)">
     <use style="fill:#505000;stroke:#000000;" x="0" xlink:href="#meb1cd1cdb0" y="214.460708"/>
    </g>
   </g>
   <g id="Poly3DCollection_115">
    <path clip-path="url(#p7ff271ab61)" d="M 349.490236 164.32955 
L 339.756599 168.243769 
L 339.739272 147.146025 
L 349.50703 143.54581 
z
" style="fill:#505000;stroke:#000000;"/>
    <path clip-path="url(#p7ff271ab61)" d="M 356.857896 170.560186 
L 339.756599 168.243769 
L 349.490236 164.32955 
L 366.412257 166.574511 
z
" style="fill:#666600;stroke:#000000;"/>
   </g>
   <g id="Poly3DCollection_116">
    <path clip-path="url(#p7ff271ab61)" d="M 375.887881 121.260542 
L 375.996525 100.318793 
L 393.224544 101.993222 
L 393.05465 123.117975 
z
" style="fill:#a9a900;stroke:#000000;"/>
    <path clip-path="url(#p7ff271ab61)" d="M 393.224544 101.993222 
L 375.996525 100.318793 
L 366.642868 103.238332 
L 384.059241 104.966269 
z
" style="fill:#939300;stroke:#000000;"/>
   </g>
   <g id="Poly3DCollection_117">
    <path clip-path="url(#p7ff271ab61)" d="M 392.718402 164.927142 
L 392.88594 144.095436 
L 410.302142 146.170258 
L 410.072037 167.182939 
z
" style="fill:#a9a900;stroke:#000000;"/>
    <path clip-path="url(#p7ff271ab61)" d="M 401.188404 171.188093 
L 383.642153 168.860317 
L 392.718402 164.927142 
L 410.072037 167.182939 
z
" style="fill:#666600;stroke:#000000;"/>
    <path clip-path="url(#p7ff271ab61)" d="M 410.302142 146.170258 
L 401.39043 149.854411 
L 401.188404 171.188093 
L 410.072037 167.182939 
z
" style="fill:#a9a900;stroke:#000000;"/>
   </g>
   <g id="Poly3DCollection_118">
    <defs>
     <path d="M 374.27531 -41.541286 
L 356.857896 -43.900522 
L 366.412257 -47.886196 
L 383.642153 -45.60039 
z
" id="mc2b535f2ff" style="stroke:#000000;"/>
    </defs>
    <g clip-path="url(#p7ff271ab61)">
     <use style="fill:#666600;stroke:#000000;" x="0" xlink:href="#mc2b535f2ff" y="214.460708"/>
    </g>
   </g>
   <g id="Poly3DCollection_119">
    <path clip-path="url(#p7ff271ab61)" d="M 392.88594 144.095436 
L 393.05465 123.117975 
L 410.533871 125.009216 
L 410.302142 146.170258 
z
" style="fill:#a9a900;stroke:#000000;"/>
    <path clip-path="url(#p7ff271ab61)" d="M 410.533871 125.009216 
L 401.593906 128.367689 
L 401.39043 149.854411 
L 410.302142 146.170258 
z
" style="fill:#a9a900;stroke:#000000;"/>
   </g>
   <g id="Poly3DCollection_120">
    <path clip-path="url(#p7ff271ab61)" d="M 349.523941 122.616999 
L 339.721822 125.898688 
L 339.704248 104.500161 
L 349.540971 101.541595 
z
" style="fill:#505000;stroke:#000000;"/>
    <path clip-path="url(#p7ff271ab61)" d="M 366.642868 103.238332 
L 349.540971 101.541595 
L 339.704248 104.500161 
L 356.989281 106.251488 
z
" style="fill:#939300;stroke:#000000;"/>
   </g>
   <g id="Poly3DCollection_121">
    <path clip-path="url(#p7ff271ab61)" d="M 393.05465 123.117975 
L 393.224544 101.993222 
L 410.767242 103.698236 
L 410.533871 125.009216 
z
" style="fill:#a9a900;stroke:#000000;"/>
    <path clip-path="url(#p7ff271ab61)" d="M 410.767242 103.698236 
L 393.224544 101.993222 
L 384.059241 104.966269 
L 401.798847 106.726276 
z
" style="fill:#939300;stroke:#000000;"/>
    <path clip-path="url(#p7ff271ab61)" d="M 410.767242 103.698236 
L 401.798847 106.726276 
L 401.593906 128.367689 
L 410.533871 125.009216 
z
" style="fill:#a9a900;stroke:#000000;"/>
   </g>
   <g id="Poly3DCollection_122">
    <path clip-path="url(#p7ff271ab61)" d="M 339.756599 168.243769 
L 329.71209 172.283 
L 329.658432 150.861636 
L 339.739272 147.146025 
z
" style="fill:#505000;stroke:#000000;"/>
    <path clip-path="url(#p7ff271ab61)" d="M 346.995549 174.674339 
L 329.71209 172.283 
L 339.756599 168.243769 
L 356.857896 170.560186 
z
" style="fill:#666600;stroke:#000000;"/>
    <path clip-path="url(#p7ff271ab61)" d="M 346.995549 174.674339 
L 347.004005 153.06158 
L 329.658432 150.861636 
L 329.71209 172.283 
z
" style="fill:#505000;stroke:#000000;"/>
   </g>
   <g id="Poly3DCollection_123">
    <defs>
     <path d="M 384.059241 -109.494438 
L 366.642868 -111.222376 
L 356.989281 -108.20922 
L 374.597303 -106.425168 
z
" id="m0d780d6ad6" style="stroke:#000000;"/>
    </defs>
    <g clip-path="url(#p7ff271ab61)">
     <use style="fill:#939300;stroke:#000000;" x="0" xlink:href="#m0d780d6ad6" y="214.460708"/>
    </g>
   </g>
   <g id="Poly3DCollection_124">
    <path clip-path="url(#p7ff271ab61)" d="M 392.01769 175.322675 
L 374.27531 172.919422 
L 383.642153 168.860317 
L 401.188404 171.188093 
z
" style="fill:#666600;stroke:#000000;"/>
    <path clip-path="url(#p7ff271ab61)" d="M 401.39043 149.854411 
L 392.189685 153.658052 
L 392.01769 175.322675 
L 401.188404 171.188093 
z
" style="fill:#a9a900;stroke:#000000;"/>
   </g>
   <g id="Poly3DCollection_125">
    <path clip-path="url(#p7ff271ab61)" d="M 339.739272 147.146025 
L 329.658432 150.861636 
L 329.604388 129.285942 
L 339.721822 125.898688 
z
" style="fill:#505000;stroke:#000000;"/>
    <path clip-path="url(#p7ff271ab61)" d="M 347.004005 153.06158 
L 347.012523 131.291653 
L 329.604388 129.285942 
L 329.658432 150.861636 
z
" style="fill:#505000;stroke:#000000;"/>
   </g>
   <g id="Poly3DCollection_126">
    <defs>
     <path d="M 401.593906 -86.093019 
L 392.362934 -82.625223 
L 392.189685 -60.802656 
L 401.39043 -64.606297 
z
" id="ma8a9d189ed" style="stroke:#000000;"/>
    </defs>
    <g clip-path="url(#p7ff271ab61)">
     <use style="fill:#a9a900;stroke:#000000;" x="0" xlink:href="#ma8a9d189ed" y="214.460708"/>
    </g>
   </g>
   <g id="Poly3DCollection_127">
    <path clip-path="url(#p7ff271ab61)" d="M 339.721822 125.898688 
L 329.604388 129.285942 
L 329.549952 107.554243 
L 339.704248 104.500161 
z
" style="fill:#505000;stroke:#000000;"/>
    <path clip-path="url(#p7ff271ab61)" d="M 356.989281 106.251488 
L 339.704248 104.500161 
L 329.549952 107.554243 
L 347.021103 109.362836 
z
" style="fill:#939300;stroke:#000000;"/>
    <path clip-path="url(#p7ff271ab61)" d="M 347.012523 131.291653 
L 347.021103 109.362836 
L 329.549952 107.554243 
L 329.604388 129.285942 
z
" style="fill:#505000;stroke:#000000;"/>
   </g>
   <g id="Poly3DCollection_128">
    <path clip-path="url(#p7ff271ab61)" d="M 364.603691 177.110601 
L 346.995549 174.674339 
L 356.857896 170.560186 
L 374.27531 172.919422 
z
" style="fill:#666600;stroke:#000000;"/>
    <path clip-path="url(#p7ff271ab61)" d="M 364.603691 177.110601 
L 364.67662 155.303004 
L 347.004005 153.06158 
L 346.995549 174.674339 
z
" style="fill:#505000;stroke:#000000;"/>
   </g>
   <g id="Poly3DCollection_129">
    <path clip-path="url(#p7ff271ab61)" d="M 401.798847 106.726276 
L 384.059241 104.966269 
L 374.597303 108.03554 
L 392.537451 109.853242 
z
" style="fill:#939300;stroke:#000000;"/>
    <path clip-path="url(#p7ff271ab61)" d="M 401.798847 106.726276 
L 392.537451 109.853242 
L 392.362934 131.835485 
L 401.593906 128.367689 
z
" style="fill:#a9a900;stroke:#000000;"/>
   </g>
   <g id="Poly3DCollection_130">
    <defs>
     <path d="M 364.67662 -59.157704 
L 364.750084 -81.125388 
L 347.012523 -83.169055 
L 347.004005 -61.399127 
z
" id="mf02c3a45de" style="stroke:#000000;"/>
    </defs>
    <g clip-path="url(#p7ff271ab61)">
     <use style="fill:#505000;stroke:#000000;" x="0" xlink:href="#mf02c3a45de" y="214.460708"/>
    </g>
   </g>
   <g id="Poly3DCollection_131">
    <path clip-path="url(#p7ff271ab61)" d="M 374.597303 108.03554 
L 356.989281 106.251488 
L 347.021103 109.362836 
L 364.82409 111.205781 
z
" style="fill:#939300;stroke:#000000;"/>
    <path clip-path="url(#p7ff271ab61)" d="M 364.750084 133.33532 
L 364.82409 111.205781 
L 347.021103 109.362836 
L 347.012523 131.291653 
z
" style="fill:#505000;stroke:#000000;"/>
   </g>
   <g id="Poly3DCollection_132">
    <path clip-path="url(#p7ff271ab61)" d="M 382.545751 179.593064 
L 364.603691 177.110601 
L 374.27531 172.919422 
L 392.01769 175.322675 
z
" style="fill:#666600;stroke:#000000;"/>
    <path clip-path="url(#p7ff271ab61)" d="M 392.189685 153.658052 
L 382.685613 157.58709 
L 382.545751 179.593064 
L 392.01769 175.322675 
z
" style="fill:#a9a900;stroke:#000000;"/>
    <path clip-path="url(#p7ff271ab61)" d="M 382.545751 179.593064 
L 382.685613 157.58709 
L 364.67662 155.303004 
L 364.603691 177.110601 
z
" style="fill:#505000;stroke:#000000;"/>
   </g>
   <g id="Poly3DCollection_133">
    <path clip-path="url(#p7ff271ab61)" d="M 392.362934 131.835485 
L 382.826511 135.41803 
L 382.685613 157.58709 
L 392.189685 153.658052 
z
" style="fill:#a9a900;stroke:#000000;"/>
    <path clip-path="url(#p7ff271ab61)" d="M 382.685613 157.58709 
L 382.826511 135.41803 
L 364.750084 133.33532 
L 364.67662 155.303004 
z
" style="fill:#505000;stroke:#000000;"/>
   </g>
   <g id="Poly3DCollection_134">
    <path clip-path="url(#p7ff271ab61)" d="M 392.537451 109.853242 
L 374.597303 108.03554 
L 364.82409 111.205781 
L 382.968457 113.084065 
z
" style="fill:#939300;stroke:#000000;"/>
    <path clip-path="url(#p7ff271ab61)" d="M 392.537451 109.853242 
L 382.968457 113.084065 
L 382.826511 135.41803 
L 392.362934 131.835485 
z
" style="fill:#a9a900;stroke:#000000;"/>
    <path clip-path="url(#p7ff271ab61)" d="M 382.826511 135.41803 
L 382.968457 113.084065 
L 364.82409 111.205781 
L 364.750084 133.33532 
z
" style="fill:#505000;stroke:#000000;"/>
   </g>
  </g>
 </g>
 <defs>
  <clipPath id="pa85f30fbe9">
   <rect height="196.941176" width="196.941176" x="479.858824" y="7.2"/>
  </clipPath>
  <clipPath id="p01b8c88dbe">
   <rect height="196.941176" width="196.941176" x="7.2" y="7.2"/>
  </clipPath>
  <clipPath id="p7ff271ab61">
   <rect height="196.941176" width="196.941176" x="243.529412" y="7.2"/>
  </clipPath>
 </defs>
</svg>
