<?xml version="1.0" encoding="utf-8" standalone="no"?>
<!DOCTYPE svg PUBLIC "-//W3C//DTD SVG 1.1//EN"
  "http://www.w3.org/Graphics/SVG/1.1/DTD/svg11.dtd">
<svg height="248.518125pt" version="1.1" viewBox="0 0 372.103125 248.518125" width="372.103125pt" xmlns="http://www.w3.org/2000/svg" xmlns:xlink="http://www.w3.org/1999/xlink">
 <metadata>
  <rdf:RDF xmlns:cc="http://creativecommons.org/ns#" xmlns:dc="http://purl.org/dc/elements/1.1/" xmlns:rdf="http://www.w3.org/1999/02/22-rdf-syntax-ns#">
   <cc:Work>
    <dc:type rdf:resource="http://purl.org/dc/dcmitype/StillImage"/>
    <dc:date>2021-10-02T10:51:30.809503</dc:date>
    <dc:format>image/svg+xml</dc:format>
    <dc:creator>
     <cc:Agent>
      <dc:title>Matplotlib v3.4.3, https://matplotlib.org/</dc:title>
     </cc:Agent>
    </dc:creator>
   </cc:Work>
  </rdf:RDF>
 </metadata>
 <defs>
  <style type="text/css">*{stroke-linecap:butt;stroke-linejoin:round;}</style>
 </defs>
 <g id="figure_1">
  <g id="patch_1">
   <path d="M 0 248.518125 
L 372.103125 248.518125 
L 372.103125 0 
L 0 0 
z
" style="fill:none;"/>
  </g>
  <g id="axes_1">
   <g id="patch_2">
    <path d="M 30.103125 224.64 
L 364.903125 224.64 
L 364.903125 7.2 
L 30.103125 7.2 
z
" style="fill:#ffffff;"/>
   </g>
   <g id="matplotlib.axis_1">
    <g id="xtick_1">
     <g id="line2d_1">
      <defs>
       <path d="M 0 0 
L 0 3.5 
" id="ma6283f5ee7" style="stroke:#000000;stroke-width:0.8;"/>
      </defs>
      <g>
       <use style="stroke:#000000;stroke-width:0.8;" x="45.321307" xlink:href="#ma6283f5ee7" y="224.64"/>
      </g>
     </g>
     <g id="text_1">
      <!-- 0 -->
      <g transform="translate(42.140057 239.238437)scale(0.1 -0.1)">
       <defs>
        <path d="M 2034 4250 
Q 1547 4250 1301 3770 
Q 1056 3291 1056 2328 
Q 1056 1369 1301 889 
Q 1547 409 2034 409 
Q 2525 409 2770 889 
Q 3016 1369 3016 2328 
Q 3016 3291 2770 3770 
Q 2525 4250 2034 4250 
z
M 2034 4750 
Q 2819 4750 3233 4129 
Q 3647 3509 3647 2328 
Q 3647 1150 3233 529 
Q 2819 -91 2034 -91 
Q 1250 -91 836 529 
Q 422 1150 422 2328 
Q 422 3509 836 4129 
Q 1250 4750 2034 4750 
z
" id="DejaVuSans-30" transform="scale(0.015625)"/>
       </defs>
       <use xlink:href="#DejaVuSans-30"/>
      </g>
     </g>
    </g>
    <g id="xtick_2">
     <g id="line2d_2">
      <g>
       <use style="stroke:#000000;stroke-width:0.8;" x="96.065494" xlink:href="#ma6283f5ee7" y="224.64"/>
      </g>
     </g>
     <g id="text_2">
      <!-- 500 -->
      <g transform="translate(86.521744 239.238437)scale(0.1 -0.1)">
       <defs>
        <path d="M 691 4666 
L 3169 4666 
L 3169 4134 
L 1269 4134 
L 1269 2991 
Q 1406 3038 1543 3061 
Q 1681 3084 1819 3084 
Q 2600 3084 3056 2656 
Q 3513 2228 3513 1497 
Q 3513 744 3044 326 
Q 2575 -91 1722 -91 
Q 1428 -91 1123 -41 
Q 819 9 494 109 
L 494 744 
Q 775 591 1075 516 
Q 1375 441 1709 441 
Q 2250 441 2565 725 
Q 2881 1009 2881 1497 
Q 2881 1984 2565 2268 
Q 2250 2553 1709 2553 
Q 1456 2553 1204 2497 
Q 953 2441 691 2322 
L 691 4666 
z
" id="DejaVuSans-35" transform="scale(0.015625)"/>
       </defs>
       <use xlink:href="#DejaVuSans-35"/>
       <use x="63.623047" xlink:href="#DejaVuSans-30"/>
       <use x="127.246094" xlink:href="#DejaVuSans-30"/>
      </g>
     </g>
    </g>
    <g id="xtick_3">
     <g id="line2d_3">
      <g>
       <use style="stroke:#000000;stroke-width:0.8;" x="146.809682" xlink:href="#ma6283f5ee7" y="224.64"/>
      </g>
     </g>
     <g id="text_3">
      <!-- 1000 -->
      <g transform="translate(134.084682 239.238437)scale(0.1 -0.1)">
       <defs>
        <path d="M 794 531 
L 1825 531 
L 1825 4091 
L 703 3866 
L 703 4441 
L 1819 4666 
L 2450 4666 
L 2450 531 
L 3481 531 
L 3481 0 
L 794 0 
L 794 531 
z
" id="DejaVuSans-31" transform="scale(0.015625)"/>
       </defs>
       <use xlink:href="#DejaVuSans-31"/>
       <use x="63.623047" xlink:href="#DejaVuSans-30"/>
       <use x="127.246094" xlink:href="#DejaVuSans-30"/>
       <use x="190.869141" xlink:href="#DejaVuSans-30"/>
      </g>
     </g>
    </g>
    <g id="xtick_4">
     <g id="line2d_4">
      <g>
       <use style="stroke:#000000;stroke-width:0.8;" x="197.553869" xlink:href="#ma6283f5ee7" y="224.64"/>
      </g>
     </g>
     <g id="text_4">
      <!-- 1500 -->
      <g transform="translate(184.828869 239.238437)scale(0.1 -0.1)">
       <use xlink:href="#DejaVuSans-31"/>
       <use x="63.623047" xlink:href="#DejaVuSans-35"/>
       <use x="127.246094" xlink:href="#DejaVuSans-30"/>
       <use x="190.869141" xlink:href="#DejaVuSans-30"/>
      </g>
     </g>
    </g>
    <g id="xtick_5">
     <g id="line2d_5">
      <g>
       <use style="stroke:#000000;stroke-width:0.8;" x="248.298057" xlink:href="#ma6283f5ee7" y="224.64"/>
      </g>
     </g>
     <g id="text_5">
      <!-- 2000 -->
      <g transform="translate(235.573057 239.238437)scale(0.1 -0.1)">
       <defs>
        <path d="M 1228 531 
L 3431 531 
L 3431 0 
L 469 0 
L 469 531 
Q 828 903 1448 1529 
Q 2069 2156 2228 2338 
Q 2531 2678 2651 2914 
Q 2772 3150 2772 3378 
Q 2772 3750 2511 3984 
Q 2250 4219 1831 4219 
Q 1534 4219 1204 4116 
Q 875 4013 500 3803 
L 500 4441 
Q 881 4594 1212 4672 
Q 1544 4750 1819 4750 
Q 2544 4750 2975 4387 
Q 3406 4025 3406 3419 
Q 3406 3131 3298 2873 
Q 3191 2616 2906 2266 
Q 2828 2175 2409 1742 
Q 1991 1309 1228 531 
z
" id="DejaVuSans-32" transform="scale(0.015625)"/>
       </defs>
       <use xlink:href="#DejaVuSans-32"/>
       <use x="63.623047" xlink:href="#DejaVuSans-30"/>
       <use x="127.246094" xlink:href="#DejaVuSans-30"/>
       <use x="190.869141" xlink:href="#DejaVuSans-30"/>
      </g>
     </g>
    </g>
    <g id="xtick_6">
     <g id="line2d_6">
      <g>
       <use style="stroke:#000000;stroke-width:0.8;" x="299.042244" xlink:href="#ma6283f5ee7" y="224.64"/>
      </g>
     </g>
     <g id="text_6">
      <!-- 2500 -->
      <g transform="translate(286.317244 239.238437)scale(0.1 -0.1)">
       <use xlink:href="#DejaVuSans-32"/>
       <use x="63.623047" xlink:href="#DejaVuSans-35"/>
       <use x="127.246094" xlink:href="#DejaVuSans-30"/>
       <use x="190.869141" xlink:href="#DejaVuSans-30"/>
      </g>
     </g>
    </g>
    <g id="xtick_7">
     <g id="line2d_7">
      <g>
       <use style="stroke:#000000;stroke-width:0.8;" x="349.786432" xlink:href="#ma6283f5ee7" y="224.64"/>
      </g>
     </g>
     <g id="text_7">
      <!-- 3000 -->
      <g transform="translate(337.061432 239.238437)scale(0.1 -0.1)">
       <defs>
        <path d="M 2597 2516 
Q 3050 2419 3304 2112 
Q 3559 1806 3559 1356 
Q 3559 666 3084 287 
Q 2609 -91 1734 -91 
Q 1441 -91 1130 -33 
Q 819 25 488 141 
L 488 750 
Q 750 597 1062 519 
Q 1375 441 1716 441 
Q 2309 441 2620 675 
Q 2931 909 2931 1356 
Q 2931 1769 2642 2001 
Q 2353 2234 1838 2234 
L 1294 2234 
L 1294 2753 
L 1863 2753 
Q 2328 2753 2575 2939 
Q 2822 3125 2822 3475 
Q 2822 3834 2567 4026 
Q 2313 4219 1838 4219 
Q 1578 4219 1281 4162 
Q 984 4106 628 3988 
L 628 4550 
Q 988 4650 1302 4700 
Q 1616 4750 1894 4750 
Q 2613 4750 3031 4423 
Q 3450 4097 3450 3541 
Q 3450 3153 3228 2886 
Q 3006 2619 2597 2516 
z
" id="DejaVuSans-33" transform="scale(0.015625)"/>
       </defs>
       <use xlink:href="#DejaVuSans-33"/>
       <use x="63.623047" xlink:href="#DejaVuSans-30"/>
       <use x="127.246094" xlink:href="#DejaVuSans-30"/>
       <use x="190.869141" xlink:href="#DejaVuSans-30"/>
      </g>
     </g>
    </g>
   </g>
   <g id="matplotlib.axis_2">
    <g id="ytick_1">
     <g id="line2d_8">
      <defs>
       <path d="M 0 0 
L -3.5 0 
" id="m96305a5ec7" style="stroke:#000000;stroke-width:0.8;"/>
      </defs>
      <g>
       <use style="stroke:#000000;stroke-width:0.8;" x="30.103125" xlink:href="#m96305a5ec7" y="193.804864"/>
      </g>
     </g>
     <g id="text_8">
      <!-- 0.5 -->
      <g transform="translate(7.2 197.604083)scale(0.1 -0.1)">
       <defs>
        <path d="M 684 794 
L 1344 794 
L 1344 0 
L 684 0 
L 684 794 
z
" id="DejaVuSans-2e" transform="scale(0.015625)"/>
       </defs>
       <use xlink:href="#DejaVuSans-30"/>
       <use x="63.623047" xlink:href="#DejaVuSans-2e"/>
       <use x="95.410156" xlink:href="#DejaVuSans-35"/>
      </g>
     </g>
    </g>
    <g id="ytick_2">
     <g id="line2d_9">
      <g>
       <use style="stroke:#000000;stroke-width:0.8;" x="30.103125" xlink:href="#m96305a5ec7" y="149.639351"/>
      </g>
     </g>
     <g id="text_9">
      <!-- 1.0 -->
      <g transform="translate(7.2 153.43857)scale(0.1 -0.1)">
       <use xlink:href="#DejaVuSans-31"/>
       <use x="63.623047" xlink:href="#DejaVuSans-2e"/>
       <use x="95.410156" xlink:href="#DejaVuSans-30"/>
      </g>
     </g>
    </g>
    <g id="ytick_3">
     <g id="line2d_10">
      <g>
       <use style="stroke:#000000;stroke-width:0.8;" x="30.103125" xlink:href="#m96305a5ec7" y="105.473839"/>
      </g>
     </g>
     <g id="text_10">
      <!-- 1.5 -->
      <g transform="translate(7.2 109.273058)scale(0.1 -0.1)">
       <use xlink:href="#DejaVuSans-31"/>
       <use x="63.623047" xlink:href="#DejaVuSans-2e"/>
       <use x="95.410156" xlink:href="#DejaVuSans-35"/>
      </g>
     </g>
    </g>
    <g id="ytick_4">
     <g id="line2d_11">
      <g>
       <use style="stroke:#000000;stroke-width:0.8;" x="30.103125" xlink:href="#m96305a5ec7" y="61.308327"/>
      </g>
     </g>
     <g id="text_11">
      <!-- 2.0 -->
      <g transform="translate(7.2 65.107545)scale(0.1 -0.1)">
       <use xlink:href="#DejaVuSans-32"/>
       <use x="63.623047" xlink:href="#DejaVuSans-2e"/>
       <use x="95.410156" xlink:href="#DejaVuSans-30"/>
      </g>
     </g>
    </g>
    <g id="ytick_5">
     <g id="line2d_12">
      <g>
       <use style="stroke:#000000;stroke-width:0.8;" x="30.103125" xlink:href="#m96305a5ec7" y="17.142814"/>
      </g>
     </g>
     <g id="text_12">
      <!-- 2.5 -->
      <g transform="translate(7.2 20.942033)scale(0.1 -0.1)">
       <use xlink:href="#DejaVuSans-32"/>
       <use x="63.623047" xlink:href="#DejaVuSans-2e"/>
       <use x="95.410156" xlink:href="#DejaVuSans-35"/>
      </g>
     </g>
    </g>
   </g>
   <g id="line2d_13">
    <path clip-path="url(#p1e584891b9)" d="M 45.321307 18.512267 
L 45.422795 32.458628 
L 45.524284 17.083636 
L 45.828749 26.167573 
L 45.930237 17.543371 
L 46.031725 30.96526 
L 46.133214 22.242034 
L 46.234702 34.212443 
L 46.336191 29.890328 
L 46.437679 32.885004 
L 46.539167 28.013777 
L 46.742144 33.995001 
L 46.843632 38.584575 
L 46.945121 38.203604 
L 47.046609 29.453759 
L 47.148098 47.454586 
L 47.351074 33.566982 
L 47.452563 50.580255 
L 47.655539 39.731931 
L 47.757028 48.659584 
L 47.858516 38.176795 
L 48.162981 44.49628 
L 48.26447 53.885499 
L 48.365958 46.70726 
L 48.467446 50.721186 
L 48.568935 62.125593 
L 48.670423 53.21641 
L 48.771912 57.258283 
L 48.974888 54.588432 
L 49.076377 67.054155 
L 49.177865 56.858758 
L 49.279353 63.256028 
L 49.380842 60.966653 
L 49.48233 55.23107 
L 49.685307 62.77834 
L 49.786795 63.572756 
L 49.888284 61.903065 
L 49.989772 57.840164 
L 50.192749 64.857043 
L 50.294237 65.212342 
L 50.395726 58.132915 
L 50.497214 67.29689 
L 50.598702 65.136791 
L 50.700191 76.255332 
L 50.801679 69.682992 
L 50.903167 69.951672 
L 51.004656 65.073874 
L 51.309121 73.503916 
L 51.410609 75.632963 
L 51.512098 65.870439 
L 51.613586 68.89283 
L 51.715074 68.06814 
L 51.816563 79.623113 
L 52.01954 73.018763 
L 52.121028 84.428487 
L 52.222516 75.035235 
L 52.425493 86.471041 
L 52.62847 81.419711 
L 52.831447 92.875913 
L 53.034423 81.026862 
L 53.135912 86.333352 
L 53.338888 82.35985 
L 53.440377 87.278219 
L 53.541865 78.017065 
L 53.744842 91.799612 
L 53.947819 83.824019 
L 54.049307 92.792222 
L 54.252284 88.422891 
L 54.353772 86.004725 
L 54.455261 87.289507 
L 54.556749 90.655004 
L 54.759726 85.221871 
L 54.861214 98.805972 
L 54.962702 85.27968 
L 55.064191 98.02157 
L 55.165679 97.319206 
L 55.267168 85.413293 
L 55.470144 99.911504 
L 55.673121 92.281196 
L 55.774609 93.294929 
L 55.876098 91.606399 
L 55.977586 95.84913 
L 56.079075 106.290916 
L 56.180563 106.191408 
L 56.282051 105.068765 
L 56.485028 95.866673 
L 56.688005 108.567244 
L 56.789493 102.614398 
L 56.890982 105.716921 
L 56.99247 104.185519 
L 57.093958 108.56617 
L 57.195447 108.258444 
L 57.296935 106.813513 
L 57.398423 113.206298 
L 57.499912 105.530743 
L 57.702889 112.703917 
L 57.905865 101.211987 
L 58.007354 110.789806 
L 58.21033 107.173783 
L 58.311819 110.326776 
L 58.413307 104.521369 
L 58.514796 116.446173 
L 58.616284 104.96194 
L 58.819261 121.491775 
L 59.022237 101.981636 
L 59.123726 105.190985 
L 59.225214 117.421924 
L 59.326703 111.638662 
L 59.428191 116.51071 
L 59.631168 108.398766 
L 59.732656 109.474603 
L 59.935633 118.301474 
L 60.037121 117.180495 
L 60.240098 113.755894 
L 60.341586 117.85029 
L 60.544563 114.600296 
L 60.646051 122.43661 
L 60.74754 120.147657 
L 60.849028 112.959161 
L 60.950517 120.068083 
L 61.052005 119.719175 
L 61.153493 114.56083 
L 61.254982 116.033644 
L 61.457958 125.675232 
L 61.559447 114.229897 
L 61.660935 123.6661 
L 61.762424 122.512299 
L 61.863912 125.492781 
L 62.066889 117.387965 
L 62.168377 120.051772 
L 62.269865 119.448599 
L 62.371354 115.400124 
L 62.472842 132.746551 
L 62.675819 114.480813 
L 62.878796 126.59388 
L 62.980284 123.040193 
L 63.081772 127.595219 
L 63.183261 111.026286 
L 63.284749 134.671013 
L 63.487726 117.433001 
L 63.589214 131.481839 
L 63.690703 114.433113 
L 63.893679 126.848661 
L 63.995168 130.613588 
L 64.096656 123.859955 
L 64.299633 129.295963 
L 64.401121 129.191306 
L 64.50261 128.785443 
L 64.705586 130.593423 
L 64.807075 125.871752 
L 64.908563 133.917758 
L 65.010052 131.369296 
L 65.11154 133.829212 
L 65.213028 126.220259 
L 65.314517 136.623547 
L 65.416005 135.452004 
L 65.517493 128.770869 
L 65.618982 136.670174 
L 65.72047 126.258798 
L 65.821959 131.812793 
L 65.923447 126.490793 
L 66.024935 133.173011 
L 66.126424 132.132354 
L 66.227912 129.805398 
L 66.430889 144.824543 
L 66.532377 130.995369 
L 66.735354 137.722761 
L 66.836842 131.362262 
L 66.938331 136.763816 
L 67.039819 134.863952 
L 67.141307 136.917973 
L 67.242796 132.735579 
L 67.344284 135.630548 
L 67.445773 127.60518 
L 67.547261 137.528843 
L 67.648749 125.246308 
L 67.851726 145.887229 
L 67.953214 133.9639 
L 68.054703 141.492448 
L 68.156191 132.496772 
L 68.460656 144.508636 
L 68.765121 134.282408 
L 68.968098 141.29894 
L 69.069587 154.815771 
L 69.171075 135.951815 
L 69.272563 139.846196 
L 69.47554 133.794074 
L 69.678517 143.239986 
L 69.881494 140.082644 
L 70.08447 142.663886 
L 70.287447 134.75859 
L 70.388935 129.768923 
L 70.591912 148.887971 
L 70.794889 140.81048 
L 70.896377 145.003341 
L 70.997866 132.979293 
L 71.200842 148.624513 
L 71.302331 138.247034 
L 71.403819 145.502415 
L 71.505308 145.083336 
L 71.606796 149.08946 
L 71.708284 147.619721 
L 71.911261 140.256987 
L 72.012749 147.594544 
L 72.114238 142.078551 
L 72.215726 145.442963 
L 72.317215 143.298711 
L 72.418703 156.400924 
L 72.520191 137.903423 
L 72.62168 151.146888 
L 72.723168 142.474085 
L 72.926145 160.480583 
L 73.129122 141.979212 
L 73.23061 154.81107 
L 73.332098 136.863007 
L 73.433587 146.694355 
L 73.535075 142.635308 
L 73.636563 147.136062 
L 73.738052 146.043261 
L 73.83954 155.847742 
L 73.941029 155.688967 
L 74.144005 142.849222 
L 74.245494 150.474118 
L 74.346982 150.064927 
L 74.44847 146.645096 
L 74.549959 150.601098 
L 74.651447 145.140998 
L 74.854424 158.095197 
L 74.955912 146.383892 
L 75.057401 155.32726 
L 75.260377 144.431389 
L 75.361866 141.069989 
L 75.463354 157.342884 
L 75.666331 141.162388 
L 75.767819 158.575501 
L 75.869308 152.098136 
L 75.970796 135.311503 
L 76.072284 147.601957 
L 76.173773 140.990141 
L 76.37675 156.197028 
L 76.478238 154.188533 
L 76.579726 148.459605 
L 76.681215 157.493362 
L 76.782703 147.390664 
L 76.98568 164.849498 
L 77.087168 143.615819 
L 77.188657 145.288985 
L 77.290145 165.330119 
L 77.493122 151.609913 
L 77.59461 155.694311 
L 77.696098 153.754597 
L 77.797587 148.440946 
L 78.000564 167.939154 
L 78.20354 148.770889 
L 78.305029 154.802441 
L 78.406517 150.087366 
L 78.508005 157.678182 
L 78.609494 141.341912 
L 78.913959 156.572634 
L 79.015447 157.267027 
L 79.116936 152.541886 
L 79.218424 156.551195 
L 79.319912 145.844983 
L 79.421401 159.106739 
L 79.522889 155.222878 
L 79.624378 158.19602 
L 79.725866 155.403328 
L 79.827354 157.83503 
L 79.928843 149.221631 
L 80.030331 151.422792 
L 80.131819 147.650552 
L 80.334796 154.895704 
L 80.436285 149.952294 
L 80.537773 159.77785 
L 80.639261 155.469719 
L 80.74075 165.164673 
L 80.842238 158.091359 
L 80.943726 167.726556 
L 81.146703 154.245973 
L 81.34968 164.762384 
L 81.451168 151.764413 
L 81.552657 167.013378 
L 81.755633 150.567634 
L 81.95861 165.621591 
L 82.161587 162.595825 
L 82.263075 152.17035 
L 82.56754 171.201863 
L 82.669029 156.702647 
L 82.770517 157.96123 
L 82.872006 160.57671 
L 82.973494 153.994278 
L 83.074982 164.715716 
L 83.176471 153.979425 
L 83.277959 156.727855 
L 83.379447 165.686408 
L 83.480936 164.404716 
L 83.683913 158.107533 
L 83.886889 157.392828 
L 83.988378 152.310808 
L 84.089866 158.617421 
L 84.191354 154.988267 
L 84.292843 166.971 
L 84.394331 157.197562 
L 84.49582 163.237379 
L 84.597308 148.89074 
L 84.901773 162.807934 
L 85.003261 159.999957 
L 85.10475 166.351533 
L 85.206238 165.529407 
L 85.307727 170.241812 
L 85.510703 151.598177 
L 85.612192 166.473032 
L 85.71368 163.986143 
L 85.815168 154.902854 
L 85.916657 163.22637 
L 86.018145 162.701656 
L 86.119634 155.164863 
L 86.221122 162.103622 
L 86.32261 161.708298 
L 86.424099 155.423098 
L 86.525587 167.491497 
L 86.627075 162.543191 
L 86.728564 168.171706 
L 86.931541 154.768882 
L 87.033029 170.171794 
L 87.236006 157.295279 
L 87.438982 167.04969 
L 87.540471 155.371786 
L 87.743448 170.450941 
L 87.946424 154.369852 
L 88.047913 170.525029 
L 88.149401 155.216065 
L 88.250889 171.05265 
L 88.352378 163.30417 
L 88.453866 174.922296 
L 88.555355 153.588335 
L 88.656843 168.60361 
L 88.758331 163.931919 
L 88.85982 164.984902 
L 88.961308 163.555655 
L 89.062796 151.539847 
L 89.265773 160.099343 
L 89.367262 171.712152 
L 89.570238 158.896815 
L 89.671727 166.014224 
L 89.773215 147.738624 
L 89.874703 160.947794 
L 89.976192 160.727356 
L 90.07768 157.63561 
L 90.179169 166.961023 
L 90.382145 159.348547 
L 90.483634 170.460607 
L 90.585122 152.50699 
L 90.68661 168.08453 
L 90.788099 154.507378 
L 90.889587 180.853503 
L 90.991076 163.693191 
L 91.092564 165.196926 
L 91.194052 165.298903 
L 91.295541 157.755814 
L 91.498517 171.80124 
L 91.600006 163.089813 
L 91.802983 178.035481 
L 92.005959 163.508055 
L 92.208936 151.964365 
L 92.310424 169.769431 
L 92.411913 169.0701 
L 92.513401 171.004144 
L 92.61489 162.933692 
L 92.716378 176.406114 
L 92.817866 153.018848 
L 93.020843 166.025817 
L 93.122331 165.648458 
L 93.22382 170.206742 
L 93.325308 159.55369 
L 93.629773 173.916808 
L 93.83275 163.993461 
L 93.934238 167.278715 
L 94.035727 156.510819 
L 94.137215 156.992076 
L 94.340192 174.017553 
L 94.44168 161.090789 
L 94.543169 173.596094 
L 94.644657 173.572618 
L 94.847634 166.368554 
L 94.949122 167.21374 
L 95.050611 172.00394 
L 95.152099 164.896419 
L 95.253587 170.735648 
L 95.456564 160.456101 
L 95.659541 180.152608 
L 95.862518 150.817755 
L 95.964006 176.543776 
L 96.166983 163.267157 
L 96.268471 169.058512 
L 96.369959 161.106047 
L 96.471448 161.282517 
L 96.572936 172.983334 
L 96.674425 169.095071 
L 96.775913 171.742694 
L 96.877401 162.979581 
L 97.080378 172.974558 
L 97.181866 161.471666 
L 97.384843 171.796533 
L 97.486332 170.654936 
L 97.58782 173.978276 
L 97.689308 158.571858 
L 97.790797 177.397396 
L 97.892285 163.243681 
L 98.095262 173.992897 
L 98.19675 175.300887 
L 98.298239 167.587793 
L 98.399727 170.684909 
L 98.501215 161.099656 
L 98.704192 179.016539 
L 98.80568 171.33921 
L 98.907169 172.802036 
L 99.008657 178.858301 
L 99.313122 157.494088 
L 99.414611 170.19716 
L 99.516099 169.366089 
L 99.617587 171.952196 
L 99.820564 164.076115 
L 99.922053 166.185461 
L 100.023541 161.486729 
L 100.125029 175.693162 
L 100.328006 171.49641 
L 100.429494 171.254844 
L 100.530983 169.161141 
L 100.73396 171.342627 
L 100.835448 167.313737 
L 100.936936 167.471569 
L 101.038425 176.490084 
L 101.34289 167.78198 
L 101.444378 176.561424 
L 101.647355 171.940945 
L 101.748843 171.623869 
L 101.95182 168.53087 
L 102.053308 180.45093 
L 102.154797 170.575209 
L 102.256285 179.051051 
L 102.357774 178.523125 
L 102.459262 167.024029 
L 102.662239 174.817223 
L 102.763727 168.025936 
L 102.865215 176.36361 
L 103.068192 165.517329 
L 103.372657 178.521214 
L 103.474146 167.281942 
L 103.575634 167.737617 
L 103.677122 171.081233 
L 103.778611 183.156708 
L 103.880099 166.719157 
L 103.981588 175.837469 
L 104.083076 168.510189 
L 104.286053 172.777533 
L 104.387541 168.085919 
L 104.489029 179.462421 
L 104.590518 175.168816 
L 104.692006 184.069791 
L 104.894983 158.953282 
L 105.199448 182.097955 
L 105.402425 169.906836 
L 105.605402 173.268505 
L 105.808378 170.883977 
L 105.909867 167.62967 
L 106.112843 174.50308 
L 106.214332 172.932096 
L 106.518797 180.207352 
L 106.620285 176.160873 
L 106.721774 180.921568 
L 106.92475 168.029974 
L 107.127727 177.541156 
L 107.330704 166.462702 
L 107.432192 171.258561 
L 107.533681 169.134695 
L 107.635169 182.409266 
L 107.736657 164.490866 
L 107.838146 174.105519 
L 107.939634 173.321396 
L 108.041123 178.173928 
L 108.142611 175.691472 
L 108.244099 164.1709 
L 108.447076 186.036014 
L 108.650053 170.923506 
L 108.751541 171.004202 
L 108.85303 178.450763 
L 108.954518 170.273844 
L 109.157495 176.627789 
L 109.258983 173.303269 
L 109.360471 179.542133 
L 109.46196 175.811486 
L 109.563448 187.526692 
L 109.664937 171.728626 
L 109.766425 179.853238 
L 109.867913 169.995745 
L 109.969402 173.754043 
L 110.07089 164.986829 
L 110.172378 178.031853 
L 110.273867 161.774705 
L 110.476844 177.780021 
L 110.578332 175.628245 
L 110.67982 179.869328 
L 110.781309 167.327194 
L 110.984285 182.072083 
L 111.085774 174.305366 
L 111.288751 183.312561 
L 111.390239 173.11828 
L 111.491727 177.28311 
L 111.593216 175.486539 
L 111.694704 170.247967 
L 111.796192 181.064232 
L 111.897681 176.581141 
L 111.999169 165.252024 
L 112.100658 170.970943 
L 112.202146 164.476451 
L 112.303634 181.397339 
L 112.405123 166.229365 
L 112.709588 179.650859 
L 112.811076 177.548795 
L 112.912565 179.980133 
L 113.014053 186.468592 
L 113.21703 177.70141 
L 113.420006 186.639434 
L 113.622983 167.715347 
L 113.724472 171.954455 
L 113.82596 181.95327 
L 114.028937 175.909172 
L 114.231913 178.51469 
L 114.333402 173.028255 
L 114.43489 178.452933 
L 114.536379 172.250639 
L 114.637867 185.175102 
L 114.840844 177.406357 
L 114.942332 177.691043 
L 115.04382 170.784385 
L 115.145309 173.518473 
L 115.246797 166.487852 
L 115.449774 182.435222 
L 115.652751 172.381273 
L 115.754239 174.129428 
L 115.957216 184.050695 
L 116.058704 159.468698 
L 116.160193 182.987072 
L 116.261681 170.091235 
L 116.363169 175.528532 
L 116.464658 170.945766 
L 116.667634 181.600935 
L 116.870611 172.768146 
L 116.9721 175.149546 
L 117.073588 175.069014 
L 117.175076 174.596828 
L 117.276565 181.442876 
L 117.479541 167.704896 
L 117.58103 187.862843 
L 117.682518 176.648822 
L 117.885495 192.647162 
L 118.088472 166.546004 
L 118.18996 172.125834 
L 118.291448 168.882821 
L 118.494425 182.561212 
L 118.595914 182.845698 
L 118.697402 185.962516 
L 118.900379 172.457778 
L 119.001867 171.727304 
L 119.103355 172.365041 
L 119.204844 162.315083 
L 119.407821 185.240582 
L 119.509309 185.0908 
L 119.610797 174.640537 
L 119.813774 184.555471 
L 120.016751 177.91593 
L 120.118239 178.189817 
L 120.219728 170.432692 
L 120.321216 175.74957 
L 120.422704 189.07767 
L 120.625681 180.215308 
L 120.727169 185.316955 
L 120.828658 173.892268 
L 120.930146 188.673359 
L 121.031635 180.269063 
L 121.133123 184.669346 
L 121.234611 183.584232 
L 121.3361 175.187428 
L 121.437588 187.447697 
L 121.539076 183.921283 
L 121.640565 186.437592 
L 121.742053 180.117064 
L 121.843542 181.972239 
L 122.046518 178.359185 
L 122.148007 184.95479 
L 122.249495 171.263052 
L 122.350983 180.297841 
L 122.55396 168.740741 
L 122.655449 183.759976 
L 122.756937 178.649425 
L 122.959914 186.628004 
L 123.16289 172.624734 
L 123.264379 179.036993 
L 123.365867 174.636325 
L 123.467356 183.872398 
L 123.670332 178.127117 
L 123.771821 180.378974 
L 123.873309 171.462367 
L 124.076286 187.452909 
L 124.177774 175.662636 
L 124.279263 186.170165 
L 124.380751 180.912712 
L 124.482239 184.985306 
L 124.583728 182.19512 
L 124.786704 173.752253 
L 124.989681 188.782849 
L 125.294146 175.54855 
L 125.497123 184.162564 
L 125.598611 183.751862 
L 125.7001 187.031893 
L 125.801588 185.446299 
L 125.903076 169.279123 
L 126.004565 177.038838 
L 126.106053 174.76171 
L 126.207542 166.802985 
L 126.410518 190.204046 
L 126.613495 173.053974 
L 126.714983 180.519811 
L 126.816472 179.56603 
L 126.91796 170.7359 
L 127.019449 179.64512 
L 127.120937 169.851211 
L 127.222425 187.848922 
L 127.323914 184.171099 
L 127.425402 185.948832 
L 127.729867 177.160853 
L 127.932844 193.136248 
L 128.135821 176.431933 
L 128.440286 193.484208 
L 128.744751 175.452765 
L 128.846239 183.217518 
L 128.947728 174.181461 
L 129.049216 188.145596 
L 129.150704 180.834217 
L 129.252193 182.912547 
L 129.353681 181.407301 
L 129.45517 183.5675 
L 129.658146 173.387161 
L 129.759635 197.597639 
L 129.962611 172.147957 
L 130.0641 185.098455 
L 130.165588 183.981951 
L 130.267077 179.090517 
L 130.368565 185.100629 
L 130.470053 181.492566 
L 130.571542 173.220378 
L 130.67303 179.193273 
L 130.774518 176.174809 
L 130.876007 180.23204 
L 130.977495 179.58282 
L 131.078984 173.186129 
L 131.180472 189.659398 
L 131.28196 177.003779 
L 131.383449 183.528734 
L 131.586425 178.828749 
L 131.687914 183.95938 
L 131.789402 182.190771 
L 131.890891 175.031649 
L 131.992379 194.965159 
L 132.093867 180.635339 
L 132.195356 186.989342 
L 132.296844 172.262096 
L 132.398332 187.920052 
L 132.499821 184.391058 
L 132.601309 169.511934 
L 132.702798 184.739339 
L 132.804286 179.842366 
L 132.905774 191.49046 
L 133.007263 173.477454 
L 133.108751 187.072328 
L 133.210239 185.339773 
L 133.311728 175.477731 
L 133.413216 185.987329 
L 133.514705 174.534449 
L 133.616193 181.901705 
L 133.717681 178.571051 
L 133.920658 180.951573 
L 134.022146 173.339308 
L 134.123635 187.558461 
L 134.225123 178.85867 
L 134.326612 190.44071 
L 134.529588 174.072113 
L 134.631077 192.598382 
L 134.732565 182.556216 
L 134.834053 190.273432 
L 134.935542 171.430188 
L 135.138519 186.404344 
L 135.341495 176.521416 
L 135.442984 187.717504 
L 135.544472 176.310434 
L 135.747449 194.369539 
L 135.848937 182.46966 
L 135.950426 194.391012 
L 136.051914 163.418372 
L 136.356379 188.369867 
L 136.559356 173.755206 
L 136.660844 184.308472 
L 136.863821 175.681458 
L 136.965309 184.047947 
L 137.066798 179.847099 
L 137.168286 186.643304 
L 137.269774 176.644573 
L 137.371263 177.023359 
L 137.472751 178.318124 
L 137.675728 191.219731 
L 137.777216 187.139035 
L 137.878705 187.433787 
L 138.081681 191.970854 
L 138.284658 177.713335 
L 138.487635 183.858809 
L 138.589123 181.48629 
L 138.690612 176.132263 
L 138.7921 192.474056 
L 138.893588 173.557165 
L 139.096565 190.231629 
L 139.198054 187.178585 
L 139.299542 178.166183 
L 139.40103 187.107024 
L 139.502519 185.572842 
L 139.705495 190.581526 
L 139.908472 188.627043 
L 140.009961 181.9971 
L 140.111449 188.032416 
L 140.212937 187.035663 
L 140.314426 176.749235 
L 140.415914 187.216071 
L 140.517402 180.29027 
L 140.618891 187.649908 
L 140.720379 178.355579 
L 140.821868 194.10764 
L 140.923356 192.271234 
L 141.126333 181.132208 
L 141.227821 193.352553 
L 141.329309 183.317368 
L 141.430798 185.894008 
L 141.735263 180.384439 
L 141.836751 169.750946 
L 141.93824 186.359455 
L 142.039728 179.722125 
L 142.141216 182.310564 
L 142.242705 179.356186 
L 142.344193 194.168292 
L 142.54717 178.863819 
L 142.648658 173.675221 
L 142.750147 188.674539 
L 142.851635 188.408775 
L 142.953123 185.37905 
L 143.054612 189.900953 
L 143.257589 179.720646 
L 143.359077 182.575427 
L 143.562054 193.410483 
L 143.663542 183.041327 
L 143.76503 188.257403 
L 143.866519 186.046713 
L 143.968007 187.550384 
L 144.069496 185.867647 
L 144.170984 179.002887 
L 144.373961 185.360054 
L 144.678426 173.548631 
L 144.881403 195.666317 
L 145.084379 185.404111 
L 145.185868 187.758086 
L 145.287356 175.335967 
L 145.388844 188.423569 
L 145.490333 186.293686 
L 145.591821 171.61892 
L 145.794798 189.787041 
L 145.896286 188.269512 
L 145.997775 189.111297 
L 146.099263 181.916515 
L 146.200751 188.091431 
L 146.30224 185.895814 
L 146.403728 177.314568 
L 146.505217 188.939512 
L 146.606705 186.345856 
L 146.708193 177.677776 
L 146.809682 181.693055 
L 146.91117 196.920339 
L 147.012658 179.339738 
L 147.418612 190.714044 
L 147.5201 182.150447 
L 147.723077 197.581302 
L 147.824565 182.079612 
L 147.926054 196.35743 
L 148.027542 190.297114 
L 148.129031 191.784659 
L 148.332007 189.450027 
L 148.433496 183.511033 
L 148.534984 189.670007 
L 148.636472 185.569619 
L 148.737961 175.106279 
L 148.839449 187.514693 
L 148.940938 186.730744 
L 149.042426 188.630208 
L 149.245403 185.542137 
L 149.346891 191.855673 
L 149.549868 175.263222 
L 149.651356 184.808188 
L 149.752845 174.553213 
L 149.955821 188.76995 
L 150.158798 174.374505 
L 150.463263 196.175516 
L 150.564752 188.635294 
L 150.66624 191.779615 
L 150.767728 190.675642 
L 150.869217 183.593593 
L 150.970705 188.104698 
L 151.072193 183.663485 
L 151.173682 171.164645 
L 151.376659 195.465597 
L 151.478147 166.846247 
L 151.681124 183.527218 
L 151.782612 177.908675 
L 151.8841 181.108594 
L 151.985589 177.038075 
L 152.087077 191.099649 
L 152.188566 189.944215 
L 152.290054 178.69404 
L 152.391542 194.439508 
L 152.493031 184.115275 
L 152.594519 192.313812 
L 152.797496 180.701367 
L 152.898984 192.399752 
L 153.000473 183.226679 
L 153.101961 195.674083 
L 153.304938 177.272812 
L 153.406426 197.565447 
L 153.507914 184.021185 
L 153.609403 187.53232 
L 153.710891 182.288709 
L 153.913868 193.307606 
L 154.116845 180.397233 
L 154.218333 183.084179 
L 154.319821 181.884557 
L 154.522798 190.66258 
L 154.624287 186.673898 
L 154.725775 177.179754 
L 154.827263 185.205681 
L 154.928752 180.060755 
L 155.03024 182.366399 
L 155.233217 189.678352 
L 155.334705 190.893989 
L 155.436194 185.582924 
L 155.537682 195.330972 
L 155.740659 173.744213 
L 155.943635 193.358429 
L 156.045124 181.833624 
L 156.146612 194.148356 
L 156.349589 178.212862 
L 156.451077 186.895242 
L 156.552566 181.505376 
L 156.755542 189.186607 
L 156.958519 183.168565 
L 157.060008 184.505338 
L 157.161496 189.296739 
L 157.262984 182.355674 
L 157.364473 193.327966 
L 157.465961 186.669381 
L 157.567449 187.259086 
L 157.668938 191.10753 
L 157.770426 188.759583 
L 157.871915 191.541251 
L 158.074891 182.430931 
L 158.17638 198.704203 
L 158.379356 177.943829 
L 158.480845 190.483666 
L 158.582333 182.936281 
L 158.78531 192.577633 
L 159.089775 176.696801 
L 159.191263 190.873003 
L 159.292752 175.74092 
L 159.39424 178.146745 
L 159.495729 192.820899 
L 159.597217 188.533849 
L 159.698705 176.67024 
L 159.800194 191.830306 
L 159.901682 181.90886 
L 160.00317 198.281073 
L 160.206147 178.909482 
L 160.409124 195.972871 
L 160.510612 196.825083 
L 160.713589 183.531709 
L 160.916566 193.069847 
L 161.221031 180.688678 
L 161.322519 189.025247 
L 161.424008 188.68669 
L 161.525496 192.985371 
L 161.626984 186.906056 
L 161.829961 192.230937 
L 161.93145 188.255976 
L 162.032938 179.286578 
L 162.134426 198.245114 
L 162.235915 194.825744 
L 162.337403 186.475389 
L 162.438891 195.209394 
L 162.54038 170.933199 
L 162.641868 191.248483 
L 162.743357 186.473847 
L 162.844845 201.969071 
L 163.047822 184.254585 
L 163.14931 171.944952 
L 163.250798 197.266519 
L 163.453775 181.387815 
L 163.555264 195.065196 
L 163.656752 185.648957 
L 163.75824 195.360214 
L 163.859729 188.013404 
L 163.961217 192.28745 
L 164.062705 187.346515 
L 164.164194 189.953103 
L 164.265682 188.208955 
L 164.367171 177.698993 
L 164.468659 187.247071 
L 164.570147 178.829781 
L 164.773124 183.596347 
L 164.874612 173.837666 
L 165.077589 197.841464 
L 165.280566 185.535719 
L 165.382054 187.66198 
L 165.483543 183.365047 
L 165.585031 169.526765 
L 165.788008 195.117971 
L 166.193961 181.739423 
L 166.29545 193.488841 
L 166.396938 175.911404 
L 166.498426 193.207504 
L 166.599915 180.272269 
L 166.701403 184.149623 
L 166.802892 195.652502 
L 167.005868 178.797181 
L 167.107357 201.439155 
L 167.208845 184.069143 
L 167.411822 190.987421 
L 167.614799 175.258051 
L 167.817775 191.735248 
L 167.919264 199.452067 
L 168.020752 179.223493 
L 168.12224 191.282468 
L 168.325217 169.529203 
L 168.426706 194.352504 
L 168.629682 184.456911 
L 168.731171 205.087252 
L 168.832659 194.066171 
L 168.934147 194.627963 
L 169.035636 191.179112 
L 169.137124 177.212155 
L 169.340101 194.231487 
L 169.441589 190.745371 
L 169.543078 193.42135 
L 169.644566 184.563095 
L 169.746054 187.516936 
L 169.847543 185.518492 
L 170.05052 194.232964 
L 170.152008 181.684721 
L 170.354985 193.074096 
L 170.456473 183.315788 
L 170.557961 194.384065 
L 170.65945 180.627526 
L 170.862427 196.748818 
L 170.963915 183.697997 
L 171.065403 193.68595 
L 171.166892 185.633594 
L 171.26838 187.080115 
L 171.572845 199.409526 
L 171.674334 191.131491 
L 171.775822 201.596966 
L 171.87731 181.171552 
L 171.978799 190.358498 
L 172.080287 188.686622 
L 172.181775 184.752364 
L 172.283264 186.702161 
L 172.384752 184.152598 
L 172.486241 187.316621 
L 172.587729 177.709618 
L 172.790706 203.261416 
L 172.993682 186.253367 
L 173.196659 197.37056 
L 173.399636 175.87039 
L 173.501124 192.442603 
L 173.602613 190.370986 
L 173.704101 182.971235 
L 173.805589 188.924155 
L 173.907078 183.580115 
L 174.110055 195.589731 
L 174.211543 183.837044 
L 174.41452 203.8586 
L 174.516008 183.605929 
L 174.617496 185.433626 
L 174.718985 182.665284 
L 174.820473 199.679175 
L 175.02345 185.011462 
L 175.124938 191.056081 
L 175.226427 188.596117 
L 175.327915 174.19247 
L 175.429403 189.202791 
L 175.530892 186.320921 
L 175.63238 187.49486 
L 175.733869 193.403907 
L 175.835357 184.172657 
L 175.936845 189.075285 
L 176.038334 182.056689 
L 176.24131 203.027882 
L 176.342799 188.717364 
L 176.444287 201.121929 
L 176.545776 189.681132 
L 176.647264 201.726723 
L 176.850241 182.157354 
L 177.053217 197.683892 
L 177.154706 195.455601 
L 177.256194 201.935225 
L 177.459171 185.382325 
L 177.560659 182.576291 
L 177.662148 193.306548 
L 177.865124 184.451146 
L 178.068101 201.303983 
L 178.271078 184.317448 
L 178.575543 200.500293 
L 178.677031 190.910664 
L 178.77852 200.118795 
L 179.082985 179.583147 
L 179.285962 191.876496 
L 179.38745 189.273241 
L 179.488938 176.840197 
L 179.590427 187.849333 
L 179.691915 180.847416 
L 179.894892 197.395924 
L 179.99638 189.555358 
L 180.097869 190.701982 
L 180.199357 184.32075 
L 180.402334 194.425213 
L 180.503822 182.472298 
L 180.706799 202.54857 
L 180.909776 186.070294 
L 181.011264 197.246826 
L 181.112752 189.883437 
L 181.417218 193.460395 
L 181.518706 183.411579 
L 181.620194 188.969354 
L 181.721683 183.392077 
L 181.823171 200.028251 
L 181.924659 192.864972 
L 182.026148 195.98069 
L 182.127636 192.702365 
L 182.229125 199.374825 
L 182.330613 191.872847 
L 182.432101 197.419311 
L 182.53359 179.445063 
L 182.736566 195.490334 
L 183.041032 181.302676 
L 183.14252 185.157554 
L 183.244008 199.722724 
L 183.345497 188.563074 
L 183.446985 200.083438 
L 183.548473 191.037743 
L 183.649962 195.171205 
L 183.75145 186.39293 
L 183.852939 197.548167 
L 184.055915 186.683123 
L 184.157404 194.408908 
L 184.36038 185.889096 
L 184.461869 200.869412 
L 184.563357 188.453648 
L 184.664846 193.849392 
L 184.766334 190.442537 
L 184.969311 182.526758 
L 185.070799 199.037566 
L 185.172287 197.902843 
L 185.273776 178.120467 
L 185.375264 183.929191 
L 185.476753 177.844553 
L 185.679729 193.154602 
L 185.781218 182.127839 
L 185.882706 182.326906 
L 185.984194 184.716131 
L 186.187171 193.47312 
L 186.28866 192.731764 
L 186.390148 194.82399 
L 186.491636 183.840045 
L 186.694613 200.744994 
L 186.796101 199.655501 
L 186.89759 194.079251 
L 186.999078 195.925295 
L 187.202055 186.149195 
L 187.303543 189.77092 
L 187.405032 181.075609 
L 187.608008 192.073604 
L 187.709497 190.833111 
L 187.810985 193.544091 
L 187.912474 192.763122 
L 188.013962 194.208456 
L 188.216939 186.414679 
L 188.318427 186.951771 
L 188.419915 194.359165 
L 188.622892 183.020457 
L 188.724381 191.469052 
L 188.825869 188.346112 
L 188.927357 196.164897 
L 189.028846 180.381564 
L 189.130334 186.027058 
L 189.231822 185.453691 
L 189.434799 197.871385 
L 189.536288 195.544997 
L 189.637776 198.822643 
L 189.739264 188.543484 
L 189.840753 190.645827 
L 189.942241 190.268199 
L 190.043729 190.368954 
L 190.145218 198.080416 
L 190.348195 180.424826 
L 190.449683 180.954626 
L 190.551171 196.205905 
L 190.65266 194.953213 
L 190.855636 186.868454 
L 190.957125 189.466091 
L 191.058613 199.604168 
L 191.160102 192.265459 
L 191.26159 173.119038 
L 191.464567 199.697266 
L 191.566055 186.612978 
L 191.667543 196.452073 
L 191.769032 190.574581 
L 191.972009 198.803521 
L 192.073497 189.107664 
L 192.174985 193.123597 
L 192.276474 190.789649 
L 192.377962 197.201361 
L 192.682427 185.631067 
L 192.783916 197.757275 
L 192.885404 191.117871 
L 192.986892 198.292364 
L 193.088381 188.247299 
L 193.189869 193.547208 
L 193.291357 185.46213 
L 193.392846 194.766284 
L 193.494334 182.578686 
L 193.798799 194.713621 
L 193.900288 190.017345 
L 194.103264 198.152922 
L 194.306241 191.698098 
L 194.40773 193.439151 
L 194.509218 183.201718 
L 194.610706 188.677666 
L 194.712195 175.656197 
L 194.915171 192.826306 
L 195.01666 193.804048 
L 195.118148 184.836013 
L 195.219637 195.676587 
L 195.524102 181.002722 
L 195.62559 191.833686 
L 195.727078 190.953668 
L 195.930055 186.029243 
L 196.133032 194.718589 
L 196.23452 190.285099 
L 196.336009 192.186021 
L 196.437497 198.202299 
L 196.538985 182.168379 
L 196.741962 196.96294 
L 196.843451 193.638655 
L 196.944939 198.354432 
L 197.147916 191.515194 
L 197.249404 191.945845 
L 197.350892 191.586961 
L 197.553869 195.547862 
L 197.655358 197.24844 
L 197.858334 188.966132 
L 198.162799 198.736854 
L 198.264288 201.783435 
L 198.365776 185.465374 
L 198.568753 205.74677 
L 199.076195 184.033168 
L 199.177683 194.464337 
L 199.279172 193.820701 
L 199.38066 194.788297 
L 199.482148 176.4437 
L 199.786613 203.031304 
L 199.98959 184.894344 
L 200.091079 188.023102 
L 200.192567 187.369923 
L 200.497032 194.872836 
L 200.59852 188.342347 
L 200.700009 198.01239 
L 200.801497 193.569684 
L 200.902986 194.397478 
L 201.004474 181.183156 
L 201.105962 194.069709 
L 201.207451 180.890678 
L 201.410427 193.17256 
L 201.613404 190.05141 
L 201.714893 193.13798 
L 201.816381 191.437442 
L 202.019358 196.183721 
L 202.222334 185.751965 
L 202.323823 201.817354 
L 202.425311 189.151558 
L 202.5268 200.718537 
L 202.628288 185.944273 
L 202.729776 201.43205 
L 202.831265 184.504633 
L 202.932753 197.080667 
L 203.034241 196.167018 
L 203.13573 189.065297 
L 203.338707 196.52063 
L 203.440195 192.018007 
L 203.541683 192.700385 
L 203.74466 195.414072 
L 203.947637 185.896909 
L 204.049125 204.001019 
L 204.150614 186.427189 
L 204.252102 192.886938 
L 204.35359 191.937569 
L 204.455079 200.929809 
L 204.556567 190.775828 
L 204.658055 204.529506 
L 204.759544 192.379613 
L 204.861032 199.277692 
L 205.064009 189.147656 
L 205.165497 191.09689 
L 205.266986 180.392768 
L 205.469962 186.521779 
L 205.571451 204.214294 
L 205.672939 197.695059 
L 205.774428 181.573246 
L 205.875916 186.261748 
L 205.977404 180.079541 
L 206.078893 203.756897 
L 206.180381 201.154251 
L 206.383358 184.75159 
L 206.586335 204.11625 
L 206.687823 186.726153 
L 206.789311 195.82307 
L 206.992288 185.148614 
L 207.093776 190.805444 
L 207.195265 190.063619 
L 207.296753 183.885813 
L 207.398242 198.05084 
L 207.601218 184.610606 
L 207.702707 200.368443 
L 207.804195 193.143903 
L 207.905683 199.76169 
L 208.007172 196.84569 
L 208.210149 182.984108 
L 208.311637 195.435442 
L 208.413125 195.229793 
L 208.514614 199.721708 
L 208.616102 168.80669 
L 208.819079 199.189265 
L 208.920567 184.733131 
L 209.123544 195.687893 
L 209.225032 188.642364 
L 209.326521 192.340763 
L 209.428009 189.646383 
L 209.529497 195.6233 
L 209.630986 186.441899 
L 209.833963 193.898993 
L 209.935451 193.942739 
L 210.239916 190.287279 
L 210.341404 191.099622 
L 210.442893 189.223119 
L 210.544381 205.562682 
L 210.747358 187.897802 
L 210.848846 195.704572 
L 210.950335 179.198706 
L 211.051823 203.505325 
L 211.153311 191.575604 
L 211.2548 195.181451 
L 211.457777 186.181505 
L 211.559265 185.406217 
L 211.660753 191.630928 
L 211.762242 205.641071 
L 211.86373 182.692325 
L 211.965218 195.517475 
L 212.066707 193.126129 
L 212.168195 187.072175 
L 212.371172 193.344324 
L 212.47266 185.90647 
L 212.574149 188.751207 
L 212.675637 179.181658 
L 212.777125 185.056699 
L 212.878614 183.394842 
L 213.081591 192.571836 
L 213.183079 199.502587 
L 213.284567 192.018965 
L 213.386056 202.870305 
L 213.487544 186.057964 
L 213.589032 196.382052 
L 213.690521 190.201897 
L 213.792009 195.395389 
L 213.994986 190.528713 
L 214.096474 199.300018 
L 214.197963 190.895374 
L 214.299451 200.434652 
L 214.400939 197.286105 
L 214.502428 184.553749 
L 214.603916 197.400454 
L 214.705405 189.793901 
L 214.806893 201.003321 
L 214.908381 188.677876 
L 215.00987 195.417804 
L 215.212846 186.141002 
L 215.314335 197.486262 
L 215.415823 189.021924 
L 215.517312 201.938985 
L 215.6188 180.538243 
L 215.821777 195.136564 
L 215.923265 195.796011 
L 216.024753 199.226383 
L 216.329219 185.528221 
L 216.532195 195.126524 
L 216.633684 193.912798 
L 216.735172 202.062226 
L 217.039637 183.865043 
L 217.141126 193.622744 
L 217.242614 180.829626 
L 217.344102 192.817219 
L 217.445591 191.140162 
L 217.547079 178.537724 
L 217.648567 191.81488 
L 217.750056 187.075134 
L 217.953033 195.735367 
L 218.054521 196.355743 
L 218.156009 178.432852 
L 218.257498 204.58474 
L 218.358986 192.078722 
L 218.460474 197.933745 
L 218.561963 188.421858 
L 218.663451 191.887241 
L 218.76494 205.917141 
L 218.967916 195.208873 
L 219.069405 200.570869 
L 219.170893 196.878227 
L 219.272381 199.871377 
L 219.475358 185.584388 
L 219.576847 180.826646 
L 219.678335 183.863121 
L 219.779823 193.098151 
L 220.084288 181.085413 
L 220.185777 193.328703 
L 220.287265 178.311332 
L 220.490242 208.755328 
L 220.59173 190.093782 
L 220.693219 210.860395 
L 220.997684 188.454011 
L 221.200661 184.412923 
L 221.606614 195.212098 
L 221.809591 190.292286 
L 221.911079 201.363203 
L 222.012568 192.758578 
L 222.317033 204.881788 
L 222.418521 201.548589 
L 222.520009 189.976748 
L 222.621498 202.533652 
L 222.824475 196.891514 
L 222.925963 186.469229 
L 223.027451 195.190262 
L 223.230428 187.685214 
L 223.331916 197.007039 
L 223.534893 185.076726 
L 223.636382 187.299099 
L 223.839358 203.011218 
L 223.940847 191.7498 
L 224.042335 197.570793 
L 224.143823 197.215679 
L 224.245312 188.434805 
L 224.448289 201.178798 
L 224.549777 198.894976 
L 224.651265 192.636906 
L 224.752754 205.416388 
L 224.854242 192.70904 
L 224.95573 197.606916 
L 225.057219 196.777854 
L 225.260196 182.207856 
L 225.361684 197.625549 
L 225.463172 186.484429 
L 225.564661 188.294526 
L 225.666149 194.622309 
L 225.767637 193.39801 
L 225.869126 196.959979 
L 225.970614 191.750121 
L 226.275079 199.267881 
L 226.376568 195.725006 
L 226.478056 199.285255 
L 226.579544 188.061936 
L 226.782521 200.094955 
L 226.985498 189.851884 
L 227.188475 196.800943 
L 227.391451 201.564971 
L 227.594428 183.40207 
L 227.797405 194.203659 
L 227.898893 190.255979 
L 228.000382 192.454754 
L 228.10187 201.656394 
L 228.203358 186.802684 
L 228.304847 187.797094 
L 228.406335 188.127401 
L 228.507824 191.096626 
L 228.7108 205.084028 
L 228.812289 189.088568 
L 228.913777 200.924984 
L 229.015265 187.397912 
L 229.116754 191.501774 
L 229.218242 201.86198 
L 229.421219 182.223856 
L 229.624196 188.375616 
L 229.725684 197.607832 
L 229.827172 190.886487 
L 229.928661 200.422021 
L 230.030149 198.931388 
L 230.131638 186.032787 
L 230.233126 192.731253 
L 230.334614 188.981774 
L 230.537591 198.094813 
L 230.639079 203.748679 
L 230.740568 198.693444 
L 230.842056 201.081963 
L 230.943545 177.353671 
L 231.045033 198.822846 
L 231.146521 183.408757 
L 231.349498 200.20668 
L 231.450986 191.511019 
L 231.552475 200.18516 
L 231.653963 200.030594 
L 231.85694 190.99793 
L 231.958428 190.614795 
L 232.161405 200.743175 
L 232.262893 194.615967 
L 232.364382 195.150135 
L 232.567359 206.634829 
L 232.668847 205.38062 
L 232.770335 181.306588 
L 232.871824 194.456421 
L 233.0748 192.718538 
L 233.176289 180.605335 
L 233.379266 197.911501 
L 233.480754 192.23309 
L 233.582242 202.77914 
L 233.683731 184.678139 
L 233.785219 195.416854 
L 233.886707 194.123351 
L 233.988196 194.458761 
L 234.089684 203.648866 
L 234.191173 192.333113 
L 234.292661 201.433108 
L 234.394149 192.899826 
L 234.495638 195.927037 
L 234.597126 192.442434 
L 234.800103 200.679687 
L 234.901591 198.899159 
L 235.104568 203.981328 
L 235.206056 188.741093 
L 235.409033 193.423435 
L 235.510521 202.42244 
L 235.713498 191.595064 
L 235.814987 200.396568 
L 235.916475 198.533169 
L 236.017963 180.873046 
L 236.119452 193.103832 
L 236.22094 186.810934 
L 236.322428 195.197517 
L 236.423917 186.988257 
L 236.626894 201.26289 
L 236.82987 196.160822 
L 236.931359 189.159524 
L 237.032847 198.999474 
L 237.235824 182.533745 
L 237.438801 200.367363 
L 237.641777 187.217609 
L 237.946242 198.981529 
L 238.047731 187.207542 
L 238.149219 201.866852 
L 238.250708 201.39614 
L 238.352196 198.02152 
L 238.453684 187.882807 
L 238.555173 188.44525 
L 238.656661 192.139822 
L 238.859638 186.940257 
L 239.164103 201.753443 
L 239.265591 193.806135 
L 239.36708 177.06709 
L 239.468568 192.834883 
L 239.570056 187.90223 
L 239.773033 203.205974 
L 239.97601 189.99001 
L 240.077498 199.646193 
L 240.381963 185.025546 
L 240.483452 193.893323 
L 240.58494 190.596262 
L 240.686429 192.770756 
L 240.787917 192.03893 
L 240.889405 210.92855 
L 240.990894 185.726483 
L 241.092382 200.985575 
L 241.19387 195.759341 
L 241.295359 201.006727 
L 241.498336 192.461109 
L 241.599824 202.874504 
L 241.701312 191.285206 
L 241.904289 201.264133 
L 242.005777 178.750075 
L 242.208754 201.822479 
L 242.310243 188.92238 
L 242.411731 198.074398 
L 242.513219 196.801533 
L 242.614708 208.076643 
L 242.817684 191.836608 
L 243.020661 200.988745 
L 243.12215 202.75976 
L 243.223638 209.95104 
L 243.325126 183.99098 
L 243.426615 200.946946 
L 243.528103 189.267202 
L 243.629591 200.874022 
L 243.73108 187.280377 
L 243.934057 197.843033 
L 244.035545 197.057975 
L 244.137033 197.879914 
L 244.238522 205.653626 
L 244.34001 186.708636 
L 244.441498 186.911495 
L 244.542987 192.634563 
L 244.644475 182.996965 
L 244.745964 194.577046 
L 244.847452 187.971664 
L 244.94894 197.111688 
L 245.050429 193.774485 
L 245.151917 180.471131 
L 245.354894 207.308949 
L 245.456382 188.531859 
L 245.659359 202.439691 
L 245.760847 200.630655 
L 246.065312 186.718677 
L 246.166801 196.49524 
L 246.268289 191.336429 
L 246.369778 201.41581 
L 246.471266 189.695389 
L 246.674243 208.280317 
L 246.877219 187.694928 
L 246.978708 199.453054 
L 247.080196 194.53236 
L 247.181685 180.980841 
L 247.283173 200.292288 
L 247.384661 198.684094 
L 247.48615 202.125479 
L 247.587638 191.057555 
L 247.689126 194.724501 
L 247.790615 193.498523 
L 247.892103 195.599313 
L 247.993592 202.745268 
L 248.09508 188.665662 
L 248.399545 205.751106 
L 248.602522 192.533613 
L 248.70401 194.37715 
L 248.805499 176.838134 
L 248.906987 201.698756 
L 249.008475 196.372954 
L 249.109964 199.60017 
L 249.211452 198.944972 
L 249.31294 194.259199 
L 249.515917 201.760287 
L 249.718894 189.276579 
L 249.820382 195.208694 
L 249.921871 182.25633 
L 250.124847 198.361237 
L 250.226336 202.329972 
L 250.327824 189.985956 
L 250.429313 202.341234 
L 250.530801 195.110716 
L 250.632289 203.916606 
L 250.835266 194.849657 
L 250.936754 210.067588 
L 251.038243 195.757064 
L 251.139731 196.823469 
L 251.24122 184.069938 
L 251.444196 197.294052 
L 251.545685 196.153548 
L 251.647173 190.866059 
L 251.748661 204.592346 
L 251.951638 187.873262 
L 252.053127 197.477193 
L 252.154615 188.46899 
L 252.256103 197.437203 
L 252.357592 188.868894 
L 252.45908 206.170964 
L 252.662057 195.436042 
L 252.763545 199.07237 
L 252.865034 191.016236 
L 253.169499 202.929175 
L 253.270987 201.211962 
L 253.372475 203.970209 
L 253.575452 198.071984 
L 253.778429 182.90377 
L 253.981406 196.424927 
L 254.082894 191.473701 
L 254.184382 203.712311 
L 254.285871 200.47416 
L 254.387359 190.355586 
L 254.590336 198.551602 
L 254.691824 193.393098 
L 254.793313 202.02012 
L 254.894801 201.370961 
L 254.996289 190.187329 
L 255.097778 197.013634 
L 255.199266 187.591909 
L 255.300755 194.872165 
L 255.402243 186.992554 
L 255.503731 196.845711 
L 255.60522 182.442182 
L 255.808196 199.726902 
L 255.909685 192.625502 
L 256.112662 202.703046 
L 256.315638 189.37655 
L 256.417127 204.315539 
L 256.518615 195.426721 
L 256.620103 200.208825 
L 256.82308 198.16153 
L 256.924569 184.553018 
L 257.127545 192.381087 
L 257.229034 197.612286 
L 257.330522 186.592803 
L 257.43201 196.376366 
L 257.533499 193.41678 
L 257.634987 202.413266 
L 257.736476 186.485266 
L 257.939452 200.262528 
L 258.040941 193.232676 
L 258.142429 200.592287 
L 258.243917 178.399293 
L 258.446894 197.983757 
L 258.548383 207.820514 
L 258.852848 189.503661 
L 258.954336 199.896983 
L 259.055824 187.0046 
L 259.157313 187.048451 
L 259.258801 199.282833 
L 259.461778 186.736198 
L 259.563266 204.267146 
L 259.766243 188.369167 
L 259.96922 197.429485 
L 260.070708 191.32025 
L 260.273685 205.189266 
L 260.375173 198.352026 
L 260.476662 204.359496 
L 260.57815 191.5013 
L 260.679638 199.447012 
L 260.781127 195.455896 
L 260.984104 200.608337 
L 261.085592 183.693795 
L 261.288569 201.80674 
L 261.390057 186.708479 
L 261.491545 195.515461 
L 261.593034 193.247654 
L 261.694522 203.05596 
L 261.796011 179.738894 
L 261.897499 204.106584 
L 261.998987 195.285994 
L 262.201964 199.739935 
L 262.404941 192.904043 
L 262.506429 206.074163 
L 262.607918 182.294459 
L 262.912383 198.364794 
L 263.013871 194.983478 
L 263.115359 198.90704 
L 263.318336 179.640476 
L 263.419825 188.383703 
L 263.521313 185.318245 
L 263.72429 194.995485 
L 263.825778 183.926432 
L 263.927266 187.232587 
L 264.028755 198.32041 
L 264.130243 195.076126 
L 264.231732 204.371292 
L 264.33322 199.532418 
L 264.434708 201.748652 
L 264.536197 192.398936 
L 264.637685 205.235558 
L 264.739173 197.533067 
L 264.840662 204.055114 
L 264.94215 187.653856 
L 265.043639 188.244619 
L 265.145127 200.929248 
L 265.246615 197.981456 
L 265.348104 202.40017 
L 265.55108 193.721904 
L 265.652569 200.569221 
L 265.754057 198.845056 
L 265.855546 200.595448 
L 265.957034 188.32224 
L 266.261499 211.673805 
L 266.464476 179.006046 
L 266.565964 195.248816 
L 266.667453 192.084924 
L 266.768941 192.652032 
L 266.971918 201.511793 
L 267.073406 201.100227 
L 267.174894 195.123244 
L 267.276383 195.149774 
L 267.47936 190.206652 
L 267.580848 203.779976 
L 267.682336 197.333897 
L 267.783825 197.989411 
L 267.885313 194.65796 
L 268.08829 199.809854 
L 268.189778 193.983777 
L 268.291267 198.596741 
L 268.392755 196.28454 
L 268.494243 204.157025 
L 268.595732 189.353405 
L 268.69722 192.964548 
L 268.900197 204.038003 
L 269.001685 203.946245 
L 269.103174 187.677427 
L 269.204662 202.074933 
L 269.30615 192.902079 
L 269.407639 193.04835 
L 269.509127 194.190897 
L 269.610615 197.984278 
L 269.712104 206.045003 
L 269.813592 203.478945 
L 269.915081 184.792772 
L 270.016569 202.007179 
L 270.118057 200.181287 
L 270.321034 193.628941 
L 270.625499 206.467138 
L 270.828476 189.267818 
L 271.132941 193.253346 
L 271.335918 191.429618 
L 271.437406 205.558962 
L 271.538894 184.037991 
L 271.741871 207.243603 
L 271.944848 193.176967 
L 272.046336 193.138481 
L 272.147825 204.923829 
L 272.249313 192.940919 
L 272.350801 200.801171 
L 272.45229 200.204021 
L 272.553778 200.394725 
L 272.655267 195.716816 
L 272.756755 182.540742 
L 272.858243 195.97438 
L 272.959732 187.931819 
L 273.06122 201.989036 
L 273.162708 199.147095 
L 273.264197 202.894645 
L 273.365685 198.759598 
L 273.568662 211.272153 
L 273.67015 194.891766 
L 273.873127 203.502682 
L 273.974615 193.376135 
L 274.177592 209.076055 
L 274.279081 193.444474 
L 274.482057 199.864649 
L 274.583546 201.071862 
L 274.786522 192.861008 
L 274.989499 197.746653 
L 275.090988 204.547143 
L 275.192476 191.932436 
L 275.293964 195.621579 
L 275.496941 181.526151 
L 275.598429 208.572679 
L 275.801406 188.963499 
L 276.004383 194.394453 
L 276.20736 205.971436 
L 276.511825 198.446964 
L 276.714802 202.988508 
L 276.917778 189.870859 
L 277.120755 196.693899 
L 277.222243 192.385557 
L 277.42522 202.417897 
L 277.526709 203.024541 
L 277.628197 195.725716 
L 277.729685 198.203655 
L 277.831174 196.303949 
L 277.932662 204.990991 
L 278.237127 185.099629 
L 278.338616 202.870268 
L 278.440104 192.053661 
L 278.744569 205.700881 
L 278.846057 193.673214 
L 279.049034 202.277497 
L 279.252011 192.69274 
L 279.353499 196.568852 
L 279.454988 186.497923 
L 279.556476 187.929292 
L 279.759453 202.648612 
L 279.860941 192.177029 
L 279.96243 203.826937 
L 280.063918 188.289872 
L 280.266895 199.11147 
L 280.368383 195.012862 
L 280.57136 200.713544 
L 280.672848 195.074204 
L 280.774337 209.570791 
L 280.875825 193.200754 
L 281.078802 198.72536 
L 281.18029 194.324074 
L 281.281778 204.481942 
L 281.383267 195.288971 
L 281.586244 205.370775 
L 281.687732 201.740202 
L 281.78922 188.770171 
L 281.992197 201.595847 
L 282.093685 190.423657 
L 282.195174 199.485133 
L 282.296662 191.642669 
L 282.499639 202.508835 
L 282.702616 194.802904 
L 282.804104 202.235556 
L 282.905592 193.323022 
L 283.007081 193.422624 
L 283.210058 198.755515 
L 283.311546 201.744695 
L 283.413034 209.319471 
L 283.616011 191.813943 
L 283.818988 203.121372 
L 283.920476 188.413866 
L 284.021965 199.007838 
L 284.123453 194.948635 
L 284.224941 202.090552 
L 284.32643 201.79368 
L 284.427918 199.241972 
L 284.630895 205.537315 
L 284.732383 189.931137 
L 284.833872 192.002723 
L 285.036848 206.780194 
L 285.138337 202.169484 
L 285.239825 185.464631 
L 285.341313 190.882812 
L 285.442802 202.322993 
L 285.54429 178.443198 
L 285.645779 206.366957 
L 285.848755 197.46108 
L 285.950244 203.047907 
L 286.051732 190.865885 
L 286.15322 192.867147 
L 286.254709 199.842007 
L 286.356197 199.535216 
L 286.457686 193.581283 
L 286.559174 203.515239 
L 286.660662 198.446119 
L 286.762151 206.566295 
L 286.863639 206.34964 
L 286.965127 200.907378 
L 287.066616 204.464679 
L 287.269593 195.666725 
L 287.472569 188.761057 
L 287.675546 198.821477 
L 287.777034 193.177025 
L 287.878523 195.283127 
L 287.980011 190.850354 
L 288.0815 192.259746 
L 288.284476 203.509684 
L 288.385965 205.748576 
L 288.487453 193.298382 
L 288.588941 195.120398 
L 288.791918 190.937931 
L 288.893407 191.858321 
L 289.096383 199.2313 
L 289.197872 200.671329 
L 289.29936 197.816029 
L 289.502337 188.128259 
L 289.603825 207.37335 
L 289.705314 190.944965 
L 289.806802 199.533007 
L 289.90829 194.848812 
L 290.009779 202.85803 
L 290.111267 188.259151 
L 290.314244 204.203567 
L 290.415732 194.378555 
L 290.618709 200.990769 
L 290.720197 191.193301 
L 290.923174 199.794154 
L 291.024662 197.584093 
L 291.126151 206.781081 
L 291.227639 203.289642 
L 291.430616 190.258153 
L 291.532104 190.253378 
L 291.633593 201.55506 
L 291.735081 190.525528 
L 291.836569 204.098942 
L 291.938058 196.558382 
L 292.039546 203.706899 
L 292.141035 202.442136 
L 292.242523 191.144959 
L 292.344011 200.245443 
L 292.4455 189.809449 
L 292.546988 196.614741 
L 292.648476 191.623062 
L 292.749965 201.802136 
L 292.952942 194.703776 
L 293.05443 197.187195 
L 293.155918 195.379955 
L 293.257407 188.111406 
L 293.358895 208.84961 
L 293.460383 198.596311 
L 293.561872 199.689458 
L 293.66336 207.985665 
L 293.764849 201.033154 
L 293.866337 209.67048 
L 294.170802 190.545219 
L 294.27229 203.305281 
L 294.373779 198.080921 
L 294.576756 201.984934 
L 294.678244 200.945288 
L 294.779732 198.564503 
L 294.881221 201.056386 
L 294.982709 206.94531 
L 295.084197 191.475892 
L 295.185686 200.354109 
L 295.287174 191.750995 
L 295.388663 199.981912 
L 295.693128 196.479511 
L 295.794616 202.019188 
L 295.896104 193.511775 
L 295.997593 199.307012 
L 296.099081 197.009338 
L 296.20057 197.187074 
L 296.302058 205.485861 
L 296.403546 192.564581 
L 296.606523 200.306153 
L 296.708011 189.794654 
L 296.8095 191.783638 
L 297.012477 204.867386 
L 297.113965 193.887829 
L 297.215453 199.901595 
L 297.41843 190.662664 
L 297.621407 202.205169 
L 297.722895 190.365827 
L 297.824384 202.369422 
L 297.925872 202.353909 
L 298.02736 188.801402 
L 298.128849 203.166626 
L 298.331825 194.348864 
L 298.636291 198.622968 
L 298.737779 197.918437 
L 298.839267 204.601886 
L 298.940756 200.004962 
L 299.143732 206.809496 
L 299.245221 192.406828 
L 299.346709 199.675535 
L 299.448198 197.938692 
L 299.549686 202.028262 
L 299.651174 194.137898 
L 299.752663 197.767202 
L 299.854151 191.938422 
L 299.955639 169.243395 
L 300.057128 200.754136 
L 300.158616 193.155102 
L 300.260105 201.174668 
L 300.361593 196.373043 
L 300.463081 203.071047 
L 300.56457 197.811172 
L 300.666058 205.003819 
L 300.869035 190.788791 
L 301.072012 198.963804 
L 301.1735 197.524812 
L 301.274988 202.582176 
L 301.376477 182.339858 
L 301.579453 207.27991 
L 301.78243 199.325729 
L 301.883919 204.980316 
L 302.188384 192.427803 
L 302.289872 188.96251 
L 302.39136 203.475215 
L 302.492849 189.723167 
L 302.594337 192.147582 
L 302.695826 202.578348 
L 302.797314 194.423744 
L 303.000291 209.865988 
L 303.101779 201.111241 
L 303.203267 202.742422 
L 303.304756 189.404533 
L 303.406244 200.140276 
L 303.609221 195.555011 
L 303.812198 209.221501 
L 304.015174 197.434692 
L 304.116663 204.916687 
L 304.31964 184.279278 
L 304.421128 202.305282 
L 304.522616 201.111384 
L 304.624105 207.223062 
L 304.725593 181.735169 
L 304.92857 202.218613 
L 305.030058 189.204128 
L 305.131547 195.082275 
L 305.233035 209.394262 
L 305.334523 204.484728 
L 305.436012 190.756332 
L 305.5375 205.805988 
L 305.740477 193.628388 
L 305.841965 201.857065 
L 305.943454 199.612145 
L 306.044942 200.681743 
L 306.14643 192.75564 
L 306.247919 197.64266 
L 306.349407 196.504385 
L 306.450895 204.734839 
L 306.552384 197.230431 
L 306.653872 202.129631 
L 306.856849 193.823244 
L 306.958337 193.257458 
L 307.059826 208.321884 
L 307.161314 196.800625 
L 307.364291 204.322802 
L 307.567268 200.607597 
L 307.668756 201.133059 
L 307.770244 186.661742 
L 307.871733 203.982637 
L 307.973221 195.700942 
L 308.176198 204.04127 
L 308.277686 196.40869 
L 308.480663 202.867741 
L 308.582151 197.941135 
L 308.68364 209.465297 
L 308.886616 189.423792 
L 309.089593 198.050443 
L 309.191082 190.034246 
L 309.29257 197.39938 
L 309.394058 189.572616 
L 309.495547 195.587696 
L 309.597035 192.665842 
L 309.698523 203.2448 
L 309.9015 194.855311 
L 310.002989 198.208275 
L 310.104477 192.935938 
L 310.205965 199.515415 
L 310.307454 199.007514 
L 310.408942 202.08232 
L 310.611919 197.983375 
L 310.713407 207.177123 
L 310.814896 193.825139 
L 310.916384 198.14096 
L 311.017872 208.089674 
L 311.119361 193.445942 
L 311.322337 198.84235 
L 311.423826 199.737253 
L 311.525314 205.029675 
L 311.626803 183.418518 
L 311.728291 202.3735 
L 311.829779 186.230964 
L 312.032756 207.316238 
L 312.134244 207.554887 
L 312.235733 181.985122 
L 312.337221 203.799448 
L 312.43871 202.201079 
L 312.540198 191.934263 
L 312.641686 193.262096 
L 312.844663 210.319146 
L 313.04764 185.229015 
L 313.250617 199.871593 
L 313.352105 204.192189 
L 313.453593 199.654159 
L 313.555082 200.731242 
L 313.65657 200.63374 
L 313.758058 201.07505 
L 313.859547 206.689295 
L 313.961035 205.016052 
L 314.164012 193.054784 
L 314.2655 189.087194 
L 314.366989 189.129129 
L 314.569965 206.2164 
L 314.671454 207.171803 
L 314.772942 194.112484 
L 314.975919 205.485977 
L 315.178896 189.516429 
L 315.381872 205.864976 
L 315.483361 186.097756 
L 315.686338 205.390634 
L 315.787826 190.124719 
L 315.889314 191.390942 
L 315.990803 194.279648 
L 316.092291 201.672263 
L 316.193779 196.887486 
L 316.295268 205.99417 
L 316.599733 191.757566 
L 316.701221 182.880757 
L 316.904198 203.074669 
L 317.107175 198.319639 
L 317.208663 196.258623 
L 317.310152 198.371656 
L 317.41164 209.780993 
L 317.513128 196.335088 
L 317.614617 201.067877 
L 317.716105 190.669377 
L 317.817593 197.357806 
L 317.919082 192.31148 
L 318.02057 206.664328 
L 318.325035 187.906226 
L 318.426524 195.980568 
L 318.528012 194.916695 
L 318.6295 200.773393 
L 318.730989 199.245939 
L 318.832477 199.626349 
L 318.933966 188.898114 
L 319.035454 191.315448 
L 319.136942 189.908019 
L 319.238431 206.680563 
L 319.339919 203.714912 
L 319.441407 213.118652 
L 319.542896 188.935185 
L 319.644384 200.863471 
L 319.745873 198.121719 
L 319.847361 201.601607 
L 319.948849 191.559652 
L 320.050338 193.801257 
L 320.151826 175.543164 
L 320.253314 195.54605 
L 320.354803 187.695044 
L 320.456291 190.945796 
L 320.659268 205.011214 
L 320.760756 210.216264 
L 320.963733 197.33028 
L 321.065221 208.723754 
L 321.268198 192.98833 
L 321.369687 202.969962 
L 321.471175 200.695156 
L 321.572663 200.966527 
L 321.674152 187.934335 
L 321.877128 208.173026 
L 321.978617 202.725524 
L 322.080105 206.535195 
L 322.283082 186.030439 
L 322.486059 199.427048 
L 322.587547 208.017647 
L 322.689035 194.757112 
L 322.790524 203.162343 
L 322.892012 190.36888 
L 322.993501 202.346857 
L 323.094989 199.623733 
L 323.196477 187.593604 
L 323.399454 201.715343 
L 323.500942 191.059898 
L 323.602431 196.744998 
L 323.703919 195.183654 
L 323.805408 206.903056 
L 324.109873 178.692071 
L 324.211361 192.556699 
L 324.312849 191.878301 
L 324.414338 196.929858 
L 324.515826 208.923716 
L 324.617315 200.373995 
L 324.718803 204.222426 
L 324.820291 199.648188 
L 324.92178 201.462239 
L 325.023268 194.072923 
L 325.124756 208.173928 
L 325.429222 197.725177 
L 325.53071 202.61406 
L 325.632198 195.318755 
L 325.835175 204.108595 
L 325.936663 202.350734 
L 326.038152 197.585354 
L 326.241129 205.374987 
L 326.342617 199.877556 
L 326.444105 204.34761 
L 326.545594 189.476226 
L 326.647082 198.93367 
L 326.74857 191.445913 
L 326.850059 201.922305 
L 326.951547 190.516325 
L 327.053036 191.293556 
L 327.154524 210.29358 
L 327.256012 187.61438 
L 327.357501 205.070568 
L 327.458989 197.838681 
L 327.560477 199.423705 
L 327.661966 193.756374 
L 327.864943 199.316945 
L 328.067919 188.209328 
L 328.169408 190.802069 
L 328.372384 205.119055 
L 328.67685 190.800869 
L 328.778338 206.415505 
L 328.879826 191.46542 
L 328.981315 192.597892 
L 329.28578 211.061098 
L 329.387268 209.989211 
L 329.488757 195.401688 
L 329.590245 204.322023 
L 329.691733 202.731429 
L 329.793222 206.255277 
L 329.89471 205.184283 
L 329.996198 209.085358 
L 330.097687 199.917577 
L 330.300664 203.587808 
L 330.402152 198.904916 
L 330.50364 211.464592 
L 330.605129 199.646443 
L 330.706617 210.027006 
L 330.909594 189.433737 
L 331.011082 204.447354 
L 331.112571 195.695898 
L 331.214059 199.004389 
L 331.417036 182.135542 
L 331.620012 202.23866 
L 331.822989 213.462363 
L 332.025966 187.696881 
L 332.330431 204.541518 
L 332.533408 194.991331 
L 332.634896 197.224363 
L 332.736385 191.613228 
L 332.939361 201.773697 
L 333.04085 202.32913 
L 333.142338 199.270553 
L 333.243826 205.560478 
L 333.345315 204.981335 
L 333.548292 199.493094 
L 333.64978 207.851972 
L 333.751268 196.661009 
L 333.852757 203.430639 
L 333.954245 195.793184 
L 334.055733 209.52438 
L 334.25871 194.328144 
L 334.461687 214.409199 
L 334.563175 196.051474 
L 334.664664 204.086588 
L 334.86764 193.908831 
L 334.969129 194.389096 
L 335.070617 200.9506 
L 335.273594 196.25622 
L 335.375082 190.736863 
L 335.476571 203.04731 
L 335.578059 201.827713 
L 335.679547 210.733044 
L 335.781036 190.966172 
L 335.984013 196.150621 
L 336.085501 207.387278 
L 336.288478 197.63681 
L 336.389966 199.483914 
L 336.592943 207.992951 
L 336.694431 187.933872 
L 336.897408 198.836522 
L 336.998896 188.092747 
L 337.201873 200.888471 
L 337.40485 185.120878 
L 337.506338 201.884866 
L 337.709315 196.255977 
L 337.810803 197.065825 
L 337.912292 195.825432 
L 338.01378 196.53776 
L 338.115268 203.867195 
L 338.318245 196.350567 
L 338.419734 201.811231 
L 338.521222 191.602187 
L 338.724199 195.578182 
L 338.825687 207.571662 
L 338.927175 198.993243 
L 339.028664 212.99045 
L 339.434617 189.327602 
L 339.637594 206.467117 
L 339.739082 194.764031 
L 339.840571 200.516416 
L 339.942059 199.225156 
L 340.043548 203.87912 
L 340.145036 195.03776 
L 340.246524 206.369084 
L 340.348013 190.941737 
L 340.449501 191.665614 
L 340.652478 205.962604 
L 340.855455 198.862538 
L 340.956943 202.78038 
L 341.058431 196.227244 
L 341.15992 200.268588 
L 341.261408 197.960625 
L 341.362896 202.403668 
L 341.565873 198.375395 
L 341.667362 190.221488 
L 341.76885 214.756364 
L 341.870338 191.038965 
L 341.971827 191.2364 
L 342.174803 204.196035 
L 342.276292 199.597756 
L 342.37778 200.107049 
L 342.479269 202.669877 
L 342.580757 182.118257 
L 342.682245 210.867464 
L 342.885222 190.097099 
L 342.98671 203.553057 
L 343.088199 198.998877 
L 343.189687 202.115668 
L 343.291176 209.486731 
L 343.595641 196.718402 
L 343.697129 203.973502 
L 343.798617 194.863717 
L 343.900106 205.12119 
L 344.001594 194.605385 
L 344.103083 194.828005 
L 344.204571 196.969977 
L 344.306059 212.026111 
L 344.407548 198.060214 
L 344.509036 203.506989 
L 344.610524 201.436146 
L 344.712013 203.695461 
L 344.813501 201.494081 
L 344.91499 204.104802 
L 345.016478 203.953793 
L 345.117966 201.796018 
L 345.219455 194.236455 
L 345.320943 196.330195 
L 345.422431 187.96423 
L 345.625408 201.088607 
L 345.828385 191.461339 
L 346.031362 197.362354 
L 346.234338 204.104486 
L 346.335827 206.938058 
L 346.437315 206.164451 
L 346.640292 197.977557 
L 346.74178 198.352637 
L 346.843269 195.111364 
L 347.046245 204.646206 
L 347.147734 204.535245 
L 347.249222 194.257417 
L 347.350711 196.891861 
L 347.452199 209.387313 
L 347.553687 200.158572 
L 347.655176 203.827816 
L 347.756664 196.188476 
L 347.959641 208.809251 
L 348.061129 206.881504 
L 348.162618 209.565828 
L 348.365594 193.809439 
L 348.467083 208.244242 
L 348.670059 186.938235 
L 348.771548 208.588716 
L 348.873036 198.583275 
L 348.974525 202.620205 
L 349.076013 198.480609 
L 349.27899 210.856181 
L 349.380478 189.498596 
L 349.481966 204.066812 
L 349.583455 179.720725 
L 349.684943 202.080285 
L 349.684943 202.080285 
" style="fill:none;stroke:#1f77b4;stroke-linecap:square;stroke-width:1.5;"/>
   </g>
   <g id="patch_3">
    <path d="M 30.103125 224.64 
L 30.103125 7.2 
" style="fill:none;stroke:#000000;stroke-linecap:square;stroke-linejoin:miter;stroke-width:0.8;"/>
   </g>
   <g id="patch_4">
    <path d="M 364.903125 224.64 
L 364.903125 7.2 
" style="fill:none;stroke:#000000;stroke-linecap:square;stroke-linejoin:miter;stroke-width:0.8;"/>
   </g>
   <g id="patch_5">
    <path d="M 30.103125 224.64 
L 364.903125 224.64 
" style="fill:none;stroke:#000000;stroke-linecap:square;stroke-linejoin:miter;stroke-width:0.8;"/>
   </g>
   <g id="patch_6">
    <path d="M 30.103125 7.2 
L 364.903125 7.2 
" style="fill:none;stroke:#000000;stroke-linecap:square;stroke-linejoin:miter;stroke-width:0.8;"/>
   </g>
  </g>
 </g>
 <defs>
  <clipPath id="p1e584891b9">
   <rect height="217.44" width="334.8" x="30.103125" y="7.2"/>
  </clipPath>
 </defs>
</svg>
